<svg xmlns="http://www.w3.org/2000/svg" xmlns:xlink="http://www.w3.org/1999/xlink" contentStyleType="text/css" data-diagram-type="SEQUENCE" height="546px" preserveAspectRatio="none" style="width:1047px;height:546px;background:#F5F5F5;" version="1.1" viewBox="0 0 1047 546" width="1047px" zoomAndPan="magnify"><?plantuml 1.2026.4beta2?><defs><linearGradient id="gy5sm751qzi5o0" x1="50%" x2="50%" y1="0%" y2="100%"><stop offset="0%" stop-color="#E0E5F0"/><stop offset="100%" stop-color="#D1D9E6"/></linearGradient><filter height="300%" id="fy5sm751qzi5o" width="300%" x="-1" y="-1"><feGaussianBlur result="blurOut" stdDeviation="2"/><feColorMatrix in="blurOut" result="blurOut2" type="matrix" values="0 0 0 0 0 0 0 0 0 0 0 0 0 0 0 0 0 0 .4 0"/><feOffset dx="4" dy="4" in="blurOut2" result="blurOut3"/><feBlend in="SourceGraphic" in2="blurOut3" mode="normal"/></filter></defs><g><rect fill="#F5F5F5" height="546" style="stroke:none;stroke-width:1;" width="1047" x="0" y="0"/><g class="title" data-source-line="1"><text fill="#000000" font-family="'Arial'" font-size="14" font-weight="700" lengthAdjust="spacing" textLength="138.8994" x="450.7312" y="27.9951">Read-only-Zugriff</text></g><rect fill="#9FBAC4" height="496.6328" rx="5" ry="5" style="stroke:#181818;stroke-width:0.5;" width="74.0586" x="46" y="43.2969"/><text fill="#000000" font-family="'Arial'" font-size="14" font-weight="700" lengthAdjust="spacing" textLength="4.874" x="49" y="56.292">&#160;</text><text fill="#000000" font-family="'Arial'" font-size="14" font-weight="700" lengthAdjust="spacing" textLength="48.5625" x="58.748" y="72.5889">GDA 1</text><rect fill="#C48778" height="496.6328" rx="5" ry="5" style="stroke:#181818;stroke-width:0.5;" width="256.9268" x="420.6899" y="43.2969"/><text fill="#000000" font-family="'Arial'" font-size="14" font-weight="700" lengthAdjust="spacing" textLength="4.874" x="423.6899" y="56.292">&#160;</text><text fill="#000000" font-family="'Arial'" font-size="14" font-weight="700" lengthAdjust="spacing" textLength="182.6904" x="457.8081" y="72.5889">e-Med Fachanwendung</text><rect fill="#BEAEBE" height="496.6328" rx="5" ry="5" style="stroke:#181818;stroke-width:0.5;" width="83.8066" x="816.5796" y="43.2969"/><text fill="#000000" font-family="'Arial'" font-size="14" font-weight="700" lengthAdjust="spacing" textLength="4.874" x="819.5796" y="56.292">&#160;</text><text fill="#000000" font-family="'Arial'" font-size="14" font-weight="700" lengthAdjust="spacing" textLength="48.5625" x="839.0757" y="72.5889">GDA 2</text><rect fill="#BAC38B" height="496.6328" rx="5" ry="5" style="stroke:#181818;stroke-width:0.5;" width="77.9756" x="942.3862" y="43.2969"/><text fill="#000000" font-family="'Arial'" font-size="14" font-weight="700" lengthAdjust="spacing" textLength="4.874" x="945.3862" y="56.292">&#160;</text><text fill="#000000" font-family="'Arial'" font-size="14" font-weight="700" lengthAdjust="spacing" textLength="57.3535" x="950.2603" y="72.5889">Patient</text><g><title>GDA 1</title><rect fill="#FFFFFF" height="160.4219" style="stroke:#181818;stroke-width:1;" width="10" x="78.0293" y="212.6172"/></g><g><title>e-Med FA</title><rect fill="#FFFFFF" height="160.4219" style="stroke:#181818;stroke-width:1;" width="10" x="544.1533" y="212.6172"/></g><rect fill="none" height="270.4453" rx="5" ry="5" style="stroke:#111827;stroke-width:2;" width="752.0601" x="9" y="173.1875"/><rect fill="none" height="96.1563" rx="5" ry="5" style="stroke:#111827;stroke-width:2;" width="551.0679" x="47.7476" y="284.8828"/><g class="participant-lifeline" data-entity-uid="part1" data-qualified-name="GDA_1" data-source-line="42" id="part1-lifeline"><g><title>GDA 1</title><rect fill="#000000" fill-opacity="0.00000" height="304.4453" width="8" x="79.0293" y="156.1875"/><line style="stroke:#181818;stroke-width:0.5;stroke-dasharray:5,5;" x1="82.7476" x2="82.7476" y1="156.1875" y2="460.6328"/></g></g><g class="participant-lifeline" data-entity-uid="part2" data-qualified-name="eMed_FA" data-source-line="46" id="part2-lifeline"><g><title>e-Med FA</title><rect fill="#000000" fill-opacity="0.00000" height="304.4453" width="8" x="545.1533" y="156.1875"/><line style="stroke:#181818;stroke-width:0.5;stroke-dasharray:5,5;" x1="548.4912" x2="548.4912" y1="156.1875" y2="460.6328"/></g></g><g class="participant-lifeline" data-entity-uid="part3" data-qualified-name="GDA_2" data-source-line="50" id="part3-lifeline"><g><title>GDA 2</title><rect fill="#000000" fill-opacity="0.00000" height="304.4453" width="8" x="854.4829" y="156.1875"/><line style="stroke:#181818;stroke-width:0.5;stroke-dasharray:5,5;" x1="858.2012" x2="858.2012" y1="156.1875" y2="460.6328"/></g></g><g class="participant-lifeline" data-entity-uid="part4" data-qualified-name="Patient" data-source-line="54" id="part4-lifeline"><g><title>Patient</title><rect fill="#000000" fill-opacity="0.00000" height="304.4453" width="8" x="977.374" y="156.1875"/><line style="stroke:#181818;stroke-width:0.5;stroke-dasharray:5,5;" x1="980.686" x2="980.686" y1="156.1875" y2="460.6328"/></g></g><g class="participant participant-head" data-entity-uid="part1" data-qualified-name="GDA_1" data-source-line="42" id="part1-head"><text fill="#000000" font-family="'Arial'" font-size="14" lengthAdjust="spacing" textLength="44.5635" x="57.7476" y="152.8857">GDA 1</text><ellipse cx="83.0293" cy="88.3906" fill="#E2E2F0" rx="8" ry="8" style="stroke:#181818;stroke-width:0.5;"/><path d="M83.0293,96.3906 L83.0293,123.3906 M70.0293,104.3906 L96.0293,104.3906 M83.0293,123.3906 L70.0293,138.3906 M83.0293,123.3906 L96.0293,138.3906" fill="none" style="stroke:#181818;stroke-width:0.5;"/></g><g class="participant participant-tail" data-entity-uid="part1" data-qualified-name="GDA_1" data-source-line="42" id="part1-tail"><text fill="#000000" font-family="'Arial'" font-size="14" lengthAdjust="spacing" textLength="44.5635" x="57.7476" y="472.6279">GDA 1</text><ellipse cx="83.0293" cy="484.4297" fill="#E2E2F0" rx="8" ry="8" style="stroke:#181818;stroke-width:0.5;"/><path d="M83.0293,492.4297 L83.0293,519.4297 M70.0293,500.4297 L96.0293,500.4297 M83.0293,519.4297 L70.0293,534.4297 M83.0293,519.4297 L96.0293,534.4297" fill="none" style="stroke:#181818;stroke-width:0.5;"/></g><g class="participant participant-head" data-entity-uid="part2" data-qualified-name="eMed_FA" data-source-line="46" id="part2-head"><rect fill="#FFFFFF" height="30.2969" rx="5" ry="5" style="stroke:#555555;stroke-width:0.5;" width="79.3242" x="509.4912" y="124.8906"/><text fill="#000000" font-family="'Arial'" font-size="14" lengthAdjust="spacing" textLength="65.3242" x="516.4912" y="144.8857">e-Med FA</text></g><g class="participant participant-tail" data-entity-uid="part2" data-qualified-name="eMed_FA" data-source-line="46" id="part2-tail"><rect fill="#FFFFFF" height="30.2969" rx="5" ry="5" style="stroke:#555555;stroke-width:0.5;" width="79.3242" x="509.4912" y="459.6328"/><text fill="#000000" font-family="'Arial'" font-size="14" lengthAdjust="spacing" textLength="65.3242" x="516.4912" y="479.6279">e-Med FA</text></g><g class="participant participant-head" data-entity-uid="part3" data-qualified-name="GDA_2" data-source-line="50" id="part3-head"><text fill="#000000" font-family="'Arial'" font-size="14" lengthAdjust="spacing" textLength="44.5635" x="833.2012" y="152.8857">GDA 2</text><ellipse cx="858.4829" cy="88.3906" fill="#E2E2F0" rx="8" ry="8" style="stroke:#181818;stroke-width:0.5;"/><path d="M858.4829,96.3906 L858.4829,123.3906 M845.4829,104.3906 L871.4829,104.3906 M858.4829,123.3906 L845.4829,138.3906 M858.4829,123.3906 L871.4829,138.3906" fill="none" style="stroke:#181818;stroke-width:0.5;"/></g><g class="participant participant-tail" data-entity-uid="part3" data-qualified-name="GDA_2" data-source-line="50" id="part3-tail"><text fill="#000000" font-family="'Arial'" font-size="14" lengthAdjust="spacing" textLength="44.5635" x="833.2012" y="472.6279">GDA 2</text><ellipse cx="858.4829" cy="484.4297" fill="#E2E2F0" rx="8" ry="8" style="stroke:#181818;stroke-width:0.5;"/><path d="M858.4829,492.4297 L858.4829,519.4297 M845.4829,500.4297 L871.4829,500.4297 M858.4829,519.4297 L845.4829,534.4297 M858.4829,519.4297 L871.4829,534.4297" fill="none" style="stroke:#181818;stroke-width:0.5;"/></g><g class="participant participant-head" data-entity-uid="part4" data-qualified-name="Patient" data-source-line="54" id="part4-head"><text fill="#000000" font-family="'Arial'" font-size="14" lengthAdjust="spacing" textLength="49.376" x="953.686" y="152.8857">Patient</text><ellipse cx="981.374" cy="88.3906" fill="#E2E2F0" rx="8" ry="8" style="stroke:#181818;stroke-width:0.5;"/><path d="M981.374,96.3906 L981.374,123.3906 M968.374,104.3906 L994.374,104.3906 M981.374,123.3906 L968.374,138.3906 M981.374,123.3906 L994.374,138.3906" fill="none" style="stroke:#181818;stroke-width:0.5;"/></g><g class="participant participant-tail" data-entity-uid="part4" data-qualified-name="Patient" data-source-line="54" id="part4-tail"><text fill="#000000" font-family="'Arial'" font-size="14" lengthAdjust="spacing" textLength="49.376" x="953.686" y="472.6279">Patient</text><ellipse cx="981.374" cy="484.4297" fill="#E2E2F0" rx="8" ry="8" style="stroke:#181818;stroke-width:0.5;"/><path d="M981.374,492.4297 L981.374,519.4297 M968.374,500.4297 L994.374,500.4297 M981.374,519.4297 L968.374,534.4297 M981.374,519.4297 L994.374,534.4297" fill="none" style="stroke:#181818;stroke-width:0.5;"/></g><g><title>GDA 1</title><rect fill="#FFFFFF" height="160.4219" style="stroke:#181818;stroke-width:1;" width="10" x="78.0293" y="212.6172"/></g><g><title>e-Med FA</title><rect fill="#FFFFFF" height="160.4219" style="stroke:#181818;stroke-width:1;" width="10" x="544.1533" y="212.6172"/></g><path d="M14,173.1875 L129.1885,173.1875 L129.1885,181.4844 L119.1885,191.4844 L9,191.4844 L9,178.1875 A5,5 0 0 1 14,173.1875" fill="#EEF2FF" style="stroke:#111827;stroke-width:1.5;"/><rect fill="none" height="270.4453" rx="5" ry="5" style="stroke:#111827;stroke-width:2;" width="752.0601" x="9" y="173.1875"/><text fill="#000000" font-family="'Arial'" font-size="14" font-weight="700" lengthAdjust="spacing" textLength="75.1885" x="24" y="187.1826">read-only</text><g class="message" data-entity-1="part1" data-entity-2="part2" data-source-line="62" id="msg1"><line style="stroke:#111827;stroke-width:1;" x1="542.1533" x2="532.1533" y1="212.6172" y2="208.6172"/><line style="stroke:#111827;stroke-width:1;" x1="542.1533" x2="532.1533" y1="212.6172" y2="216.6172"/><line style="stroke:#111827;stroke-width:1;" x1="88.0293" x2="543.1533" y1="212.6172" y2="212.6172"/><text fill="#000000" font-family="'Arial'" font-size="13" font-weight="700" lengthAdjust="spacing" textLength="9.0454" x="95.0293" y="207.5513">1</text><text fill="#000000" font-family="'Arial'" font-size="13" lengthAdjust="spacing" textLength="139.9214" x="108.0747" y="207.5513">GET CollectionBundle</text></g><g class="message" data-entity-1="part2" data-entity-2="part2" data-source-line="66" id="msg2"><line style="stroke:#111827;stroke-width:1;" x1="554.1533" x2="596.1533" y1="256.8828" y2="256.8828"/><line style="stroke:#111827;stroke-width:1;" x1="596.1533" x2="596.1533" y1="256.8828" y2="269.8828"/><line style="stroke:#111827;stroke-width:1;" x1="555.1533" x2="596.1533" y1="269.8828" y2="269.8828"/><polygon fill="#111827" points="565.1533,265.8828,555.1533,269.8828,565.1533,273.8828,561.1533,269.8828" style="stroke:#111827;stroke-width:1;"/><text fill="#000000" font-family="'Arial'" font-size="13" font-weight="700" lengthAdjust="spacing" textLength="9.0454" x="561.1533" y="244.2505">2</text><text fill="#000000" font-family="'Arial'" font-size="13" lengthAdjust="spacing" textLength="164.8613" x="574.1987" y="236.6841">Pr&#252;fung auf bestehenden</text><text fill="#000000" font-family="'Arial'" font-size="13" lengthAdjust="spacing" textLength="106.3169" x="574.1987" y="251.8169">Medikationsplan</text></g><path d="M52.7476,284.8828 L113.686,284.8828 L113.686,293.1797 L103.686,303.1797 L47.7476,303.1797 L47.7476,289.8828 A5,5 0 0 1 52.7476,284.8828" fill="#EEF2FF" style="stroke:#111827;stroke-width:1.5;"/><rect fill="none" height="96.1563" rx="5" ry="5" style="stroke:#111827;stroke-width:2;" width="551.0679" x="47.7476" y="284.8828"/><text fill="#000000" font-family="'Arial'" font-size="14" font-weight="700" lengthAdjust="spacing" textLength="20.9385" x="62.7476" y="298.8779">alt</text><text fill="#000000" font-family="'Arial'" font-size="14" font-weight="700" lengthAdjust="spacing" textLength="271.2773" x="128.686" y="299.8779">[kein Medikationsplan vorhanden]</text><g class="message" data-entity-1="part2" data-entity-2="part1" data-source-line="69" id="msg3"><line style="stroke:#111827;stroke-width:1;" x1="89.0293" x2="99.0293" y1="325.6094" y2="321.6094"/><line style="stroke:#111827;stroke-width:1;" x1="89.0293" x2="99.0293" y1="325.6094" y2="329.6094"/><line style="stroke:#111827;stroke-width:1;stroke-dasharray:2,2;" x1="88.0293" x2="543.1533" y1="325.6094" y2="325.6094"/><text fill="#000000" font-family="'Arial'" font-size="13" font-weight="700" lengthAdjust="spacing" textLength="9.0454" x="105.0293" y="320.5435">3</text><text fill="#000000" font-family="'Arial'" font-size="13" lengthAdjust="spacing" textLength="100.5405" x="118.0747" y="320.5435">leeres Ergebnis</text></g><line style="stroke:#111827;stroke-width:1;stroke-dasharray:2,2;" x1="47.7476" x2="598.8154" y1="334.6094" y2="334.6094"/><text fill="#000000" font-family="'Arial'" font-size="14" font-weight="700" lengthAdjust="spacing" textLength="232.832" x="52.7476" y="347.6045">[Medikationsplan vorhanden]</text><g class="message" data-entity-1="part2" data-entity-2="part1" data-source-line="71" id="msg4"><line style="stroke:#111827;stroke-width:1;" x1="84.0293" x2="94.0293" y1="373.0391" y2="369.0391"/><line style="stroke:#111827;stroke-width:1;" x1="84.0293" x2="94.0293" y1="373.0391" y2="377.0391"/><line style="stroke:#111827;stroke-width:1;stroke-dasharray:2,2;" x1="83.0293" x2="548.1533" y1="373.0391" y2="373.0391"/><text fill="#000000" font-family="'Arial'" font-size="13" font-weight="700" lengthAdjust="spacing" textLength="9.0454" x="100.0293" y="367.9731">4</text><text fill="#000000" font-family="'Arial'" font-size="13" lengthAdjust="spacing" textLength="326.5298" x="113.0747" y="367.9731">CollectionBundle (AtEmedBundleMedikationsplan)</text></g><path d="M19,398.0391 L19,430.0391 A5,5 0 0 0 24,435.0391 L603,435.0391 A5,5 0 0 0 608,430.0391 L608,403.0391 L598,393.0391 L24,393.0391 A5,5 0 0 0 19,398.0391" fill="url(#gy5sm751qzi5o0)" filter="url(#fy5sm751qzi5o)" style="stroke:#8B95A5;stroke-width:1;"/><path d="M598,393.0391 L598,400.5391 A2.5,2.5 0 0 0 600.5,403.0391 L608,403.0391 L598,393.0391" fill="url(#gy5sm751qzi5o0)" style="stroke:#8B95A5;stroke-width:1;"/><text fill="#111827" font-family="'Arial'" font-size="14" lengthAdjust="spacing" textLength="564.4297" x="25" y="411.0342">Die Fachanwendung liefert zuletzt gespeicherten Medikationsplan (unver&#228;ndert,</text><text fill="#111827" font-family="'Arial'" font-size="14" lengthAdjust="spacing" textLength="490.1709" x="25" y="427.3311">inkl. aller referenzierten Ressourcen) oder ein leeres Ergebnis zur&#252;ck.</text><?plantuml-src dLJ1JkCm4BtdAqRb0X959D2bS40gKDZBhYfWBoiavCIJrgfhPnq7sAxsR_OpziQFxTXDYfFcj8uK9JFptioyiMs5bGZtoFXGA_bp-BsQ6v7dKRaKgc26hI3LXgEvrb8Rs3lsA_IoR3atkbAyZiX7xWaYoWNZ-bMeEUHCbXXuQfXHQ20EIJdch9BsLYlxbQqG1XCZc1pqHpo8DK9yskzibnt4A6qHVaK0Lzq6y1X7-V5mZyVy73-vY520SNe-OgEjzN4XigN2ieIORFT1GsFwdp7ENUEE9QWcZkDnSaQsXwqqrbGO_GuB_FopG2E5MWOjJATz0TyKznzO2nngZpygLDccqnapLcIYOCgsMXhvrGdO6QjVxQ1TWNVSpN1QZaQMn04cnkZNhZ3UsDRMc_eoRXsRN2TakgFAYrQFM-QDQsVcc2U-km3vaJvfJ-PAlmKTjEnzkaQfVeF1aoBocmd400FOEy_ft3XLM6Ofb1pFCR0I1Zva4A7YTExU0gnVEFo276vPjc3gbM8gAc6pYFFwT7nsvdPTyQ4q806URoUUkqPF-kbTviGJfSWmnLPnoRQuf0SzOrOW9VDWbfsCqosuSJbu_HqGHAooMbMh54qKkO4KO9gRA8gWrcLuUTdqSG5tqqSWVILcLcXrHIEKTQdYXT6Hzf0ejDHGCZLY30E-cNd_cpiTMPL3YgN51PM7wabHX5WobwKi95EUKrfOeb3GyS6BDZGIWaL-J4qULxalw08aei4IfcQEgHAbguREwdyGTPk7_OcThf1l_Zfy1vw6OqUUZZ5GI75w-xjHls2zCG-3W1k1dVqd1UPeBAmhYNPjOOvbWI9Ra0rtXTgl5F6-_t5NbZq4OgGBJ1wHifBI6KU5QYqsu7iwVBeo6Qe3q0G09tr7ICfB4yoMHvlgVUsHss7_0000?></g></svg>