<svg xmlns="http://www.w3.org/2000/svg" xmlns:xlink="http://www.w3.org/1999/xlink" contentStyleType="text/css" data-diagram-type="SEQUENCE" height="1359px" preserveAspectRatio="none" style="width:1459px;height:1359px;background:#F5F5F5;" version="1.1" viewBox="0 0 1459 1359" width="1459px" zoomAndPan="magnify"><?plantuml 1.2026.5?><defs><linearGradient id="g1qdzge1q9zpae0" x1="50%" x2="50%" y1="0%" y2="100%"><stop offset="0%" stop-color="#E0E5F0"/><stop offset="100%" stop-color="#D1D9E6"/></linearGradient><filter height="300%" id="f1qdzge1q9zpae" width="300%" x="-1" y="-1"><feGaussianBlur result="blurOut" stdDeviation="2"/><feColorMatrix in="blurOut" result="blurOut2" type="matrix" values="0 0 0 0 0 0 0 0 0 0 0 0 0 0 0 0 0 0 .4 0"/><feOffset dx="4" dy="4" in="blurOut2" result="blurOut3"/><feBlend in="SourceGraphic" in2="blurOut3" mode="normal"/></filter></defs><g><rect fill="#F5F5F5" height="1359" style="stroke:none;stroke-width:1;" width="1459" x="0" y="0"/><rect fill="#9FBAC4" height="1333.8828" rx="5" ry="5" style="stroke:#181818;stroke-width:0.5;" width="74.0586" x="115" y="6"/><text fill="#000000" font-family="'Arial'" font-size="14" font-weight="700" lengthAdjust="spacing" textLength="4.874" x="118" y="18.9951">&#160;</text><text fill="#000000" font-family="'Arial'" font-size="14" font-weight="700" lengthAdjust="spacing" textLength="48.5625" x="127.748" y="35.292">GDA 1</text><rect fill="#C48778" height="1333.8828" rx="5" ry="5" style="stroke:#181818;stroke-width:0.5;" width="256.9268" x="478.939" y="6"/><text fill="#000000" font-family="'Arial'" font-size="14" font-weight="700" lengthAdjust="spacing" textLength="4.874" x="481.939" y="18.9951">&#160;</text><text fill="#000000" font-family="'Arial'" font-size="14" font-weight="700" lengthAdjust="spacing" textLength="182.6904" x="516.0571" y="35.292">e-Med Fachanwendung</text><rect fill="#BEAEBE" height="1333.8828" rx="5" ry="5" style="stroke:#181818;stroke-width:0.5;" width="83.8066" x="1025.7461" y="6"/><text fill="#000000" font-family="'Arial'" font-size="14" font-weight="700" lengthAdjust="spacing" textLength="4.874" x="1028.7461" y="18.9951">&#160;</text><text fill="#000000" font-family="'Arial'" font-size="14" font-weight="700" lengthAdjust="spacing" textLength="48.5625" x="1048.2422" y="35.292">GDA 2</text><rect fill="#BAC38B" height="1333.8828" rx="5" ry="5" style="stroke:#181818;stroke-width:0.5;" width="77.9756" x="1354.5176" y="6"/><text fill="#000000" font-family="'Arial'" font-size="14" font-weight="700" lengthAdjust="spacing" textLength="4.874" x="1357.5176" y="18.9951">&#160;</text><text fill="#000000" font-family="'Arial'" font-size="14" font-weight="700" lengthAdjust="spacing" textLength="57.3535" x="1362.3916" y="35.292">Patient</text><g><title>GDA 1</title><rect fill="#FFFFFF" height="1074.3984" style="stroke:#181818;stroke-width:1;" width="10" x="147.0293" y="128.8906"/></g><g><title>e-Med FA</title><rect fill="#FFFFFF" height="128.5313" style="stroke:#181818;stroke-width:1;" width="10" x="602.4023" y="194.3203"/></g><g><title>e-Med FA</title><rect fill="#FFFFFF" height="128.5313" style="stroke:#181818;stroke-width:1;" width="10" x="602.4023" y="477.7109"/></g><g><title>e-Med FA</title><rect fill="#FFFFFF" height="200.9297" style="stroke:#181818;stroke-width:1;" width="10" x="602.4023" y="761.1016"/></g><g><title>e-Med FA</title><rect fill="#FFFFFF" height="128.5313" style="stroke:#181818;stroke-width:1;" width="10" x="602.4023" y="1074.7578"/></g><g><title>GDA 2</title><rect fill="#FFFFFF" height="484.3203" style="stroke:#181818;stroke-width:1;" width="10" x="1062.6494" y="477.7109"/></g><g class="participant-lifeline" data-entity-uid="part1" data-qualified-name="GDA_1" data-source-line="41" id="part1-lifeline"><g><title>GDA 1</title><rect fill="#000000" fill-opacity="0.00000" height="1141.6953" width="8" x="148.0293" y="118.8906"/><line style="stroke:#181818;stroke-width:0.5;stroke-dasharray:5,5;" x1="151.7476" x2="151.7476" y1="118.8906" y2="1260.5859"/></g></g><g class="participant-lifeline" data-entity-uid="part2" data-qualified-name="eMed_FA" data-source-line="45" id="part2-lifeline"><g><title>e-Med FA</title><rect fill="#000000" fill-opacity="0.00000" height="1141.6953" width="8" x="603.4023" y="118.8906"/><line style="stroke:#181818;stroke-width:0.5;stroke-dasharray:5,5;" x1="606.7402" x2="606.7402" y1="118.8906" y2="1260.5859"/></g></g><g class="participant-lifeline" data-entity-uid="part3" data-qualified-name="GDA_2" data-source-line="49" id="part3-lifeline"><g><title>GDA 2</title><rect fill="#000000" fill-opacity="0.00000" height="1141.6953" width="8" x="1063.6494" y="118.8906"/><line style="stroke:#181818;stroke-width:0.5;stroke-dasharray:5,5;" x1="1067.3677" x2="1067.3677" y1="118.8906" y2="1260.5859"/></g></g><g class="participant-lifeline" data-entity-uid="part4" data-qualified-name="Patient" data-source-line="53" id="part4-lifeline"><g><title>Patient</title><rect fill="#000000" fill-opacity="0.00000" height="1141.6953" width="8" x="1389.5054" y="118.8906"/><line style="stroke:#181818;stroke-width:0.5;stroke-dasharray:5,5;" x1="1392.8174" x2="1392.8174" y1="118.8906" y2="1260.5859"/></g></g><g class="participant participant-head" data-entity-uid="part1" data-qualified-name="GDA_1" data-source-line="41" id="part1-head"><text fill="#000000" font-family="'Arial'" font-size="14" lengthAdjust="spacing" textLength="44.5635" x="126.7476" y="115.5889">GDA 1</text><ellipse cx="152.0293" cy="51.0938" fill="#E2E2F0" rx="8" ry="8" style="stroke:#181818;stroke-width:0.5;"/><path d="M152.0293,59.0938 L152.0293,86.0938 M139.0293,67.0938 L165.0293,67.0938 M152.0293,86.0938 L139.0293,101.0938 M152.0293,86.0938 L165.0293,101.0938" fill="none" style="stroke:#181818;stroke-width:0.5;"/></g><g class="participant participant-tail" data-entity-uid="part1" data-qualified-name="GDA_1" data-source-line="41" id="part1-tail"><text fill="#000000" font-family="'Arial'" font-size="14" lengthAdjust="spacing" textLength="44.5635" x="126.7476" y="1272.5811">GDA 1</text><ellipse cx="152.0293" cy="1284.3828" fill="#E2E2F0" rx="8" ry="8" style="stroke:#181818;stroke-width:0.5;"/><path d="M152.0293,1292.3828 L152.0293,1319.3828 M139.0293,1300.3828 L165.0293,1300.3828 M152.0293,1319.3828 L139.0293,1334.3828 M152.0293,1319.3828 L165.0293,1334.3828" fill="none" style="stroke:#181818;stroke-width:0.5;"/></g><g class="participant participant-head" data-entity-uid="part2" data-qualified-name="eMed_FA" data-source-line="45" id="part2-head"><rect fill="#FFFFFF" height="30.2969" rx="5" ry="5" style="stroke:#555555;stroke-width:0.5;" width="79.3242" x="567.7402" y="87.5938"/><text fill="#000000" font-family="'Arial'" font-size="14" lengthAdjust="spacing" textLength="65.3242" x="574.7402" y="107.5889">e-Med FA</text></g><g class="participant participant-tail" data-entity-uid="part2" data-qualified-name="eMed_FA" data-source-line="45" id="part2-tail"><rect fill="#FFFFFF" height="30.2969" rx="5" ry="5" style="stroke:#555555;stroke-width:0.5;" width="79.3242" x="567.7402" y="1259.5859"/><text fill="#000000" font-family="'Arial'" font-size="14" lengthAdjust="spacing" textLength="65.3242" x="574.7402" y="1279.5811">e-Med FA</text></g><g class="participant participant-head" data-entity-uid="part3" data-qualified-name="GDA_2" data-source-line="49" id="part3-head"><text fill="#000000" font-family="'Arial'" font-size="14" lengthAdjust="spacing" textLength="44.5635" x="1042.3677" y="115.5889">GDA 2</text><ellipse cx="1067.6494" cy="51.0938" fill="#E2E2F0" rx="8" ry="8" style="stroke:#181818;stroke-width:0.5;"/><path d="M1067.6494,59.0938 L1067.6494,86.0938 M1054.6494,67.0938 L1080.6494,67.0938 M1067.6494,86.0938 L1054.6494,101.0938 M1067.6494,86.0938 L1080.6494,101.0938" fill="none" style="stroke:#181818;stroke-width:0.5;"/></g><g class="participant participant-tail" data-entity-uid="part3" data-qualified-name="GDA_2" data-source-line="49" id="part3-tail"><text fill="#000000" font-family="'Arial'" font-size="14" lengthAdjust="spacing" textLength="44.5635" x="1042.3677" y="1272.5811">GDA 2</text><ellipse cx="1067.6494" cy="1284.3828" fill="#E2E2F0" rx="8" ry="8" style="stroke:#181818;stroke-width:0.5;"/><path d="M1067.6494,1292.3828 L1067.6494,1319.3828 M1054.6494,1300.3828 L1080.6494,1300.3828 M1067.6494,1319.3828 L1054.6494,1334.3828 M1067.6494,1319.3828 L1080.6494,1334.3828" fill="none" style="stroke:#181818;stroke-width:0.5;"/></g><g class="participant participant-head" data-entity-uid="part4" data-qualified-name="Patient" data-source-line="53" id="part4-head"><text fill="#000000" font-family="'Arial'" font-size="14" lengthAdjust="spacing" textLength="49.376" x="1365.8174" y="115.5889">Patient</text><ellipse cx="1393.5054" cy="51.0938" fill="#E2E2F0" rx="8" ry="8" style="stroke:#181818;stroke-width:0.5;"/><path d="M1393.5054,59.0938 L1393.5054,86.0938 M1380.5054,67.0938 L1406.5054,67.0938 M1393.5054,86.0938 L1380.5054,101.0938 M1393.5054,86.0938 L1406.5054,101.0938" fill="none" style="stroke:#181818;stroke-width:0.5;"/></g><g class="participant participant-tail" data-entity-uid="part4" data-qualified-name="Patient" data-source-line="53" id="part4-tail"><text fill="#000000" font-family="'Arial'" font-size="14" lengthAdjust="spacing" textLength="49.376" x="1365.8174" y="1272.5811">Patient</text><ellipse cx="1393.5054" cy="1284.3828" fill="#E2E2F0" rx="8" ry="8" style="stroke:#181818;stroke-width:0.5;"/><path d="M1393.5054,1292.3828 L1393.5054,1319.3828 M1380.5054,1300.3828 L1406.5054,1300.3828 M1393.5054,1319.3828 L1380.5054,1334.3828 M1393.5054,1319.3828 L1406.5054,1334.3828" fill="none" style="stroke:#181818;stroke-width:0.5;"/></g><g><title>GDA 1</title><rect fill="#FFFFFF" height="1074.3984" style="stroke:#181818;stroke-width:1;" width="10" x="147.0293" y="128.8906"/></g><g><title>e-Med FA</title><rect fill="#FFFFFF" height="128.5313" style="stroke:#181818;stroke-width:1;" width="10" x="602.4023" y="194.3203"/></g><g><title>e-Med FA</title><rect fill="#FFFFFF" height="128.5313" style="stroke:#181818;stroke-width:1;" width="10" x="602.4023" y="477.7109"/></g><g><title>e-Med FA</title><rect fill="#FFFFFF" height="200.9297" style="stroke:#181818;stroke-width:1;" width="10" x="602.4023" y="761.1016"/></g><g><title>e-Med FA</title><rect fill="#FFFFFF" height="128.5313" style="stroke:#181818;stroke-width:1;" width="10" x="602.4023" y="1074.7578"/></g><g><title>GDA 2</title><rect fill="#FFFFFF" height="484.3203" style="stroke:#181818;stroke-width:1;" width="10" x="1062.6494" y="477.7109"/></g><rect fill="#EEEEEE" height="3" rx="5" ry="5" style="stroke:#EEEEEE;stroke-width:1;" width="1453.4932" x="0" y="150.0391"/><line style="stroke:#000000;stroke-width:1;" x1="0" x2="1453.4932" y1="150.0391" y2="150.0391"/><line style="stroke:#000000;stroke-width:1;" x1="0" x2="1453.4932" y1="153.0391" y2="153.0391"/><rect fill="#EEEEEE" height="24.2969" rx="5" ry="5" style="stroke:#000000;stroke-width:2;" width="233.3516" x="610.0708" y="138.8906"/><text fill="#000000" font-family="'Arial'" font-size="14" font-weight="700" lengthAdjust="spacing" textLength="214.4775" x="616.0708" y="155.8857">Read-to-Write durch GDA 1</text><g class="message" data-entity-1="part1" data-entity-2="part2" data-source-line="62" id="msg1"><line style="stroke:#111827;stroke-width:1;" x1="600.4023" x2="590.4023" y1="194.3203" y2="190.3203"/><line style="stroke:#111827;stroke-width:1;" x1="600.4023" x2="590.4023" y1="194.3203" y2="198.3203"/><line style="stroke:#111827;stroke-width:1;" x1="157.0293" x2="601.4023" y1="194.3203" y2="194.3203"/><text fill="#000000" font-family="'Arial'" font-size="13" font-weight="700" lengthAdjust="spacing" textLength="9.0454" x="164.0293" y="189.2544">1</text><text fill="#000000" font-family="'Arial'" font-size="13" lengthAdjust="spacing" textLength="121.9639" x="177.0747" y="189.2544">POST $readtowrite</text></g><g class="message" data-entity-1="part2" data-entity-2="part2" data-source-line="65" id="msg2"><line style="stroke:#111827;stroke-width:1;" x1="612.4023" x2="654.4023" y1="238.5859" y2="238.5859"/><line style="stroke:#111827;stroke-width:1;" x1="654.4023" x2="654.4023" y1="238.5859" y2="251.5859"/><line style="stroke:#111827;stroke-width:1;" x1="613.4023" x2="654.4023" y1="251.5859" y2="251.5859"/><polygon fill="#111827" points="623.4023,247.5859,613.4023,251.5859,623.4023,255.5859,619.4023,251.5859" style="stroke:#111827;stroke-width:1;stroke-linejoin:miter;stroke-miterlimit:10;"/><text fill="#000000" font-family="'Arial'" font-size="13" font-weight="700" lengthAdjust="spacing" textLength="9.0454" x="619.4023" y="225.9536">2</text><text fill="#000000" font-family="'Arial'" font-size="13" lengthAdjust="spacing" textLength="235.6123" x="632.4478" y="218.3872">Annahme: Pr&#252;fung auf bestehenden</text><text fill="#000000" font-family="'Arial'" font-size="13" lengthAdjust="spacing" textLength="180.5273" x="632.4478" y="233.52">Medikationsplan erfolgreich</text></g><g class="message" data-entity-1="part2" data-entity-2="part2" data-source-line="66" id="msg3"><line style="stroke:#111827;stroke-width:1;" x1="612.4023" x2="654.4023" y1="280.7188" y2="280.7188"/><line style="stroke:#111827;stroke-width:1;" x1="654.4023" x2="654.4023" y1="280.7188" y2="293.7188"/><line style="stroke:#111827;stroke-width:1;" x1="613.4023" x2="654.4023" y1="293.7188" y2="293.7188"/><polygon fill="#111827" points="623.4023,289.7188,613.4023,293.7188,623.4023,297.7188,619.4023,293.7188" style="stroke:#111827;stroke-width:1;stroke-linejoin:miter;stroke-miterlimit:10;"/><text fill="#000000" font-family="'Arial'" font-size="13" font-weight="700" lengthAdjust="spacing" textLength="9.0454" x="619.4023" y="275.6528">3</text><text fill="#000000" font-family="'Arial'" font-size="13" lengthAdjust="spacing" textLength="273.8062" x="632.4478" y="275.6528">Collection Bundle zur Auslieferung erstellt</text></g><g class="message" data-entity-1="part2" data-entity-2="part1" data-source-line="68" id="msg4"><line style="stroke:#111827;stroke-width:1;" x1="158.0293" x2="168.0293" y1="322.8516" y2="318.8516"/><line style="stroke:#111827;stroke-width:1;" x1="158.0293" x2="168.0293" y1="322.8516" y2="326.8516"/><line style="stroke:#111827;stroke-width:1;stroke-dasharray:2,2;" x1="157.0293" x2="606.4023" y1="322.8516" y2="322.8516"/><text fill="#000000" font-family="'Arial'" font-size="13" font-weight="700" lengthAdjust="spacing" textLength="9.0454" x="174.0293" y="317.7856">4</text><text fill="#000000" font-family="'Arial'" font-size="13" lengthAdjust="spacing" textLength="206.1274" x="187.0747" y="317.7856">Collection Bundle + ETag "123"</text></g><g class="message" data-entity-1="part1" data-entity-2="part1" data-source-line="71" id="msg5"><line style="stroke:#111827;stroke-width:1;" x1="157.0293" x2="199.0293" y1="351.9844" y2="351.9844"/><line style="stroke:#111827;stroke-width:1;" x1="199.0293" x2="199.0293" y1="351.9844" y2="364.9844"/><line style="stroke:#111827;stroke-width:1;" x1="158.0293" x2="199.0293" y1="364.9844" y2="364.9844"/><polygon fill="#111827" points="168.0293,360.9844,158.0293,364.9844,168.0293,368.9844,164.0293,364.9844" style="stroke:#111827;stroke-width:1;stroke-linejoin:miter;stroke-miterlimit:10;"/><text fill="#000000" font-family="'Arial'" font-size="13" font-weight="700" lengthAdjust="spacing" textLength="9.0454" x="164.0293" y="346.9185">5</text><text fill="#000000" font-family="'Arial'" font-size="13" lengthAdjust="spacing" textLength="249.8438" x="177.0747" y="346.9185">Eintr&#228;ge hinzuf&#252;gen/&#228;ndern/entfernen</text></g><path d="M19,382.9844 L19,398.9844 A5,5 0 0 0 24,403.9844 L275,403.9844 A5,5 0 0 0 280,398.9844 L280,387.9844 L270,377.9844 L24,377.9844 A5,5 0 0 0 19,382.9844" fill="url(#g1qdzge1q9zpae0)" filter="url(#f1qdzge1q9zpae)" style="stroke:#8B95A5;stroke-width:1;"/><path d="M270,377.9844 L270,385.4844 A2.5,2.5 0 0 0 272.5,387.9844 L280,387.9844 L270,377.9844" fill="url(#g1qdzge1q9zpae0)" style="stroke:#8B95A5;stroke-width:1;"/><text fill="#111827" font-family="'Arial'" font-size="14" lengthAdjust="spacing" textLength="240.7754" x="25" y="395.9795">GDA 1 bearbeitet Medikationsplan</text><rect fill="#EEEEEE" height="3" rx="5" ry="5" style="stroke:#EEEEEE;stroke-width:1;" width="1453.4932" x="0" y="433.4297"/><line style="stroke:#000000;stroke-width:1;" x1="0" x2="1453.4932" y1="433.4297" y2="433.4297"/><line style="stroke:#000000;stroke-width:1;" x1="0" x2="1453.4932" y1="436.4297" y2="436.4297"/><rect fill="#EEEEEE" height="24.2969" rx="5" ry="5" style="stroke:#000000;stroke-width:2;" width="233.3516" x="610.0708" y="422.2813"/><text fill="#000000" font-family="'Arial'" font-size="14" font-weight="700" lengthAdjust="spacing" textLength="214.4775" x="616.0708" y="439.2764">Read-to-Write durch GDA 2</text><g class="message" data-entity-1="part3" data-entity-2="part2" data-source-line="79" id="msg6"><line style="stroke:#111827;stroke-width:1;" x1="613.4023" x2="623.4023" y1="477.7109" y2="473.7109"/><line style="stroke:#111827;stroke-width:1;" x1="613.4023" x2="623.4023" y1="477.7109" y2="481.7109"/><line style="stroke:#111827;stroke-width:1;" x1="612.4023" x2="1061.6494" y1="477.7109" y2="477.7109"/><text fill="#000000" font-family="'Arial'" font-size="13" font-weight="700" lengthAdjust="spacing" textLength="9.0454" x="629.4023" y="472.645">6</text><text fill="#000000" font-family="'Arial'" font-size="13" lengthAdjust="spacing" textLength="121.9639" x="642.4478" y="472.645">POST $readtowrite</text></g><g class="message" data-entity-1="part2" data-entity-2="part2" data-source-line="83" id="msg7"><line style="stroke:#111827;stroke-width:1;" x1="612.4023" x2="654.4023" y1="521.9766" y2="521.9766"/><line style="stroke:#111827;stroke-width:1;" x1="654.4023" x2="654.4023" y1="521.9766" y2="534.9766"/><line style="stroke:#111827;stroke-width:1;" x1="613.4023" x2="654.4023" y1="534.9766" y2="534.9766"/><polygon fill="#111827" points="623.4023,530.9766,613.4023,534.9766,623.4023,538.9766,619.4023,534.9766" style="stroke:#111827;stroke-width:1;stroke-linejoin:miter;stroke-miterlimit:10;"/><text fill="#000000" font-family="'Arial'" font-size="13" font-weight="700" lengthAdjust="spacing" textLength="9.0454" x="619.4023" y="509.3442">7</text><text fill="#000000" font-family="'Arial'" font-size="13" lengthAdjust="spacing" textLength="235.6123" x="632.4478" y="501.7778">Annahme: Pr&#252;fung auf bestehenden</text><text fill="#000000" font-family="'Arial'" font-size="13" lengthAdjust="spacing" textLength="180.5273" x="632.4478" y="516.9106">Medikationsplan erfolgreich</text></g><g class="message" data-entity-1="part2" data-entity-2="part2" data-source-line="84" id="msg8"><line style="stroke:#111827;stroke-width:1;" x1="612.4023" x2="654.4023" y1="564.1094" y2="564.1094"/><line style="stroke:#111827;stroke-width:1;" x1="654.4023" x2="654.4023" y1="564.1094" y2="577.1094"/><line style="stroke:#111827;stroke-width:1;" x1="613.4023" x2="654.4023" y1="577.1094" y2="577.1094"/><polygon fill="#111827" points="623.4023,573.1094,613.4023,577.1094,623.4023,581.1094,619.4023,577.1094" style="stroke:#111827;stroke-width:1;stroke-linejoin:miter;stroke-miterlimit:10;"/><text fill="#000000" font-family="'Arial'" font-size="13" font-weight="700" lengthAdjust="spacing" textLength="9.0454" x="619.4023" y="559.0435">8</text><text fill="#000000" font-family="'Arial'" font-size="13" lengthAdjust="spacing" textLength="273.8062" x="632.4478" y="559.0435">Collection Bundle zur Auslieferung erstellt</text></g><g class="message" data-entity-1="part2" data-entity-2="part3" data-source-line="86" id="msg9"><line style="stroke:#111827;stroke-width:1;" x1="1060.6494" x2="1050.6494" y1="606.2422" y2="602.2422"/><line style="stroke:#111827;stroke-width:1;" x1="1060.6494" x2="1050.6494" y1="606.2422" y2="610.2422"/><line style="stroke:#111827;stroke-width:1;stroke-dasharray:2,2;" x1="607.4023" x2="1061.6494" y1="606.2422" y2="606.2422"/><text fill="#000000" font-family="'Arial'" font-size="13" font-weight="700" lengthAdjust="spacing" textLength="9.0454" x="614.4023" y="601.1763">9</text><text fill="#000000" font-family="'Arial'" font-size="13" lengthAdjust="spacing" textLength="206.1274" x="627.4478" y="601.1763">Collection Bundle + ETag "123"</text></g><g class="message" data-entity-1="part3" data-entity-2="part3" data-source-line="89" id="msg10"><line style="stroke:#111827;stroke-width:1;" x1="1072.6494" x2="1114.6494" y1="635.375" y2="635.375"/><line style="stroke:#111827;stroke-width:1;" x1="1114.6494" x2="1114.6494" y1="635.375" y2="648.375"/><line style="stroke:#111827;stroke-width:1;" x1="1073.6494" x2="1114.6494" y1="648.375" y2="648.375"/><polygon fill="#111827" points="1083.6494,644.375,1073.6494,648.375,1083.6494,652.375,1079.6494,648.375" style="stroke:#111827;stroke-width:1;stroke-linejoin:miter;stroke-miterlimit:10;"/><text fill="#000000" font-family="'Arial'" font-size="13" font-weight="700" lengthAdjust="spacing" textLength="18.0908" x="1079.6494" y="630.3091">10</text><text fill="#000000" font-family="'Arial'" font-size="13" lengthAdjust="spacing" textLength="249.8438" x="1101.7402" y="630.3091">Eintr&#228;ge hinzuf&#252;gen/&#228;ndern/entfernen</text></g><path d="M935,666.375 L935,682.375 A5,5 0 0 0 940,687.375 L1191,687.375 A5,5 0 0 0 1196,682.375 L1196,671.375 L1186,661.375 L940,661.375 A5,5 0 0 0 935,666.375" fill="url(#g1qdzge1q9zpae0)" filter="url(#f1qdzge1q9zpae)" style="stroke:#8B95A5;stroke-width:1;"/><path d="M1186,661.375 L1186,668.875 A2.5,2.5 0 0 0 1188.5,671.375 L1196,671.375 L1186,661.375" fill="url(#g1qdzge1q9zpae0)" style="stroke:#8B95A5;stroke-width:1;"/><text fill="#111827" font-family="'Arial'" font-size="14" lengthAdjust="spacing" textLength="240.7754" x="941" y="679.3701">GDA 2 bearbeitet Medikationsplan</text><rect fill="#EEEEEE" height="3" rx="5" ry="5" style="stroke:#EEEEEE;stroke-width:1;" width="1453.4932" x="0" y="716.8203"/><line style="stroke:#000000;stroke-width:1;" x1="0" x2="1453.4932" y1="716.8203" y2="716.8203"/><line style="stroke:#000000;stroke-width:1;" x1="0" x2="1453.4932" y1="719.8203" y2="719.8203"/><rect fill="#EEEEEE" height="24.2969" rx="5" ry="5" style="stroke:#000000;stroke-width:2;" width="165.6758" x="643.9087" y="705.6719"/><text fill="#000000" font-family="'Arial'" font-size="14" font-weight="700" lengthAdjust="spacing" textLength="146.8018" x="649.9087" y="722.667">Write durch GDA 2</text><g class="message" data-entity-1="part3" data-entity-2="part2" data-source-line="97" id="msg11"><line style="stroke:#111827;stroke-width:1;" x1="613.4023" x2="623.4023" y1="761.1016" y2="757.1016"/><line style="stroke:#111827;stroke-width:1;" x1="613.4023" x2="623.4023" y1="761.1016" y2="765.1016"/><line style="stroke:#111827;stroke-width:1;" x1="612.4023" x2="1061.6494" y1="761.1016" y2="761.1016"/><text fill="#000000" font-family="'Arial'" font-size="13" font-weight="700" lengthAdjust="spacing" textLength="18.0908" x="629.4023" y="756.0356">11</text><text fill="#000000" font-family="'Arial'" font-size="13" lengthAdjust="spacing" textLength="311.7334" x="651.4932" y="756.0356">POST $write (Transaction Bundle + ETag "123")</text></g><g class="message" data-entity-1="part2" data-entity-2="part2" data-source-line="100" id="msg12"><line style="stroke:#111827;stroke-width:1;" x1="612.4023" x2="654.4023" y1="805.3672" y2="805.3672"/><line style="stroke:#111827;stroke-width:1;" x1="654.4023" x2="654.4023" y1="805.3672" y2="818.3672"/><line style="stroke:#111827;stroke-width:1;" x1="613.4023" x2="654.4023" y1="818.3672" y2="818.3672"/><polygon fill="#111827" points="623.4023,814.3672,613.4023,818.3672,623.4023,822.3672,619.4023,818.3672" style="stroke:#111827;stroke-width:1;stroke-linejoin:miter;stroke-miterlimit:10;"/><text fill="#000000" font-family="'Arial'" font-size="13" font-weight="700" lengthAdjust="spacing" textLength="18.0908" x="619.4023" y="792.7349">12</text><text fill="#000000" font-family="'Arial'" font-size="13" lengthAdjust="spacing" textLength="171.0693" x="641.4932" y="785.1685">ETag "123" im Header ==</text><text fill="#000000" font-family="'Arial'" font-size="13" lengthAdjust="spacing" textLength="210.0249" x="641.4932" y="800.3013">ETag der Fachanwendung "123"</text></g><g class="message" data-entity-1="part2" data-entity-2="part2" data-source-line="101" id="msg13"><line style="stroke:#111827;stroke-width:1;" x1="612.4023" x2="654.4023" y1="862.6328" y2="862.6328"/><line style="stroke:#111827;stroke-width:1;" x1="654.4023" x2="654.4023" y1="862.6328" y2="875.6328"/><line style="stroke:#111827;stroke-width:1;" x1="613.4023" x2="654.4023" y1="875.6328" y2="875.6328"/><polygon fill="#111827" points="623.4023,871.6328,613.4023,875.6328,623.4023,879.6328,619.4023,875.6328" style="stroke:#111827;stroke-width:1;stroke-linejoin:miter;stroke-miterlimit:10;"/><text fill="#000000" font-family="'Arial'" font-size="13" font-weight="700" lengthAdjust="spacing" textLength="18.0908" x="619.4023" y="850.0005">13</text><text fill="#000000" font-family="'Arial'" font-size="13" lengthAdjust="spacing" textLength="184.5835" x="641.4932" y="842.4341">Validierung des neuen Plans</text><text fill="#000000" font-family="'Arial'" font-size="13" lengthAdjust="spacing" textLength="269.3374" x="641.4932" y="857.5669">(keine unzul&#228;ssigen Zustands&#252;berg&#228;nge)</text></g><g class="message" data-entity-1="part2" data-entity-2="part2" data-source-line="102" id="msg14"><line style="stroke:#111827;stroke-width:1;" x1="612.4023" x2="654.4023" y1="919.8984" y2="919.8984"/><line style="stroke:#111827;stroke-width:1;" x1="654.4023" x2="654.4023" y1="919.8984" y2="932.8984"/><line style="stroke:#111827;stroke-width:1;" x1="613.4023" x2="654.4023" y1="932.8984" y2="932.8984"/><polygon fill="#111827" points="623.4023,928.8984,613.4023,932.8984,623.4023,936.8984,619.4023,932.8984" style="stroke:#111827;stroke-width:1;stroke-linejoin:miter;stroke-miterlimit:10;"/><text fill="#000000" font-family="'Arial'" font-size="13" font-weight="700" lengthAdjust="spacing" textLength="18.0908" x="619.4023" y="907.2661">14</text><text fill="#000000" font-family="'Arial'" font-size="13" lengthAdjust="spacing" textLength="182.1968" x="641.4932" y="899.6997">Persistiert neue Version des</text><text fill="#000000" font-family="'Arial'" font-size="13" lengthAdjust="spacing" textLength="113.0898" x="641.4932" y="914.8325">Medikationsplans</text></g><g class="message" data-entity-1="part2" data-entity-2="part3" data-source-line="103" id="msg15"><line style="stroke:#111827;stroke-width:1;" x1="1065.6494" x2="1055.6494" y1="962.0313" y2="958.0313"/><line style="stroke:#111827;stroke-width:1;" x1="1065.6494" x2="1055.6494" y1="962.0313" y2="966.0313"/><line style="stroke:#111827;stroke-width:1;stroke-dasharray:2,2;" x1="607.4023" x2="1066.6494" y1="962.0313" y2="962.0313"/><text fill="#000000" font-family="'Arial'" font-size="13" font-weight="700" lengthAdjust="spacing" textLength="18.0908" x="614.4023" y="956.9653">15</text><text fill="#000000" font-family="'Arial'" font-size="13" lengthAdjust="spacing" textLength="18.7573" x="636.4932" y="956.9653">OK</text></g><path d="M423,980.0313 L423,996.0313 A5,5 0 0 0 428,1001.0313 L782,1001.0313 A5,5 0 0 0 787,996.0313 L787,985.0313 L777,975.0313 L428,975.0313 A5,5 0 0 0 423,980.0313" fill="url(#g1qdzge1q9zpae0)" filter="url(#f1qdzge1q9zpae)" style="stroke:#8B95A5;stroke-width:1;"/><path d="M777,975.0313 L777,982.5313 A2.5,2.5 0 0 0 779.5,985.0313 L787,985.0313 L777,975.0313" fill="url(#g1qdzge1q9zpae0)" style="stroke:#8B95A5;stroke-width:1;"/><text fill="#111827" font-family="'Arial'" font-size="14" lengthAdjust="spacing" textLength="343.4238" x="429" y="993.0264">Medikationsplan wurde durch GDA 2 aktualisiert.</text><rect fill="#EEEEEE" height="3" rx="5" ry="5" style="stroke:#EEEEEE;stroke-width:1;" width="1453.4932" x="0" y="1030.4766"/><line style="stroke:#000000;stroke-width:1;" x1="0" x2="1453.4932" y1="1030.4766" y2="1030.4766"/><line style="stroke:#000000;stroke-width:1;" x1="0" x2="1453.4932" y1="1033.4766" y2="1033.4766"/><rect fill="#EEEEEE" height="24.2969" rx="5" ry="5" style="stroke:#000000;stroke-width:2;" width="189.1846" x="632.1543" y="1019.3281"/><text fill="#000000" font-family="'Arial'" font-size="14" font-weight="700" lengthAdjust="spacing" textLength="170.3105" x="638.1543" y="1036.3232">Write-Error f&#252;r GDA 1</text><g class="message" data-entity-1="part1" data-entity-2="part2" data-source-line="114" id="msg16"><line style="stroke:#111827;stroke-width:1;" x1="600.4023" x2="590.4023" y1="1074.7578" y2="1070.7578"/><line style="stroke:#111827;stroke-width:1;" x1="600.4023" x2="590.4023" y1="1074.7578" y2="1078.7578"/><line style="stroke:#111827;stroke-width:1;" x1="157.0293" x2="601.4023" y1="1074.7578" y2="1074.7578"/><text fill="#000000" font-family="'Arial'" font-size="13" font-weight="700" lengthAdjust="spacing" textLength="18.0908" x="164.0293" y="1069.6919">16</text><text fill="#000000" font-family="'Arial'" font-size="13" lengthAdjust="spacing" textLength="311.7334" x="186.1201" y="1069.6919">POST $write (Transaction Bundle + ETag "123")</text></g><g class="message" data-entity-1="part2" data-entity-2="part2" data-source-line="117" id="msg17"><line style="stroke:#111827;stroke-width:1;" x1="612.4023" x2="654.4023" y1="1119.0234" y2="1119.0234"/><line style="stroke:#111827;stroke-width:1;" x1="654.4023" x2="654.4023" y1="1119.0234" y2="1132.0234"/><line style="stroke:#111827;stroke-width:1;" x1="613.4023" x2="654.4023" y1="1132.0234" y2="1132.0234"/><polygon fill="#111827" points="623.4023,1128.0234,613.4023,1132.0234,623.4023,1136.0234,619.4023,1132.0234" style="stroke:#111827;stroke-width:1;stroke-linejoin:miter;stroke-miterlimit:10;"/><text fill="#000000" font-family="'Arial'" font-size="13" font-weight="700" lengthAdjust="spacing" textLength="18.0908" x="619.4023" y="1106.3911">17</text><text fill="#000000" font-family="'Arial'" font-size="13" lengthAdjust="spacing" textLength="231.6577" x="641.4932" y="1098.8247">ETag "123" im Header stimmt nicht</text><text fill="#000000" font-family="'Arial'" font-size="13" lengthAdjust="spacing" textLength="248.4409" x="641.4932" y="1113.9575">mit ETag der Fachanwendung &#252;berein</text></g><g class="message" data-entity-1="part2" data-entity-2="part2" data-source-line="118" id="msg18"><line style="stroke:#111827;stroke-width:1;" x1="612.4023" x2="654.4023" y1="1161.1563" y2="1161.1563"/><line style="stroke:#111827;stroke-width:1;" x1="654.4023" x2="654.4023" y1="1161.1563" y2="1174.1563"/><line style="stroke:#111827;stroke-width:1;" x1="613.4023" x2="654.4023" y1="1174.1563" y2="1174.1563"/><polygon fill="#111827" points="623.4023,1170.1563,613.4023,1174.1563,623.4023,1178.1563,619.4023,1174.1563" style="stroke:#111827;stroke-width:1;stroke-linejoin:miter;stroke-miterlimit:10;"/><text fill="#000000" font-family="'Arial'" font-size="13" font-weight="700" lengthAdjust="spacing" textLength="18.0908" x="619.4023" y="1156.0903">18</text><text fill="#000000" font-family="'Arial'" font-size="13" lengthAdjust="spacing" textLength="233.7715" x="641.4932" y="1156.0903">Fachanwendung lehnt Speichern ab</text></g><g class="message" data-entity-1="part2" data-entity-2="part1" data-source-line="119" id="msg19"><line style="stroke:#111827;stroke-width:1;" x1="153.0293" x2="163.0293" y1="1203.2891" y2="1199.2891"/><line style="stroke:#111827;stroke-width:1;" x1="153.0293" x2="163.0293" y1="1203.2891" y2="1207.2891"/><line style="stroke:#111827;stroke-width:1;stroke-dasharray:2,2;" x1="152.0293" x2="606.4023" y1="1203.2891" y2="1203.2891"/><text fill="#000000" font-family="'Arial'" font-size="13" font-weight="700" lengthAdjust="spacing" textLength="18.0908" x="169.0293" y="1198.2231">19</text><text fill="#000000" font-family="'Arial'" font-size="13" lengthAdjust="spacing" textLength="104.0889" x="191.1201" y="1198.2231">Fehler (Konflikt)</text></g><path d="M5,1221.2891 L5,1237.2891 A5,5 0 0 0 10,1242.2891 L746,1242.2891 A5,5 0 0 0 751,1237.2891 L751,1226.2891 L741,1216.2891 L10,1216.2891 A5,5 0 0 0 5,1221.2891" fill="url(#g1qdzge1q9zpae0)" filter="url(#f1qdzge1q9zpae)" style="stroke:#8B95A5;stroke-width:1;"/><path d="M741,1216.2891 L741,1223.7891 A2.5,2.5 0 0 0 743.5,1226.2891 L751,1226.2891 L741,1216.2891" fill="url(#g1qdzge1q9zpae0)" style="stroke:#8B95A5;stroke-width:1;"/><text fill="#111827" font-family="'Arial'" font-size="14" lengthAdjust="spacing" textLength="725.5869" x="11" y="1234.2842">Speichern des Medikationsplans wurde abgelehnt, der GDA 1 muss ein neues Read-to-Write ausf&#252;hren.</text><g class="footer" data-source-line="127"><text fill="#000000" font-family="'Arial'" font-size="10" lengthAdjust="spacing" textLength="55.2295" x="698.6318" y="1350.165">Write-Error</text></g><?plantuml-src rLRHRjis57tdLrmuUqZGUesKkd46k83JEHjGR3MQj0K60mKbNLc4PT8ZgJfBiR_9P-JDFzPBIhOaMrcxFWmOyn2RlFVmddCkIPk5a2kk-H8YfHFKhrIkD1oT-i5ClShZnLohGYPLH3fmVuq8a_54hOMSGyfpWusLAarBr10qGHDCUP7RAoNjxto9q1jhmVDUTyIrk4C8ddSljijkn4Xb4JupWCjz0dYAW_IqVvG4oGM-S15D0ORHnO0FThCtcOWN4es1WERUDWWDwVkK9uaZxb0QrGH1C0pFQUvw9utL1RA_cmN--jSATIxaea5XCkaAU2SJ_m4hWPlQuvy5ohXaEkNQYbYikBGjIWC_zW8ERFMZ7NGeyC7orfpMmbQMq2MCjLRhVM7yP5jRFzMruswXtEkCfdwXobSjZZlaSkd0Sqn3pwwHMMyVjfsvLBSD1gtvBbrPf6wXDvC4_lCO0e0U75saT6wSAZos54eB7mFW1de-fCTG9dJkRXkvVc3_DqpWYiSPbskAAQY4SX3cg-V3ytFNTQjQQK1A-7WrzjXLzhWRtkqSUg08EKROAYxS5HTsP4-v5KYR-MGUdmsZNV9soQLNdni0Z1TMoM8PeMOCs6W4Rv4dVQlw7xIWyvaKEiugsKOZHf3Y4wTvhnShLUk_VBbb-HDCtrpVm0-QGAnQEmXM9rL1R2j9lv4tbf9dIoG0lNb8dQoyI252Op6ZQb7E98MA1J5GqgnoBW5rglAvHX5ddP3K13d6BXukgT5oXBj2mxWmkS0KjTi3DU7dkMKrW6FZUNK1F8793Pz3BmZFUYp10sOxHROG4o6jtjpF4J8Xxufqyp17-MnpxouC-Ooye48aIiRyRQW-eQwb9Scf4NI4fAA5FVRUGfV4_icqq9d6olxvYaqjQyF_gslXTxiMRbqBlzkra9MQVwjh_z8jxnCStsWk3N-KuCatMbTdWA2dZ3g1M8n6C-aNt9VsBLUgruNqdkSY4QKr2HgGI2yUJ8ckcSdZ1RftiI0PyyszCOAKX3yAOxbCpEQ1xfqvwJh7aqxeALaj35rQsdfOUEycY3ZjSz1QfhCTtho6fkTLTzV6RJNQxzDrGGz9ono-i0LHDQwQ7njETdNKrjt-XDv63TH1khv57xyt_mEBIStbajIaysTdSYaiF6AuDuVCwuHkX-QOqGjplNA7cau6yAZpFht2BATjZbyhcUPYOK_sZGaEVNbQBTJWhiNsdQ_Suj4SVIrFFPzIy6L1Fo28XsyWitTLyiAGDvb6-JL7OphsX9agvVurpFq2?></g></svg>