<svg xmlns="http://www.w3.org/2000/svg" xmlns:xlink="http://www.w3.org/1999/xlink" contentStyleType="text/css" data-diagram-type="SEQUENCE" height="832px" preserveAspectRatio="none" style="width:1253px;height:832px;background:#F5F5F5;" version="1.1" viewBox="0 0 1253 832" width="1253px" zoomAndPan="magnify"><?plantuml 1.2026.5?><defs><linearGradient id="gzuq01eyeknd60" x1="50%" x2="50%" y1="0%" y2="100%"><stop offset="0%" stop-color="#E0E5F0"/><stop offset="100%" stop-color="#D1D9E6"/></linearGradient><filter height="300%" id="fzuq01eyeknd6" width="300%" x="-1" y="-1"><feGaussianBlur result="blurOut" stdDeviation="2"/><feColorMatrix in="blurOut" result="blurOut2" type="matrix" values="0 0 0 0 0 0 0 0 0 0 0 0 0 0 0 0 0 0 .4 0"/><feOffset dx="4" dy="4" in="blurOut2" result="blurOut3"/><feBlend in="SourceGraphic" in2="blurOut3" mode="normal"/></filter></defs><g><rect fill="#F5F5F5" height="832" style="stroke:none;stroke-width:1;" width="1253" x="0" y="0"/><g class="title" data-source-line="1"><text fill="#000000" font-family="'Arial'" font-size="14" font-weight="700" lengthAdjust="spacing" textLength="170.8438" x="537.9243" y="27.9951">Read-to-Write-Zugriff</text></g><rect fill="#9FBAC4" height="782.5859" rx="5" ry="5" style="stroke:#181818;stroke-width:0.5;" width="74.0586" x="85" y="43.2969"/><text fill="#000000" font-family="'Arial'" font-size="14" font-weight="700" lengthAdjust="spacing" textLength="4.874" x="88" y="56.292">&#160;</text><text fill="#000000" font-family="'Arial'" font-size="14" font-weight="700" lengthAdjust="spacing" textLength="48.5625" x="97.748" y="72.5889">GDA 1</text><rect fill="#C48778" height="782.5859" rx="5" ry="5" style="stroke:#181818;stroke-width:0.5;" width="256.9268" x="482.6621" y="43.2969"/><text fill="#000000" font-family="'Arial'" font-size="14" font-weight="700" lengthAdjust="spacing" textLength="4.874" x="485.6621" y="56.292">&#160;</text><text fill="#000000" font-family="'Arial'" font-size="14" font-weight="700" lengthAdjust="spacing" textLength="182.6904" x="519.7803" y="72.5889">e-Med Fachanwendung</text><rect fill="#BEAEBE" height="782.5859" rx="5" ry="5" style="stroke:#181818;stroke-width:0.5;" width="83.8066" x="1022.9102" y="43.2969"/><text fill="#000000" font-family="'Arial'" font-size="14" font-weight="700" lengthAdjust="spacing" textLength="4.874" x="1025.9102" y="56.292">&#160;</text><text fill="#000000" font-family="'Arial'" font-size="14" font-weight="700" lengthAdjust="spacing" textLength="48.5625" x="1045.4063" y="72.5889">GDA 2</text><rect fill="#BAC38B" height="782.5859" rx="5" ry="5" style="stroke:#181818;stroke-width:0.5;" width="77.9756" x="1148.7168" y="43.2969"/><text fill="#000000" font-family="'Arial'" font-size="14" font-weight="700" lengthAdjust="spacing" textLength="4.874" x="1151.7168" y="56.292">&#160;</text><text fill="#000000" font-family="'Arial'" font-size="14" font-weight="700" lengthAdjust="spacing" textLength="57.3535" x="1156.5908" y="72.5889">Patient</text><g><title>GDA 1</title><rect fill="#FFFFFF" height="505.9688" style="stroke:#181818;stroke-width:1;" width="10" x="117.0293" y="231.6172"/></g><g><title>e-Med FA</title><rect fill="#FFFFFF" height="375.9453" style="stroke:#181818;stroke-width:1;" width="10" x="606.1255" y="231.6172"/></g><rect fill="none" height="256.0859" rx="5" ry="5" style="stroke:#111827;stroke-width:2;" width="880.6431" x="86.7476" y="359.4766"/><g class="participant-lifeline" data-entity-uid="part1" data-qualified-name="GDA_1" data-source-line="43" id="part1-lifeline"><g><title>GDA 1</title><rect fill="#000000" fill-opacity="0.00000" height="590.3984" width="8" x="118.0293" y="156.1875"/><line style="stroke:#181818;stroke-width:0.5;stroke-dasharray:5,5;" x1="121.7476" x2="121.7476" y1="156.1875" y2="746.5859"/></g></g><g class="participant-lifeline" data-entity-uid="part2" data-qualified-name="eMed_FA" data-source-line="47" id="part2-lifeline"><g><title>e-Med FA</title><rect fill="#000000" fill-opacity="0.00000" height="590.3984" width="8" x="607.1255" y="156.1875"/><line style="stroke:#181818;stroke-width:0.5;stroke-dasharray:5,5;" x1="610.4634" x2="610.4634" y1="156.1875" y2="746.5859"/></g></g><g class="participant-lifeline" data-entity-uid="part3" data-qualified-name="GDA_2" data-source-line="51" id="part3-lifeline"><g><title>GDA 2</title><rect fill="#000000" fill-opacity="0.00000" height="590.3984" width="8" x="1060.8135" y="156.1875"/><line style="stroke:#181818;stroke-width:0.5;stroke-dasharray:5,5;" x1="1064.5317" x2="1064.5317" y1="156.1875" y2="746.5859"/></g></g><g class="participant-lifeline" data-entity-uid="part4" data-qualified-name="Patient" data-source-line="55" id="part4-lifeline"><g><title>Patient</title><rect fill="#000000" fill-opacity="0.00000" height="590.3984" width="8" x="1183.7046" y="156.1875"/><line style="stroke:#181818;stroke-width:0.5;stroke-dasharray:5,5;" x1="1187.0166" x2="1187.0166" y1="156.1875" y2="746.5859"/></g></g><g class="participant participant-head" data-entity-uid="part1" data-qualified-name="GDA_1" data-source-line="43" id="part1-head"><text fill="#000000" font-family="'Arial'" font-size="14" lengthAdjust="spacing" textLength="44.5635" x="96.7476" y="152.8857">GDA 1</text><ellipse cx="122.0293" cy="88.3906" fill="#E2E2F0" rx="8" ry="8" style="stroke:#181818;stroke-width:0.5;"/><path d="M122.0293,96.3906 L122.0293,123.3906 M109.0293,104.3906 L135.0293,104.3906 M122.0293,123.3906 L109.0293,138.3906 M122.0293,123.3906 L135.0293,138.3906" fill="none" style="stroke:#181818;stroke-width:0.5;"/></g><g class="participant participant-tail" data-entity-uid="part1" data-qualified-name="GDA_1" data-source-line="43" id="part1-tail"><text fill="#000000" font-family="'Arial'" font-size="14" lengthAdjust="spacing" textLength="44.5635" x="96.7476" y="758.5811">GDA 1</text><ellipse cx="122.0293" cy="770.3828" fill="#E2E2F0" rx="8" ry="8" style="stroke:#181818;stroke-width:0.5;"/><path d="M122.0293,778.3828 L122.0293,805.3828 M109.0293,786.3828 L135.0293,786.3828 M122.0293,805.3828 L109.0293,820.3828 M122.0293,805.3828 L135.0293,820.3828" fill="none" style="stroke:#181818;stroke-width:0.5;"/></g><g class="participant participant-head" data-entity-uid="part2" data-qualified-name="eMed_FA" data-source-line="47" id="part2-head"><rect fill="#FFFFFF" height="30.2969" rx="5" ry="5" style="stroke:#555555;stroke-width:0.5;" width="79.3242" x="571.4634" y="124.8906"/><text fill="#000000" font-family="'Arial'" font-size="14" lengthAdjust="spacing" textLength="65.3242" x="578.4634" y="144.8857">e-Med FA</text></g><g class="participant participant-tail" data-entity-uid="part2" data-qualified-name="eMed_FA" data-source-line="47" id="part2-tail"><rect fill="#FFFFFF" height="30.2969" rx="5" ry="5" style="stroke:#555555;stroke-width:0.5;" width="79.3242" x="571.4634" y="745.5859"/><text fill="#000000" font-family="'Arial'" font-size="14" lengthAdjust="spacing" textLength="65.3242" x="578.4634" y="765.5811">e-Med FA</text></g><g class="participant participant-head" data-entity-uid="part3" data-qualified-name="GDA_2" data-source-line="51" id="part3-head"><text fill="#000000" font-family="'Arial'" font-size="14" lengthAdjust="spacing" textLength="44.5635" x="1039.5317" y="152.8857">GDA 2</text><ellipse cx="1064.8135" cy="88.3906" fill="#E2E2F0" rx="8" ry="8" style="stroke:#181818;stroke-width:0.5;"/><path d="M1064.8135,96.3906 L1064.8135,123.3906 M1051.8135,104.3906 L1077.8135,104.3906 M1064.8135,123.3906 L1051.8135,138.3906 M1064.8135,123.3906 L1077.8135,138.3906" fill="none" style="stroke:#181818;stroke-width:0.5;"/></g><g class="participant participant-tail" data-entity-uid="part3" data-qualified-name="GDA_2" data-source-line="51" id="part3-tail"><text fill="#000000" font-family="'Arial'" font-size="14" lengthAdjust="spacing" textLength="44.5635" x="1039.5317" y="758.5811">GDA 2</text><ellipse cx="1064.8135" cy="770.3828" fill="#E2E2F0" rx="8" ry="8" style="stroke:#181818;stroke-width:0.5;"/><path d="M1064.8135,778.3828 L1064.8135,805.3828 M1051.8135,786.3828 L1077.8135,786.3828 M1064.8135,805.3828 L1051.8135,820.3828 M1064.8135,805.3828 L1077.8135,820.3828" fill="none" style="stroke:#181818;stroke-width:0.5;"/></g><g class="participant participant-head" data-entity-uid="part4" data-qualified-name="Patient" data-source-line="55" id="part4-head"><text fill="#000000" font-family="'Arial'" font-size="14" lengthAdjust="spacing" textLength="49.376" x="1160.0166" y="152.8857">Patient</text><ellipse cx="1187.7046" cy="88.3906" fill="#E2E2F0" rx="8" ry="8" style="stroke:#181818;stroke-width:0.5;"/><path d="M1187.7046,96.3906 L1187.7046,123.3906 M1174.7046,104.3906 L1200.7046,104.3906 M1187.7046,123.3906 L1174.7046,138.3906 M1187.7046,123.3906 L1200.7046,138.3906" fill="none" style="stroke:#181818;stroke-width:0.5;"/></g><g class="participant participant-tail" data-entity-uid="part4" data-qualified-name="Patient" data-source-line="55" id="part4-tail"><text fill="#000000" font-family="'Arial'" font-size="14" lengthAdjust="spacing" textLength="49.376" x="1160.0166" y="758.5811">Patient</text><ellipse cx="1187.7046" cy="770.3828" fill="#E2E2F0" rx="8" ry="8" style="stroke:#181818;stroke-width:0.5;"/><path d="M1187.7046,778.3828 L1187.7046,805.3828 M1174.7046,786.3828 L1200.7046,786.3828 M1187.7046,805.3828 L1174.7046,820.3828 M1187.7046,805.3828 L1200.7046,820.3828" fill="none" style="stroke:#181818;stroke-width:0.5;"/></g><g><title>GDA 1</title><rect fill="#FFFFFF" height="505.9688" style="stroke:#181818;stroke-width:1;" width="10" x="117.0293" y="231.6172"/></g><g><title>e-Med FA</title><rect fill="#FFFFFF" height="375.9453" style="stroke:#181818;stroke-width:1;" width="10" x="606.1255" y="231.6172"/></g><rect fill="#EEEEEE" height="3" rx="5" ry="5" style="stroke:#EEEEEE;stroke-width:1;" width="1247.6924" x="0" y="187.3359"/><line style="stroke:#000000;stroke-width:1;" x1="0" x2="1247.6924" y1="187.3359" y2="187.3359"/><line style="stroke:#000000;stroke-width:1;" x1="0" x2="1247.6924" y1="190.3359" y2="190.3359"/><rect fill="#EEEEEE" height="24.2969" rx="5" ry="5" style="stroke:#000000;stroke-width:2;" width="216.2891" x="515.7017" y="176.1875"/><text fill="#000000" font-family="'Arial'" font-size="14" font-weight="700" lengthAdjust="spacing" textLength="197.415" x="521.7017" y="193.1826">Medikationsplan abrufen</text><g class="message" data-entity-1="part1" data-entity-2="part2" data-source-line="63" id="msg1"><line style="stroke:#111827;stroke-width:1;" x1="604.1255" x2="594.1255" y1="231.6172" y2="227.6172"/><line style="stroke:#111827;stroke-width:1;" x1="604.1255" x2="594.1255" y1="231.6172" y2="235.6172"/><line style="stroke:#111827;stroke-width:1;" x1="127.0293" x2="605.1255" y1="231.6172" y2="231.6172"/><text fill="#000000" font-family="'Arial'" font-size="13" font-weight="700" lengthAdjust="spacing" textLength="9.0454" x="134.0293" y="226.5513">1</text><text fill="#000000" font-family="'Arial'" font-size="13" lengthAdjust="spacing" textLength="121.9639" x="147.0747" y="226.5513">POST $readtowrite</text></g><path d="M5,249.6172 L5,281.6172 A5,5 0 0 0 10,286.6172 L232,286.6172 A5,5 0 0 0 237,281.6172 L237,254.6172 L227,244.6172 L10,244.6172 A5,5 0 0 0 5,249.6172" fill="url(#gzuq01eyeknd60)" filter="url(#fzuq01eyeknd6)" style="stroke:#8B95A5;stroke-width:1;"/><path d="M227,244.6172 L227,252.1172 A2.5,2.5 0 0 0 229.5,254.6172 L237,254.6172 L227,244.6172" fill="url(#gzuq01eyeknd60)" style="stroke:#8B95A5;stroke-width:1;"/><text fill="#111827" font-family="'Arial'" font-size="14" lengthAdjust="spacing" textLength="177.9053" x="11" y="262.6123">Medikationsplan abrufen,</text><text fill="#111827" font-family="'Arial'" font-size="14" lengthAdjust="spacing" textLength="211.5859" x="11" y="278.9092">mit der Intention zu schreiben</text><g class="message" data-entity-1="part2" data-entity-2="part2" data-source-line="72" id="msg2"><line style="stroke:#111827;stroke-width:1;" x1="616.1255" x2="658.1255" y1="331.4766" y2="331.4766"/><line style="stroke:#111827;stroke-width:1;" x1="658.1255" x2="658.1255" y1="331.4766" y2="344.4766"/><line style="stroke:#111827;stroke-width:1;" x1="617.1255" x2="658.1255" y1="344.4766" y2="344.4766"/><polygon fill="#111827" points="627.1255,340.4766,617.1255,344.4766,627.1255,348.4766,623.1255,344.4766" style="stroke:#111827;stroke-width:1;stroke-linejoin:miter;stroke-miterlimit:10;"/><text fill="#000000" font-family="'Arial'" font-size="13" font-weight="700" lengthAdjust="spacing" textLength="9.0454" x="623.1255" y="318.8442">2</text><text fill="#000000" font-family="'Arial'" font-size="13" lengthAdjust="spacing" textLength="164.8613" x="636.1709" y="311.2778">Pr&#252;fung auf bestehenden</text><text fill="#000000" font-family="'Arial'" font-size="13" lengthAdjust="spacing" textLength="106.3169" x="636.1709" y="326.4106">Medikationsplan</text></g><path d="M91.7476,359.4766 L152.686,359.4766 L152.686,367.7734 L142.686,377.7734 L86.7476,377.7734 L86.7476,364.4766 A5,5 0 0 1 91.7476,359.4766" fill="#EEF2FF" style="stroke:#111827;stroke-width:1.5;"/><rect fill="none" height="256.0859" rx="5" ry="5" style="stroke:#111827;stroke-width:2;" width="880.6431" x="86.7476" y="359.4766"/><text fill="#000000" font-family="'Arial'" font-size="14" font-weight="700" lengthAdjust="spacing" textLength="20.9385" x="101.7476" y="373.4717">alt</text><text fill="#000000" font-family="'Arial'" font-size="14" font-weight="700" lengthAdjust="spacing" textLength="271.2773" x="167.686" y="374.4717">[kein Medikationsplan vorhanden]</text><g class="message" data-entity-1="part2" data-entity-2="part2" data-source-line="75" id="msg3"><line style="stroke:#111827;stroke-width:1;" x1="616.1255" x2="658.1255" y1="415.3359" y2="415.3359"/><line style="stroke:#111827;stroke-width:1;" x1="658.1255" x2="658.1255" y1="415.3359" y2="428.3359"/><line style="stroke:#111827;stroke-width:1;" x1="617.1255" x2="658.1255" y1="428.3359" y2="428.3359"/><polygon fill="#111827" points="627.1255,424.3359,617.1255,428.3359,627.1255,432.3359,623.1255,428.3359" style="stroke:#111827;stroke-width:1;stroke-linejoin:miter;stroke-miterlimit:10;"/><text fill="#000000" font-family="'Arial'" font-size="13" font-weight="700" lengthAdjust="spacing" textLength="9.0454" x="623.1255" y="402.7036">3</text><text fill="#000000" font-family="'Arial'" font-size="13" lengthAdjust="spacing" textLength="205.7402" x="636.1709" y="395.1372">Erzeugt leeren Medikationsplan</text><text fill="#000000" font-family="'Arial'" font-size="13" lengthAdjust="spacing" textLength="214.1064" x="640.3032" y="410.27">mit emptyReason = "notstarted"</text></g><g class="message" data-entity-1="part2" data-entity-2="part1" data-source-line="76" id="msg4"><line style="stroke:#111827;stroke-width:1;" x1="128.0293" x2="138.0293" y1="457.4688" y2="453.4688"/><line style="stroke:#111827;stroke-width:1;" x1="128.0293" x2="138.0293" y1="457.4688" y2="461.4688"/><line style="stroke:#111827;stroke-width:1;stroke-dasharray:2,2;" x1="127.0293" x2="605.1255" y1="457.4688" y2="457.4688"/><text fill="#000000" font-family="'Arial'" font-size="13" font-weight="700" lengthAdjust="spacing" textLength="9.0454" x="144.0293" y="452.4028">4</text><text fill="#000000" font-family="'Arial'" font-size="13" lengthAdjust="spacing" textLength="152.3755" x="157.0747" y="452.4028">Leerer Medikationsplan</text></g><line style="stroke:#111827;stroke-width:1;stroke-dasharray:2,2;" x1="86.7476" x2="967.3906" y1="466.4688" y2="466.4688"/><text fill="#000000" font-family="'Arial'" font-size="14" font-weight="700" lengthAdjust="spacing" textLength="232.832" x="91.7476" y="479.4639">[Medikationsplan vorhanden]</text><g class="message" data-entity-1="part2" data-entity-2="part2" data-source-line="79" id="msg5"><line style="stroke:#111827;stroke-width:1;" x1="616.1255" x2="658.1255" y1="550.2969" y2="550.2969"/><line style="stroke:#111827;stroke-width:1;" x1="658.1255" x2="658.1255" y1="550.2969" y2="563.2969"/><line style="stroke:#111827;stroke-width:1;" x1="617.1255" x2="658.1255" y1="563.2969" y2="563.2969"/><polygon fill="#111827" points="627.1255,559.2969,617.1255,563.2969,627.1255,567.2969,623.1255,563.2969" style="stroke:#111827;stroke-width:1;stroke-linejoin:miter;stroke-miterlimit:10;"/><text fill="#000000" font-family="'Arial'" font-size="13" font-weight="700" lengthAdjust="spacing" textLength="9.0454" x="623.1255" y="522.5317">5</text><text fill="#000000" font-family="'Arial'" font-size="13" lengthAdjust="spacing" textLength="308.7563" x="636.1709" y="499.8325">Stellt Collection Bundle zur Auslieferung bereit:</text><text fill="#000000" font-family="'Arial'" font-size="13" lengthAdjust="spacing" textLength="309.2197" x="636.1709" y="514.9653">Bedingung f&#252;r Read-to-Write Collection Bundle:</text><text fill="#000000" font-family="'Arial'" font-size="13" lengthAdjust="spacing" textLength="187.897" x="636.1709" y="530.0981">- new|changed &#8594; unchanged</text><text fill="#000000" font-family="'Arial'" font-size="13" lengthAdjust="spacing" textLength="149.6143" x="636.1709" y="545.231">- removed &#8594; entfernen</text></g><g class="message" data-entity-1="part2" data-entity-2="part1" data-source-line="80" id="msg6"><line style="stroke:#111827;stroke-width:1;" x1="128.0293" x2="138.0293" y1="607.5625" y2="603.5625"/><line style="stroke:#111827;stroke-width:1;" x1="128.0293" x2="138.0293" y1="607.5625" y2="611.5625"/><line style="stroke:#111827;stroke-width:1;stroke-dasharray:2,2;" x1="127.0293" x2="610.1255" y1="607.5625" y2="607.5625"/><text fill="#000000" font-family="'Arial'" font-size="13" font-weight="700" lengthAdjust="spacing" textLength="9.0454" x="144.0293" y="594.9302">6</text><text fill="#000000" font-family="'Arial'" font-size="13" lengthAdjust="spacing" textLength="230.7373" x="157.0747" y="587.3638">AtElgaEmedBundleMedikationsplan</text><text fill="#000000" font-family="'Arial'" font-size="13" lengthAdjust="spacing" textLength="349.502" x="157.0747" y="602.4966">(Collection Bundle + ETag f&#252;r optimistisches Locking)</text></g><g class="message" data-entity-1="part1" data-entity-2="part1" data-source-line="85" id="msg7"><line style="stroke:#111827;stroke-width:1;" x1="127.0293" x2="169.0293" y1="643.6953" y2="643.6953"/><line style="stroke:#111827;stroke-width:1;" x1="169.0293" x2="169.0293" y1="643.6953" y2="656.6953"/><line style="stroke:#111827;stroke-width:1;" x1="128.0293" x2="169.0293" y1="656.6953" y2="656.6953"/><polygon fill="#111827" points="138.0293,652.6953,128.0293,656.6953,138.0293,660.6953,134.0293,656.6953" style="stroke:#111827;stroke-width:1;stroke-linejoin:miter;stroke-miterlimit:10;"/><text fill="#000000" font-family="'Arial'" font-size="13" font-weight="700" lengthAdjust="spacing" textLength="9.0454" x="134.0293" y="638.6294">7</text><text fill="#000000" font-family="'Arial'" font-size="13" lengthAdjust="spacing" textLength="249.8438" x="147.0747" y="638.6294">Eintr&#228;ge hinzuf&#252;gen/&#228;ndern/entfernen</text></g><path d="M14,674.6953 L14,722.6953 A5,5 0 0 0 19,727.6953 L220,727.6953 A5,5 0 0 0 225,722.6953 L225,679.6953 L215,669.6953 L19,669.6953 A5,5 0 0 0 14,674.6953" fill="url(#gzuq01eyeknd60)" filter="url(#fzuq01eyeknd6)" style="stroke:#8B95A5;stroke-width:1;"/><path d="M215,669.6953 L215,677.1953 A2.5,2.5 0 0 0 217.5,679.6953 L225,679.6953 L215,669.6953" fill="url(#gzuq01eyeknd60)" style="stroke:#8B95A5;stroke-width:1;"/><text fill="#111827" font-family="'Arial'" font-size="14" lengthAdjust="spacing" textLength="183.0869" x="20" y="687.6904">Nach der Bearbeitung des</text><text fill="#111827" font-family="'Arial'" font-size="14" lengthAdjust="spacing" textLength="186.498" x="20" y="703.9873">Medikationsplans kann ein</text><text fill="#111827" font-family="'Arial'" font-size="14" lengthAdjust="spacing" textLength="156.5225" x="20" y="720.2842">Write-Zugriff erfolgen.</text><?plantuml-src bLNTRjis5BxdKnmukzYmUOtSUd42k83TETk0jWkQ50E600Kb7ic4vKEFekBKtMxx07s6FaRlyYPxaXxIiaDPtiMe6uddx_k-SqWvxKg4DoXLtvd-7rOxxFzP5rRdkH3LGjDAMhc4r5Y5zeKfZOMJqx1YgymMXJKrgSOZ7_edygZcKfcrfW9oMLOOMPemIsWXYPCgp6LTkaj3xhLS8lGcLikoTzpZMcyGacV7ZMtOaGyPX_1104mF2U0f3lFJ_ebAr3d-v3rY0KRf-L0EzxitSvqj2AiA4jvx4n4QyVULLCeJzraYD4cIZ0Pdl7UzbyRP6iK_CS1Vtw_GbfeM4ONPx9Z3MrBX1Hk1O-tnhnefspAzajRfJAyakHQbOLW73fssXjLswWhSCU-QqpBiP1duW8crPdqeJDXiQnksZbNS6xQrdlBMBunyrUAupxmrTNgE-I2mYo8Vom_QdPcQ-uX1Q_-OhY8rzz2x9Kx-ymGIW1wSdETyRhmgCdFioePt2SWAUi6b9v0KdxlxA3OixBz21PSocqjQiq_D4BQBSxvuDZexyrEtUbGQa0FUNKv2xYPwSZozhpm8YLAKc68Bt60FRd0a-aewZLmi1CliwIZT1-zCFhnvZn88MJj3zJ95AyHu38nFBzZBKBKg9O5CRPqZmNWin5QZ_lFdEquNSFNxzGryO_a2SsRjho_1HVMTv9CTl8K8fzpSOIEn-8y2Fu1OQiVtXeNVo356Te1D3LKsjwXJf03P9nEF9HeOOYTnFqPc7xxalZkopY75ok6SCo3TqW42pbSwMA2c3laxOxdD7CHY7gininki2mSbeiLEEBV5KyBbohtdAxvYGcFeCONAyNYWwiLPlQf1e0juwRDPwC14lbd-DyHhXoNJu_DGOXP4dVAPuv_EfhOmgQjIOuxMwyGJWDfTtD8K_S7oM_d35zl-EtKJSK0V2DT_-nDHy7J_-_4JrDHyUQF59VT_Q-36SZbgmusuJzoiBEHiYMgRlIFfjrqctyFiHZPWpShffQwSvhd12bwQZE-6uZkkfh0xDgG4M_PplGCnq-Jim-S2OQvfKtFY0kd9msT_oTEJHmgTsNxDrq8OuIbAcxAQNaJ5E0wdleA5908_SwBrrmUqkIcvt8_xUVyA?></g></svg>