<svg xmlns="http://www.w3.org/2000/svg" xmlns:xlink="http://www.w3.org/1999/xlink" contentStyleType="text/css" data-diagram-type="SEQUENCE" height="820px" preserveAspectRatio="none" style="width:1169px;height:820px;background:#F5F5F5;" version="1.1" viewBox="0 0 1169 820" width="1169px" zoomAndPan="magnify"><?plantuml 1.2026.4beta2?><defs><linearGradient id="gfy8c8g2wzhah0" x1="50%" x2="50%" y1="0%" y2="100%"><stop offset="0%" stop-color="#E0E5F0"/><stop offset="100%" stop-color="#D1D9E6"/></linearGradient><filter height="300%" id="ffy8c8g2wzhah" width="300%" x="-1" y="-1"><feGaussianBlur result="blurOut" stdDeviation="2"/><feColorMatrix in="blurOut" result="blurOut2" type="matrix" values="0 0 0 0 0 0 0 0 0 0 0 0 0 0 0 0 0 0 .4 0"/><feOffset dx="4" dy="4" in="blurOut2" result="blurOut3"/><feBlend in="SourceGraphic" in2="blurOut3" mode="normal"/></filter></defs><g><rect fill="#F5F5F5" height="820" style="stroke:none;stroke-width:1;" width="1169" x="0" y="0"/><g class="title" data-source-line="1"><text fill="#000000" font-family="'Arial'" font-size="14" font-weight="700" lengthAdjust="spacing" textLength="170.8438" x="495.5952" y="27.9951">Read-to-Write-Zugriff</text></g><rect fill="#9FBAC4" height="770.5859" rx="5" ry="5" style="stroke:#181818;stroke-width:0.5;" width="74.0586" x="100" y="43.2969"/><text fill="#000000" font-family="'Arial'" font-size="14" font-weight="700" lengthAdjust="spacing" textLength="4.874" x="103" y="56.292">&#160;</text><text fill="#000000" font-family="'Arial'" font-size="14" font-weight="700" lengthAdjust="spacing" textLength="48.5625" x="112.748" y="72.5889">GDA 1</text><rect fill="#C48778" height="770.5859" rx="5" ry="5" style="stroke:#181818;stroke-width:0.5;" width="256.9268" x="398.0039" y="43.2969"/><text fill="#000000" font-family="'Arial'" font-size="14" font-weight="700" lengthAdjust="spacing" textLength="4.874" x="401.0039" y="56.292">&#160;</text><text fill="#000000" font-family="'Arial'" font-size="14" font-weight="700" lengthAdjust="spacing" textLength="182.6904" x="435.1221" y="72.5889">e-Med Fachanwendung</text><rect fill="#BEAEBE" height="770.5859" rx="5" ry="5" style="stroke:#181818;stroke-width:0.5;" width="83.8066" x="938.252" y="43.2969"/><text fill="#000000" font-family="'Arial'" font-size="14" font-weight="700" lengthAdjust="spacing" textLength="4.874" x="941.252" y="56.292">&#160;</text><text fill="#000000" font-family="'Arial'" font-size="14" font-weight="700" lengthAdjust="spacing" textLength="48.5625" x="960.748" y="72.5889">GDA 2</text><rect fill="#BAC38B" height="770.5859" rx="5" ry="5" style="stroke:#181818;stroke-width:0.5;" width="77.9756" x="1064.0586" y="43.2969"/><text fill="#000000" font-family="'Arial'" font-size="14" font-weight="700" lengthAdjust="spacing" textLength="4.874" x="1067.0586" y="56.292">&#160;</text><text fill="#000000" font-family="'Arial'" font-size="14" font-weight="700" lengthAdjust="spacing" textLength="57.3535" x="1071.9326" y="72.5889">Patient</text><g><title>GDA 1</title><rect fill="#FFFFFF" height="512.9688" style="stroke:#181818;stroke-width:1;" width="10" x="132.0293" y="212.6172"/></g><g><title>e-Med FA</title><rect fill="#FFFFFF" height="375.9453" style="stroke:#181818;stroke-width:1;" width="10" x="521.4673" y="212.6172"/></g><rect fill="none" height="430.375" rx="5" ry="5" style="stroke:#111827;stroke-width:2;" width="883.7324" x="9" y="173.1875"/><rect fill="none" height="256.0859" rx="5" ry="5" style="stroke:#111827;stroke-width:2;" width="780.9849" x="101.7476" y="340.4766"/><g class="participant-lifeline" data-entity-uid="part1" data-qualified-name="GDA_1" data-source-line="43" id="part1-lifeline"><g><title>GDA 1</title><rect fill="#000000" fill-opacity="0.00000" height="578.3984" width="8" x="133.0293" y="156.1875"/><line style="stroke:#181818;stroke-width:0.5;stroke-dasharray:5,5;" x1="136.7476" x2="136.7476" y1="156.1875" y2="734.5859"/></g></g><g class="participant-lifeline" data-entity-uid="part2" data-qualified-name="eMed_FA" data-source-line="47" id="part2-lifeline"><g><title>e-Med FA</title><rect fill="#000000" fill-opacity="0.00000" height="578.3984" width="8" x="522.4673" y="156.1875"/><line style="stroke:#181818;stroke-width:0.5;stroke-dasharray:5,5;" x1="525.8052" x2="525.8052" y1="156.1875" y2="734.5859"/></g></g><g class="participant-lifeline" data-entity-uid="part3" data-qualified-name="GDA_2" data-source-line="51" id="part3-lifeline"><g><title>GDA 2</title><rect fill="#000000" fill-opacity="0.00000" height="578.3984" width="8" x="976.1553" y="156.1875"/><line style="stroke:#181818;stroke-width:0.5;stroke-dasharray:5,5;" x1="979.8735" x2="979.8735" y1="156.1875" y2="734.5859"/></g></g><g class="participant-lifeline" data-entity-uid="part4" data-qualified-name="Patient" data-source-line="55" id="part4-lifeline"><g><title>Patient</title><rect fill="#000000" fill-opacity="0.00000" height="578.3984" width="8" x="1099.0464" y="156.1875"/><line style="stroke:#181818;stroke-width:0.5;stroke-dasharray:5,5;" x1="1102.3584" x2="1102.3584" y1="156.1875" y2="734.5859"/></g></g><g class="participant participant-head" data-entity-uid="part1" data-qualified-name="GDA_1" data-source-line="43" id="part1-head"><text fill="#000000" font-family="'Arial'" font-size="14" lengthAdjust="spacing" textLength="44.5635" x="111.7476" y="152.8857">GDA 1</text><ellipse cx="137.0293" cy="88.3906" fill="#E2E2F0" rx="8" ry="8" style="stroke:#181818;stroke-width:0.5;"/><path d="M137.0293,96.3906 L137.0293,123.3906 M124.0293,104.3906 L150.0293,104.3906 M137.0293,123.3906 L124.0293,138.3906 M137.0293,123.3906 L150.0293,138.3906" fill="none" style="stroke:#181818;stroke-width:0.5;"/></g><g class="participant participant-tail" data-entity-uid="part1" data-qualified-name="GDA_1" data-source-line="43" id="part1-tail"><text fill="#000000" font-family="'Arial'" font-size="14" lengthAdjust="spacing" textLength="44.5635" x="111.7476" y="746.5811">GDA 1</text><ellipse cx="137.0293" cy="758.3828" fill="#E2E2F0" rx="8" ry="8" style="stroke:#181818;stroke-width:0.5;"/><path d="M137.0293,766.3828 L137.0293,793.3828 M124.0293,774.3828 L150.0293,774.3828 M137.0293,793.3828 L124.0293,808.3828 M137.0293,793.3828 L150.0293,808.3828" fill="none" style="stroke:#181818;stroke-width:0.5;"/></g><g class="participant participant-head" data-entity-uid="part2" data-qualified-name="eMed_FA" data-source-line="47" id="part2-head"><rect fill="#FFFFFF" height="30.2969" rx="5" ry="5" style="stroke:#555555;stroke-width:0.5;" width="79.3242" x="486.8052" y="124.8906"/><text fill="#000000" font-family="'Arial'" font-size="14" lengthAdjust="spacing" textLength="65.3242" x="493.8052" y="144.8857">e-Med FA</text></g><g class="participant participant-tail" data-entity-uid="part2" data-qualified-name="eMed_FA" data-source-line="47" id="part2-tail"><rect fill="#FFFFFF" height="30.2969" rx="5" ry="5" style="stroke:#555555;stroke-width:0.5;" width="79.3242" x="486.8052" y="733.5859"/><text fill="#000000" font-family="'Arial'" font-size="14" lengthAdjust="spacing" textLength="65.3242" x="493.8052" y="753.5811">e-Med FA</text></g><g class="participant participant-head" data-entity-uid="part3" data-qualified-name="GDA_2" data-source-line="51" id="part3-head"><text fill="#000000" font-family="'Arial'" font-size="14" lengthAdjust="spacing" textLength="44.5635" x="954.8735" y="152.8857">GDA 2</text><ellipse cx="980.1553" cy="88.3906" fill="#E2E2F0" rx="8" ry="8" style="stroke:#181818;stroke-width:0.5;"/><path d="M980.1553,96.3906 L980.1553,123.3906 M967.1553,104.3906 L993.1553,104.3906 M980.1553,123.3906 L967.1553,138.3906 M980.1553,123.3906 L993.1553,138.3906" fill="none" style="stroke:#181818;stroke-width:0.5;"/></g><g class="participant participant-tail" data-entity-uid="part3" data-qualified-name="GDA_2" data-source-line="51" id="part3-tail"><text fill="#000000" font-family="'Arial'" font-size="14" lengthAdjust="spacing" textLength="44.5635" x="954.8735" y="746.5811">GDA 2</text><ellipse cx="980.1553" cy="758.3828" fill="#E2E2F0" rx="8" ry="8" style="stroke:#181818;stroke-width:0.5;"/><path d="M980.1553,766.3828 L980.1553,793.3828 M967.1553,774.3828 L993.1553,774.3828 M980.1553,793.3828 L967.1553,808.3828 M980.1553,793.3828 L993.1553,808.3828" fill="none" style="stroke:#181818;stroke-width:0.5;"/></g><g class="participant participant-head" data-entity-uid="part4" data-qualified-name="Patient" data-source-line="55" id="part4-head"><text fill="#000000" font-family="'Arial'" font-size="14" lengthAdjust="spacing" textLength="49.376" x="1075.3584" y="152.8857">Patient</text><ellipse cx="1103.0464" cy="88.3906" fill="#E2E2F0" rx="8" ry="8" style="stroke:#181818;stroke-width:0.5;"/><path d="M1103.0464,96.3906 L1103.0464,123.3906 M1090.0464,104.3906 L1116.0464,104.3906 M1103.0464,123.3906 L1090.0464,138.3906 M1103.0464,123.3906 L1116.0464,138.3906" fill="none" style="stroke:#181818;stroke-width:0.5;"/></g><g class="participant participant-tail" data-entity-uid="part4" data-qualified-name="Patient" data-source-line="55" id="part4-tail"><text fill="#000000" font-family="'Arial'" font-size="14" lengthAdjust="spacing" textLength="49.376" x="1075.3584" y="746.5811">Patient</text><ellipse cx="1103.0464" cy="758.3828" fill="#E2E2F0" rx="8" ry="8" style="stroke:#181818;stroke-width:0.5;"/><path d="M1103.0464,766.3828 L1103.0464,793.3828 M1090.0464,774.3828 L1116.0464,774.3828 M1103.0464,793.3828 L1090.0464,808.3828 M1103.0464,793.3828 L1116.0464,808.3828" fill="none" style="stroke:#181818;stroke-width:0.5;"/></g><g><title>GDA 1</title><rect fill="#FFFFFF" height="512.9688" style="stroke:#181818;stroke-width:1;" width="10" x="132.0293" y="212.6172"/></g><g><title>e-Med FA</title><rect fill="#FFFFFF" height="375.9453" style="stroke:#181818;stroke-width:1;" width="10" x="521.4673" y="212.6172"/></g><path d="M14,173.1875 L156.7441,173.1875 L156.7441,181.4844 L146.7441,191.4844 L9,191.4844 L9,178.1875 A5,5 0 0 1 14,173.1875" fill="#EEF2FF" style="stroke:#111827;stroke-width:1.5;"/><rect fill="none" height="430.375" rx="5" ry="5" style="stroke:#111827;stroke-width:2;" width="883.7324" x="9" y="173.1875"/><text fill="#000000" font-family="'Arial'" font-size="14" font-weight="700" lengthAdjust="spacing" textLength="102.7441" x="24" y="187.1826">$readtowrite</text><g class="message" data-entity-1="part1" data-entity-2="part2" data-source-line="64" id="msg1"><line style="stroke:#111827;stroke-width:1;" x1="519.4673" x2="509.4673" y1="212.6172" y2="208.6172"/><line style="stroke:#111827;stroke-width:1;" x1="519.4673" x2="509.4673" y1="212.6172" y2="216.6172"/><line style="stroke:#111827;stroke-width:1;" x1="142.0293" x2="520.4673" y1="212.6172" y2="212.6172"/><text fill="#000000" font-family="'Arial'" font-size="13" font-weight="700" lengthAdjust="spacing" textLength="9.0454" x="149.0293" y="207.5513">1</text><text fill="#000000" font-family="'Arial'" font-size="13" lengthAdjust="spacing" textLength="121.9639" x="162.0747" y="207.5513">POST $readtowrite</text></g><path d="M19,230.6172 L19,262.6172 A5,5 0 0 0 24,267.6172 L246,267.6172 A5,5 0 0 0 251,262.6172 L251,235.6172 L241,225.6172 L24,225.6172 A5,5 0 0 0 19,230.6172" fill="url(#gfy8c8g2wzhah0)" filter="url(#ffy8c8g2wzhah)" style="stroke:#8B95A5;stroke-width:1;"/><path d="M241,225.6172 L241,233.1172 A2.5,2.5 0 0 0 243.5,235.6172 L251,235.6172 L241,225.6172" fill="url(#gfy8c8g2wzhah0)" style="stroke:#8B95A5;stroke-width:1;"/><text fill="#111827" font-family="'Arial'" font-size="14" lengthAdjust="spacing" textLength="177.9053" x="25" y="243.6123">Medikationsplan abrufen,</text><text fill="#111827" font-family="'Arial'" font-size="14" lengthAdjust="spacing" textLength="211.5859" x="25" y="259.9092">mit der Intention zu schreiben</text><g class="message" data-entity-1="part2" data-entity-2="part2" data-source-line="73" id="msg2"><line style="stroke:#111827;stroke-width:1;" x1="531.4673" x2="573.4673" y1="312.4766" y2="312.4766"/><line style="stroke:#111827;stroke-width:1;" x1="573.4673" x2="573.4673" y1="312.4766" y2="325.4766"/><line style="stroke:#111827;stroke-width:1;" x1="532.4673" x2="573.4673" y1="325.4766" y2="325.4766"/><polygon fill="#111827" points="542.4673,321.4766,532.4673,325.4766,542.4673,329.4766,538.4673,325.4766" style="stroke:#111827;stroke-width:1;"/><text fill="#000000" font-family="'Arial'" font-size="13" font-weight="700" lengthAdjust="spacing" textLength="9.0454" x="538.4673" y="299.8442">2</text><text fill="#000000" font-family="'Arial'" font-size="13" lengthAdjust="spacing" textLength="164.8613" x="551.5127" y="292.2778">Pr&#252;fung auf bestehenden</text><text fill="#000000" font-family="'Arial'" font-size="13" lengthAdjust="spacing" textLength="106.3169" x="551.5127" y="307.4106">Medikationsplan</text></g><path d="M106.7476,340.4766 L167.686,340.4766 L167.686,348.7734 L157.686,358.7734 L101.7476,358.7734 L101.7476,345.4766 A5,5 0 0 1 106.7476,340.4766" fill="#EEF2FF" style="stroke:#111827;stroke-width:1.5;"/><rect fill="none" height="256.0859" rx="5" ry="5" style="stroke:#111827;stroke-width:2;" width="780.9849" x="101.7476" y="340.4766"/><text fill="#000000" font-family="'Arial'" font-size="14" font-weight="700" lengthAdjust="spacing" textLength="20.9385" x="116.7476" y="354.4717">alt</text><text fill="#000000" font-family="'Arial'" font-size="14" font-weight="700" lengthAdjust="spacing" textLength="271.2773" x="182.686" y="355.4717">[kein Medikationsplan vorhanden]</text><g class="message" data-entity-1="part2" data-entity-2="part2" data-source-line="76" id="msg3"><line style="stroke:#111827;stroke-width:1;" x1="531.4673" x2="573.4673" y1="396.3359" y2="396.3359"/><line style="stroke:#111827;stroke-width:1;" x1="573.4673" x2="573.4673" y1="396.3359" y2="409.3359"/><line style="stroke:#111827;stroke-width:1;" x1="532.4673" x2="573.4673" y1="409.3359" y2="409.3359"/><polygon fill="#111827" points="542.4673,405.3359,532.4673,409.3359,542.4673,413.3359,538.4673,409.3359" style="stroke:#111827;stroke-width:1;"/><text fill="#000000" font-family="'Arial'" font-size="13" font-weight="700" lengthAdjust="spacing" textLength="9.0454" x="538.4673" y="383.7036">3</text><text fill="#000000" font-family="'Arial'" font-size="13" lengthAdjust="spacing" textLength="205.7402" x="551.5127" y="376.1372">Erzeugt leeren Medikationsplan</text><text fill="#000000" font-family="'Arial'" font-size="13" lengthAdjust="spacing" textLength="214.1064" x="555.645" y="391.27">mit emptyReason = "notstarted"</text></g><g class="message" data-entity-1="part2" data-entity-2="part1" data-source-line="77" id="msg4"><line style="stroke:#111827;stroke-width:1;" x1="143.0293" x2="153.0293" y1="438.4688" y2="434.4688"/><line style="stroke:#111827;stroke-width:1;" x1="143.0293" x2="153.0293" y1="438.4688" y2="442.4688"/><line style="stroke:#111827;stroke-width:1;stroke-dasharray:2,2;" x1="142.0293" x2="520.4673" y1="438.4688" y2="438.4688"/><text fill="#000000" font-family="'Arial'" font-size="13" font-weight="700" lengthAdjust="spacing" textLength="9.0454" x="159.0293" y="433.4028">4</text><text fill="#000000" font-family="'Arial'" font-size="13" lengthAdjust="spacing" textLength="152.3755" x="172.0747" y="433.4028">Leerer Medikationsplan</text></g><line style="stroke:#111827;stroke-width:1;stroke-dasharray:2,2;" x1="101.7476" x2="882.7324" y1="447.4688" y2="447.4688"/><text fill="#000000" font-family="'Arial'" font-size="14" font-weight="700" lengthAdjust="spacing" textLength="232.832" x="106.7476" y="460.4639">[Medikationsplan vorhanden]</text><g class="message" data-entity-1="part2" data-entity-2="part2" data-source-line="80" id="msg5"><line style="stroke:#111827;stroke-width:1;" x1="531.4673" x2="573.4673" y1="546.4297" y2="546.4297"/><line style="stroke:#111827;stroke-width:1;" x1="573.4673" x2="573.4673" y1="546.4297" y2="559.4297"/><line style="stroke:#111827;stroke-width:1;" x1="532.4673" x2="573.4673" y1="559.4297" y2="559.4297"/><polygon fill="#111827" points="542.4673,555.4297,532.4673,559.4297,542.4673,563.4297,538.4673,559.4297" style="stroke:#111827;stroke-width:1;"/><text fill="#000000" font-family="'Arial'" font-size="13" font-weight="700" lengthAdjust="spacing" textLength="9.0454" x="538.4673" y="511.0981">5</text><text fill="#000000" font-family="'Arial'" font-size="13" lengthAdjust="spacing" textLength="308.7563" x="551.5127" y="480.8325">Stellt Collection Bundle zur Auslieferung bereit:</text><text fill="#000000" font-family="'Arial'" font-size="13" lengthAdjust="spacing" textLength="207.5874" x="551.5127" y="495.9653">(inkl. tempor&#228;ren List.identifier)</text><text fill="#000000" font-family="'Arial'" font-size="13" lengthAdjust="spacing" textLength="309.2197" x="551.5127" y="511.0981">Bedingung f&#252;r Read-to-Write Collection Bundle:</text><text fill="#000000" font-family="'Arial'" font-size="13" lengthAdjust="spacing" textLength="187.897" x="551.5127" y="526.231">- new|changed &#8594; unchanged</text><text fill="#000000" font-family="'Arial'" font-size="13" lengthAdjust="spacing" textLength="149.6143" x="551.5127" y="541.3638">- removed &#8594; entfernen</text></g><g class="message" data-entity-1="part2" data-entity-2="part1" data-source-line="81" id="msg6"><line style="stroke:#111827;stroke-width:1;" x1="143.0293" x2="153.0293" y1="588.5625" y2="584.5625"/><line style="stroke:#111827;stroke-width:1;" x1="143.0293" x2="153.0293" y1="588.5625" y2="592.5625"/><line style="stroke:#111827;stroke-width:1;stroke-dasharray:2,2;" x1="142.0293" x2="525.4673" y1="588.5625" y2="588.5625"/><text fill="#000000" font-family="'Arial'" font-size="13" font-weight="700" lengthAdjust="spacing" textLength="9.0454" x="159.0293" y="583.4966">6</text><text fill="#000000" font-family="'Arial'" font-size="13" lengthAdjust="spacing" textLength="218.0483" x="172.0747" y="583.4966">Collection Bundle + List.identifier</text></g><g class="message" data-entity-1="part1" data-entity-2="part1" data-source-line="87" id="msg7"><line style="stroke:#111827;stroke-width:1;" x1="142.0293" x2="184.0293" y1="631.6953" y2="631.6953"/><line style="stroke:#111827;stroke-width:1;" x1="184.0293" x2="184.0293" y1="631.6953" y2="644.6953"/><line style="stroke:#111827;stroke-width:1;" x1="143.0293" x2="184.0293" y1="644.6953" y2="644.6953"/><polygon fill="#111827" points="153.0293,640.6953,143.0293,644.6953,153.0293,648.6953,149.0293,644.6953" style="stroke:#111827;stroke-width:1;"/><text fill="#000000" font-family="'Arial'" font-size="13" font-weight="700" lengthAdjust="spacing" textLength="9.0454" x="149.0293" y="626.6294">7</text><text fill="#000000" font-family="'Arial'" font-size="13" lengthAdjust="spacing" textLength="249.8438" x="162.0747" y="626.6294">Eintr&#228;ge hinzuf&#252;gen/&#228;ndern/entfernen</text></g><path d="M27,662.6953 L27,710.6953 A5,5 0 0 0 32,715.6953 L238,715.6953 A5,5 0 0 0 243,710.6953 L243,667.6953 L233,657.6953 L32,657.6953 A5,5 0 0 0 27,662.6953" fill="url(#gfy8c8g2wzhah0)" filter="url(#ffy8c8g2wzhah)" style="stroke:#8B95A5;stroke-width:1;"/><path d="M233,657.6953 L233,665.1953 A2.5,2.5 0 0 0 235.5,667.6953 L243,667.6953 L233,657.6953" fill="url(#gfy8c8g2wzhah0)" style="stroke:#8B95A5;stroke-width:1;"/><text fill="#111827" font-family="'Arial'" font-size="14" lengthAdjust="spacing" textLength="190.9688" x="33" y="675.6904">Nach dem Bearbeitung des</text><text fill="#111827" font-family="'Arial'" font-size="14" lengthAdjust="spacing" textLength="186.498" x="33" y="691.9873">Medikationsplans kann ein</text><text fill="#111827" font-family="'Arial'" font-size="14" lengthAdjust="spacing" textLength="156.5225" x="33" y="708.2842">Write-Zugriff erfolgen.</text><?plantuml-src dLRDRjj64BxpAGPo3mbQEQOIrRA1190JEosGfaQS841X85XoXz92rAmoN5gEsbpp07s6F4PkVfCyIMPNbBoKUChgGkxyVTytEqivuqg4DwXqtzd-UpOE-__K4pP5aIJLpD12iPf3PbaZFxUbPJWu2YksgdmsOLkJRZoAeVz57jLKQRiqD852bHL6bYQC2HdIEAd6GjMbkx3aNgivGc_CHfMzReyhiq98dtGRsx0Z7x8EuTy4u6oN01xXi3Zg7-XKd-3ltYCMO9IT3DLmk_jsQl8POLL1Adjl8a8ZURzKMdlYFak49atJqU1OzgwsqZYkCVaS0_pZqmAvD3IBA9oVTpcy8nqUi14urXu_raZvckcbOcToir3aMfI6OUquxBKrhBRJli1xvarpMeQDB0CVC6QsorrXmcPRsx3LLN5hMDTwB5il1VcYnN6RUMtQwpaMWy0kYhmlFsXtvipUHWnQ-rsw9fczXTurIV8NOqW1Ud1mKiZSU5LKxiHL31zIK1NqWailGT8oTxTHR5ZO_mirNAXygcWfFhL0M2_9-Vp9wFZOdxh5lTA04l3XOXnoDz7ZxlI-yY0aob1XXYrmWosuGKVqfN86fLW8LldZKRODtfXyUFCS9KXKxIpLymnPNdn75l0BouNaxD9VHqa2ZJRzPyysN4xXyk-hjss_KCxSA9dfuEy3muJR6spabHs9DpC1OQbQb8f0PLmNIB-1sER6oRt1y2SvmIWkiAgXogUC9aCI1m_QfqpYOWqaRsw4xiSu-UvRuNkawW8oh1nE9GlIDUqW2JbB1pCqj8VonhAqMmSGtNNEUONrn469oBYNG1haoU5yuJx9PLy9jQVG4ogLauE2kjVEwvKEWft2Av-FeGCioZtp4q2l79P2K-QZn3o8V2OpA1-XLSqmhglIO87i5PCJWSQTNjC3kU3AGt02t_BTLy_lbQdSeT6-JOL1VdXDP-YdqSSLTz-u_KdRhoPP-q2u_C-FqKH6ulkN_w6cviqR6UToSDO6AIEOQ9TL9DC-dLztCOPOZLtdXdJY1q8UayrHtoG-D-I4ymHXQcXL2xS9qgExh_w-fqVtm9BTe_vQRWWf9rSIAiv4I2-DnWgIdPvLC5D4u8zTqle30CY5BQNSOR8v-3y0?></g></svg>