<svg xmlns="http://www.w3.org/2000/svg" xmlns:xlink="http://www.w3.org/1999/xlink" contentStyleType="text/css" data-diagram-type="SEQUENCE" height="832px" preserveAspectRatio="none" style="width:1316px;height:832px;background:#F5F5F5;" version="1.1" viewBox="0 0 1316 832" width="1316px" zoomAndPan="magnify"><?plantuml 1.2026.5?><defs><linearGradient id="gy9c9jhpcny6w0" x1="50%" x2="50%" y1="0%" y2="100%"><stop offset="0%" stop-color="#E0E5F0"/><stop offset="100%" stop-color="#D1D9E6"/></linearGradient><filter height="300%" id="fy9c9jhpcny6w" width="300%" x="-1" y="-1"><feGaussianBlur result="blurOut" stdDeviation="2"/><feColorMatrix in="blurOut" result="blurOut2" type="matrix" values="0 0 0 0 0 0 0 0 0 0 0 0 0 0 0 0 0 0 .4 0"/><feOffset dx="4" dy="4" in="blurOut2" result="blurOut3"/><feBlend in="SourceGraphic" in2="blurOut3" mode="normal"/></filter></defs><g><rect fill="#F5F5F5" height="832" style="stroke:none;stroke-width:1;" width="1316" x="0" y="0"/><g class="title" data-source-line="1"><text fill="#000000" font-family="'Arial'" font-size="14" font-weight="700" lengthAdjust="spacing" textLength="80.0283" x="614.7783" y="27.9951">Plan-Read</text></g><rect fill="#9FBAC4" height="782.5859" rx="5" ry="5" style="stroke:#181818;stroke-width:0.5;" width="74.0586" x="85" y="43.2969"/><text fill="#000000" font-family="'Arial'" font-size="14" font-weight="700" lengthAdjust="spacing" textLength="4.874" x="88" y="56.292">&#160;</text><text fill="#000000" font-family="'Arial'" font-size="14" font-weight="700" lengthAdjust="spacing" textLength="48.5625" x="97.748" y="72.5889">GDA 1</text><rect fill="#C48778" height="782.5859" rx="5" ry="5" style="stroke:#181818;stroke-width:0.5;" width="256.9268" x="451.6602" y="43.2969"/><text fill="#000000" font-family="'Arial'" font-size="14" font-weight="700" lengthAdjust="spacing" textLength="4.874" x="454.6602" y="56.292">&#160;</text><text fill="#000000" font-family="'Arial'" font-size="14" font-weight="700" lengthAdjust="spacing" textLength="182.6904" x="488.7783" y="72.5889">e-Med Fachanwendung</text><rect fill="#BEAEBE" height="782.5859" rx="5" ry="5" style="stroke:#181818;stroke-width:0.5;" width="83.8066" x="1085.8027" y="43.2969"/><text fill="#000000" font-family="'Arial'" font-size="14" font-weight="700" lengthAdjust="spacing" textLength="4.874" x="1088.8027" y="56.292">&#160;</text><text fill="#000000" font-family="'Arial'" font-size="14" font-weight="700" lengthAdjust="spacing" textLength="48.5625" x="1108.2988" y="72.5889">GDA 2</text><rect fill="#BAC38B" height="782.5859" rx="5" ry="5" style="stroke:#181818;stroke-width:0.5;" width="77.9756" x="1211.6094" y="43.2969"/><text fill="#000000" font-family="'Arial'" font-size="14" font-weight="700" lengthAdjust="spacing" textLength="4.874" x="1214.6094" y="56.292">&#160;</text><text fill="#000000" font-family="'Arial'" font-size="14" font-weight="700" lengthAdjust="spacing" textLength="57.3535" x="1219.4834" y="72.5889">Patient</text><g><title>GDA 1</title><rect fill="#FFFFFF" height="505.9688" style="stroke:#181818;stroke-width:1;" width="10" x="117.0293" y="231.6172"/></g><g><title>e-Med FA</title><rect fill="#FFFFFF" height="375.9453" style="stroke:#181818;stroke-width:1;" width="10" x="575.1235" y="231.6172"/></g><rect fill="none" height="256.0859" rx="5" ry="5" style="stroke:#111827;stroke-width:2;" width="943.5356" x="86.7476" y="359.4766"/><g class="participant-lifeline" data-entity-uid="part1" data-qualified-name="GDA_1" data-source-line="43" id="part1-lifeline"><g><title>GDA 1</title><rect fill="#000000" fill-opacity="0.00000" height="590.3984" width="8" x="118.0293" y="156.1875"/><line style="stroke:#181818;stroke-width:0.5;stroke-dasharray:5,5;" x1="121.7476" x2="121.7476" y1="156.1875" y2="746.5859"/></g></g><g class="participant-lifeline" data-entity-uid="part2" data-qualified-name="eMed_FA" data-source-line="47" id="part2-lifeline"><g><title>e-Med FA</title><rect fill="#000000" fill-opacity="0.00000" height="590.3984" width="8" x="576.1235" y="156.1875"/><line style="stroke:#181818;stroke-width:0.5;stroke-dasharray:5,5;" x1="579.4614" x2="579.4614" y1="156.1875" y2="746.5859"/></g></g><g class="participant-lifeline" data-entity-uid="part3" data-qualified-name="GDA_2" data-source-line="51" id="part3-lifeline"><g><title>GDA 2</title><rect fill="#000000" fill-opacity="0.00000" height="590.3984" width="8" x="1123.7061" y="156.1875"/><line style="stroke:#181818;stroke-width:0.5;stroke-dasharray:5,5;" x1="1127.4243" x2="1127.4243" y1="156.1875" y2="746.5859"/></g></g><g class="participant-lifeline" data-entity-uid="part4" data-qualified-name="Patient" data-source-line="55" id="part4-lifeline"><g><title>Patient</title><rect fill="#000000" fill-opacity="0.00000" height="590.3984" width="8" x="1246.5972" y="156.1875"/><line style="stroke:#181818;stroke-width:0.5;stroke-dasharray:5,5;" x1="1249.9092" x2="1249.9092" y1="156.1875" y2="746.5859"/></g></g><g class="participant participant-head" data-entity-uid="part1" data-qualified-name="GDA_1" data-source-line="43" id="part1-head"><text fill="#000000" font-family="'Arial'" font-size="14" lengthAdjust="spacing" textLength="44.5635" x="96.7476" y="152.8857">GDA 1</text><ellipse cx="122.0293" cy="88.3906" fill="#E2E2F0" rx="8" ry="8" style="stroke:#181818;stroke-width:0.5;"/><path d="M122.0293,96.3906 L122.0293,123.3906 M109.0293,104.3906 L135.0293,104.3906 M122.0293,123.3906 L109.0293,138.3906 M122.0293,123.3906 L135.0293,138.3906" fill="none" style="stroke:#181818;stroke-width:0.5;"/></g><g class="participant participant-tail" data-entity-uid="part1" data-qualified-name="GDA_1" data-source-line="43" id="part1-tail"><text fill="#000000" font-family="'Arial'" font-size="14" lengthAdjust="spacing" textLength="44.5635" x="96.7476" y="758.5811">GDA 1</text><ellipse cx="122.0293" cy="770.3828" fill="#E2E2F0" rx="8" ry="8" style="stroke:#181818;stroke-width:0.5;"/><path d="M122.0293,778.3828 L122.0293,805.3828 M109.0293,786.3828 L135.0293,786.3828 M122.0293,805.3828 L109.0293,820.3828 M122.0293,805.3828 L135.0293,820.3828" fill="none" style="stroke:#181818;stroke-width:0.5;"/></g><g class="participant participant-head" data-entity-uid="part2" data-qualified-name="eMed_FA" data-source-line="47" id="part2-head"><rect fill="#FFFFFF" height="30.2969" rx="5" ry="5" style="stroke:#555555;stroke-width:0.5;" width="79.3242" x="540.4614" y="124.8906"/><text fill="#000000" font-family="'Arial'" font-size="14" lengthAdjust="spacing" textLength="65.3242" x="547.4614" y="144.8857">e-Med FA</text></g><g class="participant participant-tail" data-entity-uid="part2" data-qualified-name="eMed_FA" data-source-line="47" id="part2-tail"><rect fill="#FFFFFF" height="30.2969" rx="5" ry="5" style="stroke:#555555;stroke-width:0.5;" width="79.3242" x="540.4614" y="745.5859"/><text fill="#000000" font-family="'Arial'" font-size="14" lengthAdjust="spacing" textLength="65.3242" x="547.4614" y="765.5811">e-Med FA</text></g><g class="participant participant-head" data-entity-uid="part3" data-qualified-name="GDA_2" data-source-line="51" id="part3-head"><text fill="#000000" font-family="'Arial'" font-size="14" lengthAdjust="spacing" textLength="44.5635" x="1102.4243" y="152.8857">GDA 2</text><ellipse cx="1127.7061" cy="88.3906" fill="#E2E2F0" rx="8" ry="8" style="stroke:#181818;stroke-width:0.5;"/><path d="M1127.7061,96.3906 L1127.7061,123.3906 M1114.7061,104.3906 L1140.7061,104.3906 M1127.7061,123.3906 L1114.7061,138.3906 M1127.7061,123.3906 L1140.7061,138.3906" fill="none" style="stroke:#181818;stroke-width:0.5;"/></g><g class="participant participant-tail" data-entity-uid="part3" data-qualified-name="GDA_2" data-source-line="51" id="part3-tail"><text fill="#000000" font-family="'Arial'" font-size="14" lengthAdjust="spacing" textLength="44.5635" x="1102.4243" y="758.5811">GDA 2</text><ellipse cx="1127.7061" cy="770.3828" fill="#E2E2F0" rx="8" ry="8" style="stroke:#181818;stroke-width:0.5;"/><path d="M1127.7061,778.3828 L1127.7061,805.3828 M1114.7061,786.3828 L1140.7061,786.3828 M1127.7061,805.3828 L1114.7061,820.3828 M1127.7061,805.3828 L1140.7061,820.3828" fill="none" style="stroke:#181818;stroke-width:0.5;"/></g><g class="participant participant-head" data-entity-uid="part4" data-qualified-name="Patient" data-source-line="55" id="part4-head"><text fill="#000000" font-family="'Arial'" font-size="14" lengthAdjust="spacing" textLength="49.376" x="1222.9092" y="152.8857">Patient</text><ellipse cx="1250.5972" cy="88.3906" fill="#E2E2F0" rx="8" ry="8" style="stroke:#181818;stroke-width:0.5;"/><path d="M1250.5972,96.3906 L1250.5972,123.3906 M1237.5972,104.3906 L1263.5972,104.3906 M1250.5972,123.3906 L1237.5972,138.3906 M1250.5972,123.3906 L1263.5972,138.3906" fill="none" style="stroke:#181818;stroke-width:0.5;"/></g><g class="participant participant-tail" data-entity-uid="part4" data-qualified-name="Patient" data-source-line="55" id="part4-tail"><text fill="#000000" font-family="'Arial'" font-size="14" lengthAdjust="spacing" textLength="49.376" x="1222.9092" y="758.5811">Patient</text><ellipse cx="1250.5972" cy="770.3828" fill="#E2E2F0" rx="8" ry="8" style="stroke:#181818;stroke-width:0.5;"/><path d="M1250.5972,778.3828 L1250.5972,805.3828 M1237.5972,786.3828 L1263.5972,786.3828 M1250.5972,805.3828 L1237.5972,820.3828 M1250.5972,805.3828 L1263.5972,820.3828" fill="none" style="stroke:#181818;stroke-width:0.5;"/></g><g><title>GDA 1</title><rect fill="#FFFFFF" height="505.9688" style="stroke:#181818;stroke-width:1;" width="10" x="117.0293" y="231.6172"/></g><g><title>e-Med FA</title><rect fill="#FFFFFF" height="375.9453" style="stroke:#181818;stroke-width:1;" width="10" x="575.1235" y="231.6172"/></g><rect fill="#EEEEEE" height="3" rx="5" ry="5" style="stroke:#EEEEEE;stroke-width:1;" width="1310.585" x="0" y="187.3359"/><line style="stroke:#000000;stroke-width:1;" x1="0" x2="1310.585" y1="187.3359" y2="187.3359"/><line style="stroke:#000000;stroke-width:1;" x1="0" x2="1310.585" y1="190.3359" y2="190.3359"/><rect fill="#EEEEEE" height="24.2969" rx="5" ry="5" style="stroke:#000000;stroke-width:2;" width="216.2891" x="547.1479" y="176.1875"/><text fill="#000000" font-family="'Arial'" font-size="14" font-weight="700" lengthAdjust="spacing" textLength="197.415" x="553.1479" y="193.1826">Medikationsplan abrufen</text><g class="message" data-entity-1="part1" data-entity-2="part2" data-source-line="63" id="msg1"><line style="stroke:#111827;stroke-width:1;" x1="573.1235" x2="563.1235" y1="231.6172" y2="227.6172"/><line style="stroke:#111827;stroke-width:1;" x1="573.1235" x2="563.1235" y1="231.6172" y2="235.6172"/><line style="stroke:#111827;stroke-width:1;" x1="127.0293" x2="574.1235" y1="231.6172" y2="231.6172"/><text fill="#000000" font-family="'Arial'" font-size="13" font-weight="700" lengthAdjust="spacing" textLength="9.0454" x="134.0293" y="226.5513">1</text><text fill="#000000" font-family="'Arial'" font-size="13" lengthAdjust="spacing" textLength="108.9893" x="147.0747" y="226.5513">POST $plan-read</text></g><path d="M5,249.6172 L5,281.6172 A5,5 0 0 0 10,286.6172 L232,286.6172 A5,5 0 0 0 237,281.6172 L237,254.6172 L227,244.6172 L10,244.6172 A5,5 0 0 0 5,249.6172" fill="url(#gy9c9jhpcny6w0)" filter="url(#fy9c9jhpcny6w)" style="stroke:#8B95A5;stroke-width:1;"/><path d="M227,244.6172 L227,252.1172 A2.5,2.5 0 0 0 229.5,254.6172 L237,254.6172 L227,244.6172" fill="url(#gy9c9jhpcny6w0)" style="stroke:#8B95A5;stroke-width:1;"/><text fill="#111827" font-family="'Arial'" font-size="14" lengthAdjust="spacing" textLength="177.9053" x="11" y="262.6123">Medikationsplan abrufen,</text><text fill="#111827" font-family="'Arial'" font-size="14" lengthAdjust="spacing" textLength="211.5859" x="11" y="278.9092">mit der Intention zu schreiben</text><g class="message" data-entity-1="part2" data-entity-2="part2" data-source-line="72" id="msg2"><line style="stroke:#111827;stroke-width:1;" x1="585.1235" x2="627.1235" y1="331.4766" y2="331.4766"/><line style="stroke:#111827;stroke-width:1;" x1="627.1235" x2="627.1235" y1="331.4766" y2="344.4766"/><line style="stroke:#111827;stroke-width:1;" x1="586.1235" x2="627.1235" y1="344.4766" y2="344.4766"/><polygon fill="#111827" points="596.1235,340.4766,586.1235,344.4766,596.1235,348.4766,592.1235,344.4766" style="stroke:#111827;stroke-width:1;stroke-linejoin:miter;stroke-miterlimit:10;"/><text fill="#000000" font-family="'Arial'" font-size="13" font-weight="700" lengthAdjust="spacing" textLength="9.0454" x="592.1235" y="318.8442">2</text><text fill="#000000" font-family="'Arial'" font-size="13" lengthAdjust="spacing" textLength="164.8613" x="605.1689" y="311.2778">Pr&#252;fung auf bestehenden</text><text fill="#000000" font-family="'Arial'" font-size="13" lengthAdjust="spacing" textLength="106.3169" x="605.1689" y="326.4106">Medikationsplan</text></g><path d="M91.7476,359.4766 L152.686,359.4766 L152.686,367.7734 L142.686,377.7734 L86.7476,377.7734 L86.7476,364.4766 A5,5 0 0 1 91.7476,359.4766" fill="#EEF2FF" style="stroke:#111827;stroke-width:1.5;"/><rect fill="none" height="256.0859" rx="5" ry="5" style="stroke:#111827;stroke-width:2;" width="943.5356" x="86.7476" y="359.4766"/><text fill="#000000" font-family="'Arial'" font-size="14" font-weight="700" lengthAdjust="spacing" textLength="20.9385" x="101.7476" y="373.4717">alt</text><text fill="#000000" font-family="'Arial'" font-size="14" font-weight="700" lengthAdjust="spacing" textLength="271.2773" x="167.686" y="374.4717">[kein Medikationsplan vorhanden]</text><g class="message" data-entity-1="part2" data-entity-2="part2" data-source-line="75" id="msg3"><line style="stroke:#111827;stroke-width:1;" x1="585.1235" x2="627.1235" y1="415.3359" y2="415.3359"/><line style="stroke:#111827;stroke-width:1;" x1="627.1235" x2="627.1235" y1="415.3359" y2="428.3359"/><line style="stroke:#111827;stroke-width:1;" x1="586.1235" x2="627.1235" y1="428.3359" y2="428.3359"/><polygon fill="#111827" points="596.1235,424.3359,586.1235,428.3359,596.1235,432.3359,592.1235,428.3359" style="stroke:#111827;stroke-width:1;stroke-linejoin:miter;stroke-miterlimit:10;"/><text fill="#000000" font-family="'Arial'" font-size="13" font-weight="700" lengthAdjust="spacing" textLength="9.0454" x="592.1235" y="402.7036">3</text><text fill="#000000" font-family="'Arial'" font-size="13" lengthAdjust="spacing" textLength="205.7402" x="605.1689" y="395.1372">Erzeugt leeren Medikationsplan</text><text fill="#000000" font-family="'Arial'" font-size="13" lengthAdjust="spacing" textLength="240.9634" x="609.3013" y="410.27">mit List.emptyReason = "notstarted"</text></g><g class="message" data-entity-1="part2" data-entity-2="part1" data-source-line="76" id="msg4"><line style="stroke:#111827;stroke-width:1;" x1="128.0293" x2="138.0293" y1="457.4688" y2="453.4688"/><line style="stroke:#111827;stroke-width:1;" x1="128.0293" x2="138.0293" y1="457.4688" y2="461.4688"/><line style="stroke:#111827;stroke-width:1;stroke-dasharray:2,2;" x1="127.0293" x2="574.1235" y1="457.4688" y2="457.4688"/><text fill="#000000" font-family="'Arial'" font-size="13" font-weight="700" lengthAdjust="spacing" textLength="9.0454" x="144.0293" y="452.4028">4</text><text fill="#000000" font-family="'Arial'" font-size="13" lengthAdjust="spacing" textLength="152.3755" x="157.0747" y="452.4028">Leerer Medikationsplan</text></g><line style="stroke:#111827;stroke-width:1;stroke-dasharray:2,2;" x1="86.7476" x2="1030.2832" y1="466.4688" y2="466.4688"/><text fill="#000000" font-family="'Arial'" font-size="14" font-weight="700" lengthAdjust="spacing" textLength="232.832" x="91.7476" y="479.4639">[Medikationsplan vorhanden]</text><g class="message" data-entity-1="part2" data-entity-2="part2" data-source-line="79" id="msg5"><line style="stroke:#111827;stroke-width:1;" x1="585.1235" x2="627.1235" y1="550.2969" y2="550.2969"/><line style="stroke:#111827;stroke-width:1;" x1="627.1235" x2="627.1235" y1="550.2969" y2="563.2969"/><line style="stroke:#111827;stroke-width:1;" x1="586.1235" x2="627.1235" y1="563.2969" y2="563.2969"/><polygon fill="#111827" points="596.1235,559.2969,586.1235,563.2969,596.1235,567.2969,592.1235,563.2969" style="stroke:#111827;stroke-width:1;stroke-linejoin:miter;stroke-miterlimit:10;"/><text fill="#000000" font-family="'Arial'" font-size="13" font-weight="700" lengthAdjust="spacing" textLength="9.0454" x="592.1235" y="522.5317">5</text><text fill="#000000" font-family="'Arial'" font-size="13" lengthAdjust="spacing" textLength="403.1143" x="605.1689" y="499.8325">Stellt Auslieferungs-Medikationsplan-Collection-Bundle bereit:</text><text fill="#000000" font-family="'Arial'" font-size="13" lengthAdjust="spacing" textLength="74.3818" x="605.1689" y="514.9653">Bedingung:</text><text fill="#000000" font-family="'Arial'" font-size="13" lengthAdjust="spacing" textLength="187.897" x="605.1689" y="530.0981">- new|changed &#8594; unchanged</text><text fill="#000000" font-family="'Arial'" font-size="13" lengthAdjust="spacing" textLength="149.6143" x="605.1689" y="545.231">- removed &#8594; entfernen</text></g><g class="message" data-entity-1="part2" data-entity-2="part1" data-source-line="80" id="msg6"><line style="stroke:#111827;stroke-width:1;" x1="128.0293" x2="138.0293" y1="607.5625" y2="603.5625"/><line style="stroke:#111827;stroke-width:1;" x1="128.0293" x2="138.0293" y1="607.5625" y2="611.5625"/><line style="stroke:#111827;stroke-width:1;stroke-dasharray:2,2;" x1="127.0293" x2="579.1235" y1="607.5625" y2="607.5625"/><text fill="#000000" font-family="'Arial'" font-size="13" font-weight="700" lengthAdjust="spacing" textLength="9.0454" x="144.0293" y="594.9302">6</text><text fill="#000000" font-family="'Arial'" font-size="13" lengthAdjust="spacing" textLength="318.5" x="157.0747" y="587.3638">Auslieferungs-Medikationsplan-Collection-Bundle</text><text fill="#000000" font-family="'Arial'" font-size="13" lengthAdjust="spacing" textLength="221.5332" x="157.0747" y="602.4966">+ ETag f&#252;r optimistisches Locking</text></g><g class="message" data-entity-1="part1" data-entity-2="part1" data-source-line="85" id="msg7"><line style="stroke:#111827;stroke-width:1;" x1="127.0293" x2="169.0293" y1="643.6953" y2="643.6953"/><line style="stroke:#111827;stroke-width:1;" x1="169.0293" x2="169.0293" y1="643.6953" y2="656.6953"/><line style="stroke:#111827;stroke-width:1;" x1="128.0293" x2="169.0293" y1="656.6953" y2="656.6953"/><polygon fill="#111827" points="138.0293,652.6953,128.0293,656.6953,138.0293,660.6953,134.0293,656.6953" style="stroke:#111827;stroke-width:1;stroke-linejoin:miter;stroke-miterlimit:10;"/><text fill="#000000" font-family="'Arial'" font-size="13" font-weight="700" lengthAdjust="spacing" textLength="9.0454" x="134.0293" y="638.6294">7</text><text fill="#000000" font-family="'Arial'" font-size="13" lengthAdjust="spacing" textLength="249.8438" x="147.0747" y="638.6294">Eintr&#228;ge hinzuf&#252;gen/&#228;ndern/entfernen</text></g><path d="M14,674.6953 L14,722.6953 A5,5 0 0 0 19,727.6953 L220,727.6953 A5,5 0 0 0 225,722.6953 L225,679.6953 L215,669.6953 L19,669.6953 A5,5 0 0 0 14,674.6953" fill="url(#gy9c9jhpcny6w0)" filter="url(#fy9c9jhpcny6w)" style="stroke:#8B95A5;stroke-width:1;"/><path d="M215,669.6953 L215,677.1953 A2.5,2.5 0 0 0 217.5,679.6953 L225,679.6953 L215,669.6953" fill="url(#gy9c9jhpcny6w0)" style="stroke:#8B95A5;stroke-width:1;"/><text fill="#111827" font-family="'Arial'" font-size="14" lengthAdjust="spacing" textLength="183.0869" x="20" y="687.6904">Nach der Bearbeitung des</text><text fill="#111827" font-family="'Arial'" font-size="14" lengthAdjust="spacing" textLength="186.498" x="20" y="703.9873">Medikationsplans kann ein</text><text fill="#111827" font-family="'Arial'" font-size="14" lengthAdjust="spacing" textLength="139.4531" x="20" y="720.2842">Plan-Write erfolgen.</text><?plantuml-src bLNDRjD04BxlKunIRc1QfuIcbL8fAIaW5OXe4PTArTeU9wiuis6zRak1Am_0C_0OtFecF0cpcv-kut3e-cBlp7pppJUpQwjiWJ0g94KVKMP2b5D5Ssda319jCZGdkj06TlRy2gqodOwDhYXRUkGTzmGUvKHc-aRH679Pb1XObc66q40SWcQOowgmfvhiUpb3QFMDaaLhkyUvkaE8Nsmtrca7FgGjmZS1CDWi0FUma-z5ErcS7U9Bvn4Aq4qEExApthsOg7HAM9OGyzx7eA0kVuzabhd27Kh09exZRlk0zyxNqbXJeVWH4dppTOwcK3GDIXWEjpbyeio_u5BWK7lyKY6bYqf7qbYLghaaMokfuzU6GwEjVjMTcW8tpAlcr0mhMTeke6-CljaKnc_MjVLRspAk3OjS-xprcfdFQpMkaHUcHiynR_lgWiY7zErwPmRwDgYWjhzDLv7eMsXT4eE_waCCq8ATmvpFZLD5ffPTsN0LWooXvLrQ0YdZStSRnFg5qJlCu5Ic4qatx5CnXSLYp9CNtOC3DtNp1wK1EU3gjE-nbz7zxV0kSzi39IWnmHgvzffSUqlqI5g5dCm7otI_cwo3LoONldmF08IihAPgbg0HejS3vgUcxAMfdFDL138nLOu4lPuG2usYu-DLJKSm-d1-0K-SPsJSfSKfrRNaS-rzXV1dN5_ZKc3n7_Xd86RAygrXu2rPPiWES5T1cKuCgWJ94tPWuY75aeHO2Ho5lCpzdzprHbOv95XQd302qYLjC62ymi8K5JLAlzQ6cyn1BEMs74DpXzNOGe5ei17EJN4bdQdIFiVPt7xbIxtagdhGuZfAonE2MIk4Ti9wbOxWp44QQ715lbmUpVFSOi4rzgkoK9YZOLdAQ0CauWDJOEg-em4VIluJyKIWiaUND41tq3YAtoCWlFdkXd_CW_ptvo-eQFdbZ0PdtEo5WRl8oQXEAwZnaNmkwIaCBoJ_mkx_6D1pgsOihU89mHBETCftm9WpPTYS3-AVAS1wV5S4XegikVyzHfWekgiOTuoqU__RtUMq-q2_CSJl-VJxMHsWD0cBv0OjOngRurt2L1A16oxXV-oVZNB4JAuBplLyFTN_0000?></g></svg>