<svg xmlns="http://www.w3.org/2000/svg" xmlns:xlink="http://www.w3.org/1999/xlink" contentStyleType="text/css" data-diagram-type="SEQUENCE" height="1385px" preserveAspectRatio="none" style="width:1225px;height:1385px;background:#F5F5F5;" version="1.1" viewBox="0 0 1225 1385" width="1225px" zoomAndPan="magnify"><?plantuml 1.2026.3beta6?><defs/><g><rect fill="#F5F5F5" height="1385" style="stroke:none;stroke-width:1;" width="1225" x="0" y="0"/><g class="title" data-source-line="1"><text fill="#000000" font-family="'Arial'" font-size="14" font-weight="700" lengthAdjust="spacing" textLength="241.459" x="488.3293" y="27.9951">Patient Journey - e-Medikation</text></g><rect fill="#BAC38B" height="1334.9844" rx="5" ry="5" style="stroke:#181818;stroke-width:0.5;" width="135.4609" x="21" y="43.2969"/><text fill="#000000" font-family="'Arial'" font-size="14" font-weight="700" lengthAdjust="spacing" textLength="4.874" x="55.1797" y="56.292">&#160;</text><text fill="#000000" font-family="'Arial'" font-size="14" font-weight="700" lengthAdjust="spacing" textLength="57.3535" x="60.0537" y="72.5889">Patient</text><rect fill="#9FBAC4" height="1334.9844" rx="5" ry="5" style="stroke:#181818;stroke-width:0.5;" width="127.4766" x="198.4609" y="43.2969"/><text fill="#000000" font-family="'Arial'" font-size="14" font-weight="700" lengthAdjust="spacing" textLength="4.874" x="233.6523" y="56.292">&#160;</text><text fill="#000000" font-family="'Arial'" font-size="14" font-weight="700" lengthAdjust="spacing" textLength="47.3457" x="238.5264" y="72.5889">&#196;rztin</text><rect fill="#BEAEBE" height="1334.9844" rx="5" ry="5" style="stroke:#181818;stroke-width:0.5;" width="150.6367" x="551.062" y="43.2969"/><text fill="#000000" font-family="'Arial'" font-size="14" font-weight="700" lengthAdjust="spacing" textLength="4.874" x="583.7891" y="56.292">&#160;</text><text fill="#000000" font-family="'Arial'" font-size="14" font-weight="700" lengthAdjust="spacing" textLength="75.4346" x="588.6631" y="72.5889">Apotheke</text><rect fill="#C48F81" height="1334.9844" rx="5" ry="5" style="stroke:#181818;stroke-width:0.5;" width="256.9268" x="941.1909" y="43.2969"/><text fill="#000000" font-family="'Arial'" font-size="14" font-weight="700" lengthAdjust="spacing" textLength="4.874" x="944.1909" y="56.292">&#160;</text><text fill="#000000" font-family="'Arial'" font-size="14" font-weight="700" lengthAdjust="spacing" textLength="182.6904" x="978.3091" y="72.5889">e-Med Fachanwendung</text><g class="participant-lifeline" data-entity-uid="part1" data-qualified-name="Patient" data-source-line="44" id="part1-lifeline"><g><title>Max Mustermann</title><rect fill="#000000" fill-opacity="0.00000" height="1142.7969" width="8" x="84.7305" y="156.1875"/><line style="stroke:#181818;stroke-width:0.5;stroke-dasharray:5,5;" x1="88" x2="88" y1="156.1875" y2="1298.9844"/></g></g><g class="participant-lifeline" data-entity-uid="part2" data-qualified-name="Arzt" data-source-line="48" id="part2-lifeline"><g><title>Dr. Muster.rztin</title><rect fill="#000000" fill-opacity="0.00000" height="1142.7969" width="8" x="258.1992" y="156.1875"/><line style="stroke:#181818;stroke-width:0.5;stroke-dasharray:5,5;" x1="261.4609" x2="261.4609" y1="156.1875" y2="1298.9844"/></g></g><g class="participant-lifeline" data-entity-uid="part3" data-qualified-name="Apotheke" data-source-line="52" id="part3-lifeline"><g><title>Amadeus Apotheke</title><rect fill="#000000" fill-opacity="0.00000" height="1142.7969" width="8" x="622.3804" y="156.1875"/><line style="stroke:#181818;stroke-width:0.5;stroke-dasharray:5,5;" x1="626.062" x2="626.062" y1="156.1875" y2="1298.9844"/></g></g><g class="participant-lifeline" data-entity-uid="part4" data-qualified-name="System" data-source-line="56" id="part4-lifeline"><g><title>e-Medikation</title><rect fill="#000000" fill-opacity="0.00000" height="1142.7969" width="8" x="1065.6543" y="156.1875"/><line style="stroke:#181818;stroke-width:0.5;stroke-dasharray:5,5;" x1="1069.3354" x2="1069.3354" y1="156.1875" y2="1298.9844"/></g></g><g class="participant participant-head" data-entity-uid="part1" data-qualified-name="Patient" data-source-line="44" id="part1-head"><text fill="#000000" font-family="'Arial'" font-size="14" lengthAdjust="spacing" textLength="121.4609" x="25" y="152.8857">Max Mustermann</text><ellipse cx="88.7305" cy="88.3906" fill="#E2E2F0" rx="8" ry="8" style="stroke:#181818;stroke-width:0.5;"/><path d="M88.7305,96.3906 L88.7305,123.3906 M75.7305,104.3906 L101.7305,104.3906 M88.7305,123.3906 L75.7305,138.3906 M88.7305,123.3906 L101.7305,138.3906" fill="none" style="stroke:#181818;stroke-width:0.5;"/></g><g class="participant participant-tail" data-entity-uid="part1" data-qualified-name="Patient" data-source-line="44" id="part1-tail"><text fill="#000000" font-family="'Arial'" font-size="14" lengthAdjust="spacing" textLength="121.4609" x="25" y="1310.9795">Max Mustermann</text><ellipse cx="88.7305" cy="1322.7813" fill="#E2E2F0" rx="8" ry="8" style="stroke:#181818;stroke-width:0.5;"/><path d="M88.7305,1330.7813 L88.7305,1357.7813 M75.7305,1338.7813 L101.7305,1338.7813 M88.7305,1357.7813 L75.7305,1372.7813 M88.7305,1357.7813 L101.7305,1372.7813" fill="none" style="stroke:#181818;stroke-width:0.5;"/></g><g class="participant participant-head" data-entity-uid="part2" data-qualified-name="Arzt" data-source-line="48" id="part2-head"><text fill="#000000" font-family="'Arial'" font-size="14" lengthAdjust="spacing" textLength="113.4766" x="202.4609" y="152.8857">Dr. Muster&#228;rztin</text><ellipse cx="262.1992" cy="88.3906" fill="#E2E2F0" rx="8" ry="8" style="stroke:#181818;stroke-width:0.5;"/><path d="M262.1992,96.3906 L262.1992,123.3906 M249.1992,104.3906 L275.1992,104.3906 M262.1992,123.3906 L249.1992,138.3906 M262.1992,123.3906 L275.1992,138.3906" fill="none" style="stroke:#181818;stroke-width:0.5;"/></g><g class="participant participant-tail" data-entity-uid="part2" data-qualified-name="Arzt" data-source-line="48" id="part2-tail"><text fill="#000000" font-family="'Arial'" font-size="14" lengthAdjust="spacing" textLength="113.4766" x="202.4609" y="1310.9795">Dr. Muster&#228;rztin</text><ellipse cx="262.1992" cy="1322.7813" fill="#E2E2F0" rx="8" ry="8" style="stroke:#181818;stroke-width:0.5;"/><path d="M262.1992,1330.7813 L262.1992,1357.7813 M249.1992,1338.7813 L275.1992,1338.7813 M262.1992,1357.7813 L249.1992,1372.7813 M262.1992,1357.7813 L275.1992,1372.7813" fill="none" style="stroke:#181818;stroke-width:0.5;"/></g><g class="participant participant-head" data-entity-uid="part3" data-qualified-name="Apotheke" data-source-line="52" id="part3-head"><text fill="#000000" font-family="'Arial'" font-size="14" lengthAdjust="spacing" textLength="136.6367" x="555.062" y="152.8857">Amadeus Apotheke</text><ellipse cx="626.3804" cy="88.3906" fill="#E2E2F0" rx="8" ry="8" style="stroke:#181818;stroke-width:0.5;"/><path d="M626.3804,96.3906 L626.3804,123.3906 M613.3804,104.3906 L639.3804,104.3906 M626.3804,123.3906 L613.3804,138.3906 M626.3804,123.3906 L639.3804,138.3906" fill="none" style="stroke:#181818;stroke-width:0.5;"/></g><g class="participant participant-tail" data-entity-uid="part3" data-qualified-name="Apotheke" data-source-line="52" id="part3-tail"><text fill="#000000" font-family="'Arial'" font-size="14" lengthAdjust="spacing" textLength="136.6367" x="555.062" y="1310.9795">Amadeus Apotheke</text><ellipse cx="626.3804" cy="1322.7813" fill="#E2E2F0" rx="8" ry="8" style="stroke:#181818;stroke-width:0.5;"/><path d="M626.3804,1330.7813 L626.3804,1357.7813 M613.3804,1338.7813 L639.3804,1338.7813 M626.3804,1357.7813 L613.3804,1372.7813 M626.3804,1357.7813 L639.3804,1372.7813" fill="none" style="stroke:#181818;stroke-width:0.5;"/></g><g class="participant participant-head" data-entity-uid="part4" data-qualified-name="System" data-source-line="56" id="part4-head"><rect fill="#FFFFFF" height="30.2969" rx="5" ry="5" style="stroke:#555555;stroke-width:0.5;" width="104.6377" x="1017.3354" y="124.8906"/><text fill="#000000" font-family="'Arial'" font-size="14" lengthAdjust="spacing" textLength="90.6377" x="1024.3354" y="144.8857">e-Medikation</text></g><g class="participant participant-tail" data-entity-uid="part4" data-qualified-name="System" data-source-line="56" id="part4-tail"><rect fill="#FFFFFF" height="30.2969" rx="5" ry="5" style="stroke:#555555;stroke-width:0.5;" width="104.6377" x="1017.3354" y="1297.9844"/><text fill="#000000" font-family="'Arial'" font-size="14" lengthAdjust="spacing" textLength="90.6377" x="1024.3354" y="1317.9795">e-Medikation</text></g><rect fill="#EEEEEE" height="3" rx="5" ry="5" style="stroke:#EEEEEE;stroke-width:1;" width="1219.1177" x="0" y="187.3359"/><line style="stroke:#000000;stroke-width:1;" x1="0" x2="1219.1177" y1="187.3359" y2="187.3359"/><line style="stroke:#000000;stroke-width:1;" x1="0" x2="1219.1177" y1="190.3359" y2="190.3359"/><rect fill="#EEEEEE" height="24.2969" rx="5" ry="5" style="stroke:#000000;stroke-width:2;" width="379.0527" x="420.0325" y="176.1875"/><text fill="#000000" font-family="'Arial'" font-size="14" font-weight="700" lengthAdjust="spacing" textLength="360.1787" x="426.0325" y="193.1826">27.2.2026: Medikationsplan erstmals abrufen</text><g class="message" data-entity-1="part1" data-entity-2="part2" data-source-line="63" id="msg1"><polygon fill="#111827" points="250.1992,227.6172,260.1992,231.6172,250.1992,235.6172,254.1992,231.6172" style="stroke:#111827;stroke-width:1;"/><line style="stroke:#111827;stroke-width:1;" x1="88.7305" x2="256.1992" y1="231.6172" y2="231.6172"/><text fill="#000000" font-family="'Arial'" font-size="13" lengthAdjust="spacing" textLength="72.8076" x="95.7305" y="226.5513">Arztbesuch</text></g><g class="message" data-entity-1="part2" data-entity-2="part4" data-source-line="64" id="msg2"><polygon fill="#111827" points="1057.6543,256.75,1067.6543,260.75,1057.6543,264.75,1061.6543,260.75" style="stroke:#111827;stroke-width:1;"/><line style="stroke:#111827;stroke-width:1;" x1="262.1992" x2="1063.6543" y1="260.75" y2="260.75"/><text fill="#000000" font-family="'Arial'" font-size="13" lengthAdjust="spacing" textLength="161.0654" x="269.1992" y="255.6841">Medikationsplan abrufen</text></g><g class="message" data-entity-1="part4" data-entity-2="part2" data-source-line="65" id="msg3"><polygon fill="#111827" points="273.1992,285.8828,263.1992,289.8828,273.1992,293.8828,269.1992,289.8828" style="stroke:#111827;stroke-width:1;"/><line style="stroke:#111827;stroke-width:1;stroke-dasharray:2,2;" x1="267.1992" x2="1068.6543" y1="289.8828" y2="289.8828"/><text fill="#000000" font-family="'Arial'" font-size="13" lengthAdjust="spacing" textLength="152.3755" x="279.1992" y="284.8169">Leerer Medikationsplan</text></g><rect fill="#EEEEEE" height="3" rx="5" ry="5" style="stroke:#EEEEEE;stroke-width:1;" width="1219.1177" x="0" y="319.0313"/><line style="stroke:#000000;stroke-width:1;" x1="0" x2="1219.1177" y1="319.0313" y2="319.0313"/><line style="stroke:#000000;stroke-width:1;" x1="0" x2="1219.1177" y1="322.0313" y2="322.0313"/><rect fill="#EEEEEE" height="24.2969" rx="5" ry="5" style="stroke:#000000;stroke-width:2;" width="309.6064" x="454.7556" y="307.8828"/><text fill="#000000" font-family="'Arial'" font-size="14" font-weight="700" lengthAdjust="spacing" textLength="290.7324" x="460.7556" y="324.8779">Medikationsplaneintr&#228;ge hinzuf&#252;gen</text><g class="message" data-entity-1="part2" data-entity-2="part2" data-source-line="68" id="msg4"><line style="stroke:#111827;stroke-width:1;" x1="262.1992" x2="304.1992" y1="378.4453" y2="378.4453"/><line style="stroke:#111827;stroke-width:1;" x1="304.1992" x2="304.1992" y1="378.4453" y2="391.4453"/><line style="stroke:#111827;stroke-width:1;" x1="263.1992" x2="304.1992" y1="391.4453" y2="391.4453"/><polygon fill="#111827" points="273.1992,387.4453,263.1992,391.4453,273.1992,395.4453,269.1992,391.4453" style="stroke:#111827;stroke-width:1;"/><text fill="#000000" font-family="'Arial'" font-size="13" lengthAdjust="spacing" textLength="237.415" x="269.1992" y="358.2466">Medikationsplaneintr&#228;ge hinzuf&#252;gen</text><text fill="#000000" font-family="'Arial'" font-size="13" lengthAdjust="spacing" textLength="181.6128" x="269.1992" y="373.3794">(Ebetrexat + Cortisonsalbe)</text></g><g class="message" data-entity-1="part2" data-entity-2="part4" data-source-line="69" id="msg5"><polygon fill="#111827" points="1057.6543,416.5781,1067.6543,420.5781,1057.6543,424.5781,1061.6543,420.5781" style="stroke:#111827;stroke-width:1;"/><line style="stroke:#111827;stroke-width:1;" x1="262.1992" x2="1063.6543" y1="420.5781" y2="420.5781"/><text fill="#000000" font-family="'Arial'" font-size="13" lengthAdjust="spacing" textLength="174.0527" x="269.1992" y="415.5122">Medikationsplan speichern</text></g><rect fill="#EEEEEE" height="3" rx="5" ry="5" style="stroke:#EEEEEE;stroke-width:1;" width="1219.1177" x="0" y="449.7266"/><line style="stroke:#000000;stroke-width:1;" x1="0" x2="1219.1177" y1="449.7266" y2="449.7266"/><line style="stroke:#000000;stroke-width:1;" x1="0" x2="1219.1177" y1="452.7266" y2="452.7266"/><rect fill="#EEEEEE" height="24.2969" rx="5" ry="5" style="stroke:#000000;stroke-width:2;" width="164.9648" x="527.0764" y="438.5781"/><text fill="#000000" font-family="'Arial'" font-size="14" font-weight="700" lengthAdjust="spacing" textLength="146.0908" x="533.0764" y="455.5732">Geplante Abgaben</text><g class="message" data-entity-1="part2" data-entity-2="part2" data-source-line="72" id="msg6"><line style="stroke:#111827;stroke-width:1;" x1="262.1992" x2="304.1992" y1="494.0078" y2="494.0078"/><line style="stroke:#111827;stroke-width:1;" x1="304.1992" x2="304.1992" y1="494.0078" y2="507.0078"/><line style="stroke:#111827;stroke-width:1;" x1="263.1992" x2="304.1992" y1="507.0078" y2="507.0078"/><polygon fill="#111827" points="273.1992,503.0078,263.1992,507.0078,273.1992,511.0078,269.1992,507.0078" style="stroke:#111827;stroke-width:1;"/><text fill="#000000" font-family="'Arial'" font-size="13" lengthAdjust="spacing" textLength="350.1812" x="269.1992" y="488.9419">Medikationsplaneintr&#228;ge zur Rezeptierung ausw&#228;hlen</text></g><g class="message" data-entity-1="part2" data-entity-2="part4" data-source-line="73" id="msg7"><polygon fill="#111827" points="1057.6543,532.1406,1067.6543,536.1406,1057.6543,540.1406,1061.6543,536.1406" style="stroke:#111827;stroke-width:1;"/><line style="stroke:#111827;stroke-width:1;" x1="262.1992" x2="1063.6543" y1="536.1406" y2="536.1406"/><text fill="#000000" font-family="'Arial'" font-size="13" lengthAdjust="spacing" textLength="182.0254" x="269.1992" y="531.0747">Geplante Abgaben erstellen</text></g><rect fill="#EEEEEE" height="3" rx="5" ry="5" style="stroke:#EEEEEE;stroke-width:1;" width="1219.1177" x="0" y="565.2891"/><line style="stroke:#000000;stroke-width:1;" x1="0" x2="1219.1177" y1="565.2891" y2="565.2891"/><line style="stroke:#000000;stroke-width:1;" x1="0" x2="1219.1177" y1="568.2891" y2="568.2891"/><rect fill="#EEEEEE" height="24.2969" rx="5" ry="5" style="stroke:#000000;stroke-width:2;" width="352.707" x="433.2053" y="554.1406"/><text fill="#000000" font-family="'Arial'" font-size="14" font-weight="700" lengthAdjust="spacing" textLength="333.833" x="439.2053" y="571.1357">28.2.2026: Abgabe in der Apotheke, Teil 1</text><g class="message" data-entity-1="part1" data-entity-2="part3" data-source-line="76" id="msg8"><polygon fill="#111827" points="614.3804,605.5703,624.3804,609.5703,614.3804,613.5703,618.3804,609.5703" style="stroke:#111827;stroke-width:1;"/><line style="stroke:#111827;stroke-width:1;" x1="88.7305" x2="620.3804" y1="609.5703" y2="609.5703"/><text fill="#000000" font-family="'Arial'" font-size="13" lengthAdjust="spacing" textLength="144.9614" x="95.7305" y="604.5044">Medikamente abholen</text></g><g class="message" data-entity-1="part3" data-entity-2="part4" data-source-line="77" id="msg9"><polygon fill="#111827" points="1057.6543,634.7031,1067.6543,638.7031,1057.6543,642.7031,1061.6543,638.7031" style="stroke:#111827;stroke-width:1;"/><line style="stroke:#111827;stroke-width:1;" x1="626.3804" x2="1063.6543" y1="638.7031" y2="638.7031"/><text fill="#000000" font-family="'Arial'" font-size="13" lengthAdjust="spacing" textLength="315.2817" x="633.3804" y="633.6372">Geplante Abgaben und Medikationsplan abrufen</text></g><g class="message" data-entity-1="part4" data-entity-2="part3" data-source-line="78" id="msg10"><polygon fill="#111827" points="637.3804,663.8359,627.3804,667.8359,637.3804,671.8359,633.3804,667.8359" style="stroke:#111827;stroke-width:1;"/><line style="stroke:#111827;stroke-width:1;stroke-dasharray:2,2;" x1="631.3804" x2="1068.6543" y1="667.8359" y2="667.8359"/><text fill="#000000" font-family="'Arial'" font-size="13" lengthAdjust="spacing" textLength="246.6953" x="643.3804" y="662.77">Geplante Abgaben + Medikationsplan</text></g><g class="message" data-entity-1="part3" data-entity-2="part4" data-source-line="80" id="msg11"><polygon fill="#111827" points="1057.6543,692.9688,1067.6543,696.9688,1057.6543,700.9688,1061.6543,696.9688" style="stroke:#111827;stroke-width:1;"/><line style="stroke:#111827;stroke-width:1;" x1="626.3804" x2="1063.6543" y1="696.9688" y2="696.9688"/><text fill="#000000" font-family="'Arial'" font-size="13" lengthAdjust="spacing" textLength="277.0688" x="633.3804" y="691.9028">Durchgef&#252;hrte Abgabe Ebetrexat erstellen</text></g><g class="message" data-entity-1="part3" data-entity-2="part1" data-source-line="81" id="msg12"><polygon fill="#111827" points="99.7305,722.1016,89.7305,726.1016,99.7305,730.1016,95.7305,726.1016" style="stroke:#111827;stroke-width:1;"/><line style="stroke:#111827;stroke-width:1;" x1="93.7305" x2="625.3804" y1="726.1016" y2="726.1016"/><text fill="#000000" font-family="'Arial'" font-size="13" lengthAdjust="spacing" textLength="151.5693" x="105.7305" y="721.0356">Ebetrexat aush&#228;ndigen</text></g><g class="message" data-entity-1="part3" data-entity-2="part4" data-source-line="83" id="msg13"><polygon fill="#111827" points="1057.6543,751.2344,1067.6543,755.2344,1057.6543,759.2344,1061.6543,755.2344" style="stroke:#111827;stroke-width:1;"/><line style="stroke:#111827;stroke-width:1;" x1="626.3804" x2="1063.6543" y1="755.2344" y2="755.2344"/><text fill="#000000" font-family="'Arial'" font-size="13" lengthAdjust="spacing" textLength="346.5947" x="633.3804" y="750.1685">Durchgef&#252;hrte Abgabe Cortisonsalbe in Vorbereitung</text></g><rect fill="#EEEEEE" height="3" rx="5" ry="5" style="stroke:#EEEEEE;stroke-width:1;" width="1219.1177" x="0" y="784.3828"/><line style="stroke:#000000;stroke-width:1;" x1="0" x2="1219.1177" y1="784.3828" y2="784.3828"/><line style="stroke:#000000;stroke-width:1;" x1="0" x2="1219.1177" y1="787.3828" y2="787.3828"/><rect fill="#EEEEEE" height="24.2969" rx="5" ry="5" style="stroke:#000000;stroke-width:2;" width="342.9658" x="438.0759" y="773.2344"/><text fill="#000000" font-family="'Arial'" font-size="14" font-weight="700" lengthAdjust="spacing" textLength="324.0918" x="444.0759" y="790.2295">1.3.2026: Abgabe in der Apotheke, Teil 2</text><g class="message" data-entity-1="part1" data-entity-2="part3" data-source-line="87" id="msg14"><polygon fill="#111827" points="614.3804,824.6641,624.3804,828.6641,614.3804,832.6641,618.3804,828.6641" style="stroke:#111827;stroke-width:1;"/><line style="stroke:#111827;stroke-width:1;" x1="88.7305" x2="620.3804" y1="828.6641" y2="828.6641"/><text fill="#000000" font-family="'Arial'" font-size="13" lengthAdjust="spacing" textLength="145.0439" x="95.7305" y="823.5981">Cortisonsalbe abholen</text></g><g class="message" data-entity-1="part3" data-entity-2="part4" data-source-line="88" id="msg15"><polygon fill="#111827" points="1057.6543,853.7969,1067.6543,857.7969,1057.6543,861.7969,1061.6543,857.7969" style="stroke:#111827;stroke-width:1;"/><line style="stroke:#111827;stroke-width:1;" x1="626.3804" x2="1063.6543" y1="857.7969" y2="857.7969"/><text fill="#000000" font-family="'Arial'" font-size="13" lengthAdjust="spacing" textLength="339.168" x="633.3804" y="852.731">Geplante und offene durchgef&#252;hrte Abgabe abrufen</text></g><g class="message" data-entity-1="part4" data-entity-2="part3" data-source-line="89" id="msg16"><polygon fill="#111827" points="637.3804,882.9297,627.3804,886.9297,637.3804,890.9297,633.3804,886.9297" style="stroke:#111827;stroke-width:1;"/><line style="stroke:#111827;stroke-width:1;stroke-dasharray:2,2;" x1="631.3804" x2="1068.6543" y1="886.9297" y2="886.9297"/><text fill="#000000" font-family="'Arial'" font-size="13" lengthAdjust="spacing" textLength="284.4194" x="643.3804" y="881.8638">Geplante und offene durchgef&#252;hrte Abgabe</text></g><g class="message" data-entity-1="part3" data-entity-2="part4" data-source-line="91" id="msg17"><polygon fill="#111827" points="1057.6543,912.0625,1067.6543,916.0625,1057.6543,920.0625,1061.6543,916.0625" style="stroke:#111827;stroke-width:1;"/><line style="stroke:#111827;stroke-width:1;" x1="626.3804" x2="1063.6543" y1="916.0625" y2="916.0625"/><text fill="#000000" font-family="'Arial'" font-size="13" lengthAdjust="spacing" textLength="367.1294" x="633.3804" y="910.9966">offene durchgef&#252;hrte Abgabe Cortisonsalbe abschlie&#223;en</text></g><g class="message" data-entity-1="part3" data-entity-2="part1" data-source-line="92" id="msg18"><polygon fill="#111827" points="99.7305,941.1953,89.7305,945.1953,99.7305,949.1953,95.7305,945.1953" style="stroke:#111827;stroke-width:1;"/><line style="stroke:#111827;stroke-width:1;" x1="93.7305" x2="625.3804" y1="945.1953" y2="945.1953"/><text fill="#000000" font-family="'Arial'" font-size="13" lengthAdjust="spacing" textLength="176.5601" x="105.7305" y="940.1294">Cortisonsalbe aush&#228;ndigen</text></g><rect fill="#EEEEEE" height="3" rx="5" ry="5" style="stroke:#EEEEEE;stroke-width:1;" width="1219.1177" x="0" y="974.3438"/><line style="stroke:#000000;stroke-width:1;" x1="0" x2="1219.1177" y1="974.3438" y2="974.3438"/><line style="stroke:#000000;stroke-width:1;" x1="0" x2="1219.1177" y1="977.3438" y2="977.3438"/><rect fill="#EEEEEE" height="24.2969" rx="5" ry="5" style="stroke:#000000;stroke-width:2;" width="409.4932" x="404.8123" y="963.1953"/><text fill="#000000" font-family="'Arial'" font-size="14" font-weight="700" lengthAdjust="spacing" textLength="390.6191" x="410.8123" y="980.1904">5.3.2026: Abruf Medikationsplan durch Patienten</text><g class="message" data-entity-1="part1" data-entity-2="part4" data-source-line="95" id="msg19"><polygon fill="#111827" points="1057.6543,1014.625,1067.6543,1018.625,1057.6543,1022.625,1061.6543,1018.625" style="stroke:#111827;stroke-width:1;"/><line style="stroke:#111827;stroke-width:1;" x1="88.7305" x2="1063.6543" y1="1018.625" y2="1018.625"/><text fill="#000000" font-family="'Arial'" font-size="13" lengthAdjust="spacing" textLength="434.0972" x="95.7305" y="1013.5591">Medikationsplan + geplante und durchgef&#252;hrte Abgaben anzeigen</text></g><g class="message" data-entity-1="part4" data-entity-2="part1" data-source-line="96" id="msg20"><polygon fill="#111827" points="99.7305,1043.7578,89.7305,1047.7578,99.7305,1051.7578,95.7305,1047.7578" style="stroke:#111827;stroke-width:1;"/><line style="stroke:#111827;stroke-width:1;stroke-dasharray:2,2;" x1="93.7305" x2="1068.6543" y1="1047.7578" y2="1047.7578"/><text fill="#000000" font-family="'Arial'" font-size="13" lengthAdjust="spacing" textLength="539.1001" x="105.7305" y="1042.6919">Medikationsplan mit 2 Eintr&#228;gen + geplante und durchgef&#252;hrte Abgaben anzeigen</text></g><rect fill="#EEEEEE" height="3" rx="5" ry="5" style="stroke:#EEEEEE;stroke-width:1;" width="1219.1177" x="0" y="1076.9063"/><line style="stroke:#000000;stroke-width:1;" x1="0" x2="1219.1177" y1="1076.9063" y2="1076.9063"/><line style="stroke:#000000;stroke-width:1;" x1="0" x2="1219.1177" y1="1079.9063" y2="1079.9063"/><rect fill="#EEEEEE" height="24.2969" rx="5" ry="5" style="stroke:#000000;stroke-width:2;" width="223.8633" x="497.6272" y="1065.7578"/><text fill="#000000" font-family="'Arial'" font-size="14" font-weight="700" lengthAdjust="spacing" textLength="204.9893" x="503.6272" y="1082.7529">10.3.2026: Kontrolltermin</text><g class="message" data-entity-1="part1" data-entity-2="part2" data-source-line="99" id="msg21"><polygon fill="#111827" points="250.1992,1117.1875,260.1992,1121.1875,250.1992,1125.1875,254.1992,1121.1875" style="stroke:#111827;stroke-width:1;"/><line style="stroke:#111827;stroke-width:1;" x1="88.7305" x2="256.1992" y1="1121.1875" y2="1121.1875"/><text fill="#000000" font-family="'Arial'" font-size="13" lengthAdjust="spacing" textLength="93.2915" x="95.7305" y="1116.1216">Kontrolltermin</text></g><g class="message" data-entity-1="part2" data-entity-2="part4" data-source-line="101" id="msg22"><polygon fill="#111827" points="1057.6543,1146.3203,1067.6543,1150.3203,1057.6543,1154.3203,1061.6543,1150.3203" style="stroke:#111827;stroke-width:1;"/><line style="stroke:#111827;stroke-width:1;" x1="262.1992" x2="1063.6543" y1="1150.3203" y2="1150.3203"/><text fill="#000000" font-family="'Arial'" font-size="13" lengthAdjust="spacing" textLength="161.0654" x="269.1992" y="1145.2544">Medikationsplan abrufen</text></g><g class="message" data-entity-1="part4" data-entity-2="part2" data-source-line="102" id="msg23"><polygon fill="#111827" points="273.1992,1175.4531,263.1992,1179.4531,273.1992,1183.4531,269.1992,1179.4531" style="stroke:#111827;stroke-width:1;"/><line style="stroke:#111827;stroke-width:1;stroke-dasharray:2,2;" x1="267.1992" x2="1068.6543" y1="1179.4531" y2="1179.4531"/><text fill="#000000" font-family="'Arial'" font-size="13" lengthAdjust="spacing" textLength="106.3169" x="279.1992" y="1174.3872">Medikationsplan</text></g><g class="message" data-entity-1="part2" data-entity-2="part2" data-source-line="104" id="msg24"><line style="stroke:#111827;stroke-width:1;" x1="262.1992" x2="304.1992" y1="1238.8516" y2="1238.8516"/><line style="stroke:#111827;stroke-width:1;" x1="304.1992" x2="304.1992" y1="1238.8516" y2="1251.8516"/><line style="stroke:#111827;stroke-width:1;" x1="263.1992" x2="304.1992" y1="1251.8516" y2="1251.8516"/><polygon fill="#111827" points="273.1992,1247.8516,263.1992,1251.8516,273.1992,1255.8516,269.1992,1251.8516" style="stroke:#111827;stroke-width:1;"/><text fill="#000000" font-family="'Arial'" font-size="13" lengthAdjust="spacing" textLength="71.627" x="269.1992" y="1203.52">Anpassung</text><text fill="#000000" font-family="'Arial'" font-size="13" lengthAdjust="spacing" textLength="186.1006" x="269.1992" y="1218.6528">(Ebetrexat Dosis reduzieren,</text><text fill="#000000" font-family="'Arial'" font-size="13" lengthAdjust="spacing" textLength="157.0029" x="269.1992" y="1233.7856">Cortisonsalbe absetzen)</text></g><g class="message" data-entity-1="part2" data-entity-2="part4" data-source-line="105" id="msg25"><polygon fill="#111827" points="1057.6543,1276.9844,1067.6543,1280.9844,1057.6543,1284.9844,1061.6543,1280.9844" style="stroke:#111827;stroke-width:1;"/><line style="stroke:#111827;stroke-width:1;" x1="262.1992" x2="1063.6543" y1="1280.9844" y2="1280.9844"/><text fill="#000000" font-family="'Arial'" font-size="13" lengthAdjust="spacing" textLength="174.0527" x="269.1992" y="1275.9185">Medikationsplan speichern</text></g><?plantuml-src dLNDRjj64BxpAGRo9OKZGwIjH3RW04hjf4ZhmeZJd7nPaaDn8MfNtLt2iehU-Xwz-35wqujrkFpHyiU9d3LWsBEptynytypGS9CXt3B3KHZu97Cby176WECRZFcIx59udbvoiMQAhI2KAaRriyoaWgE9FUujYvOB9NCHLnx9jFXnF7JAOld0nG8IbcbqRgfd55-1xuB6cB0yCn-aCB-p5S9ehZZBHiCUTtoBu9yDNxRJTdo4D0X_UG3lkmNW1AV9P7mK-_4vlYayN09cuVcKJHlhbvH7Iu5QWq-spqv1C_h_biLnKNY1ucJZ-_uiU4kskuOQetBq_dOJ_ELnZIhZOkcKS7qzvF27YEqVM17iSez_vYYYij9RfWoF-9e9qoffQa_7eIUhFMsdFi6zwrgSraLDIr0yc2ib7xh4M6ERMsiQYjXSbB5EoVIHCb-tQcoGowkUvfW4jZhdvJvyq5RclTmu5RJiGxnwNYWtCBeNpSoDu8Z6vdGMUYmov5dRcORH3Tl0JQuDgXKJOkIXY6a2DtkGtJzgQxWeGCuJWZchGEPajWXNwgH2s3rPrn7qKUPhQL9Seiq56OPOmzGN1THynMBCTMCSIASyTdV01nQbJ3oGJqxSb8VmexDPCYiaNEzR0EuUASELZU8k7YS2dSjB2DwU12V197Xp0NillSwO05JQhAZZWOKgJr30vQLNKpb-PmcviBz3r7cKUfOXkYX3z_4g6AzARTnW_8QeQA8x_ZQzZWsvC4Jx0Y7bOfidk_yMPLvrx1Bma5VtujLrY4RXXXau1jegXcjwmB8GV_fkBNgDF4fHbLb-nC982syUBbZueeoskOBFkCKryQeAMLck7tPFQKP4TPFeXIaKmgnmjLBE6YbB1w0sfd5fskirV46UWTyLihgkirnX4OE5gRH9r0txhKHeqW-IkudKGpZkopyK-IfNKRf0aZ1LpMlO2xbdn7rT5NlXE1BDwUv9n7o1BmhLwfE2uAzIXTI-t91uvKZv9wU7o10yAqCxna5250B8XEX6Y0VpFaoDxy4CC_NDmDrYT9Hc77V_FYTHnxyb4v4xTSYbYdfTPvEeqNexwxbnFeQ5Iy5W9TJHOeis4OV49kykv8eRalYw7lGNnx2TD6cg_PK-m4fcMV7XuiEhkEtY_VW-xazYQvVDwNkiDRLxQuLUISqrA8ppBMqo5A_lHKzwD5iKBrYk_mC0?></g></svg>