<svg xmlns="http://www.w3.org/2000/svg" xmlns:xlink="http://www.w3.org/1999/xlink" contentStyleType="text/css" data-diagram-type="SEQUENCE" height="688px" preserveAspectRatio="none" style="width:1183px;height:688px;background:#F5F5F5;" version="1.1" viewBox="0 0 1183 688" width="1183px" zoomAndPan="magnify"><?plantuml 1.2026.3beta6?><defs><linearGradient id="g8vog3o7c1u620" x1="50%" x2="50%" y1="0%" y2="100%"><stop offset="0%" stop-color="#E0E5F0"/><stop offset="100%" stop-color="#D1D9E6"/></linearGradient><filter height="300%" id="f8vog3o7c1u62" width="300%" x="-1" y="-1"><feGaussianBlur result="blurOut" stdDeviation="2"/><feColorMatrix in="blurOut" result="blurOut2" type="matrix" values="0 0 0 0 0 0 0 0 0 0 0 0 0 0 0 0 0 0 .4 0"/><feOffset dx="4" dy="4" in="blurOut2" result="blurOut3"/><feBlend in="SourceGraphic" in2="blurOut3" mode="normal"/></filter></defs><g><rect fill="#F5F5F5" height="688" style="stroke:none;stroke-width:1;" width="1183" x="0" y="0"/><rect fill="#9FBAC4" height="662.4609" rx="5" ry="5" style="stroke:#181818;stroke-width:0.5;" width="74.0586" x="126" y="6"/><text fill="#000000" font-family="'Arial'" font-size="14" font-weight="700" lengthAdjust="spacing" textLength="4.874" x="129" y="18.9951">&#160;</text><text fill="#000000" font-family="'Arial'" font-size="14" font-weight="700" lengthAdjust="spacing" textLength="48.5625" x="138.748" y="35.292">GDA 1</text><rect fill="#C48778" height="662.4609" rx="5" ry="5" style="stroke:#181818;stroke-width:0.5;" width="256.9268" x="472.8145" y="6"/><text fill="#000000" font-family="'Arial'" font-size="14" font-weight="700" lengthAdjust="spacing" textLength="4.874" x="475.8145" y="18.9951">&#160;</text><text fill="#000000" font-family="'Arial'" font-size="14" font-weight="700" lengthAdjust="spacing" textLength="182.6904" x="509.9326" y="35.292">e-Med Fachanwendung</text><rect fill="#BEAEBE" height="662.4609" rx="5" ry="5" style="stroke:#181818;stroke-width:0.5;" width="83.8066" x="953.1802" y="6"/><text fill="#000000" font-family="'Arial'" font-size="14" font-weight="700" lengthAdjust="spacing" textLength="4.874" x="956.1802" y="18.9951">&#160;</text><text fill="#000000" font-family="'Arial'" font-size="14" font-weight="700" lengthAdjust="spacing" textLength="48.5625" x="975.6763" y="35.292">GDA 2</text><rect fill="#BAC38B" height="662.4609" rx="5" ry="5" style="stroke:#181818;stroke-width:0.5;" width="77.9756" x="1078.9868" y="6"/><text fill="#000000" font-family="'Arial'" font-size="14" font-weight="700" lengthAdjust="spacing" textLength="4.874" x="1081.9868" y="18.9951">&#160;</text><text fill="#000000" font-family="'Arial'" font-size="14" font-weight="700" lengthAdjust="spacing" textLength="57.3535" x="1086.8608" y="35.292">Patient</text><g><title>GDA 1</title><rect fill="#FFFFFF" height="435.2734" style="stroke:#181818;stroke-width:1;" width="10" x="158.0293" y="128.8906"/></g><g><title>e-Med FA</title><rect fill="#FFFFFF" height="314.25" style="stroke:#181818;stroke-width:1;" width="10" x="596.2778" y="249.9141"/></g><rect fill="none" height="249.9844" rx="5" ry="5" style="stroke:#111827;stroke-width:2;" width="789.9131" x="127.7476" y="322.1797"/><g class="participant-lifeline" data-entity-uid="part1" data-qualified-name="GDA_1" data-source-line="41" id="part1-lifeline"><g><title>GDA 1</title><rect fill="#000000" fill-opacity="0.00000" height="470.2734" width="8" x="159.0293" y="118.8906"/><line style="stroke:#181818;stroke-width:0.5;stroke-dasharray:5,5;" x1="162.7476" x2="162.7476" y1="118.8906" y2="589.1641"/></g></g><g class="participant-lifeline" data-entity-uid="part2" data-qualified-name="eMed_FA" data-source-line="45" id="part2-lifeline"><g><title>e-Med FA</title><rect fill="#000000" fill-opacity="0.00000" height="470.2734" width="8" x="597.2778" y="118.8906"/><line style="stroke:#181818;stroke-width:0.5;stroke-dasharray:5,5;" x1="600.6157" x2="600.6157" y1="118.8906" y2="589.1641"/></g></g><g class="participant-lifeline" data-entity-uid="part3" data-qualified-name="GDA_2" data-source-line="49" id="part3-lifeline"><g><title>GDA 2</title><rect fill="#000000" fill-opacity="0.00000" height="470.2734" width="8" x="991.0835" y="118.8906"/><line style="stroke:#181818;stroke-width:0.5;stroke-dasharray:5,5;" x1="994.8018" x2="994.8018" y1="118.8906" y2="589.1641"/></g></g><g class="participant-lifeline" data-entity-uid="part4" data-qualified-name="Patient" data-source-line="53" id="part4-lifeline"><g><title>Patient</title><rect fill="#000000" fill-opacity="0.00000" height="470.2734" width="8" x="1113.9746" y="118.8906"/><line style="stroke:#181818;stroke-width:0.5;stroke-dasharray:5,5;" x1="1117.2866" x2="1117.2866" y1="118.8906" y2="589.1641"/></g></g><g class="participant participant-head" data-entity-uid="part1" data-qualified-name="GDA_1" data-source-line="41" id="part1-head"><text fill="#000000" font-family="'Arial'" font-size="14" lengthAdjust="spacing" textLength="44.5635" x="137.7476" y="115.5889">GDA 1</text><ellipse cx="163.0293" cy="51.0938" fill="#E2E2F0" rx="8" ry="8" style="stroke:#181818;stroke-width:0.5;"/><path d="M163.0293,59.0938 L163.0293,86.0938 M150.0293,67.0938 L176.0293,67.0938 M163.0293,86.0938 L150.0293,101.0938 M163.0293,86.0938 L176.0293,101.0938" fill="none" style="stroke:#181818;stroke-width:0.5;"/></g><g class="participant participant-tail" data-entity-uid="part1" data-qualified-name="GDA_1" data-source-line="41" id="part1-tail"><text fill="#000000" font-family="'Arial'" font-size="14" lengthAdjust="spacing" textLength="44.5635" x="137.7476" y="601.1592">GDA 1</text><ellipse cx="163.0293" cy="612.9609" fill="#E2E2F0" rx="8" ry="8" style="stroke:#181818;stroke-width:0.5;"/><path d="M163.0293,620.9609 L163.0293,647.9609 M150.0293,628.9609 L176.0293,628.9609 M163.0293,647.9609 L150.0293,662.9609 M163.0293,647.9609 L176.0293,662.9609" fill="none" style="stroke:#181818;stroke-width:0.5;"/></g><g class="participant participant-head" data-entity-uid="part2" data-qualified-name="eMed_FA" data-source-line="45" id="part2-head"><rect fill="#FFFFFF" height="30.2969" rx="5" ry="5" style="stroke:#555555;stroke-width:0.5;" width="79.3242" x="561.6157" y="87.5938"/><text fill="#000000" font-family="'Arial'" font-size="14" lengthAdjust="spacing" textLength="65.3242" x="568.6157" y="107.5889">e-Med FA</text></g><g class="participant participant-tail" data-entity-uid="part2" data-qualified-name="eMed_FA" data-source-line="45" id="part2-tail"><rect fill="#FFFFFF" height="30.2969" rx="5" ry="5" style="stroke:#555555;stroke-width:0.5;" width="79.3242" x="561.6157" y="588.1641"/><text fill="#000000" font-family="'Arial'" font-size="14" lengthAdjust="spacing" textLength="65.3242" x="568.6157" y="608.1592">e-Med FA</text></g><g class="participant participant-head" data-entity-uid="part3" data-qualified-name="GDA_2" data-source-line="49" id="part3-head"><text fill="#000000" font-family="'Arial'" font-size="14" lengthAdjust="spacing" textLength="44.5635" x="969.8018" y="115.5889">GDA 2</text><ellipse cx="995.0835" cy="51.0938" fill="#E2E2F0" rx="8" ry="8" style="stroke:#181818;stroke-width:0.5;"/><path d="M995.0835,59.0938 L995.0835,86.0938 M982.0835,67.0938 L1008.0835,67.0938 M995.0835,86.0938 L982.0835,101.0938 M995.0835,86.0938 L1008.0835,101.0938" fill="none" style="stroke:#181818;stroke-width:0.5;"/></g><g class="participant participant-tail" data-entity-uid="part3" data-qualified-name="GDA_2" data-source-line="49" id="part3-tail"><text fill="#000000" font-family="'Arial'" font-size="14" lengthAdjust="spacing" textLength="44.5635" x="969.8018" y="601.1592">GDA 2</text><ellipse cx="995.0835" cy="612.9609" fill="#E2E2F0" rx="8" ry="8" style="stroke:#181818;stroke-width:0.5;"/><path d="M995.0835,620.9609 L995.0835,647.9609 M982.0835,628.9609 L1008.0835,628.9609 M995.0835,647.9609 L982.0835,662.9609 M995.0835,647.9609 L1008.0835,662.9609" fill="none" style="stroke:#181818;stroke-width:0.5;"/></g><g class="participant participant-head" data-entity-uid="part4" data-qualified-name="Patient" data-source-line="53" id="part4-head"><text fill="#000000" font-family="'Arial'" font-size="14" lengthAdjust="spacing" textLength="49.376" x="1090.2866" y="115.5889">Patient</text><ellipse cx="1117.9746" cy="51.0938" fill="#E2E2F0" rx="8" ry="8" style="stroke:#181818;stroke-width:0.5;"/><path d="M1117.9746,59.0938 L1117.9746,86.0938 M1104.9746,67.0938 L1130.9746,67.0938 M1117.9746,86.0938 L1104.9746,101.0938 M1117.9746,86.0938 L1130.9746,101.0938" fill="none" style="stroke:#181818;stroke-width:0.5;"/></g><g class="participant participant-tail" data-entity-uid="part4" data-qualified-name="Patient" data-source-line="53" id="part4-tail"><text fill="#000000" font-family="'Arial'" font-size="14" lengthAdjust="spacing" textLength="49.376" x="1090.2866" y="601.1592">Patient</text><ellipse cx="1117.9746" cy="612.9609" fill="#E2E2F0" rx="8" ry="8" style="stroke:#181818;stroke-width:0.5;"/><path d="M1117.9746,620.9609 L1117.9746,647.9609 M1104.9746,628.9609 L1130.9746,628.9609 M1117.9746,647.9609 L1104.9746,662.9609 M1117.9746,647.9609 L1130.9746,662.9609" fill="none" style="stroke:#181818;stroke-width:0.5;"/></g><g><title>GDA 1</title><rect fill="#FFFFFF" height="435.2734" style="stroke:#181818;stroke-width:1;" width="10" x="158.0293" y="128.8906"/></g><g><title>e-Med FA</title><rect fill="#FFFFFF" height="314.25" style="stroke:#181818;stroke-width:1;" width="10" x="596.2778" y="249.9141"/></g><path d="M5,138.8906 L5,170.8906 A5,5 0 0 0 10,175.8906 L314,175.8906 A5,5 0 0 0 319,170.8906 L319,143.8906 L309,133.8906 L10,133.8906 A5,5 0 0 0 5,138.8906" fill="url(#g8vog3o7c1u620)" filter="url(#f8vog3o7c1u62)" style="stroke:#8B95A5;stroke-width:1;"/><path d="M309,133.8906 L309,141.3906 A2.5,2.5 0 0 0 311.5,143.8906 L319,143.8906 L309,133.8906" fill="url(#g8vog3o7c1u620)" style="stroke:#8B95A5;stroke-width:1;"/><text fill="#111827" font-family="'Arial'" font-size="14" lengthAdjust="spacing" textLength="293.4395" x="11" y="151.8857">Vorbedingung: Nach einem Read-to-Write</text><text fill="#111827" font-family="'Arial'" font-size="14" lengthAdjust="spacing" textLength="253.3945" x="11" y="168.1826">wurde der Medikationsplan bearbeit</text><rect fill="#EEEEEE" height="3" rx="5" ry="5" style="stroke:#EEEEEE;stroke-width:1;" width="1177.9624" x="0" y="205.6328"/><line style="stroke:#000000;stroke-width:1;" x1="0" x2="1177.9624" y1="205.6328" y2="205.6328"/><line style="stroke:#000000;stroke-width:1;" x1="0" x2="1177.9624" y1="208.6328" y2="208.6328"/><rect fill="#EEEEEE" height="24.2969" rx="5" ry="5" style="stroke:#000000;stroke-width:2;" width="62.207" x="557.8777" y="194.4844"/><text fill="#000000" font-family="'Arial'" font-size="14" font-weight="700" lengthAdjust="spacing" textLength="43.333" x="563.8777" y="211.4795">Write</text><g class="message" data-entity-1="part1" data-entity-2="part2" data-source-line="68" id="msg1"><line style="stroke:#111827;stroke-width:1;" x1="594.2778" x2="584.2778" y1="249.9141" y2="245.9141"/><line style="stroke:#111827;stroke-width:1;" x1="594.2778" x2="584.2778" y1="249.9141" y2="253.9141"/><line style="stroke:#111827;stroke-width:1;" x1="168.0293" x2="595.2778" y1="249.9141" y2="249.9141"/><text fill="#000000" font-family="'Arial'" font-size="13" font-weight="700" lengthAdjust="spacing" textLength="9.0454" x="175.0293" y="244.8481">1</text><text fill="#000000" font-family="'Arial'" font-size="13" lengthAdjust="spacing" textLength="323.6543" x="188.0747" y="244.8481">POST $write (Transaction Bundle + List.identifier)</text></g><g class="message" data-entity-1="part2" data-entity-2="part2" data-source-line="71" id="msg2"><line style="stroke:#111827;stroke-width:1;" x1="606.2778" x2="648.2778" y1="294.1797" y2="294.1797"/><line style="stroke:#111827;stroke-width:1;" x1="648.2778" x2="648.2778" y1="294.1797" y2="307.1797"/><line style="stroke:#111827;stroke-width:1;" x1="607.2778" x2="648.2778" y1="307.1797" y2="307.1797"/><polygon fill="#111827" points="617.2778,303.1797,607.2778,307.1797,617.2778,311.1797,613.2778,307.1797" style="stroke:#111827;stroke-width:1;"/><text fill="#000000" font-family="'Arial'" font-size="13" font-weight="700" lengthAdjust="spacing" textLength="9.0454" x="613.2778" y="281.5474">2</text><text fill="#000000" font-family="'Arial'" font-size="13" lengthAdjust="spacing" textLength="257.1943" x="626.3232" y="273.981">List.identifier im TransactionBundle ==</text><text fill="#000000" font-family="'Arial'" font-size="13" lengthAdjust="spacing" textLength="251.0371" x="626.3232" y="289.1138">tempor&#228;r gespeicherter List.identifier?</text></g><path d="M132.7476,322.1797 L193.686,322.1797 L193.686,330.4766 L183.686,340.4766 L127.7476,340.4766 L127.7476,327.1797 A5,5 0 0 1 132.7476,322.1797" fill="#EEF2FF" style="stroke:#111827;stroke-width:1.5;"/><rect fill="none" height="249.9844" rx="5" ry="5" style="stroke:#111827;stroke-width:2;" width="789.9131" x="127.7476" y="322.1797"/><text fill="#000000" font-family="'Arial'" font-size="14" font-weight="700" lengthAdjust="spacing" textLength="20.9385" x="142.7476" y="336.1748">alt</text><text fill="#000000" font-family="'Arial'" font-size="14" font-weight="700" lengthAdjust="spacing" textLength="79.0303" x="208.686" y="337.1748">[ung&#252;ltig]</text><g class="message" data-entity-1="part2" data-entity-2="part2" data-source-line="74" id="msg3"><line style="stroke:#111827;stroke-width:1;" x1="606.2778" x2="648.2778" y1="378.0391" y2="378.0391"/><line style="stroke:#111827;stroke-width:1;" x1="648.2778" x2="648.2778" y1="378.0391" y2="391.0391"/><line style="stroke:#111827;stroke-width:1;" x1="607.2778" x2="648.2778" y1="391.0391" y2="391.0391"/><polygon fill="#111827" points="617.2778,387.0391,607.2778,391.0391,617.2778,395.0391,613.2778,391.0391" style="stroke:#111827;stroke-width:1;"/><text fill="#000000" font-family="'Arial'" font-size="13" font-weight="700" lengthAdjust="spacing" textLength="9.0454" x="613.2778" y="365.4067">3</text><text fill="#000000" font-family="'Arial'" font-size="13" lengthAdjust="spacing" textLength="184.5835" x="626.3232" y="357.8403">Validierung des neuen Plans</text><text fill="#000000" font-family="'Arial'" font-size="13" lengthAdjust="spacing" textLength="269.3374" x="626.3232" y="372.9731">(keine unzul&#228;ssigen Zustands&#252;berg&#228;nge)</text></g><g class="message" data-entity-1="part2" data-entity-2="part1" data-source-line="75" id="msg4"><line style="stroke:#111827;stroke-width:1;" x1="169.0293" x2="179.0293" y1="420.1719" y2="416.1719"/><line style="stroke:#111827;stroke-width:1;" x1="169.0293" x2="179.0293" y1="420.1719" y2="424.1719"/><line style="stroke:#111827;stroke-width:1;stroke-dasharray:2,2;" x1="168.0293" x2="595.2778" y1="420.1719" y2="420.1719"/><text fill="#000000" font-family="'Arial'" font-size="13" font-weight="700" lengthAdjust="spacing" textLength="9.0454" x="185.0293" y="415.106">4</text><text fill="#000000" font-family="'Arial'" font-size="13" lengthAdjust="spacing" textLength="40.6694" x="198.0747" y="415.106">Fehler</text></g><line style="stroke:#111827;stroke-width:1;stroke-dasharray:2,2;" x1="127.7476" x2="917.6606" y1="429.1719" y2="429.1719"/><text fill="#000000" font-family="'Arial'" font-size="14" font-weight="700" lengthAdjust="spacing" textLength="59.0967" x="132.7476" y="442.167">[g&#252;ltig]</text><g class="message" data-entity-1="part2" data-entity-2="part2" data-source-line="78" id="msg5"><line style="stroke:#111827;stroke-width:1;" x1="606.2778" x2="648.2778" y1="482.7344" y2="482.7344"/><line style="stroke:#111827;stroke-width:1;" x1="648.2778" x2="648.2778" y1="482.7344" y2="495.7344"/><line style="stroke:#111827;stroke-width:1;" x1="607.2778" x2="648.2778" y1="495.7344" y2="495.7344"/><polygon fill="#111827" points="617.2778,491.7344,607.2778,495.7344,617.2778,499.7344,613.2778,495.7344" style="stroke:#111827;stroke-width:1;"/><text fill="#000000" font-family="'Arial'" font-size="13" font-weight="700" lengthAdjust="spacing" textLength="9.0454" x="613.2778" y="470.1021">5</text><text fill="#000000" font-family="'Arial'" font-size="13" lengthAdjust="spacing" textLength="182.1968" x="626.3232" y="462.5356">Persistiert neue Version des</text><text fill="#000000" font-family="'Arial'" font-size="13" lengthAdjust="spacing" textLength="113.0898" x="626.3232" y="477.6685">Medikationsplans</text></g><path d="M465,513.7344 L465,529.7344 A5,5 0 0 0 470,534.7344 L729,534.7344 A5,5 0 0 0 734,529.7344 L734,518.7344 L724,508.7344 L470,508.7344 A5,5 0 0 0 465,513.7344" fill="url(#g8vog3o7c1u620)" filter="url(#f8vog3o7c1u62)" style="stroke:#8B95A5;stroke-width:1;"/><path d="M724,508.7344 L724,516.2344 A2.5,2.5 0 0 0 726.5,518.7344 L734,518.7344 L724,508.7344" fill="url(#g8vog3o7c1u620)" style="stroke:#8B95A5;stroke-width:1;"/><text fill="#111827" font-family="'Arial'" font-size="14" lengthAdjust="spacing" textLength="248.3359" x="471" y="526.7295">Neuer Medikationsplan gespeichert</text><g class="message" data-entity-1="part2" data-entity-2="part1" data-source-line="84" id="msg6"><line style="stroke:#111827;stroke-width:1;" x1="164.0293" x2="174.0293" y1="564.1641" y2="560.1641"/><line style="stroke:#111827;stroke-width:1;" x1="164.0293" x2="174.0293" y1="564.1641" y2="568.1641"/><line style="stroke:#111827;stroke-width:1;stroke-dasharray:2,2;" x1="163.0293" x2="600.2778" y1="564.1641" y2="564.1641"/><text fill="#000000" font-family="'Arial'" font-size="13" font-weight="700" lengthAdjust="spacing" textLength="9.0454" x="180.0293" y="559.0981">6</text><text fill="#000000" font-family="'Arial'" font-size="13" lengthAdjust="spacing" textLength="18.7573" x="193.0747" y="559.0981">OK</text></g><g class="footer" data-source-line="89"><text fill="#000000" font-family="'Arial'" font-size="10" lengthAdjust="spacing" textLength="63.9258" x="556.5183" y="678.7432">Write-Zugriff</text></g><?plantuml-src XLJRJXin47ttLun27wYgL6mW9I25Ab3IIcqX0aebX8ISzMnYPMEdjfTGgluDdy5RVgnZv-PDLghpaDsvd9bpPhns9DM46pw6lZO2pPdEjO6TlN2ONNjvEXeONIYnYCYQ_XT5s24NUYhL03AUMumyYpIZq40IWmhCU96xhbRkWeyHQXqZULwhZhYMpmZ9GRMpt7OKexH3-CC0JZS9u1usixtwZaZ44Nxm4R40hVvHapTNrfkXJ4SAhOM4R5SHeHQzzxWGdhX7YRf9agJLE2JRzKeQPmfaV-C6l_oUeCcb6aKKpi-h0due4Hvm8N2iFVugKALpfZrkd4pbX2jNejGCPoDWQwpXb8Es1TvoBuTJSYnbQVY4ZZ5wkYbCC9Qr3QQgYYl7lDO-cJvJvvCInnNotBKrSymQWLsKkIxVA4_cL3z534hsAbrPNpz1xLuH-ASE900rs3dAwDvuLNZgA9GS3mbm2xKGKcEe1DsxfoWt7An_Hm5TdWwvcb9CGItC3s6U7RGE3_tMJTPA0rB2GxSJi1VPdMfuNxaHWFh8iO-bvXghvXeLsJtk95AnaCpJ_LP_bRnq-VJ5SmJ0UE6qAiPzDFISEld8wLO6DHWBDrG_ua8UTgjD7xtgnFeOBaW4G5hwCLmX5tMdwp-DTCYc1Os0FW46YAqSKKsjx2Jd2eWN8KWNwdjqnjfj25dGRZCsdqBzv6IfsZ7qBgzluCqqXEpU6Awixr8hEANToH7UmJTftNifY9VC99gt4Oy52blEe1u1RwI174C4lq1lj--Lm_54czcBWG7Q2SfqYCPHmWR0HwgREo1fPg-vamEW2LJLlUMv51JlDqUW1ONqVO0UoMFlrUx82qeWpqK-Ux5M3iXtLrZ7bR2pLvhIOFQY1lWs1lTw1UMEeOl3d5eZBqFw4C5_UkcXiSI2kd6X3xZr1XAN6hjN6zEpZ53MAx7K5k22ChTd7Odbgwy6NjtuvLTo2DpOm99fDKmb64j9TYgQQUt_mWRLxug1aLds3m00?></g></svg>