<svg xmlns="http://www.w3.org/2000/svg" xmlns:xlink="http://www.w3.org/1999/xlink" contentStyleType="text/css" data-diagram-type="SEQUENCE" height="712px" preserveAspectRatio="none" style="width:1272px;height:712px;background:#F5F5F5;" version="1.1" viewBox="0 0 1272 712" width="1272px" zoomAndPan="magnify"><?plantuml 1.2026.5?><defs><linearGradient id="g2a60gn1q8kmf0" x1="50%" x2="50%" y1="0%" y2="100%"><stop offset="0%" stop-color="#E0E5F0"/><stop offset="100%" stop-color="#D1D9E6"/></linearGradient><filter height="300%" id="f2a60gn1q8kmf" width="300%" x="-1" y="-1"><feGaussianBlur result="blurOut" stdDeviation="2"/><feColorMatrix in="blurOut" result="blurOut2" type="matrix" values="0 0 0 0 0 0 0 0 0 0 0 0 0 0 0 0 0 0 .4 0"/><feOffset dx="4" dy="4" in="blurOut2" result="blurOut3"/><feBlend in="SourceGraphic" in2="blurOut3" mode="normal"/></filter></defs><g><rect fill="#F5F5F5" height="712" style="stroke:none;stroke-width:1;" width="1272" x="0" y="0"/><g class="title" data-source-line="1"><text fill="#000000" font-family="'Arial'" font-size="14" font-weight="700" lengthAdjust="spacing" textLength="103.168" x="581.196" y="27.9951">Write-Zugriff</text></g><rect fill="#9FBAC4" height="662.4609" rx="5" ry="5" style="stroke:#181818;stroke-width:0.5;" width="74.0586" x="126" y="43.2969"/><text fill="#000000" font-family="'Arial'" font-size="14" font-weight="700" lengthAdjust="spacing" textLength="4.874" x="129" y="56.292">&#160;</text><text fill="#000000" font-family="'Arial'" font-size="14" font-weight="700" lengthAdjust="spacing" textLength="48.5625" x="138.748" y="72.5889">GDA 1</text><rect fill="#C48778" height="662.4609" rx="5" ry="5" style="stroke:#181818;stroke-width:0.5;" width="256.9268" x="541.4121" y="43.2969"/><text fill="#000000" font-family="'Arial'" font-size="14" font-weight="700" lengthAdjust="spacing" textLength="4.874" x="544.4121" y="56.292">&#160;</text><text fill="#000000" font-family="'Arial'" font-size="14" font-weight="700" lengthAdjust="spacing" textLength="182.6904" x="578.5303" y="72.5889">e-Med Fachanwendung</text><rect fill="#BEAEBE" height="662.4609" rx="5" ry="5" style="stroke:#181818;stroke-width:0.5;" width="83.8066" x="1041.7778" y="43.2969"/><text fill="#000000" font-family="'Arial'" font-size="14" font-weight="700" lengthAdjust="spacing" textLength="4.874" x="1044.7778" y="56.292">&#160;</text><text fill="#000000" font-family="'Arial'" font-size="14" font-weight="700" lengthAdjust="spacing" textLength="48.5625" x="1064.2739" y="72.5889">GDA 2</text><rect fill="#BAC38B" height="662.4609" rx="5" ry="5" style="stroke:#181818;stroke-width:0.5;" width="77.9756" x="1167.5845" y="43.2969"/><text fill="#000000" font-family="'Arial'" font-size="14" font-weight="700" lengthAdjust="spacing" textLength="4.874" x="1170.5845" y="56.292">&#160;</text><text fill="#000000" font-family="'Arial'" font-size="14" font-weight="700" lengthAdjust="spacing" textLength="57.3535" x="1175.4585" y="72.5889">Patient</text><g><title>GDA 1</title><rect fill="#FFFFFF" height="435.2734" style="stroke:#181818;stroke-width:1;" width="10" x="158.0293" y="166.1875"/></g><g><title>e-Med FA</title><rect fill="#FFFFFF" height="314.25" style="stroke:#181818;stroke-width:1;" width="10" x="664.8755" y="287.2109"/></g><rect fill="none" height="249.9844" rx="5" ry="5" style="stroke:#111827;stroke-width:2;" width="858.5107" x="127.7476" y="359.4766"/><g class="participant-lifeline" data-entity-uid="part1" data-qualified-name="GDA_1" data-source-line="42" id="part1-lifeline"><g><title>GDA 1</title><rect fill="#000000" fill-opacity="0.00000" height="470.2734" width="8" x="159.0293" y="156.1875"/><line style="stroke:#181818;stroke-width:0.5;stroke-dasharray:5,5;" x1="162.7476" x2="162.7476" y1="156.1875" y2="626.4609"/></g></g><g class="participant-lifeline" data-entity-uid="part2" data-qualified-name="eMed_FA" data-source-line="46" id="part2-lifeline"><g><title>e-Med FA</title><rect fill="#000000" fill-opacity="0.00000" height="470.2734" width="8" x="665.8755" y="156.1875"/><line style="stroke:#181818;stroke-width:0.5;stroke-dasharray:5,5;" x1="669.2134" x2="669.2134" y1="156.1875" y2="626.4609"/></g></g><g class="participant-lifeline" data-entity-uid="part3" data-qualified-name="GDA_2" data-source-line="50" id="part3-lifeline"><g><title>GDA 2</title><rect fill="#000000" fill-opacity="0.00000" height="470.2734" width="8" x="1079.6812" y="156.1875"/><line style="stroke:#181818;stroke-width:0.5;stroke-dasharray:5,5;" x1="1083.3994" x2="1083.3994" y1="156.1875" y2="626.4609"/></g></g><g class="participant-lifeline" data-entity-uid="part4" data-qualified-name="Patient" data-source-line="54" id="part4-lifeline"><g><title>Patient</title><rect fill="#000000" fill-opacity="0.00000" height="470.2734" width="8" x="1202.5723" y="156.1875"/><line style="stroke:#181818;stroke-width:0.5;stroke-dasharray:5,5;" x1="1205.8843" x2="1205.8843" y1="156.1875" y2="626.4609"/></g></g><g class="participant participant-head" data-entity-uid="part1" data-qualified-name="GDA_1" data-source-line="42" id="part1-head"><text fill="#000000" font-family="'Arial'" font-size="14" lengthAdjust="spacing" textLength="44.5635" x="137.7476" y="152.8857">GDA 1</text><ellipse cx="163.0293" cy="88.3906" fill="#E2E2F0" rx="8" ry="8" style="stroke:#181818;stroke-width:0.5;"/><path d="M163.0293,96.3906 L163.0293,123.3906 M150.0293,104.3906 L176.0293,104.3906 M163.0293,123.3906 L150.0293,138.3906 M163.0293,123.3906 L176.0293,138.3906" fill="none" style="stroke:#181818;stroke-width:0.5;"/></g><g class="participant participant-tail" data-entity-uid="part1" data-qualified-name="GDA_1" data-source-line="42" id="part1-tail"><text fill="#000000" font-family="'Arial'" font-size="14" lengthAdjust="spacing" textLength="44.5635" x="137.7476" y="638.4561">GDA 1</text><ellipse cx="163.0293" cy="650.2578" fill="#E2E2F0" rx="8" ry="8" style="stroke:#181818;stroke-width:0.5;"/><path d="M163.0293,658.2578 L163.0293,685.2578 M150.0293,666.2578 L176.0293,666.2578 M163.0293,685.2578 L150.0293,700.2578 M163.0293,685.2578 L176.0293,700.2578" fill="none" style="stroke:#181818;stroke-width:0.5;"/></g><g class="participant participant-head" data-entity-uid="part2" data-qualified-name="eMed_FA" data-source-line="46" id="part2-head"><rect fill="#FFFFFF" height="30.2969" rx="5" ry="5" style="stroke:#555555;stroke-width:0.5;" width="79.3242" x="630.2134" y="124.8906"/><text fill="#000000" font-family="'Arial'" font-size="14" lengthAdjust="spacing" textLength="65.3242" x="637.2134" y="144.8857">e-Med FA</text></g><g class="participant participant-tail" data-entity-uid="part2" data-qualified-name="eMed_FA" data-source-line="46" id="part2-tail"><rect fill="#FFFFFF" height="30.2969" rx="5" ry="5" style="stroke:#555555;stroke-width:0.5;" width="79.3242" x="630.2134" y="625.4609"/><text fill="#000000" font-family="'Arial'" font-size="14" lengthAdjust="spacing" textLength="65.3242" x="637.2134" y="645.4561">e-Med FA</text></g><g class="participant participant-head" data-entity-uid="part3" data-qualified-name="GDA_2" data-source-line="50" id="part3-head"><text fill="#000000" font-family="'Arial'" font-size="14" lengthAdjust="spacing" textLength="44.5635" x="1058.3994" y="152.8857">GDA 2</text><ellipse cx="1083.6812" cy="88.3906" fill="#E2E2F0" rx="8" ry="8" style="stroke:#181818;stroke-width:0.5;"/><path d="M1083.6812,96.3906 L1083.6812,123.3906 M1070.6812,104.3906 L1096.6812,104.3906 M1083.6812,123.3906 L1070.6812,138.3906 M1083.6812,123.3906 L1096.6812,138.3906" fill="none" style="stroke:#181818;stroke-width:0.5;"/></g><g class="participant participant-tail" data-entity-uid="part3" data-qualified-name="GDA_2" data-source-line="50" id="part3-tail"><text fill="#000000" font-family="'Arial'" font-size="14" lengthAdjust="spacing" textLength="44.5635" x="1058.3994" y="638.4561">GDA 2</text><ellipse cx="1083.6812" cy="650.2578" fill="#E2E2F0" rx="8" ry="8" style="stroke:#181818;stroke-width:0.5;"/><path d="M1083.6812,658.2578 L1083.6812,685.2578 M1070.6812,666.2578 L1096.6812,666.2578 M1083.6812,685.2578 L1070.6812,700.2578 M1083.6812,685.2578 L1096.6812,700.2578" fill="none" style="stroke:#181818;stroke-width:0.5;"/></g><g class="participant participant-head" data-entity-uid="part4" data-qualified-name="Patient" data-source-line="54" id="part4-head"><text fill="#000000" font-family="'Arial'" font-size="14" lengthAdjust="spacing" textLength="49.376" x="1178.8843" y="152.8857">Patient</text><ellipse cx="1206.5723" cy="88.3906" fill="#E2E2F0" rx="8" ry="8" style="stroke:#181818;stroke-width:0.5;"/><path d="M1206.5723,96.3906 L1206.5723,123.3906 M1193.5723,104.3906 L1219.5723,104.3906 M1206.5723,123.3906 L1193.5723,138.3906 M1206.5723,123.3906 L1219.5723,138.3906" fill="none" style="stroke:#181818;stroke-width:0.5;"/></g><g class="participant participant-tail" data-entity-uid="part4" data-qualified-name="Patient" data-source-line="54" id="part4-tail"><text fill="#000000" font-family="'Arial'" font-size="14" lengthAdjust="spacing" textLength="49.376" x="1178.8843" y="638.4561">Patient</text><ellipse cx="1206.5723" cy="650.2578" fill="#E2E2F0" rx="8" ry="8" style="stroke:#181818;stroke-width:0.5;"/><path d="M1206.5723,658.2578 L1206.5723,685.2578 M1193.5723,666.2578 L1219.5723,666.2578 M1206.5723,685.2578 L1193.5723,700.2578 M1206.5723,685.2578 L1219.5723,700.2578" fill="none" style="stroke:#181818;stroke-width:0.5;"/></g><g><title>GDA 1</title><rect fill="#FFFFFF" height="435.2734" style="stroke:#181818;stroke-width:1;" width="10" x="158.0293" y="166.1875"/></g><g><title>e-Med FA</title><rect fill="#FFFFFF" height="314.25" style="stroke:#181818;stroke-width:1;" width="10" x="664.8755" y="287.2109"/></g><path d="M5,176.1875 L5,208.1875 A5,5 0 0 0 10,213.1875 L314,213.1875 A5,5 0 0 0 319,208.1875 L319,181.1875 L309,171.1875 L10,171.1875 A5,5 0 0 0 5,176.1875" fill="url(#g2a60gn1q8kmf0)" filter="url(#f2a60gn1q8kmf)" style="stroke:#8B95A5;stroke-width:1;"/><path d="M309,171.1875 L309,178.6875 A2.5,2.5 0 0 0 311.5,181.1875 L319,181.1875 L309,171.1875" fill="url(#g2a60gn1q8kmf0)" style="stroke:#8B95A5;stroke-width:1;"/><text fill="#111827" font-family="'Arial'" font-size="14" lengthAdjust="spacing" textLength="293.4395" x="11" y="189.1826">Vorbedingung: Nach einem Read-to-Write</text><text fill="#111827" font-family="'Arial'" font-size="14" lengthAdjust="spacing" textLength="257.8447" x="11" y="205.4795">wurde der Medikationsplan bearbeit.</text><rect fill="#EEEEEE" height="3" rx="5" ry="5" style="stroke:#EEEEEE;stroke-width:1;" width="1266.5601" x="0" y="242.9297"/><line style="stroke:#000000;stroke-width:1;" x1="0" x2="1266.5601" y1="242.9297" y2="242.9297"/><line style="stroke:#000000;stroke-width:1;" x1="0" x2="1266.5601" y1="245.9297" y2="245.9297"/><rect fill="#EEEEEE" height="24.2969" rx="5" ry="5" style="stroke:#000000;stroke-width:2;" width="231.6768" x="517.4417" y="231.7813"/><text fill="#000000" font-family="'Arial'" font-size="14" font-weight="700" lengthAdjust="spacing" textLength="212.8027" x="523.4417" y="248.7764">Medikationsplan schreiben</text><g class="message" data-entity-1="part1" data-entity-2="part2" data-source-line="69" id="msg1"><line style="stroke:#111827;stroke-width:1;" x1="662.8755" x2="652.8755" y1="287.2109" y2="283.2109"/><line style="stroke:#111827;stroke-width:1;" x1="662.8755" x2="652.8755" y1="287.2109" y2="291.2109"/><line style="stroke:#111827;stroke-width:1;" x1="168.0293" x2="663.8755" y1="287.2109" y2="287.2109"/><text fill="#000000" font-family="'Arial'" font-size="13" font-weight="700" lengthAdjust="spacing" textLength="9.0454" x="175.0293" y="282.145">1</text><text fill="#000000" font-family="'Arial'" font-size="13" lengthAdjust="spacing" textLength="372.252" x="188.0747" y="282.145">POST $write Medikationsplan-Transaction-Bundle + ETag</text></g><g class="message" data-entity-1="part2" data-entity-2="part2" data-source-line="72" id="msg2"><line style="stroke:#111827;stroke-width:1;" x1="674.8755" x2="716.8755" y1="331.4766" y2="331.4766"/><line style="stroke:#111827;stroke-width:1;" x1="716.8755" x2="716.8755" y1="331.4766" y2="344.4766"/><line style="stroke:#111827;stroke-width:1;" x1="675.8755" x2="716.8755" y1="344.4766" y2="344.4766"/><polygon fill="#111827" points="685.8755,340.4766,675.8755,344.4766,685.8755,348.4766,681.8755,344.4766" style="stroke:#111827;stroke-width:1;stroke-linejoin:miter;stroke-miterlimit:10;"/><text fill="#000000" font-family="'Arial'" font-size="13" font-weight="700" lengthAdjust="spacing" textLength="9.0454" x="681.8755" y="318.8442">2</text><text fill="#000000" font-family="'Arial'" font-size="13" lengthAdjust="spacing" textLength="130.165" x="694.9209" y="311.2778">ETag im Header ==</text><text fill="#000000" font-family="'Arial'" font-size="13" lengthAdjust="spacing" textLength="176.0205" x="694.9209" y="326.4106">ETag der Fachanwendung?</text></g><path d="M132.7476,359.4766 L193.686,359.4766 L193.686,367.7734 L183.686,377.7734 L127.7476,377.7734 L127.7476,364.4766 A5,5 0 0 1 132.7476,359.4766" fill="#EEF2FF" style="stroke:#111827;stroke-width:1.5;"/><rect fill="none" height="249.9844" rx="5" ry="5" style="stroke:#111827;stroke-width:2;" width="858.5107" x="127.7476" y="359.4766"/><text fill="#000000" font-family="'Arial'" font-size="14" font-weight="700" lengthAdjust="spacing" textLength="20.9385" x="142.7476" y="373.4717">alt</text><text fill="#000000" font-family="'Arial'" font-size="14" font-weight="700" lengthAdjust="spacing" textLength="59.0967" x="208.686" y="374.4717">[g&#252;ltig]</text><g class="message" data-entity-1="part2" data-entity-2="part2" data-source-line="75" id="msg3"><line style="stroke:#111827;stroke-width:1;" x1="674.8755" x2="716.8755" y1="415.3359" y2="415.3359"/><line style="stroke:#111827;stroke-width:1;" x1="716.8755" x2="716.8755" y1="415.3359" y2="428.3359"/><line style="stroke:#111827;stroke-width:1;" x1="675.8755" x2="716.8755" y1="428.3359" y2="428.3359"/><polygon fill="#111827" points="685.8755,424.3359,675.8755,428.3359,685.8755,432.3359,681.8755,428.3359" style="stroke:#111827;stroke-width:1;stroke-linejoin:miter;stroke-miterlimit:10;"/><text fill="#000000" font-family="'Arial'" font-size="13" font-weight="700" lengthAdjust="spacing" textLength="9.0454" x="681.8755" y="402.7036">3</text><text fill="#000000" font-family="'Arial'" font-size="13" lengthAdjust="spacing" textLength="184.5835" x="694.9209" y="395.1372">Validierung des neuen Plans</text><text fill="#000000" font-family="'Arial'" font-size="13" lengthAdjust="spacing" textLength="269.3374" x="694.9209" y="410.27">(keine unzul&#228;ssigen Zustands&#252;berg&#228;nge)</text></g><g class="message" data-entity-1="part2" data-entity-2="part2" data-source-line="76" id="msg4"><line style="stroke:#111827;stroke-width:1;" x1="674.8755" x2="716.8755" y1="472.6016" y2="472.6016"/><line style="stroke:#111827;stroke-width:1;" x1="716.8755" x2="716.8755" y1="472.6016" y2="485.6016"/><line style="stroke:#111827;stroke-width:1;" x1="675.8755" x2="716.8755" y1="485.6016" y2="485.6016"/><polygon fill="#111827" points="685.8755,481.6016,675.8755,485.6016,685.8755,489.6016,681.8755,485.6016" style="stroke:#111827;stroke-width:1;stroke-linejoin:miter;stroke-miterlimit:10;"/><text fill="#000000" font-family="'Arial'" font-size="13" font-weight="700" lengthAdjust="spacing" textLength="9.0454" x="681.8755" y="459.9692">4</text><text fill="#000000" font-family="'Arial'" font-size="13" lengthAdjust="spacing" textLength="182.1968" x="694.9209" y="452.4028">Persistiert neue Version des</text><text fill="#000000" font-family="'Arial'" font-size="13" lengthAdjust="spacing" textLength="113.0898" x="694.9209" y="467.5356">Medikationsplans</text></g><path d="M533,503.6016 L533,519.6016 A5,5 0 0 0 538,524.6016 L797,524.6016 A5,5 0 0 0 802,519.6016 L802,508.6016 L792,498.6016 L538,498.6016 A5,5 0 0 0 533,503.6016" fill="url(#g2a60gn1q8kmf0)" filter="url(#f2a60gn1q8kmf)" style="stroke:#8B95A5;stroke-width:1;"/><path d="M792,498.6016 L792,506.1016 A2.5,2.5 0 0 0 794.5,508.6016 L802,508.6016 L792,498.6016" fill="url(#g2a60gn1q8kmf0)" style="stroke:#8B95A5;stroke-width:1;"/><text fill="#111827" font-family="'Arial'" font-size="14" lengthAdjust="spacing" textLength="248.3359" x="539" y="516.5967">Neuer Medikationsplan gespeichert</text><g class="message" data-entity-1="part2" data-entity-2="part1" data-source-line="82" id="msg5"><line style="stroke:#111827;stroke-width:1;" x1="169.0293" x2="179.0293" y1="554.0313" y2="550.0313"/><line style="stroke:#111827;stroke-width:1;" x1="169.0293" x2="179.0293" y1="554.0313" y2="558.0313"/><line style="stroke:#111827;stroke-width:1;stroke-dasharray:2,2;" x1="168.0293" x2="663.8755" y1="554.0313" y2="554.0313"/><text fill="#000000" font-family="'Arial'" font-size="13" font-weight="700" lengthAdjust="spacing" textLength="9.0454" x="185.0293" y="548.9653">5</text><text fill="#000000" font-family="'Arial'" font-size="13" lengthAdjust="spacing" textLength="18.7573" x="198.0747" y="548.9653">OK</text></g><line style="stroke:#111827;stroke-width:1;stroke-dasharray:2,2;" x1="127.7476" x2="986.2583" y1="563.0313" y2="563.0313"/><text fill="#000000" font-family="'Arial'" font-size="14" font-weight="700" lengthAdjust="spacing" textLength="79.0303" x="132.7476" y="576.0264">[ung&#252;ltig]</text><g class="message" data-entity-1="part2" data-entity-2="part1" data-source-line="86" id="msg6"><line style="stroke:#111827;stroke-width:1;" x1="164.0293" x2="174.0293" y1="601.4609" y2="597.4609"/><line style="stroke:#111827;stroke-width:1;" x1="164.0293" x2="174.0293" y1="601.4609" y2="605.4609"/><line style="stroke:#111827;stroke-width:1;stroke-dasharray:2,2;" x1="163.0293" x2="668.8755" y1="601.4609" y2="601.4609"/><text fill="#000000" font-family="'Arial'" font-size="13" font-weight="700" lengthAdjust="spacing" textLength="9.0454" x="180.0293" y="596.395">6</text><text fill="#000000" font-family="'Arial'" font-size="13" lengthAdjust="spacing" textLength="40.6694" x="193.0747" y="596.395">Fehler</text></g><?plantuml-src TLJRJXin47ttLun27rfLMx6XAG4fL852ArM522YL41BohYSRAukTsbv2gVetV0Pl-R6EdMJn9i79WtSkP-QSiUsaAn5-6UamkQuA8uT3PiTIJRZXTv1f8z0SwL8RsDeEA_RoV5mONIcnY1Xs_2-Ai2Ckz5Ig0eQyj1Xv5cb6eO4q1XKuv5NfJhHof_mEeTKtafUjpH4NyX4X_RZPsMmxYb7Q8Vnb08Uh170REyFjP4kaOWy_-OXOW6wsr-6TsdevalbOeRMGakqy8jIbxm4NmXFtA54tQPfssxjakwYbSQP2zYzkyDkV2PfIgd54uVXuKy1F9S865mB7skFl2bK-PphWnibSJhXo3KgTi5O2riOQLZDeNU0rzt8u3STIbhPFw1kZfwl216DJss3QLB5sp6ljaEahTJvfSAoHvwwrcUEm7TX5cI_bsyt97Eg7Y473labNbka7QDqe0l_IXnIW1LjxGxetNXMUEmebnsqAt48hXBGOAa7txY7A3GkJ7oZWXESZhgOKKr4ByqMOHn-xkxl-r4rUb0QaXDkJVi1UPFStm_lAxG2K8SSC6ysrw-RQ6x87t4caOY6PvplTh4vUkdpwOXy1C5uvhQgx30tjSoVlETtAe0PZuORgUrp8mwwqoT2hJgptuPH40AH3VmVdo4NYT18UC3QjQ0Jq11WWjd9CDRMoav8h85w48Ds7q827PwpNMmkp-SYWp511hyVOV3J9mS5IodqOd5rSmfkfhxQQd5mQhgndebLoIEUBtjNtS7p9YuZV0eWjPvD4s3uK95rkuaGKUhqR5Kp-ep7tpmHOEYXcpwMJ1P3Wc-2kU2c5HECFYa0B2kavW05rQc_Ksx7N3ohrM9Mp9sjbGRxhoZgkX9qzqr2AsPCgyDqhu0CqLbgQgN416AwyGIjVwKQjA6C9XFulGrsg071AkUlJAj1EKEOZGlVrwub5lVYfXFdimzbtnf0UFs9JI_9Aw0cEIghdtG9N3bt3LCz9YVy0?></g></svg>