<svg xmlns="http://www.w3.org/2000/svg" xmlns:xlink="http://www.w3.org/1999/xlink" contentStyleType="text/css" data-diagram-type="SEQUENCE" height="575px" preserveAspectRatio="none" style="width:1022px;height:575px;background:#F5F5F5;" version="1.1" viewBox="0 0 1022 575" width="1022px" zoomAndPan="magnify"><?plantuml 1.2026.4beta2?><defs><linearGradient id="g1fs1sufxyu1zo0" x1="50%" x2="50%" y1="0%" y2="100%"><stop offset="0%" stop-color="#E0E5F0"/><stop offset="100%" stop-color="#D1D9E6"/></linearGradient><filter height="300%" id="f1fs1sufxyu1zo" width="300%" x="-1" y="-1"><feGaussianBlur result="blurOut" stdDeviation="2"/><feColorMatrix in="blurOut" result="blurOut2" type="matrix" values="0 0 0 0 0 0 0 0 0 0 0 0 0 0 0 0 0 0 .4 0"/><feOffset dx="4" dy="4" in="blurOut2" result="blurOut3"/><feBlend in="SourceGraphic" in2="blurOut3" mode="normal"/></filter></defs><g><rect fill="#F5F5F5" height="575" style="stroke:none;stroke-width:1;" width="1022" x="0" y="0"/><g class="title" data-source-line="1"><text fill="#000000" font-family="'Arial'" font-size="14" font-weight="700" lengthAdjust="spacing" textLength="138.8994" x="438.2312" y="27.9951">Read-only-Zugriff</text></g><rect fill="#9FBAC4" height="524.9297" rx="5" ry="5" style="stroke:#181818;stroke-width:0.5;" width="74.0586" x="21" y="43.2969"/><text fill="#000000" font-family="'Arial'" font-size="14" font-weight="700" lengthAdjust="spacing" textLength="4.874" x="24" y="56.292">&#160;</text><text fill="#000000" font-family="'Arial'" font-size="14" font-weight="700" lengthAdjust="spacing" textLength="48.5625" x="33.748" y="72.5889">GDA 1</text><rect fill="#C48778" height="524.9297" rx="5" ry="5" style="stroke:#181818;stroke-width:0.5;" width="256.9268" x="395.6899" y="43.2969"/><text fill="#000000" font-family="'Arial'" font-size="14" font-weight="700" lengthAdjust="spacing" textLength="4.874" x="398.6899" y="56.292">&#160;</text><text fill="#000000" font-family="'Arial'" font-size="14" font-weight="700" lengthAdjust="spacing" textLength="182.6904" x="432.8081" y="72.5889">e-Med Fachanwendung</text><rect fill="#BEAEBE" height="524.9297" rx="5" ry="5" style="stroke:#181818;stroke-width:0.5;" width="83.8066" x="791.5796" y="43.2969"/><text fill="#000000" font-family="'Arial'" font-size="14" font-weight="700" lengthAdjust="spacing" textLength="4.874" x="794.5796" y="56.292">&#160;</text><text fill="#000000" font-family="'Arial'" font-size="14" font-weight="700" lengthAdjust="spacing" textLength="48.5625" x="814.0757" y="72.5889">GDA 2</text><rect fill="#BAC38B" height="524.9297" rx="5" ry="5" style="stroke:#181818;stroke-width:0.5;" width="77.9756" x="917.3862" y="43.2969"/><text fill="#000000" font-family="'Arial'" font-size="14" font-weight="700" lengthAdjust="spacing" textLength="4.874" x="920.3862" y="56.292">&#160;</text><text fill="#000000" font-family="'Arial'" font-size="14" font-weight="700" lengthAdjust="spacing" textLength="57.3535" x="925.2603" y="72.5889">Patient</text><g><title>GDA 1</title><rect fill="#FFFFFF" height="160.4219" style="stroke:#181818;stroke-width:1;" width="10" x="53.0293" y="231.6172"/></g><g><title>e-Med FA</title><rect fill="#FFFFFF" height="160.4219" style="stroke:#181818;stroke-width:1;" width="10" x="519.1533" y="231.6172"/></g><rect fill="none" height="96.1563" rx="5" ry="5" style="stroke:#111827;stroke-width:2;" width="551.0679" x="22.7476" y="303.8828"/><g class="participant-lifeline" data-entity-uid="part1" data-qualified-name="GDA_1" data-source-line="42" id="part1-lifeline"><g><title>GDA 1</title><rect fill="#000000" fill-opacity="0.00000" height="332.7422" width="8" x="54.0293" y="156.1875"/><line style="stroke:#181818;stroke-width:0.5;stroke-dasharray:5,5;" x1="57.7476" x2="57.7476" y1="156.1875" y2="488.9297"/></g></g><g class="participant-lifeline" data-entity-uid="part2" data-qualified-name="eMed_FA" data-source-line="46" id="part2-lifeline"><g><title>e-Med FA</title><rect fill="#000000" fill-opacity="0.00000" height="332.7422" width="8" x="520.1533" y="156.1875"/><line style="stroke:#181818;stroke-width:0.5;stroke-dasharray:5,5;" x1="523.4912" x2="523.4912" y1="156.1875" y2="488.9297"/></g></g><g class="participant-lifeline" data-entity-uid="part3" data-qualified-name="GDA_2" data-source-line="50" id="part3-lifeline"><g><title>GDA 2</title><rect fill="#000000" fill-opacity="0.00000" height="332.7422" width="8" x="829.4829" y="156.1875"/><line style="stroke:#181818;stroke-width:0.5;stroke-dasharray:5,5;" x1="833.2012" x2="833.2012" y1="156.1875" y2="488.9297"/></g></g><g class="participant-lifeline" data-entity-uid="part4" data-qualified-name="Patient" data-source-line="54" id="part4-lifeline"><g><title>Patient</title><rect fill="#000000" fill-opacity="0.00000" height="332.7422" width="8" x="952.374" y="156.1875"/><line style="stroke:#181818;stroke-width:0.5;stroke-dasharray:5,5;" x1="955.686" x2="955.686" y1="156.1875" y2="488.9297"/></g></g><g class="participant participant-head" data-entity-uid="part1" data-qualified-name="GDA_1" data-source-line="42" id="part1-head"><text fill="#000000" font-family="'Arial'" font-size="14" lengthAdjust="spacing" textLength="44.5635" x="32.7476" y="152.8857">GDA 1</text><ellipse cx="58.0293" cy="88.3906" fill="#E2E2F0" rx="8" ry="8" style="stroke:#181818;stroke-width:0.5;"/><path d="M58.0293,96.3906 L58.0293,123.3906 M45.0293,104.3906 L71.0293,104.3906 M58.0293,123.3906 L45.0293,138.3906 M58.0293,123.3906 L71.0293,138.3906" fill="none" style="stroke:#181818;stroke-width:0.5;"/></g><g class="participant participant-tail" data-entity-uid="part1" data-qualified-name="GDA_1" data-source-line="42" id="part1-tail"><text fill="#000000" font-family="'Arial'" font-size="14" lengthAdjust="spacing" textLength="44.5635" x="32.7476" y="500.9248">GDA 1</text><ellipse cx="58.0293" cy="512.7266" fill="#E2E2F0" rx="8" ry="8" style="stroke:#181818;stroke-width:0.5;"/><path d="M58.0293,520.7266 L58.0293,547.7266 M45.0293,528.7266 L71.0293,528.7266 M58.0293,547.7266 L45.0293,562.7266 M58.0293,547.7266 L71.0293,562.7266" fill="none" style="stroke:#181818;stroke-width:0.5;"/></g><g class="participant participant-head" data-entity-uid="part2" data-qualified-name="eMed_FA" data-source-line="46" id="part2-head"><rect fill="#FFFFFF" height="30.2969" rx="5" ry="5" style="stroke:#555555;stroke-width:0.5;" width="79.3242" x="484.4912" y="124.8906"/><text fill="#000000" font-family="'Arial'" font-size="14" lengthAdjust="spacing" textLength="65.3242" x="491.4912" y="144.8857">e-Med FA</text></g><g class="participant participant-tail" data-entity-uid="part2" data-qualified-name="eMed_FA" data-source-line="46" id="part2-tail"><rect fill="#FFFFFF" height="30.2969" rx="5" ry="5" style="stroke:#555555;stroke-width:0.5;" width="79.3242" x="484.4912" y="487.9297"/><text fill="#000000" font-family="'Arial'" font-size="14" lengthAdjust="spacing" textLength="65.3242" x="491.4912" y="507.9248">e-Med FA</text></g><g class="participant participant-head" data-entity-uid="part3" data-qualified-name="GDA_2" data-source-line="50" id="part3-head"><text fill="#000000" font-family="'Arial'" font-size="14" lengthAdjust="spacing" textLength="44.5635" x="808.2012" y="152.8857">GDA 2</text><ellipse cx="833.4829" cy="88.3906" fill="#E2E2F0" rx="8" ry="8" style="stroke:#181818;stroke-width:0.5;"/><path d="M833.4829,96.3906 L833.4829,123.3906 M820.4829,104.3906 L846.4829,104.3906 M833.4829,123.3906 L820.4829,138.3906 M833.4829,123.3906 L846.4829,138.3906" fill="none" style="stroke:#181818;stroke-width:0.5;"/></g><g class="participant participant-tail" data-entity-uid="part3" data-qualified-name="GDA_2" data-source-line="50" id="part3-tail"><text fill="#000000" font-family="'Arial'" font-size="14" lengthAdjust="spacing" textLength="44.5635" x="808.2012" y="500.9248">GDA 2</text><ellipse cx="833.4829" cy="512.7266" fill="#E2E2F0" rx="8" ry="8" style="stroke:#181818;stroke-width:0.5;"/><path d="M833.4829,520.7266 L833.4829,547.7266 M820.4829,528.7266 L846.4829,528.7266 M833.4829,547.7266 L820.4829,562.7266 M833.4829,547.7266 L846.4829,562.7266" fill="none" style="stroke:#181818;stroke-width:0.5;"/></g><g class="participant participant-head" data-entity-uid="part4" data-qualified-name="Patient" data-source-line="54" id="part4-head"><text fill="#000000" font-family="'Arial'" font-size="14" lengthAdjust="spacing" textLength="49.376" x="928.686" y="152.8857">Patient</text><ellipse cx="956.374" cy="88.3906" fill="#E2E2F0" rx="8" ry="8" style="stroke:#181818;stroke-width:0.5;"/><path d="M956.374,96.3906 L956.374,123.3906 M943.374,104.3906 L969.374,104.3906 M956.374,123.3906 L943.374,138.3906 M956.374,123.3906 L969.374,138.3906" fill="none" style="stroke:#181818;stroke-width:0.5;"/></g><g class="participant participant-tail" data-entity-uid="part4" data-qualified-name="Patient" data-source-line="54" id="part4-tail"><text fill="#000000" font-family="'Arial'" font-size="14" lengthAdjust="spacing" textLength="49.376" x="928.686" y="500.9248">Patient</text><ellipse cx="956.374" cy="512.7266" fill="#E2E2F0" rx="8" ry="8" style="stroke:#181818;stroke-width:0.5;"/><path d="M956.374,520.7266 L956.374,547.7266 M943.374,528.7266 L969.374,528.7266 M956.374,547.7266 L943.374,562.7266 M956.374,547.7266 L969.374,562.7266" fill="none" style="stroke:#181818;stroke-width:0.5;"/></g><g><title>GDA 1</title><rect fill="#FFFFFF" height="160.4219" style="stroke:#181818;stroke-width:1;" width="10" x="53.0293" y="231.6172"/></g><g><title>e-Med FA</title><rect fill="#FFFFFF" height="160.4219" style="stroke:#181818;stroke-width:1;" width="10" x="519.1533" y="231.6172"/></g><rect fill="#EEEEEE" height="3" rx="5" ry="5" style="stroke:#EEEEEE;stroke-width:1;" width="1016.3618" x="0" y="187.3359"/><line style="stroke:#000000;stroke-width:1;" x1="0" x2="1016.3618" y1="187.3359" y2="187.3359"/><line style="stroke:#000000;stroke-width:1;" x1="0" x2="1016.3618" y1="190.3359" y2="190.3359"/><rect fill="#EEEEEE" height="24.2969" rx="5" ry="5" style="stroke:#000000;stroke-width:2;" width="196.4854" x="409.9382" y="176.1875"/><text fill="#000000" font-family="'Arial'" font-size="14" font-weight="700" lengthAdjust="spacing" textLength="177.6113" x="415.9382" y="193.1826">Medikationsplan lesen</text><g class="message" data-entity-1="part1" data-entity-2="part2" data-source-line="62" id="msg1"><line style="stroke:#111827;stroke-width:1;" x1="517.1533" x2="507.1533" y1="231.6172" y2="227.6172"/><line style="stroke:#111827;stroke-width:1;" x1="517.1533" x2="507.1533" y1="231.6172" y2="235.6172"/><line style="stroke:#111827;stroke-width:1;" x1="63.0293" x2="518.1533" y1="231.6172" y2="231.6172"/><text fill="#000000" font-family="'Arial'" font-size="13" font-weight="700" lengthAdjust="spacing" textLength="9.0454" x="70.0293" y="226.5513">1</text><text fill="#000000" font-family="'Arial'" font-size="13" lengthAdjust="spacing" textLength="139.9214" x="83.0747" y="226.5513">GET CollectionBundle</text></g><g class="message" data-entity-1="part2" data-entity-2="part2" data-source-line="66" id="msg2"><line style="stroke:#111827;stroke-width:1;" x1="529.1533" x2="571.1533" y1="275.8828" y2="275.8828"/><line style="stroke:#111827;stroke-width:1;" x1="571.1533" x2="571.1533" y1="275.8828" y2="288.8828"/><line style="stroke:#111827;stroke-width:1;" x1="530.1533" x2="571.1533" y1="288.8828" y2="288.8828"/><polygon fill="#111827" points="540.1533,284.8828,530.1533,288.8828,540.1533,292.8828,536.1533,288.8828" style="stroke:#111827;stroke-width:1;"/><text fill="#000000" font-family="'Arial'" font-size="13" font-weight="700" lengthAdjust="spacing" textLength="9.0454" x="536.1533" y="263.2505">2</text><text fill="#000000" font-family="'Arial'" font-size="13" lengthAdjust="spacing" textLength="164.8613" x="549.1987" y="255.6841">Pr&#252;fung auf bestehenden</text><text fill="#000000" font-family="'Arial'" font-size="13" lengthAdjust="spacing" textLength="106.3169" x="549.1987" y="270.8169">Medikationsplan</text></g><path d="M27.7476,303.8828 L88.686,303.8828 L88.686,312.1797 L78.686,322.1797 L22.7476,322.1797 L22.7476,308.8828 A5,5 0 0 1 27.7476,303.8828" fill="#EEF2FF" style="stroke:#111827;stroke-width:1.5;"/><rect fill="none" height="96.1563" rx="5" ry="5" style="stroke:#111827;stroke-width:2;" width="551.0679" x="22.7476" y="303.8828"/><text fill="#000000" font-family="'Arial'" font-size="14" font-weight="700" lengthAdjust="spacing" textLength="20.9385" x="37.7476" y="317.8779">alt</text><text fill="#000000" font-family="'Arial'" font-size="14" font-weight="700" lengthAdjust="spacing" textLength="271.2773" x="103.686" y="318.8779">[kein Medikationsplan vorhanden]</text><g class="message" data-entity-1="part2" data-entity-2="part1" data-source-line="69" id="msg3"><line style="stroke:#111827;stroke-width:1;" x1="64.0293" x2="74.0293" y1="344.6094" y2="340.6094"/><line style="stroke:#111827;stroke-width:1;" x1="64.0293" x2="74.0293" y1="344.6094" y2="348.6094"/><line style="stroke:#111827;stroke-width:1;stroke-dasharray:2,2;" x1="63.0293" x2="518.1533" y1="344.6094" y2="344.6094"/><text fill="#000000" font-family="'Arial'" font-size="13" font-weight="700" lengthAdjust="spacing" textLength="9.0454" x="80.0293" y="339.5435">3</text><text fill="#000000" font-family="'Arial'" font-size="13" lengthAdjust="spacing" textLength="100.5405" x="93.0747" y="339.5435">leeres Ergebnis</text></g><line style="stroke:#111827;stroke-width:1;stroke-dasharray:2,2;" x1="22.7476" x2="573.8154" y1="353.6094" y2="353.6094"/><text fill="#000000" font-family="'Arial'" font-size="14" font-weight="700" lengthAdjust="spacing" textLength="232.832" x="27.7476" y="366.6045">[Medikationsplan vorhanden]</text><g class="message" data-entity-1="part2" data-entity-2="part1" data-source-line="71" id="msg4"><line style="stroke:#111827;stroke-width:1;" x1="59.0293" x2="69.0293" y1="392.0391" y2="388.0391"/><line style="stroke:#111827;stroke-width:1;" x1="59.0293" x2="69.0293" y1="392.0391" y2="396.0391"/><line style="stroke:#111827;stroke-width:1;stroke-dasharray:2,2;" x1="58.0293" x2="523.1533" y1="392.0391" y2="392.0391"/><text fill="#000000" font-family="'Arial'" font-size="13" font-weight="700" lengthAdjust="spacing" textLength="9.0454" x="75.0293" y="386.9731">4</text><text fill="#000000" font-family="'Arial'" font-size="13" lengthAdjust="spacing" textLength="326.5298" x="88.0747" y="386.9731">CollectionBundle (AtEmedBundleMedikationsplan)</text></g><path d="M28,417.0391 L28,465.0391 A5,5 0 0 0 33,470.0391 L549,470.0391 A5,5 0 0 0 554,465.0391 L554,422.0391 L544,412.0391 L33,412.0391 A5,5 0 0 0 28,417.0391" fill="url(#g1fs1sufxyu1zo0)" filter="url(#f1fs1sufxyu1zo)" style="stroke:#8B95A5;stroke-width:1;"/><path d="M544,412.0391 L544,419.5391 A2.5,2.5 0 0 0 546.5,422.0391 L554,422.0391 L544,412.0391" fill="url(#g1fs1sufxyu1zo0)" style="stroke:#8B95A5;stroke-width:1;"/><text fill="#111827" font-family="'Arial'" font-size="14" lengthAdjust="spacing" textLength="494.293" x="35.6624" y="430.0342">Die Fachanwendung liefert den zuletzt gespeicherten Medikationsplan</text><text fill="#111827" font-family="'Arial'" font-size="14" lengthAdjust="spacing" textLength="470.0801" x="35.6624" y="446.3311">(unver&#228;ndert, inkl. aller referenzierten Ressourcen) oder ein leeres</text><text fill="#111827" font-family="'Arial'" font-size="14" lengthAdjust="spacing" textLength="116.6006" x="35.6624" y="462.6279">Ergebnis zur&#252;ck.</text><?plantuml-src bLHDJnin4BtxLup21QG6iO6KW1Ia085UMaL0BnKIygvd4okEdNgzVAJgl-dFw8q_rh4tMRoRNEgzxCxCUpFlsLuddKAuGowwHgktxezoQcMUis8kzP9Rle3KM87soYXZOUyeh3ZBi_dKcbABTKNUzqzKKSouC2zIJo7dgi0eiuPPZHQIc5HWpalbRenst_W2eJEoaglExefxkK98JdOdcsD7DTeuX5yCuB8j08-mdnzrzqGYpl2phuWD6AHdVTwlemypcSqr5WKa5BkB10teUyA5yC8zIpHDaYI3tYd5xcjhd2sH_Ou7_FAsHAkadaSInkDT1T-r22-uDZZs7d-MgBDAwOHR9pEvvDer9FN3QXLiRMjOpQ9jWxVIcyrf93Qsz3nWPArvQHiJWarlGsXNnpfHzJgcq2rDlcneh9chrDQUOzuBwYBaH_jUSsSkpMkae17VvIjBpIjq7ZMHNuyW0UZ0tbbEzyQxmZD7fPHuIe0Nq0ab7OPQqBrxZR1XOVSh2hZXsOph5wefQOHg4UVLoU3qr9-wvOVJW0HukXa5xZLwj9lUT-u5eXGvfjWOhbSFrzk1dd0daPe5CC-E1saDtgGyVFqU4J1UEgFBHOgMiU4GQ3uvfogZYwNY6XGMg64uPAnog7jniL5q3hVZ1o2d5MOUS4cRgP1HL_dCwMe70FluNiFOnf1kn3InxtzpxoKlSqYnS3YZ4L4_wjP0nASSp57ghL6VZQLD8H19htluUSCWvoG5BHOmjbDCjImOqatzRvAsNDWVkV42HVNLOZiW4e4jGngXsXCjMFWVccTS7yPFTV9QOkl4AOavMaTC6bQbGhToCCLYYJARKHotpM7xfIRgzp_-J-K-0Vsqr25m4cF1UZBKArb1x-Z2cT9cg0_0K3LuiolpsCOywaexbiqFmqdoa_y3?></g></svg>