<svg xmlns="http://www.w3.org/2000/svg" xmlns:xlink="http://www.w3.org/1999/xlink" contentStyleType="text/css" data-diagram-type="SEQUENCE" height="712px" preserveAspectRatio="none" style="width:1292px;height:712px;background:#F5F5F5;" version="1.1" viewBox="0 0 1292 712" width="1292px" zoomAndPan="magnify"><?plantuml 1.2026.5?><defs><linearGradient id="g1ms12ck834pu0" x1="50%" x2="50%" y1="0%" y2="100%"><stop offset="0%" stop-color="#E0E5F0"/><stop offset="100%" stop-color="#D1D9E6"/></linearGradient><filter height="300%" id="f1ms12ck834pu" width="300%" x="-1" y="-1"><feGaussianBlur result="blurOut" stdDeviation="2"/><feColorMatrix in="blurOut" result="blurOut2" type="matrix" values="0 0 0 0 0 0 0 0 0 0 0 0 0 0 0 0 0 0 .4 0"/><feOffset dx="4" dy="4" in="blurOut2" result="blurOut3"/><feBlend in="SourceGraphic" in2="blurOut3" mode="normal"/></filter></defs><g><rect fill="#F5F5F5" height="712" style="stroke:none;stroke-width:1;" width="1292" x="0" y="0"/><g class="title" data-source-line="1"><text fill="#000000" font-family="'Arial'" font-size="14" font-weight="700" lengthAdjust="spacing" textLength="83.6172" x="600.8516" y="27.9951">Plan-Write</text></g><rect fill="#9FBAC4" height="662.4609" rx="5" ry="5" style="stroke:#181818;stroke-width:0.5;" width="74.0586" x="113" y="43.2969"/><text fill="#000000" font-family="'Arial'" font-size="14" font-weight="700" lengthAdjust="spacing" textLength="4.874" x="116" y="56.292">&#160;</text><text fill="#000000" font-family="'Arial'" font-size="14" font-weight="700" lengthAdjust="spacing" textLength="48.5625" x="125.748" y="72.5889">GDA 1</text><rect fill="#C48778" height="662.4609" rx="5" ry="5" style="stroke:#181818;stroke-width:0.5;" width="256.9268" x="561.1724" y="43.2969"/><text fill="#000000" font-family="'Arial'" font-size="14" font-weight="700" lengthAdjust="spacing" textLength="4.874" x="564.1724" y="56.292">&#160;</text><text fill="#000000" font-family="'Arial'" font-size="14" font-weight="700" lengthAdjust="spacing" textLength="182.6904" x="598.2905" y="72.5889">e-Med Fachanwendung</text><rect fill="#BEAEBE" height="662.4609" rx="5" ry="5" style="stroke:#181818;stroke-width:0.5;" width="83.8066" x="1061.5381" y="43.2969"/><text fill="#000000" font-family="'Arial'" font-size="14" font-weight="700" lengthAdjust="spacing" textLength="4.874" x="1064.5381" y="56.292">&#160;</text><text fill="#000000" font-family="'Arial'" font-size="14" font-weight="700" lengthAdjust="spacing" textLength="48.5625" x="1084.0342" y="72.5889">GDA 2</text><rect fill="#BAC38B" height="662.4609" rx="5" ry="5" style="stroke:#181818;stroke-width:0.5;" width="77.9756" x="1187.3447" y="43.2969"/><text fill="#000000" font-family="'Arial'" font-size="14" font-weight="700" lengthAdjust="spacing" textLength="4.874" x="1190.3447" y="56.292">&#160;</text><text fill="#000000" font-family="'Arial'" font-size="14" font-weight="700" lengthAdjust="spacing" textLength="57.3535" x="1195.2188" y="72.5889">Patient</text><g><title>GDA 1</title><rect fill="#FFFFFF" height="435.2734" style="stroke:#181818;stroke-width:1;" width="10" x="145.0293" y="166.1875"/></g><g><title>e-Med FA</title><rect fill="#FFFFFF" height="314.25" style="stroke:#181818;stroke-width:1;" width="10" x="684.6357" y="287.2109"/></g><rect fill="none" height="249.9844" rx="5" ry="5" style="stroke:#111827;stroke-width:2;" width="891.271" x="114.7476" y="359.4766"/><g class="participant-lifeline" data-entity-uid="part1" data-qualified-name="GDA_1" data-source-line="42" id="part1-lifeline"><g><title>GDA 1</title><rect fill="#000000" fill-opacity="0.00000" height="470.2734" width="8" x="146.0293" y="156.1875"/><line style="stroke:#181818;stroke-width:0.5;stroke-dasharray:5,5;" x1="149.7476" x2="149.7476" y1="156.1875" y2="626.4609"/></g></g><g class="participant-lifeline" data-entity-uid="part2" data-qualified-name="eMed_FA" data-source-line="46" id="part2-lifeline"><g><title>e-Med FA</title><rect fill="#000000" fill-opacity="0.00000" height="470.2734" width="8" x="685.6357" y="156.1875"/><line style="stroke:#181818;stroke-width:0.5;stroke-dasharray:5,5;" x1="688.9736" x2="688.9736" y1="156.1875" y2="626.4609"/></g></g><g class="participant-lifeline" data-entity-uid="part3" data-qualified-name="GDA_2" data-source-line="50" id="part3-lifeline"><g><title>GDA 2</title><rect fill="#000000" fill-opacity="0.00000" height="470.2734" width="8" x="1099.4414" y="156.1875"/><line style="stroke:#181818;stroke-width:0.5;stroke-dasharray:5,5;" x1="1103.1597" x2="1103.1597" y1="156.1875" y2="626.4609"/></g></g><g class="participant-lifeline" data-entity-uid="part4" data-qualified-name="Patient" data-source-line="54" id="part4-lifeline"><g><title>Patient</title><rect fill="#000000" fill-opacity="0.00000" height="470.2734" width="8" x="1222.3325" y="156.1875"/><line style="stroke:#181818;stroke-width:0.5;stroke-dasharray:5,5;" x1="1225.6445" x2="1225.6445" y1="156.1875" y2="626.4609"/></g></g><g class="participant participant-head" data-entity-uid="part1" data-qualified-name="GDA_1" data-source-line="42" id="part1-head"><text fill="#000000" font-family="'Arial'" font-size="14" lengthAdjust="spacing" textLength="44.5635" x="124.7476" y="152.8857">GDA 1</text><ellipse cx="150.0293" cy="88.3906" fill="#E2E2F0" rx="8" ry="8" style="stroke:#181818;stroke-width:0.5;"/><path d="M150.0293,96.3906 L150.0293,123.3906 M137.0293,104.3906 L163.0293,104.3906 M150.0293,123.3906 L137.0293,138.3906 M150.0293,123.3906 L163.0293,138.3906" fill="none" style="stroke:#181818;stroke-width:0.5;"/></g><g class="participant participant-tail" data-entity-uid="part1" data-qualified-name="GDA_1" data-source-line="42" id="part1-tail"><text fill="#000000" font-family="'Arial'" font-size="14" lengthAdjust="spacing" textLength="44.5635" x="124.7476" y="638.4561">GDA 1</text><ellipse cx="150.0293" cy="650.2578" fill="#E2E2F0" rx="8" ry="8" style="stroke:#181818;stroke-width:0.5;"/><path d="M150.0293,658.2578 L150.0293,685.2578 M137.0293,666.2578 L163.0293,666.2578 M150.0293,685.2578 L137.0293,700.2578 M150.0293,685.2578 L163.0293,700.2578" fill="none" style="stroke:#181818;stroke-width:0.5;"/></g><g class="participant participant-head" data-entity-uid="part2" data-qualified-name="eMed_FA" data-source-line="46" id="part2-head"><rect fill="#FFFFFF" height="30.2969" rx="5" ry="5" style="stroke:#555555;stroke-width:0.5;" width="79.3242" x="649.9736" y="124.8906"/><text fill="#000000" font-family="'Arial'" font-size="14" lengthAdjust="spacing" textLength="65.3242" x="656.9736" y="144.8857">e-Med FA</text></g><g class="participant participant-tail" data-entity-uid="part2" data-qualified-name="eMed_FA" data-source-line="46" id="part2-tail"><rect fill="#FFFFFF" height="30.2969" rx="5" ry="5" style="stroke:#555555;stroke-width:0.5;" width="79.3242" x="649.9736" y="625.4609"/><text fill="#000000" font-family="'Arial'" font-size="14" lengthAdjust="spacing" textLength="65.3242" x="656.9736" y="645.4561">e-Med FA</text></g><g class="participant participant-head" data-entity-uid="part3" data-qualified-name="GDA_2" data-source-line="50" id="part3-head"><text fill="#000000" font-family="'Arial'" font-size="14" lengthAdjust="spacing" textLength="44.5635" x="1078.1597" y="152.8857">GDA 2</text><ellipse cx="1103.4414" cy="88.3906" fill="#E2E2F0" rx="8" ry="8" style="stroke:#181818;stroke-width:0.5;"/><path d="M1103.4414,96.3906 L1103.4414,123.3906 M1090.4414,104.3906 L1116.4414,104.3906 M1103.4414,123.3906 L1090.4414,138.3906 M1103.4414,123.3906 L1116.4414,138.3906" fill="none" style="stroke:#181818;stroke-width:0.5;"/></g><g class="participant participant-tail" data-entity-uid="part3" data-qualified-name="GDA_2" data-source-line="50" id="part3-tail"><text fill="#000000" font-family="'Arial'" font-size="14" lengthAdjust="spacing" textLength="44.5635" x="1078.1597" y="638.4561">GDA 2</text><ellipse cx="1103.4414" cy="650.2578" fill="#E2E2F0" rx="8" ry="8" style="stroke:#181818;stroke-width:0.5;"/><path d="M1103.4414,658.2578 L1103.4414,685.2578 M1090.4414,666.2578 L1116.4414,666.2578 M1103.4414,685.2578 L1090.4414,700.2578 M1103.4414,685.2578 L1116.4414,700.2578" fill="none" style="stroke:#181818;stroke-width:0.5;"/></g><g class="participant participant-head" data-entity-uid="part4" data-qualified-name="Patient" data-source-line="54" id="part4-head"><text fill="#000000" font-family="'Arial'" font-size="14" lengthAdjust="spacing" textLength="49.376" x="1198.6445" y="152.8857">Patient</text><ellipse cx="1226.3325" cy="88.3906" fill="#E2E2F0" rx="8" ry="8" style="stroke:#181818;stroke-width:0.5;"/><path d="M1226.3325,96.3906 L1226.3325,123.3906 M1213.3325,104.3906 L1239.3325,104.3906 M1226.3325,123.3906 L1213.3325,138.3906 M1226.3325,123.3906 L1239.3325,138.3906" fill="none" style="stroke:#181818;stroke-width:0.5;"/></g><g class="participant participant-tail" data-entity-uid="part4" data-qualified-name="Patient" data-source-line="54" id="part4-tail"><text fill="#000000" font-family="'Arial'" font-size="14" lengthAdjust="spacing" textLength="49.376" x="1198.6445" y="638.4561">Patient</text><ellipse cx="1226.3325" cy="650.2578" fill="#E2E2F0" rx="8" ry="8" style="stroke:#181818;stroke-width:0.5;"/><path d="M1226.3325,658.2578 L1226.3325,685.2578 M1213.3325,666.2578 L1239.3325,666.2578 M1226.3325,685.2578 L1213.3325,700.2578 M1226.3325,685.2578 L1239.3325,700.2578" fill="none" style="stroke:#181818;stroke-width:0.5;"/></g><g><title>GDA 1</title><rect fill="#FFFFFF" height="435.2734" style="stroke:#181818;stroke-width:1;" width="10" x="145.0293" y="166.1875"/></g><g><title>e-Med FA</title><rect fill="#FFFFFF" height="314.25" style="stroke:#181818;stroke-width:1;" width="10" x="684.6357" y="287.2109"/></g><path d="M5,176.1875 L5,208.1875 A5,5 0 0 0 10,213.1875 L287,213.1875 A5,5 0 0 0 292,208.1875 L292,181.1875 L282,171.1875 L10,171.1875 A5,5 0 0 0 5,176.1875" fill="url(#g1ms12ck834pu0)" filter="url(#f1ms12ck834pu)" style="stroke:#8B95A5;stroke-width:1;"/><path d="M282,171.1875 L282,178.6875 A2.5,2.5 0 0 0 284.5,181.1875 L292,181.1875 L282,171.1875" fill="url(#g1ms12ck834pu0)" style="stroke:#8B95A5;stroke-width:1;"/><text fill="#111827" font-family="'Arial'" font-size="14" lengthAdjust="spacing" textLength="266.5264" x="11" y="189.1826">Vorbedingung: Nach einem Plan-Read</text><text fill="#111827" font-family="'Arial'" font-size="14" lengthAdjust="spacing" textLength="244.248" x="11" y="205.4795">wird der Medikationsplan bearbeit.</text><rect fill="#EEEEEE" height="3" rx="5" ry="5" style="stroke:#EEEEEE;stroke-width:1;" width="1286.3203" x="0" y="242.9297"/><line style="stroke:#000000;stroke-width:1;" x1="0" x2="1286.3203" y1="242.9297" y2="242.9297"/><line style="stroke:#000000;stroke-width:1;" x1="0" x2="1286.3203" y1="245.9297" y2="245.9297"/><rect fill="#EEEEEE" height="24.2969" rx="5" ry="5" style="stroke:#000000;stroke-width:2;" width="231.6768" x="527.3218" y="231.7813"/><text fill="#000000" font-family="'Arial'" font-size="14" font-weight="700" lengthAdjust="spacing" textLength="212.8027" x="533.3218" y="248.7764">Medikationsplan schreiben</text><g class="message" data-entity-1="part1" data-entity-2="part2" data-source-line="69" id="msg1"><line style="stroke:#111827;stroke-width:1;" x1="682.6357" x2="672.6357" y1="287.2109" y2="283.2109"/><line style="stroke:#111827;stroke-width:1;" x1="682.6357" x2="672.6357" y1="287.2109" y2="291.2109"/><line style="stroke:#111827;stroke-width:1;" x1="155.0293" x2="683.6357" y1="287.2109" y2="287.2109"/><text fill="#000000" font-family="'Arial'" font-size="13" font-weight="700" lengthAdjust="spacing" textLength="9.0454" x="162.0293" y="282.145">1</text><text fill="#000000" font-family="'Arial'" font-size="13" lengthAdjust="spacing" textLength="405.0122" x="175.0747" y="282.145">POST $plan-write Medikationsplan-Transaction-Bundle + ETag</text></g><g class="message" data-entity-1="part2" data-entity-2="part2" data-source-line="72" id="msg2"><line style="stroke:#111827;stroke-width:1;" x1="694.6357" x2="736.6357" y1="331.4766" y2="331.4766"/><line style="stroke:#111827;stroke-width:1;" x1="736.6357" x2="736.6357" y1="331.4766" y2="344.4766"/><line style="stroke:#111827;stroke-width:1;" x1="695.6357" x2="736.6357" y1="344.4766" y2="344.4766"/><polygon fill="#111827" points="705.6357,340.4766,695.6357,344.4766,705.6357,348.4766,701.6357,344.4766" style="stroke:#111827;stroke-width:1;stroke-linejoin:miter;stroke-miterlimit:10;"/><text fill="#000000" font-family="'Arial'" font-size="13" font-weight="700" lengthAdjust="spacing" textLength="9.0454" x="701.6357" y="318.8442">2</text><text fill="#000000" font-family="'Arial'" font-size="13" lengthAdjust="spacing" textLength="130.165" x="714.6812" y="311.2778">ETag im Header ==</text><text fill="#000000" font-family="'Arial'" font-size="13" lengthAdjust="spacing" textLength="176.0205" x="714.6812" y="326.4106">ETag der Fachanwendung?</text></g><path d="M119.7476,359.4766 L180.686,359.4766 L180.686,367.7734 L170.686,377.7734 L114.7476,377.7734 L114.7476,364.4766 A5,5 0 0 1 119.7476,359.4766" fill="#EEF2FF" style="stroke:#111827;stroke-width:1.5;"/><rect fill="none" height="249.9844" rx="5" ry="5" style="stroke:#111827;stroke-width:2;" width="891.271" x="114.7476" y="359.4766"/><text fill="#000000" font-family="'Arial'" font-size="14" font-weight="700" lengthAdjust="spacing" textLength="20.9385" x="129.7476" y="373.4717">alt</text><text fill="#000000" font-family="'Arial'" font-size="14" font-weight="700" lengthAdjust="spacing" textLength="59.0967" x="195.686" y="374.4717">[g&#252;ltig]</text><g class="message" data-entity-1="part2" data-entity-2="part2" data-source-line="75" id="msg3"><line style="stroke:#111827;stroke-width:1;" x1="694.6357" x2="736.6357" y1="415.3359" y2="415.3359"/><line style="stroke:#111827;stroke-width:1;" x1="736.6357" x2="736.6357" y1="415.3359" y2="428.3359"/><line style="stroke:#111827;stroke-width:1;" x1="695.6357" x2="736.6357" y1="428.3359" y2="428.3359"/><polygon fill="#111827" points="705.6357,424.3359,695.6357,428.3359,705.6357,432.3359,701.6357,428.3359" style="stroke:#111827;stroke-width:1;stroke-linejoin:miter;stroke-miterlimit:10;"/><text fill="#000000" font-family="'Arial'" font-size="13" font-weight="700" lengthAdjust="spacing" textLength="9.0454" x="701.6357" y="402.7036">3</text><text fill="#000000" font-family="'Arial'" font-size="13" lengthAdjust="spacing" textLength="184.5835" x="714.6812" y="395.1372">Validierung des neuen Plans</text><text fill="#000000" font-family="'Arial'" font-size="13" lengthAdjust="spacing" textLength="269.3374" x="714.6812" y="410.27">(keine unzul&#228;ssigen Zustands&#252;berg&#228;nge)</text></g><g class="message" data-entity-1="part2" data-entity-2="part2" data-source-line="76" id="msg4"><line style="stroke:#111827;stroke-width:1;" x1="694.6357" x2="736.6357" y1="472.6016" y2="472.6016"/><line style="stroke:#111827;stroke-width:1;" x1="736.6357" x2="736.6357" y1="472.6016" y2="485.6016"/><line style="stroke:#111827;stroke-width:1;" x1="695.6357" x2="736.6357" y1="485.6016" y2="485.6016"/><polygon fill="#111827" points="705.6357,481.6016,695.6357,485.6016,705.6357,489.6016,701.6357,485.6016" style="stroke:#111827;stroke-width:1;stroke-linejoin:miter;stroke-miterlimit:10;"/><text fill="#000000" font-family="'Arial'" font-size="13" font-weight="700" lengthAdjust="spacing" textLength="9.0454" x="701.6357" y="459.9692">4</text><text fill="#000000" font-family="'Arial'" font-size="13" lengthAdjust="spacing" textLength="182.1968" x="714.6812" y="452.4028">Persistiert neue Version des</text><text fill="#000000" font-family="'Arial'" font-size="13" lengthAdjust="spacing" textLength="113.0898" x="714.6812" y="467.5356">Medikationsplans</text></g><path d="M553,503.6016 L553,519.6016 A5,5 0 0 0 558,524.6016 L817,524.6016 A5,5 0 0 0 822,519.6016 L822,508.6016 L812,498.6016 L558,498.6016 A5,5 0 0 0 553,503.6016" fill="url(#g1ms12ck834pu0)" filter="url(#f1ms12ck834pu)" style="stroke:#8B95A5;stroke-width:1;"/><path d="M812,498.6016 L812,506.1016 A2.5,2.5 0 0 0 814.5,508.6016 L822,508.6016 L812,498.6016" fill="url(#g1ms12ck834pu0)" style="stroke:#8B95A5;stroke-width:1;"/><text fill="#111827" font-family="'Arial'" font-size="14" lengthAdjust="spacing" textLength="248.3359" x="559" y="516.5967">Neuer Medikationsplan gespeichert</text><g class="message" data-entity-1="part2" data-entity-2="part1" data-source-line="82" id="msg5"><line style="stroke:#111827;stroke-width:1;" x1="156.0293" x2="166.0293" y1="554.0313" y2="550.0313"/><line style="stroke:#111827;stroke-width:1;" x1="156.0293" x2="166.0293" y1="554.0313" y2="558.0313"/><line style="stroke:#111827;stroke-width:1;stroke-dasharray:2,2;" x1="155.0293" x2="683.6357" y1="554.0313" y2="554.0313"/><text fill="#000000" font-family="'Arial'" font-size="13" font-weight="700" lengthAdjust="spacing" textLength="9.0454" x="172.0293" y="548.9653">5</text><text fill="#000000" font-family="'Arial'" font-size="13" lengthAdjust="spacing" textLength="18.7573" x="185.0747" y="548.9653">OK</text></g><line style="stroke:#111827;stroke-width:1;stroke-dasharray:2,2;" x1="114.7476" x2="1006.0186" y1="563.0313" y2="563.0313"/><text fill="#000000" font-family="'Arial'" font-size="14" font-weight="700" lengthAdjust="spacing" textLength="79.0303" x="119.7476" y="576.0264">[ung&#252;ltig]</text><g class="message" data-entity-1="part2" data-entity-2="part1" data-source-line="86" id="msg6"><line style="stroke:#111827;stroke-width:1;" x1="151.0293" x2="161.0293" y1="601.4609" y2="597.4609"/><line style="stroke:#111827;stroke-width:1;" x1="151.0293" x2="161.0293" y1="601.4609" y2="605.4609"/><line style="stroke:#111827;stroke-width:1;stroke-dasharray:2,2;" x1="150.0293" x2="688.6357" y1="601.4609" y2="601.4609"/><text fill="#000000" font-family="'Arial'" font-size="13" font-weight="700" lengthAdjust="spacing" textLength="9.0454" x="167.0293" y="596.395">6</text><text fill="#000000" font-family="'Arial'" font-size="13" lengthAdjust="spacing" textLength="40.6694" x="180.0747" y="596.395">Fehler</text></g><?plantuml-src TLJRRXen47ttLun87rfLMsL9Q4WaKf4qj5BL12KqbIgaoBiU5el5IsrlI5FrR_8PUUF7EZQmyG8nF7ZdScRE6TjMsXoXdtCL_TJI8ZCJgMPSyoaaXHQepukyqB2txrVevUaaqqMfn2fYr7A_8CACkIZcKcKmuha9aLTfMg66E0GLEE9bRdk5ifTyYj3eQidpnkw86_c841_kTjRR3c9KOH7-Ce2pJGAuZwtHVhGdOd6C7rr4A40xEMxnLcKTZ6KwKMWCn6Ix3WYrwRlFXN347KhGJHp7xUOHsMugQQmkaVqB6_pwPuOwbseIKBYus1NmGmc_mPN0eVRukqILBfdskROobJEkR8rIow-DWAsn-bKFsXPuoxqUJisnbgNf4hfQ5_DDORonhgqtxQfOEPQr3iZqXJgVrJXMo4lNrinnrFJiWioNyitwPCwAXu11pRvBLvOK3z0OAWB_t8KOe05xnoEwDquLdbeA9STT3Dn0muSq62f1z-uXoFKBe-yeeCVJCLTpYYcfXUKYpFF3zj6HEtMp5wK1AU6kr_NOg-pkRdXNkUc14kIOOAsvPjLSSqTsdrk9LCmdy_IWdLJ9QvTBN-q30CPBMwXocg2cVMhbFQTRwTLWpD_GuXvNyh3RGYVeL2VM9t198W3IePykNwrhv8BDfHPq-pKGKJcXSeKoC_82KQ9aQJ_usWwPiKvdAyoaOuqoGGMT3cFBgKIdfsiLJw1_TJE0DouschjdSXCX6cYkZ6DIgEYCpXSzgk_XOi2pWDyAZQrd4mK5N2X8kjn4XtXqEaFbJUwZDlTF19XRo1RFkPKPaE2xu6vvBeL4xGwAG0CAwJdmWfcXUZjn-a6f7ijyyMICpCZtgpIMAs4MppIKRF6aCdpt2dWVjP66Pggj1uPRPoYKgpHK6yeO0g7_or3NAW1SKkxso38qCvJfcD1T_MfiGIzkD7v89t3rZJ6anu_OL9Ay4jh3SKxrd5lWng6hcQevAV4V?></g></svg>