<svg xmlns="http://www.w3.org/2000/svg" xmlns:xlink="http://www.w3.org/1999/xlink" contentStyleType="text/css" data-diagram-type="SEQUENCE" height="575px" preserveAspectRatio="none" style="width:956px;height:575px;background:#F5F5F5;" version="1.1" viewBox="0 0 956 575" width="956px" zoomAndPan="magnify"><?plantuml 1.2026.5?><defs><linearGradient id="g97noissmegq20" x1="50%" x2="50%" y1="0%" y2="100%"><stop offset="0%" stop-color="#E0E5F0"/><stop offset="100%" stop-color="#D1D9E6"/></linearGradient><filter height="300%" id="f97noissmegq2" width="300%" x="-1" y="-1"><feGaussianBlur result="blurOut" stdDeviation="2"/><feColorMatrix in="blurOut" result="blurOut2" type="matrix" values="0 0 0 0 0 0 0 0 0 0 0 0 0 0 0 0 0 0 .4 0"/><feOffset dx="4" dy="4" in="blurOut2" result="blurOut3"/><feBlend in="SourceGraphic" in2="blurOut3" mode="normal"/></filter></defs><g><rect fill="#F5F5F5" height="575" style="stroke:none;stroke-width:1;" width="956" x="0" y="0"/><g class="title" data-source-line="1"><text fill="#000000" font-family="'Arial'" font-size="14" font-weight="700" lengthAdjust="spacing" textLength="143.0283" x="403.2119" y="27.9951">Plan-History-Read</text></g><rect fill="#9FBAC4" height="524.9297" rx="5" ry="5" style="stroke:#181818;stroke-width:0.5;" width="74.0586" x="36" y="43.2969"/><text fill="#000000" font-family="'Arial'" font-size="14" font-weight="700" lengthAdjust="spacing" textLength="4.874" x="39" y="56.292">&#160;</text><text fill="#000000" font-family="'Arial'" font-size="14" font-weight="700" lengthAdjust="spacing" textLength="48.5625" x="48.748" y="72.5889">GDA 1</text><rect fill="#C48778" height="524.9297" rx="5" ry="5" style="stroke:#181818;stroke-width:0.5;" width="256.9268" x="329.7803" y="43.2969"/><text fill="#000000" font-family="'Arial'" font-size="14" font-weight="700" lengthAdjust="spacing" textLength="4.874" x="332.7803" y="56.292">&#160;</text><text fill="#000000" font-family="'Arial'" font-size="14" font-weight="700" lengthAdjust="spacing" textLength="182.6904" x="366.8984" y="72.5889">e-Med Fachanwendung</text><rect fill="#BEAEBE" height="524.9297" rx="5" ry="5" style="stroke:#181818;stroke-width:0.5;" width="83.8066" x="725.6699" y="43.2969"/><text fill="#000000" font-family="'Arial'" font-size="14" font-weight="700" lengthAdjust="spacing" textLength="4.874" x="728.6699" y="56.292">&#160;</text><text fill="#000000" font-family="'Arial'" font-size="14" font-weight="700" lengthAdjust="spacing" textLength="48.5625" x="748.166" y="72.5889">GDA 2</text><rect fill="#BAC38B" height="524.9297" rx="5" ry="5" style="stroke:#181818;stroke-width:0.5;" width="77.9756" x="851.4766" y="43.2969"/><text fill="#000000" font-family="'Arial'" font-size="14" font-weight="700" lengthAdjust="spacing" textLength="4.874" x="854.4766" y="56.292">&#160;</text><text fill="#000000" font-family="'Arial'" font-size="14" font-weight="700" lengthAdjust="spacing" textLength="57.3535" x="859.3506" y="72.5889">Patient</text><g><title>GDA 1</title><rect fill="#FFFFFF" height="160.4219" style="stroke:#181818;stroke-width:1;" width="10" x="68.0293" y="231.6172"/></g><g><title>e-Med FA</title><rect fill="#FFFFFF" height="160.4219" style="stroke:#181818;stroke-width:1;" width="10" x="453.2437" y="231.6172"/></g><rect fill="none" height="96.1563" rx="5" ry="5" style="stroke:#111827;stroke-width:2;" width="470.1582" x="37.7476" y="303.8828"/><g class="participant-lifeline" data-entity-uid="part1" data-qualified-name="GDA_1" data-source-line="42" id="part1-lifeline"><g><title>GDA 1</title><rect fill="#000000" fill-opacity="0.00000" height="332.7422" width="8" x="69.0293" y="156.1875"/><line style="stroke:#181818;stroke-width:0.5;stroke-dasharray:5,5;" x1="72.7476" x2="72.7476" y1="156.1875" y2="488.9297"/></g></g><g class="participant-lifeline" data-entity-uid="part2" data-qualified-name="eMed_FA" data-source-line="46" id="part2-lifeline"><g><title>e-Med FA</title><rect fill="#000000" fill-opacity="0.00000" height="332.7422" width="8" x="454.2437" y="156.1875"/><line style="stroke:#181818;stroke-width:0.5;stroke-dasharray:5,5;" x1="457.5815" x2="457.5815" y1="156.1875" y2="488.9297"/></g></g><g class="participant-lifeline" data-entity-uid="part3" data-qualified-name="GDA_2" data-source-line="50" id="part3-lifeline"><g><title>GDA 2</title><rect fill="#000000" fill-opacity="0.00000" height="332.7422" width="8" x="763.5732" y="156.1875"/><line style="stroke:#181818;stroke-width:0.5;stroke-dasharray:5,5;" x1="767.2915" x2="767.2915" y1="156.1875" y2="488.9297"/></g></g><g class="participant-lifeline" data-entity-uid="part4" data-qualified-name="Patient" data-source-line="54" id="part4-lifeline"><g><title>Patient</title><rect fill="#000000" fill-opacity="0.00000" height="332.7422" width="8" x="886.4644" y="156.1875"/><line style="stroke:#181818;stroke-width:0.5;stroke-dasharray:5,5;" x1="889.7764" x2="889.7764" y1="156.1875" y2="488.9297"/></g></g><g class="participant participant-head" data-entity-uid="part1" data-qualified-name="GDA_1" data-source-line="42" id="part1-head"><text fill="#000000" font-family="'Arial'" font-size="14" lengthAdjust="spacing" textLength="44.5635" x="47.7476" y="152.8857">GDA 1</text><ellipse cx="73.0293" cy="88.3906" fill="#E2E2F0" rx="8" ry="8" style="stroke:#181818;stroke-width:0.5;"/><path d="M73.0293,96.3906 L73.0293,123.3906 M60.0293,104.3906 L86.0293,104.3906 M73.0293,123.3906 L60.0293,138.3906 M73.0293,123.3906 L86.0293,138.3906" fill="none" style="stroke:#181818;stroke-width:0.5;"/></g><g class="participant participant-tail" data-entity-uid="part1" data-qualified-name="GDA_1" data-source-line="42" id="part1-tail"><text fill="#000000" font-family="'Arial'" font-size="14" lengthAdjust="spacing" textLength="44.5635" x="47.7476" y="500.9248">GDA 1</text><ellipse cx="73.0293" cy="512.7266" fill="#E2E2F0" rx="8" ry="8" style="stroke:#181818;stroke-width:0.5;"/><path d="M73.0293,520.7266 L73.0293,547.7266 M60.0293,528.7266 L86.0293,528.7266 M73.0293,547.7266 L60.0293,562.7266 M73.0293,547.7266 L86.0293,562.7266" fill="none" style="stroke:#181818;stroke-width:0.5;"/></g><g class="participant participant-head" data-entity-uid="part2" data-qualified-name="eMed_FA" data-source-line="46" id="part2-head"><rect fill="#FFFFFF" height="30.2969" rx="5" ry="5" style="stroke:#555555;stroke-width:0.5;" width="79.3242" x="418.5815" y="124.8906"/><text fill="#000000" font-family="'Arial'" font-size="14" lengthAdjust="spacing" textLength="65.3242" x="425.5815" y="144.8857">e-Med FA</text></g><g class="participant participant-tail" data-entity-uid="part2" data-qualified-name="eMed_FA" data-source-line="46" id="part2-tail"><rect fill="#FFFFFF" height="30.2969" rx="5" ry="5" style="stroke:#555555;stroke-width:0.5;" width="79.3242" x="418.5815" y="487.9297"/><text fill="#000000" font-family="'Arial'" font-size="14" lengthAdjust="spacing" textLength="65.3242" x="425.5815" y="507.9248">e-Med FA</text></g><g class="participant participant-head" data-entity-uid="part3" data-qualified-name="GDA_2" data-source-line="50" id="part3-head"><text fill="#000000" font-family="'Arial'" font-size="14" lengthAdjust="spacing" textLength="44.5635" x="742.2915" y="152.8857">GDA 2</text><ellipse cx="767.5732" cy="88.3906" fill="#E2E2F0" rx="8" ry="8" style="stroke:#181818;stroke-width:0.5;"/><path d="M767.5732,96.3906 L767.5732,123.3906 M754.5732,104.3906 L780.5732,104.3906 M767.5732,123.3906 L754.5732,138.3906 M767.5732,123.3906 L780.5732,138.3906" fill="none" style="stroke:#181818;stroke-width:0.5;"/></g><g class="participant participant-tail" data-entity-uid="part3" data-qualified-name="GDA_2" data-source-line="50" id="part3-tail"><text fill="#000000" font-family="'Arial'" font-size="14" lengthAdjust="spacing" textLength="44.5635" x="742.2915" y="500.9248">GDA 2</text><ellipse cx="767.5732" cy="512.7266" fill="#E2E2F0" rx="8" ry="8" style="stroke:#181818;stroke-width:0.5;"/><path d="M767.5732,520.7266 L767.5732,547.7266 M754.5732,528.7266 L780.5732,528.7266 M767.5732,547.7266 L754.5732,562.7266 M767.5732,547.7266 L780.5732,562.7266" fill="none" style="stroke:#181818;stroke-width:0.5;"/></g><g class="participant participant-head" data-entity-uid="part4" data-qualified-name="Patient" data-source-line="54" id="part4-head"><text fill="#000000" font-family="'Arial'" font-size="14" lengthAdjust="spacing" textLength="49.376" x="862.7764" y="152.8857">Patient</text><ellipse cx="890.4644" cy="88.3906" fill="#E2E2F0" rx="8" ry="8" style="stroke:#181818;stroke-width:0.5;"/><path d="M890.4644,96.3906 L890.4644,123.3906 M877.4644,104.3906 L903.4644,104.3906 M890.4644,123.3906 L877.4644,138.3906 M890.4644,123.3906 L903.4644,138.3906" fill="none" style="stroke:#181818;stroke-width:0.5;"/></g><g class="participant participant-tail" data-entity-uid="part4" data-qualified-name="Patient" data-source-line="54" id="part4-tail"><text fill="#000000" font-family="'Arial'" font-size="14" lengthAdjust="spacing" textLength="49.376" x="862.7764" y="500.9248">Patient</text><ellipse cx="890.4644" cy="512.7266" fill="#E2E2F0" rx="8" ry="8" style="stroke:#181818;stroke-width:0.5;"/><path d="M890.4644,520.7266 L890.4644,547.7266 M877.4644,528.7266 L903.4644,528.7266 M890.4644,547.7266 L877.4644,562.7266 M890.4644,547.7266 L903.4644,562.7266" fill="none" style="stroke:#181818;stroke-width:0.5;"/></g><g><title>GDA 1</title><rect fill="#FFFFFF" height="160.4219" style="stroke:#181818;stroke-width:1;" width="10" x="68.0293" y="231.6172"/></g><g><title>e-Med FA</title><rect fill="#FFFFFF" height="160.4219" style="stroke:#181818;stroke-width:1;" width="10" x="453.2437" y="231.6172"/></g><rect fill="#EEEEEE" height="3" rx="5" ry="5" style="stroke:#EEEEEE;stroke-width:1;" width="950.4521" x="0" y="187.3359"/><line style="stroke:#000000;stroke-width:1;" x1="0" x2="950.4521" y1="187.3359" y2="187.3359"/><line style="stroke:#000000;stroke-width:1;" x1="0" x2="950.4521" y1="190.3359" y2="190.3359"/><rect fill="#EEEEEE" height="24.2969" rx="5" ry="5" style="stroke:#000000;stroke-width:2;" width="196.4854" x="376.9834" y="176.1875"/><text fill="#000000" font-family="'Arial'" font-size="14" font-weight="700" lengthAdjust="spacing" textLength="177.6113" x="382.9834" y="193.1826">Medikationsplan lesen</text><g class="message" data-entity-1="part1" data-entity-2="part2" data-source-line="62" id="msg1"><line style="stroke:#111827;stroke-width:1;" x1="451.2437" x2="441.2437" y1="231.6172" y2="227.6172"/><line style="stroke:#111827;stroke-width:1;" x1="451.2437" x2="441.2437" y1="231.6172" y2="235.6172"/><line style="stroke:#111827;stroke-width:1;" x1="78.0293" x2="452.2437" y1="231.6172" y2="231.6172"/><text fill="#000000" font-family="'Arial'" font-size="13" font-weight="700" lengthAdjust="spacing" textLength="9.0454" x="85.0293" y="226.5513">1</text><text fill="#000000" font-family="'Arial'" font-size="13" lengthAdjust="spacing" textLength="255.6201" x="98.0747" y="226.5513">GET Medikationsplan-Collection-Bundle</text></g><g class="message" data-entity-1="part2" data-entity-2="part2" data-source-line="66" id="msg2"><line style="stroke:#111827;stroke-width:1;" x1="463.2437" x2="505.2437" y1="275.8828" y2="275.8828"/><line style="stroke:#111827;stroke-width:1;" x1="505.2437" x2="505.2437" y1="275.8828" y2="288.8828"/><line style="stroke:#111827;stroke-width:1;" x1="464.2437" x2="505.2437" y1="288.8828" y2="288.8828"/><polygon fill="#111827" points="474.2437,284.8828,464.2437,288.8828,474.2437,292.8828,470.2437,288.8828" style="stroke:#111827;stroke-width:1;stroke-linejoin:miter;stroke-miterlimit:10;"/><text fill="#000000" font-family="'Arial'" font-size="13" font-weight="700" lengthAdjust="spacing" textLength="9.0454" x="470.2437" y="263.2505">2</text><text fill="#000000" font-family="'Arial'" font-size="13" lengthAdjust="spacing" textLength="164.8613" x="483.2891" y="255.6841">Pr&#252;fung auf bestehenden</text><text fill="#000000" font-family="'Arial'" font-size="13" lengthAdjust="spacing" textLength="106.3169" x="483.2891" y="270.8169">Medikationsplan</text></g><path d="M42.7476,303.8828 L103.686,303.8828 L103.686,312.1797 L93.686,322.1797 L37.7476,322.1797 L37.7476,308.8828 A5,5 0 0 1 42.7476,303.8828" fill="#EEF2FF" style="stroke:#111827;stroke-width:1.5;"/><rect fill="none" height="96.1563" rx="5" ry="5" style="stroke:#111827;stroke-width:2;" width="470.1582" x="37.7476" y="303.8828"/><text fill="#000000" font-family="'Arial'" font-size="14" font-weight="700" lengthAdjust="spacing" textLength="20.9385" x="52.7476" y="317.8779">alt</text><text fill="#000000" font-family="'Arial'" font-size="14" font-weight="700" lengthAdjust="spacing" textLength="271.2773" x="118.686" y="318.8779">[kein Medikationsplan vorhanden]</text><g class="message" data-entity-1="part2" data-entity-2="part1" data-source-line="69" id="msg3"><line style="stroke:#111827;stroke-width:1;" x1="79.0293" x2="89.0293" y1="344.6094" y2="340.6094"/><line style="stroke:#111827;stroke-width:1;" x1="79.0293" x2="89.0293" y1="344.6094" y2="348.6094"/><line style="stroke:#111827;stroke-width:1;stroke-dasharray:2,2;" x1="78.0293" x2="452.2437" y1="344.6094" y2="344.6094"/><text fill="#000000" font-family="'Arial'" font-size="13" font-weight="700" lengthAdjust="spacing" textLength="9.0454" x="95.0293" y="339.5435">3</text><text fill="#000000" font-family="'Arial'" font-size="13" lengthAdjust="spacing" textLength="100.5405" x="108.0747" y="339.5435">leeres Ergebnis</text></g><line style="stroke:#111827;stroke-width:1;stroke-dasharray:2,2;" x1="37.7476" x2="507.9058" y1="353.6094" y2="353.6094"/><text fill="#000000" font-family="'Arial'" font-size="14" font-weight="700" lengthAdjust="spacing" textLength="232.832" x="42.7476" y="366.6045">[Medikationsplan vorhanden]</text><g class="message" data-entity-1="part2" data-entity-2="part1" data-source-line="71" id="msg4"><line style="stroke:#111827;stroke-width:1;" x1="74.0293" x2="84.0293" y1="392.0391" y2="388.0391"/><line style="stroke:#111827;stroke-width:1;" x1="74.0293" x2="84.0293" y1="392.0391" y2="396.0391"/><line style="stroke:#111827;stroke-width:1;stroke-dasharray:2,2;" x1="73.0293" x2="457.2437" y1="392.0391" y2="392.0391"/><text fill="#000000" font-family="'Arial'" font-size="13" font-weight="700" lengthAdjust="spacing" textLength="9.0454" x="90.0293" y="386.9731">4</text><text fill="#000000" font-family="'Arial'" font-size="13" lengthAdjust="spacing" textLength="225.2593" x="103.0747" y="386.9731">Medikationsplan-Collection-Bundle</text></g><path d="M5,417.0391 L5,465.0391 A5,5 0 0 0 10,470.0391 L519,470.0391 A5,5 0 0 0 524,465.0391 L524,422.0391 L514,412.0391 L10,412.0391 A5,5 0 0 0 5,417.0391" fill="url(#g97noissmegq20)" filter="url(#f97noissmegq2)" style="stroke:#8B95A5;stroke-width:1;"/><path d="M514,412.0391 L514,419.5391 A2.5,2.5 0 0 0 516.5,422.0391 L524,422.0391 L514,412.0391" fill="url(#g97noissmegq20)" style="stroke:#8B95A5;stroke-width:1;"/><text fill="#111827" font-family="'Arial'" font-size="14" lengthAdjust="spacing" textLength="494.293" x="11" y="430.0342">Die Fachanwendung liefert den zuletzt gespeicherten Medikationsplan</text><text fill="#111827" font-family="'Arial'" font-size="14" lengthAdjust="spacing" textLength="470.0801" x="11" y="446.3311">(unver&#228;ndert, inkl. aller referenzierten Ressourcen) oder ein leeres</text><text fill="#111827" font-family="'Arial'" font-size="14" lengthAdjust="spacing" textLength="116.6006" x="11" y="462.6279">Ergebnis zur&#252;ck.</text><?plantuml-src bLJTJjim5BxtKnoLcqqYY0Gw2bAH2XIusLGLTeU4dEIajMhip77uwRItsMFiZXVRiPi6fwqqpRc9pyztllCTsrPOYJ2HN4MtehBQl4LJv3ch5aALtF0dIBN9qLnggGti7VeLUdcsc1bTgxo9AFhk2oAgES_rYr0pABYiCF0qQKQXWJW4pR7WjRJNMjbl_0cXDpA2ozxkY3knH8YFTpkxj8COfIt2JmPmiTa07cA_E8psyZW_nIyk8XHWa9xsUR-rtiz5jb1OLH2JRHeqDA3zXEUvQzoX16pYE1ua9sIxQwMnfaRsAoHu-rQYaK8jWXR6urq1trNkVx0HEDGUVzIeibMd4swio4J9bUsqrFTh8s1hh7vrWxO5tdAlXzDnh6L9NCB86FsoAOmtThNrfbqLMyUgrX6PReXvsUcnHLwvjcQEHUAx2p8_oYVToLperw23ZdsNhYpLhz1xK0H-DO8Oe0TxfmNT6wSAp-ZAESTZ3Bo2dW_fCLGvtRlN8DSlZBvY3jSyctFrGZ4rKLWjmhmy7foSk5DNVYWDI0cFroEFtMIFTiExoea7If5ZYXroIKiksP4zuLOW5VF9F3iQf6toskNIc_y0WF7QQbK_fMWO6mw1-8a5HMbLbVGYWSGA5Go7ZAqKYixFrnsTmStuVZCX8kKbPcuVNT1q9JAY8PuvtNMFm3xs3GvRAnG5q1Fp_gTmulAwW1GhYtFYZEf1RHGaF6bXWK9jSN_MXgP4IQH5MyCru8cSKMzei8AncM6gHCMGhkv_W_oxVw3NS4E3ZgcLGUNCludw6Pi3kTywhmHkd3efi41Z2Kd1ifPebnPcM9KeiZdPSLiFzgbM1Ft-sxrMTX_euP87m8cl0UF0K2t5AdLAbqxN9aFr6JH5WzDtfHTRwqLLQKZPui2V9iVyBm00?></g></svg>