<svg xmlns="http://www.w3.org/2000/svg" xmlns:xlink="http://www.w3.org/1999/xlink" contentStyleType="text/css" data-diagram-type="SEQUENCE" height="848px" preserveAspectRatio="none" style="width:1154px;height:848px;background:#F5F5F5;" version="1.1" viewBox="0 0 1154 848" width="1154px" zoomAndPan="magnify"><?plantuml 1.2026.4beta2?><defs><linearGradient id="gehxvdmdqsnc40" x1="50%" x2="50%" y1="0%" y2="100%"><stop offset="0%" stop-color="#E0E5F0"/><stop offset="100%" stop-color="#D1D9E6"/></linearGradient><filter height="300%" id="fehxvdmdqsnc4" width="300%" x="-1" y="-1"><feGaussianBlur result="blurOut" stdDeviation="2"/><feColorMatrix in="blurOut" result="blurOut2" type="matrix" values="0 0 0 0 0 0 0 0 0 0 0 0 0 0 0 0 0 0 .4 0"/><feOffset dx="4" dy="4" in="blurOut2" result="blurOut3"/><feBlend in="SourceGraphic" in2="blurOut3" mode="normal"/></filter></defs><g><rect fill="#F5F5F5" height="848" style="stroke:none;stroke-width:1;" width="1154" x="0" y="0"/><g class="title" data-source-line="1"><text fill="#000000" font-family="'Arial'" font-size="14" font-weight="700" lengthAdjust="spacing" textLength="170.8438" x="488.0952" y="27.9951">Read-to-Write-Zugriff</text></g><rect fill="#9FBAC4" height="797.7188" rx="5" ry="5" style="stroke:#181818;stroke-width:0.5;" width="74.0586" x="85" y="43.2969"/><text fill="#000000" font-family="'Arial'" font-size="14" font-weight="700" lengthAdjust="spacing" textLength="4.874" x="88" y="56.292">&#160;</text><text fill="#000000" font-family="'Arial'" font-size="14" font-weight="700" lengthAdjust="spacing" textLength="48.5625" x="97.748" y="72.5889">GDA 1</text><rect fill="#C48778" height="797.7188" rx="5" ry="5" style="stroke:#181818;stroke-width:0.5;" width="256.9268" x="383.0039" y="43.2969"/><text fill="#000000" font-family="'Arial'" font-size="14" font-weight="700" lengthAdjust="spacing" textLength="4.874" x="386.0039" y="56.292">&#160;</text><text fill="#000000" font-family="'Arial'" font-size="14" font-weight="700" lengthAdjust="spacing" textLength="182.6904" x="420.1221" y="72.5889">e-Med Fachanwendung</text><rect fill="#BEAEBE" height="797.7188" rx="5" ry="5" style="stroke:#181818;stroke-width:0.5;" width="83.8066" x="923.252" y="43.2969"/><text fill="#000000" font-family="'Arial'" font-size="14" font-weight="700" lengthAdjust="spacing" textLength="4.874" x="926.252" y="56.292">&#160;</text><text fill="#000000" font-family="'Arial'" font-size="14" font-weight="700" lengthAdjust="spacing" textLength="48.5625" x="945.748" y="72.5889">GDA 2</text><rect fill="#BAC38B" height="797.7188" rx="5" ry="5" style="stroke:#181818;stroke-width:0.5;" width="77.9756" x="1049.0586" y="43.2969"/><text fill="#000000" font-family="'Arial'" font-size="14" font-weight="700" lengthAdjust="spacing" textLength="4.874" x="1052.0586" y="56.292">&#160;</text><text fill="#000000" font-family="'Arial'" font-size="14" font-weight="700" lengthAdjust="spacing" textLength="57.3535" x="1056.9326" y="72.5889">Patient</text><g><title>GDA 1</title><rect fill="#FFFFFF" height="521.1016" style="stroke:#181818;stroke-width:1;" width="10" x="117.0293" y="231.6172"/></g><g><title>e-Med FA</title><rect fill="#FFFFFF" height="391.0781" style="stroke:#181818;stroke-width:1;" width="10" x="506.4673" y="231.6172"/></g><rect fill="none" height="271.2188" rx="5" ry="5" style="stroke:#111827;stroke-width:2;" width="780.9849" x="86.7476" y="359.4766"/><g class="participant-lifeline" data-entity-uid="part1" data-qualified-name="GDA_1" data-source-line="43" id="part1-lifeline"><g><title>GDA 1</title><rect fill="#000000" fill-opacity="0.00000" height="605.5313" width="8" x="118.0293" y="156.1875"/><line style="stroke:#181818;stroke-width:0.5;stroke-dasharray:5,5;" x1="121.7476" x2="121.7476" y1="156.1875" y2="761.7188"/></g></g><g class="participant-lifeline" data-entity-uid="part2" data-qualified-name="eMed_FA" data-source-line="47" id="part2-lifeline"><g><title>e-Med FA</title><rect fill="#000000" fill-opacity="0.00000" height="605.5313" width="8" x="507.4673" y="156.1875"/><line style="stroke:#181818;stroke-width:0.5;stroke-dasharray:5,5;" x1="510.8052" x2="510.8052" y1="156.1875" y2="761.7188"/></g></g><g class="participant-lifeline" data-entity-uid="part3" data-qualified-name="GDA_2" data-source-line="51" id="part3-lifeline"><g><title>GDA 2</title><rect fill="#000000" fill-opacity="0.00000" height="605.5313" width="8" x="961.1553" y="156.1875"/><line style="stroke:#181818;stroke-width:0.5;stroke-dasharray:5,5;" x1="964.8735" x2="964.8735" y1="156.1875" y2="761.7188"/></g></g><g class="participant-lifeline" data-entity-uid="part4" data-qualified-name="Patient" data-source-line="55" id="part4-lifeline"><g><title>Patient</title><rect fill="#000000" fill-opacity="0.00000" height="605.5313" width="8" x="1084.0464" y="156.1875"/><line style="stroke:#181818;stroke-width:0.5;stroke-dasharray:5,5;" x1="1087.3584" x2="1087.3584" y1="156.1875" y2="761.7188"/></g></g><g class="participant participant-head" data-entity-uid="part1" data-qualified-name="GDA_1" data-source-line="43" id="part1-head"><text fill="#000000" font-family="'Arial'" font-size="14" lengthAdjust="spacing" textLength="44.5635" x="96.7476" y="152.8857">GDA 1</text><ellipse cx="122.0293" cy="88.3906" fill="#E2E2F0" rx="8" ry="8" style="stroke:#181818;stroke-width:0.5;"/><path d="M122.0293,96.3906 L122.0293,123.3906 M109.0293,104.3906 L135.0293,104.3906 M122.0293,123.3906 L109.0293,138.3906 M122.0293,123.3906 L135.0293,138.3906" fill="none" style="stroke:#181818;stroke-width:0.5;"/></g><g class="participant participant-tail" data-entity-uid="part1" data-qualified-name="GDA_1" data-source-line="43" id="part1-tail"><text fill="#000000" font-family="'Arial'" font-size="14" lengthAdjust="spacing" textLength="44.5635" x="96.7476" y="773.7139">GDA 1</text><ellipse cx="122.0293" cy="785.5156" fill="#E2E2F0" rx="8" ry="8" style="stroke:#181818;stroke-width:0.5;"/><path d="M122.0293,793.5156 L122.0293,820.5156 M109.0293,801.5156 L135.0293,801.5156 M122.0293,820.5156 L109.0293,835.5156 M122.0293,820.5156 L135.0293,835.5156" fill="none" style="stroke:#181818;stroke-width:0.5;"/></g><g class="participant participant-head" data-entity-uid="part2" data-qualified-name="eMed_FA" data-source-line="47" id="part2-head"><rect fill="#FFFFFF" height="30.2969" rx="5" ry="5" style="stroke:#555555;stroke-width:0.5;" width="79.3242" x="471.8052" y="124.8906"/><text fill="#000000" font-family="'Arial'" font-size="14" lengthAdjust="spacing" textLength="65.3242" x="478.8052" y="144.8857">e-Med FA</text></g><g class="participant participant-tail" data-entity-uid="part2" data-qualified-name="eMed_FA" data-source-line="47" id="part2-tail"><rect fill="#FFFFFF" height="30.2969" rx="5" ry="5" style="stroke:#555555;stroke-width:0.5;" width="79.3242" x="471.8052" y="760.7188"/><text fill="#000000" font-family="'Arial'" font-size="14" lengthAdjust="spacing" textLength="65.3242" x="478.8052" y="780.7139">e-Med FA</text></g><g class="participant participant-head" data-entity-uid="part3" data-qualified-name="GDA_2" data-source-line="51" id="part3-head"><text fill="#000000" font-family="'Arial'" font-size="14" lengthAdjust="spacing" textLength="44.5635" x="939.8735" y="152.8857">GDA 2</text><ellipse cx="965.1553" cy="88.3906" fill="#E2E2F0" rx="8" ry="8" style="stroke:#181818;stroke-width:0.5;"/><path d="M965.1553,96.3906 L965.1553,123.3906 M952.1553,104.3906 L978.1553,104.3906 M965.1553,123.3906 L952.1553,138.3906 M965.1553,123.3906 L978.1553,138.3906" fill="none" style="stroke:#181818;stroke-width:0.5;"/></g><g class="participant participant-tail" data-entity-uid="part3" data-qualified-name="GDA_2" data-source-line="51" id="part3-tail"><text fill="#000000" font-family="'Arial'" font-size="14" lengthAdjust="spacing" textLength="44.5635" x="939.8735" y="773.7139">GDA 2</text><ellipse cx="965.1553" cy="785.5156" fill="#E2E2F0" rx="8" ry="8" style="stroke:#181818;stroke-width:0.5;"/><path d="M965.1553,793.5156 L965.1553,820.5156 M952.1553,801.5156 L978.1553,801.5156 M965.1553,820.5156 L952.1553,835.5156 M965.1553,820.5156 L978.1553,835.5156" fill="none" style="stroke:#181818;stroke-width:0.5;"/></g><g class="participant participant-head" data-entity-uid="part4" data-qualified-name="Patient" data-source-line="55" id="part4-head"><text fill="#000000" font-family="'Arial'" font-size="14" lengthAdjust="spacing" textLength="49.376" x="1060.3584" y="152.8857">Patient</text><ellipse cx="1088.0464" cy="88.3906" fill="#E2E2F0" rx="8" ry="8" style="stroke:#181818;stroke-width:0.5;"/><path d="M1088.0464,96.3906 L1088.0464,123.3906 M1075.0464,104.3906 L1101.0464,104.3906 M1088.0464,123.3906 L1075.0464,138.3906 M1088.0464,123.3906 L1101.0464,138.3906" fill="none" style="stroke:#181818;stroke-width:0.5;"/></g><g class="participant participant-tail" data-entity-uid="part4" data-qualified-name="Patient" data-source-line="55" id="part4-tail"><text fill="#000000" font-family="'Arial'" font-size="14" lengthAdjust="spacing" textLength="49.376" x="1060.3584" y="773.7139">Patient</text><ellipse cx="1088.0464" cy="785.5156" fill="#E2E2F0" rx="8" ry="8" style="stroke:#181818;stroke-width:0.5;"/><path d="M1088.0464,793.5156 L1088.0464,820.5156 M1075.0464,801.5156 L1101.0464,801.5156 M1088.0464,820.5156 L1075.0464,835.5156 M1088.0464,820.5156 L1101.0464,835.5156" fill="none" style="stroke:#181818;stroke-width:0.5;"/></g><g><title>GDA 1</title><rect fill="#FFFFFF" height="521.1016" style="stroke:#181818;stroke-width:1;" width="10" x="117.0293" y="231.6172"/></g><g><title>e-Med FA</title><rect fill="#FFFFFF" height="391.0781" style="stroke:#181818;stroke-width:1;" width="10" x="506.4673" y="231.6172"/></g><rect fill="#EEEEEE" height="3" rx="5" ry="5" style="stroke:#EEEEEE;stroke-width:1;" width="1148.0342" x="0" y="187.3359"/><line style="stroke:#000000;stroke-width:1;" x1="0" x2="1148.0342" y1="187.3359" y2="187.3359"/><line style="stroke:#000000;stroke-width:1;" x1="0" x2="1148.0342" y1="190.3359" y2="190.3359"/><rect fill="#EEEEEE" height="24.2969" rx="5" ry="5" style="stroke:#000000;stroke-width:2;" width="216.2891" x="465.8726" y="176.1875"/><text fill="#000000" font-family="'Arial'" font-size="14" font-weight="700" lengthAdjust="spacing" textLength="197.415" x="471.8726" y="193.1826">Medikationsplan abrufen</text><g class="message" data-entity-1="part1" data-entity-2="part2" data-source-line="63" id="msg1"><line style="stroke:#111827;stroke-width:1;" x1="504.4673" x2="494.4673" y1="231.6172" y2="227.6172"/><line style="stroke:#111827;stroke-width:1;" x1="504.4673" x2="494.4673" y1="231.6172" y2="235.6172"/><line style="stroke:#111827;stroke-width:1;" x1="127.0293" x2="505.4673" y1="231.6172" y2="231.6172"/><text fill="#000000" font-family="'Arial'" font-size="13" font-weight="700" lengthAdjust="spacing" textLength="9.0454" x="134.0293" y="226.5513">1</text><text fill="#000000" font-family="'Arial'" font-size="13" lengthAdjust="spacing" textLength="121.9639" x="147.0747" y="226.5513">POST $readtowrite</text></g><path d="M5,249.6172 L5,281.6172 A5,5 0 0 0 10,286.6172 L232,286.6172 A5,5 0 0 0 237,281.6172 L237,254.6172 L227,244.6172 L10,244.6172 A5,5 0 0 0 5,249.6172" fill="url(#gehxvdmdqsnc40)" filter="url(#fehxvdmdqsnc4)" style="stroke:#8B95A5;stroke-width:1;"/><path d="M227,244.6172 L227,252.1172 A2.5,2.5 0 0 0 229.5,254.6172 L237,254.6172 L227,244.6172" fill="url(#gehxvdmdqsnc40)" style="stroke:#8B95A5;stroke-width:1;"/><text fill="#111827" font-family="'Arial'" font-size="14" lengthAdjust="spacing" textLength="177.9053" x="11" y="262.6123">Medikationsplan abrufen,</text><text fill="#111827" font-family="'Arial'" font-size="14" lengthAdjust="spacing" textLength="211.5859" x="11" y="278.9092">mit der Intention zu schreiben</text><g class="message" data-entity-1="part2" data-entity-2="part2" data-source-line="72" id="msg2"><line style="stroke:#111827;stroke-width:1;" x1="516.4673" x2="558.4673" y1="331.4766" y2="331.4766"/><line style="stroke:#111827;stroke-width:1;" x1="558.4673" x2="558.4673" y1="331.4766" y2="344.4766"/><line style="stroke:#111827;stroke-width:1;" x1="517.4673" x2="558.4673" y1="344.4766" y2="344.4766"/><polygon fill="#111827" points="527.4673,340.4766,517.4673,344.4766,527.4673,348.4766,523.4673,344.4766" style="stroke:#111827;stroke-width:1;"/><text fill="#000000" font-family="'Arial'" font-size="13" font-weight="700" lengthAdjust="spacing" textLength="9.0454" x="523.4673" y="318.8442">2</text><text fill="#000000" font-family="'Arial'" font-size="13" lengthAdjust="spacing" textLength="164.8613" x="536.5127" y="311.2778">Pr&#252;fung auf bestehenden</text><text fill="#000000" font-family="'Arial'" font-size="13" lengthAdjust="spacing" textLength="106.3169" x="536.5127" y="326.4106">Medikationsplan</text></g><path d="M91.7476,359.4766 L152.686,359.4766 L152.686,367.7734 L142.686,377.7734 L86.7476,377.7734 L86.7476,364.4766 A5,5 0 0 1 91.7476,359.4766" fill="#EEF2FF" style="stroke:#111827;stroke-width:1.5;"/><rect fill="none" height="271.2188" rx="5" ry="5" style="stroke:#111827;stroke-width:2;" width="780.9849" x="86.7476" y="359.4766"/><text fill="#000000" font-family="'Arial'" font-size="14" font-weight="700" lengthAdjust="spacing" textLength="20.9385" x="101.7476" y="373.4717">alt</text><text fill="#000000" font-family="'Arial'" font-size="14" font-weight="700" lengthAdjust="spacing" textLength="271.2773" x="167.686" y="374.4717">[kein Medikationsplan vorhanden]</text><g class="message" data-entity-1="part2" data-entity-2="part2" data-source-line="75" id="msg3"><line style="stroke:#111827;stroke-width:1;" x1="516.4673" x2="558.4673" y1="415.3359" y2="415.3359"/><line style="stroke:#111827;stroke-width:1;" x1="558.4673" x2="558.4673" y1="415.3359" y2="428.3359"/><line style="stroke:#111827;stroke-width:1;" x1="517.4673" x2="558.4673" y1="428.3359" y2="428.3359"/><polygon fill="#111827" points="527.4673,424.3359,517.4673,428.3359,527.4673,432.3359,523.4673,428.3359" style="stroke:#111827;stroke-width:1;"/><text fill="#000000" font-family="'Arial'" font-size="13" font-weight="700" lengthAdjust="spacing" textLength="9.0454" x="523.4673" y="402.7036">3</text><text fill="#000000" font-family="'Arial'" font-size="13" lengthAdjust="spacing" textLength="205.7402" x="536.5127" y="395.1372">Erzeugt leeren Medikationsplan</text><text fill="#000000" font-family="'Arial'" font-size="13" lengthAdjust="spacing" textLength="214.1064" x="540.645" y="410.27">mit emptyReason = "notstarted"</text></g><g class="message" data-entity-1="part2" data-entity-2="part1" data-source-line="76" id="msg4"><line style="stroke:#111827;stroke-width:1;" x1="128.0293" x2="138.0293" y1="457.4688" y2="453.4688"/><line style="stroke:#111827;stroke-width:1;" x1="128.0293" x2="138.0293" y1="457.4688" y2="461.4688"/><line style="stroke:#111827;stroke-width:1;stroke-dasharray:2,2;" x1="127.0293" x2="505.4673" y1="457.4688" y2="457.4688"/><text fill="#000000" font-family="'Arial'" font-size="13" font-weight="700" lengthAdjust="spacing" textLength="9.0454" x="144.0293" y="452.4028">4</text><text fill="#000000" font-family="'Arial'" font-size="13" lengthAdjust="spacing" textLength="152.3755" x="157.0747" y="452.4028">Leerer Medikationsplan</text></g><line style="stroke:#111827;stroke-width:1;stroke-dasharray:2,2;" x1="86.7476" x2="867.7324" y1="466.4688" y2="466.4688"/><text fill="#000000" font-family="'Arial'" font-size="14" font-weight="700" lengthAdjust="spacing" textLength="232.832" x="91.7476" y="479.4639">[Medikationsplan vorhanden]</text><g class="message" data-entity-1="part2" data-entity-2="part2" data-source-line="79" id="msg5"><line style="stroke:#111827;stroke-width:1;" x1="516.4673" x2="558.4673" y1="565.4297" y2="565.4297"/><line style="stroke:#111827;stroke-width:1;" x1="558.4673" x2="558.4673" y1="565.4297" y2="578.4297"/><line style="stroke:#111827;stroke-width:1;" x1="517.4673" x2="558.4673" y1="578.4297" y2="578.4297"/><polygon fill="#111827" points="527.4673,574.4297,517.4673,578.4297,527.4673,582.4297,523.4673,578.4297" style="stroke:#111827;stroke-width:1;"/><text fill="#000000" font-family="'Arial'" font-size="13" font-weight="700" lengthAdjust="spacing" textLength="9.0454" x="523.4673" y="530.0981">5</text><text fill="#000000" font-family="'Arial'" font-size="13" lengthAdjust="spacing" textLength="308.7563" x="536.5127" y="499.8325">Stellt Collection Bundle zur Auslieferung bereit:</text><text fill="#000000" font-family="'Arial'" font-size="13" lengthAdjust="spacing" textLength="212.0117" x="536.5127" y="514.9653">(inkl. tempor&#228;rem List.identifier)</text><text fill="#000000" font-family="'Arial'" font-size="13" lengthAdjust="spacing" textLength="309.2197" x="536.5127" y="530.0981">Bedingung f&#252;r Read-to-Write Collection Bundle:</text><text fill="#000000" font-family="'Arial'" font-size="13" lengthAdjust="spacing" textLength="187.897" x="536.5127" y="545.231">- new|changed &#8594; unchanged</text><text fill="#000000" font-family="'Arial'" font-size="13" lengthAdjust="spacing" textLength="149.6143" x="536.5127" y="560.3638">- removed &#8594; entfernen</text></g><g class="message" data-entity-1="part2" data-entity-2="part1" data-source-line="80" id="msg6"><line style="stroke:#111827;stroke-width:1;" x1="128.0293" x2="138.0293" y1="622.6953" y2="618.6953"/><line style="stroke:#111827;stroke-width:1;" x1="128.0293" x2="138.0293" y1="622.6953" y2="626.6953"/><line style="stroke:#111827;stroke-width:1;stroke-dasharray:2,2;" x1="127.0293" x2="510.4673" y1="622.6953" y2="622.6953"/><text fill="#000000" font-family="'Arial'" font-size="13" font-weight="700" lengthAdjust="spacing" textLength="9.0454" x="144.0293" y="610.063">6</text><text fill="#000000" font-family="'Arial'" font-size="13" lengthAdjust="spacing" textLength="230.7373" x="157.0747" y="602.4966">AtElgaEmedBundleMedikationsplan</text><text fill="#000000" font-family="'Arial'" font-size="13" lengthAdjust="spacing" textLength="228.1919" x="157.0747" y="617.6294">(Collection Bundle + List.identifier)</text></g><g class="message" data-entity-1="part1" data-entity-2="part1" data-source-line="85" id="msg7"><line style="stroke:#111827;stroke-width:1;" x1="127.0293" x2="169.0293" y1="658.8281" y2="658.8281"/><line style="stroke:#111827;stroke-width:1;" x1="169.0293" x2="169.0293" y1="658.8281" y2="671.8281"/><line style="stroke:#111827;stroke-width:1;" x1="128.0293" x2="169.0293" y1="671.8281" y2="671.8281"/><polygon fill="#111827" points="138.0293,667.8281,128.0293,671.8281,138.0293,675.8281,134.0293,671.8281" style="stroke:#111827;stroke-width:1;"/><text fill="#000000" font-family="'Arial'" font-size="13" font-weight="700" lengthAdjust="spacing" textLength="9.0454" x="134.0293" y="653.7622">7</text><text fill="#000000" font-family="'Arial'" font-size="13" lengthAdjust="spacing" textLength="249.8438" x="147.0747" y="653.7622">Eintr&#228;ge hinzuf&#252;gen/&#228;ndern/entfernen</text></g><path d="M14,689.8281 L14,737.8281 A5,5 0 0 0 19,742.8281 L220,742.8281 A5,5 0 0 0 225,737.8281 L225,694.8281 L215,684.8281 L19,684.8281 A5,5 0 0 0 14,689.8281" fill="url(#gehxvdmdqsnc40)" filter="url(#fehxvdmdqsnc4)" style="stroke:#8B95A5;stroke-width:1;"/><path d="M215,684.8281 L215,692.3281 A2.5,2.5 0 0 0 217.5,694.8281 L225,694.8281 L215,684.8281" fill="url(#gehxvdmdqsnc40)" style="stroke:#8B95A5;stroke-width:1;"/><text fill="#111827" font-family="'Arial'" font-size="14" lengthAdjust="spacing" textLength="183.0869" x="20" y="702.8232">Nach der Bearbeitung des</text><text fill="#111827" font-family="'Arial'" font-size="14" lengthAdjust="spacing" textLength="186.498" x="20" y="719.1201">Medikationsplans kann ein</text><text fill="#111827" font-family="'Arial'" font-size="14" lengthAdjust="spacing" textLength="156.5225" x="20" y="735.417">Write-Zugriff erfolgen.</text><?plantuml-src bLRDRXit4BxpAGPo3muQsLubgcK32Y0bSbl0TOquGO72GC1Tpag4LaE5oxLijRts0VeCVepS_2PvaWof7tErwY7KPPVpztqVPxXosXK8xr6gjZFjFwnssFwp6bkTvqAKKqrpQUKCKcCLshUcC1OEJiAAhJARZgsfIAqzygx_HHxbH2gpq3I6N1ObHfPrc2MqaCH95UQoAjo58NSbPmYjWTMoQEttkD5BXEJrVcCTTkH3nY7y9G26kmJm1BlvIVj09UeCV_8UiG2zzAmhkzlT3nETJGdB4XBUUnyHwl7xjLJA4_TP8ZH9alGwfxntivN6sGh5Fp70NnxcQ0jDquZ2QBJFuIEfy81hWMFjyNE5bAsONalhTARdaboDKZUi7OV6iOPLTseAt31l3gTcsCZIyG43QyrYLvYmMTSsREshk3MiQhtYhPyP-Rp6SPjvPMgSEUQTm2wAV2xVgP_CqDn736hx-tGLgRc7rYrnydS3I01QS72MyznuLMJcs9KDdnAG9RI2IqiWAPwx-oWsB6p_XWekP3QHj62VYY6i5kTy-xftUkgxRlwiD207VBeOXDphwC7-zBvo9oHAKMAADN2TBRZEdkXhwJHoiH0iirUzT1kyCVdmzNEKGCZA6QfcALeX-drWV7hANeRAUI49P6gh70dwVI5M6hNVlDbmEeVhtsy-m0-MBp1d5lxw4bnKtqcUxE0jH9XoSuThYSN_57W9OgOTtniMVYN76Da1bXMKsSIYJf42P9zCF9TOmn0RYTinCllq9VUd8wiSKYmTJZW3qYtj8E1yXOCfQcgGlpEMZvc3MCnzDKPsYTNOGO5eiH7En-8fuMpk7lYABvbG7rfCeNJS7gXQSLQlQX3e72vzDWiDcCWtotT3l75OC3sUXmAp8EgGPuu_EilAmg0g2uqvMgyJTm1gTtvBXtoX5KVW6BYnJuyMPt2fItUabJ-MNADzSKj3zDFdu_AdBxR-2MjMuwnj85pyxSTcp2FmzT__eABrcpTo5MwIbO7BC2QgSue46hXHCPQZ6QfLzeRkXqswFpOuS7A5pLOY9TYoxVLDpP4cnsAC4IQQbXMJ7YCTFptwYv-Edn4t-lsAhuhGraEKDcM5lMOAIzYTX1AcaWXy7uhQFm50cvk2onrjP-0R?></g></svg>