<svg xmlns="http://www.w3.org/2000/svg" xmlns:xlink="http://www.w3.org/1999/xlink" contentStyleType="text/css" data-diagram-type="SEQUENCE" height="1447px" preserveAspectRatio="none" style="width:1510px;height:1447px;background:#F5F5F5;" version="1.1" viewBox="0 0 1510 1447" width="1510px" zoomAndPan="magnify"><?plantuml 1.2026.3beta6?><defs><linearGradient id="gqmyw8lh2afli0" x1="50%" x2="50%" y1="0%" y2="100%"><stop offset="0%" stop-color="#E0E5F0"/><stop offset="100%" stop-color="#D1D9E6"/></linearGradient><filter height="300%" id="fqmyw8lh2afli" width="300%" x="-1" y="-1"><feGaussianBlur result="blurOut" stdDeviation="2"/><feColorMatrix in="blurOut" result="blurOut2" type="matrix" values="0 0 0 0 0 0 0 0 0 0 0 0 0 0 0 0 0 0 .4 0"/><feOffset dx="4" dy="4" in="blurOut2" result="blurOut3"/><feBlend in="SourceGraphic" in2="blurOut3" mode="normal"/></filter></defs><g><rect fill="#F5F5F5" height="1447" style="stroke:none;stroke-width:1;" width="1510" x="0" y="0"/><rect fill="#9FBAC4" height="1421.4141" rx="5" ry="5" style="stroke:#181818;stroke-width:0.5;" width="74.0586" x="100" y="6"/><text fill="#000000" font-family="'Arial'" font-size="14" font-weight="700" lengthAdjust="spacing" textLength="4.874" x="103" y="18.9951">&#160;</text><text fill="#000000" font-family="'Arial'" font-size="14" font-weight="700" lengthAdjust="spacing" textLength="48.5625" x="112.748" y="35.292">GDA 1</text><rect fill="#C48778" height="1421.4141" rx="5" ry="5" style="stroke:#181818;stroke-width:0.5;" width="256.9268" x="496.7642" y="6"/><text fill="#000000" font-family="'Arial'" font-size="14" font-weight="700" lengthAdjust="spacing" textLength="4.874" x="499.7642" y="18.9951">&#160;</text><text fill="#000000" font-family="'Arial'" font-size="14" font-weight="700" lengthAdjust="spacing" textLength="182.6904" x="533.8823" y="35.292">e-Med Fachanwendung</text><rect fill="#BEAEBE" height="1421.4141" rx="5" ry="5" style="stroke:#181818;stroke-width:0.5;" width="83.8066" x="1076.3965" y="6"/><text fill="#000000" font-family="'Arial'" font-size="14" font-weight="700" lengthAdjust="spacing" textLength="4.874" x="1079.3965" y="18.9951">&#160;</text><text fill="#000000" font-family="'Arial'" font-size="14" font-weight="700" lengthAdjust="spacing" textLength="48.5625" x="1098.8926" y="35.292">GDA 2</text><rect fill="#BAC38B" height="1421.4141" rx="5" ry="5" style="stroke:#181818;stroke-width:0.5;" width="77.9756" x="1405.168" y="6"/><text fill="#000000" font-family="'Arial'" font-size="14" font-weight="700" lengthAdjust="spacing" textLength="4.874" x="1408.168" y="18.9951">&#160;</text><text fill="#000000" font-family="'Arial'" font-size="14" font-weight="700" lengthAdjust="spacing" textLength="57.3535" x="1413.042" y="35.292">Patient</text><g><title>GDA 1</title><rect fill="#FFFFFF" height="1161.9297" style="stroke:#181818;stroke-width:1;" width="10" x="132.0293" y="128.8906"/></g><g><title>e-Med FA</title><rect fill="#FFFFFF" height="143.6641" style="stroke:#181818;stroke-width:1;" width="10" x="620.2275" y="194.3203"/></g><g><title>e-Med FA</title><rect fill="#FFFFFF" height="143.6641" style="stroke:#181818;stroke-width:1;" width="10" x="620.2275" y="492.8438"/></g><g><title>e-Med FA</title><rect fill="#FFFFFF" height="243.0625" style="stroke:#181818;stroke-width:1;" width="10" x="620.2275" y="791.3672"/></g><g><title>e-Med FA</title><rect fill="#FFFFFF" height="143.6641" style="stroke:#181818;stroke-width:1;" width="10" x="620.2275" y="1147.1563"/></g><g><title>GDA 2</title><rect fill="#FFFFFF" height="541.5859" style="stroke:#181818;stroke-width:1;" width="10" x="1113.2998" y="492.8438"/></g><g class="participant-lifeline" data-entity-uid="part1" data-qualified-name="GDA_1" data-source-line="41" id="part1-lifeline"><g><title>GDA 1</title><rect fill="#000000" fill-opacity="0.00000" height="1229.2266" width="8" x="133.0293" y="118.8906"/><line style="stroke:#181818;stroke-width:0.5;stroke-dasharray:5,5;" x1="136.7476" x2="136.7476" y1="118.8906" y2="1348.1172"/></g></g><g class="participant-lifeline" data-entity-uid="part2" data-qualified-name="eMed_FA" data-source-line="45" id="part2-lifeline"><g><title>e-Med FA</title><rect fill="#000000" fill-opacity="0.00000" height="1229.2266" width="8" x="621.2275" y="118.8906"/><line style="stroke:#181818;stroke-width:0.5;stroke-dasharray:5,5;" x1="624.5654" x2="624.5654" y1="118.8906" y2="1348.1172"/></g></g><g class="participant-lifeline" data-entity-uid="part3" data-qualified-name="GDA_2" data-source-line="49" id="part3-lifeline"><g><title>GDA 2</title><rect fill="#000000" fill-opacity="0.00000" height="1229.2266" width="8" x="1114.2998" y="118.8906"/><line style="stroke:#181818;stroke-width:0.5;stroke-dasharray:5,5;" x1="1118.0181" x2="1118.0181" y1="118.8906" y2="1348.1172"/></g></g><g class="participant-lifeline" data-entity-uid="part4" data-qualified-name="Patient" data-source-line="53" id="part4-lifeline"><g><title>Patient</title><rect fill="#000000" fill-opacity="0.00000" height="1229.2266" width="8" x="1440.1558" y="118.8906"/><line style="stroke:#181818;stroke-width:0.5;stroke-dasharray:5,5;" x1="1443.4678" x2="1443.4678" y1="118.8906" y2="1348.1172"/></g></g><g class="participant participant-head" data-entity-uid="part1" data-qualified-name="GDA_1" data-source-line="41" id="part1-head"><text fill="#000000" font-family="'Arial'" font-size="14" lengthAdjust="spacing" textLength="44.5635" x="111.7476" y="115.5889">GDA 1</text><ellipse cx="137.0293" cy="51.0938" fill="#E2E2F0" rx="8" ry="8" style="stroke:#181818;stroke-width:0.5;"/><path d="M137.0293,59.0938 L137.0293,86.0938 M124.0293,67.0938 L150.0293,67.0938 M137.0293,86.0938 L124.0293,101.0938 M137.0293,86.0938 L150.0293,101.0938" fill="none" style="stroke:#181818;stroke-width:0.5;"/></g><g class="participant participant-tail" data-entity-uid="part1" data-qualified-name="GDA_1" data-source-line="41" id="part1-tail"><text fill="#000000" font-family="'Arial'" font-size="14" lengthAdjust="spacing" textLength="44.5635" x="111.7476" y="1360.1123">GDA 1</text><ellipse cx="137.0293" cy="1371.9141" fill="#E2E2F0" rx="8" ry="8" style="stroke:#181818;stroke-width:0.5;"/><path d="M137.0293,1379.9141 L137.0293,1406.9141 M124.0293,1387.9141 L150.0293,1387.9141 M137.0293,1406.9141 L124.0293,1421.9141 M137.0293,1406.9141 L150.0293,1421.9141" fill="none" style="stroke:#181818;stroke-width:0.5;"/></g><g class="participant participant-head" data-entity-uid="part2" data-qualified-name="eMed_FA" data-source-line="45" id="part2-head"><rect fill="#FFFFFF" height="30.2969" rx="5" ry="5" style="stroke:#555555;stroke-width:0.5;" width="79.3242" x="585.5654" y="87.5938"/><text fill="#000000" font-family="'Arial'" font-size="14" lengthAdjust="spacing" textLength="65.3242" x="592.5654" y="107.5889">e-Med FA</text></g><g class="participant participant-tail" data-entity-uid="part2" data-qualified-name="eMed_FA" data-source-line="45" id="part2-tail"><rect fill="#FFFFFF" height="30.2969" rx="5" ry="5" style="stroke:#555555;stroke-width:0.5;" width="79.3242" x="585.5654" y="1347.1172"/><text fill="#000000" font-family="'Arial'" font-size="14" lengthAdjust="spacing" textLength="65.3242" x="592.5654" y="1367.1123">e-Med FA</text></g><g class="participant participant-head" data-entity-uid="part3" data-qualified-name="GDA_2" data-source-line="49" id="part3-head"><text fill="#000000" font-family="'Arial'" font-size="14" lengthAdjust="spacing" textLength="44.5635" x="1093.0181" y="115.5889">GDA 2</text><ellipse cx="1118.2998" cy="51.0938" fill="#E2E2F0" rx="8" ry="8" style="stroke:#181818;stroke-width:0.5;"/><path d="M1118.2998,59.0938 L1118.2998,86.0938 M1105.2998,67.0938 L1131.2998,67.0938 M1118.2998,86.0938 L1105.2998,101.0938 M1118.2998,86.0938 L1131.2998,101.0938" fill="none" style="stroke:#181818;stroke-width:0.5;"/></g><g class="participant participant-tail" data-entity-uid="part3" data-qualified-name="GDA_2" data-source-line="49" id="part3-tail"><text fill="#000000" font-family="'Arial'" font-size="14" lengthAdjust="spacing" textLength="44.5635" x="1093.0181" y="1360.1123">GDA 2</text><ellipse cx="1118.2998" cy="1371.9141" fill="#E2E2F0" rx="8" ry="8" style="stroke:#181818;stroke-width:0.5;"/><path d="M1118.2998,1379.9141 L1118.2998,1406.9141 M1105.2998,1387.9141 L1131.2998,1387.9141 M1118.2998,1406.9141 L1105.2998,1421.9141 M1118.2998,1406.9141 L1131.2998,1421.9141" fill="none" style="stroke:#181818;stroke-width:0.5;"/></g><g class="participant participant-head" data-entity-uid="part4" data-qualified-name="Patient" data-source-line="53" id="part4-head"><text fill="#000000" font-family="'Arial'" font-size="14" lengthAdjust="spacing" textLength="49.376" x="1416.4678" y="115.5889">Patient</text><ellipse cx="1444.1558" cy="51.0938" fill="#E2E2F0" rx="8" ry="8" style="stroke:#181818;stroke-width:0.5;"/><path d="M1444.1558,59.0938 L1444.1558,86.0938 M1431.1558,67.0938 L1457.1558,67.0938 M1444.1558,86.0938 L1431.1558,101.0938 M1444.1558,86.0938 L1457.1558,101.0938" fill="none" style="stroke:#181818;stroke-width:0.5;"/></g><g class="participant participant-tail" data-entity-uid="part4" data-qualified-name="Patient" data-source-line="53" id="part4-tail"><text fill="#000000" font-family="'Arial'" font-size="14" lengthAdjust="spacing" textLength="49.376" x="1416.4678" y="1360.1123">Patient</text><ellipse cx="1444.1558" cy="1371.9141" fill="#E2E2F0" rx="8" ry="8" style="stroke:#181818;stroke-width:0.5;"/><path d="M1444.1558,1379.9141 L1444.1558,1406.9141 M1431.1558,1387.9141 L1457.1558,1387.9141 M1444.1558,1406.9141 L1431.1558,1421.9141 M1444.1558,1406.9141 L1457.1558,1421.9141" fill="none" style="stroke:#181818;stroke-width:0.5;"/></g><g><title>GDA 1</title><rect fill="#FFFFFF" height="1161.9297" style="stroke:#181818;stroke-width:1;" width="10" x="132.0293" y="128.8906"/></g><g><title>e-Med FA</title><rect fill="#FFFFFF" height="143.6641" style="stroke:#181818;stroke-width:1;" width="10" x="620.2275" y="194.3203"/></g><g><title>e-Med FA</title><rect fill="#FFFFFF" height="143.6641" style="stroke:#181818;stroke-width:1;" width="10" x="620.2275" y="492.8438"/></g><g><title>e-Med FA</title><rect fill="#FFFFFF" height="243.0625" style="stroke:#181818;stroke-width:1;" width="10" x="620.2275" y="791.3672"/></g><g><title>e-Med FA</title><rect fill="#FFFFFF" height="143.6641" style="stroke:#181818;stroke-width:1;" width="10" x="620.2275" y="1147.1563"/></g><g><title>GDA 2</title><rect fill="#FFFFFF" height="541.5859" style="stroke:#181818;stroke-width:1;" width="10" x="1113.2998" y="492.8438"/></g><rect fill="#EEEEEE" height="3" rx="5" ry="5" style="stroke:#EEEEEE;stroke-width:1;" width="1504.1436" x="0" y="150.0391"/><line style="stroke:#000000;stroke-width:1;" x1="0" x2="1504.1436" y1="150.0391" y2="150.0391"/><line style="stroke:#000000;stroke-width:1;" x1="0" x2="1504.1436" y1="153.0391" y2="153.0391"/><rect fill="#EEEEEE" height="24.2969" rx="5" ry="5" style="stroke:#000000;stroke-width:2;" width="233.3516" x="635.396" y="138.8906"/><text fill="#000000" font-family="'Arial'" font-size="14" font-weight="700" lengthAdjust="spacing" textLength="214.4775" x="641.396" y="155.8857">Read-to-Write durch GDA 1</text><g class="message" data-entity-1="part1" data-entity-2="part2" data-source-line="62" id="msg1"><line style="stroke:#111827;stroke-width:1;" x1="618.2275" x2="608.2275" y1="194.3203" y2="190.3203"/><line style="stroke:#111827;stroke-width:1;" x1="618.2275" x2="608.2275" y1="194.3203" y2="198.3203"/><line style="stroke:#111827;stroke-width:1;" x1="142.0293" x2="619.2275" y1="194.3203" y2="194.3203"/><text fill="#000000" font-family="'Arial'" font-size="13" font-weight="700" lengthAdjust="spacing" textLength="9.0454" x="149.0293" y="189.2544">1</text><text fill="#000000" font-family="'Arial'" font-size="13" lengthAdjust="spacing" textLength="121.9639" x="162.0747" y="189.2544">POST $readtowrite</text></g><g class="message" data-entity-1="part2" data-entity-2="part2" data-source-line="65" id="msg2"><line style="stroke:#111827;stroke-width:1;" x1="630.2275" x2="672.2275" y1="238.5859" y2="238.5859"/><line style="stroke:#111827;stroke-width:1;" x1="672.2275" x2="672.2275" y1="238.5859" y2="251.5859"/><line style="stroke:#111827;stroke-width:1;" x1="631.2275" x2="672.2275" y1="251.5859" y2="251.5859"/><polygon fill="#111827" points="641.2275,247.5859,631.2275,251.5859,641.2275,255.5859,637.2275,251.5859" style="stroke:#111827;stroke-width:1;"/><text fill="#000000" font-family="'Arial'" font-size="13" font-weight="700" lengthAdjust="spacing" textLength="9.0454" x="637.2275" y="225.9536">2</text><text fill="#000000" font-family="'Arial'" font-size="13" lengthAdjust="spacing" textLength="235.6123" x="650.2729" y="218.3872">Annahme: Pr&#252;fung auf bestehenden</text><text fill="#000000" font-family="'Arial'" font-size="13" lengthAdjust="spacing" textLength="180.5273" x="650.2729" y="233.52">Medikationsplan erfolgreich</text></g><g class="message" data-entity-1="part2" data-entity-2="part2" data-source-line="66" id="msg3"><line style="stroke:#111827;stroke-width:1;" x1="630.2275" x2="672.2275" y1="295.8516" y2="295.8516"/><line style="stroke:#111827;stroke-width:1;" x1="672.2275" x2="672.2275" y1="295.8516" y2="308.8516"/><line style="stroke:#111827;stroke-width:1;" x1="631.2275" x2="672.2275" y1="308.8516" y2="308.8516"/><polygon fill="#111827" points="641.2275,304.8516,631.2275,308.8516,641.2275,312.8516,637.2275,308.8516" style="stroke:#111827;stroke-width:1;"/><text fill="#000000" font-family="'Arial'" font-size="13" font-weight="700" lengthAdjust="spacing" textLength="9.0454" x="637.2275" y="283.2192">3</text><text fill="#000000" font-family="'Arial'" font-size="13" lengthAdjust="spacing" textLength="273.8062" x="650.2729" y="275.6528">Collection Bundle zur Auslieferung erstellt</text><text fill="#000000" font-family="'Arial'" font-size="13" lengthAdjust="spacing" textLength="252.916" x="650.2729" y="290.7856">(inkl. tempor&#228;rem List.identifier "123")</text></g><g class="message" data-entity-1="part2" data-entity-2="part1" data-source-line="68" id="msg4"><line style="stroke:#111827;stroke-width:1;" x1="143.0293" x2="153.0293" y1="337.9844" y2="333.9844"/><line style="stroke:#111827;stroke-width:1;" x1="143.0293" x2="153.0293" y1="337.9844" y2="341.9844"/><line style="stroke:#111827;stroke-width:1;stroke-dasharray:2,2;" x1="142.0293" x2="624.2275" y1="337.9844" y2="337.9844"/><text fill="#000000" font-family="'Arial'" font-size="13" font-weight="700" lengthAdjust="spacing" textLength="9.0454" x="159.0293" y="332.9185">4</text><text fill="#000000" font-family="'Arial'" font-size="13" lengthAdjust="spacing" textLength="258.9526" x="172.0747" y="332.9185">Collection Bundle + List.identifier "123"</text></g><g class="message" data-entity-1="part1" data-entity-2="part1" data-source-line="71" id="msg5"><line style="stroke:#111827;stroke-width:1;" x1="142.0293" x2="184.0293" y1="367.1172" y2="367.1172"/><line style="stroke:#111827;stroke-width:1;" x1="184.0293" x2="184.0293" y1="367.1172" y2="380.1172"/><line style="stroke:#111827;stroke-width:1;" x1="143.0293" x2="184.0293" y1="380.1172" y2="380.1172"/><polygon fill="#111827" points="153.0293,376.1172,143.0293,380.1172,153.0293,384.1172,149.0293,380.1172" style="stroke:#111827;stroke-width:1;"/><text fill="#000000" font-family="'Arial'" font-size="13" font-weight="700" lengthAdjust="spacing" textLength="9.0454" x="149.0293" y="362.0513">5</text><text fill="#000000" font-family="'Arial'" font-size="13" lengthAdjust="spacing" textLength="249.8438" x="162.0747" y="362.0513">Eintr&#228;ge hinzuf&#252;gen/&#228;ndern/entfernen</text></g><path d="M5,398.1172 L5,414.1172 A5,5 0 0 0 10,419.1172 L261,419.1172 A5,5 0 0 0 266,414.1172 L266,403.1172 L256,393.1172 L10,393.1172 A5,5 0 0 0 5,398.1172" fill="url(#gqmyw8lh2afli0)" filter="url(#fqmyw8lh2afli)" style="stroke:#8B95A5;stroke-width:1;"/><path d="M256,393.1172 L256,400.6172 A2.5,2.5 0 0 0 258.5,403.1172 L266,403.1172 L256,393.1172" fill="url(#gqmyw8lh2afli0)" style="stroke:#8B95A5;stroke-width:1;"/><text fill="#111827" font-family="'Arial'" font-size="14" lengthAdjust="spacing" textLength="240.7754" x="11" y="411.1123">GDA 1 bearbeitet Medikationsplan</text><rect fill="#EEEEEE" height="3" rx="5" ry="5" style="stroke:#EEEEEE;stroke-width:1;" width="1504.1436" x="0" y="448.5625"/><line style="stroke:#000000;stroke-width:1;" x1="0" x2="1504.1436" y1="448.5625" y2="448.5625"/><line style="stroke:#000000;stroke-width:1;" x1="0" x2="1504.1436" y1="451.5625" y2="451.5625"/><rect fill="#EEEEEE" height="24.2969" rx="5" ry="5" style="stroke:#000000;stroke-width:2;" width="233.3516" x="635.396" y="437.4141"/><text fill="#000000" font-family="'Arial'" font-size="14" font-weight="700" lengthAdjust="spacing" textLength="214.4775" x="641.396" y="454.4092">Read-to-Write durch GDA 2</text><g class="message" data-entity-1="part3" data-entity-2="part2" data-source-line="79" id="msg6"><line style="stroke:#111827;stroke-width:1;" x1="631.2275" x2="641.2275" y1="492.8438" y2="488.8438"/><line style="stroke:#111827;stroke-width:1;" x1="631.2275" x2="641.2275" y1="492.8438" y2="496.8438"/><line style="stroke:#111827;stroke-width:1;" x1="630.2275" x2="1112.2998" y1="492.8438" y2="492.8438"/><text fill="#000000" font-family="'Arial'" font-size="13" font-weight="700" lengthAdjust="spacing" textLength="9.0454" x="647.2275" y="487.7778">6</text><text fill="#000000" font-family="'Arial'" font-size="13" lengthAdjust="spacing" textLength="121.9639" x="660.2729" y="487.7778">POST $readtowrite</text></g><g class="message" data-entity-1="part2" data-entity-2="part2" data-source-line="83" id="msg7"><line style="stroke:#111827;stroke-width:1;" x1="630.2275" x2="672.2275" y1="537.1094" y2="537.1094"/><line style="stroke:#111827;stroke-width:1;" x1="672.2275" x2="672.2275" y1="537.1094" y2="550.1094"/><line style="stroke:#111827;stroke-width:1;" x1="631.2275" x2="672.2275" y1="550.1094" y2="550.1094"/><polygon fill="#111827" points="641.2275,546.1094,631.2275,550.1094,641.2275,554.1094,637.2275,550.1094" style="stroke:#111827;stroke-width:1;"/><text fill="#000000" font-family="'Arial'" font-size="13" font-weight="700" lengthAdjust="spacing" textLength="9.0454" x="637.2275" y="524.4771">7</text><text fill="#000000" font-family="'Arial'" font-size="13" lengthAdjust="spacing" textLength="235.6123" x="650.2729" y="516.9106">Annahme: Pr&#252;fung auf bestehenden</text><text fill="#000000" font-family="'Arial'" font-size="13" lengthAdjust="spacing" textLength="180.5273" x="650.2729" y="532.0435">Medikationsplan erfolgreich</text></g><g class="message" data-entity-1="part2" data-entity-2="part2" data-source-line="84" id="msg8"><line style="stroke:#111827;stroke-width:1;" x1="630.2275" x2="672.2275" y1="594.375" y2="594.375"/><line style="stroke:#111827;stroke-width:1;" x1="672.2275" x2="672.2275" y1="594.375" y2="607.375"/><line style="stroke:#111827;stroke-width:1;" x1="631.2275" x2="672.2275" y1="607.375" y2="607.375"/><polygon fill="#111827" points="641.2275,603.375,631.2275,607.375,641.2275,611.375,637.2275,607.375" style="stroke:#111827;stroke-width:1;"/><text fill="#000000" font-family="'Arial'" font-size="13" font-weight="700" lengthAdjust="spacing" textLength="9.0454" x="637.2275" y="581.7427">8</text><text fill="#000000" font-family="'Arial'" font-size="13" lengthAdjust="spacing" textLength="273.8062" x="650.2729" y="574.1763">Collection Bundle zur Auslieferung erstellt</text><text fill="#000000" font-family="'Arial'" font-size="13" lengthAdjust="spacing" textLength="252.916" x="650.2729" y="589.3091">(inkl. tempor&#228;rem List.identifier "123")</text></g><g class="message" data-entity-1="part2" data-entity-2="part3" data-source-line="86" id="msg9"><line style="stroke:#111827;stroke-width:1;" x1="1111.2998" x2="1101.2998" y1="636.5078" y2="632.5078"/><line style="stroke:#111827;stroke-width:1;" x1="1111.2998" x2="1101.2998" y1="636.5078" y2="640.5078"/><line style="stroke:#111827;stroke-width:1;stroke-dasharray:2,2;" x1="625.2275" x2="1112.2998" y1="636.5078" y2="636.5078"/><text fill="#000000" font-family="'Arial'" font-size="13" font-weight="700" lengthAdjust="spacing" textLength="9.0454" x="632.2275" y="631.4419">9</text><text fill="#000000" font-family="'Arial'" font-size="13" lengthAdjust="spacing" textLength="258.9526" x="645.2729" y="631.4419">Collection Bundle + List.identifier "123"</text></g><g class="message" data-entity-1="part3" data-entity-2="part3" data-source-line="89" id="msg10"><line style="stroke:#111827;stroke-width:1;" x1="1123.2998" x2="1165.2998" y1="665.6406" y2="665.6406"/><line style="stroke:#111827;stroke-width:1;" x1="1165.2998" x2="1165.2998" y1="665.6406" y2="678.6406"/><line style="stroke:#111827;stroke-width:1;" x1="1124.2998" x2="1165.2998" y1="678.6406" y2="678.6406"/><polygon fill="#111827" points="1134.2998,674.6406,1124.2998,678.6406,1134.2998,682.6406,1130.2998,678.6406" style="stroke:#111827;stroke-width:1;"/><text fill="#000000" font-family="'Arial'" font-size="13" font-weight="700" lengthAdjust="spacing" textLength="18.0908" x="1130.2998" y="660.5747">10</text><text fill="#000000" font-family="'Arial'" font-size="13" lengthAdjust="spacing" textLength="249.8438" x="1152.3906" y="660.5747">Eintr&#228;ge hinzuf&#252;gen/&#228;ndern/entfernen</text></g><path d="M985,696.6406 L985,712.6406 A5,5 0 0 0 990,717.6406 L1241,717.6406 A5,5 0 0 0 1246,712.6406 L1246,701.6406 L1236,691.6406 L990,691.6406 A5,5 0 0 0 985,696.6406" fill="url(#gqmyw8lh2afli0)" filter="url(#fqmyw8lh2afli)" style="stroke:#8B95A5;stroke-width:1;"/><path d="M1236,691.6406 L1236,699.1406 A2.5,2.5 0 0 0 1238.5,701.6406 L1246,701.6406 L1236,691.6406" fill="url(#gqmyw8lh2afli0)" style="stroke:#8B95A5;stroke-width:1;"/><text fill="#111827" font-family="'Arial'" font-size="14" lengthAdjust="spacing" textLength="240.7754" x="991" y="709.6357">GDA 2 bearbeitet Medikationsplan</text><rect fill="#EEEEEE" height="3" rx="5" ry="5" style="stroke:#EEEEEE;stroke-width:1;" width="1504.1436" x="0" y="747.0859"/><line style="stroke:#000000;stroke-width:1;" x1="0" x2="1504.1436" y1="747.0859" y2="747.0859"/><line style="stroke:#000000;stroke-width:1;" x1="0" x2="1504.1436" y1="750.0859" y2="750.0859"/><rect fill="#EEEEEE" height="24.2969" rx="5" ry="5" style="stroke:#000000;stroke-width:2;" width="165.6758" x="669.2339" y="735.9375"/><text fill="#000000" font-family="'Arial'" font-size="14" font-weight="700" lengthAdjust="spacing" textLength="146.8018" x="675.2339" y="752.9326">Write durch GDA 2</text><g class="message" data-entity-1="part3" data-entity-2="part2" data-source-line="97" id="msg11"><line style="stroke:#111827;stroke-width:1;" x1="631.2275" x2="641.2275" y1="791.3672" y2="787.3672"/><line style="stroke:#111827;stroke-width:1;" x1="631.2275" x2="641.2275" y1="791.3672" y2="795.3672"/><line style="stroke:#111827;stroke-width:1;" x1="630.2275" x2="1112.2998" y1="791.3672" y2="791.3672"/><text fill="#000000" font-family="'Arial'" font-size="13" font-weight="700" lengthAdjust="spacing" textLength="18.0908" x="647.2275" y="786.3013">11</text><text fill="#000000" font-family="'Arial'" font-size="13" lengthAdjust="spacing" textLength="364.5586" x="669.3184" y="786.3013">POST $write (Transaction Bundle + List.identifier "123")</text></g><g class="message" data-entity-1="part2" data-entity-2="part2" data-source-line="100" id="msg12"><line style="stroke:#111827;stroke-width:1;" x1="630.2275" x2="672.2275" y1="835.6328" y2="835.6328"/><line style="stroke:#111827;stroke-width:1;" x1="672.2275" x2="672.2275" y1="835.6328" y2="848.6328"/><line style="stroke:#111827;stroke-width:1;" x1="631.2275" x2="672.2275" y1="848.6328" y2="848.6328"/><polygon fill="#111827" points="641.2275,844.6328,631.2275,848.6328,641.2275,852.6328,637.2275,848.6328" style="stroke:#111827;stroke-width:1;"/><text fill="#000000" font-family="'Arial'" font-size="13" font-weight="700" lengthAdjust="spacing" textLength="18.0908" x="637.2275" y="823.0005">12</text><text fill="#000000" font-family="'Arial'" font-size="13" lengthAdjust="spacing" textLength="302.231" x="659.3184" y="815.4341">List.identifier "123" im Transaction Bundle ==</text><text fill="#000000" font-family="'Arial'" font-size="13" lengthAdjust="spacing" textLength="285.0415" x="659.3184" y="830.5669">tempor&#228;r gespeicherter List.identifier "123"</text></g><g class="message" data-entity-1="part2" data-entity-2="part2" data-source-line="101" id="msg13"><line style="stroke:#111827;stroke-width:1;" x1="630.2275" x2="672.2275" y1="892.8984" y2="892.8984"/><line style="stroke:#111827;stroke-width:1;" x1="672.2275" x2="672.2275" y1="892.8984" y2="905.8984"/><line style="stroke:#111827;stroke-width:1;" x1="631.2275" x2="672.2275" y1="905.8984" y2="905.8984"/><polygon fill="#111827" points="641.2275,901.8984,631.2275,905.8984,641.2275,909.8984,637.2275,905.8984" style="stroke:#111827;stroke-width:1;"/><text fill="#000000" font-family="'Arial'" font-size="13" font-weight="700" lengthAdjust="spacing" textLength="18.0908" x="637.2275" y="880.2661">13</text><text fill="#000000" font-family="'Arial'" font-size="13" lengthAdjust="spacing" textLength="184.5835" x="659.3184" y="872.6997">Validierung des neuen Plans</text><text fill="#000000" font-family="'Arial'" font-size="13" lengthAdjust="spacing" textLength="269.3374" x="659.3184" y="887.8325">(keine unzul&#228;ssigen Zustands&#252;berg&#228;nge)</text></g><g class="message" data-entity-1="part2" data-entity-2="part2" data-source-line="102" id="msg14"><line style="stroke:#111827;stroke-width:1;" x1="630.2275" x2="672.2275" y1="950.1641" y2="950.1641"/><line style="stroke:#111827;stroke-width:1;" x1="672.2275" x2="672.2275" y1="950.1641" y2="963.1641"/><line style="stroke:#111827;stroke-width:1;" x1="631.2275" x2="672.2275" y1="963.1641" y2="963.1641"/><polygon fill="#111827" points="641.2275,959.1641,631.2275,963.1641,641.2275,967.1641,637.2275,963.1641" style="stroke:#111827;stroke-width:1;"/><text fill="#000000" font-family="'Arial'" font-size="13" font-weight="700" lengthAdjust="spacing" textLength="18.0908" x="637.2275" y="937.5317">14</text><text fill="#000000" font-family="'Arial'" font-size="13" lengthAdjust="spacing" textLength="182.1968" x="659.3184" y="929.9653">Persistiert neue Version des</text><text fill="#000000" font-family="'Arial'" font-size="13" lengthAdjust="spacing" textLength="268.8296" x="659.3184" y="945.0981">Medikationsplans mit List.identifier "123"</text></g><g class="message" data-entity-1="part2" data-entity-2="part2" data-source-line="103" id="msg15"><line style="stroke:#111827;stroke-width:1;" x1="630.2275" x2="672.2275" y1="992.2969" y2="992.2969"/><line style="stroke:#111827;stroke-width:1;" x1="672.2275" x2="672.2275" y1="992.2969" y2="1005.2969"/><line style="stroke:#111827;stroke-width:1;" x1="631.2275" x2="672.2275" y1="1005.2969" y2="1005.2969"/><polygon fill="#111827" points="641.2275,1001.2969,631.2275,1005.2969,641.2275,1009.2969,637.2275,1005.2969" style="stroke:#111827;stroke-width:1;"/><text fill="#000000" font-family="'Arial'" font-size="13" font-weight="700" lengthAdjust="spacing" textLength="18.0908" x="637.2275" y="987.231">15</text><text fill="#000000" font-family="'Arial'" font-size="13" lengthAdjust="spacing" textLength="253.6777" x="659.3184" y="987.231">L&#246;scht tempor&#228;ren List.identifier "123"</text></g><g class="message" data-entity-1="part2" data-entity-2="part3" data-source-line="104" id="msg16"><line style="stroke:#111827;stroke-width:1;" x1="1116.2998" x2="1106.2998" y1="1034.4297" y2="1030.4297"/><line style="stroke:#111827;stroke-width:1;" x1="1116.2998" x2="1106.2998" y1="1034.4297" y2="1038.4297"/><line style="stroke:#111827;stroke-width:1;stroke-dasharray:2,2;" x1="625.2275" x2="1117.2998" y1="1034.4297" y2="1034.4297"/><text fill="#000000" font-family="'Arial'" font-size="13" font-weight="700" lengthAdjust="spacing" textLength="18.0908" x="632.2275" y="1029.3638">16</text><text fill="#000000" font-family="'Arial'" font-size="13" lengthAdjust="spacing" textLength="18.7573" x="654.3184" y="1029.3638">OK</text></g><path d="M441,1052.4297 L441,1068.4297 A5,5 0 0 0 446,1073.4297 L800,1073.4297 A5,5 0 0 0 805,1068.4297 L805,1057.4297 L795,1047.4297 L446,1047.4297 A5,5 0 0 0 441,1052.4297" fill="url(#gqmyw8lh2afli0)" filter="url(#fqmyw8lh2afli)" style="stroke:#8B95A5;stroke-width:1;"/><path d="M795,1047.4297 L795,1054.9297 A2.5,2.5 0 0 0 797.5,1057.4297 L805,1057.4297 L795,1047.4297" fill="url(#gqmyw8lh2afli0)" style="stroke:#8B95A5;stroke-width:1;"/><text fill="#111827" font-family="'Arial'" font-size="14" lengthAdjust="spacing" textLength="343.4238" x="447" y="1065.4248">Medikationsplan wurde durch GDA 2 aktualisiert.</text><rect fill="#EEEEEE" height="3" rx="5" ry="5" style="stroke:#EEEEEE;stroke-width:1;" width="1504.1436" x="0" y="1102.875"/><line style="stroke:#000000;stroke-width:1;" x1="0" x2="1504.1436" y1="1102.875" y2="1102.875"/><line style="stroke:#000000;stroke-width:1;" x1="0" x2="1504.1436" y1="1105.875" y2="1105.875"/><rect fill="#EEEEEE" height="24.2969" rx="5" ry="5" style="stroke:#000000;stroke-width:2;" width="189.1846" x="657.4795" y="1091.7266"/><text fill="#000000" font-family="'Arial'" font-size="14" font-weight="700" lengthAdjust="spacing" textLength="170.3105" x="663.4795" y="1108.7217">Write-Error f&#252;r GDA 1</text><g class="message" data-entity-1="part1" data-entity-2="part2" data-source-line="115" id="msg17"><line style="stroke:#111827;stroke-width:1;" x1="618.2275" x2="608.2275" y1="1147.1563" y2="1143.1563"/><line style="stroke:#111827;stroke-width:1;" x1="618.2275" x2="608.2275" y1="1147.1563" y2="1151.1563"/><line style="stroke:#111827;stroke-width:1;" x1="142.0293" x2="619.2275" y1="1147.1563" y2="1147.1563"/><text fill="#000000" font-family="'Arial'" font-size="13" font-weight="700" lengthAdjust="spacing" textLength="18.0908" x="149.0293" y="1142.0903">17</text><text fill="#000000" font-family="'Arial'" font-size="13" lengthAdjust="spacing" textLength="364.5586" x="171.1201" y="1142.0903">POST $write (Transaction Bundle + List.identifier "123")</text></g><g class="message" data-entity-1="part2" data-entity-2="part2" data-source-line="118" id="msg18"><line style="stroke:#111827;stroke-width:1;" x1="630.2275" x2="672.2275" y1="1206.5547" y2="1206.5547"/><line style="stroke:#111827;stroke-width:1;" x1="672.2275" x2="672.2275" y1="1206.5547" y2="1219.5547"/><line style="stroke:#111827;stroke-width:1;" x1="631.2275" x2="672.2275" y1="1219.5547" y2="1219.5547"/><polygon fill="#111827" points="641.2275,1215.5547,631.2275,1219.5547,641.2275,1223.5547,637.2275,1219.5547" style="stroke:#111827;stroke-width:1;"/><text fill="#000000" font-family="'Arial'" font-size="13" font-weight="700" lengthAdjust="spacing" textLength="18.0908" x="637.2275" y="1186.356">18</text><text fill="#000000" font-family="'Arial'" font-size="13" lengthAdjust="spacing" textLength="358.687" x="659.3184" y="1171.2231">List.identifier "123" im TransactionBundle stimmt nicht</text><text fill="#000000" font-family="'Arial'" font-size="13" lengthAdjust="spacing" textLength="326.3521" x="659.3184" y="1186.356">mit tempor&#228;r gespeicherten List.identifier &#252;berein</text><text fill="#000000" font-family="'Arial'" font-size="13" lengthAdjust="spacing" textLength="162.4365" x="659.3184" y="1201.4888">(kein Eintrag vorhanden)</text></g><g class="message" data-entity-1="part2" data-entity-2="part2" data-source-line="119" id="msg19"><line style="stroke:#111827;stroke-width:1;" x1="630.2275" x2="672.2275" y1="1248.6875" y2="1248.6875"/><line style="stroke:#111827;stroke-width:1;" x1="672.2275" x2="672.2275" y1="1248.6875" y2="1261.6875"/><line style="stroke:#111827;stroke-width:1;" x1="631.2275" x2="672.2275" y1="1261.6875" y2="1261.6875"/><polygon fill="#111827" points="641.2275,1257.6875,631.2275,1261.6875,641.2275,1265.6875,637.2275,1261.6875" style="stroke:#111827;stroke-width:1;"/><text fill="#000000" font-family="'Arial'" font-size="13" font-weight="700" lengthAdjust="spacing" textLength="18.0908" x="637.2275" y="1243.6216">19</text><text fill="#000000" font-family="'Arial'" font-size="13" lengthAdjust="spacing" textLength="233.7715" x="659.3184" y="1243.6216">Fachanwendung lehnt Speichern ab</text></g><g class="message" data-entity-1="part2" data-entity-2="part1" data-source-line="120" id="msg20"><line style="stroke:#111827;stroke-width:1;" x1="138.0293" x2="148.0293" y1="1290.8203" y2="1286.8203"/><line style="stroke:#111827;stroke-width:1;" x1="138.0293" x2="148.0293" y1="1290.8203" y2="1294.8203"/><line style="stroke:#111827;stroke-width:1;stroke-dasharray:2,2;" x1="137.0293" x2="624.2275" y1="1290.8203" y2="1290.8203"/><text fill="#000000" font-family="'Arial'" font-size="13" font-weight="700" lengthAdjust="spacing" textLength="18.0908" x="154.0293" y="1285.7544">20</text><text fill="#000000" font-family="'Arial'" font-size="13" lengthAdjust="spacing" textLength="104.0889" x="176.1201" y="1285.7544">Fehler (Konflikt)</text></g><path d="M6,1308.8203 L6,1324.8203 A5,5 0 0 0 11,1329.8203 L747,1329.8203 A5,5 0 0 0 752,1324.8203 L752,1313.8203 L742,1303.8203 L11,1303.8203 A5,5 0 0 0 6,1308.8203" fill="url(#gqmyw8lh2afli0)" filter="url(#fqmyw8lh2afli)" style="stroke:#8B95A5;stroke-width:1;"/><path d="M742,1303.8203 L742,1311.3203 A2.5,2.5 0 0 0 744.5,1313.8203 L752,1313.8203 L742,1303.8203" fill="url(#gqmyw8lh2afli0)" style="stroke:#8B95A5;stroke-width:1;"/><text fill="#111827" font-family="'Arial'" font-size="14" lengthAdjust="spacing" textLength="725.5869" x="12" y="1321.8154">Speichern des Medikationsplans wurde abgelehnt, der GDA 1 muss ein neues Read-to-Write ausf&#252;hren.</text><g class="footer" data-source-line="128"><text fill="#000000" font-family="'Arial'" font-size="10" lengthAdjust="spacing" textLength="55.2295" x="723.957" y="1437.6963">Write-Error</text></g><?plantuml-src vLR1RkCs4BtpAmPE3mcwpaRAkaaAU05dcxJ0Rhl69jq2HO059OqamXBfabISfkZVv1jwoiq_rY4jsPAjDjcYG0zL3ad8cJSpxpsACZCXvrpp4YAb4zHlLA4qx1tvXvdDBezdcLQLJEg8TEH-MX4cvubQ29b1oWk3hPqwJKlK4BH14qnvLTXB9UqFl4GOJBJWnQ0_uahS8mIl-ZUxRRTYfB88lp60y-q1y0X7wT5mBmcIC_pAHRG9E8tEHdoqNhtEHJoJQ0m4jFQXDT0f_J_bIU86ToYjRe8WE0rFQErgJOtL5RBVsmr-z-iSTI7ah3N2nKLVm8yoyNzWJN2RU_obGXcl9froRKKivbpQpaWZ_sm5xCZgdsxGBi4xsuqudOs6bj0bJBHMYsrY_6ANMx_KLt6ziQfrJ4lVKkVppenhvDNMZkQOXdwwLkQcVDXLvbpTjIRehFVnoY9r1uCRIU3VJ2006C3UMKhdnh72OqkXjF4f06vWu4C636L2v-wkbUiV77wF2LpoEEToGJ4LjR1w2FFDgzEJ4-Uw-OPfG4huT3dns7Nsf1_ULGuzK8GS8-mq5wwR2tkofzmAf68-cSV7fz4wkTbowVNVBG36AwjaLKQe6GCs7iC7vCdGgk5FMj3vJ2eTvpLjup4ZI77BQTtpnLQi3L-_RgRy6gRlhwxX2qqWLYqS1DiarK6ieMJOofj8oVCI2K0l7rD7AwzIYD1OpAbRb3UIGiMC9b3Ip0ik0NMgYaoZYFDUI391WR6BXtCoMe5mNscOLAOGcA9sDL0JVb7O6xbFnxWu18lbNEdbWyOItWbZ3mMLjY8Lz3uP1E7nu81jQhd1FGLzjRxipsS9xl2nvh51kn3IKXCPGYxaVPKk7pEKBvSFxZKZNn8WjIzHCkRVeUeMzKOG4ehieoCaxYriSUQ5TqdixwGEdTHivRednEqO8lmVQ1t-6rg7ZTRXFzOwP2kbdglrPshirONzQysbuS-PzU2PslScWoYXfzHuV2FN8a66PkxqHsqfhv_mleeVUI4IiV90WWOaqeKCKsB8a1LcwAxjYfWlbW_6228VVgwCvJ8noqTwBMOaHOO7lT1JyXJrGU3Mmy97jq03K9qT3nieXVsCljyj_p1nRbisbKzbjqpw_YsqxLSVpus76ess3zgYelkpunC-inLHQDoKXorJzPcxCThmWZu9D92PzURo-ElhuZzrMrs9P2nBaf4SHgy89rM_zNP5y3OX6zLkMfredi6jqlILG77zvkb-H1IOqoLzLPUHmAFUU-OIyu9AxhzLCYt4p1viYnpiQloYtjY0ksEmuywLyZpAqFVoWg8QySgAli7SQCxaPklUu9KXdNEovrFkY8aomaoLShzQHlaJ?></g></svg>