<svg xmlns="http://www.w3.org/2000/svg" xmlns:xlink="http://www.w3.org/1999/xlink" contentStyleType="text/css" data-diagram-type="SEQUENCE" height="517px" preserveAspectRatio="none" style="width:1075px;height:517px;background:#F5F5F5;" version="1.1" viewBox="0 0 1075 517" width="1075px" zoomAndPan="magnify"><?plantuml 1.2026.3beta6?><defs><linearGradient id="g1088ztlplrjps0" x1="50%" x2="50%" y1="0%" y2="100%"><stop offset="0%" stop-color="#E0E5F0"/><stop offset="100%" stop-color="#D1D9E6"/></linearGradient><filter height="300%" id="f1088ztlplrjps" width="300%" x="-1" y="-1"><feGaussianBlur result="blurOut" stdDeviation="2"/><feColorMatrix in="blurOut" result="blurOut2" type="matrix" values="0 0 0 0 0 0 0 0 0 0 0 0 0 0 0 0 0 0 .4 0"/><feOffset dx="4" dy="4" in="blurOut2" result="blurOut3"/><feBlend in="SourceGraphic" in2="blurOut3" mode="normal"/></filter></defs><g><rect fill="#F5F5F5" height="517" style="stroke:none;stroke-width:1;" width="1075" x="0" y="0"/><rect fill="#9FBAC4" height="492.3359" rx="5" ry="5" style="stroke:#181818;stroke-width:0.5;" width="74.0586" x="21" y="6"/><text fill="#000000" font-family="'Arial'" font-size="14" font-weight="700" lengthAdjust="spacing" textLength="4.874" x="24" y="18.9951">&#160;</text><text fill="#000000" font-family="'Arial'" font-size="14" font-weight="700" lengthAdjust="spacing" textLength="48.5625" x="33.748" y="35.292">GDA 1</text><rect fill="#C48778" height="492.3359" rx="5" ry="5" style="stroke:#181818;stroke-width:0.5;" width="256.9268" x="468.6577" y="6"/><text fill="#000000" font-family="'Arial'" font-size="14" font-weight="700" lengthAdjust="spacing" textLength="4.874" x="471.6577" y="18.9951">&#160;</text><text fill="#000000" font-family="'Arial'" font-size="14" font-weight="700" lengthAdjust="spacing" textLength="182.6904" x="505.7759" y="35.292">e-Med Fachanwendung</text><rect fill="#BEAEBE" height="492.3359" rx="5" ry="5" style="stroke:#181818;stroke-width:0.5;" width="83.8066" x="844.5474" y="6"/><text fill="#000000" font-family="'Arial'" font-size="14" font-weight="700" lengthAdjust="spacing" textLength="4.874" x="847.5474" y="18.9951">&#160;</text><text fill="#000000" font-family="'Arial'" font-size="14" font-weight="700" lengthAdjust="spacing" textLength="48.5625" x="867.0435" y="35.292">GDA 2</text><rect fill="#BAC38B" height="492.3359" rx="5" ry="5" style="stroke:#181818;stroke-width:0.5;" width="77.9756" x="970.354" y="6"/><text fill="#000000" font-family="'Arial'" font-size="14" font-weight="700" lengthAdjust="spacing" textLength="4.874" x="973.354" y="18.9951">&#160;</text><text fill="#000000" font-family="'Arial'" font-size="14" font-weight="700" lengthAdjust="spacing" textLength="57.3535" x="978.228" y="35.292">Patient</text><g><title>GDA 1</title><rect fill="#FFFFFF" height="225.8516" style="stroke:#181818;stroke-width:1;" width="10" x="53.0293" y="128.8906"/></g><g><title>e-Med FA</title><rect fill="#FFFFFF" height="175.4219" style="stroke:#181818;stroke-width:1;" width="10" x="592.1211" y="194.3203"/></g><rect fill="none" height="96.1563" rx="5" ry="5" style="stroke:#111827;stroke-width:2;" width="644.0356" x="22.7476" y="266.5859"/><g class="participant-lifeline" data-entity-uid="part1" data-qualified-name="GDA_1" data-source-line="41" id="part1-lifeline"><g><title>GDA 1</title><rect fill="#000000" fill-opacity="0.00000" height="300.1484" width="8" x="54.0293" y="118.8906"/><line style="stroke:#181818;stroke-width:0.5;stroke-dasharray:5,5;" x1="57.7476" x2="57.7476" y1="118.8906" y2="419.0391"/></g></g><g class="participant-lifeline" data-entity-uid="part2" data-qualified-name="eMed_FA" data-source-line="45" id="part2-lifeline"><g><title>e-Med FA</title><rect fill="#000000" fill-opacity="0.00000" height="300.1484" width="8" x="593.1211" y="118.8906"/><line style="stroke:#181818;stroke-width:0.5;stroke-dasharray:5,5;" x1="596.459" x2="596.459" y1="118.8906" y2="419.0391"/></g></g><g class="participant-lifeline" data-entity-uid="part3" data-qualified-name="GDA_2" data-source-line="49" id="part3-lifeline"><g><title>GDA 2</title><rect fill="#000000" fill-opacity="0.00000" height="300.1484" width="8" x="882.4507" y="118.8906"/><line style="stroke:#181818;stroke-width:0.5;stroke-dasharray:5,5;" x1="886.1689" x2="886.1689" y1="118.8906" y2="419.0391"/></g></g><g class="participant-lifeline" data-entity-uid="part4" data-qualified-name="Patient" data-source-line="53" id="part4-lifeline"><g><title>Patient</title><rect fill="#000000" fill-opacity="0.00000" height="300.1484" width="8" x="1005.3418" y="118.8906"/><line style="stroke:#181818;stroke-width:0.5;stroke-dasharray:5,5;" x1="1008.6538" x2="1008.6538" y1="118.8906" y2="419.0391"/></g></g><g class="participant participant-head" data-entity-uid="part1" data-qualified-name="GDA_1" data-source-line="41" id="part1-head"><text fill="#000000" font-family="'Arial'" font-size="14" lengthAdjust="spacing" textLength="44.5635" x="32.7476" y="115.5889">GDA 1</text><ellipse cx="58.0293" cy="51.0938" fill="#E2E2F0" rx="8" ry="8" style="stroke:#181818;stroke-width:0.5;"/><path d="M58.0293,59.0938 L58.0293,86.0938 M45.0293,67.0938 L71.0293,67.0938 M58.0293,86.0938 L45.0293,101.0938 M58.0293,86.0938 L71.0293,101.0938" fill="none" style="stroke:#181818;stroke-width:0.5;"/></g><g class="participant participant-tail" data-entity-uid="part1" data-qualified-name="GDA_1" data-source-line="41" id="part1-tail"><text fill="#000000" font-family="'Arial'" font-size="14" lengthAdjust="spacing" textLength="44.5635" x="32.7476" y="431.0342">GDA 1</text><ellipse cx="58.0293" cy="442.8359" fill="#E2E2F0" rx="8" ry="8" style="stroke:#181818;stroke-width:0.5;"/><path d="M58.0293,450.8359 L58.0293,477.8359 M45.0293,458.8359 L71.0293,458.8359 M58.0293,477.8359 L45.0293,492.8359 M58.0293,477.8359 L71.0293,492.8359" fill="none" style="stroke:#181818;stroke-width:0.5;"/></g><g class="participant participant-head" data-entity-uid="part2" data-qualified-name="eMed_FA" data-source-line="45" id="part2-head"><rect fill="#FFFFFF" height="30.2969" rx="5" ry="5" style="stroke:#555555;stroke-width:0.5;" width="79.3242" x="557.459" y="87.5938"/><text fill="#000000" font-family="'Arial'" font-size="14" lengthAdjust="spacing" textLength="65.3242" x="564.459" y="107.5889">e-Med FA</text></g><g class="participant participant-tail" data-entity-uid="part2" data-qualified-name="eMed_FA" data-source-line="45" id="part2-tail"><rect fill="#FFFFFF" height="30.2969" rx="5" ry="5" style="stroke:#555555;stroke-width:0.5;" width="79.3242" x="557.459" y="418.0391"/><text fill="#000000" font-family="'Arial'" font-size="14" lengthAdjust="spacing" textLength="65.3242" x="564.459" y="438.0342">e-Med FA</text></g><g class="participant participant-head" data-entity-uid="part3" data-qualified-name="GDA_2" data-source-line="49" id="part3-head"><text fill="#000000" font-family="'Arial'" font-size="14" lengthAdjust="spacing" textLength="44.5635" x="861.1689" y="115.5889">GDA 2</text><ellipse cx="886.4507" cy="51.0938" fill="#E2E2F0" rx="8" ry="8" style="stroke:#181818;stroke-width:0.5;"/><path d="M886.4507,59.0938 L886.4507,86.0938 M873.4507,67.0938 L899.4507,67.0938 M886.4507,86.0938 L873.4507,101.0938 M886.4507,86.0938 L899.4507,101.0938" fill="none" style="stroke:#181818;stroke-width:0.5;"/></g><g class="participant participant-tail" data-entity-uid="part3" data-qualified-name="GDA_2" data-source-line="49" id="part3-tail"><text fill="#000000" font-family="'Arial'" font-size="14" lengthAdjust="spacing" textLength="44.5635" x="861.1689" y="431.0342">GDA 2</text><ellipse cx="886.4507" cy="442.8359" fill="#E2E2F0" rx="8" ry="8" style="stroke:#181818;stroke-width:0.5;"/><path d="M886.4507,450.8359 L886.4507,477.8359 M873.4507,458.8359 L899.4507,458.8359 M886.4507,477.8359 L873.4507,492.8359 M886.4507,477.8359 L899.4507,492.8359" fill="none" style="stroke:#181818;stroke-width:0.5;"/></g><g class="participant participant-head" data-entity-uid="part4" data-qualified-name="Patient" data-source-line="53" id="part4-head"><text fill="#000000" font-family="'Arial'" font-size="14" lengthAdjust="spacing" textLength="49.376" x="981.6538" y="115.5889">Patient</text><ellipse cx="1009.3418" cy="51.0938" fill="#E2E2F0" rx="8" ry="8" style="stroke:#181818;stroke-width:0.5;"/><path d="M1009.3418,59.0938 L1009.3418,86.0938 M996.3418,67.0938 L1022.3418,67.0938 M1009.3418,86.0938 L996.3418,101.0938 M1009.3418,86.0938 L1022.3418,101.0938" fill="none" style="stroke:#181818;stroke-width:0.5;"/></g><g class="participant participant-tail" data-entity-uid="part4" data-qualified-name="Patient" data-source-line="53" id="part4-tail"><text fill="#000000" font-family="'Arial'" font-size="14" lengthAdjust="spacing" textLength="49.376" x="981.6538" y="431.0342">Patient</text><ellipse cx="1009.3418" cy="442.8359" fill="#E2E2F0" rx="8" ry="8" style="stroke:#181818;stroke-width:0.5;"/><path d="M1009.3418,450.8359 L1009.3418,477.8359 M996.3418,458.8359 L1022.3418,458.8359 M1009.3418,477.8359 L996.3418,492.8359 M1009.3418,477.8359 L1022.3418,492.8359" fill="none" style="stroke:#181818;stroke-width:0.5;"/></g><g><title>GDA 1</title><rect fill="#FFFFFF" height="225.8516" style="stroke:#181818;stroke-width:1;" width="10" x="53.0293" y="128.8906"/></g><g><title>e-Med FA</title><rect fill="#FFFFFF" height="175.4219" style="stroke:#181818;stroke-width:1;" width="10" x="592.1211" y="194.3203"/></g><rect fill="#EEEEEE" height="3" rx="5" ry="5" style="stroke:#EEEEEE;stroke-width:1;" width="1069.3296" x="0" y="150.0391"/><line style="stroke:#000000;stroke-width:1;" x1="0" x2="1069.3296" y1="150.0391" y2="150.0391"/><line style="stroke:#000000;stroke-width:1;" x1="0" x2="1069.3296" y1="153.0391" y2="153.0391"/><rect fill="#EEEEEE" height="24.2969" rx="5" ry="5" style="stroke:#000000;stroke-width:2;" width="58.6182" x="505.3557" y="138.8906"/><text fill="#000000" font-family="'Arial'" font-size="14" font-weight="700" lengthAdjust="spacing" textLength="39.7441" x="511.3557" y="155.8857">Read</text><g class="message" data-entity-1="part1" data-entity-2="part2" data-source-line="61" id="msg1"><line style="stroke:#111827;stroke-width:1;" x1="590.1211" x2="580.1211" y1="194.3203" y2="190.3203"/><line style="stroke:#111827;stroke-width:1;" x1="590.1211" x2="580.1211" y1="194.3203" y2="198.3203"/><line style="stroke:#111827;stroke-width:1;" x1="63.0293" x2="591.1211" y1="194.3203" y2="194.3203"/><text fill="#000000" font-family="'Arial'" font-size="13" font-weight="700" lengthAdjust="spacing" textLength="9.0454" x="70.0293" y="189.2544">1</text><text fill="#000000" font-family="'Arial'" font-size="13" lengthAdjust="spacing" textLength="139.9214" x="83.0747" y="189.2544">GET CollectionBundle</text></g><g class="message" data-entity-1="part2" data-entity-2="part2" data-source-line="64" id="msg2"><line style="stroke:#111827;stroke-width:1;" x1="602.1211" x2="644.1211" y1="238.5859" y2="238.5859"/><line style="stroke:#111827;stroke-width:1;" x1="644.1211" x2="644.1211" y1="238.5859" y2="251.5859"/><line style="stroke:#111827;stroke-width:1;" x1="603.1211" x2="644.1211" y1="251.5859" y2="251.5859"/><polygon fill="#111827" points="613.1211,247.5859,603.1211,251.5859,613.1211,255.5859,609.1211,251.5859" style="stroke:#111827;stroke-width:1;"/><text fill="#000000" font-family="'Arial'" font-size="13" font-weight="700" lengthAdjust="spacing" textLength="9.0454" x="609.1211" y="225.9536">2</text><text fill="#000000" font-family="'Arial'" font-size="13" lengthAdjust="spacing" textLength="164.8613" x="622.1665" y="218.3872">Pr&#252;fung auf bestehenden</text><text fill="#000000" font-family="'Arial'" font-size="13" lengthAdjust="spacing" textLength="106.3169" x="622.1665" y="233.52">Medikationsplan</text></g><path d="M27.7476,266.5859 L88.686,266.5859 L88.686,274.8828 L78.686,284.8828 L22.7476,284.8828 L22.7476,271.5859 A5,5 0 0 1 27.7476,266.5859" fill="#EEF2FF" style="stroke:#111827;stroke-width:1.5;"/><rect fill="none" height="96.1563" rx="5" ry="5" style="stroke:#111827;stroke-width:2;" width="644.0356" x="22.7476" y="266.5859"/><text fill="#000000" font-family="'Arial'" font-size="14" font-weight="700" lengthAdjust="spacing" textLength="20.9385" x="37.7476" y="280.5811">alt</text><text fill="#000000" font-family="'Arial'" font-size="14" font-weight="700" lengthAdjust="spacing" textLength="271.2773" x="103.686" y="281.5811">[kein Medikationsplan vorhanden]</text><g class="message" data-entity-1="part2" data-entity-2="part1" data-source-line="67" id="msg3"><line style="stroke:#111827;stroke-width:1;" x1="64.0293" x2="74.0293" y1="307.3125" y2="303.3125"/><line style="stroke:#111827;stroke-width:1;" x1="64.0293" x2="74.0293" y1="307.3125" y2="311.3125"/><line style="stroke:#111827;stroke-width:1;stroke-dasharray:2,2;" x1="63.0293" x2="591.1211" y1="307.3125" y2="307.3125"/><text fill="#000000" font-family="'Arial'" font-size="13" font-weight="700" lengthAdjust="spacing" textLength="9.0454" x="80.0293" y="302.2466">3</text><text fill="#000000" font-family="'Arial'" font-size="13" lengthAdjust="spacing" textLength="100.5405" x="93.0747" y="302.2466">leeres Ergebnis</text></g><line style="stroke:#111827;stroke-width:1;stroke-dasharray:2,2;" x1="22.7476" x2="666.7832" y1="316.3125" y2="316.3125"/><text fill="#000000" font-family="'Arial'" font-size="14" font-weight="700" lengthAdjust="spacing" textLength="232.832" x="27.7476" y="329.3076">[Medikationsplan vorhanden]</text><g class="message" data-entity-1="part2" data-entity-2="part1" data-source-line="69" id="msg4"><line style="stroke:#111827;stroke-width:1;" x1="59.0293" x2="69.0293" y1="354.7422" y2="350.7422"/><line style="stroke:#111827;stroke-width:1;" x1="59.0293" x2="69.0293" y1="354.7422" y2="358.7422"/><line style="stroke:#111827;stroke-width:1;stroke-dasharray:2,2;" x1="58.0293" x2="591.1211" y1="354.7422" y2="354.7422"/><text fill="#000000" font-family="'Arial'" font-size="13" font-weight="700" lengthAdjust="spacing" textLength="9.0454" x="75.0293" y="349.6763">4</text><text fill="#000000" font-family="'Arial'" font-size="13" lengthAdjust="spacing" textLength="419.4976" x="88.0747" y="349.6763">CollectionBundle (Medikationsplan + Ressourcen) (unver&#228;ndert)</text></g><path d="M18,379.7422 L18,395.7422 A5,5 0 0 0 23,400.7422 L632,400.7422 A5,5 0 0 0 637,395.7422 L637,384.7422 L627,374.7422 L23,374.7422 A5,5 0 0 0 18,379.7422" fill="url(#g1088ztlplrjps0)" filter="url(#f1088ztlplrjps)" style="stroke:#8B95A5;stroke-width:1;"/><path d="M627,374.7422 L627,382.2422 A2.5,2.5 0 0 0 629.5,384.7422 L637,384.7422 L627,374.7422" fill="url(#g1088ztlplrjps0)" style="stroke:#8B95A5;stroke-width:1;"/><text fill="#111827" font-family="'Arial'" font-size="14" lengthAdjust="spacing" textLength="484.2373" x="79.3992" y="392.7373">Fachanwendung liefert Medikationsplan oder leeres Ergebnis zur&#252;ck.</text><g class="footer" data-source-line="78"><text fill="#000000" font-family="'Arial'" font-size="10" lengthAdjust="spacing" textLength="87.4121" x="490.4587" y="508.6182">Read-only-Zugriff</text></g><?plantuml-src bLJBRjim4BppAnRE9K7hmbBYnWxW04xgf9SKHf9UYW019QviGWhfab9UHV-cdz5RVgnBsbOeMPVI1zkxCxixiw9iBjMA6_u0YJO2pRakj86zWJ_ClcTvcY-ChfJO8BAX-mG8k-H2FqcrW8mN5eFCXcOK6eZ2eW8pNXNbXLRbD_w0q9iQoOjUD-96lY94Hzt9vjW1HkaIuHS3E6iBm04Eiq5_JqHYZ9yT8ZHWb8o7V5X7RvSopHLQ2n75hWD18_e_vq8uuQvAC4qKHQFuc68tjJMbgP3z3WVy-h92KqYL1n9ciox0ToNy3zmO77gFFojKwLhfd9jIfdB5LTcGDFId1TXPgpzDqAx1E-djSXg9hIsn8qoDqKzjOtomwQqFTNMi4-jUXnIwfCbN3OrrvNLgP-UOnLvTm7nl7pStSwQV0mMDU9UlBD7FqBjJLFpB52A07koDCxetpXMUbWIbn7q4t4BFGteCbQ1xznnm_S7-5GguuEcIgoV2L3J2-b3DywFHyR5xwbRlJWCIuVvYwcjlsDFkygvpx0ibo371nd1nFLpSmPxpKY8rysIU7ewIchnDEVhcTr20yQhKgdf8q30scS0rSW6J2IEkVEHqGRqnR6rF__HqA-S4BcUtG3ONI4YjpcYJ1JtuDM-3Orlv_O0wDsz_C-SShp98q9Quf85GtIb2o9oxWdPLS4NrYX9ob0fQ6NZKXbP0919Qzt03-b5Fe40qQ65c5fWeQHdIlVpl8crziD-ky84SirPN9aLr0FkLUaJpziUz3ie3AYgmPIJfP45mwnBpBqDDv3NkOvrfFcg5n8nAxmZHrB0j6LuhyZdDF_bjkmQCqPGb8JEjtPTRTb-hugN_ereOcMN_0000?></g></svg>