<svg xmlns="http://www.w3.org/2000/svg" xmlns:xlink="http://www.w3.org/1999/xlink" contentStyleType="text/css" data-diagram-type="SEQUENCE" height="822px" preserveAspectRatio="none" style="width:1218px;height:822px;background:#F5F5F5;" version="1.1" viewBox="0 0 1218 822" width="1218px" zoomAndPan="magnify"><?plantuml 1.2026.3beta6?><defs><linearGradient id="gt5m93elnaaqz0" x1="50%" x2="50%" y1="0%" y2="100%"><stop offset="0%" stop-color="#E0E5F0"/><stop offset="100%" stop-color="#D1D9E6"/></linearGradient><filter height="300%" id="ft5m93elnaaqz" width="300%" x="-1" y="-1"><feGaussianBlur result="blurOut" stdDeviation="2"/><feColorMatrix in="blurOut" result="blurOut2" type="matrix" values="0 0 0 0 0 0 0 0 0 0 0 0 0 0 0 0 0 0 .4 0"/><feOffset dx="4" dy="4" in="blurOut2" result="blurOut3"/><feBlend in="SourceGraphic" in2="blurOut3" mode="normal"/></filter></defs><g><rect fill="#F5F5F5" height="822" style="stroke:none;stroke-width:1;" width="1218" x="0" y="0"/><rect fill="#9FBAC4" height="796.5547" rx="5" ry="5" style="stroke:#181818;stroke-width:0.5;" width="74.0586" x="161" y="6"/><text fill="#000000" font-family="'Arial'" font-size="14" font-weight="700" lengthAdjust="spacing" textLength="4.874" x="164" y="18.9951">&#160;</text><text fill="#000000" font-family="'Arial'" font-size="14" font-weight="700" lengthAdjust="spacing" textLength="48.5625" x="173.748" y="35.292">GDA 1</text><rect fill="#C48778" height="796.5547" rx="5" ry="5" style="stroke:#181818;stroke-width:0.5;" width="256.9268" x="439.0039" y="6"/><text fill="#000000" font-family="'Arial'" font-size="14" font-weight="700" lengthAdjust="spacing" textLength="4.874" x="442.0039" y="18.9951">&#160;</text><text fill="#000000" font-family="'Arial'" font-size="14" font-weight="700" lengthAdjust="spacing" textLength="182.6904" x="476.1221" y="35.292">e-Med Fachanwendung</text><rect fill="#BEAEBE" height="796.5547" rx="5" ry="5" style="stroke:#181818;stroke-width:0.5;" width="83.8066" x="987.7339" y="6"/><text fill="#000000" font-family="'Arial'" font-size="14" font-weight="700" lengthAdjust="spacing" textLength="4.874" x="990.7339" y="18.9951">&#160;</text><text fill="#000000" font-family="'Arial'" font-size="14" font-weight="700" lengthAdjust="spacing" textLength="48.5625" x="1010.23" y="35.292">GDA 2</text><rect fill="#BAC38B" height="796.5547" rx="5" ry="5" style="stroke:#181818;stroke-width:0.5;" width="77.9756" x="1113.5405" y="6"/><text fill="#000000" font-family="'Arial'" font-size="14" font-weight="700" lengthAdjust="spacing" textLength="4.874" x="1116.5405" y="18.9951">&#160;</text><text fill="#000000" font-family="'Arial'" font-size="14" font-weight="700" lengthAdjust="spacing" textLength="57.3535" x="1121.4146" y="35.292">Patient</text><g><title>GDA 1</title><rect fill="#FFFFFF" height="519.9375" style="stroke:#181818;stroke-width:1;" width="10" x="193.0293" y="194.3203"/></g><g><title>e-Med FA</title><rect fill="#FFFFFF" height="406.2109" style="stroke:#181818;stroke-width:1;" width="10" x="562.4673" y="194.3203"/></g><rect fill="none" height="286.3516" rx="5" ry="5" style="stroke:#111827;stroke-width:2;" width="789.4668" x="162.7476" y="322.1797"/><g class="participant-lifeline" data-entity-uid="part1" data-qualified-name="GDA_1" data-source-line="41" id="part1-lifeline"><g><title>GDA 1</title><rect fill="#000000" fill-opacity="0.00000" height="604.3672" width="8" x="194.0293" y="118.8906"/><line style="stroke:#181818;stroke-width:0.5;stroke-dasharray:5,5;" x1="197.7476" x2="197.7476" y1="118.8906" y2="723.2578"/></g></g><g class="participant-lifeline" data-entity-uid="part2" data-qualified-name="eMed_FA" data-source-line="45" id="part2-lifeline"><g><title>e-Med FA</title><rect fill="#000000" fill-opacity="0.00000" height="604.3672" width="8" x="563.4673" y="118.8906"/><line style="stroke:#181818;stroke-width:0.5;stroke-dasharray:5,5;" x1="566.8052" x2="566.8052" y1="118.8906" y2="723.2578"/></g></g><g class="participant-lifeline" data-entity-uid="part3" data-qualified-name="GDA_2" data-source-line="49" id="part3-lifeline"><g><title>GDA 2</title><rect fill="#000000" fill-opacity="0.00000" height="604.3672" width="8" x="1025.6372" y="118.8906"/><line style="stroke:#181818;stroke-width:0.5;stroke-dasharray:5,5;" x1="1029.3555" x2="1029.3555" y1="118.8906" y2="723.2578"/></g></g><g class="participant-lifeline" data-entity-uid="part4" data-qualified-name="Patient" data-source-line="53" id="part4-lifeline"><g><title>Patient</title><rect fill="#000000" fill-opacity="0.00000" height="604.3672" width="8" x="1148.5283" y="118.8906"/><line style="stroke:#181818;stroke-width:0.5;stroke-dasharray:5,5;" x1="1151.8403" x2="1151.8403" y1="118.8906" y2="723.2578"/></g></g><g class="participant participant-head" data-entity-uid="part1" data-qualified-name="GDA_1" data-source-line="41" id="part1-head"><text fill="#000000" font-family="'Arial'" font-size="14" lengthAdjust="spacing" textLength="44.5635" x="172.7476" y="115.5889">GDA 1</text><ellipse cx="198.0293" cy="51.0938" fill="#E2E2F0" rx="8" ry="8" style="stroke:#181818;stroke-width:0.5;"/><path d="M198.0293,59.0938 L198.0293,86.0938 M185.0293,67.0938 L211.0293,67.0938 M198.0293,86.0938 L185.0293,101.0938 M198.0293,86.0938 L211.0293,101.0938" fill="none" style="stroke:#181818;stroke-width:0.5;"/></g><g class="participant participant-tail" data-entity-uid="part1" data-qualified-name="GDA_1" data-source-line="41" id="part1-tail"><text fill="#000000" font-family="'Arial'" font-size="14" lengthAdjust="spacing" textLength="44.5635" x="172.7476" y="735.2529">GDA 1</text><ellipse cx="198.0293" cy="747.0547" fill="#E2E2F0" rx="8" ry="8" style="stroke:#181818;stroke-width:0.5;"/><path d="M198.0293,755.0547 L198.0293,782.0547 M185.0293,763.0547 L211.0293,763.0547 M198.0293,782.0547 L185.0293,797.0547 M198.0293,782.0547 L211.0293,797.0547" fill="none" style="stroke:#181818;stroke-width:0.5;"/></g><g class="participant participant-head" data-entity-uid="part2" data-qualified-name="eMed_FA" data-source-line="45" id="part2-head"><rect fill="#FFFFFF" height="30.2969" rx="5" ry="5" style="stroke:#555555;stroke-width:0.5;" width="79.3242" x="527.8052" y="87.5938"/><text fill="#000000" font-family="'Arial'" font-size="14" lengthAdjust="spacing" textLength="65.3242" x="534.8052" y="107.5889">e-Med FA</text></g><g class="participant participant-tail" data-entity-uid="part2" data-qualified-name="eMed_FA" data-source-line="45" id="part2-tail"><rect fill="#FFFFFF" height="30.2969" rx="5" ry="5" style="stroke:#555555;stroke-width:0.5;" width="79.3242" x="527.8052" y="722.2578"/><text fill="#000000" font-family="'Arial'" font-size="14" lengthAdjust="spacing" textLength="65.3242" x="534.8052" y="742.2529">e-Med FA</text></g><g class="participant participant-head" data-entity-uid="part3" data-qualified-name="GDA_2" data-source-line="49" id="part3-head"><text fill="#000000" font-family="'Arial'" font-size="14" lengthAdjust="spacing" textLength="44.5635" x="1004.3555" y="115.5889">GDA 2</text><ellipse cx="1029.6372" cy="51.0938" fill="#E2E2F0" rx="8" ry="8" style="stroke:#181818;stroke-width:0.5;"/><path d="M1029.6372,59.0938 L1029.6372,86.0938 M1016.6372,67.0938 L1042.6372,67.0938 M1029.6372,86.0938 L1016.6372,101.0938 M1029.6372,86.0938 L1042.6372,101.0938" fill="none" style="stroke:#181818;stroke-width:0.5;"/></g><g class="participant participant-tail" data-entity-uid="part3" data-qualified-name="GDA_2" data-source-line="49" id="part3-tail"><text fill="#000000" font-family="'Arial'" font-size="14" lengthAdjust="spacing" textLength="44.5635" x="1004.3555" y="735.2529">GDA 2</text><ellipse cx="1029.6372" cy="747.0547" fill="#E2E2F0" rx="8" ry="8" style="stroke:#181818;stroke-width:0.5;"/><path d="M1029.6372,755.0547 L1029.6372,782.0547 M1016.6372,763.0547 L1042.6372,763.0547 M1029.6372,782.0547 L1016.6372,797.0547 M1029.6372,782.0547 L1042.6372,797.0547" fill="none" style="stroke:#181818;stroke-width:0.5;"/></g><g class="participant participant-head" data-entity-uid="part4" data-qualified-name="Patient" data-source-line="53" id="part4-head"><text fill="#000000" font-family="'Arial'" font-size="14" lengthAdjust="spacing" textLength="49.376" x="1124.8403" y="115.5889">Patient</text><ellipse cx="1152.5283" cy="51.0938" fill="#E2E2F0" rx="8" ry="8" style="stroke:#181818;stroke-width:0.5;"/><path d="M1152.5283,59.0938 L1152.5283,86.0938 M1139.5283,67.0938 L1165.5283,67.0938 M1152.5283,86.0938 L1139.5283,101.0938 M1152.5283,86.0938 L1165.5283,101.0938" fill="none" style="stroke:#181818;stroke-width:0.5;"/></g><g class="participant participant-tail" data-entity-uid="part4" data-qualified-name="Patient" data-source-line="53" id="part4-tail"><text fill="#000000" font-family="'Arial'" font-size="14" lengthAdjust="spacing" textLength="49.376" x="1124.8403" y="735.2529">Patient</text><ellipse cx="1152.5283" cy="747.0547" fill="#E2E2F0" rx="8" ry="8" style="stroke:#181818;stroke-width:0.5;"/><path d="M1152.5283,755.0547 L1152.5283,782.0547 M1139.5283,763.0547 L1165.5283,763.0547 M1152.5283,782.0547 L1139.5283,797.0547 M1152.5283,782.0547 L1165.5283,797.0547" fill="none" style="stroke:#181818;stroke-width:0.5;"/></g><g><title>GDA 1</title><rect fill="#FFFFFF" height="519.9375" style="stroke:#181818;stroke-width:1;" width="10" x="193.0293" y="194.3203"/></g><g><title>e-Med FA</title><rect fill="#FFFFFF" height="406.2109" style="stroke:#181818;stroke-width:1;" width="10" x="562.4673" y="194.3203"/></g><rect fill="#EEEEEE" height="3" rx="5" ry="5" style="stroke:#EEEEEE;stroke-width:1;" width="1212.5161" x="0" y="150.0391"/><line style="stroke:#000000;stroke-width:1;" x1="0" x2="1212.5161" y1="150.0391" y2="150.0391"/><line style="stroke:#000000;stroke-width:1;" x1="0" x2="1212.5161" y1="153.0391" y2="153.0391"/><rect fill="#EEEEEE" height="24.2969" rx="5" ry="5" style="stroke:#000000;stroke-width:2;" width="129.8828" x="541.3167" y="138.8906"/><text fill="#000000" font-family="'Arial'" font-size="14" font-weight="700" lengthAdjust="spacing" textLength="111.0088" x="547.3167" y="155.8857">Read-to-Write</text><g class="message" data-entity-1="part1" data-entity-2="part2" data-source-line="62" id="msg1"><line style="stroke:#111827;stroke-width:1;" x1="560.4673" x2="550.4673" y1="194.3203" y2="190.3203"/><line style="stroke:#111827;stroke-width:1;" x1="560.4673" x2="550.4673" y1="194.3203" y2="198.3203"/><line style="stroke:#111827;stroke-width:1;" x1="203.0293" x2="561.4673" y1="194.3203" y2="194.3203"/><text fill="#000000" font-family="'Arial'" font-size="13" font-weight="700" lengthAdjust="spacing" textLength="9.0454" x="210.0293" y="189.2544">1</text><text fill="#000000" font-family="'Arial'" font-size="13" lengthAdjust="spacing" textLength="121.9639" x="223.0747" y="189.2544">POST $readtowrite</text></g><path d="M80,212.3203 L80,244.3203 A5,5 0 0 0 85,249.3203 L307,249.3203 A5,5 0 0 0 312,244.3203 L312,217.3203 L302,207.3203 L85,207.3203 A5,5 0 0 0 80,212.3203" fill="url(#gt5m93elnaaqz0)" filter="url(#ft5m93elnaaqz)" style="stroke:#8B95A5;stroke-width:1;"/><path d="M302,207.3203 L302,214.8203 A2.5,2.5 0 0 0 304.5,217.3203 L312,217.3203 L302,207.3203" fill="url(#gt5m93elnaaqz0)" style="stroke:#8B95A5;stroke-width:1;"/><text fill="#111827" font-family="'Arial'" font-size="14" lengthAdjust="spacing" textLength="177.9053" x="86" y="225.3154">Medikationsplan abrufen,</text><text fill="#111827" font-family="'Arial'" font-size="14" lengthAdjust="spacing" textLength="211.5859" x="86" y="241.6123">mit der Intention zu schreiben</text><g class="message" data-entity-1="part2" data-entity-2="part2" data-source-line="71" id="msg2"><line style="stroke:#111827;stroke-width:1;" x1="572.4673" x2="614.4673" y1="294.1797" y2="294.1797"/><line style="stroke:#111827;stroke-width:1;" x1="614.4673" x2="614.4673" y1="294.1797" y2="307.1797"/><line style="stroke:#111827;stroke-width:1;" x1="573.4673" x2="614.4673" y1="307.1797" y2="307.1797"/><polygon fill="#111827" points="583.4673,303.1797,573.4673,307.1797,583.4673,311.1797,579.4673,307.1797" style="stroke:#111827;stroke-width:1;"/><text fill="#000000" font-family="'Arial'" font-size="13" font-weight="700" lengthAdjust="spacing" textLength="9.0454" x="579.4673" y="281.5474">2</text><text fill="#000000" font-family="'Arial'" font-size="13" lengthAdjust="spacing" textLength="164.8613" x="592.5127" y="273.981">Pr&#252;fung auf bestehenden</text><text fill="#000000" font-family="'Arial'" font-size="13" lengthAdjust="spacing" textLength="106.3169" x="592.5127" y="289.1138">Medikationsplan</text></g><path d="M167.7476,322.1797 L228.686,322.1797 L228.686,330.4766 L218.686,340.4766 L162.7476,340.4766 L162.7476,327.1797 A5,5 0 0 1 167.7476,322.1797" fill="#EEF2FF" style="stroke:#111827;stroke-width:1.5;"/><rect fill="none" height="286.3516" rx="5" ry="5" style="stroke:#111827;stroke-width:2;" width="789.4668" x="162.7476" y="322.1797"/><text fill="#000000" font-family="'Arial'" font-size="14" font-weight="700" lengthAdjust="spacing" textLength="20.9385" x="177.7476" y="336.1748">alt</text><text fill="#000000" font-family="'Arial'" font-size="14" font-weight="700" lengthAdjust="spacing" textLength="271.2773" x="243.686" y="337.1748">[kein Medikationsplan vorhanden]</text><g class="message" data-entity-1="part2" data-entity-2="part2" data-source-line="74" id="msg3"><line style="stroke:#111827;stroke-width:1;" x1="572.4673" x2="614.4673" y1="393.1719" y2="393.1719"/><line style="stroke:#111827;stroke-width:1;" x1="614.4673" x2="614.4673" y1="393.1719" y2="406.1719"/><line style="stroke:#111827;stroke-width:1;" x1="573.4673" x2="614.4673" y1="406.1719" y2="406.1719"/><polygon fill="#111827" points="583.4673,402.1719,573.4673,406.1719,583.4673,410.1719,579.4673,406.1719" style="stroke:#111827;stroke-width:1;"/><text fill="#000000" font-family="'Arial'" font-size="13" font-weight="700" lengthAdjust="spacing" textLength="9.0454" x="579.4673" y="372.9731">3</text><text fill="#000000" font-family="'Arial'" font-size="13" lengthAdjust="spacing" textLength="138.6011" x="592.5127" y="357.8403">Kein Plan vorhanden:</text><text fill="#000000" font-family="'Arial'" font-size="13" lengthAdjust="spacing" textLength="316.5449" x="592.5127" y="372.9731">Fachanwendung erzeugt leeren Medikationsplan</text><text fill="#000000" font-family="'Arial'" font-size="13" lengthAdjust="spacing" textLength="214.1064" x="596.645" y="388.106">mit emptyReason = "notstarted"</text></g><g class="message" data-entity-1="part2" data-entity-2="part1" data-source-line="75" id="msg4"><line style="stroke:#111827;stroke-width:1;" x1="204.0293" x2="214.0293" y1="435.3047" y2="431.3047"/><line style="stroke:#111827;stroke-width:1;" x1="204.0293" x2="214.0293" y1="435.3047" y2="439.3047"/><line style="stroke:#111827;stroke-width:1;stroke-dasharray:2,2;" x1="203.0293" x2="561.4673" y1="435.3047" y2="435.3047"/><text fill="#000000" font-family="'Arial'" font-size="13" font-weight="700" lengthAdjust="spacing" textLength="9.0454" x="220.0293" y="430.2388">4</text><text fill="#000000" font-family="'Arial'" font-size="13" lengthAdjust="spacing" textLength="152.3755" x="233.0747" y="430.2388">Leerer Medikationsplan</text></g><line style="stroke:#111827;stroke-width:1;stroke-dasharray:2,2;" x1="162.7476" x2="952.2144" y1="444.3047" y2="444.3047"/><text fill="#000000" font-family="'Arial'" font-size="14" font-weight="700" lengthAdjust="spacing" textLength="232.832" x="167.7476" y="457.2998">[Medikationsplan vorhanden]</text><g class="message" data-entity-1="part2" data-entity-2="part2" data-source-line="78" id="msg5"><line style="stroke:#111827;stroke-width:1;" x1="572.4673" x2="614.4673" y1="558.3984" y2="558.3984"/><line style="stroke:#111827;stroke-width:1;" x1="614.4673" x2="614.4673" y1="558.3984" y2="571.3984"/><line style="stroke:#111827;stroke-width:1;" x1="573.4673" x2="614.4673" y1="571.3984" y2="571.3984"/><polygon fill="#111827" points="583.4673,567.3984,573.4673,571.3984,583.4673,575.3984,579.4673,571.3984" style="stroke:#111827;stroke-width:1;"/><text fill="#000000" font-family="'Arial'" font-size="13" font-weight="700" lengthAdjust="spacing" textLength="9.0454" x="579.4673" y="515.5005">5</text><text fill="#000000" font-family="'Arial'" font-size="13" lengthAdjust="spacing" textLength="106.0947" x="592.5127" y="477.6685">Plan vorhanden:</text><text fill="#000000" font-family="'Arial'" font-size="13" lengthAdjust="spacing" textLength="307.2773" x="592.5127" y="492.8013">stellt Collection Bundle zur Auslieferung bereit:</text><text fill="#000000" font-family="'Arial'" font-size="13" lengthAdjust="spacing" textLength="337.7017" x="592.5127" y="507.9341">(inkl. neuem tempor&#228;r gespeicherten List.identifier)</text><text fill="#000000" font-family="'Arial'" font-size="13" lengthAdjust="spacing" textLength="309.2197" x="592.5127" y="523.0669">Bedingung f&#252;r Read-to-Write Collection Bundle:</text><text fill="#000000" font-family="'Arial'" font-size="13" lengthAdjust="spacing" textLength="187.897" x="592.5127" y="538.1997">- new|changed &#8594; unchanged</text><text fill="#000000" font-family="'Arial'" font-size="13" lengthAdjust="spacing" textLength="149.6143" x="592.5127" y="553.3325">- removed &#8594; entfernen</text></g><g class="message" data-entity-1="part2" data-entity-2="part1" data-source-line="79" id="msg6"><line style="stroke:#111827;stroke-width:1;" x1="204.0293" x2="214.0293" y1="600.5313" y2="596.5313"/><line style="stroke:#111827;stroke-width:1;" x1="204.0293" x2="214.0293" y1="600.5313" y2="604.5313"/><line style="stroke:#111827;stroke-width:1;stroke-dasharray:2,2;" x1="203.0293" x2="566.4673" y1="600.5313" y2="600.5313"/><text fill="#000000" font-family="'Arial'" font-size="13" font-weight="700" lengthAdjust="spacing" textLength="9.0454" x="220.0293" y="595.4653">6</text><text fill="#000000" font-family="'Arial'" font-size="13" lengthAdjust="spacing" textLength="218.0483" x="233.0747" y="595.4653">Collection Bundle + List.identifier</text></g><g class="message" data-entity-1="part1" data-entity-2="part1" data-source-line="83" id="msg7"><line style="stroke:#111827;stroke-width:1;" x1="203.0293" x2="245.0293" y1="636.6641" y2="636.6641"/><line style="stroke:#111827;stroke-width:1;" x1="245.0293" x2="245.0293" y1="636.6641" y2="649.6641"/><line style="stroke:#111827;stroke-width:1;" x1="204.0293" x2="245.0293" y1="649.6641" y2="649.6641"/><polygon fill="#111827" points="214.0293,645.6641,204.0293,649.6641,214.0293,653.6641,210.0293,649.6641" style="stroke:#111827;stroke-width:1;"/><text fill="#000000" font-family="'Arial'" font-size="13" font-weight="700" lengthAdjust="spacing" textLength="9.0454" x="210.0293" y="631.5981">7</text><text fill="#000000" font-family="'Arial'" font-size="13" lengthAdjust="spacing" textLength="249.8438" x="223.0747" y="631.5981">Eintr&#228;ge hinzuf&#252;gen/&#228;ndern/entfernen</text></g><path d="M5,667.6641 L5,699.6641 A5,5 0 0 0 10,704.6641 L383,704.6641 A5,5 0 0 0 388,699.6641 L388,672.6641 L378,662.6641 L10,662.6641 A5,5 0 0 0 5,667.6641" fill="url(#gt5m93elnaaqz0)" filter="url(#ft5m93elnaaqz)" style="stroke:#8B95A5;stroke-width:1;"/><path d="M378,662.6641 L378,670.1641 A2.5,2.5 0 0 0 380.5,672.6641 L388,672.6641 L378,662.6641" fill="url(#gt5m93elnaaqz0)" style="stroke:#8B95A5;stroke-width:1;"/><text fill="#111827" font-family="'Arial'" font-size="14" lengthAdjust="spacing" textLength="199.5957" x="11" y="680.6592">Medikationsplan bearbeiten.</text><text fill="#111827" font-family="'Arial'" font-size="14" lengthAdjust="spacing" textLength="362.25" x="11" y="696.9561">Nach Fertigstellung kann ein Write-Zugriff erfolgen.</text><g class="footer" data-source-line="90"><text fill="#000000" font-family="'Arial'" font-size="10" lengthAdjust="spacing" textLength="106.7578" x="552.3792" y="812.8369">Read-to-Write-Zugriff</text></g><?plantuml-src bLLTRjj647xVKmpaFhHevPXALCi6541ExRPecWfnYWA5WM193gc5g5brkBGSjttj0Ng672DllabFqjdLtr8KK7Jr86fdlfdvlfcXwhcXfMQzWDHoZlpALfRXv2mSLU-jEfkNR1lADnx5q7yYZtgcSxioL4AXgneZomR6X0n973J7GZULkx7atkW5Gc_2HbUzunwtvX4XUN7Ss2uxyY7h47vN05U71F0CXyLP_oHFyWlysdl40epIYw4UxcxVpKms9wnhIEJkRKHe9B-dEiyzSHybgYP9aj7WNEvkTz8uRb3z6HVutOSbScLe7b6ulZxcy3FbuG4t0iVQusyDKhPcEjNiJ6QMcboBqZ2S0uTEMyDfEtK5xfYtpMaPjh8CF632R5U7meJBjhRXwbZ6dM6TwxbSVIkLBriSTv7NfaxFiHW4TX5odtxGxioLVOWOjEwFwQfI-m2zEvBWtqmW0UZ1oKKXU-DLqPaJLp6yJq3Nq0ikFOMKozuzHDXmiFyZvd2ZivccbVWqKiBwICnNBqRdvtxgbdkb0GNm_cOIOc_Ga-FXVUP129IYnXHRnGrsnGsEeAVQ6PHa0QopvwDq1zwQF7pp70LGkd6McaMAh1IeyHZUeixxplP_OIFxEHuhjTQc__BbbiibJ7-wVGUViRWwk_AEIfAPUos8uArKs6vxZnjfbI3DND9RgfUL9j0fDmNILw0MnidxWk5xSbAREC1Z0tKsOpGfKYZL1rFx59ior5RQVbmPFtqgV5TqKq2AjSEPH42weuCA95xbO8w6uB2sUylINW69YCTo_E11qvRdvHsrXmBv4PlIGON8s4aXBVEqSR5q7qJmMaYFeISqQoUZWtalpkoL3o9UmciVZQ531UMjyxzfT1Y8M9Le8ijJOHOwSIKBMg4qX67Ir9N10jcpat51umJokRpzgbCWR701JlXOVlh8K6AzH9FDKCWGl3QrEpMvxsvXaB-ueolqo-iZ5K-V-63cElabJrzIhFxm0fUoGV_yzJSqjFdbZOmBcRMrGT98bTIc7MdOfVVbOOM2pB4xRfJlbs4RxTgG4yebmipGOoDqIgHdJn_zFm8zszVodmiXEy-fY8fqgjx8AC6DY6VAq1Clr5mJWH-y85B_rwPaKnGoPuMjIW_QBqecQILFOQt_QecxnVqB?></g></svg>