<svg xmlns="http://www.w3.org/2000/svg" xmlns:xlink="http://www.w3.org/1999/xlink" contentStyleType="text/css" data-diagram-type="SEQUENCE" height="1359px" preserveAspectRatio="none" style="width:1510px;height:1359px;background:#F5F5F5;" version="1.1" viewBox="0 0 1510 1359" width="1510px" zoomAndPan="magnify"><?plantuml 1.2026.5?><defs><linearGradient id="gadp6mqxpmbdq0" x1="50%" x2="50%" y1="0%" y2="100%"><stop offset="0%" stop-color="#E0E5F0"/><stop offset="100%" stop-color="#D1D9E6"/></linearGradient><filter height="300%" id="fadp6mqxpmbdq" width="300%" x="-1" y="-1"><feGaussianBlur result="blurOut" stdDeviation="2"/><feColorMatrix in="blurOut" result="blurOut2" type="matrix" values="0 0 0 0 0 0 0 0 0 0 0 0 0 0 0 0 0 0 .4 0"/><feOffset dx="4" dy="4" in="blurOut2" result="blurOut3"/><feBlend in="SourceGraphic" in2="blurOut3" mode="normal"/></filter></defs><g><rect fill="#F5F5F5" height="1359" style="stroke:none;stroke-width:1;" width="1510" x="0" y="0"/><rect fill="#9FBAC4" height="1333.8828" rx="5" ry="5" style="stroke:#181818;stroke-width:0.5;" width="74.0586" x="100" y="6"/><text fill="#000000" font-family="'Arial'" font-size="14" font-weight="700" lengthAdjust="spacing" textLength="4.874" x="103" y="18.9951">&#160;</text><text fill="#000000" font-family="'Arial'" font-size="14" font-weight="700" lengthAdjust="spacing" textLength="48.5625" x="112.748" y="35.292">GDA 1</text><rect fill="#C48778" height="1333.8828" rx="5" ry="5" style="stroke:#181818;stroke-width:0.5;" width="256.9268" x="496.6992" y="6"/><text fill="#000000" font-family="'Arial'" font-size="14" font-weight="700" lengthAdjust="spacing" textLength="4.874" x="499.6992" y="18.9951">&#160;</text><text fill="#000000" font-family="'Arial'" font-size="14" font-weight="700" lengthAdjust="spacing" textLength="182.6904" x="533.8174" y="35.292">e-Med Fachanwendung</text><rect fill="#BEAEBE" height="1333.8828" rx="5" ry="5" style="stroke:#181818;stroke-width:0.5;" width="83.8066" x="1076.2666" y="6"/><text fill="#000000" font-family="'Arial'" font-size="14" font-weight="700" lengthAdjust="spacing" textLength="4.874" x="1079.2666" y="18.9951">&#160;</text><text fill="#000000" font-family="'Arial'" font-size="14" font-weight="700" lengthAdjust="spacing" textLength="48.5625" x="1098.7627" y="35.292">GDA 2</text><rect fill="#BAC38B" height="1333.8828" rx="5" ry="5" style="stroke:#181818;stroke-width:0.5;" width="77.9756" x="1405.0381" y="6"/><text fill="#000000" font-family="'Arial'" font-size="14" font-weight="700" lengthAdjust="spacing" textLength="4.874" x="1408.0381" y="18.9951">&#160;</text><text fill="#000000" font-family="'Arial'" font-size="14" font-weight="700" lengthAdjust="spacing" textLength="57.3535" x="1412.9121" y="35.292">Patient</text><g><title>GDA 1</title><rect fill="#FFFFFF" height="1074.3984" style="stroke:#181818;stroke-width:1;" width="10" x="132.0293" y="128.8906"/></g><g><title>e-Med FA</title><rect fill="#FFFFFF" height="128.5313" style="stroke:#181818;stroke-width:1;" width="10" x="620.1626" y="194.3203"/></g><g><title>e-Med FA</title><rect fill="#FFFFFF" height="128.5313" style="stroke:#181818;stroke-width:1;" width="10" x="620.1626" y="477.7109"/></g><g><title>e-Med FA</title><rect fill="#FFFFFF" height="200.9297" style="stroke:#181818;stroke-width:1;" width="10" x="620.1626" y="761.1016"/></g><g><title>e-Med FA</title><rect fill="#FFFFFF" height="128.5313" style="stroke:#181818;stroke-width:1;" width="10" x="620.1626" y="1074.7578"/></g><g><title>GDA 2</title><rect fill="#FFFFFF" height="484.3203" style="stroke:#181818;stroke-width:1;" width="10" x="1113.1699" y="477.7109"/></g><g class="participant-lifeline" data-entity-uid="part1" data-qualified-name="GDA_1" data-source-line="41" id="part1-lifeline"><g><title>GDA 1</title><rect fill="#000000" fill-opacity="0.00000" height="1141.6953" width="8" x="133.0293" y="118.8906"/><line style="stroke:#181818;stroke-width:0.5;stroke-dasharray:5,5;" x1="136.7476" x2="136.7476" y1="118.8906" y2="1260.5859"/></g></g><g class="participant-lifeline" data-entity-uid="part2" data-qualified-name="eMed_FA" data-source-line="45" id="part2-lifeline"><g><title>e-Med FA</title><rect fill="#000000" fill-opacity="0.00000" height="1141.6953" width="8" x="621.1626" y="118.8906"/><line style="stroke:#181818;stroke-width:0.5;stroke-dasharray:5,5;" x1="624.5005" x2="624.5005" y1="118.8906" y2="1260.5859"/></g></g><g class="participant-lifeline" data-entity-uid="part3" data-qualified-name="GDA_2" data-source-line="49" id="part3-lifeline"><g><title>GDA 2</title><rect fill="#000000" fill-opacity="0.00000" height="1141.6953" width="8" x="1114.1699" y="118.8906"/><line style="stroke:#181818;stroke-width:0.5;stroke-dasharray:5,5;" x1="1117.8882" x2="1117.8882" y1="118.8906" y2="1260.5859"/></g></g><g class="participant-lifeline" data-entity-uid="part4" data-qualified-name="Patient" data-source-line="53" id="part4-lifeline"><g><title>Patient</title><rect fill="#000000" fill-opacity="0.00000" height="1141.6953" width="8" x="1440.0259" y="118.8906"/><line style="stroke:#181818;stroke-width:0.5;stroke-dasharray:5,5;" x1="1443.3379" x2="1443.3379" y1="118.8906" y2="1260.5859"/></g></g><g class="participant participant-head" data-entity-uid="part1" data-qualified-name="GDA_1" data-source-line="41" id="part1-head"><text fill="#000000" font-family="'Arial'" font-size="14" lengthAdjust="spacing" textLength="44.5635" x="111.7476" y="115.5889">GDA 1</text><ellipse cx="137.0293" cy="51.0938" fill="#E2E2F0" rx="8" ry="8" style="stroke:#181818;stroke-width:0.5;"/><path d="M137.0293,59.0938 L137.0293,86.0938 M124.0293,67.0938 L150.0293,67.0938 M137.0293,86.0938 L124.0293,101.0938 M137.0293,86.0938 L150.0293,101.0938" fill="none" style="stroke:#181818;stroke-width:0.5;"/></g><g class="participant participant-tail" data-entity-uid="part1" data-qualified-name="GDA_1" data-source-line="41" id="part1-tail"><text fill="#000000" font-family="'Arial'" font-size="14" lengthAdjust="spacing" textLength="44.5635" x="111.7476" y="1272.5811">GDA 1</text><ellipse cx="137.0293" cy="1284.3828" fill="#E2E2F0" rx="8" ry="8" style="stroke:#181818;stroke-width:0.5;"/><path d="M137.0293,1292.3828 L137.0293,1319.3828 M124.0293,1300.3828 L150.0293,1300.3828 M137.0293,1319.3828 L124.0293,1334.3828 M137.0293,1319.3828 L150.0293,1334.3828" fill="none" style="stroke:#181818;stroke-width:0.5;"/></g><g class="participant participant-head" data-entity-uid="part2" data-qualified-name="eMed_FA" data-source-line="45" id="part2-head"><rect fill="#FFFFFF" height="30.2969" rx="5" ry="5" style="stroke:#555555;stroke-width:0.5;" width="79.3242" x="585.5005" y="87.5938"/><text fill="#000000" font-family="'Arial'" font-size="14" lengthAdjust="spacing" textLength="65.3242" x="592.5005" y="107.5889">e-Med FA</text></g><g class="participant participant-tail" data-entity-uid="part2" data-qualified-name="eMed_FA" data-source-line="45" id="part2-tail"><rect fill="#FFFFFF" height="30.2969" rx="5" ry="5" style="stroke:#555555;stroke-width:0.5;" width="79.3242" x="585.5005" y="1259.5859"/><text fill="#000000" font-family="'Arial'" font-size="14" lengthAdjust="spacing" textLength="65.3242" x="592.5005" y="1279.5811">e-Med FA</text></g><g class="participant participant-head" data-entity-uid="part3" data-qualified-name="GDA_2" data-source-line="49" id="part3-head"><text fill="#000000" font-family="'Arial'" font-size="14" lengthAdjust="spacing" textLength="44.5635" x="1092.8882" y="115.5889">GDA 2</text><ellipse cx="1118.1699" cy="51.0938" fill="#E2E2F0" rx="8" ry="8" style="stroke:#181818;stroke-width:0.5;"/><path d="M1118.1699,59.0938 L1118.1699,86.0938 M1105.1699,67.0938 L1131.1699,67.0938 M1118.1699,86.0938 L1105.1699,101.0938 M1118.1699,86.0938 L1131.1699,101.0938" fill="none" style="stroke:#181818;stroke-width:0.5;"/></g><g class="participant participant-tail" data-entity-uid="part3" data-qualified-name="GDA_2" data-source-line="49" id="part3-tail"><text fill="#000000" font-family="'Arial'" font-size="14" lengthAdjust="spacing" textLength="44.5635" x="1092.8882" y="1272.5811">GDA 2</text><ellipse cx="1118.1699" cy="1284.3828" fill="#E2E2F0" rx="8" ry="8" style="stroke:#181818;stroke-width:0.5;"/><path d="M1118.1699,1292.3828 L1118.1699,1319.3828 M1105.1699,1300.3828 L1131.1699,1300.3828 M1118.1699,1319.3828 L1105.1699,1334.3828 M1118.1699,1319.3828 L1131.1699,1334.3828" fill="none" style="stroke:#181818;stroke-width:0.5;"/></g><g class="participant participant-head" data-entity-uid="part4" data-qualified-name="Patient" data-source-line="53" id="part4-head"><text fill="#000000" font-family="'Arial'" font-size="14" lengthAdjust="spacing" textLength="49.376" x="1416.3379" y="115.5889">Patient</text><ellipse cx="1444.0259" cy="51.0938" fill="#E2E2F0" rx="8" ry="8" style="stroke:#181818;stroke-width:0.5;"/><path d="M1444.0259,59.0938 L1444.0259,86.0938 M1431.0259,67.0938 L1457.0259,67.0938 M1444.0259,86.0938 L1431.0259,101.0938 M1444.0259,86.0938 L1457.0259,101.0938" fill="none" style="stroke:#181818;stroke-width:0.5;"/></g><g class="participant participant-tail" data-entity-uid="part4" data-qualified-name="Patient" data-source-line="53" id="part4-tail"><text fill="#000000" font-family="'Arial'" font-size="14" lengthAdjust="spacing" textLength="49.376" x="1416.3379" y="1272.5811">Patient</text><ellipse cx="1444.0259" cy="1284.3828" fill="#E2E2F0" rx="8" ry="8" style="stroke:#181818;stroke-width:0.5;"/><path d="M1444.0259,1292.3828 L1444.0259,1319.3828 M1431.0259,1300.3828 L1457.0259,1300.3828 M1444.0259,1319.3828 L1431.0259,1334.3828 M1444.0259,1319.3828 L1457.0259,1334.3828" fill="none" style="stroke:#181818;stroke-width:0.5;"/></g><g><title>GDA 1</title><rect fill="#FFFFFF" height="1074.3984" style="stroke:#181818;stroke-width:1;" width="10" x="132.0293" y="128.8906"/></g><g><title>e-Med FA</title><rect fill="#FFFFFF" height="128.5313" style="stroke:#181818;stroke-width:1;" width="10" x="620.1626" y="194.3203"/></g><g><title>e-Med FA</title><rect fill="#FFFFFF" height="128.5313" style="stroke:#181818;stroke-width:1;" width="10" x="620.1626" y="477.7109"/></g><g><title>e-Med FA</title><rect fill="#FFFFFF" height="200.9297" style="stroke:#181818;stroke-width:1;" width="10" x="620.1626" y="761.1016"/></g><g><title>e-Med FA</title><rect fill="#FFFFFF" height="128.5313" style="stroke:#181818;stroke-width:1;" width="10" x="620.1626" y="1074.7578"/></g><g><title>GDA 2</title><rect fill="#FFFFFF" height="484.3203" style="stroke:#181818;stroke-width:1;" width="10" x="1113.1699" y="477.7109"/></g><rect fill="#EEEEEE" height="3" rx="5" ry="5" style="stroke:#EEEEEE;stroke-width:1;" width="1504.0137" x="0" y="150.0391"/><line style="stroke:#000000;stroke-width:1;" x1="0" x2="1504.0137" y1="150.0391" y2="150.0391"/><line style="stroke:#000000;stroke-width:1;" x1="0" x2="1504.0137" y1="153.0391" y2="153.0391"/><rect fill="#EEEEEE" height="24.2969" rx="5" ry="5" style="stroke:#000000;stroke-width:2;" width="202.3711" x="650.8213" y="138.8906"/><text fill="#000000" font-family="'Arial'" font-size="14" font-weight="700" lengthAdjust="spacing" textLength="183.4971" x="656.8213" y="155.8857">Plan-Read durch GDA 1</text><g class="message" data-entity-1="part1" data-entity-2="part2" data-source-line="62" id="msg1"><line style="stroke:#111827;stroke-width:1;" x1="618.1626" x2="608.1626" y1="194.3203" y2="190.3203"/><line style="stroke:#111827;stroke-width:1;" x1="618.1626" x2="608.1626" y1="194.3203" y2="198.3203"/><line style="stroke:#111827;stroke-width:1;" x1="142.0293" x2="619.1626" y1="194.3203" y2="194.3203"/><text fill="#000000" font-family="'Arial'" font-size="13" font-weight="700" lengthAdjust="spacing" textLength="9.0454" x="149.0293" y="189.2544">1</text><text fill="#000000" font-family="'Arial'" font-size="13" lengthAdjust="spacing" textLength="108.9893" x="162.0747" y="189.2544">POST $plan-read</text></g><g class="message" data-entity-1="part2" data-entity-2="part2" data-source-line="65" id="msg2"><line style="stroke:#111827;stroke-width:1;" x1="630.1626" x2="672.1626" y1="238.5859" y2="238.5859"/><line style="stroke:#111827;stroke-width:1;" x1="672.1626" x2="672.1626" y1="238.5859" y2="251.5859"/><line style="stroke:#111827;stroke-width:1;" x1="631.1626" x2="672.1626" y1="251.5859" y2="251.5859"/><polygon fill="#111827" points="641.1626,247.5859,631.1626,251.5859,641.1626,255.5859,637.1626,251.5859" style="stroke:#111827;stroke-width:1;stroke-linejoin:miter;stroke-miterlimit:10;"/><text fill="#000000" font-family="'Arial'" font-size="13" font-weight="700" lengthAdjust="spacing" textLength="9.0454" x="637.1626" y="225.9536">2</text><text fill="#000000" font-family="'Arial'" font-size="13" lengthAdjust="spacing" textLength="235.6123" x="650.208" y="218.3872">Annahme: Pr&#252;fung auf bestehenden</text><text fill="#000000" font-family="'Arial'" font-size="13" lengthAdjust="spacing" textLength="180.5273" x="650.208" y="233.52">Medikationsplan erfolgreich</text></g><g class="message" data-entity-1="part2" data-entity-2="part2" data-source-line="66" id="msg3"><line style="stroke:#111827;stroke-width:1;" x1="630.1626" x2="672.1626" y1="280.7188" y2="280.7188"/><line style="stroke:#111827;stroke-width:1;" x1="672.1626" x2="672.1626" y1="280.7188" y2="293.7188"/><line style="stroke:#111827;stroke-width:1;" x1="631.1626" x2="672.1626" y1="293.7188" y2="293.7188"/><polygon fill="#111827" points="641.1626,289.7188,631.1626,293.7188,641.1626,297.7188,637.1626,293.7188" style="stroke:#111827;stroke-width:1;stroke-linejoin:miter;stroke-miterlimit:10;"/><text fill="#000000" font-family="'Arial'" font-size="13" font-weight="700" lengthAdjust="spacing" textLength="9.0454" x="637.1626" y="275.6528">3</text><text fill="#000000" font-family="'Arial'" font-size="13" lengthAdjust="spacing" textLength="273.8062" x="650.208" y="275.6528">Collection Bundle zur Auslieferung erstellt</text></g><g class="message" data-entity-1="part2" data-entity-2="part1" data-source-line="68" id="msg4"><line style="stroke:#111827;stroke-width:1;" x1="143.0293" x2="153.0293" y1="322.8516" y2="318.8516"/><line style="stroke:#111827;stroke-width:1;" x1="143.0293" x2="153.0293" y1="322.8516" y2="326.8516"/><line style="stroke:#111827;stroke-width:1;stroke-dasharray:2,2;" x1="142.0293" x2="624.1626" y1="322.8516" y2="322.8516"/><text fill="#000000" font-family="'Arial'" font-size="13" font-weight="700" lengthAdjust="spacing" textLength="9.0454" x="159.0293" y="317.7856">4</text><text fill="#000000" font-family="'Arial'" font-size="13" lengthAdjust="spacing" textLength="206.1274" x="172.0747" y="317.7856">Collection Bundle + ETag "123"</text></g><g class="message" data-entity-1="part1" data-entity-2="part1" data-source-line="71" id="msg5"><line style="stroke:#111827;stroke-width:1;" x1="142.0293" x2="184.0293" y1="351.9844" y2="351.9844"/><line style="stroke:#111827;stroke-width:1;" x1="184.0293" x2="184.0293" y1="351.9844" y2="364.9844"/><line style="stroke:#111827;stroke-width:1;" x1="143.0293" x2="184.0293" y1="364.9844" y2="364.9844"/><polygon fill="#111827" points="153.0293,360.9844,143.0293,364.9844,153.0293,368.9844,149.0293,364.9844" style="stroke:#111827;stroke-width:1;stroke-linejoin:miter;stroke-miterlimit:10;"/><text fill="#000000" font-family="'Arial'" font-size="13" font-weight="700" lengthAdjust="spacing" textLength="9.0454" x="149.0293" y="346.9185">5</text><text fill="#000000" font-family="'Arial'" font-size="13" lengthAdjust="spacing" textLength="249.8438" x="162.0747" y="346.9185">Eintr&#228;ge hinzuf&#252;gen/&#228;ndern/entfernen</text></g><path d="M5,382.9844 L5,398.9844 A5,5 0 0 0 10,403.9844 L261,403.9844 A5,5 0 0 0 266,398.9844 L266,387.9844 L256,377.9844 L10,377.9844 A5,5 0 0 0 5,382.9844" fill="url(#gadp6mqxpmbdq0)" filter="url(#fadp6mqxpmbdq)" style="stroke:#8B95A5;stroke-width:1;"/><path d="M256,377.9844 L256,385.4844 A2.5,2.5 0 0 0 258.5,387.9844 L266,387.9844 L256,377.9844" fill="url(#gadp6mqxpmbdq0)" style="stroke:#8B95A5;stroke-width:1;"/><text fill="#111827" font-family="'Arial'" font-size="14" lengthAdjust="spacing" textLength="240.7754" x="11" y="395.9795">GDA 1 bearbeitet Medikationsplan</text><rect fill="#EEEEEE" height="3" rx="5" ry="5" style="stroke:#EEEEEE;stroke-width:1;" width="1504.0137" x="0" y="433.4297"/><line style="stroke:#000000;stroke-width:1;" x1="0" x2="1504.0137" y1="433.4297" y2="433.4297"/><line style="stroke:#000000;stroke-width:1;" x1="0" x2="1504.0137" y1="436.4297" y2="436.4297"/><rect fill="#EEEEEE" height="24.2969" rx="5" ry="5" style="stroke:#000000;stroke-width:2;" width="202.3711" x="650.8213" y="422.2813"/><text fill="#000000" font-family="'Arial'" font-size="14" font-weight="700" lengthAdjust="spacing" textLength="183.4971" x="656.8213" y="439.2764">Plan-Read durch GDA 2</text><g class="message" data-entity-1="part3" data-entity-2="part2" data-source-line="79" id="msg6"><line style="stroke:#111827;stroke-width:1;" x1="631.1626" x2="641.1626" y1="477.7109" y2="473.7109"/><line style="stroke:#111827;stroke-width:1;" x1="631.1626" x2="641.1626" y1="477.7109" y2="481.7109"/><line style="stroke:#111827;stroke-width:1;" x1="630.1626" x2="1112.1699" y1="477.7109" y2="477.7109"/><text fill="#000000" font-family="'Arial'" font-size="13" font-weight="700" lengthAdjust="spacing" textLength="9.0454" x="647.1626" y="472.645">6</text><text fill="#000000" font-family="'Arial'" font-size="13" lengthAdjust="spacing" textLength="108.9893" x="660.208" y="472.645">POST $plan-read</text></g><g class="message" data-entity-1="part2" data-entity-2="part2" data-source-line="83" id="msg7"><line style="stroke:#111827;stroke-width:1;" x1="630.1626" x2="672.1626" y1="521.9766" y2="521.9766"/><line style="stroke:#111827;stroke-width:1;" x1="672.1626" x2="672.1626" y1="521.9766" y2="534.9766"/><line style="stroke:#111827;stroke-width:1;" x1="631.1626" x2="672.1626" y1="534.9766" y2="534.9766"/><polygon fill="#111827" points="641.1626,530.9766,631.1626,534.9766,641.1626,538.9766,637.1626,534.9766" style="stroke:#111827;stroke-width:1;stroke-linejoin:miter;stroke-miterlimit:10;"/><text fill="#000000" font-family="'Arial'" font-size="13" font-weight="700" lengthAdjust="spacing" textLength="9.0454" x="637.1626" y="509.3442">7</text><text fill="#000000" font-family="'Arial'" font-size="13" lengthAdjust="spacing" textLength="235.6123" x="650.208" y="501.7778">Annahme: Pr&#252;fung auf bestehenden</text><text fill="#000000" font-family="'Arial'" font-size="13" lengthAdjust="spacing" textLength="180.5273" x="650.208" y="516.9106">Medikationsplan erfolgreich</text></g><g class="message" data-entity-1="part2" data-entity-2="part2" data-source-line="84" id="msg8"><line style="stroke:#111827;stroke-width:1;" x1="630.1626" x2="672.1626" y1="564.1094" y2="564.1094"/><line style="stroke:#111827;stroke-width:1;" x1="672.1626" x2="672.1626" y1="564.1094" y2="577.1094"/><line style="stroke:#111827;stroke-width:1;" x1="631.1626" x2="672.1626" y1="577.1094" y2="577.1094"/><polygon fill="#111827" points="641.1626,573.1094,631.1626,577.1094,641.1626,581.1094,637.1626,577.1094" style="stroke:#111827;stroke-width:1;stroke-linejoin:miter;stroke-miterlimit:10;"/><text fill="#000000" font-family="'Arial'" font-size="13" font-weight="700" lengthAdjust="spacing" textLength="9.0454" x="637.1626" y="559.0435">8</text><text fill="#000000" font-family="'Arial'" font-size="13" lengthAdjust="spacing" textLength="273.8062" x="650.208" y="559.0435">Collection Bundle zur Auslieferung erstellt</text></g><g class="message" data-entity-1="part2" data-entity-2="part3" data-source-line="86" id="msg9"><line style="stroke:#111827;stroke-width:1;" x1="1111.1699" x2="1101.1699" y1="606.2422" y2="602.2422"/><line style="stroke:#111827;stroke-width:1;" x1="1111.1699" x2="1101.1699" y1="606.2422" y2="610.2422"/><line style="stroke:#111827;stroke-width:1;stroke-dasharray:2,2;" x1="625.1626" x2="1112.1699" y1="606.2422" y2="606.2422"/><text fill="#000000" font-family="'Arial'" font-size="13" font-weight="700" lengthAdjust="spacing" textLength="9.0454" x="632.1626" y="601.1763">9</text><text fill="#000000" font-family="'Arial'" font-size="13" lengthAdjust="spacing" textLength="206.1274" x="645.208" y="601.1763">Collection Bundle + ETag "123"</text></g><g class="message" data-entity-1="part3" data-entity-2="part3" data-source-line="89" id="msg10"><line style="stroke:#111827;stroke-width:1;" x1="1123.1699" x2="1165.1699" y1="635.375" y2="635.375"/><line style="stroke:#111827;stroke-width:1;" x1="1165.1699" x2="1165.1699" y1="635.375" y2="648.375"/><line style="stroke:#111827;stroke-width:1;" x1="1124.1699" x2="1165.1699" y1="648.375" y2="648.375"/><polygon fill="#111827" points="1134.1699,644.375,1124.1699,648.375,1134.1699,652.375,1130.1699,648.375" style="stroke:#111827;stroke-width:1;stroke-linejoin:miter;stroke-miterlimit:10;"/><text fill="#000000" font-family="'Arial'" font-size="13" font-weight="700" lengthAdjust="spacing" textLength="18.0908" x="1130.1699" y="630.3091">10</text><text fill="#000000" font-family="'Arial'" font-size="13" lengthAdjust="spacing" textLength="249.8438" x="1152.2607" y="630.3091">Eintr&#228;ge hinzuf&#252;gen/&#228;ndern/entfernen</text></g><path d="M985,666.375 L985,682.375 A5,5 0 0 0 990,687.375 L1241,687.375 A5,5 0 0 0 1246,682.375 L1246,671.375 L1236,661.375 L990,661.375 A5,5 0 0 0 985,666.375" fill="url(#gadp6mqxpmbdq0)" filter="url(#fadp6mqxpmbdq)" style="stroke:#8B95A5;stroke-width:1;"/><path d="M1236,661.375 L1236,668.875 A2.5,2.5 0 0 0 1238.5,671.375 L1246,671.375 L1236,661.375" fill="url(#gadp6mqxpmbdq0)" style="stroke:#8B95A5;stroke-width:1;"/><text fill="#111827" font-family="'Arial'" font-size="14" lengthAdjust="spacing" textLength="240.7754" x="991" y="679.3701">GDA 2 bearbeitet Medikationsplan</text><rect fill="#EEEEEE" height="3" rx="5" ry="5" style="stroke:#EEEEEE;stroke-width:1;" width="1504.0137" x="0" y="716.8203"/><line style="stroke:#000000;stroke-width:1;" x1="0" x2="1504.0137" y1="716.8203" y2="716.8203"/><line style="stroke:#000000;stroke-width:1;" x1="0" x2="1504.0137" y1="719.8203" y2="719.8203"/><rect fill="#EEEEEE" height="24.2969" rx="5" ry="5" style="stroke:#000000;stroke-width:2;" width="205.96" x="649.0269" y="705.6719"/><text fill="#000000" font-family="'Arial'" font-size="14" font-weight="700" lengthAdjust="spacing" textLength="187.0859" x="655.0269" y="722.667">Plan-Write durch GDA 2</text><g class="message" data-entity-1="part3" data-entity-2="part2" data-source-line="97" id="msg11"><line style="stroke:#111827;stroke-width:1;" x1="631.1626" x2="641.1626" y1="761.1016" y2="757.1016"/><line style="stroke:#111827;stroke-width:1;" x1="631.1626" x2="641.1626" y1="761.1016" y2="765.1016"/><line style="stroke:#111827;stroke-width:1;" x1="630.1626" x2="1112.1699" y1="761.1016" y2="761.1016"/><text fill="#000000" font-family="'Arial'" font-size="13" font-weight="700" lengthAdjust="spacing" textLength="18.0908" x="647.1626" y="756.0356">11</text><text fill="#000000" font-family="'Arial'" font-size="13" lengthAdjust="spacing" textLength="344.4937" x="669.2534" y="756.0356">POST $plan-write (Transaction Bundle + ETag "123")</text></g><g class="message" data-entity-1="part2" data-entity-2="part2" data-source-line="100" id="msg12"><line style="stroke:#111827;stroke-width:1;" x1="630.1626" x2="672.1626" y1="805.3672" y2="805.3672"/><line style="stroke:#111827;stroke-width:1;" x1="672.1626" x2="672.1626" y1="805.3672" y2="818.3672"/><line style="stroke:#111827;stroke-width:1;" x1="631.1626" x2="672.1626" y1="818.3672" y2="818.3672"/><polygon fill="#111827" points="641.1626,814.3672,631.1626,818.3672,641.1626,822.3672,637.1626,818.3672" style="stroke:#111827;stroke-width:1;stroke-linejoin:miter;stroke-miterlimit:10;"/><text fill="#000000" font-family="'Arial'" font-size="13" font-weight="700" lengthAdjust="spacing" textLength="18.0908" x="637.1626" y="792.7349">12</text><text fill="#000000" font-family="'Arial'" font-size="13" lengthAdjust="spacing" textLength="171.0693" x="659.2534" y="785.1685">ETag "123" im Header ==</text><text fill="#000000" font-family="'Arial'" font-size="13" lengthAdjust="spacing" textLength="210.0249" x="659.2534" y="800.3013">ETag der Fachanwendung "123"</text></g><g class="message" data-entity-1="part2" data-entity-2="part2" data-source-line="101" id="msg13"><line style="stroke:#111827;stroke-width:1;" x1="630.1626" x2="672.1626" y1="862.6328" y2="862.6328"/><line style="stroke:#111827;stroke-width:1;" x1="672.1626" x2="672.1626" y1="862.6328" y2="875.6328"/><line style="stroke:#111827;stroke-width:1;" x1="631.1626" x2="672.1626" y1="875.6328" y2="875.6328"/><polygon fill="#111827" points="641.1626,871.6328,631.1626,875.6328,641.1626,879.6328,637.1626,875.6328" style="stroke:#111827;stroke-width:1;stroke-linejoin:miter;stroke-miterlimit:10;"/><text fill="#000000" font-family="'Arial'" font-size="13" font-weight="700" lengthAdjust="spacing" textLength="18.0908" x="637.1626" y="850.0005">13</text><text fill="#000000" font-family="'Arial'" font-size="13" lengthAdjust="spacing" textLength="184.5835" x="659.2534" y="842.4341">Validierung des neuen Plans</text><text fill="#000000" font-family="'Arial'" font-size="13" lengthAdjust="spacing" textLength="269.3374" x="659.2534" y="857.5669">(keine unzul&#228;ssigen Zustands&#252;berg&#228;nge)</text></g><g class="message" data-entity-1="part2" data-entity-2="part2" data-source-line="102" id="msg14"><line style="stroke:#111827;stroke-width:1;" x1="630.1626" x2="672.1626" y1="919.8984" y2="919.8984"/><line style="stroke:#111827;stroke-width:1;" x1="672.1626" x2="672.1626" y1="919.8984" y2="932.8984"/><line style="stroke:#111827;stroke-width:1;" x1="631.1626" x2="672.1626" y1="932.8984" y2="932.8984"/><polygon fill="#111827" points="641.1626,928.8984,631.1626,932.8984,641.1626,936.8984,637.1626,932.8984" style="stroke:#111827;stroke-width:1;stroke-linejoin:miter;stroke-miterlimit:10;"/><text fill="#000000" font-family="'Arial'" font-size="13" font-weight="700" lengthAdjust="spacing" textLength="18.0908" x="637.1626" y="907.2661">14</text><text fill="#000000" font-family="'Arial'" font-size="13" lengthAdjust="spacing" textLength="182.1968" x="659.2534" y="899.6997">Persistiert neue Version des</text><text fill="#000000" font-family="'Arial'" font-size="13" lengthAdjust="spacing" textLength="113.0898" x="659.2534" y="914.8325">Medikationsplans</text></g><g class="message" data-entity-1="part2" data-entity-2="part3" data-source-line="103" id="msg15"><line style="stroke:#111827;stroke-width:1;" x1="1116.1699" x2="1106.1699" y1="962.0313" y2="958.0313"/><line style="stroke:#111827;stroke-width:1;" x1="1116.1699" x2="1106.1699" y1="962.0313" y2="966.0313"/><line style="stroke:#111827;stroke-width:1;stroke-dasharray:2,2;" x1="625.1626" x2="1117.1699" y1="962.0313" y2="962.0313"/><text fill="#000000" font-family="'Arial'" font-size="13" font-weight="700" lengthAdjust="spacing" textLength="18.0908" x="632.1626" y="956.9653">15</text><text fill="#000000" font-family="'Arial'" font-size="13" lengthAdjust="spacing" textLength="18.7573" x="654.2534" y="956.9653">OK</text></g><path d="M441,980.0313 L441,996.0313 A5,5 0 0 0 446,1001.0313 L800,1001.0313 A5,5 0 0 0 805,996.0313 L805,985.0313 L795,975.0313 L446,975.0313 A5,5 0 0 0 441,980.0313" fill="url(#gadp6mqxpmbdq0)" filter="url(#fadp6mqxpmbdq)" style="stroke:#8B95A5;stroke-width:1;"/><path d="M795,975.0313 L795,982.5313 A2.5,2.5 0 0 0 797.5,985.0313 L805,985.0313 L795,975.0313" fill="url(#gadp6mqxpmbdq0)" style="stroke:#8B95A5;stroke-width:1;"/><text fill="#111827" font-family="'Arial'" font-size="14" lengthAdjust="spacing" textLength="343.4238" x="447" y="993.0264">Medikationsplan wurde durch GDA 2 aktualisiert.</text><rect fill="#EEEEEE" height="3" rx="5" ry="5" style="stroke:#EEEEEE;stroke-width:1;" width="1504.0137" x="0" y="1030.4766"/><line style="stroke:#000000;stroke-width:1;" x1="0" x2="1504.0137" y1="1030.4766" y2="1030.4766"/><line style="stroke:#000000;stroke-width:1;" x1="0" x2="1504.0137" y1="1033.4766" y2="1033.4766"/><rect fill="#EEEEEE" height="24.2969" rx="5" ry="5" style="stroke:#000000;stroke-width:2;" width="229.4688" x="637.2725" y="1019.3281"/><text fill="#000000" font-family="'Arial'" font-size="14" font-weight="700" lengthAdjust="spacing" textLength="210.5947" x="643.2725" y="1036.3232">Plan-Write-Error f&#252;r GDA 1</text><g class="message" data-entity-1="part1" data-entity-2="part2" data-source-line="114" id="msg16"><line style="stroke:#111827;stroke-width:1;" x1="618.1626" x2="608.1626" y1="1074.7578" y2="1070.7578"/><line style="stroke:#111827;stroke-width:1;" x1="618.1626" x2="608.1626" y1="1074.7578" y2="1078.7578"/><line style="stroke:#111827;stroke-width:1;" x1="142.0293" x2="619.1626" y1="1074.7578" y2="1074.7578"/><text fill="#000000" font-family="'Arial'" font-size="13" font-weight="700" lengthAdjust="spacing" textLength="18.0908" x="149.0293" y="1069.6919">16</text><text fill="#000000" font-family="'Arial'" font-size="13" lengthAdjust="spacing" textLength="344.4937" x="171.1201" y="1069.6919">POST $plan-write (Transaction Bundle + ETag "123")</text></g><g class="message" data-entity-1="part2" data-entity-2="part2" data-source-line="117" id="msg17"><line style="stroke:#111827;stroke-width:1;" x1="630.1626" x2="672.1626" y1="1119.0234" y2="1119.0234"/><line style="stroke:#111827;stroke-width:1;" x1="672.1626" x2="672.1626" y1="1119.0234" y2="1132.0234"/><line style="stroke:#111827;stroke-width:1;" x1="631.1626" x2="672.1626" y1="1132.0234" y2="1132.0234"/><polygon fill="#111827" points="641.1626,1128.0234,631.1626,1132.0234,641.1626,1136.0234,637.1626,1132.0234" style="stroke:#111827;stroke-width:1;stroke-linejoin:miter;stroke-miterlimit:10;"/><text fill="#000000" font-family="'Arial'" font-size="13" font-weight="700" lengthAdjust="spacing" textLength="18.0908" x="637.1626" y="1106.3911">17</text><text fill="#000000" font-family="'Arial'" font-size="13" lengthAdjust="spacing" textLength="231.6577" x="659.2534" y="1098.8247">ETag "123" im Header stimmt nicht</text><text fill="#000000" font-family="'Arial'" font-size="13" lengthAdjust="spacing" textLength="248.4409" x="659.2534" y="1113.9575">mit ETag der Fachanwendung &#252;berein</text></g><g class="message" data-entity-1="part2" data-entity-2="part2" data-source-line="118" id="msg18"><line style="stroke:#111827;stroke-width:1;" x1="630.1626" x2="672.1626" y1="1161.1563" y2="1161.1563"/><line style="stroke:#111827;stroke-width:1;" x1="672.1626" x2="672.1626" y1="1161.1563" y2="1174.1563"/><line style="stroke:#111827;stroke-width:1;" x1="631.1626" x2="672.1626" y1="1174.1563" y2="1174.1563"/><polygon fill="#111827" points="641.1626,1170.1563,631.1626,1174.1563,641.1626,1178.1563,637.1626,1174.1563" style="stroke:#111827;stroke-width:1;stroke-linejoin:miter;stroke-miterlimit:10;"/><text fill="#000000" font-family="'Arial'" font-size="13" font-weight="700" lengthAdjust="spacing" textLength="18.0908" x="637.1626" y="1156.0903">18</text><text fill="#000000" font-family="'Arial'" font-size="13" lengthAdjust="spacing" textLength="233.7715" x="659.2534" y="1156.0903">Fachanwendung lehnt Speichern ab</text></g><g class="message" data-entity-1="part2" data-entity-2="part1" data-source-line="119" id="msg19"><line style="stroke:#111827;stroke-width:1;" x1="138.0293" x2="148.0293" y1="1203.2891" y2="1199.2891"/><line style="stroke:#111827;stroke-width:1;" x1="138.0293" x2="148.0293" y1="1203.2891" y2="1207.2891"/><line style="stroke:#111827;stroke-width:1;stroke-dasharray:2,2;" x1="137.0293" x2="624.1626" y1="1203.2891" y2="1203.2891"/><text fill="#000000" font-family="'Arial'" font-size="13" font-weight="700" lengthAdjust="spacing" textLength="18.0908" x="154.0293" y="1198.2231">19</text><text fill="#000000" font-family="'Arial'" font-size="13" lengthAdjust="spacing" textLength="104.0889" x="176.1201" y="1198.2231">Fehler (Konflikt)</text></g><path d="M19,1221.2891 L19,1237.2891 A5,5 0 0 0 24,1242.2891 L733,1242.2891 A5,5 0 0 0 738,1237.2891 L738,1226.2891 L728,1216.2891 L24,1216.2891 A5,5 0 0 0 19,1221.2891" fill="url(#gadp6mqxpmbdq0)" filter="url(#fadp6mqxpmbdq)" style="stroke:#8B95A5;stroke-width:1;"/><path d="M728,1216.2891 L728,1223.7891 A2.5,2.5 0 0 0 730.5,1226.2891 L738,1226.2891 L728,1216.2891" fill="url(#gadp6mqxpmbdq0)" style="stroke:#8B95A5;stroke-width:1;"/><text fill="#111827" font-family="'Arial'" font-size="14" lengthAdjust="spacing" textLength="698.6738" x="25" y="1234.2842">Speichern des Medikationsplans wurde abgelehnt, der GDA 1 muss ein neues Plan-Read ausf&#252;hren.</text><g class="footer" data-source-line="127"><text fill="#000000" font-family="'Arial'" font-size="10" lengthAdjust="spacing" textLength="80.1123" x="711.4507" y="1350.165">Plan-Write-Error</text></g><?plantuml-src rLPHRzis47xdhpWuUqZGUesKkd46k83JEHjGT3MQh0C60mKbdIp2CkMHL9scsB_9pyYR_rYFb6nHjhAkVHWmvY4sx-xZtVSTZzOB8LTSyIL4XKfGlIhoGi7HgLjCDrOUB-QgA6LIUwG3--Tvw8mdnLh8EQGyr-XPwZ0bKK7WWoQOyZ8tLuKql_4bGc-i1CzxtHxNuWuXUDvjRAVj-SZ287nc09Vx1U0f3jBJ_b4I91Vumdhu10oZYm4Vx7PlCX4l96eD0UszymeQqlSfJn9Rk4NniWc2O1YUqzxrZXgZIcH_-md--cc5AXTouPKmcNGv_2uJzm5hWdtkyQyIPLnLEkNAY5Yik3IjaWPkxJaSoEfMs-cGu0FpLfoMOKjBQ0F6IXNhVMBSPfjRjzLruivGdNL6MxzGvgjMZJlaodIWEQQXgywBR8uFsyfS5hTU1QtzBbvPLDn2RoO9_ESn100zEBf8wTvOLdXio9KC7mBW6dhEfSTG9dJlRhrOjx3_1XEuud76vPfyIagXMeJvwldm_DnstQfX6f02FboD7NOTFUw6joU73YX2ZX6saWjtoOKTqLDk1D9XBfZ7PyDe5xmrsV3wimV0U6aAMIuZL8m16urWcdFPVuSyWQHKSLPJDXenWXCVETrPnnMh6Ek_VBcjy2UOlhs-WHzM5a0H06j2QXUs9QFlHOsbvDaIALnj7b9BA2zJY50Rp2XFb3D9hc91kHTIMtH0bHRvNA68iqv8aZ_7sFh39RLOZd1NAXYNEXUOeh9de2ByF3Ui0R2rkAgw09x0v8RFeHU4PpsMu45bEpws41CXZThSpn4o8U_ATFCmH_biSsz7XNn6Ab0Y4YLZRWuM7r4rn1BXr08gGc7Gm5xrJZmRn1wJAxHoiQfh_b6WbgJX_rMlyBlr2hTwXT-jLyWgnhz9hpyKENwZO6iNStoZkDJyqL9F_gM8JGG8UiYe6QYUqMWcdS5-QS-uYiSkfFSy5uceH4fGWqHwxroPUYQF5sXVnP88pJVtMWlY5FuijU4oqPi7cZfpOdYE9vtGKn9TQ1fPoZXOU6ytg70wvw39T6TZl7qDllfrdpSIRZdQxzXrISz8Io6-C2MLgcqsFtgQTlLMI-V-X9v71THGgXccNncV_u7OnEjoIRpIdJGpkHG67f7UoKGoTaAtNNFCwAMvNjcBJhS5UDGvNQymo-cOuzU5J7EnC2Vx4WM72Zsj3GsuRRRz7gXruz4SNIvFNJqLwykIVaXG7QwLj3SuUQb9d4oX_9gkCOq1makBmlxRb_WB?></g></svg>