<svg xmlns="http://www.w3.org/2000/svg" xmlns:xlink="http://www.w3.org/1999/xlink" contentStyleType="text/css" data-diagram-type="SEQUENCE" height="715px" preserveAspectRatio="none" style="width:1230px;height:715px;background:#F5F5F5;" version="1.1" viewBox="0 0 1230 715" width="1230px" zoomAndPan="magnify"><?plantuml 1.2026.4beta2?><defs><linearGradient id="g1ucpzm9x3hfbl0" x1="50%" x2="50%" y1="0%" y2="100%"><stop offset="0%" stop-color="#E0E5F0"/><stop offset="100%" stop-color="#D1D9E6"/></linearGradient><filter height="300%" id="f1ucpzm9x3hfbl" width="300%" x="-1" y="-1"><feGaussianBlur result="blurOut" stdDeviation="2"/><feColorMatrix in="blurOut" result="blurOut2" type="matrix" values="0 0 0 0 0 0 0 0 0 0 0 0 0 0 0 0 0 0 .4 0"/><feOffset dx="4" dy="4" in="blurOut2" result="blurOut3"/><feBlend in="SourceGraphic" in2="blurOut3" mode="normal"/></filter></defs><g><rect fill="#F5F5F5" height="715" style="stroke:none;stroke-width:1;" width="1230" x="0" y="0"/><g class="title" data-source-line="1"><text fill="#000000" font-family="'Arial'" font-size="14" font-weight="700" lengthAdjust="spacing" textLength="103.168" x="559.998" y="27.9951">Write-Zugriff</text></g><rect fill="#9FBAC4" height="665.5938" rx="5" ry="5" style="stroke:#181818;stroke-width:0.5;" width="74.0586" x="126" y="43.2969"/><text fill="#000000" font-family="'Arial'" font-size="14" font-weight="700" lengthAdjust="spacing" textLength="4.874" x="129" y="56.292">&#160;</text><text fill="#000000" font-family="'Arial'" font-size="14" font-weight="700" lengthAdjust="spacing" textLength="48.5625" x="138.748" y="72.5889">GDA 1</text><rect fill="#C48778" height="665.5938" rx="5" ry="5" style="stroke:#181818;stroke-width:0.5;" width="256.9268" x="499.0161" y="43.2969"/><text fill="#000000" font-family="'Arial'" font-size="14" font-weight="700" lengthAdjust="spacing" textLength="4.874" x="502.0161" y="56.292">&#160;</text><text fill="#000000" font-family="'Arial'" font-size="14" font-weight="700" lengthAdjust="spacing" textLength="182.6904" x="536.1343" y="72.5889">e-Med Fachanwendung</text><rect fill="#BEAEBE" height="665.5938" rx="5" ry="5" style="stroke:#181818;stroke-width:0.5;" width="83.8066" x="999.3818" y="43.2969"/><text fill="#000000" font-family="'Arial'" font-size="14" font-weight="700" lengthAdjust="spacing" textLength="4.874" x="1002.3818" y="56.292">&#160;</text><text fill="#000000" font-family="'Arial'" font-size="14" font-weight="700" lengthAdjust="spacing" textLength="48.5625" x="1021.8779" y="72.5889">GDA 2</text><rect fill="#BAC38B" height="665.5938" rx="5" ry="5" style="stroke:#181818;stroke-width:0.5;" width="77.9756" x="1125.1885" y="43.2969"/><text fill="#000000" font-family="'Arial'" font-size="14" font-weight="700" lengthAdjust="spacing" textLength="4.874" x="1128.1885" y="56.292">&#160;</text><text fill="#000000" font-family="'Arial'" font-size="14" font-weight="700" lengthAdjust="spacing" textLength="57.3535" x="1133.0625" y="72.5889">Patient</text><g><title>GDA 1</title><rect fill="#FFFFFF" height="431.4063" style="stroke:#181818;stroke-width:1;" width="10" x="158.0293" y="166.1875"/></g><g><title>e-Med FA</title><rect fill="#FFFFFF" height="314.25" style="stroke:#181818;stroke-width:1;" width="10" x="622.4795" y="283.3438"/></g><rect fill="none" height="383.8125" rx="5" ry="5" style="stroke:#111827;stroke-width:2;" width="836.1147" x="117.7476" y="228.7813"/><rect fill="none" height="249.9844" rx="5" ry="5" style="stroke:#111827;stroke-width:2;" width="816.1147" x="127.7476" y="355.6094"/><g class="participant-lifeline" data-entity-uid="part1" data-qualified-name="GDA_1" data-source-line="42" id="part1-lifeline"><g><title>GDA 1</title><rect fill="#000000" fill-opacity="0.00000" height="473.4063" width="8" x="159.0293" y="156.1875"/><line style="stroke:#181818;stroke-width:0.5;stroke-dasharray:5,5;" x1="162.7476" x2="162.7476" y1="156.1875" y2="629.5938"/></g></g><g class="participant-lifeline" data-entity-uid="part2" data-qualified-name="eMed_FA" data-source-line="46" id="part2-lifeline"><g><title>e-Med FA</title><rect fill="#000000" fill-opacity="0.00000" height="473.4063" width="8" x="623.4795" y="156.1875"/><line style="stroke:#181818;stroke-width:0.5;stroke-dasharray:5,5;" x1="626.8174" x2="626.8174" y1="156.1875" y2="629.5938"/></g></g><g class="participant-lifeline" data-entity-uid="part3" data-qualified-name="GDA_2" data-source-line="50" id="part3-lifeline"><g><title>GDA 2</title><rect fill="#000000" fill-opacity="0.00000" height="473.4063" width="8" x="1037.2852" y="156.1875"/><line style="stroke:#181818;stroke-width:0.5;stroke-dasharray:5,5;" x1="1041.0034" x2="1041.0034" y1="156.1875" y2="629.5938"/></g></g><g class="participant-lifeline" data-entity-uid="part4" data-qualified-name="Patient" data-source-line="54" id="part4-lifeline"><g><title>Patient</title><rect fill="#000000" fill-opacity="0.00000" height="473.4063" width="8" x="1160.1763" y="156.1875"/><line style="stroke:#181818;stroke-width:0.5;stroke-dasharray:5,5;" x1="1163.4883" x2="1163.4883" y1="156.1875" y2="629.5938"/></g></g><g class="participant participant-head" data-entity-uid="part1" data-qualified-name="GDA_1" data-source-line="42" id="part1-head"><text fill="#000000" font-family="'Arial'" font-size="14" lengthAdjust="spacing" textLength="44.5635" x="137.7476" y="152.8857">GDA 1</text><ellipse cx="163.0293" cy="88.3906" fill="#E2E2F0" rx="8" ry="8" style="stroke:#181818;stroke-width:0.5;"/><path d="M163.0293,96.3906 L163.0293,123.3906 M150.0293,104.3906 L176.0293,104.3906 M163.0293,123.3906 L150.0293,138.3906 M163.0293,123.3906 L176.0293,138.3906" fill="none" style="stroke:#181818;stroke-width:0.5;"/></g><g class="participant participant-tail" data-entity-uid="part1" data-qualified-name="GDA_1" data-source-line="42" id="part1-tail"><text fill="#000000" font-family="'Arial'" font-size="14" lengthAdjust="spacing" textLength="44.5635" x="137.7476" y="641.5889">GDA 1</text><ellipse cx="163.0293" cy="653.3906" fill="#E2E2F0" rx="8" ry="8" style="stroke:#181818;stroke-width:0.5;"/><path d="M163.0293,661.3906 L163.0293,688.3906 M150.0293,669.3906 L176.0293,669.3906 M163.0293,688.3906 L150.0293,703.3906 M163.0293,688.3906 L176.0293,703.3906" fill="none" style="stroke:#181818;stroke-width:0.5;"/></g><g class="participant participant-head" data-entity-uid="part2" data-qualified-name="eMed_FA" data-source-line="46" id="part2-head"><rect fill="#FFFFFF" height="30.2969" rx="5" ry="5" style="stroke:#555555;stroke-width:0.5;" width="79.3242" x="587.8174" y="124.8906"/><text fill="#000000" font-family="'Arial'" font-size="14" lengthAdjust="spacing" textLength="65.3242" x="594.8174" y="144.8857">e-Med FA</text></g><g class="participant participant-tail" data-entity-uid="part2" data-qualified-name="eMed_FA" data-source-line="46" id="part2-tail"><rect fill="#FFFFFF" height="30.2969" rx="5" ry="5" style="stroke:#555555;stroke-width:0.5;" width="79.3242" x="587.8174" y="628.5938"/><text fill="#000000" font-family="'Arial'" font-size="14" lengthAdjust="spacing" textLength="65.3242" x="594.8174" y="648.5889">e-Med FA</text></g><g class="participant participant-head" data-entity-uid="part3" data-qualified-name="GDA_2" data-source-line="50" id="part3-head"><text fill="#000000" font-family="'Arial'" font-size="14" lengthAdjust="spacing" textLength="44.5635" x="1016.0034" y="152.8857">GDA 2</text><ellipse cx="1041.2852" cy="88.3906" fill="#E2E2F0" rx="8" ry="8" style="stroke:#181818;stroke-width:0.5;"/><path d="M1041.2852,96.3906 L1041.2852,123.3906 M1028.2852,104.3906 L1054.2852,104.3906 M1041.2852,123.3906 L1028.2852,138.3906 M1041.2852,123.3906 L1054.2852,138.3906" fill="none" style="stroke:#181818;stroke-width:0.5;"/></g><g class="participant participant-tail" data-entity-uid="part3" data-qualified-name="GDA_2" data-source-line="50" id="part3-tail"><text fill="#000000" font-family="'Arial'" font-size="14" lengthAdjust="spacing" textLength="44.5635" x="1016.0034" y="641.5889">GDA 2</text><ellipse cx="1041.2852" cy="653.3906" fill="#E2E2F0" rx="8" ry="8" style="stroke:#181818;stroke-width:0.5;"/><path d="M1041.2852,661.3906 L1041.2852,688.3906 M1028.2852,669.3906 L1054.2852,669.3906 M1041.2852,688.3906 L1028.2852,703.3906 M1041.2852,688.3906 L1054.2852,703.3906" fill="none" style="stroke:#181818;stroke-width:0.5;"/></g><g class="participant participant-head" data-entity-uid="part4" data-qualified-name="Patient" data-source-line="54" id="part4-head"><text fill="#000000" font-family="'Arial'" font-size="14" lengthAdjust="spacing" textLength="49.376" x="1136.4883" y="152.8857">Patient</text><ellipse cx="1164.1763" cy="88.3906" fill="#E2E2F0" rx="8" ry="8" style="stroke:#181818;stroke-width:0.5;"/><path d="M1164.1763,96.3906 L1164.1763,123.3906 M1151.1763,104.3906 L1177.1763,104.3906 M1164.1763,123.3906 L1151.1763,138.3906 M1164.1763,123.3906 L1177.1763,138.3906" fill="none" style="stroke:#181818;stroke-width:0.5;"/></g><g class="participant participant-tail" data-entity-uid="part4" data-qualified-name="Patient" data-source-line="54" id="part4-tail"><text fill="#000000" font-family="'Arial'" font-size="14" lengthAdjust="spacing" textLength="49.376" x="1136.4883" y="641.5889">Patient</text><ellipse cx="1164.1763" cy="653.3906" fill="#E2E2F0" rx="8" ry="8" style="stroke:#181818;stroke-width:0.5;"/><path d="M1164.1763,661.3906 L1164.1763,688.3906 M1151.1763,669.3906 L1177.1763,669.3906 M1164.1763,688.3906 L1151.1763,703.3906 M1164.1763,688.3906 L1177.1763,703.3906" fill="none" style="stroke:#181818;stroke-width:0.5;"/></g><g><title>GDA 1</title><rect fill="#FFFFFF" height="431.4063" style="stroke:#181818;stroke-width:1;" width="10" x="158.0293" y="166.1875"/></g><g><title>e-Med FA</title><rect fill="#FFFFFF" height="314.25" style="stroke:#181818;stroke-width:1;" width="10" x="622.4795" y="283.3438"/></g><path d="M5,176.1875 L5,208.1875 A5,5 0 0 0 10,213.1875 L314,213.1875 A5,5 0 0 0 319,208.1875 L319,181.1875 L309,171.1875 L10,171.1875 A5,5 0 0 0 5,176.1875" fill="url(#g1ucpzm9x3hfbl0)" filter="url(#f1ucpzm9x3hfbl)" style="stroke:#8B95A5;stroke-width:1;"/><path d="M309,171.1875 L309,178.6875 A2.5,2.5 0 0 0 311.5,181.1875 L319,181.1875 L309,171.1875" fill="url(#g1ucpzm9x3hfbl0)" style="stroke:#8B95A5;stroke-width:1;"/><text fill="#111827" font-family="'Arial'" font-size="14" lengthAdjust="spacing" textLength="293.4395" x="11" y="189.1826">Vorbedingung: Nach einem Read-to-Write</text><text fill="#111827" font-family="'Arial'" font-size="14" lengthAdjust="spacing" textLength="257.8447" x="11" y="205.4795">wurde der Medikationsplan bearbeit.</text><path d="M122.7476,228.7813 L213.313,228.7813 L213.313,237.0781 L203.313,247.0781 L117.7476,247.0781 L117.7476,233.7813 A5,5 0 0 1 122.7476,228.7813" fill="#EEF2FF" style="stroke:#111827;stroke-width:1.5;"/><rect fill="none" height="383.8125" rx="5" ry="5" style="stroke:#111827;stroke-width:2;" width="836.1147" x="117.7476" y="228.7813"/><text fill="#000000" font-family="'Arial'" font-size="14" font-weight="700" lengthAdjust="spacing" textLength="50.5654" x="132.7476" y="242.7764">$write</text><g class="message" data-entity-1="part1" data-entity-2="part2" data-source-line="69" id="msg1"><line style="stroke:#111827;stroke-width:1;" x1="620.4795" x2="610.4795" y1="283.3438" y2="279.3438"/><line style="stroke:#111827;stroke-width:1;" x1="620.4795" x2="610.4795" y1="283.3438" y2="287.3438"/><line style="stroke:#111827;stroke-width:1;" x1="168.0293" x2="621.4795" y1="283.3438" y2="283.3438"/><text fill="#000000" font-family="'Arial'" font-size="13" font-weight="700" lengthAdjust="spacing" textLength="9.0454" x="175.0293" y="270.7114">1</text><text fill="#000000" font-family="'Arial'" font-size="13" lengthAdjust="spacing" textLength="329.856" x="188.0747" y="263.145">POST $write AtElgaEmedBundleTxMedikationsplan</text><text fill="#000000" font-family="'Arial'" font-size="13" lengthAdjust="spacing" textLength="240.1699" x="188.0747" y="278.2778">(Transaction Bundle + List.identifier)</text></g><g class="message" data-entity-1="part2" data-entity-2="part2" data-source-line="72" id="msg2"><line style="stroke:#111827;stroke-width:1;" x1="632.4795" x2="674.4795" y1="327.6094" y2="327.6094"/><line style="stroke:#111827;stroke-width:1;" x1="674.4795" x2="674.4795" y1="327.6094" y2="340.6094"/><line style="stroke:#111827;stroke-width:1;" x1="633.4795" x2="674.4795" y1="340.6094" y2="340.6094"/><polygon fill="#111827" points="643.4795,336.6094,633.4795,340.6094,643.4795,344.6094,639.4795,340.6094" style="stroke:#111827;stroke-width:1;"/><text fill="#000000" font-family="'Arial'" font-size="13" font-weight="700" lengthAdjust="spacing" textLength="9.0454" x="639.4795" y="314.9771">2</text><text fill="#000000" font-family="'Arial'" font-size="13" lengthAdjust="spacing" textLength="257.1943" x="652.5249" y="307.4106">List.identifier im TransactionBundle ==</text><text fill="#000000" font-family="'Arial'" font-size="13" lengthAdjust="spacing" textLength="170.1934" x="652.5249" y="322.5435">tempor&#228;rer List.identifier?</text></g><path d="M132.7476,355.6094 L193.686,355.6094 L193.686,363.9063 L183.686,373.9063 L127.7476,373.9063 L127.7476,360.6094 A5,5 0 0 1 132.7476,355.6094" fill="#EEF2FF" style="stroke:#111827;stroke-width:1.5;"/><rect fill="none" height="249.9844" rx="5" ry="5" style="stroke:#111827;stroke-width:2;" width="816.1147" x="127.7476" y="355.6094"/><text fill="#000000" font-family="'Arial'" font-size="14" font-weight="700" lengthAdjust="spacing" textLength="20.9385" x="142.7476" y="369.6045">alt</text><text fill="#000000" font-family="'Arial'" font-size="14" font-weight="700" lengthAdjust="spacing" textLength="59.0967" x="208.686" y="370.6045">[g&#252;ltig]</text><g class="message" data-entity-1="part2" data-entity-2="part2" data-source-line="75" id="msg3"><line style="stroke:#111827;stroke-width:1;" x1="632.4795" x2="674.4795" y1="411.4688" y2="411.4688"/><line style="stroke:#111827;stroke-width:1;" x1="674.4795" x2="674.4795" y1="411.4688" y2="424.4688"/><line style="stroke:#111827;stroke-width:1;" x1="633.4795" x2="674.4795" y1="424.4688" y2="424.4688"/><polygon fill="#111827" points="643.4795,420.4688,633.4795,424.4688,643.4795,428.4688,639.4795,424.4688" style="stroke:#111827;stroke-width:1;"/><text fill="#000000" font-family="'Arial'" font-size="13" font-weight="700" lengthAdjust="spacing" textLength="9.0454" x="639.4795" y="398.8364">3</text><text fill="#000000" font-family="'Arial'" font-size="13" lengthAdjust="spacing" textLength="184.5835" x="652.5249" y="391.27">Validierung des neuen Plans</text><text fill="#000000" font-family="'Arial'" font-size="13" lengthAdjust="spacing" textLength="269.3374" x="652.5249" y="406.4028">(keine unzul&#228;ssigen Zustands&#252;berg&#228;nge)</text></g><g class="message" data-entity-1="part2" data-entity-2="part2" data-source-line="76" id="msg4"><line style="stroke:#111827;stroke-width:1;" x1="632.4795" x2="674.4795" y1="468.7344" y2="468.7344"/><line style="stroke:#111827;stroke-width:1;" x1="674.4795" x2="674.4795" y1="468.7344" y2="481.7344"/><line style="stroke:#111827;stroke-width:1;" x1="633.4795" x2="674.4795" y1="481.7344" y2="481.7344"/><polygon fill="#111827" points="643.4795,477.7344,633.4795,481.7344,643.4795,485.7344,639.4795,481.7344" style="stroke:#111827;stroke-width:1;"/><text fill="#000000" font-family="'Arial'" font-size="13" font-weight="700" lengthAdjust="spacing" textLength="9.0454" x="639.4795" y="456.1021">4</text><text fill="#000000" font-family="'Arial'" font-size="13" lengthAdjust="spacing" textLength="182.1968" x="652.5249" y="448.5356">Persistiert neue Version des</text><text fill="#000000" font-family="'Arial'" font-size="13" lengthAdjust="spacing" textLength="113.0898" x="652.5249" y="463.6685">Medikationsplans</text></g><path d="M491,499.7344 L491,515.7344 A5,5 0 0 0 496,520.7344 L755,520.7344 A5,5 0 0 0 760,515.7344 L760,504.7344 L750,494.7344 L496,494.7344 A5,5 0 0 0 491,499.7344" fill="url(#g1ucpzm9x3hfbl0)" filter="url(#f1ucpzm9x3hfbl)" style="stroke:#8B95A5;stroke-width:1;"/><path d="M750,494.7344 L750,502.2344 A2.5,2.5 0 0 0 752.5,504.7344 L760,504.7344 L750,494.7344" fill="url(#g1ucpzm9x3hfbl0)" style="stroke:#8B95A5;stroke-width:1;"/><text fill="#111827" font-family="'Arial'" font-size="14" lengthAdjust="spacing" textLength="248.3359" x="497" y="512.7295">Neuer Medikationsplan gespeichert</text><g class="message" data-entity-1="part2" data-entity-2="part1" data-source-line="82" id="msg5"><line style="stroke:#111827;stroke-width:1;" x1="169.0293" x2="179.0293" y1="550.1641" y2="546.1641"/><line style="stroke:#111827;stroke-width:1;" x1="169.0293" x2="179.0293" y1="550.1641" y2="554.1641"/><line style="stroke:#111827;stroke-width:1;stroke-dasharray:2,2;" x1="168.0293" x2="621.4795" y1="550.1641" y2="550.1641"/><text fill="#000000" font-family="'Arial'" font-size="13" font-weight="700" lengthAdjust="spacing" textLength="9.0454" x="185.0293" y="545.0981">5</text><text fill="#000000" font-family="'Arial'" font-size="13" lengthAdjust="spacing" textLength="18.7573" x="198.0747" y="545.0981">OK</text></g><line style="stroke:#111827;stroke-width:1;stroke-dasharray:2,2;" x1="127.7476" x2="943.8623" y1="559.1641" y2="559.1641"/><text fill="#000000" font-family="'Arial'" font-size="14" font-weight="700" lengthAdjust="spacing" textLength="79.0303" x="132.7476" y="572.1592">[ung&#252;ltig]</text><g class="message" data-entity-1="part2" data-entity-2="part1" data-source-line="86" id="msg6"><line style="stroke:#111827;stroke-width:1;" x1="164.0293" x2="174.0293" y1="597.5938" y2="593.5938"/><line style="stroke:#111827;stroke-width:1;" x1="164.0293" x2="174.0293" y1="597.5938" y2="601.5938"/><line style="stroke:#111827;stroke-width:1;stroke-dasharray:2,2;" x1="163.0293" x2="626.4795" y1="597.5938" y2="597.5938"/><text fill="#000000" font-family="'Arial'" font-size="13" font-weight="700" lengthAdjust="spacing" textLength="9.0454" x="180.0293" y="592.5278">6</text><text fill="#000000" font-family="'Arial'" font-size="13" lengthAdjust="spacing" textLength="40.6694" x="193.0747" y="592.5278">Fehler</text></g><?plantuml-src TLJjRjCm5FsVfxZg-052dPQEicxIGDteG096jOqXeKd8ZMzIgwaTR6ST8DvcZx5_VJ6kdRHrqk99Ktg_pZtdNjiAcoDyqy9YztkPQP6caPa9MJ3DvZ1HcgC-LxdIi7VWJ-XboIpJgfIyZaZxxY-8C5F6rKB835AM6mmyTPgMg24EYt9CMPdR2oNj9PiZT8PQiBopE-9Q_4Q8N-rsDjiEOgIo27yYWBCs0Jp0VdhGtUCnFyRNBY8KO30vxhF-sdep5SbCeZ4Ga-qg83IWtsF6kIFkgWJTn74yw1sHxNejZTKbHd_31Z_yAb3dGiu22gFHhe2laliFh0KEjSUV9SgaOZfcsef454pQ1gM-Fws0hR7wqmpQ5dZBlHfEmx6IfUSIXbghHLiORsngwqsx4DUE2kkGJE-fywB1SLsvSctD7DEUPnTaRk1xpScSgOU0GSE-IzTeeXwWSoUf-BiXn00Ts3jEwTuuLLXYAPGSFs9W1Ze-f1EXv7Jl7e9SVx3x6JbSi6JAv89YIcgXEbJp_DNWwCXjNR5H6f0IVbmCVUqwUxYxl4Fk-K8JP3Z1HdEzTNEz7TbZPWKIc4zcoU5WiavUkLnw_HqKY5XfbIpd4zJqdLXnp-XMUZMYoDzGTO-rFD6jqXDqgXFh4xWa4G1fwUTmXOnthUhw1onQb3G2UW8q45in8qmbJP4p2SIBAWYxxnjmvQF8RK41pnO-DO9w4jqtRrRAdS3uo_LD7G53EyepDfeZFwFboV7ceGLo9v_VQ2QD8wCaL57m4Zu9O_S59_eY5QXVH9L25U4QYaohSNK3_5OgY3a443N2wUcTj3Wlb5u-QWfg9RtrUBc5RFcKMv51vDTf1zejomMd3BTQ70r8f0S4naJD4BUPKnnA-RlCbu_6Y8nytqjZcUHc-KHZp9QFCiCN_oq_HcseDGAmlZJSEWCfHLXtiYMcyMNylyqoRCG2kAGAstFEq1GeaYbXL7sifzteoWtPZ_i4ldnqFgJ7axYj9Vfl-0LESyAj0ZYs5hTb38OhUUHMxny0?></g></svg>