<svg xmlns="http://www.w3.org/2000/svg" xmlns:xlink="http://www.w3.org/1999/xlink" contentStyleType="text/css" data-diagram-type="SEQUENCE" height="727px" preserveAspectRatio="none" style="width:1230px;height:727px;background:#F5F5F5;" version="1.1" viewBox="0 0 1230 727" width="1230px" zoomAndPan="magnify"><?plantuml 1.2026.4beta2?><defs><linearGradient id="g3j3y6o9hntjm0" x1="50%" x2="50%" y1="0%" y2="100%"><stop offset="0%" stop-color="#E0E5F0"/><stop offset="100%" stop-color="#D1D9E6"/></linearGradient><filter height="300%" id="f3j3y6o9hntjm" width="300%" x="-1" y="-1"><feGaussianBlur result="blurOut" stdDeviation="2"/><feColorMatrix in="blurOut" result="blurOut2" type="matrix" values="0 0 0 0 0 0 0 0 0 0 0 0 0 0 0 0 0 0 .4 0"/><feOffset dx="4" dy="4" in="blurOut2" result="blurOut3"/><feBlend in="SourceGraphic" in2="blurOut3" mode="normal"/></filter></defs><g><rect fill="#F5F5F5" height="727" style="stroke:none;stroke-width:1;" width="1230" x="0" y="0"/><g class="title" data-source-line="1"><text fill="#000000" font-family="'Arial'" font-size="14" font-weight="700" lengthAdjust="spacing" textLength="103.168" x="559.998" y="27.9951">Write-Zugriff</text></g><rect fill="#9FBAC4" height="677.5938" rx="5" ry="5" style="stroke:#181818;stroke-width:0.5;" width="74.0586" x="126" y="43.2969"/><text fill="#000000" font-family="'Arial'" font-size="14" font-weight="700" lengthAdjust="spacing" textLength="4.874" x="129" y="56.292">&#160;</text><text fill="#000000" font-family="'Arial'" font-size="14" font-weight="700" lengthAdjust="spacing" textLength="48.5625" x="138.748" y="72.5889">GDA 1</text><rect fill="#C48778" height="677.5938" rx="5" ry="5" style="stroke:#181818;stroke-width:0.5;" width="256.9268" x="499.0161" y="43.2969"/><text fill="#000000" font-family="'Arial'" font-size="14" font-weight="700" lengthAdjust="spacing" textLength="4.874" x="502.0161" y="56.292">&#160;</text><text fill="#000000" font-family="'Arial'" font-size="14" font-weight="700" lengthAdjust="spacing" textLength="182.6904" x="536.1343" y="72.5889">e-Med Fachanwendung</text><rect fill="#BEAEBE" height="677.5938" rx="5" ry="5" style="stroke:#181818;stroke-width:0.5;" width="83.8066" x="999.3818" y="43.2969"/><text fill="#000000" font-family="'Arial'" font-size="14" font-weight="700" lengthAdjust="spacing" textLength="4.874" x="1002.3818" y="56.292">&#160;</text><text fill="#000000" font-family="'Arial'" font-size="14" font-weight="700" lengthAdjust="spacing" textLength="48.5625" x="1021.8779" y="72.5889">GDA 2</text><rect fill="#BAC38B" height="677.5938" rx="5" ry="5" style="stroke:#181818;stroke-width:0.5;" width="77.9756" x="1125.1885" y="43.2969"/><text fill="#000000" font-family="'Arial'" font-size="14" font-weight="700" lengthAdjust="spacing" textLength="4.874" x="1128.1885" y="56.292">&#160;</text><text fill="#000000" font-family="'Arial'" font-size="14" font-weight="700" lengthAdjust="spacing" textLength="57.3535" x="1133.0625" y="72.5889">Patient</text><g><title>GDA 1</title><rect fill="#FFFFFF" height="450.4063" style="stroke:#181818;stroke-width:1;" width="10" x="158.0293" y="166.1875"/></g><g><title>e-Med FA</title><rect fill="#FFFFFF" height="314.25" style="stroke:#181818;stroke-width:1;" width="10" x="622.4795" y="302.3438"/></g><rect fill="none" height="249.9844" rx="5" ry="5" style="stroke:#111827;stroke-width:2;" width="816.1147" x="127.7476" y="374.6094"/><g class="participant-lifeline" data-entity-uid="part1" data-qualified-name="GDA_1" data-source-line="42" id="part1-lifeline"><g><title>GDA 1</title><rect fill="#000000" fill-opacity="0.00000" height="485.4063" width="8" x="159.0293" y="156.1875"/><line style="stroke:#181818;stroke-width:0.5;stroke-dasharray:5,5;" x1="162.7476" x2="162.7476" y1="156.1875" y2="641.5938"/></g></g><g class="participant-lifeline" data-entity-uid="part2" data-qualified-name="eMed_FA" data-source-line="46" id="part2-lifeline"><g><title>e-Med FA</title><rect fill="#000000" fill-opacity="0.00000" height="485.4063" width="8" x="623.4795" y="156.1875"/><line style="stroke:#181818;stroke-width:0.5;stroke-dasharray:5,5;" x1="626.8174" x2="626.8174" y1="156.1875" y2="641.5938"/></g></g><g class="participant-lifeline" data-entity-uid="part3" data-qualified-name="GDA_2" data-source-line="50" id="part3-lifeline"><g><title>GDA 2</title><rect fill="#000000" fill-opacity="0.00000" height="485.4063" width="8" x="1037.2852" y="156.1875"/><line style="stroke:#181818;stroke-width:0.5;stroke-dasharray:5,5;" x1="1041.0034" x2="1041.0034" y1="156.1875" y2="641.5938"/></g></g><g class="participant-lifeline" data-entity-uid="part4" data-qualified-name="Patient" data-source-line="54" id="part4-lifeline"><g><title>Patient</title><rect fill="#000000" fill-opacity="0.00000" height="485.4063" width="8" x="1160.1763" y="156.1875"/><line style="stroke:#181818;stroke-width:0.5;stroke-dasharray:5,5;" x1="1163.4883" x2="1163.4883" y1="156.1875" y2="641.5938"/></g></g><g class="participant participant-head" data-entity-uid="part1" data-qualified-name="GDA_1" data-source-line="42" id="part1-head"><text fill="#000000" font-family="'Arial'" font-size="14" lengthAdjust="spacing" textLength="44.5635" x="137.7476" y="152.8857">GDA 1</text><ellipse cx="163.0293" cy="88.3906" fill="#E2E2F0" rx="8" ry="8" style="stroke:#181818;stroke-width:0.5;"/><path d="M163.0293,96.3906 L163.0293,123.3906 M150.0293,104.3906 L176.0293,104.3906 M163.0293,123.3906 L150.0293,138.3906 M163.0293,123.3906 L176.0293,138.3906" fill="none" style="stroke:#181818;stroke-width:0.5;"/></g><g class="participant participant-tail" data-entity-uid="part1" data-qualified-name="GDA_1" data-source-line="42" id="part1-tail"><text fill="#000000" font-family="'Arial'" font-size="14" lengthAdjust="spacing" textLength="44.5635" x="137.7476" y="653.5889">GDA 1</text><ellipse cx="163.0293" cy="665.3906" fill="#E2E2F0" rx="8" ry="8" style="stroke:#181818;stroke-width:0.5;"/><path d="M163.0293,673.3906 L163.0293,700.3906 M150.0293,681.3906 L176.0293,681.3906 M163.0293,700.3906 L150.0293,715.3906 M163.0293,700.3906 L176.0293,715.3906" fill="none" style="stroke:#181818;stroke-width:0.5;"/></g><g class="participant participant-head" data-entity-uid="part2" data-qualified-name="eMed_FA" data-source-line="46" id="part2-head"><rect fill="#FFFFFF" height="30.2969" rx="5" ry="5" style="stroke:#555555;stroke-width:0.5;" width="79.3242" x="587.8174" y="124.8906"/><text fill="#000000" font-family="'Arial'" font-size="14" lengthAdjust="spacing" textLength="65.3242" x="594.8174" y="144.8857">e-Med FA</text></g><g class="participant participant-tail" data-entity-uid="part2" data-qualified-name="eMed_FA" data-source-line="46" id="part2-tail"><rect fill="#FFFFFF" height="30.2969" rx="5" ry="5" style="stroke:#555555;stroke-width:0.5;" width="79.3242" x="587.8174" y="640.5938"/><text fill="#000000" font-family="'Arial'" font-size="14" lengthAdjust="spacing" textLength="65.3242" x="594.8174" y="660.5889">e-Med FA</text></g><g class="participant participant-head" data-entity-uid="part3" data-qualified-name="GDA_2" data-source-line="50" id="part3-head"><text fill="#000000" font-family="'Arial'" font-size="14" lengthAdjust="spacing" textLength="44.5635" x="1016.0034" y="152.8857">GDA 2</text><ellipse cx="1041.2852" cy="88.3906" fill="#E2E2F0" rx="8" ry="8" style="stroke:#181818;stroke-width:0.5;"/><path d="M1041.2852,96.3906 L1041.2852,123.3906 M1028.2852,104.3906 L1054.2852,104.3906 M1041.2852,123.3906 L1028.2852,138.3906 M1041.2852,123.3906 L1054.2852,138.3906" fill="none" style="stroke:#181818;stroke-width:0.5;"/></g><g class="participant participant-tail" data-entity-uid="part3" data-qualified-name="GDA_2" data-source-line="50" id="part3-tail"><text fill="#000000" font-family="'Arial'" font-size="14" lengthAdjust="spacing" textLength="44.5635" x="1016.0034" y="653.5889">GDA 2</text><ellipse cx="1041.2852" cy="665.3906" fill="#E2E2F0" rx="8" ry="8" style="stroke:#181818;stroke-width:0.5;"/><path d="M1041.2852,673.3906 L1041.2852,700.3906 M1028.2852,681.3906 L1054.2852,681.3906 M1041.2852,700.3906 L1028.2852,715.3906 M1041.2852,700.3906 L1054.2852,715.3906" fill="none" style="stroke:#181818;stroke-width:0.5;"/></g><g class="participant participant-head" data-entity-uid="part4" data-qualified-name="Patient" data-source-line="54" id="part4-head"><text fill="#000000" font-family="'Arial'" font-size="14" lengthAdjust="spacing" textLength="49.376" x="1136.4883" y="152.8857">Patient</text><ellipse cx="1164.1763" cy="88.3906" fill="#E2E2F0" rx="8" ry="8" style="stroke:#181818;stroke-width:0.5;"/><path d="M1164.1763,96.3906 L1164.1763,123.3906 M1151.1763,104.3906 L1177.1763,104.3906 M1164.1763,123.3906 L1151.1763,138.3906 M1164.1763,123.3906 L1177.1763,138.3906" fill="none" style="stroke:#181818;stroke-width:0.5;"/></g><g class="participant participant-tail" data-entity-uid="part4" data-qualified-name="Patient" data-source-line="54" id="part4-tail"><text fill="#000000" font-family="'Arial'" font-size="14" lengthAdjust="spacing" textLength="49.376" x="1136.4883" y="653.5889">Patient</text><ellipse cx="1164.1763" cy="665.3906" fill="#E2E2F0" rx="8" ry="8" style="stroke:#181818;stroke-width:0.5;"/><path d="M1164.1763,673.3906 L1164.1763,700.3906 M1151.1763,681.3906 L1177.1763,681.3906 M1164.1763,700.3906 L1151.1763,715.3906 M1164.1763,700.3906 L1177.1763,715.3906" fill="none" style="stroke:#181818;stroke-width:0.5;"/></g><g><title>GDA 1</title><rect fill="#FFFFFF" height="450.4063" style="stroke:#181818;stroke-width:1;" width="10" x="158.0293" y="166.1875"/></g><g><title>e-Med FA</title><rect fill="#FFFFFF" height="314.25" style="stroke:#181818;stroke-width:1;" width="10" x="622.4795" y="302.3438"/></g><path d="M5,176.1875 L5,208.1875 A5,5 0 0 0 10,213.1875 L314,213.1875 A5,5 0 0 0 319,208.1875 L319,181.1875 L309,171.1875 L10,171.1875 A5,5 0 0 0 5,176.1875" fill="url(#g3j3y6o9hntjm0)" filter="url(#f3j3y6o9hntjm)" style="stroke:#8B95A5;stroke-width:1;"/><path d="M309,171.1875 L309,178.6875 A2.5,2.5 0 0 0 311.5,181.1875 L319,181.1875 L309,171.1875" fill="url(#g3j3y6o9hntjm0)" style="stroke:#8B95A5;stroke-width:1;"/><text fill="#111827" font-family="'Arial'" font-size="14" lengthAdjust="spacing" textLength="293.4395" x="11" y="189.1826">Vorbedingung: Nach einem Read-to-Write</text><text fill="#111827" font-family="'Arial'" font-size="14" lengthAdjust="spacing" textLength="257.8447" x="11" y="205.4795">wurde der Medikationsplan bearbeit.</text><rect fill="#EEEEEE" height="3" rx="5" ry="5" style="stroke:#EEEEEE;stroke-width:1;" width="1224.1641" x="0" y="242.9297"/><line style="stroke:#000000;stroke-width:1;" x1="0" x2="1224.1641" y1="242.9297" y2="242.9297"/><line style="stroke:#000000;stroke-width:1;" x1="0" x2="1224.1641" y1="245.9297" y2="245.9297"/><rect fill="#EEEEEE" height="24.2969" rx="5" ry="5" style="stroke:#000000;stroke-width:2;" width="231.6768" x="496.2437" y="231.7813"/><text fill="#000000" font-family="'Arial'" font-size="14" font-weight="700" lengthAdjust="spacing" textLength="212.8027" x="502.2437" y="248.7764">Medikationsplan schreiben</text><g class="message" data-entity-1="part1" data-entity-2="part2" data-source-line="69" id="msg1"><line style="stroke:#111827;stroke-width:1;" x1="620.4795" x2="610.4795" y1="302.3438" y2="298.3438"/><line style="stroke:#111827;stroke-width:1;" x1="620.4795" x2="610.4795" y1="302.3438" y2="306.3438"/><line style="stroke:#111827;stroke-width:1;" x1="168.0293" x2="621.4795" y1="302.3438" y2="302.3438"/><text fill="#000000" font-family="'Arial'" font-size="13" font-weight="700" lengthAdjust="spacing" textLength="9.0454" x="175.0293" y="289.7114">1</text><text fill="#000000" font-family="'Arial'" font-size="13" lengthAdjust="spacing" textLength="329.856" x="188.0747" y="282.145">POST $write AtElgaEmedBundleMedikationsplanTx</text><text fill="#000000" font-family="'Arial'" font-size="13" lengthAdjust="spacing" textLength="240.1699" x="188.0747" y="297.2778">(Transaction Bundle + List.identifier)</text></g><g class="message" data-entity-1="part2" data-entity-2="part2" data-source-line="72" id="msg2"><line style="stroke:#111827;stroke-width:1;" x1="632.4795" x2="674.4795" y1="346.6094" y2="346.6094"/><line style="stroke:#111827;stroke-width:1;" x1="674.4795" x2="674.4795" y1="346.6094" y2="359.6094"/><line style="stroke:#111827;stroke-width:1;" x1="633.4795" x2="674.4795" y1="359.6094" y2="359.6094"/><polygon fill="#111827" points="643.4795,355.6094,633.4795,359.6094,643.4795,363.6094,639.4795,359.6094" style="stroke:#111827;stroke-width:1;"/><text fill="#000000" font-family="'Arial'" font-size="13" font-weight="700" lengthAdjust="spacing" textLength="9.0454" x="639.4795" y="333.9771">2</text><text fill="#000000" font-family="'Arial'" font-size="13" lengthAdjust="spacing" textLength="257.1943" x="652.5249" y="326.4106">List.identifier im TransactionBundle ==</text><text fill="#000000" font-family="'Arial'" font-size="13" lengthAdjust="spacing" textLength="170.1934" x="652.5249" y="341.5435">tempor&#228;rer List.identifier?</text></g><path d="M132.7476,374.6094 L193.686,374.6094 L193.686,382.9063 L183.686,392.9063 L127.7476,392.9063 L127.7476,379.6094 A5,5 0 0 1 132.7476,374.6094" fill="#EEF2FF" style="stroke:#111827;stroke-width:1.5;"/><rect fill="none" height="249.9844" rx="5" ry="5" style="stroke:#111827;stroke-width:2;" width="816.1147" x="127.7476" y="374.6094"/><text fill="#000000" font-family="'Arial'" font-size="14" font-weight="700" lengthAdjust="spacing" textLength="20.9385" x="142.7476" y="388.6045">alt</text><text fill="#000000" font-family="'Arial'" font-size="14" font-weight="700" lengthAdjust="spacing" textLength="59.0967" x="208.686" y="389.6045">[g&#252;ltig]</text><g class="message" data-entity-1="part2" data-entity-2="part2" data-source-line="75" id="msg3"><line style="stroke:#111827;stroke-width:1;" x1="632.4795" x2="674.4795" y1="430.4688" y2="430.4688"/><line style="stroke:#111827;stroke-width:1;" x1="674.4795" x2="674.4795" y1="430.4688" y2="443.4688"/><line style="stroke:#111827;stroke-width:1;" x1="633.4795" x2="674.4795" y1="443.4688" y2="443.4688"/><polygon fill="#111827" points="643.4795,439.4688,633.4795,443.4688,643.4795,447.4688,639.4795,443.4688" style="stroke:#111827;stroke-width:1;"/><text fill="#000000" font-family="'Arial'" font-size="13" font-weight="700" lengthAdjust="spacing" textLength="9.0454" x="639.4795" y="417.8364">3</text><text fill="#000000" font-family="'Arial'" font-size="13" lengthAdjust="spacing" textLength="184.5835" x="652.5249" y="410.27">Validierung des neuen Plans</text><text fill="#000000" font-family="'Arial'" font-size="13" lengthAdjust="spacing" textLength="269.3374" x="652.5249" y="425.4028">(keine unzul&#228;ssigen Zustands&#252;berg&#228;nge)</text></g><g class="message" data-entity-1="part2" data-entity-2="part2" data-source-line="76" id="msg4"><line style="stroke:#111827;stroke-width:1;" x1="632.4795" x2="674.4795" y1="487.7344" y2="487.7344"/><line style="stroke:#111827;stroke-width:1;" x1="674.4795" x2="674.4795" y1="487.7344" y2="500.7344"/><line style="stroke:#111827;stroke-width:1;" x1="633.4795" x2="674.4795" y1="500.7344" y2="500.7344"/><polygon fill="#111827" points="643.4795,496.7344,633.4795,500.7344,643.4795,504.7344,639.4795,500.7344" style="stroke:#111827;stroke-width:1;"/><text fill="#000000" font-family="'Arial'" font-size="13" font-weight="700" lengthAdjust="spacing" textLength="9.0454" x="639.4795" y="475.1021">4</text><text fill="#000000" font-family="'Arial'" font-size="13" lengthAdjust="spacing" textLength="182.1968" x="652.5249" y="467.5356">Persistiert neue Version des</text><text fill="#000000" font-family="'Arial'" font-size="13" lengthAdjust="spacing" textLength="113.0898" x="652.5249" y="482.6685">Medikationsplans</text></g><path d="M491,518.7344 L491,534.7344 A5,5 0 0 0 496,539.7344 L755,539.7344 A5,5 0 0 0 760,534.7344 L760,523.7344 L750,513.7344 L496,513.7344 A5,5 0 0 0 491,518.7344" fill="url(#g3j3y6o9hntjm0)" filter="url(#f3j3y6o9hntjm)" style="stroke:#8B95A5;stroke-width:1;"/><path d="M750,513.7344 L750,521.2344 A2.5,2.5 0 0 0 752.5,523.7344 L760,523.7344 L750,513.7344" fill="url(#g3j3y6o9hntjm0)" style="stroke:#8B95A5;stroke-width:1;"/><text fill="#111827" font-family="'Arial'" font-size="14" lengthAdjust="spacing" textLength="248.3359" x="497" y="531.7295">Neuer Medikationsplan gespeichert</text><g class="message" data-entity-1="part2" data-entity-2="part1" data-source-line="82" id="msg5"><line style="stroke:#111827;stroke-width:1;" x1="169.0293" x2="179.0293" y1="569.1641" y2="565.1641"/><line style="stroke:#111827;stroke-width:1;" x1="169.0293" x2="179.0293" y1="569.1641" y2="573.1641"/><line style="stroke:#111827;stroke-width:1;stroke-dasharray:2,2;" x1="168.0293" x2="621.4795" y1="569.1641" y2="569.1641"/><text fill="#000000" font-family="'Arial'" font-size="13" font-weight="700" lengthAdjust="spacing" textLength="9.0454" x="185.0293" y="564.0981">5</text><text fill="#000000" font-family="'Arial'" font-size="13" lengthAdjust="spacing" textLength="18.7573" x="198.0747" y="564.0981">OK</text></g><line style="stroke:#111827;stroke-width:1;stroke-dasharray:2,2;" x1="127.7476" x2="943.8623" y1="578.1641" y2="578.1641"/><text fill="#000000" font-family="'Arial'" font-size="14" font-weight="700" lengthAdjust="spacing" textLength="79.0303" x="132.7476" y="591.1592">[ung&#252;ltig]</text><g class="message" data-entity-1="part2" data-entity-2="part1" data-source-line="86" id="msg6"><line style="stroke:#111827;stroke-width:1;" x1="164.0293" x2="174.0293" y1="616.5938" y2="612.5938"/><line style="stroke:#111827;stroke-width:1;" x1="164.0293" x2="174.0293" y1="616.5938" y2="620.5938"/><line style="stroke:#111827;stroke-width:1;stroke-dasharray:2,2;" x1="163.0293" x2="626.4795" y1="616.5938" y2="616.5938"/><text fill="#000000" font-family="'Arial'" font-size="13" font-weight="700" lengthAdjust="spacing" textLength="9.0454" x="180.0293" y="611.5278">6</text><text fill="#000000" font-family="'Arial'" font-size="13" lengthAdjust="spacing" textLength="40.6694" x="193.0747" y="611.5278">Fehler</text></g><?plantuml-src TLJ1JXin4BtxAqQXXw8g5Hj82KYX2XHQgIsD2gLIXOIywzcDbOsTsbv2gVetV4Pl-R6EdMJn9gdXi9bvysRU6-ywwKg4xqOwRF-e2YFpdDcnL5Dk-0HIRGIQCrrg0pjxuSHPdeqBeoibbeYyw_yYX1rneMTI5P3pqcAKMPOPXGQIc5HWpglINMZbBla4eJKmafUjxOWh-OYG76nFDiUEC4exXDyCu7HT0EvXDzzhxuX47E4RZuWDwAL7NTwjezSZcOqLMWi9nRv6WdhqUyY5yC8zIpHDaYIzpY75hcfhdAcG_Oa7_F1hYgQKQXn9E3_V1lYcH7Z0fS6nz_YpGfKjb0wvSJAJKwvSGr8td3N0nbh3QO8s3Tv8hvRJIAniwVY2WJ5wjcvC23Qz3Q5j7Ul4ejS-XTxJvDE6nffvaThOEUQTe2wgV6xVQMxcL3z42XhnRRwoL3z0wrOH-Ri1900js3dAwRtnhl3C4PGITmbm2wq0QJ5KWjwxXwWs76n_HW4NF1jnDIDCHICi3d6U7VGE3_sjcpux3KW5TnU3mBsi7codzvqxWIX5ZYasXklKmtMsL0-vaqZDGZ7FzdjfNRnA-VBbSqJ0UEMqgYOf6dhEdBpdz5O6DnWBRwY-nwKzx4QR5BthfFeOBia4GBhq4_YANBITReSF69jLj0Bw11WWjN9CFRMoqv8h85t48DthC82dPwpVtu3PR6HGfgYWtsTiiPhsoSdAocCOVhcwXXSptmq6xhmi-Fa4nIdTfXBNoAuVRjNBQyELzUgqWWKANi4dQTrhASWFcKiqkv7-PIEssbqxwhrM1d824VsIlT-_LGudKstcJuP0QqLlgLVfe9Z_BPqiW7QrhTCDBwKWjBzZ0Yqef2y934cK9KrZRprKwh4gvq_Moe9oFohhk19s_fVsMSoVL86x_o4Veh4q5D6xG0mtFa3-KATRjMQY9HBwVxuFAuC0BgbsSz45sYdAR4Jild-zx6WMlz2mscFuyf4nfEycgQaj-G_q0aSbzVDfWMltjH6gLwZ4Fm00?></g></svg>