<?xml version="1.0" encoding="us-ascii" standalone="no"?><svg xmlns="http://www.w3.org/2000/svg" xmlns:xlink="http://www.w3.org/1999/xlink" contentStyleType="text/css" height="759px" preserveAspectRatio="none" style="width:607px;height:759px;background:#FFFFFF;" version="1.1" viewBox="0 0 607 759" width="607px" zoomAndPan="magnify"><defs/><g><text fill="#000000" font-family="Arial" font-size="14" font-weight="bold" lengthAdjust="spacing" textLength="255" x="169" y="23.1318">REST-Schnittstellen: https://[server]/</text><!--cluster Server--><g id="cluster_Server"><rect fill="#E97232" fill-opacity="0.74118" height="290" rx="2" ry="2" style="stroke:#181818;stroke-width:1.0;" width="198" x="403" y="198.5986"/><rect fill="#E97232" fill-opacity="0.74118" height="10" style="stroke:#181818;stroke-width:1.0;" width="15" x="581" y="203.5986"/><rect fill="#E97232" fill-opacity="0.74118" height="2" style="stroke:#181818;stroke-width:1.0;" width="4" x="579" y="205.5986"/><rect fill="#E97232" fill-opacity="0.74118" height="2" style="stroke:#181818;stroke-width:1.0;" width="4" x="579" y="209.5986"/><text fill="#000000" font-family="Arial" font-size="12" font-weight="bold" lengthAdjust="spacing" textLength="30" x="487" y="222.8545">ELGA</text><text fill="#000000" font-family="Arial" font-size="12" font-weight="bold" lengthAdjust="spacing" textLength="73" x="465.5" y="236.6533">e-Medikation</text></g><text fill="#000000" font-family="Arial" font-size="12" lengthAdjust="spacing" textLength="78" x="367" y="505.8545">Durchgef&#252;hrte</text><text fill="#000000" font-family="Arial" font-size="12" lengthAdjust="spacing" textLength="49" x="381.5" y="519.6533">Abgaben</text><rect fill="#F1F1F1" height="12" style="stroke:#181818;stroke-width:1.5;" width="12" x="400" y="482.5986"/><text fill="#000000" font-family="Arial" font-size="12" lengthAdjust="spacing" textLength="50" x="378" y="434.8545">Geplante</text><text fill="#000000" font-family="Arial" font-size="12" lengthAdjust="spacing" textLength="49" x="378.5" y="448.6533">Abgaben</text><rect fill="#F1F1F1" height="12" style="stroke:#181818;stroke-width:1.5;" width="12" x="397" y="411.5986"/><text fill="#000000" font-family="Arial" font-size="12" lengthAdjust="spacing" textLength="29" x="388.5" y="312.2568">Plan-</text><text fill="#000000" font-family="Arial" font-size="12" lengthAdjust="spacing" textLength="45" x="380.5" y="326.0557">eintr&#228;ge</text><rect fill="#F1F1F1" height="12" style="stroke:#181818;stroke-width:1.5;" width="12" x="397" y="340.5986"/><text fill="#000000" font-family="Arial" font-size="12" lengthAdjust="spacing" textLength="90" x="362.5" y="255.0557">Medikationsplan</text><rect fill="#F1F1F1" height="12" style="stroke:#181818;stroke-width:1.5;" width="12" x="401.5" y="269.5986"/><text fill="#000000" font-family="Arial" font-size="12" lengthAdjust="spacing" textLength="30" x="388" y="196.0557">eMed</text><rect fill="#F1F1F1" height="12" style="stroke:#181818;stroke-width:1.5;" width="12" x="397" y="210.5986"/><!--class IDurchgAbgabe--><g id="elem_IDurchgAbgabe"><rect codeLine="46" fill="#F1F1F1" height="114.9941" id="IDurchgAbgabe" rx="2" ry="2" style="stroke:#181818;stroke-width:0.5;" width="204" x="56.5" y="548.0986"/><ellipse cx="70.5" cy="563.0986" fill="#B4A7E5" rx="10" ry="10" style="stroke:#181818;stroke-width:1.0;"/><path d="M71.7031,561.1924 L71.7031,565.8955 L72.9219,565.8955 Q73.3438,565.8955 73.5313,566.0674 Q73.7188,566.2236 73.7188,566.5049 Q73.7188,566.7705 73.5313,566.9424 Q73.3438,567.0986 72.9219,567.0986 L69.2813,567.0986 Q68.8594,567.0986 68.6719,566.9424 Q68.4844,566.7705 68.4844,566.4893 Q68.4844,566.2236 68.6719,566.0674 Q68.8594,565.8955 69.2813,565.8955 L70.5,565.8955 L70.5,561.1924 L69.2813,561.1924 Q68.8594,561.1924 68.6719,561.0361 Q68.4844,560.8643 68.4844,560.5986 Q68.4844,560.3174 68.6719,560.1611 Q68.8594,559.9893 69.2813,559.9893 L72.9219,559.9893 Q73.3438,559.9893 73.5313,560.1611 Q73.7188,560.3174 73.7188,560.5986 Q73.7188,560.8643 73.5313,561.0361 Q73.3438,561.1924 72.9219,561.1924 L71.7031,561.1924 Z " fill="#000000"/><text fill="#000000" font-family="Arial" font-size="12" font-style="italic" lengthAdjust="spacing" textLength="174" x="83.5" y="567.4551">Patient/[id]/MedicationDispense/</text><line style="stroke:#181818;stroke-width:0.5;" x1="57.5" x2="259.5" y1="578.0986" y2="578.0986"/><text fill="#000000" font-family="Arial" font-size="12" lengthAdjust="spacing" textLength="172" x="62.5" y="593.3545">&#171;POST&#187; $dispense-write [GDA]</text><text fill="#000000" font-family="Arial" font-size="12" lengthAdjust="spacing" textLength="187" x="62.5" y="607.1533">&#171;POST&#187; $dispense-discard [GDA]</text><text fill="#000000" font-family="Arial" font-size="12" lengthAdjust="spacing" textLength="170" x="62.5" y="620.9521">&#171;POST&#187; $reference-plan [GDA]</text><line style="stroke:#181818;stroke-width:0.5;" x1="57.5" x2="259.5" y1="627.4951" y2="627.4951"/><text fill="#000000" font-family="Arial" font-size="12" lengthAdjust="spacing" textLength="192" x="62.5" y="642.751">&#171;GET&#187; (dispense-read) [GDA, PAT]</text><text fill="#000000" font-family="Arial" font-size="12" lengthAdjust="spacing" textLength="137" x="62.5" y="656.5498">&#171;DELETE&#187; (delete) [PAT]</text></g><!--class IGeplAbgabe--><g id="elem_IGeplAbgabe"><rect codeLine="54" fill="#F1F1F1" height="101.1953" id="IGeplAbgabe" rx="2" ry="2" style="stroke:#181818;stroke-width:0.5;" width="272" x="22.5" y="412.0986"/><ellipse cx="36.5" cy="427.0986" fill="#B4A7E5" rx="10" ry="10" style="stroke:#181818;stroke-width:1.0;"/><path d="M37.7031,425.1924 L37.7031,429.8955 L38.9219,429.8955 Q39.3438,429.8955 39.5313,430.0674 Q39.7188,430.2236 39.7188,430.5049 Q39.7188,430.7705 39.5313,430.9424 Q39.3438,431.0986 38.9219,431.0986 L35.2813,431.0986 Q34.8594,431.0986 34.6719,430.9424 Q34.4844,430.7705 34.4844,430.4893 Q34.4844,430.2236 34.6719,430.0674 Q34.8594,429.8955 35.2813,429.8955 L36.5,429.8955 L36.5,425.1924 L35.2813,425.1924 Q34.8594,425.1924 34.6719,425.0361 Q34.4844,424.8643 34.4844,424.5986 Q34.4844,424.3174 34.6719,424.1611 Q34.8594,423.9893 35.2813,423.9893 L38.9219,423.9893 Q39.3438,423.9893 39.5313,424.1611 Q39.7188,424.3174 39.7188,424.5986 Q39.7188,424.8643 39.5313,425.0361 Q39.3438,425.1924 38.9219,425.1924 L37.7031,425.1924 Z " fill="#000000"/><text fill="#000000" font-family="Arial" font-size="12" font-style="italic" lengthAdjust="spacing" textLength="242" x="49.5" y="431.4551">GeplAbgabe/Patient/[id]/MedicationRequest/</text><line style="stroke:#181818;stroke-width:0.5;" x1="23.5" x2="293.5" y1="442.0986" y2="442.0986"/><text fill="#000000" font-family="Arial" font-size="12" lengthAdjust="spacing" textLength="185" x="28.5" y="457.3545">&#171;POST&#187; $prescription-write [GDA]</text><text fill="#000000" font-family="Arial" font-size="12" lengthAdjust="spacing" textLength="200" x="28.5" y="471.1533">&#171;POST&#187; $prescription-discard [GDA]</text><line style="stroke:#181818;stroke-width:0.5;" x1="23.5" x2="293.5" y1="477.6963" y2="477.6963"/><text fill="#000000" font-family="Arial" font-size="12" lengthAdjust="spacing" textLength="205" x="28.5" y="492.9521">&#171;GET&#187; (prescription-read) [GDA, PAT]</text><text fill="#000000" font-family="Arial" font-size="12" lengthAdjust="spacing" textLength="137" x="28.5" y="506.751">&#171;DELETE&#187; (delete) [PAT]</text></g><!--class IPlaneintrag--><g id="elem_IPlaneintrag"><rect codeLine="61" fill="#F1F1F1" height="59.7988" id="IPlaneintrag" rx="2" ry="2" style="stroke:#181818;stroke-width:0.5;" width="264" x="26.5" y="316.5986"/><ellipse cx="40.5" cy="331.5986" fill="#B4A7E5" rx="10" ry="10" style="stroke:#181818;stroke-width:1.0;"/><path d="M41.7031,329.6924 L41.7031,334.3955 L42.9219,334.3955 Q43.3438,334.3955 43.5313,334.5674 Q43.7188,334.7236 43.7188,335.0049 Q43.7188,335.2705 43.5313,335.4424 Q43.3438,335.5986 42.9219,335.5986 L39.2813,335.5986 Q38.8594,335.5986 38.6719,335.4424 Q38.4844,335.2705 38.4844,334.9893 Q38.4844,334.7236 38.6719,334.5674 Q38.8594,334.3955 39.2813,334.3955 L40.5,334.3955 L40.5,329.6924 L39.2813,329.6924 Q38.8594,329.6924 38.6719,329.5361 Q38.4844,329.3643 38.4844,329.0986 Q38.4844,328.8174 38.6719,328.6611 Q38.8594,328.4893 39.2813,328.4893 L42.9219,328.4893 Q43.3438,328.4893 43.5313,328.6611 Q43.7188,328.8174 43.7188,329.0986 Q43.7188,329.3643 43.5313,329.5361 Q43.3438,329.6924 42.9219,329.6924 L41.7031,329.6924 Z " fill="#000000"/><text fill="#000000" font-family="Arial" font-size="12" font-style="italic" lengthAdjust="spacing" textLength="234" x="53.5" y="335.9551">eMPEintrag/Patient/[id]/MedicationRequest/</text><line style="stroke:#181818;stroke-width:0.5;" x1="27.5" x2="289.5" y1="346.5986" y2="346.5986"/><line style="stroke:#181818;stroke-width:0.5;" x1="27.5" x2="289.5" y1="354.5986" y2="354.5986"/><text fill="#000000" font-family="Arial" font-size="12" lengthAdjust="spacing" textLength="194" x="32.5" y="369.8545">&#171;GET&#187; (plan-entry-read) [GDA, PAT]</text></g><!--class IBundle--><g id="elem_IBundle"><rect codeLine="65" fill="#F1F1F1" height="114.9941" id="IBundle" rx="2" ry="2" style="stroke:#181818;stroke-width:0.5;" width="216" x="50.5" y="166.0986"/><ellipse cx="103.5" cy="181.0986" fill="#B4A7E5" rx="10" ry="10" style="stroke:#181818;stroke-width:1.0;"/><path d="M104.7031,179.1924 L104.7031,183.8955 L105.9219,183.8955 Q106.3438,183.8955 106.5313,184.0674 Q106.7188,184.2236 106.7188,184.5049 Q106.7188,184.7705 106.5313,184.9424 Q106.3438,185.0986 105.9219,185.0986 L102.2813,185.0986 Q101.8594,185.0986 101.6719,184.9424 Q101.4844,184.7705 101.4844,184.4893 Q101.4844,184.2236 101.6719,184.0674 Q101.8594,183.8955 102.2813,183.8955 L103.5,183.8955 L103.5,179.1924 L102.2813,179.1924 Q101.8594,179.1924 101.6719,179.0361 Q101.4844,178.8643 101.4844,178.5986 Q101.4844,178.3174 101.6719,178.1611 Q101.8594,177.9893 102.2813,177.9893 L105.9219,177.9893 Q106.3438,177.9893 106.5313,178.1611 Q106.7188,178.3174 106.7188,178.5986 Q106.7188,178.8643 106.5313,179.0361 Q106.3438,179.1924 105.9219,179.1924 L104.7031,179.1924 Z " fill="#000000"/><text fill="#000000" font-family="Arial" font-size="12" font-style="italic" lengthAdjust="spacing" textLength="102" x="122.5" y="185.4551">Patient/[id]/Bundle/</text><line style="stroke:#181818;stroke-width:0.5;" x1="51.5" x2="265.5" y1="196.0986" y2="196.0986"/><text fill="#000000" font-family="Arial" font-size="12" lengthAdjust="spacing" textLength="171" x="56.5" y="211.3545">&#171;POST&#187; $plan-read [GDA, PAT]</text><text fill="#000000" font-family="Arial" font-size="12" lengthAdjust="spacing" textLength="144" x="56.5" y="225.1533">&#171;POST&#187; $plan-write [GDA]</text><text fill="#000000" font-family="Arial" font-size="12" lengthAdjust="spacing" textLength="182" x="56.5" y="238.9521">&#171;POST&#187; $patient-plan-write [PAT]</text><text fill="#000000" font-family="Arial" font-size="12" lengthAdjust="spacing" textLength="149" x="56.5" y="252.751">&#171;POST&#187; $plan-delete [PAT]</text><line style="stroke:#181818;stroke-width:0.5;" x1="51.5" x2="265.5" y1="259.2939" y2="259.2939"/><text fill="#000000" font-family="Arial" font-size="12" lengthAdjust="spacing" textLength="204" x="56.5" y="274.5498">&#171;GET&#187; (plan-history-read) [GDA, PAT]</text></g><!--class IEmed--><g id="elem_IEmed"><rect codeLine="73" fill="#F1F1F1" height="87.3965" id="IEmed" rx="2" ry="2" style="stroke:#181818;stroke-width:0.5;" width="303" x="7" y="44.0986"/><ellipse cx="153" cy="59.0986" fill="#B4A7E5" rx="10" ry="10" style="stroke:#181818;stroke-width:1.0;"/><path d="M154.2031,57.1924 L154.2031,61.8955 L155.4219,61.8955 Q155.8438,61.8955 156.0313,62.0674 Q156.2188,62.2236 156.2188,62.5049 Q156.2188,62.7705 156.0313,62.9424 Q155.8438,63.0986 155.4219,63.0986 L151.7813,63.0986 Q151.3594,63.0986 151.1719,62.9424 Q150.9844,62.7705 150.9844,62.4893 Q150.9844,62.2236 151.1719,62.0674 Q151.3594,61.8955 151.7813,61.8955 L153,61.8955 L153,57.1924 L151.7813,57.1924 Q151.3594,57.1924 151.1719,57.0361 Q150.9844,56.8643 150.9844,56.5986 Q150.9844,56.3174 151.1719,56.1611 Q151.3594,55.9893 151.7813,55.9893 L155.4219,55.9893 Q155.8438,55.9893 156.0313,56.1611 Q156.2188,56.3174 156.2188,56.5986 Q156.2188,56.8643 156.0313,57.0361 Q155.8438,57.1924 155.4219,57.1924 L154.2031,57.1924 Z " fill="#000000"/><text fill="#000000" font-family="Arial" font-size="12" font-style="italic" lengthAdjust="spacing" textLength="3" x="172" y="63.4551">/</text><line style="stroke:#181818;stroke-width:0.5;" x1="8" x2="309" y1="74.0986" y2="74.0986"/><text fill="#000000" font-family="Arial" font-size="12" lengthAdjust="spacing" textLength="207" x="13" y="89.3545">&#171;POST&#187; $groupidentifier-create [GDA]</text><text fill="#000000" font-family="Arial" font-size="12" lengthAdjust="spacing" textLength="280" x="13" y="103.1533">&#171;POST&#187; $groupidentifier-prescription-search [GDA]</text><text fill="#000000" font-family="Arial" font-size="12" lengthAdjust="spacing" textLength="291" x="13" y="116.9521">&#171;POST&#187; $groupidentifier-despensation-search [GDA]</text><line style="stroke:#181818;stroke-width:0.5;" x1="8" x2="309" y1="123.4951" y2="123.4951"/></g><!--link IDurchgAbgabe to p5--><g id="link_IDurchgAbgabe_p5"><path codeLine="91" d="M260.77,557.3386 C317.83,530.1386 381.28,499.8986 399.72,491.1186 " fill="none" id="IDurchgAbgabe-p5" style="stroke:#181818;stroke-width:1.0;"/></g><!--link IGeplAbgabe to p4--><g id="link_IGeplAbgabe_p4"><path codeLine="92" d="M294.58,437.5286 C339.82,429.1386 382.46,421.2286 396.86,418.5486 " fill="none" id="IGeplAbgabe-p4" style="stroke:#181818;stroke-width:1.0;"/></g><!--link IPlaneintrag to p3--><g id="link_IPlaneintrag_p3"><path codeLine="93" d="M290.69,346.5986 C337.11,346.5986 381.58,346.5986 396.62,346.5986 " fill="none" id="IPlaneintrag-p3" style="stroke:#181818;stroke-width:1.0;"/></g><!--link IBundle to p2--><g id="link_IBundle_p2"><path codeLine="94" d="M266.62,246.1086 C322.53,257.8486 383.06,270.5686 401.42,274.4286 " fill="none" id="IBundle-p2" style="stroke:#181818;stroke-width:1.0;"/></g><!--link IEmed to p1--><g id="link_IEmed_p1"><path codeLine="95" d="M275.53,131.1486 C287.37,136.6186 299.06,142.4686 310,148.5986 C345.69,168.5986 383.51,200.4386 396.93,212.1186 " fill="none" id="IEmed-p1" style="stroke:#181818;stroke-width:1.0;"/></g><rect fill="none" height="58.2959" id="_legend" rx="2" ry="2" style="stroke:#000000;stroke-width:1.0;" width="254" x="327" y="681.0928"/><text fill="#000000" font-family="Arial" font-size="14" font-weight="bold" lengthAdjust="spacing" textLength="184" x="332" y="699.2246">Legende Berechtigungen:</text><text fill="#000000" font-family="Arial" font-size="14" lengthAdjust="spacing" textLength="232" x="332" y="715.3232">[GDA] = Gesundheitsdiensteanbieter</text><text fill="#000000" font-family="Arial" font-size="14" lengthAdjust="spacing" textLength="244" x="332" y="731.4219">[PAT] = PATIENT: ELGA-Teilnehmer:in</text><!--SRC=[ZLRRRk9847qUVqLFib8kYd52mgmsqZmOS0WAO8GzaNOkGerTu5OQszlT99DTvM_cRJzXzsdcnxRQxH0xm6fuIUWwLNsgwdGLbFFiOSc-idHX7P2tB8tuAWQoboYLoql74VIXiM0gMSrM4aIKfGfIrOYofQDMEOt5kPDpcghLajiChVOS4RRC1LCWdVlpncdZrD46wHGM-W0oMuBTSdIuQPn5AXED7DttBBnVCSM1n8mk15qkyQ3VyKVJhjyvDCYJGV_MEwcudimuZUwEoFuaUwIypLUWmqW5AibabENmfkVVJeFG2w_zeEEFFRJEA3AEO2eZok7DbTkQjjs1E-fuqw3Z3ZHYpgcyAonN0pUumPE4fl4qoNYCTPek8MReMm2ktL5tUkqFklrHRphqkdqCeV50XPe1LGRakPEmxRaXMh1qIonXBKZ77mwzKLZnZpXBMLG73VgZVcUDiInvnzASOg5qp3nBCMgW7h5-MCrcnPfZXUW2Z4r0f6Ywu53rdsKY1j79U2R8VgluLAteln3PAerBn5NngI1aGkFi0Kj3vfHBg5XADv6281ULynZcTCNL5MfYH9UeDrSmYXhOYWZOdq3EcjkD9QVJucDPRz74KY0TV-1FfXvMQthb4h8Fl_tQF6_EOYqFNOc2x8z_1Vam7DWtp_M3b21V4aH9ofH26N6EHuStg0V9P9I0mGUAyQDjzIT_MOIqNzMhHWNj1-rgkK_FtxthljF7czcKXwPpCrIVzLHj6qF2OauZAAuzQE_eqyQDfwrEfwL3SPWheZ8Ys29H-EoqE5YMMfPvXnCl2ErwBIx9ys3uX8_m7iGNnx9UUEoDgM9O1-SJYxyumqAzEcANoHnI2SuUePBqkoiH9Gjtjg0pm_txtpql_FuFEOnBe2s0naVaKw_hdf2n6tufG6C_qAXVrgW7FMSAr0u0_XDH4M-129Y309m3jXvW5K3N6tYXLv013WgGHK7WgPPe3t9k4d1sv3o1FrOWLPdo2xwUS2v0HeBbskF_awuXToLU0sqclpCtKaiEXcCFlmgw-BdanbX1C0wliaE3ZUxYSJEtfzt2QQE6-RDOp9SjSHCcSGDiHYRrYcYeXkoigmRihAUXPLT1soEOWcxLIfc8XzEyJEFPKp_NdCLu0vip47Q4HBVoU0sizLdYiecId_2AeNWMTDFhISz5sxP9y3iko-6DFnpx8rn97ZdyY7yck1Sd9F0cjzxaIECiwsNcxNc3dliv1LlBuwu8NYGS50EYo3ZF1EBCimSSkubGy3arxy60yzOQffyA_gHu3RXO0xJSxCz6SJ- -BS3OpyaQy494wb36tboR0Utcx4mdRbbvYzYhtAuF9Yk_A4zVtgw5jvYpYkIjl5aU6gbQ-LdvNNVSqcDs0RXLYYcB98wF1yK1a3PEe2XHRB5AyU3o-1YjHJ_8Uz83YT4IO4h6A46SlpITCPIOqA12v- -rcFlOdakYMs27m7WAoHB49KijVQMv-RctxgHptG-zc_33n1xvOHyxQtfvGD9CwGsZLBOasRni7PvhjhZnIBDnIZhhZWSvHAWeCmgGjSPzrCySVr19KXM2j8D7fBuaTpINm1N9GU0cnKU52YZyS2bnitQ8APyaX_UDC-AG-qRpg5Z7eQ0esXgcWRuwGSrxpT-iCQJ_t0Z3Vm9IPjXOI77Heww-gikIivUgvCStPBKns4uAUpcKS6W8VRssWwXT_Hy0]--></g></svg>