<?xml version="1.0" encoding="us-ascii" standalone="no"?><svg xmlns="http://www.w3.org/2000/svg" xmlns:xlink="http://www.w3.org/1999/xlink" contentStyleType="text/css" height="677px" preserveAspectRatio="none" style="width:644px;height:677px;background:#FFFFFF;" version="1.1" viewBox="0 0 644 677" width="644px" zoomAndPan="magnify"><defs/><g><text fill="#000000" font-family="Arial" font-size="14" font-weight="bold" lengthAdjust="spacing" textLength="251" x="189.5" y="23.1318">REST-Schnittstellen: https://[server]</text><!--cluster Server--><g id="cluster_Server"><rect fill="#E97232" fill-opacity="0.74118" height="219" rx="2" ry="2" style="stroke:#181818;stroke-width:1.0;" width="222" x="416" y="189.5986"/><rect fill="#E97232" fill-opacity="0.74118" height="10" style="stroke:#181818;stroke-width:1.0;" width="15" x="618" y="194.5986"/><rect fill="#E97232" fill-opacity="0.74118" height="2" style="stroke:#181818;stroke-width:1.0;" width="4" x="616" y="196.5986"/><rect fill="#E97232" fill-opacity="0.74118" height="2" style="stroke:#181818;stroke-width:1.0;" width="4" x="616" y="200.5986"/><text fill="#000000" font-family="Arial" font-size="12" font-weight="bold" lengthAdjust="spacing" textLength="30" x="512" y="213.8545">ELGA</text><text fill="#000000" font-family="Arial" font-size="12" font-weight="bold" lengthAdjust="spacing" textLength="73" x="490.5" y="227.6533">e-Medikation</text></g><text fill="#000000" font-family="Arial" font-size="12" lengthAdjust="spacing" textLength="113" x="370" y="425.8545">MedicationDispense</text><text fill="#000000" font-family="Arial" font-size="12" lengthAdjust="spacing" textLength="138" x="357.5" y="439.6533">(Durchgef&#252;hrte Abgaben)</text><rect fill="#F1F1F1" height="12" style="stroke:#181818;stroke-width:1.5;" width="12" x="420.5" y="402.5986"/><text fill="#000000" font-family="Arial" font-size="12" lengthAdjust="spacing" textLength="106" x="369.5" y="354.8545">MedicationRequest</text><text fill="#000000" font-family="Arial" font-size="12" lengthAdjust="spacing" textLength="98" x="373.5" y="368.6533">(Planeintr&#228;ge und</text><text fill="#000000" font-family="Arial" font-size="12" lengthAdjust="spacing" textLength="106" x="369.5" y="382.4521">Geplante Abgaben)</text><rect fill="#F1F1F1" height="12" style="stroke:#181818;stroke-width:1.5;" width="12" x="416.5" y="331.5986"/><text fill="#000000" font-family="Arial" font-size="12" lengthAdjust="spacing" textLength="20" x="411.5" y="232.2568">List</text><text fill="#000000" font-family="Arial" font-size="12" lengthAdjust="spacing" textLength="98" x="372.5" y="246.0557">(Medikationsplan)</text><rect fill="#F1F1F1" height="12" style="stroke:#181818;stroke-width:1.5;" width="12" x="415.5" y="260.5986"/><text fill="#000000" font-family="Arial" font-size="12" lengthAdjust="spacing" textLength="30" x="401" y="187.0557">eMed</text><rect fill="#F1F1F1" height="12" style="stroke:#181818;stroke-width:1.5;" width="12" x="410" y="201.5986"/><!--class IDurchgAbgabe--><g id="elem_IDurchgAbgabe"><rect codeLine="46" fill="#F1F1F1" height="114.9941" id="IDurchgAbgabe" rx="2" ry="2" style="stroke:#181818;stroke-width:0.5;" width="207" x="49.5" y="466.0986"/><ellipse cx="63.5" cy="481.0986" fill="#B4A7E5" rx="10" ry="10" style="stroke:#181818;stroke-width:1.0;"/><path d="M64.7031,479.1924 L64.7031,483.8955 L65.9219,483.8955 Q66.3438,483.8955 66.5313,484.0674 Q66.7188,484.2236 66.7188,484.5049 Q66.7188,484.7705 66.5313,484.9424 Q66.3438,485.0986 65.9219,485.0986 L62.2813,485.0986 Q61.8594,485.0986 61.6719,484.9424 Q61.4844,484.7705 61.4844,484.4893 Q61.4844,484.2236 61.6719,484.0674 Q61.8594,483.8955 62.2813,483.8955 L63.5,483.8955 L63.5,479.1924 L62.2813,479.1924 Q61.8594,479.1924 61.6719,479.0361 Q61.4844,478.8643 61.4844,478.5986 Q61.4844,478.3174 61.6719,478.1611 Q61.8594,477.9893 62.2813,477.9893 L65.9219,477.9893 Q66.3438,477.9893 66.5313,478.1611 Q66.7188,478.3174 66.7188,478.5986 Q66.7188,478.8643 66.5313,479.0361 Q66.3438,479.1924 65.9219,479.1924 L64.7031,479.1924 Z " fill="#000000"/><text fill="#000000" font-family="Arial" font-size="12" font-style="italic" lengthAdjust="spacing" textLength="177" x="76.5" y="485.4551">/Patient/[id]/MedicationDispense/</text><line style="stroke:#181818;stroke-width:0.5;" x1="50.5" x2="255.5" y1="496.0986" y2="496.0986"/><text fill="#000000" font-family="Arial" font-size="12" lengthAdjust="spacing" textLength="172" x="55.5" y="511.3545">&#171;POST&#187; $dispense-write [GDA]</text><text fill="#000000" font-family="Arial" font-size="12" lengthAdjust="spacing" textLength="187" x="55.5" y="525.1533">&#171;POST&#187; $dispense-discard [GDA]</text><text fill="#000000" font-family="Arial" font-size="12" lengthAdjust="spacing" textLength="170" x="55.5" y="538.9521">&#171;POST&#187; $reference-plan [GDA]</text><line style="stroke:#181818;stroke-width:0.5;" x1="50.5" x2="255.5" y1="545.4951" y2="545.4951"/><text fill="#000000" font-family="Arial" font-size="12" lengthAdjust="spacing" textLength="192" x="55.5" y="560.751">&#171;GET&#187; (dispense-read) [GDA, PAT]</text><text fill="#000000" font-family="Arial" font-size="12" lengthAdjust="spacing" textLength="137" x="55.5" y="574.5498">&#171;DELETE&#187; (delete) [PAT]</text></g><!--class IMedicationRequest--><g id="elem_IMedicationRequest"><rect codeLine="54" fill="#F1F1F1" height="114.9941" id="IMedicationRequest" rx="2" ry="2" style="stroke:#181818;stroke-width:0.5;" width="243" x="31.5" y="316.0986"/><ellipse cx="64.4" cy="331.0986" fill="#B4A7E5" rx="10" ry="10" style="stroke:#181818;stroke-width:1.0;"/><path d="M65.6031,329.1924 L65.6031,333.8955 L66.8219,333.8955 Q67.2438,333.8955 67.4313,334.0674 Q67.6188,334.2236 67.6188,334.5049 Q67.6188,334.7705 67.4313,334.9424 Q67.2438,335.0986 66.8219,335.0986 L63.1813,335.0986 Q62.7594,335.0986 62.5719,334.9424 Q62.3844,334.7705 62.3844,334.4893 Q62.3844,334.2236 62.5719,334.0674 Q62.7594,333.8955 63.1813,333.8955 L64.4,333.8955 L64.4,329.1924 L63.1813,329.1924 Q62.7594,329.1924 62.5719,329.0361 Q62.3844,328.8643 62.3844,328.5986 Q62.3844,328.3174 62.5719,328.1611 Q62.7594,327.9893 63.1813,327.9893 L66.8219,327.9893 Q67.2438,327.9893 67.4313,328.1611 Q67.6188,328.3174 67.6188,328.5986 Q67.6188,328.8643 67.4313,329.0361 Q67.2438,329.1924 66.8219,329.1924 L65.6031,329.1924 Z " fill="#000000"/><text fill="#000000" font-family="Arial" font-size="12" font-style="italic" lengthAdjust="spacing" textLength="171" x="81.6" y="335.4551">/Patient/[id]/MedicationRequest/</text><line style="stroke:#181818;stroke-width:0.5;" x1="32.5" x2="273.5" y1="346.0986" y2="346.0986"/><text fill="#000000" font-family="Arial" font-size="12" lengthAdjust="spacing" textLength="185" x="37.5" y="361.3545">&#171;POST&#187; $prescription-write [GDA]</text><text fill="#000000" font-family="Arial" font-size="12" lengthAdjust="spacing" textLength="200" x="37.5" y="375.1533">&#171;POST&#187; $prescription-discard [GDA]</text><text fill="#000000" font-family="Arial" font-size="12" lengthAdjust="spacing" textLength="231" x="37.5" y="388.9521">&#171;GET&#187; ?category=GeplAbgabe [GDA, PAT]</text><text fill="#000000" font-family="Arial" font-size="12" lengthAdjust="spacing" textLength="226" x="37.5" y="402.751">&#171;GET&#187; ?category=Planeintrag [GDA, PAT]</text><line style="stroke:#181818;stroke-width:0.5;" x1="32.5" x2="273.5" y1="409.2939" y2="409.2939"/><text fill="#000000" font-family="Arial" font-size="12" lengthAdjust="spacing" textLength="137" x="37.5" y="424.5498">&#171;DELETE&#187; (delete) [PAT]</text></g><!--class IList--><g id="elem_IList"><rect codeLine="62" fill="#F1F1F1" height="101.1953" id="IList" rx="2" ry="2" style="stroke:#181818;stroke-width:0.5;" width="194" x="56" y="180.0986"/><ellipse cx="108" cy="195.0986" fill="#B4A7E5" rx="10" ry="10" style="stroke:#181818;stroke-width:1.0;"/><path d="M109.2031,193.1924 L109.2031,197.8955 L110.4219,197.8955 Q110.8438,197.8955 111.0313,198.0674 Q111.2188,198.2236 111.2188,198.5049 Q111.2188,198.7705 111.0313,198.9424 Q110.8438,199.0986 110.4219,199.0986 L106.7813,199.0986 Q106.3594,199.0986 106.1719,198.9424 Q105.9844,198.7705 105.9844,198.4893 Q105.9844,198.2236 106.1719,198.0674 Q106.3594,197.8955 106.7813,197.8955 L108,197.8955 L108,193.1924 L106.7813,193.1924 Q106.3594,193.1924 106.1719,193.0361 Q105.9844,192.8643 105.9844,192.5986 Q105.9844,192.3174 106.1719,192.1611 Q106.3594,191.9893 106.7813,191.9893 L110.4219,191.9893 Q110.8438,191.9893 111.0313,192.1611 Q111.2188,192.3174 111.2188,192.5986 Q111.2188,192.8643 111.0313,193.0361 Q110.8438,193.1924 110.4219,193.1924 L109.2031,193.1924 Z " fill="#000000"/><text fill="#000000" font-family="Arial" font-size="12" font-style="italic" lengthAdjust="spacing" textLength="82" x="127" y="199.4551">/Patient/[id]/List</text><line style="stroke:#181818;stroke-width:0.5;" x1="57" x2="249" y1="210.0986" y2="210.0986"/><text fill="#000000" font-family="Arial" font-size="12" lengthAdjust="spacing" textLength="171" x="62" y="225.3545">&#171;POST&#187; $plan-read [GDA, PAT]</text><text fill="#000000" font-family="Arial" font-size="12" lengthAdjust="spacing" textLength="144" x="62" y="239.1533">&#171;POST&#187; $plan-write [GDA]</text><text fill="#000000" font-family="Arial" font-size="12" lengthAdjust="spacing" textLength="182" x="62" y="252.9521">&#171;POST&#187; $patient-plan-write [PAT]</text><text fill="#000000" font-family="Arial" font-size="12" lengthAdjust="spacing" textLength="149" x="62" y="266.751">&#171;POST&#187; $plan-delete [PAT]</text><line style="stroke:#181818;stroke-width:0.5;" x1="57" x2="249" y1="273.2939" y2="273.2939"/></g><!--class IEmed--><g id="elem_IEmed"><rect codeLine="69" fill="#F1F1F1" height="101.1953" id="IEmed" rx="2" ry="2" style="stroke:#181818;stroke-width:0.5;" width="292" x="7" y="44.0986"/><ellipse cx="147.5" cy="59.0986" fill="#B4A7E5" rx="10" ry="10" style="stroke:#181818;stroke-width:1.0;"/><path d="M148.7031,57.1924 L148.7031,61.8955 L149.9219,61.8955 Q150.3438,61.8955 150.5313,62.0674 Q150.7188,62.2236 150.7188,62.5049 Q150.7188,62.7705 150.5313,62.9424 Q150.3438,63.0986 149.9219,63.0986 L146.2813,63.0986 Q145.8594,63.0986 145.6719,62.9424 Q145.4844,62.7705 145.4844,62.4893 Q145.4844,62.2236 145.6719,62.0674 Q145.8594,61.8955 146.2813,61.8955 L147.5,61.8955 L147.5,57.1924 L146.2813,57.1924 Q145.8594,57.1924 145.6719,57.0361 Q145.4844,56.8643 145.4844,56.5986 Q145.4844,56.3174 145.6719,56.1611 Q145.8594,55.9893 146.2813,55.9893 L149.9219,55.9893 Q150.3438,55.9893 150.5313,56.1611 Q150.7188,56.3174 150.7188,56.5986 Q150.7188,56.8643 150.5313,57.0361 Q150.3438,57.1924 149.9219,57.1924 L148.7031,57.1924 Z " fill="#000000"/><text fill="#000000" font-family="Arial" font-size="12" font-style="italic" lengthAdjust="spacing" textLength="3" x="166.5" y="63.4551">/</text><line style="stroke:#181818;stroke-width:0.5;" x1="8" x2="298" y1="74.0986" y2="74.0986"/><text fill="#000000" font-family="Arial" font-size="12" lengthAdjust="spacing" textLength="207" x="13" y="89.3545">&#171;POST&#187; $groupidentifier-create [GDA]</text><text fill="#000000" font-family="Arial" font-size="12" lengthAdjust="spacing" textLength="280" x="13" y="103.1533">&#171;POST&#187; $groupidentifier-prescription-search [GDA]</text><text fill="#000000" font-family="Arial" font-size="12" lengthAdjust="spacing" textLength="267" x="13" y="116.9521">&#171;POST&#187; $groupidentifier-dispense-search [GDA]</text><text fill="#000000" font-family="Arial" font-size="12" lengthAdjust="spacing" textLength="211" x="13" y="130.751">&#171;POST&#187; $plan-history-read [GDA, PAT]</text><line style="stroke:#181818;stroke-width:0.5;" x1="8" x2="298" y1="137.2939" y2="137.2939"/></g><!--link IDurchgAbgabe to p5--><g id="link_IDurchgAbgabe_p5"><path codeLine="87" d="M256.83,480.1186 C322.42,452.3886 398.98,420.0186 420.26,411.0286 " fill="none" id="IDurchgAbgabe-p5" style="stroke:#181818;stroke-width:1.0;"/></g><!--link IMedicationRequest to p4--><g id="link_IMedicationRequest_p4"><path codeLine="88" d="M274.67,357.3886 C334.41,349.3686 397.72,340.8586 416.47,338.3386 " fill="none" id="IMedicationRequest-p4" style="stroke:#181818;stroke-width:1.0;"/></g><!--link IList to p2--><g id="link_IList_p2"><path codeLine="89" d="M250.02,243.5486 C315.5,252.3786 394.08,262.9686 415.42,265.8486 " fill="none" id="IList-p2" style="stroke:#181818;stroke-width:1.0;"/></g><!--link IEmed to p1--><g id="link_IEmed_p1"><path codeLine="90" d="M270.76,145.1486 C329.39,170.5386 391.77,197.5386 409.83,205.3586 " fill="none" id="IEmed-p1" style="stroke:#181818;stroke-width:1.0;"/></g><rect fill="none" height="58.2959" id="_legend" rx="2" ry="2" style="stroke:#000000;stroke-width:1.0;" width="254" x="364" y="599.0928"/><text fill="#000000" font-family="Arial" font-size="14" font-weight="bold" lengthAdjust="spacing" textLength="184" x="369" y="617.2246">Legende Berechtigungen:</text><text fill="#000000" font-family="Arial" font-size="14" lengthAdjust="spacing" textLength="232" x="369" y="633.3232">[GDA] = Gesundheitsdiensteanbieter</text><text fill="#000000" font-family="Arial" font-size="14" lengthAdjust="spacing" textLength="244" x="369" y="649.4219">[PAT] = PATIENT: ELGA-Teilnehmer:in</text><!--SRC=[ZLRRRjj647qElsBZ5F05fcZBbeiQ20gAecN1acY8J83c0c55ZiY5LqjsTsN7BV8tUUidj4_nZtMMP1JguY1wiRnpPkRCcTbPKSxpXmNxn4HgxPENJCHycG3PoxGkrANZIFhGIfdEbhEb0XddGeFGhJXVE7fPq4IUEGMdGYyNt6PejUU8i5KXcGRbt9-rJbedZZ4efxJG1r3v0koEOy9DappMkMmLwBvdONxDD0UIC9fAkbZWmS0BnjDUu1rKoEFXuAr_t70zdd4QtnsILvFyaV8kNu89epJeB5TnNi2BVl1s6aP-T1s4Nd3hetL6aN4CKnLJ3Y-ktCwqwmxTiUTFGyyT6iISKtLNMgw6RdY39naLoJJBUO8wJHUGCFGj0TVkk3Uz3eQzmRW_7Vcz0OOmUA1Ipu3g2kIxawZhkn5QKBe5IhWMn0j68tySDVnZpWIBrq73mNZWhJ2MfUwOA2WAPM8MkS2eeNv4_L3DTiDQe48qXSec8TPKf1oQ_hDS9Y2zdEUIlEgKdwOL_LEPBqLI8wxAJmEXCfha3oWDcLEke66ftQG0ISuRvmdCwPBhAvo9CLtWlBcIKPo1dOYG_GNajBtRM7CwAJ-MzH9DJ03nWc4mcVgerlJA9UGL_FPh-wmzIynu62LAia__IV9cDBHllka7WY1V4iQPO5hZ676EHmStE0-AgJY32XzgnWztwK_-jWZfRkYrHWNj-zsct2Td5nUz2tEyNKrzM7LkXjDdVMwsZI5XEQSnb6dtky_qQIlZISVpEYOKXxacEYUIfPd6QsU6W-N2igfxEF73o5xNuf9yMmplyHBUW_neMTzfx3ctL3FKmNdFae_Eg9nU4x77L052WRD7g2A3tbB6MUhEKZghk7_zvpO8ew__ab-I6ca_c1L2tlTxxiVT0FmIKvdiW4YOWmIyuhRPJGr0tpVsWrK82JGvBEt7vDQDAb3F7_gHN-A0WmO4bBRFFrNf1FvSWj9reLld6zKM4bGiMM4GprQy1jgkkYhgTqm3QIuVN_UXuBMq6vLj8czH7S2Q94qRKF9Z5SWFP1WofQl2pRVDMZ5RgVWchJN0io9KUUmcQ7U4Yk_kfbNaV5oh6-JClIbOWXdOd86qOoIwayScSAqv2hT-dFs4rse2d_KeIybGHMpKfch4bBLFRDicuH_ujerkWj5jCCONn2S7x_3F19-n2GdzoLj_ScXmblLzHUtvmxxxGO1jXlEk7CvIbh2ypwKkHIuHjtrzFuY3wke2hivCea3Le8d3CaBHsU5R3pwwhiRjwKiAPiz-46PMyTV3PfppLHmpH-ZwdQeo3ZMilO810ggpKwEDPHKTOYyBUttLMCLvVRf5pohQjSbaj8hJ-ZypAfPPb2dWkr3kIKnwT3Gi3u1qST74cMRfKk31vT4HMijcajUa3mgBp81fbU3iuWQbOiPmDgK1bOryRVevm8vT4jCLEmB61MGBa9TCM2PbbVbRkzs9Tps8_9lepSGU1z40crsrTv-8N9itGkjyGV9vtKqyDspnpIBjrWdnLaCG5X3ZA5OQ86k3UmTc5N1Gf3aRoWuVaVg2tD520TUa08bl8Tv6x7_fXyyAhnuEqiM2JO23-zOfSSXzgtrOFgYHf4BHDKmBVKs1XlUAV_KG8Vr1XQhvJq2f71i90fzg79TF-hBcx0kTFNr1LbiTFIxjzNh2UoDDUcC7kPRwVm00]--></g></svg>