<?xml version="1.0" encoding="us-ascii" standalone="no"?><svg xmlns="http://www.w3.org/2000/svg" xmlns:xlink="http://www.w3.org/1999/xlink" contentStyleType="text/css" height="707px" preserveAspectRatio="none" style="width:1097px;height:707px;background:#F5F5F5;" version="1.1" viewBox="0 0 1097 707" width="1097px" zoomAndPan="magnify"><defs><linearGradient id="g149u2ghc6blxi0" x1="50%" x2="50%" y1="0%" y2="100%"><stop offset="0%" stop-color="#E0E5F0"/><stop offset="100%" stop-color="#D1D9E6"/></linearGradient><filter height="300%" id="f149u2ghc6blxi" width="300%" x="-1" y="-1"><feGaussianBlur result="blurOut" stdDeviation="2.0"/><feColorMatrix in="blurOut" result="blurOut2" type="matrix" values="0 0 0 0 0 0 0 0 0 0 0 0 0 0 0 0 0 0 .4 0"/><feOffset dx="4.0" dy="4.0" in="blurOut2" result="blurOut3"/><feBlend in="SourceGraphic" in2="blurOut3" mode="normal"/></filter></defs><g><rect fill="#F5F5F5" height="707" style="stroke:none;stroke-width:1.0;" width="1097" x="0" y="0"/><text fill="#000000" font-family="Arial" font-size="14" font-weight="bold" lengthAdjust="spacing" textLength="70" x="509.5" y="28.1318">Plan-Write</text><rect fill="#9FBAC4" height="658.6235" rx="5" ry="5" style="stroke:#181818;stroke-width:0.5;" width="65" x="106" y="43.0986"/><text fill="#000000" font-family="Arial" font-size="14" font-weight="bold" lengthAdjust="spacing" textLength="4" x="109" y="56.2305">&#160;</text><text fill="#000000" font-family="Arial" font-size="14" font-weight="bold" lengthAdjust="spacing" textLength="43" x="117" y="72.3291">GDA 1</text><rect fill="#C48778" height="658.6235" rx="5" ry="5" style="stroke:#181818;stroke-width:0.5;" width="223" x="483.5" y="43.0986"/><text fill="#000000" font-family="Arial" font-size="14" font-weight="bold" lengthAdjust="spacing" textLength="4" x="486.5" y="56.2305">&#160;</text><text fill="#000000" font-family="Arial" font-size="14" font-weight="bold" lengthAdjust="spacing" textLength="161" x="514.5" y="72.3291">e-Med Fachanwendung</text><rect fill="#BEAEBE" height="658.6235" rx="5" ry="5" style="stroke:#181818;stroke-width:0.5;" width="73" x="888" y="43.0986"/><text fill="#000000" font-family="Arial" font-size="14" font-weight="bold" lengthAdjust="spacing" textLength="4" x="891" y="56.2305">&#160;</text><text fill="#000000" font-family="Arial" font-size="14" font-weight="bold" lengthAdjust="spacing" textLength="43" x="907" y="72.3291">GDA 2</text><rect fill="#BAC38B" height="658.6235" rx="5" ry="5" style="stroke:#181818;stroke-width:0.5;" width="66" x="1003" y="43.0986"/><text fill="#000000" font-family="Arial" font-size="14" font-weight="bold" lengthAdjust="spacing" textLength="4" x="1006" y="56.2305">&#160;</text><text fill="#000000" font-family="Arial" font-size="14" font-weight="bold" lengthAdjust="spacing" textLength="48" x="1010" y="72.3291">Patient</text><rect fill="#FFFFFF" height="432.229" style="stroke:#181818;stroke-width:1.0;" width="10" x="133.5" y="165.3945"/><rect fill="#FFFFFF" height="311.9844" style="stroke:#181818;stroke-width:1.0;" width="10" x="590" y="285.6392"/><rect fill="none" height="248.0869" rx="5" ry="5" style="stroke:#111827;stroke-width:2.0;" width="762.5" x="104.5" y="357.5366"/><line style="stroke:#181818;stroke-width:0.5;stroke-dasharray:5.0,5.0;" x1="138.5" x2="138.5" y1="155.3945" y2="622.6235"/><line style="stroke:#181818;stroke-width:0.5;stroke-dasharray:5.0,5.0;" x1="594.5" x2="594.5" y1="155.3945" y2="622.6235"/><line style="stroke:#181818;stroke-width:0.5;stroke-dasharray:5.0,5.0;" x1="924.5" x2="924.5" y1="155.3945" y2="622.6235"/><line style="stroke:#181818;stroke-width:0.5;stroke-dasharray:5.0,5.0;" x1="1036" x2="1036" y1="155.3945" y2="622.6235"/><text fill="#000000" font-family="Arial" font-size="14" lengthAdjust="spacing" textLength="42" x="114.5" y="152.4277">GDA 1</text><ellipse cx="138.5" cy="87.7959" fill="#E2E2F0" rx="8" ry="8" style="stroke:#181818;stroke-width:0.5;"/><path d="M138.5,95.7959 L138.5,122.7959 M125.5,103.7959 L151.5,103.7959 M138.5,122.7959 L125.5,137.7959 M138.5,122.7959 L151.5,137.7959 " fill="none" style="stroke:#181818;stroke-width:0.5;"/><text fill="#000000" font-family="Arial" font-size="14" lengthAdjust="spacing" textLength="42" x="114.5" y="634.7554">GDA 1</text><ellipse cx="138.5" cy="646.2222" fill="#E2E2F0" rx="8" ry="8" style="stroke:#181818;stroke-width:0.5;"/><path d="M138.5,654.2222 L138.5,681.2222 M125.5,662.2222 L151.5,662.2222 M138.5,681.2222 L125.5,696.2222 M138.5,681.2222 L151.5,696.2222 " fill="none" style="stroke:#181818;stroke-width:0.5;"/><rect fill="#FFFFFF" height="30.0986" rx="5" ry="5" style="stroke:#555555;stroke-width:0.5;" width="77" x="556.5" y="124.2959"/><text fill="#000000" font-family="Arial" font-size="14" lengthAdjust="spacing" textLength="63" x="563.5" y="144.4277">e-Med FA</text><rect fill="#FFFFFF" height="30.0986" rx="5" ry="5" style="stroke:#555555;stroke-width:0.5;" width="77" x="556.5" y="621.6235"/><text fill="#000000" font-family="Arial" font-size="14" lengthAdjust="spacing" textLength="63" x="563.5" y="641.7554">e-Med FA</text><text fill="#000000" font-family="Arial" font-size="14" lengthAdjust="spacing" textLength="42" x="900.5" y="152.4277">GDA 2</text><ellipse cx="924.5" cy="87.7959" fill="#E2E2F0" rx="8" ry="8" style="stroke:#181818;stroke-width:0.5;"/><path d="M924.5,95.7959 L924.5,122.7959 M911.5,103.7959 L937.5,103.7959 M924.5,122.7959 L911.5,137.7959 M924.5,122.7959 L937.5,137.7959 " fill="none" style="stroke:#181818;stroke-width:0.5;"/><text fill="#000000" font-family="Arial" font-size="14" lengthAdjust="spacing" textLength="42" x="900.5" y="634.7554">GDA 2</text><ellipse cx="924.5" cy="646.2222" fill="#E2E2F0" rx="8" ry="8" style="stroke:#181818;stroke-width:0.5;"/><path d="M924.5,654.2222 L924.5,681.2222 M911.5,662.2222 L937.5,662.2222 M924.5,681.2222 L911.5,696.2222 M924.5,681.2222 L937.5,696.2222 " fill="none" style="stroke:#181818;stroke-width:0.5;"/><text fill="#000000" font-family="Arial" font-size="14" lengthAdjust="spacing" textLength="44" x="1011" y="152.4277">Patient</text><ellipse cx="1036" cy="87.7959" fill="#E2E2F0" rx="8" ry="8" style="stroke:#181818;stroke-width:0.5;"/><path d="M1036,95.7959 L1036,122.7959 M1023,103.7959 L1049,103.7959 M1036,122.7959 L1023,137.7959 M1036,122.7959 L1049,137.7959 " fill="none" style="stroke:#181818;stroke-width:0.5;"/><text fill="#000000" font-family="Arial" font-size="14" lengthAdjust="spacing" textLength="44" x="1011" y="634.7554">Patient</text><ellipse cx="1036" cy="646.2222" fill="#E2E2F0" rx="8" ry="8" style="stroke:#181818;stroke-width:0.5;"/><path d="M1036,654.2222 L1036,681.2222 M1023,662.2222 L1049,662.2222 M1036,681.2222 L1023,696.2222 M1036,681.2222 L1049,696.2222 " fill="none" style="stroke:#181818;stroke-width:0.5;"/><rect fill="#FFFFFF" height="432.229" style="stroke:#181818;stroke-width:1.0;" width="10" x="133.5" y="165.3945"/><rect fill="#FFFFFF" height="311.9844" style="stroke:#181818;stroke-width:1.0;" width="10" x="590" y="285.6392"/><path d="M5,175.3945 L5,207.3945 A5,5 0 0 0 10,212.3945 L265,212.3945 A5,5 0 0 0 270,207.3945 L270,180.3945 L260,170.3945 L10,170.3945 A5,5 0 0 0 5,175.3945 " fill="url(#g149u2ghc6blxi0)" filter="url(#f149u2ghc6blxi)" style="stroke:#8B95A5;stroke-width:1.0;"/><path d="M260,170.3945 L260,177.8945 A2.5,2.5 0 0 0 262.5,180.3945 L270,180.3945 L260,170.3945 " fill="url(#g149u2ghc6blxi0)" style="stroke:#8B95A5;stroke-width:1.0;"/><text fill="#111827" font-family="Arial" font-size="14" lengthAdjust="spacing" textLength="244" x="11" y="188.5264">Vorbedingung: Nach einem Plan-Read</text><text fill="#111827" font-family="Arial" font-size="14" lengthAdjust="spacing" textLength="218" x="11" y="204.625">wird der Medikationsplan bearbeit.</text><rect fill="#EEEEEE" height="3" rx="5" ry="5" style="stroke:#EEEEEE;stroke-width:1.0;" width="1090" x="0" y="241.6411"/><line style="stroke:#000000;stroke-width:1.0;" x1="0" x2="1090" y1="241.6411" y2="241.6411"/><line style="stroke:#000000;stroke-width:1.0;" x1="0" x2="1090" y1="244.6411" y2="244.6411"/><rect fill="#EEEEEE" height="24.0986" rx="5" ry="5" style="stroke:#000000;stroke-width:2.0;" width="204" x="443" y="230.5918"/><text fill="#000000" font-family="Arial" font-size="14" font-weight="bold" lengthAdjust="spacing" textLength="186" x="449" y="247.7236">Medikationsplan schreiben</text><line style="stroke:#111827;stroke-width:1.0;" x1="588" x2="578" y1="285.6392" y2="281.6392"/><line style="stroke:#111827;stroke-width:1.0;" x1="588" x2="578" y1="285.6392" y2="289.6392"/><line style="stroke:#111827;stroke-width:1.0;" x1="143.5" x2="589" y1="285.6392" y2="285.6392"/><text fill="#000000" font-family="Arial" font-size="13" font-weight="bold" lengthAdjust="spacing" textLength="7" x="150.5" y="280.8843">1</text><text fill="#000000" font-family="Arial" font-size="13" lengthAdjust="spacing" textLength="363" x="161.5" y="280.8843">POST $plan-write Medikationsplan-Transaction-Bundle + ETag</text><line style="stroke:#111827;stroke-width:1.0;" x1="600" x2="642" y1="329.5366" y2="329.5366"/><line style="stroke:#111827;stroke-width:1.0;" x1="642" x2="642" y1="329.5366" y2="342.5366"/><line style="stroke:#111827;stroke-width:1.0;" x1="601" x2="642" y1="342.5366" y2="342.5366"/><polygon fill="#111827" points="611,338.5366,601,342.5366,611,346.5366,607,342.5366" style="stroke:#111827;stroke-width:1.0;"/><text fill="#000000" font-family="Arial" font-size="13" font-weight="bold" lengthAdjust="spacing" textLength="7" x="607" y="317.3074">2</text><text fill="#000000" font-family="Arial" font-size="13" lengthAdjust="spacing" textLength="114" x="618" y="309.833">ETag im Header ==</text><text fill="#000000" font-family="Arial" font-size="13" lengthAdjust="spacing" textLength="158" x="618" y="324.7817">ETag der Fachanwendung?</text><path d="M109.5,357.5366 L166.5,357.5366 L166.5,365.6353 L156.5,375.6353 L104.5,375.6353 L104.5,362.5366 A5,5 0 0 1 109.5,357.5366 " fill="#EEF2FF" style="stroke:#111827;stroke-width:1.5;"/><rect fill="none" height="248.0869" rx="5" ry="5" style="stroke:#111827;stroke-width:2.0;" width="762.5" x="104.5" y="357.5366"/><text fill="#000000" font-family="Arial" font-size="14" font-weight="bold" lengthAdjust="spacing" textLength="17" x="119.5" y="371.6685">alt</text><text fill="#000000" font-family="Arial" font-size="14" font-weight="bold" lengthAdjust="spacing" textLength="50" x="181.5" y="372.6685">[g&#252;ltig]</text><line style="stroke:#111827;stroke-width:1.0;" x1="600" x2="642" y1="412.6313" y2="412.6313"/><line style="stroke:#111827;stroke-width:1.0;" x1="642" x2="642" y1="412.6313" y2="425.6313"/><line style="stroke:#111827;stroke-width:1.0;" x1="601" x2="642" y1="425.6313" y2="425.6313"/><polygon fill="#111827" points="611,421.6313,601,425.6313,611,429.6313,607,425.6313" style="stroke:#111827;stroke-width:1.0;"/><text fill="#000000" font-family="Arial" font-size="13" font-weight="bold" lengthAdjust="spacing" textLength="7" x="607" y="400.4021">3</text><text fill="#000000" font-family="Arial" font-size="13" lengthAdjust="spacing" textLength="165" x="618" y="392.9277">Validierung des neuen Plans</text><text fill="#000000" font-family="Arial" font-size="13" lengthAdjust="spacing" textLength="237" x="618" y="407.8765">(keine unzul&#228;ssigen Zustands&#252;berg&#228;nge)</text><line style="stroke:#111827;stroke-width:1.0;" x1="600" x2="642" y1="469.5288" y2="469.5288"/><line style="stroke:#111827;stroke-width:1.0;" x1="642" x2="642" y1="469.5288" y2="482.5288"/><line style="stroke:#111827;stroke-width:1.0;" x1="601" x2="642" y1="482.5288" y2="482.5288"/><polygon fill="#111827" points="611,478.5288,601,482.5288,611,486.5288,607,482.5288" style="stroke:#111827;stroke-width:1.0;"/><text fill="#000000" font-family="Arial" font-size="13" font-weight="bold" lengthAdjust="spacing" textLength="7" x="607" y="457.2996">4</text><text fill="#000000" font-family="Arial" font-size="13" lengthAdjust="spacing" textLength="164" x="618" y="449.8252">Persistiert neue Version des</text><text fill="#000000" font-family="Arial" font-size="13" lengthAdjust="spacing" textLength="101" x="618" y="464.7739">Medikationsplans</text><path d="M471,500.5288 L471,516.5288 A5,5 0 0 0 476,521.5288 L711,521.5288 A5,5 0 0 0 716,516.5288 L716,505.5288 L706,495.5288 L476,495.5288 A5,5 0 0 0 471,500.5288 " fill="url(#g149u2ghc6blxi0)" filter="url(#f149u2ghc6blxi)" style="stroke:#8B95A5;stroke-width:1.0;"/><path d="M706,495.5288 L706,503.0288 A2.5,2.5 0 0 0 708.5,505.5288 L716,505.5288 L706,495.5288 " fill="url(#g149u2ghc6blxi0)" style="stroke:#8B95A5;stroke-width:1.0;"/><text fill="#111827" font-family="Arial" font-size="14" lengthAdjust="spacing" textLength="224" x="477" y="513.6606">Neuer Medikationsplan gespeichert</text><line style="stroke:#111827;stroke-width:1.0;" x1="144.5" x2="154.5" y1="550.5762" y2="546.5762"/><line style="stroke:#111827;stroke-width:1.0;" x1="144.5" x2="154.5" y1="550.5762" y2="554.5762"/><line style="stroke:#111827;stroke-width:1.0;stroke-dasharray:2.0,2.0;" x1="143.5" x2="589" y1="550.5762" y2="550.5762"/><text fill="#000000" font-family="Arial" font-size="13" font-weight="bold" lengthAdjust="spacing" textLength="7" x="160.5" y="545.8213">5</text><text fill="#000000" font-family="Arial" font-size="13" lengthAdjust="spacing" textLength="19" x="171.5" y="545.8213">OK</text><line style="stroke:#111827;stroke-width:1.0;stroke-dasharray:2.0,2.0;" x1="104.5" x2="867" y1="559.5762" y2="559.5762"/><text fill="#000000" font-family="Arial" font-size="14" font-weight="bold" lengthAdjust="spacing" textLength="68" x="109.5" y="572.708">[ung&#252;ltig]</text><line style="stroke:#111827;stroke-width:1.0;" x1="139.5" x2="149.5" y1="597.6235" y2="593.6235"/><line style="stroke:#111827;stroke-width:1.0;" x1="139.5" x2="149.5" y1="597.6235" y2="601.6235"/><line style="stroke:#111827;stroke-width:1.0;stroke-dasharray:2.0,2.0;" x1="138.5" x2="594" y1="597.6235" y2="597.6235"/><text fill="#000000" font-family="Arial" font-size="13" font-weight="bold" lengthAdjust="spacing" textLength="7" x="155.5" y="592.8687">6</text><text fill="#000000" font-family="Arial" font-size="13" lengthAdjust="spacing" textLength="36" x="166.5" y="592.8687">Fehler</text><!--SRC=[TLJRRXen47ttLun87rfLMsL9Q4WaKf4qj5BL12KqbIgaoBiU5el5IsrlI5FrR_8PUUF7EZQmyG8nF7ZdScRE6TjMsXoXdtCL_TJI8ZCJgMPSyoaaXHQepukyqB2txrVevUaaqqMfn2fYr7A_8CACkIZcKcKmuha9aLTfMg66E0GLEE9bRdk5ifTyYj3eQidpnkw86_c841_kTjRR3c9KOH7-Ce2pJGAuZwtHVhGdOd6C7rr4A40xEMxnLcKTZ6KwKMWCn6Ix3WYrwRlFXN347KhGJHp7xUOHsMugQQmkaVqB6_pwPuOwbseIKBYus1NmGmc_mPN0eVRukqILBfdskROobJEkR8rIow-DWAsn-bKFsXPuoxqUJisnbgNf4hfQ5_DDORonhgqtxQfOEPQr3iZqXJgVrJXMo4lNrinnrFJiWioNyitwPCwAXu11pRvBLvOK3z0OAWB_t8KOe05xnoEwDquLdbeA9STT3Dn0muSq62f1z-uXoFKBe-yeeCVJCLTpYYcfXUKYpFF3zj6HEtMp5wK1AU6kr_NOg-pkRdXNkUc14kIOOAsvPjLSSqTsdrk9LCmdy_IWdLJ9QvTBN-q30CPBMwXocg2cVMhbFQTRwTLWpD_GuXvNyh3RGYVeL2VM9t198W3IePykNwrhv8BDfHPq-pKGKJcXSeKoC_82KQ9aQJ_usWwPiKvdAyoaOuqoGGMT3cFBgKIdfsiLJw1_TJE0DouschjdSXCX6cYkZ6DIgEYCpXSzgk_XOi2pWDyAZQrd4mK5N2X8kjn4XtXqEaFbJUwZDlTF19XRo1RFkPKPaE2xu6vvBeL4xGwAG0CAwJdmWfcXUZjn-a6f7ijyyMICpCZtgpIMAs4MppIKRF6aCdpt2dWVjP66Pggj1uPRPoYKgpHK6yeO0g7_or3NAW1SKkxso38qCvJfcD1T_MfiGIzkD7v89t3rZJ6anu_OL9Ay4jh3SKxrd5lWng6hcQevAS7OVm00]--></g></svg>