<?xml version="1.0" encoding="us-ascii" standalone="no"?><svg xmlns="http://www.w3.org/2000/svg" xmlns:xlink="http://www.w3.org/1999/xlink" contentStyleType="text/css" height="679px" preserveAspectRatio="none" style="width:772px;height:679px;background:#F5F5F5;" version="1.1" viewBox="0 0 772 679" width="772px" zoomAndPan="magnify"><defs><linearGradient id="gc09yk4wtd5qx0" x1="50%" x2="50%" y1="0%" y2="100%"><stop offset="0%" stop-color="#E0E5F0"/><stop offset="100%" stop-color="#D1D9E6"/></linearGradient></defs><g><rect fill="#F5F5F5" height="679" style="stroke:none;stroke-width:1.0;" width="772" x="0" y="0"/><text fill="#000000" font-family="Arial" font-size="14" font-weight="bold" lengthAdjust="spacing" textLength="72" x="346" y="28.1318">Plan-Write</text><rect fill="#156082" fill-opacity="0.50196" height="445.8286" style="stroke:#181818;stroke-width:1.0;" width="10" x="110" y="128.1973"/><rect fill="#E97232" fill-opacity="0.74118" height="317.085" style="stroke:#181818;stroke-width:1.0;" width="10" x="510" y="256.9409"/><rect fill="#0F9ED5" fill-opacity="0.14510" height="253.1875" rx="5" ry="5" style="stroke:#111827;stroke-width:2.0;" width="674" x="81" y="328.8384"/><path d="M81,538.4282 L755,538.4282 L755,577.0259 A5,5 0 0 1 750,582.0259 L86,582.0259 A5,5 0 0 1 81,577.0259 L81,538.4282 " fill="#E97132" fill-opacity="0.20784" style="stroke:none;stroke-width:1.0;"/><line style="stroke:#181818;stroke-width:0.5;stroke-dasharray:5.0,5.0;" x1="115" x2="115" y1="118.1973" y2="599.0259"/><line style="stroke:#181818;stroke-width:0.5;stroke-dasharray:5.0,5.0;" x1="515" x2="515" y1="118.1973" y2="599.0259"/><text fill="#000000" font-family="Arial" font-size="14" lengthAdjust="spacing" textLength="42" x="91" y="115.2305">GDA 1</text><ellipse cx="115" cy="50.5986" fill="#156082" fill-opacity="0.50196" rx="8" ry="8" style="stroke:#181818;stroke-width:0.5;"/><path d="M115,58.5986 L115,85.5986 M102,66.5986 L128,66.5986 M115,85.5986 L102,100.5986 M115,85.5986 L128,100.5986 " fill="none" style="stroke:#181818;stroke-width:0.5;"/><text fill="#000000" font-family="Arial" font-size="14" lengthAdjust="spacing" textLength="42" x="91" y="611.1577">GDA 1</text><ellipse cx="115" cy="622.6245" fill="#156082" fill-opacity="0.50196" rx="8" ry="8" style="stroke:#181818;stroke-width:0.5;"/><path d="M115,630.6245 L115,657.6245 M102,638.6245 L128,638.6245 M115,657.6245 L102,672.6245 M115,657.6245 L128,672.6245 " fill="none" style="stroke:#181818;stroke-width:0.5;"/><rect fill="#E97232" fill-opacity="0.74118" height="30.0986" rx="5" ry="5" style="stroke:#555555;stroke-width:0.5;" width="76" x="477" y="87.0986"/><text fill="#000000" font-family="Arial" font-size="14" lengthAdjust="spacing" textLength="62" x="484" y="107.2305">e-Med FA</text><rect fill="#E97232" fill-opacity="0.74118" height="30.0986" rx="5" ry="5" style="stroke:#555555;stroke-width:0.5;" width="76" x="477" y="598.0259"/><text fill="#000000" font-family="Arial" font-size="14" lengthAdjust="spacing" textLength="62" x="484" y="618.1577">e-Med FA</text><rect fill="#156082" fill-opacity="0.50196" height="445.8286" style="stroke:#181818;stroke-width:1.0;" width="10" x="110" y="128.1973"/><rect fill="#E97232" fill-opacity="0.74118" height="317.085" style="stroke:#181818;stroke-width:1.0;" width="10" x="510" y="256.9409"/><path d="M5,138.1973 L5,182.1973 A5,5 0 0 0 10,187.1973 L220,187.1973 A5,5 0 0 0 225,182.1973 L225,143.1973 L215,133.1973 L10,133.1973 A5,5 0 0 0 5,138.1973 " fill="url(#gc09yk4wtd5qx0)" style="stroke:#8B95A5;stroke-width:1.0;"/><path d="M215,133.1973 L215,140.6973 A2.5,2.5 0 0 0 217.5,143.1973 L225,143.1973 L215,133.1973 " fill="url(#gc09yk4wtd5qx0)" style="stroke:#8B95A5;stroke-width:1.0;"/><text fill="#111827" font-family="Arial" font-size="13" lengthAdjust="spacing" textLength="83" x="11" y="150.3911">Vorbedingung:</text><text fill="#111827" font-family="Arial" font-size="13" lengthAdjust="spacing" textLength="199" x="11" y="165.3398">Der Medikationsplan wurde mittels</text><text fill="#111827" font-family="Arial" font-size="13" lengthAdjust="spacing" textLength="199" x="11" y="180.2886">$plan-read gelesen und bearbeitet.</text><rect fill="#EEEEEE" height="3" rx="5" ry="5" style="stroke:#EEEEEE;stroke-width:1.0;" width="765" x="0" y="213.5178"/><line style="stroke:#000000;stroke-width:1.0;" x1="0" x2="765" y1="213.5178" y2="213.5178"/><line style="stroke:#000000;stroke-width:1.0;" x1="0" x2="765" y1="216.5178" y2="216.5178"/><rect fill="#EEEEEE" height="22.9487" rx="5" ry="5" style="stroke:#000000;stroke-width:2.0;" width="188" x="288.5" y="203.0435"/><text fill="#000000" font-family="Arial" font-size="13" font-weight="bold" lengthAdjust="spacing" textLength="170" x="294.5" y="219.2373">Medikationsplan schreiben</text><polygon fill="#111827" points="498,252.9409,508,256.9409,498,260.9409,502,256.9409" style="stroke:#111827;stroke-width:1.0;"/><line style="stroke:#111827;stroke-width:1.0;" x1="120" x2="504" y1="256.9409" y2="256.9409"/><text fill="#000000" font-family="Arial" font-size="13" font-weight="bold" lengthAdjust="spacing" textLength="7" x="127" y="252.186">1</text><text fill="#000000" font-family="Arial" font-size="13" lengthAdjust="spacing" textLength="360" x="138" y="252.186">POST $plan-write Medikationsplan-Transaction-Bundle + ETag</text><line style="stroke:#111827;stroke-width:1.0;" x1="520" x2="562" y1="300.8384" y2="300.8384"/><line style="stroke:#111827;stroke-width:1.0;" x1="562" x2="562" y1="300.8384" y2="313.8384"/><line style="stroke:#111827;stroke-width:1.0;" x1="521" x2="562" y1="313.8384" y2="313.8384"/><polygon fill="#111827" points="531,309.8384,521,313.8384,531,317.8384,527,313.8384" style="stroke:#111827;stroke-width:1.0;"/><text fill="#000000" font-family="Arial" font-size="13" font-weight="bold" lengthAdjust="spacing" textLength="7" x="527" y="288.6091">2</text><text fill="#000000" font-family="Arial" font-size="13" lengthAdjust="spacing" textLength="103" x="538" y="281.1348">Pr&#252;fung des ETag</text><text fill="#000000" font-family="Arial" font-size="13" lengthAdjust="spacing" textLength="116" x="538" y="296.0835">(Optimistic Locking)</text><path d="M86,328.8384 L142,328.8384 L142,335.7871 L132,345.7871 L81,345.7871 L81,333.8384 A5,5 0 0 1 86,328.8384 " fill="#EEF2FF" style="stroke:#111827;stroke-width:1.5;"/><rect fill="none" height="253.1875" rx="5" ry="5" style="stroke:#111827;stroke-width:2.0;" width="674" x="81" y="328.8384"/><text fill="#000000" font-family="Arial" font-size="13" font-weight="bold" lengthAdjust="spacing" textLength="16" x="96" y="342.0322">alt</text><text fill="#000000" font-family="Arial" font-size="11" font-weight="bold" lengthAdjust="spacing" textLength="39" x="157" y="341.1563">[g&#252;ltig]</text><line style="stroke:#111827;stroke-width:1.0;" x1="520" x2="562" y1="396.6333" y2="396.6333"/><line style="stroke:#111827;stroke-width:1.0;" x1="562" x2="562" y1="396.6333" y2="409.6333"/><line style="stroke:#111827;stroke-width:1.0;" x1="521" x2="562" y1="409.6333" y2="409.6333"/><polygon fill="#111827" points="531,405.6333,521,409.6333,531,413.6333,527,409.6333" style="stroke:#111827;stroke-width:1.0;"/><text fill="#000000" font-family="Arial" font-size="13" font-weight="bold" lengthAdjust="spacing" textLength="7" x="527" y="376.9297">3</text><text fill="#000000" font-family="Arial" font-size="13" lengthAdjust="spacing" textLength="89" x="538" y="361.981">Validierung des</text><text fill="#000000" font-family="Arial" font-size="13" lengthAdjust="spacing" textLength="118" x="538" y="376.9297">Transaction Bundles</text><text fill="#000000" font-family="Arial" font-size="13" lengthAdjust="spacing" textLength="160" x="538" y="391.8784">und der Zustands&#252;berg&#228;nge</text><line style="stroke:#111827;stroke-width:1.0;" x1="520" x2="562" y1="453.5308" y2="453.5308"/><line style="stroke:#111827;stroke-width:1.0;" x1="562" x2="562" y1="453.5308" y2="466.5308"/><line style="stroke:#111827;stroke-width:1.0;" x1="521" x2="562" y1="466.5308" y2="466.5308"/><polygon fill="#111827" points="531,462.5308,521,466.5308,531,470.5308,527,466.5308" style="stroke:#111827;stroke-width:1.0;"/><text fill="#000000" font-family="Arial" font-size="13" font-weight="bold" lengthAdjust="spacing" textLength="7" x="527" y="441.3015">4</text><text fill="#000000" font-family="Arial" font-size="13" lengthAdjust="spacing" textLength="189" x="538" y="433.8271">Erzeugt neues Collection Bundle</text><text fill="#000000" font-family="Arial" font-size="13" lengthAdjust="spacing" textLength="205" x="538" y="448.7759">und persistiert den Medikationsplan</text><path d="M403,484.5308 L403,498.5308 A5,5 0 0 0 408,503.5308 L622,503.5308 A5,5 0 0 0 627,498.5308 L627,489.5308 L617,479.5308 L408,479.5308 A5,5 0 0 0 403,484.5308 " fill="url(#gc09yk4wtd5qx0)" style="stroke:#8B95A5;stroke-width:1.0;"/><path d="M617,479.5308 L617,487.0308 A2.5,2.5 0 0 0 619.5,489.5308 L627,489.5308 L617,479.5308 " fill="url(#gc09yk4wtd5qx0)" style="stroke:#8B95A5;stroke-width:1.0;"/><text fill="#111827" font-family="Arial" font-size="13" lengthAdjust="spacing" textLength="203" x="409" y="496.7246">Neuer Medikationsplan gespeichert</text><polygon fill="#111827" points="131,526.4282,121,530.4282,131,534.4282,127,530.4282" style="stroke:#111827;stroke-width:1.0;"/><line style="stroke:#111827;stroke-width:1.0;stroke-dasharray:2.0,2.0;" x1="125" x2="509" y1="530.4282" y2="530.4282"/><text fill="#000000" font-family="Arial" font-size="13" font-weight="bold" lengthAdjust="spacing" textLength="7" x="137" y="525.6733">5</text><text fill="#000000" font-family="Arial" font-size="13" lengthAdjust="spacing" textLength="160" x="148" y="525.6733">Plan erfolgreich gespeichert</text><line style="stroke:#111827;stroke-width:1.0;stroke-dasharray:2.0,2.0;" x1="81" x2="755" y1="539.4282" y2="539.4282"/><text fill="#000000" font-family="Arial" font-size="11" font-weight="bold" lengthAdjust="spacing" textLength="53" x="86" y="549.7461">[ung&#252;ltig]</text><polygon fill="#111827" points="126,570.0259,116,574.0259,126,578.0259,122,574.0259" style="stroke:#111827;stroke-width:1.0;"/><line style="stroke:#111827;stroke-width:1.0;stroke-dasharray:2.0,2.0;" x1="120" x2="514" y1="574.0259" y2="574.0259"/><text fill="#000000" font-family="Arial" font-size="13" font-weight="bold" lengthAdjust="spacing" textLength="7" x="132" y="569.271">6</text><text fill="#000000" font-family="Arial" font-size="13" lengthAdjust="spacing" textLength="36" x="143" y="569.271">Fehler</text><!--SRC=[TLNTZjf65BxtKvn2fRQgg6mJOBtILe9Wqgh9WbYQIb6arM0Vp0WpGsR6eKdLj-bZxDs-MC_Oi8njCd1Xd_FDTxxpCsF3JOwmo9de_QMuGS_xGU-uE335zi0I8zM3-K88TaGjz-I-UDTIfQXUormgwFhbShqisMLA5Y8z8JO3-tCGUijIUUGYWmtBDJgUqpObK47WagQuOKLkPbAOUxP7w8mLPtd7rUn07lXNXE3LzVtVqltRbmEgd8kT0uZZQu0_HLe-O4l_HFwzO6bgKmlzkdtY5crGBhUcGXg4Vpo0IRDywEDWu_UwQP16EBG8b-bc7GtOuCMwsl9a9r1h2CYsTChfq_jPcsLnIX44mKqu8jj3ep7_kWerVYfG99NA1LE69_p0XBcMM1tG6eXorK7jphJSvwxM74wv0SPAoMCpgT9OhqjfkXRnnL75wfFf3Ia_r79yOQvShNxX9YopStPUmeUsgD_HEDhnUJr_Ery-lfcE7mEWrGq6G_yclF6l0C8I40s7_cZQ0Yp6gz_Z-vLbY8QJy5KBC5xCeLnTVnR5qq7K1CJlukdZR4m0Z4PXFrodJS3ZCluGBrRGJTB-g1-og9d6_0-enGW7JOhbShui0N4q2lfXdmv0UT50LG6ceKDF47JSmdY7IxC1ts5gPLeezkW5PkDEFGMFI0iZHR5Veoe3yC-CpbOLmoNsoZCdF-D9WFTUgZNQQIf4TkjDoKuH-8uPBeK-q4q9nuAw2Njk3ERQ-zxQUWfP2Xdcg540ZG6iaH4FNQdc5m_ftORnlBkx5fjEjWhvchRTtNbU9R3twpd9MrZC7rPG1JdQAxf9q5if9hJDK8hUX4BJTVqpn2kMENcVIrOlqjbQ2wUUdpQKEbsMkcJvA7wS7mpVSqqDWBSoeRiW-ucuStFfUVRyb1kU0GtyDTBtBESfHtNY_IWSpL1f9gCj6nqJ-51emqIgdv-eUTdpVoB3R_36wYiMcG611QcbevUZorbHqdsjhNXKXkX5itv4JV_B59p8oNPFhEtkPwWFo9CjqLbLBwrr59B4ie-tvPSLK6radYcxgRRRe_6f7mkgpxcGr_bckCr9a_McM9_gkkcS1UdplFy1]--></g></svg>