<svg xmlns="http://www.w3.org/2000/svg" xmlns:xlink="http://www.w3.org/1999/xlink" contentStyleType="text/css" data-diagram-type="SEQUENCE" height="806px" preserveAspectRatio="none" style="width:881px;height:806px;background:#F5F5F5;" version="1.1" viewBox="0 0 881 806" width="881px" zoomAndPan="magnify"><?plantuml 1.2026.7beta1?><defs><linearGradient id="gg58j33ivv06v0" x1="50%" x2="50%" y1="0%" y2="100%"><stop offset="0%" stop-color="#E0E5F0"/><stop offset="100%" stop-color="#D1D9E6"/></linearGradient><filter height="300%" id="fg58j33ivv06v" width="300%" x="-1" y="-1"><feGaussianBlur result="blurOut" stdDeviation="2"/><feColorMatrix in="blurOut" result="blurOut2" type="matrix" values="0 0 0 0 0 0 0 0 0 0 0 0 0 0 0 0 0 0 .4 0"/><feOffset dx="4" dy="4" in="blurOut2" result="blurOut3"/><feBlend in="SourceGraphic" in2="blurOut3" mode="normal"/></filter></defs><g><rect fill="#F5F5F5" height="806" style="stroke:none;stroke-width:1;" width="881" x="0" y="0"/><g class="title" data-source-line="1"><text fill="#000000" font-family="'Arial'" font-size="14" font-weight="700" lengthAdjust="spacing" textLength="80.0283" x="397.2988" y="27.9951">Plan-Read</text></g><g><title>GDA 1</title><rect fill="#3588A7" fill-opacity="0.29804" height="521.1016" style="stroke:#181818;stroke-width:1;" width="10" x="117.2817" y="194.0234"/></g><g><title>e-Med FA</title><rect fill="#A14C37" fill-opacity="0.47059" height="391.0781" style="stroke:#181818;stroke-width:1;" width="10" x="482.8271" y="194.0234"/></g><rect fill="#FFFFFF" fill-opacity="0.14902" height="271.2188" rx="5" ry="5" style="stroke:#111827;stroke-width:2;" width="692.9683" x="87" y="321.8828"/><path d="M87,488.4063 L779.9683,488.4063 L779.9683,588.1016 A5,5 0 0 1 774.9683,593.1016 L92,593.1016 A5,5 0 0 1 87,588.1016 L87,488.4063" fill="#7F1515" fill-opacity="0.20000" style="stroke:none;stroke-width:1;"/><g class="participant-lifeline" data-entity-uid="part1" data-qualified-name="GDA_1" data-source-line="50" id="part1-lifeline"><g><title>GDA 1</title><rect fill="#000000" fill-opacity="0.00000" height="605.5313" width="8" x="118.2817" y="118.5938"/><line style="stroke:#181818;stroke-width:0.5;stroke-dasharray:5,5;" x1="122" x2="122" y1="118.5938" y2="724.125"/></g></g><g class="participant-lifeline" data-entity-uid="part2" data-qualified-name="eMed_FA" data-source-line="52" id="part2-lifeline"><g><title>e-Med FA</title><rect fill="#000000" fill-opacity="0.00000" height="605.5313" width="8" x="483.8271" y="118.5938"/><line style="stroke:#181818;stroke-width:0.5;stroke-dasharray:5,5;" x1="487.165" x2="487.165" y1="118.5938" y2="724.125"/></g></g><g class="participant-lifeline" data-entity-uid="part3" data-qualified-name="GDA_2" data-source-line="54" id="part3-lifeline"><g><title>GDA 2</title><rect fill="#000000" fill-opacity="0.00000" height="605.5313" width="8" x="775.9683" y="118.5938"/><line style="stroke:#181818;stroke-width:0.5;stroke-dasharray:5,5;" x1="779.6865" x2="779.6865" y1="118.5938" y2="724.125"/></g></g><g class="participant-lifeline" data-entity-uid="part4" data-qualified-name="Patient" data-source-line="56" id="part4-lifeline"><g><title>Patient</title><rect fill="#000000" fill-opacity="0.00000" height="605.5313" width="8" x="838.938" y="118.5938"/><line style="stroke:#181818;stroke-width:0.5;stroke-dasharray:5,5;" x1="842.25" x2="842.25" y1="118.5938" y2="724.125"/></g></g><g class="participant participant-head" data-entity-uid="part1" data-qualified-name="GDA_1" data-source-line="50" id="part1-head"><text fill="#000000" font-family="'Arial'" font-size="14" lengthAdjust="spacing" textLength="44.5635" x="97" y="115.292">GDA 1</text><ellipse cx="122.2817" cy="50.7969" fill="#3588A7" fill-opacity="0.29804" rx="8" ry="8" style="stroke:#181818;stroke-width:0.5;"/><path d="M122.2817,58.7969 L122.2817,85.7969 M109.2817,66.7969 L135.2817,66.7969 M122.2817,85.7969 L109.2817,100.7969 M122.2817,85.7969 L135.2817,100.7969" fill="none" style="stroke:#181818;stroke-width:0.5;"/></g><g class="participant participant-tail" data-entity-uid="part1" data-qualified-name="GDA_1" data-source-line="50" id="part1-tail"><text fill="#000000" font-family="'Arial'" font-size="14" lengthAdjust="spacing" textLength="44.5635" x="97" y="736.1201">GDA 1</text><ellipse cx="122.2817" cy="747.9219" fill="#3588A7" fill-opacity="0.29804" rx="8" ry="8" style="stroke:#181818;stroke-width:0.5;"/><path d="M122.2817,755.9219 L122.2817,782.9219 M109.2817,763.9219 L135.2817,763.9219 M122.2817,782.9219 L109.2817,797.9219 M122.2817,782.9219 L135.2817,797.9219" fill="none" style="stroke:#181818;stroke-width:0.5;"/></g><g class="participant participant-head" data-entity-uid="part2" data-qualified-name="eMed_FA" data-source-line="52" id="part2-head"><rect fill="#A14C37" fill-opacity="0.47059" height="30.2969" rx="5" ry="5" style="stroke:#555555;stroke-width:0.5;" width="79.3242" x="448.165" y="87.2969"/><text fill="#000000" font-family="'Arial'" font-size="14" lengthAdjust="spacing" textLength="65.3242" x="455.165" y="107.292">e-Med FA</text></g><g class="participant participant-tail" data-entity-uid="part2" data-qualified-name="eMed_FA" data-source-line="52" id="part2-tail"><rect fill="#A14C37" fill-opacity="0.47059" height="30.2969" rx="5" ry="5" style="stroke:#555555;stroke-width:0.5;" width="79.3242" x="448.165" y="723.125"/><text fill="#000000" font-family="'Arial'" font-size="14" lengthAdjust="spacing" textLength="65.3242" x="455.165" y="743.1201">e-Med FA</text></g><g class="participant participant-head" data-entity-uid="part3" data-qualified-name="GDA_2" data-source-line="54" id="part3-head"><text fill="#000000" font-family="'Arial'" font-size="14" lengthAdjust="spacing" textLength="44.5635" x="754.6865" y="115.292">GDA 2</text><ellipse cx="779.9683" cy="50.7969" fill="#CA89CA" fill-opacity="0.37255" rx="8" ry="8" style="stroke:#181818;stroke-width:0.5;"/><path d="M779.9683,58.7969 L779.9683,85.7969 M766.9683,66.7969 L792.9683,66.7969 M779.9683,85.7969 L766.9683,100.7969 M779.9683,85.7969 L792.9683,100.7969" fill="none" style="stroke:#181818;stroke-width:0.5;"/></g><g class="participant participant-tail" data-entity-uid="part3" data-qualified-name="GDA_2" data-source-line="54" id="part3-tail"><text fill="#000000" font-family="'Arial'" font-size="14" lengthAdjust="spacing" textLength="44.5635" x="754.6865" y="736.1201">GDA 2</text><ellipse cx="779.9683" cy="747.9219" fill="#CA89CA" fill-opacity="0.37255" rx="8" ry="8" style="stroke:#181818;stroke-width:0.5;"/><path d="M779.9683,755.9219 L779.9683,782.9219 M766.9683,763.9219 L792.9683,763.9219 M779.9683,782.9219 L766.9683,797.9219 M779.9683,782.9219 L792.9683,797.9219" fill="none" style="stroke:#181818;stroke-width:0.5;"/></g><g class="participant participant-head" data-entity-uid="part4" data-qualified-name="Patient" data-source-line="56" id="part4-head"><text fill="#000000" font-family="'Arial'" font-size="14" lengthAdjust="spacing" textLength="49.376" x="815.25" y="115.292">Patient</text><ellipse cx="842.938" cy="50.7969" fill="#A2AE64" fill-opacity="0.50980" rx="8" ry="8" style="stroke:#181818;stroke-width:0.5;"/><path d="M842.938,58.7969 L842.938,85.7969 M829.938,66.7969 L855.938,66.7969 M842.938,85.7969 L829.938,100.7969 M842.938,85.7969 L855.938,100.7969" fill="none" style="stroke:#181818;stroke-width:0.5;"/></g><g class="participant participant-tail" data-entity-uid="part4" data-qualified-name="Patient" data-source-line="56" id="part4-tail"><text fill="#000000" font-family="'Arial'" font-size="14" lengthAdjust="spacing" textLength="49.376" x="815.25" y="736.1201">Patient</text><ellipse cx="842.938" cy="747.9219" fill="#A2AE64" fill-opacity="0.50980" rx="8" ry="8" style="stroke:#181818;stroke-width:0.5;"/><path d="M842.938,755.9219 L842.938,782.9219 M829.938,763.9219 L855.938,763.9219 M842.938,782.9219 L829.938,797.9219 M842.938,782.9219 L855.938,797.9219" fill="none" style="stroke:#181818;stroke-width:0.5;"/></g><g><title>GDA 1</title><rect fill="#3588A7" fill-opacity="0.29804" height="521.1016" style="stroke:#181818;stroke-width:1;" width="10" x="117.2817" y="194.0234"/></g><g><title>e-Med FA</title><rect fill="#A14C37" fill-opacity="0.47059" height="391.0781" style="stroke:#181818;stroke-width:1;" width="10" x="482.8271" y="194.0234"/></g><rect fill="#EEEEEE" height="3" rx="5" ry="5" style="stroke:#EEEEEE;stroke-width:1;" width="875.626" x="0" y="149.7422"/><line style="stroke:#000000;stroke-width:1;" x1="0" x2="875.626" y1="149.7422" y2="149.7422"/><line style="stroke:#000000;stroke-width:1;" x1="0" x2="875.626" y1="152.7422" y2="152.7422"/><rect fill="#EEEEEE" height="24.2969" rx="5" ry="5" style="stroke:#000000;stroke-width:2;" width="216.2891" x="329.6685" y="138.5938"/><text fill="#000000" font-family="'Arial'" font-size="14" font-weight="700" lengthAdjust="spacing" textLength="197.415" x="335.6685" y="155.5889">Medikationsplan abrufen</text><g class="message" data-entity-1="part1" data-entity-2="part2" data-source-line="62" id="msg1"><polygon fill="#111827" points="470.8271,190.0234,480.8271,194.0234,470.8271,198.0234,474.8271,194.0234" style="stroke:#111827;stroke-width:1;stroke-linejoin:miter;stroke-miterlimit:10;"/><line style="stroke:#111827;stroke-width:1;" x1="127.2817" x2="476.8271" y1="194.0234" y2="194.0234"/><text fill="#000000" font-family="'Arial'" font-size="13" font-weight="700" lengthAdjust="spacing" textLength="9.0454" x="134.2817" y="188.9575">1</text><text fill="#000000" font-family="'Arial'" font-size="13" lengthAdjust="spacing" textLength="108.9893" x="147.3271" y="188.9575">POST $plan-read</text></g><path d="M5,212.0234 L5,244.0234 A5,5 0 0 0 10,249.0234 L232,249.0234 A5,5 0 0 0 237,244.0234 L237,217.0234 L227,207.0234 L10,207.0234 A5,5 0 0 0 5,212.0234" fill="url(#gg58j33ivv06v0)" filter="url(#fg58j33ivv06v)" style="stroke:#8B95A5;stroke-width:1;"/><path d="M227,207.0234 L227,214.5234 A2.5,2.5 0 0 0 229.5,217.0234 L237,217.0234 L227,207.0234" fill="url(#gg58j33ivv06v0)" style="stroke:#8B95A5;stroke-width:1;"/><text fill="#111827" font-family="'Arial'" font-size="14" lengthAdjust="spacing" textLength="177.9053" x="11" y="225.0186">Medikationsplan abrufen,</text><text fill="#111827" font-family="'Arial'" font-size="14" lengthAdjust="spacing" textLength="211.5859" x="11" y="241.3154">mit der Intention zu schreiben</text><g class="message" data-entity-1="part2" data-entity-2="part2" data-source-line="71" id="msg2"><line style="stroke:#111827;stroke-width:1;" x1="492.8271" x2="534.8271" y1="293.8828" y2="293.8828"/><line style="stroke:#111827;stroke-width:1;" x1="534.8271" x2="534.8271" y1="293.8828" y2="306.8828"/><line style="stroke:#111827;stroke-width:1;" x1="493.8271" x2="534.8271" y1="306.8828" y2="306.8828"/><polygon fill="#111827" points="503.8271,302.8828,493.8271,306.8828,503.8271,310.8828,499.8271,306.8828" style="stroke:#111827;stroke-width:1;stroke-linejoin:miter;stroke-miterlimit:10;"/><text fill="#000000" font-family="'Arial'" font-size="13" font-weight="700" lengthAdjust="spacing" textLength="9.0454" x="499.8271" y="281.2505">2</text><text fill="#000000" font-family="'Arial'" font-size="13" lengthAdjust="spacing" textLength="164.8613" x="512.8726" y="273.6841">Pr&#252;fung auf bestehenden</text><text fill="#000000" font-family="'Arial'" font-size="13" lengthAdjust="spacing" textLength="106.3169" x="512.8726" y="288.8169">Medikationsplan</text></g><path d="M92,321.8828 L152.9385,321.8828 L152.9385,330.1797 L142.9385,340.1797 L87,340.1797 L87,326.8828 A5,5 0 0 1 92,321.8828" fill="#EEF2FF" style="stroke:#111827;stroke-width:1.5;"/><rect fill="none" height="271.2188" rx="5" ry="5" style="stroke:#111827;stroke-width:2;" width="692.9683" x="87" y="321.8828"/><text fill="#000000" font-family="'Arial'" font-size="14" font-weight="700" lengthAdjust="spacing" textLength="20.9385" x="102" y="335.8779">alt</text><text fill="#000000" font-family="'Arial'" font-size="14" font-weight="700" lengthAdjust="spacing" textLength="232.832" x="167.9385" y="336.8779">[Medikationsplan vorhanden]</text><g class="message" data-entity-1="part2" data-entity-2="part2" data-source-line="74" id="msg3"><line style="stroke:#111827;stroke-width:1;" x1="492.8271" x2="534.8271" y1="423.1406" y2="423.1406"/><line style="stroke:#111827;stroke-width:1;" x1="534.8271" x2="534.8271" y1="423.1406" y2="436.1406"/><line style="stroke:#111827;stroke-width:1;" x1="493.8271" x2="534.8271" y1="436.1406" y2="436.1406"/><polygon fill="#111827" points="503.8271,432.1406,493.8271,436.1406,503.8271,440.1406,499.8271,436.1406" style="stroke:#111827;stroke-width:1;stroke-linejoin:miter;stroke-miterlimit:10;"/><text fill="#000000" font-family="'Arial'" font-size="13" font-weight="700" lengthAdjust="spacing" textLength="9.0454" x="499.8271" y="387.8091">3</text><text fill="#000000" font-family="'Arial'" font-size="13" lengthAdjust="spacing" textLength="242.0488" x="512.8726" y="357.5435">Stellt Auslieferungs-Medikationsplan-</text><text fill="#000000" font-family="'Arial'" font-size="13" lengthAdjust="spacing" textLength="161.0654" x="512.8726" y="372.6763">Collection-Bundle bereit:</text><text fill="#000000" font-family="'Arial'" font-size="13" lengthAdjust="spacing" textLength="74.3818" x="512.8726" y="387.8091">Bedingung:</text><text fill="#000000" font-family="'Arial'" font-size="13" lengthAdjust="spacing" textLength="187.897" x="512.8726" y="402.9419">- new|changed &#8594; unchanged</text><text fill="#000000" font-family="'Arial'" font-size="13" lengthAdjust="spacing" textLength="149.6143" x="512.8726" y="418.0747">- removed &#8594; entfernen</text></g><g class="message" data-entity-1="part2" data-entity-2="part1" data-source-line="75" id="msg4"><polygon fill="#111827" points="138.2817,476.4063,128.2817,480.4063,138.2817,484.4063,134.2817,480.4063" style="stroke:#111827;stroke-width:1;stroke-linejoin:miter;stroke-miterlimit:10;"/><line style="stroke:#111827;stroke-width:1;" x1="132.2817" x2="481.8271" y1="480.4063" y2="480.4063"/><text fill="#000000" font-family="'Arial'" font-size="13" font-weight="700" lengthAdjust="spacing" textLength="9.0454" x="144.2817" y="467.7739">4</text><text fill="#000000" font-family="'Arial'" font-size="13" lengthAdjust="spacing" textLength="318.5" x="157.3271" y="460.2075">Auslieferungs-Medikationsplan-Collection-Bundle</text><text fill="#000000" font-family="'Arial'" font-size="13" lengthAdjust="spacing" textLength="194.0288" x="157.3271" y="475.3403">+ ETag f&#252;r Optimistic Locking</text></g><line style="stroke:#111827;stroke-width:1;stroke-dasharray:2,2;" x1="87" x2="779.9683" y1="489.4063" y2="489.4063"/><text fill="#000000" font-family="'Arial'" font-size="14" font-weight="700" lengthAdjust="spacing" textLength="271.2773" x="92" y="502.4014">[kein Medikationsplan vorhanden]</text><g class="message" data-entity-1="part2" data-entity-2="part2" data-source-line="77" id="msg5"><line style="stroke:#111827;stroke-width:1;" x1="492.8271" x2="534.8271" y1="542.9688" y2="542.9688"/><line style="stroke:#111827;stroke-width:1;" x1="534.8271" x2="534.8271" y1="542.9688" y2="555.9688"/><line style="stroke:#111827;stroke-width:1;" x1="493.8271" x2="534.8271" y1="555.9688" y2="555.9688"/><polygon fill="#111827" points="503.8271,551.9688,493.8271,555.9688,503.8271,559.9688,499.8271,555.9688" style="stroke:#111827;stroke-width:1;stroke-linejoin:miter;stroke-miterlimit:10;"/><text fill="#000000" font-family="'Arial'" font-size="13" font-weight="700" lengthAdjust="spacing" textLength="9.0454" x="499.8271" y="530.3364">5</text><text fill="#000000" font-family="'Arial'" font-size="13" lengthAdjust="spacing" textLength="205.7402" x="512.8726" y="522.77">Erzeugt leeren Medikationsplan</text><text fill="#000000" font-family="'Arial'" font-size="13" lengthAdjust="spacing" textLength="240.9634" x="517.0049" y="537.9028">mit List.emptyReason = "notstarted"</text></g><g class="message" data-entity-1="part2" data-entity-2="part1" data-source-line="78" id="msg6"><polygon fill="#111827" points="138.2817,581.1016,128.2817,585.1016,138.2817,589.1016,134.2817,585.1016" style="stroke:#111827;stroke-width:1;stroke-linejoin:miter;stroke-miterlimit:10;"/><line style="stroke:#111827;stroke-width:1;" x1="132.2817" x2="486.8271" y1="585.1016" y2="585.1016"/><text fill="#000000" font-family="'Arial'" font-size="13" font-weight="700" lengthAdjust="spacing" textLength="9.0454" x="144.2817" y="580.0356">6</text><text fill="#000000" font-family="'Arial'" font-size="13" lengthAdjust="spacing" textLength="152.3755" x="157.3271" y="580.0356">Leerer Medikationsplan</text></g><g class="message" data-entity-1="part1" data-entity-2="part1" data-source-line="82" id="msg7"><line style="stroke:#111827;stroke-width:1;" x1="127.2817" x2="169.2817" y1="621.2344" y2="621.2344"/><line style="stroke:#111827;stroke-width:1;" x1="169.2817" x2="169.2817" y1="621.2344" y2="634.2344"/><line style="stroke:#111827;stroke-width:1;" x1="128.2817" x2="169.2817" y1="634.2344" y2="634.2344"/><polygon fill="#111827" points="138.2817,630.2344,128.2817,634.2344,138.2817,638.2344,134.2817,634.2344" style="stroke:#111827;stroke-width:1;stroke-linejoin:miter;stroke-miterlimit:10;"/><text fill="#000000" font-family="'Arial'" font-size="13" font-weight="700" lengthAdjust="spacing" textLength="9.0454" x="134.2817" y="616.1685">7</text><text fill="#000000" font-family="'Arial'" font-size="13" lengthAdjust="spacing" textLength="249.8438" x="147.3271" y="616.1685">Eintr&#228;ge hinzuf&#252;gen/&#228;ndern/entfernen</text></g><path d="M14,652.2344 L14,700.2344 A5,5 0 0 0 19,705.2344 L220,705.2344 A5,5 0 0 0 225,700.2344 L225,657.2344 L215,647.2344 L19,647.2344 A5,5 0 0 0 14,652.2344" fill="url(#gg58j33ivv06v0)" filter="url(#fg58j33ivv06v)" style="stroke:#8B95A5;stroke-width:1;"/><path d="M215,647.2344 L215,654.7344 A2.5,2.5 0 0 0 217.5,657.2344 L225,657.2344 L215,647.2344" fill="url(#gg58j33ivv06v0)" style="stroke:#8B95A5;stroke-width:1;"/><text fill="#111827" font-family="'Arial'" font-size="14" lengthAdjust="spacing" textLength="183.0869" x="20" y="665.2295">Nach der Bearbeitung des</text><text fill="#111827" font-family="'Arial'" font-size="14" lengthAdjust="spacing" textLength="186.498" x="20" y="681.5264">Medikationsplans kann ein</text><text fill="#111827" font-family="'Arial'" font-size="14" lengthAdjust="spacing" textLength="139.4531" x="20" y="697.8232">Plan-Write erfolgen.</text><?plantuml-src bLPTRkCs47xNAQPstrhjHh8LAm5SmDvLjejcOyDnKQ0m4D3Yo2OiKov99TsqVUq1UeOznhxb9Zr9X_8V9NkngFmYpNoSdsy-aZR2v0ZZd4b_Wenxdbu9kM6AhM5UA8xgJP4N2jeNrUDwMRfQgAAKV8V88ljp47h9UF4av08obcjqFBjbIgA2m0tACMDbRcuAQUxO6g4rK8BbhVE8U_6C47JFExzKzeyVDwXo8LSE84dE0NwMl7h1a_A7nUzZnhdjBBoesuSkPr7rk9JAmY3yuG4Cc-pX1KRPXT_c0R_2Iujm8yNpguX51-jqATALHAqX8Dl4OJEcxtrjDef3HH04STWZs_rXBaQLwFtb5gZnjn9bkYrop9GHgTWmQSxrLGUSoA5wwg3JmPouzqEjEHos0GPA5K_DdYfZdPRAT2xZmR7DrI7JEwfyK-ln47dhEXaNPc7LdRFoc3wqf7v3QhJgUJEw7KqUthqTF0JGxaHnp7hTz8mtX7RAugkKHLd3EnvCtoTtKsYpaE5bDmuR_i5u1ErkncCUHhpXIpuaRnzk1hGswAQTNYzk-XycoQ_9U6htxvo7MQ_N08n-siyol6okdKn64sZtiY0AeaxdArwFfOQesnB1DBJe3OAMou_dROv31_o0t9PkiUZJ1zmCMlMstA3X8MZe1Wttc34p0YciHUtUMtM22LcQGfRhEIhFw_U1SeeLGGkfDtH20fkhCaC9_RxdRVlmVzYNUGtZqVqKlhL0NzcZbDAAHqORVWkjzLaT1CKZxlZmlf3fU_3Mmj2vfk2zD5Gn0U2v19qk5OevIWybhquLxvXkprkTgRsrLh5w-PoLjB5OcS4SjS4bnKCvaurwA7fkZe9eLljOg2Mp2sb3dCjpRp2dzODIvm8pL9HI-uqW_apItienjHP_I5kDxYKQ10fpFPD3j0S0hQDt7oG-_PbInWLfuj-__u5IxhwiK-6QYDqwY35A9vk5LPnVVwMUasfcyZj8feokivVF2aOR8zP2arhXjaZf05ruIDT4JVmh5F9_avMePomN1dAava-MpoHOHTnIvbUutfYFT6jh4aKVMYG3RMZ_86-TRVVM1bJDW0JbsDIEbPKZyLs0H4YZNZuj49P2FfT4mmBbwvTFzgAKhuzSdwZxZgNBIiH3P6fE4xMQuwYXgNiDAoObMDgywZ_9BqhOgbHMv9JhrK7k_m40?></g></svg>