<svg xmlns="http://www.w3.org/2000/svg" xmlns:xlink="http://www.w3.org/1999/xlink" contentStyleType="text/css" data-diagram-type="SEQUENCE" height="1021px" preserveAspectRatio="none" style="width:991px;height:1021px;background:#F5F5F5;" version="1.1" viewBox="0 0 991 1021" width="991px" zoomAndPan="magnify"><?plantuml 1.2026.7beta1?><defs><linearGradient id="g1qi4vgcoiatav0" x1="50%" x2="50%" y1="0%" y2="100%"><stop offset="0%" stop-color="#E0E5F0"/><stop offset="100%" stop-color="#D1D9E6"/></linearGradient></defs><g><rect fill="#F5F5F5" height="1021" style="stroke:none;stroke-width:1;" width="991" x="0" y="0"/><g class="title" data-source-line="1"><text fill="#000000" font-family="'Arial'" font-size="14" font-weight="700" lengthAdjust="spacing" textLength="129.3223" x="427.832" y="27.9951">Plan-Write-Error</text></g><g><title>GDA 1</title><rect fill="#156082" fill-opacity="0.50196" height="674.5313" style="stroke:#181818;stroke-width:1;" width="10" x="150.2817" y="194.0234"/></g><g><title>e-Med FA</title><rect fill="#E97132" fill-opacity="0.50196" height="29.1328" style="stroke:#181818;stroke-width:1;" width="10" x="536.8208" y="194.0234"/></g><g><title>e-Med FA</title><rect fill="#E97132" fill-opacity="0.50196" height="29.1328" style="stroke:#181818;stroke-width:1;" width="10" x="536.8208" y="349.1797"/></g><g><title>e-Med FA</title><rect fill="#E97132" fill-opacity="0.50196" height="86.3984" style="stroke:#181818;stroke-width:1;" width="10" x="536.8208" y="519.4688"/></g><g><title>e-Med FA</title><rect fill="#E97132" fill-opacity="0.50196" height="152.9609" style="stroke:#181818;stroke-width:1;" width="10" x="536.8208" y="715.5938"/></g><g><title>GDA 2</title><rect fill="#96607D" fill-opacity="0.50196" height="256.6875" style="stroke:#181818;stroke-width:1;" width="10" x="825.7881" y="349.1797"/></g><g class="participant-lifeline" data-entity-uid="part1" data-qualified-name="GDA_1" data-source-line="52" id="part1-lifeline"><g><title>GDA 1</title><rect fill="#000000" fill-opacity="0.00000" height="820.5547" width="8" x="151.2817" y="118.5938"/><line style="stroke:#181818;stroke-width:0.5;stroke-dasharray:5,5;" x1="155" x2="155" y1="118.5938" y2="939.1484"/></g></g><g class="participant-lifeline" data-entity-uid="part2" data-qualified-name="eMed_FA" data-source-line="53" id="part2-lifeline"><g><title>e-Med FA</title><rect fill="#000000" fill-opacity="0.00000" height="820.5547" width="8" x="537.8208" y="118.5938"/><line style="stroke:#181818;stroke-width:0.5;stroke-dasharray:5,5;" x1="541.1587" x2="541.1587" y1="118.5938" y2="939.1484"/></g></g><g class="participant-lifeline" data-entity-uid="part3" data-qualified-name="GDA_2" data-source-line="54" id="part3-lifeline"><g><title>GDA 2</title><rect fill="#000000" fill-opacity="0.00000" height="820.5547" width="8" x="826.7881" y="118.5938"/><line style="stroke:#181818;stroke-width:0.5;stroke-dasharray:5,5;" x1="830.5063" x2="830.5063" y1="118.5938" y2="939.1484"/></g></g><g class="participant-lifeline" data-entity-uid="part4" data-qualified-name="Patient" data-source-line="55" id="part4-lifeline"><g><title>Patient</title><rect fill="#000000" fill-opacity="0.00000" height="820.5547" width="8" x="889.7578" y="118.5938"/><line style="stroke:#181818;stroke-width:0.5;stroke-dasharray:5,5;" x1="893.0698" x2="893.0698" y1="118.5938" y2="939.1484"/></g></g><g class="participant participant-head" data-entity-uid="part1" data-qualified-name="GDA_1" data-source-line="52" id="part1-head"><text fill="#000000" font-family="'Arial'" font-size="14" lengthAdjust="spacing" textLength="44.5635" x="130" y="115.292">GDA 1</text><ellipse cx="155.2817" cy="50.7969" fill="#156082" fill-opacity="0.50196" rx="8" ry="8" style="stroke:#181818;stroke-width:0.5;"/><path d="M155.2817,58.7969 L155.2817,85.7969 M142.2817,66.7969 L168.2817,66.7969 M155.2817,85.7969 L142.2817,100.7969 M155.2817,85.7969 L168.2817,100.7969" fill="none" style="stroke:#181818;stroke-width:0.5;"/></g><g class="participant participant-tail" data-entity-uid="part1" data-qualified-name="GDA_1" data-source-line="52" id="part1-tail"><text fill="#000000" font-family="'Arial'" font-size="14" lengthAdjust="spacing" textLength="44.5635" x="130" y="951.1436">GDA 1</text><ellipse cx="155.2817" cy="962.9453" fill="#156082" fill-opacity="0.50196" rx="8" ry="8" style="stroke:#181818;stroke-width:0.5;"/><path d="M155.2817,970.9453 L155.2817,997.9453 M142.2817,978.9453 L168.2817,978.9453 M155.2817,997.9453 L142.2817,1012.9453 M155.2817,997.9453 L168.2817,1012.9453" fill="none" style="stroke:#181818;stroke-width:0.5;"/></g><g class="participant participant-head" data-entity-uid="part2" data-qualified-name="eMed_FA" data-source-line="53" id="part2-head"><rect fill="#E97132" fill-opacity="0.50196" height="30.2969" rx="5" ry="5" style="stroke:#555555;stroke-width:0.5;" width="79.3242" x="502.1587" y="87.2969"/><text fill="#000000" font-family="'Arial'" font-size="14" lengthAdjust="spacing" textLength="65.3242" x="509.1587" y="107.292">e-Med FA</text></g><g class="participant participant-tail" data-entity-uid="part2" data-qualified-name="eMed_FA" data-source-line="53" id="part2-tail"><rect fill="#E97132" fill-opacity="0.50196" height="30.2969" rx="5" ry="5" style="stroke:#555555;stroke-width:0.5;" width="79.3242" x="502.1587" y="938.1484"/><text fill="#000000" font-family="'Arial'" font-size="14" lengthAdjust="spacing" textLength="65.3242" x="509.1587" y="958.1436">e-Med FA</text></g><g class="participant participant-head" data-entity-uid="part3" data-qualified-name="GDA_2" data-source-line="54" id="part3-head"><text fill="#000000" font-family="'Arial'" font-size="14" lengthAdjust="spacing" textLength="44.5635" x="805.5063" y="115.292">GDA 2</text><ellipse cx="830.7881" cy="50.7969" fill="#96607D" fill-opacity="0.50196" rx="8" ry="8" style="stroke:#181818;stroke-width:0.5;"/><path d="M830.7881,58.7969 L830.7881,85.7969 M817.7881,66.7969 L843.7881,66.7969 M830.7881,85.7969 L817.7881,100.7969 M830.7881,85.7969 L843.7881,100.7969" fill="none" style="stroke:#181818;stroke-width:0.5;"/></g><g class="participant participant-tail" data-entity-uid="part3" data-qualified-name="GDA_2" data-source-line="54" id="part3-tail"><text fill="#000000" font-family="'Arial'" font-size="14" lengthAdjust="spacing" textLength="44.5635" x="805.5063" y="951.1436">GDA 2</text><ellipse cx="830.7881" cy="962.9453" fill="#96607D" fill-opacity="0.50196" rx="8" ry="8" style="stroke:#181818;stroke-width:0.5;"/><path d="M830.7881,970.9453 L830.7881,997.9453 M817.7881,978.9453 L843.7881,978.9453 M830.7881,997.9453 L817.7881,1012.9453 M830.7881,997.9453 L843.7881,1012.9453" fill="none" style="stroke:#181818;stroke-width:0.5;"/></g><g class="participant participant-head" data-entity-uid="part4" data-qualified-name="Patient" data-source-line="55" id="part4-head"><text fill="#000000" font-family="'Arial'" font-size="14" lengthAdjust="spacing" textLength="49.376" x="866.0698" y="115.292">Patient</text><ellipse cx="893.7578" cy="50.7969" fill="#196B24" fill-opacity="0.50196" rx="8" ry="8" style="stroke:#181818;stroke-width:0.5;"/><path d="M893.7578,58.7969 L893.7578,85.7969 M880.7578,66.7969 L906.7578,66.7969 M893.7578,85.7969 L880.7578,100.7969 M893.7578,85.7969 L906.7578,100.7969" fill="none" style="stroke:#181818;stroke-width:0.5;"/></g><g class="participant participant-tail" data-entity-uid="part4" data-qualified-name="Patient" data-source-line="55" id="part4-tail"><text fill="#000000" font-family="'Arial'" font-size="14" lengthAdjust="spacing" textLength="49.376" x="866.0698" y="951.1436">Patient</text><ellipse cx="893.7578" cy="962.9453" fill="#196B24" fill-opacity="0.50196" rx="8" ry="8" style="stroke:#181818;stroke-width:0.5;"/><path d="M893.7578,970.9453 L893.7578,997.9453 M880.7578,978.9453 L906.7578,978.9453 M893.7578,997.9453 L880.7578,1012.9453 M893.7578,997.9453 L906.7578,1012.9453" fill="none" style="stroke:#181818;stroke-width:0.5;"/></g><g><title>GDA 1</title><rect fill="#156082" fill-opacity="0.50196" height="674.5313" style="stroke:#181818;stroke-width:1;" width="10" x="150.2817" y="194.0234"/></g><g><title>e-Med FA</title><rect fill="#E97132" fill-opacity="0.50196" height="29.1328" style="stroke:#181818;stroke-width:1;" width="10" x="536.8208" y="194.0234"/></g><g><title>e-Med FA</title><rect fill="#E97132" fill-opacity="0.50196" height="29.1328" style="stroke:#181818;stroke-width:1;" width="10" x="536.8208" y="349.1797"/></g><g><title>e-Med FA</title><rect fill="#E97132" fill-opacity="0.50196" height="86.3984" style="stroke:#181818;stroke-width:1;" width="10" x="536.8208" y="519.4688"/></g><g><title>e-Med FA</title><rect fill="#E97132" fill-opacity="0.50196" height="152.9609" style="stroke:#181818;stroke-width:1;" width="10" x="536.8208" y="715.5938"/></g><g><title>GDA 2</title><rect fill="#96607D" fill-opacity="0.50196" height="256.6875" style="stroke:#181818;stroke-width:1;" width="10" x="825.7881" y="349.1797"/></g><rect fill="#EEEEEE" height="3" rx="5" ry="5" style="stroke:#EEEEEE;stroke-width:1;" width="985.9863" x="0" y="149.7422"/><line style="stroke:#000000;stroke-width:1;" x1="0" x2="985.9863" y1="149.7422" y2="149.7422"/><line style="stroke:#000000;stroke-width:1;" x1="0" x2="985.9863" y1="152.7422" y2="152.7422"/><rect fill="#EEEEEE" height="24.2969" rx="5" ry="5" style="stroke:#000000;stroke-width:2;" width="202.3711" x="391.8076" y="138.5938"/><text fill="#000000" font-family="'Arial'" font-size="14" font-weight="700" lengthAdjust="spacing" textLength="183.4971" x="397.8076" y="155.5889">Plan-Read durch GDA 1</text><g class="message" data-entity-1="part1" data-entity-2="part2" data-source-line="61" id="msg1"><polygon fill="#111827" points="524.8208,190.0234,534.8208,194.0234,524.8208,198.0234,528.8208,194.0234" style="stroke:#111827;stroke-width:1;stroke-linejoin:miter;stroke-miterlimit:10;"/><line style="stroke:#111827;stroke-width:1;" x1="160.2817" x2="530.8208" y1="194.0234" y2="194.0234"/><text fill="#000000" font-family="'Arial'" font-size="13" font-weight="700" lengthAdjust="spacing" textLength="9.0454" x="167.2817" y="188.9575">1</text><text fill="#000000" font-family="'Arial'" font-size="13" lengthAdjust="spacing" textLength="108.9893" x="180.3271" y="188.9575">POST $plan-read</text></g><g class="message" data-entity-1="part2" data-entity-2="part1" data-source-line="65" id="msg2"><polygon fill="#111827" points="171.2817,219.1563,161.2817,223.1563,171.2817,227.1563,167.2817,223.1563" style="stroke:#111827;stroke-width:1;stroke-linejoin:miter;stroke-miterlimit:10;"/><line style="stroke:#111827;stroke-width:1;" x1="165.2817" x2="540.8208" y1="223.1563" y2="223.1563"/><text fill="#000000" font-family="'Arial'" font-size="13" font-weight="700" lengthAdjust="spacing" textLength="9.0454" x="177.2817" y="218.0903">2</text><text fill="#000000" font-family="'Arial'" font-size="13" lengthAdjust="spacing" textLength="206.1274" x="190.3271" y="218.0903">Collection Bundle + ETag "123"</text></g><path d="M5,241.1563 L5,273.1563 A5,5 0 0 0 10,278.1563 L300,278.1563 A5,5 0 0 0 305,273.1563 L305,246.1563 L295,236.1563 L10,236.1563 A5,5 0 0 0 5,241.1563" fill="url(#g1qi4vgcoiatav0)" style="stroke:#8B95A5;stroke-width:1;"/><path d="M295,236.1563 L295,243.6563 A2.5,2.5 0 0 0 297.5,246.1563 L305,246.1563 L295,236.1563" fill="url(#g1qi4vgcoiatav0)" style="stroke:#8B95A5;stroke-width:1;"/><text fill="#111827" font-family="'Arial'" font-size="14" lengthAdjust="spacing" textLength="240.7754" x="11" y="254.1514">GDA 1 bearbeitet Medikationsplan</text><text fill="#111827" font-family="'Arial'" font-size="14" lengthAdjust="spacing" textLength="279.9863" x="11" y="270.4482">(Eintr&#228;ge hinzuf&#252;gen/&#228;ndern/entfernen)</text><rect fill="#EEEEEE" height="3" rx="5" ry="5" style="stroke:#EEEEEE;stroke-width:1;" width="985.9863" x="0" y="304.8984"/><line style="stroke:#000000;stroke-width:1;" x1="0" x2="985.9863" y1="304.8984" y2="304.8984"/><line style="stroke:#000000;stroke-width:1;" x1="0" x2="985.9863" y1="307.8984" y2="307.8984"/><rect fill="#EEEEEE" height="24.2969" rx="5" ry="5" style="stroke:#000000;stroke-width:2;" width="202.3711" x="391.8076" y="293.75"/><text fill="#000000" font-family="'Arial'" font-size="14" font-weight="700" lengthAdjust="spacing" textLength="183.4971" x="397.8076" y="310.7451">Plan-Read durch GDA 2</text><g class="message" data-entity-1="part3" data-entity-2="part2" data-source-line="75" id="msg3"><polygon fill="#111827" points="557.8208,345.1797,547.8208,349.1797,557.8208,353.1797,553.8208,349.1797" style="stroke:#111827;stroke-width:1;stroke-linejoin:miter;stroke-miterlimit:10;"/><line style="stroke:#111827;stroke-width:1;" x1="551.8208" x2="824.7881" y1="349.1797" y2="349.1797"/><text fill="#000000" font-family="'Arial'" font-size="13" font-weight="700" lengthAdjust="spacing" textLength="9.0454" x="563.8208" y="344.1138">3</text><text fill="#000000" font-family="'Arial'" font-size="13" lengthAdjust="spacing" textLength="108.9893" x="576.8662" y="344.1138">POST $plan-read</text></g><g class="message" data-entity-1="part2" data-entity-2="part3" data-source-line="80" id="msg4"><polygon fill="#111827" points="813.7881,374.3125,823.7881,378.3125,813.7881,382.3125,817.7881,378.3125" style="stroke:#111827;stroke-width:1;stroke-linejoin:miter;stroke-miterlimit:10;"/><line style="stroke:#111827;stroke-width:1;" x1="541.8208" x2="819.7881" y1="378.3125" y2="378.3125"/><text fill="#000000" font-family="'Arial'" font-size="13" font-weight="700" lengthAdjust="spacing" textLength="9.0454" x="548.8208" y="373.2466">4</text><text fill="#000000" font-family="'Arial'" font-size="13" lengthAdjust="spacing" textLength="206.1274" x="561.8662" y="373.2466">Collection Bundle + ETag "123"</text></g><path d="M680,396.3125 L680,428.3125 A5,5 0 0 0 685,433.3125 L975,433.3125 A5,5 0 0 0 980,428.3125 L980,401.3125 L970,391.3125 L685,391.3125 A5,5 0 0 0 680,396.3125" fill="url(#g1qi4vgcoiatav0)" style="stroke:#8B95A5;stroke-width:1;"/><path d="M970,391.3125 L970,398.8125 A2.5,2.5 0 0 0 972.5,401.3125 L980,401.3125 L970,391.3125" fill="url(#g1qi4vgcoiatav0)" style="stroke:#8B95A5;stroke-width:1;"/><text fill="#111827" font-family="'Arial'" font-size="14" lengthAdjust="spacing" textLength="240.7754" x="686" y="409.3076">GDA 2 bearbeitet Medikationsplan</text><text fill="#111827" font-family="'Arial'" font-size="14" lengthAdjust="spacing" textLength="279.9863" x="686" y="425.6045">(Eintr&#228;ge hinzuf&#252;gen/&#228;ndern/entfernen)</text><rect fill="#EEEEEE" height="3" rx="5" ry="5" style="stroke:#EEEEEE;stroke-width:1;" width="985.9863" x="0" y="460.0547"/><line style="stroke:#000000;stroke-width:1;" x1="0" x2="985.9863" y1="460.0547" y2="460.0547"/><line style="stroke:#000000;stroke-width:1;" x1="0" x2="985.9863" y1="463.0547" y2="463.0547"/><rect fill="#EEEEEE" height="24.2969" rx="5" ry="5" style="stroke:#000000;stroke-width:2;" width="205.96" x="390.0132" y="448.9063"/><text fill="#000000" font-family="'Arial'" font-size="14" font-weight="700" lengthAdjust="spacing" textLength="187.0859" x="396.0132" y="465.9014">Plan-Write durch GDA 2</text><g class="message" data-entity-1="part3" data-entity-2="part2" data-source-line="90" id="msg5"><polygon fill="#111827" points="557.8208,515.4688,547.8208,519.4688,557.8208,523.4688,553.8208,519.4688" style="stroke:#111827;stroke-width:1;stroke-linejoin:miter;stroke-miterlimit:10;"/><line style="stroke:#111827;stroke-width:1;" x1="551.8208" x2="824.7881" y1="519.4688" y2="519.4688"/><text fill="#000000" font-family="'Arial'" font-size="13" font-weight="700" lengthAdjust="spacing" textLength="9.0454" x="563.8208" y="506.8364">5</text><text fill="#000000" font-family="'Arial'" font-size="13" lengthAdjust="spacing" textLength="197.5962" x="576.8662" y="499.27">POST $plan-write (Transaction</text><text fill="#000000" font-family="'Arial'" font-size="13" lengthAdjust="spacing" textLength="142.7651" x="576.8662" y="514.4028">Bundle + ETag "123")</text></g><g class="message" data-entity-1="part2" data-entity-2="part2" data-source-line="93" id="msg6"><line style="stroke:#111827;stroke-width:1;" x1="546.8208" x2="588.8208" y1="563.7344" y2="563.7344"/><line style="stroke:#111827;stroke-width:1;" x1="588.8208" x2="588.8208" y1="563.7344" y2="576.7344"/><line style="stroke:#111827;stroke-width:1;" x1="547.8208" x2="588.8208" y1="576.7344" y2="576.7344"/><polygon fill="#111827" points="557.8208,572.7344,547.8208,576.7344,557.8208,580.7344,553.8208,576.7344" style="stroke:#111827;stroke-width:1;stroke-linejoin:miter;stroke-miterlimit:10;"/><text fill="#000000" font-family="'Arial'" font-size="13" font-weight="700" lengthAdjust="spacing" textLength="9.0454" x="553.8208" y="551.1021">6</text><text fill="#000000" font-family="'Arial'" font-size="13" lengthAdjust="spacing" textLength="171.0693" x="566.8662" y="543.5356">ETag "123" im Header ==</text><text fill="#000000" font-family="'Arial'" font-size="13" lengthAdjust="spacing" textLength="210.0249" x="566.8662" y="558.6685">ETag der Fachanwendung "123"</text></g><g class="message" data-entity-1="part2" data-entity-2="part3" data-source-line="94" id="msg7"><polygon fill="#111827" points="818.7881,601.8672,828.7881,605.8672,818.7881,609.8672,822.7881,605.8672" style="stroke:#111827;stroke-width:1;stroke-linejoin:miter;stroke-miterlimit:10;"/><line style="stroke:#111827;stroke-width:1;stroke-dasharray:2,2;" x1="541.8208" x2="824.7881" y1="605.8672" y2="605.8672"/><text fill="#000000" font-family="'Arial'" font-size="13" font-weight="700" lengthAdjust="spacing" textLength="9.0454" x="548.8208" y="600.8013">7</text><text fill="#000000" font-family="'Arial'" font-size="13" lengthAdjust="spacing" textLength="18.7573" x="561.8662" y="600.8013">OK</text></g><path d="M359,623.8672 L359,639.8672 A5,5 0 0 0 364,644.8672 L718,644.8672 A5,5 0 0 0 723,639.8672 L723,628.8672 L713,618.8672 L364,618.8672 A5,5 0 0 0 359,623.8672" fill="url(#g1qi4vgcoiatav0)" style="stroke:#8B95A5;stroke-width:1;"/><path d="M713,618.8672 L713,626.3672 A2.5,2.5 0 0 0 715.5,628.8672 L723,628.8672 L713,618.8672" fill="url(#g1qi4vgcoiatav0)" style="stroke:#8B95A5;stroke-width:1;"/><text fill="#111827" font-family="'Arial'" font-size="14" lengthAdjust="spacing" textLength="343.4238" x="365" y="636.8623">Medikationsplan wurde durch GDA 2 aktualisiert.</text><rect fill="#EEEEEE" height="3" rx="5" ry="5" style="stroke:#EEEEEE;stroke-width:1;" width="985.9863" x="0" y="671.3125"/><line style="stroke:#000000;stroke-width:1;" x1="0" x2="985.9863" y1="671.3125" y2="671.3125"/><line style="stroke:#000000;stroke-width:1;" x1="0" x2="985.9863" y1="674.3125" y2="674.3125"/><rect fill="#EEEEEE" height="24.2969" rx="5" ry="5" style="stroke:#000000;stroke-width:2;" width="229.4688" x="378.2588" y="660.1641"/><text fill="#000000" font-family="'Arial'" font-size="14" font-weight="700" lengthAdjust="spacing" textLength="210.5947" x="384.2588" y="677.1592">Plan-Write-Error f&#252;r GDA 1</text><g class="message" data-entity-1="part1" data-entity-2="part2" data-source-line="105" id="msg8"><polygon fill="#111827" points="524.8208,711.5938,534.8208,715.5938,524.8208,719.5938,528.8208,715.5938" style="stroke:#111827;stroke-width:1;stroke-linejoin:miter;stroke-miterlimit:10;"/><line style="stroke:#111827;stroke-width:1;" x1="160.2817" x2="530.8208" y1="715.5938" y2="715.5938"/><text fill="#000000" font-family="'Arial'" font-size="13" font-weight="700" lengthAdjust="spacing" textLength="9.0454" x="167.2817" y="710.5278">8</text><text fill="#000000" font-family="'Arial'" font-size="13" lengthAdjust="spacing" textLength="344.4937" x="180.3271" y="710.5278">POST $plan-write (Transaction Bundle + ETag "123")</text></g><g class="message" data-entity-1="part2" data-entity-2="part2" data-source-line="108" id="msg9"><line style="stroke:#111827;stroke-width:1;" x1="546.8208" x2="588.8208" y1="790.125" y2="790.125"/><line style="stroke:#111827;stroke-width:1;" x1="588.8208" x2="588.8208" y1="790.125" y2="803.125"/><line style="stroke:#111827;stroke-width:1;" x1="547.8208" x2="588.8208" y1="803.125" y2="803.125"/><polygon fill="#111827" points="557.8208,799.125,547.8208,803.125,557.8208,807.125,553.8208,803.125" style="stroke:#111827;stroke-width:1;stroke-linejoin:miter;stroke-miterlimit:10;"/><text fill="#000000" font-family="'Arial'" font-size="13" font-weight="700" lengthAdjust="spacing" textLength="9.0454" x="553.8208" y="762.3599">9</text><text fill="#000000" font-family="'Arial'" font-size="13" lengthAdjust="spacing" textLength="231.6577" x="566.8662" y="739.6606">ETag im Header "123" stimmt nicht</text><text fill="#000000" font-family="'Arial'" font-size="13" lengthAdjust="spacing" textLength="194.6255" x="566.8662" y="754.7935">mit ETag der Fachanwendung</text><text fill="#000000" font-family="'Arial'" font-size="13" lengthAdjust="spacing" textLength="241.9219" x="566.8662" y="769.9263">&#252;berein, da er bereits zum Schreiben</text><text fill="#000000" font-family="'Arial'" font-size="13" lengthAdjust="spacing" textLength="113.8516" x="566.8662" y="785.0591">verwendet wurde</text></g><path d="M405,821.125 L405,837.125 A5,5 0 0 0 410,842.125 L672,842.125 A5,5 0 0 0 677,837.125 L677,826.125 L667,816.125 L410,816.125 A5,5 0 0 0 405,821.125" fill="url(#g1qi4vgcoiatav0)" style="stroke:#8B95A5;stroke-width:1;"/><path d="M667,816.125 L667,823.625 A2.5,2.5 0 0 0 669.5,826.125 L677,826.125 L667,816.125" fill="url(#g1qi4vgcoiatav0)" style="stroke:#8B95A5;stroke-width:1;"/><text fill="#111827" font-family="'Arial'" font-size="14" lengthAdjust="spacing" textLength="251.7539" x="411" y="834.1201">Fachanwendung lehnt Speichern ab</text><g class="message" data-entity-1="part2" data-entity-2="part1" data-source-line="112" id="msg10"><polygon fill="#111827" points="166.2817,864.5547,156.2817,868.5547,166.2817,872.5547,162.2817,868.5547" style="stroke:#111827;stroke-width:1;stroke-linejoin:miter;stroke-miterlimit:10;"/><line style="stroke:#111827;stroke-width:1;stroke-dasharray:2,2;" x1="160.2817" x2="540.8208" y1="868.5547" y2="868.5547"/><text fill="#000000" font-family="'Arial'" font-size="13" font-weight="700" lengthAdjust="spacing" textLength="18.0908" x="172.2817" y="863.4888">10</text><text fill="#000000" font-family="'Arial'" font-size="13" lengthAdjust="spacing" textLength="104.0889" x="194.3726" y="863.4888">Fehler (Konflikt)</text></g><path d="M125,886.5547 L125,918.5547 A5,5 0 0 0 130,923.5547 L566,923.5547 A5,5 0 0 0 571,918.5547 L571,891.5547 L561,881.5547 L130,881.5547 A5,5 0 0 0 125,886.5547" fill="url(#g1qi4vgcoiatav0)" style="stroke:#8B95A5;stroke-width:1;"/><path d="M561,881.5547 L561,889.0547 A2.5,2.5 0 0 0 563.5,891.5547 L571,891.5547 L561,881.5547" fill="url(#g1qi4vgcoiatav0)" style="stroke:#8B95A5;stroke-width:1;"/><text fill="#111827" font-family="'Arial'" font-size="14" lengthAdjust="spacing" textLength="353.2061" x="164.9133" y="899.5498">Speichern des Medikationsplans wurde abgelehnt,</text><text fill="#111827" font-family="'Arial'" font-size="14" lengthAdjust="spacing" textLength="341.0176" x="164.9133" y="915.8467">der GDA 1 muss ein neues Plan-Read ausf&#252;hren.</text><?plantuml-src jPR_Zjf64CV_zrDC8LBlr2EnVGTtHA8It9cqIXCGK4MgJZejU80LPatNwz1SrRV9O-I_Ux7EhW6lVoHDfDJtnzaxtvsT-SnuZE8gGXX7JBJUIQwm5KWPIyVvCTbmiMEIRO4jL2odwWFfs1wJU8kEarldiGnHtiPHBA7fciksiiLc9UDKX0V5igt_B4MoPc6yvs85InObQ5aEswH02PxjDCGbIoCrZ8LwoxO8ZRxaB6hKAwRy4S6xgZT-BknVFknGHbniB44Gr0b-5w6vmKhuW_YlCGj3dPdl5jS7DhEskMoa8bO8Vpi0Wp8zTB6zT5lDq0kxsD4AszFDlDjcxTFgRCqN6u590XwjJIoQBZqVOzDUB1IUvzturxGsBTNb7pl21FzCKIooACTCAhxWEoPKNM95GQKVp5KKLIjJCH-hMZ1Ok07wrCVxSb9ciSZ5BDMTU39aPrtIqYkAV5V8yUGvCrNgXKlVP6Vjp8_tDTGVg1rr-zoEVXjD7bxTzHyyeAlfjJlkZN_ZrWXy8-XsEkxrNKKmxiz-3TxEj8TkP-1VLGJzyGZCrNI7tU2ktIqBWZV1tSEmJuAWU-rTLcC87YR17y5u1irRj-rUwHXAYj5hA9pXjyik9fFHn0YoCoxf1J1p1Z82B846tO7NiC4ukxpOW6ymr65gARRe0ORzHZ45owL_SkdRBls3PCmKHtAgHOVxHX4enPUgMAJREKe7d5ul6veJP264gLoimSGBlPxZP3cqVZx6-1B6e-aCdktq3aaxzAdyFQFNF9FQEUQsOuR5d8whvDviU0dKR17IfbZ0W7gFvlHF4CpO2XgUVzbmGYnxT1mpOkBtUE3jPB7FaSavqbT00GdvXccVYOxQEGkuKFBfumfXpSLZkdpwj4BnukcZdd_Y1V5QqdyKvmwAq4mmvtEC_1CZ_-iP-OMY_HUZCYJ_Eq3odIpu_mcI-Vf-6wMzsN8saqmapAHsBsfoE_-MbZgTa-y7JjyxAWXnwFNkXJ7eXo5Rh9dOKogfE68yUSh1qoomwHuAcBCzuYx1X7rAqx80X6rKoYAUS9JgkOMmhdO5hDcF6g1ooAzzIwjiuVkYpQ5ca1F5jri5WY_MwbvikO9wqFVYwHED8EJY0a86P3PFAe77T0lJnPeUvaYTG6pr5cfJGxA6UB604Qvf04vtI15GbmARvuZBPQMXCyHrHBxENiTY6V6DEYyNsQkUU74mv8U4c9JVekHGUJPVeOdfGlVFiN3Rb3wSb3m8J6blFbzOcb1zANlnvTRu5m00?></g></svg>