<svg xmlns="http://www.w3.org/2000/svg" xmlns:xlink="http://www.w3.org/1999/xlink" contentStyleType="text/css" data-diagram-type="SEQUENCE" height="530px" preserveAspectRatio="none" style="width:724px;height:530px;background:#F5F5F5;" version="1.1" viewBox="0 0 724 530" width="724px" zoomAndPan="magnify"><?plantuml 1.2026.7beta1?><defs><linearGradient id="g1vh4lst31bwtb0" x1="50%" x2="50%" y1="0%" y2="100%"><stop offset="0%" stop-color="#E0E5F0"/><stop offset="100%" stop-color="#D1D9E6"/></linearGradient></defs><g><rect fill="#F5F5F5" height="530" style="stroke:none;stroke-width:1;" width="724" x="0" y="0"/><g class="title" data-source-line="1"><text fill="#000000" font-family="'Arial'" font-size="14" font-weight="700" lengthAdjust="spacing" textLength="143.0283" x="287.2417" y="27.9951">Plan-History-Read</text></g><g><title>GDA 1</title><rect fill="#156082" fill-opacity="0.50196" height="160.4219" style="stroke:#181818;stroke-width:1;" width="10" x="113.2817" y="194.0234"/></g><g><title>e-Med FA</title><rect fill="#E97132" fill-opacity="0.50196" height="160.4219" style="stroke:#181818;stroke-width:1;" width="10" x="405.9473" y="194.0234"/></g><rect fill="#0F9ED5" fill-opacity="0.14510" height="96.1563" rx="5" ry="5" style="stroke:#111827;stroke-width:2;" width="377.6094" x="83" y="266.2891"/><path d="M83,315.0156 L460.6094,315.0156 L460.6094,357.4453 A5,5 0 0 1 455.6094,362.4453 L88,362.4453 A5,5 0 0 1 83,357.4453 L83,315.0156" fill="#E97132" fill-opacity="0.20784" style="stroke:none;stroke-width:1;"/><g class="participant-lifeline" data-entity-uid="part1" data-qualified-name="GDA_1" data-source-line="53" id="part1-lifeline"><g><title>GDA 1</title><rect fill="#000000" fill-opacity="0.00000" height="329.7422" width="8" x="114.2817" y="118.5938"/><line style="stroke:#181818;stroke-width:0.5;stroke-dasharray:5,5;" x1="118" x2="118" y1="118.5938" y2="448.3359"/></g></g><g class="participant-lifeline" data-entity-uid="part2" data-qualified-name="eMed_FA" data-source-line="54" id="part2-lifeline"><g><title>e-Med FA</title><rect fill="#000000" fill-opacity="0.00000" height="329.7422" width="8" x="406.9473" y="118.5938"/><line style="stroke:#181818;stroke-width:0.5;stroke-dasharray:5,5;" x1="410.2852" x2="410.2852" y1="118.5938" y2="448.3359"/></g></g><g class="participant-lifeline" data-entity-uid="part3" data-qualified-name="GDA_2" data-source-line="55" id="part3-lifeline"><g><title>GDA 2</title><rect fill="#000000" fill-opacity="0.00000" height="329.7422" width="8" x="618.854" y="118.5938"/><line style="stroke:#181818;stroke-width:0.5;stroke-dasharray:5,5;" x1="622.5723" x2="622.5723" y1="118.5938" y2="448.3359"/></g></g><g class="participant-lifeline" data-entity-uid="part4" data-qualified-name="Patient" data-source-line="56" id="part4-lifeline"><g><title>Patient</title><rect fill="#000000" fill-opacity="0.00000" height="329.7422" width="8" x="681.8237" y="118.5938"/><line style="stroke:#181818;stroke-width:0.5;stroke-dasharray:5,5;" x1="685.1357" x2="685.1357" y1="118.5938" y2="448.3359"/></g></g><g class="participant participant-head" data-entity-uid="part1" data-qualified-name="GDA_1" data-source-line="53" id="part1-head"><text fill="#000000" font-family="'Arial'" font-size="14" lengthAdjust="spacing" textLength="44.5635" x="93" y="115.292">GDA 1</text><ellipse cx="118.2817" cy="50.7969" fill="#156082" fill-opacity="0.50196" rx="8" ry="8" style="stroke:#181818;stroke-width:0.5;"/><path d="M118.2817,58.7969 L118.2817,85.7969 M105.2817,66.7969 L131.2817,66.7969 M118.2817,85.7969 L105.2817,100.7969 M118.2817,85.7969 L131.2817,100.7969" fill="none" style="stroke:#181818;stroke-width:0.5;"/></g><g class="participant participant-tail" data-entity-uid="part1" data-qualified-name="GDA_1" data-source-line="53" id="part1-tail"><text fill="#000000" font-family="'Arial'" font-size="14" lengthAdjust="spacing" textLength="44.5635" x="93" y="460.3311">GDA 1</text><ellipse cx="118.2817" cy="472.1328" fill="#156082" fill-opacity="0.50196" rx="8" ry="8" style="stroke:#181818;stroke-width:0.5;"/><path d="M118.2817,480.1328 L118.2817,507.1328 M105.2817,488.1328 L131.2817,488.1328 M118.2817,507.1328 L105.2817,522.1328 M118.2817,507.1328 L131.2817,522.1328" fill="none" style="stroke:#181818;stroke-width:0.5;"/></g><g class="participant participant-head" data-entity-uid="part2" data-qualified-name="eMed_FA" data-source-line="54" id="part2-head"><rect fill="#E97132" fill-opacity="0.50196" height="30.2969" rx="5" ry="5" style="stroke:#555555;stroke-width:0.5;" width="79.3242" x="371.2852" y="87.2969"/><text fill="#000000" font-family="'Arial'" font-size="14" lengthAdjust="spacing" textLength="65.3242" x="378.2852" y="107.292">e-Med FA</text></g><g class="participant participant-tail" data-entity-uid="part2" data-qualified-name="eMed_FA" data-source-line="54" id="part2-tail"><rect fill="#E97132" fill-opacity="0.50196" height="30.2969" rx="5" ry="5" style="stroke:#555555;stroke-width:0.5;" width="79.3242" x="371.2852" y="447.3359"/><text fill="#000000" font-family="'Arial'" font-size="14" lengthAdjust="spacing" textLength="65.3242" x="378.2852" y="467.3311">e-Med FA</text></g><g class="participant participant-head" data-entity-uid="part3" data-qualified-name="GDA_2" data-source-line="55" id="part3-head"><text fill="#000000" font-family="'Arial'" font-size="14" lengthAdjust="spacing" textLength="44.5635" x="597.5723" y="115.292">GDA 2</text><ellipse cx="622.854" cy="50.7969" fill="#96607D" fill-opacity="0.50196" rx="8" ry="8" style="stroke:#181818;stroke-width:0.5;"/><path d="M622.854,58.7969 L622.854,85.7969 M609.854,66.7969 L635.854,66.7969 M622.854,85.7969 L609.854,100.7969 M622.854,85.7969 L635.854,100.7969" fill="none" style="stroke:#181818;stroke-width:0.5;"/></g><g class="participant participant-tail" data-entity-uid="part3" data-qualified-name="GDA_2" data-source-line="55" id="part3-tail"><text fill="#000000" font-family="'Arial'" font-size="14" lengthAdjust="spacing" textLength="44.5635" x="597.5723" y="460.3311">GDA 2</text><ellipse cx="622.854" cy="472.1328" fill="#96607D" fill-opacity="0.50196" rx="8" ry="8" style="stroke:#181818;stroke-width:0.5;"/><path d="M622.854,480.1328 L622.854,507.1328 M609.854,488.1328 L635.854,488.1328 M622.854,507.1328 L609.854,522.1328 M622.854,507.1328 L635.854,522.1328" fill="none" style="stroke:#181818;stroke-width:0.5;"/></g><g class="participant participant-head" data-entity-uid="part4" data-qualified-name="Patient" data-source-line="56" id="part4-head"><text fill="#000000" font-family="'Arial'" font-size="14" lengthAdjust="spacing" textLength="49.376" x="658.1357" y="115.292">Patient</text><ellipse cx="685.8237" cy="50.7969" fill="#196B24" fill-opacity="0.50196" rx="8" ry="8" style="stroke:#181818;stroke-width:0.5;"/><path d="M685.8237,58.7969 L685.8237,85.7969 M672.8237,66.7969 L698.8237,66.7969 M685.8237,85.7969 L672.8237,100.7969 M685.8237,85.7969 L698.8237,100.7969" fill="none" style="stroke:#181818;stroke-width:0.5;"/></g><g class="participant participant-tail" data-entity-uid="part4" data-qualified-name="Patient" data-source-line="56" id="part4-tail"><text fill="#000000" font-family="'Arial'" font-size="14" lengthAdjust="spacing" textLength="49.376" x="658.1357" y="460.3311">Patient</text><ellipse cx="685.8237" cy="472.1328" fill="#196B24" fill-opacity="0.50196" rx="8" ry="8" style="stroke:#181818;stroke-width:0.5;"/><path d="M685.8237,480.1328 L685.8237,507.1328 M672.8237,488.1328 L698.8237,488.1328 M685.8237,507.1328 L672.8237,522.1328 M685.8237,507.1328 L698.8237,522.1328" fill="none" style="stroke:#181818;stroke-width:0.5;"/></g><g><title>GDA 1</title><rect fill="#156082" fill-opacity="0.50196" height="160.4219" style="stroke:#181818;stroke-width:1;" width="10" x="113.2817" y="194.0234"/></g><g><title>e-Med FA</title><rect fill="#E97132" fill-opacity="0.50196" height="160.4219" style="stroke:#181818;stroke-width:1;" width="10" x="405.9473" y="194.0234"/></g><rect fill="#EEEEEE" height="3" rx="5" ry="5" style="stroke:#EEEEEE;stroke-width:1;" width="718.5117" x="0" y="149.7422"/><line style="stroke:#000000;stroke-width:1;" x1="0" x2="718.5117" y1="149.7422" y2="149.7422"/><line style="stroke:#000000;stroke-width:1;" x1="0" x2="718.5117" y1="152.7422" y2="152.7422"/><rect fill="#EEEEEE" height="24.2969" rx="5" ry="5" style="stroke:#000000;stroke-width:2;" width="196.4854" x="261.0132" y="138.5938"/><text fill="#000000" font-family="'Arial'" font-size="14" font-weight="700" lengthAdjust="spacing" textLength="177.6113" x="267.0132" y="155.5889">Medikationsplan lesen</text><g class="message" data-entity-1="part1" data-entity-2="part2" data-source-line="62" id="msg1"><polygon fill="#111827" points="393.9473,190.0234,403.9473,194.0234,393.9473,198.0234,397.9473,194.0234" style="stroke:#111827;stroke-width:1;stroke-linejoin:miter;stroke-miterlimit:10;"/><line style="stroke:#111827;stroke-width:1;" x1="123.2817" x2="399.9473" y1="194.0234" y2="194.0234"/><text fill="#000000" font-family="'Arial'" font-size="13" font-weight="700" lengthAdjust="spacing" textLength="9.0454" x="130.2817" y="188.9575">1</text><text fill="#000000" font-family="'Arial'" font-size="13" lengthAdjust="spacing" textLength="255.6201" x="143.3271" y="188.9575">GET Medikationsplan-Collection-Bundle</text></g><g class="message" data-entity-1="part2" data-entity-2="part2" data-source-line="66" id="msg2"><line style="stroke:#111827;stroke-width:1;" x1="415.9473" x2="457.9473" y1="238.2891" y2="238.2891"/><line style="stroke:#111827;stroke-width:1;" x1="457.9473" x2="457.9473" y1="238.2891" y2="251.2891"/><line style="stroke:#111827;stroke-width:1;" x1="416.9473" x2="457.9473" y1="251.2891" y2="251.2891"/><polygon fill="#111827" points="426.9473,247.2891,416.9473,251.2891,426.9473,255.2891,422.9473,251.2891" style="stroke:#111827;stroke-width:1;stroke-linejoin:miter;stroke-miterlimit:10;"/><text fill="#000000" font-family="'Arial'" font-size="13" font-weight="700" lengthAdjust="spacing" textLength="9.0454" x="422.9473" y="225.6567">2</text><text fill="#000000" font-family="'Arial'" font-size="13" lengthAdjust="spacing" textLength="164.8613" x="435.9927" y="218.0903">Pr&#252;fung auf bestehenden</text><text fill="#000000" font-family="'Arial'" font-size="13" lengthAdjust="spacing" textLength="106.3169" x="435.9927" y="233.2231">Medikationsplan</text></g><path d="M88,266.2891 L148.9385,266.2891 L148.9385,274.5859 L138.9385,284.5859 L83,284.5859 L83,271.2891 A5,5 0 0 1 88,266.2891" fill="#EEF2FF" style="stroke:#111827;stroke-width:1.5;"/><rect fill="none" height="96.1563" rx="5" ry="5" style="stroke:#111827;stroke-width:2;" width="377.6094" x="83" y="266.2891"/><text fill="#000000" font-family="'Arial'" font-size="14" font-weight="700" lengthAdjust="spacing" textLength="20.9385" x="98" y="280.2842">alt</text><text fill="#000000" font-family="'Arial'" font-size="14" font-weight="700" lengthAdjust="spacing" textLength="232.832" x="163.9385" y="281.2842">[Medikationsplan vorhanden]</text><g class="message" data-entity-1="part2" data-entity-2="part1" data-source-line="69" id="msg3"><polygon fill="#111827" points="134.2817,303.0156,124.2817,307.0156,134.2817,311.0156,130.2817,307.0156" style="stroke:#111827;stroke-width:1;stroke-linejoin:miter;stroke-miterlimit:10;"/><line style="stroke:#111827;stroke-width:1;" x1="128.2817" x2="404.9473" y1="307.0156" y2="307.0156"/><text fill="#000000" font-family="'Arial'" font-size="13" font-weight="700" lengthAdjust="spacing" textLength="9.0454" x="140.2817" y="301.9497">3</text><text fill="#000000" font-family="'Arial'" font-size="13" lengthAdjust="spacing" textLength="225.2593" x="153.3271" y="301.9497">Medikationsplan-Collection-Bundle</text></g><line style="stroke:#111827;stroke-width:1;stroke-dasharray:2,2;" x1="83" x2="460.6094" y1="316.0156" y2="316.0156"/><text fill="#000000" font-family="'Arial'" font-size="14" font-weight="700" lengthAdjust="spacing" textLength="271.2773" x="88" y="329.0107">[kein Medikationsplan vorhanden]</text><g class="message" data-entity-1="part2" data-entity-2="part1" data-source-line="71" id="msg4"><polygon fill="#111827" points="129.2817,350.4453,119.2817,354.4453,129.2817,358.4453,125.2817,354.4453" style="stroke:#111827;stroke-width:1;stroke-linejoin:miter;stroke-miterlimit:10;"/><line style="stroke:#111827;stroke-width:1;stroke-dasharray:2,2;" x1="123.2817" x2="409.9473" y1="354.4453" y2="354.4453"/><text fill="#000000" font-family="'Arial'" font-size="13" font-weight="700" lengthAdjust="spacing" textLength="9.0454" x="135.2817" y="349.3794">4</text><text fill="#000000" font-family="'Arial'" font-size="13" lengthAdjust="spacing" textLength="100.5405" x="148.3271" y="349.3794">leeres Ergebnis</text></g><path d="M5,379.4453 L5,427.4453 A5,5 0 0 0 10,432.4453 L519,432.4453 A5,5 0 0 0 524,427.4453 L524,384.4453 L514,374.4453 L10,374.4453 A5,5 0 0 0 5,379.4453" fill="url(#g1vh4lst31bwtb0)" style="stroke:#8B95A5;stroke-width:1;"/><path d="M514,374.4453 L514,381.9453 A2.5,2.5 0 0 0 516.5,384.4453 L524,384.4453 L514,374.4453" fill="url(#g1vh4lst31bwtb0)" style="stroke:#8B95A5;stroke-width:1;"/><text fill="#111827" font-family="'Arial'" font-size="14" lengthAdjust="spacing" textLength="494.293" x="11" y="392.4404">Die Fachanwendung liefert den zuletzt gespeicherten Medikationsplan</text><text fill="#111827" font-family="'Arial'" font-size="14" lengthAdjust="spacing" textLength="470.0801" x="11" y="408.7373">(unver&#228;ndert, inkl. aller referenzierten Ressourcen) oder ein leeres</text><text fill="#111827" font-family="'Arial'" font-size="14" lengthAdjust="spacing" textLength="116.6006" x="11" y="425.0342">Ergebnis zur&#252;ck.</text><?plantuml-src ZLNRRjf047ttLqpXeQqK8jk9IOYKIX1CKhK9YD2NgbAqs4DOuUpIzJeqLFsRVaRVycETjRciRIfr_MBFd3rpvh9hpNM2C4gOQDtmL4lrqXeZYntdRRhWOiaKUm8MaVrUln2GhJ2LJ-WuU-zKgXZLbKoaWgQRBzlBeiMZafc8DuXPO1uBaSvPB5TSFCAC9IbQdiqs9L21PvF6E6DPeWTIw3lsXD3eAiwInc74FLyZUAU7dV-IVVEoH9LmiR00ONW8y4N4-GlMvFVaZn6BOvEPxvRjFRjcGRxiaWgf4Nuw0BrgzT35OEQsch4NTx1j43RJ-RGJi61ddSnvj12Ofk2HRMnLqwNlhJR3OfN2yxnp_unizvM-_B8LflWzGn4LAaTCQHxn9HFwK69bG6qUybK6rJjJSs-xMd9OvGReAYLNrQHoOxakkUbGn9sZY7L2fcjIlYpbk6CkNBL-uSpFixDsxiFxfgXlQ1pD-5mDFm_73zVzxeC7j9fUq7RF_NFt0C3F0Prsspthrm2ZxkHZU3Sn39rspp-j0RgZ8UIhwGuwOJ_eL07XRTX_67G947REl9EwXl1X77uDHnDeNhc1UseqL133Jr2AuGTLYl5uECu1HOmJEW1EVj50KGAMGeFUm6lObN6M-su3tc9iT1eejkW31jr6EGUBqjzH-ZQblu6CcEP8f0QqUM-KAqhwCYr5zZH5vJYNbq0H-OAWKgHBka0XmHG5N5uwJf52wyDMuWLSXvCglaKpac1albiz6fa4ZHJ-pEZm5mHsudlVDkroebkh7NIaNl_CCZeGB9l155EDSwJhIdmJ5Id4dkXzwwg9FKirPsOZ3R8L9nTsyHzf8TqVfRula8l_Yx8Fao0gJ25KZpWLF2LGZELwbKqR2eSoTfpyHfNFk9ckevstpn46BAB0AmAQMYKSPwWqKGbOPmdgjOP7J9V8epdPiIxSUPS9edxzRNu5-WZehv0S0wCgA5263CMQ5rl7TEnbfY8Kxq4I6amXYioSRMOKbVeMBOwDzFnVy1S0?></g></svg>