<?xml version="1.0" encoding="us-ascii" standalone="no"?><svg xmlns="http://www.w3.org/2000/svg" xmlns:xlink="http://www.w3.org/1999/xlink" contentStyleType="text/css" height="660px" preserveAspectRatio="none" style="width:824px;height:660px;background:#F5F5F5;" version="1.1" viewBox="0 0 824 660" width="824px" zoomAndPan="magnify"><defs><linearGradient id="gnbds5j03f1fr0" x1="50%" x2="50%" y1="0%" y2="100%"><stop offset="0%" stop-color="#E0E5F0"/><stop offset="100%" stop-color="#D1D9E6"/></linearGradient></defs><g><rect fill="#F5F5F5" height="660" style="stroke:none;stroke-width:1.0;" width="824" x="0" y="0"/><text fill="#000000" font-family="Arial" font-size="14" font-weight="bold" lengthAdjust="spacing" textLength="72" x="372" y="28.1318">Plan-Write</text><rect fill="#156082" fill-opacity="0.50196" height="426.229" style="stroke:#181818;stroke-width:1.0;" width="10" x="131" y="128.1973"/><rect fill="#E97232" fill-opacity="0.74118" height="308.9844" style="stroke:#181818;stroke-width:1.0;" width="10" x="531" y="245.4419"/><rect fill="#0F9ED5" fill-opacity="0.14510" height="245.0869" rx="5" ry="5" style="stroke:#111827;stroke-width:2.0;" width="705" x="102" y="317.3394"/><path d="M102,515.3789 L807,515.3789 L807,557.4263 A5,5 0 0 1 802,562.4263 L107,562.4263 A5,5 0 0 1 102,557.4263 L102,515.3789 " fill="#E97132" fill-opacity="0.20784" style="stroke:none;stroke-width:1.0;"/><line style="stroke:#181818;stroke-width:0.5;stroke-dasharray:5.0,5.0;" x1="136" x2="136" y1="118.1973" y2="579.4263"/><line style="stroke:#181818;stroke-width:0.5;stroke-dasharray:5.0,5.0;" x1="536" x2="536" y1="118.1973" y2="579.4263"/><text fill="#000000" font-family="Arial" font-size="14" lengthAdjust="spacing" textLength="42" x="112" y="115.2305">GDA 1</text><ellipse cx="136" cy="50.5986" fill="#156082" fill-opacity="0.50196" rx="8" ry="8" style="stroke:#181818;stroke-width:0.5;"/><path d="M136,58.5986 L136,85.5986 M123,66.5986 L149,66.5986 M136,85.5986 L123,100.5986 M136,85.5986 L149,100.5986 " fill="none" style="stroke:#181818;stroke-width:0.5;"/><text fill="#000000" font-family="Arial" font-size="14" lengthAdjust="spacing" textLength="42" x="112" y="591.5581">GDA 1</text><ellipse cx="136" cy="603.0249" fill="#156082" fill-opacity="0.50196" rx="8" ry="8" style="stroke:#181818;stroke-width:0.5;"/><path d="M136,611.0249 L136,638.0249 M123,619.0249 L149,619.0249 M136,638.0249 L123,653.0249 M136,638.0249 L149,653.0249 " fill="none" style="stroke:#181818;stroke-width:0.5;"/><rect fill="#E97232" fill-opacity="0.74118" height="30.0986" rx="5" ry="5" style="stroke:#555555;stroke-width:0.5;" width="76" x="498" y="87.0986"/><text fill="#000000" font-family="Arial" font-size="14" lengthAdjust="spacing" textLength="62" x="505" y="107.2305">e-Med FA</text><rect fill="#E97232" fill-opacity="0.74118" height="30.0986" rx="5" ry="5" style="stroke:#555555;stroke-width:0.5;" width="76" x="498" y="578.4263"/><text fill="#000000" font-family="Arial" font-size="14" lengthAdjust="spacing" textLength="62" x="505" y="598.5581">e-Med FA</text><rect fill="#156082" fill-opacity="0.50196" height="426.229" style="stroke:#181818;stroke-width:1.0;" width="10" x="131" y="128.1973"/><rect fill="#E97232" fill-opacity="0.74118" height="308.9844" style="stroke:#181818;stroke-width:1.0;" width="10" x="531" y="245.4419"/><path d="M5,138.1973 L5,170.1973 A5,5 0 0 0 10,175.1973 L263,175.1973 A5,5 0 0 0 268,170.1973 L268,143.1973 L258,133.1973 L10,133.1973 A5,5 0 0 0 5,138.1973 " fill="url(#gnbds5j03f1fr0)" style="stroke:#8B95A5;stroke-width:1.0;"/><path d="M258,133.1973 L258,140.6973 A2.5,2.5 0 0 0 260.5,143.1973 L268,143.1973 L258,133.1973 " fill="url(#gnbds5j03f1fr0)" style="stroke:#8B95A5;stroke-width:1.0;"/><text fill="#111827" font-family="Arial" font-size="14" lengthAdjust="spacing" textLength="242" x="11" y="151.3291">Vorbedingung: Nach einem Plan-Read</text><text fill="#111827" font-family="Arial" font-size="14" lengthAdjust="spacing" textLength="216" x="11" y="167.4277">wird der Medikationsplan bearbeit.</text><rect fill="#EEEEEE" height="3" rx="5" ry="5" style="stroke:#EEEEEE;stroke-width:1.0;" width="817" x="0" y="201.4438"/><line style="stroke:#000000;stroke-width:1.0;" x1="0" x2="817" y1="201.4438" y2="201.4438"/><line style="stroke:#000000;stroke-width:1.0;" x1="0" x2="817" y1="204.4438" y2="204.4438"/><rect fill="#EEEEEE" height="24.0986" rx="5" ry="5" style="stroke:#000000;stroke-width:2.0;" width="209" x="304" y="190.3945"/><text fill="#000000" font-family="Arial" font-size="14" font-weight="bold" lengthAdjust="spacing" textLength="191" x="310" y="207.5264">Medikationsplan schreiben</text><polygon fill="#111827" points="519,241.4419,529,245.4419,519,249.4419,523,245.4419" style="stroke:#111827;stroke-width:1.0;"/><line style="stroke:#111827;stroke-width:1.0;" x1="141" x2="525" y1="245.4419" y2="245.4419"/><text fill="#000000" font-family="Arial" font-size="13" font-weight="bold" lengthAdjust="spacing" textLength="7" x="148" y="240.687">1</text><text fill="#000000" font-family="Arial" font-size="13" lengthAdjust="spacing" textLength="360" x="159" y="240.687">POST $plan-write Medikationsplan-Transaction-Bundle + ETag</text><line style="stroke:#111827;stroke-width:1.0;" x1="541" x2="583" y1="289.3394" y2="289.3394"/><line style="stroke:#111827;stroke-width:1.0;" x1="583" x2="583" y1="289.3394" y2="302.3394"/><line style="stroke:#111827;stroke-width:1.0;" x1="542" x2="583" y1="302.3394" y2="302.3394"/><polygon fill="#111827" points="552,298.3394,542,302.3394,552,306.3394,548,302.3394" style="stroke:#111827;stroke-width:1.0;"/><text fill="#000000" font-family="Arial" font-size="13" font-weight="bold" lengthAdjust="spacing" textLength="7" x="548" y="277.1101">2</text><text fill="#000000" font-family="Arial" font-size="13" lengthAdjust="spacing" textLength="113" x="559" y="269.6357">ETag im Header ==</text><text fill="#000000" font-family="Arial" font-size="13" lengthAdjust="spacing" textLength="157" x="559" y="284.5845">ETag der Fachanwendung?</text><path d="M107,317.3394 L164,317.3394 L164,325.438 L154,335.438 L102,335.438 L102,322.3394 A5,5 0 0 1 107,317.3394 " fill="#EEF2FF" style="stroke:#111827;stroke-width:1.5;"/><rect fill="none" height="245.0869" rx="5" ry="5" style="stroke:#111827;stroke-width:2.0;" width="705" x="102" y="317.3394"/><text fill="#000000" font-family="Arial" font-size="14" font-weight="bold" lengthAdjust="spacing" textLength="17" x="117" y="331.4712">alt</text><text fill="#000000" font-family="Arial" font-size="14" font-weight="bold" lengthAdjust="spacing" textLength="50" x="179" y="332.4712">[g&#252;ltig]</text><line style="stroke:#111827;stroke-width:1.0;" x1="541" x2="583" y1="372.4341" y2="372.4341"/><line style="stroke:#111827;stroke-width:1.0;" x1="583" x2="583" y1="372.4341" y2="385.4341"/><line style="stroke:#111827;stroke-width:1.0;" x1="542" x2="583" y1="385.4341" y2="385.4341"/><polygon fill="#111827" points="552,381.4341,542,385.4341,552,389.4341,548,385.4341" style="stroke:#111827;stroke-width:1.0;"/><text fill="#000000" font-family="Arial" font-size="13" font-weight="bold" lengthAdjust="spacing" textLength="7" x="548" y="360.2048">3</text><text fill="#000000" font-family="Arial" font-size="13" lengthAdjust="spacing" textLength="165" x="559" y="352.7305">Validierung des neuen Plans</text><text fill="#000000" font-family="Arial" font-size="13" lengthAdjust="spacing" textLength="236" x="559" y="367.6792">(keine unzul&#228;ssigen Zustands&#252;berg&#228;nge)</text><line style="stroke:#111827;stroke-width:1.0;" x1="541" x2="583" y1="429.3315" y2="429.3315"/><line style="stroke:#111827;stroke-width:1.0;" x1="583" x2="583" y1="429.3315" y2="442.3315"/><line style="stroke:#111827;stroke-width:1.0;" x1="542" x2="583" y1="442.3315" y2="442.3315"/><polygon fill="#111827" points="552,438.3315,542,442.3315,552,446.3315,548,442.3315" style="stroke:#111827;stroke-width:1.0;"/><text fill="#000000" font-family="Arial" font-size="13" font-weight="bold" lengthAdjust="spacing" textLength="7" x="548" y="417.1023">4</text><text fill="#000000" font-family="Arial" font-size="13" lengthAdjust="spacing" textLength="164" x="559" y="409.6279">Persistiert neue Version des</text><text fill="#000000" font-family="Arial" font-size="13" lengthAdjust="spacing" textLength="101" x="559" y="424.5767">Medikationsplans</text><path d="M414,460.3315 L414,476.3315 A5,5 0 0 0 419,481.3315 L652,481.3315 A5,5 0 0 0 657,476.3315 L657,465.3315 L647,455.3315 L419,455.3315 A5,5 0 0 0 414,460.3315 " fill="url(#gnbds5j03f1fr0)" style="stroke:#8B95A5;stroke-width:1.0;"/><path d="M647,455.3315 L647,462.8315 A2.5,2.5 0 0 0 649.5,465.3315 L657,465.3315 L647,455.3315 " fill="url(#gnbds5j03f1fr0)" style="stroke:#8B95A5;stroke-width:1.0;"/><text fill="#111827" font-family="Arial" font-size="14" lengthAdjust="spacing" textLength="222" x="420" y="473.4634">Neuer Medikationsplan gespeichert</text><polygon fill="#111827" points="152,503.3789,142,507.3789,152,511.3789,148,507.3789" style="stroke:#111827;stroke-width:1.0;"/><line style="stroke:#111827;stroke-width:1.0;stroke-dasharray:2.0,2.0;" x1="146" x2="530" y1="507.3789" y2="507.3789"/><text fill="#000000" font-family="Arial" font-size="13" font-weight="bold" lengthAdjust="spacing" textLength="7" x="158" y="502.624">5</text><text fill="#000000" font-family="Arial" font-size="13" lengthAdjust="spacing" textLength="19" x="169" y="502.624">OK</text><line style="stroke:#111827;stroke-width:1.0;stroke-dasharray:2.0,2.0;" x1="102" x2="807" y1="516.3789" y2="516.3789"/><text fill="#000000" font-family="Arial" font-size="14" font-weight="bold" lengthAdjust="spacing" textLength="68" x="107" y="529.5107">[ung&#252;ltig]</text><polygon fill="#111827" points="147,550.4263,137,554.4263,147,558.4263,143,554.4263" style="stroke:#111827;stroke-width:1.0;"/><line style="stroke:#111827;stroke-width:1.0;stroke-dasharray:2.0,2.0;" x1="141" x2="535" y1="554.4263" y2="554.4263"/><text fill="#000000" font-family="Arial" font-size="13" font-weight="bold" lengthAdjust="spacing" textLength="7" x="153" y="549.6714">6</text><text fill="#000000" font-family="Arial" font-size="13" lengthAdjust="spacing" textLength="36" x="164" y="549.6714">Fehler</text><!--SRC=[TLJXZjf64FxlfvX2fRQgg6mJu7mIhI1dqYhDWJXwbQAJJejtC2lCckokGvEgRvF7oBzxiSuknx4sPE67FVFjDpFVZCS8Ko3C2YOxVojXC0X-q1iXTqonBR3CbEhEV284swCkj-G-UPUbugXUbqMfe1swutjPjibLMKd-Z5ZrxCz3w3NZvLx875QiqEXvdgyfYGeYdvJZYbM5cPJItB8jGcka12jQbn5tuZD2zEgoyrjf__vfXweGSkC1qlGIu2_9tGEUfJyk_vanpcrbSLYtZttDUkxuaihI8FmR08oRwc68lLNOQVE89zYt29_fQfdqME_5kbYBR2DHQuZ8DlVK3Edzc9jbyQI8ekWg7f3jhj6N__mCDNweK6Q7B6TC6P697PFcKc5rmDayk5C7dNVcp7tiQitXoGqmKghSDujonhekpdGfuelZ4AjBfZUK-QvMumlpmNNMBrp5hZhlvYbyR4NzZiRHZi_hwP_J-UERcz5Z17JQKQyVNiLNuGL0x019lnyERiu0iz7YZ_HsOHcI_ZX-TGOOpQRWJZkS9EbDBsa2qdVfpUDaH01C1d4tNl8cu76Ulazd2sXdl3lenYnfbZ5z2xKOSQz9CPzFvmwG9eEe6tVf0t1x1WuAC0qjUeAevGiJx4xD1do7tAPfeTYX5vYCMlKI0YAjJ2chxHAL2o0-Clgs3Z5yui1zS-L7V4uWk2_L4kqqLJA_XbkMhG4f_UrXISwHyM0l5ATbee1YYmqpefHwHrvO8gFBmlmIeEJkQmw2uV0CfhErGh542SDX41nowlnwhEiQPjEx1NnlePszNSfDWiv2CQbjKQNiZ6deQ47_3Ec2vLwfHvNgkXojVZXx4GIjDggDYXeE7wGpsPS9rS_adieXENuZ-iASEfq_VIsCo876_1BlFIi45wZe9d5fa4Yhmyce7-IF6wigLF9pLJnzqLhav7jVQSCarqzVgMtvqnUPuq_V89-Xqa8ReZUE6EwjePGsqeDi2AQ9XFwdLZ_JaEsMxfutCaUzGv6jYTt6Vsccbmibupft3TEtGO2qAMiJJaKVrRbyQuBhWY9RByVwWDPDnrmfYo3u7m00]--></g></svg>