<svg xmlns="http://www.w3.org/2000/svg" xmlns:xlink="http://www.w3.org/1999/xlink" contentStyleType="text/css" data-diagram-type="SEQUENCE" height="671px" preserveAspectRatio="none" style="width:1014px;height:671px;background:#F5F5F5;" version="1.1" viewBox="0 0 1014 671" width="1014px" zoomAndPan="magnify"><?plantuml 1.2026.7beta1?><defs><linearGradient id="g1b2rae2b7lb120" x1="50%" x2="50%" y1="0%" y2="100%"><stop offset="0%" stop-color="#E0E5F0"/><stop offset="100%" stop-color="#D1D9E6"/></linearGradient><filter height="300%" id="f1b2rae2b7lb12" width="300%" x="-1" y="-1"><feGaussianBlur result="blurOut" stdDeviation="2"/><feColorMatrix in="blurOut" result="blurOut2" type="matrix" values="0 0 0 0 0 0 0 0 0 0 0 0 0 0 0 0 0 0 .4 0"/><feOffset dx="4" dy="4" in="blurOut2" result="blurOut3"/><feBlend in="SourceGraphic" in2="blurOut3" mode="normal"/></filter></defs><g><rect fill="#F5F5F5" height="671" style="stroke:none;stroke-width:1;" width="1014" x="0" y="0"/><g class="title" data-source-line="1"><text fill="#000000" font-family="'Arial'" font-size="14" font-weight="700" lengthAdjust="spacing" textLength="83.6172" x="461.8813" y="27.9951">Plan-Write</text></g><g><title>GDA 1</title><rect fill="#3588A7" fill-opacity="0.29804" height="435.2734" style="stroke:#181818;stroke-width:1;" width="10" x="144.2817" y="128.5938"/></g><g><title>e-Med FA</title><rect fill="#A14C37" fill-opacity="0.47059" height="314.25" style="stroke:#181818;stroke-width:1;" width="10" x="591.3394" y="249.6172"/></g><rect fill="#FFFFFF" fill-opacity="0.14902" height="249.9844" rx="5" ry="5" style="stroke:#111827;stroke-width:2;" width="798.7222" x="114" y="321.8828"/><path d="M114,524.4375 L912.7222,524.4375 L912.7222,566.8672 A5,5 0 0 1 907.7222,571.8672 L119,571.8672 A5,5 0 0 1 114,566.8672 L114,524.4375" fill="#7F1515" fill-opacity="0.20000" style="stroke:none;stroke-width:1;"/><g class="participant-lifeline" data-entity-uid="part1" data-qualified-name="GDA_1" data-source-line="49" id="part1-lifeline"><g><title>GDA 1</title><rect fill="#000000" fill-opacity="0.00000" height="470.2734" width="8" x="145.2817" y="118.5938"/><line style="stroke:#181818;stroke-width:0.5;stroke-dasharray:5,5;" x1="149" x2="149" y1="118.5938" y2="588.8672"/></g></g><g class="participant-lifeline" data-entity-uid="part2" data-qualified-name="eMed_FA" data-source-line="50" id="part2-lifeline"><g><title>e-Med FA</title><rect fill="#000000" fill-opacity="0.00000" height="470.2734" width="8" x="592.3394" y="118.5938"/><line style="stroke:#181818;stroke-width:0.5;stroke-dasharray:5,5;" x1="595.6772" x2="595.6772" y1="118.5938" y2="588.8672"/></g></g><g class="participant-lifeline" data-entity-uid="part3" data-qualified-name="GDA_2" data-source-line="51" id="part3-lifeline"><g><title>GDA 2</title><rect fill="#000000" fill-opacity="0.00000" height="470.2734" width="8" x="908.7222" y="118.5938"/><line style="stroke:#181818;stroke-width:0.5;stroke-dasharray:5,5;" x1="912.4404" x2="912.4404" y1="118.5938" y2="588.8672"/></g></g><g class="participant-lifeline" data-entity-uid="part4" data-qualified-name="Patient" data-source-line="52" id="part4-lifeline"><g><title>Patient</title><rect fill="#000000" fill-opacity="0.00000" height="470.2734" width="8" x="971.6919" y="118.5938"/><line style="stroke:#181818;stroke-width:0.5;stroke-dasharray:5,5;" x1="975.0039" x2="975.0039" y1="118.5938" y2="588.8672"/></g></g><g class="participant participant-head" data-entity-uid="part1" data-qualified-name="GDA_1" data-source-line="49" id="part1-head"><text fill="#000000" font-family="'Arial'" font-size="14" lengthAdjust="spacing" textLength="44.5635" x="124" y="115.292">GDA 1</text><ellipse cx="149.2817" cy="50.7969" fill="#3588A7" fill-opacity="0.29804" rx="8" ry="8" style="stroke:#181818;stroke-width:0.5;"/><path d="M149.2817,58.7969 L149.2817,85.7969 M136.2817,66.7969 L162.2817,66.7969 M149.2817,85.7969 L136.2817,100.7969 M149.2817,85.7969 L162.2817,100.7969" fill="none" style="stroke:#181818;stroke-width:0.5;"/></g><g class="participant participant-tail" data-entity-uid="part1" data-qualified-name="GDA_1" data-source-line="49" id="part1-tail"><text fill="#000000" font-family="'Arial'" font-size="14" lengthAdjust="spacing" textLength="44.5635" x="124" y="600.8623">GDA 1</text><ellipse cx="149.2817" cy="612.6641" fill="#3588A7" fill-opacity="0.29804" rx="8" ry="8" style="stroke:#181818;stroke-width:0.5;"/><path d="M149.2817,620.6641 L149.2817,647.6641 M136.2817,628.6641 L162.2817,628.6641 M149.2817,647.6641 L136.2817,662.6641 M149.2817,647.6641 L162.2817,662.6641" fill="none" style="stroke:#181818;stroke-width:0.5;"/></g><g class="participant participant-head" data-entity-uid="part2" data-qualified-name="eMed_FA" data-source-line="50" id="part2-head"><rect fill="#A14C37" fill-opacity="0.47059" height="30.2969" rx="5" ry="5" style="stroke:#555555;stroke-width:0.5;" width="79.3242" x="556.6772" y="87.2969"/><text fill="#000000" font-family="'Arial'" font-size="14" lengthAdjust="spacing" textLength="65.3242" x="563.6772" y="107.292">e-Med FA</text></g><g class="participant participant-tail" data-entity-uid="part2" data-qualified-name="eMed_FA" data-source-line="50" id="part2-tail"><rect fill="#A14C37" fill-opacity="0.47059" height="30.2969" rx="5" ry="5" style="stroke:#555555;stroke-width:0.5;" width="79.3242" x="556.6772" y="587.8672"/><text fill="#000000" font-family="'Arial'" font-size="14" lengthAdjust="spacing" textLength="65.3242" x="563.6772" y="607.8623">e-Med FA</text></g><g class="participant participant-head" data-entity-uid="part3" data-qualified-name="GDA_2" data-source-line="51" id="part3-head"><text fill="#000000" font-family="'Arial'" font-size="14" lengthAdjust="spacing" textLength="44.5635" x="887.4404" y="115.292">GDA 2</text><ellipse cx="912.7222" cy="50.7969" fill="#CA89CA" fill-opacity="0.37255" rx="8" ry="8" style="stroke:#181818;stroke-width:0.5;"/><path d="M912.7222,58.7969 L912.7222,85.7969 M899.7222,66.7969 L925.7222,66.7969 M912.7222,85.7969 L899.7222,100.7969 M912.7222,85.7969 L925.7222,100.7969" fill="none" style="stroke:#181818;stroke-width:0.5;"/></g><g class="participant participant-tail" data-entity-uid="part3" data-qualified-name="GDA_2" data-source-line="51" id="part3-tail"><text fill="#000000" font-family="'Arial'" font-size="14" lengthAdjust="spacing" textLength="44.5635" x="887.4404" y="600.8623">GDA 2</text><ellipse cx="912.7222" cy="612.6641" fill="#CA89CA" fill-opacity="0.37255" rx="8" ry="8" style="stroke:#181818;stroke-width:0.5;"/><path d="M912.7222,620.6641 L912.7222,647.6641 M899.7222,628.6641 L925.7222,628.6641 M912.7222,647.6641 L899.7222,662.6641 M912.7222,647.6641 L925.7222,662.6641" fill="none" style="stroke:#181818;stroke-width:0.5;"/></g><g class="participant participant-head" data-entity-uid="part4" data-qualified-name="Patient" data-source-line="52" id="part4-head"><text fill="#000000" font-family="'Arial'" font-size="14" lengthAdjust="spacing" textLength="49.376" x="948.0039" y="115.292">Patient</text><ellipse cx="975.6919" cy="50.7969" fill="#E2E2F0" rx="8" ry="8" style="stroke:#181818;stroke-width:0.5;"/><path d="M975.6919,58.7969 L975.6919,85.7969 M962.6919,66.7969 L988.6919,66.7969 M975.6919,85.7969 L962.6919,100.7969 M975.6919,85.7969 L988.6919,100.7969" fill="none" style="stroke:#181818;stroke-width:0.5;"/></g><g class="participant participant-tail" data-entity-uid="part4" data-qualified-name="Patient" data-source-line="52" id="part4-tail"><text fill="#000000" font-family="'Arial'" font-size="14" lengthAdjust="spacing" textLength="49.376" x="948.0039" y="600.8623">Patient</text><ellipse cx="975.6919" cy="612.6641" fill="#E2E2F0" rx="8" ry="8" style="stroke:#181818;stroke-width:0.5;"/><path d="M975.6919,620.6641 L975.6919,647.6641 M962.6919,628.6641 L988.6919,628.6641 M975.6919,647.6641 L962.6919,662.6641 M975.6919,647.6641 L988.6919,662.6641" fill="none" style="stroke:#181818;stroke-width:0.5;"/></g><g><title>GDA 1</title><rect fill="#3588A7" fill-opacity="0.29804" height="435.2734" style="stroke:#181818;stroke-width:1;" width="10" x="144.2817" y="128.5938"/></g><g><title>e-Med FA</title><rect fill="#A14C37" fill-opacity="0.47059" height="314.25" style="stroke:#181818;stroke-width:1;" width="10" x="591.3394" y="249.6172"/></g><path d="M5,138.5938 L5,170.5938 A5,5 0 0 0 10,175.5938 L287,175.5938 A5,5 0 0 0 292,170.5938 L292,143.5938 L282,133.5938 L10,133.5938 A5,5 0 0 0 5,138.5938" fill="url(#g1b2rae2b7lb120)" filter="url(#f1b2rae2b7lb12)" style="stroke:#8B95A5;stroke-width:1;"/><path d="M282,133.5938 L282,141.0938 A2.5,2.5 0 0 0 284.5,143.5938 L292,143.5938 L282,133.5938" fill="url(#g1b2rae2b7lb120)" style="stroke:#8B95A5;stroke-width:1;"/><text fill="#111827" font-family="'Arial'" font-size="14" lengthAdjust="spacing" textLength="266.5264" x="11" y="151.5889">Vorbedingung: Nach einem Plan-Read</text><text fill="#111827" font-family="'Arial'" font-size="14" lengthAdjust="spacing" textLength="244.248" x="11" y="167.8857">wird der Medikationsplan bearbeit.</text><rect fill="#EEEEEE" height="3" rx="5" ry="5" style="stroke:#EEEEEE;stroke-width:1;" width="1008.3799" x="0" y="205.3359"/><line style="stroke:#000000;stroke-width:1;" x1="0" x2="1008.3799" y1="205.3359" y2="205.3359"/><line style="stroke:#000000;stroke-width:1;" x1="0" x2="1008.3799" y1="208.3359" y2="208.3359"/><rect fill="#EEEEEE" height="24.2969" rx="5" ry="5" style="stroke:#000000;stroke-width:2;" width="231.6768" x="388.3516" y="194.1875"/><text fill="#000000" font-family="'Arial'" font-size="14" font-weight="700" lengthAdjust="spacing" textLength="212.8027" x="394.3516" y="211.1826">Medikationsplan schreiben</text><g class="message" data-entity-1="part1" data-entity-2="part2" data-source-line="65" id="msg1"><polygon fill="#111827" points="579.3394,245.6172,589.3394,249.6172,579.3394,253.6172,583.3394,249.6172" style="stroke:#111827;stroke-width:1;stroke-linejoin:miter;stroke-miterlimit:10;"/><line style="stroke:#111827;stroke-width:1;" x1="154.2817" x2="585.3394" y1="249.6172" y2="249.6172"/><text fill="#000000" font-family="'Arial'" font-size="13" font-weight="700" lengthAdjust="spacing" textLength="9.0454" x="161.2817" y="244.5513">1</text><text fill="#000000" font-family="'Arial'" font-size="13" lengthAdjust="spacing" textLength="405.0122" x="174.3271" y="244.5513">POST $plan-write Medikationsplan-Transaction-Bundle + ETag</text></g><g class="message" data-entity-1="part2" data-entity-2="part2" data-source-line="68" id="msg2"><line style="stroke:#111827;stroke-width:1;" x1="601.3394" x2="643.3394" y1="293.8828" y2="293.8828"/><line style="stroke:#111827;stroke-width:1;" x1="643.3394" x2="643.3394" y1="293.8828" y2="306.8828"/><line style="stroke:#111827;stroke-width:1;" x1="602.3394" x2="643.3394" y1="306.8828" y2="306.8828"/><polygon fill="#111827" points="612.3394,302.8828,602.3394,306.8828,612.3394,310.8828,608.3394,306.8828" style="stroke:#111827;stroke-width:1;stroke-linejoin:miter;stroke-miterlimit:10;"/><text fill="#000000" font-family="'Arial'" font-size="13" font-weight="700" lengthAdjust="spacing" textLength="9.0454" x="608.3394" y="281.2505">2</text><text fill="#000000" font-family="'Arial'" font-size="13" lengthAdjust="spacing" textLength="130.165" x="621.3848" y="273.6841">ETag im Header ==</text><text fill="#000000" font-family="'Arial'" font-size="13" lengthAdjust="spacing" textLength="176.0205" x="621.3848" y="288.8169">ETag der Fachanwendung?</text></g><path d="M119,321.8828 L179.9385,321.8828 L179.9385,330.1797 L169.9385,340.1797 L114,340.1797 L114,326.8828 A5,5 0 0 1 119,321.8828" fill="#EEF2FF" style="stroke:#111827;stroke-width:1.5;"/><rect fill="none" height="249.9844" rx="5" ry="5" style="stroke:#111827;stroke-width:2;" width="798.7222" x="114" y="321.8828"/><text fill="#000000" font-family="'Arial'" font-size="14" font-weight="700" lengthAdjust="spacing" textLength="20.9385" x="129" y="335.8779">alt</text><text fill="#000000" font-family="'Arial'" font-size="14" font-weight="700" lengthAdjust="spacing" textLength="59.0967" x="194.9385" y="336.8779">[g&#252;ltig]</text><g class="message" data-entity-1="part2" data-entity-2="part2" data-source-line="71" id="msg3"><line style="stroke:#111827;stroke-width:1;" x1="601.3394" x2="643.3394" y1="377.7422" y2="377.7422"/><line style="stroke:#111827;stroke-width:1;" x1="643.3394" x2="643.3394" y1="377.7422" y2="390.7422"/><line style="stroke:#111827;stroke-width:1;" x1="602.3394" x2="643.3394" y1="390.7422" y2="390.7422"/><polygon fill="#111827" points="612.3394,386.7422,602.3394,390.7422,612.3394,394.7422,608.3394,390.7422" style="stroke:#111827;stroke-width:1;stroke-linejoin:miter;stroke-miterlimit:10;"/><text fill="#000000" font-family="'Arial'" font-size="13" font-weight="700" lengthAdjust="spacing" textLength="9.0454" x="608.3394" y="365.1099">3</text><text fill="#000000" font-family="'Arial'" font-size="13" lengthAdjust="spacing" textLength="184.5835" x="621.3848" y="357.5435">Validierung des neuen Plans</text><text fill="#000000" font-family="'Arial'" font-size="13" lengthAdjust="spacing" textLength="269.3374" x="621.3848" y="372.6763">(keine unzul&#228;ssigen Zustands&#252;berg&#228;nge)</text></g><g class="message" data-entity-1="part2" data-entity-2="part2" data-source-line="72" id="msg4"><line style="stroke:#111827;stroke-width:1;" x1="601.3394" x2="643.3394" y1="435.0078" y2="435.0078"/><line style="stroke:#111827;stroke-width:1;" x1="643.3394" x2="643.3394" y1="435.0078" y2="448.0078"/><line style="stroke:#111827;stroke-width:1;" x1="602.3394" x2="643.3394" y1="448.0078" y2="448.0078"/><polygon fill="#111827" points="612.3394,444.0078,602.3394,448.0078,612.3394,452.0078,608.3394,448.0078" style="stroke:#111827;stroke-width:1;stroke-linejoin:miter;stroke-miterlimit:10;"/><text fill="#000000" font-family="'Arial'" font-size="13" font-weight="700" lengthAdjust="spacing" textLength="9.0454" x="608.3394" y="422.3755">4</text><text fill="#000000" font-family="'Arial'" font-size="13" lengthAdjust="spacing" textLength="182.1968" x="621.3848" y="414.8091">Persistiert neue Version des</text><text fill="#000000" font-family="'Arial'" font-size="13" lengthAdjust="spacing" textLength="113.0898" x="621.3848" y="429.9419">Medikationsplans</text></g><path d="M460,466.0078 L460,482.0078 A5,5 0 0 0 465,487.0078 L724,487.0078 A5,5 0 0 0 729,482.0078 L729,471.0078 L719,461.0078 L465,461.0078 A5,5 0 0 0 460,466.0078" fill="url(#g1b2rae2b7lb120)" filter="url(#f1b2rae2b7lb12)" style="stroke:#8B95A5;stroke-width:1;"/><path d="M719,461.0078 L719,468.5078 A2.5,2.5 0 0 0 721.5,471.0078 L729,471.0078 L719,461.0078" fill="url(#g1b2rae2b7lb120)" style="stroke:#8B95A5;stroke-width:1;"/><text fill="#111827" font-family="'Arial'" font-size="14" lengthAdjust="spacing" textLength="248.3359" x="466" y="479.0029">Neuer Medikationsplan gespeichert</text><g class="message" data-entity-1="part2" data-entity-2="part1" data-source-line="78" id="msg5"><polygon fill="#111827" points="165.2817,512.4375,155.2817,516.4375,165.2817,520.4375,161.2817,516.4375" style="stroke:#111827;stroke-width:1;stroke-linejoin:miter;stroke-miterlimit:10;"/><line style="stroke:#111827;stroke-width:1;stroke-dasharray:2,2;" x1="159.2817" x2="590.3394" y1="516.4375" y2="516.4375"/><text fill="#000000" font-family="'Arial'" font-size="13" font-weight="700" lengthAdjust="spacing" textLength="9.0454" x="171.2817" y="511.3716">5</text><text fill="#000000" font-family="'Arial'" font-size="13" lengthAdjust="spacing" textLength="18.7573" x="184.3271" y="511.3716">OK</text></g><line style="stroke:#111827;stroke-width:1;stroke-dasharray:2,2;" x1="114" x2="912.7222" y1="525.4375" y2="525.4375"/><text fill="#000000" font-family="'Arial'" font-size="14" font-weight="700" lengthAdjust="spacing" textLength="79.0303" x="119" y="538.4326">[ung&#252;ltig]</text><g class="message" data-entity-1="part2" data-entity-2="part1" data-source-line="82" id="msg6"><polygon fill="#111827" points="160.2817,559.8672,150.2817,563.8672,160.2817,567.8672,156.2817,563.8672" style="stroke:#111827;stroke-width:1;stroke-linejoin:miter;stroke-miterlimit:10;"/><line style="stroke:#111827;stroke-width:1;stroke-dasharray:2,2;" x1="154.2817" x2="595.3394" y1="563.8672" y2="563.8672"/><text fill="#000000" font-family="'Arial'" font-size="13" font-weight="700" lengthAdjust="spacing" textLength="9.0454" x="166.2817" y="558.8013">6</text><text fill="#000000" font-family="'Arial'" font-size="13" lengthAdjust="spacing" textLength="40.6694" x="179.3271" y="558.8013">Fehler</text></g><?plantuml-src TLNRRjj647tVhvXAVMXHg30fqQ8Dg8MSI6cHn29arGK20yQAEwGMefVAxZ9gKlHlyXbvyuzrbhfuIIcq7yYvd3bpPdPbfIqGaeAhtjzQMcJChANQSCsVO5bgWVfLMPGQkXVrutjvkivrMIcnZyWYz-T5c1KNvLQg739U6FGy-pIjK4FWWmhCU5NOQQdiBNz2w8orv4NdVCIT_88G3CuxlqVxZyyRr8LKQozWCZaNy9SIzGkUqByf_qcu4AwpyA9fl_4rY-h7brIL5k5V1d3JLWylCCekUbqHY2kyT14-KhoyYdXqj2vMCbqhD0O2iiqzDMFwFd1pA9uKGH34uP1iTyUvM5qX-yydQF1ZXIhTaKoujZAL6wxikRwQ0IVhK3_DeDF1dBWFGsquFBK1nbgNstPFjR4fIsqwL_7esDNga-aDCTyqUZmYxrmduy8ihBlpCb_AXqxK7sWRtVQychsRpH_Vl1u_1j3jHt7CXuFqZ3U4RihZgvH7MSkRZ1T_JcuNqEKXnyj17BRyusG6tK4cOX56ekMRl9-yVfoEAJSOfFtXC6xx7-UJ3vDauSxlKeJPSDWAcBqzp3AyREVEvxCvT8TP40LHlyyOJos9iskL6-ZG6mGTNm6sUPagu7iKZfiBnHvzm7JSQVBs8CCZPEX3XlkGX5k91Eg2zkyTObJPKbLFIzGrE_c9qm7S4VHPiVfWbfzmpvxTbtg9RkSgbL_3BKzNWDJuq-wgd2CNR2kre1j70n6NQwfOAhCXBooHKxAqlp9KeZxoZ8r69s4cNMcKIrGm6Z6suzJxxI3ADIIpkmNyw49xMtSrjm5w2ysLSKsLgdT3gqaN-IymMV3SQ_KWSLFKWzKlvn91qlr7lL5Jez63gatkOqhzSxMbTaYEtmc-i2_RaJz_AwpCWGx3ETnxNaWXKLCcOHbGI1TCBQDvK3-jdQfGgIzLyVpL69cJxqDbB5V2F7-ZiUNFNrMEFty7F45jfA5XQri3mxqpbCfLUb0jmGo1qF_BgFSmPBkbtDD1vcWsADCLeRlwns5wN8XCFRbhcBrb3Ebted4sgEc3EkUpfhWggBBp2cmkQDDqu4ei_WS0?></g></svg>