<?xml version="1.0" encoding="us-ascii" standalone="no"?><svg xmlns="http://www.w3.org/2000/svg" xmlns:xlink="http://www.w3.org/1999/xlink" contentStyleType="text/css" height="705px" preserveAspectRatio="none" style="width:846px;height:705px;background:#FFFFFF;" version="1.1" viewBox="0 0 846 705" width="846px" zoomAndPan="magnify"><defs/><g><text fill="#000000" font-family="Arial" font-size="14" font-weight="bold" lengthAdjust="spacing" textLength="251" x="290.5" y="23.1318">REST-Schnittstellen: https://[server]</text><!--cluster Server--><g id="cluster_Server"><rect fill="#E97232" fill-opacity="0.74118" height="219" rx="2" ry="2" style="stroke:#181818;stroke-width:1.0;" width="222" x="618" y="204.0986"/><rect fill="#E97232" fill-opacity="0.74118" height="10" style="stroke:#181818;stroke-width:1.0;" width="15" x="820" y="209.0986"/><rect fill="#E97232" fill-opacity="0.74118" height="2" style="stroke:#181818;stroke-width:1.0;" width="4" x="818" y="211.0986"/><rect fill="#E97232" fill-opacity="0.74118" height="2" style="stroke:#181818;stroke-width:1.0;" width="4" x="818" y="215.0986"/><text fill="#000000" font-family="Arial" font-size="12" font-weight="bold" lengthAdjust="spacing" textLength="30" x="714" y="228.3545">ELGA</text><text fill="#000000" font-family="Arial" font-size="12" font-weight="bold" lengthAdjust="spacing" textLength="73" x="692.5" y="242.1533">e-Medikation</text></g><text fill="#000000" font-family="Arial" font-size="12" lengthAdjust="spacing" textLength="20" x="613.5" y="246.7568">List</text><text fill="#000000" font-family="Arial" font-size="12" lengthAdjust="spacing" textLength="98" x="574.5" y="260.5557">(Medikationsplan)</text><rect fill="#F1F1F1" height="12" style="stroke:#181818;stroke-width:1.5;" width="12" x="617.5" y="275.0986"/><text fill="#000000" font-family="Arial" font-size="12" lengthAdjust="spacing" textLength="113" x="572" y="440.3545">MedicationDispense</text><text fill="#000000" font-family="Arial" font-size="12" lengthAdjust="spacing" textLength="138" x="559.5" y="454.1533">(Durchgef&#252;hrte Abgaben)</text><rect fill="#F1F1F1" height="12" style="stroke:#181818;stroke-width:1.5;" width="12" x="622.5" y="417.0986"/><text fill="#000000" font-family="Arial" font-size="12" lengthAdjust="spacing" textLength="106" x="571.5" y="369.3545">MedicationRequest</text><text fill="#000000" font-family="Arial" font-size="12" lengthAdjust="spacing" textLength="98" x="575.5" y="383.1533">(Planeintr&#228;ge und</text><text fill="#000000" font-family="Arial" font-size="12" lengthAdjust="spacing" textLength="106" x="571.5" y="396.9521">Geplante Abgaben)</text><rect fill="#F1F1F1" height="12" style="stroke:#181818;stroke-width:1.5;" width="12" x="618.5" y="346.0986"/><text fill="#000000" font-family="Arial" font-size="12" lengthAdjust="spacing" textLength="30" x="603" y="201.5557">eMed</text><rect fill="#F1F1F1" height="12" style="stroke:#181818;stroke-width:1.5;" width="12" x="612" y="216.0986"/><!--class IEmed--><g id="elem_IEmed"><rect codeLine="47" fill="#F1F1F1" height="73.5977" id="IEmed" rx="2" ry="2" style="stroke:#181818;stroke-width:0.5;" width="223" x="142.5" y="44.0986"/><ellipse cx="248.5" cy="59.0986" fill="#B4A7E5" rx="10" ry="10" style="stroke:#181818;stroke-width:1.0;"/><path d="M249.7031,57.1924 L249.7031,61.8955 L250.9219,61.8955 Q251.3438,61.8955 251.5313,62.0674 Q251.7188,62.2236 251.7188,62.5049 Q251.7188,62.7705 251.5313,62.9424 Q251.3438,63.0986 250.9219,63.0986 L247.2813,63.0986 Q246.8594,63.0986 246.6719,62.9424 Q246.4844,62.7705 246.4844,62.4893 Q246.4844,62.2236 246.6719,62.0674 Q246.8594,61.8955 247.2813,61.8955 L248.5,61.8955 L248.5,57.1924 L247.2813,57.1924 Q246.8594,57.1924 246.6719,57.0361 Q246.4844,56.8643 246.4844,56.5986 Q246.4844,56.3174 246.6719,56.1611 Q246.8594,55.9893 247.2813,55.9893 L250.9219,55.9893 Q251.3438,55.9893 251.5313,56.1611 Q251.7188,56.3174 251.7188,56.5986 Q251.7188,56.8643 251.5313,57.0361 Q251.3438,57.1924 250.9219,57.1924 L249.7031,57.1924 Z " fill="#000000"/><text fill="#000000" font-family="Arial" font-size="12" font-style="italic" lengthAdjust="spacing" textLength="3" x="267.5" y="63.4551">/</text><line style="stroke:#181818;stroke-width:0.5;" x1="143.5" x2="364.5" y1="74.0986" y2="74.0986"/><text fill="#000000" font-family="Arial" font-size="12" lengthAdjust="spacing" textLength="207" x="148.5" y="89.3545">&#171;POST&#187; $groupidentifier-create [GDA]</text><text fill="#000000" font-family="Arial" font-size="12" lengthAdjust="spacing" textLength="211" x="148.5" y="103.1533">&#171;POST&#187; $groupidentifier-search [GDA]</text><line style="stroke:#181818;stroke-width:0.5;" x1="143.5" x2="364.5" y1="109.6963" y2="109.6963"/></g><!--class IList--><g id="elem_IList"><rect codeLine="52" fill="#F1F1F1" height="156.3906" id="IList" rx="2" ry="2" style="stroke:#181818;stroke-width:0.5;" width="494" x="7" y="153.0986"/><ellipse cx="207.5" cy="168.0986" fill="#B4A7E5" rx="10" ry="10" style="stroke:#181818;stroke-width:1.0;"/><path d="M208.7031,166.1924 L208.7031,170.8955 L209.9219,170.8955 Q210.3438,170.8955 210.5313,171.0674 Q210.7188,171.2236 210.7188,171.5049 Q210.7188,171.7705 210.5313,171.9424 Q210.3438,172.0986 209.9219,172.0986 L206.2813,172.0986 Q205.8594,172.0986 205.6719,171.9424 Q205.4844,171.7705 205.4844,171.4893 Q205.4844,171.2236 205.6719,171.0674 Q205.8594,170.8955 206.2813,170.8955 L207.5,170.8955 L207.5,166.1924 L206.2813,166.1924 Q205.8594,166.1924 205.6719,166.0361 Q205.4844,165.8643 205.4844,165.5986 Q205.4844,165.3174 205.6719,165.1611 Q205.8594,164.9893 206.2813,164.9893 L209.9219,164.9893 Q210.3438,164.9893 210.5313,165.1611 Q210.7188,165.3174 210.7188,165.5986 Q210.7188,165.8643 210.5313,166.0361 Q210.3438,166.1924 209.9219,166.1924 L208.7031,166.1924 Z " fill="#000000"/><text fill="#000000" font-family="Arial" font-size="12" font-style="italic" lengthAdjust="spacing" textLength="85" x="226.5" y="172.4551">/Patient/[id]/List/</text><line style="stroke:#181818;stroke-width:0.5;" x1="8" x2="500" y1="183.0986" y2="183.0986"/><text fill="#000000" font-family="Arial" font-size="12" lengthAdjust="spacing" textLength="171" x="13" y="198.3545">&#171;POST&#187; $plan-read [GDA, PAT]</text><text fill="#000000" font-family="Arial" font-size="12" lengthAdjust="spacing" textLength="144" x="13" y="212.1533">&#171;POST&#187; $plan-write [GDA]</text><text fill="#000000" font-family="Arial" font-size="12" lengthAdjust="spacing" textLength="182" x="13" y="225.9521">&#171;POST&#187; $patient-plan-write [PAT]</text><text fill="#000000" font-family="Arial" font-size="12" lengthAdjust="spacing" textLength="149" x="13" y="239.751">&#171;POST&#187; $plan-delete [PAT]</text><text fill="#000000" font-family="Arial" font-size="12" lengthAdjust="spacing" textLength="3" x="13" y="253.5498">&#160;</text><text fill="#000000" font-family="Arial" font-size="12" lengthAdjust="spacing" textLength="482" x="13" y="267.3486">&#171;GET&#187; _history?_include=*&amp;[item=MedicationRequest/{id}]&amp;[subject=Patient/{id}]&amp;{date}</text><line style="stroke:#181818;stroke-width:0.5;" x1="8" x2="500" y1="273.8916" y2="273.8916"/><text fill="#000000" font-family="Arial" font-size="12" lengthAdjust="spacing" textLength="329" x="13" y="289.1475">&#171;GET&#187; _history?_include=* [GDA, PAT] (plan-history-search)</text><text fill="#000000" font-family="Arial" font-size="12" lengthAdjust="spacing" textLength="401" x="13" y="302.9463">&#171;GET&#187; _history?_elements=date,source [GDA, PAT] (plan-history-search)</text></g><!--class IMedicationRequest--><g id="elem_IMedicationRequest"><rect codeLine="63" fill="#F1F1F1" height="114.9941" id="IMedicationRequest" rx="2" ry="2" style="stroke:#181818;stroke-width:0.5;" width="361" x="73.5" y="344.5986"/><ellipse cx="164.5" cy="359.5986" fill="#B4A7E5" rx="10" ry="10" style="stroke:#181818;stroke-width:1.0;"/><path d="M165.7031,357.6924 L165.7031,362.3955 L166.9219,362.3955 Q167.3438,362.3955 167.5313,362.5674 Q167.7188,362.7236 167.7188,363.0049 Q167.7188,363.2705 167.5313,363.4424 Q167.3438,363.5986 166.9219,363.5986 L163.2813,363.5986 Q162.8594,363.5986 162.6719,363.4424 Q162.4844,363.2705 162.4844,362.9893 Q162.4844,362.7236 162.6719,362.5674 Q162.8594,362.3955 163.2813,362.3955 L164.5,362.3955 L164.5,357.6924 L163.2813,357.6924 Q162.8594,357.6924 162.6719,357.5361 Q162.4844,357.3643 162.4844,357.0986 Q162.4844,356.8174 162.6719,356.6611 Q162.8594,356.4893 163.2813,356.4893 L166.9219,356.4893 Q167.3438,356.4893 167.5313,356.6611 Q167.7188,356.8174 167.7188,357.0986 Q167.7188,357.3643 167.5313,357.5361 Q167.3438,357.6924 166.9219,357.6924 L165.7031,357.6924 Z " fill="#000000"/><text fill="#000000" font-family="Arial" font-size="12" font-style="italic" lengthAdjust="spacing" textLength="171" x="183.5" y="363.9551">/Patient/[id]/MedicationRequest/</text><line style="stroke:#181818;stroke-width:0.5;" x1="74.5" x2="433.5" y1="374.5986" y2="374.5986"/><text fill="#000000" font-family="Arial" font-size="12" lengthAdjust="spacing" textLength="185" x="79.5" y="389.8545">&#171;POST&#187; $prescription-write [GDA]</text><text fill="#000000" font-family="Arial" font-size="12" lengthAdjust="spacing" textLength="200" x="79.5" y="403.6533">&#171;POST&#187; $prescription-discard [GDA]</text><line style="stroke:#181818;stroke-width:0.5;" x1="74.5" x2="433.5" y1="410.1963" y2="410.1963"/><text fill="#000000" font-family="Arial" font-size="12" lengthAdjust="spacing" textLength="349" x="79.5" y="425.4521">&#171;GET&#187; ?category=GeplAbgabe [GDA, PAT] (prescription-search)</text><text fill="#000000" font-family="Arial" font-size="12" lengthAdjust="spacing" textLength="329" x="79.5" y="439.251">&#171;GET&#187; ?category=Planeintrag [GDA, PAT] (planentry-search)</text><text fill="#000000" font-family="Arial" font-size="12" lengthAdjust="spacing" textLength="137" x="79.5" y="453.0498">&#171;DELETE&#187; (delete) [PAT]</text></g><!--class IDurchgAbgabe--><g id="elem_IDurchgAbgabe"><rect codeLine="71" fill="#F1F1F1" height="114.9941" id="IDurchgAbgabe" rx="2" ry="2" style="stroke:#181818;stroke-width:0.5;" width="217" x="145.5" y="494.5986"/><ellipse cx="164" cy="509.5986" fill="#B4A7E5" rx="10" ry="10" style="stroke:#181818;stroke-width:1.0;"/><path d="M165.2031,507.6924 L165.2031,512.3955 L166.4219,512.3955 Q166.8438,512.3955 167.0313,512.5674 Q167.2188,512.7236 167.2188,513.0049 Q167.2188,513.2705 167.0313,513.4424 Q166.8438,513.5986 166.4219,513.5986 L162.7813,513.5986 Q162.3594,513.5986 162.1719,513.4424 Q161.9844,513.2705 161.9844,512.9893 Q161.9844,512.7236 162.1719,512.5674 Q162.3594,512.3955 162.7813,512.3955 L164,512.3955 L164,507.6924 L162.7813,507.6924 Q162.3594,507.6924 162.1719,507.5361 Q161.9844,507.3643 161.9844,507.0986 Q161.9844,506.8174 162.1719,506.6611 Q162.3594,506.4893 162.7813,506.4893 L166.4219,506.4893 Q166.8438,506.4893 167.0313,506.6611 Q167.2188,506.8174 167.2188,507.0986 Q167.2188,507.3643 167.0313,507.5361 Q166.8438,507.6924 166.4219,507.6924 L165.2031,507.6924 Z " fill="#000000"/><text fill="#000000" font-family="Arial" font-size="12" font-style="italic" lengthAdjust="spacing" textLength="177" x="178" y="513.9551">/Patient/[id]/MedicationDispense/</text><line style="stroke:#181818;stroke-width:0.5;" x1="146.5" x2="361.5" y1="524.5986" y2="524.5986"/><text fill="#000000" font-family="Arial" font-size="12" lengthAdjust="spacing" textLength="172" x="151.5" y="539.8545">&#171;POST&#187; $dispense-write [GDA]</text><text fill="#000000" font-family="Arial" font-size="12" lengthAdjust="spacing" textLength="187" x="151.5" y="553.6533">&#171;POST&#187; $dispense-discard [GDA]</text><text fill="#000000" font-family="Arial" font-size="12" lengthAdjust="spacing" textLength="170" x="151.5" y="567.4521">&#171;POST&#187; $reference-plan [GDA]</text><line style="stroke:#181818;stroke-width:0.5;" x1="146.5" x2="361.5" y1="573.9951" y2="573.9951"/><text fill="#000000" font-family="Arial" font-size="12" lengthAdjust="spacing" textLength="205" x="151.5" y="589.251">&#171;GET&#187; (dispense-search) [GDA, PAT]</text><text fill="#000000" font-family="Arial" font-size="12" lengthAdjust="spacing" textLength="137" x="151.5" y="603.0498">&#171;DELETE&#187; (delete) [PAT]</text></g><!--link IDurchgAbgabe to p3--><g id="link_IDurchgAbgabe_p3"><path codeLine="90" d="M362.68,521.9686 C406,509.1386 456.21,493.3986 501,477.0986 C548.73,459.7286 604.5,434.0986 622.26,425.7986 " fill="none" id="IDurchgAbgabe-p3" style="stroke:#181818;stroke-width:1.0;"/></g><!--link IMedicationRequest to p2--><g id="link_IMedicationRequest_p2"><path codeLine="91" d="M434.64,377.7586 C514.92,366.8786 596.42,355.8386 618.31,352.8686 " fill="none" id="IMedicationRequest-p2" style="stroke:#181818;stroke-width:1.0;"/></g><!--link IList to p4--><g id="link_IList_p4"><path codeLine="92" d="M501.23,264.5486 C555.27,271.8986 601.19,278.1386 617.06,280.2886 " fill="none" id="IList-p4" style="stroke:#181818;stroke-width:1.0;"/></g><!--link IEmed to p1--><g id="link_IEmed_p1"><path codeLine="93" d="M365.7,95.0386 C409.22,103.1486 458.77,115.7386 501,135.0986 C549.06,157.1286 596.33,201.5586 611.76,216.8186 " fill="none" id="IEmed-p1" style="stroke:#181818;stroke-width:1.0;"/></g><rect fill="none" height="58.2959" id="_legend" rx="2" ry="2" style="stroke:#000000;stroke-width:1.0;" width="254" x="566" y="627.5928"/><text fill="#000000" font-family="Arial" font-size="14" font-weight="bold" lengthAdjust="spacing" textLength="184" x="571" y="645.7246">Legende Berechtigungen:</text><text fill="#000000" font-family="Arial" font-size="14" lengthAdjust="spacing" textLength="232" x="571" y="661.8232">[GDA] = Gesundheitsdiensteanbieter</text><text fill="#000000" font-family="Arial" font-size="14" lengthAdjust="spacing" textLength="244" x="571" y="677.9219">[PAT] = PATIENT: ELGA-Teilnehmer:in</text><!--SRC=[ZLPHSzf647wEViN5wSJWiS36SJhr3DCHGiQC0NcGafd6yMWEQP6k5YVrxh3ZPlnlyjQVq3ubVwnxaY32uBIysDn-k_lTjtkxq3JDxXVi4-EniKzUCXwcomZ8Ng9KBi_QRK7lMp5JoNAsb232Z2lWgXLcYxPQvZGI9-qyfLmj5wd9q6hE4M7AN305idrtqZfg7RMrGROB2xq7cIt0F6thS46KXIeJhHpTzmpChvXAWKICne8k5dWmjDr9q7VjHeay70tVEuSrryDPIiFR9darpHvesakNeCD81Ih9P9Zby6BWlWyyt_4lNCzshnoqpYWo3Y6G8KtXnRbr6lIiaJMndS2phP56p5CgRmlB-SZoBl4aeJmAaYoDKATW0H53tm9mOKtwmOKxwWydWs3iz8SOGkE12ZK3gagGOqtzdcFvQ47f5YZXHX3R7O-TYL_p3rF6MRW96WqdGtkDCGnvotXEKIWTCyyuHlNK0-g7QdPgrXmLeZ6KDW6XeZnEeUu_oqG4mixIJ91NfyMdRaN_M6HB7bM8y-9JGyY4HjazIaFcD9LGirHkWeCWRshd4SpfCbNds1CJki1-imIZs0Cx4Hxx4yXnPxUnudHKV0pZ9PeO1sAx8tSQEAXMS6uHyWf- -Rbpqfb5kZsq4WNPR_y8ycuyCYzN-W4do9TuOSAPKjX6QOf7ZKli1ybac429znHBcxlq9vyDGdfFzDgWWlRzNbtkevEtR_jlzV7sRQh3id8px3xZiLusXeJ5d8PGfDtlFLEdhOn7fxPzgaEbC5T4PKImE57ux7Hpi8mRHlaEfuxdcvjQd97LOBZ6HtW7uWORyJkFlVOUeP8C7MpSWjJNlwvSp__wD_b9CyjPX2AnEGDXXW9V1v3hGT-w-I5GubCAamhuk9djYYg6mFOrYsxQ8oPLbL__-oI_7bCcveoAI8Vaol9ljW7tUd3j89MNYSmwQ7U425BOi0uSRGmIf9I9Xr-3QiHs3sf4IAFmhJ3LbPl6Z_rVNoEDHNTSp0XTjodyiGJKu3EB7czUNylbx7SiQ7SbKddyEKBP7tT6HkPwDCckXXpAR2b2-6-IFoh9DhUoFbldJuibG8Q2vHhnV4tge0YV9nLH3LRUxbTC0p7oxGuWJwrPJ6TFxbIFihhJBlyhl3pWJGMDjqJ12zSKqTvzP-Ju3WPeb0tHh3hYaVmlkVfCvi0bL7hriHH9NB7Vb2ggaC_Aj0PiIxI229Y30Do9HNzlQTXOXwXk-FG9FNjPGuzRqpI9znlkuF6bExvo9xZf7DBuW7-ck6wdn7EcxvrfK-CCu_ietND60-iZ1rEhSbkeKeZX5NEdK27F1EBqO__86zzXKj-YMO3pDslOjhZeL0eBk0aIWUgL2gzyJtRuLlsAhkj- -FOb1hqsFdBTOlXZw6cSpZeEOA3oxBWG9pyXvZ8tDmjiv9tgT2kjaR-fJFhIHdvSVTFprj3pF0PSNyKunvm71wFY04WFonicYiLBZWTd1mTeBQfCkcG04iadm9ICi1Lnq5C-OrX5eK55ZtTrgOTOi3EYYsBwm58EoGB46UE6JbbcNbNRcjeNGz-vzDzDpOdh3x7MPNNt2S-KNcLAPGkIpQjYuhbcYwkLT5f7n5xtW9T3Y5kWr01PQzm7_TZmbviazTQGflU0r1VabkOIKaLo4BYoyN5XNGi_t7vfkTz83o-i0pJkMiUaJUvQdMQnztr1kQGRc1RwwWjgtcl-vRv4-iCILV6VWYo79iTV5DW6dzHPnTdXAlds1LbjLVImi5TJ09-KqEcr7SH6wdy1]--></g></svg>