<svg xmlns="http://www.w3.org/2000/svg" xmlns:xlink="http://www.w3.org/1999/xlink" version="1.1" data-diagram-type="SEQUENCE" style="width:991px;height:1021px;background:#F5F5F5;" width="991px" height="1021px" viewBox="0 0 991 1021" zoomAndPan="magnify" preserveAspectRatio="none" contentStyleType="text/css"><?plantuml 1.2026.7beta3?><defs><linearGradient x1="50%" y1="0%" x2="50%" y2="100%" id="g1egyhm8u6nmd50"><stop stop-color="#E0E5F0" offset="0%"/><stop stop-color="#D1D9E6" offset="100%"/></linearGradient></defs><g><rect x="0" y="0" width="991" height="1021" fill="#F5F5F5" style="stroke:none;stroke-width:1;"/><g class="title" data-source-line="1"><text x="427.832" y="27.9951" fill="#000000" font-size="14" lengthAdjust="spacing" textLength="129.3223" font-weight="700" font-family="'Arial'">Plan-Write-Error</text></g><g><title>GDA 1</title><rect x="150.2817" y="194.0234" width="10" height="674.5313" fill="#156082" fill-opacity="0.50196" style="stroke:#181818;stroke-width:1;"/></g><g><title>e-Med FA</title><rect x="536.8208" y="194.0234" width="10" height="29.1328" fill="#E97132" fill-opacity="0.50196" style="stroke:#181818;stroke-width:1;"/></g><g><title>e-Med FA</title><rect x="536.8208" y="349.1797" width="10" height="29.1328" fill="#E97132" fill-opacity="0.50196" style="stroke:#181818;stroke-width:1;"/></g><g><title>e-Med FA</title><rect x="536.8208" y="519.4688" width="10" height="86.3984" fill="#E97132" fill-opacity="0.50196" style="stroke:#181818;stroke-width:1;"/></g><g><title>e-Med FA</title><rect x="536.8208" y="715.5938" width="10" height="152.9609" fill="#E97132" fill-opacity="0.50196" style="stroke:#181818;stroke-width:1;"/></g><g><title>GDA 2</title><rect x="825.7881" y="349.1797" width="10" height="256.6875" fill="#96607D" fill-opacity="0.50196" style="stroke:#181818;stroke-width:1;"/></g><g class="participant-lifeline" data-qualified-name="GDA_1" data-entity-uid="part1" id="part1-lifeline" data-source-line="52"><g><title>GDA 1</title><rect x="151.2817" y="118.5938" width="8" height="820.5547" fill="#000000" fill-opacity="0.00000"/><line x1="155" y1="118.5938" x2="155" y2="939.1484" style="stroke:#181818;stroke-width:0.5;stroke-dasharray:5,5;"/></g></g><g class="participant-lifeline" data-qualified-name="eMed_FA" data-entity-uid="part2" id="part2-lifeline" data-source-line="53"><g><title>e-Med FA</title><rect x="537.8208" y="118.5938" width="8" height="820.5547" fill="#000000" fill-opacity="0.00000"/><line x1="541.1587" y1="118.5938" x2="541.1587" y2="939.1484" style="stroke:#181818;stroke-width:0.5;stroke-dasharray:5,5;"/></g></g><g class="participant-lifeline" data-qualified-name="GDA_2" data-entity-uid="part3" id="part3-lifeline" data-source-line="54"><g><title>GDA 2</title><rect x="826.7881" y="118.5938" width="8" height="820.5547" fill="#000000" fill-opacity="0.00000"/><line x1="830.5063" y1="118.5938" x2="830.5063" y2="939.1484" style="stroke:#181818;stroke-width:0.5;stroke-dasharray:5,5;"/></g></g><g class="participant participant-head" data-qualified-name="GDA_1" data-entity-uid="part1" id="part1-head" data-source-line="52"><text x="130" y="115.292" fill="#000000" font-size="14" lengthAdjust="spacing" textLength="44.5635" font-family="'Arial'">GDA 1</text><ellipse cx="155.2817" cy="50.7969" rx="8" ry="8" fill="#156082" fill-opacity="0.50196" style="stroke:#181818;stroke-width:0.5;"/><path d="M155.2817,58.7969 L155.2817,85.7969 M142.2817,66.7969 L168.2817,66.7969 M155.2817,85.7969 L142.2817,100.7969 M155.2817,85.7969 L168.2817,100.7969" style="stroke:#181818;stroke-width:0.5;" fill="none"/></g><g class="participant participant-tail" data-qualified-name="GDA_1" data-entity-uid="part1" id="part1-tail" data-source-line="52"><text x="130" y="951.1436" fill="#000000" font-size="14" lengthAdjust="spacing" textLength="44.5635" font-family="'Arial'">GDA 1</text><ellipse cx="155.2817" cy="962.9453" rx="8" ry="8" fill="#156082" fill-opacity="0.50196" style="stroke:#181818;stroke-width:0.5;"/><path d="M155.2817,970.9453 L155.2817,997.9453 M142.2817,978.9453 L168.2817,978.9453 M155.2817,997.9453 L142.2817,1012.9453 M155.2817,997.9453 L168.2817,1012.9453" style="stroke:#181818;stroke-width:0.5;" fill="none"/></g><g class="participant participant-head" data-qualified-name="eMed_FA" data-entity-uid="part2" id="part2-head" data-source-line="53"><rect x="502.1587" y="87.2969" width="79.3242" height="30.2969" fill="#E97132" fill-opacity="0.50196" style="stroke:#555555;stroke-width:0.5;" rx="5" ry="5"/><text x="509.1587" y="107.292" fill="#000000" font-size="14" lengthAdjust="spacing" textLength="65.3242" font-family="'Arial'">e-Med FA</text></g><g class="participant participant-tail" data-qualified-name="eMed_FA" data-entity-uid="part2" id="part2-tail" data-source-line="53"><rect x="502.1587" y="938.1484" width="79.3242" height="30.2969" fill="#E97132" fill-opacity="0.50196" style="stroke:#555555;stroke-width:0.5;" rx="5" ry="5"/><text x="509.1587" y="958.1436" fill="#000000" font-size="14" lengthAdjust="spacing" textLength="65.3242" font-family="'Arial'">e-Med FA</text></g><g class="participant participant-head" data-qualified-name="GDA_2" data-entity-uid="part3" id="part3-head" data-source-line="54"><text x="805.5063" y="115.292" fill="#000000" font-size="14" lengthAdjust="spacing" textLength="44.5635" font-family="'Arial'">GDA 2</text><ellipse cx="830.7881" cy="50.7969" rx="8" ry="8" fill="#96607D" fill-opacity="0.50196" style="stroke:#181818;stroke-width:0.5;"/><path d="M830.7881,58.7969 L830.7881,85.7969 M817.7881,66.7969 L843.7881,66.7969 M830.7881,85.7969 L817.7881,100.7969 M830.7881,85.7969 L843.7881,100.7969" style="stroke:#181818;stroke-width:0.5;" fill="none"/></g><g class="participant participant-tail" data-qualified-name="GDA_2" data-entity-uid="part3" id="part3-tail" data-source-line="54"><text x="805.5063" y="951.1436" fill="#000000" font-size="14" lengthAdjust="spacing" textLength="44.5635" font-family="'Arial'">GDA 2</text><ellipse cx="830.7881" cy="962.9453" rx="8" ry="8" fill="#96607D" fill-opacity="0.50196" style="stroke:#181818;stroke-width:0.5;"/><path d="M830.7881,970.9453 L830.7881,997.9453 M817.7881,978.9453 L843.7881,978.9453 M830.7881,997.9453 L817.7881,1012.9453 M830.7881,997.9453 L843.7881,1012.9453" style="stroke:#181818;stroke-width:0.5;" fill="none"/></g><g><title>GDA 1</title><rect x="150.2817" y="194.0234" width="10" height="674.5313" fill="#156082" fill-opacity="0.50196" style="stroke:#181818;stroke-width:1;"/></g><g><title>e-Med FA</title><rect x="536.8208" y="194.0234" width="10" height="29.1328" fill="#E97132" fill-opacity="0.50196" style="stroke:#181818;stroke-width:1;"/></g><g><title>e-Med FA</title><rect x="536.8208" y="349.1797" width="10" height="29.1328" fill="#E97132" fill-opacity="0.50196" style="stroke:#181818;stroke-width:1;"/></g><g><title>e-Med FA</title><rect x="536.8208" y="519.4688" width="10" height="86.3984" fill="#E97132" fill-opacity="0.50196" style="stroke:#181818;stroke-width:1;"/></g><g><title>e-Med FA</title><rect x="536.8208" y="715.5938" width="10" height="152.9609" fill="#E97132" fill-opacity="0.50196" style="stroke:#181818;stroke-width:1;"/></g><g><title>GDA 2</title><rect x="825.7881" y="349.1797" width="10" height="256.6875" fill="#96607D" fill-opacity="0.50196" style="stroke:#181818;stroke-width:1;"/></g><rect x="0" y="149.7422" width="985.9863" height="3" fill="#EEEEEE" style="stroke:#EEEEEE;stroke-width:1;" rx="5" ry="5"/><line x1="0" y1="149.7422" x2="985.9863" y2="149.7422" style="stroke:#000000;stroke-width:1;"/><line x1="0" y1="152.7422" x2="985.9863" y2="152.7422" style="stroke:#000000;stroke-width:1;"/><rect x="391.8076" y="138.5938" width="202.3711" height="24.2969" fill="#EEEEEE" style="stroke:#000000;stroke-width:2;" rx="5" ry="5"/><text x="397.8076" y="155.5889" fill="#000000" font-size="14" lengthAdjust="spacing" textLength="183.4971" font-weight="700" font-family="'Arial'">Plan-Read durch GDA 1</text><g class="message" data-entity-1="part1" data-entity-2="part2" id="msg1" data-source-line="60"><polygon points="524.8208,190.0234,534.8208,194.0234,524.8208,198.0234,528.8208,194.0234" fill="#111827" style="stroke:#111827;stroke-width:1;stroke-linejoin:miter;stroke-miterlimit:10;"/><line x1="160.2817" y1="194.0234" x2="530.8208" y2="194.0234" style="stroke:#111827;stroke-width:1;"/><text x="167.2817" y="188.9575" fill="#000000" font-size="13" lengthAdjust="spacing" textLength="9.0454" font-weight="700" font-family="'Arial'">1</text><text x="180.3271" y="188.9575" fill="#000000" font-size="13" lengthAdjust="spacing" textLength="108.9893" font-family="'Arial'">POST $plan-read</text></g><g class="message" data-entity-1="part2" data-entity-2="part1" id="msg2" data-source-line="64"><polygon points="171.2817,219.1563,161.2817,223.1563,171.2817,227.1563,167.2817,223.1563" fill="#111827" style="stroke:#111827;stroke-width:1;stroke-linejoin:miter;stroke-miterlimit:10;"/><line x1="165.2817" y1="223.1563" x2="540.8208" y2="223.1563" style="stroke:#111827;stroke-width:1;"/><text x="177.2817" y="218.0903" fill="#000000" font-size="13" lengthAdjust="spacing" textLength="9.0454" font-weight="700" font-family="'Arial'">2</text><text x="190.3271" y="218.0903" fill="#000000" font-size="13" lengthAdjust="spacing" textLength="206.1274" font-family="'Arial'">Collection Bundle + ETag "123"</text></g><path d="M5,241.1563 L5,273.1563 A5,5 0 0 0 10,278.1563 L300,278.1563 A5,5 0 0 0 305,273.1563 L305,246.1563 L295,236.1563 L10,236.1563 A5,5 0 0 0 5,241.1563" style="stroke:#8B95A5;stroke-width:1;" fill="url(#g1egyhm8u6nmd50)"/><path d="M295,236.1563 L295,243.6563 A2.5,2.5 0 0 0 297.5,246.1563 L305,246.1563 L295,236.1563" style="stroke:#8B95A5;stroke-width:1;" fill="url(#g1egyhm8u6nmd50)"/><text x="11" y="254.1514" fill="#111827" font-size="14" lengthAdjust="spacing" textLength="240.7754" font-family="'Arial'">GDA 1 bearbeitet Medikationsplan</text><text x="11" y="270.4482" fill="#111827" font-size="14" lengthAdjust="spacing" textLength="279.9863" font-family="'Arial'">(Einträge hinzufügen/ändern/entfernen)</text><rect x="0" y="304.8984" width="985.9863" height="3" fill="#EEEEEE" style="stroke:#EEEEEE;stroke-width:1;" rx="5" ry="5"/><line x1="0" y1="304.8984" x2="985.9863" y2="304.8984" style="stroke:#000000;stroke-width:1;"/><line x1="0" y1="307.8984" x2="985.9863" y2="307.8984" style="stroke:#000000;stroke-width:1;"/><rect x="391.8076" y="293.75" width="202.3711" height="24.2969" fill="#EEEEEE" style="stroke:#000000;stroke-width:2;" rx="5" ry="5"/><text x="397.8076" y="310.7451" fill="#000000" font-size="14" lengthAdjust="spacing" textLength="183.4971" font-weight="700" font-family="'Arial'">Plan-Read durch GDA 2</text><g class="message" data-entity-1="part3" data-entity-2="part2" id="msg3" data-source-line="74"><polygon points="557.8208,345.1797,547.8208,349.1797,557.8208,353.1797,553.8208,349.1797" fill="#111827" style="stroke:#111827;stroke-width:1;stroke-linejoin:miter;stroke-miterlimit:10;"/><line x1="551.8208" y1="349.1797" x2="824.7881" y2="349.1797" style="stroke:#111827;stroke-width:1;"/><text x="563.8208" y="344.1138" fill="#000000" font-size="13" lengthAdjust="spacing" textLength="9.0454" font-weight="700" font-family="'Arial'">3</text><text x="576.8662" y="344.1138" fill="#000000" font-size="13" lengthAdjust="spacing" textLength="108.9893" font-family="'Arial'">POST $plan-read</text></g><g class="message" data-entity-1="part2" data-entity-2="part3" id="msg4" data-source-line="79"><polygon points="813.7881,374.3125,823.7881,378.3125,813.7881,382.3125,817.7881,378.3125" fill="#111827" style="stroke:#111827;stroke-width:1;stroke-linejoin:miter;stroke-miterlimit:10;"/><line x1="541.8208" y1="378.3125" x2="819.7881" y2="378.3125" style="stroke:#111827;stroke-width:1;"/><text x="548.8208" y="373.2466" fill="#000000" font-size="13" lengthAdjust="spacing" textLength="9.0454" font-weight="700" font-family="'Arial'">4</text><text x="561.8662" y="373.2466" fill="#000000" font-size="13" lengthAdjust="spacing" textLength="206.1274" font-family="'Arial'">Collection Bundle + ETag "123"</text></g><path d="M680,396.3125 L680,428.3125 A5,5 0 0 0 685,433.3125 L975,433.3125 A5,5 0 0 0 980,428.3125 L980,401.3125 L970,391.3125 L685,391.3125 A5,5 0 0 0 680,396.3125" style="stroke:#8B95A5;stroke-width:1;" fill="url(#g1egyhm8u6nmd50)"/><path d="M970,391.3125 L970,398.8125 A2.5,2.5 0 0 0 972.5,401.3125 L980,401.3125 L970,391.3125" style="stroke:#8B95A5;stroke-width:1;" fill="url(#g1egyhm8u6nmd50)"/><text x="686" y="409.3076" fill="#111827" font-size="14" lengthAdjust="spacing" textLength="240.7754" font-family="'Arial'">GDA 2 bearbeitet Medikationsplan</text><text x="686" y="425.6045" fill="#111827" font-size="14" lengthAdjust="spacing" textLength="279.9863" font-family="'Arial'">(Einträge hinzufügen/ändern/entfernen)</text><rect x="0" y="460.0547" width="985.9863" height="3" fill="#EEEEEE" style="stroke:#EEEEEE;stroke-width:1;" rx="5" ry="5"/><line x1="0" y1="460.0547" x2="985.9863" y2="460.0547" style="stroke:#000000;stroke-width:1;"/><line x1="0" y1="463.0547" x2="985.9863" y2="463.0547" style="stroke:#000000;stroke-width:1;"/><rect x="390.0132" y="448.9063" width="205.96" height="24.2969" fill="#EEEEEE" style="stroke:#000000;stroke-width:2;" rx="5" ry="5"/><text x="396.0132" y="465.9014" fill="#000000" font-size="14" lengthAdjust="spacing" textLength="187.0859" font-weight="700" font-family="'Arial'">Plan-Write durch GDA 2</text><g class="message" data-entity-1="part3" data-entity-2="part2" id="msg5" data-source-line="89"><polygon points="557.8208,515.4688,547.8208,519.4688,557.8208,523.4688,553.8208,519.4688" fill="#111827" style="stroke:#111827;stroke-width:1;stroke-linejoin:miter;stroke-miterlimit:10;"/><line x1="551.8208" y1="519.4688" x2="824.7881" y2="519.4688" style="stroke:#111827;stroke-width:1;"/><text x="563.8208" y="506.8364" fill="#000000" font-size="13" lengthAdjust="spacing" textLength="9.0454" font-weight="700" font-family="'Arial'">5</text><text x="576.8662" y="499.27" fill="#000000" font-size="13" lengthAdjust="spacing" textLength="197.5962" font-family="'Arial'">POST $plan-write (Transaction</text><text x="576.8662" y="514.4028" fill="#000000" font-size="13" lengthAdjust="spacing" textLength="142.7651" font-family="'Arial'">Bundle + ETag "123")</text></g><g class="message" data-entity-1="part2" data-entity-2="part2" id="msg6" data-source-line="92"><line x1="546.8208" y1="563.7344" x2="588.8208" y2="563.7344" style="stroke:#111827;stroke-width:1;"/><line x1="588.8208" y1="563.7344" x2="588.8208" y2="576.7344" style="stroke:#111827;stroke-width:1;"/><line x1="547.8208" y1="576.7344" x2="588.8208" y2="576.7344" style="stroke:#111827;stroke-width:1;"/><polygon points="557.8208,572.7344,547.8208,576.7344,557.8208,580.7344,553.8208,576.7344" fill="#111827" style="stroke:#111827;stroke-width:1;stroke-linejoin:miter;stroke-miterlimit:10;"/><text x="553.8208" y="551.1021" fill="#000000" font-size="13" lengthAdjust="spacing" textLength="9.0454" font-weight="700" font-family="'Arial'">6</text><text x="566.8662" y="543.5356" fill="#000000" font-size="13" lengthAdjust="spacing" textLength="171.0693" font-family="'Arial'">ETag "123" im Header ==</text><text x="566.8662" y="558.6685" fill="#000000" font-size="13" lengthAdjust="spacing" textLength="210.0249" font-family="'Arial'">ETag der Fachanwendung "123"</text></g><g class="message" data-entity-1="part2" data-entity-2="part3" id="msg7" data-source-line="93"><polygon points="818.7881,601.8672,828.7881,605.8672,818.7881,609.8672,822.7881,605.8672" fill="#111827" style="stroke:#111827;stroke-width:1;stroke-linejoin:miter;stroke-miterlimit:10;"/><line x1="541.8208" y1="605.8672" x2="824.7881" y2="605.8672" style="stroke:#111827;stroke-width:1;stroke-dasharray:2,2;"/><text x="548.8208" y="600.8013" fill="#000000" font-size="13" lengthAdjust="spacing" textLength="9.0454" font-weight="700" font-family="'Arial'">7</text><text x="561.8662" y="600.8013" fill="#000000" font-size="13" lengthAdjust="spacing" textLength="18.7573" font-family="'Arial'">OK</text></g><path d="M359,623.8672 L359,639.8672 A5,5 0 0 0 364,644.8672 L718,644.8672 A5,5 0 0 0 723,639.8672 L723,628.8672 L713,618.8672 L364,618.8672 A5,5 0 0 0 359,623.8672" style="stroke:#8B95A5;stroke-width:1;" fill="url(#g1egyhm8u6nmd50)"/><path d="M713,618.8672 L713,626.3672 A2.5,2.5 0 0 0 715.5,628.8672 L723,628.8672 L713,618.8672" style="stroke:#8B95A5;stroke-width:1;" fill="url(#g1egyhm8u6nmd50)"/><text x="365" y="636.8623" fill="#111827" font-size="14" lengthAdjust="spacing" textLength="343.4238" font-family="'Arial'">Medikationsplan wurde durch GDA 2 aktualisiert.</text><rect x="0" y="671.3125" width="985.9863" height="3" fill="#EEEEEE" style="stroke:#EEEEEE;stroke-width:1;" rx="5" ry="5"/><line x1="0" y1="671.3125" x2="985.9863" y2="671.3125" style="stroke:#000000;stroke-width:1;"/><line x1="0" y1="674.3125" x2="985.9863" y2="674.3125" style="stroke:#000000;stroke-width:1;"/><rect x="378.2588" y="660.1641" width="229.4688" height="24.2969" fill="#EEEEEE" style="stroke:#000000;stroke-width:2;" rx="5" ry="5"/><text x="384.2588" y="677.1592" fill="#000000" font-size="14" lengthAdjust="spacing" textLength="210.5947" font-weight="700" font-family="'Arial'">Plan-Write-Error für GDA 1</text><g class="message" data-entity-1="part1" data-entity-2="part2" id="msg8" data-source-line="104"><polygon points="524.8208,711.5938,534.8208,715.5938,524.8208,719.5938,528.8208,715.5938" fill="#111827" style="stroke:#111827;stroke-width:1;stroke-linejoin:miter;stroke-miterlimit:10;"/><line x1="160.2817" y1="715.5938" x2="530.8208" y2="715.5938" style="stroke:#111827;stroke-width:1;"/><text x="167.2817" y="710.5278" fill="#000000" font-size="13" lengthAdjust="spacing" textLength="9.0454" font-weight="700" font-family="'Arial'">8</text><text x="180.3271" y="710.5278" fill="#000000" font-size="13" lengthAdjust="spacing" textLength="344.4937" font-family="'Arial'">POST $plan-write (Transaction Bundle + ETag "123")</text></g><g class="message" data-entity-1="part2" data-entity-2="part2" id="msg9" data-source-line="107"><line x1="546.8208" y1="790.125" x2="588.8208" y2="790.125" style="stroke:#111827;stroke-width:1;"/><line x1="588.8208" y1="790.125" x2="588.8208" y2="803.125" style="stroke:#111827;stroke-width:1;"/><line x1="547.8208" y1="803.125" x2="588.8208" y2="803.125" style="stroke:#111827;stroke-width:1;"/><polygon points="557.8208,799.125,547.8208,803.125,557.8208,807.125,553.8208,803.125" fill="#111827" style="stroke:#111827;stroke-width:1;stroke-linejoin:miter;stroke-miterlimit:10;"/><text x="553.8208" y="762.3599" fill="#000000" font-size="13" lengthAdjust="spacing" textLength="9.0454" font-weight="700" font-family="'Arial'">9</text><text x="566.8662" y="739.6606" fill="#000000" font-size="13" lengthAdjust="spacing" textLength="231.6577" font-family="'Arial'">ETag im Header "123" stimmt nicht</text><text x="566.8662" y="754.7935" fill="#000000" font-size="13" lengthAdjust="spacing" textLength="194.6255" font-family="'Arial'">mit ETag der Fachanwendung</text><text x="566.8662" y="769.9263" fill="#000000" font-size="13" lengthAdjust="spacing" textLength="241.9219" font-family="'Arial'">überein, da er bereits zum Schreiben</text><text x="566.8662" y="785.0591" fill="#000000" font-size="13" lengthAdjust="spacing" textLength="113.8516" font-family="'Arial'">verwendet wurde</text></g><path d="M405,821.125 L405,837.125 A5,5 0 0 0 410,842.125 L672,842.125 A5,5 0 0 0 677,837.125 L677,826.125 L667,816.125 L410,816.125 A5,5 0 0 0 405,821.125" style="stroke:#8B95A5;stroke-width:1;" fill="url(#g1egyhm8u6nmd50)"/><path d="M667,816.125 L667,823.625 A2.5,2.5 0 0 0 669.5,826.125 L677,826.125 L667,816.125" style="stroke:#8B95A5;stroke-width:1;" fill="url(#g1egyhm8u6nmd50)"/><text x="411" y="834.1201" fill="#111827" font-size="14" lengthAdjust="spacing" textLength="251.7539" font-family="'Arial'">Fachanwendung lehnt Speichern ab</text><g class="message" data-entity-1="part2" data-entity-2="part1" id="msg10" data-source-line="111"><polygon points="166.2817,864.5547,156.2817,868.5547,166.2817,872.5547,162.2817,868.5547" fill="#111827" style="stroke:#111827;stroke-width:1;stroke-linejoin:miter;stroke-miterlimit:10;"/><line x1="160.2817" y1="868.5547" x2="540.8208" y2="868.5547" style="stroke:#111827;stroke-width:1;stroke-dasharray:2,2;"/><text x="172.2817" y="863.4888" fill="#000000" font-size="13" lengthAdjust="spacing" textLength="18.0908" font-weight="700" font-family="'Arial'">10</text><text x="194.3726" y="863.4888" fill="#000000" font-size="13" lengthAdjust="spacing" textLength="104.0889" font-family="'Arial'">Fehler (Konflikt)</text></g><path d="M125,886.5547 L125,918.5547 A5,5 0 0 0 130,923.5547 L566,923.5547 A5,5 0 0 0 571,918.5547 L571,891.5547 L561,881.5547 L130,881.5547 A5,5 0 0 0 125,886.5547" style="stroke:#8B95A5;stroke-width:1;" fill="url(#g1egyhm8u6nmd50)"/><path d="M561,881.5547 L561,889.0547 A2.5,2.5 0 0 0 563.5,891.5547 L571,891.5547 L561,881.5547" style="stroke:#8B95A5;stroke-width:1;" fill="url(#g1egyhm8u6nmd50)"/><text x="164.9133" y="899.5498" fill="#111827" font-size="14" lengthAdjust="spacing" textLength="353.2061" font-family="'Arial'">Speichern des Medikationsplans wurde abgelehnt,</text><text x="164.9133" y="915.8467" fill="#111827" font-size="14" lengthAdjust="spacing" textLength="341.0176" font-family="'Arial'">der GDA 1 muss ein neues Plan-Read ausführen.</text><?plantuml-src jLPjZzf64FxkNp65IhrJZyRsdRaZ4fNWpYHLce20Ab9qqccn1rXXrcIz3irL_JVv6VbsVwpZDU3rIw94Iiq7s9rdPvvvPdQCuYf2c4HCTDvAhh3ZInbBo_ebsN2nOv9jWGKgbZFraN1iZqcyHSigh8jOXYXluoYMqBRrOrfPi5d9E1NX0R7qie-1IDOiZFTSh639eWGDo-6O52Z1CPs6k6Hff4QnK6_O5g4ra9n5hMR4Z3yYE5VDnY_HVlbnXpBYOcC0VBy9y9S8zG-iqH_6VqzO66QPkNPvVsXgvkd7b5J42k4V2s1OLGzjz9PsfnqwOG-x6SBqTBFeUSmxxSxNFDW8J19mQ6zgg6dJ-iWjys98uJZEZNjDUxDANVur6IRuFaKHv2mdJ2eUy1qJgYcnCg3M3_efW-gLgPcFLIqP3Ba11jJ7-sfIUhEiYzvgYdWovB4kQUi5CT-LSZnvpasrUk7IrTaP9ulmRYRgJzIEMVlSZlySJnzUt0qU7A2dxNXT-yQziHi0hWRqkbtx-gu6c0pcV_Xlvfc7NdVeNjK0WyaOzDEsHpt_pkjL0Vvh_-vXD220txjsBkiS_8Uf_ywVpA5zQtlsLSQXWXY_Wb8Crwkwc4x7Kmt8OrpI1T1p1d85M08j-WLEonJ6sXN51doDOKOpWsA75Z0QjCef62xTaqlNTEbIs5J58jqkK5fWzVlvB9mY2o5CPR06JGFwVSlAgNL-FuP-3fFnR0u_xx8JaavayVW7HhStXvhK2zkHU9dgSPVSwmFFWNeeGZeK2nXIIz7u_HNyELj1ot4lMrQ8LO-MfIT7_04FCbevzmKokK0QxWe8o3SiyvbahAqpdmibdpwj4DPSFARBfyyh5C-UFcLZJJn3ePRqZUBSGX7gmMHzIIFtf97xxHgvbLfyNQEgIEuF4CcrSlB_aqZwfVfzAktraREvP29XEhLxqP3R-VUqr2bESHuulSQe8AH3ltylj25RZ5YmPc9FgQJYAEF9Ko4yNN5JtKC12ssFSbV4X7rAGx0a2Dkeb4KyuIZLRuQ4JRKhoPh_Lm4gX_pMMrhN5dwij8MekSY9ujkj0i63jReNMwwWMUXxyVIPHX1oSG4X0pBhbKhWCTt2B5ZJOe7K2QHjTeJQL2lPe7YvW16kQLZETaWCg4k1BGg9gsMbeJF2TKI-pbx5OXdnZJgl5jcfHxmu68eW8IRLMvGSAiyMAzISBhB-EHPkczBxa987WIcTBUOBInEgBsKlljuQ_m40?></g></svg>