<?xml version="1.0" encoding="us-ascii" standalone="no"?><svg xmlns="http://www.w3.org/2000/svg" xmlns:xlink="http://www.w3.org/1999/xlink" contentStyleType="text/css" height="793px" preserveAspectRatio="none" style="width:701px;height:793px;background:#F5F5F5;" version="1.1" viewBox="0 0 701 793" width="701px" zoomAndPan="magnify"><defs><linearGradient id="gzzx1odjhgbx80" x1="50%" x2="50%" y1="0%" y2="100%"><stop offset="0%" stop-color="#E0E5F0"/><stop offset="100%" stop-color="#D1D9E6"/></linearGradient></defs><g><rect fill="#F5F5F5" height="793" style="stroke:none;stroke-width:1.0;" width="701" x="0" y="0"/><text fill="#000000" font-family="Arial" font-size="14" font-weight="bold" lengthAdjust="spacing" textLength="71" x="311" y="28.1318">Plan-Read</text><rect fill="#156082" fill-opacity="0.50196" height="511.1226" style="stroke:#181818;stroke-width:1.0;" width="10" x="103" y="193.2446"/><rect fill="#E97232" fill-opacity="0.74118" height="384.8779" style="stroke:#181818;stroke-width:1.0;" width="10" x="429" y="193.2446"/><rect fill="#0F9ED5" fill-opacity="0.14510" height="268.7832" rx="5" ry="5" style="stroke:#111827;stroke-width:2.0;" width="610" x="74" y="317.3394"/><path d="M74,482.1777 L684,482.1777 L684,581.1226 A5,5 0 0 1 679,586.1226 L79,586.1226 A5,5 0 0 1 74,581.1226 L74,482.1777 " fill="#E97132" fill-opacity="0.20784" style="stroke:none;stroke-width:1.0;"/><line style="stroke:#181818;stroke-width:0.5;stroke-dasharray:5.0,5.0;" x1="108" x2="108" y1="118.1973" y2="713.3672"/><line style="stroke:#181818;stroke-width:0.5;stroke-dasharray:5.0,5.0;" x1="434" x2="434" y1="118.1973" y2="713.3672"/><text fill="#000000" font-family="Arial" font-size="14" lengthAdjust="spacing" textLength="42" x="84" y="115.2305">GDA 1</text><ellipse cx="108" cy="50.5986" fill="#156082" fill-opacity="0.50196" rx="8" ry="8" style="stroke:#181818;stroke-width:0.5;"/><path d="M108,58.5986 L108,85.5986 M95,66.5986 L121,66.5986 M108,85.5986 L95,100.5986 M108,85.5986 L121,100.5986 " fill="none" style="stroke:#181818;stroke-width:0.5;"/><text fill="#000000" font-family="Arial" font-size="14" lengthAdjust="spacing" textLength="42" x="84" y="725.499">GDA 1</text><ellipse cx="108" cy="736.9658" fill="#156082" fill-opacity="0.50196" rx="8" ry="8" style="stroke:#181818;stroke-width:0.5;"/><path d="M108,744.9658 L108,771.9658 M95,752.9658 L121,752.9658 M108,771.9658 L95,786.9658 M108,771.9658 L121,786.9658 " fill="none" style="stroke:#181818;stroke-width:0.5;"/><rect fill="#E97232" fill-opacity="0.74118" height="30.0986" rx="5" ry="5" style="stroke:#555555;stroke-width:0.5;" width="76" x="396" y="87.0986"/><text fill="#000000" font-family="Arial" font-size="14" lengthAdjust="spacing" textLength="62" x="403" y="107.2305">e-Med FA</text><rect fill="#E97232" fill-opacity="0.74118" height="30.0986" rx="5" ry="5" style="stroke:#555555;stroke-width:0.5;" width="76" x="396" y="712.3672"/><text fill="#000000" font-family="Arial" font-size="14" lengthAdjust="spacing" textLength="62" x="403" y="732.499">e-Med FA</text><rect fill="#156082" fill-opacity="0.50196" height="511.1226" style="stroke:#181818;stroke-width:1.0;" width="10" x="103" y="193.2446"/><rect fill="#E97232" fill-opacity="0.74118" height="384.8779" style="stroke:#181818;stroke-width:1.0;" width="10" x="429" y="193.2446"/><rect fill="#EEEEEE" height="3" rx="5" ry="5" style="stroke:#EEEEEE;stroke-width:1.0;" width="694" x="0" y="149.2466"/><line style="stroke:#000000;stroke-width:1.0;" x1="0" x2="694" y1="149.2466" y2="149.2466"/><line style="stroke:#000000;stroke-width:1.0;" x1="0" x2="694" y1="152.2466" y2="152.2466"/><rect fill="#EEEEEE" height="24.0986" rx="5" ry="5" style="stroke:#000000;stroke-width:2.0;" width="193" x="250.5" y="138.1973"/><text fill="#000000" font-family="Arial" font-size="14" font-weight="bold" lengthAdjust="spacing" textLength="175" x="256.5" y="155.3291">Medikationsplan abrufen</text><polygon fill="#111827" points="417,189.2446,427,193.2446,417,197.2446,421,193.2446" style="stroke:#111827;stroke-width:1.0;"/><line style="stroke:#111827;stroke-width:1.0;" x1="113" x2="423" y1="193.2446" y2="193.2446"/><text fill="#000000" font-family="Arial" font-size="13" font-weight="bold" lengthAdjust="spacing" textLength="7" x="120" y="188.4897">1</text><text fill="#000000" font-family="Arial" font-size="13" lengthAdjust="spacing" textLength="99" x="131" y="188.4897">POST $plan-read</text><path d="M5,211.2446 L5,243.2446 A5,5 0 0 0 10,248.2446 L206,248.2446 A5,5 0 0 0 211,243.2446 L211,216.2446 L201,206.2446 L10,206.2446 A5,5 0 0 0 5,211.2446 " fill="url(#gzzx1odjhgbx80)" style="stroke:#8B95A5;stroke-width:1.0;"/><path d="M201,206.2446 L201,213.7446 A2.5,2.5 0 0 0 203.5,216.2446 L211,216.2446 L201,206.2446 " fill="url(#gzzx1odjhgbx80)" style="stroke:#8B95A5;stroke-width:1.0;"/><text fill="#111827" font-family="Arial" font-size="14" lengthAdjust="spacing" textLength="159" x="11" y="224.3765">Medikationsplan abrufen,</text><text fill="#111827" font-family="Arial" font-size="14" lengthAdjust="spacing" textLength="185" x="11" y="240.4751">mit der Intention zu schreiben</text><line style="stroke:#111827;stroke-width:1.0;" x1="439" x2="481" y1="289.3394" y2="289.3394"/><line style="stroke:#111827;stroke-width:1.0;" x1="481" x2="481" y1="289.3394" y2="302.3394"/><line style="stroke:#111827;stroke-width:1.0;" x1="440" x2="481" y1="302.3394" y2="302.3394"/><polygon fill="#111827" points="450,298.3394,440,302.3394,450,306.3394,446,302.3394" style="stroke:#111827;stroke-width:1.0;"/><text fill="#000000" font-family="Arial" font-size="13" font-weight="bold" lengthAdjust="spacing" textLength="7" x="446" y="277.1101">2</text><text fill="#000000" font-family="Arial" font-size="13" lengthAdjust="spacing" textLength="143" x="457" y="269.6357">Pr&#252;fung auf bestehenden</text><text fill="#000000" font-family="Arial" font-size="13" lengthAdjust="spacing" textLength="94" x="457" y="284.5845">Medikationsplan</text><path d="M79,317.3394 L136,317.3394 L136,325.438 L126,335.438 L74,335.438 L74,322.3394 A5,5 0 0 1 79,317.3394 " fill="#EEF2FF" style="stroke:#111827;stroke-width:1.5;"/><rect fill="none" height="268.7832" rx="5" ry="5" style="stroke:#111827;stroke-width:2.0;" width="610" x="74" y="317.3394"/><text fill="#000000" font-family="Arial" font-size="14" font-weight="bold" lengthAdjust="spacing" textLength="17" x="89" y="331.4712">alt</text><text fill="#000000" font-family="Arial" font-size="14" font-weight="bold" lengthAdjust="spacing" textLength="207" x="151" y="332.4712">[Medikationsplan vorhanden]</text><line style="stroke:#111827;stroke-width:1.0;" x1="439" x2="481" y1="417.2803" y2="417.2803"/><line style="stroke:#111827;stroke-width:1.0;" x1="481" x2="481" y1="417.2803" y2="430.2803"/><line style="stroke:#111827;stroke-width:1.0;" x1="440" x2="481" y1="430.2803" y2="430.2803"/><polygon fill="#111827" points="450,426.2803,440,430.2803,450,434.2803,446,430.2803" style="stroke:#111827;stroke-width:1.0;"/><text fill="#000000" font-family="Arial" font-size="13" font-weight="bold" lengthAdjust="spacing" textLength="7" x="446" y="382.6279">3</text><text fill="#000000" font-family="Arial" font-size="13" lengthAdjust="spacing" textLength="214" x="457" y="352.7305">Stellt Auslieferungs-Medikationsplan-</text><text fill="#000000" font-family="Arial" font-size="13" lengthAdjust="spacing" textLength="141" x="457" y="367.6792">Collection-Bundle bereit:</text><text fill="#000000" font-family="Arial" font-size="13" lengthAdjust="spacing" textLength="65" x="457" y="382.6279">Bedingung:</text><text fill="#000000" font-family="Arial" font-size="13" lengthAdjust="spacing" textLength="167" x="457" y="397.5767">- new|changed &#8594; unchanged</text><text fill="#000000" font-family="Arial" font-size="13" lengthAdjust="spacing" textLength="130" x="457" y="412.5254">- removed &#8594; entfernen</text><polygon fill="#111827" points="124,470.1777,114,474.1777,124,478.1777,120,474.1777" style="stroke:#111827;stroke-width:1.0;"/><line style="stroke:#111827;stroke-width:1.0;" x1="118" x2="428" y1="474.1777" y2="474.1777"/><text fill="#000000" font-family="Arial" font-size="13" font-weight="bold" lengthAdjust="spacing" textLength="7" x="130" y="461.9485">4</text><text fill="#000000" font-family="Arial" font-size="13" lengthAdjust="spacing" textLength="281" x="141" y="454.4741">Auslieferungs-Medikationsplan-Collection-Bundle</text><text fill="#000000" font-family="Arial" font-size="13" lengthAdjust="spacing" textLength="172" x="141" y="469.4229">+ ETag f&#252;r Optimistic Locking</text><line style="stroke:#111827;stroke-width:1.0;stroke-dasharray:2.0,2.0;" x1="74" x2="684" y1="483.1777" y2="483.1777"/><text fill="#000000" font-family="Arial" font-size="14" font-weight="bold" lengthAdjust="spacing" textLength="241" x="79" y="496.3096">[kein Medikationsplan vorhanden]</text><line style="stroke:#111827;stroke-width:1.0;" x1="439" x2="481" y1="536.1738" y2="536.1738"/><line style="stroke:#111827;stroke-width:1.0;" x1="481" x2="481" y1="536.1738" y2="549.1738"/><line style="stroke:#111827;stroke-width:1.0;" x1="440" x2="481" y1="549.1738" y2="549.1738"/><polygon fill="#111827" points="450,545.1738,440,549.1738,450,553.1738,446,549.1738" style="stroke:#111827;stroke-width:1.0;"/><text fill="#000000" font-family="Arial" font-size="13" font-weight="bold" lengthAdjust="spacing" textLength="7" x="446" y="523.9446">5</text><text fill="#000000" font-family="Arial" font-size="13" lengthAdjust="spacing" textLength="182" x="457" y="516.4702">Erzeugt leeren Medikationsplan</text><text fill="#000000" font-family="Arial" font-size="13" lengthAdjust="spacing" textLength="211" x="461" y="531.4189">mit List.emptyReason = "notstarted"</text><polygon fill="#111827" points="124,574.1226,114,578.1226,124,582.1226,120,578.1226" style="stroke:#111827;stroke-width:1.0;"/><line style="stroke:#111827;stroke-width:1.0;" x1="118" x2="433" y1="578.1226" y2="578.1226"/><text fill="#000000" font-family="Arial" font-size="13" font-weight="bold" lengthAdjust="spacing" textLength="7" x="130" y="573.3677">6</text><text fill="#000000" font-family="Arial" font-size="13" lengthAdjust="spacing" textLength="134" x="141" y="573.3677">Leerer Medikationsplan</text><line style="stroke:#111827;stroke-width:1.0;" x1="113" x2="155" y1="614.0713" y2="614.0713"/><line style="stroke:#111827;stroke-width:1.0;" x1="155" x2="155" y1="614.0713" y2="627.0713"/><line style="stroke:#111827;stroke-width:1.0;" x1="114" x2="155" y1="627.0713" y2="627.0713"/><polygon fill="#111827" points="124,623.0713,114,627.0713,124,631.0713,120,627.0713" style="stroke:#111827;stroke-width:1.0;"/><text fill="#000000" font-family="Arial" font-size="13" font-weight="bold" lengthAdjust="spacing" textLength="7" x="120" y="609.3164">7</text><text fill="#000000" font-family="Arial" font-size="13" lengthAdjust="spacing" textLength="214" x="131" y="609.3164">Eintr&#228;ge hinzuf&#252;gen/&#228;ndern/entfernen</text><path d="M12,645.0713 L12,693.0713 A5,5 0 0 0 17,698.0713 L199,698.0713 A5,5 0 0 0 204,693.0713 L204,650.0713 L194,640.0713 L17,640.0713 A5,5 0 0 0 12,645.0713 " fill="url(#gzzx1odjhgbx80)" style="stroke:#8B95A5;stroke-width:1.0;"/><path d="M194,640.0713 L194,647.5713 A2.5,2.5 0 0 0 196.5,650.0713 L204,650.0713 L194,640.0713 " fill="url(#gzzx1odjhgbx80)" style="stroke:#8B95A5;stroke-width:1.0;"/><text fill="#111827" font-family="Arial" font-size="14" lengthAdjust="spacing" textLength="165" x="18" y="658.2031">Nach der Bearbeitung des</text><text fill="#111827" font-family="Arial" font-size="14" lengthAdjust="spacing" textLength="167" x="18" y="674.3018">Medikationsplans kann ein</text><text fill="#111827" font-family="Arial" font-size="14" lengthAdjust="spacing" textLength="126" x="18" y="690.4004">Plan-Write erfolgen.</text><!--SRC=[bLPTZk9647xlKrGWKXusthND0kEHY0GxdiqgimC2eaWHqgYnoz32j4btUoOpcxpc03d37cFVvYOvIQeD3FvX5QLviQk-hf-llcvZX4aH9YcNpXHvpDXtUYFaZYk-1HwPJCtC8m7u0-fiYuoTlCjCnQZUPMcceEqMg-pbqMQbibp61qJIjRyIGgzvd3q8kOA4fnfBdiCs9L61LmuQOyBpr5ndqjpoBK9hg0HFM-SHC_64uBqzx_nQsJy-xb2bGcvAW30y1_XPniK3DieVPRzFU1pRpdotQX-LEUiMgqofp0p29mOmghE7BdOJrsd7NXnWpoBAaIwMGPTtNwppjOWs4hK6ZspJ4fiklHzhir5AL7YUT-7toJQhpUNFSeKQVyjHHlig9rmP4OaTb-PSOrL0Gm_5geAQascuZrEjE4fq0moLoXxgJHN6AY-5wLp65yS-LuTCxwdoNQN7byXxLsDUcFX5TwMTf_I-9VKRagELpxlnpNXwz_vgUES1hRRNxRaN_eLx1k0NWA3NS_jN3S1aEFyGtivjXA0tyjys0CF968hLTg-3yAeRr07Xn_3gxdf800pwViTVndN0tJJyDPpCeHt5dNx7vq6zZV5FKCdXT-iXfjFnj024GT_h-1qw0CKz0ti6k8OMFO7NAXF3TgTX0tx4s9PfeUZG2rmFMzKM60NDJIRpxH8LOuC144nik16Pr3kwx80lLPwWXC60iNrcvuTZv4kOZ6Tp-DO27MLlHQfGt7Cwd7jekJ9M7Dhi7WyTiAza-XxOLXYwWnHya0Qb1S1J3ZfQAnHBb0nbNDm0x9Jks6grkQErKh5w_fBaT0Pudi0IjS4rnKEvaBLwA7fgJjEgLtkVgJMt6qcxv_BC3AQqVvZhL622Yb9gfnR4MKWw1Yb6rkACw5JG5uG6WS9SBkG8xLcbVVJiWCI7FoBAkA8n_lFNtv3BmvjrAjmIiNi7CKRfPBsmWlFB_wYdKSr2le9mpkcAU_wYOBmpOYiq2GnkieZkkXL3klagYjsWaF-Rh50zORuoa28rtzY-a60LSKEPN-DsPnxf0wn950DeaGoq8SbZt3hRxeqDgEe12HfZNJjMLYM97mA4GXhr_7c5i1RoAISQLYZVF7-s7pNvviHrGzstF5eN8XuXLqkQgDLSZ1hgkjUmuLA2fOqLVoz-KS9MfP8ifLolJtB_5m00]--></g></svg>