<?xml version="1.0" encoding="us-ascii" standalone="no"?><svg xmlns="http://www.w3.org/2000/svg" xmlns:xlink="http://www.w3.org/1999/xlink" contentStyleType="text/css" height="1353px" preserveAspectRatio="none" style="width:1283px;height:1353px;background:#F5F5F5;" version="1.1" viewBox="0 0 1283 1353" width="1283px" zoomAndPan="magnify"><defs><linearGradient id="g12otc3px8iqa60" x1="50%" x2="50%" y1="0%" y2="100%"><stop offset="0%" stop-color="#E0E5F0"/><stop offset="100%" stop-color="#D1D9E6"/></linearGradient><filter height="300%" id="f12otc3px8iqa6" width="300%" x="-1" y="-1"><feGaussianBlur result="blurOut" stdDeviation="2.0"/><feColorMatrix in="blurOut" result="blurOut2" type="matrix" values="0 0 0 0 0 0 0 0 0 0 0 0 0 0 0 0 0 0 .4 0"/><feOffset dx="4.0" dy="4.0" in="blurOut2" result="blurOut3"/><feBlend in="SourceGraphic" in2="blurOut3" mode="normal"/></filter></defs><g><rect fill="#F5F5F5" height="1353" style="stroke:none;stroke-width:1.0;" width="1283" x="0" y="0"/><rect fill="#9FBAC4" height="1326.9019" rx="5" ry="5" style="stroke:#181818;stroke-width:0.5;" width="65" x="98" y="6"/><text fill="#000000" font-family="Arial" font-size="14" font-weight="bold" lengthAdjust="spacing" textLength="4" x="101" y="19.1318">&#160;</text><text fill="#000000" font-family="Arial" font-size="14" font-weight="bold" lengthAdjust="spacing" textLength="43" x="109" y="35.2305">GDA 1</text><rect fill="#C48778" height="1326.9019" rx="5" ry="5" style="stroke:#181818;stroke-width:0.5;" width="223" x="427.5" y="6"/><text fill="#000000" font-family="Arial" font-size="14" font-weight="bold" lengthAdjust="spacing" textLength="4" x="430.5" y="19.1318">&#160;</text><text fill="#000000" font-family="Arial" font-size="14" font-weight="bold" lengthAdjust="spacing" textLength="161" x="458.5" y="35.2305">e-Med Fachanwendung</text><rect fill="#BEAEBE" height="1326.9019" rx="5" ry="5" style="stroke:#181818;stroke-width:0.5;" width="73" x="915" y="6"/><text fill="#000000" font-family="Arial" font-size="14" font-weight="bold" lengthAdjust="spacing" textLength="4" x="918" y="19.1318">&#160;</text><text fill="#000000" font-family="Arial" font-size="14" font-weight="bold" lengthAdjust="spacing" textLength="43" x="934" y="35.2305">GDA 2</text><rect fill="#BAC38B" height="1326.9019" rx="5" ry="5" style="stroke:#181818;stroke-width:0.5;" width="66" x="1189" y="6"/><text fill="#000000" font-family="Arial" font-size="14" font-weight="bold" lengthAdjust="spacing" textLength="4" x="1192" y="19.1318">&#160;</text><text fill="#000000" font-family="Arial" font-size="14" font-weight="bold" lengthAdjust="spacing" textLength="48" x="1196" y="35.2305">Patient</text><rect fill="#FFFFFF" height="1068.4087" style="stroke:#181818;stroke-width:1.0;" width="10" x="125.5" y="128.2959"/><rect fill="#FFFFFF" height="127.7949" style="stroke:#181818;stroke-width:1.0;" width="10" x="534" y="193.3433"/><rect fill="#FFFFFF" height="127.7949" style="stroke:#181818;stroke-width:1.0;" width="10" x="534" y="475.2329"/><rect fill="#FFFFFF" height="199.6411" style="stroke:#181818;stroke-width:1.0;" width="10" x="534" y="757.1226"/><rect fill="#FFFFFF" height="127.7949" style="stroke:#181818;stroke-width:1.0;" width="10" x="534" y="1068.9097"/><rect fill="#FFFFFF" height="481.5308" style="stroke:#181818;stroke-width:1.0;" width="10" x="946.5" y="475.2329"/><line style="stroke:#181818;stroke-width:0.5;stroke-dasharray:5.0,5.0;" x1="130.5" x2="130.5" y1="118.2959" y2="1253.8032"/><line style="stroke:#181818;stroke-width:0.5;stroke-dasharray:5.0,5.0;" x1="538.5" x2="538.5" y1="118.2959" y2="1253.8032"/><line style="stroke:#181818;stroke-width:0.5;stroke-dasharray:5.0,5.0;" x1="951.5" x2="951.5" y1="118.2959" y2="1253.8032"/><line style="stroke:#181818;stroke-width:0.5;stroke-dasharray:5.0,5.0;" x1="1222" x2="1222" y1="118.2959" y2="1253.8032"/><text fill="#000000" font-family="Arial" font-size="14" lengthAdjust="spacing" textLength="42" x="106.5" y="115.3291">GDA 1</text><ellipse cx="130.5" cy="50.6973" fill="#E2E2F0" rx="8" ry="8" style="stroke:#181818;stroke-width:0.5;"/><path d="M130.5,58.6973 L130.5,85.6973 M117.5,66.6973 L143.5,66.6973 M130.5,85.6973 L117.5,100.6973 M130.5,85.6973 L143.5,100.6973 " fill="none" style="stroke:#181818;stroke-width:0.5;"/><text fill="#000000" font-family="Arial" font-size="14" lengthAdjust="spacing" textLength="42" x="106.5" y="1265.9351">GDA 1</text><ellipse cx="130.5" cy="1277.4019" fill="#E2E2F0" rx="8" ry="8" style="stroke:#181818;stroke-width:0.5;"/><path d="M130.5,1285.4019 L130.5,1312.4019 M117.5,1293.4019 L143.5,1293.4019 M130.5,1312.4019 L117.5,1327.4019 M130.5,1312.4019 L143.5,1327.4019 " fill="none" style="stroke:#181818;stroke-width:0.5;"/><rect fill="#FFFFFF" height="30.0986" rx="5" ry="5" style="stroke:#555555;stroke-width:0.5;" width="77" x="500.5" y="87.1973"/><text fill="#000000" font-family="Arial" font-size="14" lengthAdjust="spacing" textLength="63" x="507.5" y="107.3291">e-Med FA</text><rect fill="#FFFFFF" height="30.0986" rx="5" ry="5" style="stroke:#555555;stroke-width:0.5;" width="77" x="500.5" y="1252.8032"/><text fill="#000000" font-family="Arial" font-size="14" lengthAdjust="spacing" textLength="63" x="507.5" y="1272.9351">e-Med FA</text><text fill="#000000" font-family="Arial" font-size="14" lengthAdjust="spacing" textLength="42" x="927.5" y="115.3291">GDA 2</text><ellipse cx="951.5" cy="50.6973" fill="#E2E2F0" rx="8" ry="8" style="stroke:#181818;stroke-width:0.5;"/><path d="M951.5,58.6973 L951.5,85.6973 M938.5,66.6973 L964.5,66.6973 M951.5,85.6973 L938.5,100.6973 M951.5,85.6973 L964.5,100.6973 " fill="none" style="stroke:#181818;stroke-width:0.5;"/><text fill="#000000" font-family="Arial" font-size="14" lengthAdjust="spacing" textLength="42" x="927.5" y="1265.9351">GDA 2</text><ellipse cx="951.5" cy="1277.4019" fill="#E2E2F0" rx="8" ry="8" style="stroke:#181818;stroke-width:0.5;"/><path d="M951.5,1285.4019 L951.5,1312.4019 M938.5,1293.4019 L964.5,1293.4019 M951.5,1312.4019 L938.5,1327.4019 M951.5,1312.4019 L964.5,1327.4019 " fill="none" style="stroke:#181818;stroke-width:0.5;"/><text fill="#000000" font-family="Arial" font-size="14" lengthAdjust="spacing" textLength="44" x="1197" y="115.3291">Patient</text><ellipse cx="1222" cy="50.6973" fill="#E2E2F0" rx="8" ry="8" style="stroke:#181818;stroke-width:0.5;"/><path d="M1222,58.6973 L1222,85.6973 M1209,66.6973 L1235,66.6973 M1222,85.6973 L1209,100.6973 M1222,85.6973 L1235,100.6973 " fill="none" style="stroke:#181818;stroke-width:0.5;"/><text fill="#000000" font-family="Arial" font-size="14" lengthAdjust="spacing" textLength="44" x="1197" y="1265.9351">Patient</text><ellipse cx="1222" cy="1277.4019" fill="#E2E2F0" rx="8" ry="8" style="stroke:#181818;stroke-width:0.5;"/><path d="M1222,1285.4019 L1222,1312.4019 M1209,1293.4019 L1235,1293.4019 M1222,1312.4019 L1209,1327.4019 M1222,1312.4019 L1235,1327.4019 " fill="none" style="stroke:#181818;stroke-width:0.5;"/><rect fill="#FFFFFF" height="1068.4087" style="stroke:#181818;stroke-width:1.0;" width="10" x="125.5" y="128.2959"/><rect fill="#FFFFFF" height="127.7949" style="stroke:#181818;stroke-width:1.0;" width="10" x="534" y="193.3433"/><rect fill="#FFFFFF" height="127.7949" style="stroke:#181818;stroke-width:1.0;" width="10" x="534" y="475.2329"/><rect fill="#FFFFFF" height="199.6411" style="stroke:#181818;stroke-width:1.0;" width="10" x="534" y="757.1226"/><rect fill="#FFFFFF" height="127.7949" style="stroke:#181818;stroke-width:1.0;" width="10" x="534" y="1068.9097"/><rect fill="#FFFFFF" height="481.5308" style="stroke:#181818;stroke-width:1.0;" width="10" x="946.5" y="475.2329"/><rect fill="#EEEEEE" height="3" rx="5" ry="5" style="stroke:#EEEEEE;stroke-width:1.0;" width="1276" x="0" y="149.3452"/><line style="stroke:#000000;stroke-width:1.0;" x1="0" x2="1276" y1="149.3452" y2="149.3452"/><line style="stroke:#000000;stroke-width:1.0;" x1="0" x2="1276" y1="152.3452" y2="152.3452"/><rect fill="#EEEEEE" height="24.0986" rx="5" ry="5" style="stroke:#000000;stroke-width:2.0;" width="179" x="548.5" y="138.2959"/><text fill="#000000" font-family="Arial" font-size="14" font-weight="bold" lengthAdjust="spacing" textLength="161" x="554.5" y="155.4277">Plan-Read durch GDA 1</text><line style="stroke:#111827;stroke-width:1.0;" x1="532" x2="522" y1="193.3433" y2="189.3433"/><line style="stroke:#111827;stroke-width:1.0;" x1="532" x2="522" y1="193.3433" y2="197.3433"/><line style="stroke:#111827;stroke-width:1.0;" x1="135.5" x2="533" y1="193.3433" y2="193.3433"/><text fill="#000000" font-family="Arial" font-size="13" font-weight="bold" lengthAdjust="spacing" textLength="7" x="142.5" y="188.5884">1</text><text fill="#000000" font-family="Arial" font-size="13" lengthAdjust="spacing" textLength="100" x="153.5" y="188.5884">POST $plan-read</text><line style="stroke:#111827;stroke-width:1.0;" x1="544" x2="586" y1="237.2407" y2="237.2407"/><line style="stroke:#111827;stroke-width:1.0;" x1="586" x2="586" y1="237.2407" y2="250.2407"/><line style="stroke:#111827;stroke-width:1.0;" x1="545" x2="586" y1="250.2407" y2="250.2407"/><polygon fill="#111827" points="555,246.2407,545,250.2407,555,254.2407,551,250.2407" style="stroke:#111827;stroke-width:1.0;"/><text fill="#000000" font-family="Arial" font-size="13" font-weight="bold" lengthAdjust="spacing" textLength="7" x="551" y="225.0115">2</text><text fill="#000000" font-family="Arial" font-size="13" lengthAdjust="spacing" textLength="208" x="562" y="217.5371">Annahme: Pr&#252;fung auf bestehenden</text><text fill="#000000" font-family="Arial" font-size="13" lengthAdjust="spacing" textLength="158" x="562" y="232.4858">Medikationsplan erfolgreich</text><line style="stroke:#111827;stroke-width:1.0;" x1="544" x2="586" y1="279.1895" y2="279.1895"/><line style="stroke:#111827;stroke-width:1.0;" x1="586" x2="586" y1="279.1895" y2="292.1895"/><line style="stroke:#111827;stroke-width:1.0;" x1="545" x2="586" y1="292.1895" y2="292.1895"/><polygon fill="#111827" points="555,288.1895,545,292.1895,555,296.1895,551,292.1895" style="stroke:#111827;stroke-width:1.0;"/><text fill="#000000" font-family="Arial" font-size="13" font-weight="bold" lengthAdjust="spacing" textLength="7" x="551" y="274.4346">3</text><text fill="#000000" font-family="Arial" font-size="13" lengthAdjust="spacing" textLength="242" x="562" y="274.4346">Collection Bundle zur Auslieferung erstellt</text><line style="stroke:#111827;stroke-width:1.0;" x1="136.5" x2="146.5" y1="321.1382" y2="317.1382"/><line style="stroke:#111827;stroke-width:1.0;" x1="136.5" x2="146.5" y1="321.1382" y2="325.1382"/><line style="stroke:#111827;stroke-width:1.0;stroke-dasharray:2.0,2.0;" x1="135.5" x2="538" y1="321.1382" y2="321.1382"/><text fill="#000000" font-family="Arial" font-size="13" font-weight="bold" lengthAdjust="spacing" textLength="7" x="152.5" y="316.3833">4</text><text fill="#000000" font-family="Arial" font-size="13" lengthAdjust="spacing" textLength="183" x="163.5" y="316.3833">Collection Bundle + ETag "123"</text><line style="stroke:#111827;stroke-width:1.0;" x1="135.5" x2="177.5" y1="350.0869" y2="350.0869"/><line style="stroke:#111827;stroke-width:1.0;" x1="177.5" x2="177.5" y1="350.0869" y2="363.0869"/><line style="stroke:#111827;stroke-width:1.0;" x1="136.5" x2="177.5" y1="363.0869" y2="363.0869"/><polygon fill="#111827" points="146.5,359.0869,136.5,363.0869,146.5,367.0869,142.5,363.0869" style="stroke:#111827;stroke-width:1.0;"/><text fill="#000000" font-family="Arial" font-size="13" font-weight="bold" lengthAdjust="spacing" textLength="7" x="142.5" y="345.332">5</text><text fill="#000000" font-family="Arial" font-size="13" lengthAdjust="spacing" textLength="216" x="153.5" y="345.332">Eintr&#228;ge hinzuf&#252;gen/&#228;ndern/entfernen</text><path d="M10,381.0869 L10,397.0869 A5,5 0 0 0 15,402.0869 L243,402.0869 A5,5 0 0 0 248,397.0869 L248,386.0869 L238,376.0869 L15,376.0869 A5,5 0 0 0 10,381.0869 " fill="url(#g12otc3px8iqa60)" filter="url(#f12otc3px8iqa6)" style="stroke:#8B95A5;stroke-width:1.0;"/><path d="M238,376.0869 L238,383.5869 A2.5,2.5 0 0 0 240.5,386.0869 L248,386.0869 L238,376.0869 " fill="url(#g12otc3px8iqa60)" style="stroke:#8B95A5;stroke-width:1.0;"/><text fill="#111827" font-family="Arial" font-size="14" lengthAdjust="spacing" textLength="217" x="16" y="394.2188">GDA 1 bearbeitet Medikationsplan</text><rect fill="#EEEEEE" height="3" rx="5" ry="5" style="stroke:#EEEEEE;stroke-width:1.0;" width="1276" x="0" y="431.2349"/><line style="stroke:#000000;stroke-width:1.0;" x1="0" x2="1276" y1="431.2349" y2="431.2349"/><line style="stroke:#000000;stroke-width:1.0;" x1="0" x2="1276" y1="434.2349" y2="434.2349"/><rect fill="#EEEEEE" height="24.0986" rx="5" ry="5" style="stroke:#000000;stroke-width:2.0;" width="179" x="548.5" y="420.1855"/><text fill="#000000" font-family="Arial" font-size="14" font-weight="bold" lengthAdjust="spacing" textLength="161" x="554.5" y="437.3174">Plan-Read durch GDA 2</text><line style="stroke:#111827;stroke-width:1.0;" x1="545" x2="555" y1="475.2329" y2="471.2329"/><line style="stroke:#111827;stroke-width:1.0;" x1="545" x2="555" y1="475.2329" y2="479.2329"/><line style="stroke:#111827;stroke-width:1.0;" x1="544" x2="945.5" y1="475.2329" y2="475.2329"/><text fill="#000000" font-family="Arial" font-size="13" font-weight="bold" lengthAdjust="spacing" textLength="7" x="561" y="470.478">6</text><text fill="#000000" font-family="Arial" font-size="13" lengthAdjust="spacing" textLength="100" x="572" y="470.478">POST $plan-read</text><line style="stroke:#111827;stroke-width:1.0;" x1="544" x2="586" y1="519.1304" y2="519.1304"/><line style="stroke:#111827;stroke-width:1.0;" x1="586" x2="586" y1="519.1304" y2="532.1304"/><line style="stroke:#111827;stroke-width:1.0;" x1="545" x2="586" y1="532.1304" y2="532.1304"/><polygon fill="#111827" points="555,528.1304,545,532.1304,555,536.1304,551,532.1304" style="stroke:#111827;stroke-width:1.0;"/><text fill="#000000" font-family="Arial" font-size="13" font-weight="bold" lengthAdjust="spacing" textLength="7" x="551" y="506.9011">7</text><text fill="#000000" font-family="Arial" font-size="13" lengthAdjust="spacing" textLength="208" x="562" y="499.4268">Annahme: Pr&#252;fung auf bestehenden</text><text fill="#000000" font-family="Arial" font-size="13" lengthAdjust="spacing" textLength="158" x="562" y="514.3755">Medikationsplan erfolgreich</text><line style="stroke:#111827;stroke-width:1.0;" x1="544" x2="586" y1="561.0791" y2="561.0791"/><line style="stroke:#111827;stroke-width:1.0;" x1="586" x2="586" y1="561.0791" y2="574.0791"/><line style="stroke:#111827;stroke-width:1.0;" x1="545" x2="586" y1="574.0791" y2="574.0791"/><polygon fill="#111827" points="555,570.0791,545,574.0791,555,578.0791,551,574.0791" style="stroke:#111827;stroke-width:1.0;"/><text fill="#000000" font-family="Arial" font-size="13" font-weight="bold" lengthAdjust="spacing" textLength="7" x="551" y="556.3242">8</text><text fill="#000000" font-family="Arial" font-size="13" lengthAdjust="spacing" textLength="242" x="562" y="556.3242">Collection Bundle zur Auslieferung erstellt</text><line style="stroke:#111827;stroke-width:1.0;" x1="944.5" x2="934.5" y1="603.0278" y2="599.0278"/><line style="stroke:#111827;stroke-width:1.0;" x1="944.5" x2="934.5" y1="603.0278" y2="607.0278"/><line style="stroke:#111827;stroke-width:1.0;stroke-dasharray:2.0,2.0;" x1="539" x2="945.5" y1="603.0278" y2="603.0278"/><text fill="#000000" font-family="Arial" font-size="13" font-weight="bold" lengthAdjust="spacing" textLength="7" x="546" y="598.2729">9</text><text fill="#000000" font-family="Arial" font-size="13" lengthAdjust="spacing" textLength="183" x="557" y="598.2729">Collection Bundle + ETag "123"</text><line style="stroke:#111827;stroke-width:1.0;" x1="956.5" x2="998.5" y1="631.9766" y2="631.9766"/><line style="stroke:#111827;stroke-width:1.0;" x1="998.5" x2="998.5" y1="631.9766" y2="644.9766"/><line style="stroke:#111827;stroke-width:1.0;" x1="957.5" x2="998.5" y1="644.9766" y2="644.9766"/><polygon fill="#111827" points="967.5,640.9766,957.5,644.9766,967.5,648.9766,963.5,644.9766" style="stroke:#111827;stroke-width:1.0;"/><text fill="#000000" font-family="Arial" font-size="13" font-weight="bold" lengthAdjust="spacing" textLength="14" x="963.5" y="627.2217">10</text><text fill="#000000" font-family="Arial" font-size="13" lengthAdjust="spacing" textLength="216" x="981.5" y="627.2217">Eintr&#228;ge hinzuf&#252;gen/&#228;ndern/entfernen</text><path d="M831,662.9766 L831,678.9766 A5,5 0 0 0 836,683.9766 L1064,683.9766 A5,5 0 0 0 1069,678.9766 L1069,667.9766 L1059,657.9766 L836,657.9766 A5,5 0 0 0 831,662.9766 " fill="url(#g12otc3px8iqa60)" filter="url(#f12otc3px8iqa6)" style="stroke:#8B95A5;stroke-width:1.0;"/><path d="M1059,657.9766 L1059,665.4766 A2.5,2.5 0 0 0 1061.5,667.9766 L1069,667.9766 L1059,657.9766 " fill="url(#g12otc3px8iqa60)" style="stroke:#8B95A5;stroke-width:1.0;"/><text fill="#111827" font-family="Arial" font-size="14" lengthAdjust="spacing" textLength="217" x="837" y="676.1084">GDA 2 bearbeitet Medikationsplan</text><rect fill="#EEEEEE" height="3" rx="5" ry="5" style="stroke:#EEEEEE;stroke-width:1.0;" width="1276" x="0" y="713.1245"/><line style="stroke:#000000;stroke-width:1.0;" x1="0" x2="1276" y1="713.1245" y2="713.1245"/><line style="stroke:#000000;stroke-width:1.0;" x1="0" x2="1276" y1="716.1245" y2="716.1245"/><rect fill="#EEEEEE" height="24.0986" rx="5" ry="5" style="stroke:#000000;stroke-width:2.0;" width="179" x="548.5" y="702.0752"/><text fill="#000000" font-family="Arial" font-size="14" font-weight="bold" lengthAdjust="spacing" textLength="161" x="554.5" y="719.207">Plan-Write durch GDA 2</text><line style="stroke:#111827;stroke-width:1.0;" x1="545" x2="555" y1="757.1226" y2="753.1226"/><line style="stroke:#111827;stroke-width:1.0;" x1="545" x2="555" y1="757.1226" y2="761.1226"/><line style="stroke:#111827;stroke-width:1.0;" x1="544" x2="945.5" y1="757.1226" y2="757.1226"/><text fill="#000000" font-family="Arial" font-size="13" font-weight="bold" lengthAdjust="spacing" textLength="14" x="561" y="752.3677">11</text><text fill="#000000" font-family="Arial" font-size="13" lengthAdjust="spacing" textLength="308" x="579" y="752.3677">POST $plan-write (Transaction Bundle + ETag "123")</text><line style="stroke:#111827;stroke-width:1.0;" x1="544" x2="586" y1="801.02" y2="801.02"/><line style="stroke:#111827;stroke-width:1.0;" x1="586" x2="586" y1="801.02" y2="814.02"/><line style="stroke:#111827;stroke-width:1.0;" x1="545" x2="586" y1="814.02" y2="814.02"/><polygon fill="#111827" points="555,810.02,545,814.02,555,818.02,551,814.02" style="stroke:#111827;stroke-width:1.0;"/><text fill="#000000" font-family="Arial" font-size="13" font-weight="bold" lengthAdjust="spacing" textLength="14" x="551" y="788.7908">12</text><text fill="#000000" font-family="Arial" font-size="13" lengthAdjust="spacing" textLength="149" x="569" y="781.3164">ETag "123" im Header ==</text><text fill="#000000" font-family="Arial" font-size="13" lengthAdjust="spacing" textLength="186" x="569" y="796.2651">ETag der Fachanwendung "123"</text><line style="stroke:#111827;stroke-width:1.0;" x1="544" x2="586" y1="857.9175" y2="857.9175"/><line style="stroke:#111827;stroke-width:1.0;" x1="586" x2="586" y1="857.9175" y2="870.9175"/><line style="stroke:#111827;stroke-width:1.0;" x1="545" x2="586" y1="870.9175" y2="870.9175"/><polygon fill="#111827" points="555,866.9175,545,870.9175,555,874.9175,551,870.9175" style="stroke:#111827;stroke-width:1.0;"/><text fill="#000000" font-family="Arial" font-size="13" font-weight="bold" lengthAdjust="spacing" textLength="14" x="551" y="845.6882">13</text><text fill="#000000" font-family="Arial" font-size="13" lengthAdjust="spacing" textLength="165" x="569" y="838.2139">Validierung des neuen Plans</text><text fill="#000000" font-family="Arial" font-size="13" lengthAdjust="spacing" textLength="237" x="569" y="853.1626">(keine unzul&#228;ssigen Zustands&#252;berg&#228;nge)</text><line style="stroke:#111827;stroke-width:1.0;" x1="544" x2="586" y1="914.8149" y2="914.8149"/><line style="stroke:#111827;stroke-width:1.0;" x1="586" x2="586" y1="914.8149" y2="927.8149"/><line style="stroke:#111827;stroke-width:1.0;" x1="545" x2="586" y1="927.8149" y2="927.8149"/><polygon fill="#111827" points="555,923.8149,545,927.8149,555,931.8149,551,927.8149" style="stroke:#111827;stroke-width:1.0;"/><text fill="#000000" font-family="Arial" font-size="13" font-weight="bold" lengthAdjust="spacing" textLength="14" x="551" y="902.5857">14</text><text fill="#000000" font-family="Arial" font-size="13" lengthAdjust="spacing" textLength="164" x="569" y="895.1113">Persistiert neue Version des</text><text fill="#000000" font-family="Arial" font-size="13" lengthAdjust="spacing" textLength="101" x="569" y="910.0601">Medikationsplans</text><line style="stroke:#111827;stroke-width:1.0;" x1="949.5" x2="939.5" y1="956.7637" y2="952.7637"/><line style="stroke:#111827;stroke-width:1.0;" x1="949.5" x2="939.5" y1="956.7637" y2="960.7637"/><line style="stroke:#111827;stroke-width:1.0;stroke-dasharray:2.0,2.0;" x1="539" x2="950.5" y1="956.7637" y2="956.7637"/><text fill="#000000" font-family="Arial" font-size="13" font-weight="bold" lengthAdjust="spacing" textLength="14" x="546" y="952.0088">15</text><text fill="#000000" font-family="Arial" font-size="13" lengthAdjust="spacing" textLength="19" x="564" y="952.0088">OK</text><path d="M373,974.7637 L373,990.7637 A5,5 0 0 0 378,995.7637 L697,995.7637 A5,5 0 0 0 702,990.7637 L702,979.7637 L692,969.7637 L378,969.7637 A5,5 0 0 0 373,974.7637 " fill="url(#g12otc3px8iqa60)" filter="url(#f12otc3px8iqa6)" style="stroke:#8B95A5;stroke-width:1.0;"/><path d="M692,969.7637 L692,977.2637 A2.5,2.5 0 0 0 694.5,979.7637 L702,979.7637 L692,969.7637 " fill="url(#g12otc3px8iqa60)" style="stroke:#8B95A5;stroke-width:1.0;"/><text fill="#111827" font-family="Arial" font-size="14" lengthAdjust="spacing" textLength="308" x="379" y="987.8955">Medikationsplan wurde durch GDA 2 aktualisiert.</text><rect fill="#EEEEEE" height="3" rx="5" ry="5" style="stroke:#EEEEEE;stroke-width:1.0;" width="1276" x="0" y="1024.9116"/><line style="stroke:#000000;stroke-width:1.0;" x1="0" x2="1276" y1="1024.9116" y2="1024.9116"/><line style="stroke:#000000;stroke-width:1.0;" x1="0" x2="1276" y1="1027.9116" y2="1027.9116"/><rect fill="#EEEEEE" height="24.0986" rx="5" ry="5" style="stroke:#000000;stroke-width:2.0;" width="196" x="540" y="1013.8623"/><text fill="#000000" font-family="Arial" font-size="14" font-weight="bold" lengthAdjust="spacing" textLength="178" x="546" y="1030.9941">Plan-Write-Error f&#252;r GDA 1</text><line style="stroke:#111827;stroke-width:1.0;" x1="532" x2="522" y1="1068.9097" y2="1064.9097"/><line style="stroke:#111827;stroke-width:1.0;" x1="532" x2="522" y1="1068.9097" y2="1072.9097"/><line style="stroke:#111827;stroke-width:1.0;" x1="135.5" x2="533" y1="1068.9097" y2="1068.9097"/><text fill="#000000" font-family="Arial" font-size="13" font-weight="bold" lengthAdjust="spacing" textLength="14" x="142.5" y="1064.1548">16</text><text fill="#000000" font-family="Arial" font-size="13" lengthAdjust="spacing" textLength="308" x="160.5" y="1064.1548">POST $plan-write (Transaction Bundle + ETag "123")</text><line style="stroke:#111827;stroke-width:1.0;" x1="544" x2="586" y1="1112.8071" y2="1112.8071"/><line style="stroke:#111827;stroke-width:1.0;" x1="586" x2="586" y1="1112.8071" y2="1125.8071"/><line style="stroke:#111827;stroke-width:1.0;" x1="545" x2="586" y1="1125.8071" y2="1125.8071"/><polygon fill="#111827" points="555,1121.8071,545,1125.8071,555,1129.8071,551,1125.8071" style="stroke:#111827;stroke-width:1.0;"/><text fill="#000000" font-family="Arial" font-size="13" font-weight="bold" lengthAdjust="spacing" textLength="14" x="551" y="1100.5779">17</text><text fill="#000000" font-family="Arial" font-size="13" lengthAdjust="spacing" textLength="205" x="569" y="1093.1035">ETag "123" im Header stimmt nicht</text><text fill="#000000" font-family="Arial" font-size="13" lengthAdjust="spacing" textLength="219" x="569" y="1108.0522">mit ETag der Fachanwendung &#252;berein</text><line style="stroke:#111827;stroke-width:1.0;" x1="544" x2="586" y1="1154.7559" y2="1154.7559"/><line style="stroke:#111827;stroke-width:1.0;" x1="586" x2="586" y1="1154.7559" y2="1167.7559"/><line style="stroke:#111827;stroke-width:1.0;" x1="545" x2="586" y1="1167.7559" y2="1167.7559"/><polygon fill="#111827" points="555,1163.7559,545,1167.7559,555,1171.7559,551,1167.7559" style="stroke:#111827;stroke-width:1.0;"/><text fill="#000000" font-family="Arial" font-size="13" font-weight="bold" lengthAdjust="spacing" textLength="14" x="551" y="1150.001">18</text><text fill="#000000" font-family="Arial" font-size="13" lengthAdjust="spacing" textLength="206" x="569" y="1150.001">Fachanwendung lehnt Speichern ab</text><line style="stroke:#111827;stroke-width:1.0;" x1="131.5" x2="141.5" y1="1196.7046" y2="1192.7046"/><line style="stroke:#111827;stroke-width:1.0;" x1="131.5" x2="141.5" y1="1196.7046" y2="1200.7046"/><line style="stroke:#111827;stroke-width:1.0;stroke-dasharray:2.0,2.0;" x1="130.5" x2="538" y1="1196.7046" y2="1196.7046"/><text fill="#000000" font-family="Arial" font-size="13" font-weight="bold" lengthAdjust="spacing" textLength="14" x="147.5" y="1191.9497">19</text><text fill="#000000" font-family="Arial" font-size="13" lengthAdjust="spacing" textLength="92" x="165.5" y="1191.9497">Fehler (Konflikt)</text><path d="M5,1214.7046 L5,1230.7046 A5,5 0 0 0 10,1235.7046 L658,1235.7046 A5,5 0 0 0 663,1230.7046 L663,1219.7046 L653,1209.7046 L10,1209.7046 A5,5 0 0 0 5,1214.7046 " fill="url(#g12otc3px8iqa60)" filter="url(#f12otc3px8iqa6)" style="stroke:#8B95A5;stroke-width:1.0;"/><path d="M653,1209.7046 L653,1217.2046 A2.5,2.5 0 0 0 655.5,1219.7046 L663,1219.7046 L653,1209.7046 " fill="url(#g12otc3px8iqa60)" style="stroke:#8B95A5;stroke-width:1.0;"/><text fill="#111827" font-family="Arial" font-size="14" lengthAdjust="spacing" textLength="637" x="11" y="1227.8364">Speichern des Medikationsplans wurde abgelehnt, der GDA 1 muss ein neues Plan-Read ausf&#252;hren.</text><text fill="#000000" font-family="Arial" font-size="10" lengthAdjust="spacing" textLength="72" x="601.5" y="1343.2817">Plan-Write-Error</text><!--SRC=[rLPHRzis47xdhpWuUqZGUesKkd46k83JEHjGT3MQh0C60mKbdIp2CkMHL9scsB_9pyYR_rYFb6nHjhAkVHWmvY4sx-xZtVSTZzOB8LTSyIL4XKfGlIhoGi7HgLjCDrOUB-QgA6LIUwG3- -Tvw8mdnLh8EQGyr-XPwZ0bKK7WWoQOyZ8tLuKql_4bGc-i1CzxtHxNuWuXUDvjRAVj-SZ287nc09Vx1U0f3jBJ_b4I91Vumdhu10oZYm4Vx7PlCX4l96eD0UszymeQqlSfJn9Rk4NniWc2O1YUqzxrZXgZIcH_-md- -cc5AXTouPKmcNGv_2uJzm5hWdtkyQyIPLnLEkNAY5Yik3IjaWPkxJaSoEfMs-cGu0FpLfoMOKjBQ0F6IXNhVMBSPfjRjzLruivGdNL6MxzGvgjMZJlaodIWEQQXgywBR8uFsyfS5hTU1QtzBbvPLDn2RoO9_ESn100zEBf8wTvOLdXio9KC7mBW6dhEfSTG9dJlRhrOjx3_1XEuud76vPfyIagXMeJvwldm_DnstQfX6f02FboD7NOTFUw6joU73YX2ZX6saWjtoOKTqLDk1D9XBfZ7PyDe5xmrsV3wimV0U6aAMIuZL8m16urWcdFPVuSyWQHKSLPJDXenWXCVETrPnnMh6Ek_VBcjy2UOlhs-WHzM5a0H06j2QXUs9QFlHOsbvDaIALnj7b9BA2zJY50Rp2XFb3D9hc91kHTIMtH0bHRvNA68iqv8aZ_7sFh39RLOZd1NAXYNEXUOeh9de2ByF3Ui0R2rkAgw09x0v8RFeHU4PpsMu45bEpws41CXZThSpn4o8U_ATFCmH_biSsz7XNn6Ab0Y4YLZRWuM7r4rn1BXr08gGc7Gm5xrJZmRn1wJAxHoiQfh_b6WbgJX_rMlyBlr2hTwXT-jLyWgnhz9hpyKENwZO6iNStoZkDJyqL9F_gM8JGG8UiYe6QYUqMWcdS5-QS-uYiSkfFSy5uceH4fGWqHwxroPUYQF5sXVnP88pJVtMWlY5FuijU4oqPi7cZfpOdYE9vtGKn9TQ1fPoZXOU6ytg70wvw39T6TZl7qDllfrdpSIRZdQxzXrISz8Io6-C2MLgcqsFtgQTlLMI-V-X9v71THGgXccNncV_u7OnEjoIRpIdJGpkHG67f7UoKGoTaAtNNFCwAMvNjcBJhS5UDGvNQymo-cOuzU5J7EnC2Vx4WM72Zsj3GsuRRRz7gXruz4SNIvFNJqLwykIVaXG7QwLj3SuUQb9d4oX_9gkCOq1makBmlxRbvXz0G00]--></g></svg>