<svg xmlns="http://www.w3.org/2000/svg" xmlns:xlink="http://www.w3.org/1999/xlink" contentStyleType="text/css" data-diagram-type="SEQUENCE" height="1053px" preserveAspectRatio="none" style="width:1210px;height:1053px;background:#F5F5F5;" version="1.1" viewBox="0 0 1210 1053" width="1210px" zoomAndPan="magnify"><?plantuml 1.2026.5?><defs><linearGradient id="ggwlljlyxf5rz0" x1="50%" x2="50%" y1="0%" y2="100%"><stop offset="0%" stop-color="#E0E5F0"/><stop offset="100%" stop-color="#D1D9E6"/></linearGradient><filter height="300%" id="fgwlljlyxf5rz" width="300%" x="-1" y="-1"><feGaussianBlur result="blurOut" stdDeviation="2"/><feColorMatrix in="blurOut" result="blurOut2" type="matrix" values="0 0 0 0 0 0 0 0 0 0 0 0 0 0 0 0 0 0 .4 0"/><feOffset dx="4" dy="4" in="blurOut2" result="blurOut3"/><feBlend in="SourceGraphic" in2="blurOut3" mode="normal"/></filter></defs><g><rect fill="#F5F5F5" height="1053" style="stroke:none;stroke-width:1;" width="1210" x="0" y="0"/><rect fill="#9FBAC4" height="1027.7422" rx="5" ry="5" style="stroke:#181818;stroke-width:0.5;" width="74.0586" x="119" y="6"/><text fill="#000000" font-family="'Arial'" font-size="14" font-weight="700" lengthAdjust="spacing" textLength="4.874" x="122" y="18.9951">&#160;</text><text fill="#000000" font-family="'Arial'" font-size="14" font-weight="700" lengthAdjust="spacing" textLength="48.5625" x="131.748" y="35.292">GDA 1</text><rect fill="#C48778" height="1027.7422" rx="5" ry="5" style="stroke:#181818;stroke-width:0.5;" width="256.9268" x="506.6538" y="6"/><text fill="#000000" font-family="'Arial'" font-size="14" font-weight="700" lengthAdjust="spacing" textLength="4.874" x="509.6538" y="18.9951">&#160;</text><text fill="#000000" font-family="'Arial'" font-size="14" font-weight="700" lengthAdjust="spacing" textLength="182.6904" x="543.772" y="35.292">e-Med Fachanwendung</text><rect fill="#BEAEBE" height="1027.7422" rx="5" ry="5" style="stroke:#181818;stroke-width:0.5;" width="83.8066" x="979.604" y="6"/><text fill="#000000" font-family="'Arial'" font-size="14" font-weight="700" lengthAdjust="spacing" textLength="4.874" x="982.604" y="18.9951">&#160;</text><text fill="#000000" font-family="'Arial'" font-size="14" font-weight="700" lengthAdjust="spacing" textLength="48.5625" x="1002.1001" y="35.292">GDA 2</text><rect fill="#BAC38B" height="1027.7422" rx="5" ry="5" style="stroke:#181818;stroke-width:0.5;" width="77.9756" x="1105.4106" y="6"/><text fill="#000000" font-family="'Arial'" font-size="14" font-weight="700" lengthAdjust="spacing" textLength="4.874" x="1108.4106" y="18.9951">&#160;</text><text fill="#000000" font-family="'Arial'" font-size="14" font-weight="700" lengthAdjust="spacing" textLength="57.3535" x="1113.2847" y="35.292">Patient</text><g><title>GDA 1</title><rect fill="#FFFFFF" height="686.5313" style="stroke:#181818;stroke-width:1;" width="10" x="151.0293" y="194.3203"/></g><g><title>e-Med FA</title><rect fill="#FFFFFF" height="29.1328" style="stroke:#181818;stroke-width:1;" width="10" x="630.1172" y="194.3203"/></g><g><title>e-Med FA</title><rect fill="#FFFFFF" height="29.1328" style="stroke:#181818;stroke-width:1;" width="10" x="630.1172" y="352.4766"/></g><g><title>e-Med FA</title><rect fill="#FFFFFF" height="86.3984" style="stroke:#181818;stroke-width:1;" width="10" x="630.1172" y="525.7656"/></g><g><title>e-Med FA</title><rect fill="#FFFFFF" height="155.9609" style="stroke:#181818;stroke-width:1;" width="10" x="630.1172" y="724.8906"/></g><g><title>GDA 2</title><rect fill="#FFFFFF" height="259.6875" style="stroke:#181818;stroke-width:1;" width="10" x="1016.5073" y="352.4766"/></g><g class="participant-lifeline" data-entity-uid="part1" data-qualified-name="GDA_1" data-source-line="41" id="part1-lifeline"><g><title>GDA 1</title><rect fill="#000000" fill-opacity="0.00000" height="835.5547" width="8" x="152.0293" y="118.8906"/><line style="stroke:#181818;stroke-width:0.5;stroke-dasharray:5,5;" x1="155.7476" x2="155.7476" y1="118.8906" y2="954.4453"/></g></g><g class="participant-lifeline" data-entity-uid="part2" data-qualified-name="eMed_FA" data-source-line="45" id="part2-lifeline"><g><title>e-Med FA</title><rect fill="#000000" fill-opacity="0.00000" height="835.5547" width="8" x="631.1172" y="118.8906"/><line style="stroke:#181818;stroke-width:0.5;stroke-dasharray:5,5;" x1="634.4551" x2="634.4551" y1="118.8906" y2="954.4453"/></g></g><g class="participant-lifeline" data-entity-uid="part3" data-qualified-name="GDA_2" data-source-line="49" id="part3-lifeline"><g><title>GDA 2</title><rect fill="#000000" fill-opacity="0.00000" height="835.5547" width="8" x="1017.5073" y="118.8906"/><line style="stroke:#181818;stroke-width:0.5;stroke-dasharray:5,5;" x1="1021.2256" x2="1021.2256" y1="118.8906" y2="954.4453"/></g></g><g class="participant-lifeline" data-entity-uid="part4" data-qualified-name="Patient" data-source-line="53" id="part4-lifeline"><g><title>Patient</title><rect fill="#000000" fill-opacity="0.00000" height="835.5547" width="8" x="1140.3984" y="118.8906"/><line style="stroke:#181818;stroke-width:0.5;stroke-dasharray:5,5;" x1="1143.7104" x2="1143.7104" y1="118.8906" y2="954.4453"/></g></g><g class="participant participant-head" data-entity-uid="part1" data-qualified-name="GDA_1" data-source-line="41" id="part1-head"><text fill="#000000" font-family="'Arial'" font-size="14" lengthAdjust="spacing" textLength="44.5635" x="130.7476" y="115.5889">GDA 1</text><ellipse cx="156.0293" cy="51.0938" fill="#E2E2F0" rx="8" ry="8" style="stroke:#181818;stroke-width:0.5;"/><path d="M156.0293,59.0938 L156.0293,86.0938 M143.0293,67.0938 L169.0293,67.0938 M156.0293,86.0938 L143.0293,101.0938 M156.0293,86.0938 L169.0293,101.0938" fill="none" style="stroke:#181818;stroke-width:0.5;"/></g><g class="participant participant-tail" data-entity-uid="part1" data-qualified-name="GDA_1" data-source-line="41" id="part1-tail"><text fill="#000000" font-family="'Arial'" font-size="14" lengthAdjust="spacing" textLength="44.5635" x="130.7476" y="966.4404">GDA 1</text><ellipse cx="156.0293" cy="978.2422" fill="#E2E2F0" rx="8" ry="8" style="stroke:#181818;stroke-width:0.5;"/><path d="M156.0293,986.2422 L156.0293,1013.2422 M143.0293,994.2422 L169.0293,994.2422 M156.0293,1013.2422 L143.0293,1028.2422 M156.0293,1013.2422 L169.0293,1028.2422" fill="none" style="stroke:#181818;stroke-width:0.5;"/></g><g class="participant participant-head" data-entity-uid="part2" data-qualified-name="eMed_FA" data-source-line="45" id="part2-head"><rect fill="#FFFFFF" height="30.2969" rx="5" ry="5" style="stroke:#555555;stroke-width:0.5;" width="79.3242" x="595.4551" y="87.5938"/><text fill="#000000" font-family="'Arial'" font-size="14" lengthAdjust="spacing" textLength="65.3242" x="602.4551" y="107.5889">e-Med FA</text></g><g class="participant participant-tail" data-entity-uid="part2" data-qualified-name="eMed_FA" data-source-line="45" id="part2-tail"><rect fill="#FFFFFF" height="30.2969" rx="5" ry="5" style="stroke:#555555;stroke-width:0.5;" width="79.3242" x="595.4551" y="953.4453"/><text fill="#000000" font-family="'Arial'" font-size="14" lengthAdjust="spacing" textLength="65.3242" x="602.4551" y="973.4404">e-Med FA</text></g><g class="participant participant-head" data-entity-uid="part3" data-qualified-name="GDA_2" data-source-line="49" id="part3-head"><text fill="#000000" font-family="'Arial'" font-size="14" lengthAdjust="spacing" textLength="44.5635" x="996.2256" y="115.5889">GDA 2</text><ellipse cx="1021.5073" cy="51.0938" fill="#E2E2F0" rx="8" ry="8" style="stroke:#181818;stroke-width:0.5;"/><path d="M1021.5073,59.0938 L1021.5073,86.0938 M1008.5073,67.0938 L1034.5073,67.0938 M1021.5073,86.0938 L1008.5073,101.0938 M1021.5073,86.0938 L1034.5073,101.0938" fill="none" style="stroke:#181818;stroke-width:0.5;"/></g><g class="participant participant-tail" data-entity-uid="part3" data-qualified-name="GDA_2" data-source-line="49" id="part3-tail"><text fill="#000000" font-family="'Arial'" font-size="14" lengthAdjust="spacing" textLength="44.5635" x="996.2256" y="966.4404">GDA 2</text><ellipse cx="1021.5073" cy="978.2422" fill="#E2E2F0" rx="8" ry="8" style="stroke:#181818;stroke-width:0.5;"/><path d="M1021.5073,986.2422 L1021.5073,1013.2422 M1008.5073,994.2422 L1034.5073,994.2422 M1021.5073,1013.2422 L1008.5073,1028.2422 M1021.5073,1013.2422 L1034.5073,1028.2422" fill="none" style="stroke:#181818;stroke-width:0.5;"/></g><g class="participant participant-head" data-entity-uid="part4" data-qualified-name="Patient" data-source-line="53" id="part4-head"><text fill="#000000" font-family="'Arial'" font-size="14" lengthAdjust="spacing" textLength="49.376" x="1116.7104" y="115.5889">Patient</text><ellipse cx="1144.3984" cy="51.0938" fill="#E2E2F0" rx="8" ry="8" style="stroke:#181818;stroke-width:0.5;"/><path d="M1144.3984,59.0938 L1144.3984,86.0938 M1131.3984,67.0938 L1157.3984,67.0938 M1144.3984,86.0938 L1131.3984,101.0938 M1144.3984,86.0938 L1157.3984,101.0938" fill="none" style="stroke:#181818;stroke-width:0.5;"/></g><g class="participant participant-tail" data-entity-uid="part4" data-qualified-name="Patient" data-source-line="53" id="part4-tail"><text fill="#000000" font-family="'Arial'" font-size="14" lengthAdjust="spacing" textLength="49.376" x="1116.7104" y="966.4404">Patient</text><ellipse cx="1144.3984" cy="978.2422" fill="#E2E2F0" rx="8" ry="8" style="stroke:#181818;stroke-width:0.5;"/><path d="M1144.3984,986.2422 L1144.3984,1013.2422 M1131.3984,994.2422 L1157.3984,994.2422 M1144.3984,1013.2422 L1131.3984,1028.2422 M1144.3984,1013.2422 L1157.3984,1028.2422" fill="none" style="stroke:#181818;stroke-width:0.5;"/></g><g><title>GDA 1</title><rect fill="#FFFFFF" height="686.5313" style="stroke:#181818;stroke-width:1;" width="10" x="151.0293" y="194.3203"/></g><g><title>e-Med FA</title><rect fill="#FFFFFF" height="29.1328" style="stroke:#181818;stroke-width:1;" width="10" x="630.1172" y="194.3203"/></g><g><title>e-Med FA</title><rect fill="#FFFFFF" height="29.1328" style="stroke:#181818;stroke-width:1;" width="10" x="630.1172" y="352.4766"/></g><g><title>e-Med FA</title><rect fill="#FFFFFF" height="86.3984" style="stroke:#181818;stroke-width:1;" width="10" x="630.1172" y="525.7656"/></g><g><title>e-Med FA</title><rect fill="#FFFFFF" height="155.9609" style="stroke:#181818;stroke-width:1;" width="10" x="630.1172" y="724.8906"/></g><g><title>GDA 2</title><rect fill="#FFFFFF" height="259.6875" style="stroke:#181818;stroke-width:1;" width="10" x="1016.5073" y="352.4766"/></g><rect fill="#EEEEEE" height="3" rx="5" ry="5" style="stroke:#EEEEEE;stroke-width:1;" width="1204.3862" x="0" y="150.0391"/><line style="stroke:#000000;stroke-width:1;" x1="0" x2="1204.3862" y1="150.0391" y2="150.0391"/><line style="stroke:#000000;stroke-width:1;" x1="0" x2="1204.3862" y1="153.0391" y2="153.0391"/><rect fill="#EEEEEE" height="24.2969" rx="5" ry="5" style="stroke:#000000;stroke-width:2;" width="202.3711" x="501.0076" y="138.8906"/><text fill="#000000" font-family="'Arial'" font-size="14" font-weight="700" lengthAdjust="spacing" textLength="183.4971" x="507.0076" y="155.8857">Plan-Read durch GDA 1</text><g class="message" data-entity-1="part1" data-entity-2="part2" data-source-line="62" id="msg1"><line style="stroke:#111827;stroke-width:1;" x1="628.1172" x2="618.1172" y1="194.3203" y2="190.3203"/><line style="stroke:#111827;stroke-width:1;" x1="628.1172" x2="618.1172" y1="194.3203" y2="198.3203"/><line style="stroke:#111827;stroke-width:1;" x1="161.0293" x2="629.1172" y1="194.3203" y2="194.3203"/><text fill="#000000" font-family="'Arial'" font-size="13" font-weight="700" lengthAdjust="spacing" textLength="9.0454" x="168.0293" y="189.2544">1</text><text fill="#000000" font-family="'Arial'" font-size="13" lengthAdjust="spacing" textLength="108.9893" x="181.0747" y="189.2544">POST $plan-read</text></g><g class="message" data-entity-1="part2" data-entity-2="part1" data-source-line="66" id="msg2"><line style="stroke:#111827;stroke-width:1;" x1="162.0293" x2="172.0293" y1="223.4531" y2="219.4531"/><line style="stroke:#111827;stroke-width:1;" x1="162.0293" x2="172.0293" y1="223.4531" y2="227.4531"/><line style="stroke:#111827;stroke-width:1;stroke-dasharray:2,2;" x1="161.0293" x2="634.1172" y1="223.4531" y2="223.4531"/><text fill="#000000" font-family="'Arial'" font-size="13" font-weight="700" lengthAdjust="spacing" textLength="9.0454" x="178.0293" y="218.3872">2</text><text fill="#000000" font-family="'Arial'" font-size="13" lengthAdjust="spacing" textLength="206.1274" x="191.0747" y="218.3872">Collection Bundle + ETag "123"</text></g><path d="M5,241.4531 L5,273.4531 A5,5 0 0 0 10,278.4531 L300,278.4531 A5,5 0 0 0 305,273.4531 L305,246.4531 L295,236.4531 L10,236.4531 A5,5 0 0 0 5,241.4531" fill="url(#ggwlljlyxf5rz0)" filter="url(#fgwlljlyxf5rz)" style="stroke:#8B95A5;stroke-width:1;"/><path d="M295,236.4531 L295,243.9531 A2.5,2.5 0 0 0 297.5,246.4531 L305,246.4531 L295,236.4531" fill="url(#ggwlljlyxf5rz0)" style="stroke:#8B95A5;stroke-width:1;"/><text fill="#111827" font-family="'Arial'" font-size="14" lengthAdjust="spacing" textLength="240.7754" x="11" y="254.4482">GDA 1 bearbeitet Medikationsplan</text><text fill="#111827" font-family="'Arial'" font-size="14" lengthAdjust="spacing" textLength="279.9863" x="11" y="270.7451">(Eintr&#228;ge hinzuf&#252;gen/&#228;ndern/entfernen)</text><rect fill="#EEEEEE" height="3" rx="5" ry="5" style="stroke:#EEEEEE;stroke-width:1;" width="1204.3862" x="0" y="308.1953"/><line style="stroke:#000000;stroke-width:1;" x1="0" x2="1204.3862" y1="308.1953" y2="308.1953"/><line style="stroke:#000000;stroke-width:1;" x1="0" x2="1204.3862" y1="311.1953" y2="311.1953"/><rect fill="#EEEEEE" height="24.2969" rx="5" ry="5" style="stroke:#000000;stroke-width:2;" width="202.3711" x="501.0076" y="297.0469"/><text fill="#000000" font-family="'Arial'" font-size="14" font-weight="700" lengthAdjust="spacing" textLength="183.4971" x="507.0076" y="314.042">Plan-Read durch GDA 2</text><g class="message" data-entity-1="part3" data-entity-2="part2" data-source-line="76" id="msg3"><line style="stroke:#111827;stroke-width:1;" x1="641.1172" x2="651.1172" y1="352.4766" y2="348.4766"/><line style="stroke:#111827;stroke-width:1;" x1="641.1172" x2="651.1172" y1="352.4766" y2="356.4766"/><line style="stroke:#111827;stroke-width:1;" x1="640.1172" x2="1015.5073" y1="352.4766" y2="352.4766"/><text fill="#000000" font-family="'Arial'" font-size="13" font-weight="700" lengthAdjust="spacing" textLength="9.0454" x="657.1172" y="347.4106">3</text><text fill="#000000" font-family="'Arial'" font-size="13" lengthAdjust="spacing" textLength="108.9893" x="670.1626" y="347.4106">POST $plan-read</text></g><g class="message" data-entity-1="part2" data-entity-2="part3" data-source-line="81" id="msg4"><line style="stroke:#111827;stroke-width:1;" x1="1014.5073" x2="1004.5073" y1="381.6094" y2="377.6094"/><line style="stroke:#111827;stroke-width:1;" x1="1014.5073" x2="1004.5073" y1="381.6094" y2="385.6094"/><line style="stroke:#111827;stroke-width:1;stroke-dasharray:2,2;" x1="635.1172" x2="1015.5073" y1="381.6094" y2="381.6094"/><text fill="#000000" font-family="'Arial'" font-size="13" font-weight="700" lengthAdjust="spacing" textLength="9.0454" x="642.1172" y="376.5435">4</text><text fill="#000000" font-family="'Arial'" font-size="13" lengthAdjust="spacing" textLength="206.1274" x="655.1626" y="376.5435">Collection Bundle + ETag "123"</text></g><path d="M869,399.6094 L869,431.6094 A5,5 0 0 0 874,436.6094 L1164,436.6094 A5,5 0 0 0 1169,431.6094 L1169,404.6094 L1159,394.6094 L874,394.6094 A5,5 0 0 0 869,399.6094" fill="url(#ggwlljlyxf5rz0)" filter="url(#fgwlljlyxf5rz)" style="stroke:#8B95A5;stroke-width:1;"/><path d="M1159,394.6094 L1159,402.1094 A2.5,2.5 0 0 0 1161.5,404.6094 L1169,404.6094 L1159,394.6094" fill="url(#ggwlljlyxf5rz0)" style="stroke:#8B95A5;stroke-width:1;"/><text fill="#111827" font-family="'Arial'" font-size="14" lengthAdjust="spacing" textLength="240.7754" x="875" y="412.6045">GDA 2 bearbeitet Medikationsplan</text><text fill="#111827" font-family="'Arial'" font-size="14" lengthAdjust="spacing" textLength="279.9863" x="875" y="428.9014">(Eintr&#228;ge hinzuf&#252;gen/&#228;ndern/entfernen)</text><rect fill="#EEEEEE" height="3" rx="5" ry="5" style="stroke:#EEEEEE;stroke-width:1;" width="1204.3862" x="0" y="466.3516"/><line style="stroke:#000000;stroke-width:1;" x1="0" x2="1204.3862" y1="466.3516" y2="466.3516"/><line style="stroke:#000000;stroke-width:1;" x1="0" x2="1204.3862" y1="469.3516" y2="469.3516"/><rect fill="#EEEEEE" height="24.2969" rx="5" ry="5" style="stroke:#000000;stroke-width:2;" width="205.96" x="499.2131" y="455.2031"/><text fill="#000000" font-family="'Arial'" font-size="14" font-weight="700" lengthAdjust="spacing" textLength="187.0859" x="505.2131" y="472.1982">Plan-Write durch GDA 2</text><g class="message" data-entity-1="part3" data-entity-2="part2" data-source-line="91" id="msg5"><line style="stroke:#111827;stroke-width:1;" x1="641.1172" x2="651.1172" y1="525.7656" y2="521.7656"/><line style="stroke:#111827;stroke-width:1;" x1="641.1172" x2="651.1172" y1="525.7656" y2="529.7656"/><line style="stroke:#111827;stroke-width:1;" x1="640.1172" x2="1015.5073" y1="525.7656" y2="525.7656"/><text fill="#000000" font-family="'Arial'" font-size="13" font-weight="700" lengthAdjust="spacing" textLength="9.0454" x="657.1172" y="513.1333">5</text><text fill="#000000" font-family="'Arial'" font-size="13" lengthAdjust="spacing" textLength="197.5962" x="670.1626" y="505.5669">POST $plan-write (Transaction</text><text fill="#000000" font-family="'Arial'" font-size="13" lengthAdjust="spacing" textLength="142.7651" x="670.1626" y="520.6997">Bundle + ETag "123")</text></g><g class="message" data-entity-1="part2" data-entity-2="part2" data-source-line="94" id="msg6"><line style="stroke:#111827;stroke-width:1;" x1="640.1172" x2="682.1172" y1="570.0313" y2="570.0313"/><line style="stroke:#111827;stroke-width:1;" x1="682.1172" x2="682.1172" y1="570.0313" y2="583.0313"/><line style="stroke:#111827;stroke-width:1;" x1="641.1172" x2="682.1172" y1="583.0313" y2="583.0313"/><polygon fill="#111827" points="651.1172,579.0313,641.1172,583.0313,651.1172,587.0313,647.1172,583.0313" style="stroke:#111827;stroke-width:1;stroke-linejoin:miter;stroke-miterlimit:10;"/><text fill="#000000" font-family="'Arial'" font-size="13" font-weight="700" lengthAdjust="spacing" textLength="9.0454" x="647.1172" y="557.3989">6</text><text fill="#000000" font-family="'Arial'" font-size="13" lengthAdjust="spacing" textLength="171.0693" x="660.1626" y="549.8325">ETag "123" im Header ==</text><text fill="#000000" font-family="'Arial'" font-size="13" lengthAdjust="spacing" textLength="210.0249" x="660.1626" y="564.9653">ETag der Fachanwendung "123"</text></g><g class="message" data-entity-1="part2" data-entity-2="part3" data-source-line="95" id="msg7"><line style="stroke:#111827;stroke-width:1;" x1="1019.5073" x2="1009.5073" y1="612.1641" y2="608.1641"/><line style="stroke:#111827;stroke-width:1;" x1="1019.5073" x2="1009.5073" y1="612.1641" y2="616.1641"/><line style="stroke:#111827;stroke-width:1;stroke-dasharray:2,2;" x1="635.1172" x2="1020.5073" y1="612.1641" y2="612.1641"/><text fill="#000000" font-family="'Arial'" font-size="13" font-weight="700" lengthAdjust="spacing" textLength="9.0454" x="642.1172" y="607.0981">7</text><text fill="#000000" font-family="'Arial'" font-size="13" lengthAdjust="spacing" textLength="18.7573" x="655.1626" y="607.0981">OK</text></g><path d="M451,630.1641 L451,646.1641 A5,5 0 0 0 456,651.1641 L810,651.1641 A5,5 0 0 0 815,646.1641 L815,635.1641 L805,625.1641 L456,625.1641 A5,5 0 0 0 451,630.1641" fill="url(#ggwlljlyxf5rz0)" filter="url(#fgwlljlyxf5rz)" style="stroke:#8B95A5;stroke-width:1;"/><path d="M805,625.1641 L805,632.6641 A2.5,2.5 0 0 0 807.5,635.1641 L815,635.1641 L805,625.1641" fill="url(#ggwlljlyxf5rz0)" style="stroke:#8B95A5;stroke-width:1;"/><text fill="#111827" font-family="'Arial'" font-size="14" lengthAdjust="spacing" textLength="343.4238" x="457" y="643.1592">Medikationsplan wurde durch GDA 2 aktualisiert.</text><rect fill="#EEEEEE" height="3" rx="5" ry="5" style="stroke:#EEEEEE;stroke-width:1;" width="1204.3862" x="0" y="680.6094"/><line style="stroke:#000000;stroke-width:1;" x1="0" x2="1204.3862" y1="680.6094" y2="680.6094"/><line style="stroke:#000000;stroke-width:1;" x1="0" x2="1204.3862" y1="683.6094" y2="683.6094"/><rect fill="#EEEEEE" height="24.2969" rx="5" ry="5" style="stroke:#000000;stroke-width:2;" width="229.4688" x="487.4587" y="669.4609"/><text fill="#000000" font-family="'Arial'" font-size="14" font-weight="700" lengthAdjust="spacing" textLength="210.5947" x="493.4587" y="686.4561">Plan-Write-Error f&#252;r GDA 1</text><g class="message" data-entity-1="part1" data-entity-2="part2" data-source-line="106" id="msg8"><line style="stroke:#111827;stroke-width:1;" x1="628.1172" x2="618.1172" y1="724.8906" y2="720.8906"/><line style="stroke:#111827;stroke-width:1;" x1="628.1172" x2="618.1172" y1="724.8906" y2="728.8906"/><line style="stroke:#111827;stroke-width:1;" x1="161.0293" x2="629.1172" y1="724.8906" y2="724.8906"/><text fill="#000000" font-family="'Arial'" font-size="13" font-weight="700" lengthAdjust="spacing" textLength="9.0454" x="168.0293" y="719.8247">8</text><text fill="#000000" font-family="'Arial'" font-size="13" lengthAdjust="spacing" textLength="344.4937" x="181.0747" y="719.8247">POST $plan-write (Transaction Bundle + ETag "123")</text></g><g class="message" data-entity-1="part2" data-entity-2="part2" data-source-line="109" id="msg9"><line style="stroke:#111827;stroke-width:1;" x1="640.1172" x2="682.1172" y1="799.4219" y2="799.4219"/><line style="stroke:#111827;stroke-width:1;" x1="682.1172" x2="682.1172" y1="799.4219" y2="812.4219"/><line style="stroke:#111827;stroke-width:1;" x1="641.1172" x2="682.1172" y1="812.4219" y2="812.4219"/><polygon fill="#111827" points="651.1172,808.4219,641.1172,812.4219,651.1172,816.4219,647.1172,812.4219" style="stroke:#111827;stroke-width:1;stroke-linejoin:miter;stroke-miterlimit:10;"/><text fill="#000000" font-family="'Arial'" font-size="13" font-weight="700" lengthAdjust="spacing" textLength="9.0454" x="647.1172" y="771.6567">9</text><text fill="#000000" font-family="'Arial'" font-size="13" lengthAdjust="spacing" textLength="231.6577" x="660.1626" y="748.9575">ETag im Header "123" stimmt nicht</text><text fill="#000000" font-family="'Arial'" font-size="13" lengthAdjust="spacing" textLength="194.6255" x="660.1626" y="764.0903">mit ETag der Fachanwendung</text><text fill="#000000" font-family="'Arial'" font-size="13" lengthAdjust="spacing" textLength="241.9219" x="660.1626" y="779.2231">&#252;berein, da er bereits zum Schreiben</text><text fill="#000000" font-family="'Arial'" font-size="13" lengthAdjust="spacing" textLength="113.8516" x="660.1626" y="794.356">verwendet wurde</text></g><path d="M497,830.4219 L497,846.4219 A5,5 0 0 0 502,851.4219 L764,851.4219 A5,5 0 0 0 769,846.4219 L769,835.4219 L759,825.4219 L502,825.4219 A5,5 0 0 0 497,830.4219" fill="url(#ggwlljlyxf5rz0)" filter="url(#fgwlljlyxf5rz)" style="stroke:#8B95A5;stroke-width:1;"/><path d="M759,825.4219 L759,832.9219 A2.5,2.5 0 0 0 761.5,835.4219 L769,835.4219 L759,825.4219" fill="url(#ggwlljlyxf5rz0)" style="stroke:#8B95A5;stroke-width:1;"/><text fill="#111827" font-family="'Arial'" font-size="14" lengthAdjust="spacing" textLength="251.7539" x="503" y="843.417">Fachanwendung lehnt Speichern ab</text><g class="message" data-entity-1="part2" data-entity-2="part1" data-source-line="113" id="msg10"><line style="stroke:#111827;stroke-width:1;" x1="157.0293" x2="167.0293" y1="880.8516" y2="876.8516"/><line style="stroke:#111827;stroke-width:1;" x1="157.0293" x2="167.0293" y1="880.8516" y2="884.8516"/><line style="stroke:#111827;stroke-width:1;stroke-dasharray:2,2;" x1="156.0293" x2="634.1172" y1="880.8516" y2="880.8516"/><text fill="#000000" font-family="'Arial'" font-size="13" font-weight="700" lengthAdjust="spacing" textLength="18.0908" x="173.0293" y="875.7856">10</text><text fill="#000000" font-family="'Arial'" font-size="13" lengthAdjust="spacing" textLength="104.0889" x="195.1201" y="875.7856">Fehler (Konflikt)</text></g><path d="M126,898.8516 L126,930.8516 A5,5 0 0 0 131,935.8516 L660,935.8516 A5,5 0 0 0 665,930.8516 L665,903.8516 L655,893.8516 L131,893.8516 A5,5 0 0 0 126,898.8516" fill="url(#ggwlljlyxf5rz0)" filter="url(#fgwlljlyxf5rz)" style="stroke:#8B95A5;stroke-width:1;"/><path d="M655,893.8516 L655,901.3516 A2.5,2.5 0 0 0 657.5,903.8516 L665,903.8516 L655,893.8516" fill="url(#ggwlljlyxf5rz0)" style="stroke:#8B95A5;stroke-width:1;"/><text fill="#111827" font-family="'Arial'" font-size="14" lengthAdjust="spacing" textLength="353.2061" x="210.6877" y="911.8467">Speichern des Medikationsplans wurde abgelehnt,</text><text fill="#111827" font-family="'Arial'" font-size="14" lengthAdjust="spacing" textLength="341.0176" x="210.6877" y="928.1436">der GDA 1 muss ein neues Plan-Read ausf&#252;hren.</text><g class="footer" data-source-line="122"><text fill="#000000" font-family="'Arial'" font-size="10" lengthAdjust="spacing" textLength="80.1123" x="561.637" y="1044.0244">Plan-Write-Error</text></g><?plantuml-src jPNVRzCm4CVV_LUSEXusiSAIhQn3Ab877KW8gDOXNYfDJd9fhAPESHmwXlXlzcVmjd-CivCsJXj-2N0VMllkUxxxdEtcSo6NNF4519cAK3tFqap1tf4TBA-jF9pFL5R8gFA8U-RZUEG9ZxALa3E8UPgZOwbaIg82pmqQOSoBL5zaKh_b2uJEK0cUTjez9k8MmJjfDpRJTdnafX6-C83pxGBm27lnKNSlyg8pV68yN03zuAp7UvlLgqI4Subv3XwjNJe5zMa-vb5a2ZTHd6myp-lxfxGssQ3Hga3srKtmrUSbgbJ8kLF2QDJcy5v6zWTMW5ts-B506PQLZhdI8XHBBdMZf9uTMmuxRRMZwRGBUCUyRax3iCRY6y5GgMor3SOkDjdQfROTDuPohsDQUacPBnirRYANffsUO-pRwXnblRtVxCnvTkDKq5Xluyg2x0OwKqd1Nmp10-Z0tbbCzyPGuQ4cLp9SUy1pw5YN3aCPqRsxSRHsOFSDHd31muJB5VaKb48vAERpa_xfgJbroveq80ckBuOsTgKUjeStE_isK80S0smavs-IyrlKOwu5qcPMpCFZVh0Hhqr6Nlrs0Z1Uw4mMYm0LOy060nYdN7OlaKSG5IfCAcI30MCbe-wpP-kQdiButUGA7YoDH964qPRY4wTxRNrPFQyKR4sZQy9OfwT0pKgH73C9vtGWKeI7CBhYC-Xu_d67HRWJXTct8_k4LUDOcIHXKm4AZHh8KSovYPcRxDZ-I4Yjxkzc28cGjqLy_ss6yl7zdRcvyZ51YUaRvO55OyAp7y7mDp3yFu3Xjy3OfU7_0ne-AxFyJpG-A0hvXpXMLhD_fRZCkQrjAbkAE_ZPWN4YrmeGz0eJQofzC9XAQp2JvWKjoRN1VlSQNA9LesgUwoos0CAge5Uc0O7FTS5JaGjK-f63hQrV3PJT4RsU2gW5whVlsYvF-5kSDSWIRAx5Og51YZ3HKxaG6jhXJkNzDteyKCX3Y3YGsSvq3hV50YPXGfC0gT-4qqZeD5fuBP2RJKineLThiaJAW0uZyA2cslQAN62IKh3zrvcCKp7N1zkDzNQtFAmCzIuHvjkt9Q-wpOCPsgGEpPbPDsjHqDyJLGyI2zBM3mOlSkefbIz_THn2kcyKByuoyxLzChu3?></g></svg>