<?xml version="1.0" encoding="us-ascii" standalone="no"?><svg xmlns="http://www.w3.org/2000/svg" xmlns:xlink="http://www.w3.org/1999/xlink" contentStyleType="text/css" height="826px" preserveAspectRatio="none" style="width:1112px;height:826px;background:#F5F5F5;" version="1.1" viewBox="0 0 1112 826" width="1112px" zoomAndPan="magnify"><defs><linearGradient id="g1pnsgxojgh7x00" x1="50%" x2="50%" y1="0%" y2="100%"><stop offset="0%" stop-color="#E0E5F0"/><stop offset="100%" stop-color="#D1D9E6"/></linearGradient><filter height="300%" id="f1pnsgxojgh7x0" width="300%" x="-1" y="-1"><feGaussianBlur result="blurOut" stdDeviation="2.0"/><feColorMatrix in="blurOut" result="blurOut2" type="matrix" values="0 0 0 0 0 0 0 0 0 0 0 0 0 0 0 0 0 0 .4 0"/><feOffset dx="4.0" dy="4.0" in="blurOut2" result="blurOut3"/><feBlend in="SourceGraphic" in2="blurOut3" mode="normal"/></filter></defs><g><rect fill="#F5F5F5" height="826" style="stroke:none;stroke-width:1.0;" width="1112" x="0" y="0"/><text fill="#000000" font-family="Arial" font-size="14" font-weight="bold" lengthAdjust="spacing" textLength="70" x="517" y="28.1318">Plan-Read</text><rect fill="#9FBAC4" height="777.6157" rx="5" ry="5" style="stroke:#181818;stroke-width:0.5;" width="65" x="78" y="43.0986"/><text fill="#000000" font-family="Arial" font-size="14" font-weight="bold" lengthAdjust="spacing" textLength="4" x="81" y="56.2305">&#160;</text><text fill="#000000" font-family="Arial" font-size="14" font-weight="bold" lengthAdjust="spacing" textLength="43" x="89" y="72.3291">GDA 1</text><rect fill="#C48778" height="777.6157" rx="5" ry="5" style="stroke:#181818;stroke-width:0.5;" width="223" x="379.5" y="43.0986"/><text fill="#000000" font-family="Arial" font-size="14" font-weight="bold" lengthAdjust="spacing" textLength="4" x="382.5" y="56.2305">&#160;</text><text fill="#000000" font-family="Arial" font-size="14" font-weight="bold" lengthAdjust="spacing" textLength="161" x="410.5" y="72.3291">e-Med Fachanwendung</text><rect fill="#BEAEBE" height="777.6157" rx="5" ry="5" style="stroke:#181818;stroke-width:0.5;" width="73" x="903" y="43.0986"/><text fill="#000000" font-family="Arial" font-size="14" font-weight="bold" lengthAdjust="spacing" textLength="4" x="906" y="56.2305">&#160;</text><text fill="#000000" font-family="Arial" font-size="14" font-weight="bold" lengthAdjust="spacing" textLength="43" x="922" y="72.3291">GDA 2</text><rect fill="#BAC38B" height="777.6157" rx="5" ry="5" style="stroke:#181818;stroke-width:0.5;" width="66" x="1018" y="43.0986"/><text fill="#000000" font-family="Arial" font-size="14" font-weight="bold" lengthAdjust="spacing" textLength="4" x="1021" y="56.2305">&#160;</text><text fill="#000000" font-family="Arial" font-size="14" font-weight="bold" lengthAdjust="spacing" textLength="48" x="1025" y="72.3291">Patient</text><rect fill="#FFFFFF" height="502.1738" style="stroke:#181818;stroke-width:1.0;" width="10" x="105.5" y="230.4419"/><rect fill="#FFFFFF" height="372.9292" style="stroke:#181818;stroke-width:1.0;" width="10" x="486" y="230.4419"/><rect fill="none" height="253.8345" rx="5" ry="5" style="stroke:#111827;stroke-width:2.0;" width="805.5" x="76.5" y="357.5366"/><line style="stroke:#181818;stroke-width:0.5;stroke-dasharray:5.0,5.0;" x1="110.5" x2="110.5" y1="155.3945" y2="741.6157"/><line style="stroke:#181818;stroke-width:0.5;stroke-dasharray:5.0,5.0;" x1="490.5" x2="490.5" y1="155.3945" y2="741.6157"/><line style="stroke:#181818;stroke-width:0.5;stroke-dasharray:5.0,5.0;" x1="939.5" x2="939.5" y1="155.3945" y2="741.6157"/><line style="stroke:#181818;stroke-width:0.5;stroke-dasharray:5.0,5.0;" x1="1051" x2="1051" y1="155.3945" y2="741.6157"/><text fill="#000000" font-family="Arial" font-size="14" lengthAdjust="spacing" textLength="42" x="86.5" y="152.4277">GDA 1</text><ellipse cx="110.5" cy="87.7959" fill="#E2E2F0" rx="8" ry="8" style="stroke:#181818;stroke-width:0.5;"/><path d="M110.5,95.7959 L110.5,122.7959 M97.5,103.7959 L123.5,103.7959 M110.5,122.7959 L97.5,137.7959 M110.5,122.7959 L123.5,137.7959 " fill="none" style="stroke:#181818;stroke-width:0.5;"/><text fill="#000000" font-family="Arial" font-size="14" lengthAdjust="spacing" textLength="42" x="86.5" y="753.7476">GDA 1</text><ellipse cx="110.5" cy="765.2144" fill="#E2E2F0" rx="8" ry="8" style="stroke:#181818;stroke-width:0.5;"/><path d="M110.5,773.2144 L110.5,800.2144 M97.5,781.2144 L123.5,781.2144 M110.5,800.2144 L97.5,815.2144 M110.5,800.2144 L123.5,815.2144 " fill="none" style="stroke:#181818;stroke-width:0.5;"/><rect fill="#FFFFFF" height="30.0986" rx="5" ry="5" style="stroke:#555555;stroke-width:0.5;" width="77" x="452.5" y="124.2959"/><text fill="#000000" font-family="Arial" font-size="14" lengthAdjust="spacing" textLength="63" x="459.5" y="144.4277">e-Med FA</text><rect fill="#FFFFFF" height="30.0986" rx="5" ry="5" style="stroke:#555555;stroke-width:0.5;" width="77" x="452.5" y="740.6157"/><text fill="#000000" font-family="Arial" font-size="14" lengthAdjust="spacing" textLength="63" x="459.5" y="760.7476">e-Med FA</text><text fill="#000000" font-family="Arial" font-size="14" lengthAdjust="spacing" textLength="42" x="915.5" y="152.4277">GDA 2</text><ellipse cx="939.5" cy="87.7959" fill="#E2E2F0" rx="8" ry="8" style="stroke:#181818;stroke-width:0.5;"/><path d="M939.5,95.7959 L939.5,122.7959 M926.5,103.7959 L952.5,103.7959 M939.5,122.7959 L926.5,137.7959 M939.5,122.7959 L952.5,137.7959 " fill="none" style="stroke:#181818;stroke-width:0.5;"/><text fill="#000000" font-family="Arial" font-size="14" lengthAdjust="spacing" textLength="42" x="915.5" y="753.7476">GDA 2</text><ellipse cx="939.5" cy="765.2144" fill="#E2E2F0" rx="8" ry="8" style="stroke:#181818;stroke-width:0.5;"/><path d="M939.5,773.2144 L939.5,800.2144 M926.5,781.2144 L952.5,781.2144 M939.5,800.2144 L926.5,815.2144 M939.5,800.2144 L952.5,815.2144 " fill="none" style="stroke:#181818;stroke-width:0.5;"/><text fill="#000000" font-family="Arial" font-size="14" lengthAdjust="spacing" textLength="44" x="1026" y="152.4277">Patient</text><ellipse cx="1051" cy="87.7959" fill="#E2E2F0" rx="8" ry="8" style="stroke:#181818;stroke-width:0.5;"/><path d="M1051,95.7959 L1051,122.7959 M1038,103.7959 L1064,103.7959 M1051,122.7959 L1038,137.7959 M1051,122.7959 L1064,137.7959 " fill="none" style="stroke:#181818;stroke-width:0.5;"/><text fill="#000000" font-family="Arial" font-size="14" lengthAdjust="spacing" textLength="44" x="1026" y="753.7476">Patient</text><ellipse cx="1051" cy="765.2144" fill="#E2E2F0" rx="8" ry="8" style="stroke:#181818;stroke-width:0.5;"/><path d="M1051,773.2144 L1051,800.2144 M1038,781.2144 L1064,781.2144 M1051,800.2144 L1038,815.2144 M1051,800.2144 L1064,815.2144 " fill="none" style="stroke:#181818;stroke-width:0.5;"/><rect fill="#FFFFFF" height="502.1738" style="stroke:#181818;stroke-width:1.0;" width="10" x="105.5" y="230.4419"/><rect fill="#FFFFFF" height="372.9292" style="stroke:#181818;stroke-width:1.0;" width="10" x="486" y="230.4419"/><rect fill="#EEEEEE" height="3" rx="5" ry="5" style="stroke:#EEEEEE;stroke-width:1.0;" width="1105" x="0" y="186.4438"/><line style="stroke:#000000;stroke-width:1.0;" x1="0" x2="1105" y1="186.4438" y2="186.4438"/><line style="stroke:#000000;stroke-width:1.0;" x1="0" x2="1105" y1="189.4438" y2="189.4438"/><rect fill="#EEEEEE" height="24.0986" rx="5" ry="5" style="stroke:#000000;stroke-width:2.0;" width="189" x="458" y="175.3945"/><text fill="#000000" font-family="Arial" font-size="14" font-weight="bold" lengthAdjust="spacing" textLength="171" x="464" y="192.5264">Medikationsplan abrufen</text><line style="stroke:#111827;stroke-width:1.0;" x1="484" x2="474" y1="230.4419" y2="226.4419"/><line style="stroke:#111827;stroke-width:1.0;" x1="484" x2="474" y1="230.4419" y2="234.4419"/><line style="stroke:#111827;stroke-width:1.0;" x1="115.5" x2="485" y1="230.4419" y2="230.4419"/><text fill="#000000" font-family="Arial" font-size="13" font-weight="bold" lengthAdjust="spacing" textLength="7" x="122.5" y="225.687">1</text><text fill="#000000" font-family="Arial" font-size="13" lengthAdjust="spacing" textLength="100" x="133.5" y="225.687">POST $plan-read</text><path d="M5,248.4419 L5,280.4419 A5,5 0 0 0 10,285.4419 L209,285.4419 A5,5 0 0 0 214,280.4419 L214,253.4419 L204,243.4419 L10,243.4419 A5,5 0 0 0 5,248.4419 " fill="url(#g1pnsgxojgh7x00)" filter="url(#f1pnsgxojgh7x0)" style="stroke:#8B95A5;stroke-width:1.0;"/><path d="M204,243.4419 L204,250.9419 A2.5,2.5 0 0 0 206.5,253.4419 L214,253.4419 L204,243.4419 " fill="url(#g1pnsgxojgh7x00)" style="stroke:#8B95A5;stroke-width:1.0;"/><text fill="#111827" font-family="Arial" font-size="14" lengthAdjust="spacing" textLength="160" x="11" y="261.5737">Medikationsplan abrufen,</text><text fill="#111827" font-family="Arial" font-size="14" lengthAdjust="spacing" textLength="188" x="11" y="277.6724">mit der Intention zu schreiben</text><line style="stroke:#111827;stroke-width:1.0;" x1="496" x2="538" y1="329.5366" y2="329.5366"/><line style="stroke:#111827;stroke-width:1.0;" x1="538" x2="538" y1="329.5366" y2="342.5366"/><line style="stroke:#111827;stroke-width:1.0;" x1="497" x2="538" y1="342.5366" y2="342.5366"/><polygon fill="#111827" points="507,338.5366,497,342.5366,507,346.5366,503,342.5366" style="stroke:#111827;stroke-width:1.0;"/><text fill="#000000" font-family="Arial" font-size="13" font-weight="bold" lengthAdjust="spacing" textLength="7" x="503" y="317.3074">2</text><text fill="#000000" font-family="Arial" font-size="13" lengthAdjust="spacing" textLength="145" x="514" y="309.833">Pr&#252;fung auf bestehenden</text><text fill="#000000" font-family="Arial" font-size="13" lengthAdjust="spacing" textLength="94" x="514" y="324.7817">Medikationsplan</text><path d="M81.5,357.5366 L138.5,357.5366 L138.5,365.6353 L128.5,375.6353 L76.5,375.6353 L76.5,362.5366 A5,5 0 0 1 81.5,357.5366 " fill="#EEF2FF" style="stroke:#111827;stroke-width:1.5;"/><rect fill="none" height="253.8345" rx="5" ry="5" style="stroke:#111827;stroke-width:2.0;" width="805.5" x="76.5" y="357.5366"/><text fill="#000000" font-family="Arial" font-size="14" font-weight="bold" lengthAdjust="spacing" textLength="17" x="91.5" y="371.6685">alt</text><text fill="#000000" font-family="Arial" font-size="14" font-weight="bold" lengthAdjust="spacing" textLength="235" x="153.5" y="372.6685">[kein Medikationsplan vorhanden]</text><line style="stroke:#111827;stroke-width:1.0;" x1="496" x2="538" y1="412.6313" y2="412.6313"/><line style="stroke:#111827;stroke-width:1.0;" x1="538" x2="538" y1="412.6313" y2="425.6313"/><line style="stroke:#111827;stroke-width:1.0;" x1="497" x2="538" y1="425.6313" y2="425.6313"/><polygon fill="#111827" points="507,421.6313,497,425.6313,507,429.6313,503,425.6313" style="stroke:#111827;stroke-width:1.0;"/><text fill="#000000" font-family="Arial" font-size="13" font-weight="bold" lengthAdjust="spacing" textLength="7" x="503" y="400.4021">3</text><text fill="#000000" font-family="Arial" font-size="13" lengthAdjust="spacing" textLength="182" x="514" y="392.9277">Erzeugt leeren Medikationsplan</text><text fill="#000000" font-family="Arial" font-size="13" lengthAdjust="spacing" textLength="211" x="518" y="407.8765">mit List.emptyReason = "notstarted"</text><line style="stroke:#111827;stroke-width:1.0;" x1="116.5" x2="126.5" y1="454.5801" y2="450.5801"/><line style="stroke:#111827;stroke-width:1.0;" x1="116.5" x2="126.5" y1="454.5801" y2="458.5801"/><line style="stroke:#111827;stroke-width:1.0;stroke-dasharray:2.0,2.0;" x1="115.5" x2="485" y1="454.5801" y2="454.5801"/><text fill="#000000" font-family="Arial" font-size="13" font-weight="bold" lengthAdjust="spacing" textLength="7" x="132.5" y="449.8252">4</text><text fill="#000000" font-family="Arial" font-size="13" lengthAdjust="spacing" textLength="134" x="143.5" y="449.8252">Leerer Medikationsplan</text><line style="stroke:#111827;stroke-width:1.0;stroke-dasharray:2.0,2.0;" x1="76.5" x2="882" y1="463.5801" y2="463.5801"/><text fill="#000000" font-family="Arial" font-size="14" font-weight="bold" lengthAdjust="spacing" textLength="202" x="81.5" y="476.7119">[Medikationsplan vorhanden]</text><line style="stroke:#111827;stroke-width:1.0;" x1="496" x2="538" y1="546.4736" y2="546.4736"/><line style="stroke:#111827;stroke-width:1.0;" x1="538" x2="538" y1="546.4736" y2="559.4736"/><line style="stroke:#111827;stroke-width:1.0;" x1="497" x2="538" y1="559.4736" y2="559.4736"/><polygon fill="#111827" points="507,555.4736,497,559.4736,507,563.4736,503,559.4736" style="stroke:#111827;stroke-width:1.0;"/><text fill="#000000" font-family="Arial" font-size="13" font-weight="bold" lengthAdjust="spacing" textLength="7" x="503" y="519.2957">5</text><text fill="#000000" font-family="Arial" font-size="13" lengthAdjust="spacing" textLength="356" x="514" y="496.8726">Stellt Auslieferungs-Medikationsplan-Collection-Bundle bereit:</text><text fill="#000000" font-family="Arial" font-size="13" lengthAdjust="spacing" textLength="65" x="514" y="511.8213">Bedingung:</text><text fill="#000000" font-family="Arial" font-size="13" lengthAdjust="spacing" textLength="167" x="514" y="526.77">- new|changed &#8594; unchanged</text><text fill="#000000" font-family="Arial" font-size="13" lengthAdjust="spacing" textLength="133" x="514" y="541.7188">- removed &#8594; entfernen</text><line style="stroke:#111827;stroke-width:1.0;" x1="116.5" x2="126.5" y1="603.3711" y2="599.3711"/><line style="stroke:#111827;stroke-width:1.0;" x1="116.5" x2="126.5" y1="603.3711" y2="607.3711"/><line style="stroke:#111827;stroke-width:1.0;stroke-dasharray:2.0,2.0;" x1="115.5" x2="490" y1="603.3711" y2="603.3711"/><text fill="#000000" font-family="Arial" font-size="13" font-weight="bold" lengthAdjust="spacing" textLength="7" x="132.5" y="591.1418">6</text><text fill="#000000" font-family="Arial" font-size="13" lengthAdjust="spacing" textLength="282" x="143.5" y="583.6675">Auslieferungs-Medikationsplan-Collection-Bundle</text><text fill="#000000" font-family="Arial" font-size="13" lengthAdjust="spacing" textLength="199" x="143.5" y="598.6162">+ ETag f&#252;r Optimistic Locking</text><line style="stroke:#111827;stroke-width:1.0;" x1="115.5" x2="157.5" y1="639.3198" y2="639.3198"/><line style="stroke:#111827;stroke-width:1.0;" x1="157.5" x2="157.5" y1="639.3198" y2="652.3198"/><line style="stroke:#111827;stroke-width:1.0;" x1="116.5" x2="157.5" y1="652.3198" y2="652.3198"/><polygon fill="#111827" points="126.5,648.3198,116.5,652.3198,126.5,656.3198,122.5,652.3198" style="stroke:#111827;stroke-width:1.0;"/><text fill="#000000" font-family="Arial" font-size="13" font-weight="bold" lengthAdjust="spacing" textLength="7" x="122.5" y="634.5649">7</text><text fill="#000000" font-family="Arial" font-size="13" lengthAdjust="spacing" textLength="216" x="133.5" y="634.5649">Eintr&#228;ge hinzuf&#252;gen/&#228;ndern/entfernen</text><path d="M12,670.3198 L12,718.3198 A5,5 0 0 0 17,723.3198 L200,723.3198 A5,5 0 0 0 205,718.3198 L205,675.3198 L195,665.3198 L17,665.3198 A5,5 0 0 0 12,670.3198 " fill="url(#g1pnsgxojgh7x00)" filter="url(#f1pnsgxojgh7x0)" style="stroke:#8B95A5;stroke-width:1.0;"/><path d="M195,665.3198 L195,672.8198 A2.5,2.5 0 0 0 197.5,675.3198 L205,675.3198 L195,665.3198 " fill="url(#g1pnsgxojgh7x00)" style="stroke:#8B95A5;stroke-width:1.0;"/><text fill="#111827" font-family="Arial" font-size="14" lengthAdjust="spacing" textLength="166" x="18" y="683.4517">Nach der Bearbeitung des</text><text fill="#111827" font-family="Arial" font-size="14" lengthAdjust="spacing" textLength="168" x="18" y="699.5503">Medikationsplans kann ein</text><text fill="#111827" font-family="Arial" font-size="14" lengthAdjust="spacing" textLength="126" x="18" y="715.6489">Plan-Write erfolgen.</text><!--SRC=[bLNDRjD04BxlKunIRc2eKqBJIa5AIWf8fKIqY4ibjBR7oIhER5Yl-mTSUG2UWSVWrZVXIPZT_AtZS61ziNTclldcczcrLRP061MIeWyeCo7AgQAvD786YJOPcXDTQ0Dx-tw5LfbEnqPNb2qzyevx0ezo8ZDzesWCkInA32pBC4De80v1CynbLTXJJVPSpX1QVQDaqThjSQ7k4UBdkurrse4FQOlmLG0CjWl0VUpa-z5U5cT7-C9vX09qawEExAntBoSgdHAM9SIyzo4egClV8vbbhd274h29uxZRFkIzYxKqrbGeleS4tzpDqHIAfa49m-4kXu-K-HTS2XngZrygf7HHwKWQgr8rbsHh9NNysd9ejDMlkbDJu8PvrPoQOILBsmNqZT4tsyBupRgsVcjNnhLXaUk0jrupytcjnZNomjJeEUPjNrqGkKdVhdTce6-32chxktGLYRw5rXKn-Ai-n00js3lA-TmuLMHgsPKDdsEG9RIyIqiWPNpkReDOlp1wXncSodGYwOPzAgQmM8nvyhnxUEYcRhvH6f03Ff_sFVOokhyRtcLkUw049IPO8zTUasllY1v9gv2J-M2P7dIJTV3AvCANxm60a9NLLCqID4BqUi3yr9IzD9Lplef09gRAaQ3N4sAXKVJovQgcOnYzlxY4HyupCkxIufJgMlAvzhv2-3Ekht4fiFW7_1CGCsNvrZ3mbYmpP0Uuhw1C9mPLWkG9Ep2nIR4a8LO2Ho4ly_0xTxsHLGu9bXOdZ81qHLiC6A-mC4L5ZTAljU4cSn1BkIl7qDnZDRPG81fiX7DJN4bdghHFSJQtTtofbrnL3rfSHsbvGZ1hXT1EMA_ICPmvI0CDhiYNot_plB1OS8tzgYmKvcXObZBQ0edum1IOkkzem8UI_qGy4QZiyHKDq1qqZkBt20XllhdX7_CW__dn4ofQVZcZmHatUs7WBd8ogjCAQlnFFbVq68QNadzX3xyDwBbLCvPMyOHW2MSwvJjWp9aoRCu7ySyKO3s-Am93HTOy_1eZJ1JTLumxHdhsyClTvVHiGxynnETy-lsi3b2QX4LoWvOnZUtnBc4gYS0Db_0_zaz6EM8crmNdUhgPwhy0]--></g></svg>