<?xml version="1.0" encoding="us-ascii" standalone="no"?><svg xmlns="http://www.w3.org/2000/svg" xmlns:xlink="http://www.w3.org/1999/xlink" contentStyleType="text/css" height="597px" preserveAspectRatio="none" style="width:644px;height:597px;background:#FFFFFF;" version="1.1" viewBox="0 0 644 597" width="644px" zoomAndPan="magnify"><defs/><g><text fill="#000000" font-family="Arial" font-size="14" font-weight="bold" lengthAdjust="spacing" textLength="251" x="189.5" y="23.1318">REST-Schnittstellen: https://[server]</text><!--cluster Server--><g id="cluster_Server"><rect fill="#E97232" fill-opacity="0.74118" height="148" rx="2" ry="2" style="stroke:#181818;stroke-width:1.0;" width="222" x="416" y="188.5986"/><rect fill="#E97232" fill-opacity="0.74118" height="10" style="stroke:#181818;stroke-width:1.0;" width="15" x="618" y="193.5986"/><rect fill="#E97232" fill-opacity="0.74118" height="2" style="stroke:#181818;stroke-width:1.0;" width="4" x="616" y="195.5986"/><rect fill="#E97232" fill-opacity="0.74118" height="2" style="stroke:#181818;stroke-width:1.0;" width="4" x="616" y="199.5986"/><text fill="#000000" font-family="Arial" font-size="12" font-weight="bold" lengthAdjust="spacing" textLength="30" x="512" y="212.8545">ELGA</text><text fill="#000000" font-family="Arial" font-size="12" font-weight="bold" lengthAdjust="spacing" textLength="73" x="490.5" y="226.6533">e-Medikation</text></g><text fill="#000000" font-family="Arial" font-size="12" lengthAdjust="spacing" textLength="113" x="370" y="353.8545">MedicationDispense</text><text fill="#000000" font-family="Arial" font-size="12" lengthAdjust="spacing" textLength="138" x="357.5" y="367.6533">(Durchgef&#252;hrte Abgaben)</text><rect fill="#F1F1F1" height="12" style="stroke:#181818;stroke-width:1.5;" width="12" x="420.5" y="330.5986"/><text fill="#000000" font-family="Arial" font-size="12" lengthAdjust="spacing" textLength="106" x="369.5" y="217.458">MedicationRequest</text><text fill="#000000" font-family="Arial" font-size="12" lengthAdjust="spacing" textLength="98" x="373.5" y="231.2568">(Planeintr&#228;ge und</text><text fill="#000000" font-family="Arial" font-size="12" lengthAdjust="spacing" textLength="106" x="369.5" y="245.0557">Geplante Abgaben)</text><rect fill="#F1F1F1" height="12" style="stroke:#181818;stroke-width:1.5;" width="12" x="416.5" y="259.5986"/><text fill="#000000" font-family="Arial" font-size="12" lengthAdjust="spacing" textLength="30" x="401" y="186.0557">eMed</text><rect fill="#F1F1F1" height="12" style="stroke:#181818;stroke-width:1.5;" width="12" x="410" y="200.5986"/><!--class IDurchgAbgabe--><g id="elem_IDurchgAbgabe"><rect codeLine="46" fill="#F1F1F1" height="114.9941" id="IDurchgAbgabe" rx="2" ry="2" style="stroke:#181818;stroke-width:0.5;" width="207" x="49.5" y="386.0986"/><ellipse cx="63.5" cy="401.0986" fill="#B4A7E5" rx="10" ry="10" style="stroke:#181818;stroke-width:1.0;"/><path d="M64.7031,399.1924 L64.7031,403.8955 L65.9219,403.8955 Q66.3438,403.8955 66.5313,404.0674 Q66.7188,404.2236 66.7188,404.5049 Q66.7188,404.7705 66.5313,404.9424 Q66.3438,405.0986 65.9219,405.0986 L62.2813,405.0986 Q61.8594,405.0986 61.6719,404.9424 Q61.4844,404.7705 61.4844,404.4893 Q61.4844,404.2236 61.6719,404.0674 Q61.8594,403.8955 62.2813,403.8955 L63.5,403.8955 L63.5,399.1924 L62.2813,399.1924 Q61.8594,399.1924 61.6719,399.0361 Q61.4844,398.8643 61.4844,398.5986 Q61.4844,398.3174 61.6719,398.1611 Q61.8594,397.9893 62.2813,397.9893 L65.9219,397.9893 Q66.3438,397.9893 66.5313,398.1611 Q66.7188,398.3174 66.7188,398.5986 Q66.7188,398.8643 66.5313,399.0361 Q66.3438,399.1924 65.9219,399.1924 L64.7031,399.1924 Z " fill="#000000"/><text fill="#000000" font-family="Arial" font-size="12" font-style="italic" lengthAdjust="spacing" textLength="177" x="76.5" y="405.4551">/Patient/[id]/MedicationDispense/</text><line style="stroke:#181818;stroke-width:0.5;" x1="50.5" x2="255.5" y1="416.0986" y2="416.0986"/><text fill="#000000" font-family="Arial" font-size="12" lengthAdjust="spacing" textLength="172" x="55.5" y="431.3545">&#171;POST&#187; $dispense-write [GDA]</text><text fill="#000000" font-family="Arial" font-size="12" lengthAdjust="spacing" textLength="187" x="55.5" y="445.1533">&#171;POST&#187; $dispense-discard [GDA]</text><text fill="#000000" font-family="Arial" font-size="12" lengthAdjust="spacing" textLength="170" x="55.5" y="458.9521">&#171;POST&#187; $reference-plan [GDA]</text><line style="stroke:#181818;stroke-width:0.5;" x1="50.5" x2="255.5" y1="465.4951" y2="465.4951"/><text fill="#000000" font-family="Arial" font-size="12" lengthAdjust="spacing" textLength="192" x="55.5" y="480.751">&#171;GET&#187; (dispense-read) [GDA, PAT]</text><text fill="#000000" font-family="Arial" font-size="12" lengthAdjust="spacing" textLength="137" x="55.5" y="494.5498">&#171;DELETE&#187; (delete) [PAT]</text></g><!--class IMedicationRequest--><g id="elem_IMedicationRequest"><rect codeLine="54" fill="#F1F1F1" height="170.1895" id="IMedicationRequest" rx="2" ry="2" style="stroke:#181818;stroke-width:0.5;" width="243" x="31.5" y="180.5986"/><ellipse cx="64.4" cy="195.5986" fill="#B4A7E5" rx="10" ry="10" style="stroke:#181818;stroke-width:1.0;"/><path d="M65.6031,193.6924 L65.6031,198.3955 L66.8219,198.3955 Q67.2438,198.3955 67.4313,198.5674 Q67.6188,198.7236 67.6188,199.0049 Q67.6188,199.2705 67.4313,199.4424 Q67.2438,199.5986 66.8219,199.5986 L63.1813,199.5986 Q62.7594,199.5986 62.5719,199.4424 Q62.3844,199.2705 62.3844,198.9893 Q62.3844,198.7236 62.5719,198.5674 Q62.7594,198.3955 63.1813,198.3955 L64.4,198.3955 L64.4,193.6924 L63.1813,193.6924 Q62.7594,193.6924 62.5719,193.5361 Q62.3844,193.3643 62.3844,193.0986 Q62.3844,192.8174 62.5719,192.6611 Q62.7594,192.4893 63.1813,192.4893 L66.8219,192.4893 Q67.2438,192.4893 67.4313,192.6611 Q67.6188,192.8174 67.6188,193.0986 Q67.6188,193.3643 67.4313,193.5361 Q67.2438,193.6924 66.8219,193.6924 L65.6031,193.6924 Z " fill="#000000"/><text fill="#000000" font-family="Arial" font-size="12" font-style="italic" lengthAdjust="spacing" textLength="171" x="81.6" y="199.9551">/Patient/[id]/MedicationRequest/</text><line style="stroke:#181818;stroke-width:0.5;" x1="32.5" x2="273.5" y1="210.5986" y2="210.5986"/><text fill="#000000" font-family="Arial" font-size="12" lengthAdjust="spacing" textLength="185" x="37.5" y="225.8545">&#171;POST&#187; $prescription-write [GDA]</text><text fill="#000000" font-family="Arial" font-size="12" lengthAdjust="spacing" textLength="200" x="37.5" y="239.6533">&#171;POST&#187; $prescription-discard [GDA]</text><text fill="#000000" font-family="Arial" font-size="12" lengthAdjust="spacing" textLength="171" x="37.5" y="253.4521">&#171;POST&#187; $plan-read [GDA, PAT]</text><text fill="#000000" font-family="Arial" font-size="12" lengthAdjust="spacing" textLength="144" x="37.5" y="267.251">&#171;POST&#187; $plan-write [GDA]</text><text fill="#000000" font-family="Arial" font-size="12" lengthAdjust="spacing" textLength="182" x="37.5" y="281.0498">&#171;POST&#187; $patient-plan-write [PAT]</text><text fill="#000000" font-family="Arial" font-size="12" lengthAdjust="spacing" textLength="149" x="37.5" y="294.8486">&#171;POST&#187; $plan-delete [PAT]</text><text fill="#000000" font-family="Arial" font-size="12" lengthAdjust="spacing" textLength="231" x="37.5" y="308.6475">&#171;GET&#187; ?category=GeplAbgabe [GDA, PAT]</text><text fill="#000000" font-family="Arial" font-size="12" lengthAdjust="spacing" textLength="226" x="37.5" y="322.4463">&#171;GET&#187; ?category=Planeintrag [GDA, PAT]</text><line style="stroke:#181818;stroke-width:0.5;" x1="32.5" x2="273.5" y1="328.9893" y2="328.9893"/><text fill="#000000" font-family="Arial" font-size="12" lengthAdjust="spacing" textLength="137" x="37.5" y="344.2451">&#171;DELETE&#187; (delete) [PAT]</text></g><!--class IEmed--><g id="elem_IEmed"><rect codeLine="67" fill="#F1F1F1" height="101.1953" id="IEmed" rx="2" ry="2" style="stroke:#181818;stroke-width:0.5;" width="292" x="7" y="44.0986"/><ellipse cx="147.5" cy="59.0986" fill="#B4A7E5" rx="10" ry="10" style="stroke:#181818;stroke-width:1.0;"/><path d="M148.7031,57.1924 L148.7031,61.8955 L149.9219,61.8955 Q150.3438,61.8955 150.5313,62.0674 Q150.7188,62.2236 150.7188,62.5049 Q150.7188,62.7705 150.5313,62.9424 Q150.3438,63.0986 149.9219,63.0986 L146.2813,63.0986 Q145.8594,63.0986 145.6719,62.9424 Q145.4844,62.7705 145.4844,62.4893 Q145.4844,62.2236 145.6719,62.0674 Q145.8594,61.8955 146.2813,61.8955 L147.5,61.8955 L147.5,57.1924 L146.2813,57.1924 Q145.8594,57.1924 145.6719,57.0361 Q145.4844,56.8643 145.4844,56.5986 Q145.4844,56.3174 145.6719,56.1611 Q145.8594,55.9893 146.2813,55.9893 L149.9219,55.9893 Q150.3438,55.9893 150.5313,56.1611 Q150.7188,56.3174 150.7188,56.5986 Q150.7188,56.8643 150.5313,57.0361 Q150.3438,57.1924 149.9219,57.1924 L148.7031,57.1924 Z " fill="#000000"/><text fill="#000000" font-family="Arial" font-size="12" font-style="italic" lengthAdjust="spacing" textLength="3" x="166.5" y="63.4551">/</text><line style="stroke:#181818;stroke-width:0.5;" x1="8" x2="298" y1="74.0986" y2="74.0986"/><text fill="#000000" font-family="Arial" font-size="12" lengthAdjust="spacing" textLength="207" x="13" y="89.3545">&#171;POST&#187; $groupidentifier-create [GDA]</text><text fill="#000000" font-family="Arial" font-size="12" lengthAdjust="spacing" textLength="280" x="13" y="103.1533">&#171;POST&#187; $groupidentifier-prescription-search [GDA]</text><text fill="#000000" font-family="Arial" font-size="12" lengthAdjust="spacing" textLength="267" x="13" y="116.9521">&#171;POST&#187; $groupidentifier-dispense-search [GDA]</text><text fill="#000000" font-family="Arial" font-size="12" lengthAdjust="spacing" textLength="211" x="13" y="130.751">&#171;POST&#187; $plan-history-read [GDA, PAT]</text><line style="stroke:#181818;stroke-width:0.5;" x1="8" x2="298" y1="137.2939" y2="137.2939"/></g><!--link IDurchgAbgabe to p3--><g id="link_IDurchgAbgabe_p3"><path codeLine="83" d="M256.83,403.1486 C322.42,377.3486 398.98,347.2286 420.26,338.8586 " fill="none" id="IDurchgAbgabe-p3" style="stroke:#181818;stroke-width:1.0;"/></g><!--link IMedicationRequest to p2--><g id="link_IMedicationRequest_p2"><path codeLine="84" d="M274.67,265.5986 C334.41,265.5986 397.72,265.5986 416.47,265.5986 " fill="none" id="IMedicationRequest-p2" style="stroke:#181818;stroke-width:1.0;"/></g><!--link IEmed to p1--><g id="link_IEmed_p1"><path codeLine="85" d="M271.9,145.1886 C330.26,170.2386 392.01,196.7386 409.89,204.4086 " fill="none" id="IEmed-p1" style="stroke:#181818;stroke-width:1.0;"/></g><rect fill="none" height="58.2959" id="_legend" rx="2" ry="2" style="stroke:#000000;stroke-width:1.0;" width="254" x="364" y="519.0928"/><text fill="#000000" font-family="Arial" font-size="14" font-weight="bold" lengthAdjust="spacing" textLength="184" x="369" y="537.2246">Legende Berechtigungen:</text><text fill="#000000" font-family="Arial" font-size="14" lengthAdjust="spacing" textLength="232" x="369" y="553.3232">[GDA] = Gesundheitsdiensteanbieter</text><text fill="#000000" font-family="Arial" font-size="14" lengthAdjust="spacing" textLength="244" x="369" y="569.4219">[PAT] = PATIENT: ELGA-Teilnehmer:in</text><!--SRC=[ZLRRRjj647qElsBZ5F05fcZBTOeQ20gAecN1acY8J83c0c55ZiY5LqjsTsN7BV8tUUidj4_9ZtLsoIYKB1VXYusPCxCpvypEYd9UtY_PHoPoPvyyPoBbgmp8Ng5rfIuyJzBxJivqiPgl5CYq51g4xgJbqjEhYcRopAiu5Ngrv2v3hxj0XAigoJGex-wiSz8vyOn3UTP3xq6LIt3FFPDkbfMfBcMdml0z1y_NJ7CW6QEvfCib6eP1D9dre-2WHXwFXc_2urReyPpJzFQGl9YM3vJt-0fC6gL15wLAomgU3Q8tipW9awie3gAR4BrpYXMdC5CfvV3iqZ-VzVoHFmd2MHpu8uDOSAfkhUTovCVNQ2ceo6P5oJFaQRQ4Z66i1Lpva_xiAXhrXvF1R1psXvZ2u85AFGUgQr3eJvDUw2VeGUgMIE56aY0QZyD9qefFEHCitGIDXfDXiCOuZhfbeg98bCbPbGApnle1-KCskorlXGpH76gVX5HJaNDenyzBcO4CIbvAykBSVcqlnkUoN8ciGLpQhuLG1StAUwI6B2XNqF8qOLA093-tx1aiw8hhIvo92LtYlFcIKPo1dOYO_GdajBlRsTHqOZ_7UOuk9e04qIYQpa9aQtRf4_82VlsbUzQTPsOy31EssA__Il9wF7All_47Wc2z94uBmRJ6CU8SJGVNE0-AgRI06XzhnWztyK_-SWZfRV6rKGhwztjjka_ENhxilpJcnzqqnbgvEKwVywaj6yE2vOAcO8_TxpsXqwCJJyw3uDoauh3GH9T4ihpGUEtCSB1IE4vz3wTXdBYRN5oGRulX7Lx2Ev0V7ETx6NlU3TKCUV3UiUo3DxRJQpBscQf0AF3s25Las5_9jCZzUKxdTUrV_hw9ukJBF-Idh46wzsQ5a7U3llzXDm3_IQdCTa0aB402Nd7NxAOMO10Q_y4wXGIQ7Lh_CRdnanhK3qTX4beSSD200Elxz4ETJk6F5IZTDFh8ljLj9K6babK6yMJ76w2dkpQzsews6ze0F7b8tOxR1ktEKBFIyjQi_ePzGbxAXrS3g7YZxLObsyWRp0T8ggHv2qh-NmRYR0fHCntYgjmYrzo5YcNO5Lima6wAvEpiVHkuGRZ2JPuMFn2rdged8onz1LFuRZriAqNCVEqJrtL9_3k-L-FhQ7mJJV1L2Cd1M_mpnQTfIk9m-YQS7XgSutnVEtlXQE2_5-2QWRkr0sTfYUqTjRnKfKJSuolvNXpKrn5m7HOI2Qgr4uSsGtMs8xOPPWnTA_ZrSmvcTxuNHdxyHR2TfxlE0vYejfsQfftgZBYhojrS2qxLRQoFZdMgqyPbH7VC6ii1jxRTOdZAqT786e3qS0saXMRvIg3XukW8lLOMyeeCG66v1J2jCfnyt6zKp1aEcZGWAyaheymGkRyWXbyt0SO554kG5qmuviZwv6_2-TFWQfY4rydhgJk9aY7ALWkrJqIfpGRNkboISj7eWdPJBRuefDiv8S5QphY258UgxXghDhYtOEu91qNQAYitVi3Ib-IMLWgu9XL8VAdmBgEIDWwNFg_NEkbXmoR1mLtdb7ZahjCzjCzT8gbGT0FJmLZJeAbxNN_zJ63vmnhLr3y5fKgK3WG-f2ZyHttHr1mANNpzZ5Kzql3O-fiTYZT0ckED7-J6qVy1]--></g></svg>