<?xml version="1.0" encoding="us-ascii" standalone="no"?><svg xmlns="http://www.w3.org/2000/svg" xmlns:xlink="http://www.w3.org/1999/xlink" contentStyleType="text/css" height="1014px" preserveAspectRatio="none" style="width:880px;height:1014px;background:#F5F5F5;" version="1.1" viewBox="0 0 880 1014" width="880px" zoomAndPan="magnify"><defs><linearGradient id="g1235dnqmjfot60" x1="50%" x2="50%" y1="0%" y2="100%"><stop offset="0%" stop-color="#E0E5F0"/><stop offset="100%" stop-color="#D1D9E6"/></linearGradient></defs><g><rect fill="#F5F5F5" height="1014" style="stroke:none;stroke-width:1.0;" width="880" x="0" y="0"/><text fill="#000000" font-family="Arial" font-size="14" font-weight="bold" lengthAdjust="spacing" textLength="113" x="379.5" y="28.1318">Plan-Write-Error</text><rect fill="#156082" fill-opacity="0.50196" height="670.1699" style="stroke:#181818;stroke-width:1.0;" width="10" x="135" y="193.2446"/><rect fill="#E97232" fill-opacity="0.74118" height="28.9487" style="stroke:#181818;stroke-width:1.0;" width="10" x="480" y="193.2446"/><rect fill="#E97232" fill-opacity="0.74118" height="28.9487" style="stroke:#181818;stroke-width:1.0;" width="10" x="480" y="347.438"/><rect fill="#E97232" fill-opacity="0.74118" height="85.8462" style="stroke:#181818;stroke-width:1.0;" width="10" x="480" y="516.5801"/><rect fill="#E97232" fill-opacity="0.74118" height="151.8423" style="stroke:#181818;stroke-width:1.0;" width="10" x="480" y="711.5723"/><rect fill="#96607D" fill-opacity="0.50196" height="254.9883" style="stroke:#181818;stroke-width:1.0;" width="10" x="728" y="347.438"/><line style="stroke:#181818;stroke-width:0.5;stroke-dasharray:5.0,5.0;" x1="140" x2="140" y1="118.1973" y2="933.6118"/><line style="stroke:#181818;stroke-width:0.5;stroke-dasharray:5.0,5.0;" x1="485" x2="485" y1="118.1973" y2="933.6118"/><line style="stroke:#181818;stroke-width:0.5;stroke-dasharray:5.0,5.0;" x1="733" x2="733" y1="118.1973" y2="933.6118"/><text fill="#000000" font-family="Arial" font-size="14" lengthAdjust="spacing" textLength="42" x="116" y="115.2305">GDA 1</text><ellipse cx="140" cy="50.5986" fill="#156082" fill-opacity="0.50196" rx="8" ry="8" style="stroke:#181818;stroke-width:0.5;"/><path d="M140,58.5986 L140,85.5986 M127,66.5986 L153,66.5986 M140,85.5986 L127,100.5986 M140,85.5986 L153,100.5986 " fill="none" style="stroke:#181818;stroke-width:0.5;"/><text fill="#000000" font-family="Arial" font-size="14" lengthAdjust="spacing" textLength="42" x="116" y="945.7437">GDA 1</text><ellipse cx="140" cy="957.2104" fill="#156082" fill-opacity="0.50196" rx="8" ry="8" style="stroke:#181818;stroke-width:0.5;"/><path d="M140,965.2104 L140,992.2104 M127,973.2104 L153,973.2104 M140,992.2104 L127,1007.2104 M140,992.2104 L153,1007.2104 " fill="none" style="stroke:#181818;stroke-width:0.5;"/><rect fill="#E97232" fill-opacity="0.74118" height="30.0986" rx="5" ry="5" style="stroke:#555555;stroke-width:0.5;" width="76" x="447" y="87.0986"/><text fill="#000000" font-family="Arial" font-size="14" lengthAdjust="spacing" textLength="62" x="454" y="107.2305">e-Med FA</text><rect fill="#E97232" fill-opacity="0.74118" height="30.0986" rx="5" ry="5" style="stroke:#555555;stroke-width:0.5;" width="76" x="447" y="932.6118"/><text fill="#000000" font-family="Arial" font-size="14" lengthAdjust="spacing" textLength="62" x="454" y="952.7437">e-Med FA</text><text fill="#000000" font-family="Arial" font-size="14" lengthAdjust="spacing" textLength="42" x="709" y="115.2305">GDA 2</text><ellipse cx="733" cy="50.5986" fill="#96607D" fill-opacity="0.50196" rx="8" ry="8" style="stroke:#181818;stroke-width:0.5;"/><path d="M733,58.5986 L733,85.5986 M720,66.5986 L746,66.5986 M733,85.5986 L720,100.5986 M733,85.5986 L746,100.5986 " fill="none" style="stroke:#181818;stroke-width:0.5;"/><text fill="#000000" font-family="Arial" font-size="14" lengthAdjust="spacing" textLength="42" x="709" y="945.7437">GDA 2</text><ellipse cx="733" cy="957.2104" fill="#96607D" fill-opacity="0.50196" rx="8" ry="8" style="stroke:#181818;stroke-width:0.5;"/><path d="M733,965.2104 L733,992.2104 M720,973.2104 L746,973.2104 M733,992.2104 L720,1007.2104 M733,992.2104 L746,1007.2104 " fill="none" style="stroke:#181818;stroke-width:0.5;"/><rect fill="#156082" fill-opacity="0.50196" height="670.1699" style="stroke:#181818;stroke-width:1.0;" width="10" x="135" y="193.2446"/><rect fill="#E97232" fill-opacity="0.74118" height="28.9487" style="stroke:#181818;stroke-width:1.0;" width="10" x="480" y="193.2446"/><rect fill="#E97232" fill-opacity="0.74118" height="28.9487" style="stroke:#181818;stroke-width:1.0;" width="10" x="480" y="347.438"/><rect fill="#E97232" fill-opacity="0.74118" height="85.8462" style="stroke:#181818;stroke-width:1.0;" width="10" x="480" y="516.5801"/><rect fill="#E97232" fill-opacity="0.74118" height="151.8423" style="stroke:#181818;stroke-width:1.0;" width="10" x="480" y="711.5723"/><rect fill="#96607D" fill-opacity="0.50196" height="254.9883" style="stroke:#181818;stroke-width:1.0;" width="10" x="728" y="347.438"/><rect fill="#EEEEEE" height="3" rx="5" ry="5" style="stroke:#EEEEEE;stroke-width:1.0;" width="873" x="0" y="149.2466"/><line style="stroke:#000000;stroke-width:1.0;" x1="0" x2="873" y1="149.2466" y2="149.2466"/><line style="stroke:#000000;stroke-width:1.0;" x1="0" x2="873" y1="152.2466" y2="152.2466"/><rect fill="#EEEEEE" height="24.0986" rx="5" ry="5" style="stroke:#000000;stroke-width:2.0;" width="180" x="346.5" y="138.1973"/><text fill="#000000" font-family="Arial" font-size="14" font-weight="bold" lengthAdjust="spacing" textLength="162" x="352.5" y="155.3291">Plan-Read durch GDA 1</text><polygon fill="#111827" points="468,189.2446,478,193.2446,468,197.2446,472,193.2446" style="stroke:#111827;stroke-width:1.0;"/><line style="stroke:#111827;stroke-width:1.0;" x1="145" x2="474" y1="193.2446" y2="193.2446"/><text fill="#000000" font-family="Arial" font-size="13" font-weight="bold" lengthAdjust="spacing" textLength="7" x="152" y="188.4897">1</text><text fill="#000000" font-family="Arial" font-size="13" lengthAdjust="spacing" textLength="99" x="163" y="188.4897">POST $plan-read</text><polygon fill="#111827" points="156,218.1934,146,222.1934,156,226.1934,152,222.1934" style="stroke:#111827;stroke-width:1.0;"/><line style="stroke:#111827;stroke-width:1.0;" x1="150" x2="484" y1="222.1934" y2="222.1934"/><text fill="#000000" font-family="Arial" font-size="13" font-weight="bold" lengthAdjust="spacing" textLength="7" x="162" y="217.4385">2</text><text fill="#000000" font-family="Arial" font-size="13" lengthAdjust="spacing" textLength="182" x="173" y="217.4385">Collection Bundle + ETag "123"</text><path d="M5,240.1934 L5,272.1934 A5,5 0 0 0 10,277.1934 L271,277.1934 A5,5 0 0 0 276,272.1934 L276,245.1934 L266,235.1934 L10,235.1934 A5,5 0 0 0 5,240.1934 " fill="url(#g1235dnqmjfot60)" style="stroke:#8B95A5;stroke-width:1.0;"/><path d="M266,235.1934 L266,242.6934 A2.5,2.5 0 0 0 268.5,245.1934 L276,245.1934 L266,235.1934 " fill="url(#g1235dnqmjfot60)" style="stroke:#8B95A5;stroke-width:1.0;"/><text fill="#111827" font-family="Arial" font-size="14" lengthAdjust="spacing" textLength="216" x="11" y="253.3252">GDA 1 bearbeitet Medikationsplan</text><text fill="#111827" font-family="Arial" font-size="14" lengthAdjust="spacing" textLength="250" x="11" y="269.4238">(Eintr&#228;ge hinzuf&#252;gen/&#228;ndern/entfernen)</text><rect fill="#EEEEEE" height="3" rx="5" ry="5" style="stroke:#EEEEEE;stroke-width:1.0;" width="873" x="0" y="303.4399"/><line style="stroke:#000000;stroke-width:1.0;" x1="0" x2="873" y1="303.4399" y2="303.4399"/><line style="stroke:#000000;stroke-width:1.0;" x1="0" x2="873" y1="306.4399" y2="306.4399"/><rect fill="#EEEEEE" height="24.0986" rx="5" ry="5" style="stroke:#000000;stroke-width:2.0;" width="180" x="346.5" y="292.3906"/><text fill="#000000" font-family="Arial" font-size="14" font-weight="bold" lengthAdjust="spacing" textLength="162" x="352.5" y="309.5225">Plan-Read durch GDA 2</text><polygon fill="#111827" points="501,343.438,491,347.438,501,351.438,497,347.438" style="stroke:#111827;stroke-width:1.0;"/><line style="stroke:#111827;stroke-width:1.0;" x1="495" x2="727" y1="347.438" y2="347.438"/><text fill="#000000" font-family="Arial" font-size="13" font-weight="bold" lengthAdjust="spacing" textLength="7" x="507" y="342.6831">3</text><text fill="#000000" font-family="Arial" font-size="13" lengthAdjust="spacing" textLength="99" x="518" y="342.6831">POST $plan-read</text><polygon fill="#111827" points="716,372.3867,726,376.3867,716,380.3867,720,376.3867" style="stroke:#111827;stroke-width:1.0;"/><line style="stroke:#111827;stroke-width:1.0;" x1="485" x2="722" y1="376.3867" y2="376.3867"/><text fill="#000000" font-family="Arial" font-size="13" font-weight="bold" lengthAdjust="spacing" textLength="7" x="492" y="371.6318">4</text><text fill="#000000" font-family="Arial" font-size="13" lengthAdjust="spacing" textLength="182" x="503" y="371.6318">Collection Bundle + ETag "123"</text><path d="M597,394.3867 L597,426.3867 A5,5 0 0 0 602,431.3867 L863,431.3867 A5,5 0 0 0 868,426.3867 L868,399.3867 L858,389.3867 L602,389.3867 A5,5 0 0 0 597,394.3867 " fill="url(#g1235dnqmjfot60)" style="stroke:#8B95A5;stroke-width:1.0;"/><path d="M858,389.3867 L858,396.8867 A2.5,2.5 0 0 0 860.5,399.3867 L868,399.3867 L858,389.3867 " fill="url(#g1235dnqmjfot60)" style="stroke:#8B95A5;stroke-width:1.0;"/><text fill="#111827" font-family="Arial" font-size="14" lengthAdjust="spacing" textLength="216" x="603" y="407.5186">GDA 2 bearbeitet Medikationsplan</text><text fill="#111827" font-family="Arial" font-size="14" lengthAdjust="spacing" textLength="250" x="603" y="423.6172">(Eintr&#228;ge hinzuf&#252;gen/&#228;ndern/entfernen)</text><rect fill="#EEEEEE" height="3" rx="5" ry="5" style="stroke:#EEEEEE;stroke-width:1.0;" width="873" x="0" y="457.6333"/><line style="stroke:#000000;stroke-width:1.0;" x1="0" x2="873" y1="457.6333" y2="457.6333"/><line style="stroke:#000000;stroke-width:1.0;" x1="0" x2="873" y1="460.6333" y2="460.6333"/><rect fill="#EEEEEE" height="24.0986" rx="5" ry="5" style="stroke:#000000;stroke-width:2.0;" width="181" x="346" y="446.584"/><text fill="#000000" font-family="Arial" font-size="14" font-weight="bold" lengthAdjust="spacing" textLength="163" x="352" y="463.7158">Plan-Write durch GDA 2</text><polygon fill="#111827" points="501,512.5801,491,516.5801,501,520.5801,497,516.5801" style="stroke:#111827;stroke-width:1.0;"/><line style="stroke:#111827;stroke-width:1.0;" x1="495" x2="727" y1="516.5801" y2="516.5801"/><text fill="#000000" font-family="Arial" font-size="13" font-weight="bold" lengthAdjust="spacing" textLength="7" x="507" y="504.3508">5</text><text fill="#000000" font-family="Arial" font-size="13" lengthAdjust="spacing" textLength="176" x="518" y="496.8765">POST $plan-write (Transaction</text><text fill="#000000" font-family="Arial" font-size="13" lengthAdjust="spacing" textLength="125" x="518" y="511.8252">Bundle + ETag "123")</text><line style="stroke:#111827;stroke-width:1.0;" x1="490" x2="532" y1="560.4775" y2="560.4775"/><line style="stroke:#111827;stroke-width:1.0;" x1="532" x2="532" y1="560.4775" y2="573.4775"/><line style="stroke:#111827;stroke-width:1.0;" x1="491" x2="532" y1="573.4775" y2="573.4775"/><polygon fill="#111827" points="501,569.4775,491,573.4775,501,577.4775,497,573.4775" style="stroke:#111827;stroke-width:1.0;"/><text fill="#000000" font-family="Arial" font-size="13" font-weight="bold" lengthAdjust="spacing" textLength="7" x="497" y="548.2483">6</text><text fill="#000000" font-family="Arial" font-size="13" lengthAdjust="spacing" textLength="148" x="508" y="540.7739">ETag "123" im Header ==</text><text fill="#000000" font-family="Arial" font-size="13" lengthAdjust="spacing" textLength="185" x="508" y="555.7227">ETag der Fachanwendung "123"</text><polygon fill="#111827" points="721,598.4263,731,602.4263,721,606.4263,725,602.4263" style="stroke:#111827;stroke-width:1.0;"/><line style="stroke:#111827;stroke-width:1.0;stroke-dasharray:2.0,2.0;" x1="485" x2="727" y1="602.4263" y2="602.4263"/><text fill="#000000" font-family="Arial" font-size="13" font-weight="bold" lengthAdjust="spacing" textLength="7" x="492" y="597.6714">7</text><text fill="#000000" font-family="Arial" font-size="13" lengthAdjust="spacing" textLength="19" x="503" y="597.6714">OK</text><path d="M321,620.4263 L321,636.4263 A5,5 0 0 0 326,641.4263 L643,641.4263 A5,5 0 0 0 648,636.4263 L648,625.4263 L638,615.4263 L326,615.4263 A5,5 0 0 0 321,620.4263 " fill="url(#g1235dnqmjfot60)" style="stroke:#8B95A5;stroke-width:1.0;"/><path d="M638,615.4263 L638,622.9263 A2.5,2.5 0 0 0 640.5,625.4263 L648,625.4263 L638,615.4263 " fill="url(#g1235dnqmjfot60)" style="stroke:#8B95A5;stroke-width:1.0;"/><text fill="#111827" font-family="Arial" font-size="14" lengthAdjust="spacing" textLength="306" x="327" y="633.5581">Medikationsplan wurde durch GDA 2 aktualisiert.</text><rect fill="#EEEEEE" height="3" rx="5" ry="5" style="stroke:#EEEEEE;stroke-width:1.0;" width="873" x="0" y="667.5742"/><line style="stroke:#000000;stroke-width:1.0;" x1="0" x2="873" y1="667.5742" y2="667.5742"/><line style="stroke:#000000;stroke-width:1.0;" x1="0" x2="873" y1="670.5742" y2="670.5742"/><rect fill="#EEEEEE" height="24.0986" rx="5" ry="5" style="stroke:#000000;stroke-width:2.0;" width="201" x="336" y="656.5249"/><text fill="#000000" font-family="Arial" font-size="14" font-weight="bold" lengthAdjust="spacing" textLength="183" x="342" y="673.6567">Plan-Write-Error f&#252;r GDA 1</text><polygon fill="#111827" points="468,707.5723,478,711.5723,468,715.5723,472,711.5723" style="stroke:#111827;stroke-width:1.0;"/><line style="stroke:#111827;stroke-width:1.0;" x1="145" x2="474" y1="711.5723" y2="711.5723"/><text fill="#000000" font-family="Arial" font-size="13" font-weight="bold" lengthAdjust="spacing" textLength="7" x="152" y="706.8174">8</text><text fill="#000000" font-family="Arial" font-size="13" lengthAdjust="spacing" textLength="305" x="163" y="706.8174">POST $plan-write (Transaction Bundle + ETag "123")</text><line style="stroke:#111827;stroke-width:1.0;" x1="490" x2="532" y1="785.3672" y2="785.3672"/><line style="stroke:#111827;stroke-width:1.0;" x1="532" x2="532" y1="785.3672" y2="798.3672"/><line style="stroke:#111827;stroke-width:1.0;" x1="491" x2="532" y1="798.3672" y2="798.3672"/><polygon fill="#111827" points="501,794.3672,491,798.3672,501,802.3672,497,798.3672" style="stroke:#111827;stroke-width:1.0;"/><text fill="#000000" font-family="Arial" font-size="13" font-weight="bold" lengthAdjust="spacing" textLength="7" x="497" y="758.1892">9</text><text fill="#000000" font-family="Arial" font-size="13" lengthAdjust="spacing" textLength="204" x="508" y="735.7661">ETag im Header "123" stimmt nicht</text><text fill="#000000" font-family="Arial" font-size="13" lengthAdjust="spacing" textLength="172" x="508" y="750.7148">mit ETag der Fachanwendung</text><text fill="#000000" font-family="Arial" font-size="13" lengthAdjust="spacing" textLength="213" x="508" y="765.6636">&#252;berein, da er bereits zum Schreiben</text><text fill="#000000" font-family="Arial" font-size="13" lengthAdjust="spacing" textLength="95" x="508" y="780.6123">verwendet wurde</text><path d="M360,816.3672 L360,832.3672 A5,5 0 0 0 365,837.3672 L604,837.3672 A5,5 0 0 0 609,832.3672 L609,821.3672 L599,811.3672 L365,811.3672 A5,5 0 0 0 360,816.3672 " fill="url(#g1235dnqmjfot60)" style="stroke:#8B95A5;stroke-width:1.0;"/><path d="M599,811.3672 L599,818.8672 A2.5,2.5 0 0 0 601.5,821.3672 L609,821.3672 L599,811.3672 " fill="url(#g1235dnqmjfot60)" style="stroke:#8B95A5;stroke-width:1.0;"/><text fill="#111827" font-family="Arial" font-size="14" lengthAdjust="spacing" textLength="228" x="366" y="829.499">Fachanwendung lehnt Speichern ab</text><polygon fill="#111827" points="151,859.4146,141,863.4146,151,867.4146,147,863.4146" style="stroke:#111827;stroke-width:1.0;"/><line style="stroke:#111827;stroke-width:1.0;stroke-dasharray:2.0,2.0;" x1="145" x2="484" y1="863.4146" y2="863.4146"/><text fill="#000000" font-family="Arial" font-size="13" font-weight="bold" lengthAdjust="spacing" textLength="14" x="157" y="858.6597">10</text><text fill="#000000" font-family="Arial" font-size="13" lengthAdjust="spacing" textLength="91" x="175" y="858.6597">Fehler (Konflikt)</text><path d="M101,881.4146 L101,913.4146 A5,5 0 0 0 106,918.4146 L518,918.4146 A5,5 0 0 0 523,913.4146 L523,886.4146 L513,876.4146 L106,876.4146 A5,5 0 0 0 101,881.4146 " fill="url(#g1235dnqmjfot60)" style="stroke:#8B95A5;stroke-width:1.0;"/><path d="M513,876.4146 L513,883.9146 A2.5,2.5 0 0 0 515.5,886.4146 L523,886.4146 L513,876.4146 " fill="url(#g1235dnqmjfot60)" style="stroke:#8B95A5;stroke-width:1.0;"/><text fill="#111827" font-family="Arial" font-size="14" lengthAdjust="spacing" textLength="317" x="147" y="894.5464">Speichern des Medikationsplans wurde abgelehnt,</text><text fill="#111827" font-family="Arial" font-size="14" lengthAdjust="spacing" textLength="313" x="147" y="910.645">der GDA 1 muss ein neues Plan-Read ausf&#252;hren.</text><!--SRC=[jLRlZjf64F_kfvX2fTwfHuEN0ET8L8ASIQiq0G5LfUgaqs8FiCAiwNeTcglwDdcCVBiNwtWDU6sSDf7IvGFUdT_y-ytis5he264QSTdwJGcDBL-fM3dETybMo3rNV0SyqB6Qw_U4umTCuXqwJY5TnYf4zJAEOWNDjbcsb0VRjOfJ6HuHgsxsin39XeVnGSWrh7YKe2KvgYc92bpRQ8WhdaPw74lzbkyG6aCbUDIeHyp58uBxl5xugR1_Uhz75GcvjG2-NmVuLORc0I_27yL_JdaOPfcnTlbyP7FMDSkcLCOQuIy7O5Hb3zlONRLRpT0DFUnb2DlIxTBhykxvTB4HmLPYae1BPpEBpJRjJx5bLYmgNDUzPNqwcrVgyhSTOO9_f2Y3FCefLre4Oi-bhaki3BZe1xFAeClAN8XFLIq9BBe1XjJ7XsfIvh3CYpcgytWMvBuwTFIA8j-NSZnRpaKNzS8LCzbPceLxbf7w3RLZrZul9xzCPW-lxeOFBj1gkjrU-vRTjci0p02yNg_Tlxi0J8UBd_stYyo2rnknvnU0uNG2PZNROy-_wtfLWF_6ltiO3mc0Nfzrs3Ai0Xvc_k_-T07D8EpqEunxrJGchw7aWtMh9cQpoSm0VA_lTbY7Be2PCv0pm1Deq1Eu3PiOPryK6_0DXbcO6HHRj87ni55EmJB9pYQPRPAHsrJ7CjqjKJdW30RvB9mX3o5CLR014mOC1ewJXzRwyUJw1KmdymLykyyq56ba_iGxJhStXzgX5x9JuELGJwTatYYy0EgX24afbZ2YbgBn-ptu2xw6Xiiw3IV4gaN7CPCZVeT76fqyzYLojKGQxXe8ABOyivbaKJjNlf1QFNrO8so4V4nNJn_NA9yzVSZ6cdo6Kg_e7-MrWp8qWydv54Vip17xV8vOfHR_pb6L9FOLI69E7lp_H99vgNuPImUZShLGN2RSf7OlQtAx_fAMElifz47GQumAGZmC1lVI2BBDc0SRBW-KIYfFD9uj5SJJ5RVPFHQmuFP4TuLCEAGq14k4yArEUIGIWKh_O55OLxiIhVct2b0vrEVUqajkuUjIMv2QavneiTjfa2BOw7kv4nhgYRwNJnzf1A6GDn1o8B7PwGGUqntCWmrjbaYTGDncAjIcXiaQnii5Z713mtA-Hug0kXJuig2uMbOQEcFSH6JhwdKiLv7OwkjgaTrBZpT7GU4anAHwYv9ZvVboZIQccwn_JeNRfVG-fEH1OagwnNpXQKBrfUpbVxJ6Fm00]--></g></svg>