<?xml version="1.0" encoding="us-ascii" standalone="no"?><svg xmlns="http://www.w3.org/2000/svg" xmlns:xlink="http://www.w3.org/1999/xlink" contentStyleType="text/css" height="695px" preserveAspectRatio="none" style="width:536px;height:695px;background:#FFFFFF;" version="1.1" viewBox="0 0 536 695" width="536px" zoomAndPan="magnify"><defs/><g><!--cluster Server--><g id="cluster_Server"><rect fill="#E97232" fill-opacity="0.74118" height="290" rx="2" ry="2" style="stroke:#181818;stroke-width:1.0;" width="198" x="332" y="135"/><rect fill="#E97232" fill-opacity="0.74118" height="10" style="stroke:#181818;stroke-width:1.0;" width="15" x="510" y="140"/><rect fill="#E97232" fill-opacity="0.74118" height="2" style="stroke:#181818;stroke-width:1.0;" width="4" x="508" y="142"/><rect fill="#E97232" fill-opacity="0.74118" height="2" style="stroke:#181818;stroke-width:1.0;" width="4" x="508" y="146"/><text fill="#000000" font-family="Arial" font-size="12" font-weight="bold" lengthAdjust="spacing" textLength="30" x="416" y="159.2559">ELGA</text><text fill="#000000" font-family="Arial" font-size="12" font-weight="bold" lengthAdjust="spacing" textLength="73" x="394.5" y="173.0547">e-Medikation</text></g><text fill="#000000" font-family="Arial" font-size="12" lengthAdjust="spacing" textLength="78" x="296" y="442.2559">Durchgef&#252;hrte</text><text fill="#000000" font-family="Arial" font-size="12" lengthAdjust="spacing" textLength="49" x="310.5" y="456.0547">Abgaben</text><rect fill="#F1F1F1" height="12" style="stroke:#181818;stroke-width:1.5;" width="12" x="329" y="419"/><text fill="#000000" font-family="Arial" font-size="12" lengthAdjust="spacing" textLength="50" x="307" y="371.2559">Geplante</text><text fill="#000000" font-family="Arial" font-size="12" lengthAdjust="spacing" textLength="49" x="307.5" y="385.0547">Abgaben</text><rect fill="#F1F1F1" height="12" style="stroke:#181818;stroke-width:1.5;" width="12" x="326" y="348"/><text fill="#000000" font-family="Arial" font-size="12" lengthAdjust="spacing" textLength="29" x="317.5" y="248.6582">Plan-</text><text fill="#000000" font-family="Arial" font-size="12" lengthAdjust="spacing" textLength="45" x="309.5" y="262.457">eintr&#228;ge</text><rect fill="#F1F1F1" height="12" style="stroke:#181818;stroke-width:1.5;" width="12" x="326" y="277"/><text fill="#000000" font-family="Arial" font-size="12" lengthAdjust="spacing" textLength="90" x="291.5" y="191.457">Medikationsplan</text><rect fill="#F1F1F1" height="12" style="stroke:#181818;stroke-width:1.5;" width="12" x="330.5" y="206"/><text fill="#000000" font-family="Arial" font-size="12" lengthAdjust="spacing" textLength="30" x="317" y="132.457">eMed</text><rect fill="#F1F1F1" height="12" style="stroke:#181818;stroke-width:1.5;" width="12" x="326" y="147"/><!--class IDurchgAbgabe--><g id="elem_IDurchgAbgabe"><rect codeLine="46" fill="#F1F1F1" height="114.9941" id="IDurchgAbgabe" rx="2" ry="2" style="stroke:#181818;stroke-width:0.5;" width="232" x="7" y="484.5"/><ellipse cx="21" cy="499.5" fill="#B4A7E5" rx="10" ry="10" style="stroke:#181818;stroke-width:1.0;"/><path d="M22.2031,497.5938 L22.2031,502.2969 L23.4219,502.2969 Q23.8438,502.2969 24.0313,502.4688 Q24.2188,502.625 24.2188,502.9063 Q24.2188,503.1719 24.0313,503.3438 Q23.8438,503.5 23.4219,503.5 L19.7813,503.5 Q19.3594,503.5 19.1719,503.3438 Q18.9844,503.1719 18.9844,502.8906 Q18.9844,502.625 19.1719,502.4688 Q19.3594,502.2969 19.7813,502.2969 L21,502.2969 L21,497.5938 L19.7813,497.5938 Q19.3594,497.5938 19.1719,497.4375 Q18.9844,497.2656 18.9844,497 Q18.9844,496.7188 19.1719,496.5625 Q19.3594,496.3906 19.7813,496.3906 L23.4219,496.3906 Q23.8438,496.3906 24.0313,496.5625 Q24.2188,496.7188 24.2188,497 Q24.2188,497.2656 24.0313,497.4375 Q23.8438,497.5938 23.4219,497.5938 L22.2031,497.5938 Z " fill="#000000"/><text fill="#000000" font-family="Arial" font-size="12" font-style="italic" lengthAdjust="spacing" textLength="202" x="34" y="503.8564">DurchgAbgabe/MedicationDispense/</text><line style="stroke:#181818;stroke-width:0.5;" x1="8" x2="238" y1="514.5" y2="514.5"/><text fill="#000000" font-family="Arial" font-size="12" lengthAdjust="spacing" textLength="172" x="13" y="529.7559">&#171;POST&#187; $dispense-write [GDA]</text><text fill="#000000" font-family="Arial" font-size="12" lengthAdjust="spacing" textLength="187" x="13" y="543.5547">&#171;POST&#187; $dispense-discard [GDA]</text><text fill="#000000" font-family="Arial" font-size="12" lengthAdjust="spacing" textLength="170" x="13" y="557.3535">&#171;POST&#187; $reference-plan [GDA]</text><line style="stroke:#181818;stroke-width:0.5;" x1="8" x2="238" y1="563.8965" y2="563.8965"/><text fill="#000000" font-family="Arial" font-size="12" lengthAdjust="spacing" textLength="205" x="13" y="579.1523">&#171;GET&#187; (dispense-search) [GDA, PAT]</text><text fill="#000000" font-family="Arial" font-size="12" lengthAdjust="spacing" textLength="137" x="13" y="592.9512">&#171;DELETE&#187; (delete) [PAT]</text></g><!--class IGeplAbgabe--><g id="elem_IGeplAbgabe"><rect codeLine="54" fill="#F1F1F1" height="101.1953" id="IGeplAbgabe" rx="2" ry="2" style="stroke:#181818;stroke-width:0.5;" width="230" x="8" y="348.5"/><ellipse cx="30.1" cy="363.5" fill="#B4A7E5" rx="10" ry="10" style="stroke:#181818;stroke-width:1.0;"/><path d="M31.3031,361.5938 L31.3031,366.2969 L32.5219,366.2969 Q32.9438,366.2969 33.1313,366.4688 Q33.3188,366.625 33.3188,366.9063 Q33.3188,367.1719 33.1313,367.3438 Q32.9438,367.5 32.5219,367.5 L28.8813,367.5 Q28.4594,367.5 28.2719,367.3438 Q28.0844,367.1719 28.0844,366.8906 Q28.0844,366.625 28.2719,366.4688 Q28.4594,366.2969 28.8813,366.2969 L30.1,366.2969 L30.1,361.5938 L28.8813,361.5938 Q28.4594,361.5938 28.2719,361.4375 Q28.0844,361.2656 28.0844,361 Q28.0844,360.7188 28.2719,360.5625 Q28.4594,360.3906 28.8813,360.3906 L32.5219,360.3906 Q32.9438,360.3906 33.1313,360.5625 Q33.3188,360.7188 33.3188,361 Q33.3188,361.2656 33.1313,361.4375 Q32.9438,361.5938 32.5219,361.5938 L31.3031,361.5938 Z " fill="#000000"/><text fill="#000000" font-family="Arial" font-size="12" font-style="italic" lengthAdjust="spacing" textLength="182" x="44.9" y="367.8564">GeplAbgabe/MedicationRequest/</text><line style="stroke:#181818;stroke-width:0.5;" x1="9" x2="237" y1="378.5" y2="378.5"/><text fill="#000000" font-family="Arial" font-size="12" lengthAdjust="spacing" textLength="185" x="14" y="393.7559">&#171;POST&#187; $prescription-write [GDA]</text><text fill="#000000" font-family="Arial" font-size="12" lengthAdjust="spacing" textLength="200" x="14" y="407.5547">&#171;POST&#187; $prescription-discard [GDA]</text><line style="stroke:#181818;stroke-width:0.5;" x1="9" x2="237" y1="414.0977" y2="414.0977"/><text fill="#000000" font-family="Arial" font-size="12" lengthAdjust="spacing" textLength="218" x="14" y="429.3535">&#171;GET&#187; (prescription-search) [GDA, PAT]</text><text fill="#000000" font-family="Arial" font-size="12" lengthAdjust="spacing" textLength="137" x="14" y="443.1523">&#171;DELETE&#187; (delete) [PAT]</text></g><!--class IPlaneintrag--><g id="elem_IPlaneintrag"><rect codeLine="61" fill="#F1F1F1" height="59.7988" id="IPlaneintrag" rx="2" ry="2" style="stroke:#181818;stroke-width:0.5;" width="219" x="13.5" y="253"/><ellipse cx="34.25" cy="268" fill="#B4A7E5" rx="10" ry="10" style="stroke:#181818;stroke-width:1.0;"/><path d="M35.4531,266.0938 L35.4531,270.7969 L36.6719,270.7969 Q37.0938,270.7969 37.2813,270.9688 Q37.4688,271.125 37.4688,271.4063 Q37.4688,271.6719 37.2813,271.8438 Q37.0938,272 36.6719,272 L33.0313,272 Q32.6094,272 32.4219,271.8438 Q32.2344,271.6719 32.2344,271.3906 Q32.2344,271.125 32.4219,270.9688 Q32.6094,270.7969 33.0313,270.7969 L34.25,270.7969 L34.25,266.0938 L33.0313,266.0938 Q32.6094,266.0938 32.4219,265.9375 Q32.2344,265.7656 32.2344,265.5 Q32.2344,265.2188 32.4219,265.0625 Q32.6094,264.8906 33.0313,264.8906 L36.6719,264.8906 Q37.0938,264.8906 37.2813,265.0625 Q37.4688,265.2188 37.4688,265.5 Q37.4688,265.7656 37.2813,265.9375 Q37.0938,266.0938 36.6719,266.0938 L35.4531,266.0938 Z " fill="#000000"/><text fill="#000000" font-family="Arial" font-size="12" font-style="italic" lengthAdjust="spacing" textLength="174" x="48.75" y="272.3564">eMPEintrag/MedicationRequest/</text><line style="stroke:#181818;stroke-width:0.5;" x1="14.5" x2="231.5" y1="283" y2="283"/><line style="stroke:#181818;stroke-width:0.5;" x1="14.5" x2="231.5" y1="291" y2="291"/><text fill="#000000" font-family="Arial" font-size="12" lengthAdjust="spacing" textLength="207" x="19.5" y="306.2559">&#171;GET&#187; (plan-entry-search) [GDA, PAT]</text></g><!--class IBundle--><g id="elem_IBundle"><rect codeLine="65" fill="#F1F1F1" height="114.9941" id="IBundle" rx="2" ry="2" style="stroke:#181818;stroke-width:0.5;" width="229" x="8.5" y="102.5"/><ellipse cx="84.5" cy="117.5" fill="#B4A7E5" rx="10" ry="10" style="stroke:#181818;stroke-width:1.0;"/><path d="M85.7031,115.5938 L85.7031,120.2969 L86.9219,120.2969 Q87.3438,120.2969 87.5313,120.4688 Q87.7188,120.625 87.7188,120.9063 Q87.7188,121.1719 87.5313,121.3438 Q87.3438,121.5 86.9219,121.5 L83.2813,121.5 Q82.8594,121.5 82.6719,121.3438 Q82.4844,121.1719 82.4844,120.8906 Q82.4844,120.625 82.6719,120.4688 Q82.8594,120.2969 83.2813,120.2969 L84.5,120.2969 L84.5,115.5938 L83.2813,115.5938 Q82.8594,115.5938 82.6719,115.4375 Q82.4844,115.2656 82.4844,115 Q82.4844,114.7188 82.6719,114.5625 Q82.8594,114.3906 83.2813,114.3906 L86.9219,114.3906 Q87.3438,114.3906 87.5313,114.5625 Q87.7188,114.7188 87.7188,115 Q87.7188,115.2656 87.5313,115.4375 Q87.3438,115.5938 86.9219,115.5938 L85.7031,115.5938 Z " fill="#000000"/><text fill="#000000" font-family="Arial" font-size="12" font-style="italic" lengthAdjust="spacing" textLength="69" x="103.5" y="121.8564">eMP/Bundle/</text><line style="stroke:#181818;stroke-width:0.5;" x1="9.5" x2="236.5" y1="132.5" y2="132.5"/><text fill="#000000" font-family="Arial" font-size="12" lengthAdjust="spacing" textLength="171" x="14.5" y="147.7559">&#171;POST&#187; $plan-read [GDA, PAT]</text><text fill="#000000" font-family="Arial" font-size="12" lengthAdjust="spacing" textLength="144" x="14.5" y="161.5547">&#171;POST&#187; $plan-write [GDA]</text><text fill="#000000" font-family="Arial" font-size="12" lengthAdjust="spacing" textLength="182" x="14.5" y="175.3535">&#171;POST&#187; $patient-plan-write [PAT]</text><text fill="#000000" font-family="Arial" font-size="12" lengthAdjust="spacing" textLength="149" x="14.5" y="189.1523">&#171;POST&#187; $plan-delete [PAT]</text><line style="stroke:#181818;stroke-width:0.5;" x1="9.5" x2="236.5" y1="195.6953" y2="195.6953"/><text fill="#000000" font-family="Arial" font-size="12" lengthAdjust="spacing" textLength="217" x="14.5" y="210.9512">&#171;GET&#187; (plan-history-search) [GDA, PAT]</text></g><!--class IEmed--><g id="elem_IEmed"><rect codeLine="73" fill="#F1F1F1" height="59.7988" id="IEmed" rx="2" ry="2" style="stroke:#181818;stroke-width:0.5;" width="219" x="13.5" y="7"/><ellipse cx="117.5" cy="22" fill="#B4A7E5" rx="10" ry="10" style="stroke:#181818;stroke-width:1.0;"/><path d="M118.7031,20.0938 L118.7031,24.7969 L119.9219,24.7969 Q120.3438,24.7969 120.5313,24.9688 Q120.7188,25.125 120.7188,25.4063 Q120.7188,25.6719 120.5313,25.8438 Q120.3438,26 119.9219,26 L116.2813,26 Q115.8594,26 115.6719,25.8438 Q115.4844,25.6719 115.4844,25.3906 Q115.4844,25.125 115.6719,24.9688 Q115.8594,24.7969 116.2813,24.7969 L117.5,24.7969 L117.5,20.0938 L116.2813,20.0938 Q115.8594,20.0938 115.6719,19.9375 Q115.4844,19.7656 115.4844,19.5 Q115.4844,19.2188 115.6719,19.0625 Q115.8594,18.8906 116.2813,18.8906 L119.9219,18.8906 Q120.3438,18.8906 120.5313,19.0625 Q120.7188,19.2188 120.7188,19.5 Q120.7188,19.7656 120.5313,19.9375 Q120.3438,20.0938 119.9219,20.0938 L118.7031,20.0938 Z " fill="#000000"/><text fill="#000000" font-family="Arial" font-size="12" font-style="italic" lengthAdjust="spacing" textLength="3" x="136.5" y="26.3564">/</text><line style="stroke:#181818;stroke-width:0.5;" x1="14.5" x2="231.5" y1="37" y2="37"/><text fill="#000000" font-family="Arial" font-size="12" lengthAdjust="spacing" textLength="207" x="19.5" y="52.2559">&#171;POST&#187; $groupidentifier-create [GDA]</text><line style="stroke:#181818;stroke-width:0.5;" x1="14.5" x2="231.5" y1="58.7988" y2="58.7988"/></g><!--link IDurchgAbgabe to p5--><g id="link_IDurchgAbgabe_p5"><path codeLine="89" d="M227.46,484.36 C270.53,460.36 313.94,436.17 328.71,427.95 " fill="none" id="IDurchgAbgabe-p5" style="stroke:#181818;stroke-width:1.0;"/></g><!--link IGeplAbgabe to p4--><g id="link_IGeplAbgabe_p4"><path codeLine="90" d="M238.1,374.2 C276.34,365.88 312.63,357.99 325.79,355.13 " fill="none" id="IGeplAbgabe-p4" style="stroke:#181818;stroke-width:1.0;"/></g><!--link IPlaneintrag to p3--><g id="link_IPlaneintrag_p3"><path codeLine="91" d="M232.65,283 C272.87,283 312.04,283 325.81,283 " fill="none" id="IPlaneintrag-p3" style="stroke:#181818;stroke-width:1.0;"/></g><!--link IBundle to p2--><g id="link_IBundle_p2"><path codeLine="92" d="M237.76,187.9 C277.83,197.73 316.42,207.2 330.45,210.64 " fill="none" id="IBundle-p2" style="stroke:#181818;stroke-width:1.0;"/></g><!--link IEmed to p1--><g id="link_IEmed_p1"><path codeLine="93" d="M203.15,67.06 C215.39,72.56 227.71,78.6 239,85 C274.59,105.19 312.47,136.92 325.92,148.54 " fill="none" id="IEmed-p1" style="stroke:#181818;stroke-width:1.0;"/></g><rect fill="none" height="58.2959" id="_legend" rx="2" ry="2" style="stroke:#000000;stroke-width:1.0;" width="254" x="256" y="617.4941"/><text fill="#000000" font-family="Arial" font-size="14" font-weight="bold" lengthAdjust="spacing" textLength="184" x="261" y="635.626">Legende Berechtigungen:</text><text fill="#000000" font-family="Arial" font-size="14" lengthAdjust="spacing" textLength="232" x="261" y="651.7246">[GDA] = Gesundheitsdiensteanbieter</text><text fill="#000000" font-family="Arial" font-size="14" lengthAdjust="spacing" textLength="244" x="261" y="667.8232">[PAT] = PATIENT: ELGA-Teilnehmer:in</text><!--SRC=[XLRRRjiu47skle9D5iW5aPquTHSRe0-ohJX6V8Ea1jXUOD3Is292Kof99yqkyZTzsq_OFZK_jaDHTkJ4nlebCUTmU6Rcp8mfvzdzWdrdOkuSaBTCn7oP0DbBjSxLHRqkwNrjpdIwd2uLo3WJ6eIknTcYhfSvJUHvFUTKwEM2kmojxWmHhiebqw3gT-UrqzfftHXKlR3GUr3P0jnctRYR95ciCrdByVgUW-zhfZcGXD6vf8i57lJQe-6aCseVMkH9ltVZdrIkdamvZM-Fo7wGFL3UuaimRfG6dMOgpd9uqntTJCB8Zwv6ONiqzj4wfSWuXecAAOStbrvpqlBwth3jJyAsrpU86QVgjh1Szhtm6azIAf99cl44ypHPGCBmRW6uyeQToTMet-aDkvE1t-cX2uC7AlKKgBOWtmkYbkz5QC7KBJ256qxQey707qQL-p5dWiMRe7vls6klCOwZRfd8AIRA-CmpWLv3_O3vmsmsAjOSCqJdO6qIOat5d4Fr_ZIJ2SXsnZD9zfl5fsh5-tEPBKLI8YwBJmMXKffazvWQCgDSGSLINfC297bNEKzWHfTSNw8cXdI1UlCaewY1hOYG_GNahB7TM78wBJwEynPDJ01fZ_gZOE9ZjYQN7Y7xyCVlZVF6D37oC9aeo3xzbEJZeEzUh_87WY1V4iQfO5gZZ3Z7eyDhr8DYAax1uaFD-D6s_9E_7K9QB_ArGGNj1wrgka_Ftx_ll3V7hwCf3stbfgW-vx5QDeQ4vOp6K3nxqDfHfrSldZRRxQPnnM6cYSw8PFDKOziPSR1CO8vi8mP-6BcRoNZwEGMfM9pg2xAQ4P-n7-z0VgqxpZEblSvInkdScyxf5Eg3GiZ6UOUf78I2-XwXYlIgg2ACN_zq_UZNl-GmAO6kmbwAqoFokTlnJiZOYxuMiF4eDBZVrhXxCtGAr0u0_XDJcMo1I9Y111mAhfbc5K37x_kHNz013XgGHK7WSIFKBkJyLQ01V5k2qcMSpv3DA7C9AfOiDpV-Bz8DxAveDq2l8zuP4Dc820PZ7xzAEjyPqHWp1HRp8YGqkDWCyc5RG8yltwctKB5yfGVxPOl3b2cSzzjSaitu3LW2JNPcqG1sPWy3HUfk5RJTWqtVLZcKeVWulSj0LZTDU-OimHVOZ85qOoIwvl5ePfFhkYJy4nVMu7eq68-6k1PySlW9_mIucm8I-i6D7nmPdECypvqzlz_rlWXmJRLkYseL9CAYCmiMUIRrgYi1HrygDNmHLfCMd3VNC2DNNEil0U_M05DzzuiLmDEFELZxELa3deaeuyhQ6sipeDsUdPd0CV80A6SAixB4qOpJwkKKJWnp7590nkX18GJ3Uq3hGf53EvLnIQFQZvoyITnbxcvE5oT_Lvu-zwA3ZErPHSrEtYWFhHYT_ApyRYhgcB4v1zmInTJ4W8wF-yK1a1OE4PoCR8uXWBWuFaPhKLloWNH1eRSKc5OOWq3UL4mPIaWQKA7Z3qQiFIpr1J7bT2DWN42w07d1X6EUj2-lTE85xQjUv5z77mDtE8fwg1AhYmCYCcqsXjRPWcIpKWPuRjXYhaYZTahQQ_M4ESGeIDlboDhWFfaEnXz8YbH5fLoRSd9BSmLSazni0uLDWsegxk6IuNQD49i-hCvTxOpKoLsjSLIirqXIeUW6fePtJO26zvg_NKj8VrK8opy0fJ8iB0XStAZHx_gYvEmBdJxzG5QlPjP9OH_RxiQX8CtpnWvou-d_0000]--></g></svg>