<svg xmlns="http://www.w3.org/2000/svg" xmlns:xlink="http://www.w3.org/1999/xlink" contentStyleType="text/css" data-diagram-type="SEQUENCE" height="533px" preserveAspectRatio="none" style="width:725px;height:533px;background:#F5F5F5;" version="1.1" viewBox="0 0 725 533" width="725px" zoomAndPan="magnify"><?plantuml 1.2026.7beta1?><defs><linearGradient id="gnvx3mlhr6tov0" x1="50%" x2="50%" y1="0%" y2="100%"><stop offset="0%" stop-color="#E0E5F0"/><stop offset="100%" stop-color="#D1D9E6"/></linearGradient><filter height="300%" id="fnvx3mlhr6tov" width="300%" x="-1" y="-1"><feGaussianBlur result="blurOut" stdDeviation="2"/><feColorMatrix in="blurOut" result="blurOut2" type="matrix" values="0 0 0 0 0 0 0 0 0 0 0 0 0 0 0 0 0 0 .4 0"/><feOffset dx="4" dy="4" in="blurOut2" result="blurOut3"/><feBlend in="SourceGraphic" in2="blurOut3" mode="normal"/></filter></defs><g><rect fill="#F5F5F5" height="533" style="stroke:none;stroke-width:1;" width="725" x="0" y="0"/><g class="title" data-source-line="1"><text fill="#000000" font-family="'Arial'" font-size="14" font-weight="700" lengthAdjust="spacing" textLength="143.0283" x="287.7417" y="27.9951">Plan-History-Read</text></g><g><title>GDA 1</title><rect fill="#3588A7" fill-opacity="0.29804" height="160.4219" style="stroke:#181818;stroke-width:1;" width="10" x="114.2817" y="194.0234"/></g><g><title>e-Med FA</title><rect fill="#A14C37" fill-opacity="0.47059" height="160.4219" style="stroke:#181818;stroke-width:1;" width="10" x="406.9473" y="194.0234"/></g><rect fill="#FFFFFF" fill-opacity="0.14902" height="96.1563" rx="5" ry="5" style="stroke:#111827;stroke-width:2;" width="377.6094" x="84" y="266.2891"/><path d="M84,315.0156 L461.6094,315.0156 L461.6094,357.4453 A5,5 0 0 1 456.6094,362.4453 L89,362.4453 A5,5 0 0 1 84,357.4453 L84,315.0156" fill="#7F1515" fill-opacity="0.20000" style="stroke:none;stroke-width:1;"/><g class="participant-lifeline" data-entity-uid="part1" data-qualified-name="GDA_1" data-source-line="49" id="part1-lifeline"><g><title>GDA 1</title><rect fill="#000000" fill-opacity="0.00000" height="332.7422" width="8" x="115.2817" y="118.5938"/><line style="stroke:#181818;stroke-width:0.5;stroke-dasharray:5,5;" x1="119" x2="119" y1="118.5938" y2="451.3359"/></g></g><g class="participant-lifeline" data-entity-uid="part2" data-qualified-name="eMed_FA" data-source-line="50" id="part2-lifeline"><g><title>e-Med FA</title><rect fill="#000000" fill-opacity="0.00000" height="332.7422" width="8" x="407.9473" y="118.5938"/><line style="stroke:#181818;stroke-width:0.5;stroke-dasharray:5,5;" x1="411.2852" x2="411.2852" y1="118.5938" y2="451.3359"/></g></g><g class="participant-lifeline" data-entity-uid="part3" data-qualified-name="GDA_2" data-source-line="51" id="part3-lifeline"><g><title>GDA 2</title><rect fill="#000000" fill-opacity="0.00000" height="332.7422" width="8" x="619.854" y="118.5938"/><line style="stroke:#181818;stroke-width:0.5;stroke-dasharray:5,5;" x1="623.5723" x2="623.5723" y1="118.5938" y2="451.3359"/></g></g><g class="participant-lifeline" data-entity-uid="part4" data-qualified-name="Patient" data-source-line="52" id="part4-lifeline"><g><title>Patient</title><rect fill="#000000" fill-opacity="0.00000" height="332.7422" width="8" x="682.8237" y="118.5938"/><line style="stroke:#181818;stroke-width:0.5;stroke-dasharray:5,5;" x1="686.1357" x2="686.1357" y1="118.5938" y2="451.3359"/></g></g><g class="participant participant-head" data-entity-uid="part1" data-qualified-name="GDA_1" data-source-line="49" id="part1-head"><text fill="#000000" font-family="'Arial'" font-size="14" lengthAdjust="spacing" textLength="44.5635" x="94" y="115.292">GDA 1</text><ellipse cx="119.2817" cy="50.7969" fill="#3588A7" fill-opacity="0.29804" rx="8" ry="8" style="stroke:#181818;stroke-width:0.5;"/><path d="M119.2817,58.7969 L119.2817,85.7969 M106.2817,66.7969 L132.2817,66.7969 M119.2817,85.7969 L106.2817,100.7969 M119.2817,85.7969 L132.2817,100.7969" fill="none" style="stroke:#181818;stroke-width:0.5;"/></g><g class="participant participant-tail" data-entity-uid="part1" data-qualified-name="GDA_1" data-source-line="49" id="part1-tail"><text fill="#000000" font-family="'Arial'" font-size="14" lengthAdjust="spacing" textLength="44.5635" x="94" y="463.3311">GDA 1</text><ellipse cx="119.2817" cy="475.1328" fill="#3588A7" fill-opacity="0.29804" rx="8" ry="8" style="stroke:#181818;stroke-width:0.5;"/><path d="M119.2817,483.1328 L119.2817,510.1328 M106.2817,491.1328 L132.2817,491.1328 M119.2817,510.1328 L106.2817,525.1328 M119.2817,510.1328 L132.2817,525.1328" fill="none" style="stroke:#181818;stroke-width:0.5;"/></g><g class="participant participant-head" data-entity-uid="part2" data-qualified-name="eMed_FA" data-source-line="50" id="part2-head"><rect fill="#A14C37" fill-opacity="0.47059" height="30.2969" rx="5" ry="5" style="stroke:#555555;stroke-width:0.5;" width="79.3242" x="372.2852" y="87.2969"/><text fill="#000000" font-family="'Arial'" font-size="14" lengthAdjust="spacing" textLength="65.3242" x="379.2852" y="107.292">e-Med FA</text></g><g class="participant participant-tail" data-entity-uid="part2" data-qualified-name="eMed_FA" data-source-line="50" id="part2-tail"><rect fill="#A14C37" fill-opacity="0.47059" height="30.2969" rx="5" ry="5" style="stroke:#555555;stroke-width:0.5;" width="79.3242" x="372.2852" y="450.3359"/><text fill="#000000" font-family="'Arial'" font-size="14" lengthAdjust="spacing" textLength="65.3242" x="379.2852" y="470.3311">e-Med FA</text></g><g class="participant participant-head" data-entity-uid="part3" data-qualified-name="GDA_2" data-source-line="51" id="part3-head"><text fill="#000000" font-family="'Arial'" font-size="14" lengthAdjust="spacing" textLength="44.5635" x="598.5723" y="115.292">GDA 2</text><ellipse cx="623.854" cy="50.7969" fill="#CA89CA" fill-opacity="0.37255" rx="8" ry="8" style="stroke:#181818;stroke-width:0.5;"/><path d="M623.854,58.7969 L623.854,85.7969 M610.854,66.7969 L636.854,66.7969 M623.854,85.7969 L610.854,100.7969 M623.854,85.7969 L636.854,100.7969" fill="none" style="stroke:#181818;stroke-width:0.5;"/></g><g class="participant participant-tail" data-entity-uid="part3" data-qualified-name="GDA_2" data-source-line="51" id="part3-tail"><text fill="#000000" font-family="'Arial'" font-size="14" lengthAdjust="spacing" textLength="44.5635" x="598.5723" y="463.3311">GDA 2</text><ellipse cx="623.854" cy="475.1328" fill="#CA89CA" fill-opacity="0.37255" rx="8" ry="8" style="stroke:#181818;stroke-width:0.5;"/><path d="M623.854,483.1328 L623.854,510.1328 M610.854,491.1328 L636.854,491.1328 M623.854,510.1328 L610.854,525.1328 M623.854,510.1328 L636.854,525.1328" fill="none" style="stroke:#181818;stroke-width:0.5;"/></g><g class="participant participant-head" data-entity-uid="part4" data-qualified-name="Patient" data-source-line="52" id="part4-head"><text fill="#000000" font-family="'Arial'" font-size="14" lengthAdjust="spacing" textLength="49.376" x="659.1357" y="115.292">Patient</text><ellipse cx="686.8237" cy="50.7969" fill="#A2AE64" fill-opacity="0.50980" rx="8" ry="8" style="stroke:#181818;stroke-width:0.5;"/><path d="M686.8237,58.7969 L686.8237,85.7969 M673.8237,66.7969 L699.8237,66.7969 M686.8237,85.7969 L673.8237,100.7969 M686.8237,85.7969 L699.8237,100.7969" fill="none" style="stroke:#181818;stroke-width:0.5;"/></g><g class="participant participant-tail" data-entity-uid="part4" data-qualified-name="Patient" data-source-line="52" id="part4-tail"><text fill="#000000" font-family="'Arial'" font-size="14" lengthAdjust="spacing" textLength="49.376" x="659.1357" y="463.3311">Patient</text><ellipse cx="686.8237" cy="475.1328" fill="#A2AE64" fill-opacity="0.50980" rx="8" ry="8" style="stroke:#181818;stroke-width:0.5;"/><path d="M686.8237,483.1328 L686.8237,510.1328 M673.8237,491.1328 L699.8237,491.1328 M686.8237,510.1328 L673.8237,525.1328 M686.8237,510.1328 L699.8237,525.1328" fill="none" style="stroke:#181818;stroke-width:0.5;"/></g><g><title>GDA 1</title><rect fill="#3588A7" fill-opacity="0.29804" height="160.4219" style="stroke:#181818;stroke-width:1;" width="10" x="114.2817" y="194.0234"/></g><g><title>e-Med FA</title><rect fill="#A14C37" fill-opacity="0.47059" height="160.4219" style="stroke:#181818;stroke-width:1;" width="10" x="406.9473" y="194.0234"/></g><rect fill="#EEEEEE" height="3" rx="5" ry="5" style="stroke:#EEEEEE;stroke-width:1;" width="719.5117" x="0" y="149.7422"/><line style="stroke:#000000;stroke-width:1;" x1="0" x2="719.5117" y1="149.7422" y2="149.7422"/><line style="stroke:#000000;stroke-width:1;" x1="0" x2="719.5117" y1="152.7422" y2="152.7422"/><rect fill="#EEEEEE" height="24.2969" rx="5" ry="5" style="stroke:#000000;stroke-width:2;" width="196.4854" x="261.5132" y="138.5938"/><text fill="#000000" font-family="'Arial'" font-size="14" font-weight="700" lengthAdjust="spacing" textLength="177.6113" x="267.5132" y="155.5889">Medikationsplan lesen</text><g class="message" data-entity-1="part1" data-entity-2="part2" data-source-line="58" id="msg1"><polygon fill="#111827" points="394.9473,190.0234,404.9473,194.0234,394.9473,198.0234,398.9473,194.0234" style="stroke:#111827;stroke-width:1;stroke-linejoin:miter;stroke-miterlimit:10;"/><line style="stroke:#111827;stroke-width:1;" x1="124.2817" x2="400.9473" y1="194.0234" y2="194.0234"/><text fill="#000000" font-family="'Arial'" font-size="13" font-weight="700" lengthAdjust="spacing" textLength="9.0454" x="131.2817" y="188.9575">1</text><text fill="#000000" font-family="'Arial'" font-size="13" lengthAdjust="spacing" textLength="255.6201" x="144.3271" y="188.9575">GET Medikationsplan-Collection-Bundle</text></g><g class="message" data-entity-1="part2" data-entity-2="part2" data-source-line="62" id="msg2"><line style="stroke:#111827;stroke-width:1;" x1="416.9473" x2="458.9473" y1="238.2891" y2="238.2891"/><line style="stroke:#111827;stroke-width:1;" x1="458.9473" x2="458.9473" y1="238.2891" y2="251.2891"/><line style="stroke:#111827;stroke-width:1;" x1="417.9473" x2="458.9473" y1="251.2891" y2="251.2891"/><polygon fill="#111827" points="427.9473,247.2891,417.9473,251.2891,427.9473,255.2891,423.9473,251.2891" style="stroke:#111827;stroke-width:1;stroke-linejoin:miter;stroke-miterlimit:10;"/><text fill="#000000" font-family="'Arial'" font-size="13" font-weight="700" lengthAdjust="spacing" textLength="9.0454" x="423.9473" y="225.6567">2</text><text fill="#000000" font-family="'Arial'" font-size="13" lengthAdjust="spacing" textLength="164.8613" x="436.9927" y="218.0903">Pr&#252;fung auf bestehenden</text><text fill="#000000" font-family="'Arial'" font-size="13" lengthAdjust="spacing" textLength="106.3169" x="436.9927" y="233.2231">Medikationsplan</text></g><path d="M89,266.2891 L149.9385,266.2891 L149.9385,274.5859 L139.9385,284.5859 L84,284.5859 L84,271.2891 A5,5 0 0 1 89,266.2891" fill="#EEF2FF" style="stroke:#111827;stroke-width:1.5;"/><rect fill="none" height="96.1563" rx="5" ry="5" style="stroke:#111827;stroke-width:2;" width="377.6094" x="84" y="266.2891"/><text fill="#000000" font-family="'Arial'" font-size="14" font-weight="700" lengthAdjust="spacing" textLength="20.9385" x="99" y="280.2842">alt</text><text fill="#000000" font-family="'Arial'" font-size="14" font-weight="700" lengthAdjust="spacing" textLength="232.832" x="164.9385" y="281.2842">[Medikationsplan vorhanden]</text><g class="message" data-entity-1="part2" data-entity-2="part1" data-source-line="65" id="msg3"><polygon fill="#111827" points="135.2817,303.0156,125.2817,307.0156,135.2817,311.0156,131.2817,307.0156" style="stroke:#111827;stroke-width:1;stroke-linejoin:miter;stroke-miterlimit:10;"/><line style="stroke:#111827;stroke-width:1;" x1="129.2817" x2="405.9473" y1="307.0156" y2="307.0156"/><text fill="#000000" font-family="'Arial'" font-size="13" font-weight="700" lengthAdjust="spacing" textLength="9.0454" x="141.2817" y="301.9497">3</text><text fill="#000000" font-family="'Arial'" font-size="13" lengthAdjust="spacing" textLength="225.2593" x="154.3271" y="301.9497">Medikationsplan-Collection-Bundle</text></g><line style="stroke:#111827;stroke-width:1;stroke-dasharray:2,2;" x1="84" x2="461.6094" y1="316.0156" y2="316.0156"/><text fill="#000000" font-family="'Arial'" font-size="14" font-weight="700" lengthAdjust="spacing" textLength="271.2773" x="89" y="329.0107">[kein Medikationsplan vorhanden]</text><g class="message" data-entity-1="part2" data-entity-2="part1" data-source-line="67" id="msg4"><polygon fill="#111827" points="130.2817,350.4453,120.2817,354.4453,130.2817,358.4453,126.2817,354.4453" style="stroke:#111827;stroke-width:1;stroke-linejoin:miter;stroke-miterlimit:10;"/><line style="stroke:#111827;stroke-width:1;stroke-dasharray:2,2;" x1="124.2817" x2="410.9473" y1="354.4453" y2="354.4453"/><text fill="#000000" font-family="'Arial'" font-size="13" font-weight="700" lengthAdjust="spacing" textLength="9.0454" x="136.2817" y="349.3794">4</text><text fill="#000000" font-family="'Arial'" font-size="13" lengthAdjust="spacing" textLength="100.5405" x="149.3271" y="349.3794">leeres Ergebnis</text></g><path d="M5,379.4453 L5,427.4453 A5,5 0 0 0 10,432.4453 L519,432.4453 A5,5 0 0 0 524,427.4453 L524,384.4453 L514,374.4453 L10,374.4453 A5,5 0 0 0 5,379.4453" fill="url(#gnvx3mlhr6tov0)" filter="url(#fnvx3mlhr6tov)" style="stroke:#8B95A5;stroke-width:1;"/><path d="M514,374.4453 L514,381.9453 A2.5,2.5 0 0 0 516.5,384.4453 L524,384.4453 L514,374.4453" fill="url(#gnvx3mlhr6tov0)" style="stroke:#8B95A5;stroke-width:1;"/><text fill="#111827" font-family="'Arial'" font-size="14" lengthAdjust="spacing" textLength="494.293" x="11" y="392.4404">Die Fachanwendung liefert den zuletzt gespeicherten Medikationsplan</text><text fill="#111827" font-family="'Arial'" font-size="14" lengthAdjust="spacing" textLength="470.0801" x="11" y="408.7373">(unver&#228;ndert, inkl. aller referenzierten Ressourcen) oder ein leeres</text><text fill="#111827" font-family="'Arial'" font-size="14" lengthAdjust="spacing" textLength="116.6006" x="11" y="425.0342">Ergebnis zur&#252;ck.</text><?plantuml-src ZLJDRfj04Bxp55FxqafnPB29IIHNiXESL6rYHDnBLIbQms2lJ1PtMPB6LT-cZz5RNgop-6_1hXIumCotCzytCpkAgnGXI9betV1SPVAb5IABBIjVSB5aaZt2D9CnoiiipIGqs-LZUbcqcCci4F46aRZwDH3vdCNPCnSpI5YQe-7P79C29TXcq1WJLgHgb0brnnuH6WF9MTeuZhZdAmIxUzpvFzetBqkKAHSB0-3xnm1VHLn-u07zOVOpO76ibJdjgdrerimj7xEa8bC8loo0ORrws4OtQRUQiHsVuvb6c96ywRdBt9rrCkVHGc2UWqssqAYcH_zRRZgAKGhRjZsdHxRxNL-KBD3wRHBCyKU18bgJ39XKFE9B9jGnNLN0mJYKJnLqs9W3zxQf5OTHRO21bDbpNLDfh9QbD1tBk7EiStN8T4tCbnMDkyXhrq6xC75ATSR9VNf75_KTJQEUdilnbt7uS7qrUB2XsN4zZ_MwqH6l0ys8UUSHSvEQDnXCFlbt4sWoX-5PrtDg_a4mXcOtYRtOSUEQpx_rhnv60pfhTwDEh-VL_G-X_yqF9lh-JcCdwVLgWF7dRI-Ti_hPC1o7qEmbjckxdOvbiOWM2QobiXmQz0Lsmwo0jTnt5V0MOyrDGx55Fp0QDAgyZP3EBgHZXdGsa80fZXHKWpRVZMhzY5-XCb4yJb5QLhyFb94l29g9V4cB45BCKK2_Rrbh2QsFMueNSErFwlWMpKAAaVvl3MaqKjHK-1EZExuEO0hV-xQogqAtLZDf85__9WKDFYiIc6AkS8wqbSHtKQD2qLErRrXTs5CcvqmVf84ryfJ4BjuW2sd_LNg-G2xUbcMV9aMKc8ClPpWLF2TGZDLwLKsR41OfjgnoSMPFk9ckavttYYECM4I9dmceQvLoJ50g2YLWLQIeLWfcc2-HHtEouo5nwtqXAFJh7xtnrGdGyazFWL4L94WT3CMAhu-6TBspGaOeFa16QD25M2kpjieeA_KjMfngwkNA_mS0?></g></svg>