<svg xmlns="http://www.w3.org/2000/svg" xmlns:xlink="http://www.w3.org/1999/xlink" contentStyleType="text/css" data-diagram-type="SEQUENCE" height="1420px" preserveAspectRatio="none" style="width:1435px;height:1420px;background:#F5F5F5;" version="1.1" viewBox="0 0 1435 1420" width="1435px" zoomAndPan="magnify"><?plantuml 1.2026.5?><defs><linearGradient id="gj6wx6dkike8a0" x1="50%" x2="50%" y1="0%" y2="100%"><stop offset="0%" stop-color="#E0E5F0"/><stop offset="100%" stop-color="#D1D9E6"/></linearGradient><filter height="300%" id="fj6wx6dkike8a" width="300%" x="-1" y="-1"><feGaussianBlur result="blurOut" stdDeviation="2"/><feColorMatrix in="blurOut" result="blurOut2" type="matrix" values="0 0 0 0 0 0 0 0 0 0 0 0 0 0 0 0 0 0 .4 0"/><feOffset dx="4" dy="4" in="blurOut2" result="blurOut3"/><feBlend in="SourceGraphic" in2="blurOut3" mode="normal"/></filter></defs><g><rect fill="#F5F5F5" height="1420" style="stroke:none;stroke-width:1;" width="1435" x="0" y="0"/><rect fill="#9FBAC4" height="1394.4141" rx="5" ry="5" style="stroke:#181818;stroke-width:0.5;" width="74.0586" x="100" y="6"/><text fill="#000000" font-family="'Arial'" font-size="14" font-weight="700" lengthAdjust="spacing" textLength="4.874" x="103" y="18.9951">&#160;</text><text fill="#000000" font-family="'Arial'" font-size="14" font-weight="700" lengthAdjust="spacing" textLength="48.5625" x="112.748" y="35.292">GDA 1</text><rect fill="#C48778" height="1394.4141" rx="5" ry="5" style="stroke:#181818;stroke-width:0.5;" width="256.9268" x="496.6992" y="6"/><text fill="#000000" font-family="'Arial'" font-size="14" font-weight="700" lengthAdjust="spacing" textLength="4.874" x="499.6992" y="18.9951">&#160;</text><text fill="#000000" font-family="'Arial'" font-size="14" font-weight="700" lengthAdjust="spacing" textLength="182.6904" x="533.8174" y="35.292">e-Med Fachanwendung</text><rect fill="#BEAEBE" height="1394.4141" rx="5" ry="5" style="stroke:#181818;stroke-width:0.5;" width="83.8066" x="1001.5337" y="6"/><text fill="#000000" font-family="'Arial'" font-size="14" font-weight="700" lengthAdjust="spacing" textLength="4.874" x="1004.5337" y="18.9951">&#160;</text><text fill="#000000" font-family="'Arial'" font-size="14" font-weight="700" lengthAdjust="spacing" textLength="48.5625" x="1024.0298" y="35.292">GDA 2</text><rect fill="#BAC38B" height="1394.4141" rx="5" ry="5" style="stroke:#181818;stroke-width:0.5;" width="77.9756" x="1330.3052" y="6"/><text fill="#000000" font-family="'Arial'" font-size="14" font-weight="700" lengthAdjust="spacing" textLength="4.874" x="1333.3052" y="18.9951">&#160;</text><text fill="#000000" font-family="'Arial'" font-size="14" font-weight="700" lengthAdjust="spacing" textLength="57.3535" x="1338.1792" y="35.292">Patient</text><g><title>GDA 1</title><rect fill="#FFFFFF" height="1134.9297" style="stroke:#181818;stroke-width:1;" width="10" x="132.0293" y="128.8906"/></g><g><title>e-Med FA</title><rect fill="#FFFFFF" height="128.5313" style="stroke:#181818;stroke-width:1;" width="10" x="620.1626" y="194.3203"/></g><g><title>e-Med FA</title><rect fill="#FFFFFF" height="128.5313" style="stroke:#181818;stroke-width:1;" width="10" x="620.1626" y="477.7109"/></g><g><title>e-Med FA</title><rect fill="#FFFFFF" height="231.1953" style="stroke:#181818;stroke-width:1;" width="10" x="620.1626" y="776.2344"/></g><g><title>e-Med FA</title><rect fill="#FFFFFF" height="143.6641" style="stroke:#181818;stroke-width:1;" width="10" x="620.1626" y="1120.1563"/></g><g><title>GDA 2</title><rect fill="#FFFFFF" height="529.7188" style="stroke:#181818;stroke-width:1;" width="10" x="1038.437" y="477.7109"/></g><g class="participant-lifeline" data-entity-uid="part1" data-qualified-name="GDA_1" data-source-line="41" id="part1-lifeline"><g><title>GDA 1</title><rect fill="#000000" fill-opacity="0.00000" height="1202.2266" width="8" x="133.0293" y="118.8906"/><line style="stroke:#181818;stroke-width:0.5;stroke-dasharray:5,5;" x1="136.7476" x2="136.7476" y1="118.8906" y2="1321.1172"/></g></g><g class="participant-lifeline" data-entity-uid="part2" data-qualified-name="eMed_FA" data-source-line="45" id="part2-lifeline"><g><title>e-Med FA</title><rect fill="#000000" fill-opacity="0.00000" height="1202.2266" width="8" x="621.1626" y="118.8906"/><line style="stroke:#181818;stroke-width:0.5;stroke-dasharray:5,5;" x1="624.5005" x2="624.5005" y1="118.8906" y2="1321.1172"/></g></g><g class="participant-lifeline" data-entity-uid="part3" data-qualified-name="GDA_2" data-source-line="49" id="part3-lifeline"><g><title>GDA 2</title><rect fill="#000000" fill-opacity="0.00000" height="1202.2266" width="8" x="1039.437" y="118.8906"/><line style="stroke:#181818;stroke-width:0.5;stroke-dasharray:5,5;" x1="1043.1553" x2="1043.1553" y1="118.8906" y2="1321.1172"/></g></g><g class="participant-lifeline" data-entity-uid="part4" data-qualified-name="Patient" data-source-line="53" id="part4-lifeline"><g><title>Patient</title><rect fill="#000000" fill-opacity="0.00000" height="1202.2266" width="8" x="1365.293" y="118.8906"/><line style="stroke:#181818;stroke-width:0.5;stroke-dasharray:5,5;" x1="1368.605" x2="1368.605" y1="118.8906" y2="1321.1172"/></g></g><g class="participant participant-head" data-entity-uid="part1" data-qualified-name="GDA_1" data-source-line="41" id="part1-head"><text fill="#000000" font-family="'Arial'" font-size="14" lengthAdjust="spacing" textLength="44.5635" x="111.7476" y="115.5889">GDA 1</text><ellipse cx="137.0293" cy="51.0938" fill="#E2E2F0" rx="8" ry="8" style="stroke:#181818;stroke-width:0.5;"/><path d="M137.0293,59.0938 L137.0293,86.0938 M124.0293,67.0938 L150.0293,67.0938 M137.0293,86.0938 L124.0293,101.0938 M137.0293,86.0938 L150.0293,101.0938" fill="none" style="stroke:#181818;stroke-width:0.5;"/></g><g class="participant participant-tail" data-entity-uid="part1" data-qualified-name="GDA_1" data-source-line="41" id="part1-tail"><text fill="#000000" font-family="'Arial'" font-size="14" lengthAdjust="spacing" textLength="44.5635" x="111.7476" y="1333.1123">GDA 1</text><ellipse cx="137.0293" cy="1344.9141" fill="#E2E2F0" rx="8" ry="8" style="stroke:#181818;stroke-width:0.5;"/><path d="M137.0293,1352.9141 L137.0293,1379.9141 M124.0293,1360.9141 L150.0293,1360.9141 M137.0293,1379.9141 L124.0293,1394.9141 M137.0293,1379.9141 L150.0293,1394.9141" fill="none" style="stroke:#181818;stroke-width:0.5;"/></g><g class="participant participant-head" data-entity-uid="part2" data-qualified-name="eMed_FA" data-source-line="45" id="part2-head"><rect fill="#FFFFFF" height="30.2969" rx="5" ry="5" style="stroke:#555555;stroke-width:0.5;" width="79.3242" x="585.5005" y="87.5938"/><text fill="#000000" font-family="'Arial'" font-size="14" lengthAdjust="spacing" textLength="65.3242" x="592.5005" y="107.5889">e-Med FA</text></g><g class="participant participant-tail" data-entity-uid="part2" data-qualified-name="eMed_FA" data-source-line="45" id="part2-tail"><rect fill="#FFFFFF" height="30.2969" rx="5" ry="5" style="stroke:#555555;stroke-width:0.5;" width="79.3242" x="585.5005" y="1320.1172"/><text fill="#000000" font-family="'Arial'" font-size="14" lengthAdjust="spacing" textLength="65.3242" x="592.5005" y="1340.1123">e-Med FA</text></g><g class="participant participant-head" data-entity-uid="part3" data-qualified-name="GDA_2" data-source-line="49" id="part3-head"><text fill="#000000" font-family="'Arial'" font-size="14" lengthAdjust="spacing" textLength="44.5635" x="1018.1553" y="115.5889">GDA 2</text><ellipse cx="1043.437" cy="51.0938" fill="#E2E2F0" rx="8" ry="8" style="stroke:#181818;stroke-width:0.5;"/><path d="M1043.437,59.0938 L1043.437,86.0938 M1030.437,67.0938 L1056.437,67.0938 M1043.437,86.0938 L1030.437,101.0938 M1043.437,86.0938 L1056.437,101.0938" fill="none" style="stroke:#181818;stroke-width:0.5;"/></g><g class="participant participant-tail" data-entity-uid="part3" data-qualified-name="GDA_2" data-source-line="49" id="part3-tail"><text fill="#000000" font-family="'Arial'" font-size="14" lengthAdjust="spacing" textLength="44.5635" x="1018.1553" y="1333.1123">GDA 2</text><ellipse cx="1043.437" cy="1344.9141" fill="#E2E2F0" rx="8" ry="8" style="stroke:#181818;stroke-width:0.5;"/><path d="M1043.437,1352.9141 L1043.437,1379.9141 M1030.437,1360.9141 L1056.437,1360.9141 M1043.437,1379.9141 L1030.437,1394.9141 M1043.437,1379.9141 L1056.437,1394.9141" fill="none" style="stroke:#181818;stroke-width:0.5;"/></g><g class="participant participant-head" data-entity-uid="part4" data-qualified-name="Patient" data-source-line="53" id="part4-head"><text fill="#000000" font-family="'Arial'" font-size="14" lengthAdjust="spacing" textLength="49.376" x="1341.605" y="115.5889">Patient</text><ellipse cx="1369.293" cy="51.0938" fill="#E2E2F0" rx="8" ry="8" style="stroke:#181818;stroke-width:0.5;"/><path d="M1369.293,59.0938 L1369.293,86.0938 M1356.293,67.0938 L1382.293,67.0938 M1369.293,86.0938 L1356.293,101.0938 M1369.293,86.0938 L1382.293,101.0938" fill="none" style="stroke:#181818;stroke-width:0.5;"/></g><g class="participant participant-tail" data-entity-uid="part4" data-qualified-name="Patient" data-source-line="53" id="part4-tail"><text fill="#000000" font-family="'Arial'" font-size="14" lengthAdjust="spacing" textLength="49.376" x="1341.605" y="1333.1123">Patient</text><ellipse cx="1369.293" cy="1344.9141" fill="#E2E2F0" rx="8" ry="8" style="stroke:#181818;stroke-width:0.5;"/><path d="M1369.293,1352.9141 L1369.293,1379.9141 M1356.293,1360.9141 L1382.293,1360.9141 M1369.293,1379.9141 L1356.293,1394.9141 M1369.293,1379.9141 L1382.293,1394.9141" fill="none" style="stroke:#181818;stroke-width:0.5;"/></g><g><title>GDA 1</title><rect fill="#FFFFFF" height="1134.9297" style="stroke:#181818;stroke-width:1;" width="10" x="132.0293" y="128.8906"/></g><g><title>e-Med FA</title><rect fill="#FFFFFF" height="128.5313" style="stroke:#181818;stroke-width:1;" width="10" x="620.1626" y="194.3203"/></g><g><title>e-Med FA</title><rect fill="#FFFFFF" height="128.5313" style="stroke:#181818;stroke-width:1;" width="10" x="620.1626" y="477.7109"/></g><g><title>e-Med FA</title><rect fill="#FFFFFF" height="231.1953" style="stroke:#181818;stroke-width:1;" width="10" x="620.1626" y="776.2344"/></g><g><title>e-Med FA</title><rect fill="#FFFFFF" height="143.6641" style="stroke:#181818;stroke-width:1;" width="10" x="620.1626" y="1120.1563"/></g><g><title>GDA 2</title><rect fill="#FFFFFF" height="529.7188" style="stroke:#181818;stroke-width:1;" width="10" x="1038.437" y="477.7109"/></g><rect fill="#EEEEEE" height="3" rx="5" ry="5" style="stroke:#EEEEEE;stroke-width:1;" width="1429.2808" x="0" y="150.0391"/><line style="stroke:#000000;stroke-width:1;" x1="0" x2="1429.2808" y1="150.0391" y2="150.0391"/><line style="stroke:#000000;stroke-width:1;" x1="0" x2="1429.2808" y1="153.0391" y2="153.0391"/><rect fill="#EEEEEE" height="24.2969" rx="5" ry="5" style="stroke:#000000;stroke-width:2;" width="202.3711" x="613.4548" y="138.8906"/><text fill="#000000" font-family="'Arial'" font-size="14" font-weight="700" lengthAdjust="spacing" textLength="183.4971" x="619.4548" y="155.8857">Plan-Read durch GDA 1</text><g class="message" data-entity-1="part1" data-entity-2="part2" data-source-line="62" id="msg1"><line style="stroke:#111827;stroke-width:1;" x1="618.1626" x2="608.1626" y1="194.3203" y2="190.3203"/><line style="stroke:#111827;stroke-width:1;" x1="618.1626" x2="608.1626" y1="194.3203" y2="198.3203"/><line style="stroke:#111827;stroke-width:1;" x1="142.0293" x2="619.1626" y1="194.3203" y2="194.3203"/><text fill="#000000" font-family="'Arial'" font-size="13" font-weight="700" lengthAdjust="spacing" textLength="9.0454" x="149.0293" y="189.2544">1</text><text fill="#000000" font-family="'Arial'" font-size="13" lengthAdjust="spacing" textLength="108.9893" x="162.0747" y="189.2544">POST $plan-read</text></g><g class="message" data-entity-1="part2" data-entity-2="part2" data-source-line="65" id="msg2"><line style="stroke:#111827;stroke-width:1;" x1="630.1626" x2="672.1626" y1="238.5859" y2="238.5859"/><line style="stroke:#111827;stroke-width:1;" x1="672.1626" x2="672.1626" y1="238.5859" y2="251.5859"/><line style="stroke:#111827;stroke-width:1;" x1="631.1626" x2="672.1626" y1="251.5859" y2="251.5859"/><polygon fill="#111827" points="641.1626,247.5859,631.1626,251.5859,641.1626,255.5859,637.1626,251.5859" style="stroke:#111827;stroke-width:1;stroke-linejoin:miter;stroke-miterlimit:10;"/><text fill="#000000" font-family="'Arial'" font-size="13" font-weight="700" lengthAdjust="spacing" textLength="9.0454" x="637.1626" y="225.9536">2</text><text fill="#000000" font-family="'Arial'" font-size="13" lengthAdjust="spacing" textLength="235.6123" x="650.208" y="218.3872">Annahme: Pr&#252;fung auf bestehenden</text><text fill="#000000" font-family="'Arial'" font-size="13" lengthAdjust="spacing" textLength="180.5273" x="650.208" y="233.52">Medikationsplan erfolgreich</text></g><g class="message" data-entity-1="part2" data-entity-2="part2" data-source-line="66" id="msg3"><line style="stroke:#111827;stroke-width:1;" x1="630.1626" x2="672.1626" y1="280.7188" y2="280.7188"/><line style="stroke:#111827;stroke-width:1;" x1="672.1626" x2="672.1626" y1="280.7188" y2="293.7188"/><line style="stroke:#111827;stroke-width:1;" x1="631.1626" x2="672.1626" y1="293.7188" y2="293.7188"/><polygon fill="#111827" points="641.1626,289.7188,631.1626,293.7188,641.1626,297.7188,637.1626,293.7188" style="stroke:#111827;stroke-width:1;stroke-linejoin:miter;stroke-miterlimit:10;"/><text fill="#000000" font-family="'Arial'" font-size="13" font-weight="700" lengthAdjust="spacing" textLength="9.0454" x="637.1626" y="275.6528">3</text><text fill="#000000" font-family="'Arial'" font-size="13" lengthAdjust="spacing" textLength="273.8062" x="650.208" y="275.6528">Collection Bundle zur Auslieferung erstellt</text></g><g class="message" data-entity-1="part2" data-entity-2="part1" data-source-line="68" id="msg4"><line style="stroke:#111827;stroke-width:1;" x1="143.0293" x2="153.0293" y1="322.8516" y2="318.8516"/><line style="stroke:#111827;stroke-width:1;" x1="143.0293" x2="153.0293" y1="322.8516" y2="326.8516"/><line style="stroke:#111827;stroke-width:1;stroke-dasharray:2,2;" x1="142.0293" x2="624.1626" y1="322.8516" y2="322.8516"/><text fill="#000000" font-family="'Arial'" font-size="13" font-weight="700" lengthAdjust="spacing" textLength="9.0454" x="159.0293" y="317.7856">4</text><text fill="#000000" font-family="'Arial'" font-size="13" lengthAdjust="spacing" textLength="206.1274" x="172.0747" y="317.7856">Collection Bundle + ETag "123"</text></g><g class="message" data-entity-1="part1" data-entity-2="part1" data-source-line="71" id="msg5"><line style="stroke:#111827;stroke-width:1;" x1="142.0293" x2="184.0293" y1="351.9844" y2="351.9844"/><line style="stroke:#111827;stroke-width:1;" x1="184.0293" x2="184.0293" y1="351.9844" y2="364.9844"/><line style="stroke:#111827;stroke-width:1;" x1="143.0293" x2="184.0293" y1="364.9844" y2="364.9844"/><polygon fill="#111827" points="153.0293,360.9844,143.0293,364.9844,153.0293,368.9844,149.0293,364.9844" style="stroke:#111827;stroke-width:1;stroke-linejoin:miter;stroke-miterlimit:10;"/><text fill="#000000" font-family="'Arial'" font-size="13" font-weight="700" lengthAdjust="spacing" textLength="9.0454" x="149.0293" y="346.9185">5</text><text fill="#000000" font-family="'Arial'" font-size="13" lengthAdjust="spacing" textLength="249.8438" x="162.0747" y="346.9185">Eintr&#228;ge hinzuf&#252;gen/&#228;ndern/entfernen</text></g><path d="M5,382.9844 L5,398.9844 A5,5 0 0 0 10,403.9844 L261,403.9844 A5,5 0 0 0 266,398.9844 L266,387.9844 L256,377.9844 L10,377.9844 A5,5 0 0 0 5,382.9844" fill="url(#gj6wx6dkike8a0)" filter="url(#fj6wx6dkike8a)" style="stroke:#8B95A5;stroke-width:1;"/><path d="M256,377.9844 L256,385.4844 A2.5,2.5 0 0 0 258.5,387.9844 L266,387.9844 L256,377.9844" fill="url(#gj6wx6dkike8a0)" style="stroke:#8B95A5;stroke-width:1;"/><text fill="#111827" font-family="'Arial'" font-size="14" lengthAdjust="spacing" textLength="240.7754" x="11" y="395.9795">GDA 1 bearbeitet Medikationsplan</text><rect fill="#EEEEEE" height="3" rx="5" ry="5" style="stroke:#EEEEEE;stroke-width:1;" width="1429.2808" x="0" y="433.4297"/><line style="stroke:#000000;stroke-width:1;" x1="0" x2="1429.2808" y1="433.4297" y2="433.4297"/><line style="stroke:#000000;stroke-width:1;" x1="0" x2="1429.2808" y1="436.4297" y2="436.4297"/><rect fill="#EEEEEE" height="24.2969" rx="5" ry="5" style="stroke:#000000;stroke-width:2;" width="202.3711" x="613.4548" y="422.2813"/><text fill="#000000" font-family="'Arial'" font-size="14" font-weight="700" lengthAdjust="spacing" textLength="183.4971" x="619.4548" y="439.2764">Plan-Read durch GDA 2</text><g class="message" data-entity-1="part3" data-entity-2="part2" data-source-line="79" id="msg6"><line style="stroke:#111827;stroke-width:1;" x1="631.1626" x2="641.1626" y1="477.7109" y2="473.7109"/><line style="stroke:#111827;stroke-width:1;" x1="631.1626" x2="641.1626" y1="477.7109" y2="481.7109"/><line style="stroke:#111827;stroke-width:1;" x1="630.1626" x2="1037.437" y1="477.7109" y2="477.7109"/><text fill="#000000" font-family="'Arial'" font-size="13" font-weight="700" lengthAdjust="spacing" textLength="9.0454" x="647.1626" y="472.645">6</text><text fill="#000000" font-family="'Arial'" font-size="13" lengthAdjust="spacing" textLength="108.9893" x="660.208" y="472.645">POST $plan-read</text></g><g class="message" data-entity-1="part2" data-entity-2="part2" data-source-line="83" id="msg7"><line style="stroke:#111827;stroke-width:1;" x1="630.1626" x2="672.1626" y1="521.9766" y2="521.9766"/><line style="stroke:#111827;stroke-width:1;" x1="672.1626" x2="672.1626" y1="521.9766" y2="534.9766"/><line style="stroke:#111827;stroke-width:1;" x1="631.1626" x2="672.1626" y1="534.9766" y2="534.9766"/><polygon fill="#111827" points="641.1626,530.9766,631.1626,534.9766,641.1626,538.9766,637.1626,534.9766" style="stroke:#111827;stroke-width:1;stroke-linejoin:miter;stroke-miterlimit:10;"/><text fill="#000000" font-family="'Arial'" font-size="13" font-weight="700" lengthAdjust="spacing" textLength="9.0454" x="637.1626" y="509.3442">7</text><text fill="#000000" font-family="'Arial'" font-size="13" lengthAdjust="spacing" textLength="235.6123" x="650.208" y="501.7778">Annahme: Pr&#252;fung auf bestehenden</text><text fill="#000000" font-family="'Arial'" font-size="13" lengthAdjust="spacing" textLength="180.5273" x="650.208" y="516.9106">Medikationsplan erfolgreich</text></g><g class="message" data-entity-1="part2" data-entity-2="part2" data-source-line="84" id="msg8"><line style="stroke:#111827;stroke-width:1;" x1="630.1626" x2="672.1626" y1="564.1094" y2="564.1094"/><line style="stroke:#111827;stroke-width:1;" x1="672.1626" x2="672.1626" y1="564.1094" y2="577.1094"/><line style="stroke:#111827;stroke-width:1;" x1="631.1626" x2="672.1626" y1="577.1094" y2="577.1094"/><polygon fill="#111827" points="641.1626,573.1094,631.1626,577.1094,641.1626,581.1094,637.1626,577.1094" style="stroke:#111827;stroke-width:1;stroke-linejoin:miter;stroke-miterlimit:10;"/><text fill="#000000" font-family="'Arial'" font-size="13" font-weight="700" lengthAdjust="spacing" textLength="9.0454" x="637.1626" y="559.0435">8</text><text fill="#000000" font-family="'Arial'" font-size="13" lengthAdjust="spacing" textLength="273.8062" x="650.208" y="559.0435">Collection Bundle zur Auslieferung erstellt</text></g><g class="message" data-entity-1="part2" data-entity-2="part3" data-source-line="86" id="msg9"><line style="stroke:#111827;stroke-width:1;" x1="1036.437" x2="1026.437" y1="606.2422" y2="602.2422"/><line style="stroke:#111827;stroke-width:1;" x1="1036.437" x2="1026.437" y1="606.2422" y2="610.2422"/><line style="stroke:#111827;stroke-width:1;stroke-dasharray:2,2;" x1="625.1626" x2="1037.437" y1="606.2422" y2="606.2422"/><text fill="#000000" font-family="'Arial'" font-size="13" font-weight="700" lengthAdjust="spacing" textLength="9.0454" x="632.1626" y="601.1763">9</text><text fill="#000000" font-family="'Arial'" font-size="13" lengthAdjust="spacing" textLength="206.1274" x="645.208" y="601.1763">Collection Bundle + ETag "123"</text></g><g class="message" data-entity-1="part3" data-entity-2="part3" data-source-line="89" id="msg10"><line style="stroke:#111827;stroke-width:1;" x1="1048.437" x2="1090.437" y1="635.375" y2="635.375"/><line style="stroke:#111827;stroke-width:1;" x1="1090.437" x2="1090.437" y1="635.375" y2="648.375"/><line style="stroke:#111827;stroke-width:1;" x1="1049.437" x2="1090.437" y1="648.375" y2="648.375"/><polygon fill="#111827" points="1059.437,644.375,1049.437,648.375,1059.437,652.375,1055.437,648.375" style="stroke:#111827;stroke-width:1;stroke-linejoin:miter;stroke-miterlimit:10;"/><text fill="#000000" font-family="'Arial'" font-size="13" font-weight="700" lengthAdjust="spacing" textLength="18.0908" x="1055.437" y="630.3091">10</text><text fill="#000000" font-family="'Arial'" font-size="13" lengthAdjust="spacing" textLength="249.8438" x="1077.5278" y="630.3091">Eintr&#228;ge hinzuf&#252;gen/&#228;ndern/entfernen</text></g><path d="M911,666.375 L911,682.375 A5,5 0 0 0 916,687.375 L1167,687.375 A5,5 0 0 0 1172,682.375 L1172,671.375 L1162,661.375 L916,661.375 A5,5 0 0 0 911,666.375" fill="url(#gj6wx6dkike8a0)" filter="url(#fj6wx6dkike8a)" style="stroke:#8B95A5;stroke-width:1;"/><path d="M1162,661.375 L1162,668.875 A2.5,2.5 0 0 0 1164.5,671.375 L1172,671.375 L1162,661.375" fill="url(#gj6wx6dkike8a0)" style="stroke:#8B95A5;stroke-width:1;"/><text fill="#111827" font-family="'Arial'" font-size="14" lengthAdjust="spacing" textLength="240.7754" x="917" y="679.3701">GDA 2 bearbeitet Medikationsplan</text><rect fill="#EEEEEE" height="3" rx="5" ry="5" style="stroke:#EEEEEE;stroke-width:1;" width="1429.2808" x="0" y="716.8203"/><line style="stroke:#000000;stroke-width:1;" x1="0" x2="1429.2808" y1="716.8203" y2="716.8203"/><line style="stroke:#000000;stroke-width:1;" x1="0" x2="1429.2808" y1="719.8203" y2="719.8203"/><rect fill="#EEEEEE" height="24.2969" rx="5" ry="5" style="stroke:#000000;stroke-width:2;" width="205.96" x="611.6604" y="705.6719"/><text fill="#000000" font-family="'Arial'" font-size="14" font-weight="700" lengthAdjust="spacing" textLength="187.0859" x="617.6604" y="722.667">Plan-Write durch GDA 2</text><g class="message" data-entity-1="part3" data-entity-2="part2" data-source-line="97" id="msg11"><line style="stroke:#111827;stroke-width:1;" x1="631.1626" x2="641.1626" y1="776.2344" y2="772.2344"/><line style="stroke:#111827;stroke-width:1;" x1="631.1626" x2="641.1626" y1="776.2344" y2="780.2344"/><line style="stroke:#111827;stroke-width:1;" x1="630.1626" x2="1037.437" y1="776.2344" y2="776.2344"/><text fill="#000000" font-family="'Arial'" font-size="13" font-weight="700" lengthAdjust="spacing" textLength="18.0908" x="647.1626" y="763.6021">11</text><text fill="#000000" font-family="'Arial'" font-size="13" lengthAdjust="spacing" textLength="197.5962" x="669.2534" y="756.0356">POST $plan-write (Transaction</text><text fill="#000000" font-family="'Arial'" font-size="13" lengthAdjust="spacing" textLength="142.7651" x="669.2534" y="771.1685">Bundle + ETag "123")</text></g><g class="message" data-entity-1="part2" data-entity-2="part2" data-source-line="100" id="msg12"><line style="stroke:#111827;stroke-width:1;" x1="630.1626" x2="672.1626" y1="820.5" y2="820.5"/><line style="stroke:#111827;stroke-width:1;" x1="672.1626" x2="672.1626" y1="820.5" y2="833.5"/><line style="stroke:#111827;stroke-width:1;" x1="631.1626" x2="672.1626" y1="833.5" y2="833.5"/><polygon fill="#111827" points="641.1626,829.5,631.1626,833.5,641.1626,837.5,637.1626,833.5" style="stroke:#111827;stroke-width:1;stroke-linejoin:miter;stroke-miterlimit:10;"/><text fill="#000000" font-family="'Arial'" font-size="13" font-weight="700" lengthAdjust="spacing" textLength="18.0908" x="637.1626" y="807.8677">12</text><text fill="#000000" font-family="'Arial'" font-size="13" lengthAdjust="spacing" textLength="171.0693" x="659.2534" y="800.3013">ETag "123" im Header ==</text><text fill="#000000" font-family="'Arial'" font-size="13" lengthAdjust="spacing" textLength="210.0249" x="659.2534" y="815.4341">ETag der Fachanwendung "123"</text></g><g class="message" data-entity-1="part2" data-entity-2="part2" data-source-line="101" id="msg13"><line style="stroke:#111827;stroke-width:1;" x1="630.1626" x2="672.1626" y1="892.8984" y2="892.8984"/><line style="stroke:#111827;stroke-width:1;" x1="672.1626" x2="672.1626" y1="892.8984" y2="905.8984"/><line style="stroke:#111827;stroke-width:1;" x1="631.1626" x2="672.1626" y1="905.8984" y2="905.8984"/><polygon fill="#111827" points="641.1626,901.8984,631.1626,905.8984,641.1626,909.8984,637.1626,905.8984" style="stroke:#111827;stroke-width:1;stroke-linejoin:miter;stroke-miterlimit:10;"/><text fill="#000000" font-family="'Arial'" font-size="13" font-weight="700" lengthAdjust="spacing" textLength="18.0908" x="637.1626" y="872.6997">13</text><text fill="#000000" font-family="'Arial'" font-size="13" lengthAdjust="spacing" textLength="147.7607" x="659.2534" y="857.5669">Validierung neuer Plan</text><text fill="#000000" font-family="'Arial'" font-size="13" lengthAdjust="spacing" textLength="129.3462" x="659.2534" y="872.6997">(keine unzul&#228;ssigen</text><text fill="#000000" font-family="'Arial'" font-size="13" lengthAdjust="spacing" textLength="135.8589" x="659.2534" y="887.8325">Zustands&#252;berg&#228;nge)</text></g><g class="message" data-entity-1="part2" data-entity-2="part2" data-source-line="102" id="msg14"><line style="stroke:#111827;stroke-width:1;" x1="630.1626" x2="672.1626" y1="965.2969" y2="965.2969"/><line style="stroke:#111827;stroke-width:1;" x1="672.1626" x2="672.1626" y1="965.2969" y2="978.2969"/><line style="stroke:#111827;stroke-width:1;" x1="631.1626" x2="672.1626" y1="978.2969" y2="978.2969"/><polygon fill="#111827" points="641.1626,974.2969,631.1626,978.2969,641.1626,982.2969,637.1626,978.2969" style="stroke:#111827;stroke-width:1;stroke-linejoin:miter;stroke-miterlimit:10;"/><text fill="#000000" font-family="'Arial'" font-size="13" font-weight="700" lengthAdjust="spacing" textLength="18.0908" x="637.1626" y="945.0981">14</text><text fill="#000000" font-family="'Arial'" font-size="13" lengthAdjust="spacing" textLength="182.1968" x="659.2534" y="929.9653">Persistiert neue Version des</text><text fill="#000000" font-family="'Arial'" font-size="13" lengthAdjust="spacing" textLength="226.8462" x="659.2534" y="945.0981">Medikationsplans + erzeugt neuen</text><text fill="#000000" font-family="'Arial'" font-size="13" lengthAdjust="spacing" textLength="77.4097" x="659.2534" y="960.231">ETag "124".</text></g><g class="message" data-entity-1="part2" data-entity-2="part3" data-source-line="103" id="msg15"><line style="stroke:#111827;stroke-width:1;" x1="1041.437" x2="1031.437" y1="1007.4297" y2="1003.4297"/><line style="stroke:#111827;stroke-width:1;" x1="1041.437" x2="1031.437" y1="1007.4297" y2="1011.4297"/><line style="stroke:#111827;stroke-width:1;stroke-dasharray:2,2;" x1="625.1626" x2="1042.437" y1="1007.4297" y2="1007.4297"/><text fill="#000000" font-family="'Arial'" font-size="13" font-weight="700" lengthAdjust="spacing" textLength="18.0908" x="632.1626" y="1002.3638">15</text><text fill="#000000" font-family="'Arial'" font-size="13" lengthAdjust="spacing" textLength="18.7573" x="654.2534" y="1002.3638">OK</text></g><path d="M441,1025.4297 L441,1041.4297 A5,5 0 0 0 446,1046.4297 L800,1046.4297 A5,5 0 0 0 805,1041.4297 L805,1030.4297 L795,1020.4297 L446,1020.4297 A5,5 0 0 0 441,1025.4297" fill="url(#gj6wx6dkike8a0)" filter="url(#fj6wx6dkike8a)" style="stroke:#8B95A5;stroke-width:1;"/><path d="M795,1020.4297 L795,1027.9297 A2.5,2.5 0 0 0 797.5,1030.4297 L805,1030.4297 L795,1020.4297" fill="url(#gj6wx6dkike8a0)" style="stroke:#8B95A5;stroke-width:1;"/><text fill="#111827" font-family="'Arial'" font-size="14" lengthAdjust="spacing" textLength="343.4238" x="447" y="1038.4248">Medikationsplan wurde durch GDA 2 aktualisiert.</text><rect fill="#EEEEEE" height="3" rx="5" ry="5" style="stroke:#EEEEEE;stroke-width:1;" width="1429.2808" x="0" y="1075.875"/><line style="stroke:#000000;stroke-width:1;" x1="0" x2="1429.2808" y1="1075.875" y2="1075.875"/><line style="stroke:#000000;stroke-width:1;" x1="0" x2="1429.2808" y1="1078.875" y2="1078.875"/><rect fill="#EEEEEE" height="24.2969" rx="5" ry="5" style="stroke:#000000;stroke-width:2;" width="229.4688" x="599.906" y="1064.7266"/><text fill="#000000" font-family="'Arial'" font-size="14" font-weight="700" lengthAdjust="spacing" textLength="210.5947" x="605.906" y="1081.7217">Plan-Write-Error f&#252;r GDA 1</text><g class="message" data-entity-1="part1" data-entity-2="part2" data-source-line="114" id="msg16"><line style="stroke:#111827;stroke-width:1;" x1="618.1626" x2="608.1626" y1="1120.1563" y2="1116.1563"/><line style="stroke:#111827;stroke-width:1;" x1="618.1626" x2="608.1626" y1="1120.1563" y2="1124.1563"/><line style="stroke:#111827;stroke-width:1;" x1="142.0293" x2="619.1626" y1="1120.1563" y2="1120.1563"/><text fill="#000000" font-family="'Arial'" font-size="13" font-weight="700" lengthAdjust="spacing" textLength="18.0908" x="149.0293" y="1115.0903">16</text><text fill="#000000" font-family="'Arial'" font-size="13" lengthAdjust="spacing" textLength="344.4937" x="171.1201" y="1115.0903">POST $plan-write (Transaction Bundle + ETag "123")</text></g><g class="message" data-entity-1="part2" data-entity-2="part2" data-source-line="117" id="msg17"><line style="stroke:#111827;stroke-width:1;" x1="630.1626" x2="672.1626" y1="1179.5547" y2="1179.5547"/><line style="stroke:#111827;stroke-width:1;" x1="672.1626" x2="672.1626" y1="1179.5547" y2="1192.5547"/><line style="stroke:#111827;stroke-width:1;" x1="631.1626" x2="672.1626" y1="1192.5547" y2="1192.5547"/><polygon fill="#111827" points="641.1626,1188.5547,631.1626,1192.5547,641.1626,1196.5547,637.1626,1192.5547" style="stroke:#111827;stroke-width:1;stroke-linejoin:miter;stroke-miterlimit:10;"/><text fill="#000000" font-family="'Arial'" font-size="13" font-weight="700" lengthAdjust="spacing" textLength="18.0908" x="637.1626" y="1159.356">17</text><text fill="#000000" font-family="'Arial'" font-size="13" lengthAdjust="spacing" textLength="231.6577" x="659.2534" y="1144.2231">ETag im Header "123" stimmt nicht</text><text fill="#000000" font-family="'Arial'" font-size="13" lengthAdjust="spacing" textLength="229.5503" x="659.2534" y="1159.356">mit ETag der Fachanwendung "124</text><text fill="#000000" font-family="'Arial'" font-size="13" lengthAdjust="spacing" textLength="49.6831" x="659.2534" y="1174.4888">&#252;berein</text></g><g class="message" data-entity-1="part2" data-entity-2="part2" data-source-line="118" id="msg18"><line style="stroke:#111827;stroke-width:1;" x1="630.1626" x2="672.1626" y1="1221.6875" y2="1221.6875"/><line style="stroke:#111827;stroke-width:1;" x1="672.1626" x2="672.1626" y1="1221.6875" y2="1234.6875"/><line style="stroke:#111827;stroke-width:1;" x1="631.1626" x2="672.1626" y1="1234.6875" y2="1234.6875"/><polygon fill="#111827" points="641.1626,1230.6875,631.1626,1234.6875,641.1626,1238.6875,637.1626,1234.6875" style="stroke:#111827;stroke-width:1;stroke-linejoin:miter;stroke-miterlimit:10;"/><text fill="#000000" font-family="'Arial'" font-size="13" font-weight="700" lengthAdjust="spacing" textLength="18.0908" x="637.1626" y="1216.6216">18</text><text fill="#000000" font-family="'Arial'" font-size="13" lengthAdjust="spacing" textLength="233.7715" x="659.2534" y="1216.6216">Fachanwendung lehnt Speichern ab</text></g><g class="message" data-entity-1="part2" data-entity-2="part1" data-source-line="119" id="msg19"><line style="stroke:#111827;stroke-width:1;" x1="138.0293" x2="148.0293" y1="1263.8203" y2="1259.8203"/><line style="stroke:#111827;stroke-width:1;" x1="138.0293" x2="148.0293" y1="1263.8203" y2="1267.8203"/><line style="stroke:#111827;stroke-width:1;stroke-dasharray:2,2;" x1="137.0293" x2="624.1626" y1="1263.8203" y2="1263.8203"/><text fill="#000000" font-family="'Arial'" font-size="13" font-weight="700" lengthAdjust="spacing" textLength="18.0908" x="154.0293" y="1258.7544">19</text><text fill="#000000" font-family="'Arial'" font-size="13" lengthAdjust="spacing" textLength="104.0889" x="176.1201" y="1258.7544">Fehler (Konflikt)</text></g><path d="M19,1281.8203 L19,1297.8203 A5,5 0 0 0 24,1302.8203 L733,1302.8203 A5,5 0 0 0 738,1297.8203 L738,1286.8203 L728,1276.8203 L24,1276.8203 A5,5 0 0 0 19,1281.8203" fill="url(#gj6wx6dkike8a0)" filter="url(#fj6wx6dkike8a)" style="stroke:#8B95A5;stroke-width:1;"/><path d="M728,1276.8203 L728,1284.3203 A2.5,2.5 0 0 0 730.5,1286.8203 L738,1286.8203 L728,1276.8203" fill="url(#gj6wx6dkike8a0)" style="stroke:#8B95A5;stroke-width:1;"/><text fill="#111827" font-family="'Arial'" font-size="14" lengthAdjust="spacing" textLength="698.6738" x="25" y="1294.8154">Speichern des Medikationsplans wurde abgelehnt, der GDA 1 muss ein neues Plan-Read ausf&#252;hren.</text><g class="footer" data-source-line="127"><text fill="#000000" font-family="'Arial'" font-size="10" lengthAdjust="spacing" textLength="80.1123" x="674.0842" y="1410.6963">Plan-Write-Error</text></g><?plantuml-src rLRDRjj64BxlKmpa7cmqIapQgkK22Y2dTWe4ROJOJO52GB0aX-H2r5BTdyXrqRVnO_Yc5-liaX99YMcQzDJLHTgP-NRc-sPdfHT2hhZYIuXAbQ1wLHQbWgDJlvXkh3nUPAgqCgazqf7xj3nqpfDoBMG6AIyqjYnrc9Ae86Y39fXoMvYRKfgV-H9XC5M25uD-ZrlnW12SznkxQRTyP6aG_cG0L_i5u2cEqjFXKH8ab_YTysWJC8ukHtoqsxtBHRoGg3K4jFUkLT2OVizuahZ27Kehco08nk45xTtkg37A8lkhdU2FVwnG5K8kMYLSN_Sv_28J_mLhWjlSu-yMPLnLEkFAY5Yik3ITaaP-xJaSoEfNr-cGu0FpLfoEOKjBw0AcIfNhVMByPfTRlzLtuivGdNL6MwyfyrMdnXroPJhG7DFGLzUAR8uFkyfSbVUj2ZhxVRoogBo7mLmI-0zJ2006S7IPqhrnhF3Oa2iPFWJ0DGoyou2XJEZUtRTY_SBXJvZ03OzpBjVaOoc5QX7cg_FnnONhkbN3D205VBYPUkmwUjeFxquEFL2472Fi91VkaWjxecVS2AJ3V32FpyRHBdXhSk7rznO0uzQKqYuZL8m1cqnWLd0vV8SyWSIgEAyfcqmOmOcFdEwivufLZ0rVljnM-3tCtjxUmJSh1w08W3KXjGlRaZ5iHKsbvFaIALnjdb97ABSfHAWDvfGdohaaLx6Wt4kf7JgWIiiYKoZYl1UIv2ymTlvmHIrM83nO1LEh2u4fAdS6Ai8l2iCQ05UBhweFu5kulkCP38BmRC0IFAXinySMubf8epQF6K8kv8DDDqyPoXURHpSgv0jIWHAHA1dpSx3yYAeXbWYd5b0H2eC6zghtuhaWzYcvGYSNgxhc7mNgI1h-N_KAlrglSAjN-DLwXQnY_8lq-bMHunSAjlOnntUAIyrzgNFPK-l9lrInYG11Bnbr0nKqcSobDxWVtI5N4Tc7z9uN8X6LIX8jHReQv_9uWUv5j4HciNdKMcIkDNwpsd2PwCqJZPoCwCtmf1TsHeeBJVDA6GyBxzq62PoWFkWmJHoWUa2RLSwoheEoFXyyxssPjs-WtHVr3MZ4tPAttyjhImzCHpk-C9Ouq2xLvosr-xgkqm73Qteu5L2hgMRCVcQm7hO1_DSkQFIl-e58Now9HxgjPYwNmi2dU-9yBhsI97Nl0Ts00dDwYMvNRX3GRG8UzKxV6ymBEkpuJIdJGYpCoRvGmQ5Epsf30qvz0WTjKgd7emnzBizyLHNtIqj_DAWEtq2wDLYvrIHHhb1-JjsOnWJXfMLfwclG5lfl?></g></svg>