<?xml version="1.0" encoding="us-ascii" standalone="no"?><svg xmlns="http://www.w3.org/2000/svg" xmlns:xlink="http://www.w3.org/1999/xlink" contentStyleType="text/css" height="677px" preserveAspectRatio="none" style="width:644px;height:677px;background:#FFFFFF;" version="1.1" viewBox="0 0 644 677" width="644px" zoomAndPan="magnify"><defs/><g><text fill="#000000" font-family="Arial" font-size="14" font-weight="bold" lengthAdjust="spacing" textLength="255" x="187.5" y="23.1318">REST-Schnittstellen: https://[server]/</text><!--cluster Server--><g id="cluster_Server"><rect fill="#E97232" fill-opacity="0.74118" height="219" rx="2" ry="2" style="stroke:#181818;stroke-width:1.0;" width="222" x="416" y="186.5986"/><rect fill="#E97232" fill-opacity="0.74118" height="10" style="stroke:#181818;stroke-width:1.0;" width="15" x="618" y="191.5986"/><rect fill="#E97232" fill-opacity="0.74118" height="2" style="stroke:#181818;stroke-width:1.0;" width="4" x="616" y="193.5986"/><rect fill="#E97232" fill-opacity="0.74118" height="2" style="stroke:#181818;stroke-width:1.0;" width="4" x="616" y="197.5986"/><text fill="#000000" font-family="Arial" font-size="12" font-weight="bold" lengthAdjust="spacing" textLength="30" x="512" y="210.8545">ELGA</text><text fill="#000000" font-family="Arial" font-size="12" font-weight="bold" lengthAdjust="spacing" textLength="73" x="490.5" y="224.6533">e-Medikation</text></g><text fill="#000000" font-family="Arial" font-size="12" lengthAdjust="spacing" textLength="113" x="370" y="422.8545">MedicationDispense</text><text fill="#000000" font-family="Arial" font-size="12" lengthAdjust="spacing" textLength="138" x="357.5" y="436.6533">(Durchgef&#252;hrte Abgaben)</text><rect fill="#F1F1F1" height="12" style="stroke:#181818;stroke-width:1.5;" width="12" x="420.5" y="399.5986"/><text fill="#000000" font-family="Arial" font-size="12" lengthAdjust="spacing" textLength="106" x="369.5" y="351.8545">MedicationRequest</text><text fill="#000000" font-family="Arial" font-size="12" lengthAdjust="spacing" textLength="98" x="373.5" y="365.6533">(Planeintr&#228;ge und</text><text fill="#000000" font-family="Arial" font-size="12" lengthAdjust="spacing" textLength="106" x="369.5" y="379.4521">Geplante Abgaben)</text><rect fill="#F1F1F1" height="12" style="stroke:#181818;stroke-width:1.5;" width="12" x="416.5" y="328.5986"/><text fill="#000000" font-family="Arial" font-size="12" lengthAdjust="spacing" textLength="39" x="402" y="229.2568">Bundle</text><text fill="#000000" font-family="Arial" font-size="12" lengthAdjust="spacing" textLength="98" x="372.5" y="243.0557">(Medikationsplan)</text><rect fill="#F1F1F1" height="12" style="stroke:#181818;stroke-width:1.5;" width="12" x="415.5" y="257.5986"/><text fill="#000000" font-family="Arial" font-size="12" lengthAdjust="spacing" textLength="30" x="401" y="184.0557">eMed</text><rect fill="#F1F1F1" height="12" style="stroke:#181818;stroke-width:1.5;" width="12" x="410" y="198.5986"/><!--class IDurchgAbgabe--><g id="elem_IDurchgAbgabe"><rect codeLine="46" fill="#F1F1F1" height="114.9941" id="IDurchgAbgabe" rx="2" ry="2" style="stroke:#181818;stroke-width:0.5;" width="204" x="51" y="466.0986"/><ellipse cx="65" cy="481.0986" fill="#B4A7E5" rx="10" ry="10" style="stroke:#181818;stroke-width:1.0;"/><path d="M66.2031,479.1924 L66.2031,483.8955 L67.4219,483.8955 Q67.8438,483.8955 68.0313,484.0674 Q68.2188,484.2236 68.2188,484.5049 Q68.2188,484.7705 68.0313,484.9424 Q67.8438,485.0986 67.4219,485.0986 L63.7813,485.0986 Q63.3594,485.0986 63.1719,484.9424 Q62.9844,484.7705 62.9844,484.4893 Q62.9844,484.2236 63.1719,484.0674 Q63.3594,483.8955 63.7813,483.8955 L65,483.8955 L65,479.1924 L63.7813,479.1924 Q63.3594,479.1924 63.1719,479.0361 Q62.9844,478.8643 62.9844,478.5986 Q62.9844,478.3174 63.1719,478.1611 Q63.3594,477.9893 63.7813,477.9893 L67.4219,477.9893 Q67.8438,477.9893 68.0313,478.1611 Q68.2188,478.3174 68.2188,478.5986 Q68.2188,478.8643 68.0313,479.0361 Q67.8438,479.1924 67.4219,479.1924 L66.2031,479.1924 Z " fill="#000000"/><text fill="#000000" font-family="Arial" font-size="12" font-style="italic" lengthAdjust="spacing" textLength="174" x="78" y="485.4551">Patient/[id]/MedicationDispense/</text><line style="stroke:#181818;stroke-width:0.5;" x1="52" x2="254" y1="496.0986" y2="496.0986"/><text fill="#000000" font-family="Arial" font-size="12" lengthAdjust="spacing" textLength="172" x="57" y="511.3545">&#171;POST&#187; $dispense-write [GDA]</text><text fill="#000000" font-family="Arial" font-size="12" lengthAdjust="spacing" textLength="187" x="57" y="525.1533">&#171;POST&#187; $dispense-discard [GDA]</text><text fill="#000000" font-family="Arial" font-size="12" lengthAdjust="spacing" textLength="170" x="57" y="538.9521">&#171;POST&#187; $reference-plan [GDA]</text><line style="stroke:#181818;stroke-width:0.5;" x1="52" x2="254" y1="545.4951" y2="545.4951"/><text fill="#000000" font-family="Arial" font-size="12" lengthAdjust="spacing" textLength="192" x="57" y="560.751">&#171;GET&#187; (dispense-read) [GDA, PAT]</text><text fill="#000000" font-family="Arial" font-size="12" lengthAdjust="spacing" textLength="137" x="57" y="574.5498">&#171;DELETE&#187; (delete) [PAT]</text></g><!--class IMedicationRequest--><g id="elem_IMedicationRequest"><rect codeLine="54" fill="#F1F1F1" height="114.9941" id="IMedicationRequest" rx="2" ry="2" style="stroke:#181818;stroke-width:0.5;" width="289" x="8.5" y="316.0986"/><ellipse cx="65" cy="331.0986" fill="#B4A7E5" rx="10" ry="10" style="stroke:#181818;stroke-width:1.0;"/><path d="M66.2031,329.1924 L66.2031,333.8955 L67.4219,333.8955 Q67.8438,333.8955 68.0313,334.0674 Q68.2188,334.2236 68.2188,334.5049 Q68.2188,334.7705 68.0313,334.9424 Q67.8438,335.0986 67.4219,335.0986 L63.7813,335.0986 Q63.3594,335.0986 63.1719,334.9424 Q62.9844,334.7705 62.9844,334.4893 Q62.9844,334.2236 63.1719,334.0674 Q63.3594,333.8955 63.7813,333.8955 L65,333.8955 L65,329.1924 L63.7813,329.1924 Q63.3594,329.1924 63.1719,329.0361 Q62.9844,328.8643 62.9844,328.5986 Q62.9844,328.3174 63.1719,328.1611 Q63.3594,327.9893 63.7813,327.9893 L67.4219,327.9893 Q67.8438,327.9893 68.0313,328.1611 Q68.2188,328.3174 68.2188,328.5986 Q68.2188,328.8643 68.0313,329.0361 Q67.8438,329.1924 67.4219,329.1924 L66.2031,329.1924 Z " fill="#000000"/><text fill="#000000" font-family="Arial" font-size="12" font-style="italic" lengthAdjust="spacing" textLength="168" x="84" y="335.4551">Patient/[id]/MedicationRequest/</text><line style="stroke:#181818;stroke-width:0.5;" x1="9.5" x2="296.5" y1="346.0986" y2="346.0986"/><text fill="#000000" font-family="Arial" font-size="12" lengthAdjust="spacing" textLength="185" x="14.5" y="361.3545">&#171;POST&#187; $prescription-write [GDA]</text><text fill="#000000" font-family="Arial" font-size="12" lengthAdjust="spacing" textLength="200" x="14.5" y="375.1533">&#171;POST&#187; $prescription-discard [GDA]</text><line style="stroke:#181818;stroke-width:0.5;" x1="9.5" x2="296.5" y1="381.6963" y2="381.6963"/><text fill="#000000" font-family="Arial" font-size="12" lengthAdjust="spacing" textLength="277" x="14.5" y="396.9521">&#171;GET&#187; (search?category=GeplAbgabe) [GDA, PAT]</text><text fill="#000000" font-family="Arial" font-size="12" lengthAdjust="spacing" textLength="272" x="14.5" y="410.751">&#171;GET&#187; (search?category=Planeintrag) [GDA, PAT]</text><text fill="#000000" font-family="Arial" font-size="12" lengthAdjust="spacing" textLength="137" x="14.5" y="424.5498">&#171;DELETE&#187; (delete) [PAT]</text></g><!--class IBundle--><g id="elem_IBundle"><rect codeLine="62" fill="#F1F1F1" height="114.9941" id="IBundle" rx="2" ry="2" style="stroke:#181818;stroke-width:0.5;" width="216" x="45" y="166.0986"/><ellipse cx="98" cy="181.0986" fill="#B4A7E5" rx="10" ry="10" style="stroke:#181818;stroke-width:1.0;"/><path d="M99.2031,179.1924 L99.2031,183.8955 L100.4219,183.8955 Q100.8438,183.8955 101.0313,184.0674 Q101.2188,184.2236 101.2188,184.5049 Q101.2188,184.7705 101.0313,184.9424 Q100.8438,185.0986 100.4219,185.0986 L96.7813,185.0986 Q96.3594,185.0986 96.1719,184.9424 Q95.9844,184.7705 95.9844,184.4893 Q95.9844,184.2236 96.1719,184.0674 Q96.3594,183.8955 96.7813,183.8955 L98,183.8955 L98,179.1924 L96.7813,179.1924 Q96.3594,179.1924 96.1719,179.0361 Q95.9844,178.8643 95.9844,178.5986 Q95.9844,178.3174 96.1719,178.1611 Q96.3594,177.9893 96.7813,177.9893 L100.4219,177.9893 Q100.8438,177.9893 101.0313,178.1611 Q101.2188,178.3174 101.2188,178.5986 Q101.2188,178.8643 101.0313,179.0361 Q100.8438,179.1924 100.4219,179.1924 L99.2031,179.1924 Z " fill="#000000"/><text fill="#000000" font-family="Arial" font-size="12" font-style="italic" lengthAdjust="spacing" textLength="102" x="117" y="185.4551">Patient/[id]/Bundle/</text><line style="stroke:#181818;stroke-width:0.5;" x1="46" x2="260" y1="196.0986" y2="196.0986"/><text fill="#000000" font-family="Arial" font-size="12" lengthAdjust="spacing" textLength="171" x="51" y="211.3545">&#171;POST&#187; $plan-read [GDA, PAT]</text><text fill="#000000" font-family="Arial" font-size="12" lengthAdjust="spacing" textLength="144" x="51" y="225.1533">&#171;POST&#187; $plan-write [GDA]</text><text fill="#000000" font-family="Arial" font-size="12" lengthAdjust="spacing" textLength="182" x="51" y="238.9521">&#171;POST&#187; $patient-plan-write [PAT]</text><text fill="#000000" font-family="Arial" font-size="12" lengthAdjust="spacing" textLength="149" x="51" y="252.751">&#171;POST&#187; $plan-delete [PAT]</text><line style="stroke:#181818;stroke-width:0.5;" x1="46" x2="260" y1="259.2939" y2="259.2939"/><text fill="#000000" font-family="Arial" font-size="12" lengthAdjust="spacing" textLength="204" x="51" y="274.5498">&#171;GET&#187; (plan-history-read) [GDA, PAT]</text></g><!--class IEmed--><g id="elem_IEmed"><rect codeLine="70" fill="#F1F1F1" height="87.3965" id="IEmed" rx="2" ry="2" style="stroke:#181818;stroke-width:0.5;" width="292" x="7" y="44.0986"/><ellipse cx="147.5" cy="59.0986" fill="#B4A7E5" rx="10" ry="10" style="stroke:#181818;stroke-width:1.0;"/><path d="M148.7031,57.1924 L148.7031,61.8955 L149.9219,61.8955 Q150.3438,61.8955 150.5313,62.0674 Q150.7188,62.2236 150.7188,62.5049 Q150.7188,62.7705 150.5313,62.9424 Q150.3438,63.0986 149.9219,63.0986 L146.2813,63.0986 Q145.8594,63.0986 145.6719,62.9424 Q145.4844,62.7705 145.4844,62.4893 Q145.4844,62.2236 145.6719,62.0674 Q145.8594,61.8955 146.2813,61.8955 L147.5,61.8955 L147.5,57.1924 L146.2813,57.1924 Q145.8594,57.1924 145.6719,57.0361 Q145.4844,56.8643 145.4844,56.5986 Q145.4844,56.3174 145.6719,56.1611 Q145.8594,55.9893 146.2813,55.9893 L149.9219,55.9893 Q150.3438,55.9893 150.5313,56.1611 Q150.7188,56.3174 150.7188,56.5986 Q150.7188,56.8643 150.5313,57.0361 Q150.3438,57.1924 149.9219,57.1924 L148.7031,57.1924 Z " fill="#000000"/><text fill="#000000" font-family="Arial" font-size="12" font-style="italic" lengthAdjust="spacing" textLength="3" x="166.5" y="63.4551">/</text><line style="stroke:#181818;stroke-width:0.5;" x1="8" x2="298" y1="74.0986" y2="74.0986"/><text fill="#000000" font-family="Arial" font-size="12" lengthAdjust="spacing" textLength="207" x="13" y="89.3545">&#171;POST&#187; $groupidentifier-create [GDA]</text><text fill="#000000" font-family="Arial" font-size="12" lengthAdjust="spacing" textLength="280" x="13" y="103.1533">&#171;POST&#187; $groupidentifier-prescription-search [GDA]</text><text fill="#000000" font-family="Arial" font-size="12" lengthAdjust="spacing" textLength="267" x="13" y="116.9521">&#171;POST&#187; $groupidentifier-dispense-search [GDA]</text><line style="stroke:#181818;stroke-width:0.5;" x1="8" x2="298" y1="123.4951" y2="123.4951"/></g><!--link IDurchgAbgabe to p5--><g id="link_IDurchgAbgabe_p5"><path codeLine="87" d="M255.28,479.6586 C321.44,450.9586 399.34,417.1686 420.48,407.9986 " fill="none" id="IDurchgAbgabe-p5" style="stroke:#181818;stroke-width:1.0;"/></g><!--link IMedicationRequest to p4--><g id="link_IMedicationRequest_p4"><path codeLine="88" d="M297.81,352.6686 C349.96,345.0786 400.12,337.7786 416.46,335.4086 " fill="none" id="IMedicationRequest-p4" style="stroke:#181818;stroke-width:1.0;"/></g><!--link IBundle to p2--><g id="link_IBundle_p2"><path codeLine="89" d="M261.06,239.6386 C324.03,249.0686 395.17,259.7286 415.38,262.7586 " fill="none" id="IBundle-p2" style="stroke:#181818;stroke-width:1.0;"/></g><!--link IEmed to p1--><g id="link_IEmed_p1"><path codeLine="90" d="M259.22,131.1086 C272.65,136.8886 286.18,142.8086 299,148.5986 C342.21,168.0986 393.41,193.7086 409.73,201.9286 " fill="none" id="IEmed-p1" style="stroke:#181818;stroke-width:1.0;"/></g><rect fill="none" height="58.2959" id="_legend" rx="2" ry="2" style="stroke:#000000;stroke-width:1.0;" width="254" x="364" y="599.0928"/><text fill="#000000" font-family="Arial" font-size="14" font-weight="bold" lengthAdjust="spacing" textLength="184" x="369" y="617.2246">Legende Berechtigungen:</text><text fill="#000000" font-family="Arial" font-size="14" lengthAdjust="spacing" textLength="232" x="369" y="633.3232">[GDA] = Gesundheitsdiensteanbieter</text><text fill="#000000" font-family="Arial" font-size="14" lengthAdjust="spacing" textLength="244" x="369" y="649.4219">[PAT] = PATIENT: ELGA-Teilnehmer:in</text><!--SRC=[ZLRRRjiu47skle9D5yW5aPquTHSRe5Z8ik8OiQt0KWDiqyAWfR54XAQq99qqkyZVz6q_OVUf_R4TIeehnJPGloJcd27Fd3aScdAUFIpP5oOIQv-yPYBYgnZ8NgfrhixRRKaVMWdJwMg-KY2ZJ6WGkXLboxPUvJIMP-sSKw5NIsupZDeBHDWgbqo3Qj-VjKvQ9sqJKEqYGXz0PKkmkssptIpE8ft9LexfUnQUhvdcG6964qcNIrmOklvarlVTWn9vF1hUUCUrrECvfz7T8NappHufx_4Lc6sK1frcAifoU3NmRsP1w8MNVk3wrnv6vnGPHp1J4UNmwiBfpdhEo9cutYnmdP51B3XLTqNaOkG4LxYIKX7Fqep7gDDi2J73t09mwKpwiqj_r1zE1hEnrn_Y5WOFLEevK5s2F6SQzZmdn0XAjqG96vku_dZiJS9QViIPO54JD1fEXkuQOrdgZecSeb1cppmJk6kW7r4_LBDJY-Qe44sWZ4c8D1K9Xth-F9CnI3VZcIHlkiMd7iNyH6Oh4LU8Y-9JGwYKnja3IaCMb2keHQeqAK2IjxNr61PqnVK5Uc92b-WtHpAA7jYA2DXVG4uxsuCLfvFYOrclCSG44DSV-TEPXshDBXn2ti1lltREElFOsCCeKP3z_fya7yOZ- -fPFn04-P8WIWNJ6ct4EIuTNA4V55DH2YK-q8mVRjEV_6qHqdkXLuCAnlTxTRbFpjwzwxypovlLL8jbv-ReFkkftZQ6XEM2Hb0Skz_RqQUD4q-whjirMt5OQA8p8bcIQhnsnXmi4vPLtiEf5uHsKujpyZmORl4IteFytBQi7ppshgbcg4FxbiMVs-F2lMR7FbCv20NjFK8L6VPNCaeJPvxGUSdzspy3B_psBpc8Aw0jWSQ7v7RGTux9jHD-Ba3NVc1GlwnH3sRE5AWT0FmdeZBU0f6m00au1smpm6g0lZVoGgyW0nmq88k2mDFF53g5FrUWT5NdndgpM8L38af_HmGacNnyFu2Sbw9iLBuZungf0xAIDAcda4QbkGGLIPOR7ZiLQu0sLTif2jcjIW-To9zRNdvfrc-4jrEcS8u_RZJyHGq6QY2xB540TXPNqhBheEqxbDLjxNXLY8SpkIhZETDSkfp5U09RC91sX4ItydW9R8XUzlOdijRcRcGycSbcspO9_i3dRdpbZw_z2Jug7ZduY7-c-B9DIU1DRxpfeS5Pre-fjUUD1iud0ROnx5rXsABOeBZYHRLv9X6tUQC_YOFoDWDEqrHYsQM3nM6nGzxTabjT1anT-_VxrmJCwFqap2N07nGlztcxtgTq4YR_8AjCIWNih860W7BjrAXZMNcNsAlSRiuVAtzRhMuGjF9E5IhFjFBJwhinWMNcPmBuN1JZ4uyzEXeL2q1wE5gYLBDa9N3X_EW8eqMRo7io08MxfS2qYj6LE5Yfc3DqdJIWmlhlZR-7sBLpOZfZXy2uW7G9yfm9onnPdlpSScVgNWv3xohyCBKdVZZ4XfSjtYSYq-Rfq3fRacnHTHJN3LjyoaYdTKBSjH62728qMQa2iZQuZs3c2mT5wlvGTl28r9VaZkOAk2OvI7mYyPwX1ueyV6ru-PwGKZv53kvRfwHDxbkTm-AT3IKLYZOmBSmr1HhUQ_xb-uJqdnjHyf-2KXcs4WI-u6YPB_gyukm9dNx_YgmsUdfSnAivXND4ckDD76JZwFy1]--></g></svg>