<svg xmlns="http://www.w3.org/2000/svg" xmlns:xlink="http://www.w3.org/1999/xlink" contentStyleType="text/css" data-diagram-type="SEQUENCE" height="1036px" preserveAspectRatio="none" style="width:993px;height:1036px;background:#F5F5F5;" version="1.1" viewBox="0 0 993 1036" width="993px" zoomAndPan="magnify"><?plantuml 1.2026.7beta1?><defs><linearGradient id="g1q00nbtp44f2w0" x1="50%" x2="50%" y1="0%" y2="100%"><stop offset="0%" stop-color="#E0E5F0"/><stop offset="100%" stop-color="#D1D9E6"/></linearGradient><filter height="300%" id="f1q00nbtp44f2w" width="300%" x="-1" y="-1"><feGaussianBlur result="blurOut" stdDeviation="2"/><feColorMatrix in="blurOut" result="blurOut2" type="matrix" values="0 0 0 0 0 0 0 0 0 0 0 0 0 0 0 0 0 0 .4 0"/><feOffset dx="4" dy="4" in="blurOut2" result="blurOut3"/><feBlend in="SourceGraphic" in2="blurOut3" mode="normal"/></filter></defs><g><rect fill="#F5F5F5" height="1036" style="stroke:none;stroke-width:1;" width="993" x="0" y="0"/><g class="title" data-source-line="1"><text fill="#000000" font-family="'Arial'" font-size="14" font-weight="700" lengthAdjust="spacing" textLength="129.3223" x="428.832" y="27.9951">Plan-Write-Error</text></g><g><title>GDA 1</title><rect fill="#3588A7" fill-opacity="0.29804" height="686.5313" style="stroke:#181818;stroke-width:1;" width="10" x="151.2817" y="194.0234"/></g><g><title>e-Med FA</title><rect fill="#A14C37" fill-opacity="0.47059" height="29.1328" style="stroke:#181818;stroke-width:1;" width="10" x="537.8208" y="194.0234"/></g><g><title>e-Med FA</title><rect fill="#A14C37" fill-opacity="0.47059" height="29.1328" style="stroke:#181818;stroke-width:1;" width="10" x="537.8208" y="352.1797"/></g><g><title>e-Med FA</title><rect fill="#A14C37" fill-opacity="0.47059" height="86.3984" style="stroke:#181818;stroke-width:1;" width="10" x="537.8208" y="525.4688"/></g><g><title>e-Med FA</title><rect fill="#A14C37" fill-opacity="0.47059" height="155.9609" style="stroke:#181818;stroke-width:1;" width="10" x="537.8208" y="724.5938"/></g><g><title>GDA 2</title><rect fill="#CA89CA" fill-opacity="0.37255" height="259.6875" style="stroke:#181818;stroke-width:1;" width="10" x="826.7881" y="352.1797"/></g><g class="participant-lifeline" data-entity-uid="part1" data-qualified-name="GDA_1" data-source-line="49" id="part1-lifeline"><g><title>GDA 1</title><rect fill="#000000" fill-opacity="0.00000" height="835.5547" width="8" x="152.2817" y="118.5938"/><line style="stroke:#181818;stroke-width:0.5;stroke-dasharray:5,5;" x1="156" x2="156" y1="118.5938" y2="954.1484"/></g></g><g class="participant-lifeline" data-entity-uid="part2" data-qualified-name="eMed_FA" data-source-line="51" id="part2-lifeline"><g><title>e-Med FA</title><rect fill="#000000" fill-opacity="0.00000" height="835.5547" width="8" x="538.8208" y="118.5938"/><line style="stroke:#181818;stroke-width:0.5;stroke-dasharray:5,5;" x1="542.1587" x2="542.1587" y1="118.5938" y2="954.1484"/></g></g><g class="participant-lifeline" data-entity-uid="part3" data-qualified-name="GDA_2" data-source-line="53" id="part3-lifeline"><g><title>GDA 2</title><rect fill="#000000" fill-opacity="0.00000" height="835.5547" width="8" x="827.7881" y="118.5938"/><line style="stroke:#181818;stroke-width:0.5;stroke-dasharray:5,5;" x1="831.5063" x2="831.5063" y1="118.5938" y2="954.1484"/></g></g><g class="participant-lifeline" data-entity-uid="part4" data-qualified-name="Patient" data-source-line="55" id="part4-lifeline"><g><title>Patient</title><rect fill="#000000" fill-opacity="0.00000" height="835.5547" width="8" x="890.7578" y="118.5938"/><line style="stroke:#181818;stroke-width:0.5;stroke-dasharray:5,5;" x1="894.0698" x2="894.0698" y1="118.5938" y2="954.1484"/></g></g><g class="participant participant-head" data-entity-uid="part1" data-qualified-name="GDA_1" data-source-line="49" id="part1-head"><text fill="#000000" font-family="'Arial'" font-size="14" lengthAdjust="spacing" textLength="44.5635" x="131" y="115.292">GDA 1</text><ellipse cx="156.2817" cy="50.7969" fill="#3588A7" fill-opacity="0.29804" rx="8" ry="8" style="stroke:#181818;stroke-width:0.5;"/><path d="M156.2817,58.7969 L156.2817,85.7969 M143.2817,66.7969 L169.2817,66.7969 M156.2817,85.7969 L143.2817,100.7969 M156.2817,85.7969 L169.2817,100.7969" fill="none" style="stroke:#181818;stroke-width:0.5;"/></g><g class="participant participant-tail" data-entity-uid="part1" data-qualified-name="GDA_1" data-source-line="49" id="part1-tail"><text fill="#000000" font-family="'Arial'" font-size="14" lengthAdjust="spacing" textLength="44.5635" x="131" y="966.1436">GDA 1</text><ellipse cx="156.2817" cy="977.9453" fill="#3588A7" fill-opacity="0.29804" rx="8" ry="8" style="stroke:#181818;stroke-width:0.5;"/><path d="M156.2817,985.9453 L156.2817,1012.9453 M143.2817,993.9453 L169.2817,993.9453 M156.2817,1012.9453 L143.2817,1027.9453 M156.2817,1012.9453 L169.2817,1027.9453" fill="none" style="stroke:#181818;stroke-width:0.5;"/></g><g class="participant participant-head" data-entity-uid="part2" data-qualified-name="eMed_FA" data-source-line="51" id="part2-head"><rect fill="#A14C37" fill-opacity="0.47059" height="30.2969" rx="5" ry="5" style="stroke:#555555;stroke-width:0.5;" width="79.3242" x="503.1587" y="87.2969"/><text fill="#000000" font-family="'Arial'" font-size="14" lengthAdjust="spacing" textLength="65.3242" x="510.1587" y="107.292">e-Med FA</text></g><g class="participant participant-tail" data-entity-uid="part2" data-qualified-name="eMed_FA" data-source-line="51" id="part2-tail"><rect fill="#A14C37" fill-opacity="0.47059" height="30.2969" rx="5" ry="5" style="stroke:#555555;stroke-width:0.5;" width="79.3242" x="503.1587" y="953.1484"/><text fill="#000000" font-family="'Arial'" font-size="14" lengthAdjust="spacing" textLength="65.3242" x="510.1587" y="973.1436">e-Med FA</text></g><g class="participant participant-head" data-entity-uid="part3" data-qualified-name="GDA_2" data-source-line="53" id="part3-head"><text fill="#000000" font-family="'Arial'" font-size="14" lengthAdjust="spacing" textLength="44.5635" x="806.5063" y="115.292">GDA 2</text><ellipse cx="831.7881" cy="50.7969" fill="#CA89CA" fill-opacity="0.37255" rx="8" ry="8" style="stroke:#181818;stroke-width:0.5;"/><path d="M831.7881,58.7969 L831.7881,85.7969 M818.7881,66.7969 L844.7881,66.7969 M831.7881,85.7969 L818.7881,100.7969 M831.7881,85.7969 L844.7881,100.7969" fill="none" style="stroke:#181818;stroke-width:0.5;"/></g><g class="participant participant-tail" data-entity-uid="part3" data-qualified-name="GDA_2" data-source-line="53" id="part3-tail"><text fill="#000000" font-family="'Arial'" font-size="14" lengthAdjust="spacing" textLength="44.5635" x="806.5063" y="966.1436">GDA 2</text><ellipse cx="831.7881" cy="977.9453" fill="#CA89CA" fill-opacity="0.37255" rx="8" ry="8" style="stroke:#181818;stroke-width:0.5;"/><path d="M831.7881,985.9453 L831.7881,1012.9453 M818.7881,993.9453 L844.7881,993.9453 M831.7881,1012.9453 L818.7881,1027.9453 M831.7881,1012.9453 L844.7881,1027.9453" fill="none" style="stroke:#181818;stroke-width:0.5;"/></g><g class="participant participant-head" data-entity-uid="part4" data-qualified-name="Patient" data-source-line="55" id="part4-head"><text fill="#000000" font-family="'Arial'" font-size="14" lengthAdjust="spacing" textLength="49.376" x="867.0698" y="115.292">Patient</text><ellipse cx="894.7578" cy="50.7969" fill="#A2AE64" fill-opacity="0.50980" rx="8" ry="8" style="stroke:#181818;stroke-width:0.5;"/><path d="M894.7578,58.7969 L894.7578,85.7969 M881.7578,66.7969 L907.7578,66.7969 M894.7578,85.7969 L881.7578,100.7969 M894.7578,85.7969 L907.7578,100.7969" fill="none" style="stroke:#181818;stroke-width:0.5;"/></g><g class="participant participant-tail" data-entity-uid="part4" data-qualified-name="Patient" data-source-line="55" id="part4-tail"><text fill="#000000" font-family="'Arial'" font-size="14" lengthAdjust="spacing" textLength="49.376" x="867.0698" y="966.1436">Patient</text><ellipse cx="894.7578" cy="977.9453" fill="#A2AE64" fill-opacity="0.50980" rx="8" ry="8" style="stroke:#181818;stroke-width:0.5;"/><path d="M894.7578,985.9453 L894.7578,1012.9453 M881.7578,993.9453 L907.7578,993.9453 M894.7578,1012.9453 L881.7578,1027.9453 M894.7578,1012.9453 L907.7578,1027.9453" fill="none" style="stroke:#181818;stroke-width:0.5;"/></g><g><title>GDA 1</title><rect fill="#3588A7" fill-opacity="0.29804" height="686.5313" style="stroke:#181818;stroke-width:1;" width="10" x="151.2817" y="194.0234"/></g><g><title>e-Med FA</title><rect fill="#A14C37" fill-opacity="0.47059" height="29.1328" style="stroke:#181818;stroke-width:1;" width="10" x="537.8208" y="194.0234"/></g><g><title>e-Med FA</title><rect fill="#A14C37" fill-opacity="0.47059" height="29.1328" style="stroke:#181818;stroke-width:1;" width="10" x="537.8208" y="352.1797"/></g><g><title>e-Med FA</title><rect fill="#A14C37" fill-opacity="0.47059" height="86.3984" style="stroke:#181818;stroke-width:1;" width="10" x="537.8208" y="525.4688"/></g><g><title>e-Med FA</title><rect fill="#A14C37" fill-opacity="0.47059" height="155.9609" style="stroke:#181818;stroke-width:1;" width="10" x="537.8208" y="724.5938"/></g><g><title>GDA 2</title><rect fill="#CA89CA" fill-opacity="0.37255" height="259.6875" style="stroke:#181818;stroke-width:1;" width="10" x="826.7881" y="352.1797"/></g><rect fill="#EEEEEE" height="3" rx="5" ry="5" style="stroke:#EEEEEE;stroke-width:1;" width="987.9863" x="0" y="149.7422"/><line style="stroke:#000000;stroke-width:1;" x1="0" x2="987.9863" y1="149.7422" y2="149.7422"/><line style="stroke:#000000;stroke-width:1;" x1="0" x2="987.9863" y1="152.7422" y2="152.7422"/><rect fill="#EEEEEE" height="24.2969" rx="5" ry="5" style="stroke:#000000;stroke-width:2;" width="202.3711" x="392.8076" y="138.5938"/><text fill="#000000" font-family="'Arial'" font-size="14" font-weight="700" lengthAdjust="spacing" textLength="183.4971" x="398.8076" y="155.5889">Plan-Read durch GDA 1</text><g class="message" data-entity-1="part1" data-entity-2="part2" data-source-line="61" id="msg1"><polygon fill="#111827" points="525.8208,190.0234,535.8208,194.0234,525.8208,198.0234,529.8208,194.0234" style="stroke:#111827;stroke-width:1;stroke-linejoin:miter;stroke-miterlimit:10;"/><line style="stroke:#111827;stroke-width:1;" x1="161.2817" x2="531.8208" y1="194.0234" y2="194.0234"/><text fill="#000000" font-family="'Arial'" font-size="13" font-weight="700" lengthAdjust="spacing" textLength="9.0454" x="168.2817" y="188.9575">1</text><text fill="#000000" font-family="'Arial'" font-size="13" lengthAdjust="spacing" textLength="108.9893" x="181.3271" y="188.9575">POST $plan-read</text></g><g class="message" data-entity-1="part2" data-entity-2="part1" data-source-line="65" id="msg2"><polygon fill="#111827" points="172.2817,219.1563,162.2817,223.1563,172.2817,227.1563,168.2817,223.1563" style="stroke:#111827;stroke-width:1;stroke-linejoin:miter;stroke-miterlimit:10;"/><line style="stroke:#111827;stroke-width:1;" x1="166.2817" x2="541.8208" y1="223.1563" y2="223.1563"/><text fill="#000000" font-family="'Arial'" font-size="13" font-weight="700" lengthAdjust="spacing" textLength="9.0454" x="178.2817" y="218.0903">2</text><text fill="#000000" font-family="'Arial'" font-size="13" lengthAdjust="spacing" textLength="206.1274" x="191.3271" y="218.0903">Collection Bundle + ETag "123"</text></g><path d="M5,241.1563 L5,273.1563 A5,5 0 0 0 10,278.1563 L300,278.1563 A5,5 0 0 0 305,273.1563 L305,246.1563 L295,236.1563 L10,236.1563 A5,5 0 0 0 5,241.1563" fill="url(#g1q00nbtp44f2w0)" filter="url(#f1q00nbtp44f2w)" style="stroke:#8B95A5;stroke-width:1;"/><path d="M295,236.1563 L295,243.6563 A2.5,2.5 0 0 0 297.5,246.1563 L305,246.1563 L295,236.1563" fill="url(#g1q00nbtp44f2w0)" style="stroke:#8B95A5;stroke-width:1;"/><text fill="#111827" font-family="'Arial'" font-size="14" lengthAdjust="spacing" textLength="240.7754" x="11" y="254.1514">GDA 1 bearbeitet Medikationsplan</text><text fill="#111827" font-family="'Arial'" font-size="14" lengthAdjust="spacing" textLength="279.9863" x="11" y="270.4482">(Eintr&#228;ge hinzuf&#252;gen/&#228;ndern/entfernen)</text><rect fill="#EEEEEE" height="3" rx="5" ry="5" style="stroke:#EEEEEE;stroke-width:1;" width="987.9863" x="0" y="307.8984"/><line style="stroke:#000000;stroke-width:1;" x1="0" x2="987.9863" y1="307.8984" y2="307.8984"/><line style="stroke:#000000;stroke-width:1;" x1="0" x2="987.9863" y1="310.8984" y2="310.8984"/><rect fill="#EEEEEE" height="24.2969" rx="5" ry="5" style="stroke:#000000;stroke-width:2;" width="202.3711" x="392.8076" y="296.75"/><text fill="#000000" font-family="'Arial'" font-size="14" font-weight="700" lengthAdjust="spacing" textLength="183.4971" x="398.8076" y="313.7451">Plan-Read durch GDA 2</text><g class="message" data-entity-1="part3" data-entity-2="part2" data-source-line="75" id="msg3"><polygon fill="#111827" points="558.8208,348.1797,548.8208,352.1797,558.8208,356.1797,554.8208,352.1797" style="stroke:#111827;stroke-width:1;stroke-linejoin:miter;stroke-miterlimit:10;"/><line style="stroke:#111827;stroke-width:1;" x1="552.8208" x2="825.7881" y1="352.1797" y2="352.1797"/><text fill="#000000" font-family="'Arial'" font-size="13" font-weight="700" lengthAdjust="spacing" textLength="9.0454" x="564.8208" y="347.1138">3</text><text fill="#000000" font-family="'Arial'" font-size="13" lengthAdjust="spacing" textLength="108.9893" x="577.8662" y="347.1138">POST $plan-read</text></g><g class="message" data-entity-1="part2" data-entity-2="part3" data-source-line="80" id="msg4"><polygon fill="#111827" points="814.7881,377.3125,824.7881,381.3125,814.7881,385.3125,818.7881,381.3125" style="stroke:#111827;stroke-width:1;stroke-linejoin:miter;stroke-miterlimit:10;"/><line style="stroke:#111827;stroke-width:1;" x1="542.8208" x2="820.7881" y1="381.3125" y2="381.3125"/><text fill="#000000" font-family="'Arial'" font-size="13" font-weight="700" lengthAdjust="spacing" textLength="9.0454" x="549.8208" y="376.2466">4</text><text fill="#000000" font-family="'Arial'" font-size="13" lengthAdjust="spacing" textLength="206.1274" x="562.8662" y="376.2466">Collection Bundle + ETag "123"</text></g><path d="M679,399.3125 L679,431.3125 A5,5 0 0 0 684,436.3125 L974,436.3125 A5,5 0 0 0 979,431.3125 L979,404.3125 L969,394.3125 L684,394.3125 A5,5 0 0 0 679,399.3125" fill="url(#g1q00nbtp44f2w0)" filter="url(#f1q00nbtp44f2w)" style="stroke:#8B95A5;stroke-width:1;"/><path d="M969,394.3125 L969,401.8125 A2.5,2.5 0 0 0 971.5,404.3125 L979,404.3125 L969,394.3125" fill="url(#g1q00nbtp44f2w0)" style="stroke:#8B95A5;stroke-width:1;"/><text fill="#111827" font-family="'Arial'" font-size="14" lengthAdjust="spacing" textLength="240.7754" x="685" y="412.3076">GDA 2 bearbeitet Medikationsplan</text><text fill="#111827" font-family="'Arial'" font-size="14" lengthAdjust="spacing" textLength="279.9863" x="685" y="428.6045">(Eintr&#228;ge hinzuf&#252;gen/&#228;ndern/entfernen)</text><rect fill="#EEEEEE" height="3" rx="5" ry="5" style="stroke:#EEEEEE;stroke-width:1;" width="987.9863" x="0" y="466.0547"/><line style="stroke:#000000;stroke-width:1;" x1="0" x2="987.9863" y1="466.0547" y2="466.0547"/><line style="stroke:#000000;stroke-width:1;" x1="0" x2="987.9863" y1="469.0547" y2="469.0547"/><rect fill="#EEEEEE" height="24.2969" rx="5" ry="5" style="stroke:#000000;stroke-width:2;" width="205.96" x="391.0132" y="454.9063"/><text fill="#000000" font-family="'Arial'" font-size="14" font-weight="700" lengthAdjust="spacing" textLength="187.0859" x="397.0132" y="471.9014">Plan-Write durch GDA 2</text><g class="message" data-entity-1="part3" data-entity-2="part2" data-source-line="90" id="msg5"><polygon fill="#111827" points="558.8208,521.4688,548.8208,525.4688,558.8208,529.4688,554.8208,525.4688" style="stroke:#111827;stroke-width:1;stroke-linejoin:miter;stroke-miterlimit:10;"/><line style="stroke:#111827;stroke-width:1;" x1="552.8208" x2="825.7881" y1="525.4688" y2="525.4688"/><text fill="#000000" font-family="'Arial'" font-size="13" font-weight="700" lengthAdjust="spacing" textLength="9.0454" x="564.8208" y="512.8364">5</text><text fill="#000000" font-family="'Arial'" font-size="13" lengthAdjust="spacing" textLength="197.5962" x="577.8662" y="505.27">POST $plan-write (Transaction</text><text fill="#000000" font-family="'Arial'" font-size="13" lengthAdjust="spacing" textLength="142.7651" x="577.8662" y="520.4028">Bundle + ETag "123")</text></g><g class="message" data-entity-1="part2" data-entity-2="part2" data-source-line="93" id="msg6"><line style="stroke:#111827;stroke-width:1;" x1="547.8208" x2="589.8208" y1="569.7344" y2="569.7344"/><line style="stroke:#111827;stroke-width:1;" x1="589.8208" x2="589.8208" y1="569.7344" y2="582.7344"/><line style="stroke:#111827;stroke-width:1;" x1="548.8208" x2="589.8208" y1="582.7344" y2="582.7344"/><polygon fill="#111827" points="558.8208,578.7344,548.8208,582.7344,558.8208,586.7344,554.8208,582.7344" style="stroke:#111827;stroke-width:1;stroke-linejoin:miter;stroke-miterlimit:10;"/><text fill="#000000" font-family="'Arial'" font-size="13" font-weight="700" lengthAdjust="spacing" textLength="9.0454" x="554.8208" y="557.1021">6</text><text fill="#000000" font-family="'Arial'" font-size="13" lengthAdjust="spacing" textLength="171.0693" x="567.8662" y="549.5356">ETag "123" im Header ==</text><text fill="#000000" font-family="'Arial'" font-size="13" lengthAdjust="spacing" textLength="210.0249" x="567.8662" y="564.6685">ETag der Fachanwendung "123"</text></g><g class="message" data-entity-1="part2" data-entity-2="part3" data-source-line="94" id="msg7"><polygon fill="#111827" points="819.7881,607.8672,829.7881,611.8672,819.7881,615.8672,823.7881,611.8672" style="stroke:#111827;stroke-width:1;stroke-linejoin:miter;stroke-miterlimit:10;"/><line style="stroke:#111827;stroke-width:1;stroke-dasharray:2,2;" x1="542.8208" x2="825.7881" y1="611.8672" y2="611.8672"/><text fill="#000000" font-family="'Arial'" font-size="13" font-weight="700" lengthAdjust="spacing" textLength="9.0454" x="549.8208" y="606.8013">7</text><text fill="#000000" font-family="'Arial'" font-size="13" lengthAdjust="spacing" textLength="18.7573" x="562.8662" y="606.8013">OK</text></g><path d="M359,629.8672 L359,645.8672 A5,5 0 0 0 364,650.8672 L718,650.8672 A5,5 0 0 0 723,645.8672 L723,634.8672 L713,624.8672 L364,624.8672 A5,5 0 0 0 359,629.8672" fill="url(#g1q00nbtp44f2w0)" filter="url(#f1q00nbtp44f2w)" style="stroke:#8B95A5;stroke-width:1;"/><path d="M713,624.8672 L713,632.3672 A2.5,2.5 0 0 0 715.5,634.8672 L723,634.8672 L713,624.8672" fill="url(#g1q00nbtp44f2w0)" style="stroke:#8B95A5;stroke-width:1;"/><text fill="#111827" font-family="'Arial'" font-size="14" lengthAdjust="spacing" textLength="343.4238" x="365" y="642.8623">Medikationsplan wurde durch GDA 2 aktualisiert.</text><rect fill="#EEEEEE" height="3" rx="5" ry="5" style="stroke:#EEEEEE;stroke-width:1;" width="987.9863" x="0" y="680.3125"/><line style="stroke:#000000;stroke-width:1;" x1="0" x2="987.9863" y1="680.3125" y2="680.3125"/><line style="stroke:#000000;stroke-width:1;" x1="0" x2="987.9863" y1="683.3125" y2="683.3125"/><rect fill="#EEEEEE" height="24.2969" rx="5" ry="5" style="stroke:#000000;stroke-width:2;" width="229.4688" x="379.2588" y="669.1641"/><text fill="#000000" font-family="'Arial'" font-size="14" font-weight="700" lengthAdjust="spacing" textLength="210.5947" x="385.2588" y="686.1592">Plan-Write-Error f&#252;r GDA 1</text><g class="message" data-entity-1="part1" data-entity-2="part2" data-source-line="105" id="msg8"><polygon fill="#111827" points="525.8208,720.5938,535.8208,724.5938,525.8208,728.5938,529.8208,724.5938" style="stroke:#111827;stroke-width:1;stroke-linejoin:miter;stroke-miterlimit:10;"/><line style="stroke:#111827;stroke-width:1;" x1="161.2817" x2="531.8208" y1="724.5938" y2="724.5938"/><text fill="#000000" font-family="'Arial'" font-size="13" font-weight="700" lengthAdjust="spacing" textLength="9.0454" x="168.2817" y="719.5278">8</text><text fill="#000000" font-family="'Arial'" font-size="13" lengthAdjust="spacing" textLength="344.4937" x="181.3271" y="719.5278">POST $plan-write (Transaction Bundle + ETag "123")</text></g><g class="message" data-entity-1="part2" data-entity-2="part2" data-source-line="108" id="msg9"><line style="stroke:#111827;stroke-width:1;" x1="547.8208" x2="589.8208" y1="799.125" y2="799.125"/><line style="stroke:#111827;stroke-width:1;" x1="589.8208" x2="589.8208" y1="799.125" y2="812.125"/><line style="stroke:#111827;stroke-width:1;" x1="548.8208" x2="589.8208" y1="812.125" y2="812.125"/><polygon fill="#111827" points="558.8208,808.125,548.8208,812.125,558.8208,816.125,554.8208,812.125" style="stroke:#111827;stroke-width:1;stroke-linejoin:miter;stroke-miterlimit:10;"/><text fill="#000000" font-family="'Arial'" font-size="13" font-weight="700" lengthAdjust="spacing" textLength="9.0454" x="554.8208" y="771.3599">9</text><text fill="#000000" font-family="'Arial'" font-size="13" lengthAdjust="spacing" textLength="231.6577" x="567.8662" y="748.6606">ETag im Header "123" stimmt nicht</text><text fill="#000000" font-family="'Arial'" font-size="13" lengthAdjust="spacing" textLength="194.6255" x="567.8662" y="763.7935">mit ETag der Fachanwendung</text><text fill="#000000" font-family="'Arial'" font-size="13" lengthAdjust="spacing" textLength="241.9219" x="567.8662" y="778.9263">&#252;berein, da er bereits zum Schreiben</text><text fill="#000000" font-family="'Arial'" font-size="13" lengthAdjust="spacing" textLength="113.8516" x="567.8662" y="794.0591">verwendet wurde</text></g><path d="M404,830.125 L404,846.125 A5,5 0 0 0 409,851.125 L671,851.125 A5,5 0 0 0 676,846.125 L676,835.125 L666,825.125 L409,825.125 A5,5 0 0 0 404,830.125" fill="url(#g1q00nbtp44f2w0)" filter="url(#f1q00nbtp44f2w)" style="stroke:#8B95A5;stroke-width:1;"/><path d="M666,825.125 L666,832.625 A2.5,2.5 0 0 0 668.5,835.125 L676,835.125 L666,825.125" fill="url(#g1q00nbtp44f2w0)" style="stroke:#8B95A5;stroke-width:1;"/><text fill="#111827" font-family="'Arial'" font-size="14" lengthAdjust="spacing" textLength="251.7539" x="410" y="843.1201">Fachanwendung lehnt Speichern ab</text><g class="message" data-entity-1="part2" data-entity-2="part1" data-source-line="112" id="msg10"><polygon fill="#111827" points="167.2817,876.5547,157.2817,880.5547,167.2817,884.5547,163.2817,880.5547" style="stroke:#111827;stroke-width:1;stroke-linejoin:miter;stroke-miterlimit:10;"/><line style="stroke:#111827;stroke-width:1;stroke-dasharray:2,2;" x1="161.2817" x2="541.8208" y1="880.5547" y2="880.5547"/><text fill="#000000" font-family="'Arial'" font-size="13" font-weight="700" lengthAdjust="spacing" textLength="18.0908" x="173.2817" y="875.4888">10</text><text fill="#000000" font-family="'Arial'" font-size="13" lengthAdjust="spacing" textLength="104.0889" x="195.3726" y="875.4888">Fehler (Konflikt)</text></g><path d="M126,898.5547 L126,930.5547 A5,5 0 0 0 131,935.5547 L567,935.5547 A5,5 0 0 0 572,930.5547 L572,903.5547 L562,893.5547 L131,893.5547 A5,5 0 0 0 126,898.5547" fill="url(#g1q00nbtp44f2w0)" filter="url(#f1q00nbtp44f2w)" style="stroke:#8B95A5;stroke-width:1;"/><path d="M562,893.5547 L562,901.0547 A2.5,2.5 0 0 0 564.5,903.5547 L572,903.5547 L562,893.5547" fill="url(#g1q00nbtp44f2w0)" style="stroke:#8B95A5;stroke-width:1;"/><text fill="#111827" font-family="'Arial'" font-size="14" lengthAdjust="spacing" textLength="353.2061" x="164.4133" y="911.5498">Speichern des Medikationsplans wurde abgelehnt,</text><text fill="#111827" font-family="'Arial'" font-size="14" lengthAdjust="spacing" textLength="341.0176" x="164.4133" y="927.8467">der GDA 1 muss ein neues Plan-Read ausf&#252;hren.</text><?plantuml-src jPPVZzf64C3VzrDCeGztwj6S5tnmaQZ49IQjqWG4L9MgaqwBTmmhp9gkrw6vgDyc7oDlzyKwjZ7OneaIAVKzd7VdpyxyPdQCLJP4c8P2T_uqocB7CoOoZCKRfNV2Y2qi8oFHl8Z2o43xEdlAKk5lLYPAj3ne16xwLzA8rq96UwLN48WmnfBaO6Oq6d3AJYK68WdjEDBshTWYj4P6YR3Lh35NZmXEhrdukR1_VRz34ogzAIbuNfF27rfcBtWM_btqprH8cMR6hwlxTsLcRlQKaUh88dnW07TrUdYDRd3TQKj7tk9Dgb7sD5ZUki8zxYxMojzeZ6DmQ6zMeZcWTH5RwgM4md6S0U_JtlnO5siIPF-M0upnxmIrdmSv5SOgN-s4jarvLHNEsY5xgahdXJaJ5qMj24gq0KRKf_jwJjbc5KksrNJYKP2VrQMjLnJvhfBZqNCkEYiN1ZpBhcHvEfwdK7-WRaoxvyNazydiuTNBqOC3xQux68X-ps-GScZxOd3h2pUeIQUZnM_UsmMq1HTuqnlmcdmqdK2x5yY1vAwioRmttik7yOXidPxVxVS7TVd3pFlBcoxI-xkKFEZtQmgJrqKj-KtTTZQRpA3T3npNSRjTneHl2KwUgeYXHM_WjCe46DkToWhu1cKQNAgB7Lh0UDIg1bvsoezEUTafBtIcmYeajwdMuRrLHKYQYOrqibsYOS26mtm0pb18a8dnrv253CCXOtaQdL-AA9_3T39Vm8-xrCAGHNggUYVeHkUgbJIFiYB7QbR5BhdF39u3DLQ8P1HfkAC-ezdy4tWBiOAMmxij9h7kaR5icaJly82SvR4lKPWbqaItG8fg8rAVSHerk_2KjkRfumfXhVHZ4ZnzMg5-zlGn7NNw6V4Aw3_gIuPQPiEAVOuHFpBYNy-8drNjIupgaFXtWCHP7lp_12dxaduRfNrcSh4mGiSYI-rUD-Hs-IqjTJpdP0-AFcrK4E8m7DxhJ90kni9V2xsdL19TO3nwEe6dAL2cUoZWYMs1kmOJzWbDnWeGiR6925MiqDYVImYRQbV1clz00Ig7-TfRUiuMlY_Q4zGSScpLTcj1Atzjx_LMMMW6VQ-VFj48GgMlG0eWSRQoCJmcMvZxQreiaJg1sAOcrAOPoGRYrGA6kAO1EDyXHK1T2c9vGbmlAmsTCQv3ydNnEj91g3Rsibvav_p4guFWT8Z4k7wBuaFbnNA5MKnNQVyKXTicz96av45ZGhQd-IAIcEfBsUiljyP_?></g></svg>