<svg xmlns="http://www.w3.org/2000/svg" xmlns:xlink="http://www.w3.org/1999/xlink" contentStyleType="text/css" data-diagram-type="SEQUENCE" height="665px" preserveAspectRatio="none" style="width:1013px;height:665px;background:#F5F5F5;" version="1.1" viewBox="0 0 1013 665" width="1013px" zoomAndPan="magnify"><?plantuml 1.2026.7beta1?><defs><linearGradient id="g14u8reg2ihja70" x1="50%" x2="50%" y1="0%" y2="100%"><stop offset="0%" stop-color="#E0E5F0"/><stop offset="100%" stop-color="#D1D9E6"/></linearGradient></defs><g><rect fill="#F5F5F5" height="665" style="stroke:none;stroke-width:1;" width="1013" x="0" y="0"/><g class="title" data-source-line="1"><text fill="#000000" font-family="'Arial'" font-size="14" font-weight="700" lengthAdjust="spacing" textLength="83.6172" x="461.3813" y="27.9951">Plan-Write</text></g><g><title>GDA 1</title><rect fill="#156082" fill-opacity="0.50196" height="429.2734" style="stroke:#181818;stroke-width:1;" width="10" x="143.2817" y="128.5938"/></g><g><title>e-Med FA</title><rect fill="#E97132" fill-opacity="0.50196" height="311.25" style="stroke:#181818;stroke-width:1;" width="10" x="590.3394" y="246.6172"/></g><rect fill="#0F9ED5" fill-opacity="0.14510" height="246.9844" rx="5" ry="5" style="stroke:#111827;stroke-width:2;" width="798.7222" x="113" y="318.8828"/><path d="M113,518.4375 L911.7222,518.4375 L911.7222,560.8672 A5,5 0 0 1 906.7222,565.8672 L118,565.8672 A5,5 0 0 1 113,560.8672 L113,518.4375" fill="#E97132" fill-opacity="0.20784" style="stroke:none;stroke-width:1;"/><g class="participant-lifeline" data-entity-uid="part1" data-qualified-name="GDA_1" data-source-line="52" id="part1-lifeline"><g><title>GDA 1</title><rect fill="#000000" fill-opacity="0.00000" height="464.2734" width="8" x="144.2817" y="118.5938"/><line style="stroke:#181818;stroke-width:0.5;stroke-dasharray:5,5;" x1="148" x2="148" y1="118.5938" y2="582.8672"/></g></g><g class="participant-lifeline" data-entity-uid="part2" data-qualified-name="eMed_FA" data-source-line="53" id="part2-lifeline"><g><title>e-Med FA</title><rect fill="#000000" fill-opacity="0.00000" height="464.2734" width="8" x="591.3394" y="118.5938"/><line style="stroke:#181818;stroke-width:0.5;stroke-dasharray:5,5;" x1="594.6772" x2="594.6772" y1="118.5938" y2="582.8672"/></g></g><g class="participant-lifeline" data-entity-uid="part3" data-qualified-name="GDA_2" data-source-line="54" id="part3-lifeline"><g><title>GDA 2</title><rect fill="#000000" fill-opacity="0.00000" height="464.2734" width="8" x="907.7222" y="118.5938"/><line style="stroke:#181818;stroke-width:0.5;stroke-dasharray:5,5;" x1="911.4404" x2="911.4404" y1="118.5938" y2="582.8672"/></g></g><g class="participant-lifeline" data-entity-uid="part4" data-qualified-name="Patient" data-source-line="55" id="part4-lifeline"><g><title>Patient</title><rect fill="#000000" fill-opacity="0.00000" height="464.2734" width="8" x="970.6919" y="118.5938"/><line style="stroke:#181818;stroke-width:0.5;stroke-dasharray:5,5;" x1="974.0039" x2="974.0039" y1="118.5938" y2="582.8672"/></g></g><g class="participant participant-head" data-entity-uid="part1" data-qualified-name="GDA_1" data-source-line="52" id="part1-head"><text fill="#000000" font-family="'Arial'" font-size="14" lengthAdjust="spacing" textLength="44.5635" x="123" y="115.292">GDA 1</text><ellipse cx="148.2817" cy="50.7969" fill="#156082" fill-opacity="0.50196" rx="8" ry="8" style="stroke:#181818;stroke-width:0.5;"/><path d="M148.2817,58.7969 L148.2817,85.7969 M135.2817,66.7969 L161.2817,66.7969 M148.2817,85.7969 L135.2817,100.7969 M148.2817,85.7969 L161.2817,100.7969" fill="none" style="stroke:#181818;stroke-width:0.5;"/></g><g class="participant participant-tail" data-entity-uid="part1" data-qualified-name="GDA_1" data-source-line="52" id="part1-tail"><text fill="#000000" font-family="'Arial'" font-size="14" lengthAdjust="spacing" textLength="44.5635" x="123" y="594.8623">GDA 1</text><ellipse cx="148.2817" cy="606.6641" fill="#156082" fill-opacity="0.50196" rx="8" ry="8" style="stroke:#181818;stroke-width:0.5;"/><path d="M148.2817,614.6641 L148.2817,641.6641 M135.2817,622.6641 L161.2817,622.6641 M148.2817,641.6641 L135.2817,656.6641 M148.2817,641.6641 L161.2817,656.6641" fill="none" style="stroke:#181818;stroke-width:0.5;"/></g><g class="participant participant-head" data-entity-uid="part2" data-qualified-name="eMed_FA" data-source-line="53" id="part2-head"><rect fill="#E97132" fill-opacity="0.50196" height="30.2969" rx="5" ry="5" style="stroke:#555555;stroke-width:0.5;" width="79.3242" x="555.6772" y="87.2969"/><text fill="#000000" font-family="'Arial'" font-size="14" lengthAdjust="spacing" textLength="65.3242" x="562.6772" y="107.292">e-Med FA</text></g><g class="participant participant-tail" data-entity-uid="part2" data-qualified-name="eMed_FA" data-source-line="53" id="part2-tail"><rect fill="#E97132" fill-opacity="0.50196" height="30.2969" rx="5" ry="5" style="stroke:#555555;stroke-width:0.5;" width="79.3242" x="555.6772" y="581.8672"/><text fill="#000000" font-family="'Arial'" font-size="14" lengthAdjust="spacing" textLength="65.3242" x="562.6772" y="601.8623">e-Med FA</text></g><g class="participant participant-head" data-entity-uid="part3" data-qualified-name="GDA_2" data-source-line="54" id="part3-head"><text fill="#000000" font-family="'Arial'" font-size="14" lengthAdjust="spacing" textLength="44.5635" x="886.4404" y="115.292">GDA 2</text><ellipse cx="911.7222" cy="50.7969" fill="#96607D" fill-opacity="0.50196" rx="8" ry="8" style="stroke:#181818;stroke-width:0.5;"/><path d="M911.7222,58.7969 L911.7222,85.7969 M898.7222,66.7969 L924.7222,66.7969 M911.7222,85.7969 L898.7222,100.7969 M911.7222,85.7969 L924.7222,100.7969" fill="none" style="stroke:#181818;stroke-width:0.5;"/></g><g class="participant participant-tail" data-entity-uid="part3" data-qualified-name="GDA_2" data-source-line="54" id="part3-tail"><text fill="#000000" font-family="'Arial'" font-size="14" lengthAdjust="spacing" textLength="44.5635" x="886.4404" y="594.8623">GDA 2</text><ellipse cx="911.7222" cy="606.6641" fill="#96607D" fill-opacity="0.50196" rx="8" ry="8" style="stroke:#181818;stroke-width:0.5;"/><path d="M911.7222,614.6641 L911.7222,641.6641 M898.7222,622.6641 L924.7222,622.6641 M911.7222,641.6641 L898.7222,656.6641 M911.7222,641.6641 L924.7222,656.6641" fill="none" style="stroke:#181818;stroke-width:0.5;"/></g><g class="participant participant-head" data-entity-uid="part4" data-qualified-name="Patient" data-source-line="55" id="part4-head"><text fill="#000000" font-family="'Arial'" font-size="14" lengthAdjust="spacing" textLength="49.376" x="947.0039" y="115.292">Patient</text><ellipse cx="974.6919" cy="50.7969" fill="#E2E2F0" rx="8" ry="8" style="stroke:#181818;stroke-width:0.5;"/><path d="M974.6919,58.7969 L974.6919,85.7969 M961.6919,66.7969 L987.6919,66.7969 M974.6919,85.7969 L961.6919,100.7969 M974.6919,85.7969 L987.6919,100.7969" fill="none" style="stroke:#181818;stroke-width:0.5;"/></g><g class="participant participant-tail" data-entity-uid="part4" data-qualified-name="Patient" data-source-line="55" id="part4-tail"><text fill="#000000" font-family="'Arial'" font-size="14" lengthAdjust="spacing" textLength="49.376" x="947.0039" y="594.8623">Patient</text><ellipse cx="974.6919" cy="606.6641" fill="#E2E2F0" rx="8" ry="8" style="stroke:#181818;stroke-width:0.5;"/><path d="M974.6919,614.6641 L974.6919,641.6641 M961.6919,622.6641 L987.6919,622.6641 M974.6919,641.6641 L961.6919,656.6641 M974.6919,641.6641 L987.6919,656.6641" fill="none" style="stroke:#181818;stroke-width:0.5;"/></g><g><title>GDA 1</title><rect fill="#156082" fill-opacity="0.50196" height="429.2734" style="stroke:#181818;stroke-width:1;" width="10" x="143.2817" y="128.5938"/></g><g><title>e-Med FA</title><rect fill="#E97132" fill-opacity="0.50196" height="311.25" style="stroke:#181818;stroke-width:1;" width="10" x="590.3394" y="246.6172"/></g><path d="M5,138.5938 L5,170.5938 A5,5 0 0 0 10,175.5938 L287,175.5938 A5,5 0 0 0 292,170.5938 L292,143.5938 L282,133.5938 L10,133.5938 A5,5 0 0 0 5,138.5938" fill="url(#g14u8reg2ihja70)" style="stroke:#8B95A5;stroke-width:1;"/><path d="M282,133.5938 L282,141.0938 A2.5,2.5 0 0 0 284.5,143.5938 L292,143.5938 L282,133.5938" fill="url(#g14u8reg2ihja70)" style="stroke:#8B95A5;stroke-width:1;"/><text fill="#111827" font-family="'Arial'" font-size="14" lengthAdjust="spacing" textLength="266.5264" x="11" y="151.5889">Vorbedingung: Nach einem Plan-Read</text><text fill="#111827" font-family="'Arial'" font-size="14" lengthAdjust="spacing" textLength="244.248" x="11" y="167.8857">wird der Medikationsplan bearbeit.</text><rect fill="#EEEEEE" height="3" rx="5" ry="5" style="stroke:#EEEEEE;stroke-width:1;" width="1007.3799" x="0" y="202.3359"/><line style="stroke:#000000;stroke-width:1;" x1="0" x2="1007.3799" y1="202.3359" y2="202.3359"/><line style="stroke:#000000;stroke-width:1;" x1="0" x2="1007.3799" y1="205.3359" y2="205.3359"/><rect fill="#EEEEEE" height="24.2969" rx="5" ry="5" style="stroke:#000000;stroke-width:2;" width="231.6768" x="387.8516" y="191.1875"/><text fill="#000000" font-family="'Arial'" font-size="14" font-weight="700" lengthAdjust="spacing" textLength="212.8027" x="393.8516" y="208.1826">Medikationsplan schreiben</text><g class="message" data-entity-1="part1" data-entity-2="part2" data-source-line="68" id="msg1"><polygon fill="#111827" points="578.3394,242.6172,588.3394,246.6172,578.3394,250.6172,582.3394,246.6172" style="stroke:#111827;stroke-width:1;stroke-linejoin:miter;stroke-miterlimit:10;"/><line style="stroke:#111827;stroke-width:1;" x1="153.2817" x2="584.3394" y1="246.6172" y2="246.6172"/><text fill="#000000" font-family="'Arial'" font-size="13" font-weight="700" lengthAdjust="spacing" textLength="9.0454" x="160.2817" y="241.5513">1</text><text fill="#000000" font-family="'Arial'" font-size="13" lengthAdjust="spacing" textLength="405.0122" x="173.3271" y="241.5513">POST $plan-write Medikationsplan-Transaction-Bundle + ETag</text></g><g class="message" data-entity-1="part2" data-entity-2="part2" data-source-line="71" id="msg2"><line style="stroke:#111827;stroke-width:1;" x1="600.3394" x2="642.3394" y1="290.8828" y2="290.8828"/><line style="stroke:#111827;stroke-width:1;" x1="642.3394" x2="642.3394" y1="290.8828" y2="303.8828"/><line style="stroke:#111827;stroke-width:1;" x1="601.3394" x2="642.3394" y1="303.8828" y2="303.8828"/><polygon fill="#111827" points="611.3394,299.8828,601.3394,303.8828,611.3394,307.8828,607.3394,303.8828" style="stroke:#111827;stroke-width:1;stroke-linejoin:miter;stroke-miterlimit:10;"/><text fill="#000000" font-family="'Arial'" font-size="13" font-weight="700" lengthAdjust="spacing" textLength="9.0454" x="607.3394" y="278.2505">2</text><text fill="#000000" font-family="'Arial'" font-size="13" lengthAdjust="spacing" textLength="130.165" x="620.3848" y="270.6841">ETag im Header ==</text><text fill="#000000" font-family="'Arial'" font-size="13" lengthAdjust="spacing" textLength="176.0205" x="620.3848" y="285.8169">ETag der Fachanwendung?</text></g><path d="M118,318.8828 L178.9385,318.8828 L178.9385,327.1797 L168.9385,337.1797 L113,337.1797 L113,323.8828 A5,5 0 0 1 118,318.8828" fill="#EEF2FF" style="stroke:#111827;stroke-width:1.5;"/><rect fill="none" height="246.9844" rx="5" ry="5" style="stroke:#111827;stroke-width:2;" width="798.7222" x="113" y="318.8828"/><text fill="#000000" font-family="'Arial'" font-size="14" font-weight="700" lengthAdjust="spacing" textLength="20.9385" x="128" y="332.8779">alt</text><text fill="#000000" font-family="'Arial'" font-size="14" font-weight="700" lengthAdjust="spacing" textLength="59.0967" x="193.9385" y="333.8779">[g&#252;ltig]</text><g class="message" data-entity-1="part2" data-entity-2="part2" data-source-line="74" id="msg3"><line style="stroke:#111827;stroke-width:1;" x1="600.3394" x2="642.3394" y1="374.7422" y2="374.7422"/><line style="stroke:#111827;stroke-width:1;" x1="642.3394" x2="642.3394" y1="374.7422" y2="387.7422"/><line style="stroke:#111827;stroke-width:1;" x1="601.3394" x2="642.3394" y1="387.7422" y2="387.7422"/><polygon fill="#111827" points="611.3394,383.7422,601.3394,387.7422,611.3394,391.7422,607.3394,387.7422" style="stroke:#111827;stroke-width:1;stroke-linejoin:miter;stroke-miterlimit:10;"/><text fill="#000000" font-family="'Arial'" font-size="13" font-weight="700" lengthAdjust="spacing" textLength="9.0454" x="607.3394" y="362.1099">3</text><text fill="#000000" font-family="'Arial'" font-size="13" lengthAdjust="spacing" textLength="184.5835" x="620.3848" y="354.5435">Validierung des neuen Plans</text><text fill="#000000" font-family="'Arial'" font-size="13" lengthAdjust="spacing" textLength="269.3374" x="620.3848" y="369.6763">(keine unzul&#228;ssigen Zustands&#252;berg&#228;nge)</text></g><g class="message" data-entity-1="part2" data-entity-2="part2" data-source-line="75" id="msg4"><line style="stroke:#111827;stroke-width:1;" x1="600.3394" x2="642.3394" y1="432.0078" y2="432.0078"/><line style="stroke:#111827;stroke-width:1;" x1="642.3394" x2="642.3394" y1="432.0078" y2="445.0078"/><line style="stroke:#111827;stroke-width:1;" x1="601.3394" x2="642.3394" y1="445.0078" y2="445.0078"/><polygon fill="#111827" points="611.3394,441.0078,601.3394,445.0078,611.3394,449.0078,607.3394,445.0078" style="stroke:#111827;stroke-width:1;stroke-linejoin:miter;stroke-miterlimit:10;"/><text fill="#000000" font-family="'Arial'" font-size="13" font-weight="700" lengthAdjust="spacing" textLength="9.0454" x="607.3394" y="419.3755">4</text><text fill="#000000" font-family="'Arial'" font-size="13" lengthAdjust="spacing" textLength="182.1968" x="620.3848" y="411.8091">Persistiert neue Version des</text><text fill="#000000" font-family="'Arial'" font-size="13" lengthAdjust="spacing" textLength="113.0898" x="620.3848" y="426.9419">Medikationsplans</text></g><path d="M460,463.0078 L460,479.0078 A5,5 0 0 0 465,484.0078 L724,484.0078 A5,5 0 0 0 729,479.0078 L729,468.0078 L719,458.0078 L465,458.0078 A5,5 0 0 0 460,463.0078" fill="url(#g14u8reg2ihja70)" style="stroke:#8B95A5;stroke-width:1;"/><path d="M719,458.0078 L719,465.5078 A2.5,2.5 0 0 0 721.5,468.0078 L729,468.0078 L719,458.0078" fill="url(#g14u8reg2ihja70)" style="stroke:#8B95A5;stroke-width:1;"/><text fill="#111827" font-family="'Arial'" font-size="14" lengthAdjust="spacing" textLength="248.3359" x="466" y="476.0029">Neuer Medikationsplan gespeichert</text><g class="message" data-entity-1="part2" data-entity-2="part1" data-source-line="81" id="msg5"><polygon fill="#111827" points="164.2817,506.4375,154.2817,510.4375,164.2817,514.4375,160.2817,510.4375" style="stroke:#111827;stroke-width:1;stroke-linejoin:miter;stroke-miterlimit:10;"/><line style="stroke:#111827;stroke-width:1;stroke-dasharray:2,2;" x1="158.2817" x2="589.3394" y1="510.4375" y2="510.4375"/><text fill="#000000" font-family="'Arial'" font-size="13" font-weight="700" lengthAdjust="spacing" textLength="9.0454" x="170.2817" y="505.3716">5</text><text fill="#000000" font-family="'Arial'" font-size="13" lengthAdjust="spacing" textLength="18.7573" x="183.3271" y="505.3716">OK</text></g><line style="stroke:#111827;stroke-width:1;stroke-dasharray:2,2;" x1="113" x2="911.7222" y1="519.4375" y2="519.4375"/><text fill="#000000" font-family="'Arial'" font-size="14" font-weight="700" lengthAdjust="spacing" textLength="79.0303" x="118" y="532.4326">[ung&#252;ltig]</text><g class="message" data-entity-1="part2" data-entity-2="part1" data-source-line="85" id="msg6"><polygon fill="#111827" points="159.2817,553.8672,149.2817,557.8672,159.2817,561.8672,155.2817,557.8672" style="stroke:#111827;stroke-width:1;stroke-linejoin:miter;stroke-miterlimit:10;"/><line style="stroke:#111827;stroke-width:1;stroke-dasharray:2,2;" x1="153.2817" x2="594.3394" y1="557.8672" y2="557.8672"/><text fill="#000000" font-family="'Arial'" font-size="13" font-weight="700" lengthAdjust="spacing" textLength="9.0454" x="165.2817" y="552.8013">6</text><text fill="#000000" font-family="'Arial'" font-size="13" lengthAdjust="spacing" textLength="40.6694" x="178.3271" y="552.8013">Fehler</text></g><?plantuml-src TLJjZjew4FsVfvZ2bNghYYh9RjXb9Ne5kw6jUhj4BDrArKehGuPW4HngE-MsLtsRFaR_xOjrRBuSGWC_afdZCsVEsDPSvmX9paJha-GQFU-vMd2nOf8jWKrr8U_qDqAmDQfYIUb3TbB85ELraHSIchvzt2oRBZ9Pb2BT8cQH-Ja8DMTfiUOYWndB5JgPxJ8fK4BWagOuOsMk1uNGjso9qEX9plB6QSGT_uuGd9zE_adsssyhb3aN2mSGnwS07qLgNx0clr_ybx0qDPs5VZNUTpsBxEDQAWgDyBy7q3zs3tsCPdwhcGPf1zi6uJ9TJZeHY_RHyPnF5mALWe1Y8yTDdxvtsWoBOqKG19VX1SNkZkRomrMey4k9OhfHcJ2f-PIlcD2d6gi2Qll1FbLGVJArz6wgbOHZDq1Foc9zt9GDLdsneLCLzubDhJCAlI7bgqgFU-PDgZOld8MsEsVbeNneJ7r6sz5id-lXlyFHuvkRtcC0z3I3gErVXfV-2K1e0Prssx-ugG6ItlXTV3is39rsFpol0Nh94EpJz0UT-2Rg70FY3_7Duw17WBXp4PpLDSIFe_Xpd8oXUUr7_hdHS8GOleTAZJ0wfXYDXYCBsDGuemDWxndOEC0KDEWDWePhZBSw31lm0wP6fe5YYpvWq6jKMt0emprbw5A6MqZ2D4SYDQ3jUuCKbReGvNA2qghZNnaTp8r0LvLd3spn5RVglVj2Jj1inL9aLt3BfdD0wdsvkM57o59lpMLADv444iuNLB4GQaLPc22ZnLo_yb2azYhml6wt1bFJkKG-GG7ThkTjDBLUxqovWcHuDuQ_3BIrDZVwCK5hB9bGfgb2jFgqO-bsVmdnc6LEgpkBgwRkecuvin0utOlK6pNLxJu86p8V0-gVYJMrGtRyG_IvFcoJxEbNhda6T4PEyTwpdASS9QqaBWK2wTwnDge7yVV2k0gb-5xcJp-LuXdbFfTACv6gfryqjkpffyZmnH_84vIAAngsr9OOxasW4ARIWpWoJ149_G-Ztj9Gx9RMrWUPeLeXdyw9tTJV3zFHGcBivAvW-DxpaAxPol6WfdVkd5urm7bEbKqsnUe6hOPsMad5Rm00?></g></svg>