<svg xmlns="http://www.w3.org/2000/svg" xmlns:xlink="http://www.w3.org/1999/xlink" contentStyleType="text/css" data-diagram-type="SEQUENCE" height="800px" preserveAspectRatio="none" style="width:880px;height:800px;background:#F5F5F5;" version="1.1" viewBox="0 0 880 800" width="880px" zoomAndPan="magnify"><?plantuml 1.2026.7beta1?><defs><linearGradient id="g1qrcpszpytaz60" x1="50%" x2="50%" y1="0%" y2="100%"><stop offset="0%" stop-color="#E0E5F0"/><stop offset="100%" stop-color="#D1D9E6"/></linearGradient></defs><g><rect fill="#F5F5F5" height="800" style="stroke:none;stroke-width:1;" width="880" x="0" y="0"/><g class="title" data-source-line="1"><text fill="#000000" font-family="'Arial'" font-size="14" font-weight="700" lengthAdjust="spacing" textLength="80.0283" x="396.7988" y="27.9951">Plan-Read</text></g><g><title>GDA 1</title><rect fill="#0078D4" fill-opacity="0.37647" height="515.1016" style="stroke:#181818;stroke-width:1;" width="10" x="116.2817" y="194.0234"/></g><g><title>e-Med FA</title><rect fill="#F5A403" fill-opacity="0.37647" height="388.0781" style="stroke:#181818;stroke-width:1;" width="10" x="481.8271" y="194.0234"/></g><rect fill="#50E6FF" fill-opacity="0.14510" height="271.2188" rx="5" ry="5" style="stroke:#111827;stroke-width:2;" width="692.9683" x="86" y="318.8828"/><path d="M86,485.4063 L778.9683,485.4063 L778.9683,585.1016 A5,5 0 0 1 773.9683,590.1016 L91,590.1016 A5,5 0 0 1 86,585.1016 L86,485.4063" fill="#FF8C00" fill-opacity="0.20784" style="stroke:none;stroke-width:1;"/><g class="participant-lifeline" data-entity-uid="part1" data-qualified-name="GDA_1" data-source-line="50" id="part1-lifeline"><g><title>GDA 1</title><rect fill="#000000" fill-opacity="0.00000" height="599.5313" width="8" x="117.2817" y="118.5938"/><line style="stroke:#181818;stroke-width:0.5;stroke-dasharray:5,5;" x1="121" x2="121" y1="118.5938" y2="718.125"/></g></g><g class="participant-lifeline" data-entity-uid="part2" data-qualified-name="eMed_FA" data-source-line="51" id="part2-lifeline"><g><title>e-Med FA</title><rect fill="#000000" fill-opacity="0.00000" height="599.5313" width="8" x="482.8271" y="118.5938"/><line style="stroke:#181818;stroke-width:0.5;stroke-dasharray:5,5;" x1="486.165" x2="486.165" y1="118.5938" y2="718.125"/></g></g><g class="participant-lifeline" data-entity-uid="part3" data-qualified-name="GDA_2" data-source-line="52" id="part3-lifeline"><g><title>GDA 2</title><rect fill="#000000" fill-opacity="0.00000" height="599.5313" width="8" x="774.9683" y="118.5938"/><line style="stroke:#181818;stroke-width:0.5;stroke-dasharray:5,5;" x1="778.6865" x2="778.6865" y1="118.5938" y2="718.125"/></g></g><g class="participant-lifeline" data-entity-uid="part4" data-qualified-name="Patient" data-source-line="53" id="part4-lifeline"><g><title>Patient</title><rect fill="#000000" fill-opacity="0.00000" height="599.5313" width="8" x="837.938" y="118.5938"/><line style="stroke:#181818;stroke-width:0.5;stroke-dasharray:5,5;" x1="841.25" x2="841.25" y1="118.5938" y2="718.125"/></g></g><g class="participant participant-head" data-entity-uid="part1" data-qualified-name="GDA_1" data-source-line="50" id="part1-head"><text fill="#000000" font-family="'Arial'" font-size="14" lengthAdjust="spacing" textLength="44.5635" x="96" y="115.292">GDA 1</text><ellipse cx="121.2817" cy="50.7969" fill="#0078D4" fill-opacity="0.37647" rx="8" ry="8" style="stroke:#181818;stroke-width:0.5;"/><path d="M121.2817,58.7969 L121.2817,85.7969 M108.2817,66.7969 L134.2817,66.7969 M121.2817,85.7969 L108.2817,100.7969 M121.2817,85.7969 L134.2817,100.7969" fill="none" style="stroke:#181818;stroke-width:0.5;"/></g><g class="participant participant-tail" data-entity-uid="part1" data-qualified-name="GDA_1" data-source-line="50" id="part1-tail"><text fill="#000000" font-family="'Arial'" font-size="14" lengthAdjust="spacing" textLength="44.5635" x="96" y="730.1201">GDA 1</text><ellipse cx="121.2817" cy="741.9219" fill="#0078D4" fill-opacity="0.37647" rx="8" ry="8" style="stroke:#181818;stroke-width:0.5;"/><path d="M121.2817,749.9219 L121.2817,776.9219 M108.2817,757.9219 L134.2817,757.9219 M121.2817,776.9219 L108.2817,791.9219 M121.2817,776.9219 L134.2817,791.9219" fill="none" style="stroke:#181818;stroke-width:0.5;"/></g><g class="participant participant-head" data-entity-uid="part2" data-qualified-name="eMed_FA" data-source-line="51" id="part2-head"><rect fill="#F5A403" fill-opacity="0.37647" height="30.2969" rx="5" ry="5" style="stroke:#555555;stroke-width:0.5;" width="79.3242" x="447.165" y="87.2969"/><text fill="#000000" font-family="'Arial'" font-size="14" lengthAdjust="spacing" textLength="65.3242" x="454.165" y="107.292">e-Med FA</text></g><g class="participant participant-tail" data-entity-uid="part2" data-qualified-name="eMed_FA" data-source-line="51" id="part2-tail"><rect fill="#F5A403" fill-opacity="0.37647" height="30.2969" rx="5" ry="5" style="stroke:#555555;stroke-width:0.5;" width="79.3242" x="447.165" y="717.125"/><text fill="#000000" font-family="'Arial'" font-size="14" lengthAdjust="spacing" textLength="65.3242" x="454.165" y="737.1201">e-Med FA</text></g><g class="participant participant-head" data-entity-uid="part3" data-qualified-name="GDA_2" data-source-line="52" id="part3-head"><text fill="#000000" font-family="'Arial'" font-size="14" lengthAdjust="spacing" textLength="44.5635" x="753.6865" y="115.292">GDA 2</text><ellipse cx="778.9683" cy="50.7969" fill="#8764B8" fill-opacity="0.37647" rx="8" ry="8" style="stroke:#181818;stroke-width:0.5;"/><path d="M778.9683,58.7969 L778.9683,85.7969 M765.9683,66.7969 L791.9683,66.7969 M778.9683,85.7969 L765.9683,100.7969 M778.9683,85.7969 L791.9683,100.7969" fill="none" style="stroke:#181818;stroke-width:0.5;"/></g><g class="participant participant-tail" data-entity-uid="part3" data-qualified-name="GDA_2" data-source-line="52" id="part3-tail"><text fill="#000000" font-family="'Arial'" font-size="14" lengthAdjust="spacing" textLength="44.5635" x="753.6865" y="730.1201">GDA 2</text><ellipse cx="778.9683" cy="741.9219" fill="#8764B8" fill-opacity="0.37647" rx="8" ry="8" style="stroke:#181818;stroke-width:0.5;"/><path d="M778.9683,749.9219 L778.9683,776.9219 M765.9683,757.9219 L791.9683,757.9219 M778.9683,776.9219 L765.9683,791.9219 M778.9683,776.9219 L791.9683,791.9219" fill="none" style="stroke:#181818;stroke-width:0.5;"/></g><g class="participant participant-head" data-entity-uid="part4" data-qualified-name="Patient" data-source-line="53" id="part4-head"><text fill="#000000" font-family="'Arial'" font-size="14" lengthAdjust="spacing" textLength="49.376" x="814.25" y="115.292">Patient</text><ellipse cx="841.938" cy="50.7969" fill="#009505" fill-opacity="0.37647" rx="8" ry="8" style="stroke:#181818;stroke-width:0.5;"/><path d="M841.938,58.7969 L841.938,85.7969 M828.938,66.7969 L854.938,66.7969 M841.938,85.7969 L828.938,100.7969 M841.938,85.7969 L854.938,100.7969" fill="none" style="stroke:#181818;stroke-width:0.5;"/></g><g class="participant participant-tail" data-entity-uid="part4" data-qualified-name="Patient" data-source-line="53" id="part4-tail"><text fill="#000000" font-family="'Arial'" font-size="14" lengthAdjust="spacing" textLength="49.376" x="814.25" y="730.1201">Patient</text><ellipse cx="841.938" cy="741.9219" fill="#009505" fill-opacity="0.37647" rx="8" ry="8" style="stroke:#181818;stroke-width:0.5;"/><path d="M841.938,749.9219 L841.938,776.9219 M828.938,757.9219 L854.938,757.9219 M841.938,776.9219 L828.938,791.9219 M841.938,776.9219 L854.938,791.9219" fill="none" style="stroke:#181818;stroke-width:0.5;"/></g><g><title>GDA 1</title><rect fill="#0078D4" fill-opacity="0.37647" height="515.1016" style="stroke:#181818;stroke-width:1;" width="10" x="116.2817" y="194.0234"/></g><g><title>e-Med FA</title><rect fill="#F5A403" fill-opacity="0.37647" height="388.0781" style="stroke:#181818;stroke-width:1;" width="10" x="481.8271" y="194.0234"/></g><rect fill="#EEEEEE" height="3" rx="5" ry="5" style="stroke:#EEEEEE;stroke-width:1;" width="874.626" x="0" y="149.7422"/><line style="stroke:#000000;stroke-width:1;" x1="0" x2="874.626" y1="149.7422" y2="149.7422"/><line style="stroke:#000000;stroke-width:1;" x1="0" x2="874.626" y1="152.7422" y2="152.7422"/><rect fill="#EEEEEE" height="24.2969" rx="5" ry="5" style="stroke:#000000;stroke-width:2;" width="216.2891" x="329.1685" y="138.5938"/><text fill="#000000" font-family="'Arial'" font-size="14" font-weight="700" lengthAdjust="spacing" textLength="197.415" x="335.1685" y="155.5889">Medikationsplan abrufen</text><g class="message" data-entity-1="part1" data-entity-2="part2" data-source-line="59" id="msg1"><polygon fill="#111827" points="469.8271,190.0234,479.8271,194.0234,469.8271,198.0234,473.8271,194.0234" style="stroke:#111827;stroke-width:1;stroke-linejoin:miter;stroke-miterlimit:10;"/><line style="stroke:#111827;stroke-width:1;" x1="126.2817" x2="475.8271" y1="194.0234" y2="194.0234"/><text fill="#000000" font-family="'Arial'" font-size="13" font-weight="700" lengthAdjust="spacing" textLength="9.0454" x="133.2817" y="188.9575">1</text><text fill="#000000" font-family="'Arial'" font-size="13" lengthAdjust="spacing" textLength="108.9893" x="146.3271" y="188.9575">POST $plan-read</text></g><path d="M5,212.0234 L5,244.0234 A5,5 0 0 0 10,249.0234 L232,249.0234 A5,5 0 0 0 237,244.0234 L237,217.0234 L227,207.0234 L10,207.0234 A5,5 0 0 0 5,212.0234" fill="url(#g1qrcpszpytaz60)" style="stroke:#8B95A5;stroke-width:1;"/><path d="M227,207.0234 L227,214.5234 A2.5,2.5 0 0 0 229.5,217.0234 L237,217.0234 L227,207.0234" fill="url(#g1qrcpszpytaz60)" style="stroke:#8B95A5;stroke-width:1;"/><text fill="#111827" font-family="'Arial'" font-size="14" lengthAdjust="spacing" textLength="177.9053" x="11" y="225.0186">Medikationsplan abrufen,</text><text fill="#111827" font-family="'Arial'" font-size="14" lengthAdjust="spacing" textLength="211.5859" x="11" y="241.3154">mit der Intention zu schreiben</text><g class="message" data-entity-1="part2" data-entity-2="part2" data-source-line="68" id="msg2"><line style="stroke:#111827;stroke-width:1;" x1="491.8271" x2="533.8271" y1="290.8828" y2="290.8828"/><line style="stroke:#111827;stroke-width:1;" x1="533.8271" x2="533.8271" y1="290.8828" y2="303.8828"/><line style="stroke:#111827;stroke-width:1;" x1="492.8271" x2="533.8271" y1="303.8828" y2="303.8828"/><polygon fill="#111827" points="502.8271,299.8828,492.8271,303.8828,502.8271,307.8828,498.8271,303.8828" style="stroke:#111827;stroke-width:1;stroke-linejoin:miter;stroke-miterlimit:10;"/><text fill="#000000" font-family="'Arial'" font-size="13" font-weight="700" lengthAdjust="spacing" textLength="9.0454" x="498.8271" y="278.2505">2</text><text fill="#000000" font-family="'Arial'" font-size="13" lengthAdjust="spacing" textLength="164.8613" x="511.8726" y="270.6841">Pr&#252;fung auf bestehenden</text><text fill="#000000" font-family="'Arial'" font-size="13" lengthAdjust="spacing" textLength="106.3169" x="511.8726" y="285.8169">Medikationsplan</text></g><path d="M91,318.8828 L151.9385,318.8828 L151.9385,327.1797 L141.9385,337.1797 L86,337.1797 L86,323.8828 A5,5 0 0 1 91,318.8828" fill="#EEF2FF" style="stroke:#111827;stroke-width:1.5;"/><rect fill="none" height="271.2188" rx="5" ry="5" style="stroke:#111827;stroke-width:2;" width="692.9683" x="86" y="318.8828"/><text fill="#000000" font-family="'Arial'" font-size="14" font-weight="700" lengthAdjust="spacing" textLength="20.9385" x="101" y="332.8779">alt</text><text fill="#000000" font-family="'Arial'" font-size="14" font-weight="700" lengthAdjust="spacing" textLength="232.832" x="166.9385" y="333.8779">[Medikationsplan vorhanden]</text><g class="message" data-entity-1="part2" data-entity-2="part2" data-source-line="71" id="msg3"><line style="stroke:#111827;stroke-width:1;" x1="491.8271" x2="533.8271" y1="420.1406" y2="420.1406"/><line style="stroke:#111827;stroke-width:1;" x1="533.8271" x2="533.8271" y1="420.1406" y2="433.1406"/><line style="stroke:#111827;stroke-width:1;" x1="492.8271" x2="533.8271" y1="433.1406" y2="433.1406"/><polygon fill="#111827" points="502.8271,429.1406,492.8271,433.1406,502.8271,437.1406,498.8271,433.1406" style="stroke:#111827;stroke-width:1;stroke-linejoin:miter;stroke-miterlimit:10;"/><text fill="#000000" font-family="'Arial'" font-size="13" font-weight="700" lengthAdjust="spacing" textLength="9.0454" x="498.8271" y="384.8091">3</text><text fill="#000000" font-family="'Arial'" font-size="13" lengthAdjust="spacing" textLength="242.0488" x="511.8726" y="354.5435">Stellt Auslieferungs-Medikationsplan-</text><text fill="#000000" font-family="'Arial'" font-size="13" lengthAdjust="spacing" textLength="161.0654" x="511.8726" y="369.6763">Collection-Bundle bereit:</text><text fill="#000000" font-family="'Arial'" font-size="13" lengthAdjust="spacing" textLength="74.3818" x="511.8726" y="384.8091">Bedingung:</text><text fill="#000000" font-family="'Arial'" font-size="13" lengthAdjust="spacing" textLength="187.897" x="511.8726" y="399.9419">- new|changed &#8594; unchanged</text><text fill="#000000" font-family="'Arial'" font-size="13" lengthAdjust="spacing" textLength="149.6143" x="511.8726" y="415.0747">- removed &#8594; entfernen</text></g><g class="message" data-entity-1="part2" data-entity-2="part1" data-source-line="72" id="msg4"><polygon fill="#111827" points="137.2817,473.4063,127.2817,477.4063,137.2817,481.4063,133.2817,477.4063" style="stroke:#111827;stroke-width:1;stroke-linejoin:miter;stroke-miterlimit:10;"/><line style="stroke:#111827;stroke-width:1;" x1="131.2817" x2="480.8271" y1="477.4063" y2="477.4063"/><text fill="#000000" font-family="'Arial'" font-size="13" font-weight="700" lengthAdjust="spacing" textLength="9.0454" x="143.2817" y="464.7739">4</text><text fill="#000000" font-family="'Arial'" font-size="13" lengthAdjust="spacing" textLength="318.5" x="156.3271" y="457.2075">Auslieferungs-Medikationsplan-Collection-Bundle</text><text fill="#000000" font-family="'Arial'" font-size="13" lengthAdjust="spacing" textLength="194.0288" x="156.3271" y="472.3403">+ ETag f&#252;r Optimistic Locking</text></g><line style="stroke:#111827;stroke-width:1;stroke-dasharray:2,2;" x1="86" x2="778.9683" y1="486.4063" y2="486.4063"/><text fill="#000000" font-family="'Arial'" font-size="14" font-weight="700" lengthAdjust="spacing" textLength="271.2773" x="91" y="499.4014">[kein Medikationsplan vorhanden]</text><g class="message" data-entity-1="part2" data-entity-2="part2" data-source-line="74" id="msg5"><line style="stroke:#111827;stroke-width:1;" x1="491.8271" x2="533.8271" y1="539.9688" y2="539.9688"/><line style="stroke:#111827;stroke-width:1;" x1="533.8271" x2="533.8271" y1="539.9688" y2="552.9688"/><line style="stroke:#111827;stroke-width:1;" x1="492.8271" x2="533.8271" y1="552.9688" y2="552.9688"/><polygon fill="#111827" points="502.8271,548.9688,492.8271,552.9688,502.8271,556.9688,498.8271,552.9688" style="stroke:#111827;stroke-width:1;stroke-linejoin:miter;stroke-miterlimit:10;"/><text fill="#000000" font-family="'Arial'" font-size="13" font-weight="700" lengthAdjust="spacing" textLength="9.0454" x="498.8271" y="527.3364">5</text><text fill="#000000" font-family="'Arial'" font-size="13" lengthAdjust="spacing" textLength="205.7402" x="511.8726" y="519.77">Erzeugt leeren Medikationsplan</text><text fill="#000000" font-family="'Arial'" font-size="13" lengthAdjust="spacing" textLength="240.9634" x="516.0049" y="534.9028">mit List.emptyReason = "notstarted"</text></g><g class="message" data-entity-1="part2" data-entity-2="part1" data-source-line="75" id="msg6"><polygon fill="#111827" points="137.2817,578.1016,127.2817,582.1016,137.2817,586.1016,133.2817,582.1016" style="stroke:#111827;stroke-width:1;stroke-linejoin:miter;stroke-miterlimit:10;"/><line style="stroke:#111827;stroke-width:1;" x1="131.2817" x2="485.8271" y1="582.1016" y2="582.1016"/><text fill="#000000" font-family="'Arial'" font-size="13" font-weight="700" lengthAdjust="spacing" textLength="9.0454" x="143.2817" y="577.0356">6</text><text fill="#000000" font-family="'Arial'" font-size="13" lengthAdjust="spacing" textLength="152.3755" x="156.3271" y="577.0356">Leerer Medikationsplan</text></g><g class="message" data-entity-1="part1" data-entity-2="part1" data-source-line="79" id="msg7"><line style="stroke:#111827;stroke-width:1;" x1="126.2817" x2="168.2817" y1="618.2344" y2="618.2344"/><line style="stroke:#111827;stroke-width:1;" x1="168.2817" x2="168.2817" y1="618.2344" y2="631.2344"/><line style="stroke:#111827;stroke-width:1;" x1="127.2817" x2="168.2817" y1="631.2344" y2="631.2344"/><polygon fill="#111827" points="137.2817,627.2344,127.2817,631.2344,137.2817,635.2344,133.2817,631.2344" style="stroke:#111827;stroke-width:1;stroke-linejoin:miter;stroke-miterlimit:10;"/><text fill="#000000" font-family="'Arial'" font-size="13" font-weight="700" lengthAdjust="spacing" textLength="9.0454" x="133.2817" y="613.1685">7</text><text fill="#000000" font-family="'Arial'" font-size="13" lengthAdjust="spacing" textLength="249.8438" x="146.3271" y="613.1685">Eintr&#228;ge hinzuf&#252;gen/&#228;ndern/entfernen</text></g><path d="M15,649.2344 L15,697.2344 A5,5 0 0 0 20,702.2344 L221,702.2344 A5,5 0 0 0 226,697.2344 L226,654.2344 L216,644.2344 L20,644.2344 A5,5 0 0 0 15,649.2344" fill="url(#g1qrcpszpytaz60)" style="stroke:#8B95A5;stroke-width:1;"/><path d="M216,644.2344 L216,651.7344 A2.5,2.5 0 0 0 218.5,654.2344 L226,654.2344 L216,644.2344" fill="url(#g1qrcpszpytaz60)" style="stroke:#8B95A5;stroke-width:1;"/><text fill="#111827" font-family="'Arial'" font-size="14" lengthAdjust="spacing" textLength="183.0869" x="21" y="662.2295">Nach der Bearbeitung des</text><text fill="#111827" font-family="'Arial'" font-size="14" lengthAdjust="spacing" textLength="186.498" x="21" y="678.5264">Medikationsplans kann ein</text><text fill="#111827" font-family="'Arial'" font-size="14" lengthAdjust="spacing" textLength="139.4531" x="21" y="694.8232">Plan-Write erfolgen.</text><?plantuml-src bLPTZk9647xtAIfCtXBlsXuCp4X4WXcpkyhiW1YYI17IgB7BqCAqIRizavqahpb0ph37sBUvIKwIQcEW_REAqhpOLLzNVVLrLHl5LO8mIvYmvyWYoygsNEoPP3jOfJ92UPCcgOGBfrYcbuNRjKnp4PM8sDS_0v5jM9G-Sx66c2KP6fvocnGemJM3HXYpF56JLAXxjaFeZ2HdIQSTyS1V4Dnkk_DhjDz_sgDCkDWQW21e0_maek816_J7wMyp5aMwCi-fsiUcPdwnJ4b5gX1-jm36TVNGGJzsx8l8ZQwmfn5cfC7gocV-oRhOy70hCCl09TlSKDEXzoCt7SMGmdNTWTSdsqFjNFuq6MRuQuuYFB2SCQbuoFTCgBR2ge16FnIh2cgUJCDzFDMAmv0RO2Hb-bmlgZ1MTIbCRHbFZaEkIpAz8-RxIesdo0TNuxmmzehgZ9tdz9uMzHjgHzq-DzExwVpntUteqGLQnAC_kEtsd1Q0Lm06_LvtF6W0PgF5X-1-KKIuyXs_0HZDfW1bYd7_vh8123u6ju-J4UXXPLsd1V0u3tu9PWku2FhTWTyZG0qn_H7A7BuJz2OJpw-7cC-dym8mcGnk7EUI1e25YZGxAC0owD0Jk1rJ66j_Fcp0ZnXfcXgADht0PDIfbc24z4uXFJEaLq9cJ76ae1fKFdUgWXA_NAKYtwrGMjPm29IHRmcQYcnF5oEmbSnZ530SMjQX2Fk78ybhc4qV5l2j1jfItw2KbZynclC3r2pIAkO_VS9I3EihcRu7QySLNMSIFWX5Z0a0BpbauKOYNw6mK4J5PMATqnrLg-fqj5OOozSlSKxZnF8OLfWft50y54jHuqFH4tK--3hRfrHkcDv8Oz2Mvq5XGlj7UPPmZ55Ioiok1R6NWYOgmL1Rx34D67sEw22Gg-kb6ACUUzf7ppO8VFuZf8nhweX__leRSb6-QQV47GbxS91Yb4xKYHMQN_y7dmQRfVWEWWMZs_BrYuJfNl4TpwXNuIuDwTfSMqYNQANvjyZ5_nOha2-OhnKaICKtjYy5w8wueynlSBTNd-XZdL5J3A53RP0fcXwCEgtbtkc0iXwGe17MUqUtbT7YPO202oLVFwyHDboyv2J36iNRry_w-oZUdhLkTFSz2pT54u-HoHMTgEwv23Eeztq6MoO4QDciug_8pv9hLZ9E4yhrvjJk_m80?></g></svg>