<?xml version="1.0" encoding="us-ascii" standalone="no"?><svg xmlns="http://www.w3.org/2000/svg" xmlns:xlink="http://www.w3.org/1999/xlink" contentStyleType="text/css" height="570px" preserveAspectRatio="none" style="width:810px;height:570px;background:#F5F5F5;" version="1.1" viewBox="0 0 810 570" width="810px" zoomAndPan="magnify"><defs><linearGradient id="g1vwkb6gd2l3hy0" x1="50%" x2="50%" y1="0%" y2="100%"><stop offset="0%" stop-color="#E0E5F0"/><stop offset="100%" stop-color="#D1D9E6"/></linearGradient><filter height="300%" id="f1vwkb6gd2l3hy" width="300%" x="-1" y="-1"><feGaussianBlur result="blurOut" stdDeviation="2.0"/><feColorMatrix in="blurOut" result="blurOut2" type="matrix" values="0 0 0 0 0 0 0 0 0 0 0 0 0 0 0 0 0 0 .4 0"/><feOffset dx="4.0" dy="4.0" in="blurOut2" result="blurOut3"/><feBlend in="SourceGraphic" in2="blurOut3" mode="normal"/></filter></defs><g><rect fill="#F5F5F5" height="570" style="stroke:none;stroke-width:1.0;" width="810" x="0" y="0"/><text fill="#000000" font-family="Arial" font-size="14" font-weight="bold" lengthAdjust="spacing" textLength="124" x="339" y="28.1318">Plan-History-Read</text><rect fill="#9FBAC4" height="521.8286" rx="5" ry="5" style="stroke:#181818;stroke-width:0.5;" width="65" x="49" y="43.0986"/><text fill="#000000" font-family="Arial" font-size="14" font-weight="bold" lengthAdjust="spacing" textLength="4" x="52" y="56.2305">&#160;</text><text fill="#000000" font-family="Arial" font-size="14" font-weight="bold" lengthAdjust="spacing" textLength="43" x="60" y="72.3291">GDA 1</text><rect fill="#C48778" height="521.8286" rx="5" ry="5" style="stroke:#181818;stroke-width:0.5;" width="223" x="288.5" y="43.0986"/><text fill="#000000" font-family="Arial" font-size="14" font-weight="bold" lengthAdjust="spacing" textLength="4" x="291.5" y="56.2305">&#160;</text><text fill="#000000" font-family="Arial" font-size="14" font-weight="bold" lengthAdjust="spacing" textLength="161" x="319.5" y="72.3291">e-Med Fachanwendung</text><rect fill="#BEAEBE" height="521.8286" rx="5" ry="5" style="stroke:#181818;stroke-width:0.5;" width="73" x="601" y="43.0986"/><text fill="#000000" font-family="Arial" font-size="14" font-weight="bold" lengthAdjust="spacing" textLength="4" x="604" y="56.2305">&#160;</text><text fill="#000000" font-family="Arial" font-size="14" font-weight="bold" lengthAdjust="spacing" textLength="43" x="620" y="72.3291">GDA 2</text><rect fill="#BAC38B" height="521.8286" rx="5" ry="5" style="stroke:#181818;stroke-width:0.5;" width="66" x="716" y="43.0986"/><text fill="#000000" font-family="Arial" font-size="14" font-weight="bold" lengthAdjust="spacing" textLength="4" x="719" y="56.2305">&#160;</text><text fill="#000000" font-family="Arial" font-size="14" font-weight="bold" lengthAdjust="spacing" textLength="48" x="723" y="72.3291">Patient</text><rect fill="#FFFFFF" height="159.0908" style="stroke:#181818;stroke-width:1.0;" width="10" x="76.5" y="230.4419"/><rect fill="#FFFFFF" height="159.0908" style="stroke:#181818;stroke-width:1.0;" width="10" x="395" y="230.4419"/><rect fill="none" height="95.1934" rx="5" ry="5" style="stroke:#111827;stroke-width:2.0;" width="421" x="47.5" y="302.3394"/><line style="stroke:#181818;stroke-width:0.5;stroke-dasharray:5.0,5.0;" x1="81.5" x2="81.5" y1="155.3945" y2="485.8286"/><line style="stroke:#181818;stroke-width:0.5;stroke-dasharray:5.0,5.0;" x1="399.5" x2="399.5" y1="155.3945" y2="485.8286"/><line style="stroke:#181818;stroke-width:0.5;stroke-dasharray:5.0,5.0;" x1="637.5" x2="637.5" y1="155.3945" y2="485.8286"/><line style="stroke:#181818;stroke-width:0.5;stroke-dasharray:5.0,5.0;" x1="749" x2="749" y1="155.3945" y2="485.8286"/><text fill="#000000" font-family="Arial" font-size="14" lengthAdjust="spacing" textLength="42" x="57.5" y="152.4277">GDA 1</text><ellipse cx="81.5" cy="87.7959" fill="#E2E2F0" rx="8" ry="8" style="stroke:#181818;stroke-width:0.5;"/><path d="M81.5,95.7959 L81.5,122.7959 M68.5,103.7959 L94.5,103.7959 M81.5,122.7959 L68.5,137.7959 M81.5,122.7959 L94.5,137.7959 " fill="none" style="stroke:#181818;stroke-width:0.5;"/><text fill="#000000" font-family="Arial" font-size="14" lengthAdjust="spacing" textLength="42" x="57.5" y="497.9604">GDA 1</text><ellipse cx="81.5" cy="509.4272" fill="#E2E2F0" rx="8" ry="8" style="stroke:#181818;stroke-width:0.5;"/><path d="M81.5,517.4272 L81.5,544.4272 M68.5,525.4272 L94.5,525.4272 M81.5,544.4272 L68.5,559.4272 M81.5,544.4272 L94.5,559.4272 " fill="none" style="stroke:#181818;stroke-width:0.5;"/><rect fill="#FFFFFF" height="30.0986" rx="5" ry="5" style="stroke:#555555;stroke-width:0.5;" width="77" x="361.5" y="124.2959"/><text fill="#000000" font-family="Arial" font-size="14" lengthAdjust="spacing" textLength="63" x="368.5" y="144.4277">e-Med FA</text><rect fill="#FFFFFF" height="30.0986" rx="5" ry="5" style="stroke:#555555;stroke-width:0.5;" width="77" x="361.5" y="484.8286"/><text fill="#000000" font-family="Arial" font-size="14" lengthAdjust="spacing" textLength="63" x="368.5" y="504.9604">e-Med FA</text><text fill="#000000" font-family="Arial" font-size="14" lengthAdjust="spacing" textLength="42" x="613.5" y="152.4277">GDA 2</text><ellipse cx="637.5" cy="87.7959" fill="#E2E2F0" rx="8" ry="8" style="stroke:#181818;stroke-width:0.5;"/><path d="M637.5,95.7959 L637.5,122.7959 M624.5,103.7959 L650.5,103.7959 M637.5,122.7959 L624.5,137.7959 M637.5,122.7959 L650.5,137.7959 " fill="none" style="stroke:#181818;stroke-width:0.5;"/><text fill="#000000" font-family="Arial" font-size="14" lengthAdjust="spacing" textLength="42" x="613.5" y="497.9604">GDA 2</text><ellipse cx="637.5" cy="509.4272" fill="#E2E2F0" rx="8" ry="8" style="stroke:#181818;stroke-width:0.5;"/><path d="M637.5,517.4272 L637.5,544.4272 M624.5,525.4272 L650.5,525.4272 M637.5,544.4272 L624.5,559.4272 M637.5,544.4272 L650.5,559.4272 " fill="none" style="stroke:#181818;stroke-width:0.5;"/><text fill="#000000" font-family="Arial" font-size="14" lengthAdjust="spacing" textLength="44" x="724" y="152.4277">Patient</text><ellipse cx="749" cy="87.7959" fill="#E2E2F0" rx="8" ry="8" style="stroke:#181818;stroke-width:0.5;"/><path d="M749,95.7959 L749,122.7959 M736,103.7959 L762,103.7959 M749,122.7959 L736,137.7959 M749,122.7959 L762,137.7959 " fill="none" style="stroke:#181818;stroke-width:0.5;"/><text fill="#000000" font-family="Arial" font-size="14" lengthAdjust="spacing" textLength="44" x="724" y="497.9604">Patient</text><ellipse cx="749" cy="509.4272" fill="#E2E2F0" rx="8" ry="8" style="stroke:#181818;stroke-width:0.5;"/><path d="M749,517.4272 L749,544.4272 M736,525.4272 L762,525.4272 M749,544.4272 L736,559.4272 M749,544.4272 L762,559.4272 " fill="none" style="stroke:#181818;stroke-width:0.5;"/><rect fill="#FFFFFF" height="159.0908" style="stroke:#181818;stroke-width:1.0;" width="10" x="76.5" y="230.4419"/><rect fill="#FFFFFF" height="159.0908" style="stroke:#181818;stroke-width:1.0;" width="10" x="395" y="230.4419"/><rect fill="#EEEEEE" height="3" rx="5" ry="5" style="stroke:#EEEEEE;stroke-width:1.0;" width="803" x="0" y="186.4438"/><line style="stroke:#000000;stroke-width:1.0;" x1="0" x2="803" y1="186.4438" y2="186.4438"/><line style="stroke:#000000;stroke-width:1.0;" x1="0" x2="803" y1="189.4438" y2="189.4438"/><rect fill="#EEEEEE" height="24.0986" rx="5" ry="5" style="stroke:#000000;stroke-width:2.0;" width="173" x="315" y="175.3945"/><text fill="#000000" font-family="Arial" font-size="14" font-weight="bold" lengthAdjust="spacing" textLength="155" x="321" y="192.5264">Medikationsplan lesen</text><line style="stroke:#111827;stroke-width:1.0;" x1="393" x2="383" y1="230.4419" y2="226.4419"/><line style="stroke:#111827;stroke-width:1.0;" x1="393" x2="383" y1="230.4419" y2="234.4419"/><line style="stroke:#111827;stroke-width:1.0;" x1="86.5" x2="394" y1="230.4419" y2="230.4419"/><text fill="#000000" font-family="Arial" font-size="13" font-weight="bold" lengthAdjust="spacing" textLength="7" x="93.5" y="225.687">1</text><text fill="#000000" font-family="Arial" font-size="13" lengthAdjust="spacing" textLength="230" x="104.5" y="225.687">GET Medikationsplan-Collection-Bundle</text><line style="stroke:#111827;stroke-width:1.0;" x1="405" x2="447" y1="274.3394" y2="274.3394"/><line style="stroke:#111827;stroke-width:1.0;" x1="447" x2="447" y1="274.3394" y2="287.3394"/><line style="stroke:#111827;stroke-width:1.0;" x1="406" x2="447" y1="287.3394" y2="287.3394"/><polygon fill="#111827" points="416,283.3394,406,287.3394,416,291.3394,412,287.3394" style="stroke:#111827;stroke-width:1.0;"/><text fill="#000000" font-family="Arial" font-size="13" font-weight="bold" lengthAdjust="spacing" textLength="7" x="412" y="262.1101">2</text><text fill="#000000" font-family="Arial" font-size="13" lengthAdjust="spacing" textLength="145" x="423" y="254.6357">Pr&#252;fung auf bestehenden</text><text fill="#000000" font-family="Arial" font-size="13" lengthAdjust="spacing" textLength="94" x="423" y="269.5845">Medikationsplan</text><path d="M52.5,302.3394 L109.5,302.3394 L109.5,310.438 L99.5,320.438 L47.5,320.438 L47.5,307.3394 A5,5 0 0 1 52.5,302.3394 " fill="#EEF2FF" style="stroke:#111827;stroke-width:1.5;"/><rect fill="none" height="95.1934" rx="5" ry="5" style="stroke:#111827;stroke-width:2.0;" width="421" x="47.5" y="302.3394"/><text fill="#000000" font-family="Arial" font-size="14" font-weight="bold" lengthAdjust="spacing" textLength="17" x="62.5" y="316.4712">alt</text><text fill="#000000" font-family="Arial" font-size="14" font-weight="bold" lengthAdjust="spacing" textLength="235" x="124.5" y="317.4712">[kein Medikationsplan vorhanden]</text><line style="stroke:#111827;stroke-width:1.0;" x1="87.5" x2="97.5" y1="342.4854" y2="338.4854"/><line style="stroke:#111827;stroke-width:1.0;" x1="87.5" x2="97.5" y1="342.4854" y2="346.4854"/><line style="stroke:#111827;stroke-width:1.0;stroke-dasharray:2.0,2.0;" x1="86.5" x2="394" y1="342.4854" y2="342.4854"/><text fill="#000000" font-family="Arial" font-size="13" font-weight="bold" lengthAdjust="spacing" textLength="7" x="103.5" y="337.7305">3</text><text fill="#000000" font-family="Arial" font-size="13" lengthAdjust="spacing" textLength="90" x="114.5" y="337.7305">leeres Ergebnis</text><line style="stroke:#111827;stroke-width:1.0;stroke-dasharray:2.0,2.0;" x1="47.5" x2="468.5" y1="351.4854" y2="351.4854"/><text fill="#000000" font-family="Arial" font-size="14" font-weight="bold" lengthAdjust="spacing" textLength="202" x="52.5" y="364.6172">[Medikationsplan vorhanden]</text><line style="stroke:#111827;stroke-width:1.0;" x1="82.5" x2="92.5" y1="389.5327" y2="385.5327"/><line style="stroke:#111827;stroke-width:1.0;" x1="82.5" x2="92.5" y1="389.5327" y2="393.5327"/><line style="stroke:#111827;stroke-width:1.0;stroke-dasharray:2.0,2.0;" x1="81.5" x2="399" y1="389.5327" y2="389.5327"/><text fill="#000000" font-family="Arial" font-size="13" font-weight="bold" lengthAdjust="spacing" textLength="7" x="98.5" y="384.7778">4</text><text fill="#000000" font-family="Arial" font-size="13" lengthAdjust="spacing" textLength="199" x="109.5" y="384.7778">Medikationsplan-Collection-Bundle</text><path d="M5,414.5327 L5,462.5327 A5,5 0 0 0 10,467.5327 L469,467.5327 A5,5 0 0 0 474,462.5327 L474,419.5327 L464,409.5327 L10,409.5327 A5,5 0 0 0 5,414.5327 " fill="url(#g1vwkb6gd2l3hy0)" filter="url(#f1vwkb6gd2l3hy)" style="stroke:#8B95A5;stroke-width:1.0;"/><path d="M464,409.5327 L464,417.0327 A2.5,2.5 0 0 0 466.5,419.5327 L474,419.5327 L464,409.5327 " fill="url(#g1vwkb6gd2l3hy0)" style="stroke:#8B95A5;stroke-width:1.0;"/><text fill="#111827" font-family="Arial" font-size="14" lengthAdjust="spacing" textLength="444" x="11" y="427.6646">Die Fachanwendung liefert den zuletzt gespeicherten Medikationsplan</text><text fill="#111827" font-family="Arial" font-size="14" lengthAdjust="spacing" textLength="423" x="11" y="443.7632">(unver&#228;ndert, inkl. aller referenzierten Ressourcen) oder ein leeres</text><text fill="#111827" font-family="Arial" font-size="14" lengthAdjust="spacing" textLength="106" x="11" y="459.8618">Ergebnis zur&#252;ck.</text><!--SRC=[bLJTJjim5BxtKnoLcqqYY0Gw2bAH2XIusLGLTeU4dEIajMhip77uwRItsMFiZXVRiPi6fwqqpRc9pyztllCTsrPOYJ2HN4MtehBQl4LJv3ch5aALtF0dIBN9qLnggGti7VeLUdcsc1bTgxo9AFhk2oAgES_rYr0pABYiCF0qQKQXWJW4pR7WjRJNMjbl_0cXDpA2ozxkY3knH8YFTpkxj8COfIt2JmPmiTa07cA_E8psyZW_nIyk8XHWa9xsUR-rtiz5jb1OLH2JRHeqDA3zXEUvQzoX16pYE1ua9sIxQwMnfaRsAoHu-rQYaK8jWXR6urq1trNkVx0HEDGUVzIeibMd4swio4J9bUsqrFTh8s1hh7vrWxO5tdAlXzDnh6L9NCB86FsoAOmtThNrfbqLMyUgrX6PReXvsUcnHLwvjcQEHUAx2p8_oYVToLperw23ZdsNhYpLhz1xK0H-DO8Oe0TxfmNT6wSAp-ZAESTZ3Bo2dW_fCLGvtRlN8DSlZBvY3jSyctFrGZ4rKLWjmhmy7foSk5DNVYWDI0cFroEFtMIFTiExoea7If5ZYXroIKiksP4zuLOW5VF9F3iQf6toskNIc_y0WF7QQbK_fMWO6mw1-8a5HMbLbVGYWSGA5Go7ZAqKYixFrnsTmStuVZCX8kKbPcuVNT1q9JAY8PuvtNMFm3xs3GvRAnG5q1Fp_gTmulAwW1GhYtFYZEf1RHGaF6bXWK9jSN_MXgP4IQH5MyCru8cSKMzei8AncM6gHCMGhkv_W_oxVw3NS4E3ZgcLGUNCludw6Pi3kTywhmHkd3efi41Z2Kd1ifPebnPcM9KeiZdPSLiFzgbM1Ft-sxrMTX_euP87m8cl0UF0K2t5AdLAbqxN9aFr6JH5WzDtfHTRwqLLQKZPui2V9iUSiRy0]--></g></svg>