<?xml version="1.0" encoding="us-ascii" standalone="no"?><svg xmlns="http://www.w3.org/2000/svg" xmlns:xlink="http://www.w3.org/1999/xlink" contentStyleType="text/css" height="1376px" preserveAspectRatio="none" style="width:1103px;height:1376px;background:#F5F5F5;" version="1.1" viewBox="0 0 1103 1376" width="1103px" zoomAndPan="magnify"><defs/><g><rect fill="#F5F5F5" height="1376" style="stroke:none;stroke-width:1.0;" width="1103" x="0" y="0"/><text fill="#000000" font-family="Arial" font-size="14" font-weight="bold" lengthAdjust="spacing" textLength="215" x="440.25" y="28.1318">Patient Journey - e-Medikation</text><rect fill="#BAC38B" height="1327.6494" rx="5" ry="5" style="stroke:#181818;stroke-width:0.5;" width="121" x="21" y="43.0986"/><text fill="#000000" font-family="Arial" font-size="14" font-weight="bold" lengthAdjust="spacing" textLength="4" x="53" y="56.2305">&#160;</text><text fill="#000000" font-family="Arial" font-size="14" font-weight="bold" lengthAdjust="spacing" textLength="49" x="57" y="72.3291">Patient</text><rect fill="#9FBAC4" height="1327.6494" rx="5" ry="5" style="stroke:#181818;stroke-width:0.5;" width="114" x="184" y="43.0986"/><text fill="#000000" font-family="Arial" font-size="14" font-weight="bold" lengthAdjust="spacing" textLength="4" x="217" y="56.2305">&#160;</text><text fill="#000000" font-family="Arial" font-size="14" font-weight="bold" lengthAdjust="spacing" textLength="40" x="221" y="72.3291">&#196;rztin</text><rect fill="#BEAEBE" height="1327.6494" rx="5" ry="5" style="stroke:#181818;stroke-width:0.5;" width="137" x="493.5" y="43.0986"/><text fill="#000000" font-family="Arial" font-size="14" font-weight="bold" lengthAdjust="spacing" textLength="4" x="524.5" y="56.2305">&#160;</text><text fill="#000000" font-family="Arial" font-size="14" font-weight="bold" lengthAdjust="spacing" textLength="67" x="528.5" y="72.3291">Apotheke</text><rect fill="#C48F81" height="1327.6494" rx="5" ry="5" style="stroke:#181818;stroke-width:0.5;" width="227" x="848.5" y="43.0986"/><text fill="#000000" font-family="Arial" font-size="14" font-weight="bold" lengthAdjust="spacing" textLength="4" x="851.5" y="56.2305">&#160;</text><text fill="#000000" font-family="Arial" font-size="14" font-weight="bold" lengthAdjust="spacing" textLength="165" x="879.5" y="72.3291">e-Med Fachanwendung</text><line style="stroke:#181818;stroke-width:0.5;stroke-dasharray:5.0,5.0;" x1="81" x2="81" y1="155.3945" y2="1291.6494"/><line style="stroke:#181818;stroke-width:0.5;stroke-dasharray:5.0,5.0;" x1="241" x2="241" y1="155.3945" y2="1291.6494"/><line style="stroke:#181818;stroke-width:0.5;stroke-dasharray:5.0,5.0;" x1="561.5" x2="561.5" y1="155.3945" y2="1291.6494"/><line style="stroke:#181818;stroke-width:0.5;stroke-dasharray:5.0,5.0;" x1="961.5" x2="961.5" y1="155.3945" y2="1291.6494"/><text fill="#000000" font-family="Arial" font-size="14" lengthAdjust="spacing" textLength="107" x="25" y="152.4277">Max Mustermann</text><ellipse cx="81.5" cy="87.7959" fill="#E2E2F0" rx="8" ry="8" style="stroke:#181818;stroke-width:0.5;"/><path d="M81.5,95.7959 L81.5,122.7959 M68.5,103.7959 L94.5,103.7959 M81.5,122.7959 L68.5,137.7959 M81.5,122.7959 L94.5,137.7959 " fill="none" style="stroke:#181818;stroke-width:0.5;"/><text fill="#000000" font-family="Arial" font-size="14" lengthAdjust="spacing" textLength="107" x="25" y="1303.7813">Max Mustermann</text><ellipse cx="81.5" cy="1315.248" fill="#E2E2F0" rx="8" ry="8" style="stroke:#181818;stroke-width:0.5;"/><path d="M81.5,1323.248 L81.5,1350.248 M68.5,1331.248 L94.5,1331.248 M81.5,1350.248 L68.5,1365.248 M81.5,1350.248 L94.5,1365.248 " fill="none" style="stroke:#181818;stroke-width:0.5;"/><text fill="#000000" font-family="Arial" font-size="14" lengthAdjust="spacing" textLength="100" x="188" y="152.4277">Dr. Muster&#228;rztin</text><ellipse cx="241" cy="87.7959" fill="#E2E2F0" rx="8" ry="8" style="stroke:#181818;stroke-width:0.5;"/><path d="M241,95.7959 L241,122.7959 M228,103.7959 L254,103.7959 M241,122.7959 L228,137.7959 M241,122.7959 L254,137.7959 " fill="none" style="stroke:#181818;stroke-width:0.5;"/><text fill="#000000" font-family="Arial" font-size="14" lengthAdjust="spacing" textLength="100" x="188" y="1303.7813">Dr. Muster&#228;rztin</text><ellipse cx="241" cy="1315.248" fill="#E2E2F0" rx="8" ry="8" style="stroke:#181818;stroke-width:0.5;"/><path d="M241,1323.248 L241,1350.248 M228,1331.248 L254,1331.248 M241,1350.248 L228,1365.248 M241,1350.248 L254,1365.248 " fill="none" style="stroke:#181818;stroke-width:0.5;"/><text fill="#000000" font-family="Arial" font-size="14" lengthAdjust="spacing" textLength="123" x="497.5" y="152.4277">Amadeus Apotheke</text><ellipse cx="562" cy="87.7959" fill="#E2E2F0" rx="8" ry="8" style="stroke:#181818;stroke-width:0.5;"/><path d="M562,95.7959 L562,122.7959 M549,103.7959 L575,103.7959 M562,122.7959 L549,137.7959 M562,122.7959 L575,137.7959 " fill="none" style="stroke:#181818;stroke-width:0.5;"/><text fill="#000000" font-family="Arial" font-size="14" lengthAdjust="spacing" textLength="123" x="497.5" y="1303.7813">Amadeus Apotheke</text><ellipse cx="562" cy="1315.248" fill="#E2E2F0" rx="8" ry="8" style="stroke:#181818;stroke-width:0.5;"/><path d="M562,1323.248 L562,1350.248 M549,1331.248 L575,1331.248 M562,1350.248 L549,1365.248 M562,1350.248 L575,1365.248 " fill="none" style="stroke:#181818;stroke-width:0.5;"/><rect fill="#FFFFFF" height="30.0986" rx="5" ry="5" style="stroke:#555555;stroke-width:0.5;" width="95" x="914.5" y="124.2959"/><text fill="#000000" font-family="Arial" font-size="14" lengthAdjust="spacing" textLength="81" x="921.5" y="144.4277">e-Medikation</text><rect fill="#FFFFFF" height="30.0986" rx="5" ry="5" style="stroke:#555555;stroke-width:0.5;" width="95" x="914.5" y="1290.6494"/><text fill="#000000" font-family="Arial" font-size="14" lengthAdjust="spacing" textLength="81" x="921.5" y="1310.7813">e-Medikation</text><rect fill="#EEEEEE" height="3" rx="5" ry="5" style="stroke:#EEEEEE;stroke-width:1.0;" width="1096.5" x="0" y="186.4438"/><line style="stroke:#000000;stroke-width:1.0;" x1="0" x2="1096.5" y1="186.4438" y2="186.4438"/><line style="stroke:#000000;stroke-width:1.0;" x1="0" x2="1096.5" y1="189.4438" y2="189.4438"/><rect fill="#EEEEEE" height="24.0986" rx="5" ry="5" style="stroke:#000000;stroke-width:2.0;" width="329" x="383.75" y="175.3945"/><text fill="#000000" font-family="Arial" font-size="14" font-weight="bold" lengthAdjust="spacing" textLength="311" x="389.75" y="192.5264">27.2.2026: Medikationsplan erstmals abrufen</text><polygon fill="#111827" points="229,226.4419,239,230.4419,229,234.4419,233,230.4419" style="stroke:#111827;stroke-width:1.0;"/><line style="stroke:#111827;stroke-width:1.0;" x1="81.5" x2="235" y1="230.4419" y2="230.4419"/><text fill="#000000" font-family="Arial" font-size="13" lengthAdjust="spacing" textLength="66" x="88.5" y="225.687">Arztbesuch</text><polygon fill="#111827" points="950,255.3906,960,259.3906,950,263.3906,954,259.3906" style="stroke:#111827;stroke-width:1.0;"/><line style="stroke:#111827;stroke-width:1.0;" x1="241" x2="956" y1="259.3906" y2="259.3906"/><text fill="#000000" font-family="Arial" font-size="13" lengthAdjust="spacing" textLength="140" x="248" y="254.6357">Medikationsplan abrufen</text><polygon fill="#111827" points="252,284.3394,242,288.3394,252,292.3394,248,288.3394" style="stroke:#111827;stroke-width:1.0;"/><line style="stroke:#111827;stroke-width:1.0;stroke-dasharray:2.0,2.0;" x1="246" x2="961" y1="288.3394" y2="288.3394"/><text fill="#000000" font-family="Arial" font-size="13" lengthAdjust="spacing" textLength="134" x="258" y="283.5845">Leerer Medikationsplan</text><rect fill="#EEEEEE" height="3" rx="5" ry="5" style="stroke:#EEEEEE;stroke-width:1.0;" width="1096.5" x="0" y="317.3887"/><line style="stroke:#000000;stroke-width:1.0;" x1="0" x2="1096.5" y1="317.3887" y2="317.3887"/><line style="stroke:#000000;stroke-width:1.0;" x1="0" x2="1096.5" y1="320.3887" y2="320.3887"/><rect fill="#EEEEEE" height="24.0986" rx="5" ry="5" style="stroke:#000000;stroke-width:2.0;" width="276" x="410.25" y="306.3394"/><text fill="#000000" font-family="Arial" font-size="14" font-weight="bold" lengthAdjust="spacing" textLength="258" x="416.25" y="323.4712">Medikationsplaneintr&#228;ge hinzuf&#252;gen</text><line style="stroke:#111827;stroke-width:1.0;" x1="241" x2="283" y1="376.3354" y2="376.3354"/><line style="stroke:#111827;stroke-width:1.0;" x1="283" x2="283" y1="376.3354" y2="389.3354"/><line style="stroke:#111827;stroke-width:1.0;" x1="242" x2="283" y1="389.3354" y2="389.3354"/><polygon fill="#111827" points="252,385.3354,242,389.3354,252,393.3354,248,389.3354" style="stroke:#111827;stroke-width:1.0;"/><text fill="#000000" font-family="Arial" font-size="13" lengthAdjust="spacing" textLength="206" x="248" y="356.6318">Medikationsplaneintr&#228;ge hinzuf&#252;gen</text><text fill="#000000" font-family="Arial" font-size="13" lengthAdjust="spacing" textLength="159" x="248" y="371.5806">(Ebetrexat + Cortisonsalbe)</text><polygon fill="#111827" points="950,414.2842,960,418.2842,950,422.2842,954,418.2842" style="stroke:#111827;stroke-width:1.0;"/><line style="stroke:#111827;stroke-width:1.0;" x1="241" x2="956" y1="418.2842" y2="418.2842"/><text fill="#000000" font-family="Arial" font-size="13" lengthAdjust="spacing" textLength="154" x="248" y="413.5293">Medikationsplan speichern</text><rect fill="#EEEEEE" height="3" rx="5" ry="5" style="stroke:#EEEEEE;stroke-width:1.0;" width="1096.5" x="0" y="447.3335"/><line style="stroke:#000000;stroke-width:1.0;" x1="0" x2="1096.5" y1="447.3335" y2="447.3335"/><line style="stroke:#000000;stroke-width:1.0;" x1="0" x2="1096.5" y1="450.3335" y2="450.3335"/><rect fill="#EEEEEE" height="24.0986" rx="5" ry="5" style="stroke:#000000;stroke-width:2.0;" width="148" x="474.25" y="436.2842"/><text fill="#000000" font-family="Arial" font-size="14" font-weight="bold" lengthAdjust="spacing" textLength="130" x="480.25" y="453.416">Geplante Abgaben</text><line style="stroke:#111827;stroke-width:1.0;" x1="241" x2="283" y1="491.3315" y2="491.3315"/><line style="stroke:#111827;stroke-width:1.0;" x1="283" x2="283" y1="491.3315" y2="504.3315"/><line style="stroke:#111827;stroke-width:1.0;" x1="242" x2="283" y1="504.3315" y2="504.3315"/><polygon fill="#111827" points="252,500.3315,242,504.3315,252,508.3315,248,504.3315" style="stroke:#111827;stroke-width:1.0;"/><text fill="#000000" font-family="Arial" font-size="13" lengthAdjust="spacing" textLength="307" x="248" y="486.5767">Medikationsplaneintr&#228;ge zur Rezeptierung ausw&#228;hlen</text><polygon fill="#111827" points="950,529.2803,960,533.2803,950,537.2803,954,533.2803" style="stroke:#111827;stroke-width:1.0;"/><line style="stroke:#111827;stroke-width:1.0;" x1="241" x2="956" y1="533.2803" y2="533.2803"/><text fill="#000000" font-family="Arial" font-size="13" lengthAdjust="spacing" textLength="160" x="248" y="528.5254">Geplante Abgaben erstellen</text><rect fill="#EEEEEE" height="3" rx="5" ry="5" style="stroke:#EEEEEE;stroke-width:1.0;" width="1096.5" x="0" y="562.3296"/><line style="stroke:#000000;stroke-width:1.0;" x1="0" x2="1096.5" y1="562.3296" y2="562.3296"/><line style="stroke:#000000;stroke-width:1.0;" x1="0" x2="1096.5" y1="565.3296" y2="565.3296"/><rect fill="#EEEEEE" height="24.0986" rx="5" ry="5" style="stroke:#000000;stroke-width:2.0;" width="304" x="396.25" y="551.2803"/><text fill="#000000" font-family="Arial" font-size="14" font-weight="bold" lengthAdjust="spacing" textLength="286" x="402.25" y="568.4121">28.2.2026: Abgabe in der Apotheke, Teil 1</text><polygon fill="#111827" points="550,602.3276,560,606.3276,550,610.3276,554,606.3276" style="stroke:#111827;stroke-width:1.0;"/><line style="stroke:#111827;stroke-width:1.0;" x1="81.5" x2="556" y1="606.3276" y2="606.3276"/><text fill="#000000" font-family="Arial" font-size="13" lengthAdjust="spacing" textLength="127" x="88.5" y="601.5728">Medikamente abholen</text><polygon fill="#111827" points="950,631.2764,960,635.2764,950,639.2764,954,635.2764" style="stroke:#111827;stroke-width:1.0;"/><line style="stroke:#111827;stroke-width:1.0;" x1="562" x2="956" y1="635.2764" y2="635.2764"/><text fill="#000000" font-family="Arial" font-size="13" lengthAdjust="spacing" textLength="276" x="569" y="630.5215">Geplante Abgaben und Medikationsplan abrufen</text><polygon fill="#111827" points="573,660.2251,563,664.2251,573,668.2251,569,664.2251" style="stroke:#111827;stroke-width:1.0;"/><line style="stroke:#111827;stroke-width:1.0;stroke-dasharray:2.0,2.0;" x1="567" x2="961" y1="664.2251" y2="664.2251"/><text fill="#000000" font-family="Arial" font-size="13" lengthAdjust="spacing" textLength="217" x="579" y="659.4702">Geplante Abgaben + Medikationsplan</text><polygon fill="#111827" points="950,689.1738,960,693.1738,950,697.1738,954,693.1738" style="stroke:#111827;stroke-width:1.0;"/><line style="stroke:#111827;stroke-width:1.0;" x1="562" x2="956" y1="693.1738" y2="693.1738"/><text fill="#000000" font-family="Arial" font-size="13" lengthAdjust="spacing" textLength="241" x="569" y="688.4189">Durchgef&#252;hrte Abgabe Ebetrexat erstellen</text><polygon fill="#111827" points="92.5,718.1226,82.5,722.1226,92.5,726.1226,88.5,722.1226" style="stroke:#111827;stroke-width:1.0;"/><line style="stroke:#111827;stroke-width:1.0;" x1="86.5" x2="561" y1="722.1226" y2="722.1226"/><text fill="#000000" font-family="Arial" font-size="13" lengthAdjust="spacing" textLength="133" x="98.5" y="717.3677">Ebetrexat aush&#228;ndigen</text><polygon fill="#111827" points="950,747.0713,960,751.0713,950,755.0713,954,751.0713" style="stroke:#111827;stroke-width:1.0;"/><line style="stroke:#111827;stroke-width:1.0;" x1="562" x2="956" y1="751.0713" y2="751.0713"/><text fill="#000000" font-family="Arial" font-size="13" lengthAdjust="spacing" textLength="302" x="569" y="746.3164">Durchgef&#252;hrte Abgabe Cortisonsalbe in Vorbereitung</text><rect fill="#EEEEEE" height="3" rx="5" ry="5" style="stroke:#EEEEEE;stroke-width:1.0;" width="1096.5" x="0" y="780.1206"/><line style="stroke:#000000;stroke-width:1.0;" x1="0" x2="1096.5" y1="780.1206" y2="780.1206"/><line style="stroke:#000000;stroke-width:1.0;" x1="0" x2="1096.5" y1="783.1206" y2="783.1206"/><rect fill="#EEEEEE" height="24.0986" rx="5" ry="5" style="stroke:#000000;stroke-width:2.0;" width="296" x="400.25" y="769.0713"/><text fill="#000000" font-family="Arial" font-size="14" font-weight="bold" lengthAdjust="spacing" textLength="278" x="406.25" y="786.2031">1.3.2026: Abgabe in der Apotheke, Teil 2</text><polygon fill="#111827" points="550,820.1187,560,824.1187,550,828.1187,554,824.1187" style="stroke:#111827;stroke-width:1.0;"/><line style="stroke:#111827;stroke-width:1.0;" x1="81.5" x2="556" y1="824.1187" y2="824.1187"/><text fill="#000000" font-family="Arial" font-size="13" lengthAdjust="spacing" textLength="128" x="88.5" y="819.3638">Cortisonsalbe abholen</text><polygon fill="#111827" points="950,849.0674,960,853.0674,950,857.0674,954,853.0674" style="stroke:#111827;stroke-width:1.0;"/><line style="stroke:#111827;stroke-width:1.0;" x1="562" x2="956" y1="853.0674" y2="853.0674"/><text fill="#000000" font-family="Arial" font-size="13" lengthAdjust="spacing" textLength="303" x="569" y="848.3125">Geplante und offene *Durchgef&#252;hrte Abgabe* abrufen</text><polygon fill="#111827" points="573,878.0161,563,882.0161,573,886.0161,569,882.0161" style="stroke:#111827;stroke-width:1.0;"/><line style="stroke:#111827;stroke-width:1.0;stroke-dasharray:2.0,2.0;" x1="567" x2="961" y1="882.0161" y2="882.0161"/><text fill="#000000" font-family="Arial" font-size="13" lengthAdjust="spacing" textLength="257" x="579" y="877.2612">Geplante und offene *Durchgef&#252;hrte Abgabe*</text><polygon fill="#111827" points="950,906.9648,960,910.9648,950,914.9648,954,910.9648" style="stroke:#111827;stroke-width:1.0;"/><line style="stroke:#111827;stroke-width:1.0;" x1="562" x2="956" y1="910.9648" y2="910.9648"/><text fill="#000000" font-family="Arial" font-size="13" lengthAdjust="spacing" textLength="334" x="569" y="906.21">offene *Durchgef&#252;hrte Abgabe* Cortisonsalbe abschlie&#223;en</text><polygon fill="#111827" points="92.5,935.9136,82.5,939.9136,92.5,943.9136,88.5,939.9136" style="stroke:#111827;stroke-width:1.0;"/><line style="stroke:#111827;stroke-width:1.0;" x1="86.5" x2="561" y1="939.9136" y2="939.9136"/><text fill="#000000" font-family="Arial" font-size="13" lengthAdjust="spacing" textLength="156" x="98.5" y="935.1587">Cortisonsalbe aush&#228;ndigen</text><rect fill="#EEEEEE" height="3" rx="5" ry="5" style="stroke:#EEEEEE;stroke-width:1.0;" width="1096.5" x="0" y="968.9629"/><line style="stroke:#000000;stroke-width:1.0;" x1="0" x2="1096.5" y1="968.9629" y2="968.9629"/><line style="stroke:#000000;stroke-width:1.0;" x1="0" x2="1096.5" y1="971.9629" y2="971.9629"/><rect fill="#EEEEEE" height="24.0986" rx="5" ry="5" style="stroke:#000000;stroke-width:2.0;" width="356" x="370.25" y="957.9136"/><text fill="#000000" font-family="Arial" font-size="14" font-weight="bold" lengthAdjust="spacing" textLength="338" x="376.25" y="975.0454">5.3.2026: Abruf Medikationsplan durch Patienten</text><polygon fill="#111827" points="950,1008.9609,960,1012.9609,950,1016.9609,954,1012.9609" style="stroke:#111827;stroke-width:1.0;"/><line style="stroke:#111827;stroke-width:1.0;" x1="81.5" x2="956" y1="1012.9609" y2="1012.9609"/><text fill="#000000" font-family="Arial" font-size="13" lengthAdjust="spacing" textLength="382" x="88.5" y="1008.2061">Medikationsplan + Geplante und Durchgef&#252;hrte Abgaben anzeigen</text><polygon fill="#111827" points="92.5,1037.9097,82.5,1041.9097,92.5,1045.9097,88.5,1041.9097" style="stroke:#111827;stroke-width:1.0;"/><line style="stroke:#111827;stroke-width:1.0;stroke-dasharray:2.0,2.0;" x1="86.5" x2="961" y1="1041.9097" y2="1041.9097"/><text fill="#000000" font-family="Arial" font-size="13" lengthAdjust="spacing" textLength="474" x="98.5" y="1037.1548">Medikationsplan mit 2 Eintr&#228;gen + Geplante und Durchgef&#252;hrte Abgaben anzeigen</text><rect fill="#EEEEEE" height="3" rx="5" ry="5" style="stroke:#EEEEEE;stroke-width:1.0;" width="1096.5" x="0" y="1070.959"/><line style="stroke:#000000;stroke-width:1.0;" x1="0" x2="1096.5" y1="1070.959" y2="1070.959"/><line style="stroke:#000000;stroke-width:1.0;" x1="0" x2="1096.5" y1="1073.959" y2="1073.959"/><rect fill="#EEEEEE" height="24.0986" rx="5" ry="5" style="stroke:#000000;stroke-width:2.0;" width="191" x="452.75" y="1059.9097"/><text fill="#000000" font-family="Arial" font-size="14" font-weight="bold" lengthAdjust="spacing" textLength="173" x="458.75" y="1077.0415">10.3.2026: Kontrolltermin</text><polygon fill="#111827" points="229,1110.957,239,1114.957,229,1118.957,233,1114.957" style="stroke:#111827;stroke-width:1.0;"/><line style="stroke:#111827;stroke-width:1.0;" x1="81.5" x2="235" y1="1114.957" y2="1114.957"/><text fill="#000000" font-family="Arial" font-size="13" lengthAdjust="spacing" textLength="80" x="88.5" y="1110.2021">Kontrolltermin</text><polygon fill="#111827" points="950,1139.9058,960,1143.9058,950,1147.9058,954,1143.9058" style="stroke:#111827;stroke-width:1.0;"/><line style="stroke:#111827;stroke-width:1.0;" x1="241" x2="956" y1="1143.9058" y2="1143.9058"/><text fill="#000000" font-family="Arial" font-size="13" lengthAdjust="spacing" textLength="140" x="248" y="1139.1509">Medikationsplan abrufen</text><polygon fill="#111827" points="252,1168.8545,242,1172.8545,252,1176.8545,248,1172.8545" style="stroke:#111827;stroke-width:1.0;"/><line style="stroke:#111827;stroke-width:1.0;stroke-dasharray:2.0,2.0;" x1="246" x2="961" y1="1172.8545" y2="1172.8545"/><text fill="#000000" font-family="Arial" font-size="13" lengthAdjust="spacing" textLength="94" x="258" y="1168.0996">Medikationsplan</text><line style="stroke:#111827;stroke-width:1.0;" x1="241" x2="283" y1="1231.7007" y2="1231.7007"/><line style="stroke:#111827;stroke-width:1.0;" x1="283" x2="283" y1="1231.7007" y2="1244.7007"/><line style="stroke:#111827;stroke-width:1.0;" x1="242" x2="283" y1="1244.7007" y2="1244.7007"/><polygon fill="#111827" points="252,1240.7007,242,1244.7007,252,1248.7007,248,1244.7007" style="stroke:#111827;stroke-width:1.0;"/><text fill="#000000" font-family="Arial" font-size="13" lengthAdjust="spacing" textLength="65" x="248" y="1197.0483">Anpassung</text><text fill="#000000" font-family="Arial" font-size="13" lengthAdjust="spacing" textLength="165" x="248" y="1211.9971">(Ebetrexat Dosis reduzieren,</text><text fill="#000000" font-family="Arial" font-size="13" lengthAdjust="spacing" textLength="140" x="248" y="1226.9458">Cortisonsalbe absetzen)</text><polygon fill="#111827" points="950,1269.6494,960,1273.6494,950,1277.6494,954,1273.6494" style="stroke:#111827;stroke-width:1.0;"/><line style="stroke:#111827;stroke-width:1.0;" x1="241" x2="956" y1="1273.6494" y2="1273.6494"/><text fill="#000000" font-family="Arial" font-size="13" lengthAdjust="spacing" textLength="154" x="248" y="1268.8945">Medikationsplan speichern</text><!--SRC=[dLNDRjj64BxpAGRoeMqS6Q9i9R815r1g9q5Q1qQSzkJBaXoA2v6xwkuIaXNqrlVenO_HcruimwL8BNzSorq3XZqx-ytCzyqC3JSfmYqp78M1Jp9N0XzW23YymOWlo2w5v_sW5rmicM8PiD18TMSUw1LRePOPUjx-Df0gGlMBJAM2ev4zxYqB5tCbSn7jFE99yUDuw8H5SiN576AMQdHkTiyeFGM-2nfXpFBKl9V2V6OPmc2cE4i7_HvtV8FWd_LVDjDsV8Gq2DyyW7Vj0d24atWqF8hyw1pV51uk0TFWVC8cjVLhmiE5GAt19ziNfw0f_N_BegWel41nil5zVpf-IxQxcXgZSlJ-SXFy-B14bNAnS4gulkvp-5r4zW_S4UnoZt_cACAoqbkc30_vaWdJA6bYJykX8wizJQSkmPthIfp6HKNBk7WmKqgksiHOOvDRQ-gBM5-KiKx9z84oNpPgh97Bguxc68zjTSxBVVXnKvbtSkrKqB3tyUfvWLp3u5xK8pc08ngRqsdWsSchxKp3u8QjuIRN1bN6X1XuA2AQmFKUPFktsXWk2f3pc63ETY0pCbk4AtMoGzW-MjS1T55cIsaINA3D1Ha6MC5K5mNKB6CHvheszgHJ7hjQu3qB4oPMv9CJD-KX_F1i6ayB2PVx5e2x1yemir7SlUH4e7Dv2UEt9-EJyMZyvWBsNdgPCW6ejCceuu45AezHmEMbLr4v_DaISc5_1wZpCF4iGtHHXkxYxM2yNMh36kCtH4KJtVAtwRLio8KXskS82HURFDx-Eo_pgcANW8UykXS_NWTe5AwPWMEWhMAufWSi3V2dPslHI-HXWghCyWCMHbfuis3EWXTbjCaLVC4DBebNLSZAShtQFYOf4TLEeXEcK0ZJmjLAEQsbB1s0sfZ6fMwlr_0LUGf-MyZTTPLbXaKC5YJI9b4rx7ybGfD-aDnrf0x2SLV-liXNkGgJEPA4YQfVmrx8FIFkwrsn5uuZqPni7qN4v_YYK8q-AGZ-Gwg0sfSR4gySAV_az10Pna_Aq8nna125038ckX5UzIR-wa0zdWVgP-kPuEsIT9Ya7BV_F2LKoxyX5b4ySIYcgZgz5nLPL6YTpVNKK1ytQUWjXVfQRD0cuX1Pvzs6pBWXeQ-hSNzn3DjFexhQN-aph6IQ5fylth-GcoxU_z_AtNbiRBGPVPMrfgPlBD8hgRa6XL6-eNs6ulMzw4YFPeFY9IlsEm00]--></g></svg>