<?xml version="1.0" encoding="us-ascii" standalone="no"?><svg xmlns="http://www.w3.org/2000/svg" xmlns:xlink="http://www.w3.org/1999/xlink" contentStyleType="text/css" height="1366px" preserveAspectRatio="none" style="width:1087px;height:1366px;background:#F5F5F5;" version="1.1" viewBox="0 0 1087 1366" width="1087px" zoomAndPan="magnify"><defs/><g><rect fill="#F5F5F5" height="1366" style="stroke:none;stroke-width:1.0;" width="1087" x="0" y="0"/><text fill="#000000" font-family="Arial" font-size="14" font-weight="bold" lengthAdjust="spacing" textLength="215" x="432.25" y="28.1318">Patient Journey - e-Medikation</text><rect fill="#BAC38B" height="1317.3003" rx="5" ry="5" style="stroke:#181818;stroke-width:0.5;" width="121" x="21" y="43.0986"/><text fill="#000000" font-family="Arial" font-size="13" font-weight="bold" lengthAdjust="spacing" textLength="4" x="55" y="55.2925">&#160;</text><text fill="#000000" font-family="Arial" font-size="13" font-weight="bold" lengthAdjust="spacing" textLength="45" x="59" y="70.2412">Patient</text><rect fill="#9FBAC4" height="1317.3003" rx="5" ry="5" style="stroke:#181818;stroke-width:0.5;" width="114" x="184" y="43.0986"/><text fill="#000000" font-family="Arial" font-size="13" font-weight="bold" lengthAdjust="spacing" textLength="4" x="218.5" y="55.2925">&#160;</text><text fill="#000000" font-family="Arial" font-size="13" font-weight="bold" lengthAdjust="spacing" textLength="37" x="222.5" y="70.2412">&#196;rztin</text><rect fill="#BEAEBE" height="1317.3003" rx="5" ry="5" style="stroke:#181818;stroke-width:0.5;" width="137" x="493.5" y="43.0986"/><text fill="#000000" font-family="Arial" font-size="13" font-weight="bold" lengthAdjust="spacing" textLength="4" x="528" y="55.2925">&#160;</text><text fill="#000000" font-family="Arial" font-size="13" font-weight="bold" lengthAdjust="spacing" textLength="60" x="532" y="70.2412">Apotheke</text><rect fill="#C48F81" height="1317.3003" rx="5" ry="5" style="stroke:#181818;stroke-width:0.5;" width="211" x="848.5" y="43.0986"/><text fill="#000000" font-family="Arial" font-size="13" font-weight="bold" lengthAdjust="spacing" textLength="4" x="851.5" y="55.2925">&#160;</text><text fill="#000000" font-family="Arial" font-size="13" font-weight="bold" lengthAdjust="spacing" textLength="149" x="879.5" y="70.2412">e-Med Fachanwendung</text><line style="stroke:#181818;stroke-width:0.5;stroke-dasharray:5.0,5.0;" x1="81" x2="81" y1="153.0947" y2="1281.3003"/><line style="stroke:#181818;stroke-width:0.5;stroke-dasharray:5.0,5.0;" x1="241" x2="241" y1="153.0947" y2="1281.3003"/><line style="stroke:#181818;stroke-width:0.5;stroke-dasharray:5.0,5.0;" x1="561.5" x2="561.5" y1="153.0947" y2="1281.3003"/><line style="stroke:#181818;stroke-width:0.5;stroke-dasharray:5.0,5.0;" x1="953.5" x2="953.5" y1="153.0947" y2="1281.3003"/><text fill="#000000" font-family="Arial" font-size="14" lengthAdjust="spacing" textLength="107" x="25" y="150.1279">Max Mustermann</text><ellipse cx="81.5" cy="85.4961" fill="#E2E2F0" rx="8" ry="8" style="stroke:#181818;stroke-width:0.5;"/><path d="M81.5,93.4961 L81.5,120.4961 M68.5,101.4961 L94.5,101.4961 M81.5,120.4961 L68.5,135.4961 M81.5,120.4961 L94.5,135.4961 " fill="none" style="stroke:#181818;stroke-width:0.5;"/><text fill="#000000" font-family="Arial" font-size="14" lengthAdjust="spacing" textLength="107" x="25" y="1293.4321">Max Mustermann</text><ellipse cx="81.5" cy="1304.8989" fill="#E2E2F0" rx="8" ry="8" style="stroke:#181818;stroke-width:0.5;"/><path d="M81.5,1312.8989 L81.5,1339.8989 M68.5,1320.8989 L94.5,1320.8989 M81.5,1339.8989 L68.5,1354.8989 M81.5,1339.8989 L94.5,1354.8989 " fill="none" style="stroke:#181818;stroke-width:0.5;"/><text fill="#000000" font-family="Arial" font-size="14" lengthAdjust="spacing" textLength="100" x="188" y="150.1279">Dr. Muster&#228;rztin</text><ellipse cx="241" cy="85.4961" fill="#E2E2F0" rx="8" ry="8" style="stroke:#181818;stroke-width:0.5;"/><path d="M241,93.4961 L241,120.4961 M228,101.4961 L254,101.4961 M241,120.4961 L228,135.4961 M241,120.4961 L254,135.4961 " fill="none" style="stroke:#181818;stroke-width:0.5;"/><text fill="#000000" font-family="Arial" font-size="14" lengthAdjust="spacing" textLength="100" x="188" y="1293.4321">Dr. Muster&#228;rztin</text><ellipse cx="241" cy="1304.8989" fill="#E2E2F0" rx="8" ry="8" style="stroke:#181818;stroke-width:0.5;"/><path d="M241,1312.8989 L241,1339.8989 M228,1320.8989 L254,1320.8989 M241,1339.8989 L228,1354.8989 M241,1339.8989 L254,1354.8989 " fill="none" style="stroke:#181818;stroke-width:0.5;"/><text fill="#000000" font-family="Arial" font-size="14" lengthAdjust="spacing" textLength="123" x="497.5" y="150.1279">Amadeus Apotheke</text><ellipse cx="562" cy="85.4961" fill="#E2E2F0" rx="8" ry="8" style="stroke:#181818;stroke-width:0.5;"/><path d="M562,93.4961 L562,120.4961 M549,101.4961 L575,101.4961 M562,120.4961 L549,135.4961 M562,120.4961 L575,135.4961 " fill="none" style="stroke:#181818;stroke-width:0.5;"/><text fill="#000000" font-family="Arial" font-size="14" lengthAdjust="spacing" textLength="123" x="497.5" y="1293.4321">Amadeus Apotheke</text><ellipse cx="562" cy="1304.8989" fill="#E2E2F0" rx="8" ry="8" style="stroke:#181818;stroke-width:0.5;"/><path d="M562,1312.8989 L562,1339.8989 M549,1320.8989 L575,1320.8989 M562,1339.8989 L549,1354.8989 M562,1339.8989 L575,1354.8989 " fill="none" style="stroke:#181818;stroke-width:0.5;"/><rect fill="#FFFFFF" height="30.0986" rx="5" ry="5" style="stroke:#555555;stroke-width:0.5;" width="95" x="906.5" y="121.9961"/><text fill="#000000" font-family="Arial" font-size="14" lengthAdjust="spacing" textLength="81" x="913.5" y="142.1279">e-Medikation</text><rect fill="#FFFFFF" height="30.0986" rx="5" ry="5" style="stroke:#555555;stroke-width:0.5;" width="95" x="906.5" y="1280.3003"/><text fill="#000000" font-family="Arial" font-size="14" lengthAdjust="spacing" textLength="81" x="913.5" y="1300.4321">e-Medikation</text><rect fill="#EEEEEE" height="3" rx="5" ry="5" style="stroke:#EEEEEE;stroke-width:1.0;" width="1080.5" x="0" y="183.5691"/><line style="stroke:#000000;stroke-width:1.0;" x1="0" x2="1080.5" y1="183.5691" y2="183.5691"/><line style="stroke:#000000;stroke-width:1.0;" x1="0" x2="1080.5" y1="186.5691" y2="186.5691"/><rect fill="#EEEEEE" height="22.9487" rx="5" ry="5" style="stroke:#000000;stroke-width:2.0;" width="297" x="391.75" y="173.0947"/><text fill="#000000" font-family="Arial" font-size="13" font-weight="bold" lengthAdjust="spacing" textLength="279" x="397.75" y="189.2886">27.2.2026: Medikationsplan erstmals abrufen</text><polygon fill="#111827" points="229,222.9922,239,226.9922,229,230.9922,233,226.9922" style="stroke:#111827;stroke-width:1.0;"/><line style="stroke:#111827;stroke-width:1.0;" x1="81.5" x2="235" y1="226.9922" y2="226.9922"/><text fill="#000000" font-family="Arial" font-size="13" lengthAdjust="spacing" textLength="66" x="88.5" y="222.2373">Arztbesuch</text><polygon fill="#111827" points="942,251.9409,952,255.9409,942,259.9409,946,255.9409" style="stroke:#111827;stroke-width:1.0;"/><line style="stroke:#111827;stroke-width:1.0;" x1="241" x2="948" y1="255.9409" y2="255.9409"/><text fill="#000000" font-family="Arial" font-size="13" lengthAdjust="spacing" textLength="140" x="248" y="251.186">Medikationsplan abrufen</text><polygon fill="#111827" points="252,280.8896,242,284.8896,252,288.8896,248,284.8896" style="stroke:#111827;stroke-width:1.0;"/><line style="stroke:#111827;stroke-width:1.0;stroke-dasharray:2.0,2.0;" x1="246" x2="953" y1="284.8896" y2="284.8896"/><text fill="#000000" font-family="Arial" font-size="13" lengthAdjust="spacing" textLength="134" x="258" y="280.1348">Leerer Medikationsplan</text><rect fill="#EEEEEE" height="3" rx="5" ry="5" style="stroke:#EEEEEE;stroke-width:1.0;" width="1080.5" x="0" y="313.364"/><line style="stroke:#000000;stroke-width:1.0;" x1="0" x2="1080.5" y1="313.364" y2="313.364"/><line style="stroke:#000000;stroke-width:1.0;" x1="0" x2="1080.5" y1="316.364" y2="316.364"/><rect fill="#EEEEEE" height="22.9487" rx="5" ry="5" style="stroke:#000000;stroke-width:2.0;" width="250" x="415.25" y="302.8896"/><text fill="#000000" font-family="Arial" font-size="13" font-weight="bold" lengthAdjust="spacing" textLength="232" x="421.25" y="319.0835">Medikationsplaneintr&#228;ge hinzuf&#252;gen</text><line style="stroke:#111827;stroke-width:1.0;" x1="241" x2="283" y1="371.7358" y2="371.7358"/><line style="stroke:#111827;stroke-width:1.0;" x1="283" x2="283" y1="371.7358" y2="384.7358"/><line style="stroke:#111827;stroke-width:1.0;" x1="242" x2="283" y1="384.7358" y2="384.7358"/><polygon fill="#111827" points="252,380.7358,242,384.7358,252,388.7358,248,384.7358" style="stroke:#111827;stroke-width:1.0;"/><text fill="#000000" font-family="Arial" font-size="13" lengthAdjust="spacing" textLength="206" x="248" y="352.0322">Medikationsplaneintr&#228;ge hinzuf&#252;gen</text><text fill="#000000" font-family="Arial" font-size="13" lengthAdjust="spacing" textLength="159" x="248" y="366.981">(Ebetrexat + Cortisonsalbe)</text><polygon fill="#111827" points="942,409.6846,952,413.6846,942,417.6846,946,413.6846" style="stroke:#111827;stroke-width:1.0;"/><line style="stroke:#111827;stroke-width:1.0;" x1="241" x2="948" y1="413.6846" y2="413.6846"/><text fill="#000000" font-family="Arial" font-size="13" lengthAdjust="spacing" textLength="154" x="248" y="408.9297">Medikationsplan speichern</text><rect fill="#EEEEEE" height="3" rx="5" ry="5" style="stroke:#EEEEEE;stroke-width:1.0;" width="1080.5" x="0" y="442.1589"/><line style="stroke:#000000;stroke-width:1.0;" x1="0" x2="1080.5" y1="442.1589" y2="442.1589"/><line style="stroke:#000000;stroke-width:1.0;" x1="0" x2="1080.5" y1="445.1589" y2="445.1589"/><rect fill="#EEEEEE" height="22.9487" rx="5" ry="5" style="stroke:#000000;stroke-width:2.0;" width="137" x="471.75" y="431.6846"/><text fill="#000000" font-family="Arial" font-size="13" font-weight="bold" lengthAdjust="spacing" textLength="119" x="477.75" y="447.8784">Geplante Abgaben</text><line style="stroke:#111827;stroke-width:1.0;" x1="241" x2="283" y1="485.582" y2="485.582"/><line style="stroke:#111827;stroke-width:1.0;" x1="283" x2="283" y1="485.582" y2="498.582"/><line style="stroke:#111827;stroke-width:1.0;" x1="242" x2="283" y1="498.582" y2="498.582"/><polygon fill="#111827" points="252,494.582,242,498.582,252,502.582,248,498.582" style="stroke:#111827;stroke-width:1.0;"/><text fill="#000000" font-family="Arial" font-size="13" lengthAdjust="spacing" textLength="307" x="248" y="480.8271">Medikationsplaneintr&#228;ge zur Rezeptierung ausw&#228;hlen</text><polygon fill="#111827" points="942,523.5308,952,527.5308,942,531.5308,946,527.5308" style="stroke:#111827;stroke-width:1.0;"/><line style="stroke:#111827;stroke-width:1.0;" x1="241" x2="948" y1="527.5308" y2="527.5308"/><text fill="#000000" font-family="Arial" font-size="13" lengthAdjust="spacing" textLength="160" x="248" y="522.7759">Geplante Abgaben erstellen</text><rect fill="#EEEEEE" height="3" rx="5" ry="5" style="stroke:#EEEEEE;stroke-width:1.0;" width="1080.5" x="0" y="556.0051"/><line style="stroke:#000000;stroke-width:1.0;" x1="0" x2="1080.5" y1="556.0051" y2="556.0051"/><line style="stroke:#000000;stroke-width:1.0;" x1="0" x2="1080.5" y1="559.0051" y2="559.0051"/><rect fill="#EEEEEE" height="22.9487" rx="5" ry="5" style="stroke:#000000;stroke-width:2.0;" width="280" x="400.25" y="545.5308"/><text fill="#000000" font-family="Arial" font-size="13" font-weight="bold" lengthAdjust="spacing" textLength="262" x="406.25" y="561.7246">28.2.2026: Abgabe in der Apotheke, Teil 1</text><polygon fill="#111827" points="550,595.4282,560,599.4282,550,603.4282,554,599.4282" style="stroke:#111827;stroke-width:1.0;"/><line style="stroke:#111827;stroke-width:1.0;" x1="81.5" x2="556" y1="599.4282" y2="599.4282"/><text fill="#000000" font-family="Arial" font-size="13" lengthAdjust="spacing" textLength="127" x="88.5" y="594.6733">Medikamente abholen</text><polygon fill="#111827" points="942,624.377,952,628.377,942,632.377,946,628.377" style="stroke:#111827;stroke-width:1.0;"/><line style="stroke:#111827;stroke-width:1.0;" x1="562" x2="948" y1="628.377" y2="628.377"/><text fill="#000000" font-family="Arial" font-size="13" lengthAdjust="spacing" textLength="276" x="569" y="623.6221">Geplante Abgaben und Medikationsplan abrufen</text><polygon fill="#111827" points="573,653.3257,563,657.3257,573,661.3257,569,657.3257" style="stroke:#111827;stroke-width:1.0;"/><line style="stroke:#111827;stroke-width:1.0;stroke-dasharray:2.0,2.0;" x1="567" x2="953" y1="657.3257" y2="657.3257"/><text fill="#000000" font-family="Arial" font-size="13" lengthAdjust="spacing" textLength="217" x="579" y="652.5708">Geplante Abgaben + Medikationsplan</text><polygon fill="#111827" points="942,682.2744,952,686.2744,942,690.2744,946,686.2744" style="stroke:#111827;stroke-width:1.0;"/><line style="stroke:#111827;stroke-width:1.0;" x1="562" x2="948" y1="686.2744" y2="686.2744"/><text fill="#000000" font-family="Arial" font-size="13" lengthAdjust="spacing" textLength="241" x="569" y="681.5195">Durchgef&#252;hrte Abgabe Ebetrexat erstellen</text><polygon fill="#111827" points="92.5,711.2231,82.5,715.2231,92.5,719.2231,88.5,715.2231" style="stroke:#111827;stroke-width:1.0;"/><line style="stroke:#111827;stroke-width:1.0;" x1="86.5" x2="561" y1="715.2231" y2="715.2231"/><text fill="#000000" font-family="Arial" font-size="13" lengthAdjust="spacing" textLength="133" x="98.5" y="710.4683">Ebetrexat aush&#228;ndigen</text><polygon fill="#111827" points="942,740.1719,952,744.1719,942,748.1719,946,744.1719" style="stroke:#111827;stroke-width:1.0;"/><line style="stroke:#111827;stroke-width:1.0;" x1="562" x2="948" y1="744.1719" y2="744.1719"/><text fill="#000000" font-family="Arial" font-size="13" lengthAdjust="spacing" textLength="302" x="569" y="739.417">Durchgef&#252;hrte Abgabe Cortisonsalbe in Vorbereitung</text><rect fill="#EEEEEE" height="3" rx="5" ry="5" style="stroke:#EEEEEE;stroke-width:1.0;" width="1080.5" x="0" y="772.6462"/><line style="stroke:#000000;stroke-width:1.0;" x1="0" x2="1080.5" y1="772.6462" y2="772.6462"/><line style="stroke:#000000;stroke-width:1.0;" x1="0" x2="1080.5" y1="775.6462" y2="775.6462"/><rect fill="#EEEEEE" height="22.9487" rx="5" ry="5" style="stroke:#000000;stroke-width:2.0;" width="273" x="403.75" y="762.1719"/><text fill="#000000" font-family="Arial" font-size="13" font-weight="bold" lengthAdjust="spacing" textLength="255" x="409.75" y="778.3657">1.3.2026: Abgabe in der Apotheke, Teil 2</text><polygon fill="#111827" points="550,812.0693,560,816.0693,550,820.0693,554,816.0693" style="stroke:#111827;stroke-width:1.0;"/><line style="stroke:#111827;stroke-width:1.0;" x1="81.5" x2="556" y1="816.0693" y2="816.0693"/><text fill="#000000" font-family="Arial" font-size="13" lengthAdjust="spacing" textLength="128" x="88.5" y="811.3145">Cortisonsalbe abholen</text><polygon fill="#111827" points="942,841.0181,952,845.0181,942,849.0181,946,845.0181" style="stroke:#111827;stroke-width:1.0;"/><line style="stroke:#111827;stroke-width:1.0;" x1="562" x2="948" y1="845.0181" y2="845.0181"/><text fill="#000000" font-family="Arial" font-size="13" lengthAdjust="spacing" textLength="303" x="569" y="840.2632">Geplante und offene *Durchgef&#252;hrte Abgabe* abrufen</text><polygon fill="#111827" points="573,869.9668,563,873.9668,573,877.9668,569,873.9668" style="stroke:#111827;stroke-width:1.0;"/><line style="stroke:#111827;stroke-width:1.0;stroke-dasharray:2.0,2.0;" x1="567" x2="953" y1="873.9668" y2="873.9668"/><text fill="#000000" font-family="Arial" font-size="13" lengthAdjust="spacing" textLength="257" x="579" y="869.2119">Geplante und offene *Durchgef&#252;hrte Abgabe*</text><polygon fill="#111827" points="942,898.9155,952,902.9155,942,906.9155,946,902.9155" style="stroke:#111827;stroke-width:1.0;"/><line style="stroke:#111827;stroke-width:1.0;" x1="562" x2="948" y1="902.9155" y2="902.9155"/><text fill="#000000" font-family="Arial" font-size="13" lengthAdjust="spacing" textLength="334" x="569" y="898.1606">offene *Durchgef&#252;hrte Abgabe* Cortisonsalbe abschlie&#223;en</text><polygon fill="#111827" points="92.5,927.8643,82.5,931.8643,92.5,935.8643,88.5,931.8643" style="stroke:#111827;stroke-width:1.0;"/><line style="stroke:#111827;stroke-width:1.0;" x1="86.5" x2="561" y1="931.8643" y2="931.8643"/><text fill="#000000" font-family="Arial" font-size="13" lengthAdjust="spacing" textLength="156" x="98.5" y="927.1094">Cortisonsalbe aush&#228;ndigen</text><rect fill="#EEEEEE" height="3" rx="5" ry="5" style="stroke:#EEEEEE;stroke-width:1.0;" width="1080.5" x="0" y="960.3386"/><line style="stroke:#000000;stroke-width:1.0;" x1="0" x2="1080.5" y1="960.3386" y2="960.3386"/><line style="stroke:#000000;stroke-width:1.0;" x1="0" x2="1080.5" y1="963.3386" y2="963.3386"/><rect fill="#EEEEEE" height="22.9487" rx="5" ry="5" style="stroke:#000000;stroke-width:2.0;" width="323" x="378.75" y="949.8643"/><text fill="#000000" font-family="Arial" font-size="13" font-weight="bold" lengthAdjust="spacing" textLength="305" x="384.75" y="966.0581">5.3.2026: Abruf Medikationsplan durch Patienten</text><polygon fill="#111827" points="942,999.7617,952,1003.7617,942,1007.7617,946,1003.7617" style="stroke:#111827;stroke-width:1.0;"/><line style="stroke:#111827;stroke-width:1.0;" x1="81.5" x2="948" y1="1003.7617" y2="1003.7617"/><text fill="#000000" font-family="Arial" font-size="13" lengthAdjust="spacing" textLength="382" x="88.5" y="999.0068">Medikationsplan + Geplante und Durchgef&#252;hrte Abgaben anzeigen</text><polygon fill="#111827" points="92.5,1028.7104,82.5,1032.7104,92.5,1036.7104,88.5,1032.7104" style="stroke:#111827;stroke-width:1.0;"/><line style="stroke:#111827;stroke-width:1.0;stroke-dasharray:2.0,2.0;" x1="86.5" x2="953" y1="1032.7104" y2="1032.7104"/><text fill="#000000" font-family="Arial" font-size="13" lengthAdjust="spacing" textLength="474" x="98.5" y="1027.9556">Medikationsplan mit 2 Eintr&#228;gen + Geplante und Durchgef&#252;hrte Abgaben anzeigen</text><rect fill="#EEEEEE" height="3" rx="5" ry="5" style="stroke:#EEEEEE;stroke-width:1.0;" width="1080.5" x="0" y="1061.1848"/><line style="stroke:#000000;stroke-width:1.0;" x1="0" x2="1080.5" y1="1061.1848" y2="1061.1848"/><line style="stroke:#000000;stroke-width:1.0;" x1="0" x2="1080.5" y1="1064.1848" y2="1064.1848"/><rect fill="#EEEEEE" height="22.9487" rx="5" ry="5" style="stroke:#000000;stroke-width:2.0;" width="174" x="453.25" y="1050.7104"/><text fill="#000000" font-family="Arial" font-size="13" font-weight="bold" lengthAdjust="spacing" textLength="156" x="459.25" y="1066.9043">10.3.2026: Kontrolltermin</text><polygon fill="#111827" points="229,1100.6079,239,1104.6079,229,1108.6079,233,1104.6079" style="stroke:#111827;stroke-width:1.0;"/><line style="stroke:#111827;stroke-width:1.0;" x1="81.5" x2="235" y1="1104.6079" y2="1104.6079"/><text fill="#000000" font-family="Arial" font-size="13" lengthAdjust="spacing" textLength="80" x="88.5" y="1099.853">Kontrolltermin</text><polygon fill="#111827" points="942,1129.5566,952,1133.5566,942,1137.5566,946,1133.5566" style="stroke:#111827;stroke-width:1.0;"/><line style="stroke:#111827;stroke-width:1.0;" x1="241" x2="948" y1="1133.5566" y2="1133.5566"/><text fill="#000000" font-family="Arial" font-size="13" lengthAdjust="spacing" textLength="140" x="248" y="1128.8018">Medikationsplan abrufen</text><polygon fill="#111827" points="252,1158.5054,242,1162.5054,252,1166.5054,248,1162.5054" style="stroke:#111827;stroke-width:1.0;"/><line style="stroke:#111827;stroke-width:1.0;stroke-dasharray:2.0,2.0;" x1="246" x2="953" y1="1162.5054" y2="1162.5054"/><text fill="#000000" font-family="Arial" font-size="13" lengthAdjust="spacing" textLength="94" x="258" y="1157.7505">Medikationsplan</text><line style="stroke:#111827;stroke-width:1.0;" x1="241" x2="283" y1="1221.3516" y2="1221.3516"/><line style="stroke:#111827;stroke-width:1.0;" x1="283" x2="283" y1="1221.3516" y2="1234.3516"/><line style="stroke:#111827;stroke-width:1.0;" x1="242" x2="283" y1="1234.3516" y2="1234.3516"/><polygon fill="#111827" points="252,1230.3516,242,1234.3516,252,1238.3516,248,1234.3516" style="stroke:#111827;stroke-width:1.0;"/><text fill="#000000" font-family="Arial" font-size="13" lengthAdjust="spacing" textLength="65" x="248" y="1186.6992">Anpassung</text><text fill="#000000" font-family="Arial" font-size="13" lengthAdjust="spacing" textLength="165" x="248" y="1201.6479">(Ebetrexat Dosis reduzieren,</text><text fill="#000000" font-family="Arial" font-size="13" lengthAdjust="spacing" textLength="140" x="248" y="1216.5967">Cortisonsalbe absetzen)</text><polygon fill="#111827" points="942,1259.3003,952,1263.3003,942,1267.3003,946,1263.3003" style="stroke:#111827;stroke-width:1.0;"/><line style="stroke:#111827;stroke-width:1.0;" x1="241" x2="948" y1="1263.3003" y2="1263.3003"/><text fill="#000000" font-family="Arial" font-size="13" lengthAdjust="spacing" textLength="154" x="248" y="1258.5454">Medikationsplan speichern</text><!--SRC=[dLNDRjj64BxpAGRoeMqS6Q9i9R815r1g9q5Q1qQSzkJBaXoA2v6xwkuIaXNqrlVenO_HcruimwL8BNzSorq3XZqxE_FDzyqC3JSfmYqp78M1Jp9N0XzW23YymOWlo2w5v_sW5rmicM8PiD18TMSUw1LRePOPUjx-Df0gGlMBJAM2ev4zxYqB5tCbSn7jFE99yUDuw8H5SiN576AMQdHkTiy8dWBV3HfXpFBKl9V2V6OPmc2cE4i7BcR7vOvl4Fop_lTDt8wFa0RXcmVmhbq1Zd0IZuP7aH-Tuvl2msLW6fnFsAIsVaruk12eDVXa- -9KDAN_RraK5PKNKHmqlkzFns_9TbTpOrIEtbykm8yFIrGf5mkdXElhFeVVHMJ_m1t3BlduPuuYB2kzPShma2-PC8sI9lQq73gwsjDqwXBSkQx4QLnKj8oB1pEbvAfDZ3KskRMcleprHPdhb4mV2FcoKMCTkRpgQ8xns5RdlDod7pULUIVNJWKDUn-ldXV8DGpkHJsJ0pYYkJcT1fuTlThED0nks1fkScrGPKo8WOSYeX5SxuDi_rORmqKHv3ocC6Ux83CosmXNwcGNOVjeNGVGZJ9RIfFW0YqMP1XW5QQwA4BDCXPXhcjZ3vposDq2xrcOCB4YdvouAG_53y-cyRIGSBbl0RXx88IPpU8k9YS3dSjB6Byz6P-CH-Ct5x3tqikK2K2bJKOT3onGUOm2BY-zYihXpvQG2_ixG9s7YMSPeeioTJVUBeotWpQiO_o6g6YYM_uMNik6N1YYVOwGSB79u-s_yn9NbRiCUCYhU_7ZTO16uPePE0RQAePhUi3I07zwjXQzH1ucg4gK7x0mqiAR1NCMl0ZH9bVm1JUu95vL8IlBzMhxcAH4L1j49qsX4AQ5gvLoMajPEW2rCOrBtLwluIlo5FosaBlh2cM6HGuM9DA2g1hslu3Gf1yaTvsf4-6uAtzVvgjSXSaSIS94rQzXB-IU4VVrhjWBnv5eJhQF8k9pV56gHfyK1FyXLK3joms9LuwKVt9wY0pZ9sLevZX8Y4806HFT2AzwWRywK8_d0_MpzKpoTaawJ5AEst-U4ghbtn2BA9uu55DLdTwB2XHLjCxcUcgeZviqz9P2VIqsQ84uHDQuso4pRaZewshSNvp3zjEehlPN-WmhcQR5vultB-IcY_V_jt9t7XiRRKPVPQsfwHkBz4fgha5Xb6zedw5uVIywqgFPe7Z9YlqE]--></g></svg>