<?xml version="1.0" encoding="us-ascii" standalone="no"?><svg xmlns="http://www.w3.org/2000/svg" xmlns:xlink="http://www.w3.org/1999/xlink" contentStyleType="text/css" height="1376px" preserveAspectRatio="none" style="width:1094px;height:1376px;background:#F5F5F5;" version="1.1" viewBox="0 0 1094 1376" width="1094px" zoomAndPan="magnify"><defs/><g><rect fill="#F5F5F5" height="1376" style="stroke:none;stroke-width:1.0;" width="1094" x="0" y="0"/><text fill="#000000" font-family="Arial" font-size="14" font-weight="bold" lengthAdjust="spacing" textLength="210" x="438" y="28.1318">Patient Journey - e-Medikation</text><rect fill="#BAC38B" height="1327.6494" rx="5" ry="5" style="stroke:#181818;stroke-width:0.5;" width="125" x="21" y="43.0986"/><text fill="#000000" font-family="Arial" font-size="14" font-weight="bold" lengthAdjust="spacing" textLength="4" x="55.5" y="56.2305">&#160;</text><text fill="#000000" font-family="Arial" font-size="14" font-weight="bold" lengthAdjust="spacing" textLength="48" x="59.5" y="72.3291">Patient</text><rect fill="#9FBAC4" height="1327.6494" rx="5" ry="5" style="stroke:#181818;stroke-width:0.5;" width="116" x="188" y="43.0986"/><text fill="#000000" font-family="Arial" font-size="14" font-weight="bold" lengthAdjust="spacing" textLength="4" x="222" y="56.2305">&#160;</text><text fill="#000000" font-family="Arial" font-size="14" font-weight="bold" lengthAdjust="spacing" textLength="40" x="226" y="72.3291">&#196;rztin</text><rect fill="#BEAEBE" height="1327.6494" rx="5" ry="5" style="stroke:#181818;stroke-width:0.5;" width="138" x="498" y="43.0986"/><text fill="#000000" font-family="Arial" font-size="14" font-weight="bold" lengthAdjust="spacing" textLength="4" x="530" y="56.2305">&#160;</text><text fill="#000000" font-family="Arial" font-size="14" font-weight="bold" lengthAdjust="spacing" textLength="66" x="534" y="72.3291">Apotheke</text><rect fill="#C48F81" height="1327.6494" rx="5" ry="5" style="stroke:#181818;stroke-width:0.5;" width="223" x="843" y="43.0986"/><text fill="#000000" font-family="Arial" font-size="14" font-weight="bold" lengthAdjust="spacing" textLength="4" x="846" y="56.2305">&#160;</text><text fill="#000000" font-family="Arial" font-size="14" font-weight="bold" lengthAdjust="spacing" textLength="161" x="874" y="72.3291">e-Med Fachanwendung</text><line style="stroke:#181818;stroke-width:0.5;stroke-dasharray:5.0,5.0;" x1="83" x2="83" y1="155.3945" y2="1291.6494"/><line style="stroke:#181818;stroke-width:0.5;stroke-dasharray:5.0,5.0;" x1="246" x2="246" y1="155.3945" y2="1291.6494"/><line style="stroke:#181818;stroke-width:0.5;stroke-dasharray:5.0,5.0;" x1="567" x2="567" y1="155.3945" y2="1291.6494"/><line style="stroke:#181818;stroke-width:0.5;stroke-dasharray:5.0,5.0;" x1="954.5" x2="954.5" y1="155.3945" y2="1291.6494"/><text fill="#000000" font-family="Arial" font-size="14" lengthAdjust="spacing" textLength="111" x="25" y="152.4277">Max Mustermann</text><ellipse cx="83.5" cy="87.7959" fill="#E2E2F0" rx="8" ry="8" style="stroke:#181818;stroke-width:0.5;"/><path d="M83.5,95.7959 L83.5,122.7959 M70.5,103.7959 L96.5,103.7959 M83.5,122.7959 L70.5,137.7959 M83.5,122.7959 L96.5,137.7959 " fill="none" style="stroke:#181818;stroke-width:0.5;"/><text fill="#000000" font-family="Arial" font-size="14" lengthAdjust="spacing" textLength="111" x="25" y="1303.7813">Max Mustermann</text><ellipse cx="83.5" cy="1315.248" fill="#E2E2F0" rx="8" ry="8" style="stroke:#181818;stroke-width:0.5;"/><path d="M83.5,1323.248 L83.5,1350.248 M70.5,1331.248 L96.5,1331.248 M83.5,1350.248 L70.5,1365.248 M83.5,1350.248 L96.5,1365.248 " fill="none" style="stroke:#181818;stroke-width:0.5;"/><text fill="#000000" font-family="Arial" font-size="14" lengthAdjust="spacing" textLength="102" x="192" y="152.4277">Dr. Muster&#228;rztin</text><ellipse cx="246" cy="87.7959" fill="#E2E2F0" rx="8" ry="8" style="stroke:#181818;stroke-width:0.5;"/><path d="M246,95.7959 L246,122.7959 M233,103.7959 L259,103.7959 M246,122.7959 L233,137.7959 M246,122.7959 L259,137.7959 " fill="none" style="stroke:#181818;stroke-width:0.5;"/><text fill="#000000" font-family="Arial" font-size="14" lengthAdjust="spacing" textLength="102" x="192" y="1303.7813">Dr. Muster&#228;rztin</text><ellipse cx="246" cy="1315.248" fill="#E2E2F0" rx="8" ry="8" style="stroke:#181818;stroke-width:0.5;"/><path d="M246,1323.248 L246,1350.248 M233,1331.248 L259,1331.248 M246,1350.248 L233,1365.248 M246,1350.248 L259,1365.248 " fill="none" style="stroke:#181818;stroke-width:0.5;"/><text fill="#000000" font-family="Arial" font-size="14" lengthAdjust="spacing" textLength="124" x="502" y="152.4277">Amadeus Apotheke</text><ellipse cx="567" cy="87.7959" fill="#E2E2F0" rx="8" ry="8" style="stroke:#181818;stroke-width:0.5;"/><path d="M567,95.7959 L567,122.7959 M554,103.7959 L580,103.7959 M567,122.7959 L554,137.7959 M567,122.7959 L580,137.7959 " fill="none" style="stroke:#181818;stroke-width:0.5;"/><text fill="#000000" font-family="Arial" font-size="14" lengthAdjust="spacing" textLength="124" x="502" y="1303.7813">Amadeus Apotheke</text><ellipse cx="567" cy="1315.248" fill="#E2E2F0" rx="8" ry="8" style="stroke:#181818;stroke-width:0.5;"/><path d="M567,1323.248 L567,1350.248 M554,1331.248 L580,1331.248 M567,1350.248 L554,1365.248 M567,1350.248 L580,1365.248 " fill="none" style="stroke:#181818;stroke-width:0.5;"/><rect fill="#FFFFFF" height="30.0986" rx="5" ry="5" style="stroke:#555555;stroke-width:0.5;" width="96" x="906.5" y="124.2959"/><text fill="#000000" font-family="Arial" font-size="14" lengthAdjust="spacing" textLength="82" x="913.5" y="144.4277">e-Medikation</text><rect fill="#FFFFFF" height="30.0986" rx="5" ry="5" style="stroke:#555555;stroke-width:0.5;" width="96" x="906.5" y="1290.6494"/><text fill="#000000" font-family="Arial" font-size="14" lengthAdjust="spacing" textLength="82" x="913.5" y="1310.7813">e-Medikation</text><rect fill="#EEEEEE" height="3" rx="5" ry="5" style="stroke:#EEEEEE;stroke-width:1.0;" width="1087" x="0" y="186.4438"/><line style="stroke:#000000;stroke-width:1.0;" x1="0" x2="1087" y1="186.4438" y2="186.4438"/><line style="stroke:#000000;stroke-width:1.0;" x1="0" x2="1087" y1="189.4438" y2="189.4438"/><rect fill="#EEEEEE" height="24.0986" rx="5" ry="5" style="stroke:#000000;stroke-width:2.0;" width="324" x="381.5" y="175.3945"/><text fill="#000000" font-family="Arial" font-size="14" font-weight="bold" lengthAdjust="spacing" textLength="306" x="387.5" y="192.5264">27.2.2026: Medikationsplan erstmals abrufen</text><polygon fill="#111827" points="234,226.4419,244,230.4419,234,234.4419,238,230.4419" style="stroke:#111827;stroke-width:1.0;"/><line style="stroke:#111827;stroke-width:1.0;" x1="83.5" x2="240" y1="230.4419" y2="230.4419"/><text fill="#000000" font-family="Arial" font-size="13" lengthAdjust="spacing" textLength="66" x="90.5" y="225.687">Arztbesuch</text><polygon fill="#111827" points="942.5,255.3906,952.5,259.3906,942.5,263.3906,946.5,259.3906" style="stroke:#111827;stroke-width:1.0;"/><line style="stroke:#111827;stroke-width:1.0;" x1="246" x2="948.5" y1="259.3906" y2="259.3906"/><text fill="#000000" font-family="Arial" font-size="13" lengthAdjust="spacing" textLength="141" x="253" y="254.6357">Medikationsplan abrufen</text><polygon fill="#111827" points="257,284.3394,247,288.3394,257,292.3394,253,288.3394" style="stroke:#111827;stroke-width:1.0;"/><line style="stroke:#111827;stroke-width:1.0;stroke-dasharray:2.0,2.0;" x1="251" x2="953.5" y1="288.3394" y2="288.3394"/><text fill="#000000" font-family="Arial" font-size="13" lengthAdjust="spacing" textLength="134" x="263" y="283.5845">Leerer Medikationsplan</text><rect fill="#EEEEEE" height="3" rx="5" ry="5" style="stroke:#EEEEEE;stroke-width:1.0;" width="1087" x="0" y="317.3887"/><line style="stroke:#000000;stroke-width:1.0;" x1="0" x2="1087" y1="317.3887" y2="317.3887"/><line style="stroke:#000000;stroke-width:1.0;" x1="0" x2="1087" y1="320.3887" y2="320.3887"/><rect fill="#EEEEEE" height="24.0986" rx="5" ry="5" style="stroke:#000000;stroke-width:2.0;" width="270" x="408.5" y="306.3394"/><text fill="#000000" font-family="Arial" font-size="14" font-weight="bold" lengthAdjust="spacing" textLength="252" x="414.5" y="323.4712">Medikationsplaneintr&#228;ge hinzuf&#252;gen</text><line style="stroke:#111827;stroke-width:1.0;" x1="246" x2="288" y1="376.3354" y2="376.3354"/><line style="stroke:#111827;stroke-width:1.0;" x1="288" x2="288" y1="376.3354" y2="389.3354"/><line style="stroke:#111827;stroke-width:1.0;" x1="247" x2="288" y1="389.3354" y2="389.3354"/><polygon fill="#111827" points="257,385.3354,247,389.3354,257,393.3354,253,389.3354" style="stroke:#111827;stroke-width:1.0;"/><text fill="#000000" font-family="Arial" font-size="13" lengthAdjust="spacing" textLength="207" x="253" y="356.6318">Medikationsplaneintr&#228;ge hinzuf&#252;gen</text><text fill="#000000" font-family="Arial" font-size="13" lengthAdjust="spacing" textLength="159" x="253" y="371.5806">(Ebetrexat + Cortisonsalbe)</text><polygon fill="#111827" points="942.5,414.2842,952.5,418.2842,942.5,422.2842,946.5,418.2842" style="stroke:#111827;stroke-width:1.0;"/><line style="stroke:#111827;stroke-width:1.0;" x1="246" x2="948.5" y1="418.2842" y2="418.2842"/><text fill="#000000" font-family="Arial" font-size="13" lengthAdjust="spacing" textLength="154" x="253" y="413.5293">Medikationsplan speichern</text><rect fill="#EEEEEE" height="3" rx="5" ry="5" style="stroke:#EEEEEE;stroke-width:1.0;" width="1087" x="0" y="447.3335"/><line style="stroke:#000000;stroke-width:1.0;" x1="0" x2="1087" y1="447.3335" y2="447.3335"/><line style="stroke:#000000;stroke-width:1.0;" x1="0" x2="1087" y1="450.3335" y2="450.3335"/><rect fill="#EEEEEE" height="24.0986" rx="5" ry="5" style="stroke:#000000;stroke-width:2.0;" width="146" x="470.5" y="436.2842"/><text fill="#000000" font-family="Arial" font-size="14" font-weight="bold" lengthAdjust="spacing" textLength="128" x="476.5" y="453.416">Geplante Abgaben</text><line style="stroke:#111827;stroke-width:1.0;" x1="246" x2="288" y1="491.3315" y2="491.3315"/><line style="stroke:#111827;stroke-width:1.0;" x1="288" x2="288" y1="491.3315" y2="504.3315"/><line style="stroke:#111827;stroke-width:1.0;" x1="247" x2="288" y1="504.3315" y2="504.3315"/><polygon fill="#111827" points="257,500.3315,247,504.3315,257,508.3315,253,504.3315" style="stroke:#111827;stroke-width:1.0;"/><text fill="#000000" font-family="Arial" font-size="13" lengthAdjust="spacing" textLength="307" x="253" y="486.5767">Medikationsplaneintr&#228;ge zur Rezeptierung ausw&#228;hlen</text><polygon fill="#111827" points="942.5,529.2803,952.5,533.2803,942.5,537.2803,946.5,533.2803" style="stroke:#111827;stroke-width:1.0;"/><line style="stroke:#111827;stroke-width:1.0;" x1="246" x2="948.5" y1="533.2803" y2="533.2803"/><text fill="#000000" font-family="Arial" font-size="13" lengthAdjust="spacing" textLength="160" x="253" y="528.5254">Geplante Abgaben erstellen</text><rect fill="#EEEEEE" height="3" rx="5" ry="5" style="stroke:#EEEEEE;stroke-width:1.0;" width="1087" x="0" y="562.3296"/><line style="stroke:#000000;stroke-width:1.0;" x1="0" x2="1087" y1="562.3296" y2="562.3296"/><line style="stroke:#000000;stroke-width:1.0;" x1="0" x2="1087" y1="565.3296" y2="565.3296"/><rect fill="#EEEEEE" height="24.0986" rx="5" ry="5" style="stroke:#000000;stroke-width:2.0;" width="302" x="392.5" y="551.2803"/><text fill="#000000" font-family="Arial" font-size="14" font-weight="bold" lengthAdjust="spacing" textLength="284" x="398.5" y="568.4121">28.2.2026: Abgabe in der Apotheke, Teil 1</text><polygon fill="#111827" points="555,602.3276,565,606.3276,555,610.3276,559,606.3276" style="stroke:#111827;stroke-width:1.0;"/><line style="stroke:#111827;stroke-width:1.0;" x1="83.5" x2="561" y1="606.3276" y2="606.3276"/><text fill="#000000" font-family="Arial" font-size="13" lengthAdjust="spacing" textLength="127" x="90.5" y="601.5728">Medikamente abholen</text><polygon fill="#111827" points="942.5,631.2764,952.5,635.2764,942.5,639.2764,946.5,635.2764" style="stroke:#111827;stroke-width:1.0;"/><line style="stroke:#111827;stroke-width:1.0;" x1="567" x2="948.5" y1="635.2764" y2="635.2764"/><text fill="#000000" font-family="Arial" font-size="13" lengthAdjust="spacing" textLength="277" x="574" y="630.5215">Geplante Abgaben und Medikationsplan abrufen</text><polygon fill="#111827" points="578,660.2251,568,664.2251,578,668.2251,574,664.2251" style="stroke:#111827;stroke-width:1.0;"/><line style="stroke:#111827;stroke-width:1.0;stroke-dasharray:2.0,2.0;" x1="572" x2="953.5" y1="664.2251" y2="664.2251"/><text fill="#000000" font-family="Arial" font-size="13" lengthAdjust="spacing" textLength="217" x="584" y="659.4702">Geplante Abgaben + Medikationsplan</text><polygon fill="#111827" points="942.5,689.1738,952.5,693.1738,942.5,697.1738,946.5,693.1738" style="stroke:#111827;stroke-width:1.0;"/><line style="stroke:#111827;stroke-width:1.0;" x1="567" x2="948.5" y1="693.1738" y2="693.1738"/><text fill="#000000" font-family="Arial" font-size="13" lengthAdjust="spacing" textLength="242" x="574" y="688.4189">Durchgef&#252;hrte Abgabe Ebetrexat erstellen</text><polygon fill="#111827" points="94.5,718.1226,84.5,722.1226,94.5,726.1226,90.5,722.1226" style="stroke:#111827;stroke-width:1.0;"/><line style="stroke:#111827;stroke-width:1.0;" x1="88.5" x2="566" y1="722.1226" y2="722.1226"/><text fill="#000000" font-family="Arial" font-size="13" lengthAdjust="spacing" textLength="133" x="100.5" y="717.3677">Ebetrexat aush&#228;ndigen</text><polygon fill="#111827" points="942.5,747.0713,952.5,751.0713,942.5,755.0713,946.5,751.0713" style="stroke:#111827;stroke-width:1.0;"/><line style="stroke:#111827;stroke-width:1.0;" x1="567" x2="948.5" y1="751.0713" y2="751.0713"/><text fill="#000000" font-family="Arial" font-size="13" lengthAdjust="spacing" textLength="303" x="574" y="746.3164">Durchgef&#252;hrte Abgabe Cortisonsalbe in Vorbereitung</text><rect fill="#EEEEEE" height="3" rx="5" ry="5" style="stroke:#EEEEEE;stroke-width:1.0;" width="1087" x="0" y="780.1206"/><line style="stroke:#000000;stroke-width:1.0;" x1="0" x2="1087" y1="780.1206" y2="780.1206"/><line style="stroke:#000000;stroke-width:1.0;" x1="0" x2="1087" y1="783.1206" y2="783.1206"/><rect fill="#EEEEEE" height="24.0986" rx="5" ry="5" style="stroke:#000000;stroke-width:2.0;" width="294" x="396.5" y="769.0713"/><text fill="#000000" font-family="Arial" font-size="14" font-weight="bold" lengthAdjust="spacing" textLength="276" x="402.5" y="786.2031">1.3.2026: Abgabe in der Apotheke, Teil 2</text><polygon fill="#111827" points="555,820.1187,565,824.1187,555,828.1187,559,824.1187" style="stroke:#111827;stroke-width:1.0;"/><line style="stroke:#111827;stroke-width:1.0;" x1="83.5" x2="561" y1="824.1187" y2="824.1187"/><text fill="#000000" font-family="Arial" font-size="13" lengthAdjust="spacing" textLength="128" x="90.5" y="819.3638">Cortisonsalbe abholen</text><polygon fill="#111827" points="942.5,849.0674,952.5,853.0674,942.5,857.0674,946.5,853.0674" style="stroke:#111827;stroke-width:1.0;"/><line style="stroke:#111827;stroke-width:1.0;" x1="567" x2="948.5" y1="853.0674" y2="853.0674"/><text fill="#000000" font-family="Arial" font-size="13" lengthAdjust="spacing" textLength="295" x="574" y="848.3125">Geplante und offene durchgef&#252;hrte Abgabe abrufen</text><polygon fill="#111827" points="578,878.0161,568,882.0161,578,886.0161,574,882.0161" style="stroke:#111827;stroke-width:1.0;"/><line style="stroke:#111827;stroke-width:1.0;stroke-dasharray:2.0,2.0;" x1="572" x2="953.5" y1="882.0161" y2="882.0161"/><text fill="#000000" font-family="Arial" font-size="13" lengthAdjust="spacing" textLength="248" x="584" y="877.2612">Geplante und offene durchgef&#252;hrte Abgabe</text><polygon fill="#111827" points="942.5,906.9648,952.5,910.9648,942.5,914.9648,946.5,910.9648" style="stroke:#111827;stroke-width:1.0;"/><line style="stroke:#111827;stroke-width:1.0;" x1="567" x2="948.5" y1="910.9648" y2="910.9648"/><text fill="#000000" font-family="Arial" font-size="13" lengthAdjust="spacing" textLength="324" x="574" y="906.21">offene durchgef&#252;hrte Abgabe Cortisonsalbe abschlie&#223;en</text><polygon fill="#111827" points="94.5,935.9136,84.5,939.9136,94.5,943.9136,90.5,939.9136" style="stroke:#111827;stroke-width:1.0;"/><line style="stroke:#111827;stroke-width:1.0;" x1="88.5" x2="566" y1="939.9136" y2="939.9136"/><text fill="#000000" font-family="Arial" font-size="13" lengthAdjust="spacing" textLength="156" x="100.5" y="935.1587">Cortisonsalbe aush&#228;ndigen</text><rect fill="#EEEEEE" height="3" rx="5" ry="5" style="stroke:#EEEEEE;stroke-width:1.0;" width="1087" x="0" y="968.9629"/><line style="stroke:#000000;stroke-width:1.0;" x1="0" x2="1087" y1="968.9629" y2="968.9629"/><line style="stroke:#000000;stroke-width:1.0;" x1="0" x2="1087" y1="971.9629" y2="971.9629"/><rect fill="#EEEEEE" height="24.0986" rx="5" ry="5" style="stroke:#000000;stroke-width:2.0;" width="352" x="367.5" y="957.9136"/><text fill="#000000" font-family="Arial" font-size="14" font-weight="bold" lengthAdjust="spacing" textLength="334" x="373.5" y="975.0454">5.3.2026: Abruf Medikationsplan durch Patienten</text><polygon fill="#111827" points="942.5,1008.9609,952.5,1012.9609,942.5,1016.9609,946.5,1012.9609" style="stroke:#111827;stroke-width:1.0;"/><line style="stroke:#111827;stroke-width:1.0;" x1="83.5" x2="948.5" y1="1012.9609" y2="1012.9609"/><text fill="#000000" font-family="Arial" font-size="13" lengthAdjust="spacing" textLength="378" x="90.5" y="1008.2061">Medikationsplan + geplante und durchgef&#252;hrte Abgaben anzeigen</text><polygon fill="#111827" points="94.5,1037.9097,84.5,1041.9097,94.5,1045.9097,90.5,1041.9097" style="stroke:#111827;stroke-width:1.0;"/><line style="stroke:#111827;stroke-width:1.0;stroke-dasharray:2.0,2.0;" x1="88.5" x2="953.5" y1="1041.9097" y2="1041.9097"/><text fill="#000000" font-family="Arial" font-size="13" lengthAdjust="spacing" textLength="470" x="100.5" y="1037.1548">Medikationsplan mit 2 Eintr&#228;gen + geplante und durchgef&#252;hrte Abgaben anzeigen</text><rect fill="#EEEEEE" height="3" rx="5" ry="5" style="stroke:#EEEEEE;stroke-width:1.0;" width="1087" x="0" y="1070.959"/><line style="stroke:#000000;stroke-width:1.0;" x1="0" x2="1087" y1="1070.959" y2="1070.959"/><line style="stroke:#000000;stroke-width:1.0;" x1="0" x2="1087" y1="1073.959" y2="1073.959"/><rect fill="#EEEEEE" height="24.0986" rx="5" ry="5" style="stroke:#000000;stroke-width:2.0;" width="189" x="449" y="1059.9097"/><text fill="#000000" font-family="Arial" font-size="14" font-weight="bold" lengthAdjust="spacing" textLength="171" x="455" y="1077.0415">10.3.2026: Kontrolltermin</text><polygon fill="#111827" points="234,1110.957,244,1114.957,234,1118.957,238,1114.957" style="stroke:#111827;stroke-width:1.0;"/><line style="stroke:#111827;stroke-width:1.0;" x1="83.5" x2="240" y1="1114.957" y2="1114.957"/><text fill="#000000" font-family="Arial" font-size="13" lengthAdjust="spacing" textLength="80" x="90.5" y="1110.2021">Kontrolltermin</text><polygon fill="#111827" points="942.5,1139.9058,952.5,1143.9058,942.5,1147.9058,946.5,1143.9058" style="stroke:#111827;stroke-width:1.0;"/><line style="stroke:#111827;stroke-width:1.0;" x1="246" x2="948.5" y1="1143.9058" y2="1143.9058"/><text fill="#000000" font-family="Arial" font-size="13" lengthAdjust="spacing" textLength="141" x="253" y="1139.1509">Medikationsplan abrufen</text><polygon fill="#111827" points="257,1168.8545,247,1172.8545,257,1176.8545,253,1172.8545" style="stroke:#111827;stroke-width:1.0;"/><line style="stroke:#111827;stroke-width:1.0;stroke-dasharray:2.0,2.0;" x1="251" x2="953.5" y1="1172.8545" y2="1172.8545"/><text fill="#000000" font-family="Arial" font-size="13" lengthAdjust="spacing" textLength="94" x="263" y="1168.0996">Medikationsplan</text><line style="stroke:#111827;stroke-width:1.0;" x1="246" x2="288" y1="1231.7007" y2="1231.7007"/><line style="stroke:#111827;stroke-width:1.0;" x1="288" x2="288" y1="1231.7007" y2="1244.7007"/><line style="stroke:#111827;stroke-width:1.0;" x1="247" x2="288" y1="1244.7007" y2="1244.7007"/><polygon fill="#111827" points="257,1240.7007,247,1244.7007,257,1248.7007,253,1244.7007" style="stroke:#111827;stroke-width:1.0;"/><text fill="#000000" font-family="Arial" font-size="13" lengthAdjust="spacing" textLength="65" x="253" y="1197.0483">Anpassung</text><text fill="#000000" font-family="Arial" font-size="13" lengthAdjust="spacing" textLength="165" x="253" y="1211.9971">(Ebetrexat Dosis reduzieren,</text><text fill="#000000" font-family="Arial" font-size="13" lengthAdjust="spacing" textLength="140" x="253" y="1226.9458">Cortisonsalbe absetzen)</text><polygon fill="#111827" points="942.5,1269.6494,952.5,1273.6494,942.5,1277.6494,946.5,1273.6494" style="stroke:#111827;stroke-width:1.0;"/><line style="stroke:#111827;stroke-width:1.0;" x1="246" x2="948.5" y1="1273.6494" y2="1273.6494"/><text fill="#000000" font-family="Arial" font-size="13" lengthAdjust="spacing" textLength="154" x="253" y="1268.8945">Medikationsplan speichern</text><!--SRC=[dLNDRjj64BxpAGRo9OKZGwIjH3RW04hjf4ZhmeZJd7nPaaDn8MfNtLt2iehU-Xwz-35wqujrkFpHyiU9d3LWsBEptynytypGS9CXt3B3KHZu97Cby176WECRZFcIx59udbvoiMQAhI2KAaRriyoaWgE9FUujYvOB9NCHLnx9jFXnF7JAOld0nG8IbcbqRgfd55-1xuB6cB0yCn-aCB-p5S9ehZZBHiCUTtoBu9yDNxRJTdo4D0X_UG3lkmNW1AV9P7mK-_4vlYayN09cuVcKJHlhbvH7Iu5QWq-spqv1C_h_biLnKNY1ucJZ-_uiU4kskuOQetBq_dOJ_ELnZIhZOkcKS7qzvF27YEqVM17iSez_vYYYij9RfWoF-9e9qoffQa_7eIUhFMsdFi6zwrgSraLDIr0yc2ib7xh4M6ERMsiQYjXSbB5EoVIHCb-tQcoGowkUvfW4jZhdvJvyq5RclTmu5RJiGxnwNYWtCBeNpSoDu8Z6vdGMUYmov5dRcORH3Tl0JQuDgXKJOkIXY6a2DtkGtJzgQxWeGCuJWZchGEPajWXNwgH2s3rPrn7qKUPhQL9Seiq56OPOmzGN1THynMBCTMCSIASyTdV01nQbJ3oGJqxSb8VmexDPCYiaNEzR0EuUASELZU8k7YS2dSjB2DwU12V197Xp0NillSwO05JQhAZZWOKgJr30vQLNKpb-PmcviBz3r7cKUfOXkYX3z_4g6AzARTnW_8QeQA8x_ZQzZWsvC4Jx0Y7bOfidk_yMPLvrx1Bma5VtujLrY4RXXXau1jegXcjwmB8GV_fkBNgDF4fHbLb-nC982syUBbZueeoskOBFkCKryQeAMLck7tPFQKP4TPFeXIaKmgnmjLBE6YbB1w0sfd5fskirV46UWTyLihgkirnX4OE5gRH9r0txhKHeqW-IkudKGpZkopyK-IfNKRf0aZ1LpMlO2xbdn7rT5NlXE1BDwUv9n7o1BmhLwfE2uAzIXTI-t91uvKZv9wU7o10yAqCxna5250B8XEX6Y0VpFaoDxy4CC_NDmDrYT9Hc77V_FYTHnxyb4v4xTSYbYdfTPvEeqNexwxbnFeQ5Iy5W9TJHOeis4OV49kykv8eRalYw7lGNnx2TD6cg_PK-m4fcMV7XuiEhkEtY_VW-xazYQvVDwNkiDRLxQuLUISqrA8ppBMqo5A_lHKzwD5iKBrck_mC0]--></g></svg>