<svg xmlns="http://www.w3.org/2000/svg" xmlns:xlink="http://www.w3.org/1999/xlink" contentStyleType="text/css" data-diagram-type="ACTIVITY" height="342px" preserveAspectRatio="none" style="width:473px;height:342px;background:#FFFFFF;" version="1.1" viewBox="0 0 473 342" width="473px" zoomAndPan="magnify"><?plantuml 1.2026.4beta2?><defs/><g><g class="title" data-source-line="1"><text fill="#000000" font-family="sans-serif" font-size="14" font-weight="700" lengthAdjust="spacing" textLength="358.9619" x="53.9346" y="22.9951">MedicationRequest.status (geplante Abgabe)</text></g><g class="start_entity" data-qualified-name="start" data-source-line="3" id="ent0002"><ellipse cx="211.27" cy="53.2969" fill="#222222" rx="10" ry="10" style="stroke:#222222;stroke-width:1;"/></g><rect fill="#F1F1F1" height="33.9688" rx="12.5" ry="12.5" style="stroke:#181818;stroke-width:0.5;" width="56.4746" x="183.03" y="117.2969"/><text fill="#000000" font-family="sans-serif" font-size="12" lengthAdjust="spacing" textLength="36.4746" x="193.03" y="138.4355">active</text><rect fill="#F1F1F1" height="33.9688" rx="12.5" ry="12.5" style="stroke:#181818;stroke-width:0.5;" width="68.5332" x="7" y="231.2669"/><text fill="#000000" font-family="sans-serif" font-size="12" lengthAdjust="spacing" textLength="48.5332" x="17" y="252.4055">stopped</text><rect fill="#F1F1F1" height="33.9688" rx="12.5" ry="12.5" style="stroke:#181818;stroke-width:0.5;" width="83.668" x="101.43" y="231.2669"/><text fill="#000000" font-family="sans-serif" font-size="12" lengthAdjust="spacing" textLength="63.668" x="111.43" y="252.4055">completed</text><rect fill="#F1F1F1" height="33.9688" rx="12.5" ry="12.5" style="stroke:#181818;stroke-width:0.5;" width="116.1348" x="205.2" y="231.2669"/><text fill="#000000" font-family="sans-serif" font-size="12" lengthAdjust="spacing" textLength="96.1348" x="215.2" y="252.4055">entered-in-error</text><rect fill="#F1F1F1" height="33.9688" rx="12.5" ry="12.5" style="stroke:#181818;stroke-width:0.5;" width="77.2051" x="341.66" y="231.2669"/><text fill="#000000" font-family="sans-serif" font-size="12" lengthAdjust="spacing" textLength="57.2051" x="351.66" y="252.4055">cancelled</text><g class="end_entity" data-qualified-name="end" data-source-line="8" id="ent0013"><ellipse cx="202.27" cy="317.2369" fill="none" rx="11" ry="11" style="stroke:#222222;stroke-width:1.5;"/><ellipse cx="202.27" cy="317.2369" fill="#222222" rx="6" ry="6" style="stroke:#222222;stroke-width:1;"/></g><!--link start to active--><g class="link" data-entity-1="ent0002" data-entity-2="ent0003" data-link-type="dependency" data-source-line="3" id="lnk4"><path d="M211.27,63.6669 C211.27,76.8269 211.27,94.9669 211.27,111.0769" fill="none" id="start-to-active" style="stroke:#181818;stroke-width:1;"/><polygon fill="#181818" points="211.27,117.0769,215.27,108.0769,211.27,112.0769,207.27,108.0769,211.27,117.0769" style="stroke:#181818;stroke-width:1;"/><text fill="#000000" font-family="sans-serif" font-size="11" lengthAdjust="spacing" textLength="28.2144" x="212.27" y="94.5073">offen</text></g><!--link active to stopped--><g class="link" data-entity-1="ent0003" data-entity-2="ent0005" data-link-type="dependency" data-source-line="4" id="lnk6"><path d="M182.7,136.9469 C138.13,140.2069 55.28,149.1469 37.27,171.2669 C23.67,187.9669 27.0975,208.5199 32.7675,225.3799" fill="none" id="active-to-stopped" style="stroke:#181818;stroke-width:1;"/><polygon fill="#181818" points="34.68,231.0669,35.6025,221.2613,33.0862,226.3277,28.0198,223.8114,34.68,231.0669" style="stroke:#181818;stroke-width:1;"/><text fill="#000000" font-family="sans-serif" font-size="11" lengthAdjust="spacing" textLength="92.8018" x="38.27" y="195.4773">nicht abgegeben</text></g><!--link active to completed--><g class="link" data-entity-1="ent0003" data-entity-2="ent0007" data-link-type="dependency" data-source-line="5" id="lnk8"><path d="M182.78,143.3769 C168.95,148.8769 153.57,157.6869 145.27,171.2669 C134.25,189.2769 135.1267,208.5573 138.1567,224.9073" fill="none" id="active-to-completed" style="stroke:#181818;stroke-width:1;"/><polygon fill="#181818" points="139.25,230.8069,141.5431,221.2287,138.3389,225.8906,133.677,222.6864,139.25,230.8069" style="stroke:#181818;stroke-width:1;"/><text fill="#000000" font-family="sans-serif" font-size="11" lengthAdjust="spacing" textLength="50.3755" x="170.1982" y="182.4773">eingel&#246;st</text><text fill="#000000" font-family="sans-serif" font-size="11" lengthAdjust="spacing" textLength="35.7876" x="177.4922" y="195.282">(durch</text><text fill="#000000" font-family="sans-serif" font-size="11" lengthAdjust="spacing" textLength="94.7354" x="146.27" y="208.0867">Fachanwendung)</text></g><!--link active to entered-in-error--><g class="link" data-entity-1="ent0003" data-entity-2="ent0009" data-link-type="dependency" data-source-line="6" id="lnk10"><path d="M233.8,151.4969 C240.05,157.0769 246.22,163.8169 250.27,171.2669 C260.42,189.9669 262.8012,208.7495 263.2812,224.8495" fill="none" id="active-to-entered-in-error" style="stroke:#181818;stroke-width:1;"/><polygon fill="#181818" points="263.46,230.8469,267.19,221.7317,263.311,225.8491,259.1936,221.9701,263.46,230.8469" style="stroke:#181818;stroke-width:1;"/><text fill="#000000" font-family="sans-serif" font-size="11" lengthAdjust="spacing" textLength="46.9272" x="262.27" y="195.4773">storniert</text></g><!--link active to cancelled--><g class="link" data-entity-1="ent0003" data-entity-2="ent0011" data-link-type="dependency" data-source-line="7" id="lnk12"><path d="M239.75,141.0169 C261.51,146.3569 291.53,155.8569 314.27,171.2669 C337.84,187.2569 354.7718,208.7283 366.4218,225.8283" fill="none" id="active-to-cancelled" style="stroke:#181818;stroke-width:1;"/><polygon fill="#181818" points="369.8,230.7869,368.0384,221.0968,366.9848,226.6547,361.4269,225.6011,369.8,230.7869" style="stroke:#181818;stroke-width:1;"/><text fill="#000000" font-family="sans-serif" font-size="11" lengthAdjust="spacing" textLength="102.561" x="355.27" y="182.4773">Datum abgelaufen</text><text fill="#000000" font-family="sans-serif" font-size="11" lengthAdjust="spacing" textLength="35.7876" x="388.6567" y="195.282">(durch</text><text fill="#000000" font-family="sans-serif" font-size="11" lengthAdjust="spacing" textLength="94.7354" x="359.1828" y="208.0867">Fachanwendung)</text></g><!--link stopped to end--><g class="link" data-entity-1="ent0005" data-entity-2="ent0013" data-link-type="dependency" data-source-line="8" id="lnk14"><path d="M75.81,263.6269 C112.76,278.9969 163.6202,300.1624 186.5302,309.6924" fill="none" id="stopped-to-end" style="stroke:#181818;stroke-width:1;"/><polygon fill="#181818" points="192.07,311.9969,185.2966,304.847,187.4535,310.0765,182.224,312.2334,192.07,311.9969" style="stroke:#181818;stroke-width:1;"/></g><!--link entered-in-error to end--><g class="link" data-entity-1="ent0009" data-entity-2="ent0013" data-link-type="dependency" data-source-line="9" id="lnk15"><path d="M248.5,265.4669 C236.09,279.0969 222.9311,293.5518 213.3911,304.0218" fill="none" id="entered-in-error-to-end" style="stroke:#181818;stroke-width:1;"/><polygon fill="#181818" points="209.35,308.4569,218.3683,304.4984,212.7176,304.761,212.4549,299.1103,209.35,308.4569" style="stroke:#181818;stroke-width:1;"/></g><!--link completed to end--><g class="link" data-entity-1="ent0007" data-entity-2="ent0013" data-link-type="dependency" data-source-line="10" id="lnk16"><path d="M157.55,265.4669 C169.55,279.0969 182.2247,293.484 191.4447,303.954" fill="none" id="completed-to-end" style="stroke:#181818;stroke-width:1;"/><polygon fill="#181818" points="195.41,308.4569,192.464,299.059,192.1056,304.7044,186.4601,304.346,195.41,308.4569" style="stroke:#181818;stroke-width:1;"/></g><!--link cancelled to end--><g class="link" data-entity-1="ent0011" data-entity-2="ent0013" data-link-type="dependency" data-source-line="11" id="lnk17"><path d="M341.2,263.9569 C299.65,279.5869 242.2557,301.1941 217.9357,310.3441" fill="none" id="cancelled-to-end" style="stroke:#181818;stroke-width:1;"/><polygon fill="#181818" points="212.32,312.4569,222.1521,313.0315,216.9997,310.6962,219.335,305.5439,212.32,312.4569" style="stroke:#181818;stroke-width:1;"/></g><?plantuml-src TOz1Ri8m44NtESM8LO8KZb2fKiME3Ll8Oc9_74jc7EnnUxDUe1Uh2uKggbYDDFFd__VLQm3jOBrXzL7sk1HatMHbBPbQXpcmAEXrT3oYQvfstL7Vlz0XdawGWTYeVqTp6xUBU3CfyUZWCFveiiPvXbs8uCKXV7rcFKfhIpBJKRPi9fOFY2tYEXh8nFCSeB14Y-TgcCGZwK0hLBm4stlfaL9CguNohVOuNra2bmhyBAnciHY4K35_SQy6jMxpF-9n-WDyREuszyqt?></g></svg>