<svg xmlns="http://www.w3.org/2000/svg" xmlns:xlink="http://www.w3.org/1999/xlink" contentStyleType="text/css" data-diagram-type="ACTIVITY" height="342px" preserveAspectRatio="none" style="width:385px;height:342px;background:#FFFFFF;" version="1.1" viewBox="0 0 385 342" width="385px" zoomAndPan="magnify"><?plantuml 1.2026.4beta2?><defs/><g><g class="title" data-source-line="1"><text fill="#000000" font-family="sans-serif" font-size="14" font-weight="700" lengthAdjust="spacing" textLength="358.9619" x="10" y="22.9951">MedicationRequest.status (geplante Abgabe)</text></g><g class="start_entity" data-qualified-name="start" data-source-line="3" id="ent0002"><ellipse cx="175.5836" cy="53.2969" fill="#222222" rx="10" ry="10" style="stroke:#222222;stroke-width:1;"/></g><rect fill="#F1F1F1" height="33.9688" rx="12.5" ry="12.5" style="stroke:#181818;stroke-width:0.5;" width="56.4746" x="147.3436" y="117.2969"/><text fill="#000000" font-family="sans-serif" font-size="12" lengthAdjust="spacing" textLength="36.4746" x="157.3436" y="138.4355">active</text><rect fill="#F1F1F1" height="33.9688" rx="12.5" ry="12.5" style="stroke:#181818;stroke-width:0.5;" width="68.5332" x="12.3136" y="231.2669"/><text fill="#000000" font-family="sans-serif" font-size="12" lengthAdjust="spacing" textLength="48.5332" x="22.3136" y="252.4055">stopped</text><rect fill="#F1F1F1" height="33.9688" rx="12.5" ry="12.5" style="stroke:#181818;stroke-width:0.5;" width="83.668" x="103.7436" y="231.2669"/><text fill="#000000" font-family="sans-serif" font-size="12" lengthAdjust="spacing" textLength="63.668" x="113.7436" y="252.4055">completed</text><rect fill="#F1F1F1" height="33.9688" rx="12.5" ry="12.5" style="stroke:#181818;stroke-width:0.5;" width="116.1348" x="250.5136" y="231.2669"/><text fill="#000000" font-family="sans-serif" font-size="12" lengthAdjust="spacing" textLength="96.1348" x="260.5136" y="252.4055">entered-in-error</text><g class="end_entity" data-qualified-name="end" data-source-line="8" id="ent0012"><ellipse cx="145.5836" cy="317.2369" fill="none" rx="11" ry="11" style="stroke:#222222;stroke-width:1.5;"/><ellipse cx="145.5836" cy="317.2369" fill="#222222" rx="6" ry="6" style="stroke:#222222;stroke-width:1;"/></g><!--link start to active--><g class="link" data-entity-1="ent0002" data-entity-2="ent0003" data-link-type="dependency" data-source-line="3" id="lnk4"><path d="M175.5836,63.6669 C175.5836,76.8269 175.5836,94.9669 175.5836,111.0769" fill="none" id="start-to-active" style="stroke:#181818;stroke-width:1;"/><polygon fill="#181818" points="175.5836,117.0769,179.5836,108.0769,175.5836,112.0769,171.5836,108.0769,175.5836,117.0769" style="stroke:#181818;stroke-width:1;"/><text fill="#000000" font-family="sans-serif" font-size="11" lengthAdjust="spacing" textLength="28.2144" x="176.5836" y="94.5073">offen</text></g><!--link active to stopped--><g class="link" data-entity-1="ent0003" data-entity-2="ent0005" data-link-type="dependency" data-source-line="4" id="lnk6"><path d="M146.8536,138.6669 C110.4536,143.6069 50.8236,154.1269 37.5836,171.2669 C24.4236,188.2969 29.2105,208.6607 36.2005,225.3907" fill="none" id="active-to-stopped" style="stroke:#181818;stroke-width:1;"/><polygon fill="#181818" points="38.5136,230.9269,38.7347,221.0805,36.586,226.3134,31.3531,224.1646,38.5136,230.9269" style="stroke:#181818;stroke-width:1;"/><text fill="#000000" font-family="sans-serif" font-size="11" lengthAdjust="spacing" textLength="61.8535" x="46.1138" y="188.9773">abgelaufen</text><text fill="#000000" font-family="sans-serif" font-size="11" lengthAdjust="spacing" textLength="76.9141" x="38.5836" y="201.782">(automatisch)</text></g><!--link active to completed--><g class="link" data-entity-1="ent0003" data-entity-2="ent0007" data-link-type="dependency" data-source-line="5" id="lnk8"><path d="M146.8636,148.7069 C138.0836,154.3569 129.4636,161.8369 124.5836,171.2669 C116.4036,187.0569 119.9436,194.1069 124.5836,211.2669 C126.4336,218.1069 126.7917,219.8814 130.4217,225.7614" fill="none" id="active-to-completed" style="stroke:#181818;stroke-width:1;"/><polygon fill="#181818" points="133.5736,230.8669,132.2495,221.1074,130.947,226.6123,125.4422,225.3099,133.5736,230.8669" style="stroke:#181818;stroke-width:1;"/><text fill="#000000" font-family="sans-serif" font-size="11" lengthAdjust="spacing" textLength="50.3755" x="138.8529" y="188.9773">eingel&#246;st</text><text fill="#000000" font-family="sans-serif" font-size="11" lengthAdjust="spacing" textLength="76.9141" x="125.5836" y="201.782">(automatisch)</text></g><!--link completed to active--><g class="link" data-entity-1="ent0007" data-entity-2="ent0003" data-link-type="dependency" data-source-line="6" id="lnk9"><path d="M184.4836,230.7669 C192.1336,225.6769 199.1436,219.2369 203.5836,211.2669 C212.2236,195.7369 209.3536,188.0869 203.5836,171.2669 C201.1136,164.0769 200.3674,161.867 195.6374,156.097" fill="none" id="completed-to-active" style="stroke:#181818;stroke-width:1;"/><polygon fill="#181818" points="191.8336,151.4569,194.4458,160.953,195.0034,155.3237,200.6327,155.8812,191.8336,151.4569" style="stroke:#181818;stroke-width:1;"/><text fill="#000000" font-family="sans-serif" font-size="11" lengthAdjust="spacing" textLength="76.4683" x="209.8065" y="182.4773">letzte Abgabe</text><text fill="#000000" font-family="sans-serif" font-size="11" lengthAdjust="spacing" textLength="55.6606" x="220.2103" y="195.282">verworfen</text><text fill="#000000" font-family="sans-serif" font-size="11" lengthAdjust="spacing" textLength="76.9141" x="209.5836" y="208.0867">(automatisch)</text></g><!--link active to entered-in-error--><g class="link" data-entity-1="ent0003" data-entity-2="ent0010" data-link-type="dependency" data-source-line="7" id="lnk11"><path d="M204.1336,136.3469 C230.5936,138.9169 269.1336,146.9369 291.5836,171.2669 C306.5236,187.4669 309.2989,207.8369 309.3689,224.8669" fill="none" id="active-to-entered-in-error" style="stroke:#181818;stroke-width:1;"/><polygon fill="#181818" points="309.3936,230.8669,313.3565,221.8505,309.373,225.8669,305.3566,221.8834,309.3936,230.8669" style="stroke:#181818;stroke-width:1;"/><text fill="#000000" font-family="sans-serif" font-size="11" lengthAdjust="spacing" textLength="55.6982" x="308.5836" y="195.4773">verwerfen</text></g><!--link stopped to end--><g class="link" data-entity-1="ent0005" data-entity-2="ent0012" data-link-type="dependency" data-source-line="8" id="lnk13"><path d="M70.7936,265.6369 C92.0936,280.0469 116.9542,296.8645 131.6742,306.8245" fill="none" id="stopped-to-end" style="stroke:#181818;stroke-width:1;"/><polygon fill="#181818" points="136.6436,310.1869,131.4312,301.8304,132.5025,307.3849,126.948,308.4562,136.6436,310.1869" style="stroke:#181818;stroke-width:1;"/></g><!--link entered-in-error to end--><g class="link" data-entity-1="ent0010" data-entity-2="ent0012" data-link-type="dependency" data-source-line="9" id="lnk14"><path d="M268.7036,265.6369 C231.1936,281.0569 183.1537,300.7973 161.1437,309.8373" fill="none" id="entered-in-error-to-end" style="stroke:#181818;stroke-width:1;"/><polygon fill="#181818" points="155.5936,312.1169,165.4384,312.3976,160.2187,310.2172,162.399,304.9975,155.5936,312.1169" style="stroke:#181818;stroke-width:1;"/></g><!--link completed to end--><g class="link" data-entity-1="ent0007" data-entity-2="ent0012" data-link-type="dependency" data-source-line="10" id="lnk15"><path d="M145.5836,265.4669 C145.5836,278.0169 145.5836,289.0069 145.5836,299.8069" fill="none" id="completed-to-end" style="stroke:#181818;stroke-width:1;"/><polygon fill="#181818" points="145.5836,305.8069,149.5836,296.8069,145.5836,300.8069,141.5836,296.8069,145.5836,305.8069" style="stroke:#181818;stroke-width:1;"/></g><?plantuml-src ROz13e8m44NtFKN32apg4KmyW1ktmgAK3pQ1jhPJJ3oO5_1YLZ0aAAkPp7_JlY5DFVW9ZLQIj3Ldt282xGD9Ye7d7Lml3O4VwqxMA1ZBTmKNui0ljcrXAYuLwH5iBdCYwmwzZ2akJIuZsI6z7TIrg7WWwnoQ5Gvj4lzw1lh3bHrS3qeBIpVlfFQnM9LcXBzRl_NXXju7Xf_aaKxpQ8Gs0jvRpxv-4vWkPTalaItHsYXDtW00?></g></svg>