<svg xmlns="http://www.w3.org/2000/svg" xmlns:xlink="http://www.w3.org/1999/xlink" contentStyleType="text/css" data-diagram-type="ACTIVITY" height="469px" preserveAspectRatio="none" style="width:342px;height:469px;background:#FFFFFF;" version="1.1" viewBox="0 0 342 469" width="342px" zoomAndPan="magnify"><?plantuml 1.2026.3beta6?><defs/><g><g class="title" data-source-line="1"><text fill="#000000" font-family="sans-serif" font-size="14" font-weight="700" lengthAdjust="spacing" textLength="111.9248" x="111.9405" y="22.9951">List.entry.flag</text></g><g class="start_entity" data-qualified-name="start" data-source-line="3" id="ent0002"><ellipse cx="109.05" cy="53.2969" fill="#222222" rx="10" ry="10" style="stroke:#222222;stroke-width:1;"/></g><rect fill="#F1F1F1" height="33.9688" rx="12.5" ry="12.5" style="stroke:#181818;stroke-width:0.5;" width="44.8027" x="86.64" y="130.2969"/><text fill="#000000" font-family="sans-serif" font-size="12" lengthAdjust="spacing" textLength="24.8027" x="96.64" y="151.4355">new</text><rect fill="#F1F1F1" height="33.9688" rx="12.5" ry="12.5" style="stroke:#181818;stroke-width:0.5;" width="86.9902" x="65.55" y="244.2669"/><text fill="#000000" font-family="sans-serif" font-size="12" lengthAdjust="spacing" textLength="66.9902" x="75.55" y="265.4055">unchanged</text><rect fill="#F1F1F1" height="33.9688" rx="12.5" ry="12.5" style="stroke:#181818;stroke-width:0.5;" width="71.7793" x="29.16" y="358.2369"/><text fill="#000000" font-family="sans-serif" font-size="12" lengthAdjust="spacing" textLength="51.7793" x="39.16" y="379.3755">changed</text><rect fill="#F1F1F1" height="33.9688" rx="12.5" ry="12.5" style="stroke:#181818;stroke-width:0.5;" width="73.4492" x="233.32" y="358.2369"/><text fill="#000000" font-family="sans-serif" font-size="12" lengthAdjust="spacing" textLength="53.4492" x="243.32" y="379.3755">removed</text><g class="end_entity" data-qualified-name="end" data-source-line="8" id="ent0012"><ellipse cx="270.05" cy="444.2069" fill="none" rx="11" ry="11" style="stroke:#222222;stroke-width:1.5;"/><ellipse cx="270.05" cy="444.2069" fill="#222222" rx="6" ry="6" style="stroke:#222222;stroke-width:1;"/></g><!--link start to new--><g class="link" data-entity-1="ent0002" data-entity-2="ent0003" data-link-type="dependency" data-source-line="3" id="lnk4"><path d="M109.05,63.7969 C109.05,79.4069 109.05,104.6569 109.05,123.8969" fill="none" id="start-to-new" style="stroke:#181818;stroke-width:1;"/><polygon fill="#181818" points="109.05,129.8969,113.05,120.8969,109.05,124.8969,105.05,120.8969,109.05,129.8969" style="stroke:#181818;stroke-width:1;"/><text fill="#000000" font-family="sans-serif" font-size="11" lengthAdjust="spacing" textLength="101.9595" x="110.05" y="94.5073">Neuen Planeintrag</text><text fill="#000000" font-family="sans-serif" font-size="11" lengthAdjust="spacing" textLength="61.311" x="130.3742" y="107.312">hinzuf&#252;gen</text></g><!--link new to unchanged--><g class="link" data-entity-1="ent0003" data-entity-2="ent0005" data-link-type="dependency" data-source-line="4" id="lnk6"><path d="M109.05,164.3269 C109.05,185.4869 109.05,216.5469 109.05,237.8769" fill="none" id="new-to-unchanged" style="stroke:#181818;stroke-width:1;"/><polygon fill="#181818" points="109.05,243.8769,113.05,234.8769,109.05,238.8769,105.05,234.8769,109.05,243.8769" style="stroke:#181818;stroke-width:1;"/><text fill="#000000" font-family="sans-serif" font-size="11" lengthAdjust="spacing" textLength="89.418" x="132.3508" y="195.4773">Automatisch bei</text><text fill="#000000" font-family="sans-serif" font-size="11" lengthAdjust="spacing" textLength="117.4336" x="118.343" y="208.282">Read-to-Write-Zugriff</text><text fill="#000000" font-family="sans-serif" font-size="11" lengthAdjust="spacing" textLength="134.0195" x="110.05" y="221.0867">(durch Fachanwendung)</text></g><!--link changed to unchanged--><g class="link" data-entity-1="ent0007" data-entity-2="ent0005" data-link-type="dependency" data-source-line="5" id="lnk8"><path d="M74.92,358.0969 C78.4,352.0069 82.16,344.9369 85.05,338.2369 C93.64,318.2869 99.1655,300.022 103.3555,284.402" fill="none" id="changed-to-unchanged" style="stroke:#181818;stroke-width:1;"/><polygon fill="#181818" points="104.91,278.6069,98.7148,286.2632,103.6146,283.4361,106.4416,288.3359,104.91,278.6069" style="stroke:#181818;stroke-width:1;"/><text fill="#000000" font-family="sans-serif" font-size="11" lengthAdjust="spacing" textLength="89.418" x="122.3508" y="309.4473">Automatisch bei</text><text fill="#000000" font-family="sans-serif" font-size="11" lengthAdjust="spacing" textLength="117.4336" x="108.343" y="322.252">Read-to-Write-Zugriff</text><text fill="#000000" font-family="sans-serif" font-size="11" lengthAdjust="spacing" textLength="134.0195" x="100.05" y="335.0567">(durch Fachanwendung)</text></g><!--link unchanged to changed--><g class="link" data-entity-1="ent0005" data-entity-2="ent0007" data-link-type="dependency" data-source-line="6" id="lnk9"><path d="M65.25,268.1569 C46.87,273.0369 27.2,281.9569 16.05,298.2369 C6,312.9069 8.02,322.3769 16.05,338.2369 C20,346.0569 21.7426,348.9967 28.7726,354.2467" fill="none" id="unchanged-to-changed" style="stroke:#181818;stroke-width:1;"/><polygon fill="#181818" points="33.58,357.8369,28.7624,349.2467,29.5739,354.8451,23.9755,355.6566,33.58,357.8369" style="stroke:#181818;stroke-width:1;"/><text fill="#000000" font-family="sans-serif" font-size="11" lengthAdjust="spacing" textLength="62.7559" x="17.05" y="315.9473">Planeintrag</text><text fill="#000000" font-family="sans-serif" font-size="11" lengthAdjust="spacing" textLength="38.9565" x="28.9497" y="328.752">&#228;ndern</text></g><!--link unchanged to removed--><g class="link" data-entity-1="ent0005" data-entity-2="ent0010" data-link-type="dependency" data-source-line="7" id="lnk11"><path d="M152.99,264.4769 C180.96,268.0569 216.26,276.8969 240.05,298.2369 C257.36,313.7769 263.7366,334.6819 266.8466,351.9519" fill="none" id="unchanged-to-removed" style="stroke:#181818;stroke-width:1;"/><polygon fill="#181818" points="267.91,357.8569,270.2516,348.2904,267.0238,352.936,262.3782,349.7083,267.91,357.8569" style="stroke:#181818;stroke-width:1;"/><text fill="#000000" font-family="sans-serif" font-size="11" lengthAdjust="spacing" textLength="62.7559" x="264.05" y="315.9473">Planeintrag</text><text fill="#000000" font-family="sans-serif" font-size="11" lengthAdjust="spacing" textLength="53.9258" x="268.465" y="328.752">entfernen</text></g><!--link removed to end--><g class="link" data-entity-1="ent0010" data-entity-2="ent0012" data-link-type="dependency" data-source-line="8" id="lnk13"><path d="M270.05,392.4369 C270.05,404.9869 270.05,415.9769 270.05,426.7769" fill="none" id="removed-to-end" style="stroke:#181818;stroke-width:1;"/><polygon fill="#181818" points="270.05,432.7769,274.05,423.7769,270.05,427.7769,266.05,423.7769,270.05,432.7769" style="stroke:#181818;stroke-width:1;"/></g><?plantuml-src hT2n2i9030RWlK-HiHNEHn1Sd4J4HT1sE7kvwq6RmZLdqUVnCTpwOgQq2AAZGqW27u7yxBb6sFgEbqWSRajRQvSawI83PTGApZkCIB2lDQ4Ne5rEbQTxjCFJ8HL0s2TIe4QyZjmscdrNLd11dzC1jL7SgcFmZEeKNV3MvfIQ68HiT5bfwf5C99SL46dS7Pfaxd---fwcknzF3Gyo6EIX7zXyQSdAYXu32DYqL_5pXubBW2y0?></g></svg>