<svg xmlns="http://www.w3.org/2000/svg" xmlns:xlink="http://www.w3.org/1999/xlink" contentStyleType="text/css" data-diagram-type="ACTIVITY" height="329px" preserveAspectRatio="none" style="width:419px;height:329px;background:#FFFFFF;" version="1.1" viewBox="0 0 419 329" width="419px" zoomAndPan="magnify"><?plantuml 1.2026.3beta6?><defs/><g><g class="title" data-source-line="1"><text fill="#000000" font-family="sans-serif" font-size="14" font-weight="700" lengthAdjust="spacing" textLength="206.6367" x="102.9433" y="22.9951">MedicationRequest.status</text></g><g class="start_entity" data-qualified-name="start" data-source-line="3" id="ent0002"><ellipse cx="244.27" cy="53.2969" fill="#222222" rx="10" ry="10" style="stroke:#222222;stroke-width:1;"/></g><rect fill="#F1F1F1" height="33.9688" rx="12.5" ry="12.5" style="stroke:#181818;stroke-width:0.5;" width="56.4746" x="288.03" y="130.2969"/><text fill="#000000" font-family="sans-serif" font-size="12" lengthAdjust="spacing" textLength="36.4746" x="298.03" y="151.4355">active</text><rect fill="#F1F1F1" height="33.9688" rx="12.5" ry="12.5" style="stroke:#181818;stroke-width:0.5;" width="65.1758" x="146.68" y="130.2969"/><text fill="#000000" font-family="sans-serif" font-size="12" lengthAdjust="spacing" textLength="45.1758" x="156.68" y="151.4355">on-hold</text><rect fill="#F1F1F1" height="33.9688" rx="12.5" ry="12.5" style="stroke:#181818;stroke-width:0.5;" width="116.1348" x="72.2" y="218.2669"/><text fill="#000000" font-family="sans-serif" font-size="12" lengthAdjust="spacing" textLength="96.1348" x="82.2" y="239.4055">entered-in-error</text><rect fill="#F1F1F1" height="33.9688" rx="12.5" ry="12.5" style="stroke:#181818;stroke-width:0.5;" width="68.5332" x="7" y="130.2969"/><text fill="#000000" font-family="sans-serif" font-size="12" lengthAdjust="spacing" textLength="48.5332" x="17" y="151.4355">stopped</text><rect fill="#F1F1F1" height="33.9688" rx="12.5" ry="12.5" style="stroke:#181818;stroke-width:0.5;" width="83.668" x="208.43" y="218.2669"/><text fill="#000000" font-family="sans-serif" font-size="12" lengthAdjust="spacing" textLength="63.668" x="218.43" y="239.4055">completed</text><g class="end_entity" data-qualified-name="end" data-source-line="13" id="ent0021"><ellipse cx="130.27" cy="304.2369" fill="none" rx="11" ry="11" style="stroke:#222222;stroke-width:1.5;"/><ellipse cx="130.27" cy="304.2369" fill="#222222" rx="6" ry="6" style="stroke:#222222;stroke-width:1;"/></g><!--link start to active--><g class="link" data-entity-1="ent0002" data-entity-2="ent0003" data-link-type="dependency" data-source-line="3" id="lnk4"><path d="M253.35,58.1669 C263.34,62.8169 279.31,71.5169 289.27,83.2969 C300.79,96.9269 306.3671,110.4566 310.4271,124.0866" fill="none" id="start-to-active" style="stroke:#181818;stroke-width:1;"/><polygon fill="#181818" points="312.14,129.8369,313.4043,120.0695,310.7126,125.0449,305.7372,122.3533,312.14,129.8369" style="stroke:#181818;stroke-width:1;"/><text fill="#000000" font-family="sans-serif" font-size="11" lengthAdjust="spacing" textLength="98.2534" x="305.27" y="101.0073">neuer Planeintrag</text></g><!--link start to on-hold--><g class="link" data-entity-1="ent0002" data-entity-2="ent0005" data-link-type="dependency" data-source-line="4" id="lnk6"><path d="M234.55,56.4269 C221.71,59.7769 199.42,67.5869 188.27,83.2969 C178.61,96.8969 176.9996,110.3706 177.4796,124.0506" fill="none" id="start-to-on-hold" style="stroke:#181818;stroke-width:1;"/><polygon fill="#181818" points="177.69,130.0469,181.3719,120.9121,177.5147,125.05,173.3769,121.1927,177.69,130.0469" style="stroke:#181818;stroke-width:1;"/><text fill="#000000" font-family="sans-serif" font-size="11" lengthAdjust="spacing" textLength="98.2534" x="189.27" y="94.5073">neuer Planeintrag</text><text fill="#000000" font-family="sans-serif" font-size="11" lengthAdjust="spacing" textLength="45.085" x="215.8542" y="107.312">pausiert</text></g><!--link on-hold to active--><g class="link" data-entity-1="ent0005" data-entity-2="ent0003" data-link-type="dependency" data-source-line="5" id="lnk7"><path d="M212.08,147.2869 C235.2,147.2869 259.83,147.2869 281.89,147.2869" fill="none" id="on-hold-to-active" style="stroke:#181818;stroke-width:1;"/><polygon fill="#181818" points="287.89,147.2869,278.89,143.2869,282.89,147.2869,278.89,151.2869,287.89,147.2869" style="stroke:#181818;stroke-width:1;"/><text fill="#000000" font-family="sans-serif" font-size="11" lengthAdjust="spacing" textLength="55.0752" x="222.44" y="141.4973">aktivieren</text></g><!--reverse link on-hold to active--><g class="link" data-entity-1="ent0005" data-entity-2="ent0003" data-link-type="dependency" data-source-line="11" id="lnk19"><path d="M217.709,163.5196 C221.019,164.5496 218.65,163.6569 221.94,164.2869 C246.39,168.9769 253.59,169.4369 277.94,164.2869 C281.22,163.5869 284.55,162.5969 287.82,161.4369" fill="none" id="on-hold-backto-active" style="stroke:#181818;stroke-width:1;"/><polygon fill="#181818" points="211.98,161.7369,219.385,168.2304,216.7542,163.2225,221.762,160.5916,211.98,161.7369" style="stroke:#181818;stroke-width:1;"/><text fill="#000000" font-family="sans-serif" font-size="11" lengthAdjust="spacing" textLength="54.5112" x="222.94" y="161.4973">pausieren</text></g><!--link on-hold to entered-in-error--><g class="link" data-entity-1="ent0005" data-entity-2="ent0008" data-link-type="dependency" data-source-line="6" id="lnk9"><path d="M146.5,157.9969 C133.81,163.5469 120.6,171.9269 113.27,184.2669 C107,194.8269 108.8534,202.8877 114.9934,213.0777" fill="none" id="on-hold-to-entered-in-error" style="stroke:#181818;stroke-width:1;"/><polygon fill="#181818" points="118.09,218.2169,116.8712,208.4437,115.5095,213.9342,110.019,212.5725,118.09,218.2169" style="stroke:#181818;stroke-width:1;"/><text fill="#000000" font-family="sans-serif" font-size="11" lengthAdjust="spacing" textLength="56.3535" x="114.27" y="195.4773">stornieren</text></g><!--reverse link stopped to on-hold--><g class="link" data-entity-1="ent0010" data-entity-2="ent0005" data-link-type="dependency" data-source-line="7" id="lnk12"><path d="M81.73,147.2869 C103.29,147.2869 124.9,147.2869 146.19,147.2869" fill="none" id="stopped-backto-on-hold" style="stroke:#181818;stroke-width:1;"/><polygon fill="#181818" points="75.73,147.2869,84.73,151.2869,80.73,147.2869,84.73,143.2869,75.73,147.2869" style="stroke:#181818;stroke-width:1;"/><text fill="#000000" font-family="sans-serif" font-size="11" lengthAdjust="spacing" textLength="50.0479" x="86.11" y="141.4973">absetzen</text></g><!--link on-hold to completed--><g class="link" data-entity-1="ent0005" data-entity-2="ent0013" data-link-type="dependency" data-source-line="8" id="lnk14"><path d="M181.96,164.4169 C184.35,174.8969 188.67,188.3869 196.27,198.2669 C202.17,205.9469 205.202,209.2073 213.272,214.5673" fill="none" id="on-hold-to-completed" style="stroke:#181818;stroke-width:1;"/><polygon fill="#181818" points="218.27,217.8869,212.9861,209.5754,214.105,215.1205,208.5599,216.2395,218.27,217.8869" style="stroke:#181818;stroke-width:1;"/><text fill="#000000" font-family="sans-serif" font-size="11" lengthAdjust="spacing" textLength="48.2109" x="197.27" y="195.4773">beenden</text></g><!--reverse link stopped to active--><g class="link" data-entity-1="ent0010" data-entity-2="ent0003" data-link-type="dependency" data-source-line="9" id="lnk16"><path d="M57.1196,125.4709 C66.3096,114.0409 76.31,104.6469 92.27,98.2169 C127.72,83.9269 235.99,118.6769 287.91,136.9369" fill="none" id="stopped-backto-active" style="stroke:#181818;stroke-width:1;"/><polygon fill="#181818" points="53.36,130.1469,62.1168,125.6393,56.493,126.2502,55.8821,120.6264,53.36,130.1469" style="stroke:#181818;stroke-width:1;"/><text fill="#000000" font-family="sans-serif" font-size="11" lengthAdjust="spacing" textLength="50.0479" x="93.27" y="101.0073">absetzen</text></g><!--link active to completed--><g class="link" data-entity-1="ent0003" data-entity-2="ent0013" data-link-type="dependency" data-source-line="10" id="lnk17"><path d="M327.24,164.6069 C332.68,174.9069 336.82,188.1269 330.27,198.2669 C321.67,211.5669 312.4843,217.9343 297.9243,223.2643" fill="none" id="active-to-completed" style="stroke:#181818;stroke-width:1;"/><polygon fill="#181818" points="292.29,225.3269,302.1166,225.9892,296.9853,223.6081,299.3665,218.4768,292.29,225.3269" style="stroke:#181818;stroke-width:1;"/><text fill="#000000" font-family="sans-serif" font-size="11" lengthAdjust="spacing" textLength="48.2109" x="334.27" y="195.4773">beenden</text></g><!--link active to entered-in-error--><g class="link" data-entity-1="ent0003" data-entity-2="ent0008" data-link-type="dependency" data-source-line="12" id="lnk20"><path d="M294.09,164.6169 C274.91,178.6969 249.85,196.9769 247.27,198.2669 C228.91,207.4169 213.5281,213.1002 194.3081,218.7302" fill="none" id="active-to-entered-in-error" style="stroke:#181818;stroke-width:1;"/><polygon fill="#181818" points="188.55,220.4169,198.3115,221.7256,193.3484,219.0113,196.0626,214.0482,188.55,220.4169" style="stroke:#181818;stroke-width:1;"/><text fill="#000000" font-family="sans-serif" font-size="11" lengthAdjust="spacing" textLength="56.3535" x="266.27" y="195.4773">stornieren</text></g><!--link stopped to end--><g class="link" data-entity-1="ent0010" data-entity-2="ent0021" data-link-type="dependency" data-source-line="13" id="lnk22"><path d="M41.08,164.7369 C41.57,186.4169 45.06,224.9969 62.27,252.2369 C76.69,275.0669 99.8529,288.675 114.9629,296.085" fill="none" id="stopped-to-end" style="stroke:#181818;stroke-width:1;"/><polygon fill="#181818" points="120.35,298.7269,114.0306,291.1727,115.8608,296.5253,110.5081,298.3555,120.35,298.7269" style="stroke:#181818;stroke-width:1;"/></g><!--link entered-in-error to end--><g class="link" data-entity-1="ent0008" data-entity-2="ent0021" data-link-type="dependency" data-source-line="14" id="lnk23"><path d="M130.27,252.4669 C130.27,265.0169 130.27,276.0069 130.27,286.8069" fill="none" id="entered-in-error-to-end" style="stroke:#181818;stroke-width:1;"/><polygon fill="#181818" points="130.27,292.8069,134.27,283.8069,130.27,287.8069,126.27,283.8069,130.27,292.8069" style="stroke:#181818;stroke-width:1;"/></g><!--link completed to end--><g class="link" data-entity-1="ent0013" data-entity-2="ent0021" data-link-type="dependency" data-source-line="15" id="lnk24"><path d="M220.91,252.6369 C194.41,267.4369 162.2292,285.3927 144.9392,295.0427" fill="none" id="completed-to-end" style="stroke:#181818;stroke-width:1;"/><polygon fill="#181818" points="139.7,297.9669,149.5083,297.0735,144.066,295.5301,145.6094,290.0878,139.7,297.9669" style="stroke:#181818;stroke-width:1;"/></g><?plantuml-src ZP193i8m34NtFONL5I258t039CGMM8Jc2oA2KnoN1QSdBIs36CJEYjz_jgDU0sWEvokhFl8IfmP9fqcjDgaeHfCn6MTcj68q45e4o_2iOdSRifNwCtunQwvjapn4DrH6DliON5dSApBInkmXUp847fpqp7Jgf56uPqgmviePpmOYKLwKeLDk4_JImZbOrt1lmYt0hWMgUAm3D2Fzx6-6eIsVuqIlWlxoRk7xwGFnpqtzt1kSFxbuPnwznnh3qnK0?></g></svg>