<svg xmlns="http://www.w3.org/2000/svg" xmlns:xlink="http://www.w3.org/1999/xlink" contentStyleType="text/css" data-diagram-type="ACTIVITY" height="316px" preserveAspectRatio="none" style="width:385px;height:316px;background:#FFFFFF;" version="1.1" viewBox="0 0 385 316" width="385px" zoomAndPan="magnify"><?plantuml 1.2026.3beta6?><defs/><g><g class="title" data-source-line="1"><text fill="#000000" font-family="sans-serif" font-size="14" font-weight="700" lengthAdjust="spacing" textLength="358.9619" x="10" y="22.9951">MedicationRequest.status (geplante Abgabe)</text></g><g class="start_entity" data-qualified-name="start" data-source-line="3" id="ent0002"><ellipse cx="165.5836" cy="53.2969" fill="#222222" rx="10" ry="10" style="stroke:#222222;stroke-width:1;"/></g><rect fill="#F1F1F1" height="33.9688" rx="12.5" ry="12.5" style="stroke:#181818;stroke-width:0.5;" width="56.4746" x="137.3436" y="117.2969"/><text fill="#000000" font-family="sans-serif" font-size="12" lengthAdjust="spacing" textLength="36.4746" x="147.3436" y="138.4355">active</text><rect fill="#F1F1F1" height="33.9688" rx="12.5" ry="12.5" style="stroke:#181818;stroke-width:0.5;" width="68.5332" x="35.3136" y="205.2669"/><text fill="#000000" font-family="sans-serif" font-size="12" lengthAdjust="spacing" textLength="48.5332" x="45.3136" y="226.4055">stopped</text><rect fill="#F1F1F1" height="33.9688" rx="12.5" ry="12.5" style="stroke:#181818;stroke-width:0.5;" width="83.668" x="123.7436" y="205.2669"/><text fill="#000000" font-family="sans-serif" font-size="12" lengthAdjust="spacing" textLength="63.668" x="133.7436" y="226.4055">completed</text><rect fill="#F1F1F1" height="33.9688" rx="12.5" ry="12.5" style="stroke:#181818;stroke-width:0.5;" width="116.1348" x="227.5136" y="205.2669"/><text fill="#000000" font-family="sans-serif" font-size="12" lengthAdjust="spacing" textLength="96.1348" x="237.5136" y="226.4055">entered-in-error</text><g class="end_entity" data-qualified-name="end" data-source-line="7" id="ent0011"><ellipse cx="165.5836" cy="291.2369" fill="none" rx="11" ry="11" style="stroke:#222222;stroke-width:1.5;"/><ellipse cx="165.5836" cy="291.2369" fill="#222222" rx="6" ry="6" style="stroke:#222222;stroke-width:1;"/></g><!--link start to active--><g class="link" data-entity-1="ent0002" data-entity-2="ent0003" data-link-type="dependency" data-source-line="3" id="lnk4"><path d="M165.5836,63.6669 C165.5836,76.8269 165.5836,94.9669 165.5836,111.0769" fill="none" id="start-to-active" style="stroke:#181818;stroke-width:1;"/><polygon fill="#181818" points="165.5836,117.0769,169.5836,108.0769,165.5836,112.0769,161.5836,108.0769,165.5836,117.0769" style="stroke:#181818;stroke-width:1;"/><text fill="#000000" font-family="sans-serif" font-size="11" lengthAdjust="spacing" textLength="132.5371" x="166.5836" y="94.5073">offene geplante Abgabe</text></g><!--link active to stopped--><g class="link" data-entity-1="ent0003" data-entity-2="ent0005" data-link-type="dependency" data-source-line="4" id="lnk6"><path d="M140.0936,151.6069 C131.6636,157.4369 122.4436,164.2869 114.5836,171.2669 C102.8836,181.6569 94.9592,190.2697 86.3792,200.4997" fill="none" id="active-to-stopped" style="stroke:#181818;stroke-width:1;"/><polygon fill="#181818" points="82.5236,205.0969,91.3719,200.7716,85.7366,201.2659,85.2423,195.6307,82.5236,205.0969" style="stroke:#181818;stroke-width:1;"/><text fill="#000000" font-family="sans-serif" font-size="11" lengthAdjust="spacing" textLength="44.478" x="115.5836" y="182.4773">stoppen</text></g><!--link active to completed--><g class="link" data-entity-1="ent0003" data-entity-2="ent0007" data-link-type="dependency" data-source-line="5" id="lnk8"><path d="M165.5836,151.4569 C165.5836,166.7269 165.5836,183.5169 165.5836,198.8669" fill="none" id="active-to-completed" style="stroke:#181818;stroke-width:1;"/><polygon fill="#181818" points="165.5836,204.8669,169.5836,195.8669,165.5836,199.8669,161.5836,195.8669,165.5836,204.8669" style="stroke:#181818;stroke-width:1;"/><text fill="#000000" font-family="sans-serif" font-size="11" lengthAdjust="spacing" textLength="66.0215" x="166.5836" y="182.4773">abschlie&#223;en</text></g><!--link active to entered-in-error--><g class="link" data-entity-1="ent0003" data-entity-2="ent0009" data-link-type="dependency" data-source-line="6" id="lnk10"><path d="M194.3136,146.5769 C208.3436,152.7869 225.0636,161.2669 238.5836,171.2669 C251.6036,180.9069 260.2077,189.8015 269.0177,200.3515" fill="none" id="active-to-entered-in-error" style="stroke:#181818;stroke-width:1;"/><polygon fill="#181818" points="272.8636,204.9569,270.1651,195.4849,269.6587,201.1191,264.0246,200.6127,272.8636,204.9569" style="stroke:#181818;stroke-width:1;"/><text fill="#000000" font-family="sans-serif" font-size="11" lengthAdjust="spacing" textLength="56.3535" x="254.5836" y="182.4773">stornieren</text></g><!--link stopped to end--><g class="link" data-entity-1="ent0005" data-entity-2="ent0011" data-link-type="dependency" data-source-line="7" id="lnk12"><path d="M92.8236,239.4669 C113.4636,253.8669 137.5926,270.7142 151.9426,280.7242" fill="none" id="stopped-to-end" style="stroke:#181818;stroke-width:1;"/><polygon fill="#181818" points="156.8636,284.1569,151.7705,275.7271,152.7627,281.2963,147.1936,282.2885,156.8636,284.1569" style="stroke:#181818;stroke-width:1;"/></g><!--link entered-in-error to end--><g class="link" data-entity-1="ent0009" data-entity-2="ent0011" data-link-type="dependency" data-source-line="8" id="lnk13"><path d="M256.2236,239.6369 C229.7236,254.4369 197.5428,272.3927 180.2528,282.0427" fill="none" id="entered-in-error-to-end" style="stroke:#181818;stroke-width:1;"/><polygon fill="#181818" points="175.0136,284.9669,184.8218,284.0735,179.3796,282.5301,180.923,277.0878,175.0136,284.9669" style="stroke:#181818;stroke-width:1;"/></g><!--link completed to end--><g class="link" data-entity-1="ent0007" data-entity-2="ent0011" data-link-type="dependency" data-source-line="9" id="lnk14"><path d="M165.5836,239.4669 C165.5836,252.0169 165.5836,263.0069 165.5836,273.8069" fill="none" id="completed-to-end" style="stroke:#181818;stroke-width:1;"/><polygon fill="#181818" points="165.5836,279.8069,169.5836,270.8069,165.5836,274.8069,161.5836,270.8069,165.5836,279.8069" style="stroke:#181818;stroke-width:1;"/></g><?plantuml-src POun3i8m40Hxl-94bI2P9o3n01fQbCAnD-4aOnlxmdTu31yZ8H68KErfTxHxmk91HpYsHZY64su3YkoA61aALJsIDq50XxOtBMgbgcrDMk_f7BiE0RGY6Z9M-0uroumMYIaXD3GVxYSqRR4NptW-9iB6Q_8GEA9rHGwCF34RZ7iPJdFGo3dcZLgAt-pueVf7Fj5tON5U?></g></svg>