<svg xmlns="http://www.w3.org/2000/svg" xmlns:xlink="http://www.w3.org/1999/xlink" contentStyleType="text/css" data-diagram-type="ACTIVITY" height="329px" preserveAspectRatio="none" style="width:397px;height:329px;background:#FFFFFF;" version="1.1" viewBox="0 0 397 329" width="397px" zoomAndPan="magnify"><?plantuml 1.2026.4beta2?><defs/><g><g class="title" data-source-line="1"><text fill="#000000" font-family="sans-serif" font-size="14" font-weight="700" lengthAdjust="spacing" textLength="358.9619" x="15.6772" y="22.9951">MedicationRequest.status (geplante Abgabe)</text></g><g class="start_entity" data-qualified-name="start" data-source-line="3" id="ent0002"><ellipse cx="176.27" cy="53.2969" fill="#222222" rx="10" ry="10" style="stroke:#222222;stroke-width:1;"/></g><rect fill="#F1F1F1" height="33.9688" rx="12.5" ry="12.5" style="stroke:#181818;stroke-width:0.5;" width="56.4746" x="148.03" y="117.2969"/><text fill="#000000" font-family="sans-serif" font-size="12" lengthAdjust="spacing" textLength="36.4746" x="158.03" y="138.4355">active</text><rect fill="#F1F1F1" height="33.9688" rx="12.5" ry="12.5" style="stroke:#181818;stroke-width:0.5;" width="68.5332" x="7" y="218.2669"/><text fill="#000000" font-family="sans-serif" font-size="12" lengthAdjust="spacing" textLength="48.5332" x="17" y="239.4055">stopped</text><rect fill="#F1F1F1" height="33.9688" rx="12.5" ry="12.5" style="stroke:#181818;stroke-width:0.5;" width="83.668" x="134.43" y="218.2669"/><text fill="#000000" font-family="sans-serif" font-size="12" lengthAdjust="spacing" textLength="63.668" x="144.43" y="239.4055">completed</text><rect fill="#F1F1F1" height="33.9688" rx="12.5" ry="12.5" style="stroke:#181818;stroke-width:0.5;" width="116.1348" x="259.2" y="218.2669"/><text fill="#000000" font-family="sans-serif" font-size="12" lengthAdjust="spacing" textLength="96.1348" x="269.2" y="239.4055">entered-in-error</text><g class="end_entity" data-qualified-name="end" data-source-line="7" id="ent0011"><ellipse cx="176.27" cy="304.2369" fill="none" rx="11" ry="11" style="stroke:#222222;stroke-width:1.5;"/><ellipse cx="176.27" cy="304.2369" fill="#222222" rx="6" ry="6" style="stroke:#222222;stroke-width:1;"/></g><!--link start to active--><g class="link" data-entity-1="ent0002" data-entity-2="ent0003" data-link-type="dependency" data-source-line="3" id="lnk4"><path d="M176.27,63.6669 C176.27,76.8269 176.27,94.9669 176.27,111.0769" fill="none" id="start-to-active" style="stroke:#181818;stroke-width:1;"/><polygon fill="#181818" points="176.27,117.0769,180.27,108.0769,176.27,112.0769,172.27,108.0769,176.27,117.0769" style="stroke:#181818;stroke-width:1;"/><text fill="#000000" font-family="sans-serif" font-size="11" lengthAdjust="spacing" textLength="38.3335" x="177.27" y="94.5073">"offen"</text></g><!--link active to stopped--><g class="link" data-entity-1="ent0003" data-entity-2="ent0005" data-link-type="dependency" data-source-line="4" id="lnk6"><path d="M147.82,137.7369 C107.47,141.8669 36.78,151.7469 21.27,171.2669 C10.49,184.8369 16.0702,199.309 25.1702,213.009" fill="none" id="active-to-stopped" style="stroke:#181818;stroke-width:1;"/><polygon fill="#181818" points="28.49,218.0069,26.8423,208.2968,25.7235,213.842,20.1784,212.7232,28.49,218.0069" style="stroke:#181818;stroke-width:1;"/><text fill="#000000" font-family="sans-serif" font-size="11" lengthAdjust="spacing" textLength="148.0918" x="22.27" y="182.4773">"abgelaufen" (automatisch</text><text fill="#000000" font-family="sans-serif" font-size="11" lengthAdjust="spacing" textLength="129.728" x="31.4519" y="195.282">durch Fachanwendung)</text></g><!--link active to completed--><g class="link" data-entity-1="ent0003" data-entity-2="ent0007" data-link-type="dependency" data-source-line="5" id="lnk8"><path d="M176.27,151.6269 C176.27,169.9669 176.27,193.5369 176.27,211.8869" fill="none" id="active-to-completed" style="stroke:#181818;stroke-width:1;"/><polygon fill="#181818" points="176.27,217.8869,180.27,208.8869,176.27,212.8869,172.27,208.8869,176.27,217.8869" style="stroke:#181818;stroke-width:1;"/><text fill="#000000" font-family="sans-serif" font-size="11" lengthAdjust="spacing" textLength="136.6138" x="177.27" y="182.4773">"eingel&#246;st" (automatisch</text><text fill="#000000" font-family="sans-serif" font-size="11" lengthAdjust="spacing" textLength="129.728" x="180.7129" y="195.282">durch Fachanwendung)</text></g><!--link active to entered-in-error--><g class="link" data-entity-1="ent0003" data-entity-2="ent0009" data-link-type="dependency" data-source-line="6" id="lnk10"><path d="M204.8,138.6569 C241.35,143.6169 301.6,154.1869 315.27,171.2669 C325.65,184.2569 325.5607,198.1382 322.8407,212.0582" fill="none" id="active-to-entered-in-error" style="stroke:#181818;stroke-width:1;"/><polygon fill="#181818" points="321.69,217.9469,327.3417,209.881,322.6489,213.0397,319.4902,208.3468,321.69,217.9469" style="stroke:#181818;stroke-width:1;"/><text fill="#000000" font-family="sans-serif" font-size="11" lengthAdjust="spacing" textLength="57.0464" x="324.27" y="188.9773">"storniert"</text></g><!--link stopped to end--><g class="link" data-entity-1="ent0005" data-entity-2="ent0011" data-link-type="dependency" data-source-line="7" id="lnk12"><path d="M74.29,252.6369 C104.58,267.6669 142.145,286.3106 161.175,295.7506" fill="none" id="stopped-to-end" style="stroke:#181818;stroke-width:1;"/><polygon fill="#181818" points="166.55,298.4169,160.265,290.8341,162.0708,296.1949,156.7099,298.0007,166.55,298.4169" style="stroke:#181818;stroke-width:1;"/></g><!--link entered-in-error to end--><g class="link" data-entity-1="ent0009" data-entity-2="ent0011" data-link-type="dependency" data-source-line="8" id="lnk13"><path d="M282.77,252.6369 C250.98,267.7469 211.2399,286.623 191.5299,295.983" fill="none" id="entered-in-error-to-end" style="stroke:#181818;stroke-width:1;"/><polygon fill="#181818" points="186.11,298.5569,195.9557,298.3094,190.6266,296.412,192.524,291.0829,186.11,298.5569" style="stroke:#181818;stroke-width:1;"/></g><!--link completed to end--><g class="link" data-entity-1="ent0007" data-entity-2="ent0011" data-link-type="dependency" data-source-line="9" id="lnk14"><path d="M176.27,252.4669 C176.27,265.0169 176.27,276.0069 176.27,286.8069" fill="none" id="completed-to-end" style="stroke:#181818;stroke-width:1;"/><polygon fill="#181818" points="176.27,292.8069,180.27,283.8069,176.27,287.8069,172.27,283.8069,176.27,292.8069" style="stroke:#181818;stroke-width:1;"/></g><?plantuml-src ZOyz3i8m38NtdCBgr2AL8o2niB6mGWStVRIHYbCI1sx61RWOuLU2YScotzFdzzJf25gZSvRLUTdWc11r7fKrHIfxJ2EBWfPjpoqgOyfPHNMze6tXztj8qH1RTIUOvtXftFOOETqDL79IVyZuQ8UTT2dOWLPi1vOpyYfzrL1KFqtelY5maYdNIzJ_8DOVfX7wYydi80v1SrRaBW5TxQH623wOr-E7DLSpnQ-Z-4WV_Fjo0m00?></g></svg>