<svg xmlns="http://www.w3.org/2000/svg" xmlns:xlink="http://www.w3.org/1999/xlink" contentStyleType="text/css" data-diagram-type="ACTIVITY" height="228px" preserveAspectRatio="none" style="width:437px;height:228px;background:#FFFFFF;" version="1.1" viewBox="0 0 437 228" width="437px" zoomAndPan="magnify"><?plantuml 1.2026.3beta6?><defs/><g><g class="title" data-source-line="1"><text fill="#000000" font-family="sans-serif" font-size="14" font-weight="700" lengthAdjust="spacing" textLength="410.0947" x="10" y="22.9951">MedicationDispense.status (durchgef&#252;hrte Abgabe)</text></g><g class="start_entity" data-qualified-name="start" data-source-line="3" id="ent0002"><ellipse cx="191.15" cy="53.2969" fill="#222222" rx="10" ry="10" style="stroke:#222222;stroke-width:1;"/></g><rect fill="#F1F1F1" height="33.9688" rx="12.5" ry="12.5" style="stroke:#181818;stroke-width:0.5;" width="68.5332" x="60.88" y="117.2969"/><text fill="#000000" font-family="sans-serif" font-size="12" lengthAdjust="spacing" textLength="48.5332" x="70.88" y="138.4355">stopped</text><rect fill="#F1F1F1" height="33.9688" rx="12.5" ry="12.5" style="stroke:#181818;stroke-width:0.5;" width="83.668" x="149.31" y="117.2969"/><text fill="#000000" font-family="sans-serif" font-size="12" lengthAdjust="spacing" textLength="63.668" x="159.31" y="138.4355">completed</text><rect fill="#F1F1F1" height="33.9688" rx="12.5" ry="12.5" style="stroke:#181818;stroke-width:0.5;" width="116.1348" x="253.08" y="117.2969"/><text fill="#000000" font-family="sans-serif" font-size="12" lengthAdjust="spacing" textLength="96.1348" x="263.08" y="138.4355">entered-in-error</text><g class="end_entity" data-qualified-name="end" data-source-line="6" id="ent0009"><ellipse cx="191.15" cy="203.2669" fill="none" rx="11" ry="11" style="stroke:#222222;stroke-width:1.5;"/><ellipse cx="191.15" cy="203.2669" fill="#222222" rx="6" ry="6" style="stroke:#222222;stroke-width:1;"/></g><!--link start to stopped--><g class="link" data-entity-1="ent0002" data-entity-2="ent0003" data-link-type="dependency" data-source-line="3" id="lnk4"><path d="M181.62,57.1169 C168.83,61.2669 145.91,69.9769 130.15,83.2969 C118.98,92.7369 112.6881,101.3354 106.4881,112.0354" fill="none" id="start-to-stopped" style="stroke:#181818;stroke-width:1;"/><polygon fill="#181818" points="103.48,117.2269,111.4531,111.4451,105.9868,112.9007,104.5312,107.4343,103.48,117.2269" style="stroke:#181818;stroke-width:1;"/><text fill="#000000" font-family="sans-serif" font-size="11" lengthAdjust="spacing" textLength="54.3716" x="131.15" y="94.5073">abgesetzt</text></g><!--link start to completed--><g class="link" data-entity-1="ent0002" data-entity-2="ent0005" data-link-type="dependency" data-source-line="4" id="lnk6"><path d="M191.15,63.6669 C191.15,76.8269 191.15,94.9669 191.15,111.0769" fill="none" id="start-to-completed" style="stroke:#181818;stroke-width:1;"/><polygon fill="#181818" points="191.15,117.0769,195.15,108.0769,191.15,112.0769,187.15,108.0769,191.15,117.0769" style="stroke:#181818;stroke-width:1;"/><text fill="#000000" font-family="sans-serif" font-size="11" lengthAdjust="spacing" textLength="61.9448" x="192.15" y="94.5073">abgegeben</text></g><!--link start to entered-in-error--><g class="link" data-entity-1="ent0002" data-entity-2="ent0007" data-link-type="dependency" data-source-line="5" id="lnk8"><path d="M200.47,57.0769 C214.09,61.3969 239.88,70.5569 259.15,83.2969 C273.35,92.6969 283.0689,101.8093 292.8689,112.4193" fill="none" id="start-to-entered-in-error" style="stroke:#181818;stroke-width:1;"/><polygon fill="#181818" points="296.94,116.8269,293.7718,107.5015,293.5474,113.1539,287.895,112.9296,296.94,116.8269" style="stroke:#181818;stroke-width:1;"/><text fill="#000000" font-family="sans-serif" font-size="11" lengthAdjust="spacing" textLength="46.9272" x="277.15" y="94.5073">storniert</text></g><!--link stopped to end--><g class="link" data-entity-1="ent0003" data-entity-2="ent0009" data-link-type="dependency" data-source-line="6" id="lnk10"><path d="M118.39,151.4969 C139.03,165.8969 163.159,182.7442 177.509,192.7542" fill="none" id="stopped-to-end" style="stroke:#181818;stroke-width:1;"/><polygon fill="#181818" points="182.43,196.1869,177.3369,187.7571,178.3291,193.3263,172.76,194.3185,182.43,196.1869" style="stroke:#181818;stroke-width:1;"/></g><!--link completed to end--><g class="link" data-entity-1="ent0005" data-entity-2="ent0009" data-link-type="dependency" data-source-line="7" id="lnk11"><path d="M191.15,151.4969 C191.15,164.0469 191.15,175.0369 191.15,185.8369" fill="none" id="completed-to-end" style="stroke:#181818;stroke-width:1;"/><polygon fill="#181818" points="191.15,191.8369,195.15,182.8369,191.15,186.8369,187.15,182.8369,191.15,191.8369" style="stroke:#181818;stroke-width:1;"/></g><!--link entered-in-error to end--><g class="link" data-entity-1="ent0007" data-entity-2="ent0009" data-link-type="dependency" data-source-line="8" id="lnk12"><path d="M281.79,151.6669 C255.29,166.4669 223.1092,184.4227 205.8192,194.0727" fill="none" id="entered-in-error-to-end" style="stroke:#181818;stroke-width:1;"/><polygon fill="#181818" points="200.58,196.9969,210.3882,196.1035,204.946,194.5601,206.4894,189.1178,200.58,196.9969" style="stroke:#181818;stroke-width:1;"/></g><?plantuml-src POnB2i8m54NdMSMZerQ8In04fwv0EiZdcWPg4bvU9rsRCpTc44iHf_VSSoJA3Bh2HsSavdI9jI1L7AiOMIhrVc4t1TnVpua5TBR1M0nAzOU1j3xHpTY02bbbf2gv5FXV5c2HHdBvKMO8FD7Ecy0fWflR8GaONiUamPovKz_SvzeKjIUsvL_Qq1i0?></g></svg>