<svg xmlns="http://www.w3.org/2000/svg" xmlns:xlink="http://www.w3.org/1999/xlink" contentStyleType="text/css" data-diagram-type="ACTIVITY" height="342px" preserveAspectRatio="none" style="width:417px;height:342px;background:#FFFFFF;" version="1.1" viewBox="0 0 417 342" width="417px" zoomAndPan="magnify"><?plantuml 1.2026.4beta2?><defs/><g><g class="title" data-source-line="1"><text fill="#000000" font-family="sans-serif" font-size="14" font-weight="700" lengthAdjust="spacing" textLength="358.9619" x="25.7114" y="22.9951">MedicationRequest.status (geplante Abgabe)</text></g><g class="start_entity" data-qualified-name="start" data-source-line="3" id="ent0002"><ellipse cx="204.32" cy="53.2969" fill="#222222" rx="10" ry="10" style="stroke:#222222;stroke-width:1;"/></g><rect fill="#F1F1F1" height="33.9688" rx="12.5" ry="12.5" style="stroke:#181818;stroke-width:0.5;" width="56.4746" x="176.08" y="117.2969"/><text fill="#000000" font-family="sans-serif" font-size="12" lengthAdjust="spacing" textLength="36.4746" x="186.08" y="138.4355">active</text><rect fill="#F1F1F1" height="33.9688" rx="12.5" ry="12.5" style="stroke:#181818;stroke-width:0.5;" width="68.5332" x="19.05" y="231.2669"/><text fill="#000000" font-family="sans-serif" font-size="12" lengthAdjust="spacing" textLength="48.5332" x="29.05" y="252.4055">stopped</text><rect fill="#F1F1F1" height="33.9688" rx="12.5" ry="12.5" style="stroke:#181818;stroke-width:0.5;" width="83.668" x="162.49" y="231.2669"/><text fill="#000000" font-family="sans-serif" font-size="12" lengthAdjust="spacing" textLength="63.668" x="172.49" y="252.4055">completed</text><rect fill="#F1F1F1" height="33.9688" rx="12.5" ry="12.5" style="stroke:#181818;stroke-width:0.5;" width="116.1348" x="287.25" y="231.2669"/><text fill="#000000" font-family="sans-serif" font-size="12" lengthAdjust="spacing" textLength="96.1348" x="297.25" y="252.4055">entered-in-error</text><g class="end_entity" data-qualified-name="end" data-source-line="7" id="ent0011"><ellipse cx="204.32" cy="317.2369" fill="none" rx="11" ry="11" style="stroke:#222222;stroke-width:1.5;"/><ellipse cx="204.32" cy="317.2369" fill="#222222" rx="6" ry="6" style="stroke:#222222;stroke-width:1;"/></g><!--link start to active--><g class="link" data-entity-1="ent0002" data-entity-2="ent0003" data-link-type="dependency" data-source-line="3" id="lnk4"><path d="M204.32,63.6669 C204.32,76.8269 204.32,94.9669 204.32,111.0769" fill="none" id="start-to-active" style="stroke:#181818;stroke-width:1;"/><polygon fill="#181818" points="204.32,117.0769,208.32,108.0769,204.32,112.0769,200.32,108.0769,204.32,117.0769" style="stroke:#181818;stroke-width:1;"/><text fill="#000000" font-family="sans-serif" font-size="11" lengthAdjust="spacing" textLength="28.2144" x="205.32" y="94.5073">offen</text></g><!--link active to stopped--><g class="link" data-entity-1="ent0003" data-entity-2="ent0005" data-link-type="dependency" data-source-line="4" id="lnk6"><path d="M175.94,136.4769 C128.68,139.1369 37.11,147.3069 17.32,171.2669 C6,184.9769 10.51,194.8469 17.32,211.2669 C20.43,218.7769 21.6361,221.377 27.4361,226.957" fill="none" id="active-to-stopped" style="stroke:#181818;stroke-width:1;"/><polygon fill="#181818" points="31.76,231.1169,28.0475,221.9945,28.1568,227.6503,22.501,227.7597,31.76,231.1169" style="stroke:#181818;stroke-width:1;"/><text fill="#000000" font-family="sans-serif" font-size="11" lengthAdjust="spacing" textLength="174.5122" x="21.1076" y="182.4773">"nicht abgegeben" (durch GDA)</text><text fill="#000000" font-family="sans-serif" font-size="11" lengthAdjust="spacing" textLength="176.5908" x="21.8166" y="195.282">oder "abgelaufen" (automatisch</text><text fill="#000000" font-family="sans-serif" font-size="11" lengthAdjust="spacing" textLength="129.728" x="43.4997" y="208.0867">durch Fachanwendung)</text></g><!--link active to completed--><g class="link" data-entity-1="ent0003" data-entity-2="ent0007" data-link-type="dependency" data-source-line="5" id="lnk8"><path d="M204.32,151.3269 C204.32,172.4869 204.32,203.5469 204.32,224.8769" fill="none" id="active-to-completed" style="stroke:#181818;stroke-width:1;"/><polygon fill="#181818" points="204.32,230.8769,208.32,221.8769,204.32,225.8769,200.32,221.8769,204.32,230.8769" style="stroke:#181818;stroke-width:1;"/><text fill="#000000" font-family="sans-serif" font-size="11" lengthAdjust="spacing" textLength="136.6138" x="205.32" y="188.9773">"eingel&#246;st" (automatisch</text><text fill="#000000" font-family="sans-serif" font-size="11" lengthAdjust="spacing" textLength="129.728" x="208.7629" y="201.782">durch Fachanwendung)</text></g><!--link active to entered-in-error--><g class="link" data-entity-1="ent0003" data-entity-2="ent0009" data-link-type="dependency" data-source-line="6" id="lnk10"><path d="M232.87,138.6469 C269.43,143.5869 329.7,154.1469 343.32,171.2669 C356.63,187.9969 355.2122,208.1344 351.4122,224.9544" fill="none" id="active-to-entered-in-error" style="stroke:#181818;stroke-width:1;"/><polygon fill="#181818" points="350.09,230.8069,355.975,222.9096,351.1918,225.9298,348.1716,221.1467,350.09,230.8069" style="stroke:#181818;stroke-width:1;"/><text fill="#000000" font-family="sans-serif" font-size="11" lengthAdjust="spacing" textLength="46.9272" x="353.32" y="195.4773">storniert</text></g><!--link stopped to end--><g class="link" data-entity-1="ent0005" data-entity-2="ent0011" data-link-type="dependency" data-source-line="7" id="lnk12"><path d="M87.96,264.6169 C122.44,279.9169 167.7056,299.9934 188.9356,309.4134" fill="none" id="stopped-to-end" style="stroke:#181818;stroke-width:1;"/><polygon fill="#181818" points="194.42,311.8469,187.8158,304.5404,189.8497,309.819,184.5711,311.8529,194.42,311.8469" style="stroke:#181818;stroke-width:1;"/></g><!--link entered-in-error to end--><g class="link" data-entity-1="ent0009" data-entity-2="ent0011" data-link-type="dependency" data-source-line="8" id="lnk13"><path d="M310.83,265.6369 C279.03,280.7469 239.3004,299.6241 219.5804,308.9841" fill="none" id="entered-in-error-to-end" style="stroke:#181818;stroke-width:1;"/><polygon fill="#181818" points="214.16,311.5569,224.0058,311.3113,218.677,309.4129,220.5754,304.0841,214.16,311.5569" style="stroke:#181818;stroke-width:1;"/></g><!--link completed to end--><g class="link" data-entity-1="ent0007" data-entity-2="ent0011" data-link-type="dependency" data-source-line="9" id="lnk14"><path d="M204.32,265.4669 C204.32,278.0169 204.32,289.0069 204.32,299.8069" fill="none" id="completed-to-end" style="stroke:#181818;stroke-width:1;"/><polygon fill="#181818" points="204.32,305.8069,208.32,296.8069,204.32,300.8069,200.32,296.8069,204.32,305.8069" style="stroke:#181818;stroke-width:1;"/></g><?plantuml-src ZOz1JiGm34NtEOMLLOjKZe0q4e8L6xPC5sxocqRgE2Lnu6PSW8iHfZ0Iis9bsV_hVN-DkeAUuADZZKcUyLfHzBOeQotK1MmhYu8EK-09lJ7TJK_3S4SlQPuX8x7J-0QpZrsn4jsYn5D0m0InrFcQtKAFzuV-A9GyCjblUUKwdtMkcaxjW-AMe-pc1tOBoplQAg4VgMZQDlY_IOZIA9yVHVy7SUcqhT0hJ4DdYSWw4bhP33z46P1pokOdzcnitOszTjYBT87_Nhu0?></g></svg>