<svg xmlns="http://www.w3.org/2000/svg" xmlns:xlink="http://www.w3.org/1999/xlink" contentStyleType="text/css" data-diagram-type="ACTIVITY" height="368px" preserveAspectRatio="none" style="width:596px;height:368px;background:#FFFFFF;" version="1.1" viewBox="0 0 596 368" width="596px" zoomAndPan="magnify"><?plantuml 1.2026.4beta2?><defs/><g><g class="title" data-source-line="1"><text fill="#000000" font-family="sans-serif" font-size="14" font-weight="700" lengthAdjust="spacing" textLength="358.9619" x="115.4566" y="22.9951">MedicationRequest.status (geplante Abgabe)</text></g><g class="start_entity" data-qualified-name="start" data-source-line="3" id="ent0002"><ellipse cx="275.21" cy="53.2969" fill="#222222" rx="10" ry="10" style="stroke:#222222;stroke-width:1;"/></g><rect fill="#F1F1F1" height="33.9688" rx="12.5" ry="12.5" style="stroke:#181818;stroke-width:0.5;" width="56.4746" x="246.97" y="117.2969"/><text fill="#000000" font-family="sans-serif" font-size="12" lengthAdjust="spacing" textLength="36.4746" x="256.97" y="138.4355">active</text><rect fill="#F1F1F1" height="33.9688" rx="12.5" ry="12.5" style="stroke:#181818;stroke-width:0.5;" width="68.5332" x="29.94" y="257.2669"/><text fill="#000000" font-family="sans-serif" font-size="12" lengthAdjust="spacing" textLength="48.5332" x="39.94" y="278.4055">stopped</text><rect fill="#F1F1F1" height="33.9688" rx="12.5" ry="12.5" style="stroke:#181818;stroke-width:0.5;" width="83.668" x="148.38" y="257.2669"/><text fill="#000000" font-family="sans-serif" font-size="12" lengthAdjust="spacing" textLength="63.668" x="158.38" y="278.4055">completed</text><rect fill="#F1F1F1" height="33.9688" rx="12.5" ry="12.5" style="stroke:#181818;stroke-width:0.5;" width="116.1348" x="252.14" y="257.2669"/><text fill="#000000" font-family="sans-serif" font-size="12" lengthAdjust="spacing" textLength="96.1348" x="262.14" y="278.4055">entered-in-error</text><rect fill="#F1F1F1" height="33.9688" rx="12.5" ry="12.5" style="stroke:#181818;stroke-width:0.5;" width="77.2051" x="388.61" y="257.2669"/><text fill="#000000" font-family="sans-serif" font-size="12" lengthAdjust="spacing" textLength="57.2051" x="398.61" y="278.4055">cancelled</text><g class="end_entity" data-qualified-name="end" data-source-line="10" id="ent0015"><ellipse cx="249.21" cy="343.2369" fill="none" rx="11" ry="11" style="stroke:#222222;stroke-width:1.5;"/><ellipse cx="249.21" cy="343.2369" fill="#222222" rx="6" ry="6" style="stroke:#222222;stroke-width:1;"/></g><!--link start to active--><g class="link" data-entity-1="ent0002" data-entity-2="ent0003" data-link-type="dependency" data-source-line="3" id="lnk4"><path d="M275.21,63.6669 C275.21,76.8269 275.21,94.9669 275.21,111.0769" fill="none" id="start-to-active" style="stroke:#181818;stroke-width:1;"/><polygon fill="#181818" points="275.21,117.0769,279.21,108.0769,275.21,112.0769,271.21,108.0769,275.21,117.0769" style="stroke:#181818;stroke-width:1;"/><text fill="#000000" font-family="sans-serif" font-size="11" lengthAdjust="spacing" textLength="28.2144" x="276.21" y="94.5073">offen</text></g><!--link active to stopped--><g class="link" data-entity-1="ent0003" data-entity-2="ent0005" data-link-type="dependency" data-source-line="4" id="lnk6"><path d="M246.9,134.9369 C187.64,134.8769 53.64,138.4569 25.21,171.2669 C6,193.4369 13.44,210.3969 25.21,237.2669 C28.54,244.8669 29.8708,247.5636 36.0108,253.0636" fill="none" id="active-to-stopped" style="stroke:#181818;stroke-width:1;"/><polygon fill="#181818" points="40.48,257.0669,36.4451,248.0825,36.7557,253.7308,31.1074,254.0413,40.48,257.0669" style="stroke:#181818;stroke-width:1;"/><text fill="#000000" font-family="sans-serif" font-size="11" lengthAdjust="spacing" textLength="50.123" x="39.6055" y="188.9773">Geplante</text><text fill="#000000" font-family="sans-serif" font-size="11" lengthAdjust="spacing" textLength="41.9805" x="43.6768" y="201.782">Abgabe</text><text fill="#000000" font-family="sans-serif" font-size="11" lengthAdjust="spacing" textLength="61.8535" x="33.7403" y="214.5867">abgelaufen</text><text fill="#000000" font-family="sans-serif" font-size="11" lengthAdjust="spacing" textLength="76.9141" x="26.21" y="227.3914">(automatisch)</text></g><!--link active to completed--><g class="link" data-entity-1="ent0003" data-entity-2="ent0007" data-link-type="dependency" data-source-line="5" id="lnk8"><path d="M246.76,137.7369 C206.41,141.8669 135.72,151.7469 120.21,171.2669 C101.96,194.2369 104.93,212.2269 120.21,237.2669 C126.62,247.7669 131.7849,252.6809 142.7749,258.0809" fill="none" id="active-to-completed" style="stroke:#181818;stroke-width:1;"/><polygon fill="#181818" points="148.16,260.7269,141.8464,253.1679,143.6725,258.5219,138.3184,260.3479,148.16,260.7269" style="stroke:#181818;stroke-width:1;"/><text fill="#000000" font-family="sans-serif" font-size="11" lengthAdjust="spacing" textLength="20.4048" x="149.4646" y="182.4773">Alle</text><text fill="#000000" font-family="sans-serif" font-size="11" lengthAdjust="spacing" textLength="57.2988" x="131.0176" y="195.282">m&#246;glichen</text><text fill="#000000" font-family="sans-serif" font-size="11" lengthAdjust="spacing" textLength="67.1602" x="126.087" y="208.0867">Einl&#246;sungen</text><text fill="#000000" font-family="sans-serif" font-size="11" lengthAdjust="spacing" textLength="71.8975" x="123.7183" y="220.8914">durchgef&#252;hrt</text><text fill="#000000" font-family="sans-serif" font-size="11" lengthAdjust="spacing" textLength="76.9141" x="121.21" y="233.6961">(automatisch)</text></g><!--link completed to active--><g class="link" data-entity-1="ent0007" data-entity-2="ent0003" data-link-type="dependency" data-source-line="8" id="lnk13"><path d="M194.48,257.1169 C201.89,229.2569 216.61,174.7769 219.21,171.2669 C226.3,161.7069 231.5605,157.0284 241.5205,151.2484" fill="none" id="completed-to-active" style="stroke:#181818;stroke-width:1;"/><polygon fill="#181818" points="246.71,148.2369,236.9181,149.2946,242.3854,150.7465,240.9335,156.2139,246.71,148.2369" style="stroke:#181818;stroke-width:1;"/><text fill="#000000" font-family="sans-serif" font-size="11" lengthAdjust="spacing" textLength="78.665" x="220.21" y="188.9773">durchgef&#252;hrte</text><text fill="#000000" font-family="sans-serif" font-size="11" lengthAdjust="spacing" textLength="41.9805" x="238.5523" y="201.782">Abgabe</text><text fill="#000000" font-family="sans-serif" font-size="11" lengthAdjust="spacing" textLength="55.6606" x="231.7122" y="214.5867">verworfen</text><text fill="#000000" font-family="sans-serif" font-size="11" lengthAdjust="spacing" textLength="76.9141" x="221.0855" y="227.3914">(automatisch)</text></g><!--link active to entered-in-error--><g class="link" data-entity-1="ent0003" data-entity-2="ent0009" data-link-type="dependency" data-source-line="6" id="lnk10"><path d="M291.78,151.4669 C296.66,157.2269 301.44,164.0869 304.21,171.2669 C315.26,199.8869 314.6723,230.4324 312.7623,251.0924" fill="none" id="active-to-entered-in-error" style="stroke:#181818;stroke-width:1;"/><polygon fill="#181818" points="312.21,257.0669,317.0215,248.4733,312.6703,252.0881,309.0555,247.7369,312.21,257.0669" style="stroke:#181818;stroke-width:1;"/><text fill="#000000" font-family="sans-serif" font-size="11" lengthAdjust="spacing" textLength="50.123" x="317.9976" y="195.4773">Geplante</text><text fill="#000000" font-family="sans-serif" font-size="11" lengthAdjust="spacing" textLength="41.9805" x="322.0689" y="208.282">Abgabe</text><text fill="#000000" font-family="sans-serif" font-size="11" lengthAdjust="spacing" textLength="55.6982" x="315.21" y="221.0867">verwerfen</text></g><!--link active to cancelled--><g class="link" data-entity-1="ent0003" data-entity-2="ent0011" data-link-type="dependency" data-source-line="7" id="lnk12"><path d="M303.86,139.5269 C325.87,144.0869 355.86,153.2569 376.21,171.2669 C379.73,174.3869 403.5331,223.6432 416.9031,251.6232" fill="none" id="active-to-cancelled" style="stroke:#181818;stroke-width:1;"/><polygon fill="#181818" points="419.49,257.0369,419.2188,247.1918,417.3343,252.5255,412.0005,250.6409,419.49,257.0369" style="stroke:#181818;stroke-width:1;"/><text fill="#000000" font-family="sans-serif" font-size="11" lengthAdjust="spacing" textLength="20.4048" x="439.4646" y="182.4773">Alle</text><text fill="#000000" font-family="sans-serif" font-size="11" lengthAdjust="spacing" textLength="57.2988" x="421.0176" y="195.282">m&#246;glichen</text><text fill="#000000" font-family="sans-serif" font-size="11" lengthAdjust="spacing" textLength="67.1602" x="416.087" y="208.0867">Einl&#246;sungen</text><text fill="#000000" font-family="sans-serif" font-size="11" lengthAdjust="spacing" textLength="72.354" x="413.49" y="220.8914">Leerabgaben</text><text fill="#000000" font-family="sans-serif" font-size="11" lengthAdjust="spacing" textLength="76.9141" x="411.21" y="233.6961">(automatisch)</text></g><!--link cancelled to active--><g class="link" data-entity-1="ent0011" data-entity-2="ent0003" data-link-type="dependency" data-source-line="9" id="lnk14"><path d="M466.18,258.8069 C475.32,253.4869 483.93,246.4369 489.21,237.2669 C503.85,211.8469 508.15,193.6669 489.21,171.2669 C465.79,143.5869 362.5877,137.3541 309.8577,135.8841" fill="none" id="cancelled-to-active" style="stroke:#181818;stroke-width:1;"/><polygon fill="#181818" points="303.86,135.7169,312.745,139.9661,308.8581,135.8562,312.968,131.9692,303.86,135.7169" style="stroke:#181818;stroke-width:1;"/><text fill="#000000" font-family="sans-serif" font-size="11" lengthAdjust="spacing" textLength="78.665" x="502.21" y="188.9773">durchgef&#252;hrte</text><text fill="#000000" font-family="sans-serif" font-size="11" lengthAdjust="spacing" textLength="41.9805" x="520.5523" y="201.782">Abgabe</text><text fill="#000000" font-family="sans-serif" font-size="11" lengthAdjust="spacing" textLength="55.6606" x="513.7122" y="214.5867">verworfen</text><text fill="#000000" font-family="sans-serif" font-size="11" lengthAdjust="spacing" textLength="76.9141" x="503.0855" y="227.3914">(automatisch)</text></g><!--link stopped to end--><g class="link" data-entity-1="ent0005" data-entity-2="ent0015" data-link-type="dependency" data-source-line="10" id="lnk16"><path d="M98.57,287.6969 C141.42,303.2069 206.5989,326.8027 233.1189,336.4127" fill="none" id="stopped-to-end" style="stroke:#181818;stroke-width:1;"/><polygon fill="#181818" points="238.76,338.4569,231.6612,331.63,234.0591,336.7534,228.9357,339.1514,238.76,338.4569" style="stroke:#181818;stroke-width:1;"/></g><!--link entered-in-error to end--><g class="link" data-entity-1="ent0009" data-entity-2="ent0015" data-link-type="dependency" data-source-line="11" id="lnk17"><path d="M295.44,291.4669 C283.03,305.0969 269.8688,319.5497 260.3388,330.0197" fill="none" id="entered-in-error-to-end" style="stroke:#181818;stroke-width:1;"/><polygon fill="#181818" points="256.3,334.4569,265.3163,330.4937,259.6656,330.7593,259.4001,325.1086,256.3,334.4569" style="stroke:#181818;stroke-width:1;"/></g><!--link completed to end--><g class="link" data-entity-1="ent0007" data-entity-2="ent0015" data-link-type="dependency" data-source-line="12" id="lnk18"><path d="M204.49,291.4669 C216.5,305.0969 229.1623,319.4861 238.3923,329.9561" fill="none" id="completed-to-end" style="stroke:#181818;stroke-width:1;"/><polygon fill="#181818" points="242.36,334.4569,239.4089,325.0605,239.0536,330.7062,233.4079,330.3509,242.36,334.4569" style="stroke:#181818;stroke-width:1;"/></g><!--link cancelled to end--><g class="link" data-entity-1="ent0011" data-entity-2="ent0015" data-link-type="dependency" data-source-line="13" id="lnk19"><path d="M388.15,289.9569 C346.6,305.5869 289.1954,327.1933 264.8854,336.3433" fill="none" id="cancelled-to-end" style="stroke:#181818;stroke-width:1;"/><polygon fill="#181818" points="259.27,338.4569,269.1022,339.0301,263.9495,336.6956,266.2841,331.5429,259.27,338.4569" style="stroke:#181818;stroke-width:1;"/></g><?plantuml-src fP4nRiGW54HxJe6siYCvHuYqHPGcQTB6Ms0OOoGC3dmsDzigdIyMrhOisKuJfKByqJpc3sJ8Whz16Id8UFUEpuH8Zv44fSWBZS4AH-3dHei69MF5Gychweb_-BQ5kt0XoLp1vcDMNXPJxMPNxKIZOKNAXjeL8f7lysjHTkM5H_B30BK1dAtDfdwyQMjaTpSz6sV7MqnEtsyg1TbfjEDt5-X0bBuVB6Z7F8Qw8dmXJ4iW2m6gCgv223xyASqh4CJ4F6udXPF8ViNML3Dqiy8kb0-_5RKKlHB_oLbwdoZvJzbfty5fbRRHfyacH9xy0000?></g></svg>