<svg xmlns="http://www.w3.org/2000/svg" xmlns:xlink="http://www.w3.org/1999/xlink" contentStyleType="text/css" data-diagram-type="ACTIVITY" height="342px" preserveAspectRatio="none" style="width:385px;height:342px;background:#FFFFFF;" version="1.1" viewBox="0 0 385 342" width="385px" zoomAndPan="magnify"><?plantuml 1.2026.3beta6?><defs/><g><g class="title" data-source-line="1"><text fill="#000000" font-family="sans-serif" font-size="14" font-weight="700" lengthAdjust="spacing" textLength="358.9619" x="10" y="22.9951">MedicationRequest.status (geplante Abgabe)</text></g><g class="start_entity" data-qualified-name="start" data-source-line="3" id="ent0002"><ellipse cx="170.0836" cy="53.2969" fill="#222222" rx="10" ry="10" style="stroke:#222222;stroke-width:1;"/></g><rect fill="#F1F1F1" height="33.9688" rx="12.5" ry="12.5" style="stroke:#181818;stroke-width:0.5;" width="56.4746" x="141.8436" y="117.2969"/><text fill="#000000" font-family="sans-serif" font-size="12" lengthAdjust="spacing" textLength="36.4746" x="151.8436" y="138.4355">active</text><rect fill="#F1F1F1" height="33.9688" rx="12.5" ry="12.5" style="stroke:#181818;stroke-width:0.5;" width="68.5332" x="28.8136" y="231.2669"/><text fill="#000000" font-family="sans-serif" font-size="12" lengthAdjust="spacing" textLength="48.5332" x="38.8136" y="252.4055">stopped</text><rect fill="#F1F1F1" height="33.9688" rx="12.5" ry="12.5" style="stroke:#181818;stroke-width:0.5;" width="83.668" x="128.2436" y="231.2669"/><text fill="#000000" font-family="sans-serif" font-size="12" lengthAdjust="spacing" textLength="63.668" x="138.2436" y="252.4055">completed</text><rect fill="#F1F1F1" height="33.9688" rx="12.5" ry="12.5" style="stroke:#181818;stroke-width:0.5;" width="116.1348" x="234.0136" y="231.2669"/><text fill="#000000" font-family="sans-serif" font-size="12" lengthAdjust="spacing" textLength="96.1348" x="244.0136" y="252.4055">entered-in-error</text><g class="end_entity" data-qualified-name="end" data-source-line="7" id="ent0011"><ellipse cx="170.0836" cy="317.2369" fill="none" rx="11" ry="11" style="stroke:#222222;stroke-width:1.5;"/><ellipse cx="170.0836" cy="317.2369" fill="#222222" rx="6" ry="6" style="stroke:#222222;stroke-width:1;"/></g><!--link start to active--><g class="link" data-entity-1="ent0002" data-entity-2="ent0003" data-link-type="dependency" data-source-line="3" id="lnk4"><path d="M170.0836,63.6669 C170.0836,76.8269 170.0836,94.9669 170.0836,111.0769" fill="none" id="start-to-active" style="stroke:#181818;stroke-width:1;"/><polygon fill="#181818" points="170.0836,117.0769,174.0836,108.0769,170.0836,112.0769,166.0836,108.0769,170.0836,117.0769" style="stroke:#181818;stroke-width:1;"/><text fill="#000000" font-family="sans-serif" font-size="11" lengthAdjust="spacing" textLength="28.2144" x="171.0836" y="94.5073">offen</text></g><!--link active to stopped--><g class="link" data-entity-1="ent0003" data-entity-2="ent0005" data-link-type="dependency" data-source-line="4" id="lnk6"><path d="M141.4436,137.6369 C118.6436,141.1369 87.8636,149.7969 71.0836,171.2669 C57.8436,188.1969 57.4356,208.17 59.4556,224.93" fill="none" id="active-to-stopped" style="stroke:#181818;stroke-width:1;"/><polygon fill="#181818" points="60.1736,230.8869,63.0679,221.4729,59.5753,225.9228,55.1254,222.4302,60.1736,230.8869" style="stroke:#181818;stroke-width:1;"/><text fill="#000000" font-family="sans-serif" font-size="11" lengthAdjust="spacing" textLength="92.8018" x="72.0836" y="195.4773">nicht abgegeben</text></g><!--link active to completed--><g class="link" data-entity-1="ent0003" data-entity-2="ent0007" data-link-type="dependency" data-source-line="5" id="lnk8"><path d="M170.0836,151.3269 C170.0836,172.4869 170.0836,203.5469 170.0836,224.8769" fill="none" id="active-to-completed" style="stroke:#181818;stroke-width:1;"/><polygon fill="#181818" points="170.0836,230.8769,174.0836,221.8769,170.0836,225.8769,166.0836,221.8769,170.0836,230.8769" style="stroke:#181818;stroke-width:1;"/><text fill="#000000" font-family="sans-serif" font-size="11" lengthAdjust="spacing" textLength="50.3755" x="195.0118" y="182.4773">eingel&#246;st</text><text fill="#000000" font-family="sans-serif" font-size="11" lengthAdjust="spacing" textLength="35.7876" x="202.3057" y="195.282">(durch</text><text fill="#000000" font-family="sans-serif" font-size="11" lengthAdjust="spacing" textLength="94.7354" x="171.0836" y="208.0867">Fachanwendung)</text></g><!--link active to entered-in-error--><g class="link" data-entity-1="ent0003" data-entity-2="ent0009" data-link-type="dependency" data-source-line="6" id="lnk10"><path d="M198.3636,138.2469 C221.0736,142.0969 252.1936,150.9569 271.0836,171.2669 C286.2736,187.6069 290.2246,207.9608 291.3846,224.9408" fill="none" id="active-to-entered-in-error" style="stroke:#181818;stroke-width:1;"/><polygon fill="#181818" points="291.7936,230.9269,295.1709,221.6752,291.4528,225.9385,287.1895,222.2204,291.7936,230.9269" style="stroke:#181818;stroke-width:1;"/><text fill="#000000" font-family="sans-serif" font-size="11" lengthAdjust="spacing" textLength="46.9272" x="290.0836" y="195.4773">storniert</text></g><!--link stopped to end--><g class="link" data-entity-1="ent0005" data-entity-2="ent0011" data-link-type="dependency" data-source-line="7" id="lnk12"><path d="M89.2536,265.6369 C112.5136,280.1969 140.1178,297.4834 155.8378,307.3234" fill="none" id="stopped-to-end" style="stroke:#181818;stroke-width:1;"/><polygon fill="#181818" points="160.9236,310.5069,155.4172,302.3411,156.6854,307.854,151.1725,309.1222,160.9236,310.5069" style="stroke:#181818;stroke-width:1;"/></g><!--link entered-in-error to end--><g class="link" data-entity-1="ent0009" data-entity-2="ent0011" data-link-type="dependency" data-source-line="8" id="lnk13"><path d="M262.2336,265.6369 C235.2836,280.4369 202.5133,298.4297 184.9333,308.0797" fill="none" id="entered-in-error-to-end" style="stroke:#181818;stroke-width:1;"/><polygon fill="#181818" points="179.6736,310.9669,189.4879,310.1426,184.0567,308.5609,185.6384,303.1297,179.6736,310.9669" style="stroke:#181818;stroke-width:1;"/></g><!--link completed to end--><g class="link" data-entity-1="ent0007" data-entity-2="ent0011" data-link-type="dependency" data-source-line="9" id="lnk14"><path d="M170.0836,265.4669 C170.0836,278.0169 170.0836,289.0069 170.0836,299.8069" fill="none" id="completed-to-end" style="stroke:#181818;stroke-width:1;"/><polygon fill="#181818" points="170.0836,305.8069,174.0836,296.8069,170.0836,300.8069,166.0836,296.8069,170.0836,305.8069" style="stroke:#181818;stroke-width:1;"/></g><?plantuml-src POv13e8m54JtFSKFAp318vYuSUV6hR0exL2Qu2-s7xsP5_1YeX0DSJN9d_TdHhpqe2EiDrfyu1Ek8v9iasWP4-KEGwzPGFl6wGQ5KlcceBBSqJcqBRWcRSJVe6QP7VQc4zADWqFpPfA4OO1TGV3iq3yVIIhExHXDL_51cqxp7Mn7TWNLPC9bw26mHAldAJ2oHvIQCapp8cpfkKIC8MPggVkWqrprZtojNy5oUG40?></g></svg>