<svg xmlns="http://www.w3.org/2000/svg" xmlns:xlink="http://www.w3.org/1999/xlink" contentStyleType="text/css" data-diagram-type="SEQUENCE" height="525px" preserveAspectRatio="none" style="width:1023px;height:525px;background:#F5F5F5;" version="1.1" viewBox="0 0 1023 525" width="1023px" zoomAndPan="magnify"><?plantuml 1.2026.3beta6?><defs><linearGradient id="g1avxyw1eazzgj0" x1="50%" x2="50%" y1="0%" y2="100%"><stop offset="0%" stop-color="#E0E5F0"/><stop offset="100%" stop-color="#D1D9E6"/></linearGradient><filter height="300%" id="f1avxyw1eazzgj" width="300%" x="-1" y="-1"><feGaussianBlur result="blurOut" stdDeviation="2"/><feColorMatrix in="blurOut" result="blurOut2" type="matrix" values="0 0 0 0 0 0 0 0 0 0 0 0 0 0 0 0 0 0 .4 0"/><feOffset dx="4" dy="4" in="blurOut2" result="blurOut3"/><feBlend in="SourceGraphic" in2="blurOut3" mode="normal"/></filter></defs><g><rect fill="#F5F5F5" height="525" style="stroke:none;stroke-width:1;" width="1023" x="0" y="0"/><rect fill="#9FBAC4" height="500.0078" rx="5" ry="5" style="stroke:#181818;stroke-width:0.5;" width="74.0586" x="85" y="6"/><text fill="#000000" font-family="'Arial'" font-size="14" font-weight="700" lengthAdjust="spacing" textLength="4.874" x="88" y="18.9951">&#160;</text><text fill="#000000" font-family="'Arial'" font-size="14" font-weight="700" lengthAdjust="spacing" textLength="48.5625" x="97.748" y="35.292">GDA 1</text><rect fill="#C48778" height="500.0078" rx="5" ry="5" style="stroke:#181818;stroke-width:0.5;" width="256.9268" x="265.5356" y="6"/><text fill="#000000" font-family="'Arial'" font-size="14" font-weight="700" lengthAdjust="spacing" textLength="4.874" x="268.5356" y="18.9951">&#160;</text><text fill="#000000" font-family="'Arial'" font-size="14" font-weight="700" lengthAdjust="spacing" textLength="182.6904" x="302.6538" y="35.292">e-Med Fachanwendung</text><rect fill="#BEAEBE" height="500.0078" rx="5" ry="5" style="stroke:#181818;stroke-width:0.5;" width="83.8066" x="793.1089" y="6"/><text fill="#000000" font-family="'Arial'" font-size="14" font-weight="700" lengthAdjust="spacing" textLength="4.874" x="796.1089" y="18.9951">&#160;</text><text fill="#000000" font-family="'Arial'" font-size="14" font-weight="700" lengthAdjust="spacing" textLength="48.5625" x="815.605" y="35.292">GDA 2</text><rect fill="#BAC38B" height="500.0078" rx="5" ry="5" style="stroke:#181818;stroke-width:0.5;" width="77.9756" x="918.9155" y="6"/><text fill="#000000" font-family="'Arial'" font-size="14" font-weight="700" lengthAdjust="spacing" textLength="4.874" x="921.9155" y="18.9951">&#160;</text><text fill="#000000" font-family="'Arial'" font-size="14" font-weight="700" lengthAdjust="spacing" textLength="57.3535" x="926.7896" y="35.292">Patient</text><g><title>GDA 1</title><rect fill="#FFFFFF" height="214.3906" style="stroke:#181818;stroke-width:1;" width="10" x="117.0293" y="194.3203"/></g><g><title>e-Med FA</title><rect fill="#FFFFFF" height="214.3906" style="stroke:#181818;stroke-width:1;" width="10" x="388.999" y="194.3203"/></g><g class="participant-lifeline" data-entity-uid="part1" data-qualified-name="GDA_1" data-source-line="41" id="part1-lifeline"><g><title>GDA 1</title><rect fill="#000000" fill-opacity="0.00000" height="307.8203" width="8" x="118.0293" y="118.8906"/><line style="stroke:#181818;stroke-width:0.5;stroke-dasharray:5,5;" x1="121.7476" x2="121.7476" y1="118.8906" y2="426.7109"/></g></g><g class="participant-lifeline" data-entity-uid="part2" data-qualified-name="eMed_FA" data-source-line="45" id="part2-lifeline"><g><title>e-Med FA</title><rect fill="#000000" fill-opacity="0.00000" height="307.8203" width="8" x="389.999" y="118.8906"/><line style="stroke:#181818;stroke-width:0.5;stroke-dasharray:5,5;" x1="393.3369" x2="393.3369" y1="118.8906" y2="426.7109"/></g></g><g class="participant-lifeline" data-entity-uid="part3" data-qualified-name="GDA_2" data-source-line="49" id="part3-lifeline"><g><title>GDA 2</title><rect fill="#000000" fill-opacity="0.00000" height="307.8203" width="8" x="831.0122" y="118.8906"/><line style="stroke:#181818;stroke-width:0.5;stroke-dasharray:5,5;" x1="834.7305" x2="834.7305" y1="118.8906" y2="426.7109"/></g></g><g class="participant-lifeline" data-entity-uid="part4" data-qualified-name="Patient" data-source-line="53" id="part4-lifeline"><g><title>Patient</title><rect fill="#000000" fill-opacity="0.00000" height="307.8203" width="8" x="953.9033" y="118.8906"/><line style="stroke:#181818;stroke-width:0.5;stroke-dasharray:5,5;" x1="957.2153" x2="957.2153" y1="118.8906" y2="426.7109"/></g></g><g class="participant participant-head" data-entity-uid="part1" data-qualified-name="GDA_1" data-source-line="41" id="part1-head"><text fill="#000000" font-family="'Arial'" font-size="14" lengthAdjust="spacing" textLength="44.5635" x="96.7476" y="115.5889">GDA 1</text><ellipse cx="122.0293" cy="51.0938" fill="#E2E2F0" rx="8" ry="8" style="stroke:#181818;stroke-width:0.5;"/><path d="M122.0293,59.0938 L122.0293,86.0938 M109.0293,67.0938 L135.0293,67.0938 M122.0293,86.0938 L109.0293,101.0938 M122.0293,86.0938 L135.0293,101.0938" fill="none" style="stroke:#181818;stroke-width:0.5;"/></g><g class="participant participant-tail" data-entity-uid="part1" data-qualified-name="GDA_1" data-source-line="41" id="part1-tail"><text fill="#000000" font-family="'Arial'" font-size="14" lengthAdjust="spacing" textLength="44.5635" x="96.7476" y="438.7061">GDA 1</text><ellipse cx="122.0293" cy="450.5078" fill="#E2E2F0" rx="8" ry="8" style="stroke:#181818;stroke-width:0.5;"/><path d="M122.0293,458.5078 L122.0293,485.5078 M109.0293,466.5078 L135.0293,466.5078 M122.0293,485.5078 L109.0293,500.5078 M122.0293,485.5078 L135.0293,500.5078" fill="none" style="stroke:#181818;stroke-width:0.5;"/></g><g class="participant participant-head" data-entity-uid="part2" data-qualified-name="eMed_FA" data-source-line="45" id="part2-head"><rect fill="#FFFFFF" height="30.2969" rx="5" ry="5" style="stroke:#555555;stroke-width:0.5;" width="79.3242" x="354.3369" y="87.5938"/><text fill="#000000" font-family="'Arial'" font-size="14" lengthAdjust="spacing" textLength="65.3242" x="361.3369" y="107.5889">e-Med FA</text></g><g class="participant participant-tail" data-entity-uid="part2" data-qualified-name="eMed_FA" data-source-line="45" id="part2-tail"><rect fill="#FFFFFF" height="30.2969" rx="5" ry="5" style="stroke:#555555;stroke-width:0.5;" width="79.3242" x="354.3369" y="425.7109"/><text fill="#000000" font-family="'Arial'" font-size="14" lengthAdjust="spacing" textLength="65.3242" x="361.3369" y="445.7061">e-Med FA</text></g><g class="participant participant-head" data-entity-uid="part3" data-qualified-name="GDA_2" data-source-line="49" id="part3-head"><text fill="#000000" font-family="'Arial'" font-size="14" lengthAdjust="spacing" textLength="44.5635" x="809.7305" y="115.5889">GDA 2</text><ellipse cx="835.0122" cy="51.0938" fill="#E2E2F0" rx="8" ry="8" style="stroke:#181818;stroke-width:0.5;"/><path d="M835.0122,59.0938 L835.0122,86.0938 M822.0122,67.0938 L848.0122,67.0938 M835.0122,86.0938 L822.0122,101.0938 M835.0122,86.0938 L848.0122,101.0938" fill="none" style="stroke:#181818;stroke-width:0.5;"/></g><g class="participant participant-tail" data-entity-uid="part3" data-qualified-name="GDA_2" data-source-line="49" id="part3-tail"><text fill="#000000" font-family="'Arial'" font-size="14" lengthAdjust="spacing" textLength="44.5635" x="809.7305" y="438.7061">GDA 2</text><ellipse cx="835.0122" cy="450.5078" fill="#E2E2F0" rx="8" ry="8" style="stroke:#181818;stroke-width:0.5;"/><path d="M835.0122,458.5078 L835.0122,485.5078 M822.0122,466.5078 L848.0122,466.5078 M835.0122,485.5078 L822.0122,500.5078 M835.0122,485.5078 L848.0122,500.5078" fill="none" style="stroke:#181818;stroke-width:0.5;"/></g><g class="participant participant-head" data-entity-uid="part4" data-qualified-name="Patient" data-source-line="53" id="part4-head"><text fill="#000000" font-family="'Arial'" font-size="14" lengthAdjust="spacing" textLength="49.376" x="930.2153" y="115.5889">Patient</text><ellipse cx="957.9033" cy="51.0938" fill="#E2E2F0" rx="8" ry="8" style="stroke:#181818;stroke-width:0.5;"/><path d="M957.9033,59.0938 L957.9033,86.0938 M944.9033,67.0938 L970.9033,67.0938 M957.9033,86.0938 L944.9033,101.0938 M957.9033,86.0938 L970.9033,101.0938" fill="none" style="stroke:#181818;stroke-width:0.5;"/></g><g class="participant participant-tail" data-entity-uid="part4" data-qualified-name="Patient" data-source-line="53" id="part4-tail"><text fill="#000000" font-family="'Arial'" font-size="14" lengthAdjust="spacing" textLength="49.376" x="930.2153" y="438.7061">Patient</text><ellipse cx="957.9033" cy="450.5078" fill="#E2E2F0" rx="8" ry="8" style="stroke:#181818;stroke-width:0.5;"/><path d="M957.9033,458.5078 L957.9033,485.5078 M944.9033,466.5078 L970.9033,466.5078 M957.9033,485.5078 L944.9033,500.5078 M957.9033,485.5078 L970.9033,500.5078" fill="none" style="stroke:#181818;stroke-width:0.5;"/></g><g><title>GDA 1</title><rect fill="#FFFFFF" height="214.3906" style="stroke:#181818;stroke-width:1;" width="10" x="117.0293" y="194.3203"/></g><g><title>e-Med FA</title><rect fill="#FFFFFF" height="214.3906" style="stroke:#181818;stroke-width:1;" width="10" x="388.999" y="194.3203"/></g><rect fill="#EEEEEE" height="3" rx="5" ry="5" style="stroke:#EEEEEE;stroke-width:1;" width="1017.8911" x="0" y="150.0391"/><line style="stroke:#000000;stroke-width:1;" x1="0" x2="1017.8911" y1="150.0391" y2="150.0391"/><line style="stroke:#000000;stroke-width:1;" x1="0" x2="1017.8911" y1="153.0391" y2="153.0391"/><rect fill="#EEEEEE" height="24.2969" rx="5" ry="5" style="stroke:#000000;stroke-width:2;" width="128.8711" x="444.51" y="138.8906"/><text fill="#000000" font-family="'Arial'" font-size="14" font-weight="700" lengthAdjust="spacing" textLength="109.9971" x="450.51" y="155.8857">Initialisierung</text><g class="message" data-entity-1="part1" data-entity-2="part2" data-source-line="61" id="msg1"><line style="stroke:#111827;stroke-width:1;" x1="386.999" x2="376.999" y1="194.3203" y2="190.3203"/><line style="stroke:#111827;stroke-width:1;" x1="386.999" x2="376.999" y1="194.3203" y2="198.3203"/><line style="stroke:#111827;stroke-width:1;" x1="127.0293" x2="387.999" y1="194.3203" y2="194.3203"/><text fill="#000000" font-family="'Arial'" font-size="13" font-weight="700" lengthAdjust="spacing" textLength="9.0454" x="134.0293" y="189.2544">1</text><text fill="#000000" font-family="'Arial'" font-size="13" lengthAdjust="spacing" textLength="121.9639" x="147.0747" y="189.2544">POST $readtowrite</text></g><path d="M5,212.3203 L5,244.3203 A5,5 0 0 0 10,249.3203 L232,249.3203 A5,5 0 0 0 237,244.3203 L237,217.3203 L227,207.3203 L10,207.3203 A5,5 0 0 0 5,212.3203" fill="url(#g1avxyw1eazzgj0)" filter="url(#f1avxyw1eazzgj)" style="stroke:#8B95A5;stroke-width:1;"/><path d="M227,207.3203 L227,214.8203 A2.5,2.5 0 0 0 229.5,217.3203 L237,217.3203 L227,207.3203" fill="url(#g1avxyw1eazzgj0)" style="stroke:#8B95A5;stroke-width:1;"/><text fill="#111827" font-family="'Arial'" font-size="14" lengthAdjust="spacing" textLength="177.9053" x="11" y="225.3154">Medikationsplan abrufen,</text><text fill="#111827" font-family="'Arial'" font-size="14" lengthAdjust="spacing" textLength="211.5859" x="11" y="241.6123">mit der Intention zu schreiben</text><g class="message" data-entity-1="part2" data-entity-2="part2" data-source-line="70" id="msg2"><line style="stroke:#111827;stroke-width:1;" x1="398.999" x2="440.999" y1="294.1797" y2="294.1797"/><line style="stroke:#111827;stroke-width:1;" x1="440.999" x2="440.999" y1="294.1797" y2="307.1797"/><line style="stroke:#111827;stroke-width:1;" x1="399.999" x2="440.999" y1="307.1797" y2="307.1797"/><polygon fill="#111827" points="409.999,303.1797,399.999,307.1797,409.999,311.1797,405.999,307.1797" style="stroke:#111827;stroke-width:1;"/><text fill="#000000" font-family="'Arial'" font-size="13" font-weight="700" lengthAdjust="spacing" textLength="9.0454" x="405.999" y="281.5474">2</text><text fill="#000000" font-family="'Arial'" font-size="13" lengthAdjust="spacing" textLength="164.8613" x="419.0444" y="273.981">Pr&#252;fung auf bestehenden</text><text fill="#000000" font-family="'Arial'" font-size="13" lengthAdjust="spacing" textLength="106.3169" x="419.0444" y="289.1138">Medikationsplan</text></g><g class="message" data-entity-1="part2" data-entity-2="part2" data-source-line="72" id="msg3"><line style="stroke:#111827;stroke-width:1;" x1="398.999" x2="440.999" y1="366.5781" y2="366.5781"/><line style="stroke:#111827;stroke-width:1;" x1="440.999" x2="440.999" y1="366.5781" y2="379.5781"/><line style="stroke:#111827;stroke-width:1;" x1="399.999" x2="440.999" y1="379.5781" y2="379.5781"/><polygon fill="#111827" points="409.999,375.5781,399.999,379.5781,409.999,383.5781,405.999,379.5781" style="stroke:#111827;stroke-width:1;"/><text fill="#000000" font-family="'Arial'" font-size="13" font-weight="700" lengthAdjust="spacing" textLength="9.0454" x="405.999" y="346.3794">3</text><text fill="#000000" font-family="'Arial'" font-size="13" lengthAdjust="spacing" textLength="138.6011" x="419.0444" y="331.2466">Kein Plan vorhanden:</text><text fill="#000000" font-family="'Arial'" font-size="13" lengthAdjust="spacing" textLength="316.5449" x="419.0444" y="346.3794">Fachanwendung erzeugt leeren Medikationsplan</text><text fill="#000000" font-family="'Arial'" font-size="13" lengthAdjust="spacing" textLength="214.1064" x="423.1768" y="361.5122">mit emptyReason = "notstarted"</text></g><g class="message" data-entity-1="part2" data-entity-2="part1" data-source-line="73" id="msg4"><line style="stroke:#111827;stroke-width:1;" x1="123.0293" x2="133.0293" y1="408.7109" y2="404.7109"/><line style="stroke:#111827;stroke-width:1;" x1="123.0293" x2="133.0293" y1="408.7109" y2="412.7109"/><line style="stroke:#111827;stroke-width:1;stroke-dasharray:2,2;" x1="122.0293" x2="392.999" y1="408.7109" y2="408.7109"/><text fill="#000000" font-family="'Arial'" font-size="13" font-weight="700" lengthAdjust="spacing" textLength="9.0454" x="139.0293" y="403.645">4</text><text fill="#000000" font-family="'Arial'" font-size="13" lengthAdjust="spacing" textLength="152.3755" x="152.0747" y="403.645">Leerer Medikationsplan</text></g><g class="footer" data-source-line="78"><text fill="#000000" font-family="'Arial'" font-size="10" lengthAdjust="spacing" textLength="244.8486" x="386.0212" y="516.29">Sub_UC_06_01 - Initial erstellter Medikationsplan</text></g><?plantuml-src RLHHRzem47xthpYbUnmIIKjBAr69TkqsRTrGQTyg8IU-58jWPuvJsaxxPtlR7zlP170Wve5mTz_TztqNKosaAhdXIqYr4MYkTQ4D7FNzOTKkoxF5iz6r4ar5Fd2VeAAQSw5NKZr3peiAWqm3CmeDn65JWJcl2tkhbVt1bmZHs4XUHDqLK_cE49zq9zkqWngbBS9l1d2rBm3xECZxlICHYtCyTHMX0SFqVC07s-Z3N6OBXLK5CSNk0q53-ZtXGZZXhal09exZON96iUdM6cjgP7z2Wb_UIZI5L8j0mirDLy6Z4lu16uD3x_5NZIfRAvrmOsKcIwviIzB0dxs2WxNwqouwDFWWlLbEAx6n9N60iJ5wjM-C3xQzzQ6kYTl4UjOnXJuJyxAbSTjvdJhOEUQ9LnSWT-EJzcQkz6kWe1NlyfMb-XMY9qNDFuqX1eZWw3odU-DSuPcbKahCOk0LHBuaOgW4tRlN0EiFzkvGm2tFvbojgAOc2kj3FQzFXcTdxgqhTqu34c1sE_Qz6_IukxsRdFX6AN9CiKKksP9BEj0JRYNIC0_csV4mtO8tAGTldeC6ZDTMgtgPec5iD8AlIbgwwBAIQ9osqOYnjJUzoykDbWkO_9m-m0U3N5YzCj8Yes7oXTEDzjMC-TkjNx2nbX5IBcYyLbLPS0KyDNMEwYEmfRJqVs5ej2LkL03lDLJPtA1CKNcghXdRZMXei8srlP2P-VStTynvdKEAbSKvTK3rfFOOi4xuDvJafYFueWtjc90NJwgzRpJlM3zRA10DAjZhIzjmYd1PshTxv1Nf6K542YfBRmMAQ3VNMUhTkO3lhfU10uu23rG7eSRhZ7mZSAwr-vhMwUpnUjO_dVLfQvkD4cloeYZiuPJ_?></g></svg>