<svg xmlns="http://www.w3.org/2000/svg" xmlns:xlink="http://www.w3.org/1999/xlink" contentStyleType="text/css" data-diagram-type="SEQUENCE" height="496px" preserveAspectRatio="none" style="width:1032px;height:496px;background:#F5F5F5;" version="1.1" viewBox="0 0 1032 496" width="1032px" zoomAndPan="magnify"><?plantuml 1.2026.3beta6?><defs><linearGradient id="g1bvv9znmtcb7j0" x1="50%" x2="50%" y1="0%" y2="100%"><stop offset="0%" stop-color="#E0E5F0"/><stop offset="100%" stop-color="#D1D9E6"/></linearGradient><filter height="300%" id="f1bvv9znmtcb7j" width="300%" x="-1" y="-1"><feGaussianBlur result="blurOut" stdDeviation="2"/><feColorMatrix in="blurOut" result="blurOut2" type="matrix" values="0 0 0 0 0 0 0 0 0 0 0 0 0 0 0 0 0 0 .4 0"/><feOffset dx="4" dy="4" in="blurOut2" result="blurOut3"/><feBlend in="SourceGraphic" in2="blurOut3" mode="normal"/></filter></defs><g><rect fill="#F5F5F5" height="496" style="stroke:none;stroke-width:1;" width="1032" x="0" y="0"/><rect fill="#9FBAC4" height="470.8438" rx="5" ry="5" style="stroke:#181818;stroke-width:0.5;" width="74.0586" x="21" y="6"/><text fill="#000000" font-family="'Arial'" font-size="14" font-weight="700" lengthAdjust="spacing" textLength="4.874" x="24" y="18.9951">&#160;</text><text fill="#000000" font-family="'Arial'" font-size="14" font-weight="700" lengthAdjust="spacing" textLength="48.5625" x="33.748" y="35.292">GDA 1</text><rect fill="#C48778" height="470.8438" rx="5" ry="5" style="stroke:#181818;stroke-width:0.5;" width="256.9268" x="238.1426" y="6"/><text fill="#000000" font-family="'Arial'" font-size="14" font-weight="700" lengthAdjust="spacing" textLength="4.874" x="241.1426" y="18.9951">&#160;</text><text fill="#000000" font-family="'Arial'" font-size="14" font-weight="700" lengthAdjust="spacing" textLength="182.6904" x="275.2607" y="35.292">e-Med Fachanwendung</text><rect fill="#BEAEBE" height="470.8438" rx="5" ry="5" style="stroke:#181818;stroke-width:0.5;" width="83.8066" x="801.8086" y="6"/><text fill="#000000" font-family="'Arial'" font-size="14" font-weight="700" lengthAdjust="spacing" textLength="4.874" x="804.8086" y="18.9951">&#160;</text><text fill="#000000" font-family="'Arial'" font-size="14" font-weight="700" lengthAdjust="spacing" textLength="48.5625" x="824.3047" y="35.292">GDA 2</text><rect fill="#BAC38B" height="470.8438" rx="5" ry="5" style="stroke:#181818;stroke-width:0.5;" width="77.9756" x="927.6152" y="6"/><text fill="#000000" font-family="'Arial'" font-size="14" font-weight="700" lengthAdjust="spacing" textLength="4.874" x="930.6152" y="18.9951">&#160;</text><text fill="#000000" font-family="'Arial'" font-size="14" font-weight="700" lengthAdjust="spacing" textLength="57.3535" x="935.4893" y="35.292">Patient</text><g><title>GDA 1</title><rect fill="#FFFFFF" height="229.5234" style="stroke:#181818;stroke-width:1;" width="10" x="53.0293" y="150.0234"/></g><g><title>e-Med FA</title><rect fill="#FFFFFF" height="229.5234" style="stroke:#181818;stroke-width:1;" width="10" x="361.606" y="150.0234"/></g><g class="participant-lifeline" data-entity-uid="part1" data-qualified-name="GDA_1" data-source-line="41" id="part1-lifeline"><g><title>GDA 1</title><rect fill="#000000" fill-opacity="0.00000" height="278.6563" width="8" x="54.0293" y="118.8906"/><line style="stroke:#181818;stroke-width:0.5;stroke-dasharray:5,5;" x1="57.7476" x2="57.7476" y1="118.8906" y2="397.5469"/></g></g><g class="participant-lifeline" data-entity-uid="part2" data-qualified-name="eMed_FA" data-source-line="45" id="part2-lifeline"><g><title>e-Med FA</title><rect fill="#000000" fill-opacity="0.00000" height="278.6563" width="8" x="362.606" y="118.8906"/><line style="stroke:#181818;stroke-width:0.5;stroke-dasharray:5,5;" x1="365.9438" x2="365.9438" y1="118.8906" y2="397.5469"/></g></g><g class="participant-lifeline" data-entity-uid="part3" data-qualified-name="GDA_2" data-source-line="49" id="part3-lifeline"><g><title>GDA 2</title><rect fill="#000000" fill-opacity="0.00000" height="278.6563" width="8" x="839.7119" y="118.8906"/><line style="stroke:#181818;stroke-width:0.5;stroke-dasharray:5,5;" x1="843.4302" x2="843.4302" y1="118.8906" y2="397.5469"/></g></g><g class="participant-lifeline" data-entity-uid="part4" data-qualified-name="Patient" data-source-line="53" id="part4-lifeline"><g><title>Patient</title><rect fill="#000000" fill-opacity="0.00000" height="278.6563" width="8" x="962.603" y="118.8906"/><line style="stroke:#181818;stroke-width:0.5;stroke-dasharray:5,5;" x1="965.915" x2="965.915" y1="118.8906" y2="397.5469"/></g></g><g class="participant participant-head" data-entity-uid="part1" data-qualified-name="GDA_1" data-source-line="41" id="part1-head"><text fill="#000000" font-family="'Arial'" font-size="14" lengthAdjust="spacing" textLength="44.5635" x="32.7476" y="115.5889">GDA 1</text><ellipse cx="58.0293" cy="51.0938" fill="#E2E2F0" rx="8" ry="8" style="stroke:#181818;stroke-width:0.5;"/><path d="M58.0293,59.0938 L58.0293,86.0938 M45.0293,67.0938 L71.0293,67.0938 M58.0293,86.0938 L45.0293,101.0938 M58.0293,86.0938 L71.0293,101.0938" fill="none" style="stroke:#181818;stroke-width:0.5;"/></g><g class="participant participant-tail" data-entity-uid="part1" data-qualified-name="GDA_1" data-source-line="41" id="part1-tail"><text fill="#000000" font-family="'Arial'" font-size="14" lengthAdjust="spacing" textLength="44.5635" x="32.7476" y="409.542">GDA 1</text><ellipse cx="58.0293" cy="421.3438" fill="#E2E2F0" rx="8" ry="8" style="stroke:#181818;stroke-width:0.5;"/><path d="M58.0293,429.3438 L58.0293,456.3438 M45.0293,437.3438 L71.0293,437.3438 M58.0293,456.3438 L45.0293,471.3438 M58.0293,456.3438 L71.0293,471.3438" fill="none" style="stroke:#181818;stroke-width:0.5;"/></g><g class="participant participant-head" data-entity-uid="part2" data-qualified-name="eMed_FA" data-source-line="45" id="part2-head"><rect fill="#FFFFFF" height="30.2969" rx="5" ry="5" style="stroke:#555555;stroke-width:0.5;" width="79.3242" x="326.9438" y="87.5938"/><text fill="#000000" font-family="'Arial'" font-size="14" lengthAdjust="spacing" textLength="65.3242" x="333.9438" y="107.5889">e-Med FA</text></g><g class="participant participant-tail" data-entity-uid="part2" data-qualified-name="eMed_FA" data-source-line="45" id="part2-tail"><rect fill="#FFFFFF" height="30.2969" rx="5" ry="5" style="stroke:#555555;stroke-width:0.5;" width="79.3242" x="326.9438" y="396.5469"/><text fill="#000000" font-family="'Arial'" font-size="14" lengthAdjust="spacing" textLength="65.3242" x="333.9438" y="416.542">e-Med FA</text></g><g class="participant participant-head" data-entity-uid="part3" data-qualified-name="GDA_2" data-source-line="49" id="part3-head"><text fill="#000000" font-family="'Arial'" font-size="14" lengthAdjust="spacing" textLength="44.5635" x="818.4302" y="115.5889">GDA 2</text><ellipse cx="843.7119" cy="51.0938" fill="#E2E2F0" rx="8" ry="8" style="stroke:#181818;stroke-width:0.5;"/><path d="M843.7119,59.0938 L843.7119,86.0938 M830.7119,67.0938 L856.7119,67.0938 M843.7119,86.0938 L830.7119,101.0938 M843.7119,86.0938 L856.7119,101.0938" fill="none" style="stroke:#181818;stroke-width:0.5;"/></g><g class="participant participant-tail" data-entity-uid="part3" data-qualified-name="GDA_2" data-source-line="49" id="part3-tail"><text fill="#000000" font-family="'Arial'" font-size="14" lengthAdjust="spacing" textLength="44.5635" x="818.4302" y="409.542">GDA 2</text><ellipse cx="843.7119" cy="421.3438" fill="#E2E2F0" rx="8" ry="8" style="stroke:#181818;stroke-width:0.5;"/><path d="M843.7119,429.3438 L843.7119,456.3438 M830.7119,437.3438 L856.7119,437.3438 M843.7119,456.3438 L830.7119,471.3438 M843.7119,456.3438 L856.7119,471.3438" fill="none" style="stroke:#181818;stroke-width:0.5;"/></g><g class="participant participant-head" data-entity-uid="part4" data-qualified-name="Patient" data-source-line="53" id="part4-head"><text fill="#000000" font-family="'Arial'" font-size="14" lengthAdjust="spacing" textLength="49.376" x="938.915" y="115.5889">Patient</text><ellipse cx="966.603" cy="51.0938" fill="#E2E2F0" rx="8" ry="8" style="stroke:#181818;stroke-width:0.5;"/><path d="M966.603,59.0938 L966.603,86.0938 M953.603,67.0938 L979.603,67.0938 M966.603,86.0938 L953.603,101.0938 M966.603,86.0938 L979.603,101.0938" fill="none" style="stroke:#181818;stroke-width:0.5;"/></g><g class="participant participant-tail" data-entity-uid="part4" data-qualified-name="Patient" data-source-line="53" id="part4-tail"><text fill="#000000" font-family="'Arial'" font-size="14" lengthAdjust="spacing" textLength="49.376" x="938.915" y="409.542">Patient</text><ellipse cx="966.603" cy="421.3438" fill="#E2E2F0" rx="8" ry="8" style="stroke:#181818;stroke-width:0.5;"/><path d="M966.603,429.3438 L966.603,456.3438 M953.603,437.3438 L979.603,437.3438 M966.603,456.3438 L953.603,471.3438 M966.603,456.3438 L979.603,471.3438" fill="none" style="stroke:#181818;stroke-width:0.5;"/></g><g><title>GDA 1</title><rect fill="#FFFFFF" height="229.5234" style="stroke:#181818;stroke-width:1;" width="10" x="53.0293" y="150.0234"/></g><g><title>e-Med FA</title><rect fill="#FFFFFF" height="229.5234" style="stroke:#181818;stroke-width:1;" width="10" x="361.606" y="150.0234"/></g><g class="message" data-entity-1="part1" data-entity-2="part2" data-source-line="59" id="msg1"><line style="stroke:#111827;stroke-width:1;" x1="359.606" x2="349.606" y1="150.0234" y2="146.0234"/><line style="stroke:#111827;stroke-width:1;" x1="359.606" x2="349.606" y1="150.0234" y2="154.0234"/><line style="stroke:#111827;stroke-width:1;" x1="63.0293" x2="360.606" y1="150.0234" y2="150.0234"/><text fill="#000000" font-family="'Arial'" font-size="13" font-weight="700" lengthAdjust="spacing" textLength="9.0454" x="70.0293" y="144.9575">1</text><text fill="#000000" font-family="'Arial'" font-size="13" lengthAdjust="spacing" textLength="121.9639" x="83.0747" y="144.9575">POST $readtowrite</text></g><path d="M18,168.0234 L18,200.0234 A5,5 0 0 0 23,205.0234 L401,205.0234 A5,5 0 0 0 406,200.0234 L406,173.0234 L396,163.0234 L23,163.0234 A5,5 0 0 0 18,168.0234" fill="url(#g1bvv9znmtcb7j0)" filter="url(#f1bvv9znmtcb7j)" style="stroke:#8B95A5;stroke-width:1;"/><path d="M396,163.0234 L396,170.5234 A2.5,2.5 0 0 0 398.5,173.0234 L406,173.0234 L396,163.0234" fill="url(#g1bvv9znmtcb7j0)" style="stroke:#8B95A5;stroke-width:1;"/><text fill="#111827" font-family="'Arial'" font-size="14" lengthAdjust="spacing" textLength="177.9053" x="100.4673" y="181.0186">Medikationsplan abrufen,</text><text fill="#111827" font-family="'Arial'" font-size="14" lengthAdjust="spacing" textLength="211.5859" x="100.4673" y="197.3154">mit der Intention zu schreiben</text><g class="message" data-entity-1="part2" data-entity-2="part2" data-source-line="68" id="msg2"><line style="stroke:#111827;stroke-width:1;" x1="371.606" x2="413.606" y1="249.8828" y2="249.8828"/><line style="stroke:#111827;stroke-width:1;" x1="413.606" x2="413.606" y1="249.8828" y2="262.8828"/><line style="stroke:#111827;stroke-width:1;" x1="372.606" x2="413.606" y1="262.8828" y2="262.8828"/><polygon fill="#111827" points="382.606,258.8828,372.606,262.8828,382.606,266.8828,378.606,262.8828" style="stroke:#111827;stroke-width:1;"/><text fill="#000000" font-family="'Arial'" font-size="13" font-weight="700" lengthAdjust="spacing" textLength="9.0454" x="378.606" y="237.2505">2</text><text fill="#000000" font-family="'Arial'" font-size="13" lengthAdjust="spacing" textLength="164.8613" x="391.6514" y="229.6841">Pr&#252;fung auf bestehenden</text><text fill="#000000" font-family="'Arial'" font-size="13" lengthAdjust="spacing" textLength="106.3169" x="391.6514" y="244.8169">Medikationsplan</text></g><g class="message" data-entity-1="part2" data-entity-2="part2" data-source-line="70" id="msg3"><line style="stroke:#111827;stroke-width:1;" x1="371.606" x2="413.606" y1="322.2813" y2="322.2813"/><line style="stroke:#111827;stroke-width:1;" x1="413.606" x2="413.606" y1="322.2813" y2="335.2813"/><line style="stroke:#111827;stroke-width:1;" x1="372.606" x2="413.606" y1="335.2813" y2="335.2813"/><polygon fill="#111827" points="382.606,331.2813,372.606,335.2813,382.606,339.2813,378.606,335.2813" style="stroke:#111827;stroke-width:1;"/><text fill="#000000" font-family="'Arial'" font-size="13" font-weight="700" lengthAdjust="spacing" textLength="9.0454" x="378.606" y="302.0825">3</text><text fill="#000000" font-family="'Arial'" font-size="13" lengthAdjust="spacing" textLength="158.2026" x="391.6514" y="286.9497">Wenn Plan vorhanden +</text><text fill="#000000" font-family="'Arial'" font-size="13" lengthAdjust="spacing" textLength="342.7734" x="391.6514" y="302.0825">alle List.enty.flags im Medikationsplan = "removed":</text><text fill="#000000" font-family="'Arial'" font-size="13" lengthAdjust="spacing" textLength="352.6377" x="391.6514" y="317.2153">Fachanwendung setzt List.emptyReason = "nilknown"</text></g><g class="message" data-entity-1="part2" data-entity-2="part1" data-source-line="72" id="msg4"><line style="stroke:#111827;stroke-width:1;" x1="59.0293" x2="69.0293" y1="379.5469" y2="375.5469"/><line style="stroke:#111827;stroke-width:1;" x1="59.0293" x2="69.0293" y1="379.5469" y2="383.5469"/><line style="stroke:#111827;stroke-width:1;stroke-dasharray:2,2;" x1="58.0293" x2="365.606" y1="379.5469" y2="379.5469"/><text fill="#000000" font-family="'Arial'" font-size="13" font-weight="700" lengthAdjust="spacing" textLength="9.0454" x="75.0293" y="366.9146">4</text><text fill="#000000" font-family="'Arial'" font-size="13" lengthAdjust="spacing" textLength="152.3755" x="88.0747" y="359.3481">Leerer Medikationsplan</text><text fill="#000000" font-family="'Arial'" font-size="13" lengthAdjust="spacing" textLength="188.9824" x="88.0747" y="374.481">(emptyReason = "nilknown")</text></g><g class="footer" data-source-line="77"><text fill="#000000" font-family="'Arial'" font-size="10" lengthAdjust="spacing" textLength="356.8213" x="334.3848" y="487.126">Sub_UC_06_02 - Leerer Medikationsplan (keine Medikation einnehmen)</text></g><?plantuml-src TLHHJzim47xthpY5FO16KPDHA4X3AWosIMohA6WlbIedkL2hYTqv3WMc_REzxO_jxAQjqmRd8SdTVTzzzpbEEHDopZKl85OwHNsbSgLXh-iMApTPdimUjQfaMbTaFNjv5UMKfseXv2DaF2_HozGmBL53w9EccF4gDpTAck-yG0W6Ml0yQAyOYLU4yBWzsPJjrKXb47upWClj0R2BlQpRsKl3z0nFR8LlG3y-w_7UEde_5SbCObb2IB4xRw0-lGzvcjh1BOkd9Wp3VdHAiT7Q6gChP7zyWLzUvgXp8MVU2DVNRGKFCdKFM1liUu-_AfJ9Sj8XrqOaOiwbQOpKSskhO6TRtMeMxHgyarvjJYEniYMoW87MQh5jZ0islNMXjexhnBBN1mfz9kNpnenhvcLgPyynYznq7dBJFchkpALwzYPenDjyPR5wXc0iYVpJ04A00FRECZetrXMU62gbn2G4NaBWIWA6CgLpz-nXtSBEDqpXXYTJBXTKKv64vIBEg-F-wQdzwkORfm49CBaPEEuQFMYdjvqZHnGZnnWRugArkAW5FUH683LpO9vywCThy2fbuVMpHy1uPPIiYXWrOqiJEXSNAz7dCFmnkeTt6dbgr48BWunOnHEde-kg6NF7M3rXxU7X2ile9cRKKCboddC9FDPLXlAG5SBG3qB3Lsb83ENXjO8ocMeKCKgdpPAoJQiLvShBZgzG__kRsMtWLGOnbWQdn81oBBS4i5RuJvHadzNtf3HjAY7X_LZoF4Uu5QKv8ealHrdE7qiG1MmFzH42ZGMDdmRdOzdyBaeqhwOcAURcvGvvgHn4YdmcrK86dYPhktFm76uHDVcprMiizz-YEM0inHstl52zLmaDGyIPKlOsgkB9mzMaUpBfHj1veolipz3-s3PXe7U9qmBbmNy0?></g></svg>