<?xml version="1.0" encoding="us-ascii" standalone="no"?><svg xmlns="http://www.w3.org/2000/svg" xmlns:xlink="http://www.w3.org/1999/xlink" contentStyleType="text/css" height="664px" preserveAspectRatio="none" style="width:521px;height:664px;background:#F5F5F5;" version="1.1" viewBox="0 0 521 664" width="521px" zoomAndPan="magnify"><defs><linearGradient id="g1cok72akzqhra0" x1="50%" x2="50%" y1="0%" y2="100%"><stop offset="0%" stop-color="#E0E5F0"/><stop offset="100%" stop-color="#D1D9E6"/></linearGradient></defs><g><rect fill="#F5F5F5" height="664" style="stroke:none;stroke-width:1.0;" width="521" x="0" y="0"/><text fill="#000000" font-family="Arial" font-size="14" font-weight="bold" lengthAdjust="spacing" textLength="173" x="170.25" y="28.1318">Geplante Abgaben lesen</text><text fill="#000000" font-family="Arial" font-size="14" font-weight="bold" lengthAdjust="spacing" textLength="406" x="53.75" y="44.2305">Variante A: Zugriff mittels Kontaktbest&#228;tigung (z.B. e-card)</text><rect fill="#156082" fill-opacity="0.50196" height="28.9487" style="stroke:#181818;stroke-width:1.0;" width="10" x="149.5" y="309.1855"/><rect fill="#E97232" fill-opacity="0.74118" height="28.9487" style="stroke:#181818;stroke-width:1.0;" width="10" x="431.5" y="309.1855"/><rect fill="none" height="307.7813" rx="5" ry="5" style="stroke:#111827;stroke-width:2.0;" width="494.5" x="10" y="226.4419"/><line style="stroke:#181818;stroke-width:0.5;stroke-dasharray:5.0,5.0;" x1="154" x2="154" y1="166.4932" y2="551.2231"/><line style="stroke:#181818;stroke-width:0.5;stroke-dasharray:5.0,5.0;" x1="436.5" x2="436.5" y1="166.4932" y2="551.2231"/><text fill="#000000" font-family="Arial" font-size="14" lengthAdjust="spacing" textLength="30" x="136.5" y="131.3291">GDA</text><text fill="#000000" font-family="Arial" font-size="14" lengthAdjust="spacing" textLength="28" x="137.5" y="147.4277">Arzt/</text><text fill="#000000" font-family="Arial" font-size="14" lengthAdjust="spacing" textLength="65" x="119" y="163.5264">Apotheker</text><ellipse cx="154.5" cy="66.6973" fill="#156082" fill-opacity="0.50196" rx="8" ry="8" style="stroke:#181818;stroke-width:0.5;"/><path d="M154.5,74.6973 L154.5,101.6973 M141.5,82.6973 L167.5,82.6973 M154.5,101.6973 L141.5,116.6973 M154.5,101.6973 L167.5,116.6973 " fill="none" style="stroke:#181818;stroke-width:0.5;"/><text fill="#000000" font-family="Arial" font-size="14" lengthAdjust="spacing" textLength="30" x="136.5" y="563.355">GDA</text><text fill="#000000" font-family="Arial" font-size="14" lengthAdjust="spacing" textLength="28" x="137.5" y="579.4536">Arzt/</text><text fill="#000000" font-family="Arial" font-size="14" lengthAdjust="spacing" textLength="65" x="119" y="595.5522">Apotheker</text><ellipse cx="154.5" cy="607.019" fill="#156082" fill-opacity="0.50196" rx="8" ry="8" style="stroke:#181818;stroke-width:0.5;"/><path d="M154.5,615.019 L154.5,642.019 M141.5,623.019 L167.5,623.019 M154.5,642.019 L141.5,657.019 M154.5,642.019 L167.5,657.019 " fill="none" style="stroke:#181818;stroke-width:0.5;"/><rect fill="#E97232" fill-opacity="0.74118" height="30.0986" rx="5" ry="5" style="stroke:#555555;stroke-width:0.5;" width="76" x="398.5" y="135.3945"/><text fill="#000000" font-family="Arial" font-size="14" lengthAdjust="spacing" textLength="62" x="405.5" y="155.5264">e-Med FA</text><rect fill="#E97232" fill-opacity="0.74118" height="30.0986" rx="5" ry="5" style="stroke:#555555;stroke-width:0.5;" width="76" x="398.5" y="550.2231"/><text fill="#000000" font-family="Arial" font-size="14" lengthAdjust="spacing" textLength="62" x="405.5" y="570.355">e-Med FA</text><rect fill="#156082" fill-opacity="0.50196" height="28.9487" style="stroke:#181818;stroke-width:1.0;" width="10" x="149.5" y="309.1855"/><rect fill="#E97232" fill-opacity="0.74118" height="28.9487" style="stroke:#181818;stroke-width:1.0;" width="10" x="431.5" y="309.1855"/><rect fill="#EEEEEE" height="3" rx="5" ry="5" style="stroke:#EEEEEE;stroke-width:1.0;" width="514.5" x="0" y="196.9675"/><line style="stroke:#000000;stroke-width:1.0;" x1="0" x2="514.5" y1="196.9675" y2="196.9675"/><line style="stroke:#000000;stroke-width:1.0;" x1="0" x2="514.5" y1="199.9675" y2="199.9675"/><rect fill="#EEEEEE" height="22.9487" rx="5" ry="5" style="stroke:#000000;stroke-width:2.0;" width="302" x="106.25" y="186.4932"/><text fill="#000000" font-family="Arial" font-size="13" font-weight="bold" lengthAdjust="spacing" textLength="284" x="112.25" y="202.687">Geplante Abgabe + Medikationsplan abrufen</text><path d="M15,226.4419 L76,226.4419 L76,233.3906 L66,243.3906 L10,243.3906 L10,231.4419 A5,5 0 0 1 15,226.4419 " fill="#EEF2FF" style="stroke:#111827;stroke-width:1.5;"/><rect fill="none" height="307.7813" rx="5" ry="5" style="stroke:#111827;stroke-width:2.0;" width="494.5" x="10" y="226.4419"/><text fill="#000000" font-family="Arial" font-size="13" font-weight="bold" lengthAdjust="spacing" textLength="21" x="25" y="239.6357">par</text><text fill="#000000" font-family="Arial" font-size="11" font-weight="bold" lengthAdjust="spacing" textLength="155" x="91" y="238.7598">[Geplante Abgaben abrufen]</text><polygon fill="#111827" points="419.5,305.1855,429.5,309.1855,419.5,313.1855,423.5,309.1855" style="stroke:#111827;stroke-width:1.0;"/><line style="stroke:#111827;stroke-width:1.0;" x1="159.5" x2="425.5" y1="309.1855" y2="309.1855"/><text fill="#000000" font-family="Arial" font-size="13" font-weight="bold" lengthAdjust="spacing" textLength="7" x="166.5" y="282.0076">1</text><text fill="#000000" font-family="Arial" font-size="13" lengthAdjust="spacing" textLength="247" x="177.5" y="259.5845">GET MedicationRequest mit Suchkriterien:</text><text fill="#000000" font-family="Arial" font-size="13" lengthAdjust="spacing" textLength="184" x="177.5" y="274.5332">- category = "Geplante Abgabe"</text><text fill="#000000" font-family="Arial" font-size="13" lengthAdjust="spacing" textLength="93" x="177.5" y="289.4819">- status = active</text><text fill="#000000" font-family="Arial" font-size="13" lengthAdjust="spacing" textLength="141" x="177.5" y="304.4307">- validityPeriod (optional)</text><polygon fill="#111827" points="165.5,334.1343,155.5,338.1343,165.5,342.1343,161.5,338.1343" style="stroke:#111827;stroke-width:1.0;"/><line style="stroke:#111827;stroke-width:1.0;stroke-dasharray:2.0,2.0;" x1="159.5" x2="435.5" y1="338.1343" y2="338.1343"/><text fill="#000000" font-family="Arial" font-size="13" font-weight="bold" lengthAdjust="spacing" textLength="7" x="171.5" y="333.3794">2</text><text fill="#000000" font-family="Arial" font-size="13" lengthAdjust="spacing" textLength="107" x="182.5" y="333.3794">Geplante Abgaben</text><path d="M41,356.1343 L41,400.1343 A5,5 0 0 0 46,405.1343 L262,405.1343 A5,5 0 0 0 267,400.1343 L267,361.1343 L257,351.1343 L46,351.1343 A5,5 0 0 0 41,356.1343 " fill="url(#g1cok72akzqhra0)" style="stroke:#8B95A5;stroke-width:1.0;"/><path d="M257,351.1343 L257,358.6343 A2.5,2.5 0 0 0 259.5,361.1343 L267,361.1343 L257,351.1343 " fill="url(#g1cok72akzqhra0)" style="stroke:#8B95A5;stroke-width:1.0;"/><text fill="#111827" font-family="Arial" font-size="13" lengthAdjust="spacing" textLength="164" x="47" y="368.3281">GDA erh&#228;lt alle offenen bzw.</text><text fill="#111827" font-family="Arial" font-size="13" lengthAdjust="spacing" textLength="205" x="47" y="383.2769">im relevanten Zeitraum vorliegenden</text><text fill="#111827" font-family="Arial" font-size="13" lengthAdjust="spacing" textLength="198" x="47" y="398.2256">Geplanten Abgaben des Patienten</text><line style="stroke:#111827;stroke-width:1.0;stroke-dasharray:2.0,2.0;" x1="10" x2="504.5" y1="411.9805" y2="411.9805"/><text fill="#000000" font-family="Arial" font-size="11" font-weight="bold" lengthAdjust="spacing" textLength="145" x="15" y="422.2983">[Medikationsplan abrufen]</text><rect fill="none" height="38.7476" rx="5" ry="5" style="stroke:#000000;stroke-width:1.5;" width="381.5" x="116" y="425.6294"/><path d="M121,425.6294 L178,425.6294 L178,431.6294 L168,441.6294 L116,441.6294 L116,430.6294 A5,5 0 0 1 121,425.6294 " fill="#EEEEEE" style="stroke:#000000;stroke-width:2.0;"/><text fill="#000000" font-family="Arial" font-size="13" font-weight="bold" lengthAdjust="spacing" textLength="17" x="129" y="439.8232">ref</text><a href="interactions.html#sequenzdiagramm-plan-read" target="_top" title="interactions.html#sequenzdiagramm-plan-read" xlink:actuate="onRequest" xlink:href="interactions.html#sequenzdiagramm-plan-read" xlink:show="new" xlink:title="interactions.html#sequenzdiagramm-plan-read" xlink:type="simple"><text fill="#0000EE" font-family="Arial" font-size="12" lengthAdjust="spacing" textLength="59" x="277.25" y="456.8853">Plan-Read</text></a><path d="M20,479.377 L20,523.377 A5,5 0 0 0 25,528.377 L284,528.377 A5,5 0 0 0 289,523.377 L289,484.377 L279,474.377 L25,474.377 A5,5 0 0 0 20,479.377 " fill="url(#g1cok72akzqhra0)" style="stroke:#8B95A5;stroke-width:1.0;"/><path d="M279,474.377 L279,481.877 A2.5,2.5 0 0 0 281.5,484.377 L289,484.377 L279,474.377 " fill="url(#g1cok72akzqhra0)" style="stroke:#8B95A5;stroke-width:1.0;"/><text fill="#111827" font-family="Arial" font-size="13" lengthAdjust="spacing" textLength="187" x="26" y="491.5708">GDA erh&#228;lt Medikationsplan und</text><text fill="#111827" font-family="Arial" font-size="13" lengthAdjust="spacing" textLength="234" x="26" y="506.5195">kann die Geplanten Abgaben im Kontext</text><text fill="#111827" font-family="Arial" font-size="13" lengthAdjust="spacing" textLength="248" x="26" y="521.4683">der bestehenden Gesamtmedikation pr&#252;fen</text><!--SRC=[bLPHSzf647xNhzZ20yaqk4W4CCpG6OXbjvCcC9ZsmN66ET0ARf1Eokc4OphzD_aPVVCVwzu9X2H8EvKVB7Q_tVtsksKFnLM0S8Tnm8H262tNR8a20anGF8e_cEIPVG0FwLfotuUGAuL10kyZeTXMBJ5HBzyKNwTY3Q_sL-ChmEQAIU-rPJMIBHSnaom4jbAHl5VFL8mzOHA5Q5adxpAI7iftKH19gBVCK_IorNOjerHu1uJVqNy5HB9XNlJ4YO7FWWGBdaEO52Z1BYRrq6Tfe6wfYuyiHAYDgDMWLkHSWDppFOBzzdByztZ_yXoZ3BZO5W2kUmdmk_3C2vxn7qTVfyppT6jEgsmV5qNhcAUegOZetFwq0CPL-R257R_Lh7ksryUkHXGpNI_x7TR9hVCDNsq59WdOP9iLv6pHvoCtdQKWXMtRrqwFRFULW_cho331BocALSPoogJYAnxJk5rgh0Gu5_tCVJomagEW9C18okYfojSOooqRqwMAkIEhrIRJ7SaSb-ZdcJFNsL6Wx_X-EV9Ktj5w_K2JfYVZtUItoMnnTpDQs41FtUvqMzVETUi2m360VhVRwjsS0QQZ-Q_knxdEqE-EdRTdWD5q0kQfjsxxxasdNmMu7zoRnUs80DZlEMrdwLK1Yvdxu4xdK5zvxLxROVrg6vFtKAhXTAefPhF9p03SVizkEssQRRD385E09L2ZjqSnadlr4_sB8xN1BSfQKIWhFXq-u0VqD6qTYatw0BUZMhabgm6bYCKCznYhGqZseLPfadYbAX9fk4HfMSDXTPd2Zq2r-9Of7eb4ku0jPUhJbXqEhGO573E_-N-XLeEuvi573yrIuw1Hy-UyWq6EGxt03okw54FgyXqZVnPSLB7apaMfoA11kQz9jKrieR11U7YMY4H7lHlqOPtVH2UAfwQoWnp0dJit0gsCG3EzJX9b-hjFLvkjv0ebHp5u54qW3AuZ-Gn36fnoaPhs9ugfD26luOVQj6C1zxXwdbAMo8DNKQpBiE0raVbNjKuj7aQk_BqXnD5HqAdQEQ6AOcK1P3HxFThXuPkG2GCeDo_V0fg2W6xOo2V5IBlb_kbAL-Dq3sA0EvrUm0Do9LaQmYwYEmVNI9UFqVT0GEJQUvZG-bGaeRPgsi8pzIrBdzZtXjCYf4I_GF9Dtl00FdtYb4xgpYZkQgF2e9xT17kFipLT365JPsjAP1vCzTkCtZv__i_UgtHepMhIMoQe5OuN6YHXzCyO_Ah0o2r1_vp1ZP64y0aBLPXdXLY-_9tDOYv4wP0oKkIp_W40]--></g></svg>