<svg xmlns="http://www.w3.org/2000/svg" xmlns:xlink="http://www.w3.org/1999/xlink" version="1.1" data-diagram-type="SEQUENCE" style="width:725px;height:905px;background:#F5F5F5;" width="725px" height="905px" viewBox="0 0 725 905" zoomAndPan="magnify" preserveAspectRatio="none" contentStyleType="text/css"><?plantuml 1.2026.7beta3?><defs><linearGradient x1="50%" y1="0%" x2="50%" y2="100%" id="gkusz4qvmsz3d0"><stop stop-color="#E0E5F0" offset="0%"/><stop stop-color="#D1D9E6" offset="100%"/></linearGradient></defs><g><rect x="0" y="0" width="725" height="905" fill="#F5F5F5" style="stroke:none;stroke-width:1;"/><g class="title" data-source-line="1"><text x="89.782" y="27.9951" fill="#000000" font-size="14" lengthAdjust="spacing" textLength="539.0137" font-weight="700" font-family="'Arial'">Geplante Abgabe für bestehende Medikationsplaneinträge erstellen</text><text x="110.447" y="44.292" fill="#000000" font-size="14" lengthAdjust="spacing" textLength="497.6836" font-weight="700" font-family="'Arial'">Variante A: Vorab-Ermittlung des GroupIdentifiers (Normalfall)</text></g><g><title>GDA 1</title><rect x="170.2817" y="144.8906" width="10" height="616.6797" fill="#156082" fill-opacity="0.50196" style="stroke:#181818;stroke-width:1;"/></g><g><title>e-Med FA</title><rect x="401.6206" y="354.8047" width="10" height="123.8594" fill="#E97232" fill-opacity="0.74118" style="stroke:#181818;stroke-width:1;"/></g><g><title>e-Med FA</title><rect x="401.6206" y="679.8438" width="10" height="81.7266" fill="#E97232" fill-opacity="0.74118" style="stroke:#181818;stroke-width:1;"/></g><g><title>e-Rezept</title><rect x="656.4058" y="603.2813" width="10" height="29.1328" fill="#CD3732" fill-opacity="0.66275" style="stroke:#181818;stroke-width:1;"/></g><rect x="9" y="562.5547" width="700.5776" height="243.3125" fill="none" style="stroke:#111827;stroke-width:2;" rx="5" ry="5"/><g class="participant-lifeline" data-qualified-name="GDA_1" data-entity-uid="part1" id="part1-lifeline" data-source-line="52"><g><title>GDA 1</title><rect x="171.2817" y="134.8906" width="8" height="687.9766" fill="#000000" fill-opacity="0.00000"/><line x1="175" y1="134.8906" x2="175" y2="822.8672" style="stroke:#181818;stroke-width:0.5;stroke-dasharray:5,5;"/></g></g><g class="participant-lifeline" data-qualified-name="eMed_FA" data-entity-uid="part2" id="part2-lifeline" data-source-line="53"><g><title>e-Med FA</title><rect x="402.6206" y="134.8906" width="8" height="687.9766" fill="#000000" fill-opacity="0.00000"/><line x1="405.9585" y1="134.8906" x2="405.9585" y2="822.8672" style="stroke:#181818;stroke-width:0.5;stroke-dasharray:5,5;"/></g></g><g class="participant-lifeline" data-qualified-name="e_Rezept" data-entity-uid="part3" id="part3-lifeline" data-source-line="54"><g><title>e-Rezept</title><rect x="657.4058" y="134.8906" width="8" height="687.9766" fill="#000000" fill-opacity="0.00000"/><line x1="661.2339" y1="134.8906" x2="661.2339" y2="822.8672" style="stroke:#181818;stroke-width:0.5;stroke-dasharray:5,5;"/></g></g><g class="participant participant-head" data-qualified-name="GDA_1" data-entity-uid="part1" id="part1-head" data-source-line="52"><text x="150" y="131.5889" fill="#000000" font-size="14" lengthAdjust="spacing" textLength="44.5635" font-family="'Arial'">GDA 1</text><ellipse cx="175.2817" cy="67.0938" rx="8" ry="8" fill="#156082" fill-opacity="0.50196" style="stroke:#181818;stroke-width:0.5;"/><path d="M175.2817,75.0938 L175.2817,102.0938 M162.2817,83.0938 L188.2817,83.0938 M175.2817,102.0938 L162.2817,117.0938 M175.2817,102.0938 L188.2817,117.0938" style="stroke:#181818;stroke-width:0.5;" fill="none"/></g><g class="participant participant-tail" data-qualified-name="GDA_1" data-entity-uid="part1" id="part1-tail" data-source-line="52"><text x="150" y="834.8623" fill="#000000" font-size="14" lengthAdjust="spacing" textLength="44.5635" font-family="'Arial'">GDA 1</text><ellipse cx="175.2817" cy="846.6641" rx="8" ry="8" fill="#156082" fill-opacity="0.50196" style="stroke:#181818;stroke-width:0.5;"/><path d="M175.2817,854.6641 L175.2817,881.6641 M162.2817,862.6641 L188.2817,862.6641 M175.2817,881.6641 L162.2817,896.6641 M175.2817,881.6641 L188.2817,896.6641" style="stroke:#181818;stroke-width:0.5;" fill="none"/></g><g class="participant participant-head" data-qualified-name="eMed_FA" data-entity-uid="part2" id="part2-head" data-source-line="53"><rect x="366.9585" y="103.5938" width="79.3242" height="30.2969" fill="#E97232" fill-opacity="0.74118" style="stroke:#555555;stroke-width:0.5;" rx="5" ry="5"/><text x="373.9585" y="123.5889" fill="#000000" font-size="14" lengthAdjust="spacing" textLength="65.3242" font-family="'Arial'">e-Med FA</text></g><g class="participant participant-tail" data-qualified-name="eMed_FA" data-entity-uid="part2" id="part2-tail" data-source-line="53"><rect x="366.9585" y="821.8672" width="79.3242" height="30.2969" fill="#E97232" fill-opacity="0.74118" style="stroke:#555555;stroke-width:0.5;" rx="5" ry="5"/><text x="373.9585" y="841.8623" fill="#000000" font-size="14" lengthAdjust="spacing" textLength="65.3242" font-family="'Arial'">e-Med FA</text></g><g class="participant participant-head" data-qualified-name="e_Rezept" data-entity-uid="part3" id="part3-head" data-source-line="54"><rect x="623.2339" y="103.5938" width="76.3438" height="30.2969" fill="#CD3732" fill-opacity="0.66275" style="stroke:#555555;stroke-width:0.5;" rx="5" ry="5"/><text x="630.2339" y="123.5889" fill="#000000" font-size="14" lengthAdjust="spacing" textLength="62.3438" font-family="'Arial'">e-Rezept</text></g><g class="participant participant-tail" data-qualified-name="e_Rezept" data-entity-uid="part3" id="part3-tail" data-source-line="54"><rect x="623.2339" y="821.8672" width="76.3438" height="30.2969" fill="#CD3732" fill-opacity="0.66275" style="stroke:#555555;stroke-width:0.5;" rx="5" ry="5"/><text x="630.2339" y="841.8623" fill="#000000" font-size="14" lengthAdjust="spacing" textLength="62.3438" font-family="'Arial'">e-Rezept</text></g><g><title>GDA 1</title><rect x="170.2817" y="144.8906" width="10" height="616.6797" fill="#156082" fill-opacity="0.50196" style="stroke:#181818;stroke-width:1;"/></g><g><title>e-Med FA</title><rect x="401.6206" y="354.8047" width="10" height="123.8594" fill="#E97232" fill-opacity="0.74118" style="stroke:#181818;stroke-width:1;"/></g><g><title>e-Med FA</title><rect x="401.6206" y="679.8438" width="10" height="81.7266" fill="#E97232" fill-opacity="0.74118" style="stroke:#181818;stroke-width:1;"/></g><g><title>e-Rezept</title><rect x="656.4058" y="603.2813" width="10" height="29.1328" fill="#CD3732" fill-opacity="0.66275" style="stroke:#181818;stroke-width:1;"/></g><rect x="0" y="166.0391" width="719.5776" height="3" fill="#EEEEEE" style="stroke:#EEEEEE;stroke-width:1;" rx="5" ry="5"/><line x1="0" y1="166.0391" x2="719.5776" y2="166.0391" style="stroke:#000000;stroke-width:1;"/><line x1="0" y1="169.0391" x2="719.5776" y2="169.0391" style="stroke:#000000;stroke-width:1;"/><rect x="251.6443" y="154.8906" width="216.2891" height="24.2969" fill="#EEEEEE" style="stroke:#000000;stroke-width:2;" rx="5" ry="5"/><text x="257.6443" y="171.8857" fill="#000000" font-size="14" lengthAdjust="spacing" textLength="197.415" font-weight="700" font-family="'Arial'">Medikationsplan abrufen</text><rect x="147" y="189.1875" width="302.2827" height="42.5938" fill="none" style="stroke:#000000;stroke-width:1.5;" rx="5" ry="5"/><path d="M152,189.1875 L214,189.1875 L214,197.1875 L204,207.1875 L147,207.1875 L147,194.1875 A5,5 0 0 1 152,189.1875" style="stroke:#000000;stroke-width:2;" fill="#EEEEEE"/><text x="160" y="204.1826" fill="#000000" font-size="14" lengthAdjust="spacing" textLength="22.4902" font-weight="700" font-family="'Arial'">ref</text><a target="_top" href="interactions.html#sequenzdiagramm-plan-read" xlink:href="interactions.html#sequenzdiagramm-plan-read" xlink:type="simple" xlink:actuate="onRequest" xlink:show="new" title="interactions.html#sequenzdiagramm-plan-read" xlink:title="interactions.html#sequenzdiagramm-plan-read"><text x="262.8201" y="224.1826" fill="#0000EE" font-size="14" lengthAdjust="spacing" textLength="70.6426" font-family="'Arial'">Plan-Read</text></a><path d="M47,246.7813 L47,278.7813 A5,5 0 0 0 52,283.7813 L297,283.7813 A5,5 0 0 0 302,278.7813 L302,251.7813 L292,241.7813 L52,241.7813 A5,5 0 0 0 47,246.7813" style="stroke:#8B95A5;stroke-width:1;" fill="url(#gkusz4qvmsz3d0)"/><path d="M292,241.7813 L292,249.2813 A2.5,2.5 0 0 0 294.5,251.7813 L302,251.7813 L292,241.7813" style="stroke:#8B95A5;stroke-width:1;" fill="url(#gkusz4qvmsz3d0)"/><text x="53" y="259.7764" fill="#111827" font-size="14" lengthAdjust="spacing" textLength="195.8018" font-family="'Arial'">GDA erhält Medikationsplan</text><text x="53" y="276.0732" fill="#111827" font-size="14" lengthAdjust="spacing" textLength="234.377" font-family="'Arial'">(Auslieferungs-Collection-Bundle)</text><rect x="0" y="310.5234" width="719.5776" height="3" fill="#EEEEEE" style="stroke:#EEEEEE;stroke-width:1;" rx="5" ry="5"/><line x1="0" y1="310.5234" x2="719.5776" y2="310.5234" style="stroke:#000000;stroke-width:1;"/><line x1="0" y1="313.5234" x2="719.5776" y2="313.5234" style="stroke:#000000;stroke-width:1;"/><rect x="170.1189" y="299.375" width="379.3398" height="24.2969" fill="#EEEEEE" style="stroke:#000000;stroke-width:2;" rx="5" ry="5"/><text x="176.1189" y="316.3701" fill="#000000" font-size="14" lengthAdjust="spacing" textLength="146.0908" font-weight="700" font-style="italic" font-family="'Arial'">Geplante Abgaben</text><text x="327.0837" y="316.3701" fill="#000000" font-size="14" lengthAdjust="spacing" textLength="209.501" font-weight="700" font-family="'Arial'">vorbereiten und schreiben</text><g class="message" data-entity-1="part1" data-entity-2="part2" id="msg1" data-source-line="73"><polygon points="389.6206,350.8047,399.6206,354.8047,389.6206,358.8047,393.6206,354.8047" fill="#111827" style="stroke:#111827;stroke-width:1;stroke-linejoin:miter;stroke-miterlimit:10;"/><line x1="180.2817" y1="354.8047" x2="395.6206" y2="354.8047" style="stroke:#111827;stroke-width:1;"/><text x="187.2817" y="349.7388" fill="#000000" font-size="13" lengthAdjust="spacing" textLength="9.0454" font-weight="700" font-family="'Arial'">1</text><text x="200.3271" y="349.7388" fill="#000000" font-size="13" lengthAdjust="spacing" textLength="189.2935" font-family="'Arial'">POST $groupidentifier-create​</text></g><path d="M66,372.8047 L66,404.8047 A5,5 0 0 0 71,409.8047 L279,409.8047 A5,5 0 0 0 284,404.8047 L284,377.8047 L274,367.8047 L71,367.8047 A5,5 0 0 0 66,372.8047" style="stroke:#8B95A5;stroke-width:1;" fill="url(#gkusz4qvmsz3d0)"/><path d="M274,367.8047 L274,375.3047 A2.5,2.5 0 0 0 276.5,377.8047 L284,377.8047 L274,367.8047" style="stroke:#8B95A5;stroke-width:1;" fill="url(#gkusz4qvmsz3d0)"/><text x="72" y="385.7998" fill="#111827" font-size="14" lengthAdjust="spacing" textLength="177.7002" font-family="'Arial'">e-Med GroupIdentifier für</text><text x="72" y="402.0967" fill="#111827" font-size="14" lengthAdjust="spacing" textLength="197.0596" font-family="'Arial'">"Rezeptklammer" anfordern</text><g class="message" data-entity-1="part2" data-entity-2="part2" id="msg2" data-source-line="81"><line x1="411.6206" y1="436.5313" x2="453.6206" y2="436.5313" style="stroke:#111827;stroke-width:1;"/><line x1="453.6206" y1="436.5313" x2="453.6206" y2="449.5313" style="stroke:#111827;stroke-width:1;"/><line x1="412.6206" y1="449.5313" x2="453.6206" y2="449.5313" style="stroke:#111827;stroke-width:1;"/><polygon points="422.6206,445.5313,412.6206,449.5313,422.6206,453.5313,418.6206,449.5313" fill="#111827" style="stroke:#111827;stroke-width:1;stroke-linejoin:miter;stroke-miterlimit:10;"/><text x="418.6206" y="431.4653" fill="#000000" font-size="13" lengthAdjust="spacing" textLength="9.0454" font-weight="700" font-family="'Arial'">2</text><text x="431.666" y="431.4653" fill="#000000" font-size="13" lengthAdjust="spacing" textLength="207.7397" font-family="'Arial'">e-Med GroupIdentifier erzeugen</text></g><g class="message" data-entity-1="part2" data-entity-2="part1" id="msg3" data-source-line="82"><polygon points="191.2817,474.6641,181.2817,478.6641,191.2817,482.6641,187.2817,478.6641" fill="#111827" style="stroke:#111827;stroke-width:1;stroke-linejoin:miter;stroke-miterlimit:10;"/><line x1="185.2817" y1="478.6641" x2="405.6206" y2="478.6641" style="stroke:#111827;stroke-width:1;"/><text x="197.2817" y="473.5981" fill="#000000" font-size="13" lengthAdjust="spacing" textLength="9.0454" font-weight="700" font-family="'Arial'">3</text><text x="210.3271" y="473.5981" fill="#000000" font-size="13" lengthAdjust="spacing" textLength="142.7144" font-family="'Arial'">e-Med GroupIdentifier</text></g><path d="M16,496.6641 L16,544.6641 A5,5 0 0 0 21,549.6641 L328,549.6641 A5,5 0 0 0 333,544.6641 L333,501.6641 L323,491.6641 L21,491.6641 A5,5 0 0 0 16,496.6641" style="stroke:#8B95A5;stroke-width:1;" fill="url(#gkusz4qvmsz3d0)"/><path d="M323,491.6641 L323,499.1641 A2.5,2.5 0 0 0 325.5,501.6641 L333,501.6641 L323,491.6641" style="stroke:#8B95A5;stroke-width:1;" fill="url(#gkusz4qvmsz3d0)"/><text x="22" y="509.6592" fill="#111827" font-size="14" lengthAdjust="spacing" textLength="57.8799" font-family="'Arial'">Erstellte</text><text x="84.3301" y="509.6592" fill="#111827" font-size="14" lengthAdjust="spacing" textLength="130.5459" font-style="italic" font-family="'Arial'">Geplante Abgaben</text><text x="219.3262" y="509.6592" fill="#111827" font-size="14" lengthAdjust="spacing" textLength="94.2471" font-family="'Arial'">referenzieren</text><text x="22" y="525.9561" fill="#111827" font-size="14" lengthAdjust="spacing" textLength="287.0342" font-family="'Arial'">zugehörige Medikationsplaneinträge und</text><text x="22" y="542.2529" fill="#111827" font-size="14" lengthAdjust="spacing" textLength="225.4355" font-family="'Arial'">enthalten e-Med GroupIdentifier</text><path d="M14,562.5547 L80.373,562.5547 L80.373,570.8516 L70.373,580.8516 L9,580.8516 L9,567.5547 A5,5 0 0 1 14,562.5547" style="stroke:#111827;stroke-width:1.5;" fill="#EEF2FF"/><rect x="9" y="562.5547" width="700.5776" height="243.3125" fill="none" style="stroke:#111827;stroke-width:2;" rx="5" ry="5"/><text x="24" y="576.5498" fill="#000000" font-size="14" lengthAdjust="spacing" textLength="26.373" font-weight="700" font-family="'Arial'">par</text><text x="95.373" y="577.5498" fill="#000000" font-size="14" lengthAdjust="spacing" textLength="168.1504" font-weight="700" font-family="'Arial'">[Erstellung e-Rezept]</text><g class="message" data-entity-1="part1" data-entity-2="part3" id="msg4" data-source-line="93"><polygon points="644.4058,599.2813,654.4058,603.2813,644.4058,607.2813,648.4058,603.2813" fill="#111827" style="stroke:#111827;stroke-width:1;stroke-linejoin:miter;stroke-miterlimit:10;"/><line x1="180.2817" y1="603.2813" x2="650.4058" y2="603.2813" style="stroke:#111827;stroke-width:1;"/><text x="187.2817" y="598.2153" fill="#000000" font-size="13" lengthAdjust="spacing" textLength="9.0454" font-weight="700" font-family="'Arial'">4</text><text x="200.3271" y="598.2153" fill="#000000" font-size="13" lengthAdjust="spacing" textLength="169.5713" font-family="'Arial'">Trigger e-Rezept erstellen</text></g><g class="message" data-entity-1="part3" data-entity-2="part1" id="msg5" data-source-line="95"><polygon points="191.2817,628.4141,181.2817,632.4141,191.2817,636.4141,187.2817,632.4141" fill="#111827" style="stroke:#111827;stroke-width:1;stroke-linejoin:miter;stroke-miterlimit:10;"/><line x1="185.2817" y1="632.4141" x2="660.4058" y2="632.4141" style="stroke:#111827;stroke-width:1;stroke-dasharray:2,2;"/><text x="197.2817" y="627.3481" fill="#000000" font-size="13" lengthAdjust="spacing" textLength="9.0454" font-weight="700" font-family="'Arial'">5</text><text x="210.3271" y="627.3481" fill="#000000" font-size="13" lengthAdjust="spacing" textLength="18.7573" font-family="'Arial'">OK</text></g><line x1="9" y1="641.4141" x2="709.5776" y2="641.4141" style="stroke:#111827;stroke-width:1;stroke-dasharray:2,2;"/><text x="14" y="654.4092" fill="#000000" font-size="14" lengthAdjust="spacing" textLength="192.6436" font-weight="700" font-family="'Arial'">[gleichzeitige Erstellung</text><text x="211.5176" y="654.4092" fill="#000000" font-size="14" lengthAdjust="spacing" textLength="136.124" font-weight="700" font-style="italic" font-family="'Arial'">Geplante Abgabe</text><text x="347.6416" y="654.4092" fill="#000000" font-size="14" lengthAdjust="spacing" textLength="6.3984" font-weight="700" font-family="'Arial'">]</text><g class="message" data-entity-1="part1" data-entity-2="part2" id="msg6" data-source-line="100"><polygon points="389.6206,675.8438,399.6206,679.8438,389.6206,683.8438,393.6206,679.8438" fill="#111827" style="stroke:#111827;stroke-width:1;stroke-linejoin:miter;stroke-miterlimit:10;"/><line x1="180.2817" y1="679.8438" x2="395.6206" y2="679.8438" style="stroke:#111827;stroke-width:1;"/><text x="187.2817" y="674.7778" fill="#000000" font-size="13" lengthAdjust="spacing" textLength="9.0454" font-weight="700" font-family="'Arial'">6</text><text x="200.3271" y="674.7778" fill="#000000" font-size="13" lengthAdjust="spacing" textLength="161.6685" font-family="'Arial'">POST $prescription-write</text></g><path d="M19,697.8438 L19,729.8438 A5,5 0 0 0 24,734.8438 L325,734.8438 A5,5 0 0 0 330,729.8438 L330,702.8438 L320,692.8438 L24,692.8438 A5,5 0 0 0 19,697.8438" style="stroke:#8B95A5;stroke-width:1;" fill="url(#gkusz4qvmsz3d0)"/><path d="M320,692.8438 L320,700.3438 A2.5,2.5 0 0 0 322.5,702.8438 L330,702.8438 L320,692.8438" style="stroke:#8B95A5;stroke-width:1;" fill="url(#gkusz4qvmsz3d0)"/><text x="25" y="710.8389" fill="#111827" font-size="14" lengthAdjust="spacing" textLength="239.9209" font-family="'Arial'">Transaction Bundle mit Geplanten</text><text x="25" y="727.1357" fill="#111827" font-size="14" lengthAdjust="spacing" textLength="290.2266" font-family="'Arial'">Abgaben an Fachanwendung übermitteln</text><g class="message" data-entity-1="part2" data-entity-2="part1" id="msg7" data-source-line="107"><polygon points="186.2817,757.5703,176.2817,761.5703,186.2817,765.5703,182.2817,761.5703" fill="#111827" style="stroke:#111827;stroke-width:1;stroke-linejoin:miter;stroke-miterlimit:10;"/><line x1="180.2817" y1="761.5703" x2="405.6206" y2="761.5703" style="stroke:#111827;stroke-width:1;stroke-dasharray:2,2;"/><text x="192.2817" y="756.5044" fill="#000000" font-size="13" lengthAdjust="spacing" textLength="9.0454" font-weight="700" font-family="'Arial'">7</text><text x="205.3271" y="756.5044" fill="#000000" font-size="13" lengthAdjust="spacing" textLength="18.7573" font-family="'Arial'">OK</text></g><path d="M304,779.5703 L304,795.5703 A5,5 0 0 0 309,800.5703 L504,800.5703 A5,5 0 0 0 509,795.5703 L509,784.5703 L499,774.5703 L309,774.5703 A5,5 0 0 0 304,779.5703" style="stroke:#8B95A5;stroke-width:1;" fill="url(#gkusz4qvmsz3d0)"/><path d="M499,774.5703 L499,782.0703 A2.5,2.5 0 0 0 501.5,784.5703 L509,784.5703 L499,774.5703" style="stroke:#8B95A5;stroke-width:1;" fill="url(#gkusz4qvmsz3d0)"/><text x="310" y="792.5654" fill="#111827" font-size="14" lengthAdjust="spacing" textLength="130.5459" font-style="italic" font-family="'Arial'">Geplante Abgaben</text><text x="444.9961" y="792.5654" fill="#111827" font-size="14" lengthAdjust="spacing" textLength="49.0342" font-family="'Arial'">erstellt</text><?plantuml-src VLPHRzis47xdhxZP0zO2ysR9TH87JG2dKRAYRMmuNX_M5G4jdMp2DELITBAw6B3t_Ot-XZtrBVzalsH7IROeoPaC61Bl8--xx-v86c4amZMk9LS6OJYRynb2_FXDmmnJWmjK4S8xZCII6v6er09HAACVlyuHK1D6IbI_g_TSYtoDKtYVQ3xh17ebZ94RDOS8KxZMoMRzEa9bH2ne8ZoxIVIAovXB-Pon7zAbK6kk-GfuQ19zQpuJC_w0QR92nahhBD4HwbU9J3IqkzdZMdcud9Cd5HM8k6z_3Y9Ty2Xv4CIAFAVeM8ffMg46prqqmfXlfBbAbBdXAuJMa6ALhSE8Mx55y5uSDZv5-vVFQzHIgAK32893W5yf8VO56_GlaZ_6F8fiP7wtEdxXQjRF7bTIbL3UlZ20YxfwsCL-tEsq8oyQu955k2kTp0Pztj-FJXSYN2fCK_1eREAesQNl7JUxYYE5vtad_Z6DtTRoygVBCCLF6rHXpdBCjH6XM5Ev7Ggi2cZKG_PKGStCDCoxh5OCZjm0GwsJXtfGsM1LbspeaCUz8VVLew6iPoenxbVEJOryOUndqJapI_U-5VKxAaTRFgz6RqUJk-lBuPq7zBIz_b7tn3_f7W3u6M1mTDGzlcm0niFfw-1cQbSO75tuBng0uNW4sTFkNWs2o_wW3WZU1PTtLqC2uE3Ox_cpg0wucmI_1UCfjCEeTzpp-Q0UnkWDL7pu_VeIaybeaW62mR7NytlK0Da-0xa2F8KMlO7NSeLXwpBPWBGDMfeMYXtwWAjXgnf25NytmIskJJ4X_sZLGY8M6vEepMg6ch6pi_fU2tocDp4gE3lB28jxJhsQStQ9QemXkSSYd1_tP4_XmmVQhb7RkRJcJmkpaksydRQHu7FghbN7Ukfev16CxTk4tZv-P8nb6qEvBBCAeLuyVfMcGPGz6svIAJ16JLj-sg6Ab9WvxLnGWKfypkWmoVQQBD2NuhnsxgYNFujpk4yqQO72KD0q3z9mGL-pGWB6yjWxvxiGJs4ykft2zxOFrc9_ldH2YiVWlt_z3SquylJLJgJys6EjF55BISAWRW5NSTP6og6_JyHEvceLx4PTaeTTejxYPexAdP9HV682Yx3kknbTa9_ADFYKnjfcYGf0s7zWMwAmUFn7Y_d_dFMK2rB0BBYqcJdChbI86W4A7lO2i2j_PhUcVGAB1Zc5ARcUMpaAM7cn87mPyAwXQYq4fQLJwZTwGmPNhWB3x2x0a8uOc4iKuM9BjMOZT-WsTREoLSbNgs-jCGsrM6Vr_g2fUYlC3vO9G3rpG4fmbUQz2ddR0DsYzZSqgqUHI2fCkEBXWgi7ajsoVln6ZMFlN2WjRfyC2XVs52eAPPO39LKPt54hoPQmfmgio9znQTZg-0y0?></g></svg>