<?xml version="1.0" encoding="us-ascii" standalone="no"?><svg xmlns="http://www.w3.org/2000/svg" xmlns:xlink="http://www.w3.org/1999/xlink" contentStyleType="text/css" height="604px" preserveAspectRatio="none" style="width:844px;height:604px;background:#F5F5F5;" version="1.1" viewBox="0 0 844 604" width="844px" zoomAndPan="magnify"><defs><linearGradient id="giv7vskgygyw00" x1="50%" x2="50%" y1="0%" y2="100%"><stop offset="0%" stop-color="#E0E5F0"/><stop offset="100%" stop-color="#D1D9E6"/></linearGradient></defs><g><rect fill="#F5F5F5" height="604" style="stroke:none;stroke-width:1.0;" width="844" x="0" y="0"/><text fill="#000000" font-family="Arial" font-size="14" font-weight="bold" lengthAdjust="spacing" textLength="125" x="355.5" y="28.1318">Plan-History-Read</text><rect fill="#156082" fill-opacity="0.50196" height="221.0869" style="stroke:#181818;stroke-width:1.0;" width="10" x="39" y="193.2446"/><rect fill="#E97232" fill-opacity="0.74118" height="221.0869" style="stroke:#181818;stroke-width:1.0;" width="10" x="351" y="193.2446"/><rect fill="#0F9ED5" fill-opacity="0.14510" height="157.1895" rx="5" ry="5" style="stroke:#111827;stroke-width:2.0;" width="817" x="10" y="265.1421"/><path d="M10,328.2368 L827,328.2368 L827,370.2842 A5,5 0 0 1 822,375.2842 L15,375.2842 A5,5 0 0 1 10,370.2842 L10,328.2368 " fill="#34738D" fill-opacity="0.30588" style="stroke:none;stroke-width:1.0;"/><path d="M10,375.2842 L827,375.2842 L827,417.3315 A5,5 0 0 1 822,422.3315 L15,422.3315 A5,5 0 0 1 10,417.3315 L10,375.2842 " fill="#E97132" fill-opacity="0.20784" style="stroke:none;stroke-width:1.0;"/><line style="stroke:#181818;stroke-width:0.5;stroke-dasharray:5.0,5.0;" x1="44" x2="44" y1="118.1973" y2="523.7261"/><line style="stroke:#181818;stroke-width:0.5;stroke-dasharray:5.0,5.0;" x1="356" x2="356" y1="118.1973" y2="523.7261"/><text fill="#000000" font-family="Arial" font-size="14" lengthAdjust="spacing" textLength="42" x="20" y="115.2305">GDA 1</text><ellipse cx="44" cy="50.5986" fill="#156082" fill-opacity="0.50196" rx="8" ry="8" style="stroke:#181818;stroke-width:0.5;"/><path d="M44,58.5986 L44,85.5986 M31,66.5986 L57,66.5986 M44,85.5986 L31,100.5986 M44,85.5986 L57,100.5986 " fill="none" style="stroke:#181818;stroke-width:0.5;"/><text fill="#000000" font-family="Arial" font-size="14" lengthAdjust="spacing" textLength="42" x="20" y="535.8579">GDA 1</text><ellipse cx="44" cy="547.3247" fill="#156082" fill-opacity="0.50196" rx="8" ry="8" style="stroke:#181818;stroke-width:0.5;"/><path d="M44,555.3247 L44,582.3247 M31,563.3247 L57,563.3247 M44,582.3247 L31,597.3247 M44,582.3247 L57,597.3247 " fill="none" style="stroke:#181818;stroke-width:0.5;"/><rect fill="#E97232" fill-opacity="0.74118" height="30.0986" rx="5" ry="5" style="stroke:#555555;stroke-width:0.5;" width="76" x="318" y="87.0986"/><text fill="#000000" font-family="Arial" font-size="14" lengthAdjust="spacing" textLength="62" x="325" y="107.2305">e-Med FA</text><rect fill="#E97232" fill-opacity="0.74118" height="30.0986" rx="5" ry="5" style="stroke:#555555;stroke-width:0.5;" width="76" x="318" y="522.7261"/><text fill="#000000" font-family="Arial" font-size="14" lengthAdjust="spacing" textLength="62" x="325" y="542.8579">e-Med FA</text><rect fill="#156082" fill-opacity="0.50196" height="221.0869" style="stroke:#181818;stroke-width:1.0;" width="10" x="39" y="193.2446"/><rect fill="#E97232" fill-opacity="0.74118" height="221.0869" style="stroke:#181818;stroke-width:1.0;" width="10" x="351" y="193.2446"/><rect fill="#EEEEEE" height="3" rx="5" ry="5" style="stroke:#EEEEEE;stroke-width:1.0;" width="837" x="0" y="149.2466"/><line style="stroke:#000000;stroke-width:1.0;" x1="0" x2="837" y1="149.2466" y2="149.2466"/><line style="stroke:#000000;stroke-width:1.0;" x1="0" x2="837" y1="152.2466" y2="152.2466"/><rect fill="#EEEEEE" height="24.0986" rx="5" ry="5" style="stroke:#000000;stroke-width:2.0;" width="270" x="283.5" y="138.1973"/><text fill="#000000" font-family="Arial" font-size="14" font-weight="bold" lengthAdjust="spacing" textLength="252" x="289.5" y="155.3291">Historische Medikationspl&#228;ne lesen</text><polygon fill="#111827" points="339,189.2446,349,193.2446,339,197.2446,343,193.2446" style="stroke:#111827;stroke-width:1.0;"/><line style="stroke:#111827;stroke-width:1.0;" x1="49" x2="345" y1="193.2446" y2="193.2446"/><text fill="#000000" font-family="Arial" font-size="13" font-weight="bold" lengthAdjust="spacing" textLength="7" x="56" y="188.4897">1</text><text fill="#000000" font-family="Arial" font-size="13" lengthAdjust="spacing" textLength="142" x="67" y="188.4897">POST $plan-history-read</text><line style="stroke:#111827;stroke-width:1.0;" x1="361" x2="403" y1="237.1421" y2="237.1421"/><line style="stroke:#111827;stroke-width:1.0;" x1="403" x2="403" y1="237.1421" y2="250.1421"/><line style="stroke:#111827;stroke-width:1.0;" x1="362" x2="403" y1="250.1421" y2="250.1421"/><polygon fill="#111827" points="372,246.1421,362,250.1421,372,254.1421,368,250.1421" style="stroke:#111827;stroke-width:1.0;"/><text fill="#000000" font-family="Arial" font-size="13" font-weight="bold" lengthAdjust="spacing" textLength="7" x="368" y="224.9128">2</text><text fill="#000000" font-family="Arial" font-size="13" lengthAdjust="spacing" textLength="139" x="379" y="217.4385">Pr&#252;fung auf existierende</text><text fill="#000000" font-family="Arial" font-size="13" lengthAdjust="spacing" textLength="206" x="379" y="232.3872">Medikationsplan-Collection-Bundles</text><path d="M15,265.1421 L420,265.1421 L420,273.2407 L410,283.2407 L10,283.2407 L10,270.1421 A5,5 0 0 1 15,265.1421 " fill="#EEF2FF" style="stroke:#111827;stroke-width:1.5;"/><rect fill="none" height="157.1895" rx="5" ry="5" style="stroke:#111827;stroke-width:2.0;" width="817" x="10" y="265.1421"/><text fill="#000000" font-family="Arial" font-size="14" font-weight="bold" lengthAdjust="spacing" textLength="361" x="25" y="279.2739">alt: Medikationsplan-Collection-Bundles gefunden?</text><text fill="#000000" font-family="Arial" font-size="14" font-weight="bold" lengthAdjust="spacing" textLength="387" x="435" y="280.2739">[ja: Collection-Bundles entsprechend Suchparametern]</text><polygon fill="#111827" points="60,316.2368,50,320.2368,60,324.2368,56,320.2368" style="stroke:#111827;stroke-width:1.0;"/><line style="stroke:#111827;stroke-width:1.0;" x1="54" x2="350" y1="320.2368" y2="320.2368"/><text fill="#000000" font-family="Arial" font-size="13" font-weight="bold" lengthAdjust="spacing" textLength="7" x="66" y="308.0076">3</text><text fill="#000000" font-family="Arial" font-size="13" lengthAdjust="spacing" textLength="267" x="77" y="300.5332">Bundle (type=searchset) mit zumindest einem</text><text fill="#000000" font-family="Arial" font-size="13" lengthAdjust="spacing" textLength="199" x="77" y="315.4819">Medikationsplan-Collection-Bundle</text><line style="stroke:#111827;stroke-width:1.0;stroke-dasharray:2.0,2.0;" x1="10" x2="827" y1="329.2368" y2="329.2368"/><text fill="#000000" font-family="Arial" font-size="14" font-weight="bold" lengthAdjust="spacing" textLength="553" x="15" y="342.3687">[nein: kein Medikationsplan-Collection-Bundle entsprechend Suchparametern]</text><polygon fill="#111827" points="60,363.2842,50,367.2842,60,371.2842,56,367.2842" style="stroke:#111827;stroke-width:1.0;"/><line style="stroke:#111827;stroke-width:1.0;" x1="54" x2="350" y1="367.2842" y2="367.2842"/><text fill="#000000" font-family="Arial" font-size="13" font-weight="bold" lengthAdjust="spacing" textLength="7" x="66" y="362.5293">4</text><text fill="#000000" font-family="Arial" font-size="13" lengthAdjust="spacing" textLength="226" x="77" y="362.5293">Bundle (type=searchset) ohne Eintr&#228;ge</text><line style="stroke:#111827;stroke-width:1.0;stroke-dasharray:2.0,2.0;" x1="10" x2="827" y1="376.2842" y2="376.2842"/><text fill="#000000" font-family="Arial" font-size="14" font-weight="bold" lengthAdjust="spacing" textLength="56" x="15" y="389.416">[Fehler]</text><polygon fill="#111827" points="55,410.3315,45,414.3315,55,418.3315,51,414.3315" style="stroke:#111827;stroke-width:1.0;"/><line style="stroke:#111827;stroke-width:1.0;" x1="49" x2="355" y1="414.3315" y2="414.3315"/><text fill="#000000" font-family="Arial" font-size="13" font-weight="bold" lengthAdjust="spacing" textLength="7" x="61" y="409.5767">5</text><text fill="#000000" font-family="Arial" font-size="13" lengthAdjust="spacing" textLength="109" x="72" y="409.5767">OperationOutcome</text><path d="M175,439.3315 L175,503.3315 A5,5 0 0 0 180,508.3315 L532,508.3315 A5,5 0 0 0 537,503.3315 L537,444.3315 L527,434.3315 L180,434.3315 A5,5 0 0 0 175,439.3315 " fill="url(#giv7vskgygyw00)" style="stroke:#8B95A5;stroke-width:1.0;"/><path d="M527,434.3315 L527,441.8315 A2.5,2.5 0 0 0 529.5,444.3315 L537,444.3315 L527,434.3315 " fill="url(#giv7vskgygyw00)" style="stroke:#8B95A5;stroke-width:1.0;"/><text fill="#111827" font-family="Arial" font-size="14" lengthAdjust="spacing" textLength="337" x="181" y="452.4634">Die Fachanwendung liefert die den Suchparamentern</text><text fill="#111827" font-family="Arial" font-size="14" lengthAdjust="spacing" textLength="303" x="181" y="468.562">entsprechenden, persistierten Medikationspl&#228;ne</text><text fill="#111827" font-family="Arial" font-size="14" lengthAdjust="spacing" textLength="323" x="181" y="484.6606">(unver&#228;ndert, inkl. aller referenzierten Ressourcen)</text><text fill="#111827" font-family="Arial" font-size="14" lengthAdjust="spacing" textLength="192" x="181" y="500.7593">oder ein leeres Bundle zur&#252;ck.</text><!--SRC=[bLLjZzf64Fw-ls8AbPf88RBDyM8aMa4mITKa8A1V-gBJdZsSjvYrirxdSXVrt-HdzDlziSxQSAp1RTf5GlRCipFFp3wUrK8d2Ck4oyuRaUjKtNTMo2F6lijtGcPSyJtmaEnhVKz0VeTvkaV6JjwRL4MeNgL9gg3jbClsyd1tgz92HWV4jcT-5YAFUPJU2NaBMvxaQ7aEsvH41QuTDC8jBn8zJwL-p_S8hOaIF6ar8zRY0S6zQdR-4-qtzncgHCYT1GY29i3FCYeVy8B-DFsqv55aAlESkdrgzwnNBhkbCjK8dnd0zBnxw61lwtJQaHlvs3S8EzBmnk_ntfDr4ujm9p7FmINRokgcG-z7RYQArGhNTOVUW6phitFvqsQOuuS2PLYnN7AbHIWoBdLJONN0XHxALGTTdio5-tYgDOVLRe29KkdTUL6biTwNqjIKySbHvUgIwJKnpserFaMkN1VdXLklhCxQUKhlcQP-Gt8qydcrUBjONR-UJQvTeDLsUtrdw0sT1e1N0ln-tndCBW3BoUR7uFt6HF3xK-_g0Z1PBg1SRMVk1xEUVmu8tWMpw_c40EWFlAvt4vq3hbV1By5o0-qmwWww7lVForZy1BKSNky2K5K1xUxLe3kChl0ynsgrM9M0m1-uNQzBNmWh9n5KFU8vjEW9t9RTEfQTv03u3YDJY85YXrvWFcdLYpH12vtAOd-3Yh7n6AenAF8mHg0jOiUrI6MU9OzVY5o2EKeOZnchM7I-FsOPmNAnti2tcPcbyM6MAZDBYRNuoEcJhhROR4- -8zSwkwErbaOz_hKjIEQys09-eam25T8O-atM-18DKc62eNdlJ4cKH9uney_iT4myqIFu-ZwuHSePeVm1Vls3Zw01WLBdcKBgcunWNOHnEIfGevA_qnTWbLBMFe9g8ppJD4l7EN8LnZdgvx0N6XwAlQ1qEHqYQMB_7qe3XZIcR7b9sZg27Vr_lS1_O_-_oASngIGGKgl7BxTeSweKFSSu8QKrXLpGbL9oN1GwDBSiq5LL5q_TT0Z1Y39ZvQMHVgJfVZJF1CASXp6NTuGmYaa4Rb5fYCX3PsdLAKsXr4Ah2oXV037AAu5fb0sV0tjMI4f9ppJOz0kW2p5vIPgY4a6PN2WV3fjNDF7IGeKedmDB8yEJ3YP1mkJ7RZuKfErmzz9KLDw2ZFqD]--></g></svg>