<?xml version="1.0" encoding="us-ascii" standalone="no"?><svg xmlns="http://www.w3.org/2000/svg" xmlns:xlink="http://www.w3.org/1999/xlink" contentStyleType="text/css" height="714px" preserveAspectRatio="none" style="width:527px;height:714px;background:#F5F5F5;" version="1.1" viewBox="0 0 527 714" width="527px" zoomAndPan="magnify"><defs><linearGradient id="gz3vp166wp9tx0" x1="50%" x2="50%" y1="0%" y2="100%"><stop offset="0%" stop-color="#E0E5F0"/><stop offset="100%" stop-color="#D1D9E6"/></linearGradient></defs><g><rect fill="#F5F5F5" height="714" style="stroke:none;stroke-width:1.0;" width="527" x="0" y="0"/><text fill="#000000" font-family="Arial" font-size="14" font-weight="bold" lengthAdjust="spacing" textLength="140" x="194.75" y="28.1318">Prescription-Search</text><rect fill="#156082" fill-opacity="0.50196" height="358.1284" style="stroke:#181818;stroke-width:1.0;" width="10" x="149.5" y="226.1895"/><rect fill="#E97232" fill-opacity="0.74118" height="217.5366" style="stroke:#181818;stroke-width:1.0;" width="10" x="447.5" y="226.1895"/><rect fill="#0F9ED5" fill-opacity="0.14510" height="210.5366" rx="5" ry="5" style="stroke:#111827;stroke-width:2.0;" width="505.5" x="15" y="241.1895"/><path d="M15,357.6313 L520.5,357.6313 L520.5,399.6787 A5,5 0 0 1 515.5,404.6787 L20,404.6787 A5,5 0 0 1 15,399.6787 L15,357.6313 " fill="#34738D" fill-opacity="0.30588" style="stroke:none;stroke-width:1.0;"/><path d="M15,404.6787 L520.5,404.6787 L520.5,446.7261 A5,5 0 0 1 515.5,451.7261 L20,451.7261 A5,5 0 0 1 15,446.7261 L15,404.6787 " fill="#E97132" fill-opacity="0.20784" style="stroke:none;stroke-width:1.0;"/><rect fill="none" height="118.5918" rx="5" ry="5" style="stroke:#111827;stroke-width:2.0;" width="510.5" x="10" y="465.7261"/><line style="stroke:#181818;stroke-width:0.5;stroke-dasharray:5.0,5.0;" x1="154" x2="154" y1="150.3945" y2="601.3179"/><line style="stroke:#181818;stroke-width:0.5;stroke-dasharray:5.0,5.0;" x1="452.5" x2="452.5" y1="150.3945" y2="601.3179"/><text fill="#000000" font-family="Arial" font-size="14" lengthAdjust="spacing" textLength="30" x="136.5" y="115.2305">GDA</text><text fill="#000000" font-family="Arial" font-size="14" lengthAdjust="spacing" textLength="28" x="137.5" y="131.3291">Arzt/</text><text fill="#000000" font-family="Arial" font-size="14" lengthAdjust="spacing" textLength="65" x="119" y="147.4277">Apotheker</text><ellipse cx="154.5" cy="50.5986" fill="#156082" fill-opacity="0.50196" rx="8" ry="8" style="stroke:#181818;stroke-width:0.5;"/><path d="M154.5,58.5986 L154.5,85.5986 M141.5,66.5986 L167.5,66.5986 M154.5,85.5986 L141.5,100.5986 M154.5,85.5986 L167.5,100.5986 " fill="none" style="stroke:#181818;stroke-width:0.5;"/><text fill="#000000" font-family="Arial" font-size="14" lengthAdjust="spacing" textLength="30" x="136.5" y="613.4497">GDA</text><text fill="#000000" font-family="Arial" font-size="14" lengthAdjust="spacing" textLength="28" x="137.5" y="629.5483">Arzt/</text><text fill="#000000" font-family="Arial" font-size="14" lengthAdjust="spacing" textLength="65" x="119" y="645.647">Apotheker</text><ellipse cx="154.5" cy="657.1138" fill="#156082" fill-opacity="0.50196" rx="8" ry="8" style="stroke:#181818;stroke-width:0.5;"/><path d="M154.5,665.1138 L154.5,692.1138 M141.5,673.1138 L167.5,673.1138 M154.5,692.1138 L141.5,707.1138 M154.5,692.1138 L167.5,707.1138 " fill="none" style="stroke:#181818;stroke-width:0.5;"/><rect fill="#E97232" fill-opacity="0.74118" height="30.0986" rx="5" ry="5" style="stroke:#555555;stroke-width:0.5;" width="76" x="414.5" y="119.2959"/><text fill="#000000" font-family="Arial" font-size="14" lengthAdjust="spacing" textLength="62" x="421.5" y="139.4277">e-Med FA</text><rect fill="#E97232" fill-opacity="0.74118" height="30.0986" rx="5" ry="5" style="stroke:#555555;stroke-width:0.5;" width="76" x="414.5" y="600.3179"/><text fill="#000000" font-family="Arial" font-size="14" lengthAdjust="spacing" textLength="62" x="421.5" y="620.4497">e-Med FA</text><rect fill="#156082" fill-opacity="0.50196" height="358.1284" style="stroke:#181818;stroke-width:1.0;" width="10" x="149.5" y="226.1895"/><rect fill="#E97232" fill-opacity="0.74118" height="217.5366" style="stroke:#181818;stroke-width:1.0;" width="10" x="447.5" y="226.1895"/><polygon fill="#111827" points="435.5,222.1895,445.5,226.1895,435.5,230.1895,439.5,226.1895" style="stroke:#111827;stroke-width:1.0;"/><line style="stroke:#111827;stroke-width:1.0;" x1="159.5" x2="441.5" y1="226.1895" y2="226.1895"/><text fill="#000000" font-family="Arial" font-size="13" font-weight="bold" lengthAdjust="spacing" textLength="7" x="166.5" y="199.0115">1</text><text fill="#000000" font-family="Arial" font-size="13" lengthAdjust="spacing" textLength="247" x="177.5" y="176.5884">GET MedicationRequest mit Suchkriterien:</text><text fill="#000000" font-family="Arial" font-size="13" lengthAdjust="spacing" textLength="184" x="177.5" y="191.5371">- category = "Geplante Abgabe"</text><text fill="#000000" font-family="Arial" font-size="13" lengthAdjust="spacing" textLength="150" x="177.5" y="206.4858">- status = active (optional)</text><text fill="#000000" font-family="Arial" font-size="13" lengthAdjust="spacing" textLength="141" x="177.5" y="221.4346">- validityPeriod (optional)</text><path d="M20,241.1895 L300,241.1895 L300,249.2881 L290,259.2881 L15,259.2881 L15,246.1895 A5,5 0 0 1 20,241.1895 " fill="#EEF2FF" style="stroke:#111827;stroke-width:1.5;"/><rect fill="none" height="210.5366" rx="5" ry="5" style="stroke:#111827;stroke-width:2.0;" width="505.5" x="15" y="241.1895"/><text fill="#000000" font-family="Arial" font-size="14" font-weight="bold" lengthAdjust="spacing" textLength="236" x="30" y="255.3213">alt: Geplante Abgaben gefunden?</text><text fill="#000000" font-family="Arial" font-size="14" font-weight="bold" lengthAdjust="spacing" textLength="22" x="315" y="256.3213">[ja]</text><polygon fill="#111827" points="170.5,277.3354,160.5,281.3354,170.5,285.3354,166.5,281.3354" style="stroke:#111827;stroke-width:1.0;"/><line style="stroke:#111827;stroke-width:1.0;" x1="164.5" x2="446.5" y1="281.3354" y2="281.3354"/><text fill="#000000" font-family="Arial" font-size="13" font-weight="bold" lengthAdjust="spacing" textLength="7" x="176.5" y="276.5806">2</text><text fill="#000000" font-family="Arial" font-size="13" lengthAdjust="spacing" textLength="253" x="187.5" y="276.5806">Bundle (type=searchset) Geplante Abgaben</text><path d="M25,299.3354 L25,347.3354 A5,5 0 0 0 30,352.3354 L279,352.3354 A5,5 0 0 0 284,347.3354 L284,304.3354 L274,294.3354 L30,294.3354 A5,5 0 0 0 25,299.3354 " fill="url(#gz3vp166wp9tx0)" style="stroke:#8B95A5;stroke-width:1.0;"/><path d="M274,294.3354 L274,301.8354 A2.5,2.5 0 0 0 276.5,304.3354 L284,304.3354 L274,294.3354 " fill="url(#gz3vp166wp9tx0)" style="stroke:#8B95A5;stroke-width:1.0;"/><text fill="#111827" font-family="Arial" font-size="14" lengthAdjust="spacing" textLength="211" x="31" y="312.4673">GDA erh&#228;lt alle den Suchkriterien</text><text fill="#111827" font-family="Arial" font-size="14" lengthAdjust="spacing" textLength="234" x="31" y="328.5659">entsprechenden Geplanten Abgaben</text><text fill="#111827" font-family="Arial" font-size="14" lengthAdjust="spacing" textLength="91" x="31" y="344.6646">des Patienten.</text><line style="stroke:#111827;stroke-width:1.0;stroke-dasharray:2.0,2.0;" x1="15" x2="520.5" y1="358.6313" y2="358.6313"/><text fill="#000000" font-family="Arial" font-size="14" font-weight="bold" lengthAdjust="spacing" textLength="41" x="20" y="371.7632">[nein]</text><polygon fill="#111827" points="170.5,392.6787,160.5,396.6787,170.5,400.6787,166.5,396.6787" style="stroke:#111827;stroke-width:1.0;"/><line style="stroke:#111827;stroke-width:1.0;" x1="164.5" x2="446.5" y1="396.6787" y2="396.6787"/><text fill="#000000" font-family="Arial" font-size="13" font-weight="bold" lengthAdjust="spacing" textLength="7" x="176.5" y="391.9238">3</text><text fill="#000000" font-family="Arial" font-size="13" lengthAdjust="spacing" textLength="226" x="187.5" y="391.9238">Bundle (type=searchset) ohne Eintr&#228;ge</text><line style="stroke:#111827;stroke-width:1.0;stroke-dasharray:2.0,2.0;" x1="15" x2="520.5" y1="405.6787" y2="405.6787"/><text fill="#000000" font-family="Arial" font-size="14" font-weight="bold" lengthAdjust="spacing" textLength="56" x="20" y="418.8105">[Fehler]</text><polygon fill="#111827" points="170.5,439.7261,160.5,443.7261,170.5,447.7261,166.5,443.7261" style="stroke:#111827;stroke-width:1.0;"/><line style="stroke:#111827;stroke-width:1.0;stroke-dasharray:2.0,2.0;" x1="164.5" x2="451.5" y1="443.7261" y2="443.7261"/><text fill="#000000" font-family="Arial" font-size="13" font-weight="bold" lengthAdjust="spacing" textLength="7" x="176.5" y="438.9712">4</text><text fill="#000000" font-family="Arial" font-size="13" lengthAdjust="spacing" textLength="170" x="187.5" y="438.9712">HTTP 4xx OperationOutcome</text><path d="M15,465.7261 L78,465.7261 L78,473.8247 L68,483.8247 L10,483.8247 L10,470.7261 A5,5 0 0 1 15,465.7261 " fill="#EEF2FF" style="stroke:#111827;stroke-width:1.5;"/><rect fill="none" height="118.5918" rx="5" ry="5" style="stroke:#111827;stroke-width:2.0;" width="510.5" x="10" y="465.7261"/><text fill="#000000" font-family="Arial" font-size="14" font-weight="bold" lengthAdjust="spacing" textLength="23" x="25" y="479.8579">opt</text><text fill="#000000" font-family="Arial" font-size="14" font-weight="bold" lengthAdjust="spacing" textLength="169" x="93" y="480.8579">[Medikationsplan lesen]</text><rect fill="none" height="42.1973" rx="5" ry="5" style="stroke:#000000;stroke-width:1.5;" width="397.5" x="116" y="484.9233"/><path d="M121,484.9233 L181,484.9233 L181,492.9233 L171,502.9233 L116,502.9233 L116,489.9233 A5,5 0 0 1 121,484.9233 " fill="#EEEEEE" style="stroke:#000000;stroke-width:2.0;"/><text fill="#000000" font-family="Arial" font-size="14" font-weight="bold" lengthAdjust="spacing" textLength="20" x="129" y="500.0552">ref</text><a href="interactions.html#sequenzdiagramm-plan-read" target="_top" title="interactions.html#sequenzdiagramm-plan-read" xlink:actuate="onRequest" xlink:href="interactions.html#sequenzdiagramm-plan-read" xlink:show="new" xlink:title="interactions.html#sequenzdiagramm-plan-read" xlink:type="simple"><text fill="#0000EE" font-family="Arial" font-size="14" lengthAdjust="spacing" textLength="67" x="281.25" y="520.0552">Plan-Read</text></a><path d="M20,542.1206 L20,574.1206 A5,5 0 0 0 25,579.1206 L284,579.1206 A5,5 0 0 0 289,574.1206 L289,547.1206 L279,537.1206 L25,537.1206 A5,5 0 0 0 20,542.1206 " fill="url(#gz3vp166wp9tx0)" style="stroke:#8B95A5;stroke-width:1.0;"/><path d="M279,537.1206 L279,544.6206 A2.5,2.5 0 0 0 281.5,547.1206 L289,547.1206 L279,537.1206 " fill="url(#gz3vp166wp9tx0)" style="stroke:#8B95A5;stroke-width:1.0;"/><text fill="#111827" font-family="Arial" font-size="14" lengthAdjust="spacing" textLength="244" x="26" y="555.2524">Optionaler Abruf des Medikationsplans</text><text fill="#111827" font-family="Arial" font-size="14" lengthAdjust="spacing" textLength="223" x="26" y="571.3511">zur Pr&#252;fung der Gesamtmedikation.</text><!--SRC=[bLRRajf647tNLtJWmNPLs82uRvMJ4aQiKuaD1UGbworga5feWXWfez5USFbl_1bvsnzBpuYB9CX3n0EZxjEtqqqFYgi8OIOnzIHF58z5Ou5CUg5blKctN2HCiXqmJyLoeLu8ofumZNTeMMVjEfO-oWzn54keDyrJr39lkv5n9lm38kZgJm6HXioFdxZOGC2Y50kQWvaKAA5LTEfZmB98JMAXFhCTGisHd4MrwuW5toEqEjUL_vNsnvS4PSJ5jW1mtMk0FuHl3dYH_YX-dZ7VrvNPpR9yLEIiQvuYfI9M25yjW56LFMnYDsWswdxB7s9F8ugU1kjXbtLFqcN8lQt0D8KMoUO5DflqVinDUobGqMgr1dQVP8jANxuLCqpnxmo5bsSvOr9nZoTCg6k5bG2Nf5-eZmqhAGfC0ZXIna_LV8smNB8HNOjuKkInsYIw8vgJKledpxdgeXKOs45GjZo7jpLVFz2awSduCFrzEb_TZPrL2-Yfjxgzvi0UDAy0R0COzdhD_lW2C7EMlxgVbzh3i3UoEnS0PpO5yzIRaw4xxWwh0FUJErvD70BWi6-txRLV1Qpcxf_kR0brps_tspORLikO_WQb67Rt0f1N0VLsfzyU-1sinfZFftC3S8VzLjjkq_2R7GCvHIo56fs-24VkrK_qbSGgn2tAMf59ApbF1-0dz7LTsXGRz08JfrQksNe39OlL7FUOg8D9_bAhi41vPIeMsMwDqhBox1e_7wFTmfsx13fpZ-dTETS_YbJ1ZYjOP5wubLoXv2XkluW640OtiNo1zrGT9X4bWU2iDsoDDQrF5LDPIbgYWZyYl8tDGcRHEwrzP17tkNgPaSFOBoWj0oVV1_AA39rKHthAGs1PUg2JSrzPfAYcScu2DXZGrAFu1Ux_OWyqy4Tln8I9SmiZ0j3jy5RHLdoVcXiaHVNkmfT5rcQvnOzuwBR-0OqTG1c-Ve-e6n7veM1b0a575IfD97eXwcHEhiKfJyBucDBIK6H1YflSoZSHBGjfYHKdL20N_wkOEAG9ThbGylNxfkmmd-W9XX7DIS7dsUd7vN86dUTdcDAzOQPbcYbFNwKwwsgZI6XHvfPbKP_DX6sDJQfhXWZJd4g9GO797qznR-7-dlAaG9wnkWdLBghdEtllSxQX5RvhQ5yDYSo7cJxDwVJmSBL1qyEmaSXPoommF5UoIZNR-qpIludNVsXWDWGY3vYodTgTe3V5bfGgpsFfely5]--></g></svg>