<?xml version="1.0" encoding="us-ascii" standalone="no"?><svg xmlns="http://www.w3.org/2000/svg" xmlns:xlink="http://www.w3.org/1999/xlink" contentStyleType="text/css" height="771px" preserveAspectRatio="none" style="width:562px;height:771px;background:#F5F5F5;" version="1.1" viewBox="0 0 562 771" width="562px" zoomAndPan="magnify"><defs><linearGradient id="g1rahnvs7klw030" x1="50%" x2="50%" y1="0%" y2="100%"><stop offset="0%" stop-color="#E0E5F0"/><stop offset="100%" stop-color="#D1D9E6"/></linearGradient></defs><g><rect fill="#F5F5F5" height="771" style="stroke:none;stroke-width:1.0;" width="562" x="0" y="0"/><text fill="#000000" font-family="Arial" font-size="14" font-weight="bold" lengthAdjust="spacing" textLength="235" x="159.5" y="28.1318">Durchgef&#252;hrte Abgabe schreiben</text><rect fill="#0F9ED5" fill-opacity="0.56471" height="553.9214" style="stroke:#181818;stroke-width:1.0;" width="10" x="140" y="128.1973"/><rect fill="#E97232" fill-opacity="0.74118" height="146.3926" style="stroke:#181818;stroke-width:1.0;" width="10" x="451" y="519.7261"/><rect fill="none" height="248.7852" rx="5" ry="5" style="stroke:#111827;stroke-width:2.0;" width="499" x="25" y="135.1973"/><rect fill="#0F9ED5" fill-opacity="0.14510" height="139.3926" rx="5" ry="5" style="stroke:#111827;stroke-width:2.0;" width="443" x="102" y="534.7261"/><path d="M102,630.521 L545,630.521 L545,669.1187 A5,5 0 0 1 540,674.1187 L107,674.1187 A5,5 0 0 1 102,669.1187 L102,630.521 " fill="#E97132" fill-opacity="0.20784" style="stroke:none;stroke-width:1.0;"/><line style="stroke:#181818;stroke-width:0.5;stroke-dasharray:5.0,5.0;" x1="145" x2="145" y1="118.1973" y2="691.1187"/><line style="stroke:#181818;stroke-width:0.5;stroke-dasharray:5.0,5.0;" x1="456" x2="456" y1="118.1973" y2="691.1187"/><text fill="#000000" font-family="Arial" font-size="14" lengthAdjust="spacing" textLength="60" x="112" y="115.2305">Apotheke</text><ellipse cx="145" cy="50.5986" fill="#0F9ED5" fill-opacity="0.56471" rx="8" ry="8" style="stroke:#181818;stroke-width:0.5;"/><path d="M145,58.5986 L145,85.5986 M132,66.5986 L158,66.5986 M145,85.5986 L132,100.5986 M145,85.5986 L158,100.5986 " fill="none" style="stroke:#181818;stroke-width:0.5;"/><text fill="#000000" font-family="Arial" font-size="14" lengthAdjust="spacing" textLength="60" x="112" y="703.2505">Apotheke</text><ellipse cx="145" cy="714.7173" fill="#0F9ED5" fill-opacity="0.56471" rx="8" ry="8" style="stroke:#181818;stroke-width:0.5;"/><path d="M145,722.7173 L145,749.7173 M132,730.7173 L158,730.7173 M145,749.7173 L132,764.7173 M145,749.7173 L158,764.7173 " fill="none" style="stroke:#181818;stroke-width:0.5;"/><rect fill="#E97232" fill-opacity="0.74118" height="30.0986" rx="5" ry="5" style="stroke:#555555;stroke-width:0.5;" width="76" x="418" y="87.0986"/><text fill="#000000" font-family="Arial" font-size="14" lengthAdjust="spacing" textLength="62" x="425" y="107.2305">e-Med FA</text><rect fill="#E97232" fill-opacity="0.74118" height="30.0986" rx="5" ry="5" style="stroke:#555555;stroke-width:0.5;" width="76" x="418" y="690.1187"/><text fill="#000000" font-family="Arial" font-size="14" lengthAdjust="spacing" textLength="62" x="425" y="710.2505">e-Med FA</text><rect fill="#0F9ED5" fill-opacity="0.56471" height="553.9214" style="stroke:#181818;stroke-width:1.0;" width="10" x="140" y="128.1973"/><rect fill="#E97232" fill-opacity="0.74118" height="146.3926" style="stroke:#181818;stroke-width:1.0;" width="10" x="451" y="519.7261"/><path d="M30,135.1973 L86,135.1973 L86,142.146 L76,152.146 L25,152.146 L25,140.1973 A5,5 0 0 1 30,135.1973 " fill="#EEF2FF" style="stroke:#111827;stroke-width:1.5;"/><rect fill="none" height="248.7852" rx="5" ry="5" style="stroke:#111827;stroke-width:2.0;" width="499" x="25" y="135.1973"/><text fill="#000000" font-family="Arial" font-size="13" font-weight="bold" lengthAdjust="spacing" textLength="16" x="40" y="148.3911">alt</text><text fill="#000000" font-family="Arial" font-size="11" font-weight="bold" lengthAdjust="spacing" textLength="179" x="101" y="147.5151">[Zugriff mit Kontakt (z.B. e-card)]</text><rect fill="none" height="38.7476" rx="5" ry="5" style="stroke:#000000;stroke-width:1.5;" width="408" x="109" y="152.146"/><path d="M114,152.146 L171,152.146 L171,158.146 L161,168.146 L109,168.146 L109,157.146 A5,5 0 0 1 114,152.146 " fill="#EEEEEE" style="stroke:#000000;stroke-width:2.0;"/><text fill="#000000" font-family="Arial" font-size="13" font-weight="bold" lengthAdjust="spacing" textLength="17" x="122" y="166.3398">ref</text><a href="Sub_UC_eMed_07_01.html#sub_uc_emed_07_01_a-zugriff-mittels-e-card" target="_top" title="Sub_UC_eMed_07_01.html#sub_uc_emed_07_01_a-zugriff-mittels-e-card" xlink:actuate="onRequest" xlink:href="Sub_UC_eMed_07_01.html#sub_uc_emed_07_01_a-zugriff-mittels-e-card" xlink:show="new" xlink:title="Sub_UC_eMed_07_01.html#sub_uc_emed_07_01_a-zugriff-mittels-e-card" xlink:type="simple"><text fill="#0000EE" font-family="Arial" font-size="12" lengthAdjust="spacing" textLength="258" x="184" y="183.4019">Geplante Abgaben lesen - Zugriff mittels e-card</text></a><path d="M35,205.8936 L35,249.8936 A5,5 0 0 0 40,254.8936 L250,254.8936 A5,5 0 0 0 255,249.8936 L255,210.8936 L245,200.8936 L40,200.8936 A5,5 0 0 0 35,205.8936 " fill="url(#g1rahnvs7klw030)" style="stroke:#8B95A5;stroke-width:1.0;"/><path d="M245,200.8936 L245,208.3936 A2.5,2.5 0 0 0 247.5,210.8936 L255,210.8936 L245,200.8936 " fill="url(#g1rahnvs7klw030)" style="stroke:#8B95A5;stroke-width:1.0;"/><text fill="#111827" font-family="Arial" font-size="13" lengthAdjust="spacing" textLength="142" x="41" y="218.0874">Alle offenen e-Rezepte +</text><text fill="#111827" font-family="Arial" font-size="13" lengthAdjust="spacing" textLength="195" x="41" y="233.0361">alle offenen Geplanten Abgaben +</text><text fill="#111827" font-family="Arial" font-size="13" lengthAdjust="spacing" textLength="140" x="41" y="247.9849">Medikationsplan abrufen</text><line style="stroke:#111827;stroke-width:1.0;stroke-dasharray:2.0,2.0;" x1="25" x2="524" y1="261.7397" y2="261.7397"/><text fill="#000000" font-family="Arial" font-size="11" font-weight="bold" lengthAdjust="spacing" textLength="181" x="30" y="272.0576">[Zugriff ohne Kontakt (e-Rezept)]</text><rect fill="none" height="38.7476" rx="5" ry="5" style="stroke:#000000;stroke-width:1.5;" width="408" x="109" y="275.3887"/><path d="M114,275.3887 L171,275.3887 L171,281.3887 L161,291.3887 L109,291.3887 L109,280.3887 A5,5 0 0 1 114,275.3887 " fill="#EEEEEE" style="stroke:#000000;stroke-width:2.0;"/><text fill="#000000" font-family="Arial" font-size="13" font-weight="bold" lengthAdjust="spacing" textLength="17" x="122" y="289.5825">ref</text><a href="Sub_UC_eMed_07_01.html#sub_uc_emed_07_01_b-zugriff-mittels-e-rezept" target="_top" title="Sub_UC_eMed_07_01.html#sub_uc_emed_07_01_b-zugriff-mittels-e-rezept" xlink:actuate="onRequest" xlink:href="Sub_UC_eMed_07_01.html#sub_uc_emed_07_01_b-zugriff-mittels-e-rezept" xlink:show="new" xlink:title="Sub_UC_eMed_07_01.html#sub_uc_emed_07_01_b-zugriff-mittels-e-rezept" xlink:type="simple"><text fill="#0000EE" font-family="Arial" font-size="12" lengthAdjust="spacing" textLength="272" x="177" y="306.6445">Geplante Abgaben lesen - Zugriff mittels e-Rezept</text></a><path d="M36,329.1362 L36,373.1362 A5,5 0 0 0 41,378.1362 L248,378.1362 A5,5 0 0 0 253,373.1362 L253,334.1362 L243,324.1362 L41,324.1362 A5,5 0 0 0 36,329.1362 " fill="url(#g1rahnvs7klw030)" style="stroke:#8B95A5;stroke-width:1.0;"/><path d="M243,324.1362 L243,331.6362 A2.5,2.5 0 0 0 245.5,334.1362 L253,334.1362 L243,324.1362 " fill="url(#g1rahnvs7klw030)" style="stroke:#8B95A5;stroke-width:1.0;"/><text fill="#111827" font-family="Arial" font-size="13" lengthAdjust="spacing" textLength="196" x="42" y="341.3301">Zugeh&#246;rige Geplante Abgaben mit</text><text fill="#111827" font-family="Arial" font-size="13" lengthAdjust="spacing" textLength="123" x="42" y="356.2788">e-Med Groupidentifier</text><text fill="#111827" font-family="Arial" font-size="13" lengthAdjust="spacing" textLength="42" x="42" y="371.2275">abrufen</text><rect fill="#EEEEEE" height="3" rx="5" ry="5" style="stroke:#EEEEEE;stroke-width:1.0;" width="555" x="0" y="411.4568"/><line style="stroke:#000000;stroke-width:1.0;" x1="0" x2="555" y1="411.4568" y2="411.4568"/><line style="stroke:#000000;stroke-width:1.0;" x1="0" x2="555" y1="414.4568" y2="414.4568"/><rect fill="#EEEEEE" height="22.9487" rx="5" ry="5" style="stroke:#000000;stroke-width:2.0;" width="344" x="105.5" y="400.9824"/><text fill="#000000" font-family="Arial" font-size="13" font-weight="bold" lengthAdjust="spacing" textLength="322" x="111.5" y="417.1763">Durchgef&#252;hrte Abgaben vorbereiten und schreiben</text><path d="M5,443.9312 L5,487.9312 A5,5 0 0 0 10,492.9312 L281,492.9312 A5,5 0 0 0 286,487.9312 L286,448.9312 L276,438.9312 L10,438.9312 A5,5 0 0 0 5,443.9312 " fill="url(#g1rahnvs7klw030)" style="stroke:#8B95A5;stroke-width:1.0;"/><path d="M276,438.9312 L276,446.4312 A2.5,2.5 0 0 0 278.5,448.9312 L286,448.9312 L276,438.9312 " fill="url(#g1rahnvs7klw030)" style="stroke:#8B95A5;stroke-width:1.0;"/><text fill="#111827" font-family="Arial" font-size="13" lengthAdjust="spacing" textLength="188" x="11" y="456.125">Durchgef&#252;hrte Abgaben erstellen</text><text fill="#111827" font-family="Arial" font-size="13" lengthAdjust="spacing" textLength="256" x="11" y="471.0737">(referenzieren zugeh&#246;rige Geplante Abgaben</text><text fill="#111827" font-family="Arial" font-size="13" lengthAdjust="spacing" textLength="169" x="11" y="486.0225">und Medikationsplaneintr&#228;ge)</text><polygon fill="#111827" points="439,515.7261,449,519.7261,439,523.7261,443,519.7261" style="stroke:#111827;stroke-width:1.0;"/><line style="stroke:#111827;stroke-width:1.0;" x1="150" x2="445" y1="519.7261" y2="519.7261"/><text fill="#000000" font-family="Arial" font-size="13" font-weight="bold" lengthAdjust="spacing" textLength="7" x="157" y="514.9712">1</text><text fill="#000000" font-family="Arial" font-size="13" lengthAdjust="spacing" textLength="271" x="168" y="514.9712">POST Transaction Bundle MedicationDispense</text><path d="M107,534.7261 L163,534.7261 L163,541.6748 L153,551.6748 L102,551.6748 L102,539.7261 A5,5 0 0 1 107,534.7261 " fill="#EEF2FF" style="stroke:#111827;stroke-width:1.5;"/><rect fill="none" height="139.3926" rx="5" ry="5" style="stroke:#111827;stroke-width:2.0;" width="443" x="102" y="534.7261"/><text fill="#000000" font-family="Arial" font-size="13" font-weight="bold" lengthAdjust="spacing" textLength="16" x="117" y="547.9199">alt</text><text fill="#000000" font-family="Arial" font-size="11" font-weight="bold" lengthAdjust="spacing" textLength="183" x="178" y="547.0439">[Durchgef&#252;hrte Abgaben erstellt]</text><path d="M376,561.6748 L376,590.6748 A5,5 0 0 0 381,595.6748 L530,595.6748 A5,5 0 0 0 535,590.6748 L535,566.6748 L525,556.6748 L381,556.6748 A5,5 0 0 0 376,561.6748 " fill="url(#g1rahnvs7klw030)" style="stroke:#8B95A5;stroke-width:1.0;"/><path d="M525,556.6748 L525,564.1748 A2.5,2.5 0 0 0 527.5,566.6748 L535,566.6748 L525,556.6748 " fill="url(#g1rahnvs7klw030)" style="stroke:#8B95A5;stroke-width:1.0;"/><text fill="#111827" font-family="Arial" font-size="13" font-style="italic" lengthAdjust="spacing" textLength="138" x="382" y="573.8687">Durchgef&#252;hrte Abgaben</text><text fill="#111827" font-family="Arial" font-size="13" lengthAdjust="spacing" textLength="67" x="382" y="588.8174">gespeichert</text><polygon fill="#111827" points="161,618.521,151,622.521,161,626.521,157,622.521" style="stroke:#111827;stroke-width:1.0;"/><line style="stroke:#111827;stroke-width:1.0;stroke-dasharray:2.0,2.0;" x1="155" x2="450" y1="622.521" y2="622.521"/><text fill="#000000" font-family="Arial" font-size="13" font-weight="bold" lengthAdjust="spacing" textLength="7" x="167" y="617.7661">2</text><text fill="#000000" font-family="Arial" font-size="13" lengthAdjust="spacing" textLength="19" x="178" y="617.7661">OK</text><line style="stroke:#111827;stroke-width:1.0;stroke-dasharray:2.0,2.0;" x1="102" x2="545" y1="631.521" y2="631.521"/><text fill="#000000" font-family="Arial" font-size="11" font-weight="bold" lengthAdjust="spacing" textLength="43" x="107" y="641.8389">[Fehler]</text><polygon fill="#111827" points="161,662.1187,151,666.1187,161,670.1187,157,666.1187" style="stroke:#111827;stroke-width:1.0;"/><line style="stroke:#111827;stroke-width:1.0;stroke-dasharray:2.0,2.0;" x1="155" x2="455" y1="666.1187" y2="666.1187"/><text fill="#000000" font-family="Arial" font-size="13" font-weight="bold" lengthAdjust="spacing" textLength="7" x="167" y="661.3638">3</text><text fill="#000000" font-family="Arial" font-size="13" lengthAdjust="spacing" textLength="36" x="178" y="661.3638">Fehler</text><!--SRC=[hLNTZjf65BxtKvp2HHAbR6qJO5bbLu85jbMQW5XoaoYonlOn7c76xdYysn3bRVeClUhTlbZFsDZOm4QgL2CXV7w_xpjd1iLLX339f1UkCNZw9vGAOUIkcOkGUg54xg8mZ1VfXek4IRO5vgbOtgklbCOUCOstQ1W7hnjB7-Lj7CKIscR-rBtCswnbd0b_7n7qzASMaORCZn-vM4F0eXHhddsQ52Z1gXVrCM1Pf6QnK1_O5g4rafn5hJhcMiWzto5ORyxdFuVxrwy9oeYBJIrWEeLp4H-5d__04mBZ-Cy5yttDpJQRzd5TjLx-r4KLCGtbcm4mFjOFJUm5PgVjM_uG-pgYNkdI7VPOhxAkGkvj1AOfM6HRrlGqwRt4fglKjB0iwz8UaEt-Q3BVwmXJ_2D3uHKe5qmgxl642NMEM2FWLFKJTpcnXgEc9C18olZn66zkR5BEJUSwLewYLvTCToHpqe1VLIvS9wF0m0w2PkQXlQtr-ebMJM_6xVpt-TAvcumS2-XfMxs-UMbVccS2x3nWsE-RWyb9m6Aq-ctwOQKh3FjZ-yr9m6WnX_nfcxFXTD8R7WTCtqydpcn40JWSs5tRzOy3dENqqtInWhRdTmTTcmsFQSpVGQE7tJikiLpEbtd0T3YmkdQNTZk_H40J72Kni9GERHAh43VOEa0taiEy0T-Zhv7gMEpG2yn6hIOBumKqCfmbxZ1H-vJYfNN4Yw1aAXRPraMPm-8FZ0vRYUmW8paZ1P-ojUH105kku1tj2zieUBcx65y0TZmc_LSqVua1n0zOqVkvmdu5dp_VPwxpyTR9JUR0CQsBK6sZTahcp7DmMveTrjaLpJhKJ66KTeeMS8T9HFpAQrf0X2bzT-hWTFmUqfSlX2c_GUgWzD97T8N7GO22iajz45wJYzLTPJzHDNmD54C4-8Of7ejK-u6vCgC4yg3myuO6WS0ALHpIHbIQbVt-Hy7SCuB9OWF-WsG5h6T5emGCd_wMV8sdLQcAffzlPtuBS1-5uW6d4bhLCme9druDu_hw_7-mW8TOqceYr_hJPNFuKmQulZQCKupFr46P4iD8vnalIN6gANPSVyFkHvmCtVHeriY5aaz_hV6LKJ4noYFJkId7TmMB-VqALfA9L9-iMC2Ogj5gwNfUNc_2qmG5_PrKHw-SVVDevwUlkd1-p54PZU7j2vBjBRyvd_ds5tv3_ZKI6Ew5A5LzIFht7bI7sEs9NW41COeThrzqCmmZkakUoIcyUXjyFAPivElmBm00]--></g></svg>