<svg xmlns="http://www.w3.org/2000/svg" xmlns:xlink="http://www.w3.org/1999/xlink" version="1.1" data-diagram-type="ACTIVITY" style="width:784px;height:616px;background:#F5F5F5;" width="784px" height="616px" viewBox="0 0 784 616" zoomAndPan="magnify" preserveAspectRatio="none" contentStyleType="text/css"><?plantuml 1.2026.7beta8?><defs><linearGradient x1="50%" y1="0%" x2="50%" y2="100%" id="g1jtse1ye1fru90"><stop stop-color="#E0E5F0" offset="0%"/><stop stop-color="#D1D9E6" offset="100%"/></linearGradient></defs><g font-family="sans-serif" lengthAdjust="spacing"><rect x="0" y="0" width="784" height="616" fill="#F5F5F5" style="stroke:none;"/><g class="title" data-source-line="1"><text x="134.422" y="32.995" fill="#000" font-size="14" textLength="514.001" font-weight="700" font-family="'Arial'">Prüfung des Planzustands und Erzeugung des Collection Bundles</text></g><ellipse cx="352.379" cy="62.297" rx="10" ry="10" fill="#111827" style="stroke:#222;stroke-width:1;"/><polygon points="295.132,92.297,409.627,92.297,421.627,108.594,409.627,124.891,295.132,124.891,283.132,108.594,295.132,92.297" fill="#EEF2FF" style="stroke:#111827;stroke-width:1;stroke-linejoin:miter;stroke-miterlimit:10;"/><text x="295.132" y="105.292" fill="#000" font-size="14" textLength="114.495" font-family="'Arial'">Medikationsplan</text><text x="295.132" y="121.589" fill="#000" font-size="14" textLength="82.735" font-family="'Arial'">vorhanden?</text><text x="251.283" y="105.292" fill="#000" font-size="14" textLength="31.849" font-family="'Arial'">Nein</text><text x="421.627" y="105.292" fill="#000" font-size="14" textLength="12.708" font-family="'Arial'">Ja</text><path d="M197.668,134.891 L197.668,160.336 L177.668,164.336 L197.668,168.336 L197.668,193.781 A0,0 0 0 0 197.668,193.781 L393.839,193.781 A0,0 0 0 0 393.839,193.781 L393.839,144.891 L383.839,134.891 L197.668,134.891 A0,0 0 0 0 197.668,134.891" style="stroke:#8B95A5;stroke-width:1;" fill="url(#g1jtse1ye1fru90)"/><path d="M383.839,134.891 L383.839,144.891 L393.839,144.891 L383.839,134.891" style="stroke:#8B95A5;stroke-width:1;" fill="url(#g1jtse1ye1fru90)"/><text x="203.668" y="152.886" fill="#111827" font-size="14" textLength="175.171" font-family="'Arial'">Initialen Medikationsplan</text><text x="203.668" y="169.183" fill="#111827" font-size="14" textLength="61.031" font-family="'Arial'">erstellen</text><text x="203.668" y="185.479" fill="#111827" font-size="14" textLength="159.414" font-family="'Arial'">(Sub_UC_eMed_01_03)</text><rect x="16" y="138.039" width="161.668" height="52.594" fill="#FFF" style="stroke:#555;stroke-width:1;" rx="5" ry="5"/><text x="26" y="161.034" fill="#000" font-size="14" textLength="141.668" font-family="'Arial'">List.emptyReason =</text><text x="26" y="177.331" fill="#000" font-size="14" textLength="73.035" font-family="'Arial'">notstarted</text><polygon points="563.682,134.891,652.167,134.891,664.167,151.188,652.167,167.484,563.682,167.484,551.682,151.188,563.682,134.891" fill="#EEF2FF" style="stroke:#111827;stroke-width:1;stroke-linejoin:miter;stroke-miterlimit:10;"/><text x="563.682" y="147.886" fill="#000" font-size="14" textLength="88.484" font-family="'Arial'">Planeinträge</text><text x="563.682" y="164.183" fill="#000" font-size="14" textLength="82.735" font-family="'Arial'">vorhanden?</text><text x="538.974" y="147.886" fill="#000" font-size="14" textLength="12.708" font-family="'Arial'">Ja</text><text x="664.167" y="147.886" fill="#000" font-size="14" textLength="31.849" font-family="'Arial'">Nein</text><rect x="442.261" y="177.484" width="144.824" height="52.594" fill="#FFF" style="stroke:#555;stroke-width:1;" rx="5" ry="5"/><text x="452.261" y="200.479" fill="#000" font-size="14" textLength="124.824" font-family="'Arial'">Transformationen</text><text x="452.261" y="216.776" fill="#000" font-size="14" textLength="86.003" font-family="'Arial'">durchführen</text><rect x="433.839" y="308.82" width="161.668" height="52.594" fill="#FFF" style="stroke:#555;stroke-width:1;" rx="5" ry="5"/><text x="443.839" y="331.815" fill="#000" font-size="14" textLength="141.668" font-family="'Arial'">List.emptyReason =</text><text x="443.839" y="348.112" fill="#000" font-size="14" textLength="62.521" font-family="'Arial'">nilknown</text><polygon points="451.201,250.078,578.145,250.078,590.145,266.375,578.145,282.672,451.201,282.672,439.201,266.375,451.201,250.078" fill="#EEF2FF" style="stroke:#111827;stroke-width:1;stroke-linejoin:miter;stroke-miterlimit:10;"/><text x="518.673" y="295.667" fill="#000" font-size="14" textLength="31.849" font-family="'Arial'">Nein</text><text x="451.201" y="263.073" fill="#000" font-size="14" textLength="126.943" font-family="'Arial'">noch Planeinträge</text><text x="451.201" y="279.37" fill="#000" font-size="14" textLength="82.735" font-family="'Arial'">vorhanden?</text><text x="590.145" y="263.073" fill="#000" font-size="14" textLength="12.708" font-family="'Arial'">Ja</text><polygon points="514.673,381.414,526.673,393.414,514.673,405.414,502.673,393.414,514.673,381.414" fill="#EEF2FF" style="stroke:#111827;stroke-width:1;stroke-linejoin:miter;stroke-miterlimit:10;"/><rect x="637.507" y="177.484" width="127.338" height="52.594" fill="#FFF" style="stroke:#555;stroke-width:1;" rx="5" ry="5"/><text x="647.507" y="200.479" fill="#000" font-size="14" textLength="38.097" font-family="'Arial'">keine</text><text x="647.507" y="216.776" fill="#000" font-size="14" textLength="107.338" font-family="'Arial'">Transformation</text><polygon points="607.924,411.414,619.924,423.414,607.924,435.414,595.924,423.414,607.924,411.414" fill="#EEF2FF" style="stroke:#111827;stroke-width:1;stroke-linejoin:miter;stroke-miterlimit:10;"/><polygon points="352.379,441.414,364.379,453.414,352.379,465.414,340.379,453.414,352.379,441.414" fill="#EEF2FF" style="stroke:#111827;stroke-width:1;stroke-linejoin:miter;stroke-miterlimit:10;"/><rect x="281.16" y="485.414" width="142.438" height="68.891" fill="#FFF" style="stroke:#555;stroke-width:1;" rx="5" ry="5"/><text x="291.16" y="508.409" fill="#000" font-size="14" textLength="122.438" font-family="'Arial'">Collection Bundle</text><text x="291.16" y="524.706" fill="#000" font-size="14" textLength="114.495" font-family="'Arial'">zur Auslieferung</text><text x="291.16" y="541.003" fill="#000" font-size="14" textLength="65.577" font-family="'Arial'">erzeugen</text><ellipse cx="352.379" cy="585.305" rx="11" ry="11" fill="none" style="stroke:#222;stroke-width:1;"/><ellipse cx="352.379" cy="585.305" rx="6" ry="6" fill="#222" style="stroke:#222;stroke-width:1;"/><line x1="514.673" y1="282.672" x2="514.673" y2="308.82" style="stroke:#111827;stroke-width:1;"/><polygon points="510.673,298.82,514.673,308.82,518.673,298.82,514.673,302.82" fill="#111827" style="stroke:#111827;stroke-width:1;stroke-linejoin:miter;stroke-miterlimit:10;"/><line x1="590.145" y1="266.375" x2="605.507" y2="266.375" style="stroke:#111827;stroke-width:1;"/><polygon points="601.507,322.969,605.507,332.969,609.507,322.969,605.507,326.969" fill="#111827" style="stroke:#111827;stroke-width:1;stroke-linejoin:miter;stroke-miterlimit:10;"/><line x1="605.507" y1="266.375" x2="605.507" y2="393.414" style="stroke:#111827;stroke-width:1;"/><line x1="605.507" y1="393.414" x2="526.673" y2="393.414" style="stroke:#111827;stroke-width:1;"/><polygon points="536.673,389.414,526.673,393.414,536.673,397.414,532.673,393.414" fill="#111827" style="stroke:#111827;stroke-width:1;stroke-linejoin:miter;stroke-miterlimit:10;"/><line x1="514.673" y1="361.414" x2="514.673" y2="381.414" style="stroke:#111827;stroke-width:1;"/><polygon points="510.673,371.414,514.673,381.414,518.673,371.414,514.673,375.414" fill="#111827" style="stroke:#111827;stroke-width:1;stroke-linejoin:miter;stroke-miterlimit:10;"/><line x1="514.673" y1="230.078" x2="514.673" y2="250.078" style="stroke:#111827;stroke-width:1;"/><polygon points="510.673,240.078,514.673,250.078,518.673,240.078,514.673,244.078" fill="#111827" style="stroke:#111827;stroke-width:1;stroke-linejoin:miter;stroke-miterlimit:10;"/><line x1="551.682" y1="151.188" x2="514.673" y2="151.188" style="stroke:#111827;stroke-width:1;"/><line x1="514.673" y1="151.188" x2="514.673" y2="177.484" style="stroke:#111827;stroke-width:1;"/><polygon points="510.673,167.484,514.673,177.484,518.673,167.484,514.673,171.484" fill="#111827" style="stroke:#111827;stroke-width:1;stroke-linejoin:miter;stroke-miterlimit:10;"/><line x1="664.167" y1="151.188" x2="701.176" y2="151.188" style="stroke:#111827;stroke-width:1;"/><line x1="701.176" y1="151.188" x2="701.176" y2="177.484" style="stroke:#111827;stroke-width:1;"/><polygon points="697.176,167.484,701.176,177.484,705.176,167.484,701.176,171.484" fill="#111827" style="stroke:#111827;stroke-width:1;stroke-linejoin:miter;stroke-miterlimit:10;"/><line x1="514.673" y1="405.414" x2="514.673" y2="423.414" style="stroke:#111827;stroke-width:1;"/><line x1="514.673" y1="423.414" x2="595.924" y2="423.414" style="stroke:#111827;stroke-width:1;"/><polygon points="585.924,419.414,595.924,423.414,585.924,427.414,589.924,423.414" fill="#111827" style="stroke:#111827;stroke-width:1;stroke-linejoin:miter;stroke-miterlimit:10;"/><line x1="701.176" y1="230.078" x2="701.176" y2="423.414" style="stroke:#111827;stroke-width:1;"/><line x1="701.176" y1="423.414" x2="619.924" y2="423.414" style="stroke:#111827;stroke-width:1;"/><polygon points="629.924,419.414,619.924,423.414,629.924,427.414,625.924,423.414" fill="#111827" style="stroke:#111827;stroke-width:1;stroke-linejoin:miter;stroke-miterlimit:10;"/><line x1="283.132" y1="108.594" x2="96.834" y2="108.594" style="stroke:#111827;stroke-width:1;"/><line x1="96.834" y1="108.594" x2="96.834" y2="138.039" style="stroke:#111827;stroke-width:1;"/><polygon points="92.834,128.039,96.834,138.039,100.834,128.039,96.834,132.039" fill="#111827" style="stroke:#111827;stroke-width:1;stroke-linejoin:miter;stroke-miterlimit:10;"/><line x1="421.627" y1="108.594" x2="607.924" y2="108.594" style="stroke:#111827;stroke-width:1;"/><line x1="607.924" y1="108.594" x2="607.924" y2="134.891" style="stroke:#111827;stroke-width:1;"/><polygon points="603.924,124.891,607.924,134.891,611.924,124.891,607.924,128.891" fill="#111827" style="stroke:#111827;stroke-width:1;stroke-linejoin:miter;stroke-miterlimit:10;"/><line x1="96.834" y1="190.633" x2="96.834" y2="453.414" style="stroke:#111827;stroke-width:1;"/><line x1="96.834" y1="453.414" x2="340.379" y2="453.414" style="stroke:#111827;stroke-width:1;"/><polygon points="330.379,449.414,340.379,453.414,330.379,457.414,334.379,453.414" fill="#111827" style="stroke:#111827;stroke-width:1;stroke-linejoin:miter;stroke-miterlimit:10;"/><line x1="607.924" y1="435.414" x2="607.924" y2="453.414" style="stroke:#111827;stroke-width:1;"/><line x1="607.924" y1="453.414" x2="364.379" y2="453.414" style="stroke:#111827;stroke-width:1;"/><polygon points="374.379,449.414,364.379,453.414,374.379,457.414,370.379,453.414" fill="#111827" style="stroke:#111827;stroke-width:1;stroke-linejoin:miter;stroke-miterlimit:10;"/><line x1="352.379" y1="72.297" x2="352.379" y2="92.297" style="stroke:#111827;stroke-width:1;"/><polygon points="348.379,82.297,352.379,92.297,356.379,82.297,352.379,86.297" fill="#111827" style="stroke:#111827;stroke-width:1;stroke-linejoin:miter;stroke-miterlimit:10;"/><line x1="352.379" y1="465.414" x2="352.379" y2="485.414" style="stroke:#111827;stroke-width:1;"/><polygon points="348.379,475.414,352.379,485.414,356.379,475.414,352.379,479.414" fill="#111827" style="stroke:#111827;stroke-width:1;stroke-linejoin:miter;stroke-miterlimit:10;"/><line x1="352.379" y1="554.305" x2="352.379" y2="574.305" style="stroke:#111827;stroke-width:1;"/><polygon points="348.379,564.305,352.379,574.305,356.379,564.305,352.379,568.305" fill="#111827" style="stroke:#111827;stroke-width:1;stroke-linejoin:miter;stroke-miterlimit:10;"/><?plantuml-src ZLJ1RXen4BtlLuoI2nnQxTBI9aHL1IbLMxKH2iaD2HayPgrTR6HxGw7gt_GpSkF7EZOBSc0hrNjOU-RvpPknnqww4c5aTi-YKWlWQ65KChMjh6EAMwWKXw7POhKuk6zrMUBSIQrWGDuIRPBOGgeLCsm9Csqu6i9e0vTf6B6NpOk5qRIjHeYk_oA4pHdNQqcn12ijHfvwcr5e88j9EGfMbUwpLkwEBH4k-aQoyg8PCPPRXEnji_DVihziLcXAgOe8C1ms0HuL3nCyap_GFqUCSvzP9trf7yGrwuOHbrHfX_0h0HYSLWzJx8hqrINF-3M-yuYOwMfstMNTe_KXb_D2eRMGaUq-gcPAwuCspnAL8ikogyvxierFpkLth93HTNYIRjEiKeHnggxEirdT-M7iROVJ0_WasL8hVbuI59qGx028OnwpgPrDOSQEcRFiXqV-ewblZ5ut6kDKV9ayOP980QqVo6N1VElO5JNPH3rfarEReVhO1fUZWjOTIjLEYAhtNLht6fShjxb7PgdRFamKNOL0X_p6OyBDC7AHEre0V5NIqSqdcfD0mOl6EgJMtQzQusesVRoT8a6dQJPDtxJ9ZjJjdZH9a0uPMjzOqEAr-rU1j3cp-xF09kKrbfG_6AQiq6OP523boIippyNkEJUeRlOepwdqF8V_9zvhEbOen6giaYmBfTU7I9IK57vwjhzNq9nYlXGSjjMRwb_lxD6Rq1Dfe5_PKg90Gu_ZX5h9lvCXG-lqwYy0?></g></svg>