<?xml version="1.0" encoding="us-ascii" standalone="no"?><svg xmlns="http://www.w3.org/2000/svg" xmlns:xlink="http://www.w3.org/1999/xlink" contentStyleType="text/css" height="568px" preserveAspectRatio="none" style="width:802px;height:568px;background:#F5F5F5;" version="1.1" viewBox="0 0 802 568" width="802px" zoomAndPan="magnify"><defs><linearGradient id="g1391o6weyh8at0" x1="50%" x2="50%" y1="0%" y2="100%"><stop offset="0%" stop-color="#E0E5F0"/><stop offset="100%" stop-color="#D1D9E6"/></linearGradient></defs><g><rect fill="#F5F5F5" height="568" style="stroke:none;stroke-width:1.0;" width="802" x="0" y="0"/><text fill="#000000" font-family="Arial" font-size="14" font-weight="bold" lengthAdjust="spacing" textLength="173" x="310.5" y="28.1318">Geplante Abgaben lesen</text><text fill="#000000" font-family="Arial" font-size="14" font-weight="bold" lengthAdjust="spacing" textLength="244" x="275" y="44.2305">Variante B: Zugriff mittels e-Rezept</text><rect fill="#0F9ED5" fill-opacity="0.56471" height="170.4893" style="stroke:#181818;stroke-width:1.0;" width="10" x="173" y="224.292"/><rect fill="#E97232" fill-opacity="0.74118" height="170.4893" style="stroke:#181818;stroke-width:1.0;" width="10" x="635" y="224.292"/><rect fill="#0F9ED5" fill-opacity="0.14510" height="163.4893" rx="5" ry="5" style="stroke:#111827;stroke-width:2.0;" width="650" x="135" y="239.292"/><path d="M135,355.7339 L785,355.7339 L785,397.7813 A5,5 0 0 1 780,402.7813 L140,402.7813 A5,5 0 0 1 135,397.7813 L135,355.7339 " fill="#E97132" fill-opacity="0.20784" style="stroke:none;stroke-width:1.0;"/><line style="stroke:#181818;stroke-width:0.5;stroke-dasharray:5.0,5.0;" x1="178" x2="178" y1="134.2959" y2="488.0771"/><line style="stroke:#181818;stroke-width:0.5;stroke-dasharray:5.0,5.0;" x1="640" x2="640" y1="134.2959" y2="488.0771"/><text fill="#000000" font-family="Arial" font-size="14" lengthAdjust="spacing" textLength="60" x="145" y="131.3291">Apotheke</text><ellipse cx="178" cy="66.6973" fill="#0F9ED5" fill-opacity="0.56471" rx="8" ry="8" style="stroke:#181818;stroke-width:0.5;"/><path d="M178,74.6973 L178,101.6973 M165,82.6973 L191,82.6973 M178,101.6973 L165,116.6973 M178,101.6973 L191,116.6973 " fill="none" style="stroke:#181818;stroke-width:0.5;"/><text fill="#000000" font-family="Arial" font-size="14" lengthAdjust="spacing" textLength="60" x="145" y="500.209">Apotheke</text><ellipse cx="178" cy="511.6758" fill="#0F9ED5" fill-opacity="0.56471" rx="8" ry="8" style="stroke:#181818;stroke-width:0.5;"/><path d="M178,519.6758 L178,546.6758 M165,527.6758 L191,527.6758 M178,546.6758 L165,561.6758 M178,546.6758 L191,561.6758 " fill="none" style="stroke:#181818;stroke-width:0.5;"/><rect fill="#E97232" fill-opacity="0.74118" height="30.0986" rx="5" ry="5" style="stroke:#555555;stroke-width:0.5;" width="76" x="602" y="103.1973"/><text fill="#000000" font-family="Arial" font-size="14" lengthAdjust="spacing" textLength="62" x="609" y="123.3291">e-Med FA</text><rect fill="#E97232" fill-opacity="0.74118" height="30.0986" rx="5" ry="5" style="stroke:#555555;stroke-width:0.5;" width="76" x="602" y="487.0771"/><text fill="#000000" font-family="Arial" font-size="14" lengthAdjust="spacing" textLength="62" x="609" y="507.209">e-Med FA</text><rect fill="#0F9ED5" fill-opacity="0.56471" height="170.4893" style="stroke:#181818;stroke-width:1.0;" width="10" x="173" y="224.292"/><rect fill="#E97232" fill-opacity="0.74118" height="170.4893" style="stroke:#181818;stroke-width:1.0;" width="10" x="635" y="224.292"/><rect fill="#EEEEEE" height="3" rx="5" ry="5" style="stroke:#EEEEEE;stroke-width:1.0;" width="795" x="0" y="165.3452"/><line style="stroke:#000000;stroke-width:1.0;" x1="0" x2="795" y1="165.3452" y2="165.3452"/><line style="stroke:#000000;stroke-width:1.0;" x1="0" x2="795" y1="168.3452" y2="168.3452"/><rect fill="#EEEEEE" height="24.0986" rx="5" ry="5" style="stroke:#000000;stroke-width:2.0;" width="211" x="292" y="154.2959"/><text fill="#000000" font-family="Arial" font-size="14" font-weight="bold" lengthAdjust="spacing" textLength="189" x="298" y="171.4277">Geplante Abgaben abrufen</text><polygon fill="#111827" points="623,220.292,633,224.292,623,228.292,627,224.292" style="stroke:#111827;stroke-width:1.0;"/><line style="stroke:#111827;stroke-width:1.0;" x1="183" x2="629" y1="224.292" y2="224.292"/><text fill="#000000" font-family="Arial" font-size="13" font-weight="bold" lengthAdjust="spacing" textLength="7" x="190" y="212.0627">1</text><text fill="#000000" font-family="Arial" font-size="13" lengthAdjust="spacing" textLength="427" x="201" y="204.5884">GET MedicationRequest mit Suchkriterium category = "Geplante Abgabe"</text><text fill="#000000" font-family="Arial" font-size="13" lengthAdjust="spacing" textLength="213" x="201" y="219.5371">und e-Med Groupidentifier (QR-Code)</text><path d="M140,239.292 L197,239.292 L197,247.3906 L187,257.3906 L135,257.3906 L135,244.292 A5,5 0 0 1 140,239.292 " fill="#EEF2FF" style="stroke:#111827;stroke-width:1.5;"/><rect fill="none" height="163.4893" rx="5" ry="5" style="stroke:#111827;stroke-width:2.0;" width="650" x="135" y="239.292"/><text fill="#000000" font-family="Arial" font-size="14" font-weight="bold" lengthAdjust="spacing" textLength="17" x="150" y="253.4238">alt</text><text fill="#000000" font-family="Arial" font-size="14" font-weight="bold" lengthAdjust="spacing" textLength="211" x="212" y="254.4238">[e-Med GroupIdentifier g&#252;ltig]</text><path d="M504,268.4893 L504,316.4893 A5,5 0 0 0 509,321.4893 L770,321.4893 A5,5 0 0 0 775,316.4893 L775,273.4893 L765,263.4893 L509,263.4893 A5,5 0 0 0 504,268.4893 " fill="url(#g1391o6weyh8at0)" style="stroke:#8B95A5;stroke-width:1.0;"/><path d="M765,263.4893 L765,270.9893 A2.5,2.5 0 0 0 767.5,273.4893 L775,273.4893 L765,263.4893 " fill="url(#g1391o6weyh8at0)" style="stroke:#8B95A5;stroke-width:1.0;"/><text fill="#111827" font-family="Arial" font-size="14" lengthAdjust="spacing" textLength="250" x="510" y="281.6211">Pr&#252;fung des e-Med GroupIdentifiers, ob</text><text fill="#111827" font-family="Arial" font-size="14" lengthAdjust="spacing" textLength="149" x="510" y="297.7197">- noch nicht abgelaufen</text><text fill="#111827" font-family="Arial" font-size="14" lengthAdjust="spacing" textLength="172" x="510" y="313.8184">- weitere Einl&#246;sung m&#246;glich</text><polygon fill="#111827" points="194,343.7339,184,347.7339,194,351.7339,190,347.7339" style="stroke:#111827;stroke-width:1.0;"/><line style="stroke:#111827;stroke-width:1.0;stroke-dasharray:2.0,2.0;" x1="188" x2="634" y1="347.7339" y2="347.7339"/><text fill="#000000" font-family="Arial" font-size="13" font-weight="bold" lengthAdjust="spacing" textLength="7" x="200" y="342.979">2</text><text fill="#000000" font-family="Arial" font-size="13" lengthAdjust="spacing" textLength="107" x="211" y="342.979">Geplante Abgaben</text><line style="stroke:#111827;stroke-width:1.0;stroke-dasharray:2.0,2.0;" x1="135" x2="785" y1="356.7339" y2="356.7339"/><text fill="#000000" font-family="Arial" font-size="14" font-weight="bold" lengthAdjust="spacing" textLength="89" x="140" y="369.8657">[nicht g&#252;ltig]</text><polygon fill="#111827" points="189,390.7813,179,394.7813,189,398.7813,185,394.7813" style="stroke:#111827;stroke-width:1.0;"/><line style="stroke:#111827;stroke-width:1.0;stroke-dasharray:2.0,2.0;" x1="183" x2="639" y1="394.7813" y2="394.7813"/><text fill="#000000" font-family="Arial" font-size="13" font-weight="bold" lengthAdjust="spacing" textLength="7" x="195" y="390.0264">3</text><text fill="#000000" font-family="Arial" font-size="13" lengthAdjust="spacing" textLength="36" x="206" y="390.0264">Fehler</text><path d="M5,419.7813 L5,467.7813 A5,5 0 0 0 10,472.7813 L346,472.7813 A5,5 0 0 0 351,467.7813 L351,424.7813 L341,414.7813 L10,414.7813 A5,5 0 0 0 5,419.7813 " fill="url(#g1391o6weyh8at0)" style="stroke:#8B95A5;stroke-width:1.0;"/><path d="M341,414.7813 L341,422.2813 A2.5,2.5 0 0 0 343.5,424.7813 L351,424.7813 L341,414.7813 " fill="url(#g1391o6weyh8at0)" style="stroke:#8B95A5;stroke-width:1.0;"/><text fill="#111827" font-family="Arial" font-size="14" lengthAdjust="spacing" textLength="321" x="11" y="432.9131">GDA erh&#228;lt ausschlie&#223;lich die Geplanten Abgaben,</text><text fill="#111827" font-family="Arial" font-size="14" lengthAdjust="spacing" textLength="306" x="11" y="449.0117">die dem im QR-Code des e-Rezepts enthaltenen</text><text fill="#111827" font-family="Arial" font-size="14" lengthAdjust="spacing" textLength="247" x="11" y="465.1104">e-Med GroupIdentifier zugeordnet sind.</text><!--SRC=[VLRDZk964BxtKrJWGA8i4JOB32CH2GRFP9JiGXYImsebrDXbkuLfatPx9pDHdYMNFCEUziQBfTes-0Ssvk1srTVLzNrLNK8B7I4yu27YKYDCjm7VeeG84vGVvUzSYSm-kuKFQQ24xyDUQ8rH0jXTuIiUD6ETP2VaWIk-1-xgM3tf5uh9dp69zyXOwTt6oaDr5qUnWdOlUwfUxku25QVIAn3-mFmgY2JaNlmiP00-ZnAiU8fjIg82gnhKGv-daRwFfNxFzmYjAJ6AMjSHJ-8LmNfxtVcrj7zwEQ2AXDnL08vp3V2RzB85NgG_Y_zSSiyppEnUtJwhQZR8dggaCgRg_CK0Patri8S3lzTjUvOtng51L2FTRCS3FZXRrw5mTnAJ12oohIfgzkZxb9k9Kf72igmRUqIsfqPT_gvccE0VAKetptB9bHQkE51JNIDM0roAVk4-5Qpcg2W9C5KgVcxccndhb3FJjHFFZloiFfaUIEP3BVrpvDnrKGhqRT-lxooFjurUtr2dcSwuM_ooM6qUvjED1VIqhS6mTsFVzAu0x0mm7Wvxe_a5O3bTFphlroR2U3Yptru0fii5P4-xTpzsveDn4-2yS-QR-oa1S3oo-_RMQm8sA-U3irn3s_NwexxDnqqQYv-XTeOzQ8POhHQh3E2CHrRVxbDlTx8P0ha4F84MhS1gLPLX9MHwY3CGlNM8EsoLzDYXx0d0T-WPDWQBNVg0-schpfHrQXis-NWhTkGVhGPrndYgOvdkjwWOcqmk1odVgjIdDqmch4E0KoJu_kjOWh8EK38bkd2H6Swqkp-UaxmjaStnt7sSmxU_hhftiOVVrUAGYE8Jf_DF0KlbQkwp4Wtk1dJsTIcR8aubcGpZuKKemu-IH61LCdc9Rk71MGEjXSkrYENAp8ya8mPFgHlkbD2eHBe7ycCGgnUOK9FKnMnzb7Jz8AzqTkk4Xr8BNz18Eyl1_aU2CkUYS-gzmYDTDddbcCVocE3u9T8Ye6kV3Udu4zcAO6PWgUCNFwKnvM5oFK3o1k8j8Rkqtmr12ZSqZH1WnBCQ6iyp6Z4G726Zu-V4nDiVFmSHOScF984vsomB5hKwDJkGPJMfNityq9B9rJ3t64RK__LAdubMZCKEHdcnKfEJrTnpLE7nNvAMfqdYXf70up-62tYY_9CYJ-c-0MRi7kv1xA4eQg5dtcUqaZgaMg6aRUnwdLxJ06aaIzIG2EdzmCwo_GS0]--></g></svg>