<?xml version="1.0" encoding="us-ascii" standalone="no"?><svg xmlns="http://www.w3.org/2000/svg" xmlns:xlink="http://www.w3.org/1999/xlink" contentStyleType="text/css" height="1252px" preserveAspectRatio="none" style="width:710px;height:1252px;background:#F5F5F5;" version="1.1" viewBox="0 0 710 1252" width="710px" zoomAndPan="magnify"><defs><linearGradient id="g1nz6myjb7a5r80" x1="50%" x2="50%" y1="0%" y2="100%"><stop offset="0%" stop-color="#E0E5F0"/><stop offset="100%" stop-color="#D1D9E6"/></linearGradient></defs><g><rect fill="#F5F5F5" height="1252" style="stroke:none;stroke-width:1.0;" width="710" x="0" y="0"/><text fill="#000000" font-family="Arial" font-size="14" font-weight="bold" lengthAdjust="spacing" textLength="428" x="137.25" y="28.1318">Variante A: Vorab-Ermittlung des GroupIdentifiers (Fehlerfall)</text><rect fill="#156082" fill-opacity="0.50196" height="1005.1465" style="stroke:#181818;stroke-width:1.0;" width="10" x="182" y="128.1973"/><rect fill="#E97232" fill-opacity="0.74118" height="123.0947" style="stroke:#181818;stroke-width:1.0;" width="10" x="388" y="336.7378"/><rect fill="#E97232" fill-opacity="0.74118" height="245.6353" style="stroke:#181818;stroke-width:1.0;" width="10" x="388" y="840.6611"/><rect fill="#CD3732" fill-opacity="0.66275" height="138.292" style="stroke:#181818;stroke-width:1.0;" width="10" x="603" y="583.2744"/><rect fill="none" height="612.2153" rx="5" ry="5" style="stroke:#111827;stroke-width:2.0;" width="684.5" x="9" y="543.1284"/><rect fill="#0F9ED5" fill-opacity="0.14510" height="160.2407" rx="5" ry="5" style="stroke:#111827;stroke-width:2.0;" width="654.5" x="19" y="634.373"/><path d="M19,682.519 L673.5,682.519 L673.5,789.6138 A5,5 0 0 1 668.5,794.6138 L24,794.6138 A5,5 0 0 1 19,789.6138 L19,682.519 " fill="#E97132" fill-opacity="0.20784" style="stroke:none;stroke-width:1.0;"/><rect fill="#0F9ED5" fill-opacity="0.14510" height="240.4854" rx="5" ry="5" style="stroke:#111827;stroke-width:2.0;" width="540.5" x="143" y="907.8584"/><path d="M143,992.103 L683.5,992.103 L683.5,1143.3438 A5,5 0 0 1 678.5,1148.3438 L148,1148.3438 A5,5 0 0 1 143,1143.3438 L143,992.103 " fill="#E97132" fill-opacity="0.20784" style="stroke:none;stroke-width:1.0;"/><rect fill="#0F9ED5" fill-opacity="0.14510" height="95.1934" rx="5" ry="5" style="stroke:#111827;stroke-width:2.0;" width="520.5" x="153" y="1046.1504"/><path d="M153,1094.2964 L673.5,1094.2964 L673.5,1136.3438 A5,5 0 0 1 668.5,1141.3438 L158,1141.3438 A5,5 0 0 1 153,1136.3438 L153,1094.2964 " fill="#E97132" fill-opacity="0.20784" style="stroke:none;stroke-width:1.0;"/><line style="stroke:#181818;stroke-width:0.5;stroke-dasharray:5.0,5.0;" x1="187" x2="187" y1="118.1973" y2="1172.3438"/><line style="stroke:#181818;stroke-width:0.5;stroke-dasharray:5.0,5.0;" x1="393" x2="393" y1="118.1973" y2="1172.3438"/><line style="stroke:#181818;stroke-width:0.5;stroke-dasharray:5.0,5.0;" x1="607.5" x2="607.5" y1="118.1973" y2="1172.3438"/><text fill="#000000" font-family="Arial" font-size="14" lengthAdjust="spacing" textLength="42" x="163" y="115.2305">GDA 1</text><ellipse cx="187" cy="50.5986" fill="#156082" fill-opacity="0.50196" rx="8" ry="8" style="stroke:#181818;stroke-width:0.5;"/><path d="M187,58.5986 L187,85.5986 M174,66.5986 L200,66.5986 M187,85.5986 L174,100.5986 M187,85.5986 L200,100.5986 " fill="none" style="stroke:#181818;stroke-width:0.5;"/><text fill="#000000" font-family="Arial" font-size="14" lengthAdjust="spacing" textLength="42" x="163" y="1184.4756">GDA 1</text><ellipse cx="187" cy="1195.9424" fill="#156082" fill-opacity="0.50196" rx="8" ry="8" style="stroke:#181818;stroke-width:0.5;"/><path d="M187,1203.9424 L187,1230.9424 M174,1211.9424 L200,1211.9424 M187,1230.9424 L174,1245.9424 M187,1230.9424 L200,1245.9424 " fill="none" style="stroke:#181818;stroke-width:0.5;"/><rect fill="#E97232" fill-opacity="0.74118" height="30.0986" rx="5" ry="5" style="stroke:#555555;stroke-width:0.5;" width="76" x="355" y="87.0986"/><text fill="#000000" font-family="Arial" font-size="14" lengthAdjust="spacing" textLength="62" x="362" y="107.2305">e-Med FA</text><rect fill="#E97232" fill-opacity="0.74118" height="30.0986" rx="5" ry="5" style="stroke:#555555;stroke-width:0.5;" width="76" x="355" y="1171.3438"/><text fill="#000000" font-family="Arial" font-size="14" lengthAdjust="spacing" textLength="62" x="362" y="1191.4756">e-Med FA</text><rect fill="#CD3732" fill-opacity="0.66275" height="30.0986" rx="5" ry="5" style="stroke:#555555;stroke-width:0.5;" width="71" x="572.5" y="87.0986"/><text fill="#000000" font-family="Arial" font-size="14" lengthAdjust="spacing" textLength="57" x="579.5" y="107.2305">e-Rezept</text><rect fill="#CD3732" fill-opacity="0.66275" height="30.0986" rx="5" ry="5" style="stroke:#555555;stroke-width:0.5;" width="71" x="572.5" y="1171.3438"/><text fill="#000000" font-family="Arial" font-size="14" lengthAdjust="spacing" textLength="57" x="579.5" y="1191.4756">e-Rezept</text><rect fill="#156082" fill-opacity="0.50196" height="1005.1465" style="stroke:#181818;stroke-width:1.0;" width="10" x="182" y="128.1973"/><rect fill="#E97232" fill-opacity="0.74118" height="123.0947" style="stroke:#181818;stroke-width:1.0;" width="10" x="388" y="336.7378"/><rect fill="#E97232" fill-opacity="0.74118" height="245.6353" style="stroke:#181818;stroke-width:1.0;" width="10" x="388" y="840.6611"/><rect fill="#CD3732" fill-opacity="0.66275" height="138.292" style="stroke:#181818;stroke-width:1.0;" width="10" x="603" y="583.2744"/><rect fill="#EEEEEE" height="3" rx="5" ry="5" style="stroke:#EEEEEE;stroke-width:1.0;" width="703.5" x="0" y="149.2466"/><line style="stroke:#000000;stroke-width:1.0;" x1="0" x2="703.5" y1="149.2466" y2="149.2466"/><line style="stroke:#000000;stroke-width:1.0;" x1="0" x2="703.5" y1="152.2466" y2="152.2466"/><rect fill="#EEEEEE" height="24.0986" rx="5" ry="5" style="stroke:#000000;stroke-width:2.0;" width="193" x="255.25" y="138.1973"/><text fill="#000000" font-family="Arial" font-size="14" font-weight="bold" lengthAdjust="spacing" textLength="175" x="261.25" y="155.3291">Medikationsplan abrufen</text><rect fill="none" height="42.1973" rx="5" ry="5" style="stroke:#000000;stroke-width:1.5;" width="294" x="160" y="172.2959"/><path d="M165,172.2959 L225,172.2959 L225,180.2959 L215,190.2959 L160,190.2959 L160,177.2959 A5,5 0 0 1 165,172.2959 " fill="#EEEEEE" style="stroke:#000000;stroke-width:2.0;"/><text fill="#000000" font-family="Arial" font-size="14" font-weight="bold" lengthAdjust="spacing" textLength="20" x="173" y="187.4277">ref</text><a href="interactions.html#sequenzdiagramm-plan-read" target="_top" title="interactions.html#sequenzdiagramm-plan-read" xlink:actuate="onRequest" xlink:href="interactions.html#sequenzdiagramm-plan-read" xlink:show="new" xlink:title="interactions.html#sequenzdiagramm-plan-read" xlink:type="simple"><text fill="#0000EE" font-family="Arial" font-size="14" lengthAdjust="spacing" textLength="67" x="273.5" y="207.4277">Plan-Read</text></a><path d="M61,229.4932 L61,261.4932 A5,5 0 0 0 66,266.4932 L307,266.4932 A5,5 0 0 0 312,261.4932 L312,234.4932 L302,224.4932 L66,224.4932 A5,5 0 0 0 61,229.4932 " fill="url(#g1nz6myjb7a5r80)" style="stroke:#8B95A5;stroke-width:1.0;"/><path d="M302,224.4932 L302,231.9932 A2.5,2.5 0 0 0 304.5,234.4932 L312,234.4932 L302,224.4932 " fill="url(#g1nz6myjb7a5r80)" style="stroke:#8B95A5;stroke-width:1.0;"/><text fill="#111827" font-family="Arial" font-size="14" lengthAdjust="spacing" textLength="176" x="67" y="242.625">GDA erh&#228;lt Medikationsplan</text><text fill="#111827" font-family="Arial" font-size="14" lengthAdjust="spacing" textLength="230" x="67" y="258.7236">(Medikationsplan-Searchset-Bundle)</text><rect fill="#EEEEEE" height="3" rx="5" ry="5" style="stroke:#EEEEEE;stroke-width:1.0;" width="703.5" x="0" y="292.7397"/><line style="stroke:#000000;stroke-width:1.0;" x1="0" x2="703.5" y1="292.7397" y2="292.7397"/><line style="stroke:#000000;stroke-width:1.0;" x1="0" x2="703.5" y1="295.7397" y2="295.7397"/><rect fill="#EEEEEE" height="24.0986" rx="5" ry="5" style="stroke:#000000;stroke-width:2.0;" width="338" x="182.75" y="281.6904"/><text fill="#000000" font-family="Arial" font-size="14" font-style="italic" font-weight="bold" lengthAdjust="spacing" textLength="126" x="188.75" y="298.8223">Geplante Abgaben</text><text fill="#000000" font-family="Arial" font-size="14" font-weight="bold" lengthAdjust="spacing" textLength="190" x="318.75" y="298.8223">vorbereiten und schreiben</text><polygon fill="#111827" points="376,332.7378,386,336.7378,376,340.7378,380,336.7378" style="stroke:#111827;stroke-width:1.0;"/><line style="stroke:#111827;stroke-width:1.0;" x1="192" x2="382" y1="336.7378" y2="336.7378"/><text fill="#000000" font-family="Arial" font-size="13" font-weight="bold" lengthAdjust="spacing" textLength="7" x="199" y="331.9829">1</text><text fill="#000000" font-family="Arial" font-size="13" lengthAdjust="spacing" textLength="166" x="210" y="331.9829">POST $groupidentifier-create&#8203;</text><path d="M41,354.7378 L41,386.7378 A5,5 0 0 0 46,391.7378 L327,391.7378 A5,5 0 0 0 332,386.7378 L332,359.7378 L322,349.7378 L46,349.7378 A5,5 0 0 0 41,354.7378 " fill="url(#g1nz6myjb7a5r80)" style="stroke:#8B95A5;stroke-width:1.0;"/><path d="M322,349.7378 L322,357.2378 A2.5,2.5 0 0 0 324.5,359.7378 L332,359.7378 L322,349.7378 " fill="url(#g1nz6myjb7a5r80)" style="stroke:#8B95A5;stroke-width:1.0;"/><text fill="#111827" font-family="Arial" font-size="14" lengthAdjust="spacing" textLength="270" x="47" y="367.8696">e-Med GroupIdentifier f&#252;r "Rezeptklammer"</text><text fill="#111827" font-family="Arial" font-size="14" lengthAdjust="spacing" textLength="62" x="47" y="383.9683">anfordern</text><line style="stroke:#111827;stroke-width:1.0;" x1="398" x2="440" y1="417.8838" y2="417.8838"/><line style="stroke:#111827;stroke-width:1.0;" x1="440" x2="440" y1="417.8838" y2="430.8838"/><line style="stroke:#111827;stroke-width:1.0;" x1="399" x2="440" y1="430.8838" y2="430.8838"/><polygon fill="#111827" points="409,426.8838,399,430.8838,409,434.8838,405,430.8838" style="stroke:#111827;stroke-width:1.0;"/><text fill="#000000" font-family="Arial" font-size="13" font-weight="bold" lengthAdjust="spacing" textLength="7" x="405" y="413.1289">2</text><text fill="#000000" font-family="Arial" font-size="13" lengthAdjust="spacing" textLength="180" x="416" y="413.1289">e-Med GroupIdentifier erzeugen</text><polygon fill="#111827" points="203,455.8325,193,459.8325,203,463.8325,199,459.8325" style="stroke:#111827;stroke-width:1.0;"/><line style="stroke:#111827;stroke-width:1.0;stroke-dasharray:2.0,2.0;" x1="197" x2="392" y1="459.8325" y2="459.8325"/><text fill="#000000" font-family="Arial" font-size="13" font-weight="bold" lengthAdjust="spacing" textLength="7" x="209" y="455.0776">3</text><text fill="#000000" font-family="Arial" font-size="13" lengthAdjust="spacing" textLength="123" x="220" y="455.0776">e-Med GroupIdentifier</text><path d="M43,477.8325 L43,525.8325 A5,5 0 0 0 48,530.8325 L325,530.8325 A5,5 0 0 0 330,525.8325 L330,482.8325 L320,472.8325 L48,472.8325 A5,5 0 0 0 43,477.8325 " fill="url(#g1nz6myjb7a5r80)" style="stroke:#8B95A5;stroke-width:1.0;"/><path d="M320,472.8325 L320,480.3325 A2.5,2.5 0 0 0 322.5,482.8325 L330,482.8325 L320,472.8325 " fill="url(#g1nz6myjb7a5r80)" style="stroke:#8B95A5;stroke-width:1.0;"/><text fill="#111827" font-family="Arial" font-size="14" lengthAdjust="spacing" textLength="51" x="49" y="490.9644">Erstellte</text><text fill="#111827" font-family="Arial" font-size="14" font-style="italic" lengthAdjust="spacing" textLength="119" x="104" y="490.9644">Geplante Abgaben</text><text fill="#111827" font-family="Arial" font-size="14" lengthAdjust="spacing" textLength="84" x="227" y="490.9644">referenzieren</text><text fill="#111827" font-family="Arial" font-size="14" lengthAdjust="spacing" textLength="256" x="49" y="507.063">zugeh&#246;rige Medikationsplaneintr&#228;ge und</text><text fill="#111827" font-family="Arial" font-size="14" lengthAdjust="spacing" textLength="201" x="49" y="523.1616">enthalten e-Med GroupIdentifier</text><path d="M14,543.1284 L77,543.1284 L77,551.2271 L67,561.2271 L9,561.2271 L9,548.1284 A5,5 0 0 1 14,543.1284 " fill="#EEF2FF" style="stroke:#111827;stroke-width:1.5;"/><rect fill="none" height="612.2153" rx="5" ry="5" style="stroke:#111827;stroke-width:2.0;" width="684.5" x="9" y="543.1284"/><text fill="#000000" font-family="Arial" font-size="14" font-weight="bold" lengthAdjust="spacing" textLength="23" x="24" y="557.2603">par</text><text fill="#000000" font-family="Arial" font-size="14" font-weight="bold" lengthAdjust="spacing" textLength="149" x="92" y="558.2603">[Erstellung e-Rezept]</text><polygon fill="#111827" points="591,579.2744,601,583.2744,591,587.2744,595,583.2744" style="stroke:#111827;stroke-width:1.0;"/><line style="stroke:#111827;stroke-width:1.0;" x1="192" x2="597" y1="583.2744" y2="583.2744"/><text fill="#000000" font-family="Arial" font-size="13" font-weight="bold" lengthAdjust="spacing" textLength="7" x="199" y="578.5195">4</text><text fill="#000000" font-family="Arial" font-size="13" lengthAdjust="spacing" textLength="148" x="210" y="578.5195">Trigger e-Rezept erstellen</text><path d="M84,601.2744 L84,617.2744 A5,5 0 0 0 89,622.2744 L285,622.2744 A5,5 0 0 0 290,617.2744 L290,606.2744 L280,596.2744 L89,596.2744 A5,5 0 0 0 84,601.2744 " fill="url(#g1nz6myjb7a5r80)" style="stroke:#8B95A5;stroke-width:1.0;"/><path d="M280,596.2744 L280,603.7744 A2.5,2.5 0 0 0 282.5,606.2744 L290,606.2744 L280,596.2744 " fill="url(#g1nz6myjb7a5r80)" style="stroke:#8B95A5;stroke-width:1.0;"/><text fill="#111827" font-family="Arial" font-size="14" lengthAdjust="spacing" textLength="185" x="90" y="614.4063">Erstellung e-Rezept ausl&#246;sen</text><path d="M24,634.373 L81,634.373 L81,642.4717 L71,652.4717 L19,652.4717 L19,639.373 A5,5 0 0 1 24,634.373 " fill="#EEF2FF" style="stroke:#111827;stroke-width:1.5;"/><rect fill="none" height="160.2407" rx="5" ry="5" style="stroke:#111827;stroke-width:2.0;" width="654.5" x="19" y="634.373"/><text fill="#000000" font-family="Arial" font-size="14" font-weight="bold" lengthAdjust="spacing" textLength="17" x="34" y="648.5049">alt</text><text fill="#000000" font-family="Arial" font-size="14" font-weight="bold" lengthAdjust="spacing" textLength="127" x="96" y="649.5049">[e-Rezept erstellt]</text><polygon fill="#111827" points="203,670.519,193,674.519,203,678.519,199,674.519" style="stroke:#111827;stroke-width:1.0;"/><line style="stroke:#111827;stroke-width:1.0;stroke-dasharray:2.0,2.0;" x1="197" x2="602" y1="674.519" y2="674.519"/><text fill="#000000" font-family="Arial" font-size="13" font-weight="bold" lengthAdjust="spacing" textLength="7" x="209" y="669.7642">5</text><text fill="#000000" font-family="Arial" font-size="13" lengthAdjust="spacing" textLength="19" x="220" y="669.7642">OK</text><line style="stroke:#111827;stroke-width:1.0;stroke-dasharray:2.0,2.0;" x1="19" x2="673.5" y1="683.519" y2="683.519"/><text fill="#000000" font-family="Arial" font-size="14" font-weight="bold" lengthAdjust="spacing" textLength="123" x="24" y="696.6509">[e-Rezept Fehler]</text><polygon fill="#111827" points="203,717.5664,193,721.5664,203,725.5664,199,721.5664" style="stroke:#111827;stroke-width:1.0;"/><line style="stroke:#111827;stroke-width:1.0;stroke-dasharray:2.0,2.0;" x1="197" x2="607" y1="721.5664" y2="721.5664"/><text fill="#000000" font-family="Arial" font-size="13" font-weight="bold" lengthAdjust="spacing" textLength="7" x="209" y="716.8115">6</text><text fill="#000000" font-family="Arial" font-size="13" lengthAdjust="spacing" textLength="36" x="220" y="716.8115">Fehler</text><polygon fill="#111827" points="381,746.5151,391,750.5151,381,754.5151,385,750.5151" style="stroke:#111827;stroke-width:1.0;"/><line style="stroke:#111827;stroke-width:1.0;" x1="192" x2="387" y1="750.5151" y2="750.5151"/><text fill="#000000" font-family="Arial" font-size="13" font-weight="bold" lengthAdjust="spacing" textLength="7" x="199" y="745.7603">7</text><text fill="#000000" font-family="Arial" font-size="13" lengthAdjust="spacing" textLength="159" x="210" y="745.7603">POST $prescription-discard&#8203;</text><path d="M29,768.5151 L29,784.5151 A5,5 0 0 0 34,789.5151 L339,789.5151 A5,5 0 0 0 344,784.5151 L344,773.5151 L334,763.5151 L34,763.5151 A5,5 0 0 0 29,768.5151 " fill="url(#g1nz6myjb7a5r80)" style="stroke:#8B95A5;stroke-width:1.0;"/><path d="M334,763.5151 L334,771.0151 A2.5,2.5 0 0 0 336.5,773.5151 L344,773.5151 L334,763.5151 " fill="url(#g1nz6myjb7a5r80)" style="stroke:#8B95A5;stroke-width:1.0;"/><text fill="#111827" font-family="Arial" font-size="14" lengthAdjust="spacing" textLength="110" x="35" y="781.647">Siehe Use Case "</text><text fill="#111827" font-family="Arial" font-size="14" font-style="italic" lengthAdjust="spacing" textLength="111" x="145" y="781.647">Geplante Abgabe</text><text fill="#111827" font-family="Arial" font-size="14" lengthAdjust="spacing" textLength="69" x="260" y="781.647">stornieren"</text><line style="stroke:#111827;stroke-width:1.0;stroke-dasharray:2.0,2.0;" x1="9" x2="693.5" y1="802.6138" y2="802.6138"/><text fill="#000000" font-family="Arial" font-size="14" font-weight="bold" lengthAdjust="spacing" textLength="171" x="14" y="815.7456">[gleichzeitige Erstellung</text><text fill="#000000" font-family="Arial" font-size="14" font-style="italic" font-weight="bold" lengthAdjust="spacing" textLength="117" x="189" y="815.7456">Geplante Abgabe</text><text fill="#000000" font-family="Arial" font-size="14" font-weight="bold" lengthAdjust="spacing" textLength="5" x="306" y="815.7456">]</text><polygon fill="#111827" points="376,836.6611,386,840.6611,376,844.6611,380,840.6611" style="stroke:#111827;stroke-width:1.0;"/><line style="stroke:#111827;stroke-width:1.0;" x1="192" x2="382" y1="840.6611" y2="840.6611"/><text fill="#000000" font-family="Arial" font-size="13" font-weight="bold" lengthAdjust="spacing" textLength="7" x="199" y="835.9063">8</text><text fill="#000000" font-family="Arial" font-size="13" lengthAdjust="spacing" textLength="144" x="210" y="835.9063">POST $prescription-write</text><path d="M46,858.6611 L46,890.6611 A5,5 0 0 0 51,895.6611 L322,895.6611 A5,5 0 0 0 327,890.6611 L327,863.6611 L317,853.6611 L51,853.6611 A5,5 0 0 0 46,858.6611 " fill="url(#g1nz6myjb7a5r80)" style="stroke:#8B95A5;stroke-width:1.0;"/><path d="M317,853.6611 L317,861.1611 A2.5,2.5 0 0 0 319.5,863.6611 L327,863.6611 L317,853.6611 " fill="url(#g1nz6myjb7a5r80)" style="stroke:#8B95A5;stroke-width:1.0;"/><text fill="#111827" font-family="Arial" font-size="14" lengthAdjust="spacing" textLength="215" x="52" y="871.793">Transaction Bundle mit Geplanten</text><text fill="#111827" font-family="Arial" font-size="14" lengthAdjust="spacing" textLength="260" x="52" y="887.8916">Abgaben an Fachanwendung &#252;bermitteln</text><path d="M148,907.8584 L205,907.8584 L205,915.957 L195,925.957 L143,925.957 L143,912.8584 A5,5 0 0 1 148,907.8584 " fill="#EEF2FF" style="stroke:#111827;stroke-width:1.5;"/><rect fill="none" height="240.4854" rx="5" ry="5" style="stroke:#111827;stroke-width:2.0;" width="540.5" x="143" y="907.8584"/><text fill="#000000" font-family="Arial" font-size="14" font-weight="bold" lengthAdjust="spacing" textLength="17" x="158" y="921.9902">alt</text><text fill="#000000" font-family="Arial" font-size="14" font-weight="bold" lengthAdjust="spacing" textLength="5" x="220" y="922.9902">[</text><text fill="#000000" font-family="Arial" font-size="14" font-style="italic" font-weight="bold" lengthAdjust="spacing" textLength="117" x="225" y="922.9902">Geplante Abgabe</text><text fill="#000000" font-family="Arial" font-size="14" font-weight="bold" lengthAdjust="spacing" textLength="55" x="346" y="922.9902">erstellt]</text><polygon fill="#111827" points="203,944.0044,193,948.0044,203,952.0044,199,948.0044" style="stroke:#111827;stroke-width:1.0;"/><line style="stroke:#111827;stroke-width:1.0;stroke-dasharray:2.0,2.0;" x1="197" x2="387" y1="948.0044" y2="948.0044"/><text fill="#000000" font-family="Arial" font-size="13" font-weight="bold" lengthAdjust="spacing" textLength="7" x="209" y="943.2495">9</text><text fill="#000000" font-family="Arial" font-size="13" lengthAdjust="spacing" textLength="19" x="220" y="943.2495">OK</text><path d="M270,966.0044 L270,982.0044 A5,5 0 0 0 275,987.0044 L511,987.0044 A5,5 0 0 0 516,982.0044 L516,971.0044 L506,961.0044 L275,961.0044 A5,5 0 0 0 270,966.0044 " fill="url(#g1nz6myjb7a5r80)" style="stroke:#8B95A5;stroke-width:1.0;"/><path d="M506,961.0044 L506,968.5044 A2.5,2.5 0 0 0 508.5,971.0044 L516,971.0044 L506,961.0044 " fill="url(#g1nz6myjb7a5r80)" style="stroke:#8B95A5;stroke-width:1.0;"/><text fill="#111827" font-family="Arial" font-size="14" lengthAdjust="spacing" textLength="225" x="276" y="979.1362">Geplante Abgabe 1 + 2 gespeichert</text><line style="stroke:#111827;stroke-width:1.0;stroke-dasharray:2.0,2.0;" x1="143" x2="683.5" y1="993.103" y2="993.103"/><text fill="#000000" font-family="Arial" font-size="14" font-weight="bold" lengthAdjust="spacing" textLength="5" x="148" y="1006.2349">[</text><text fill="#000000" font-family="Arial" font-size="14" font-style="italic" font-weight="bold" lengthAdjust="spacing" textLength="117" x="153" y="1006.2349">Geplante Abgabe</text><text fill="#000000" font-family="Arial" font-size="14" font-weight="bold" lengthAdjust="spacing" textLength="51" x="274" y="1006.2349">Fehler]</text><polygon fill="#111827" points="203,1027.1504,193,1031.1504,203,1035.1504,199,1031.1504" style="stroke:#111827;stroke-width:1.0;"/><line style="stroke:#111827;stroke-width:1.0;stroke-dasharray:2.0,2.0;" x1="197" x2="387" y1="1031.1504" y2="1031.1504"/><text fill="#000000" font-family="Arial" font-size="13" font-weight="bold" lengthAdjust="spacing" textLength="14" x="209" y="1026.3955">10</text><text fill="#000000" font-family="Arial" font-size="13" lengthAdjust="spacing" textLength="36" x="227" y="1026.3955">Fehler</text><path d="M158,1046.1504 L215,1046.1504 L215,1054.249 L205,1064.249 L153,1064.249 L153,1051.1504 A5,5 0 0 1 158,1046.1504 " fill="#EEF2FF" style="stroke:#111827;stroke-width:1.5;"/><rect fill="none" height="95.1934" rx="5" ry="5" style="stroke:#111827;stroke-width:2.0;" width="520.5" x="153" y="1046.1504"/><text fill="#000000" font-family="Arial" font-size="14" font-weight="bold" lengthAdjust="spacing" textLength="17" x="168" y="1060.2822">alt</text><text fill="#000000" font-family="Arial" font-size="14" font-weight="bold" lengthAdjust="spacing" textLength="267" x="230" y="1061.2822">[Geplante Abgabe erneut &#252;bermitteln]</text><polygon fill="#111827" points="381,1082.2964,391,1086.2964,381,1090.2964,385,1086.2964" style="stroke:#111827;stroke-width:1.0;"/><line style="stroke:#111827;stroke-width:1.0;" x1="192" x2="387" y1="1086.2964" y2="1086.2964"/><text fill="#000000" font-family="Arial" font-size="13" font-weight="bold" lengthAdjust="spacing" textLength="14" x="199" y="1081.5415">11</text><text fill="#000000" font-family="Arial" font-size="13" lengthAdjust="spacing" textLength="144" x="217" y="1081.5415">POST $prescription-write</text><line style="stroke:#111827;stroke-width:1.0;stroke-dasharray:2.0,2.0;" x1="153" x2="673.5" y1="1095.2964" y2="1095.2964"/><text fill="#000000" font-family="Arial" font-size="14" font-weight="bold" lengthAdjust="spacing" textLength="167" x="158" y="1108.4282">[Fehler nicht behebbar]</text><polygon fill="#111827" points="596,1129.3438,606,1133.3438,596,1137.3438,600,1133.3438" style="stroke:#111827;stroke-width:1.0;"/><line style="stroke:#111827;stroke-width:1.0;" x1="187" x2="602" y1="1133.3438" y2="1133.3438"/><text fill="#000000" font-family="Arial" font-size="13" font-weight="bold" lengthAdjust="spacing" textLength="14" x="194" y="1128.5889">12</text><text fill="#000000" font-family="Arial" font-size="13" lengthAdjust="spacing" textLength="269" x="212" y="1128.5889">e-Rezept von e-Med GroupIdentifier entkoppeln</text><!--SRC=[ZLRDRjj64BxpAQPIWIPerOfKP5j6R42E9JT84mcoaaE3m5YI8t4XQiaiLrQZea3lVOqyGqwvwKtw99rTaXB_r9Q6XUNExCmtt_mi5LSXmZicEHCAONW9xoB9tCv8hhbIuKOimSS4xcIqYL_wA1HVS9G9F1bZ4A9Si31yQbdV9IikOYRP6fYd8dclFf5LjiKaMgDb7QLk97sKBw8maj3kcgSePTvgIPw4dsai-lgle944p8-sd52HvmGBakoO52Z1BXhrSS4seHf7GhrXQuJMa68DMyqQzto7O3zh5fw2_VEd66N8nQgWC1erARmLlbbW3VvDzDkK-RwEpEcMzs-AdFNDKwHKH9Ittos0cofxsCN-ejjf-xO_m3EjKRHquGxwh7_OdGVSMmbC4h1fRrPWiqllEJPjfK25RTiNpZdjtLVoyaSHOO8VDoYy5EMKISKz7bEvDGLMLgZLWtdAIlNCrCHvLak20jq0GocZRJKeirdcnMmrUJm8KbyzsZ8zKuhnO3aLrVA52yT4LpXvTEzeKh-XSjJbysBoosJsS7SxVB21dhRTF-jUE1VT1WN7A0pEphhdjpM5wN3-SlHchYqCpcwSPpM5uNG2vcbtnuFHRNzGLHYz7jq-Z8UaW8Dpf-UuVbNXOJRwTJITGzlpU-SzXmsgOKnUGSc7qw-QcCqcCwCm6fpRFQT73M2PGGCf1Io15gt0RXMPiU9ZjW5VewznQbNiq0kCXwro36NzXndkC5RPWVIbLOc9K6nK93Ph5wLbNLq1sUKhfdWaaZXa0fWhDmiKS7Lb0FD7HisQOYu2bRY0w16pS7uuWBs4z-yvpMMfpvBD7mEr3jjfF-rypfRKNkkEzjIHo7oOwjMCLXy-M9OP34UhbYO8PR3_7AeQJkj9PQTpZqnwGOAgSqCL6k9J2uLlXeq9z3c_laEjg2yDTybS5Cz_ujVm64dY0hcYeEaS95v0Rsv6GHfvvpeFy1Aca_ivVAlR8EQ7wwNZKJGA__xpBwY7aIQlSY71OlzLGYlDqYeaLb2sB2OMfeb40ViX2pd7vHB8TuiOcpsYtE5cYU9uXCuOY2TEM3vMdTUZ6yb4OHZIvYc6gLQ8OB7Z-XUi7M48zbyaNs8rgqYb8_UVIK2P80fKm4ATbsPqHuge3I33eU__lFWjFPaE2SpQunBcv7gf-SZKY1Xpb9W1E0QSjrEbWG2g342JRs2R9Dn_IOpH8r9o4AhZ5Ab2K9OU6WVNXGHDNXcHDaRNLMdC78oaNpWdJQHYCF9YPZDLit-gtcE9YITvh5FLyNdYCUbJjUUOcaYXEvPZWF1MmsNqqweNYAcFXCQYCCNHIh7dR9cbPPc0bo5oBzXHd-gwAH3URBIS-d-9PIkvyVGVNTOKu5moaQHp3jAH0_G92ZaQdVYi3O06rfXv0HDRYaYZtd-beQC_M34i5OXXirGY9qWh5qozeQbUAdd9EpYzkIesmORlmO4b9h7c6QKgfwAfxauWArPX7LScDU9Id5L0D0Hnewf4_UyQJVEQegW2pnf1KA0ANAfHrsKoCzumygfU3uFaq7YFaJWrSuLQHN5y15-mdrgqSgApSjV__m00]--></g></svg>