<svg xmlns="http://www.w3.org/2000/svg" xmlns:xlink="http://www.w3.org/1999/xlink" contentStyleType="text/css" data-diagram-type="SEQUENCE" height="540px" preserveAspectRatio="none" style="width:1070px;height:540px;background:#F5F5F5;" version="1.1" viewBox="0 0 1070 540" width="1070px" zoomAndPan="magnify"><?plantuml 1.2026.3beta6?><defs><linearGradient id="gkcwn3kpbress0" x1="50%" x2="50%" y1="0%" y2="100%"><stop offset="0%" stop-color="#E0E5F0"/><stop offset="100%" stop-color="#D1D9E6"/></linearGradient><filter height="300%" id="fkcwn3kpbress" width="300%" x="-1" y="-1"><feGaussianBlur result="blurOut" stdDeviation="2"/><feColorMatrix in="blurOut" result="blurOut2" type="matrix" values="0 0 0 0 0 0 0 0 0 0 0 0 0 0 0 0 0 0 .4 0"/><feOffset dx="4" dy="4" in="blurOut2" result="blurOut3"/><feBlend in="SourceGraphic" in2="blurOut3" mode="normal"/></filter></defs><g><rect fill="#F5F5F5" height="540" style="stroke:none;stroke-width:1;" width="1070" x="0" y="0"/><rect fill="#9FBAC4" height="515.1406" rx="5" ry="5" style="stroke:#181818;stroke-width:0.5;" width="74.0586" x="85" y="6"/><text fill="#000000" font-family="'Arial'" font-size="14" font-weight="700" lengthAdjust="spacing" textLength="4.874" x="88" y="18.9951">&#160;</text><text fill="#000000" font-family="'Arial'" font-size="14" font-weight="700" lengthAdjust="spacing" textLength="48.5625" x="97.748" y="35.292">GDA 1</text><rect fill="#C48778" height="515.1406" rx="5" ry="5" style="stroke:#181818;stroke-width:0.5;" width="256.9268" x="311.9053" y="6"/><text fill="#000000" font-family="'Arial'" font-size="14" font-weight="700" lengthAdjust="spacing" textLength="4.874" x="314.9053" y="18.9951">&#160;</text><text fill="#000000" font-family="'Arial'" font-size="14" font-weight="700" lengthAdjust="spacing" textLength="182.6904" x="349.0234" y="35.292">e-Med Fachanwendung</text><rect fill="#BEAEBE" height="515.1406" rx="5" ry="5" style="stroke:#181818;stroke-width:0.5;" width="83.8066" x="839.4785" y="6"/><text fill="#000000" font-family="'Arial'" font-size="14" font-weight="700" lengthAdjust="spacing" textLength="4.874" x="842.4785" y="18.9951">&#160;</text><text fill="#000000" font-family="'Arial'" font-size="14" font-weight="700" lengthAdjust="spacing" textLength="48.5625" x="861.9746" y="35.292">GDA 2</text><rect fill="#BAC38B" height="515.1406" rx="5" ry="5" style="stroke:#181818;stroke-width:0.5;" width="77.9756" x="965.2852" y="6"/><text fill="#000000" font-family="'Arial'" font-size="14" font-weight="700" lengthAdjust="spacing" textLength="4.874" x="968.2852" y="18.9951">&#160;</text><text fill="#000000" font-family="'Arial'" font-size="14" font-weight="700" lengthAdjust="spacing" textLength="57.3535" x="973.1592" y="35.292">Patient</text><g><title>GDA 1</title><rect fill="#FFFFFF" height="229.5234" style="stroke:#181818;stroke-width:1;" width="10" x="117.0293" y="194.3203"/></g><g><title>e-Med FA</title><rect fill="#FFFFFF" height="229.5234" style="stroke:#181818;stroke-width:1;" width="10" x="435.3687" y="194.3203"/></g><g class="participant-lifeline" data-entity-uid="part1" data-qualified-name="GDA_1" data-source-line="41" id="part1-lifeline"><g><title>GDA 1</title><rect fill="#000000" fill-opacity="0.00000" height="322.9531" width="8" x="118.0293" y="118.8906"/><line style="stroke:#181818;stroke-width:0.5;stroke-dasharray:5,5;" x1="121.7476" x2="121.7476" y1="118.8906" y2="441.8438"/></g></g><g class="participant-lifeline" data-entity-uid="part2" data-qualified-name="eMed_FA" data-source-line="45" id="part2-lifeline"><g><title>e-Med FA</title><rect fill="#000000" fill-opacity="0.00000" height="322.9531" width="8" x="436.3687" y="118.8906"/><line style="stroke:#181818;stroke-width:0.5;stroke-dasharray:5,5;" x1="439.7065" x2="439.7065" y1="118.8906" y2="441.8438"/></g></g><g class="participant-lifeline" data-entity-uid="part3" data-qualified-name="GDA_2" data-source-line="49" id="part3-lifeline"><g><title>GDA 2</title><rect fill="#000000" fill-opacity="0.00000" height="322.9531" width="8" x="877.3818" y="118.8906"/><line style="stroke:#181818;stroke-width:0.5;stroke-dasharray:5,5;" x1="881.1001" x2="881.1001" y1="118.8906" y2="441.8438"/></g></g><g class="participant-lifeline" data-entity-uid="part4" data-qualified-name="Patient" data-source-line="53" id="part4-lifeline"><g><title>Patient</title><rect fill="#000000" fill-opacity="0.00000" height="322.9531" width="8" x="1000.2729" y="118.8906"/><line style="stroke:#181818;stroke-width:0.5;stroke-dasharray:5,5;" x1="1003.585" x2="1003.585" y1="118.8906" y2="441.8438"/></g></g><g class="participant participant-head" data-entity-uid="part1" data-qualified-name="GDA_1" data-source-line="41" id="part1-head"><text fill="#000000" font-family="'Arial'" font-size="14" lengthAdjust="spacing" textLength="44.5635" x="96.7476" y="115.5889">GDA 1</text><ellipse cx="122.0293" cy="51.0938" fill="#E2E2F0" rx="8" ry="8" style="stroke:#181818;stroke-width:0.5;"/><path d="M122.0293,59.0938 L122.0293,86.0938 M109.0293,67.0938 L135.0293,67.0938 M122.0293,86.0938 L109.0293,101.0938 M122.0293,86.0938 L135.0293,101.0938" fill="none" style="stroke:#181818;stroke-width:0.5;"/></g><g class="participant participant-tail" data-entity-uid="part1" data-qualified-name="GDA_1" data-source-line="41" id="part1-tail"><text fill="#000000" font-family="'Arial'" font-size="14" lengthAdjust="spacing" textLength="44.5635" x="96.7476" y="453.8389">GDA 1</text><ellipse cx="122.0293" cy="465.6406" fill="#E2E2F0" rx="8" ry="8" style="stroke:#181818;stroke-width:0.5;"/><path d="M122.0293,473.6406 L122.0293,500.6406 M109.0293,481.6406 L135.0293,481.6406 M122.0293,500.6406 L109.0293,515.6406 M122.0293,500.6406 L135.0293,515.6406" fill="none" style="stroke:#181818;stroke-width:0.5;"/></g><g class="participant participant-head" data-entity-uid="part2" data-qualified-name="eMed_FA" data-source-line="45" id="part2-head"><rect fill="#FFFFFF" height="30.2969" rx="5" ry="5" style="stroke:#555555;stroke-width:0.5;" width="79.3242" x="400.7065" y="87.5938"/><text fill="#000000" font-family="'Arial'" font-size="14" lengthAdjust="spacing" textLength="65.3242" x="407.7065" y="107.5889">e-Med FA</text></g><g class="participant participant-tail" data-entity-uid="part2" data-qualified-name="eMed_FA" data-source-line="45" id="part2-tail"><rect fill="#FFFFFF" height="30.2969" rx="5" ry="5" style="stroke:#555555;stroke-width:0.5;" width="79.3242" x="400.7065" y="440.8438"/><text fill="#000000" font-family="'Arial'" font-size="14" lengthAdjust="spacing" textLength="65.3242" x="407.7065" y="460.8389">e-Med FA</text></g><g class="participant participant-head" data-entity-uid="part3" data-qualified-name="GDA_2" data-source-line="49" id="part3-head"><text fill="#000000" font-family="'Arial'" font-size="14" lengthAdjust="spacing" textLength="44.5635" x="856.1001" y="115.5889">GDA 2</text><ellipse cx="881.3818" cy="51.0938" fill="#E2E2F0" rx="8" ry="8" style="stroke:#181818;stroke-width:0.5;"/><path d="M881.3818,59.0938 L881.3818,86.0938 M868.3818,67.0938 L894.3818,67.0938 M881.3818,86.0938 L868.3818,101.0938 M881.3818,86.0938 L894.3818,101.0938" fill="none" style="stroke:#181818;stroke-width:0.5;"/></g><g class="participant participant-tail" data-entity-uid="part3" data-qualified-name="GDA_2" data-source-line="49" id="part3-tail"><text fill="#000000" font-family="'Arial'" font-size="14" lengthAdjust="spacing" textLength="44.5635" x="856.1001" y="453.8389">GDA 2</text><ellipse cx="881.3818" cy="465.6406" fill="#E2E2F0" rx="8" ry="8" style="stroke:#181818;stroke-width:0.5;"/><path d="M881.3818,473.6406 L881.3818,500.6406 M868.3818,481.6406 L894.3818,481.6406 M881.3818,500.6406 L868.3818,515.6406 M881.3818,500.6406 L894.3818,515.6406" fill="none" style="stroke:#181818;stroke-width:0.5;"/></g><g class="participant participant-head" data-entity-uid="part4" data-qualified-name="Patient" data-source-line="53" id="part4-head"><text fill="#000000" font-family="'Arial'" font-size="14" lengthAdjust="spacing" textLength="49.376" x="976.585" y="115.5889">Patient</text><ellipse cx="1004.2729" cy="51.0938" fill="#E2E2F0" rx="8" ry="8" style="stroke:#181818;stroke-width:0.5;"/><path d="M1004.2729,59.0938 L1004.2729,86.0938 M991.2729,67.0938 L1017.2729,67.0938 M1004.2729,86.0938 L991.2729,101.0938 M1004.2729,86.0938 L1017.2729,101.0938" fill="none" style="stroke:#181818;stroke-width:0.5;"/></g><g class="participant participant-tail" data-entity-uid="part4" data-qualified-name="Patient" data-source-line="53" id="part4-tail"><text fill="#000000" font-family="'Arial'" font-size="14" lengthAdjust="spacing" textLength="49.376" x="976.585" y="453.8389">Patient</text><ellipse cx="1004.2729" cy="465.6406" fill="#E2E2F0" rx="8" ry="8" style="stroke:#181818;stroke-width:0.5;"/><path d="M1004.2729,473.6406 L1004.2729,500.6406 M991.2729,481.6406 L1017.2729,481.6406 M1004.2729,500.6406 L991.2729,515.6406 M1004.2729,500.6406 L1017.2729,515.6406" fill="none" style="stroke:#181818;stroke-width:0.5;"/></g><g><title>GDA 1</title><rect fill="#FFFFFF" height="229.5234" style="stroke:#181818;stroke-width:1;" width="10" x="117.0293" y="194.3203"/></g><g><title>e-Med FA</title><rect fill="#FFFFFF" height="229.5234" style="stroke:#181818;stroke-width:1;" width="10" x="435.3687" y="194.3203"/></g><rect fill="#EEEEEE" height="3" rx="5" ry="5" style="stroke:#EEEEEE;stroke-width:1;" width="1064.2607" x="0" y="150.0391"/><line style="stroke:#000000;stroke-width:1;" x1="0" x2="1064.2607" y1="150.0391" y2="150.0391"/><line style="stroke:#000000;stroke-width:1;" x1="0" x2="1064.2607" y1="153.0391" y2="153.0391"/><rect fill="#EEEEEE" height="24.2969" rx="5" ry="5" style="stroke:#000000;stroke-width:2;" width="128.8711" x="467.6948" y="138.8906"/><text fill="#000000" font-family="'Arial'" font-size="14" font-weight="700" lengthAdjust="spacing" textLength="109.9971" x="473.6948" y="155.8857">Initialisierung</text><g class="message" data-entity-1="part1" data-entity-2="part2" data-source-line="61" id="msg1"><line style="stroke:#111827;stroke-width:1;" x1="433.3687" x2="423.3687" y1="194.3203" y2="190.3203"/><line style="stroke:#111827;stroke-width:1;" x1="433.3687" x2="423.3687" y1="194.3203" y2="198.3203"/><line style="stroke:#111827;stroke-width:1;" x1="127.0293" x2="434.3687" y1="194.3203" y2="194.3203"/><text fill="#000000" font-family="'Arial'" font-size="13" font-weight="700" lengthAdjust="spacing" textLength="9.0454" x="134.0293" y="189.2544">1</text><text fill="#000000" font-family="'Arial'" font-size="13" lengthAdjust="spacing" textLength="121.9639" x="147.0747" y="189.2544">POST $readtowrite</text></g><path d="M5,212.3203 L5,244.3203 A5,5 0 0 0 10,249.3203 L232,249.3203 A5,5 0 0 0 237,244.3203 L237,217.3203 L227,207.3203 L10,207.3203 A5,5 0 0 0 5,212.3203" fill="url(#gkcwn3kpbress0)" filter="url(#fkcwn3kpbress)" style="stroke:#8B95A5;stroke-width:1;"/><path d="M227,207.3203 L227,214.8203 A2.5,2.5 0 0 0 229.5,217.3203 L237,217.3203 L227,207.3203" fill="url(#gkcwn3kpbress0)" style="stroke:#8B95A5;stroke-width:1;"/><text fill="#111827" font-family="'Arial'" font-size="14" lengthAdjust="spacing" textLength="177.9053" x="11" y="225.3154">Medikationsplan abrufen,</text><text fill="#111827" font-family="'Arial'" font-size="14" lengthAdjust="spacing" textLength="211.5859" x="11" y="241.6123">mit der Intention zu schreiben</text><g class="message" data-entity-1="part2" data-entity-2="part2" data-source-line="70" id="msg2"><line style="stroke:#111827;stroke-width:1;" x1="445.3687" x2="487.3687" y1="294.1797" y2="294.1797"/><line style="stroke:#111827;stroke-width:1;" x1="487.3687" x2="487.3687" y1="294.1797" y2="307.1797"/><line style="stroke:#111827;stroke-width:1;" x1="446.3687" x2="487.3687" y1="307.1797" y2="307.1797"/><polygon fill="#111827" points="456.3687,303.1797,446.3687,307.1797,456.3687,311.1797,452.3687,307.1797" style="stroke:#111827;stroke-width:1;"/><text fill="#000000" font-family="'Arial'" font-size="13" font-weight="700" lengthAdjust="spacing" textLength="9.0454" x="452.3687" y="281.5474">2</text><text fill="#000000" font-family="'Arial'" font-size="13" lengthAdjust="spacing" textLength="164.8613" x="465.4141" y="273.981">Pr&#252;fung auf bestehenden</text><text fill="#000000" font-family="'Arial'" font-size="13" lengthAdjust="spacing" textLength="106.3169" x="465.4141" y="289.1138">Medikationsplan</text></g><g class="message" data-entity-1="part2" data-entity-2="part2" data-source-line="72" id="msg3"><line style="stroke:#111827;stroke-width:1;" x1="445.3687" x2="487.3687" y1="366.5781" y2="366.5781"/><line style="stroke:#111827;stroke-width:1;" x1="487.3687" x2="487.3687" y1="366.5781" y2="379.5781"/><line style="stroke:#111827;stroke-width:1;" x1="446.3687" x2="487.3687" y1="379.5781" y2="379.5781"/><polygon fill="#111827" points="456.3687,375.5781,446.3687,379.5781,456.3687,383.5781,452.3687,379.5781" style="stroke:#111827;stroke-width:1;"/><text fill="#000000" font-family="'Arial'" font-size="13" font-weight="700" lengthAdjust="spacing" textLength="9.0454" x="452.3687" y="346.3794">3</text><text fill="#000000" font-family="'Arial'" font-size="13" lengthAdjust="spacing" textLength="138.6011" x="465.4141" y="331.2466">Kein Plan vorhanden:</text><text fill="#000000" font-family="'Arial'" font-size="13" lengthAdjust="spacing" textLength="316.5449" x="465.4141" y="346.3794">Fachanwendung erzeugt leeren Medikationsplan</text><text fill="#000000" font-family="'Arial'" font-size="13" lengthAdjust="spacing" textLength="214.1064" x="469.5464" y="361.5122">mit emptyReason = "notstarted"</text></g><g class="message" data-entity-1="part2" data-entity-2="part1" data-source-line="73" id="msg4"><line style="stroke:#111827;stroke-width:1;" x1="123.0293" x2="133.0293" y1="423.8438" y2="419.8438"/><line style="stroke:#111827;stroke-width:1;" x1="123.0293" x2="133.0293" y1="423.8438" y2="427.8438"/><line style="stroke:#111827;stroke-width:1;stroke-dasharray:2,2;" x1="122.0293" x2="439.3687" y1="423.8438" y2="423.8438"/><text fill="#000000" font-family="'Arial'" font-size="13" font-weight="700" lengthAdjust="spacing" textLength="9.0454" x="139.0293" y="411.2114">4</text><text fill="#000000" font-family="'Arial'" font-size="13" lengthAdjust="spacing" textLength="152.3755" x="152.0747" y="403.645">Leerer Medikationsplan</text><text fill="#000000" font-family="'Arial'" font-size="13" lengthAdjust="spacing" textLength="198.7451" x="152.0747" y="418.7778">(emptyReason = "notstarted")</text></g><g class="footer" data-source-line="78"><text fill="#000000" font-family="'Arial'" font-size="10" lengthAdjust="spacing" textLength="244.8486" x="409.2061" y="531.4229">Sub_UC_06_01 - Initial erstellter Medikationsplan</text></g><?plantuml-src TLHTRzem57tthxXAzx19Go9fQMabAj6ktQPzeTA-LK9ESbCiWfqv3hITzi_sjZ-sQnF08Pbv8DoFSyyvDwPS25bmpPSGAvsYlbQvqd3KTuUL-onF5azQLJAjAxA1_NWLvPodQYta4sGyBz7Br6rQeeRG1qqnurLkRfKqt_aI8HXhmVEWks8gNX72a-vaaxPN8vL1-CK0hWu5O1y7MRztb8RfEPxQ2j-0ONm-u8DTz7ukaeN4ieIGOdUUe27zdl0qjS8jYiSc3CDXT4QnwSuQeojalts2druArBcG2q_2pKrNmODCtGFM1llUuyyAPR9HEk7QY4GKN9g6f84x1mMjjRhJB6eRt4flbzD8R6s9RCDOQxK-DCO5czwwKDV4NM8pwvX27ubvqT2uGzwaMZl7B7BglCxz-AYvcIlrx2benBjyPR5wXk1H4lY7COG00HoTPtHlh2iyCLHAYLa8l8J0bGGCPKhtxjdhTGTxtp25MvxCkLnJJKKKDeSmhq-6PsVshIlsJWDIm-nsxB3hxd4tl9qSEQ0OESRO81Vjo4KTtHDk1D8mryoJus6yQzwcR7lzx04mNXabgsMCch7H23vBOUYYYrAWjjf68yOstlGkBxTQBc3oOteFRpJorAYr5WOP3HChJZVQLJFcRhTQOMqjeqwneF5AbaNE9V1OLndAzy2Mmj3_XQRHXhXH0RnMK2PpZI96wQXQCBOVKTDWMsjxFZFzzqzccVCgWnXBWtD2GFae3nYmplOlACXDIt2bDEsOEYyUPNFVg5-nUZAG8sgKS81Bsx2AS5cObpla9UaPGK0AIaDl1QR1VgwrrBbp0LyjbcvZlVq_pZl6KcnvueNgJIJaAa5dIjclQHNF7gvd_TDPdtQwtJTf8gVotBGv_0C0?></g></svg>