<svg xmlns="http://www.w3.org/2000/svg" xmlns:xlink="http://www.w3.org/1999/xlink" contentStyleType="text/css" data-diagram-type="SEQUENCE" height="1001px" preserveAspectRatio="none" style="width:831px;height:1001px;background:#F5F5F5;" version="1.1" viewBox="0 0 831 1001" width="831px" zoomAndPan="magnify"><?plantuml 1.2026.7beta1?><defs><linearGradient id="gyvgssfk37a6o0" x1="50%" x2="50%" y1="0%" y2="100%"><stop offset="0%" stop-color="#E0E5F0"/><stop offset="100%" stop-color="#D1D9E6"/></linearGradient></defs><g><rect fill="#F5F5F5" height="1001" style="stroke:none;stroke-width:1;" width="831" x="0" y="0"/><g class="title" data-source-line="1"><text fill="#000000" font-family="'Arial'" font-size="14" font-weight="700" lengthAdjust="spacing" textLength="539.0137" x="142.9031" y="27.9951">Geplante Abgabe f&#252;r bestehende Medikationsplaneintr&#228;ge erstellen</text><text fill="#000000" font-family="'Arial'" font-size="14" font-weight="700" lengthAdjust="spacing" textLength="567.0957" x="128.8621" y="44.292">Variante B: Sequentielles Erstellen von Geplanter Abgabe und e-Rezept</text></g><g><title>GDA 1</title><rect fill="#0078D4" fill-opacity="0.37647" height="712.8359" style="stroke:#181818;stroke-width:1;" width="10" x="158.2817" y="144.8906"/></g><g><title>e-Med FA</title><rect fill="#F5A403" fill-opacity="0.37647" height="196.7188" style="stroke:#181818;stroke-width:1;" width="10" x="491.9619" y="439.9922"/></g><g><title>e-Rezept</title><rect fill="#E74856" fill-opacity="0.37647" height="155.75" style="stroke:#181818;stroke-width:1;" width="10" x="762.6479" y="672.8438"/></g><rect fill="#50E6FF" fill-opacity="0.14510" height="189.7188" rx="5" ry="5" style="stroke:#111827;stroke-width:2;" width="639.6479" x="128" y="454.9922"/><path d="M128,597.2813 L767.6479,597.2813 L767.6479,639.7109 A5,5 0 0 1 762.6479,644.7109 L133,644.7109 A5,5 0 0 1 128,639.7109 L128,597.2813" fill="#FF8C00" fill-opacity="0.20784" style="stroke:none;stroke-width:1;"/><rect fill="#50E6FF" fill-opacity="0.14510" height="161.5859" rx="5" ry="5" style="stroke:#111827;stroke-width:2;" width="687.8198" x="128" y="740.4375"/><path d="M128,789.1641 L815.8198,789.1641 L815.8198,897.0234 A5,5 0 0 1 810.8198,902.0234 L133,902.0234 A5,5 0 0 1 128,897.0234 L128,789.1641" fill="#FF8C00" fill-opacity="0.20784" style="stroke:none;stroke-width:1;"/><g class="participant-lifeline" data-entity-uid="part1" data-qualified-name="GDA_1" data-source-line="50" id="part1-lifeline"><g><title>GDA 1</title><rect fill="#000000" fill-opacity="0.00000" height="784.1328" width="8" x="159.2817" y="134.8906"/><line style="stroke:#181818;stroke-width:0.5;stroke-dasharray:5,5;" x1="163" x2="163" y1="134.8906" y2="919.0234"/></g></g><g class="participant-lifeline" data-entity-uid="part2" data-qualified-name="eMed_FA" data-source-line="51" id="part2-lifeline"><g><title>e-Med FA</title><rect fill="#000000" fill-opacity="0.00000" height="784.1328" width="8" x="492.9619" y="134.8906"/><line style="stroke:#181818;stroke-width:0.5;stroke-dasharray:5,5;" x1="496.2998" x2="496.2998" y1="134.8906" y2="919.0234"/></g></g><g class="participant-lifeline" data-entity-uid="part3" data-qualified-name="e_Rezept" data-source-line="52" id="part3-lifeline"><g><title>e-Rezept</title><rect fill="#000000" fill-opacity="0.00000" height="784.1328" width="8" x="763.6479" y="134.8906"/><line style="stroke:#181818;stroke-width:0.5;stroke-dasharray:5,5;" x1="767.4761" x2="767.4761" y1="134.8906" y2="919.0234"/></g></g><g class="participant participant-head" data-entity-uid="part1" data-qualified-name="GDA_1" data-source-line="50" id="part1-head"><text fill="#000000" font-family="'Arial'" font-size="14" lengthAdjust="spacing" textLength="44.5635" x="138" y="131.5889">GDA 1</text><ellipse cx="163.2817" cy="67.0938" fill="#0078D4" fill-opacity="0.37647" rx="8" ry="8" style="stroke:#181818;stroke-width:0.5;"/><path d="M163.2817,75.0938 L163.2817,102.0938 M150.2817,83.0938 L176.2817,83.0938 M163.2817,102.0938 L150.2817,117.0938 M163.2817,102.0938 L176.2817,117.0938" fill="none" style="stroke:#181818;stroke-width:0.5;"/></g><g class="participant participant-tail" data-entity-uid="part1" data-qualified-name="GDA_1" data-source-line="50" id="part1-tail"><text fill="#000000" font-family="'Arial'" font-size="14" lengthAdjust="spacing" textLength="44.5635" x="138" y="931.0186">GDA 1</text><ellipse cx="163.2817" cy="942.8203" fill="#0078D4" fill-opacity="0.37647" rx="8" ry="8" style="stroke:#181818;stroke-width:0.5;"/><path d="M163.2817,950.8203 L163.2817,977.8203 M150.2817,958.8203 L176.2817,958.8203 M163.2817,977.8203 L150.2817,992.8203 M163.2817,977.8203 L176.2817,992.8203" fill="none" style="stroke:#181818;stroke-width:0.5;"/></g><g class="participant participant-head" data-entity-uid="part2" data-qualified-name="eMed_FA" data-source-line="51" id="part2-head"><rect fill="#F5A403" fill-opacity="0.37647" height="30.2969" rx="5" ry="5" style="stroke:#555555;stroke-width:0.5;" width="79.3242" x="457.2998" y="103.5938"/><text fill="#000000" font-family="'Arial'" font-size="14" lengthAdjust="spacing" textLength="65.3242" x="464.2998" y="123.5889">e-Med FA</text></g><g class="participant participant-tail" data-entity-uid="part2" data-qualified-name="eMed_FA" data-source-line="51" id="part2-tail"><rect fill="#F5A403" fill-opacity="0.37647" height="30.2969" rx="5" ry="5" style="stroke:#555555;stroke-width:0.5;" width="79.3242" x="457.2998" y="918.0234"/><text fill="#000000" font-family="'Arial'" font-size="14" lengthAdjust="spacing" textLength="65.3242" x="464.2998" y="938.0186">e-Med FA</text></g><g class="participant participant-head" data-entity-uid="part3" data-qualified-name="e_Rezept" data-source-line="52" id="part3-head"><rect fill="#E74856" fill-opacity="0.37647" height="30.2969" rx="5" ry="5" style="stroke:#555555;stroke-width:0.5;" width="76.3438" x="729.4761" y="103.5938"/><text fill="#000000" font-family="'Arial'" font-size="14" lengthAdjust="spacing" textLength="62.3438" x="736.4761" y="123.5889">e-Rezept</text></g><g class="participant participant-tail" data-entity-uid="part3" data-qualified-name="e_Rezept" data-source-line="52" id="part3-tail"><rect fill="#E74856" fill-opacity="0.37647" height="30.2969" rx="5" ry="5" style="stroke:#555555;stroke-width:0.5;" width="76.3438" x="729.4761" y="918.0234"/><text fill="#000000" font-family="'Arial'" font-size="14" lengthAdjust="spacing" textLength="62.3438" x="736.4761" y="938.0186">e-Rezept</text></g><g><title>GDA 1</title><rect fill="#0078D4" fill-opacity="0.37647" height="712.8359" style="stroke:#181818;stroke-width:1;" width="10" x="158.2817" y="144.8906"/></g><g><title>e-Med FA</title><rect fill="#F5A403" fill-opacity="0.37647" height="196.7188" style="stroke:#181818;stroke-width:1;" width="10" x="491.9619" y="439.9922"/></g><g><title>e-Rezept</title><rect fill="#E74856" fill-opacity="0.37647" height="155.75" style="stroke:#181818;stroke-width:1;" width="10" x="762.6479" y="672.8438"/></g><rect fill="#EEEEEE" height="3" rx="5" ry="5" style="stroke:#EEEEEE;stroke-width:1;" width="825.8198" x="0" y="166.0391"/><line style="stroke:#000000;stroke-width:1;" x1="0" x2="825.8198" y1="166.0391" y2="166.0391"/><line style="stroke:#000000;stroke-width:1;" x1="0" x2="825.8198" y1="169.0391" y2="169.0391"/><rect fill="#EEEEEE" height="24.2969" rx="5" ry="5" style="stroke:#000000;stroke-width:2;" width="216.2891" x="304.7654" y="154.8906"/><text fill="#000000" font-family="'Arial'" font-size="14" font-weight="700" lengthAdjust="spacing" textLength="197.415" x="310.7654" y="171.8857">Medikationsplan abrufen</text><rect fill="none" height="42.5938" rx="5" ry="5" style="stroke:#000000;stroke-width:1.5;" width="404.624" x="135" y="189.1875"/><path d="M140,189.1875 L202,189.1875 L202,197.1875 L192,207.1875 L135,207.1875 L135,194.1875 A5,5 0 0 1 140,189.1875" fill="#EEEEEE" style="stroke:#000000;stroke-width:2;"/><text fill="#000000" font-family="'Arial'" font-size="14" font-weight="700" lengthAdjust="spacing" textLength="22.4902" x="148" y="204.1826">ref</text><a href="interactions.html#sequenzdiagramm-plan-read" target="_top" title="interactions.html#sequenzdiagramm-plan-read" xlink:actuate="onRequest" xlink:href="interactions.html#sequenzdiagramm-plan-read" xlink:show="new" xlink:title="interactions.html#sequenzdiagramm-plan-read" xlink:type="simple"><text fill="#0000EE" font-family="'Arial'" font-size="14" lengthAdjust="spacing" textLength="70.6426" x="301.9907" y="224.1826">Plan-Read</text></a><path d="M35,246.7813 L35,278.7813 A5,5 0 0 0 40,283.7813 L285,283.7813 A5,5 0 0 0 290,278.7813 L290,251.7813 L280,241.7813 L40,241.7813 A5,5 0 0 0 35,246.7813" fill="url(#gyvgssfk37a6o0)" style="stroke:#8B95A5;stroke-width:1;"/><path d="M280,241.7813 L280,249.2813 A2.5,2.5 0 0 0 282.5,251.7813 L290,251.7813 L280,241.7813" fill="url(#gyvgssfk37a6o0)" style="stroke:#8B95A5;stroke-width:1;"/><text fill="#111827" font-family="'Arial'" font-size="14" lengthAdjust="spacing" textLength="195.8018" x="41" y="259.7764">GDA erh&#228;lt Medikationsplan</text><text fill="#111827" font-family="'Arial'" font-size="14" lengthAdjust="spacing" textLength="234.377" x="41" y="276.0732">(Auslieferungs-Collection-Bundle)</text><rect fill="#EEEEEE" height="3" rx="5" ry="5" style="stroke:#EEEEEE;stroke-width:1;" width="825.8198" x="0" y="310.5234"/><line style="stroke:#000000;stroke-width:1;" x1="0" x2="825.8198" y1="310.5234" y2="310.5234"/><line style="stroke:#000000;stroke-width:1;" x1="0" x2="825.8198" y1="313.5234" y2="313.5234"/><rect fill="#EEEEEE" height="24.2969" rx="5" ry="5" style="stroke:#000000;stroke-width:2;" width="379.3398" x="223.24" y="299.375"/><text fill="#000000" font-family="'Arial'" font-size="14" font-weight="700" lengthAdjust="spacing" textLength="360.4658" x="229.24" y="316.3701">Geplante Abgaben vorbereiten und schreiben</text><path d="M5,343.6719 L5,408.6719 A5,5 0 0 0 10,413.6719 L317,413.6719 A5,5 0 0 0 322,408.6719 L322,348.6719 L312,338.6719 L10,338.6719 A5,5 0 0 0 5,343.6719" fill="url(#gyvgssfk37a6o0)" style="stroke:#8B95A5;stroke-width:1;"/><path d="M312,338.6719 L312,346.1719 A2.5,2.5 0 0 0 314.5,348.6719 L322,348.6719 L312,338.6719" fill="url(#gyvgssfk37a6o0)" style="stroke:#8B95A5;stroke-width:1;"/><text fill="#111827" font-family="'Arial'" font-size="14" lengthAdjust="spacing" textLength="57.8799" x="11" y="356.667">Erstellte</text><text fill="#111827" font-family="'Arial'" font-size="14" font-style="italic" lengthAdjust="spacing" textLength="130.5459" x="73.3301" y="356.667">Geplante Abgaben</text><text fill="#111827" font-family="'Arial'" font-size="14" lengthAdjust="spacing" textLength="94.2471" x="208.3262" y="356.667">referenzieren</text><text fill="#111827" font-family="'Arial'" font-size="14" lengthAdjust="spacing" textLength="260.668" x="11" y="372.9639">zugeh&#246;rige Medikationsplaneintr&#228;ge;</text><text fill="#111827" font-family="'Arial'" font-size="14" lengthAdjust="spacing" textLength="256.2725" x="11" y="389.2607">groupIdentifier f&#252;r "Rezeptklammer"</text><text fill="#111827" font-family="'Arial'" font-size="14" lengthAdjust="spacing" textLength="70.9775" x="11" y="405.5576">bleibt leer</text><g class="message" data-entity-1="part1" data-entity-2="part2" data-source-line="75" id="msg1"><polygon fill="#111827" points="479.9619,435.9922,489.9619,439.9922,479.9619,443.9922,483.9619,439.9922" style="stroke:#111827;stroke-width:1;stroke-linejoin:miter;stroke-miterlimit:10;"/><line style="stroke:#111827;stroke-width:1;" x1="168.2817" x2="485.9619" y1="439.9922" y2="439.9922"/><text fill="#000000" font-family="'Arial'" font-size="13" font-weight="700" lengthAdjust="spacing" textLength="9.0454" x="175.2817" y="434.9263">1</text><text fill="#000000" font-family="'Arial'" font-size="13" lengthAdjust="spacing" textLength="247.749" x="188.3271" y="434.9263">POST Transaction Bundle GeplAbgabe</text></g><path d="M133,454.9922 L193.9385,454.9922 L193.9385,463.2891 L183.9385,473.2891 L128,473.2891 L128,459.9922 A5,5 0 0 1 133,454.9922" fill="#EEF2FF" style="stroke:#111827;stroke-width:1.5;"/><rect fill="none" height="189.7188" rx="5" ry="5" style="stroke:#111827;stroke-width:2;" width="639.6479" x="128" y="454.9922"/><text fill="#000000" font-family="'Arial'" font-size="14" font-weight="700" lengthAdjust="spacing" textLength="20.9385" x="143" y="468.9873">alt</text><text fill="#000000" font-family="'Arial'" font-size="14" font-weight="700" lengthAdjust="spacing" textLength="220.9717" x="208.9385" y="469.9873">[Geplante Abgaben erstellt]</text><g class="message" data-entity-1="part2" data-entity-2="part2" data-source-line="80" id="msg2"><line style="stroke:#111827;stroke-width:1;" x1="501.9619" x2="543.9619" y1="510.8516" y2="510.8516"/><line style="stroke:#111827;stroke-width:1;" x1="543.9619" x2="543.9619" y1="510.8516" y2="523.8516"/><line style="stroke:#111827;stroke-width:1;" x1="502.9619" x2="543.9619" y1="523.8516" y2="523.8516"/><polygon fill="#111827" points="512.9619,519.8516,502.9619,523.8516,512.9619,527.8516,508.9619,523.8516" style="stroke:#111827;stroke-width:1;stroke-linejoin:miter;stroke-miterlimit:10;"/><text fill="#000000" font-family="'Arial'" font-size="13" font-weight="700" lengthAdjust="spacing" textLength="9.0454" x="508.9619" y="498.2192">2</text><text fill="#000000" font-family="'Arial'" font-size="13" lengthAdjust="spacing" textLength="207.7397" x="522.0073" y="490.6528">e-Med GroupIdentifier erzeugen</text><text fill="#000000" font-family="'Arial'" font-size="13" lengthAdjust="spacing" textLength="223.6406" x="522.0073" y="505.7856">+ in geplanten Abgaben erg&#228;nzen</text></g><path d="M360,541.8516 L360,557.8516 A5,5 0 0 0 365,562.8516 L627,562.8516 A5,5 0 0 0 632,557.8516 L632,546.8516 L622,536.8516 L365,536.8516 A5,5 0 0 0 360,541.8516" fill="url(#gyvgssfk37a6o0)" style="stroke:#8B95A5;stroke-width:1;"/><path d="M622,536.8516 L622,544.3516 A2.5,2.5 0 0 0 624.5,546.8516 L632,546.8516 L622,536.8516" fill="url(#gyvgssfk37a6o0)" style="stroke:#8B95A5;stroke-width:1;"/><text fill="#111827" font-family="'Arial'" font-size="14" lengthAdjust="spacing" textLength="251.6309" x="366" y="554.8467">Geplante Abgabe 1 + 2 gespeichert</text><g class="message" data-entity-1="part2" data-entity-2="part1" data-source-line="86" id="msg3"><polygon fill="#111827" points="179.2817,585.2813,169.2817,589.2813,179.2817,593.2813,175.2817,589.2813" style="stroke:#111827;stroke-width:1;stroke-linejoin:miter;stroke-miterlimit:10;"/><line style="stroke:#111827;stroke-width:1;stroke-dasharray:2,2;" x1="173.2817" x2="490.9619" y1="589.2813" y2="589.2813"/><text fill="#000000" font-family="'Arial'" font-size="13" font-weight="700" lengthAdjust="spacing" textLength="9.0454" x="185.2817" y="584.2153">3</text><text fill="#000000" font-family="'Arial'" font-size="13" lengthAdjust="spacing" textLength="286.6348" x="198.3271" y="584.2153">OK (Ressourcen inkl. e-Med GroupIdentifier)</text></g><line style="stroke:#111827;stroke-width:1;stroke-dasharray:2,2;" x1="128" x2="767.6479" y1="598.2813" y2="598.2813"/><text fill="#000000" font-family="'Arial'" font-size="14" font-weight="700" lengthAdjust="spacing" textLength="213.9854" x="133" y="611.2764">[Geplante Abgaben Fehler]</text><g class="message" data-entity-1="part2" data-entity-2="part1" data-source-line="90" id="msg4"><polygon fill="#111827" points="179.2817,632.7109,169.2817,636.7109,179.2817,640.7109,175.2817,636.7109" style="stroke:#111827;stroke-width:1;stroke-linejoin:miter;stroke-miterlimit:10;"/><line style="stroke:#111827;stroke-width:1;stroke-dasharray:2,2;" x1="173.2817" x2="495.9619" y1="636.7109" y2="636.7109"/><text fill="#000000" font-family="'Arial'" font-size="13" font-weight="700" lengthAdjust="spacing" textLength="9.0454" x="185.2817" y="631.645">4</text><text fill="#000000" font-family="'Arial'" font-size="13" lengthAdjust="spacing" textLength="40.6694" x="198.3271" y="631.645">Fehler</text></g><g class="message" data-entity-1="part1" data-entity-2="part3" data-source-line="95" id="msg5"><polygon fill="#111827" points="750.6479,668.8438,760.6479,672.8438,750.6479,676.8438,754.6479,672.8438" style="stroke:#111827;stroke-width:1;stroke-linejoin:miter;stroke-miterlimit:10;"/><line style="stroke:#111827;stroke-width:1;" x1="168.2817" x2="756.6479" y1="672.8438" y2="672.8438"/><text fill="#000000" font-family="'Arial'" font-size="13" font-weight="700" lengthAdjust="spacing" textLength="9.0454" x="175.2817" y="667.7778">5</text><text fill="#000000" font-family="'Arial'" font-size="13" lengthAdjust="spacing" textLength="357.8174" x="188.3271" y="667.7778">Trigger e-Rezept erstellen (inkl. e-Med GroupIdentifier)</text></g><path d="M42,690.8438 L42,722.8438 A5,5 0 0 0 47,727.8438 L278,727.8438 A5,5 0 0 0 283,722.8438 L283,695.8438 L273,685.8438 L47,685.8438 A5,5 0 0 0 42,690.8438" fill="url(#gyvgssfk37a6o0)" style="stroke:#8B95A5;stroke-width:1;"/><path d="M273,685.8438 L273,693.3438 A2.5,2.5 0 0 0 275.5,695.8438 L283,695.8438 L273,685.8438" fill="url(#gyvgssfk37a6o0)" style="stroke:#8B95A5;stroke-width:1;"/><text fill="#111827" font-family="'Arial'" font-size="14" lengthAdjust="spacing" textLength="170.8643" x="48" y="703.8389">Erstellung e-Rezept inkl.</text><text fill="#111827" font-family="'Arial'" font-size="14" lengthAdjust="spacing" textLength="220.124" x="48" y="720.1357">e-Med GroupIdentifier ausl&#246;sen</text><path d="M133,740.4375 L193.9385,740.4375 L193.9385,748.7344 L183.9385,758.7344 L128,758.7344 L128,745.4375 A5,5 0 0 1 133,740.4375" fill="#EEF2FF" style="stroke:#111827;stroke-width:1.5;"/><rect fill="none" height="161.5859" rx="5" ry="5" style="stroke:#111827;stroke-width:2;" width="687.8198" x="128" y="740.4375"/><text fill="#000000" font-family="'Arial'" font-size="14" font-weight="700" lengthAdjust="spacing" textLength="20.9385" x="143" y="754.4326">alt</text><text fill="#000000" font-family="'Arial'" font-size="14" font-weight="700" lengthAdjust="spacing" textLength="144.8193" x="208.9385" y="755.4326">[e-Rezept erstellt]</text><g class="message" data-entity-1="part3" data-entity-2="part1" data-source-line="103" id="msg6"><polygon fill="#111827" points="179.2817,777.1641,169.2817,781.1641,179.2817,785.1641,175.2817,781.1641" style="stroke:#111827;stroke-width:1;stroke-linejoin:miter;stroke-miterlimit:10;"/><line style="stroke:#111827;stroke-width:1;stroke-dasharray:2,2;" x1="173.2817" x2="761.6479" y1="781.1641" y2="781.1641"/><text fill="#000000" font-family="'Arial'" font-size="13" font-weight="700" lengthAdjust="spacing" textLength="9.0454" x="185.2817" y="776.0981">6</text><text fill="#000000" font-family="'Arial'" font-size="13" lengthAdjust="spacing" textLength="18.7573" x="198.3271" y="776.0981">OK</text></g><line style="stroke:#111827;stroke-width:1;stroke-dasharray:2,2;" x1="128" x2="815.8198" y1="790.1641" y2="790.1641"/><text fill="#000000" font-family="'Arial'" font-size="14" font-weight="700" lengthAdjust="spacing" textLength="137.833" x="133" y="803.1592">[e-Rezept Fehler]</text><g class="message" data-entity-1="part3" data-entity-2="part1" data-source-line="106" id="msg7"><polygon fill="#111827" points="179.2817,824.5938,169.2817,828.5938,179.2817,832.5938,175.2817,828.5938" style="stroke:#111827;stroke-width:1;stroke-linejoin:miter;stroke-miterlimit:10;"/><line style="stroke:#111827;stroke-width:1;stroke-dasharray:2,2;" x1="173.2817" x2="766.6479" y1="828.5938" y2="828.5938"/><text fill="#000000" font-family="'Arial'" font-size="13" font-weight="700" lengthAdjust="spacing" textLength="9.0454" x="185.2817" y="823.5278">7</text><text fill="#000000" font-family="'Arial'" font-size="13" lengthAdjust="spacing" textLength="40.6694" x="198.3271" y="823.5278">Fehler</text></g><g class="message" data-entity-1="part1" data-entity-2="part2" data-source-line="108" id="msg8"><polygon fill="#111827" points="484.9619,853.7266,494.9619,857.7266,484.9619,861.7266,488.9619,857.7266" style="stroke:#111827;stroke-width:1;stroke-linejoin:miter;stroke-miterlimit:10;"/><line style="stroke:#111827;stroke-width:1;" x1="163.2817" x2="490.9619" y1="857.7266" y2="857.7266"/><text fill="#000000" font-family="'Arial'" font-size="13" font-weight="700" lengthAdjust="spacing" textLength="9.0454" x="170.2817" y="852.6606">8</text><text fill="#000000" font-family="'Arial'" font-size="13" font-style="italic" lengthAdjust="spacing" textLength="112.9819" x="183.3271" y="852.6606">Geplante Abgabe</text><text fill="#000000" font-family="'Arial'" font-size="13" lengthAdjust="spacing" textLength="135.7192" x="300.4414" y="852.6606">verwerfen ($discard)</text></g><path d="M325,875.7266 L325,891.7266 A5,5 0 0 0 330,896.7266 L663,896.7266 A5,5 0 0 0 668,891.7266 L668,880.7266 L658,870.7266 L330,870.7266 A5,5 0 0 0 325,875.7266" fill="url(#gyvgssfk37a6o0)" style="stroke:#8B95A5;stroke-width:1;"/><path d="M658,870.7266 L658,878.2266 A2.5,2.5 0 0 0 660.5,880.7266 L668,880.7266 L658,870.7266" fill="url(#gyvgssfk37a6o0)" style="stroke:#8B95A5;stroke-width:1;"/><text fill="#111827" font-family="'Arial'" font-size="14" lengthAdjust="spacing" textLength="119.082" x="331" y="888.7217">Siehe Use Case "</text><text fill="#111827" font-family="'Arial'" font-size="14" font-style="italic" lengthAdjust="spacing" textLength="121.6729" x="450.082" y="888.7217">Geplante Abgabe</text><text fill="#111827" font-family="'Arial'" font-size="14" lengthAdjust="spacing" textLength="77.3281" x="576.2051" y="888.7217">verwerfen"</text><?plantuml-src XLRTSk8s5BxNKvmwlKXcozOG_a8tcO74f3ljBWomlUXsXn7us6WmCfLDqjBfs-GPzgftl5YFR0FoJrepmyZIfwFlVET7ZaKS83pYDk0oHkWlVBv0y0x_A5XW5ECAfOlm0Lsnvh48PQI1A6Ii3Yy-0Yh2107At-GlN8d4ng07K_nzXp8MUYa2vmY2fr2UpbB7mtRI1QnDS8_R61YBra9kkU8RM8JAHNKV1g622pjvp5M-NFigfDqPmclfdu68LjmDduNqmUD1XCPAjar9Ob4tZRheyLqG3qCPV-GR1AjFJWLMDM8gzWZrPlNYQxH__7EBAX1oRG0SfmhmYPJN0opH7uH_ZBdhQiyQTdv-O6hMIXvJKXbIWFvY08EYUcXZoxDh5sxTlS6sHfYMkekR5c-TPcShiLnBZ2Aeqzp4KDEczoCtRSMGebwlTniTcfiMulAtoJ1AKcUPiXnp5Okbs5A-L3cM1vJo8Ndoe79aIil7gEOM3Ba1-ag5pqMdaicyBibKrOcdXVIiQvfw9ERRd8ydo-bIALxeDHBlZ9tdunjQr6ye7NNwt8z-7atcZm_zUHte8HwTxaEpRLS06WcWssat1zqIODoVlNS-pX8BDosxLGBqnoE0x8X1v_ww170-E0_pOHzqiVAcNG6OJvnVdV4CBfnEizjg4w206Fq4sHajssaFXurMqSHaCfeaWE6mUs_RrrG0V1cJPga2F0ABHb2tJ67OzXniGEftcgQ6OerUODYtyYxayVEiUwKRqXUhu1AnsCMXt6qMg1YxlIqsLU0BjVEeITxU9eJ54wTQJJcRH1Lw43vXvivt9x8z-FnPwBwgzvBDjwju4roavRHt1VUfkZOrVL9D8NTXh4SJ6dtvmbZI5yvMcHO8rUhm4iGbdkoolui2WHwgdVIZ6YLaWCcPjG7bPu1NZ2wDfDKaVXOk5tqBAD80HKnZtVoZvOhU5fdhHIhPxK6JxyHTqTQxxyKTA4s5d1Jw7zX-v-Fgy5K9__MBwmUcYsdxtjMtb4SRqolFIaEt3aWgL1PR1CGhXW0fP6UVqfZKxexIzs0ycivWfhYCKl4X5I9nFMLwZkWnNlbqOfoKFcLuIRBideqP5VpHW4aWpTB7Wa-ezaXYqENy1eG4FxCg3RF-uKNkKMgxP-4pixgv53uCwl066cGesg9Ohb35ciz968CRaKjawW6vSpcXdXJkr9AEf8ijU5lDzueCC8Pq9UHAkIJ645S11QJoj7GDQD75ekHCnz0CNrQsFGgTy7tj-F4pvFHT0vV_IVYLPAMwEDjA3R3g474gfSFNY29mal5C-zXMIet4p9KYvoGanvsvE5HeUzfyrhHYQxMe6L1dIQaWogMQL2e9zOnADxdBRrqHBRbohrvBlQcWZq_uf0bp-hF-pwHbfcAEQHeQMliN?></g></svg>