<?xml version="1.0" encoding="us-ascii" standalone="no"?><svg xmlns="http://www.w3.org/2000/svg" xmlns:xlink="http://www.w3.org/1999/xlink" contentStyleType="text/css" height="733px" preserveAspectRatio="none" style="width:528px;height:733px;background:#F5F5F5;" version="1.1" viewBox="0 0 528 733" width="528px" zoomAndPan="magnify"><defs><linearGradient id="g1cdnump0qksls0" x1="50%" x2="50%" y1="0%" y2="100%"><stop offset="0%" stop-color="#E0E5F0"/><stop offset="100%" stop-color="#D1D9E6"/></linearGradient></defs><g><rect fill="#F5F5F5" height="733" style="stroke:none;stroke-width:1.0;" width="528" x="0" y="0"/><text fill="#000000" font-family="Arial" font-size="14" font-weight="bold" lengthAdjust="spacing" textLength="213" x="153.5" y="28.1318">Leeren Medikationsplan lesen</text><rect fill="#156082" fill-opacity="0.50196" height="452.0752" style="stroke:#181818;stroke-width:1.0;" width="10" x="112" y="192.0947"/><rect fill="#E97232" fill-opacity="0.74118" height="321.6313" style="stroke:#181818;stroke-width:1.0;" width="10" x="340" y="192.0947"/><rect fill="#0F9ED5" fill-opacity="0.14510" height="257.4341" rx="5" ry="5" style="stroke:#111827;stroke-width:2.0;" width="428" x="83" y="313.8896"/><path d="M83,521.7261 L511,521.7261 L511,566.3237 A5,5 0 0 1 506,571.3237 L88,571.3237 A5,5 0 0 1 83,566.3237 L83,521.7261 " fill="#E97132" fill-opacity="0.20784" style="stroke:none;stroke-width:1.0;"/><line style="stroke:#181818;stroke-width:0.5;stroke-dasharray:5.0,5.0;" x1="117" x2="117" y1="118.1973" y2="653.1699"/><line style="stroke:#181818;stroke-width:0.5;stroke-dasharray:5.0,5.0;" x1="345" x2="345" y1="118.1973" y2="653.1699"/><text fill="#000000" font-family="Arial" font-size="14" lengthAdjust="spacing" textLength="42" x="93" y="115.2305">GDA 1</text><ellipse cx="117" cy="50.5986" fill="#156082" fill-opacity="0.50196" rx="8" ry="8" style="stroke:#181818;stroke-width:0.5;"/><path d="M117,58.5986 L117,85.5986 M104,66.5986 L130,66.5986 M117,85.5986 L104,100.5986 M117,85.5986 L130,100.5986 " fill="none" style="stroke:#181818;stroke-width:0.5;"/><text fill="#000000" font-family="Arial" font-size="14" lengthAdjust="spacing" textLength="42" x="93" y="665.3018">GDA 1</text><ellipse cx="117" cy="676.7686" fill="#156082" fill-opacity="0.50196" rx="8" ry="8" style="stroke:#181818;stroke-width:0.5;"/><path d="M117,684.7686 L117,711.7686 M104,692.7686 L130,692.7686 M117,711.7686 L104,726.7686 M117,711.7686 L130,726.7686 " fill="none" style="stroke:#181818;stroke-width:0.5;"/><rect fill="#E97232" fill-opacity="0.74118" height="30.0986" rx="5" ry="5" style="stroke:#555555;stroke-width:0.5;" width="76" x="307" y="87.0986"/><text fill="#000000" font-family="Arial" font-size="14" lengthAdjust="spacing" textLength="62" x="314" y="107.2305">e-Med FA</text><rect fill="#E97232" fill-opacity="0.74118" height="30.0986" rx="5" ry="5" style="stroke:#555555;stroke-width:0.5;" width="76" x="307" y="652.1699"/><text fill="#000000" font-family="Arial" font-size="14" lengthAdjust="spacing" textLength="62" x="314" y="672.3018">e-Med FA</text><rect fill="#156082" fill-opacity="0.50196" height="452.0752" style="stroke:#181818;stroke-width:1.0;" width="10" x="112" y="192.0947"/><rect fill="#E97232" fill-opacity="0.74118" height="321.6313" style="stroke:#181818;stroke-width:1.0;" width="10" x="340" y="192.0947"/><rect fill="#EEEEEE" height="3" rx="5" ry="5" style="stroke:#EEEEEE;stroke-width:1.0;" width="521" x="0" y="148.6716"/><line style="stroke:#000000;stroke-width:1.0;" x1="0" x2="521" y1="148.6716" y2="148.6716"/><line style="stroke:#000000;stroke-width:1.0;" x1="0" x2="521" y1="151.6716" y2="151.6716"/><rect fill="#EEEEEE" height="22.9487" rx="5" ry="5" style="stroke:#000000;stroke-width:2.0;" width="224" x="148.5" y="138.1973"/><text fill="#000000" font-family="Arial" font-size="13" font-weight="bold" lengthAdjust="spacing" textLength="206" x="154.5" y="154.3911">Aktuellen Medikationsplan lesen</text><polygon fill="#111827" points="328,188.0947,338,192.0947,328,196.0947,332,192.0947" style="stroke:#111827;stroke-width:1.0;"/><line style="stroke:#111827;stroke-width:1.0;" x1="122" x2="334" y1="192.0947" y2="192.0947"/><text fill="#000000" font-family="Arial" font-size="13" font-weight="bold" lengthAdjust="spacing" textLength="7" x="129" y="187.3398">1</text><text fill="#000000" font-family="Arial" font-size="13" lengthAdjust="spacing" textLength="99" x="140" y="187.3398">POST $plan-read</text><path d="M26,210.0947 L26,239.0947 A5,5 0 0 0 31,244.0947 L202,244.0947 A5,5 0 0 0 207,239.0947 L207,215.0947 L197,205.0947 L31,205.0947 A5,5 0 0 0 26,210.0947 " fill="url(#g1cdnump0qksls0)" style="stroke:#8B95A5;stroke-width:1.0;"/><path d="M197,205.0947 L197,212.5947 A2.5,2.5 0 0 0 199.5,215.0947 L207,215.0947 L197,205.0947 " fill="url(#g1cdnump0qksls0)" style="stroke:#8B95A5;stroke-width:1.0;"/><text fill="#111827" font-family="Arial" font-size="13" lengthAdjust="spacing" textLength="160" x="32" y="222.2886">Abruf des Medikationsplans</text><text fill="#111827" font-family="Arial" font-size="13" lengthAdjust="spacing" textLength="91" x="32" y="237.2373">zur Bearbeitung</text><line style="stroke:#111827;stroke-width:1.0;" x1="350" x2="392" y1="285.8896" y2="285.8896"/><line style="stroke:#111827;stroke-width:1.0;" x1="392" x2="392" y1="285.8896" y2="298.8896"/><line style="stroke:#111827;stroke-width:1.0;" x1="351" x2="392" y1="298.8896" y2="298.8896"/><polygon fill="#111827" points="361,294.8896,351,298.8896,361,302.8896,357,298.8896" style="stroke:#111827;stroke-width:1.0;"/><text fill="#000000" font-family="Arial" font-size="13" font-weight="bold" lengthAdjust="spacing" textLength="7" x="357" y="273.6604">2</text><text fill="#000000" font-family="Arial" font-size="13" lengthAdjust="spacing" textLength="141" x="368" y="266.186">Existiert ein persistierter</text><text fill="#000000" font-family="Arial" font-size="13" lengthAdjust="spacing" textLength="101" x="368" y="281.1348">Medikationsplan?</text><path d="M88,313.8896 L144,313.8896 L144,320.8384 L134,330.8384 L83,330.8384 L83,318.8896 A5,5 0 0 1 88,313.8896 " fill="#EEF2FF" style="stroke:#111827;stroke-width:1.5;"/><rect fill="none" height="257.4341" rx="5" ry="5" style="stroke:#111827;stroke-width:2.0;" width="428" x="83" y="313.8896"/><text fill="#000000" font-family="Arial" font-size="13" font-weight="bold" lengthAdjust="spacing" textLength="16" x="98" y="327.0835">alt</text><text fill="#000000" font-family="Arial" font-size="11" font-weight="bold" lengthAdjust="spacing" textLength="230" x="159" y="326.2075">[ja: leerer Medikationsplan persistiert mit</text><text fill="#000000" font-family="Arial" font-size="11" font-weight="bold" lengthAdjust="spacing" textLength="254" x="159" y="338.8564">List.emptyReason = "nilknown" | "notstarted"]</text><line style="stroke:#111827;stroke-width:1.0;" x1="350" x2="392" y1="377.0337" y2="377.0337"/><line style="stroke:#111827;stroke-width:1.0;" x1="392" x2="392" y1="377.0337" y2="390.0337"/><line style="stroke:#111827;stroke-width:1.0;" x1="351" x2="392" y1="390.0337" y2="390.0337"/><polygon fill="#111827" points="361,386.0337,351,390.0337,361,394.0337,357,390.0337" style="stroke:#111827;stroke-width:1.0;"/><text fill="#000000" font-family="Arial" font-size="13" font-weight="bold" lengthAdjust="spacing" textLength="7" x="357" y="364.8044">3</text><text fill="#000000" font-family="Arial" font-size="13" lengthAdjust="spacing" textLength="131" x="368" y="357.3301">Erzeugt Auslieferungs-</text><text fill="#000000" font-family="Arial" font-size="13" lengthAdjust="spacing" textLength="101" x="368" y="372.2788">Collection Bundle</text><path d="M247,408.0337 L247,452.0337 A5,5 0 0 0 252,457.0337 L438,457.0337 A5,5 0 0 0 443,452.0337 L443,413.0337 L433,403.0337 L252,403.0337 A5,5 0 0 0 247,408.0337 " fill="url(#g1cdnump0qksls0)" style="stroke:#8B95A5;stroke-width:1.0;"/><path d="M433,403.0337 L433,410.5337 A2.5,2.5 0 0 0 435.5,413.0337 L443,413.0337 L433,403.0337 " fill="url(#g1cdnump0qksls0)" style="stroke:#8B95A5;stroke-width:1.0;"/><text fill="#111827" font-family="Arial" font-size="13" lengthAdjust="spacing" textLength="122" x="253" y="420.2275">Keine Transformation</text><text fill="#111827" font-family="Arial" font-size="13" lengthAdjust="spacing" textLength="171" x="253" y="435.1763">notwendig. List.emptyReason</text><text fill="#111827" font-family="Arial" font-size="13" lengthAdjust="spacing" textLength="105" x="253" y="450.125">bleibt unver&#228;ndert.</text><polygon fill="#111827" points="133,509.7261,123,513.7261,133,517.7261,129,513.7261" style="stroke:#111827;stroke-width:1.0;"/><line style="stroke:#111827;stroke-width:1.0;" x1="127" x2="344" y1="513.7261" y2="513.7261"/><text fill="#000000" font-family="Arial" font-size="13" font-weight="bold" lengthAdjust="spacing" textLength="7" x="139" y="494.0225">4</text><text fill="#000000" font-family="Arial" font-size="13" lengthAdjust="spacing" textLength="183" x="150" y="479.0737">Auslieferungs-Collection Bundle</text><text fill="#000000" font-family="Arial" font-size="13" lengthAdjust="spacing" textLength="131" x="150" y="494.0225">(mit List.emptyReason</text><text fill="#000000" font-family="Arial" font-size="13" lengthAdjust="spacing" textLength="42" x="150" y="508.9712">+ ETag</text><line style="stroke:#111827;stroke-width:1.0;stroke-dasharray:2.0,2.0;" x1="83" x2="511" y1="522.7261" y2="522.7261"/><text fill="#000000" font-family="Arial" font-size="11" font-weight="bold" lengthAdjust="spacing" textLength="40" x="88" y="533.0439">[sonst]</text><path d="M264,546.375 L264,560.375 A5,5 0 0 0 269,565.375 L421,565.375 A5,5 0 0 0 426,560.375 L426,551.375 L416,541.375 L269,541.375 A5,5 0 0 0 264,546.375 " fill="url(#g1cdnump0qksls0)" style="stroke:#8B95A5;stroke-width:1.0;"/><path d="M416,541.375 L416,548.875 A2.5,2.5 0 0 0 418.5,551.375 L426,551.375 L416,541.375 " fill="url(#g1cdnump0qksls0)" style="stroke:#8B95A5;stroke-width:1.0;"/><text fill="#111827" font-family="Arial" font-size="13" lengthAdjust="spacing" textLength="141" x="270" y="558.5688">Siehe Ablauf Plan-Read.</text><path d="M5,588.3237 L5,632.3237 A5,5 0 0 0 10,637.3237 L225,637.3237 A5,5 0 0 0 230,632.3237 L230,593.3237 L220,583.3237 L10,583.3237 A5,5 0 0 0 5,588.3237 " fill="url(#g1cdnump0qksls0)" style="stroke:#8B95A5;stroke-width:1.0;"/><path d="M220,583.3237 L220,590.8237 A2.5,2.5 0 0 0 222.5,593.3237 L230,593.3237 L220,583.3237 " fill="url(#g1cdnump0qksls0)" style="stroke:#8B95A5;stroke-width:1.0;"/><text fill="#111827" font-family="Arial" font-size="13" lengthAdjust="spacing" textLength="125" x="11" y="600.5176">Nachfolgend kann der</text><text fill="#111827" font-family="Arial" font-size="13" lengthAdjust="spacing" textLength="200" x="11" y="615.4663">Medikationsplan bearbeitet werden</text><text fill="#111827" font-family="Arial" font-size="13" lengthAdjust="spacing" textLength="160" x="11" y="630.415">und ein Plan-Write erfolgen.</text><!--SRC=[TLNXZk8s4FwVfvX2fPvKiKh20PkLjbMupLvFjxSWu5IfGbevP61TWarjvxZTkxvDtwGlTkC0YvEmvayyytdccs_6nd2J8zmXAXJm2JE-PePBeRSv4v2ZHk5vl-Wr5rkcs0ROmaWrDKzqXkrGomrwticRIfMXUYTpgQ3jbylriiLwfMGXiWDYsRC_1w4VMIPtNAnWoNADZkTmJ0bK4BX1Croo8ZUtKfXxja5enOgplELoTY1J_emGl3r__ZNUVpnjKULSh1r0afm3V1PP-O4D_aFvTSoop9OM-bNxq1MjLovNKo4DmZSFO5YN3ttiBVrEEmko2FiMuKQwJACUwxrOPuzyiHQeDGHacpXo-hG_ShDH72c28BWC1sIRrXhphyjGupy5YiMUvPWfmnTyouGvLrWLq1Y8SbL1pSuqtCUkLXoEt02nKd9NBweqLdKfJUSolZZskRfaUa_CjvKQNoBlNOr-uJ8igtDEdjA7LjIVQ1pj-BmRtOqc3-zlueS0QBM3Nj-_32_zCu2m14JzlZ-uQG36yUn3SZ-p4QB-C7pR0CJZ4PIhxTz6oKqlgWEIJydDmsrC08m6OJTCiphWOPBybOndq5vatK4tP56zZD57gEG8U_KGaybeKWAIQ11qmovTWFAXWRq2J4EBlY1ekS9usrEp0UdfiZGj53kqWTkuLIt1ew25aQBOfAWyx_eQuhKfCCzVU_ZW-jhpzWmwlnqpNC5uD9t1pnRMKSWoovH_ONH9zr2NeLTUNla53vLuSQgA9RqvkfvHUy-5WY4obI8tXLXvABBoxdkd1CSYgsKThIx7v2lNXgCYORW0UftqOOzgBcgfVwSCkJdrwczsHVNJ_u5goE84WWqtSt57kmlSRCtJ19cM91cq1C_NGkv42xxJHXfjg4-OjJoQ_BDSrJCMAmDneNEEIrHKlUxC1TsQ71SsEGpf4kL8vqzw7ewJxIFQIPef4d4frQQakuVkI4E-ke06ItAdEVBKG24esF__sNVRN5Y2HzKhNClcNTKODlZDnHiIfP5jBdw5PCPMG0E8z7XMXfxyshnIs9JZ8qASvencPcpdZG9cDPOPriV3JavpykxPud4fyvKzkcP2q445Nht1wM40qS0EwNqYgQYqSeXA0dygRXEfVQIBqv3-0000]--></g></svg>