<svg xmlns="http://www.w3.org/2000/svg" xmlns:xlink="http://www.w3.org/1999/xlink" version="1.1" data-diagram-type="SEQUENCE" style="width:822px;height:907px;background:#F5F5F5;" width="822px" height="907px" viewBox="0 0 822 907" zoomAndPan="magnify" preserveAspectRatio="none" contentStyleType="text/css"><?plantuml 1.2026.7beta3?><defs><linearGradient x1="50%" y1="0%" x2="50%" y2="100%" id="gj4zox1nr4nu90"><stop stop-color="#E0E5F0" offset="0%"/><stop stop-color="#D1D9E6" offset="100%"/></linearGradient></defs><g><rect x="0" y="0" width="822" height="907" fill="#F5F5F5" style="stroke:none;stroke-width:1;"/><g class="title" data-source-line="1"><text x="280.1035" y="27.9951" fill="#000000" font-size="14" lengthAdjust="spacing" textLength="254.96" font-weight="700" font-family="'Arial'">Durchgeführte Abgabe erstellen</text><text x="276.125" y="44.292" fill="#000000" font-size="14" lengthAdjust="spacing" textLength="262.917" font-weight="700" font-family="'Arial'">Variante A: Zugriff mittels e-card</text></g><g><title>e-Med FA</title><rect x="507.2764" y="637.0078" width="10" height="155.75" fill="#E97232" fill-opacity="0.74118" style="stroke:#181818;stroke-width:1;"/></g><rect x="21" y="356.9688" width="637.2822" height="450.7891" fill="none" style="stroke:#111827;stroke-width:2;" rx="5" ry="5"/><rect x="31" y="412.6953" width="617.2822" height="177.8828" fill="#0F9ED5" fill-opacity="0.14510" style="stroke:#111827;stroke-width:2;" rx="5" ry="5"/><path d="M31,461.4219 L648.2822,461.4219 L648.2822,585.5781 A5,5 0 0 1 643.2822,590.5781 L36,590.5781 A5,5 0 0 1 31,585.5781 L31,461.4219" style="stroke:none;stroke-width:1;" fill="#E97132" fill-opacity="0.20784"/><rect x="141" y="652.0078" width="475.7656" height="148.75" fill="#0F9ED5" fill-opacity="0.14510" style="stroke:#111827;stroke-width:2;" rx="5" ry="5"/><path d="M141,753.3281 L616.7656,753.3281 L616.7656,795.7578 A5,5 0 0 1 611.7656,800.7578 L146,800.7578 A5,5 0 0 1 141,795.7578 L141,753.3281" style="stroke:none;stroke-width:1;" fill="#E97132" fill-opacity="0.20784"/><g class="participant-lifeline" data-qualified-name="GDA_1" data-entity-uid="part1" id="part1-lifeline" data-source-line="51"><g><title>GDA 1</title><rect x="172.2817" y="134.8906" width="8" height="689.8672" fill="#000000" fill-opacity="0.00000"/><line x1="176" y1="134.8906" x2="176" y2="824.7578" style="stroke:#181818;stroke-width:0.5;stroke-dasharray:5,5;"/></g></g><g class="participant-lifeline" data-qualified-name="eMed_FA" data-entity-uid="part2" id="part2-lifeline" data-source-line="52"><g><title>e-Med FA</title><rect x="508.2764" y="134.8906" width="8" height="689.8672" fill="#000000" fill-opacity="0.00000"/><line x1="511.6143" y1="134.8906" x2="511.6143" y2="824.7578" style="stroke:#181818;stroke-width:0.5;stroke-dasharray:5,5;"/></g></g><g class="participant-lifeline" data-qualified-name="e_Rezept" data-entity-uid="part3" id="part3-lifeline" data-source-line="53"><g><title>e-Rezept</title><rect x="596.1104" y="134.8906" width="8" height="689.8672" fill="#000000" fill-opacity="0.00000"/><line x1="599.9385" y1="134.8906" x2="599.9385" y2="824.7578" style="stroke:#181818;stroke-width:0.5;stroke-dasharray:5,5;"/></g></g><g class="participant participant-head" data-qualified-name="GDA_1" data-entity-uid="part1" id="part1-head" data-source-line="51"><text x="151" y="131.5889" fill="#000000" font-size="14" lengthAdjust="spacing" textLength="44.5635" font-family="'Arial'">GDA 1</text><ellipse cx="176.2817" cy="67.0938" rx="8" ry="8" fill="#156082" fill-opacity="0.50196" style="stroke:#181818;stroke-width:0.5;"/><path d="M176.2817,75.0938 L176.2817,102.0938 M163.2817,83.0938 L189.2817,83.0938 M176.2817,102.0938 L163.2817,117.0938 M176.2817,102.0938 L189.2817,117.0938" style="stroke:#181818;stroke-width:0.5;" fill="none"/></g><g class="participant participant-tail" data-qualified-name="GDA_1" data-entity-uid="part1" id="part1-tail" data-source-line="51"><text x="151" y="836.7529" fill="#000000" font-size="14" lengthAdjust="spacing" textLength="44.5635" font-family="'Arial'">GDA 1</text><ellipse cx="176.2817" cy="848.5547" rx="8" ry="8" fill="#156082" fill-opacity="0.50196" style="stroke:#181818;stroke-width:0.5;"/><path d="M176.2817,856.5547 L176.2817,883.5547 M163.2817,864.5547 L189.2817,864.5547 M176.2817,883.5547 L163.2817,898.5547 M176.2817,883.5547 L189.2817,898.5547" style="stroke:#181818;stroke-width:0.5;" fill="none"/></g><g class="participant participant-head" data-qualified-name="eMed_FA" data-entity-uid="part2" id="part2-head" data-source-line="52"><rect x="472.6143" y="103.5938" width="79.3242" height="30.2969" fill="#E97232" fill-opacity="0.74118" style="stroke:#555555;stroke-width:0.5;" rx="5" ry="5"/><text x="479.6143" y="123.5889" fill="#000000" font-size="14" lengthAdjust="spacing" textLength="65.3242" font-family="'Arial'">e-Med FA</text></g><g class="participant participant-tail" data-qualified-name="eMed_FA" data-entity-uid="part2" id="part2-tail" data-source-line="52"><rect x="472.6143" y="823.7578" width="79.3242" height="30.2969" fill="#E97232" fill-opacity="0.74118" style="stroke:#555555;stroke-width:0.5;" rx="5" ry="5"/><text x="479.6143" y="843.7529" fill="#000000" font-size="14" lengthAdjust="spacing" textLength="65.3242" font-family="'Arial'">e-Med FA</text></g><g class="participant participant-head" data-qualified-name="e_Rezept" data-entity-uid="part3" id="part3-head" data-source-line="53"><rect x="561.9385" y="103.5938" width="76.3438" height="30.2969" fill="#CD3732" fill-opacity="0.66275" style="stroke:#555555;stroke-width:0.5;" rx="5" ry="5"/><text x="568.9385" y="123.5889" fill="#000000" font-size="14" lengthAdjust="spacing" textLength="62.3438" font-family="'Arial'">e-Rezept</text></g><g class="participant participant-tail" data-qualified-name="e_Rezept" data-entity-uid="part3" id="part3-tail" data-source-line="53"><rect x="561.9385" y="823.7578" width="76.3438" height="30.2969" fill="#CD3732" fill-opacity="0.66275" style="stroke:#555555;stroke-width:0.5;" rx="5" ry="5"/><text x="568.9385" y="843.7529" fill="#000000" font-size="14" lengthAdjust="spacing" textLength="62.3438" font-family="'Arial'">e-Rezept</text></g><g><title>e-Med FA</title><rect x="507.2764" y="637.0078" width="10" height="155.75" fill="#E97232" fill-opacity="0.74118" style="stroke:#181818;stroke-width:1;"/></g><rect x="0" y="166.0391" width="816.167" height="3" fill="#EEEEEE" style="stroke:#EEEEEE;stroke-width:1;" rx="5" ry="5"/><line x1="0" y1="166.0391" x2="816.167" y2="166.0391" style="stroke:#000000;stroke-width:1;"/><line x1="0" y1="169.0391" x2="816.167" y2="169.0391" style="stroke:#000000;stroke-width:1;"/><rect x="181.0723" y="154.8906" width="454.0225" height="24.2969" fill="#EEEEEE" style="stroke:#000000;stroke-width:2;" rx="5" ry="5"/><text x="187.0723" y="171.8857" fill="#000000" font-size="14" lengthAdjust="spacing" textLength="435.1484" font-weight="700" font-family="'Arial'">e-Rezept, Geplante Abgabe + Medikationsplan abrufen</text><rect x="148" y="189.1875" width="406.9385" height="42.5938" fill="none" style="stroke:#000000;stroke-width:1.5;" rx="5" ry="5"/><path d="M153,189.1875 L215,189.1875 L215,197.1875 L205,207.1875 L148,207.1875 L148,194.1875 A5,5 0 0 1 153,189.1875" style="stroke:#000000;stroke-width:2;" fill="#EEEEEE"/><text x="161" y="204.1826" fill="#000000" font-size="14" lengthAdjust="spacing" textLength="22.4902" font-weight="700" font-family="'Arial'">ref</text><a target="_top" href="Sub_UC_eMed_07_01.html#sub_uc_emed_07_01_a-zugriff-mittels-e-card" xlink:href="Sub_UC_eMed_07_01.html#sub_uc_emed_07_01_a-zugriff-mittels-e-card" xlink:type="simple" xlink:actuate="onRequest" xlink:show="new" title="Sub_UC_eMed_07_01.html#sub_uc_emed_07_01_a-zugriff-mittels-e-card" xlink:title="Sub_UC_eMed_07_01.html#sub_uc_emed_07_01_a-zugriff-mittels-e-card"><text x="184.0332" y="224.1826" fill="#0000EE" font-size="14" lengthAdjust="spacing" textLength="334.8721" font-family="'Arial'">Geplante Abgaben lesen - Zugriff mittels e-card</text></a><rect x="0" y="257.9297" width="816.167" height="3" fill="#EEEEEE" style="stroke:#EEEEEE;stroke-width:1;" rx="5" ry="5"/><line x1="0" y1="257.9297" x2="816.167" y2="257.9297" style="stroke:#000000;stroke-width:1;"/><line x1="0" y1="260.9297" x2="816.167" y2="260.9297" style="stroke:#000000;stroke-width:1;"/><rect x="85" y="246.7813" width="646.167" height="24.2969" fill="#EEEEEE" style="stroke:#000000;stroke-width:2;" rx="5" ry="5"/><text x="91" y="263.7764" fill="#000000" font-size="14" lengthAdjust="spacing" textLength="622.4189" font-weight="700" font-family="'Arial'">e-Rezept aktualisieren und Durchgeführte Abgaben vorbereiten und schreiben</text><path d="M5,291.0781 L5,339.0781 A5,5 0 0 0 10,344.0781 L342,344.0781 A5,5 0 0 0 347,339.0781 L347,296.0781 L337,286.0781 L10,286.0781 A5,5 0 0 0 5,291.0781" style="stroke:#8B95A5;stroke-width:1;" fill="url(#gj4zox1nr4nu90)"/><path d="M337,286.0781 L337,293.5781 A2.5,2.5 0 0 0 339.5,296.0781 L347,296.0781 L337,286.0781" style="stroke:#8B95A5;stroke-width:1;" fill="url(#gj4zox1nr4nu90)"/><text x="11" y="304.0732" fill="#111827" font-size="14" lengthAdjust="spacing" textLength="168.7656" font-style="italic" font-family="'Arial'">Durchgeführte Abgaben</text><text x="184.2158" y="304.0732" fill="#111827" font-size="14" lengthAdjust="spacing" textLength="61.0313" font-family="'Arial'">erstellen</text><text x="11" y="320.3701" fill="#111827" font-size="14" lengthAdjust="spacing" textLength="182.4648" font-family="'Arial'">(referenzieren zugehörige</text><text x="197.915" y="320.3701" fill="#111827" font-size="14" lengthAdjust="spacing" textLength="130.5459" font-style="italic" font-family="'Arial'">Geplante Abgaben</text><text x="328.4609" y="320.3701" fill="#111827" font-size="14" lengthAdjust="spacing" textLength="4.4502" font-family="'Arial'"> </text><text x="11" y="336.667" fill="#111827" font-size="14" lengthAdjust="spacing" textLength="26.6328" font-family="'Arial'">und</text><text x="42.083" y="336.667" fill="#111827" font-size="14" lengthAdjust="spacing" textLength="173.1953" font-style="italic" font-family="'Arial'">Medikationsplaneinträge</text><text x="215.2783" y="336.667" fill="#111827" font-size="14" lengthAdjust="spacing" textLength="5.4619" font-family="'Arial'">)</text><path d="M26,356.9688 L92.373,356.9688 L92.373,365.2656 L82.373,375.2656 L21,375.2656 L21,361.9688 A5,5 0 0 1 26,356.9688" style="stroke:#111827;stroke-width:1.5;" fill="#EEF2FF"/><rect x="21" y="356.9688" width="637.2822" height="450.7891" fill="none" style="stroke:#111827;stroke-width:2;" rx="5" ry="5"/><text x="36" y="370.9639" fill="#000000" font-size="14" lengthAdjust="spacing" textLength="26.373" font-weight="700" font-family="'Arial'">par</text><text x="107.373" y="371.9639" fill="#000000" font-size="14" lengthAdjust="spacing" textLength="202.9453" font-weight="700" font-family="'Arial'">[Aktualisierung e-Rezept]</text><g class="message" data-entity-1="part1" data-entity-2="part3" id="msg1" data-source-line="72"><polygon points="588.1104,393.6953,598.1104,397.6953,588.1104,401.6953,592.1104,397.6953" fill="#111827" style="stroke:#111827;stroke-width:1;stroke-linejoin:miter;stroke-miterlimit:10;"/><line x1="176.2817" y1="397.6953" x2="594.1104" y2="397.6953" style="stroke:#111827;stroke-width:1;"/><text x="183.2817" y="392.6294" fill="#000000" font-size="13" lengthAdjust="spacing" textLength="9.0454" font-weight="700" font-family="'Arial'">1</text><text x="196.3271" y="392.6294" fill="#000000" font-size="13" lengthAdjust="spacing" textLength="196.8853" font-family="'Arial'">Trigger e-Rezept aktualisieren</text></g><path d="M36,412.6953 L96.9385,412.6953 L96.9385,420.9922 L86.9385,430.9922 L31,430.9922 L31,417.6953 A5,5 0 0 1 36,412.6953" style="stroke:#111827;stroke-width:1.5;" fill="#EEF2FF"/><rect x="31" y="412.6953" width="617.2822" height="177.8828" fill="none" style="stroke:#111827;stroke-width:2;" rx="5" ry="5"/><text x="46" y="426.6904" fill="#000000" font-size="14" lengthAdjust="spacing" textLength="20.9385" font-weight="700" font-family="'Arial'">alt</text><text x="111.9385" y="427.6904" fill="#000000" font-size="14" lengthAdjust="spacing" textLength="178.2949" font-weight="700" font-family="'Arial'">[e-Rezept aktualisiert]</text><g class="message" data-entity-1="part3" data-entity-2="part1" id="msg2" data-source-line="75"><polygon points="187.2817,449.4219,177.2817,453.4219,187.2817,457.4219,183.2817,453.4219" fill="#111827" style="stroke:#111827;stroke-width:1;stroke-linejoin:miter;stroke-miterlimit:10;"/><line x1="181.2817" y1="453.4219" x2="599.1104" y2="453.4219" style="stroke:#111827;stroke-width:1;stroke-dasharray:2,2;"/><text x="193.2817" y="448.356" fill="#000000" font-size="13" lengthAdjust="spacing" textLength="9.0454" font-weight="700" font-family="'Arial'">2</text><text x="206.3271" y="448.356" fill="#000000" font-size="13" lengthAdjust="spacing" textLength="18.7573" font-family="'Arial'">OK</text></g><line x1="31" y1="462.4219" x2="648.2822" y2="462.4219" style="stroke:#111827;stroke-width:1;stroke-dasharray:2,2;"/><text x="36" y="475.417" fill="#000000" font-size="14" lengthAdjust="spacing" textLength="137.833" font-weight="700" font-family="'Arial'">[e-Rezept Fehler]</text><g class="message" data-entity-1="part3" data-entity-2="part1" id="msg3" data-source-line="78"><polygon points="187.2817,496.8516,177.2817,500.8516,187.2817,504.8516,183.2817,500.8516" fill="#111827" style="stroke:#111827;stroke-width:1;stroke-linejoin:miter;stroke-miterlimit:10;"/><line x1="181.2817" y1="500.8516" x2="599.1104" y2="500.8516" style="stroke:#111827;stroke-width:1;stroke-dasharray:2,2;"/><text x="193.2817" y="495.7856" fill="#000000" font-size="13" lengthAdjust="spacing" textLength="9.0454" font-weight="700" font-family="'Arial'">3</text><text x="206.3271" y="495.7856" fill="#000000" font-size="13" lengthAdjust="spacing" textLength="40.6694" font-family="'Arial'">Fehler</text></g><g class="message" data-entity-1="part1" data-entity-2="part2" id="msg4" data-source-line="81"><polygon points="500.2764,525.9844,510.2764,529.9844,500.2764,533.9844,504.2764,529.9844" fill="#111827" style="stroke:#111827;stroke-width:1;stroke-linejoin:miter;stroke-miterlimit:10;"/><line x1="176.2817" y1="529.9844" x2="506.2764" y2="529.9844" style="stroke:#111827;stroke-width:1;"/><text x="183.2817" y="524.9185" fill="#000000" font-size="13" lengthAdjust="spacing" textLength="9.0454" font-weight="700" font-family="'Arial'">4</text><text x="196.3271" y="524.9185" fill="#000000" font-size="13" lengthAdjust="spacing" textLength="156.603" font-family="'Arial'">POST $dispense-discard​</text></g><path d="M41,547.9844 L41,579.9844 A5,5 0 0 0 46,584.9844 L305,584.9844 A5,5 0 0 0 310,579.9844 L310,552.9844 L300,542.9844 L46,542.9844 A5,5 0 0 0 41,547.9844" style="stroke:#8B95A5;stroke-width:1;" fill="url(#gj4zox1nr4nu90)"/><path d="M300,542.9844 L300,550.4844 A2.5,2.5 0 0 0 302.5,552.9844 L310,552.9844 L300,542.9844" style="stroke:#8B95A5;stroke-width:1;" fill="url(#gj4zox1nr4nu90)"/><text x="47" y="560.9795" fill="#111827" font-size="14" lengthAdjust="spacing" textLength="108.1924" font-family="'Arial'">Siehe Use Case</text><text x="47" y="577.2764" fill="#111827" font-size="14" lengthAdjust="spacing" textLength="6.4395" font-family="'Arial'">"</text><text x="53.4395" y="577.2764" fill="#111827" font-size="14" lengthAdjust="spacing" textLength="159.8926" font-style="italic" font-family="'Arial'">Durchgeführte Abgabe</text><text x="217.7822" y="577.2764" fill="#111827" font-size="14" lengthAdjust="spacing" textLength="77.3281" font-family="'Arial'">verwerfen"</text><line x1="21" y1="598.5781" x2="658.2822" y2="598.5781" style="stroke:#111827;stroke-width:1;stroke-dasharray:2,2;"/><text x="26" y="611.5732" fill="#000000" font-size="14" lengthAdjust="spacing" textLength="192.6436" font-weight="700" font-family="'Arial'">[gleichzeitige Erstellung</text><text x="223.5176" y="611.5732" fill="#000000" font-size="14" lengthAdjust="spacing" textLength="190.0732" font-weight="700" font-style="italic" font-family="'Arial'">Durchgeführte Abgaben</text><text x="413.5908" y="611.5732" fill="#000000" font-size="14" lengthAdjust="spacing" textLength="6.3984" font-weight="700" font-family="'Arial'">]</text><g class="message" data-entity-1="part1" data-entity-2="part2" id="msg5" data-source-line="93"><polygon points="495.2764,633.0078,505.2764,637.0078,495.2764,641.0078,499.2764,637.0078" fill="#111827" style="stroke:#111827;stroke-width:1;stroke-linejoin:miter;stroke-miterlimit:10;"/><line x1="176.2817" y1="637.0078" x2="501.2764" y2="637.0078" style="stroke:#111827;stroke-width:1;"/><text x="183.2817" y="631.9419" fill="#000000" font-size="13" lengthAdjust="spacing" textLength="9.0454" font-weight="700" font-family="'Arial'">5</text><text x="196.3271" y="631.9419" fill="#000000" font-size="13" lengthAdjust="spacing" textLength="298.9492" font-family="'Arial'">POST Transaction Bundle MedicationDispense</text></g><path d="M146,652.0078 L206.9385,652.0078 L206.9385,660.3047 L196.9385,670.3047 L141,670.3047 L141,657.0078 A5,5 0 0 1 146,652.0078" style="stroke:#111827;stroke-width:1.5;" fill="#EEF2FF"/><rect x="141" y="652.0078" width="475.7656" height="148.75" fill="none" style="stroke:#111827;stroke-width:2;" rx="5" ry="5"/><text x="156" y="666.0029" fill="#000000" font-size="14" lengthAdjust="spacing" textLength="20.9385" font-weight="700" font-family="'Arial'">alt</text><text x="221.9385" y="667.0029" fill="#000000" font-size="14" lengthAdjust="spacing" textLength="264.9541" font-weight="700" font-family="'Arial'">[Durchgeführte Abgaben erstellt]</text><path d="M417,681.6016 L417,713.6016 A5,5 0 0 0 422,718.6016 L601,718.6016 A5,5 0 0 0 606,713.6016 L606,686.6016 L596,676.6016 L422,676.6016 A5,5 0 0 0 417,681.6016" style="stroke:#8B95A5;stroke-width:1;" fill="url(#gj4zox1nr4nu90)"/><path d="M596,676.6016 L596,684.1016 A2.5,2.5 0 0 0 598.5,686.6016 L606,686.6016 L596,676.6016" style="stroke:#8B95A5;stroke-width:1;" fill="url(#gj4zox1nr4nu90)"/><text x="423" y="694.5967" fill="#111827" font-size="14" lengthAdjust="spacing" textLength="168.7656" font-style="italic" font-family="'Arial'">Durchgeführte Abgaben</text><text x="423" y="710.8936" fill="#111827" font-size="14" lengthAdjust="spacing" textLength="82.6123" font-family="'Arial'">gespeichert</text><g class="message" data-entity-1="part2" data-entity-2="part1" id="msg6" data-source-line="103"><polygon points="187.2817,741.3281,177.2817,745.3281,187.2817,749.3281,183.2817,745.3281" fill="#111827" style="stroke:#111827;stroke-width:1;stroke-linejoin:miter;stroke-miterlimit:10;"/><line x1="181.2817" y1="745.3281" x2="506.2764" y2="745.3281" style="stroke:#111827;stroke-width:1;stroke-dasharray:2,2;"/><text x="193.2817" y="740.2622" fill="#000000" font-size="13" lengthAdjust="spacing" textLength="9.0454" font-weight="700" font-family="'Arial'">6</text><text x="206.3271" y="740.2622" fill="#000000" font-size="13" lengthAdjust="spacing" textLength="18.7573" font-family="'Arial'">OK</text></g><line x1="141" y1="754.3281" x2="616.7656" y2="754.3281" style="stroke:#111827;stroke-width:1;stroke-dasharray:2,2;"/><text x="146" y="767.3232" fill="#000000" font-size="14" lengthAdjust="spacing" textLength="372.5723" font-weight="700" font-family="'Arial'">[Fehler bei Erstellung Durchgeführte Abgaben]</text><g class="message" data-entity-1="part2" data-entity-2="part1" id="msg7" data-source-line="106"><polygon points="187.2817,788.7578,177.2817,792.7578,187.2817,796.7578,183.2817,792.7578" fill="#111827" style="stroke:#111827;stroke-width:1;stroke-linejoin:miter;stroke-miterlimit:10;"/><line x1="181.2817" y1="792.7578" x2="511.2764" y2="792.7578" style="stroke:#111827;stroke-width:1;stroke-dasharray:2,2;"/><text x="193.2817" y="787.6919" fill="#000000" font-size="13" lengthAdjust="spacing" textLength="9.0454" font-weight="700" font-family="'Arial'">7</text><text x="206.3271" y="787.6919" fill="#000000" font-size="13" lengthAdjust="spacing" textLength="40.6694" font-family="'Arial'">Fehler</text></g><?plantuml-src VLRTZjf65BxtKvn2fRPgQ6qJO47PbTW5jbMQW83jHTB86knZCyACwTZUJOWgzRwlqMVeLU_sJVeaFJCsO1iJmrhsET-Sd-zyCsp2an1Xb4ft7Q3__EzQ9WZ3LS1M22ZZ1CCGnM_YLoOv4yerW7Tf8BdlmvOdv8u1MowJdc5y4s-us379ji3S99ABv1E5PayOHriqZ9Dt5KaFvLqKHXAQfhwANkPk0XcbmiiHVaTz2eXupRpeYOi0V1R6MF3aowH02LOng8S-IyDa4edaBTiYD8RKJzYeHopu7i5wMU-yLFPFdtOeGous1S1uN0Tu49v-mBFoRwEFC-PvgZFRBDjlYvnrz5MaL4Gqcyy6m6sLFJInuvkjfcTvVUmgH37IrQhVOPsZTRdcxaPW78D5jdc1JPFU3xMfA0KgBCkwidjaMrJcyaUnmXX_Jr6uMPKp9XFkyXr9ggwn4k2Sz3FtOM0bHu59WA6KqLErNcqijwnDTHcFZYnNcqptHFEkLFunSkOw6mNwjk-NLvxIsuglhqXfIXbtqr-cS-T-D7GieAjfTRhcbNrbrW1i3UXtksPlT0QO3PS_ZzykLOH-zzP-UGOOpgQWhwOvwOz7dNuLC7up7ZcJ8G6mtxFRzigh0fpv-DrujeIcwxLxRPlrgsrCNqCfXzsfXfZFftCD6FTxLjjkaxRr4G8P0oo61Zs1rIWIO-nEmmPyWvugKq6nHIym6JRABPJnpXptk4lo1TbBez8ILP4caKYtAvI6SNqD1-0BkCTTc1s8sLdvFL1Elc49ZqIiNC1MClLHmFMrGIENw4FqY7b7Buxr3k3z-qMwSXxk76qoUuvf_R1Ejc4p9dFgEhWzc1tMscTdRoi_UrlPsLkjHa28CTrR5yxg3nzAtG3R92aBUSnHqYeIRFqFWe37I18Lo9CS5hjhUbCUtQO-XKvT6g_uJNsWLp_oczFF2nZV4ZqgzpwhWBh4zVC_aWS85AFQdLvjgFpahD2EN2Jo-Uy05UWx0mcagZ8CDNqOdXfDwMWu4A06b2cjTNDKnW2ML410pTJpH6leoyBafF8wO68eOH_brg8CEjK0fgzLNffAUHiSWqnm7PBkBYtFtA3z7j9suO-CE3f0ZSnpQYiJt01cqyKIllPul4CHOuiUb2J--_ClZTUtwXoLRS5nZV2WYcLqqxR6fG7h2T7w9vIq1HfP3uTHw4V3oDBfzeCGkRlUawxKnCUPBjI0lYYWyjHAxIqb4x6Y919mIqAX_qEKJbojar7UkfhUaRLyEvOFZEfyB-oANCY9KI4l3wgjN-v48GAaieY6esIEqjLlUO4b_K2jW79Xh90NgQpFVYds9N7b7UKpfB__0G00?></g></svg>