<svg xmlns="http://www.w3.org/2000/svg" xmlns:xlink="http://www.w3.org/1999/xlink" contentStyleType="text/css" data-diagram-type="SEQUENCE" height="1091px" preserveAspectRatio="none" style="width:1033px;height:1091px;background:#F5F5F5;" version="1.1" viewBox="0 0 1033 1091" width="1033px" zoomAndPan="magnify"><?plantuml 1.2026.7beta1?><defs><linearGradient id="g9zncfqosdmtd0" x1="50%" x2="50%" y1="0%" y2="100%"><stop offset="0%" stop-color="#E0E5F0"/><stop offset="100%" stop-color="#D1D9E6"/></linearGradient><filter height="300%" id="f9zncfqosdmtd" width="300%" x="-1" y="-1"><feGaussianBlur result="blurOut" stdDeviation="2"/><feColorMatrix in="blurOut" result="blurOut2" type="matrix" values="0 0 0 0 0 0 0 0 0 0 0 0 0 0 0 0 0 0 .4 0"/><feOffset dx="4" dy="4" in="blurOut2" result="blurOut3"/><feBlend in="SourceGraphic" in2="blurOut3" mode="normal"/></filter></defs><g><rect fill="#F5F5F5" height="1091" style="stroke:none;stroke-width:1;" width="1033" x="0" y="0"/><g class="title" data-source-line="1"><text fill="#000000" font-family="'Arial'" font-size="14" font-weight="700" lengthAdjust="spacing" textLength="539.0137" x="243.9604" y="27.9951">Geplante Abgabe f&#252;r bestehende Medikationsplaneintr&#228;ge erstellen</text><text fill="#000000" font-family="'Arial'" font-size="14" font-weight="700" lengthAdjust="spacing" textLength="567.0957" x="229.9194" y="44.292">Variante B: Sequentielles Erstellen von Geplanter Abgabe und e-Rezept</text></g><rect fill="#9FBAC4" height="1024.9141" rx="5" ry="5" style="stroke:#181818;stroke-width:0.5;" width="74.0586" x="127" y="59.5938"/><text fill="#000000" font-family="'Arial'" font-size="14" font-weight="700" lengthAdjust="spacing" textLength="4.874" x="130" y="72.5889">&#160;</text><text fill="#000000" font-family="'Arial'" font-size="14" font-weight="700" lengthAdjust="spacing" textLength="48.5625" x="139.748" y="88.8857">GDA 1</text><rect fill="#C48778" height="1024.9141" rx="5" ry="5" style="stroke:#181818;stroke-width:0.5;" width="256.9268" x="459.9731" y="59.5938"/><text fill="#000000" font-family="'Arial'" font-size="14" font-weight="700" lengthAdjust="spacing" textLength="4.874" x="462.9731" y="72.5889">&#160;</text><text fill="#000000" font-family="'Arial'" font-size="14" font-weight="700" lengthAdjust="spacing" textLength="182.6904" x="497.0913" y="88.8857">e-Med Fachanwendung</text><rect fill="#CBB272" height="1024.9141" rx="5" ry="5" style="stroke:#181818;stroke-width:0.5;" width="105.1826" x="901.752" y="59.5938"/><text fill="#000000" font-family="'Arial'" font-size="14" font-weight="700" lengthAdjust="spacing" textLength="4.874" x="904.752" y="72.5889">&#160;</text><text fill="#000000" font-family="'Arial'" font-size="14" font-weight="700" lengthAdjust="spacing" textLength="69.9385" x="924.248" y="88.8857">e-Rezept</text><g><title>GDA 1</title><rect fill="#FFFFFF" height="758.4297" style="stroke:#181818;stroke-width:1;" width="10" x="159.0293" y="182.4844"/></g><g><title>e-Med FA</title><rect fill="#FFFFFF" height="233.3125" style="stroke:#181818;stroke-width:1;" width="10" x="583.4365" y="483.5859"/></g><g><title>e-Rezept</title><rect fill="#FFFFFF" height="158.75" style="stroke:#181818;stroke-width:1;" width="10" x="949.3433" y="753.0313"/></g><rect fill="none" height="226.3125" rx="5" ry="5" style="stroke:#111827;stroke-width:2;" width="740.375" x="128.7476" y="498.5859"/><rect fill="none" height="76.8594" rx="5" ry="5" style="stroke:#111827;stroke-width:2;" width="320.3481" x="538.7744" y="525.1797"/><rect fill="none" height="164.5859" rx="5" ry="5" style="stroke:#111827;stroke-width:2;" width="873.7676" x="128.7476" y="823.625"/><g class="participant-lifeline" data-entity-uid="part1" data-qualified-name="GDA_1" data-source-line="43" id="part1-lifeline"><g><title>GDA 1</title><rect fill="#000000" fill-opacity="0.00000" height="832.7266" width="8" x="160.0293" y="172.4844"/><line style="stroke:#181818;stroke-width:0.5;stroke-dasharray:5,5;" x1="163.7476" x2="163.7476" y1="172.4844" y2="1005.2109"/></g></g><g class="participant-lifeline" data-entity-uid="part2" data-qualified-name="eMed_FA" data-source-line="47" id="part2-lifeline"><g><title>e-Med FA</title><rect fill="#000000" fill-opacity="0.00000" height="832.7266" width="8" x="584.4365" y="172.4844"/><line style="stroke:#181818;stroke-width:0.5;stroke-dasharray:5,5;" x1="587.7744" x2="587.7744" y1="172.4844" y2="1005.2109"/></g></g><g class="participant-lifeline" data-entity-uid="part3" data-qualified-name="e_Rezept" data-source-line="51" id="part3-lifeline"><g><title>e-Rezept</title><rect fill="#000000" fill-opacity="0.00000" height="832.7266" width="8" x="950.3433" y="172.4844"/><line style="stroke:#181818;stroke-width:0.5;stroke-dasharray:5,5;" x1="954.1714" x2="954.1714" y1="172.4844" y2="1005.2109"/></g></g><g class="participant participant-head" data-entity-uid="part1" data-qualified-name="GDA_1" data-source-line="43" id="part1-head"><text fill="#000000" font-family="'Arial'" font-size="14" lengthAdjust="spacing" textLength="44.5635" x="138.7476" y="169.1826">GDA 1</text><ellipse cx="164.0293" cy="104.6875" fill="#E2E2F0" rx="8" ry="8" style="stroke:#181818;stroke-width:0.5;"/><path d="M164.0293,112.6875 L164.0293,139.6875 M151.0293,120.6875 L177.0293,120.6875 M164.0293,139.6875 L151.0293,154.6875 M164.0293,139.6875 L177.0293,154.6875" fill="none" style="stroke:#181818;stroke-width:0.5;"/></g><g class="participant participant-tail" data-entity-uid="part1" data-qualified-name="GDA_1" data-source-line="43" id="part1-tail"><text fill="#000000" font-family="'Arial'" font-size="14" lengthAdjust="spacing" textLength="44.5635" x="138.7476" y="1017.2061">GDA 1</text><ellipse cx="164.0293" cy="1029.0078" fill="#E2E2F0" rx="8" ry="8" style="stroke:#181818;stroke-width:0.5;"/><path d="M164.0293,1037.0078 L164.0293,1064.0078 M151.0293,1045.0078 L177.0293,1045.0078 M164.0293,1064.0078 L151.0293,1079.0078 M164.0293,1064.0078 L177.0293,1079.0078" fill="none" style="stroke:#181818;stroke-width:0.5;"/></g><g class="participant participant-head" data-entity-uid="part2" data-qualified-name="eMed_FA" data-source-line="47" id="part2-head"><rect fill="#FFFFFF" height="30.2969" rx="5" ry="5" style="stroke:#555555;stroke-width:0.5;" width="79.3242" x="548.7744" y="141.1875"/><text fill="#000000" font-family="'Arial'" font-size="14" lengthAdjust="spacing" textLength="65.3242" x="555.7744" y="161.1826">e-Med FA</text></g><g class="participant participant-tail" data-entity-uid="part2" data-qualified-name="eMed_FA" data-source-line="47" id="part2-tail"><rect fill="#FFFFFF" height="30.2969" rx="5" ry="5" style="stroke:#555555;stroke-width:0.5;" width="79.3242" x="548.7744" y="1004.2109"/><text fill="#000000" font-family="'Arial'" font-size="14" lengthAdjust="spacing" textLength="65.3242" x="555.7744" y="1024.2061">e-Med FA</text></g><g class="participant participant-head" data-entity-uid="part3" data-qualified-name="e_Rezept" data-source-line="51" id="part3-head"><rect fill="#FFFFFF" height="30.2969" rx="5" ry="5" style="stroke:#555555;stroke-width:0.5;" width="76.3438" x="916.1714" y="141.1875"/><text fill="#000000" font-family="'Arial'" font-size="14" lengthAdjust="spacing" textLength="62.3438" x="923.1714" y="161.1826">e-Rezept</text></g><g class="participant participant-tail" data-entity-uid="part3" data-qualified-name="e_Rezept" data-source-line="51" id="part3-tail"><rect fill="#FFFFFF" height="30.2969" rx="5" ry="5" style="stroke:#555555;stroke-width:0.5;" width="76.3438" x="916.1714" y="1004.2109"/><text fill="#000000" font-family="'Arial'" font-size="14" lengthAdjust="spacing" textLength="62.3438" x="923.1714" y="1024.2061">e-Rezept</text></g><g><title>GDA 1</title><rect fill="#FFFFFF" height="758.4297" style="stroke:#181818;stroke-width:1;" width="10" x="159.0293" y="182.4844"/></g><g><title>e-Med FA</title><rect fill="#FFFFFF" height="233.3125" style="stroke:#181818;stroke-width:1;" width="10" x="583.4365" y="483.5859"/></g><g><title>e-Rezept</title><rect fill="#FFFFFF" height="158.75" style="stroke:#181818;stroke-width:1;" width="10" x="949.3433" y="753.0313"/></g><rect fill="#EEEEEE" height="3" rx="5" ry="5" style="stroke:#EEEEEE;stroke-width:1;" width="1027.9346" x="0" y="203.6328"/><line style="stroke:#000000;stroke-width:1;" x1="0" x2="1027.9346" y1="203.6328" y2="203.6328"/><line style="stroke:#000000;stroke-width:1;" x1="0" x2="1027.9346" y1="206.6328" y2="206.6328"/><rect fill="#EEEEEE" height="24.2969" rx="5" ry="5" style="stroke:#000000;stroke-width:2;" width="216.2891" x="405.8228" y="192.4844"/><text fill="#000000" font-family="'Arial'" font-size="14" font-weight="700" lengthAdjust="spacing" textLength="197.415" x="411.8228" y="209.4795">Medikationsplan abrufen</text><rect fill="none" height="42.5938" rx="5" ry="5" style="stroke:#000000;stroke-width:1.5;" width="495.3511" x="135.7476" y="226.7813"/><path d="M140.7476,226.7813 L202.7476,226.7813 L202.7476,234.7813 L192.7476,244.7813 L135.7476,244.7813 L135.7476,231.7813 A5,5 0 0 1 140.7476,226.7813" fill="#EEEEEE" style="stroke:#000000;stroke-width:2;"/><text fill="#000000" font-family="'Arial'" font-size="14" font-weight="700" lengthAdjust="spacing" textLength="22.4902" x="148.7476" y="241.7764">ref</text><a href="interactions.html#sequenzdiagramm-plan-read" target="_top" title="interactions.html#sequenzdiagramm-plan-read" xlink:actuate="onRequest" xlink:href="interactions.html#sequenzdiagramm-plan-read" xlink:show="new" xlink:title="interactions.html#sequenzdiagramm-plan-read" xlink:type="simple"><text fill="#0000EE" font-family="'Arial'" font-size="14" lengthAdjust="spacing" textLength="70.6426" x="348.1018" y="261.7764">Plan-Read</text></a><path d="M34,284.375 L34,316.375 A5,5 0 0 0 39,321.375 L284,321.375 A5,5 0 0 0 289,316.375 L289,289.375 L279,279.375 L39,279.375 A5,5 0 0 0 34,284.375" fill="url(#g9zncfqosdmtd0)" filter="url(#f9zncfqosdmtd)" style="stroke:#8B95A5;stroke-width:1;"/><path d="M279,279.375 L279,286.875 A2.5,2.5 0 0 0 281.5,289.375 L289,289.375 L279,279.375" fill="url(#g9zncfqosdmtd0)" style="stroke:#8B95A5;stroke-width:1;"/><text fill="#111827" font-family="'Arial'" font-size="14" lengthAdjust="spacing" textLength="195.8018" x="40" y="297.3701">GDA erh&#228;lt Medikationsplan</text><text fill="#111827" font-family="'Arial'" font-size="14" lengthAdjust="spacing" textLength="234.377" x="40" y="313.667">(Auslieferungs-Collection-Bundle)</text><rect fill="#EEEEEE" height="3" rx="5" ry="5" style="stroke:#EEEEEE;stroke-width:1;" width="1027.9346" x="0" y="351.1172"/><line style="stroke:#000000;stroke-width:1;" x1="0" x2="1027.9346" y1="351.1172" y2="351.1172"/><line style="stroke:#000000;stroke-width:1;" x1="0" x2="1027.9346" y1="354.1172" y2="354.1172"/><rect fill="#EEEEEE" height="24.2969" rx="5" ry="5" style="stroke:#000000;stroke-width:2;" width="379.3398" x="324.2974" y="339.9688"/><text fill="#000000" font-family="'Arial'" font-size="14" font-weight="700" lengthAdjust="spacing" textLength="360.4658" x="330.2974" y="356.9639">Geplante Abgaben vorbereiten und schreiben</text><path d="M5,384.2656 L5,449.2656 A5,5 0 0 0 10,454.2656 L317,454.2656 A5,5 0 0 0 322,449.2656 L322,389.2656 L312,379.2656 L10,379.2656 A5,5 0 0 0 5,384.2656" fill="url(#g9zncfqosdmtd0)" filter="url(#f9zncfqosdmtd)" style="stroke:#8B95A5;stroke-width:1;"/><path d="M312,379.2656 L312,386.7656 A2.5,2.5 0 0 0 314.5,389.2656 L322,389.2656 L312,379.2656" fill="url(#g9zncfqosdmtd0)" style="stroke:#8B95A5;stroke-width:1;"/><text fill="#111827" font-family="'Arial'" font-size="14" lengthAdjust="spacing" textLength="57.8799" x="11" y="397.2607">Erstellte</text><text fill="#111827" font-family="'Arial'" font-size="14" font-style="italic" lengthAdjust="spacing" textLength="130.5459" x="73.3301" y="397.2607">Geplante Abgaben</text><text fill="#111827" font-family="'Arial'" font-size="14" lengthAdjust="spacing" textLength="94.2471" x="208.3262" y="397.2607">referenzieren</text><text fill="#111827" font-family="'Arial'" font-size="14" lengthAdjust="spacing" textLength="260.668" x="11" y="413.5576">zugeh&#246;rige Medikationsplaneintr&#228;ge;</text><text fill="#111827" font-family="'Arial'" font-size="14" lengthAdjust="spacing" textLength="256.2725" x="11" y="429.8545">groupIdentifier f&#252;r "Rezeptklammer"</text><text fill="#111827" font-family="'Arial'" font-size="14" lengthAdjust="spacing" textLength="70.9775" x="11" y="446.1514">bleibt leer</text><g class="message" data-entity-1="part1" data-entity-2="part2" data-source-line="75" id="msg1"><line style="stroke:#111827;stroke-width:1;" x1="581.4365" x2="571.4365" y1="483.5859" y2="479.5859"/><line style="stroke:#111827;stroke-width:1;" x1="581.4365" x2="571.4365" y1="483.5859" y2="487.5859"/><line style="stroke:#111827;stroke-width:1;" x1="169.0293" x2="582.4365" y1="483.5859" y2="483.5859"/><text fill="#000000" font-family="'Arial'" font-size="13" font-weight="700" lengthAdjust="spacing" textLength="9.0454" x="176.0293" y="478.52">1</text><text fill="#000000" font-family="'Arial'" font-size="13" lengthAdjust="spacing" textLength="247.749" x="189.0747" y="478.52">POST Transaction Bundle GeplAbgabe</text></g><path d="M133.7476,498.5859 L194.686,498.5859 L194.686,506.8828 L184.686,516.8828 L128.7476,516.8828 L128.7476,503.5859 A5,5 0 0 1 133.7476,498.5859" fill="#EEF2FF" style="stroke:#111827;stroke-width:1.5;"/><rect fill="none" height="226.3125" rx="5" ry="5" style="stroke:#111827;stroke-width:2;" width="740.375" x="128.7476" y="498.5859"/><text fill="#000000" font-family="'Arial'" font-size="14" font-weight="700" lengthAdjust="spacing" textLength="20.9385" x="143.7476" y="512.5811">alt</text><text fill="#000000" font-family="'Arial'" font-size="14" font-weight="700" lengthAdjust="spacing" textLength="312.2383" x="209.686" y="513.5811">[Geplante Abgaben erfolgreich erstellt]</text><path d="M543.7744,525.1797 L604.7129,525.1797 L604.7129,533.4766 L594.7129,543.4766 L538.7744,543.4766 L538.7744,530.1797 A5,5 0 0 1 543.7744,525.1797" fill="#EEF2FF" style="stroke:#111827;stroke-width:1.5;"/><rect fill="none" height="76.8594" rx="5" ry="5" style="stroke:#111827;stroke-width:2;" width="320.3481" x="538.7744" y="525.1797"/><text fill="#000000" font-family="'Arial'" font-size="14" font-weight="700" lengthAdjust="spacing" textLength="20.9385" x="553.7744" y="539.1748">alt</text><text fill="#000000" font-family="'Arial'" font-size="14" font-weight="700" lengthAdjust="spacing" textLength="221.9971" x="619.7129" y="540.1748">[e-Med groupIdentifier leer]</text><g class="message" data-entity-1="part2" data-entity-2="part2" data-source-line="81" id="msg2"><line style="stroke:#111827;stroke-width:1;" x1="593.4365" x2="635.4365" y1="581.0391" y2="581.0391"/><line style="stroke:#111827;stroke-width:1;" x1="635.4365" x2="635.4365" y1="581.0391" y2="594.0391"/><line style="stroke:#111827;stroke-width:1;" x1="594.4365" x2="635.4365" y1="594.0391" y2="594.0391"/><polygon fill="#111827" points="604.4365,590.0391,594.4365,594.0391,604.4365,598.0391,600.4365,594.0391" style="stroke:#111827;stroke-width:1;stroke-linejoin:miter;stroke-miterlimit:10;"/><text fill="#000000" font-family="'Arial'" font-size="13" font-weight="700" lengthAdjust="spacing" textLength="9.0454" x="600.4365" y="568.4067">2</text><text fill="#000000" font-family="'Arial'" font-size="13" lengthAdjust="spacing" textLength="205.918" x="613.4819" y="560.8403">e-Med groupIdentifier erzeugen</text><text fill="#000000" font-family="'Arial'" font-size="13" lengthAdjust="spacing" textLength="223.6406" x="613.4819" y="575.9731">+ in geplanten Abgaben erg&#228;nzen</text></g><path d="M450,619.0391 L450,635.0391 A5,5 0 0 0 455,640.0391 L717,640.0391 A5,5 0 0 0 722,635.0391 L722,624.0391 L712,614.0391 L455,614.0391 A5,5 0 0 0 450,619.0391" fill="url(#g9zncfqosdmtd0)" filter="url(#f9zncfqosdmtd)" style="stroke:#8B95A5;stroke-width:1;"/><path d="M712,614.0391 L712,621.5391 A2.5,2.5 0 0 0 714.5,624.0391 L722,624.0391 L712,614.0391" fill="url(#g9zncfqosdmtd0)" style="stroke:#8B95A5;stroke-width:1;"/><text fill="#111827" font-family="'Arial'" font-size="14" lengthAdjust="spacing" textLength="251.6309" x="456" y="632.0342">Geplante Abgabe 1 + 2 gespeichert</text><g class="message" data-entity-1="part2" data-entity-2="part1" data-source-line="88" id="msg3"><line style="stroke:#111827;stroke-width:1;" x1="170.0293" x2="180.0293" y1="669.4688" y2="665.4688"/><line style="stroke:#111827;stroke-width:1;" x1="170.0293" x2="180.0293" y1="669.4688" y2="673.4688"/><line style="stroke:#111827;stroke-width:1;stroke-dasharray:2,2;" x1="169.0293" x2="582.4365" y1="669.4688" y2="669.4688"/><text fill="#000000" font-family="'Arial'" font-size="13" font-weight="700" lengthAdjust="spacing" textLength="9.0454" x="186.0293" y="664.4028">3</text><text fill="#000000" font-family="'Arial'" font-size="13" lengthAdjust="spacing" textLength="284.813" x="199.0747" y="664.4028">OK (Ressourcen inkl. e-Med groupIdentifier)</text></g><line style="stroke:#111827;stroke-width:1;stroke-dasharray:2,2;" x1="128.7476" x2="869.1226" y1="678.4688" y2="678.4688"/><text fill="#000000" font-family="'Arial'" font-size="14" font-weight="700" lengthAdjust="spacing" textLength="328.5898" x="133.7476" y="691.4639">[Fehler bei Erstellung Geplante Abgaben]</text><g class="message" data-entity-1="part2" data-entity-2="part1" data-source-line="92" id="msg4"><line style="stroke:#111827;stroke-width:1;" x1="170.0293" x2="180.0293" y1="716.8984" y2="712.8984"/><line style="stroke:#111827;stroke-width:1;" x1="170.0293" x2="180.0293" y1="716.8984" y2="720.8984"/><line style="stroke:#111827;stroke-width:1;stroke-dasharray:2,2;" x1="169.0293" x2="587.4365" y1="716.8984" y2="716.8984"/><text fill="#000000" font-family="'Arial'" font-size="13" font-weight="700" lengthAdjust="spacing" textLength="9.0454" x="186.0293" y="711.8325">4</text><text fill="#000000" font-family="'Arial'" font-size="13" lengthAdjust="spacing" textLength="40.6694" x="199.0747" y="711.8325">Fehler</text></g><g class="message" data-entity-1="part1" data-entity-2="part3" data-source-line="97" id="msg5"><line style="stroke:#111827;stroke-width:1;" x1="947.3433" x2="937.3433" y1="753.0313" y2="749.0313"/><line style="stroke:#111827;stroke-width:1;" x1="947.3433" x2="937.3433" y1="753.0313" y2="757.0313"/><line style="stroke:#111827;stroke-width:1;" x1="169.0293" x2="948.3433" y1="753.0313" y2="753.0313"/><text fill="#000000" font-family="'Arial'" font-size="13" font-weight="700" lengthAdjust="spacing" textLength="9.0454" x="176.0293" y="747.9653">5</text><text fill="#000000" font-family="'Arial'" font-size="13" lengthAdjust="spacing" textLength="355.9956" x="189.0747" y="747.9653">Trigger e-Rezept erstellen (inkl. e-Med groupIdentifier)</text></g><path d="M42,771.0313 L42,803.0313 A5,5 0 0 0 47,808.0313 L276,808.0313 A5,5 0 0 0 281,803.0313 L281,776.0313 L271,766.0313 L47,766.0313 A5,5 0 0 0 42,771.0313" fill="url(#g9zncfqosdmtd0)" filter="url(#f9zncfqosdmtd)" style="stroke:#8B95A5;stroke-width:1;"/><path d="M271,766.0313 L271,773.5313 A2.5,2.5 0 0 0 273.5,776.0313 L281,776.0313 L271,766.0313" fill="url(#g9zncfqosdmtd0)" style="stroke:#8B95A5;stroke-width:1;"/><text fill="#111827" font-family="'Arial'" font-size="14" lengthAdjust="spacing" textLength="170.8643" x="48" y="784.0264">Erstellung e-Rezept inkl.</text><text fill="#111827" font-family="'Arial'" font-size="14" lengthAdjust="spacing" textLength="218.1621" x="48" y="800.3232">e-Med groupIdentifier ausl&#246;sen</text><path d="M133.7476,823.625 L194.686,823.625 L194.686,831.9219 L184.686,841.9219 L128.7476,841.9219 L128.7476,828.625 A5,5 0 0 1 133.7476,823.625" fill="#EEF2FF" style="stroke:#111827;stroke-width:1.5;"/><rect fill="none" height="164.5859" rx="5" ry="5" style="stroke:#111827;stroke-width:2;" width="873.7676" x="128.7476" y="823.625"/><text fill="#000000" font-family="'Arial'" font-size="14" font-weight="700" lengthAdjust="spacing" textLength="20.9385" x="143.7476" y="837.6201">alt</text><text fill="#000000" font-family="'Arial'" font-size="14" font-weight="700" lengthAdjust="spacing" textLength="236.0859" x="209.686" y="838.6201">[e-Rezept erfolgreich erstellt]</text><g class="message" data-entity-1="part3" data-entity-2="part1" data-source-line="105" id="msg6"><line style="stroke:#111827;stroke-width:1;" x1="170.0293" x2="180.0293" y1="864.3516" y2="860.3516"/><line style="stroke:#111827;stroke-width:1;" x1="170.0293" x2="180.0293" y1="864.3516" y2="868.3516"/><line style="stroke:#111827;stroke-width:1;stroke-dasharray:2,2;" x1="169.0293" x2="948.3433" y1="864.3516" y2="864.3516"/><text fill="#000000" font-family="'Arial'" font-size="13" font-weight="700" lengthAdjust="spacing" textLength="9.0454" x="186.0293" y="859.2856">6</text><text fill="#000000" font-family="'Arial'" font-size="13" lengthAdjust="spacing" textLength="18.7573" x="199.0747" y="859.2856">OK</text></g><line style="stroke:#111827;stroke-width:1;stroke-dasharray:2,2;" x1="128.7476" x2="1002.5151" y1="873.3516" y2="873.3516"/><text fill="#000000" font-family="'Arial'" font-size="14" font-weight="700" lengthAdjust="spacing" textLength="252.4375" x="133.7476" y="886.3467">[Fehler bei Erstellung e-Rezept]</text><g class="message" data-entity-1="part3" data-entity-2="part1" data-source-line="108" id="msg7"><line style="stroke:#111827;stroke-width:1;" x1="170.0293" x2="180.0293" y1="911.7813" y2="907.7813"/><line style="stroke:#111827;stroke-width:1;" x1="170.0293" x2="180.0293" y1="911.7813" y2="915.7813"/><line style="stroke:#111827;stroke-width:1;stroke-dasharray:2,2;" x1="169.0293" x2="953.3433" y1="911.7813" y2="911.7813"/><text fill="#000000" font-family="'Arial'" font-size="13" font-weight="700" lengthAdjust="spacing" textLength="9.0454" x="186.0293" y="906.7153">7</text><text fill="#000000" font-family="'Arial'" font-size="13" lengthAdjust="spacing" textLength="40.6694" x="199.0747" y="906.7153">Fehler</text></g><g class="message" data-entity-1="part1" data-entity-2="part2" data-source-line="110" id="msg8"><line style="stroke:#111827;stroke-width:1;" x1="586.4365" x2="576.4365" y1="940.9141" y2="936.9141"/><line style="stroke:#111827;stroke-width:1;" x1="586.4365" x2="576.4365" y1="940.9141" y2="944.9141"/><line style="stroke:#111827;stroke-width:1;" x1="164.0293" x2="587.4365" y1="940.9141" y2="940.9141"/><text fill="#000000" font-family="'Arial'" font-size="13" font-weight="700" lengthAdjust="spacing" textLength="9.0454" x="171.0293" y="935.8481">8</text><text fill="#000000" font-family="'Arial'" font-size="13" font-style="italic" lengthAdjust="spacing" textLength="112.9819" x="184.0747" y="935.8481">Geplante Abgabe</text><text fill="#000000" font-family="'Arial'" font-size="13" lengthAdjust="spacing" textLength="135.7192" x="301.189" y="935.8481">verwerfen ($discard)</text></g><path d="M415,958.9141 L415,974.9141 A5,5 0 0 0 420,979.9141 L753,979.9141 A5,5 0 0 0 758,974.9141 L758,963.9141 L748,953.9141 L420,953.9141 A5,5 0 0 0 415,958.9141" fill="url(#g9zncfqosdmtd0)" filter="url(#f9zncfqosdmtd)" style="stroke:#8B95A5;stroke-width:1;"/><path d="M748,953.9141 L748,961.4141 A2.5,2.5 0 0 0 750.5,963.9141 L758,963.9141 L748,953.9141" fill="url(#g9zncfqosdmtd0)" style="stroke:#8B95A5;stroke-width:1;"/><text fill="#111827" font-family="'Arial'" font-size="14" lengthAdjust="spacing" textLength="119.082" x="421" y="971.9092">Siehe Use Case "</text><text fill="#111827" font-family="'Arial'" font-size="14" font-style="italic" lengthAdjust="spacing" textLength="121.6729" x="540.082" y="971.9092">Geplante Abgabe</text><text fill="#111827" font-family="'Arial'" font-size="14" lengthAdjust="spacing" textLength="77.3281" x="666.2051" y="971.9092">verwerfen"</text><?plantuml-src XLRRRkCs47tdLmoKFYJOUXkvwoPnDm6SDDaMHRj1dEtBxYAWf954MAPSYafI5_sRVCC-zSq_rY5rCINBMnamP7BcyCoP2ws5pX3UuIhZKYFCWeG72F7cNmK15XfJb172RnY91TSYbuKnH26rshma2AZ89ijGVf9_S2KinkKKvlXdYL8BirN0TMC4ZxbiprBDOQMC04TtkCQL1iQAXP0hhlWIWbn5gAxoB5TmS6mVTvU7YqJbv5rRn1FpSIoAb4Vvav09n3mhqDcftPGa5huB6c7CoqpVv5B_pfS8teo2ohnXYxbO8_XlXZUxj1qRcPD6VpE0otu0U8oJ-7Xq4FdH6VvWB5m1JeEp2P-qg_Uf21SIYm9yMhjp0ZgbtxSyYapW1iLXu_l-wVY4rkQjD5gLoFvn2VxyrmfL9kJ22U7wUiZW0zM6US5QO5TxMm5X5UajLrg4OaLfxuGqiK_FO2UjzkaQxGgyizqafxFHo38s3ZEbygU-C7QngwrT6ZgntQZE-fwMtX7pLIV65hdQsiavncCRdUEvFNxSpSnb_kn4q5aVqfK5-JDudoI1_pG37y23WxEO-iQemaDDfhJnu0ClmBCc7gDsfxvxTdpjWoCQ0N33mvJB9x8fYKBr4ERLczEJ4rDrgwtIWEJmS3EpsBNtR1Y-xNs35GR1-6JSntgeBIgmweS3nakTot8Pe6Bi_Bm_hO07genf-foVascenIEd3hIHCuKnv8zO2_5joteA7pyACwICFU6yJlKoEwYAUXq9df3iov517oda4ToQjpjw-_oPCTlXMrHcf4MLRbuolSED7SxA8XCOeo9DYn5bC4DxvkYIgYJ38nkcWRInzIQr6QcAuaQXwTrCqY9CwLTGXzkdKezYMdmhBlfORxyJ5w0C5GfIc6zWwpB1TFD5YMJ_BV0ZCoMz-YKo8pycn-h-yAeyBJAI2fN7WenuQSYGqhIDgQh0qSL5e_qKRj_Fx-5USLbKwaEbX8szehfDO-r4YILnTyH15UTPGdg4QNDLQMQAduohekmpj-niLTQLC7A83RkWMYEfH5VWAn0Iafg4T5WacnUvHad05BWXiCrB4m3iNC8-l88nmHKhmn-LhjnhtHo6HZmhunJU_mg7TpGvybA5T3BDwEprCEqZGc0CQMp33QOPcljUD5UrQU--c7jEh9rfDyBThDXmdHJNZJobz8eaCU4tpT_-au33hxBUKz66SOjL0R3XT77gjysNWW9gnTpohlbLvUHm6oWZs8wbRWQ-gcg3kSzzMCw7rccWNNOxsJOoIVH4n8sWtqIY2BcAZlQLtbpG7ptuGAolE7rv_mVfkQNOeLebXVR-0m00?></g></svg>