<?xml version="1.0" encoding="us-ascii" standalone="no"?><svg xmlns="http://www.w3.org/2000/svg" xmlns:xlink="http://www.w3.org/1999/xlink" contentStyleType="text/css" height="692px" preserveAspectRatio="none" style="width:572px;height:692px;background:#F5F5F5;" version="1.1" viewBox="0 0 572 692" width="572px" zoomAndPan="magnify"><defs><linearGradient id="g60f24w2s3f1q0" x1="50%" x2="50%" y1="0%" y2="100%"><stop offset="0%" stop-color="#E0E5F0"/><stop offset="100%" stop-color="#D1D9E6"/></linearGradient></defs><g><rect fill="#F5F5F5" height="692" style="stroke:none;stroke-width:1.0;" width="572" x="0" y="0"/><text fill="#000000" font-family="Arial" font-size="14" font-weight="bold" lengthAdjust="spacing" textLength="254" x="166" y="28.1318">Initialisierung des Medikationsplans</text><rect fill="#156082" fill-opacity="0.50196" height="395.231" style="stroke:#181818;stroke-width:1.0;" width="10" x="90" y="149.146"/><rect fill="#E97232" fill-opacity="0.74118" height="395.231" style="stroke:#181818;stroke-width:1.0;" width="10" x="322" y="149.146"/><line style="stroke:#181818;stroke-width:0.5;stroke-dasharray:5.0,5.0;" x1="95" x2="95" y1="118.1973" y2="611.9746"/><line style="stroke:#181818;stroke-width:0.5;stroke-dasharray:5.0,5.0;" x1="327" x2="327" y1="118.1973" y2="611.9746"/><text fill="#000000" font-family="Arial" font-size="14" lengthAdjust="spacing" textLength="42" x="71" y="115.2305">GDA 1</text><ellipse cx="95" cy="50.5986" fill="#156082" fill-opacity="0.50196" rx="8" ry="8" style="stroke:#181818;stroke-width:0.5;"/><path d="M95,58.5986 L95,85.5986 M82,66.5986 L108,66.5986 M95,85.5986 L82,100.5986 M95,85.5986 L108,100.5986 " fill="none" style="stroke:#181818;stroke-width:0.5;"/><text fill="#000000" font-family="Arial" font-size="14" lengthAdjust="spacing" textLength="42" x="71" y="624.1064">GDA 1</text><ellipse cx="95" cy="635.5732" fill="#156082" fill-opacity="0.50196" rx="8" ry="8" style="stroke:#181818;stroke-width:0.5;"/><path d="M95,643.5732 L95,670.5732 M82,651.5732 L108,651.5732 M95,670.5732 L82,685.5732 M95,670.5732 L108,685.5732 " fill="none" style="stroke:#181818;stroke-width:0.5;"/><rect fill="#E97232" fill-opacity="0.74118" height="30.0986" rx="5" ry="5" style="stroke:#555555;stroke-width:0.5;" width="76" x="289" y="87.0986"/><text fill="#000000" font-family="Arial" font-size="14" lengthAdjust="spacing" textLength="62" x="296" y="107.2305">e-Med FA</text><rect fill="#E97232" fill-opacity="0.74118" height="30.0986" rx="5" ry="5" style="stroke:#555555;stroke-width:0.5;" width="76" x="289" y="610.9746"/><text fill="#000000" font-family="Arial" font-size="14" lengthAdjust="spacing" textLength="62" x="296" y="631.1064">e-Med FA</text><rect fill="#156082" fill-opacity="0.50196" height="395.231" style="stroke:#181818;stroke-width:1.0;" width="10" x="90" y="149.146"/><rect fill="#E97232" fill-opacity="0.74118" height="395.231" style="stroke:#181818;stroke-width:1.0;" width="10" x="322" y="149.146"/><polygon fill="#111827" points="310,145.146,320,149.146,310,153.146,314,149.146" style="stroke:#111827;stroke-width:1.0;"/><line style="stroke:#111827;stroke-width:1.0;" x1="100" x2="316" y1="149.146" y2="149.146"/><text fill="#000000" font-family="Arial" font-size="13" font-weight="bold" lengthAdjust="spacing" textLength="7" x="107" y="144.3911">1</text><text fill="#000000" font-family="Arial" font-size="13" lengthAdjust="spacing" textLength="99" x="118" y="144.3911">POST $plan-read</text><path d="M5,167.146 L5,196.146 A5,5 0 0 0 10,201.146 L181,201.146 A5,5 0 0 0 186,196.146 L186,172.146 L176,162.146 L10,162.146 A5,5 0 0 0 5,167.146 " fill="url(#g60f24w2s3f1q0)" style="stroke:#8B95A5;stroke-width:1.0;"/><path d="M176,162.146 L176,169.646 A2.5,2.5 0 0 0 178.5,172.146 L186,172.146 L176,162.146 " fill="url(#g60f24w2s3f1q0)" style="stroke:#8B95A5;stroke-width:1.0;"/><text fill="#111827" font-family="Arial" font-size="13" lengthAdjust="spacing" textLength="160" x="11" y="179.3398">Abruf des Medikationsplans</text><text fill="#111827" font-family="Arial" font-size="13" lengthAdjust="spacing" textLength="91" x="11" y="194.2886">zur Bearbeitung</text><line style="stroke:#111827;stroke-width:1.0;" x1="332" x2="374" y1="242.9409" y2="242.9409"/><line style="stroke:#111827;stroke-width:1.0;" x1="374" x2="374" y1="242.9409" y2="255.9409"/><line style="stroke:#111827;stroke-width:1.0;" x1="333" x2="374" y1="255.9409" y2="255.9409"/><polygon fill="#111827" points="343,251.9409,333,255.9409,343,259.9409,339,255.9409" style="stroke:#111827;stroke-width:1.0;"/><text fill="#000000" font-family="Arial" font-size="13" font-weight="bold" lengthAdjust="spacing" textLength="7" x="339" y="230.7117">2</text><text fill="#000000" font-family="Arial" font-size="13" lengthAdjust="spacing" textLength="91" x="350" y="223.2373">Existiert bereits</text><text fill="#000000" font-family="Arial" font-size="13" lengthAdjust="spacing" textLength="122" x="350" y="238.186">ein Medikationsplan?</text><line style="stroke:#111827;stroke-width:1.0;" x1="332" x2="374" y1="323.7871" y2="323.7871"/><line style="stroke:#111827;stroke-width:1.0;" x1="374" x2="374" y1="323.7871" y2="336.7871"/><line style="stroke:#111827;stroke-width:1.0;" x1="333" x2="374" y1="336.7871" y2="336.7871"/><polygon fill="#111827" points="343,332.7871,333,336.7871,343,340.7871,339,336.7871" style="stroke:#111827;stroke-width:1.0;"/><text fill="#000000" font-family="Arial" font-size="13" font-weight="bold" lengthAdjust="spacing" textLength="7" x="339" y="311.5579">3</text><text fill="#000000" font-family="Arial" font-size="13" lengthAdjust="spacing" textLength="182" x="350" y="304.0835">Erzeugt leeren Medikationsplan</text><text fill="#000000" font-family="Arial" font-size="13" lengthAdjust="spacing" textLength="211" x="354" y="319.0322">mit List.emptyReason = "notstarted"</text><line style="stroke:#111827;stroke-width:1.0;" x1="332" x2="374" y1="365.7358" y2="365.7358"/><line style="stroke:#111827;stroke-width:1.0;" x1="374" x2="374" y1="365.7358" y2="378.7358"/><line style="stroke:#111827;stroke-width:1.0;" x1="333" x2="374" y1="378.7358" y2="378.7358"/><polygon fill="#111827" points="343,374.7358,333,378.7358,343,382.7358,339,378.7358" style="stroke:#111827;stroke-width:1.0;"/><text fill="#000000" font-family="Arial" font-size="13" font-weight="bold" lengthAdjust="spacing" textLength="7" x="339" y="360.981">4</text><text fill="#000000" font-family="Arial" font-size="13" lengthAdjust="spacing" textLength="157" x="350" y="360.981">Persistiert Medikationsplan</text><line style="stroke:#111827;stroke-width:1.0;" x1="332" x2="374" y1="422.6333" y2="422.6333"/><line style="stroke:#111827;stroke-width:1.0;" x1="374" x2="374" y1="422.6333" y2="435.6333"/><line style="stroke:#111827;stroke-width:1.0;" x1="333" x2="374" y1="435.6333" y2="435.6333"/><polygon fill="#111827" points="343,431.6333,333,435.6333,343,439.6333,339,435.6333" style="stroke:#111827;stroke-width:1.0;"/><text fill="#000000" font-family="Arial" font-size="13" font-weight="bold" lengthAdjust="spacing" textLength="7" x="339" y="410.4041">5</text><text fill="#000000" font-family="Arial" font-size="13" lengthAdjust="spacing" textLength="131" x="350" y="402.9297">Erzeugt Auslieferungs-</text><text fill="#000000" font-family="Arial" font-size="13" lengthAdjust="spacing" textLength="101" x="350" y="417.8784">Collection Bundle</text><path d="M255,453.6333 L255,482.6333 A5,5 0 0 0 260,487.6333 L393,487.6333 A5,5 0 0 0 398,482.6333 L398,458.6333 L388,448.6333 L260,448.6333 A5,5 0 0 0 255,453.6333 " fill="url(#g60f24w2s3f1q0)" style="stroke:#8B95A5;stroke-width:1.0;"/><path d="M388,448.6333 L388,456.1333 A2.5,2.5 0 0 0 390.5,458.6333 L398,458.6333 L388,448.6333 " fill="url(#g60f24w2s3f1q0)" style="stroke:#8B95A5;stroke-width:1.0;"/><text fill="#111827" font-family="Arial" font-size="13" lengthAdjust="spacing" textLength="122" x="261" y="465.8271">Keine Transformation</text><text fill="#111827" font-family="Arial" font-size="13" lengthAdjust="spacing" textLength="62" x="261" y="480.7759">notwendig.</text><polygon fill="#111827" points="106,540.377,96,544.377,106,548.377,102,544.377" style="stroke:#111827;stroke-width:1.0;"/><line style="stroke:#111827;stroke-width:1.0;" x1="100" x2="326" y1="544.377" y2="544.377"/><text fill="#000000" font-family="Arial" font-size="13" font-weight="bold" lengthAdjust="spacing" textLength="7" x="112" y="524.6733">6</text><text fill="#000000" font-family="Arial" font-size="13" lengthAdjust="spacing" textLength="183" x="123" y="509.7246">Auslieferungs-Collection Bundle</text><text fill="#000000" font-family="Arial" font-size="13" lengthAdjust="spacing" textLength="187" x="123" y="524.6733">(List.emptyReason = notstarted)</text><text fill="#000000" font-family="Arial" font-size="13" lengthAdjust="spacing" textLength="42" x="123" y="539.6221">+ ETag</text><path d="M246,577.0259 L246,591.0259 A5,5 0 0 0 251,596.0259 L403,596.0259 A5,5 0 0 0 408,591.0259 L408,582.0259 L398,572.0259 L251,572.0259 A5,5 0 0 0 246,577.0259 " fill="url(#g60f24w2s3f1q0)" style="stroke:#8B95A5;stroke-width:1.0;"/><path d="M398,572.0259 L398,579.5259 A2.5,2.5 0 0 0 400.5,582.0259 L408,582.0259 L398,572.0259 " fill="url(#g60f24w2s3f1q0)" style="stroke:#8B95A5;stroke-width:1.0;"/><text fill="#111827" font-family="Arial" font-size="13" lengthAdjust="spacing" textLength="141" x="252" y="589.2197">Siehe Ablauf Plan-Read.</text><!--SRC=[XLNRZX9147tlhoZ1H8t1p0m2EoPg1dTstNY10BuOaar35so7eGUxUzoByT-j6M3fkQZD2rIVEdNgqeMLDa6uKj9AdaWZKMTg3G8DV44XDzpAL9bTmfK1nfwPZLGxhlaM-DAcUchloPdVeactoDZfTf5gWVf3cgGQsbvnt5k-tAnrcYbnGAnw-ST1c1ikqbj9IbOyCUZS7DoqGWs-IofmnRF4NgJAVkLRX5QaAQEMgzc1JEK3Wl-wsVzlkZ_Uxr0dKcqSG1mt0RufKNp1clvXUZVcGkIf1LxPFdIBrYkEMrELMeHV361OBHzws5jvdRRmHOZz7E4odIt27kyzMcStShbHQ0puP9iuvVJezr5RpkAKmlVzis10jccbCRzTXGP_PAYMUvLZhgrSoXrNjYcnCg0s4CKfW-gTgLqVkrgwSCeD46cTtbQJAepbkXIcfeYF5_jONJ9Tal9TAST7vlrLhL-u2ehi7CzJ-20lwXCQntnyFem-ZoRNb-VHjGzqsdwlxvq5Pru382W0OR_l3SvhW74qkug_pdA6i3yCNjS0qNW4nMbx5s5ytWkhWFXBV7vz4H40mq7G3HQY2hYUnD_ZyGpQIz4TT0CULjCOVO9IZA1NfPXCHfC248S3lnjqwG4KYmRs5U06MlGD_9PR6BOxDHkGrbOkCuTYXtx0HTGgfq2ScKrLjbsWPcpFt7btz7m3uz5q1a_pdTVHo4MkGFxazFZsK3SoAnvb-XCF2bcqqDcgSNsoXqp34BbUeBIqOnagKRnfTWfm55-MUxIw6kCxQImjQmkK116QkKAfga7V4tTYJzNVD620LfOvaZ4QoiPm-W6pjOK4ALgDOgvWAory9fPNkDtP-mboaofu2orAq5Xg3uhMNwZ7JlWAx__KH9b99AwAlopJcIjwNWakStSOqcjBaFnF3Jgua-qJvYCtqzILLQgtHS0zz9QQ8jUlyhZ7xfGa54r-KmbS2pjNpnjgSIh5Yxbw2V6Chu7O1LRRpnX3sgsbD_7FfZLdEPLuWn0j4auJESwdcQI8KcxC2NuOw3y0]--></g></svg>