<svg xmlns="http://www.w3.org/2000/svg" xmlns:xlink="http://www.w3.org/1999/xlink" version="1.1" data-diagram-type="SEQUENCE" style="width:617px;height:617px;background:#F5F5F5;" width="617px" height="617px" viewBox="0 0 617 617" zoomAndPan="magnify" preserveAspectRatio="none" contentStyleType="text/css"><?plantuml 1.2026.7beta8?><defs><linearGradient x1="50%" y1="0%" x2="50%" y2="100%" id="gr2d6ftoioef20"><stop stop-color="#E0E5F0" offset="0%"/><stop stop-color="#D1D9E6" offset="100%"/></linearGradient></defs><g font-family="sans-serif" lengthAdjust="spacing"><rect x="0" y="0" width="617" height="617" fill="#F5F5F5" style="stroke:none;"/><g class="title" data-source-line="1"><text x="203.87" y="27.995" fill="#000" font-size="14" textLength="207.614" font-weight="700" font-family="'Arial'">Medikationsplaneintrag in</text><text x="195.722" y="44.292" fill="#000" font-size="14" textLength="223.911" font-weight="700" font-family="'Arial'">Medikationsplan hinzufügen</text></g><g><title>GDA 1</title><rect x="172.227" y="139.891" width="8" height="390.07" fill="#000" fill-opacity="0"/><line x1="175.727" y1="139.891" x2="175.727" y2="529.961" style="stroke:#181818;stroke-width:0.5;stroke-dasharray:5,5;"/></g><g><title></title><rect x="170.727" y="192.188" width="10" height="337.773" fill="#156082" fill-opacity="0.502" style="stroke:#181818;stroke-width:1;"/></g><g><title>e-Med FA</title><rect x="463.187" y="139.891" width="8" height="390.07" fill="#000" fill-opacity="0"/><line x1="466.687" y1="139.891" x2="466.687" y2="529.961" style="stroke:#181818;stroke-width:0.5;stroke-dasharray:5,5;"/></g><text x="150.445" y="136.589" fill="#000" font-size="14" textLength="44.563" font-family="'Arial'">GDA 1</text><ellipse cx="175.727" cy="72.094" rx="8" ry="8" fill="#156082" fill-opacity="0.502" style="stroke:#181818;stroke-width:0.5;"/><path d="M175.727,80.094 L175.727,107.094 M162.727,88.094 L188.727,88.094 M175.727,107.094 L162.727,122.094 M175.727,107.094 L188.727,122.094" style="stroke:#181818;stroke-width:0.5;" fill="none"/><rect x="427.024" y="108.594" width="79.324" height="30.297" fill="#E97232" fill-opacity="0.741" style="stroke:#555;stroke-width:0.5;" rx="5" ry="5"/><text x="434.024" y="128.589" fill="#000" font-size="14" textLength="65.324" font-family="'Arial'">e-Med FA</text><text x="150.445" y="542.956" fill="#000" font-size="14" textLength="44.563" font-family="'Arial'">GDA 1</text><ellipse cx="175.727" cy="554.758" rx="8" ry="8" fill="#156082" fill-opacity="0.502" style="stroke:#181818;stroke-width:0.5;"/><path d="M175.727,562.758 L175.727,589.758 M162.727,570.758 L188.727,570.758 M175.727,589.758 L162.727,604.758 M175.727,589.758 L188.727,604.758" style="stroke:#181818;stroke-width:0.5;" fill="none"/><rect x="427.024" y="529.961" width="79.324" height="30.297" fill="#E97232" fill-opacity="0.741" style="stroke:#555;stroke-width:0.5;" rx="5" ry="5"/><text x="434.024" y="549.956" fill="#000" font-size="14" textLength="65.324" font-family="'Arial'">e-Med FA</text><rect x="10" y="169.039" width="596.354" height="3" fill="#EEE" style="stroke:#EEE;stroke-width:1;" rx="5" ry="5"/><line x1="10" y1="169.039" x2="606.354" y2="169.039" style="stroke:#000;stroke-width:1;"/><line x1="10" y1="172.039" x2="606.354" y2="172.039" style="stroke:#000;stroke-width:1;"/><rect x="200.033" y="157.891" width="216.289" height="24.297" fill="#EEE" style="stroke:#000;stroke-width:2;" rx="5" ry="5"/><text x="206.033" y="174.886" fill="#000" font-size="14" textLength="197.415" font-weight="700" font-family="'Arial'">Medikationsplan abrufen</text><rect x="152.445" y="192.188" width="351.904" height="42.594" fill="none" style="stroke:#000;stroke-width:1.5;" rx="5" ry="5"/><path d="M157.445,192.188 L219.445,192.188 L219.445,200.188 L209.445,210.188 L152.445,210.188 L152.445,197.188 A5,5 0 0 1 157.445,192.188" style="stroke:#000;stroke-width:2;" fill="#EEE"/><text x="165.445" y="207.183" fill="#000" font-size="14" textLength="22.49" font-weight="700" font-family="'Arial'">ref</text><a target="_top" href="interactions.html#sequenzdiagramm-plan-read" xlink:href="interactions.html#sequenzdiagramm-plan-read" xlink:type="simple" xlink:actuate="onRequest" xlink:show="new" title="interactions.html#sequenzdiagramm-plan-read" xlink:title="interactions.html#sequenzdiagramm-plan-read"><text x="293.075" y="227.183" fill="#00E" font-size="14" textLength="70.643" font-family="'Arial'">Plan-Read</text></a><path d="M15,249.781 L15,281.781 A5,5 0 0 0 20,286.781 L331,286.781 A5,5 0 0 0 336,281.781 L336,254.781 L326,244.781 L20,244.781 A5,5 0 0 0 15,249.781" style="stroke:#8B95A5;stroke-width:1;" fill="url(#gr2d6ftoioef20)"/><path d="M326,244.781 L326,252.281 A2.5,2.5 0 0 0 328.5,254.781 L336,254.781 L326,244.781" style="stroke:#8B95A5;stroke-width:1;" fill="url(#gr2d6ftoioef20)"/><text x="21" y="262.776" fill="#111827" font-size="14" textLength="296.003" font-family="'Arial'">GDA erhält den aktuellen Medikationsplan</text><text x="21" y="279.073" fill="#111827" font-size="14" textLength="171.131" font-family="'Arial'">im Auslieferungs-Bundle</text><rect x="10" y="313.523" width="596.354" height="3" fill="#EEE" style="stroke:#EEE;stroke-width:1;" rx="5" ry="5"/><line x1="10" y1="313.523" x2="606.354" y2="313.523" style="stroke:#000;stroke-width:1;"/><line x1="10" y1="316.523" x2="606.354" y2="316.523" style="stroke:#000;stroke-width:1;"/><rect x="111.904" y="302.375" width="392.547" height="24.297" fill="#EEE" style="stroke:#000;stroke-width:2;" rx="5" ry="5"/><text x="117.904" y="319.37" fill="#000" font-size="14" textLength="373.673" font-weight="700" font-family="'Arial'">Medikationsplan bearbeiten und und schreiben</text><line x1="180.727" y1="357.805" x2="222.727" y2="357.805" style="stroke:#111827;stroke-width:1;"/><line x1="222.727" y1="357.805" x2="222.727" y2="370.805" style="stroke:#111827;stroke-width:1;"/><line x1="181.727" y1="370.805" x2="222.727" y2="370.805" style="stroke:#111827;stroke-width:1;"/><polygon points="191.727,366.805,181.727,370.805,191.727,374.805,187.727,370.805" fill="#111827" style="stroke:#111827;stroke-width:1;stroke-linejoin:miter;stroke-miterlimit:10;"/><text x="187.727" y="352.739" fill="#000" font-size="13" font-weight="700" font-family="'Arial'">1</text><text x="200.772" y="352.739" fill="#000" font-size="13" textLength="181.302" font-family="'Arial'">Neuen Planeintrag erstellen</text><line x1="180.727" y1="415.07" x2="222.727" y2="415.07" style="stroke:#111827;stroke-width:1;"/><line x1="222.727" y1="415.07" x2="222.727" y2="428.07" style="stroke:#111827;stroke-width:1;"/><line x1="181.727" y1="428.07" x2="222.727" y2="428.07" style="stroke:#111827;stroke-width:1;"/><polygon points="191.727,424.07,181.727,428.07,191.727,432.07,187.727,428.07" fill="#111827" style="stroke:#111827;stroke-width:1;stroke-linejoin:miter;stroke-miterlimit:10;"/><text x="187.727" y="402.438" fill="#000" font-size="13" font-weight="700" font-family="'Arial'">2</text><text x="200.772" y="394.872" fill="#000" font-size="13" textLength="193.572" font-family="'Arial'">Planeintrag mit List.entry.flag</text><text x="200.772" y="410.004" fill="#000" font-size="13" textLength="258.915" font-family="'Arial'">"new" dem Medikationsplan hinzufügen</text><rect x="152.445" y="436.07" width="351.904" height="42.594" fill="none" style="stroke:#000;stroke-width:1.5;" rx="5" ry="5"/><path d="M157.445,436.07 L219.445,436.07 L219.445,444.07 L209.445,454.07 L152.445,454.07 L152.445,441.07 A5,5 0 0 1 157.445,436.07" style="stroke:#000;stroke-width:2;" fill="#EEE"/><text x="165.445" y="451.065" fill="#000" font-size="14" textLength="22.49" font-weight="700" font-family="'Arial'">ref</text><a target="_top" href="interactions.html#plan-write" xlink:href="interactions.html#plan-write" xlink:type="simple" xlink:actuate="onRequest" xlink:show="new" title="interactions.html#plan-write" xlink:title="interactions.html#plan-write"><text x="292.183" y="471.065" fill="#00E" font-size="14" textLength="72.427" font-family="'Arial'">Plan-Write</text></a><path d="M332.019,493.664 L332.019,509.664 A5,5 0 0 0 337.019,514.664 L596.019,514.664 A5,5 0 0 0 601.019,509.664 L601.019,498.664 L591.019,488.664 L337.019,488.664 A5,5 0 0 0 332.019,493.664" style="stroke:#8B95A5;stroke-width:1;" fill="url(#gr2d6ftoioef20)"/><path d="M591.019,488.664 L591.019,496.164 A2.5,2.5 0 0 0 593.519,498.664 L601.019,498.664 L591.019,488.664" style="stroke:#8B95A5;stroke-width:1;" fill="url(#gr2d6ftoioef20)"/><text x="338.019" y="506.659" fill="#111827" font-size="14" textLength="248.336" font-family="'Arial'">Neuer Medikationsplan gespeichert</text><?plantuml-src bLLTRzem57tthxY3XxsCAWdb8vMO12NjfhK5KQP9Qola93TWaJZCSShQQVzcFsDl_MDp70hvO9DcXEJudjnxph5z8vaC4QxHPsigMSoJJKWvCYu5NGBZzxmIWXNZpsdmydk9d92toPhn3HKq0kh9MDpA9vMDRZ698oJa47LZuQCuZyDOGDFGenYbtdefufJxEqJGoNu5HBAYVhnbV0a13HCiH7Ql2Ou2p69I7mEQXl8YvlA6HWYDeM0qR1n7tB9d1FFqUF1lj3yyRL24ZAyB0CSv1lZCVJt16lrH_7rAVJzJPXdbzL7HiuuUHKjvB15-481HrJqqi1COhQPl-ZPsCqGnKz-rExIpNvslcBVcc2HWghLPmKr3FRzoox8Kh31Dis_rrDfjPLz-5Xac-2r5xkKifrH8vh4DvVAOi3AWTXxqA8FgErCBl-vgAL2m6s0eHBojYjABPL_qqh6A-q1UgwsMBXNpJKdZFdCUgkqN1fPMLtZpKDxAJ7sZZcDsVCudLvFPud8yN9YWHjFiT8s-rJUE02mDiBjTepUk0QR3-KVdPfvbiBiZwxG664ude4VJkB2TSSUk0fnhPxou62e0sZshRRb-5R2OEL-TwHoQdj_kjIrgLsLCFa6fXjMfffZD9ZCDSEoUsRRQwWBeFWEv0pI1Xfg1sIWQGpQ7pGPK_IkZcK6nfHxWOjWeIr0vKndpD79H409aCAZsGw2kI0FaC1Xe0koHghkNSoWM9W83Y1znn-_TllePtDsfdeeYUrabFLd9A6pcz-FPPtIfhalKoagr158VfjbifcOF3uJeYtx8IZB5A5OllqAfkfGYjvOfXg6QLMaJ5i4mJKA60OgKBvFMI9qwrQ49Sbyt479ChOjKkCYaogZW-fzuAu7CtLcGAs-zpmcTmGqg7PhqwvS3HI8rfngsY8gOX2kMo1DKpqydGKYNzxp1STjGmYBuvwVd_wpMrcw5qfHx-oMRbitT9I2P656hlSHaWynReP1xy_u0?></g></svg>