<svg xmlns="http://www.w3.org/2000/svg" xmlns:xlink="http://www.w3.org/1999/xlink" contentStyleType="text/css" data-diagram-type="SEQUENCE" height="961px" preserveAspectRatio="none" style="width:930px;height:961px;background:#F5F5F5;" version="1.1" viewBox="0 0 930 961" width="930px" zoomAndPan="magnify"><?plantuml 1.2026.7beta1?><defs><linearGradient id="g14ir6ipkdrxaz0" x1="50%" x2="50%" y1="0%" y2="100%"><stop offset="0%" stop-color="#E0E5F0"/><stop offset="100%" stop-color="#D1D9E6"/></linearGradient><filter height="300%" id="f14ir6ipkdrxaz" width="300%" x="-1" y="-1"><feGaussianBlur result="blurOut" stdDeviation="2"/><feColorMatrix in="blurOut" result="blurOut2" type="matrix" values="0 0 0 0 0 0 0 0 0 0 0 0 0 0 0 0 0 0 .4 0"/><feOffset dx="4" dy="4" in="blurOut2" result="blurOut3"/><feBlend in="SourceGraphic" in2="blurOut3" mode="normal"/></filter></defs><g><rect fill="#F5F5F5" height="961" style="stroke:none;stroke-width:1;" width="930" x="0" y="0"/><g class="title" data-source-line="1"><text fill="#000000" font-family="'Arial'" font-size="14" font-weight="700" lengthAdjust="spacing" textLength="539.0137" x="192.2502" y="27.9951">Geplante Abgabe f&#252;r bestehende Medikationsplaneintr&#228;ge erstellen</text><text fill="#000000" font-family="'Arial'" font-size="14" font-weight="700" lengthAdjust="spacing" textLength="497.6836" x="212.9153" y="44.292">Variante A: Vorab-Ermittlung des GroupIdentifiers (Normalfall)</text></g><rect fill="#9FBAC4" height="895.1641" rx="5" ry="5" style="stroke:#181818;stroke-width:0.5;" width="74.0586" x="140" y="59.5938"/><text fill="#000000" font-family="'Arial'" font-size="14" font-weight="700" lengthAdjust="spacing" textLength="4.874" x="143" y="72.5889">&#160;</text><text fill="#000000" font-family="'Arial'" font-size="14" font-weight="700" lengthAdjust="spacing" textLength="48.5625" x="152.748" y="88.8857">GDA 1</text><rect fill="#C48778" height="895.1641" rx="5" ry="5" style="stroke:#181818;stroke-width:0.5;" width="256.9268" x="372.4536" y="59.5938"/><text fill="#000000" font-family="'Arial'" font-size="14" font-weight="700" lengthAdjust="spacing" textLength="4.874" x="375.4536" y="72.5889">&#160;</text><text fill="#000000" font-family="'Arial'" font-size="14" font-weight="700" lengthAdjust="spacing" textLength="182.6904" x="409.5718" y="88.8857">e-Med Fachanwendung</text><rect fill="#CBB272" height="895.1641" rx="5" ry="5" style="stroke:#181818;stroke-width:0.5;" width="105.1826" x="798.3315" y="59.5938"/><text fill="#000000" font-family="'Arial'" font-size="14" font-weight="700" lengthAdjust="spacing" textLength="4.874" x="801.3315" y="72.5889">&#160;</text><text fill="#000000" font-family="'Arial'" font-size="14" font-weight="700" lengthAdjust="spacing" textLength="69.9385" x="820.8276" y="88.8857">e-Rezept</text><g><title>GDA 1</title><rect fill="#FFFFFF" height="683.9766" style="stroke:#181818;stroke-width:1;" width="10" x="172.0293" y="182.4844"/></g><g><title>e-Med FA</title><rect fill="#FFFFFF" height="126.8594" style="stroke:#181818;stroke-width:1;" width="10" x="495.917" y="395.3984"/></g><g><title>e-Med FA</title><rect fill="#FFFFFF" height="140.0234" style="stroke:#181818;stroke-width:1;" width="10" x="495.917" y="726.4375"/></g><g><title>e-Rezept</title><rect fill="#FFFFFF" height="29.1328" style="stroke:#181818;stroke-width:1;" width="10" x="845.9229" y="649.875"/></g><rect fill="none" height="249.3125" rx="5" ry="5" style="stroke:#111827;stroke-width:2;" width="890.0947" x="9" y="609.1484"/><g class="participant-lifeline" data-entity-uid="part1" data-qualified-name="GDA_1" data-source-line="43" id="part1-lifeline"><g><title>GDA 1</title><rect fill="#000000" fill-opacity="0.00000" height="702.9766" width="8" x="173.0293" y="172.4844"/><line style="stroke:#181818;stroke-width:0.5;stroke-dasharray:5,5;" x1="176.7476" x2="176.7476" y1="172.4844" y2="875.4609"/></g></g><g class="participant-lifeline" data-entity-uid="part2" data-qualified-name="eMed_FA" data-source-line="47" id="part2-lifeline"><g><title>e-Med FA</title><rect fill="#000000" fill-opacity="0.00000" height="702.9766" width="8" x="496.917" y="172.4844"/><line style="stroke:#181818;stroke-width:0.5;stroke-dasharray:5,5;" x1="500.2549" x2="500.2549" y1="172.4844" y2="875.4609"/></g></g><g class="participant-lifeline" data-entity-uid="part3" data-qualified-name="e_Rezept" data-source-line="51" id="part3-lifeline"><g><title>e-Rezept</title><rect fill="#000000" fill-opacity="0.00000" height="702.9766" width="8" x="846.9229" y="172.4844"/><line style="stroke:#181818;stroke-width:0.5;stroke-dasharray:5,5;" x1="850.751" x2="850.751" y1="172.4844" y2="875.4609"/></g></g><g class="participant participant-head" data-entity-uid="part1" data-qualified-name="GDA_1" data-source-line="43" id="part1-head"><text fill="#000000" font-family="'Arial'" font-size="14" lengthAdjust="spacing" textLength="44.5635" x="151.7476" y="169.1826">GDA 1</text><ellipse cx="177.0293" cy="104.6875" fill="#E2E2F0" rx="8" ry="8" style="stroke:#181818;stroke-width:0.5;"/><path d="M177.0293,112.6875 L177.0293,139.6875 M164.0293,120.6875 L190.0293,120.6875 M177.0293,139.6875 L164.0293,154.6875 M177.0293,139.6875 L190.0293,154.6875" fill="none" style="stroke:#181818;stroke-width:0.5;"/></g><g class="participant participant-tail" data-entity-uid="part1" data-qualified-name="GDA_1" data-source-line="43" id="part1-tail"><text fill="#000000" font-family="'Arial'" font-size="14" lengthAdjust="spacing" textLength="44.5635" x="151.7476" y="887.4561">GDA 1</text><ellipse cx="177.0293" cy="899.2578" fill="#E2E2F0" rx="8" ry="8" style="stroke:#181818;stroke-width:0.5;"/><path d="M177.0293,907.2578 L177.0293,934.2578 M164.0293,915.2578 L190.0293,915.2578 M177.0293,934.2578 L164.0293,949.2578 M177.0293,934.2578 L190.0293,949.2578" fill="none" style="stroke:#181818;stroke-width:0.5;"/></g><g class="participant participant-head" data-entity-uid="part2" data-qualified-name="eMed_FA" data-source-line="47" id="part2-head"><rect fill="#FFFFFF" height="30.2969" rx="5" ry="5" style="stroke:#555555;stroke-width:0.5;" width="79.3242" x="461.2549" y="141.1875"/><text fill="#000000" font-family="'Arial'" font-size="14" lengthAdjust="spacing" textLength="65.3242" x="468.2549" y="161.1826">e-Med FA</text></g><g class="participant participant-tail" data-entity-uid="part2" data-qualified-name="eMed_FA" data-source-line="47" id="part2-tail"><rect fill="#FFFFFF" height="30.2969" rx="5" ry="5" style="stroke:#555555;stroke-width:0.5;" width="79.3242" x="461.2549" y="874.4609"/><text fill="#000000" font-family="'Arial'" font-size="14" lengthAdjust="spacing" textLength="65.3242" x="468.2549" y="894.4561">e-Med FA</text></g><g class="participant participant-head" data-entity-uid="part3" data-qualified-name="e_Rezept" data-source-line="51" id="part3-head"><rect fill="#FFFFFF" height="30.2969" rx="5" ry="5" style="stroke:#555555;stroke-width:0.5;" width="76.3438" x="812.751" y="141.1875"/><text fill="#000000" font-family="'Arial'" font-size="14" lengthAdjust="spacing" textLength="62.3438" x="819.751" y="161.1826">e-Rezept</text></g><g class="participant participant-tail" data-entity-uid="part3" data-qualified-name="e_Rezept" data-source-line="51" id="part3-tail"><rect fill="#FFFFFF" height="30.2969" rx="5" ry="5" style="stroke:#555555;stroke-width:0.5;" width="76.3438" x="812.751" y="874.4609"/><text fill="#000000" font-family="'Arial'" font-size="14" lengthAdjust="spacing" textLength="62.3438" x="819.751" y="894.4561">e-Rezept</text></g><g><title>GDA 1</title><rect fill="#FFFFFF" height="683.9766" style="stroke:#181818;stroke-width:1;" width="10" x="172.0293" y="182.4844"/></g><g><title>e-Med FA</title><rect fill="#FFFFFF" height="126.8594" style="stroke:#181818;stroke-width:1;" width="10" x="495.917" y="395.3984"/></g><g><title>e-Med FA</title><rect fill="#FFFFFF" height="140.0234" style="stroke:#181818;stroke-width:1;" width="10" x="495.917" y="726.4375"/></g><g><title>e-Rezept</title><rect fill="#FFFFFF" height="29.1328" style="stroke:#181818;stroke-width:1;" width="10" x="845.9229" y="649.875"/></g><rect fill="#EEEEEE" height="3" rx="5" ry="5" style="stroke:#EEEEEE;stroke-width:1;" width="924.5142" x="0" y="203.6328"/><line style="stroke:#000000;stroke-width:1;" x1="0" x2="924.5142" y1="203.6328" y2="203.6328"/><line style="stroke:#000000;stroke-width:1;" x1="0" x2="924.5142" y1="206.6328" y2="206.6328"/><rect fill="#EEEEEE" height="24.2969" rx="5" ry="5" style="stroke:#000000;stroke-width:2;" width="216.2891" x="354.1125" y="192.4844"/><text fill="#000000" font-family="'Arial'" font-size="14" font-weight="700" lengthAdjust="spacing" textLength="197.415" x="360.1125" y="209.4795">Medikationsplan abrufen</text><rect fill="none" height="42.5938" rx="5" ry="5" style="stroke:#000000;stroke-width:1.5;" width="394.8315" x="148.7476" y="226.7813"/><path d="M153.7476,226.7813 L215.7476,226.7813 L215.7476,234.7813 L205.7476,244.7813 L148.7476,244.7813 L148.7476,231.7813 A5,5 0 0 1 153.7476,226.7813" fill="#EEEEEE" style="stroke:#000000;stroke-width:2;"/><text fill="#000000" font-family="'Arial'" font-size="14" font-weight="700" lengthAdjust="spacing" textLength="22.4902" x="161.7476" y="241.7764">ref</text><a href="interactions.html#sequenzdiagramm-plan-read" target="_top" title="interactions.html#sequenzdiagramm-plan-read" xlink:actuate="onRequest" xlink:href="interactions.html#sequenzdiagramm-plan-read" xlink:show="new" xlink:title="interactions.html#sequenzdiagramm-plan-read" xlink:type="simple"><text fill="#0000EE" font-family="'Arial'" font-size="14" lengthAdjust="spacing" textLength="70.6426" x="310.842" y="261.7764">Plan-Read</text></a><path d="M47,284.375 L47,316.375 A5,5 0 0 0 52,321.375 L297,321.375 A5,5 0 0 0 302,316.375 L302,289.375 L292,279.375 L52,279.375 A5,5 0 0 0 47,284.375" fill="url(#g14ir6ipkdrxaz0)" filter="url(#f14ir6ipkdrxaz)" style="stroke:#8B95A5;stroke-width:1;"/><path d="M292,279.375 L292,286.875 A2.5,2.5 0 0 0 294.5,289.375 L302,289.375 L292,279.375" fill="url(#g14ir6ipkdrxaz0)" style="stroke:#8B95A5;stroke-width:1;"/><text fill="#111827" font-family="'Arial'" font-size="14" lengthAdjust="spacing" textLength="195.8018" x="53" y="297.3701">GDA erh&#228;lt Medikationsplan</text><text fill="#111827" font-family="'Arial'" font-size="14" lengthAdjust="spacing" textLength="234.377" x="53" y="313.667">(Auslieferungs-Collection-Bundle)</text><rect fill="#EEEEEE" height="3" rx="5" ry="5" style="stroke:#EEEEEE;stroke-width:1;" width="924.5142" x="0" y="351.1172"/><line style="stroke:#000000;stroke-width:1;" x1="0" x2="924.5142" y1="351.1172" y2="351.1172"/><line style="stroke:#000000;stroke-width:1;" x1="0" x2="924.5142" y1="354.1172" y2="354.1172"/><rect fill="#EEEEEE" height="24.2969" rx="5" ry="5" style="stroke:#000000;stroke-width:2;" width="379.3398" x="272.5872" y="339.9688"/><text fill="#000000" font-family="'Arial'" font-size="14" font-style="italic" font-weight="700" lengthAdjust="spacing" textLength="146.0908" x="278.5872" y="356.9639">Geplante Abgaben</text><text fill="#000000" font-family="'Arial'" font-size="14" font-weight="700" lengthAdjust="spacing" textLength="209.501" x="429.552" y="356.9639">vorbereiten und schreiben</text><g class="message" data-entity-1="part1" data-entity-2="part2" data-source-line="71" id="msg1"><polygon fill="#111827" points="483.917,391.3984,493.917,395.3984,483.917,399.3984,487.917,395.3984" style="stroke:#111827;stroke-width:1;stroke-linejoin:miter;stroke-miterlimit:10;"/><line style="stroke:#111827;stroke-width:1;" x1="182.0293" x2="489.917" y1="395.3984" y2="395.3984"/><text fill="#000000" font-family="'Arial'" font-size="13" font-weight="700" lengthAdjust="spacing" textLength="9.0454" x="189.0293" y="390.3325">1</text><text fill="#000000" font-family="'Arial'" font-size="13" lengthAdjust="spacing" textLength="189.2935" x="202.0747" y="390.3325">POST $groupidentifier-create&#8203;</text></g><path d="M12,413.3984 L12,445.3984 A5,5 0 0 0 17,450.3984 L333,450.3984 A5,5 0 0 0 338,445.3984 L338,418.3984 L328,408.3984 L17,408.3984 A5,5 0 0 0 12,413.3984" fill="url(#g14ir6ipkdrxaz0)" filter="url(#f14ir6ipkdrxaz)" style="stroke:#8B95A5;stroke-width:1;"/><path d="M328,408.3984 L328,415.8984 A2.5,2.5 0 0 0 330.5,418.3984 L338,418.3984 L328,408.3984" fill="url(#g14ir6ipkdrxaz0)" style="stroke:#8B95A5;stroke-width:1;"/><text fill="#111827" font-family="'Arial'" font-size="14" lengthAdjust="spacing" textLength="305.9287" x="18" y="426.3936">e-Med GroupIdentifier f&#252;r "Rezeptklammer"</text><text fill="#111827" font-family="'Arial'" font-size="14" lengthAdjust="spacing" textLength="68.8311" x="18" y="442.6904">anfordern</text><g class="message" data-entity-1="part2" data-entity-2="part2" data-source-line="79" id="msg2"><line style="stroke:#111827;stroke-width:1;" x1="505.917" x2="547.917" y1="480.125" y2="480.125"/><line style="stroke:#111827;stroke-width:1;" x1="547.917" x2="547.917" y1="480.125" y2="493.125"/><line style="stroke:#111827;stroke-width:1;" x1="506.917" x2="547.917" y1="493.125" y2="493.125"/><polygon fill="#111827" points="516.917,489.125,506.917,493.125,516.917,497.125,512.917,493.125" style="stroke:#111827;stroke-width:1;stroke-linejoin:miter;stroke-miterlimit:10;"/><text fill="#000000" font-family="'Arial'" font-size="13" font-weight="700" lengthAdjust="spacing" textLength="9.0454" x="512.917" y="475.0591">2</text><text fill="#000000" font-family="'Arial'" font-size="13" lengthAdjust="spacing" textLength="207.7397" x="525.9624" y="475.0591">e-Med GroupIdentifier erzeugen</text></g><g class="message" data-entity-1="part2" data-entity-2="part1" data-source-line="80" id="msg3"><line style="stroke:#111827;stroke-width:1;" x1="183.0293" x2="193.0293" y1="522.2578" y2="518.2578"/><line style="stroke:#111827;stroke-width:1;" x1="183.0293" x2="193.0293" y1="522.2578" y2="526.2578"/><line style="stroke:#111827;stroke-width:1;stroke-dasharray:2,2;" x1="182.0293" x2="499.917" y1="522.2578" y2="522.2578"/><text fill="#000000" font-family="'Arial'" font-size="13" font-weight="700" lengthAdjust="spacing" textLength="9.0454" x="199.0293" y="517.1919">3</text><text fill="#000000" font-family="'Arial'" font-size="13" lengthAdjust="spacing" textLength="142.7144" x="212.0747" y="517.1919">e-Med GroupIdentifier</text></g><path d="M17,540.2578 L17,588.2578 A5,5 0 0 0 22,593.2578 L329,593.2578 A5,5 0 0 0 334,588.2578 L334,545.2578 L324,535.2578 L22,535.2578 A5,5 0 0 0 17,540.2578" fill="url(#g14ir6ipkdrxaz0)" filter="url(#f14ir6ipkdrxaz)" style="stroke:#8B95A5;stroke-width:1;"/><path d="M324,535.2578 L324,542.7578 A2.5,2.5 0 0 0 326.5,545.2578 L334,545.2578 L324,535.2578" fill="url(#g14ir6ipkdrxaz0)" style="stroke:#8B95A5;stroke-width:1;"/><text fill="#111827" font-family="'Arial'" font-size="14" lengthAdjust="spacing" textLength="57.8799" x="23" y="553.2529">Erstellte</text><text fill="#111827" font-family="'Arial'" font-size="14" font-style="italic" lengthAdjust="spacing" textLength="130.5459" x="85.3301" y="553.2529">Geplante Abgaben</text><text fill="#111827" font-family="'Arial'" font-size="14" lengthAdjust="spacing" textLength="94.2471" x="220.3262" y="553.2529">referenzieren</text><text fill="#111827" font-family="'Arial'" font-size="14" lengthAdjust="spacing" textLength="287.0342" x="23" y="569.5498">zugeh&#246;rige Medikationsplaneintr&#228;ge und</text><text fill="#111827" font-family="'Arial'" font-size="14" lengthAdjust="spacing" textLength="225.4355" x="23" y="585.8467">enthalten e-Med GroupIdentifier</text><path d="M14,609.1484 L80.373,609.1484 L80.373,617.4453 L70.373,627.4453 L9,627.4453 L9,614.1484 A5,5 0 0 1 14,609.1484" fill="#EEF2FF" style="stroke:#111827;stroke-width:1.5;"/><rect fill="none" height="249.3125" rx="5" ry="5" style="stroke:#111827;stroke-width:2;" width="890.0947" x="9" y="609.1484"/><text fill="#000000" font-family="'Arial'" font-size="14" font-weight="700" lengthAdjust="spacing" textLength="26.373" x="24" y="623.1436">par</text><text fill="#000000" font-family="'Arial'" font-size="14" font-weight="700" lengthAdjust="spacing" textLength="168.1504" x="95.373" y="624.1436">[Erstellung e-Rezept]</text><g class="message" data-entity-1="part1" data-entity-2="part3" data-source-line="93" id="msg4"><line style="stroke:#111827;stroke-width:1;" x1="843.9229" x2="833.9229" y1="649.875" y2="645.875"/><line style="stroke:#111827;stroke-width:1;" x1="843.9229" x2="833.9229" y1="649.875" y2="653.875"/><line style="stroke:#111827;stroke-width:1;" x1="182.0293" x2="844.9229" y1="649.875" y2="649.875"/><text fill="#000000" font-family="'Arial'" font-size="13" font-weight="700" lengthAdjust="spacing" textLength="9.0454" x="189.0293" y="644.8091">4</text><text fill="#000000" font-family="'Arial'" font-size="13" lengthAdjust="spacing" textLength="169.5713" x="202.0747" y="644.8091">Trigger e-Rezept erstellen</text></g><g class="message" data-entity-1="part3" data-entity-2="part1" data-source-line="95" id="msg5"><line style="stroke:#111827;stroke-width:1;" x1="183.0293" x2="193.0293" y1="679.0078" y2="675.0078"/><line style="stroke:#111827;stroke-width:1;" x1="183.0293" x2="193.0293" y1="679.0078" y2="683.0078"/><line style="stroke:#111827;stroke-width:1;stroke-dasharray:2,2;" x1="182.0293" x2="849.9229" y1="679.0078" y2="679.0078"/><text fill="#000000" font-family="'Arial'" font-size="13" font-weight="700" lengthAdjust="spacing" textLength="9.0454" x="199.0293" y="673.9419">5</text><text fill="#000000" font-family="'Arial'" font-size="13" lengthAdjust="spacing" textLength="18.7573" x="212.0747" y="673.9419">OK</text></g><line style="stroke:#111827;stroke-width:1;stroke-dasharray:2,2;" x1="9" x2="899.0947" y1="688.0078" y2="688.0078"/><text fill="#000000" font-family="'Arial'" font-size="14" font-weight="700" lengthAdjust="spacing" textLength="192.6436" x="14" y="701.0029">[gleichzeitige Erstellung</text><text fill="#000000" font-family="'Arial'" font-size="14" font-style="italic" font-weight="700" lengthAdjust="spacing" textLength="136.124" x="211.5176" y="701.0029">Geplante Abgabe</text><text fill="#000000" font-family="'Arial'" font-size="14" font-weight="700" lengthAdjust="spacing" textLength="6.3984" x="347.6416" y="701.0029">]</text><g class="message" data-entity-1="part1" data-entity-2="part2" data-source-line="100" id="msg6"><line style="stroke:#111827;stroke-width:1;" x1="493.917" x2="483.917" y1="726.4375" y2="722.4375"/><line style="stroke:#111827;stroke-width:1;" x1="493.917" x2="483.917" y1="726.4375" y2="730.4375"/><line style="stroke:#111827;stroke-width:1;" x1="182.0293" x2="494.917" y1="726.4375" y2="726.4375"/><text fill="#000000" font-family="'Arial'" font-size="13" font-weight="700" lengthAdjust="spacing" textLength="9.0454" x="189.0293" y="721.3716">6</text><text fill="#000000" font-family="'Arial'" font-size="13" lengthAdjust="spacing" textLength="161.6685" x="202.0747" y="721.3716">POST $prescription-write</text></g><path d="M19,744.4375 L19,776.4375 A5,5 0 0 0 24,781.4375 L325,781.4375 A5,5 0 0 0 330,776.4375 L330,749.4375 L320,739.4375 L24,739.4375 A5,5 0 0 0 19,744.4375" fill="url(#g14ir6ipkdrxaz0)" filter="url(#f14ir6ipkdrxaz)" style="stroke:#8B95A5;stroke-width:1;"/><path d="M320,739.4375 L320,746.9375 A2.5,2.5 0 0 0 322.5,749.4375 L330,749.4375 L320,739.4375" fill="url(#g14ir6ipkdrxaz0)" style="stroke:#8B95A5;stroke-width:1;"/><text fill="#111827" font-family="'Arial'" font-size="14" lengthAdjust="spacing" textLength="239.9209" x="25" y="757.4326">Transaction Bundle mit Geplanten</text><text fill="#111827" font-family="'Arial'" font-size="14" lengthAdjust="spacing" textLength="290.2266" x="25" y="773.7295">Abgaben an Fachanwendung &#252;bermitteln</text><g class="message" data-entity-1="part2" data-entity-2="part1" data-source-line="107" id="msg7"><line style="stroke:#111827;stroke-width:1;" x1="183.0293" x2="193.0293" y1="811.1641" y2="807.1641"/><line style="stroke:#111827;stroke-width:1;" x1="183.0293" x2="193.0293" y1="811.1641" y2="815.1641"/><line style="stroke:#111827;stroke-width:1;stroke-dasharray:2,2;" x1="182.0293" x2="494.917" y1="811.1641" y2="811.1641"/><text fill="#000000" font-family="'Arial'" font-size="13" font-weight="700" lengthAdjust="spacing" textLength="9.0454" x="199.0293" y="806.0981">7</text><text fill="#000000" font-family="'Arial'" font-size="13" lengthAdjust="spacing" textLength="18.7573" x="212.0747" y="806.0981">OK</text></g><path d="M396,829.1641 L396,845.1641 A5,5 0 0 0 401,850.1641 L596,850.1641 A5,5 0 0 0 601,845.1641 L601,834.1641 L591,824.1641 L401,824.1641 A5,5 0 0 0 396,829.1641" fill="url(#g14ir6ipkdrxaz0)" filter="url(#f14ir6ipkdrxaz)" style="stroke:#8B95A5;stroke-width:1;"/><path d="M591,824.1641 L591,831.6641 A2.5,2.5 0 0 0 593.5,834.1641 L601,834.1641 L591,824.1641" fill="url(#g14ir6ipkdrxaz0)" style="stroke:#8B95A5;stroke-width:1;"/><text fill="#111827" font-family="'Arial'" font-size="14" font-style="italic" lengthAdjust="spacing" textLength="130.5459" x="402" y="842.1592">Geplante Abgaben</text><text fill="#111827" font-family="'Arial'" font-size="14" lengthAdjust="spacing" textLength="49.0342" x="536.9961" y="842.1592">erstellt</text><?plantuml-src VLRDRjj64BxlKmpa71AWR2qrYdyG2v1JEos2n8Rjvf84nf8SYWkjbinoQRiA0lJUryWpz9IRtgHFqjabHIr_70eGo9sPR-VxPcP98un4U8svvCeWpCC53n6IpNSD8HO6KrGnmbkCnP8RaQd2Eg9GHc--BH1Gau-Kg3wgzroB2kCOtcUQXy6PNWbZPAaM46C1htLMvd_4g8n810N2qtUPNd6PS2cVCLOiXSgvvYi8CnsZVfN9JCFUlhjyAu-M2u9ISUsHJEtFyoXI7cVtWhObw08zInsc5MeO-w0n9hoKvZnJvXrV8OpcH4QEXZsknHfX_7pOs4xRyr4PQVE50Pns2U0-JfFzO2yUnqVumdhu0Xo6HrC-RLPlKX4j5HO5Z6djoYDqIC-NF8ujSOlYPJCUZmyd1xHstKXZT8digv_Wxt_bgALGIu_2sTcGmv_K4_O6Qu5zxV5pYIggc5voRKGaScgB5gMfkpeElRAwg-tK5xXdtXQdPTZACh41Swsp-wumRh6jhLiQsh4nL7lzIakkjriS6-JArAiv9XF7pelSRJzfL-OqU_0OjDQ7T6LXzW2ZZuh0Vvl36604UqS9pOrLXKU6NCbmEmPUmCYvZ1YDEStTWnVhBWnezE6SHobNz-HZPxcw2FFLyyE30zjr-KvfG0guFPyxx3fwFWoFmHMkCJSEAmh3oS6aYtLRUrHWrOC7nakJgN8LecRivAHxIW4FTPcWWfCJSesCkECqWOuvqvX0TeUr43yrMH_3XmzqkA6s_eJpSsfMSgzgwdKi-89aNmKMFT38OxYqTrTqz-aJOyoD-0wMMMrHfvjlqlIIOq_dPI459gX9r2AW4afqcmQdr2OIdpcU5jAHUobcdLDQlVn5pE0kqyGVXI6Y50T5bD9JMDDchAfqCDjIF8RBY-iRU6AxCHVDQHn4nCVWVt__0tqULHqxvtVraXXLHLbAqWNrY76Lk8vKNlQDzdKARAksdzNm7gZNM2vGxKA2sQpAwf4G5cDllnwXi-grHOkFoQfjOQZcmlu3MrCIwUPVBHO_U1cI_CJQf5pQOWndjrE5CMfrg3EnSxLjSCO0jbMRDJDm33Uq-y9gifsRvkLRZNNDkVQdjMPyVD4ktf35rsZd3y2GZdDOI1HHkgQUidIz3FjYMQqw-RRRBDTOH5hahh7lDRLfAzcwG03T2W7HvQgenX2gYG3wd6W-LIpfkc10uzG-eZRVQIRinmTAwzU8JWm1XbhfueqpxRBOPVPOXzJg6n_VblT_?></g></svg>