<svg xmlns="http://www.w3.org/2000/svg" xmlns:xlink="http://www.w3.org/1999/xlink" version="1.1" data-diagram-type="SEQUENCE" style="width:637px;height:810px;background:#F5F5F5;" width="637px" height="810px" viewBox="0 0 637 810" zoomAndPan="magnify" preserveAspectRatio="none" contentStyleType="text/css"><?plantuml 1.2026.7beta8?><defs><linearGradient x1="50%" y1="0%" x2="50%" y2="100%" id="grhc6tt8m9mqm0"><stop stop-color="#E0E5F0" offset="0%"/><stop stop-color="#D1D9E6" offset="100%"/></linearGradient></defs><g font-family="sans-serif" lengthAdjust="spacing"><rect x="0" y="0" width="637" height="810" fill="#F5F5F5" style="stroke:none;"/><g class="title" data-source-line="1"><text x="188.027" y="27.995" fill="#000" font-size="14" textLength="259.718" font-weight="700" font-family="'Arial'">Initial erstellter Medikationsplan</text></g><path d="M85.971,318.883 L612.772,318.883 A5,5 0 0 1 617.772,323.883 L617.772,628.133 L80.971,628.133 L80.971,323.883 A5,5 0 0 1 85.971,318.883" fill="#0F9ED5" fill-opacity="0.145"/><path d="M80.971,628.133 L617.772,628.133 L617.772,694.023 A5,5 0 0 1 612.772,699.023 L85.971,699.023 A5,5 0 0 1 80.971,694.023 L80.971,628.133" fill="#E97132" fill-opacity="0.208"/><g><title>GDA 1</title><rect x="118.752" y="123.594" width="8" height="599.43" fill="#000" fill-opacity="0"/><line x1="122.252" y1="123.594" x2="122.252" y2="723.023" style="stroke:#181818;stroke-width:0.5;stroke-dasharray:5,5;"/></g><g><title></title><rect x="117.252" y="197.023" width="10" height="502" fill="#156082" fill-opacity="0.502" style="stroke:#181818;stroke-width:1;"/></g><g><title>e-Med FA</title><rect x="379.441" y="123.594" width="8" height="599.43" fill="#000" fill-opacity="0"/><line x1="382.941" y1="123.594" x2="382.941" y2="723.023" style="stroke:#181818;stroke-width:0.5;stroke-dasharray:5,5;"/></g><g><title></title><rect x="377.941" y="197.023" width="10" height="412.109" fill="#E97232" fill-opacity="0.741" style="stroke:#181818;stroke-width:1;"/></g><text x="96.971" y="120.292" fill="#000" font-size="14" textLength="44.563" font-family="'Arial'">GDA 1</text><ellipse cx="122.252" cy="55.797" rx="8" ry="8" fill="#156082" fill-opacity="0.502" style="stroke:#181818;stroke-width:0.5;"/><path d="M122.252,63.797 L122.252,90.797 M109.252,71.797 L135.252,71.797 M122.252,90.797 L109.252,105.797 M122.252,90.797 L135.252,105.797" style="stroke:#181818;stroke-width:0.5;" fill="none"/><rect x="343.279" y="92.297" width="79.324" height="30.297" fill="#E97232" fill-opacity="0.741" style="stroke:#555;stroke-width:0.5;" rx="5" ry="5"/><text x="350.279" y="112.292" fill="#000" font-size="14" textLength="65.324" font-family="'Arial'">e-Med FA</text><text x="96.971" y="736.019" fill="#000" font-size="14" textLength="44.563" font-family="'Arial'">GDA 1</text><ellipse cx="122.252" cy="747.82" rx="8" ry="8" fill="#156082" fill-opacity="0.502" style="stroke:#181818;stroke-width:0.5;"/><path d="M122.252,755.82 L122.252,782.82 M109.252,763.82 L135.252,763.82 M122.252,782.82 L109.252,797.82 M122.252,782.82 L135.252,797.82" style="stroke:#181818;stroke-width:0.5;" fill="none"/><rect x="343.279" y="723.023" width="79.324" height="30.297" fill="#E97232" fill-opacity="0.741" style="stroke:#555;stroke-width:0.5;" rx="5" ry="5"/><text x="350.279" y="743.019" fill="#000" font-size="14" textLength="65.324" font-family="'Arial'">e-Med FA</text><rect x="10" y="152.742" width="616.772" height="3" fill="#EEE" style="stroke:#EEE;stroke-width:1;" rx="5" ry="5"/><line x1="10" y1="152.742" x2="626.772" y2="152.742" style="stroke:#000;stroke-width:1;"/><line x1="10" y1="155.742" x2="626.772" y2="155.742" style="stroke:#000;stroke-width:1;"/><rect x="220.01" y="141.594" width="196.752" height="24.297" fill="#EEE" style="stroke:#000;stroke-width:2;" rx="5" ry="5"/><text x="226.01" y="158.589" fill="#000" font-size="14" textLength="177.878" font-weight="700" font-family="'Arial'">Erstmaliges Plan-Read</text><polygon points="365.941,193.023,375.941,197.023,365.941,201.023,369.941,197.023" fill="#111827" style="stroke:#111827;stroke-width:1;stroke-linejoin:miter;stroke-miterlimit:10;"/><line x1="127.252" y1="197.023" x2="371.941" y2="197.023" style="stroke:#111827;stroke-width:1;"/><text x="134.252" y="191.958" fill="#000" font-size="13" font-weight="700" font-family="'Arial'">1</text><text x="147.298" y="191.958" fill="#000" font-size="13" textLength="108.989" font-family="'Arial'">POST $plan-read</text><path d="M15,215.023 L15,247.023 A5,5 0 0 0 20,252.023 L224,252.023 A5,5 0 0 0 229,247.023 L229,220.023 L219,210.023 L20,210.023 A5,5 0 0 0 15,215.023" style="stroke:#8B95A5;stroke-width:1;" fill="url(#grhc6tt8m9mqm0)"/><path d="M219,210.023 L219,217.523 A2.5,2.5 0 0 0 221.5,220.023 L229,220.023 L219,210.023" style="stroke:#8B95A5;stroke-width:1;" fill="url(#grhc6tt8m9mqm0)"/><text x="21" y="228.019" fill="#111827" font-size="14" textLength="193.505" font-family="'Arial'">Abruf des Medikationsplans</text><text x="21" y="244.315" fill="#111827" font-size="14" textLength="112.492" font-family="'Arial'">zur Bearbeitung</text><line x1="387.941" y1="293.883" x2="429.941" y2="293.883" style="stroke:#111827;stroke-width:1;"/><line x1="429.941" y1="293.883" x2="429.941" y2="306.883" style="stroke:#111827;stroke-width:1;"/><line x1="388.941" y1="306.883" x2="429.941" y2="306.883" style="stroke:#111827;stroke-width:1;"/><polygon points="398.941,302.883,388.941,306.883,398.941,310.883,394.941,306.883" fill="#111827" style="stroke:#111827;stroke-width:1;stroke-linejoin:miter;stroke-miterlimit:10;"/><text x="394.941" y="281.25" fill="#000" font-size="13" font-weight="700" font-family="'Arial'">2</text><text x="407.986" y="273.684" fill="#000" font-size="13" textLength="77.422" font-family="'Arial'">Existiert ein</text><text x="407.986" y="288.817" fill="#000" font-size="13" textLength="113.217" font-family="'Arial'">Medikationsplan?</text><path d="M85.971,318.883 L146.909,318.883 L146.909,327.18 L136.909,337.18 L80.971,337.18 L80.971,323.883 A5,5 0 0 1 85.971,318.883" style="stroke:#111827;stroke-width:1.5;" fill="#EEF2FF"/><rect x="80.971" y="318.883" width="536.802" height="380.141" fill="none" style="stroke:#111827;stroke-width:2;" rx="5" ry="5"/><text x="95.971" y="332.878" fill="#000" font-size="14" textLength="20.938" font-weight="700" font-family="'Arial'">alt</text><text x="161.909" y="333.878" fill="#000" font-size="14" textLength="313.934" font-weight="700" font-family="'Arial'">[nein: kein Medikationsplan persistiert]</text><line x1="80.971" y1="628.133" x2="617.772" y2="628.133" style="stroke:#111827;stroke-width:1;stroke-dasharray:2,2;"/><text x="85.971" y="643.128" fill="#000" font-size="14" textLength="255.507" font-weight="700" font-family="'Arial'">[ja: Medikationsplan persistiert]</text><line x1="387.941" y1="384.742" x2="429.941" y2="384.742" style="stroke:#111827;stroke-width:1;"/><line x1="429.941" y1="384.742" x2="429.941" y2="397.742" style="stroke:#111827;stroke-width:1;"/><line x1="388.941" y1="397.742" x2="429.941" y2="397.742" style="stroke:#111827;stroke-width:1;"/><polygon points="398.941,393.742,388.941,397.742,398.941,401.742,394.941,397.742" fill="#111827" style="stroke:#111827;stroke-width:1;stroke-linejoin:miter;stroke-miterlimit:10;"/><text x="394.941" y="372.11" fill="#000" font-size="13" font-weight="700" font-family="'Arial'">3</text><text x="407.986" y="364.543" fill="#000" font-size="13" textLength="124.706" font-family="'Arial'">Erzeugt initiale List</text><text x="407.986" y="379.676" fill="#000" font-size="13" textLength="186.786" font-family="'Arial'">(emptyReason = notstarted)</text><line x1="387.941" y1="426.875" x2="429.941" y2="426.875" style="stroke:#111827;stroke-width:1;"/><line x1="429.941" y1="426.875" x2="429.941" y2="439.875" style="stroke:#111827;stroke-width:1;"/><line x1="388.941" y1="439.875" x2="429.941" y2="439.875" style="stroke:#111827;stroke-width:1;"/><polygon points="398.941,435.875,388.941,439.875,398.941,443.875,394.941,439.875" fill="#111827" style="stroke:#111827;stroke-width:1;stroke-linejoin:miter;stroke-miterlimit:10;"/><text x="394.941" y="421.809" fill="#000" font-size="13" font-weight="700" font-family="'Arial'">4</text><text x="407.986" y="421.809" fill="#000" font-size="13" textLength="145.85" font-family="'Arial'">Persistiert List-Version</text><line x1="387.941" y1="484.141" x2="429.941" y2="484.141" style="stroke:#111827;stroke-width:1;"/><line x1="429.941" y1="484.141" x2="429.941" y2="497.141" style="stroke:#111827;stroke-width:1;"/><line x1="388.941" y1="497.141" x2="429.941" y2="497.141" style="stroke:#111827;stroke-width:1;"/><polygon points="398.941,493.141,388.941,497.141,398.941,501.141,394.941,497.141" fill="#111827" style="stroke:#111827;stroke-width:1;stroke-linejoin:miter;stroke-miterlimit:10;"/><text x="394.941" y="471.508" fill="#000" font-size="13" font-weight="700" font-family="'Arial'">5</text><text x="407.986" y="463.942" fill="#000" font-size="13" textLength="129.492" font-family="'Arial'">Erzeugt temporäres</text><text x="407.986" y="479.075" fill="#000" font-size="13" textLength="113.693" font-family="'Arial'">Collection Bundle</text><path d="M296.962,515.141 L296.962,547.141 A5,5 0 0 0 301.962,552.141 L462.962,552.141 A5,5 0 0 0 467.962,547.141 L467.962,520.141 L457.962,510.141 L301.962,510.141 A5,5 0 0 0 296.962,515.141" style="stroke:#8B95A5;stroke-width:1;" fill="url(#grhc6tt8m9mqm0)"/><path d="M457.962,510.141 L457.962,517.641 A2.5,2.5 0 0 0 460.462,520.141 L467.962,520.141 L457.962,510.141" style="stroke:#8B95A5;stroke-width:1;" fill="url(#grhc6tt8m9mqm0)"/><text x="302.962" y="528.136" fill="#111827" font-size="14" textLength="150.958" font-family="'Arial'">Keine Transformation</text><text x="302.962" y="544.433" fill="#111827" font-size="14" textLength="85.675" font-family="'Arial'">erforderlich.</text><polygon points="138.252,605.133,128.252,609.133,138.252,613.133,134.252,609.133" fill="#111827" style="stroke:#111827;stroke-width:1;stroke-linejoin:miter;stroke-miterlimit:10;"/><line x1="132.252" y1="609.133" x2="376.941" y2="609.133" style="stroke:#111827;stroke-width:1;"/><text x="144.252" y="588.934" fill="#000" font-size="13" font-weight="700" font-family="'Arial'">6</text><text x="157.298" y="573.801" fill="#000" font-size="13" textLength="113.693" font-family="'Arial'">Collection Bundle</text><text x="157.298" y="588.934" fill="#000" font-size="13" textLength="213.643" font-family="'Arial'">(List.emptyReason = notstarted)</text><text x="157.298" y="604.067" fill="#000" font-size="13" textLength="47.398" font-family="'Arial'">+ ETag</text><rect x="98.971" y="651.43" width="321.632" height="42.594" fill="none" style="stroke:#000;stroke-width:1.5;" rx="5" ry="5"/><path d="M103.971,651.43 L165.971,651.43 L165.971,659.43 L155.971,669.43 L98.971,669.43 L98.971,656.43 A5,5 0 0 1 103.971,651.43" style="stroke:#000;stroke-width:2;" fill="#EEE"/><text x="111.971" y="666.425" fill="#000" font-size="14" textLength="22.49" font-weight="700" font-family="'Arial'">ref</text><text x="175.985" y="686.425" fill="#000" font-size="14" textLength="167.604" font-family="'Arial'">Siehe Ablauf Plan-Read.</text><?plantuml-src XLLjRzf84Fw-ls8A9_LELohR58WZqSeqJg_g2mXeFrIHeWMFoHvcbzjTDqrEzs_kdzmVkraJmjeGTK78ddbsvfbNhB05mdifhE05e3OMYyAYXa-OYJMtGacpBRXaxBbP2xdbcc-0BwtICtj7D_aj6hL1nWxQXT8PwhUgK1hQGNLyBL-kLrgLCdj0v3ttyH3cXcVgLiWLvBmmw6aUhcb9_4BVQ8OvBmjxgQJzp3S8hKHJEAtJY9cuHmXVdLO-HVkFkotgGiYr1qZJKu0lCgiUy8Z-IFsOy2npaKL1NJxoSzQhZfzIgIp2tmnWrCmU1jZBWqux2xCO-mxXMpfRn3tUUvJERyHoBT4O24aszR8PqFkUcxFYfI8CmxDeGB9Peox_-0mD_bMYNEvOJhYsOYcsNDfJWTK1H_rGdJhek397wdrLQmeltG29rkgs6LGbhEUb4fto-AZO-UgIw1qntzPYVBIyKntL2_EeYiwxUN0VkQG-etPqxVDs_74ylNvtaLo7GASTzlh1MNGMd0145I3kzuF1nH5WaipVfv_dpaBS7qMlZW39P0pLQGUNSNhHYvk0z5DwSNsP403ZGTID5baJS3rDlwMJERINMNVGZNZS36Fy0Me-ebxJn7GwdbQ0D1w4tQXB0r3j6TXbW1jeqHE4BJynR7ieDY3jB4VJGR53Bt2PjEeXaCtIAbbk5gWP6muXfOstuOLOeO49xRdE57a6mo5ZExUTrtkpvp0Pp-RmYzk67KqeHqzyvpIPEwXFYrKJgxxZ0tsMB7IPqw8npSLgs7sfOOHSBr3OKguOogmQU7Pmi8-i7ijUwdDCVmXZ1MhAXf1Nik7i3TaixA4aaa3diARV9YsWRMRsfXZrwqbd-XxBbGMn-_j0-4WthkIlkDdQEqgaKHA6BXPZgKoO_VQ4dOddovdeV7K29N_Yrf8VfV_xLwEvaZHV1IuTVnZHk14PkatVGo4UxfFi0xg-cslAVgxqfehQ-T9vDO-5MDwyTE_xGjHeLFKyXoD_5BVZ_lB9uA_axv3E-Sgnoh1PMyOOqbQjJSEV_FodTT6OUttsuX3aJE0DGh8eE3NUOslluw9hZ7aiTbrAcly1?></g></svg>