<?xml version="1.0" encoding="us-ascii" standalone="no"?><svg xmlns="http://www.w3.org/2000/svg" xmlns:xlink="http://www.w3.org/1999/xlink" contentStyleType="text/css" height="875px" preserveAspectRatio="none" style="width:651px;height:875px;background:#F5F5F5;" version="1.1" viewBox="0 0 651 875" width="651px" zoomAndPan="magnify"><defs><linearGradient id="g1sq6yz6fls4190" x1="50%" x2="50%" y1="0%" y2="100%"><stop offset="0%" stop-color="#E0E5F0"/><stop offset="100%" stop-color="#D1D9E6"/></linearGradient></defs><g><rect fill="#F5F5F5" height="875" style="stroke:none;stroke-width:1.0;" width="651" x="0" y="0"/><text fill="#000000" font-family="Arial" font-size="14" font-weight="bold" lengthAdjust="spacing" textLength="480" x="81.75" y="28.1318">Geplante Abgabe f&#252;r bestehende Medikationsplaneintr&#228;ge erstellen</text><text fill="#000000" font-family="Arial" font-size="14" font-weight="bold" lengthAdjust="spacing" textLength="431" x="106.25" y="44.2305">Variante A: Vorab-Ermittlung des GroupIdentifiers (Normalfall)</text><rect fill="#156082" fill-opacity="0.50196" height="590.4224" style="stroke:#181818;stroke-width:1.0;" width="10" x="143" y="144.2959"/><rect fill="#E97232" fill-opacity="0.74118" height="120.7949" style="stroke:#181818;stroke-width:1.0;" width="10" x="349" y="344.7871"/><rect fill="#E97232" fill-opacity="0.74118" height="78.8462" style="stroke:#181818;stroke-width:1.0;" width="10" x="349" y="655.8721"/><rect fill="#CD3732" fill-opacity="0.66275" height="28.9487" style="stroke:#181818;stroke-width:1.0;" width="10" x="564" y="583.3257"/><rect fill="none" height="232.2388" rx="5" ry="5" style="stroke:#111827;stroke-width:2.0;" width="624.5" x="10" y="545.4282"/><line style="stroke:#181818;stroke-width:0.5;stroke-dasharray:5.0,5.0;" x1="148" x2="148" y1="134.2959" y2="794.667"/><line style="stroke:#181818;stroke-width:0.5;stroke-dasharray:5.0,5.0;" x1="354" x2="354" y1="134.2959" y2="794.667"/><line style="stroke:#181818;stroke-width:0.5;stroke-dasharray:5.0,5.0;" x1="568.5" x2="568.5" y1="134.2959" y2="794.667"/><text fill="#000000" font-family="Arial" font-size="14" lengthAdjust="spacing" textLength="42" x="124" y="131.3291">GDA 1</text><ellipse cx="148" cy="66.6973" fill="#156082" fill-opacity="0.50196" rx="8" ry="8" style="stroke:#181818;stroke-width:0.5;"/><path d="M148,74.6973 L148,101.6973 M135,82.6973 L161,82.6973 M148,101.6973 L135,116.6973 M148,101.6973 L161,116.6973 " fill="none" style="stroke:#181818;stroke-width:0.5;"/><text fill="#000000" font-family="Arial" font-size="14" lengthAdjust="spacing" textLength="42" x="124" y="806.7988">GDA 1</text><ellipse cx="148" cy="818.2656" fill="#156082" fill-opacity="0.50196" rx="8" ry="8" style="stroke:#181818;stroke-width:0.5;"/><path d="M148,826.2656 L148,853.2656 M135,834.2656 L161,834.2656 M148,853.2656 L135,868.2656 M148,853.2656 L161,868.2656 " fill="none" style="stroke:#181818;stroke-width:0.5;"/><rect fill="#E97232" fill-opacity="0.74118" height="30.0986" rx="5" ry="5" style="stroke:#555555;stroke-width:0.5;" width="76" x="316" y="103.1973"/><text fill="#000000" font-family="Arial" font-size="14" lengthAdjust="spacing" textLength="62" x="323" y="123.3291">e-Med FA</text><rect fill="#E97232" fill-opacity="0.74118" height="30.0986" rx="5" ry="5" style="stroke:#555555;stroke-width:0.5;" width="76" x="316" y="793.667"/><text fill="#000000" font-family="Arial" font-size="14" lengthAdjust="spacing" textLength="62" x="323" y="813.7988">e-Med FA</text><rect fill="#CD3732" fill-opacity="0.66275" height="30.0986" rx="5" ry="5" style="stroke:#555555;stroke-width:0.5;" width="71" x="533.5" y="103.1973"/><text fill="#000000" font-family="Arial" font-size="14" lengthAdjust="spacing" textLength="57" x="540.5" y="123.3291">e-Rezept</text><rect fill="#CD3732" fill-opacity="0.66275" height="30.0986" rx="5" ry="5" style="stroke:#555555;stroke-width:0.5;" width="71" x="533.5" y="793.667"/><text fill="#000000" font-family="Arial" font-size="14" lengthAdjust="spacing" textLength="57" x="540.5" y="813.7988">e-Rezept</text><rect fill="#156082" fill-opacity="0.50196" height="590.4224" style="stroke:#181818;stroke-width:1.0;" width="10" x="143" y="144.2959"/><rect fill="#E97232" fill-opacity="0.74118" height="120.7949" style="stroke:#181818;stroke-width:1.0;" width="10" x="349" y="344.7871"/><rect fill="#E97232" fill-opacity="0.74118" height="78.8462" style="stroke:#181818;stroke-width:1.0;" width="10" x="349" y="655.8721"/><rect fill="#CD3732" fill-opacity="0.66275" height="28.9487" style="stroke:#181818;stroke-width:1.0;" width="10" x="564" y="583.3257"/><rect fill="#EEEEEE" height="3" rx="5" ry="5" style="stroke:#EEEEEE;stroke-width:1.0;" width="644.5" x="0" y="164.7703"/><line style="stroke:#000000;stroke-width:1.0;" x1="0" x2="644.5" y1="164.7703" y2="164.7703"/><line style="stroke:#000000;stroke-width:1.0;" x1="0" x2="644.5" y1="167.7703" y2="167.7703"/><rect fill="#EEEEEE" height="22.9487" rx="5" ry="5" style="stroke:#000000;stroke-width:2.0;" width="175" x="234.75" y="154.2959"/><text fill="#000000" font-family="Arial" font-size="13" font-weight="bold" lengthAdjust="spacing" textLength="157" x="240.75" y="170.4897">Medikationsplan abrufen</text><rect fill="none" height="38.7476" rx="5" ry="5" style="stroke:#000000;stroke-width:1.5;" width="294" x="121" y="187.2446"/><path d="M126,187.2446 L183,187.2446 L183,193.2446 L173,203.2446 L121,203.2446 L121,192.2446 A5,5 0 0 1 126,187.2446 " fill="#EEEEEE" style="stroke:#000000;stroke-width:2.0;"/><text fill="#000000" font-family="Arial" font-size="13" font-weight="bold" lengthAdjust="spacing" textLength="17" x="134" y="201.4385">ref</text><a href="interactions.html#sequenzdiagramm-plan-read" target="_top" title="interactions.html#sequenzdiagramm-plan-read" xlink:actuate="onRequest" xlink:href="interactions.html#sequenzdiagramm-plan-read" xlink:show="new" xlink:title="interactions.html#sequenzdiagramm-plan-read" xlink:type="simple"><text fill="#0000EE" font-family="Arial" font-size="12" lengthAdjust="spacing" textLength="59" x="238.5" y="218.5005">Plan-Read</text></a><path d="M42,240.9922 L42,269.9922 A5,5 0 0 0 47,274.9922 L249,274.9922 A5,5 0 0 0 254,269.9922 L254,245.9922 L244,235.9922 L47,235.9922 A5,5 0 0 0 42,240.9922 " fill="url(#g1sq6yz6fls4190)" style="stroke:#8B95A5;stroke-width:1.0;"/><path d="M244,235.9922 L244,243.4922 A2.5,2.5 0 0 0 246.5,245.9922 L254,245.9922 L244,235.9922 " fill="url(#g1sq6yz6fls4190)" style="stroke:#8B95A5;stroke-width:1.0;"/><text fill="#111827" font-family="Arial" font-size="13" lengthAdjust="spacing" textLength="162" x="48" y="253.186">GDA erh&#228;lt Medikationsplan</text><text fill="#111827" font-family="Arial" font-size="13" lengthAdjust="spacing" textLength="191" x="48" y="268.1348">(Auslieferungs-Collection-Bundle)</text><rect fill="#EEEEEE" height="3" rx="5" ry="5" style="stroke:#EEEEEE;stroke-width:1.0;" width="644.5" x="0" y="301.364"/><line style="stroke:#000000;stroke-width:1.0;" x1="0" x2="644.5" y1="301.364" y2="301.364"/><line style="stroke:#000000;stroke-width:1.0;" x1="0" x2="644.5" y1="304.364" y2="304.364"/><rect fill="#EEEEEE" height="22.9487" rx="5" ry="5" style="stroke:#000000;stroke-width:2.0;" width="304" x="170.25" y="290.8896"/><text fill="#000000" font-family="Arial" font-size="13" font-style="italic" font-weight="bold" lengthAdjust="spacing" textLength="115" x="176.25" y="307.0835">Geplante Abgaben</text><text fill="#000000" font-family="Arial" font-size="13" font-weight="bold" lengthAdjust="spacing" textLength="167" x="295.25" y="307.0835">vorbereiten und schreiben</text><polygon fill="#111827" points="337,340.7871,347,344.7871,337,348.7871,341,344.7871" style="stroke:#111827;stroke-width:1.0;"/><line style="stroke:#111827;stroke-width:1.0;" x1="153" x2="343" y1="344.7871" y2="344.7871"/><text fill="#000000" font-family="Arial" font-size="13" font-weight="bold" lengthAdjust="spacing" textLength="7" x="160" y="340.0322">1</text><text fill="#000000" font-family="Arial" font-size="13" lengthAdjust="spacing" textLength="166" x="171" y="340.0322">POST $groupidentifier-create&#8203;</text><path d="M58,362.7871 L58,391.7871 A5,5 0 0 0 63,396.7871 L232,396.7871 A5,5 0 0 0 237,391.7871 L237,367.7871 L227,357.7871 L63,357.7871 A5,5 0 0 0 58,362.7871 " fill="url(#g1sq6yz6fls4190)" style="stroke:#8B95A5;stroke-width:1.0;"/><path d="M227,357.7871 L227,365.2871 A2.5,2.5 0 0 0 229.5,367.7871 L237,367.7871 L227,357.7871 " fill="url(#g1sq6yz6fls4190)" style="stroke:#8B95A5;stroke-width:1.0;"/><text fill="#111827" font-family="Arial" font-size="13" lengthAdjust="spacing" textLength="141" x="64" y="374.981">e-Med GroupIdentifier f&#252;r</text><text fill="#111827" font-family="Arial" font-size="13" lengthAdjust="spacing" textLength="158" x="64" y="389.9297">"Rezeptklammer" anfordern</text><line style="stroke:#111827;stroke-width:1.0;" x1="359" x2="401" y1="423.6333" y2="423.6333"/><line style="stroke:#111827;stroke-width:1.0;" x1="401" x2="401" y1="423.6333" y2="436.6333"/><line style="stroke:#111827;stroke-width:1.0;" x1="360" x2="401" y1="436.6333" y2="436.6333"/><polygon fill="#111827" points="370,432.6333,360,436.6333,370,440.6333,366,436.6333" style="stroke:#111827;stroke-width:1.0;"/><text fill="#000000" font-family="Arial" font-size="13" font-weight="bold" lengthAdjust="spacing" textLength="7" x="366" y="418.8784">2</text><text fill="#000000" font-family="Arial" font-size="13" lengthAdjust="spacing" textLength="180" x="377" y="418.8784">e-Med GroupIdentifier erzeugen</text><polygon fill="#111827" points="164,461.582,154,465.582,164,469.582,160,465.582" style="stroke:#111827;stroke-width:1.0;"/><line style="stroke:#111827;stroke-width:1.0;" x1="158" x2="353" y1="465.582" y2="465.582"/><text fill="#000000" font-family="Arial" font-size="13" font-weight="bold" lengthAdjust="spacing" textLength="7" x="170" y="460.8271">3</text><text fill="#000000" font-family="Arial" font-size="13" lengthAdjust="spacing" textLength="123" x="181" y="460.8271">e-Med GroupIdentifier</text><path d="M16,483.582 L16,527.582 A5,5 0 0 0 21,532.582 L275,532.582 A5,5 0 0 0 280,527.582 L280,488.582 L270,478.582 L21,478.582 A5,5 0 0 0 16,483.582 " fill="url(#g1sq6yz6fls4190)" style="stroke:#8B95A5;stroke-width:1.0;"/><path d="M270,478.582 L270,486.082 A2.5,2.5 0 0 0 272.5,488.582 L280,488.582 L270,478.582 " fill="url(#g1sq6yz6fls4190)" style="stroke:#8B95A5;stroke-width:1.0;"/><text fill="#111827" font-family="Arial" font-size="13" lengthAdjust="spacing" textLength="48" x="22" y="495.7759">Erstellte</text><text fill="#111827" font-family="Arial" font-size="13" font-style="italic" lengthAdjust="spacing" textLength="109" x="74" y="495.7759">Geplante Abgaben</text><text fill="#111827" font-family="Arial" font-size="13" lengthAdjust="spacing" textLength="74" x="187" y="495.7759">referenzieren</text><text fill="#111827" font-family="Arial" font-size="13" lengthAdjust="spacing" textLength="232" x="22" y="510.7246">zugeh&#246;rige Medikationsplaneintr&#228;ge und</text><text fill="#111827" font-family="Arial" font-size="13" lengthAdjust="spacing" textLength="180" x="22" y="525.6733">enthalten e-Med GroupIdentifier</text><path d="M15,545.4282 L76,545.4282 L76,552.377 L66,562.377 L10,562.377 L10,550.4282 A5,5 0 0 1 15,545.4282 " fill="#EEF2FF" style="stroke:#111827;stroke-width:1.5;"/><rect fill="none" height="232.2388" rx="5" ry="5" style="stroke:#111827;stroke-width:2.0;" width="624.5" x="10" y="545.4282"/><text fill="#000000" font-family="Arial" font-size="13" font-weight="bold" lengthAdjust="spacing" textLength="21" x="25" y="558.6221">par</text><text fill="#000000" font-family="Arial" font-size="11" font-weight="bold" lengthAdjust="spacing" textLength="116" x="91" y="557.7461">[Erstellung e-Rezept]</text><polygon fill="#111827" points="552,579.3257,562,583.3257,552,587.3257,556,583.3257" style="stroke:#111827;stroke-width:1.0;"/><line style="stroke:#111827;stroke-width:1.0;" x1="153" x2="558" y1="583.3257" y2="583.3257"/><text fill="#000000" font-family="Arial" font-size="13" font-weight="bold" lengthAdjust="spacing" textLength="7" x="160" y="578.5708">4</text><text fill="#000000" font-family="Arial" font-size="13" lengthAdjust="spacing" textLength="148" x="171" y="578.5708">Trigger e-Rezept erstellen</text><polygon fill="#111827" points="164,608.2744,154,612.2744,164,616.2744,160,612.2744" style="stroke:#111827;stroke-width:1.0;"/><line style="stroke:#111827;stroke-width:1.0;stroke-dasharray:2.0,2.0;" x1="158" x2="568" y1="612.2744" y2="612.2744"/><text fill="#000000" font-family="Arial" font-size="13" font-weight="bold" lengthAdjust="spacing" textLength="7" x="170" y="607.5195">5</text><text fill="#000000" font-family="Arial" font-size="13" lengthAdjust="spacing" textLength="19" x="181" y="607.5195">OK</text><line style="stroke:#111827;stroke-width:1.0;stroke-dasharray:2.0,2.0;" x1="10" x2="634.5" y1="621.2744" y2="621.2744"/><text fill="#000000" font-family="Arial" font-size="11" font-weight="bold" lengthAdjust="spacing" textLength="133" x="15" y="631.5923">[gleichzeitige Erstellung</text><text fill="#000000" font-family="Arial" font-size="11" font-style="italic" font-weight="bold" lengthAdjust="spacing" textLength="95" x="151" y="631.5923">Geplante Abgabe</text><text fill="#000000" font-family="Arial" font-size="11" font-weight="bold" lengthAdjust="spacing" textLength="4" x="246" y="631.5923">]</text><polygon fill="#111827" points="337,651.8721,347,655.8721,337,659.8721,341,655.8721" style="stroke:#111827;stroke-width:1.0;"/><line style="stroke:#111827;stroke-width:1.0;" x1="153" x2="343" y1="655.8721" y2="655.8721"/><text fill="#000000" font-family="Arial" font-size="13" font-weight="bold" lengthAdjust="spacing" textLength="7" x="160" y="651.1172">6</text><text fill="#000000" font-family="Arial" font-size="13" lengthAdjust="spacing" textLength="144" x="171" y="651.1172">POST $prescription-write</text><path d="M20,673.8721 L20,702.8721 A5,5 0 0 0 25,707.8721 L271,707.8721 A5,5 0 0 0 276,702.8721 L276,678.8721 L266,668.8721 L25,668.8721 A5,5 0 0 0 20,673.8721 " fill="url(#g1sq6yz6fls4190)" style="stroke:#8B95A5;stroke-width:1.0;"/><path d="M266,668.8721 L266,676.3721 A2.5,2.5 0 0 0 268.5,678.8721 L276,678.8721 L266,668.8721 " fill="url(#g1sq6yz6fls4190)" style="stroke:#8B95A5;stroke-width:1.0;"/><text fill="#111827" font-family="Arial" font-size="13" lengthAdjust="spacing" textLength="196" x="26" y="686.0659">Transaction Bundle mit Geplanten</text><text fill="#111827" font-family="Arial" font-size="13" lengthAdjust="spacing" textLength="235" x="26" y="701.0146">Abgaben an Fachanwendung &#252;bermitteln</text><polygon fill="#111827" points="159,730.7183,149,734.7183,159,738.7183,155,734.7183" style="stroke:#111827;stroke-width:1.0;"/><line style="stroke:#111827;stroke-width:1.0;stroke-dasharray:2.0,2.0;" x1="153" x2="353" y1="734.7183" y2="734.7183"/><text fill="#000000" font-family="Arial" font-size="13" font-weight="bold" lengthAdjust="spacing" textLength="7" x="165" y="729.9634">7</text><text fill="#000000" font-family="Arial" font-size="13" lengthAdjust="spacing" textLength="19" x="176" y="729.9634">OK</text><path d="M267,752.7183 L267,766.7183 A5,5 0 0 0 272,771.7183 L435,771.7183 A5,5 0 0 0 440,766.7183 L440,757.7183 L430,747.7183 L272,747.7183 A5,5 0 0 0 267,752.7183 " fill="url(#g1sq6yz6fls4190)" style="stroke:#8B95A5;stroke-width:1.0;"/><path d="M430,747.7183 L430,755.2183 A2.5,2.5 0 0 0 432.5,757.7183 L440,757.7183 L430,747.7183 " fill="url(#g1sq6yz6fls4190)" style="stroke:#8B95A5;stroke-width:1.0;"/><text fill="#111827" font-family="Arial" font-size="13" font-style="italic" lengthAdjust="spacing" textLength="109" x="273" y="764.9121">Geplante Abgaben</text><text fill="#111827" font-family="Arial" font-size="13" lengthAdjust="spacing" textLength="39" x="386" y="764.9121">erstellt</text><!--SRC=[VLPHRzis47xdhxZP0zO2ysR9TH87JG2dKRAYRMmuNX_M5G4jdMp2DELITBAw6B3t_Ot-XZtrBVzalsH7IROeoPaC6DBn8- -xx-v86c4amZMk9LS6OJYRynb2_FXDmmnJWmjK4S8xZCII6v6er09HAACVlyuHK1D6IbI_g_TSYtoDKtYVQ3xh17ebZ94RDOS8KxZMoMRzEa9bH2ne8ZoxIVIAovXB-Pon7zAbK6kk-GfuQ19zQpuJC_w0QR92nihHMQ8ZrAyIcMXeTxF77UNXSawUL5GWuhxzEOXqmQFaGH0hyfoYCr9CqmerUEwY4SPy8yrLeimDNo6qXXIhRBcS7SYjs29uBmxFVuhtBv_NgALGImSG18S0lr96x0is-5yaVunv5DdG_6xLVk6AriyULrELKEA-C82BkdpOnNxSxRGZBnhWaKMuAvtC1dtUtrkd2n4k5QOfU6IRE79swNl7pQxYIE5vteb_JBRRMcB-T1cc-6c3AinPZhas8XHhghT3WLK1ZOB8dYgecPd6y2whbG57Re2Xrib3FQZCMDKbCntok1_8VVN8b3LD9SRzolbG8ryO-rbqpipIlMz5_OxAqPRFgz7RqUJk-d9uvm4zRQz_r3tnJxe707u661mTTOyl6u3nSFewk9dQ5GP75_wB1c0u7a7sjBjNW-2oFwW3WdV1vTtLa00uEFPx_Yog0-ucmM_1U0hjCEeTztm-g8SnUWCL7tw_liHaCffaW61mxFNy7ZL0jj50hW1FeKLluBLSOTYwJ3OWxOEMfeLYXpxWQjYgXb35tqrmYsjJJCW_MhMGYCN696gpcg5cxEoilja2d-bDZ0hEpZB2ufvJh-QSNQ8QOqZkiGZdnptPK_ZmWVPhr7OkhVdJmgnaEs-dRIJudBfhrR6UEXfv16FxDg6tZnyPOzd6K2xBh4Ae5uzVfMaGPS-6crGAZ57Jdfzsg28bPaux5rIW4fypEasolIOBzAKuhnqywkNFuXpk4qrQe30KDCs3D5pGrwoGWB4yzixvBiHJ68zkf_2zxOErs1ymdP3YCVZlNtz3CuuyVRKZAJ_tM2jFr5AICAXRm5MSjP5owEyJiPEvMWKxgqloi4lKMzpCKRbJCefFJ60HrdqtemloOvcCJsciRPQe08Jz1xOb2el7VxIO_yzXJxaW1So2IvkPm-nAXQWHeE1XRm2xycTsQzedi6YGKvYIwxcLeu2LDml2bm7l6ghMGb2ET4hzHczem9Mhm32x2p2a8mRc4aMus5AjsSWTkatTh6nLyjNgMsjCGotMMRq_QAhU2lE3PG9GpnoG4bobUQz2tZP0rwZz5StgKIII2XEkUBZWwe5ajwmVlr7Zs4iNIelR9uF2XJs5YaBPo86IgXXtr4go9Uof0YloPrmQjZhOVm00]--></g></svg>