<svg xmlns="http://www.w3.org/2000/svg" xmlns:xlink="http://www.w3.org/1999/xlink" version="1.1" data-diagram-type="SEQUENCE" style="width:544px;height:584px;background:#F5F5F5;" width="544px" height="584px" viewBox="0 0 544 584" zoomAndPan="magnify" preserveAspectRatio="none" contentStyleType="text/css"><?plantuml 1.2026.7beta8?><defs><linearGradient x1="50%" y1="0%" x2="50%" y2="100%" id="g5hqoekl4xfmj0"><stop stop-color="#E0E5F0" offset="0%"/><stop stop-color="#D1D9E6" offset="100%"/></linearGradient></defs><g font-family="sans-serif" lengthAdjust="spacing"><rect x="0" y="0" width="544" height="584" fill="#F5F5F5" style="stroke:none;"/><g class="title" data-source-line="1"><text x="199.643" y="27.995" fill="#000" font-size="14" textLength="143.028" font-weight="700" font-family="'Arial'">Plan-History-Read</text></g><path d="M24.282,266.289 L368.771,266.289 A5,5 0 0 1 373.771,271.289 L373.771,336.016 L19.282,336.016 L19.282,271.289 A5,5 0 0 1 24.282,266.289" fill="#0F9ED5" fill-opacity="0.145"/><path d="M19.282,336.016 L373.771,336.016 L373.771,383.445 A5,5 0 0 1 368.771,388.445 L24.282,388.445 A5,5 0 0 1 19.282,383.445 L19.282,336.016" fill="#E97132" fill-opacity="0.208"/><g><title>GDA 1</title><rect x="31.782" y="123.594" width="8" height="374.039" fill="#000" fill-opacity="0"/><line x1="35.282" y1="123.594" x2="35.282" y2="497.633" style="stroke:#181818;stroke-width:0.5;stroke-dasharray:5,5;"/></g><g><title></title><rect x="30.282" y="197.023" width="10" height="183.422" fill="#156082" fill-opacity="0.502" style="stroke:#181818;stroke-width:1;"/></g><g><title>e-Med FA</title><rect x="329.447" y="123.594" width="8" height="374.039" fill="#000" fill-opacity="0"/><line x1="332.947" y1="123.594" x2="332.947" y2="497.633" style="stroke:#181818;stroke-width:0.5;stroke-dasharray:5,5;"/></g><g><title></title><rect x="327.947" y="197.023" width="10" height="183.422" fill="#E97232" fill-opacity="0.741" style="stroke:#181818;stroke-width:1;"/></g><text x="10" y="120.292" fill="#000" font-size="14" textLength="44.563" font-family="'Arial'">GDA 1</text><ellipse cx="35.282" cy="55.797" rx="8" ry="8" fill="#156082" fill-opacity="0.502" style="stroke:#181818;stroke-width:0.5;"/><path d="M35.282,63.797 L35.282,90.797 M22.282,71.797 L48.282,71.797 M35.282,90.797 L22.282,105.797 M35.282,90.797 L48.282,105.797" style="stroke:#181818;stroke-width:0.5;" fill="none"/><rect x="293.285" y="92.297" width="79.324" height="30.297" fill="#E97232" fill-opacity="0.741" style="stroke:#555;stroke-width:0.5;" rx="5" ry="5"/><text x="300.285" y="112.292" fill="#000" font-size="14" textLength="65.324" font-family="'Arial'">e-Med FA</text><text x="10" y="510.628" fill="#000" font-size="14" textLength="44.563" font-family="'Arial'">GDA 1</text><ellipse cx="35.282" cy="522.43" rx="8" ry="8" fill="#156082" fill-opacity="0.502" style="stroke:#181818;stroke-width:0.5;"/><path d="M35.282,530.43 L35.282,557.43 M22.282,538.43 L48.282,538.43 M35.282,557.43 L22.282,572.43 M35.282,557.43 L48.282,572.43" style="stroke:#181818;stroke-width:0.5;" fill="none"/><rect x="293.285" y="497.633" width="79.324" height="30.297" fill="#E97232" fill-opacity="0.741" style="stroke:#555;stroke-width:0.5;" rx="5" ry="5"/><text x="300.285" y="517.628" fill="#000" font-size="14" textLength="65.324" font-family="'Arial'">e-Med FA</text><rect x="10" y="152.742" width="523.313" height="3" fill="#EEE" style="stroke:#EEE;stroke-width:1;" rx="5" ry="5"/><line x1="10" y1="152.742" x2="533.313" y2="152.742" style="stroke:#000;stroke-width:1;"/><line x1="10" y1="155.742" x2="533.313" y2="155.742" style="stroke:#000;stroke-width:1;"/><rect x="121.516" y="141.594" width="300.282" height="24.297" fill="#EEE" style="stroke:#000;stroke-width:2;" rx="5" ry="5"/><text x="127.516" y="158.589" fill="#000" font-size="14" textLength="281.408" font-weight="700" font-family="'Arial'">Historischen Medikationsplan lesen</text><polygon points="315.947,193.023,325.947,197.023,315.947,201.023,319.947,197.023" fill="#111827" style="stroke:#111827;stroke-width:1;stroke-linejoin:miter;stroke-miterlimit:10;"/><line x1="40.282" y1="197.023" x2="321.947" y2="197.023" style="stroke:#111827;stroke-width:1;"/><text x="47.282" y="191.958" fill="#000" font-size="13" font-weight="700" font-family="'Arial'">1</text><text x="60.327" y="191.958" fill="#000" font-size="13" textLength="255.62" font-family="'Arial'">GET Medikationsplan-Collection-Bundle</text><line x1="337.947" y1="241.289" x2="379.947" y2="241.289" style="stroke:#111827;stroke-width:1;"/><line x1="379.947" y1="241.289" x2="379.947" y2="254.289" style="stroke:#111827;stroke-width:1;"/><line x1="338.947" y1="254.289" x2="379.947" y2="254.289" style="stroke:#111827;stroke-width:1;"/><polygon points="348.947,250.289,338.947,254.289,348.947,258.289,344.947,254.289" fill="#111827" style="stroke:#111827;stroke-width:1;stroke-linejoin:miter;stroke-miterlimit:10;"/><text x="344.947" y="228.657" fill="#000" font-size="13" font-weight="700" font-family="'Arial'">2</text><text x="357.993" y="221.09" fill="#000" font-size="13" textLength="168.321" font-family="'Arial'">Existiert der angeforderte</text><text x="357.993" y="236.223" fill="#000" font-size="13" textLength="113.217" font-family="'Arial'">Medikationsplan?</text><path d="M24.282,266.289 L85.22,266.289 L85.22,274.586 L75.22,284.586 L19.282,284.586 L19.282,271.289 A5,5 0 0 1 24.282,266.289" style="stroke:#111827;stroke-width:1.5;" fill="#EEF2FF"/><rect x="19.282" y="266.289" width="354.489" height="122.156" fill="none" style="stroke:#111827;stroke-width:2;" rx="5" ry="5"/><text x="34.282" y="280.284" fill="#000" font-size="14" textLength="20.938" font-weight="700" font-family="'Arial'">alt</text><text x="100.22" y="281.284" fill="#000" font-size="14" textLength="257.551" font-weight="700" font-family="'Arial'">[ja: Medikationsplan vorhanden]</text><line x1="19.282" y1="336.016" x2="373.771" y2="336.016" style="stroke:#111827;stroke-width:1;stroke-dasharray:2,2;"/><text x="24.282" y="351.011" fill="#000" font-size="14" textLength="315.978" font-weight="700" font-family="'Arial'">[nein: kein Medikationsplan vorhanden]</text><polygon points="51.282,313.016,41.282,317.016,51.282,321.016,47.282,317.016" fill="#111827" style="stroke:#111827;stroke-width:1;stroke-linejoin:miter;stroke-miterlimit:10;"/><line x1="45.282" y1="317.016" x2="326.947" y2="317.016" style="stroke:#111827;stroke-width:1;"/><text x="57.282" y="311.95" fill="#000" font-size="13" font-weight="700" font-family="'Arial'">3</text><text x="70.327" y="311.95" fill="#000" font-size="13" textLength="225.259" font-family="'Arial'">Medikationsplan-Collection-Bundle</text><polygon points="51.282,376.445,41.282,380.445,51.282,384.445,47.282,380.445" fill="#111827" style="stroke:#111827;stroke-width:1;stroke-linejoin:miter;stroke-miterlimit:10;"/><line x1="45.282" y1="380.445" x2="326.947" y2="380.445" style="stroke:#111827;stroke-width:1;stroke-dasharray:2,2;"/><text x="57.282" y="375.379" fill="#000" font-size="13" font-weight="700" font-family="'Arial'">4</text><text x="70.327" y="375.379" fill="#000" font-size="13" textLength="100.541" font-family="'Arial'">leeres Ergebnis</text><path d="M158.132,412.445 L158.132,477.445 A5,5 0 0 0 163.132,482.445 L502.132,482.445 A5,5 0 0 0 507.132,477.445 L507.132,417.445 L497.132,407.445 L163.132,407.445 A5,5 0 0 0 158.132,412.445" style="stroke:#8B95A5;stroke-width:1;" fill="url(#g5hqoekl4xfmj0)"/><path d="M497.132,407.445 L497.132,414.945 A2.5,2.5 0 0 0 499.632,417.445 L507.132,417.445 L497.132,407.445" style="stroke:#8B95A5;stroke-width:1;" fill="url(#g5hqoekl4xfmj0)"/><text x="164.132" y="425.44" fill="#111827" font-size="14" textLength="324.181" font-family="'Arial'">Die Fachanwendung liefert den angeforderten</text><text x="164.132" y="441.737" fill="#111827" font-size="14" textLength="308.362" font-family="'Arial'">persistierten Medikationsplan (unverändert,</text><text x="164.132" y="458.034" fill="#111827" font-size="14" textLength="296.064" font-family="'Arial'">inkl. aller referenzierten Ressourcen) oder</text><text x="164.132" y="474.331" fill="#111827" font-size="14" textLength="189.656" font-family="'Arial'">ein leeres Ergebnis zurück.</text><?plantuml-src ZLNRRjf047ttLqpXeQrK8jk4Yv5e1SKaLPk07FfILKABFS0MPvUkxP2awj_qC_gM7-kiWR0sLCeY8NlcxCoPCxlZbASnmZXcedR9arIgXrg0BBAirycAYpLJx1POIFQRz860R8E9l4NBEdXdKaMeFifOAgZQ-JAzB5mjbCn4j4FC6_fd898bY-I6YmNCMPoWuTbjKm8LE6RG2ESiYzEX5EarkqMez1HdSUKqueO_8ZZdfvt_ettvi4OLSx4o0Bv_2l1LHFa37j7lo_inYo9TcMiNxNrJiqQ-J4c5J15-MG3zidfeOsDkrwgH4tdOr0WpKdlcDLZZsJfPyd0bC4d08LjWg6dJ-vwRZc98uJXEsssHxQRKbzycmmH_PYZ2BSinKoaF-Pg9z5HXHS3HUSXN4NJScIFtlgi5Xo4tG4yfkIaNbHkBkkIcKncV7TjSTJ9T4FDreSRdo5lNKRzmxkRL6JiFwLqjwYiwZlhuV1nz6GNJYq5lwW2jgjDescstRPy0k3d0QpRjrk08CEvDFldN4nt1Q_RTyoD0Rpo2V5NjeUSF6buPu5_vW-cmHm3qMcxTdKLbm3Jml_dZ2LJ3gDwgkymhbp7w38KSRgCS8WX6GGxmlPPJT-jq0QnyqC1M0fP0XPx0gPZAMEj3jm6lCD8yDHHhz0B3NgLOWmwQfL9ajpDKbjNjmdRAyIHSeW3QmrSivL8aQng146D2rcxNihOaQk_tIJfmuK_A-1frESPGlzVwrFGOTGdyZj7rtGOmgHzyU-95gdkhcTI_9xeSLKf3Im4J2vpdPoZ5xw94vWCbYDE3_ZzOvwY-EwcMZ0QMe1DffClvTLvG7T8WA3HG81STMD7_ot8TaiM82XFmrG9dWYS4Yh0eNj6q2s6Xe8zJFY3b7KcoDmyumf25b753Y8o6GCnnlXLE58GJOD7eJdQwdZW4Rp91aP_-wC6UlWEBXdny1eoqKA1qJ1IFkwq1tMAPgH35Mv2wGvPMebGQF6RgwM-uEjFSyzd-3m00?></g></svg>