<svg xmlns="http://www.w3.org/2000/svg" xmlns:xlink="http://www.w3.org/1999/xlink" contentStyleType="text/css" data-diagram-type="SEQUENCE" height="1279px" preserveAspectRatio="none" style="width:771px;height:1279px;background:#F5F5F5;" version="1.1" viewBox="0 0 771 1279" width="771px" zoomAndPan="magnify"><?plantuml 1.2026.7beta1?><defs><linearGradient id="g1h9vpypnftafi0" x1="50%" x2="50%" y1="0%" y2="100%"><stop offset="0%" stop-color="#E0E5F0"/><stop offset="100%" stop-color="#D1D9E6"/></linearGradient></defs><g><rect fill="#F5F5F5" height="1279" style="stroke:none;stroke-width:1;" width="771" x="0" y="0"/><g class="title" data-source-line="1"><text fill="#000000" font-family="'Arial'" font-size="14" font-weight="700" lengthAdjust="spacing" textLength="539.0137" x="112.782" y="27.9951">Geplante Abgabe f&#252;r bestehende Medikationsplaneintr&#228;ge erstellen</text><text fill="#000000" font-family="'Arial'" font-size="14" font-weight="700" lengthAdjust="spacing" textLength="490.834" x="136.8718" y="44.292">Variante A: Vorab-Ermittlung des GroupIdentifiers (Fehlerfall)</text></g><g><title>GDA 1</title><rect fill="#156082" fill-opacity="0.50196" height="1012.9063" style="stroke:#181818;stroke-width:1;" width="10" x="196.2817" y="144.8906"/></g><g><title>e-Med FA</title><rect fill="#E97132" fill-opacity="0.50196" height="123.8594" style="stroke:#181818;stroke-width:1;" width="10" x="427.6206" y="354.8047"/></g><g><title>e-Med FA</title><rect fill="#E97132" fill-opacity="0.50196" height="247.7734" style="stroke:#181818;stroke-width:1;" width="10" x="427.6206" y="862.5938"/></g><g><title>e-Rezept</title><rect fill="#C0504D" fill-opacity="0.50196" height="139.4531" style="stroke:#181818;stroke-width:1;" width="10" x="682.4058" y="603.2813"/></g><rect fill="none" height="617.2422" rx="5" ry="5" style="stroke:#111827;stroke-width:2;" width="746.5776" x="9" y="562.5547"/><rect fill="#0F9ED5" fill-opacity="0.14510" height="161.5859" rx="5" ry="5" style="stroke:#111827;stroke-width:2;" width="716.5776" x="19" y="654.5781"/><path d="M19,703.3047 L735.5776,703.3047 L735.5776,811.1641 A5,5 0 0 1 730.5776,816.1641 L24,816.1641 A5,5 0 0 1 19,811.1641 L19,703.3047" fill="#E97132" fill-opacity="0.20784" style="stroke:none;stroke-width:1;"/><rect fill="#0F9ED5" fill-opacity="0.14510" height="242.6094" rx="5" ry="5" style="stroke:#111827;stroke-width:2;" width="589.5776" x="156" y="930.1875"/><path d="M156,1015.2109 L745.5776,1015.2109 L745.5776,1167.7969 A5,5 0 0 1 740.5776,1172.7969 L161,1172.7969 A5,5 0 0 1 156,1167.7969 L156,1015.2109" fill="#E97132" fill-opacity="0.20784" style="stroke:none;stroke-width:1;"/><rect fill="#0F9ED5" fill-opacity="0.14510" height="96.1563" rx="5" ry="5" style="stroke:#111827;stroke-width:2;" width="569.5776" x="166" y="1069.6406"/><path d="M166,1118.3672 L735.5776,1118.3672 L735.5776,1160.7969 A5,5 0 0 1 730.5776,1165.7969 L171,1165.7969 A5,5 0 0 1 166,1160.7969 L166,1118.3672" fill="#E97132" fill-opacity="0.20784" style="stroke:none;stroke-width:1;"/><g class="participant-lifeline" data-entity-uid="part1" data-qualified-name="GDA_1" data-source-line="53" id="part1-lifeline"><g><title>GDA 1</title><rect fill="#000000" fill-opacity="0.00000" height="1061.9063" width="8" x="197.2817" y="134.8906"/><line style="stroke:#181818;stroke-width:0.5;stroke-dasharray:5,5;" x1="201" x2="201" y1="134.8906" y2="1196.7969"/></g></g><g class="participant-lifeline" data-entity-uid="part2" data-qualified-name="eMed_FA" data-source-line="54" id="part2-lifeline"><g><title>e-Med FA</title><rect fill="#000000" fill-opacity="0.00000" height="1061.9063" width="8" x="428.6206" y="134.8906"/><line style="stroke:#181818;stroke-width:0.5;stroke-dasharray:5,5;" x1="431.9585" x2="431.9585" y1="134.8906" y2="1196.7969"/></g></g><g class="participant-lifeline" data-entity-uid="part3" data-qualified-name="e_Rezept" data-source-line="55" id="part3-lifeline"><g><title>e-Rezept</title><rect fill="#000000" fill-opacity="0.00000" height="1061.9063" width="8" x="683.4058" y="134.8906"/><line style="stroke:#181818;stroke-width:0.5;stroke-dasharray:5,5;" x1="687.2339" x2="687.2339" y1="134.8906" y2="1196.7969"/></g></g><g class="participant participant-head" data-entity-uid="part1" data-qualified-name="GDA_1" data-source-line="53" id="part1-head"><text fill="#000000" font-family="'Arial'" font-size="14" lengthAdjust="spacing" textLength="44.5635" x="176" y="131.5889">GDA 1</text><ellipse cx="201.2817" cy="67.0938" fill="#156082" fill-opacity="0.50196" rx="8" ry="8" style="stroke:#181818;stroke-width:0.5;"/><path d="M201.2817,75.0938 L201.2817,102.0938 M188.2817,83.0938 L214.2817,83.0938 M201.2817,102.0938 L188.2817,117.0938 M201.2817,102.0938 L214.2817,117.0938" fill="none" style="stroke:#181818;stroke-width:0.5;"/></g><g class="participant participant-tail" data-entity-uid="part1" data-qualified-name="GDA_1" data-source-line="53" id="part1-tail"><text fill="#000000" font-family="'Arial'" font-size="14" lengthAdjust="spacing" textLength="44.5635" x="176" y="1208.792">GDA 1</text><ellipse cx="201.2817" cy="1220.5938" fill="#156082" fill-opacity="0.50196" rx="8" ry="8" style="stroke:#181818;stroke-width:0.5;"/><path d="M201.2817,1228.5938 L201.2817,1255.5938 M188.2817,1236.5938 L214.2817,1236.5938 M201.2817,1255.5938 L188.2817,1270.5938 M201.2817,1255.5938 L214.2817,1270.5938" fill="none" style="stroke:#181818;stroke-width:0.5;"/></g><g class="participant participant-head" data-entity-uid="part2" data-qualified-name="eMed_FA" data-source-line="54" id="part2-head"><rect fill="#E97132" fill-opacity="0.50196" height="30.2969" rx="5" ry="5" style="stroke:#555555;stroke-width:0.5;" width="79.3242" x="392.9585" y="103.5938"/><text fill="#000000" font-family="'Arial'" font-size="14" lengthAdjust="spacing" textLength="65.3242" x="399.9585" y="123.5889">e-Med FA</text></g><g class="participant participant-tail" data-entity-uid="part2" data-qualified-name="eMed_FA" data-source-line="54" id="part2-tail"><rect fill="#E97132" fill-opacity="0.50196" height="30.2969" rx="5" ry="5" style="stroke:#555555;stroke-width:0.5;" width="79.3242" x="392.9585" y="1195.7969"/><text fill="#000000" font-family="'Arial'" font-size="14" lengthAdjust="spacing" textLength="65.3242" x="399.9585" y="1215.792">e-Med FA</text></g><g class="participant participant-head" data-entity-uid="part3" data-qualified-name="e_Rezept" data-source-line="55" id="part3-head"><rect fill="#C0504D" fill-opacity="0.50196" height="30.2969" rx="5" ry="5" style="stroke:#555555;stroke-width:0.5;" width="76.3438" x="649.2339" y="103.5938"/><text fill="#000000" font-family="'Arial'" font-size="14" lengthAdjust="spacing" textLength="62.3438" x="656.2339" y="123.5889">e-Rezept</text></g><g class="participant participant-tail" data-entity-uid="part3" data-qualified-name="e_Rezept" data-source-line="55" id="part3-tail"><rect fill="#C0504D" fill-opacity="0.50196" height="30.2969" rx="5" ry="5" style="stroke:#555555;stroke-width:0.5;" width="76.3438" x="649.2339" y="1195.7969"/><text fill="#000000" font-family="'Arial'" font-size="14" lengthAdjust="spacing" textLength="62.3438" x="656.2339" y="1215.792">e-Rezept</text></g><g><title>GDA 1</title><rect fill="#156082" fill-opacity="0.50196" height="1012.9063" style="stroke:#181818;stroke-width:1;" width="10" x="196.2817" y="144.8906"/></g><g><title>e-Med FA</title><rect fill="#E97132" fill-opacity="0.50196" height="123.8594" style="stroke:#181818;stroke-width:1;" width="10" x="427.6206" y="354.8047"/></g><g><title>e-Med FA</title><rect fill="#E97132" fill-opacity="0.50196" height="247.7734" style="stroke:#181818;stroke-width:1;" width="10" x="427.6206" y="862.5938"/></g><g><title>e-Rezept</title><rect fill="#C0504D" fill-opacity="0.50196" height="139.4531" style="stroke:#181818;stroke-width:1;" width="10" x="682.4058" y="603.2813"/></g><rect fill="#EEEEEE" height="3" rx="5" ry="5" style="stroke:#EEEEEE;stroke-width:1;" width="765.5776" x="0" y="166.0391"/><line style="stroke:#000000;stroke-width:1;" x1="0" x2="765.5776" y1="166.0391" y2="166.0391"/><line style="stroke:#000000;stroke-width:1;" x1="0" x2="765.5776" y1="169.0391" y2="169.0391"/><rect fill="#EEEEEE" height="24.2969" rx="5" ry="5" style="stroke:#000000;stroke-width:2;" width="216.2891" x="274.6443" y="154.8906"/><text fill="#000000" font-family="'Arial'" font-size="14" font-weight="700" lengthAdjust="spacing" textLength="197.415" x="280.6443" y="171.8857">Medikationsplan abrufen</text><rect fill="none" height="42.5938" rx="5" ry="5" style="stroke:#000000;stroke-width:1.5;" width="302.2827" x="173" y="189.1875"/><path d="M178,189.1875 L240,189.1875 L240,197.1875 L230,207.1875 L173,207.1875 L173,194.1875 A5,5 0 0 1 178,189.1875" fill="#EEEEEE" style="stroke:#000000;stroke-width:2;"/><text fill="#000000" font-family="'Arial'" font-size="14" font-weight="700" lengthAdjust="spacing" textLength="22.4902" x="186" y="204.1826">ref</text><a href="interactions.html#sequenzdiagramm-plan-read" target="_top" title="interactions.html#sequenzdiagramm-plan-read" xlink:actuate="onRequest" xlink:href="interactions.html#sequenzdiagramm-plan-read" xlink:show="new" xlink:title="interactions.html#sequenzdiagramm-plan-read" xlink:type="simple"><text fill="#0000EE" font-family="'Arial'" font-size="14" lengthAdjust="spacing" textLength="70.6426" x="288.8201" y="224.1826">Plan-Read</text></a><path d="M73,246.7813 L73,278.7813 A5,5 0 0 0 78,283.7813 L323,283.7813 A5,5 0 0 0 328,278.7813 L328,251.7813 L318,241.7813 L78,241.7813 A5,5 0 0 0 73,246.7813" fill="url(#g1h9vpypnftafi0)" style="stroke:#8B95A5;stroke-width:1;"/><path d="M318,241.7813 L318,249.2813 A2.5,2.5 0 0 0 320.5,251.7813 L328,251.7813 L318,241.7813" fill="url(#g1h9vpypnftafi0)" style="stroke:#8B95A5;stroke-width:1;"/><text fill="#111827" font-family="'Arial'" font-size="14" lengthAdjust="spacing" textLength="195.8018" x="79" y="259.7764">GDA erh&#228;lt Medikationsplan</text><text fill="#111827" font-family="'Arial'" font-size="14" lengthAdjust="spacing" textLength="234.377" x="79" y="276.0732">(Auslieferungs-Collection-Bundle)</text><rect fill="#EEEEEE" height="3" rx="5" ry="5" style="stroke:#EEEEEE;stroke-width:1;" width="765.5776" x="0" y="310.5234"/><line style="stroke:#000000;stroke-width:1;" x1="0" x2="765.5776" y1="310.5234" y2="310.5234"/><line style="stroke:#000000;stroke-width:1;" x1="0" x2="765.5776" y1="313.5234" y2="313.5234"/><rect fill="#EEEEEE" height="24.2969" rx="5" ry="5" style="stroke:#000000;stroke-width:2;" width="379.3398" x="193.1189" y="299.375"/><text fill="#000000" font-family="'Arial'" font-size="14" font-style="italic" font-weight="700" lengthAdjust="spacing" textLength="146.0908" x="199.1189" y="316.3701">Geplante Abgaben</text><text fill="#000000" font-family="'Arial'" font-size="14" font-weight="700" lengthAdjust="spacing" textLength="209.501" x="350.0837" y="316.3701">vorbereiten und schreiben</text><g class="message" data-entity-1="part1" data-entity-2="part2" data-source-line="71" id="msg1"><polygon fill="#111827" points="415.6206,350.8047,425.6206,354.8047,415.6206,358.8047,419.6206,354.8047" style="stroke:#111827;stroke-width:1;stroke-linejoin:miter;stroke-miterlimit:10;"/><line style="stroke:#111827;stroke-width:1;" x1="206.2817" x2="421.6206" y1="354.8047" y2="354.8047"/><text fill="#000000" font-family="'Arial'" font-size="13" font-weight="700" lengthAdjust="spacing" textLength="9.0454" x="213.2817" y="349.7388">1</text><text fill="#000000" font-family="'Arial'" font-size="13" lengthAdjust="spacing" textLength="189.2935" x="226.3271" y="349.7388">POST $groupidentifier-create&#8203;</text></g><path d="M37,372.8047 L37,404.8047 A5,5 0 0 0 42,409.8047 L358,409.8047 A5,5 0 0 0 363,404.8047 L363,377.8047 L353,367.8047 L42,367.8047 A5,5 0 0 0 37,372.8047" fill="url(#g1h9vpypnftafi0)" style="stroke:#8B95A5;stroke-width:1;"/><path d="M353,367.8047 L353,375.3047 A2.5,2.5 0 0 0 355.5,377.8047 L363,377.8047 L353,367.8047" fill="url(#g1h9vpypnftafi0)" style="stroke:#8B95A5;stroke-width:1;"/><text fill="#111827" font-family="'Arial'" font-size="14" lengthAdjust="spacing" textLength="305.9287" x="43" y="385.7998">e-Med GroupIdentifier f&#252;r "Rezeptklammer"</text><text fill="#111827" font-family="'Arial'" font-size="14" lengthAdjust="spacing" textLength="68.8311" x="43" y="402.0967">anfordern</text><g class="message" data-entity-1="part2" data-entity-2="part2" data-source-line="79" id="msg2"><line style="stroke:#111827;stroke-width:1;" x1="437.6206" x2="479.6206" y1="436.5313" y2="436.5313"/><line style="stroke:#111827;stroke-width:1;" x1="479.6206" x2="479.6206" y1="436.5313" y2="449.5313"/><line style="stroke:#111827;stroke-width:1;" x1="438.6206" x2="479.6206" y1="449.5313" y2="449.5313"/><polygon fill="#111827" points="448.6206,445.5313,438.6206,449.5313,448.6206,453.5313,444.6206,449.5313" style="stroke:#111827;stroke-width:1;stroke-linejoin:miter;stroke-miterlimit:10;"/><text fill="#000000" font-family="'Arial'" font-size="13" font-weight="700" lengthAdjust="spacing" textLength="9.0454" x="444.6206" y="431.4653">2</text><text fill="#000000" font-family="'Arial'" font-size="13" lengthAdjust="spacing" textLength="207.7397" x="457.666" y="431.4653">e-Med GroupIdentifier erzeugen</text></g><g class="message" data-entity-1="part2" data-entity-2="part1" data-source-line="80" id="msg3"><polygon fill="#111827" points="217.2817,474.6641,207.2817,478.6641,217.2817,482.6641,213.2817,478.6641" style="stroke:#111827;stroke-width:1;stroke-linejoin:miter;stroke-miterlimit:10;"/><line style="stroke:#111827;stroke-width:1;stroke-dasharray:2,2;" x1="211.2817" x2="431.6206" y1="478.6641" y2="478.6641"/><text fill="#000000" font-family="'Arial'" font-size="13" font-weight="700" lengthAdjust="spacing" textLength="9.0454" x="223.2817" y="473.5981">3</text><text fill="#000000" font-family="'Arial'" font-size="13" lengthAdjust="spacing" textLength="142.7144" x="236.3271" y="473.5981">e-Med GroupIdentifier</text></g><path d="M42,496.6641 L42,544.6641 A5,5 0 0 0 47,549.6641 L354,549.6641 A5,5 0 0 0 359,544.6641 L359,501.6641 L349,491.6641 L47,491.6641 A5,5 0 0 0 42,496.6641" fill="url(#g1h9vpypnftafi0)" style="stroke:#8B95A5;stroke-width:1;"/><path d="M349,491.6641 L349,499.1641 A2.5,2.5 0 0 0 351.5,501.6641 L359,501.6641 L349,491.6641" fill="url(#g1h9vpypnftafi0)" style="stroke:#8B95A5;stroke-width:1;"/><text fill="#111827" font-family="'Arial'" font-size="14" lengthAdjust="spacing" textLength="57.8799" x="48" y="509.6592">Erstellte</text><text fill="#111827" font-family="'Arial'" font-size="14" font-style="italic" lengthAdjust="spacing" textLength="130.5459" x="110.3301" y="509.6592">Geplante Abgaben</text><text fill="#111827" font-family="'Arial'" font-size="14" lengthAdjust="spacing" textLength="94.2471" x="245.3262" y="509.6592">referenzieren</text><text fill="#111827" font-family="'Arial'" font-size="14" lengthAdjust="spacing" textLength="287.0342" x="48" y="525.9561">zugeh&#246;rige Medikationsplaneintr&#228;ge und</text><text fill="#111827" font-family="'Arial'" font-size="14" lengthAdjust="spacing" textLength="225.4355" x="48" y="542.2529">enthalten e-Med GroupIdentifier</text><path d="M14,562.5547 L80.373,562.5547 L80.373,570.8516 L70.373,580.8516 L9,580.8516 L9,567.5547 A5,5 0 0 1 14,562.5547" fill="#EEF2FF" style="stroke:#111827;stroke-width:1.5;"/><rect fill="none" height="617.2422" rx="5" ry="5" style="stroke:#111827;stroke-width:2;" width="746.5776" x="9" y="562.5547"/><text fill="#000000" font-family="'Arial'" font-size="14" font-weight="700" lengthAdjust="spacing" textLength="26.373" x="24" y="576.5498">par</text><text fill="#000000" font-family="'Arial'" font-size="14" font-weight="700" lengthAdjust="spacing" textLength="168.1504" x="95.373" y="577.5498">[Erstellung e-Rezept]</text><g class="message" data-entity-1="part1" data-entity-2="part3" data-source-line="91" id="msg4"><polygon fill="#111827" points="670.4058,599.2813,680.4058,603.2813,670.4058,607.2813,674.4058,603.2813" style="stroke:#111827;stroke-width:1;stroke-linejoin:miter;stroke-miterlimit:10;"/><line style="stroke:#111827;stroke-width:1;" x1="206.2817" x2="676.4058" y1="603.2813" y2="603.2813"/><text fill="#000000" font-family="'Arial'" font-size="13" font-weight="700" lengthAdjust="spacing" textLength="9.0454" x="213.2817" y="598.2153">4</text><text fill="#000000" font-family="'Arial'" font-size="13" lengthAdjust="spacing" textLength="169.5713" x="226.3271" y="598.2153">Trigger e-Rezept erstellen</text></g><path d="M88,621.2813 L88,637.2813 A5,5 0 0 0 93,642.2813 L307,642.2813 A5,5 0 0 0 312,637.2813 L312,626.2813 L302,616.2813 L93,616.2813 A5,5 0 0 0 88,621.2813" fill="url(#g1h9vpypnftafi0)" style="stroke:#8B95A5;stroke-width:1;"/><path d="M302,616.2813 L302,623.7813 A2.5,2.5 0 0 0 304.5,626.2813 L312,626.2813 L302,616.2813" fill="url(#g1h9vpypnftafi0)" style="stroke:#8B95A5;stroke-width:1;"/><text fill="#111827" font-family="'Arial'" font-size="14" lengthAdjust="spacing" textLength="203.6357" x="94" y="634.2764">Erstellung e-Rezept ausl&#246;sen</text><path d="M24,654.5781 L84.9385,654.5781 L84.9385,662.875 L74.9385,672.875 L19,672.875 L19,659.5781 A5,5 0 0 1 24,654.5781" fill="#EEF2FF" style="stroke:#111827;stroke-width:1.5;"/><rect fill="none" height="161.5859" rx="5" ry="5" style="stroke:#111827;stroke-width:2;" width="716.5776" x="19" y="654.5781"/><text fill="#000000" font-family="'Arial'" font-size="14" font-weight="700" lengthAdjust="spacing" textLength="20.9385" x="34" y="668.5732">alt</text><text fill="#000000" font-family="'Arial'" font-size="14" font-weight="700" lengthAdjust="spacing" textLength="144.8193" x="99.9385" y="669.5732">[e-Rezept erstellt]</text><g class="message" data-entity-1="part3" data-entity-2="part1" data-source-line="98" id="msg5"><polygon fill="#111827" points="217.2817,691.3047,207.2817,695.3047,217.2817,699.3047,213.2817,695.3047" style="stroke:#111827;stroke-width:1;stroke-linejoin:miter;stroke-miterlimit:10;"/><line style="stroke:#111827;stroke-width:1;stroke-dasharray:2,2;" x1="211.2817" x2="681.4058" y1="695.3047" y2="695.3047"/><text fill="#000000" font-family="'Arial'" font-size="13" font-weight="700" lengthAdjust="spacing" textLength="9.0454" x="223.2817" y="690.2388">5</text><text fill="#000000" font-family="'Arial'" font-size="13" lengthAdjust="spacing" textLength="18.7573" x="236.3271" y="690.2388">OK</text></g><line style="stroke:#111827;stroke-width:1;stroke-dasharray:2,2;" x1="19" x2="735.5776" y1="704.3047" y2="704.3047"/><text fill="#000000" font-family="'Arial'" font-size="14" font-weight="700" lengthAdjust="spacing" textLength="137.833" x="24" y="717.2998">[e-Rezept Fehler]</text><g class="message" data-entity-1="part3" data-entity-2="part1" data-source-line="101" id="msg6"><polygon fill="#111827" points="217.2817,738.7344,207.2817,742.7344,217.2817,746.7344,213.2817,742.7344" style="stroke:#111827;stroke-width:1;stroke-linejoin:miter;stroke-miterlimit:10;"/><line style="stroke:#111827;stroke-width:1;stroke-dasharray:2,2;" x1="211.2817" x2="686.4058" y1="742.7344" y2="742.7344"/><text fill="#000000" font-family="'Arial'" font-size="13" font-weight="700" lengthAdjust="spacing" textLength="9.0454" x="223.2817" y="737.6685">6</text><text fill="#000000" font-family="'Arial'" font-size="13" lengthAdjust="spacing" textLength="40.6694" x="236.3271" y="737.6685">Fehler</text></g><g class="message" data-entity-1="part1" data-entity-2="part2" data-source-line="103" id="msg7"><polygon fill="#111827" points="420.6206,767.8672,430.6206,771.8672,420.6206,775.8672,424.6206,771.8672" style="stroke:#111827;stroke-width:1;stroke-linejoin:miter;stroke-miterlimit:10;"/><line style="stroke:#111827;stroke-width:1;" x1="206.2817" x2="426.6206" y1="771.8672" y2="771.8672"/><text fill="#000000" font-family="'Arial'" font-size="13" font-weight="700" lengthAdjust="spacing" textLength="9.0454" x="213.2817" y="766.8013">7</text><text fill="#000000" font-family="'Arial'" font-size="13" lengthAdjust="spacing" textLength="176.3315" x="226.3271" y="766.8013">POST $prescription-discard&#8203;</text></g><path d="M29,789.8672 L29,805.8672 A5,5 0 0 0 34,810.8672 L367,810.8672 A5,5 0 0 0 372,805.8672 L372,794.8672 L362,784.8672 L34,784.8672 A5,5 0 0 0 29,789.8672" fill="url(#g1h9vpypnftafi0)" style="stroke:#8B95A5;stroke-width:1;"/><path d="M362,784.8672 L362,792.3672 A2.5,2.5 0 0 0 364.5,794.8672 L372,794.8672 L362,784.8672" fill="url(#g1h9vpypnftafi0)" style="stroke:#8B95A5;stroke-width:1;"/><text fill="#111827" font-family="'Arial'" font-size="14" lengthAdjust="spacing" textLength="119.082" x="35" y="802.8623">Siehe Use Case "</text><text fill="#111827" font-family="'Arial'" font-size="14" font-style="italic" lengthAdjust="spacing" textLength="121.6729" x="154.082" y="802.8623">Geplante Abgabe</text><text fill="#111827" font-family="'Arial'" font-size="14" lengthAdjust="spacing" textLength="77.3281" x="280.2051" y="802.8623">verwerfen"</text><line style="stroke:#111827;stroke-width:1;stroke-dasharray:2,2;" x1="9" x2="755.5776" y1="824.1641" y2="824.1641"/><text fill="#000000" font-family="'Arial'" font-size="14" font-weight="700" lengthAdjust="spacing" textLength="192.6436" x="14" y="837.1592">[gleichzeitige Erstellung</text><text fill="#000000" font-family="'Arial'" font-size="14" font-style="italic" font-weight="700" lengthAdjust="spacing" textLength="136.124" x="211.5176" y="837.1592">Geplante Abgabe</text><text fill="#000000" font-family="'Arial'" font-size="14" font-weight="700" lengthAdjust="spacing" textLength="6.3984" x="347.6416" y="837.1592">]</text><g class="message" data-entity-1="part1" data-entity-2="part2" data-source-line="112" id="msg8"><polygon fill="#111827" points="415.6206,858.5938,425.6206,862.5938,415.6206,866.5938,419.6206,862.5938" style="stroke:#111827;stroke-width:1;stroke-linejoin:miter;stroke-miterlimit:10;"/><line style="stroke:#111827;stroke-width:1;" x1="206.2817" x2="421.6206" y1="862.5938" y2="862.5938"/><text fill="#000000" font-family="'Arial'" font-size="13" font-weight="700" lengthAdjust="spacing" textLength="9.0454" x="213.2817" y="857.5278">8</text><text fill="#000000" font-family="'Arial'" font-size="13" lengthAdjust="spacing" textLength="161.6685" x="226.3271" y="857.5278">POST $prescription-write</text></g><path d="M45,880.5938 L45,912.5938 A5,5 0 0 0 50,917.5938 L351,917.5938 A5,5 0 0 0 356,912.5938 L356,885.5938 L346,875.5938 L50,875.5938 A5,5 0 0 0 45,880.5938" fill="url(#g1h9vpypnftafi0)" style="stroke:#8B95A5;stroke-width:1;"/><path d="M346,875.5938 L346,883.0938 A2.5,2.5 0 0 0 348.5,885.5938 L356,885.5938 L346,875.5938" fill="url(#g1h9vpypnftafi0)" style="stroke:#8B95A5;stroke-width:1;"/><text fill="#111827" font-family="'Arial'" font-size="14" lengthAdjust="spacing" textLength="239.9209" x="51" y="893.5889">Transaction Bundle mit Geplanten</text><text fill="#111827" font-family="'Arial'" font-size="14" lengthAdjust="spacing" textLength="290.2266" x="51" y="909.8857">Abgaben an Fachanwendung &#252;bermitteln</text><path d="M161,930.1875 L221.9385,930.1875 L221.9385,938.4844 L211.9385,948.4844 L156,948.4844 L156,935.1875 A5,5 0 0 1 161,930.1875" fill="#EEF2FF" style="stroke:#111827;stroke-width:1.5;"/><rect fill="none" height="242.6094" rx="5" ry="5" style="stroke:#111827;stroke-width:2;" width="589.5776" x="156" y="930.1875"/><text fill="#000000" font-family="'Arial'" font-size="14" font-weight="700" lengthAdjust="spacing" textLength="20.9385" x="171" y="944.1826">alt</text><text fill="#000000" font-family="'Arial'" font-size="14" font-weight="700" lengthAdjust="spacing" textLength="6.3984" x="236.9385" y="945.1826">[</text><text fill="#000000" font-family="'Arial'" font-size="14" font-style="italic" font-weight="700" lengthAdjust="spacing" textLength="136.124" x="243.3369" y="945.1826">Geplante Abgabe</text><text fill="#000000" font-family="'Arial'" font-size="14" font-weight="700" lengthAdjust="spacing" textLength="63.6084" x="384.335" y="945.1826">erstellt]</text><g class="message" data-entity-1="part2" data-entity-2="part1" data-source-line="120" id="msg9"><polygon fill="#111827" points="217.2817,966.9141,207.2817,970.9141,217.2817,974.9141,213.2817,970.9141" style="stroke:#111827;stroke-width:1;stroke-linejoin:miter;stroke-miterlimit:10;"/><line style="stroke:#111827;stroke-width:1;stroke-dasharray:2,2;" x1="211.2817" x2="426.6206" y1="970.9141" y2="970.9141"/><text fill="#000000" font-family="'Arial'" font-size="13" font-weight="700" lengthAdjust="spacing" textLength="9.0454" x="223.2817" y="965.8481">9</text><text fill="#000000" font-family="'Arial'" font-size="13" lengthAdjust="spacing" textLength="18.7573" x="236.3271" y="965.8481">OK</text></g><path d="M296,988.9141 L296,1004.9141 A5,5 0 0 0 301,1009.9141 L563,1009.9141 A5,5 0 0 0 568,1004.9141 L568,993.9141 L558,983.9141 L301,983.9141 A5,5 0 0 0 296,988.9141" fill="url(#g1h9vpypnftafi0)" style="stroke:#8B95A5;stroke-width:1;"/><path d="M558,983.9141 L558,991.4141 A2.5,2.5 0 0 0 560.5,993.9141 L568,993.9141 L558,983.9141" fill="url(#g1h9vpypnftafi0)" style="stroke:#8B95A5;stroke-width:1;"/><text fill="#111827" font-family="'Arial'" font-size="14" lengthAdjust="spacing" textLength="251.6309" x="302" y="1001.9092">Geplante Abgabe 1 + 2 gespeichert</text><line style="stroke:#111827;stroke-width:1;stroke-dasharray:2,2;" x1="156" x2="745.5776" y1="1016.2109" y2="1016.2109"/><text fill="#000000" font-family="'Arial'" font-size="14" font-weight="700" lengthAdjust="spacing" textLength="6.3984" x="161" y="1029.2061">[</text><text fill="#000000" font-family="'Arial'" font-size="14" font-style="italic" font-weight="700" lengthAdjust="spacing" textLength="136.124" x="167.3984" y="1029.2061">Geplante Abgabe</text><text fill="#000000" font-family="'Arial'" font-size="14" font-weight="700" lengthAdjust="spacing" textLength="56.6221" x="308.3965" y="1029.2061">Fehler]</text><g class="message" data-entity-1="part2" data-entity-2="part1" data-source-line="127" id="msg10"><polygon fill="#111827" points="217.2817,1050.6406,207.2817,1054.6406,217.2817,1058.6406,213.2817,1054.6406" style="stroke:#111827;stroke-width:1;stroke-linejoin:miter;stroke-miterlimit:10;"/><line style="stroke:#111827;stroke-width:1;stroke-dasharray:2,2;" x1="211.2817" x2="426.6206" y1="1054.6406" y2="1054.6406"/><text fill="#000000" font-family="'Arial'" font-size="13" font-weight="700" lengthAdjust="spacing" textLength="18.0908" x="223.2817" y="1049.5747">10</text><text fill="#000000" font-family="'Arial'" font-size="13" lengthAdjust="spacing" textLength="40.6694" x="245.3726" y="1049.5747">Fehler</text></g><path d="M171,1069.6406 L231.9385,1069.6406 L231.9385,1077.9375 L221.9385,1087.9375 L166,1087.9375 L166,1074.6406 A5,5 0 0 1 171,1069.6406" fill="#EEF2FF" style="stroke:#111827;stroke-width:1.5;"/><rect fill="none" height="96.1563" rx="5" ry="5" style="stroke:#111827;stroke-width:2;" width="569.5776" x="166" y="1069.6406"/><text fill="#000000" font-family="'Arial'" font-size="14" font-weight="700" lengthAdjust="spacing" textLength="20.9385" x="181" y="1083.6357">alt</text><text fill="#000000" font-family="'Arial'" font-size="14" font-weight="700" lengthAdjust="spacing" textLength="304.6094" x="246.9385" y="1084.6357">[Geplante Abgabe erneut &#252;bermitteln]</text><g class="message" data-entity-1="part1" data-entity-2="part2" data-source-line="130" id="msg11"><polygon fill="#111827" points="420.6206,1106.3672,430.6206,1110.3672,420.6206,1114.3672,424.6206,1110.3672" style="stroke:#111827;stroke-width:1;stroke-linejoin:miter;stroke-miterlimit:10;"/><line style="stroke:#111827;stroke-width:1;" x1="206.2817" x2="426.6206" y1="1110.3672" y2="1110.3672"/><text fill="#000000" font-family="'Arial'" font-size="13" font-weight="700" lengthAdjust="spacing" textLength="18.0908" x="213.2817" y="1105.3013">11</text><text fill="#000000" font-family="'Arial'" font-size="13" lengthAdjust="spacing" textLength="161.6685" x="235.3726" y="1105.3013">POST $prescription-write</text></g><line style="stroke:#111827;stroke-width:1;stroke-dasharray:2,2;" x1="166" x2="735.5776" y1="1119.3672" y2="1119.3672"/><text fill="#000000" font-family="'Arial'" font-size="14" font-weight="700" lengthAdjust="spacing" textLength="187.8652" x="171" y="1132.3623">[Fehler nicht behebbar]</text><g class="message" data-entity-1="part1" data-entity-2="part3" data-source-line="134" id="msg12"><polygon fill="#111827" points="675.4058,1153.7969,685.4058,1157.7969,675.4058,1161.7969,679.4058,1157.7969" style="stroke:#111827;stroke-width:1;stroke-linejoin:miter;stroke-miterlimit:10;"/><line style="stroke:#111827;stroke-width:1;" x1="201.2817" x2="681.4058" y1="1157.7969" y2="1157.7969"/><text fill="#000000" font-family="'Arial'" font-size="13" font-weight="700" lengthAdjust="spacing" textLength="18.0908" x="208.2817" y="1152.731">12</text><text fill="#000000" font-family="'Arial'" font-size="13" lengthAdjust="spacing" textLength="310.0576" x="230.3726" y="1152.731">e-Rezept von e-Med GroupIdentifier entkoppeln</text></g><?plantuml-src ZLVDRjj64BxpAQPIWIPerOgoPLj6R42EAJT84mcoaaFJm5Y98t4XQiaiLrQZea3lVOqyGqwvwKtw99tTfIZ-AIqD6-JExCmtt_piMd4L8jnX73AX4FhJ1PiYp7TV94mnKHYWy15UeS-NJF5895eHkL1ozsc1W99qmX35R-8jazpQk8ItaMJJbYTNNAbmBHRWOm9tCbh7BtmKYiyvROGd0mn2b7CMXayTvxjaoKNC95i1cwb8tgkFX8njC8bMw3W7wJIIFihdKHX9QBRDavUosN91deIVQiox-YUdaGJCZpQSK97d17EIT9iKAC7D6_LnpjQX6aH2lMOhX4QVOWqRzHhtV8lWdjOBZy7--MECCkHYcLFml3g5DvGG_O8L-3VHxoFc-pgoJhkuVfFdh6kUFAKYehpzuG3SbDd3DdRdxLRJT_qUdccDlAMBQQ_Bkjdg9E2pfS0a0PVMnZass_IznwQjvAXmNVUYSqvhzwMy_9b7cE27DOgPHJbYKl4PZwdSwW8hAbJgmJn5fMfcAk9zLWk27Dq0VIcZJJaeirZanIpLUSm4rjS9BPcUASIOMRQYIhvmtZ7HvNOUt7SqgTzGEUhoUJxyPJX-kBljFxX0JzFjdhKlEXVj6eMEKUYTdRNFRoiAe_xaXVTweYtqpcuwfnM5_cW8vccs1ptljjihAtYllDk7GPyKlDwvUrB5u3sClL-zqGIQpzlTzgd6KD8OleI2ZqwtR68y7ewDWlLnGWtWc443bWAMG8FUm6tacN7YGxO1QGvgd5eLM_G1WtwZ64DH_s6CMunLki5-D4en4OgrYiHwDKNfE5TNvM4BR2hNSnHmTMK0yqT6pMenvu5Ad4FqY6auFsHWB-7TEvhNAFLUilbZe5PXq_RJrkTiGUsrQcbFBOdCXv5-6zFR-_UEOmR3mQgZ2K8Px3w5geBJUT9V9o77EKeQ-KcBAZ94uxDrGmKQubE73XCpQqoSp_XrwTmHptxYr_0OIQ82kQAOQHyaiu2-fYa3Dl3MzJw-InWDxoVmhUw2c6UdIsj6mIZyvw-_eHg5pLtfFBA7NiCcQHaIAIWR3XDpqqCYXprBmfxYOWNiL_COwpsYtE9wWUAmXVOOY4TsE3wMdLUZy-oPJ8l769OwHvHzhl-2ioKCmUwpv8kldFIK2Q901IpKUQb7Tw28kW1I7FhutzU-emTJbi2qEovXGguNcezKxN2j8Fr3mFjkAlKFG9a1gFCDZAfpzpanHWz8oK6e3aEa344vUcPahdC96huq8csCJgl2bCcCs0lEKHDM34QUpsogQjQFrNiiCPb97fl-ydaoOzAdQjzZgYE5ZbXE5pfue-4o-jEe5eZjG9GRkfUXQ5ZeUxBCg-EOU1SXybcmfJRLPPFZkzvcCVDV2MKZkV7q7qrM5zz4Cf7OAGTsuW1TGBFBhSvxsWL0ush0PW4J6uf8ezvzePcZhwiO5kh3a5cea2ES5UkbsizKBgMqx1lOdblbAxWBtqC75fZ4ccUKgfYAkh8xWYnVX5LSgTI82t6M0T4CnBKg4_M_IzJcrQ8e0q_xG52WYlxj270wPJ8rNZFnobwpEPBrtMCaZerSePPH71_0v-nRYywUwBJSwVTV?></g></svg>