<?xml version="1.0" encoding="us-ascii" standalone="no"?><svg xmlns="http://www.w3.org/2000/svg" xmlns:xlink="http://www.w3.org/1999/xlink" contentStyleType="text/css" height="604px" preserveAspectRatio="none" style="width:544px;height:604px;background:#F5F5F5;" version="1.1" viewBox="0 0 544 604" width="544px" zoomAndPan="magnify"><defs><linearGradient id="g1kwek5kt62sha0" x1="50%" x2="50%" y1="0%" y2="100%"><stop offset="0%" stop-color="#E0E5F0"/><stop offset="100%" stop-color="#D1D9E6"/></linearGradient></defs><g><rect fill="#F5F5F5" height="604" style="stroke:none;stroke-width:1.0;" width="544" x="0" y="0"/><text fill="#000000" font-family="Arial" font-size="14" font-weight="bold" lengthAdjust="spacing" textLength="183" x="176.5" y="28.1318">Medikationsplaneintrag in</text><text fill="#000000" font-family="Arial" font-size="14" font-weight="bold" lengthAdjust="spacing" textLength="199" x="168.5" y="44.2305">Medikationsplan hinzuf&#252;gen</text><rect fill="#156082" fill-opacity="0.50196" height="370.7339" style="stroke:#181818;stroke-width:1.0;" width="10" x="145" y="144.2959"/><line style="stroke:#181818;stroke-width:0.5;stroke-dasharray:5.0,5.0;" x1="150" x2="150" y1="134.2959" y2="524.0298"/><line style="stroke:#181818;stroke-width:0.5;stroke-dasharray:5.0,5.0;" x1="411" x2="411" y1="134.2959" y2="524.0298"/><text fill="#000000" font-family="Arial" font-size="14" lengthAdjust="spacing" textLength="42" x="126" y="131.3291">GDA 1</text><ellipse cx="150" cy="66.6973" fill="#156082" fill-opacity="0.50196" rx="8" ry="8" style="stroke:#181818;stroke-width:0.5;"/><path d="M150,74.6973 L150,101.6973 M137,82.6973 L163,82.6973 M150,101.6973 L137,116.6973 M150,101.6973 L163,116.6973 " fill="none" style="stroke:#181818;stroke-width:0.5;"/><text fill="#000000" font-family="Arial" font-size="14" lengthAdjust="spacing" textLength="42" x="126" y="536.1616">GDA 1</text><ellipse cx="150" cy="547.6284" fill="#156082" fill-opacity="0.50196" rx="8" ry="8" style="stroke:#181818;stroke-width:0.5;"/><path d="M150,555.6284 L150,582.6284 M137,563.6284 L163,563.6284 M150,582.6284 L137,597.6284 M150,582.6284 L163,597.6284 " fill="none" style="stroke:#181818;stroke-width:0.5;"/><rect fill="#E97232" fill-opacity="0.74118" height="30.0986" rx="5" ry="5" style="stroke:#555555;stroke-width:0.5;" width="76" x="373" y="103.1973"/><text fill="#000000" font-family="Arial" font-size="14" lengthAdjust="spacing" textLength="62" x="380" y="123.3291">e-Med FA</text><rect fill="#E97232" fill-opacity="0.74118" height="30.0986" rx="5" ry="5" style="stroke:#555555;stroke-width:0.5;" width="76" x="373" y="523.0298"/><text fill="#000000" font-family="Arial" font-size="14" lengthAdjust="spacing" textLength="62" x="380" y="543.1616">e-Med FA</text><rect fill="#156082" fill-opacity="0.50196" height="370.7339" style="stroke:#181818;stroke-width:1.0;" width="10" x="145" y="144.2959"/><rect fill="#EEEEEE" height="3" rx="5" ry="5" style="stroke:#EEEEEE;stroke-width:1.0;" width="537" x="0" y="165.3452"/><line style="stroke:#000000;stroke-width:1.0;" x1="0" x2="537" y1="165.3452" y2="165.3452"/><line style="stroke:#000000;stroke-width:1.0;" x1="0" x2="537" y1="168.3452" y2="168.3452"/><rect fill="#EEEEEE" height="24.0986" rx="5" ry="5" style="stroke:#000000;stroke-width:2.0;" width="193" x="172" y="154.2959"/><text fill="#000000" font-family="Arial" font-size="14" font-weight="bold" lengthAdjust="spacing" textLength="175" x="178" y="171.4277">Medikationsplan abrufen</text><rect fill="none" height="42.1973" rx="5" ry="5" style="stroke:#000000;stroke-width:1.5;" width="349" x="123" y="188.3945"/><path d="M128,188.3945 L188,188.3945 L188,196.3945 L178,206.3945 L123,206.3945 L123,193.3945 A5,5 0 0 1 128,188.3945 " fill="#EEEEEE" style="stroke:#000000;stroke-width:2.0;"/><text fill="#000000" font-family="Arial" font-size="14" font-weight="bold" lengthAdjust="spacing" textLength="20" x="136" y="203.5264">ref</text><a href="interactions.html#sequenzdiagramm-plan-read" target="_top" title="interactions.html#sequenzdiagramm-plan-read" xlink:actuate="onRequest" xlink:href="interactions.html#sequenzdiagramm-plan-read" xlink:show="new" xlink:title="interactions.html#sequenzdiagramm-plan-read" xlink:type="simple"><text fill="#0000EE" font-family="Arial" font-size="14" lengthAdjust="spacing" textLength="67" x="264" y="223.5264">Plan-Read</text></a><path d="M5,245.5918 L5,277.5918 A5,5 0 0 0 10,282.5918 L290,282.5918 A5,5 0 0 0 295,277.5918 L295,250.5918 L285,240.5918 L10,240.5918 A5,5 0 0 0 5,245.5918 " fill="url(#g1kwek5kt62sha0)" style="stroke:#8B95A5;stroke-width:1.0;"/><path d="M285,240.5918 L285,248.0918 A2.5,2.5 0 0 0 287.5,250.5918 L295,250.5918 L285,240.5918 " fill="url(#g1kwek5kt62sha0)" style="stroke:#8B95A5;stroke-width:1.0;"/><text fill="#111827" font-family="Arial" font-size="14" lengthAdjust="spacing" textLength="265" x="11" y="258.7236">GDA erh&#228;lt den aktuellen Medikationsplan</text><text fill="#111827" font-family="Arial" font-size="14" lengthAdjust="spacing" textLength="153" x="11" y="274.8223">im Auslieferungs-Bundle</text><rect fill="#EEEEEE" height="3" rx="5" ry="5" style="stroke:#EEEEEE;stroke-width:1.0;" width="537" x="0" y="308.8384"/><line style="stroke:#000000;stroke-width:1.0;" x1="0" x2="537" y1="308.8384" y2="308.8384"/><line style="stroke:#000000;stroke-width:1.0;" x1="0" x2="537" y1="311.8384" y2="311.8384"/><rect fill="#EEEEEE" height="24.0986" rx="5" ry="5" style="stroke:#000000;stroke-width:2.0;" width="352" x="92.5" y="297.7891"/><text fill="#000000" font-family="Arial" font-size="14" font-weight="bold" lengthAdjust="spacing" textLength="334" x="98.5" y="314.9209">Medikationsplan bearbeiten und und schreiben</text><line style="stroke:#111827;stroke-width:1.0;" x1="155" x2="197" y1="352.8364" y2="352.8364"/><line style="stroke:#111827;stroke-width:1.0;" x1="197" x2="197" y1="352.8364" y2="365.8364"/><line style="stroke:#111827;stroke-width:1.0;" x1="156" x2="197" y1="365.8364" y2="365.8364"/><polygon fill="#111827" points="166,361.8364,156,365.8364,166,369.8364,162,365.8364" style="stroke:#111827;stroke-width:1.0;"/><text fill="#000000" font-family="Arial" font-size="13" font-weight="bold" lengthAdjust="spacing" textLength="7" x="162" y="348.0815">1</text><text fill="#000000" font-family="Arial" font-size="13" lengthAdjust="spacing" textLength="159" x="173" y="348.0815">Neuen Planeintrag erstellen</text><line style="stroke:#111827;stroke-width:1.0;" x1="155" x2="197" y1="409.7339" y2="409.7339"/><line style="stroke:#111827;stroke-width:1.0;" x1="197" x2="197" y1="409.7339" y2="422.7339"/><line style="stroke:#111827;stroke-width:1.0;" x1="156" x2="197" y1="422.7339" y2="422.7339"/><polygon fill="#111827" points="166,418.7339,156,422.7339,166,426.7339,162,422.7339" style="stroke:#111827;stroke-width:1.0;"/><text fill="#000000" font-family="Arial" font-size="13" font-weight="bold" lengthAdjust="spacing" textLength="7" x="162" y="397.5046">2</text><text fill="#000000" font-family="Arial" font-size="13" lengthAdjust="spacing" textLength="169" x="173" y="390.0303">Planeintrag mit List.entry.flag</text><text fill="#000000" font-family="Arial" font-size="13" lengthAdjust="spacing" textLength="226" x="173" y="404.979">"new" dem Medikationsplan hinzuf&#252;gen</text><rect fill="none" height="42.1973" rx="5" ry="5" style="stroke:#000000;stroke-width:1.5;" width="349" x="123" y="430.7339"/><path d="M128,430.7339 L188,430.7339 L188,438.7339 L178,448.7339 L123,448.7339 L123,435.7339 A5,5 0 0 1 128,430.7339 " fill="#EEEEEE" style="stroke:#000000;stroke-width:2.0;"/><text fill="#000000" font-family="Arial" font-size="14" font-weight="bold" lengthAdjust="spacing" textLength="20" x="136" y="445.8657">ref</text><a href="interactions.html#plan-write" target="_top" title="interactions.html#plan-write" xlink:actuate="onRequest" xlink:href="interactions.html#plan-write" xlink:show="new" xlink:title="interactions.html#plan-write" xlink:type="simple"><text fill="#0000EE" font-family="Arial" font-size="14" lengthAdjust="spacing" textLength="66" x="264.5" y="465.8657">Plan-Write</text></a><path d="M289,487.9312 L289,503.9312 A5,5 0 0 0 294,508.9312 L527,508.9312 A5,5 0 0 0 532,503.9312 L532,492.9312 L522,482.9312 L294,482.9312 A5,5 0 0 0 289,487.9312 " fill="url(#g1kwek5kt62sha0)" style="stroke:#8B95A5;stroke-width:1.0;"/><path d="M522,482.9312 L522,490.4312 A2.5,2.5 0 0 0 524.5,492.9312 L532,492.9312 L522,482.9312 " fill="url(#g1kwek5kt62sha0)" style="stroke:#8B95A5;stroke-width:1.0;"/><text fill="#111827" font-family="Arial" font-size="14" lengthAdjust="spacing" textLength="222" x="295" y="501.063">Neuer Medikationsplan gespeichert</text><!--SRC=[bLLTRzem57tthxY3XxsCAWdb8vMO54hQJMiBeaoJrbR8a9jWaJZCSShQQVzcFsDl_MDp70hvO9DcXEJudjnxph5z8vaC4QxHOsigMSoJJKWvCYu53O3nUru9mOhnvzH_-HqW9-HjicPyGmMDW2vbB6xbayf6jvZ44H9oY2vYuQ4uZyDOGDFGenYbotKWufHxEuJVoNu5HBAYNhnbF02VXWaM8hlN14S1PZ6fXpvDGtaHStb38uI68nWD6ySHj-mPmJmz7lmRxGzF6nGXu-i2m7MF0JvpJq-mHdyOVvzGpykKMKPvVLZqhAD7qL8UIuGV161OTGyDxFX6g-cPdetT357Cr5_O7ThPhyvMRBdcc2HWghLfmKr3FRzoox8Kh31Dis_rrDfjPLz-5Xac-2r5linPJgYGRCasbCjZmig0sddGemogxqmj_BghfK31RW17Y7XR5QKNoxxefMCLzu6yLbijNIhccvB6VUOyLDilz2sjhl3ceRoLcVf67SVi-9oFhyRJ-UN8cPkWHjFiT8s-rJUE02mDiBjTepUg0IRExADxCyiosDsXTLe3E9CnwD4qBcntrB6h0FVQ7Sql70L0ksUrhOLN1SodxbTtCeFcqcltsXQrgpB6dw1Km-fKKqoduwa6k7RFR5jjTG5qdu7S0Pf0Gyt0R1ID8Pl3PWEg_fNHpA3OKWzmuJJA4bJELCOyZHOe204o65Jx8T25I7taC1Xe0koHghkNSoWM9W9zY1znn-_TllePtDsfdeeYUrabFLd9A6pcz-FPOpHGroLgPQLQ0ga7asmsLRE71qBqHJza9PbY5AkNNw5KNKgHMyiKmr3DghG9Yy19av2XZoBbGT8QgbEdEZH1xka6GewfNI0L2sHIPLHm_K-MAu5iiRCWLzvwdnCwWnjKEZJfroy7YaHgJZLi4HKn2LSiaIUedfzE_906zxp1STjGmYBuvwVd_wpMrcw5qfHx-oMRbitT9I2P656h7M2oGRPSeP07y_u0]--></g></svg>