<?xml version="1.0" encoding="us-ascii" standalone="no"?><svg xmlns="http://www.w3.org/2000/svg" xmlns:xlink="http://www.w3.org/1999/xlink" contentStyleType="text/css" height="1214px" preserveAspectRatio="none" style="width:849px;height:1214px;background:#F5F5F5;" version="1.1" viewBox="0 0 849 1214" width="849px" zoomAndPan="magnify"><defs><linearGradient id="g1hen9028u14b0" x1="50%" x2="50%" y1="0%" y2="100%"><stop offset="0%" stop-color="#E0E5F0"/><stop offset="100%" stop-color="#D1D9E6"/></linearGradient></defs><g><rect fill="#F5F5F5" height="1214" style="stroke:none;stroke-width:1.0;" width="849" x="0" y="0"/><text fill="#000000" font-family="Arial" font-size="14" font-weight="bold" lengthAdjust="spacing" textLength="480" x="180.5" y="28.1318">Geplante Abgabe f&#252;r bestehende Medikationsplaneintr&#228;ge erstellen</text><text fill="#000000" font-family="Arial" font-size="14" font-weight="bold" lengthAdjust="spacing" textLength="597" x="122" y="44.2305">Variante C: Nachtr&#228;gliche Verkn&#252;pfung des e-Rezepts mit dem e-Med GroupIdentifier</text><rect fill="#156082" fill-opacity="0.50196" height="981.0479" style="stroke:#181818;stroke-width:1.0;" width="10" x="155" y="144.2959"/><rect fill="#E97232" fill-opacity="0.74118" height="263.4854" style="stroke:#181818;stroke-width:1.0;" width="10" x="455" y="671.8662"/><rect fill="#CD3732" fill-opacity="0.66275" height="154.3906" style="stroke:#181818;stroke-width:1.0;" width="10" x="679" y="463.4282"/><rect fill="#CD3732" fill-opacity="0.66275" height="138.0435" style="stroke:#181818;stroke-width:1.0;" width="10" x="679" y="978.3003"/><rect fill="none" height="527.0693" rx="5" ry="5" style="stroke:#111827;stroke-width:2.0;" width="750.5" x="9" y="423.2822"/><rect fill="#0F9ED5" fill-opacity="0.14510" height="95.1934" rx="5" ry="5" style="stroke:#111827;stroke-width:2.0;" width="623.5" x="126" y="530.6255"/><path d="M126,578.7715 L749.5,578.7715 L749.5,620.8188 A5,5 0 0 1 744.5,625.8188 L131,625.8188 A5,5 0 0 1 126,620.8188 L126,578.7715 " fill="#E97132" fill-opacity="0.20784" style="stroke:none;stroke-width:1.0;"/><rect fill="#0F9ED5" fill-opacity="0.14510" height="204.2881" rx="5" ry="5" style="stroke:#111827;stroke-width:2.0;" width="558" x="126" y="739.0635"/><path d="M126,896.3042 L684,896.3042 L684,938.3516 A5,5 0 0 1 679,943.3516 L131,943.3516 A5,5 0 0 1 126,938.3516 L126,896.3042 " fill="#E97132" fill-opacity="0.20784" style="stroke:none;stroke-width:1.0;"/><line style="stroke:#181818;stroke-width:0.5;stroke-dasharray:5.0,5.0;" x1="160" x2="160" y1="134.2959" y2="1134.3438"/><line style="stroke:#181818;stroke-width:0.5;stroke-dasharray:5.0,5.0;" x1="460" x2="460" y1="134.2959" y2="1134.3438"/><line style="stroke:#181818;stroke-width:0.5;stroke-dasharray:5.0,5.0;" x1="683.5" x2="683.5" y1="134.2959" y2="1134.3438"/><text fill="#000000" font-family="Arial" font-size="14" lengthAdjust="spacing" textLength="42" x="136" y="131.3291">GDA 1</text><ellipse cx="160" cy="66.6973" fill="#156082" fill-opacity="0.50196" rx="8" ry="8" style="stroke:#181818;stroke-width:0.5;"/><path d="M160,74.6973 L160,101.6973 M147,82.6973 L173,82.6973 M160,101.6973 L147,116.6973 M160,101.6973 L173,116.6973 " fill="none" style="stroke:#181818;stroke-width:0.5;"/><text fill="#000000" font-family="Arial" font-size="14" lengthAdjust="spacing" textLength="42" x="136" y="1146.4756">GDA 1</text><ellipse cx="160" cy="1157.9424" fill="#156082" fill-opacity="0.50196" rx="8" ry="8" style="stroke:#181818;stroke-width:0.5;"/><path d="M160,1165.9424 L160,1192.9424 M147,1173.9424 L173,1173.9424 M160,1192.9424 L147,1207.9424 M160,1192.9424 L173,1207.9424 " fill="none" style="stroke:#181818;stroke-width:0.5;"/><rect fill="#E97232" fill-opacity="0.74118" height="30.0986" rx="5" ry="5" style="stroke:#555555;stroke-width:0.5;" width="76" x="422" y="103.1973"/><text fill="#000000" font-family="Arial" font-size="14" lengthAdjust="spacing" textLength="62" x="429" y="123.3291">e-Med FA</text><rect fill="#E97232" fill-opacity="0.74118" height="30.0986" rx="5" ry="5" style="stroke:#555555;stroke-width:0.5;" width="76" x="422" y="1133.3438"/><text fill="#000000" font-family="Arial" font-size="14" lengthAdjust="spacing" textLength="62" x="429" y="1153.4756">e-Med FA</text><rect fill="#CD3732" fill-opacity="0.66275" height="30.0986" rx="5" ry="5" style="stroke:#555555;stroke-width:0.5;" width="71" x="648.5" y="103.1973"/><text fill="#000000" font-family="Arial" font-size="14" lengthAdjust="spacing" textLength="57" x="655.5" y="123.3291">e-Rezept</text><rect fill="#CD3732" fill-opacity="0.66275" height="30.0986" rx="5" ry="5" style="stroke:#555555;stroke-width:0.5;" width="71" x="648.5" y="1133.3438"/><text fill="#000000" font-family="Arial" font-size="14" lengthAdjust="spacing" textLength="57" x="655.5" y="1153.4756">e-Rezept</text><rect fill="#156082" fill-opacity="0.50196" height="981.0479" style="stroke:#181818;stroke-width:1.0;" width="10" x="155" y="144.2959"/><rect fill="#E97232" fill-opacity="0.74118" height="263.4854" style="stroke:#181818;stroke-width:1.0;" width="10" x="455" y="671.8662"/><rect fill="#CD3732" fill-opacity="0.66275" height="154.3906" style="stroke:#181818;stroke-width:1.0;" width="10" x="679" y="463.4282"/><rect fill="#CD3732" fill-opacity="0.66275" height="138.0435" style="stroke:#181818;stroke-width:1.0;" width="10" x="679" y="978.3003"/><rect fill="#EEEEEE" height="3" rx="5" ry="5" style="stroke:#EEEEEE;stroke-width:1.0;" width="842" x="0" y="165.3452"/><line style="stroke:#000000;stroke-width:1.0;" x1="0" x2="842" y1="165.3452" y2="165.3452"/><line style="stroke:#000000;stroke-width:1.0;" x1="0" x2="842" y1="168.3452" y2="168.3452"/><rect fill="#EEEEEE" height="24.0986" rx="5" ry="5" style="stroke:#000000;stroke-width:2.0;" width="193" x="324.5" y="154.2959"/><text fill="#000000" font-family="Arial" font-size="14" font-weight="bold" lengthAdjust="spacing" textLength="175" x="330.5" y="171.4277">Medikationsplan abrufen</text><rect fill="none" height="42.1973" rx="5" ry="5" style="stroke:#000000;stroke-width:1.5;" width="388" x="133" y="188.3945"/><path d="M138,188.3945 L198,188.3945 L198,196.3945 L188,206.3945 L133,206.3945 L133,193.3945 A5,5 0 0 1 138,188.3945 " fill="#EEEEEE" style="stroke:#000000;stroke-width:2.0;"/><text fill="#000000" font-family="Arial" font-size="14" font-weight="bold" lengthAdjust="spacing" textLength="20" x="146" y="203.5264">ref</text><a href="interactions.html#sequenzdiagramm-plan-read" target="_top" title="interactions.html#sequenzdiagramm-plan-read" xlink:actuate="onRequest" xlink:href="interactions.html#sequenzdiagramm-plan-read" xlink:show="new" xlink:title="interactions.html#sequenzdiagramm-plan-read" xlink:type="simple"><text fill="#0000EE" font-family="Arial" font-size="14" lengthAdjust="spacing" textLength="67" x="293.5" y="223.5264">Plan-Read</text></a><path d="M43,245.5918 L43,277.5918 A5,5 0 0 0 48,282.5918 L271,282.5918 A5,5 0 0 0 276,277.5918 L276,250.5918 L266,240.5918 L48,240.5918 A5,5 0 0 0 43,245.5918 " fill="url(#g1hen9028u14b0)" style="stroke:#8B95A5;stroke-width:1.0;"/><path d="M266,240.5918 L266,248.0918 A2.5,2.5 0 0 0 268.5,250.5918 L276,250.5918 L266,240.5918 " fill="url(#g1hen9028u14b0)" style="stroke:#8B95A5;stroke-width:1.0;"/><text fill="#111827" font-family="Arial" font-size="14" lengthAdjust="spacing" textLength="176" x="49" y="258.7236">GDA erh&#228;lt Medikationsplan</text><text fill="#111827" font-family="Arial" font-size="14" lengthAdjust="spacing" textLength="212" x="49" y="274.8223">(Auslieferungs-Collection-Bundle)</text><rect fill="#EEEEEE" height="3" rx="5" ry="5" style="stroke:#EEEEEE;stroke-width:1.0;" width="842" x="0" y="308.8384"/><line style="stroke:#000000;stroke-width:1.0;" x1="0" x2="842" y1="308.8384" y2="308.8384"/><line style="stroke:#000000;stroke-width:1.0;" x1="0" x2="842" y1="311.8384" y2="311.8384"/><rect fill="#EEEEEE" height="24.0986" rx="5" ry="5" style="stroke:#000000;stroke-width:2.0;" width="338" x="252" y="297.7891"/><text fill="#000000" font-family="Arial" font-size="14" font-style="italic" font-weight="bold" lengthAdjust="spacing" textLength="126" x="258" y="314.9209">Geplante Abgaben</text><text fill="#000000" font-family="Arial" font-size="14" font-weight="bold" lengthAdjust="spacing" textLength="190" x="388" y="314.9209">vorbereiten und schreiben</text><path d="M16,341.8877 L16,405.8877 A5,5 0 0 0 21,410.8877 L298,410.8877 A5,5 0 0 0 303,405.8877 L303,346.8877 L293,336.8877 L21,336.8877 A5,5 0 0 0 16,341.8877 " fill="url(#g1hen9028u14b0)" style="stroke:#8B95A5;stroke-width:1.0;"/><path d="M293,336.8877 L293,344.3877 A2.5,2.5 0 0 0 295.5,346.8877 L303,346.8877 L293,336.8877 " fill="url(#g1hen9028u14b0)" style="stroke:#8B95A5;stroke-width:1.0;"/><text fill="#111827" font-family="Arial" font-size="14" lengthAdjust="spacing" textLength="51" x="22" y="355.0195">Erstellte</text><text fill="#111827" font-family="Arial" font-size="14" font-style="italic" lengthAdjust="spacing" textLength="119" x="77" y="355.0195">Geplante Abgaben</text><text fill="#111827" font-family="Arial" font-size="14" lengthAdjust="spacing" textLength="84" x="200" y="355.0195">referenzieren</text><text fill="#111827" font-family="Arial" font-size="14" lengthAdjust="spacing" textLength="232" x="22" y="371.1182">zugeh&#246;rige Medikationsplaneintr&#228;ge;</text><text fill="#111827" font-family="Arial" font-size="14" lengthAdjust="spacing" textLength="223" x="22" y="387.2168">groupIdentifier f&#252;r "Rezeptklammer"</text><text fill="#111827" font-family="Arial" font-size="14" lengthAdjust="spacing" textLength="62" x="22" y="403.3154">bleibt leer</text><path d="M14,423.2822 L77,423.2822 L77,431.3809 L67,441.3809 L9,441.3809 L9,428.2822 A5,5 0 0 1 14,423.2822 " fill="#EEF2FF" style="stroke:#111827;stroke-width:1.5;"/><rect fill="none" height="527.0693" rx="5" ry="5" style="stroke:#111827;stroke-width:2.0;" width="750.5" x="9" y="423.2822"/><text fill="#000000" font-family="Arial" font-size="14" font-weight="bold" lengthAdjust="spacing" textLength="23" x="24" y="437.4141">par</text><text fill="#000000" font-family="Arial" font-size="14" font-weight="bold" lengthAdjust="spacing" textLength="149" x="92" y="438.4141">[Erstellung e-Rezept]</text><polygon fill="#111827" points="667,459.4282,677,463.4282,667,467.4282,671,463.4282" style="stroke:#111827;stroke-width:1.0;"/><line style="stroke:#111827;stroke-width:1.0;" x1="165" x2="673" y1="463.4282" y2="463.4282"/><text fill="#000000" font-family="Arial" font-size="13" font-weight="bold" lengthAdjust="spacing" textLength="7" x="172" y="458.6733">1</text><text fill="#000000" font-family="Arial" font-size="13" lengthAdjust="spacing" textLength="148" x="183" y="458.6733">Trigger e-Rezept erstellen</text><path d="M55,481.4282 L55,513.4282 A5,5 0 0 0 60,518.4282 L260,518.4282 A5,5 0 0 0 265,513.4282 L265,486.4282 L255,476.4282 L60,476.4282 A5,5 0 0 0 55,481.4282 " fill="url(#g1hen9028u14b0)" style="stroke:#8B95A5;stroke-width:1.0;"/><path d="M255,476.4282 L255,483.9282 A2.5,2.5 0 0 0 257.5,486.4282 L265,486.4282 L255,476.4282 " fill="url(#g1hen9028u14b0)" style="stroke:#8B95A5;stroke-width:1.0;"/><text fill="#111827" font-family="Arial" font-size="14" lengthAdjust="spacing" textLength="189" x="61" y="494.5601">Erstellung e-Rezept ausl&#246;sen,</text><text fill="#111827" font-family="Arial" font-size="14" lengthAdjust="spacing" textLength="174" x="61" y="510.6587">ohne e-Med GroupIdentifier</text><path d="M131,530.6255 L188,530.6255 L188,538.7241 L178,548.7241 L126,548.7241 L126,535.6255 A5,5 0 0 1 131,530.6255 " fill="#EEF2FF" style="stroke:#111827;stroke-width:1.5;"/><rect fill="none" height="95.1934" rx="5" ry="5" style="stroke:#111827;stroke-width:2.0;" width="623.5" x="126" y="530.6255"/><text fill="#000000" font-family="Arial" font-size="14" font-weight="bold" lengthAdjust="spacing" textLength="17" x="141" y="544.7573">alt</text><text fill="#000000" font-family="Arial" font-size="14" font-weight="bold" lengthAdjust="spacing" textLength="127" x="203" y="545.7573">[e-Rezept erstellt]</text><polygon fill="#111827" points="176,566.7715,166,570.7715,176,574.7715,172,570.7715" style="stroke:#111827;stroke-width:1.0;"/><line style="stroke:#111827;stroke-width:1.0;stroke-dasharray:2.0,2.0;" x1="170" x2="678" y1="570.7715" y2="570.7715"/><text fill="#000000" font-family="Arial" font-size="13" font-weight="bold" lengthAdjust="spacing" textLength="7" x="182" y="566.0166">2</text><text fill="#000000" font-family="Arial" font-size="13" lengthAdjust="spacing" textLength="19" x="193" y="566.0166">OK</text><line style="stroke:#111827;stroke-width:1.0;stroke-dasharray:2.0,2.0;" x1="126" x2="749.5" y1="579.7715" y2="579.7715"/><text fill="#000000" font-family="Arial" font-size="14" font-weight="bold" lengthAdjust="spacing" textLength="123" x="131" y="592.9033">[e-Rezept Fehler]</text><polygon fill="#111827" points="176,613.8188,166,617.8188,176,621.8188,172,617.8188" style="stroke:#111827;stroke-width:1.0;"/><line style="stroke:#111827;stroke-width:1.0;stroke-dasharray:2.0,2.0;" x1="170" x2="683" y1="617.8188" y2="617.8188"/><text fill="#000000" font-family="Arial" font-size="13" font-weight="bold" lengthAdjust="spacing" textLength="7" x="182" y="613.064">3</text><text fill="#000000" font-family="Arial" font-size="13" lengthAdjust="spacing" textLength="36" x="193" y="613.064">Fehler</text><line style="stroke:#111827;stroke-width:1.0;stroke-dasharray:2.0,2.0;" x1="9" x2="759.5" y1="633.8188" y2="633.8188"/><text fill="#000000" font-family="Arial" font-size="14" font-weight="bold" lengthAdjust="spacing" textLength="171" x="14" y="646.9507">[gleichzeitige Erstellung</text><text fill="#000000" font-family="Arial" font-size="14" font-style="italic" font-weight="bold" lengthAdjust="spacing" textLength="117" x="189" y="646.9507">Geplante Abgabe</text><text fill="#000000" font-family="Arial" font-size="14" font-weight="bold" lengthAdjust="spacing" textLength="5" x="306" y="646.9507">]</text><polygon fill="#111827" points="443,667.8662,453,671.8662,443,675.8662,447,671.8662" style="stroke:#111827;stroke-width:1.0;"/><line style="stroke:#111827;stroke-width:1.0;" x1="165" x2="449" y1="671.8662" y2="671.8662"/><text fill="#000000" font-family="Arial" font-size="13" font-weight="bold" lengthAdjust="spacing" textLength="7" x="172" y="667.1113">4</text><text fill="#000000" font-family="Arial" font-size="13" lengthAdjust="spacing" textLength="225" x="183" y="667.1113">POST Transaction Bundle GeplAbgabe</text><path d="M19,689.8662 L19,721.8662 A5,5 0 0 0 24,726.8662 L295,726.8662 A5,5 0 0 0 300,721.8662 L300,694.8662 L290,684.8662 L24,684.8662 A5,5 0 0 0 19,689.8662 " fill="url(#g1hen9028u14b0)" style="stroke:#8B95A5;stroke-width:1.0;"/><path d="M290,684.8662 L290,692.3662 A2.5,2.5 0 0 0 292.5,694.8662 L300,694.8662 L290,684.8662 " fill="url(#g1hen9028u14b0)" style="stroke:#8B95A5;stroke-width:1.0;"/><text fill="#111827" font-family="Arial" font-size="14" lengthAdjust="spacing" textLength="215" x="25" y="702.998">Transaction Bundle mit Geplanten</text><text fill="#111827" font-family="Arial" font-size="14" lengthAdjust="spacing" textLength="260" x="25" y="719.0967">Abgaben an Fachanwendung &#252;bermitteln</text><path d="M131,739.0635 L188,739.0635 L188,747.1621 L178,757.1621 L126,757.1621 L126,744.0635 A5,5 0 0 1 131,739.0635 " fill="#EEF2FF" style="stroke:#111827;stroke-width:1.5;"/><rect fill="none" height="204.2881" rx="5" ry="5" style="stroke:#111827;stroke-width:2.0;" width="558" x="126" y="739.0635"/><text fill="#000000" font-family="Arial" font-size="14" font-weight="bold" lengthAdjust="spacing" textLength="17" x="141" y="753.1953">alt</text><text fill="#000000" font-family="Arial" font-size="14" font-weight="bold" lengthAdjust="spacing" textLength="194" x="203" y="754.1953">[Geplante Abgaben erstellt]</text><line style="stroke:#111827;stroke-width:1.0;" x1="465" x2="507" y1="794.1582" y2="794.1582"/><line style="stroke:#111827;stroke-width:1.0;" x1="507" x2="507" y1="794.1582" y2="807.1582"/><line style="stroke:#111827;stroke-width:1.0;" x1="466" x2="507" y1="807.1582" y2="807.1582"/><polygon fill="#111827" points="476,803.1582,466,807.1582,476,811.1582,472,807.1582" style="stroke:#111827;stroke-width:1.0;"/><text fill="#000000" font-family="Arial" font-size="13" font-weight="bold" lengthAdjust="spacing" textLength="7" x="472" y="781.929">5</text><text fill="#000000" font-family="Arial" font-size="13" lengthAdjust="spacing" textLength="180" x="483" y="774.4546">e-Med GroupIdentifier erzeugen</text><text fill="#000000" font-family="Arial" font-size="13" lengthAdjust="spacing" textLength="189" x="483" y="789.4033">+ geplanten Abgaben hinzuf&#252;gen</text><path d="M374,825.1582 L374,857.1582 A5,5 0 0 0 379,862.1582 L541,862.1582 A5,5 0 0 0 546,857.1582 L546,830.1582 L536,820.1582 L379,820.1582 A5,5 0 0 0 374,825.1582 " fill="url(#g1hen9028u14b0)" style="stroke:#8B95A5;stroke-width:1.0;"/><path d="M536,820.1582 L536,827.6582 A2.5,2.5 0 0 0 538.5,830.1582 L546,830.1582 L536,820.1582 " fill="url(#g1hen9028u14b0)" style="stroke:#8B95A5;stroke-width:1.0;"/><text fill="#111827" font-family="Arial" font-size="14" lengthAdjust="spacing" textLength="147" x="380" y="838.29">Geplante Abgabe 1 + 2</text><text fill="#111827" font-family="Arial" font-size="14" lengthAdjust="spacing" textLength="74" x="380" y="854.3887">gespeichert</text><polygon fill="#111827" points="176,884.3042,166,888.3042,176,892.3042,172,888.3042" style="stroke:#111827;stroke-width:1.0;"/><line style="stroke:#111827;stroke-width:1.0;" x1="170" x2="454" y1="888.3042" y2="888.3042"/><text fill="#000000" font-family="Arial" font-size="13" font-weight="bold" lengthAdjust="spacing" textLength="7" x="182" y="883.5493">6</text><text fill="#000000" font-family="Arial" font-size="13" lengthAdjust="spacing" textLength="255" x="193" y="883.5493">OK (Ressourcen inkl. e-Med GroupIdentifier)</text><line style="stroke:#111827;stroke-width:1.0;stroke-dasharray:2.0,2.0;" x1="126" x2="684" y1="897.3042" y2="897.3042"/><text fill="#000000" font-family="Arial" font-size="14" font-weight="bold" lengthAdjust="spacing" textLength="181" x="131" y="910.436">[Geplante Abgabe Fehler]</text><polygon fill="#111827" points="176,931.3516,166,935.3516,176,939.3516,172,935.3516" style="stroke:#111827;stroke-width:1.0;"/><line style="stroke:#111827;stroke-width:1.0;stroke-dasharray:2.0,2.0;" x1="170" x2="459" y1="935.3516" y2="935.3516"/><text fill="#000000" font-family="Arial" font-size="13" font-weight="bold" lengthAdjust="spacing" textLength="7" x="182" y="930.5967">7</text><text fill="#000000" font-family="Arial" font-size="13" lengthAdjust="spacing" textLength="36" x="193" y="930.5967">Fehler</text><polygon fill="#111827" points="667,974.3003,677,978.3003,667,982.3003,671,978.3003" style="stroke:#111827;stroke-width:1.0;"/><line style="stroke:#111827;stroke-width:1.0;" x1="165" x2="673" y1="978.3003" y2="978.3003"/><text fill="#000000" font-family="Arial" font-size="13" font-weight="bold" lengthAdjust="spacing" textLength="7" x="172" y="973.5454">8</text><text fill="#000000" font-family="Arial" font-size="13" lengthAdjust="spacing" textLength="266" x="183" y="973.5454">e-Rezept mit e-Med GroupIdentifier verkn&#252;pfen</text><line style="stroke:#111827;stroke-width:1.0;" x1="689" x2="731" y1="1022.1978" y2="1022.1978"/><line style="stroke:#111827;stroke-width:1.0;" x1="731" x2="731" y1="1022.1978" y2="1035.1978"/><line style="stroke:#111827;stroke-width:1.0;" x1="690" x2="731" y1="1035.1978" y2="1035.1978"/><polygon fill="#111827" points="700,1031.1978,690,1035.1978,700,1039.1978,696,1035.1978" style="stroke:#111827;stroke-width:1.0;"/><text fill="#000000" font-family="Arial" font-size="13" font-weight="bold" lengthAdjust="spacing" textLength="7" x="696" y="1009.9685">9</text><text fill="#000000" font-family="Arial" font-size="13" lengthAdjust="spacing" textLength="123" x="707" y="1002.4941">e-Med GroupIdentifier</text><text fill="#000000" font-family="Arial" font-size="13" lengthAdjust="spacing" textLength="53" x="707" y="1017.4429">erg&#228;nzen</text><path d="M573,1053.1978 L573,1085.1978 A5,5 0 0 0 578,1090.1978 L790,1090.1978 A5,5 0 0 0 795,1085.1978 L795,1058.1978 L785,1048.1978 L578,1048.1978 A5,5 0 0 0 573,1053.1978 " fill="url(#g1hen9028u14b0)" style="stroke:#8B95A5;stroke-width:1.0;"/><path d="M785,1048.1978 L785,1055.6978 A2.5,2.5 0 0 0 787.5,1058.1978 L795,1058.1978 L785,1048.1978 " fill="url(#g1hen9028u14b0)" style="stroke:#8B95A5;stroke-width:1.0;"/><text fill="#111827" font-family="Arial" font-size="14" lengthAdjust="spacing" textLength="166" x="579" y="1066.3296">Bestehendes e-Rezept mit</text><text fill="#111827" font-family="Arial" font-size="14" lengthAdjust="spacing" textLength="201" x="579" y="1082.4282">e-Med GroupIdentifier verkn&#252;pft</text><polygon fill="#111827" points="176,1112.3438,166,1116.3438,176,1120.3438,172,1116.3438" style="stroke:#111827;stroke-width:1.0;"/><line style="stroke:#111827;stroke-width:1.0;stroke-dasharray:2.0,2.0;" x1="170" x2="683" y1="1116.3438" y2="1116.3438"/><text fill="#000000" font-family="Arial" font-size="13" font-weight="bold" lengthAdjust="spacing" textLength="14" x="182" y="1111.5889">10</text><text fill="#000000" font-family="Arial" font-size="13" lengthAdjust="spacing" textLength="19" x="200" y="1111.5889">OK</text><!--SRC=[ZLRDSjis4BxpARRIeSaaIaKgiYqtzemSIsucZQMHrHoQP3mGkI8nea059Er6dRwDdo4dt_HYNG0K_qIdfMOq9F1XzzlTRm4aF0aHhd0JCf4W31S-Mo0iTuyI5XWd6A3m43wWnrSiuP685H2vIEJkmKT0IPWmHF5PV6IIQnjlJ-6QkO56XDmD43wYN8dTusQP2XyyZ04xCzpY9ebXpHCQMTC8-O0h6QMRTnwAX2yvIilwELvniM6IhO6vIIHlacz4bzrZ7AtHiehPHIGzb6-ZC9BGxkgdFClSbK-sXPSXbdtrAo7YW7dHFIT-InR6M9h9bac14kooKG-NB0sJSIIIQxP6Q0qf0M6h6N73jmZsw-R9fsZ_zcs3CkHYLGACHas0FwXAwWKFw5z4VqsPvwd8d6vr_AASixv-oYaL4HNpRmlWefuzx69_sUsqFTiRu952b2sTB0Pzriz7vm5tLmBZ66mQcvMosQNlFJTbfPGAsxPFd6CQkwdLvPyomnY_fYXSmtBAPC9TlY4DDWLM1HpeGJzLq65b3gRtLQrCbD8DC9Gokgy7fGUhUT53JHxp2UEhHqEwIoenvfRDr46zSEdew4eh2_UEIkfF94SbdxUJtoUpswlBuQqDzBJj_b7tn3dfDW0S3HWS7NMFBmy0q-7ytUXwhYmCZYwSrmU0uNG2-cbtnuFHPNzG1um-Z2vlnqC2uE3OwJaBhmwudOt-74tdq7Qztd7FOODw69FtKF7XzEicPhF9J0D6WsExv_Ie0VG-0oO3B8OMlO7TAYV6iZP5jG5fur8y5TRiOkDXgnf3RS6jsVoo5UQZLGkAUAH99DBrGcs3PsVrBHZOGgPB571sfYdpEqRTQbYNgKfSGdI7MK0lSxQdyEaJxU8erLgo-If8rc7RDDJMuyod_bftbAUEHER1LBtDwEtB5ykozDPGcBLKZb06kuSmEI1gFHkcSSXnYPAs_xX3cWnHE-rSa4H3V6xH6QDt6nte6tvUEux4cr_uETn5adA1FA6WQHt4Ra1VYom5TKOZSp3Hu5Fsf694mNBr3zOszJ7OVPVSV_gu-zNogmUKEIXRfeIha5A6icKjGkALG8XKkY8qaW1ahDGnk2-yfTfIbwrpdalZ5EP4n2S7UrXnqX8-htSkfPfu0EhvW2RVmAWok-ynYfS4Y0BgY-Pp6A28Wzo7IT5WTOA9fVef9zQXg3I3KvYyLukHTl5Az-K6nXY4sbVpSZCDUjx3WnGOZfQbxVjK0JVOabXKEKkH7uf1QO7MLgfWUkGKffERELM2YTXq2HZ1wkkIMMrM5cIoxgfsVrCreCckkWpjwGaDoWGBr4TZkbCnSKz1ga1sZzGCXAV0n8_AKvT-KIQJw8nmEUf62T2wBLABq4Nl1VXxZhdLW8jjIir006EuY3YpgqVhzqmRNe1ZIkfZl555Gvafg1HHXMUk9dWse-ChIgLB1EWE5BvgflwyKNPrAcNrxPtzj_Yos7BngR-6RiurhYhSdD-x_Htv_tPuqIDLJmt6FzDjozyzYAssNIfDqJjqMykl-t65hqd9ZpadPGa-sVtDVVil]--></g></svg>