<?xml version="1.0" encoding="us-ascii" standalone="no"?><svg xmlns="http://www.w3.org/2000/svg" xmlns:xlink="http://www.w3.org/1999/xlink" contentStyleType="text/css" height="584px" preserveAspectRatio="none" style="width:559px;height:584px;background:#F5F5F5;" version="1.1" viewBox="0 0 559 584" width="559px" zoomAndPan="magnify"><defs><linearGradient id="gozl79x91vasm0" x1="50%" x2="50%" y1="0%" y2="100%"><stop offset="0%" stop-color="#E0E5F0"/><stop offset="100%" stop-color="#D1D9E6"/></linearGradient></defs><g><rect fill="#F5F5F5" height="584" style="stroke:none;stroke-width:1.0;" width="559" x="0" y="0"/><text fill="#000000" font-family="Arial" font-size="14" font-weight="bold" lengthAdjust="spacing" textLength="173" x="189" y="28.1318">Geplante Abgaben lesen</text><text fill="#000000" font-family="Arial" font-size="14" font-weight="bold" lengthAdjust="spacing" textLength="244" x="153.5" y="44.2305">Variante B: Zugriff mittels e-Rezept</text><rect fill="#0F9ED5" fill-opacity="0.56471" height="161.3413" style="stroke:#181818;stroke-width:1.0;" width="10" x="122" y="238.0908"/><rect fill="#E97232" fill-opacity="0.74118" height="161.3413" style="stroke:#181818;stroke-width:1.0;" width="10" x="404" y="238.0908"/><rect fill="#0F9ED5" fill-opacity="0.14510" height="154.3413" rx="5" ry="5" style="stroke:#111827;stroke-width:2.0;" width="458" x="84" y="253.0908"/><path d="M84,363.8345 L542,363.8345 L542,402.4321 A5,5 0 0 1 537,407.4321 L89,407.4321 A5,5 0 0 1 84,402.4321 L84,363.8345 " fill="#E97132" fill-opacity="0.20784" style="stroke:none;stroke-width:1.0;"/><line style="stroke:#181818;stroke-width:0.5;stroke-dasharray:5.0,5.0;" x1="127" x2="127" y1="134.2959" y2="504.2271"/><line style="stroke:#181818;stroke-width:0.5;stroke-dasharray:5.0,5.0;" x1="409" x2="409" y1="134.2959" y2="504.2271"/><text fill="#000000" font-family="Arial" font-size="14" lengthAdjust="spacing" textLength="60" x="94" y="131.3291">Apotheke</text><ellipse cx="127" cy="66.6973" fill="#0F9ED5" fill-opacity="0.56471" rx="8" ry="8" style="stroke:#181818;stroke-width:0.5;"/><path d="M127,74.6973 L127,101.6973 M114,82.6973 L140,82.6973 M127,101.6973 L114,116.6973 M127,101.6973 L140,116.6973 " fill="none" style="stroke:#181818;stroke-width:0.5;"/><text fill="#000000" font-family="Arial" font-size="14" lengthAdjust="spacing" textLength="60" x="94" y="516.3589">Apotheke</text><ellipse cx="127" cy="527.8257" fill="#0F9ED5" fill-opacity="0.56471" rx="8" ry="8" style="stroke:#181818;stroke-width:0.5;"/><path d="M127,535.8257 L127,562.8257 M114,543.8257 L140,543.8257 M127,562.8257 L114,577.8257 M127,562.8257 L140,577.8257 " fill="none" style="stroke:#181818;stroke-width:0.5;"/><rect fill="#E97232" fill-opacity="0.74118" height="30.0986" rx="5" ry="5" style="stroke:#555555;stroke-width:0.5;" width="76" x="371" y="103.1973"/><text fill="#000000" font-family="Arial" font-size="14" lengthAdjust="spacing" textLength="62" x="378" y="123.3291">e-Med FA</text><rect fill="#E97232" fill-opacity="0.74118" height="30.0986" rx="5" ry="5" style="stroke:#555555;stroke-width:0.5;" width="76" x="371" y="503.2271"/><text fill="#000000" font-family="Arial" font-size="14" lengthAdjust="spacing" textLength="62" x="378" y="523.3589">e-Med FA</text><rect fill="#0F9ED5" fill-opacity="0.56471" height="161.3413" style="stroke:#181818;stroke-width:1.0;" width="10" x="122" y="238.0908"/><rect fill="#E97232" fill-opacity="0.74118" height="161.3413" style="stroke:#181818;stroke-width:1.0;" width="10" x="404" y="238.0908"/><rect fill="#EEEEEE" height="3" rx="5" ry="5" style="stroke:#EEEEEE;stroke-width:1.0;" width="552" x="0" y="164.7703"/><line style="stroke:#000000;stroke-width:1.0;" x1="0" x2="552" y1="164.7703" y2="164.7703"/><line style="stroke:#000000;stroke-width:1.0;" x1="0" x2="552" y1="167.7703" y2="167.7703"/><rect fill="#EEEEEE" height="22.9487" rx="5" ry="5" style="stroke:#000000;stroke-width:2.0;" width="194" x="179" y="154.2959"/><text fill="#000000" font-family="Arial" font-size="13" font-weight="bold" lengthAdjust="spacing" textLength="172" x="185" y="170.4897">Geplante Abgaben abrufen</text><polygon fill="#111827" points="392,234.0908,402,238.0908,392,242.0908,396,238.0908" style="stroke:#111827;stroke-width:1.0;"/><line style="stroke:#111827;stroke-width:1.0;" x1="132" x2="398" y1="238.0908" y2="238.0908"/><text fill="#000000" font-family="Arial" font-size="13" font-weight="bold" lengthAdjust="spacing" textLength="7" x="139" y="218.3872">1</text><text fill="#000000" font-family="Arial" font-size="13" lengthAdjust="spacing" textLength="247" x="150" y="203.4385">GET MedicationRequest mit Suchkriterien:</text><text fill="#000000" font-family="Arial" font-size="13" lengthAdjust="spacing" textLength="215" x="150" y="218.3872">- category = "Geplante Abgabe" UND</text><text fill="#000000" font-family="Arial" font-size="13" lengthAdjust="spacing" textLength="196" x="150" y="233.3359">- e-Med Groupidentifier (QR-Code)</text><path d="M89,253.0908 L145,253.0908 L145,260.0396 L135,270.0396 L84,270.0396 L84,258.0908 A5,5 0 0 1 89,253.0908 " fill="#EEF2FF" style="stroke:#111827;stroke-width:1.5;"/><rect fill="none" height="154.3413" rx="5" ry="5" style="stroke:#111827;stroke-width:2.0;" width="458" x="84" y="253.0908"/><text fill="#000000" font-family="Arial" font-size="13" font-weight="bold" lengthAdjust="spacing" textLength="16" x="99" y="266.2847">alt</text><text fill="#000000" font-family="Arial" font-size="11" font-weight="bold" lengthAdjust="spacing" textLength="164" x="160" y="265.4087">[e-Med GroupIdentifier g&#252;ltig]</text><path d="M286,280.0396 L286,324.0396 A5,5 0 0 0 291,329.0396 L527,329.0396 A5,5 0 0 0 532,324.0396 L532,285.0396 L522,275.0396 L291,275.0396 A5,5 0 0 0 286,280.0396 " fill="url(#gozl79x91vasm0)" style="stroke:#8B95A5;stroke-width:1.0;"/><path d="M522,275.0396 L522,282.5396 A2.5,2.5 0 0 0 524.5,285.0396 L532,285.0396 L522,275.0396 " fill="url(#gozl79x91vasm0)" style="stroke:#8B95A5;stroke-width:1.0;"/><text fill="#111827" font-family="Arial" font-size="13" lengthAdjust="spacing" textLength="225" x="292" y="292.2334">Pr&#252;fung des e-Med GroupIdentifiers, ob</text><text fill="#111827" font-family="Arial" font-size="13" lengthAdjust="spacing" textLength="134" x="292" y="307.1821">- noch nicht abgelaufen</text><text fill="#111827" font-family="Arial" font-size="13" lengthAdjust="spacing" textLength="159" x="292" y="322.1309">- weitere Einl&#246;sung m&#246;glich</text><polygon fill="#111827" points="143,351.8345,133,355.8345,143,359.8345,139,355.8345" style="stroke:#111827;stroke-width:1.0;"/><line style="stroke:#111827;stroke-width:1.0;stroke-dasharray:2.0,2.0;" x1="137" x2="403" y1="355.8345" y2="355.8345"/><text fill="#000000" font-family="Arial" font-size="13" font-weight="bold" lengthAdjust="spacing" textLength="7" x="149" y="351.0796">2</text><text fill="#000000" font-family="Arial" font-size="13" lengthAdjust="spacing" textLength="107" x="160" y="351.0796">Geplante Abgaben</text><line style="stroke:#111827;stroke-width:1.0;stroke-dasharray:2.0,2.0;" x1="84" x2="542" y1="364.8345" y2="364.8345"/><text fill="#000000" font-family="Arial" font-size="11" font-weight="bold" lengthAdjust="spacing" textLength="69" x="89" y="375.1523">[nicht g&#252;ltig]</text><polygon fill="#111827" points="138,395.4321,128,399.4321,138,403.4321,134,399.4321" style="stroke:#111827;stroke-width:1.0;"/><line style="stroke:#111827;stroke-width:1.0;stroke-dasharray:2.0,2.0;" x1="132" x2="408" y1="399.4321" y2="399.4321"/><text fill="#000000" font-family="Arial" font-size="13" font-weight="bold" lengthAdjust="spacing" textLength="7" x="144" y="394.6772">3</text><text fill="#000000" font-family="Arial" font-size="13" lengthAdjust="spacing" textLength="36" x="155" y="394.6772">Fehler</text><path d="M5,424.4321 L5,483.4321 A5,5 0 0 0 10,488.4321 L244,488.4321 A5,5 0 0 0 249,483.4321 L249,429.4321 L239,419.4321 L10,419.4321 A5,5 0 0 0 5,424.4321 " fill="url(#gozl79x91vasm0)" style="stroke:#8B95A5;stroke-width:1.0;"/><path d="M239,419.4321 L239,426.9321 A2.5,2.5 0 0 0 241.5,429.4321 L249,429.4321 L239,419.4321 " fill="url(#gozl79x91vasm0)" style="stroke:#8B95A5;stroke-width:1.0;"/><text fill="#111827" font-family="Arial" font-size="13" lengthAdjust="spacing" textLength="173" x="11" y="436.626">GDA erh&#228;lt ausschlie&#223;lich die</text><text fill="#111827" font-family="Arial" font-size="13" lengthAdjust="spacing" textLength="186" x="11" y="451.5747">Geplanten Abgaben, die dem im</text><text fill="#111827" font-family="Arial" font-size="13" lengthAdjust="spacing" textLength="212" x="11" y="466.5234">QR-Code des e-Rezepts enthaltenen</text><text fill="#111827" font-family="Arial" font-size="13" lengthAdjust="spacing" textLength="223" x="11" y="481.4722">e-Med GroupIdentifier zugeordnet sind.</text><!--SRC=[VLJDZk964BxtKrJWGA8i4JOB32CH2GOp6IKx48RDORKIQkootSAqsRQzavaepv9Bdc5FU-F5KcqR_y6cET2k-hgwlg-gAnPnW72Fnu3B666wy_WE9GGOeVme_-1AfFRPBNn8F2LS5muYZZ680BjhVCLZp5WdsWjvv8eVWDjng9xY5uh9dp4A3yXOwTs5oa5r5mQXWdOlNLKlj_UU2XFfv0Xte7yLHEHp9tmMqWEN1n5MFFan9L61KGtgeCkJ85w4Cdxa1uJMb1W5hMhE5SYJU4Kmtbu__wsyVtaveWg4t5S0bdKDy5uwwGOlyf-5VwwuusXgPgzkdrL56wIhggaCgJn_CO1PKpxiuS3jTTkEuOnng17LI3UxyO0F2kl65_PUOXI1GRPrHSuUVPzpqr4gKXY6SMEEoFRKACpVrGmZ_9IWjBCiLrp5mXP7wgfhn6g0Iz4ltEU2rHmL9G6cIeNFpNnJOvroQhfsO-78xkgJwPvaFjRIBo9dhejIe6kwRlraURsfzVgEEartnjtoj-LwUp-VRWsWrJO6mzwDUTEx0Z1Jm7Wux8tc5u3LTFDWFMvqXF5mPhwz04nNIqXNkxSOM_F1k0cmtbdpxM9A01oFpBwvSvg0xThwOAqsqBQT_gXlyd6Jnl9NgDrX3feXrklbEWLOuv7HD_lKsvrqY40c0O-WHJimMbLbM0cP7iCKHF-nZtjibVJOiUm9m7VeQ3OQYrtwWCMqLMVAEhK3sso-vIUoZrQ3EcCyYKEP77Qe69jCBYSftwd4fN-OJ5Y70ET8yEEtiGHb7Q1aIdJk8ZCKjBi_5qdUbiZcVEu-pE7xtzVTkz317sfnI4JncTFzvu2bSZLteKI3kmOLlYvbayUf99DY7Bm8fVbHaWYiIYOhqItSMnkWlR1vB4AvrlCZIed1KsBxUoLYL0BbxKVP1SAW5weNc52Zr0LjmVl7EMXGLl3qyGa7PInSGPEjK8NzZn9bwda3rLk61t7PwvLh7ifhlDFN81OUlVvqLeUVoPO7qtDBdRww2Kqh1wFh0Q8t4Eu8sQNpjWzIsBxk1my3dfPIUvvHQu9W2HcSlaGwtk7qnGi8ItwKJdgttkOiQkLgDY9BIrDzeTcb9PEhOHRe1_GCwWKlY5QC-Gb6UR5IaxDLFtTK_kbVafOdKMJxWS3JFveBE4AtJ9wkFEVx9hKxU01n09PNDHSqwpVQoTYdOg6aO-nweLuJ3saqIumX4jBvYHMw_GS0]--></g></svg>