<svg xmlns="http://www.w3.org/2000/svg" xmlns:xlink="http://www.w3.org/1999/xlink" contentStyleType="text/css" data-diagram-type="SEQUENCE" height="540px" preserveAspectRatio="none" style="width:1137px;height:540px;background:#F5F5F5;" version="1.1" viewBox="0 0 1137 540" width="1137px" zoomAndPan="magnify"><?plantuml 1.2026.5?><defs><linearGradient id="g1tyaowc3x9nzy0" x1="50%" x2="50%" y1="0%" y2="100%"><stop offset="0%" stop-color="#E0E5F0"/><stop offset="100%" stop-color="#D1D9E6"/></linearGradient><filter height="300%" id="f1tyaowc3x9nzy" width="300%" x="-1" y="-1"><feGaussianBlur result="blurOut" stdDeviation="2"/><feColorMatrix in="blurOut" result="blurOut2" type="matrix" values="0 0 0 0 0 0 0 0 0 0 0 0 0 0 0 0 0 0 .4 0"/><feOffset dx="4" dy="4" in="blurOut2" result="blurOut3"/><feBlend in="SourceGraphic" in2="blurOut3" mode="normal"/></filter></defs><g><rect fill="#F5F5F5" height="540" style="stroke:none;stroke-width:1;" width="1137" x="0" y="0"/><rect fill="#9FBAC4" height="515.1406" rx="5" ry="5" style="stroke:#181818;stroke-width:0.5;" width="74.0586" x="85" y="6"/><text fill="#000000" font-family="'Arial'" font-size="14" font-weight="700" lengthAdjust="spacing" textLength="4.874" x="88" y="18.9951">&#160;</text><text fill="#000000" font-family="'Arial'" font-size="14" font-weight="700" lengthAdjust="spacing" textLength="48.5625" x="97.748" y="35.292">GDA 1</text><rect fill="#C48778" height="515.1406" rx="5" ry="5" style="stroke:#181818;stroke-width:0.5;" width="256.9268" x="358.7622" y="6"/><text fill="#000000" font-family="'Arial'" font-size="14" font-weight="700" lengthAdjust="spacing" textLength="4.874" x="361.7622" y="18.9951">&#160;</text><text fill="#000000" font-family="'Arial'" font-size="14" font-weight="700" lengthAdjust="spacing" textLength="182.6904" x="395.8804" y="35.292">e-Med Fachanwendung</text><rect fill="#BEAEBE" height="515.1406" rx="5" ry="5" style="stroke:#181818;stroke-width:0.5;" width="83.8066" x="906.3354" y="6"/><text fill="#000000" font-family="'Arial'" font-size="14" font-weight="700" lengthAdjust="spacing" textLength="4.874" x="909.3354" y="18.9951">&#160;</text><text fill="#000000" font-family="'Arial'" font-size="14" font-weight="700" lengthAdjust="spacing" textLength="48.5625" x="928.8315" y="35.292">GDA 2</text><rect fill="#BAC38B" height="515.1406" rx="5" ry="5" style="stroke:#181818;stroke-width:0.5;" width="77.9756" x="1032.1421" y="6"/><text fill="#000000" font-family="'Arial'" font-size="14" font-weight="700" lengthAdjust="spacing" textLength="4.874" x="1035.1421" y="18.9951">&#160;</text><text fill="#000000" font-family="'Arial'" font-size="14" font-weight="700" lengthAdjust="spacing" textLength="57.3535" x="1040.0161" y="35.292">Patient</text><g><title>GDA 1</title><rect fill="#FFFFFF" height="229.5234" style="stroke:#181818;stroke-width:1;" width="10" x="117.0293" y="194.3203"/></g><g><title>e-Med FA</title><rect fill="#FFFFFF" height="229.5234" style="stroke:#181818;stroke-width:1;" width="10" x="482.2256" y="194.3203"/></g><g class="participant-lifeline" data-entity-uid="part1" data-qualified-name="GDA_1" data-source-line="41" id="part1-lifeline"><g><title>GDA 1</title><rect fill="#000000" fill-opacity="0.00000" height="322.9531" width="8" x="118.0293" y="118.8906"/><line style="stroke:#181818;stroke-width:0.5;stroke-dasharray:5,5;" x1="121.7476" x2="121.7476" y1="118.8906" y2="441.8438"/></g></g><g class="participant-lifeline" data-entity-uid="part2" data-qualified-name="eMed_FA" data-source-line="45" id="part2-lifeline"><g><title>e-Med FA</title><rect fill="#000000" fill-opacity="0.00000" height="322.9531" width="8" x="483.2256" y="118.8906"/><line style="stroke:#181818;stroke-width:0.5;stroke-dasharray:5,5;" x1="486.5635" x2="486.5635" y1="118.8906" y2="441.8438"/></g></g><g class="participant-lifeline" data-entity-uid="part3" data-qualified-name="GDA_2" data-source-line="49" id="part3-lifeline"><g><title>GDA 2</title><rect fill="#000000" fill-opacity="0.00000" height="322.9531" width="8" x="944.2388" y="118.8906"/><line style="stroke:#181818;stroke-width:0.5;stroke-dasharray:5,5;" x1="947.957" x2="947.957" y1="118.8906" y2="441.8438"/></g></g><g class="participant-lifeline" data-entity-uid="part4" data-qualified-name="Patient" data-source-line="53" id="part4-lifeline"><g><title>Patient</title><rect fill="#000000" fill-opacity="0.00000" height="322.9531" width="8" x="1067.1299" y="118.8906"/><line style="stroke:#181818;stroke-width:0.5;stroke-dasharray:5,5;" x1="1070.4419" x2="1070.4419" y1="118.8906" y2="441.8438"/></g></g><g class="participant participant-head" data-entity-uid="part1" data-qualified-name="GDA_1" data-source-line="41" id="part1-head"><text fill="#000000" font-family="'Arial'" font-size="14" lengthAdjust="spacing" textLength="44.5635" x="96.7476" y="115.5889">GDA 1</text><ellipse cx="122.0293" cy="51.0938" fill="#E2E2F0" rx="8" ry="8" style="stroke:#181818;stroke-width:0.5;"/><path d="M122.0293,59.0938 L122.0293,86.0938 M109.0293,67.0938 L135.0293,67.0938 M122.0293,86.0938 L109.0293,101.0938 M122.0293,86.0938 L135.0293,101.0938" fill="none" style="stroke:#181818;stroke-width:0.5;"/></g><g class="participant participant-tail" data-entity-uid="part1" data-qualified-name="GDA_1" data-source-line="41" id="part1-tail"><text fill="#000000" font-family="'Arial'" font-size="14" lengthAdjust="spacing" textLength="44.5635" x="96.7476" y="453.8389">GDA 1</text><ellipse cx="122.0293" cy="465.6406" fill="#E2E2F0" rx="8" ry="8" style="stroke:#181818;stroke-width:0.5;"/><path d="M122.0293,473.6406 L122.0293,500.6406 M109.0293,481.6406 L135.0293,481.6406 M122.0293,500.6406 L109.0293,515.6406 M122.0293,500.6406 L135.0293,515.6406" fill="none" style="stroke:#181818;stroke-width:0.5;"/></g><g class="participant participant-head" data-entity-uid="part2" data-qualified-name="eMed_FA" data-source-line="45" id="part2-head"><rect fill="#FFFFFF" height="30.2969" rx="5" ry="5" style="stroke:#555555;stroke-width:0.5;" width="79.3242" x="447.5635" y="87.5938"/><text fill="#000000" font-family="'Arial'" font-size="14" lengthAdjust="spacing" textLength="65.3242" x="454.5635" y="107.5889">e-Med FA</text></g><g class="participant participant-tail" data-entity-uid="part2" data-qualified-name="eMed_FA" data-source-line="45" id="part2-tail"><rect fill="#FFFFFF" height="30.2969" rx="5" ry="5" style="stroke:#555555;stroke-width:0.5;" width="79.3242" x="447.5635" y="440.8438"/><text fill="#000000" font-family="'Arial'" font-size="14" lengthAdjust="spacing" textLength="65.3242" x="454.5635" y="460.8389">e-Med FA</text></g><g class="participant participant-head" data-entity-uid="part3" data-qualified-name="GDA_2" data-source-line="49" id="part3-head"><text fill="#000000" font-family="'Arial'" font-size="14" lengthAdjust="spacing" textLength="44.5635" x="922.957" y="115.5889">GDA 2</text><ellipse cx="948.2388" cy="51.0938" fill="#E2E2F0" rx="8" ry="8" style="stroke:#181818;stroke-width:0.5;"/><path d="M948.2388,59.0938 L948.2388,86.0938 M935.2388,67.0938 L961.2388,67.0938 M948.2388,86.0938 L935.2388,101.0938 M948.2388,86.0938 L961.2388,101.0938" fill="none" style="stroke:#181818;stroke-width:0.5;"/></g><g class="participant participant-tail" data-entity-uid="part3" data-qualified-name="GDA_2" data-source-line="49" id="part3-tail"><text fill="#000000" font-family="'Arial'" font-size="14" lengthAdjust="spacing" textLength="44.5635" x="922.957" y="453.8389">GDA 2</text><ellipse cx="948.2388" cy="465.6406" fill="#E2E2F0" rx="8" ry="8" style="stroke:#181818;stroke-width:0.5;"/><path d="M948.2388,473.6406 L948.2388,500.6406 M935.2388,481.6406 L961.2388,481.6406 M948.2388,500.6406 L935.2388,515.6406 M948.2388,500.6406 L961.2388,515.6406" fill="none" style="stroke:#181818;stroke-width:0.5;"/></g><g class="participant participant-head" data-entity-uid="part4" data-qualified-name="Patient" data-source-line="53" id="part4-head"><text fill="#000000" font-family="'Arial'" font-size="14" lengthAdjust="spacing" textLength="49.376" x="1043.4419" y="115.5889">Patient</text><ellipse cx="1071.1299" cy="51.0938" fill="#E2E2F0" rx="8" ry="8" style="stroke:#181818;stroke-width:0.5;"/><path d="M1071.1299,59.0938 L1071.1299,86.0938 M1058.1299,67.0938 L1084.1299,67.0938 M1071.1299,86.0938 L1058.1299,101.0938 M1071.1299,86.0938 L1084.1299,101.0938" fill="none" style="stroke:#181818;stroke-width:0.5;"/></g><g class="participant participant-tail" data-entity-uid="part4" data-qualified-name="Patient" data-source-line="53" id="part4-tail"><text fill="#000000" font-family="'Arial'" font-size="14" lengthAdjust="spacing" textLength="49.376" x="1043.4419" y="453.8389">Patient</text><ellipse cx="1071.1299" cy="465.6406" fill="#E2E2F0" rx="8" ry="8" style="stroke:#181818;stroke-width:0.5;"/><path d="M1071.1299,473.6406 L1071.1299,500.6406 M1058.1299,481.6406 L1084.1299,481.6406 M1071.1299,500.6406 L1058.1299,515.6406 M1071.1299,500.6406 L1084.1299,515.6406" fill="none" style="stroke:#181818;stroke-width:0.5;"/></g><g><title>GDA 1</title><rect fill="#FFFFFF" height="229.5234" style="stroke:#181818;stroke-width:1;" width="10" x="117.0293" y="194.3203"/></g><g><title>e-Med FA</title><rect fill="#FFFFFF" height="229.5234" style="stroke:#181818;stroke-width:1;" width="10" x="482.2256" y="194.3203"/></g><rect fill="#EEEEEE" height="3" rx="5" ry="5" style="stroke:#EEEEEE;stroke-width:1;" width="1131.1177" x="0" y="150.0391"/><line style="stroke:#000000;stroke-width:1;" x1="0" x2="1131.1177" y1="150.0391" y2="150.0391"/><line style="stroke:#000000;stroke-width:1;" x1="0" x2="1131.1177" y1="153.0391" y2="153.0391"/><rect fill="#EEEEEE" height="24.2969" rx="5" ry="5" style="stroke:#000000;stroke-width:2;" width="128.8711" x="501.1233" y="138.8906"/><text fill="#000000" font-family="'Arial'" font-size="14" font-weight="700" lengthAdjust="spacing" textLength="109.9971" x="507.1233" y="155.8857">Initialisierung</text><g class="message" data-entity-1="part1" data-entity-2="part2" data-source-line="61" id="msg1"><line style="stroke:#111827;stroke-width:1;" x1="480.2256" x2="470.2256" y1="194.3203" y2="190.3203"/><line style="stroke:#111827;stroke-width:1;" x1="480.2256" x2="470.2256" y1="194.3203" y2="198.3203"/><line style="stroke:#111827;stroke-width:1;" x1="127.0293" x2="481.2256" y1="194.3203" y2="194.3203"/><text fill="#000000" font-family="'Arial'" font-size="13" font-weight="700" lengthAdjust="spacing" textLength="9.0454" x="134.0293" y="189.2544">1</text><text fill="#000000" font-family="'Arial'" font-size="13" lengthAdjust="spacing" textLength="108.9893" x="147.0747" y="189.2544">POST $plan-read</text></g><path d="M5,212.3203 L5,244.3203 A5,5 0 0 0 10,249.3203 L232,249.3203 A5,5 0 0 0 237,244.3203 L237,217.3203 L227,207.3203 L10,207.3203 A5,5 0 0 0 5,212.3203" fill="url(#g1tyaowc3x9nzy0)" filter="url(#f1tyaowc3x9nzy)" style="stroke:#8B95A5;stroke-width:1;"/><path d="M227,207.3203 L227,214.8203 A2.5,2.5 0 0 0 229.5,217.3203 L237,217.3203 L227,207.3203" fill="url(#g1tyaowc3x9nzy0)" style="stroke:#8B95A5;stroke-width:1;"/><text fill="#111827" font-family="'Arial'" font-size="14" lengthAdjust="spacing" textLength="177.9053" x="11" y="225.3154">Medikationsplan abrufen,</text><text fill="#111827" font-family="'Arial'" font-size="14" lengthAdjust="spacing" textLength="211.5859" x="11" y="241.6123">mit der Intention zu schreiben</text><g class="message" data-entity-1="part2" data-entity-2="part2" data-source-line="70" id="msg2"><line style="stroke:#111827;stroke-width:1;" x1="492.2256" x2="534.2256" y1="294.1797" y2="294.1797"/><line style="stroke:#111827;stroke-width:1;" x1="534.2256" x2="534.2256" y1="294.1797" y2="307.1797"/><line style="stroke:#111827;stroke-width:1;" x1="493.2256" x2="534.2256" y1="307.1797" y2="307.1797"/><polygon fill="#111827" points="503.2256,303.1797,493.2256,307.1797,503.2256,311.1797,499.2256,307.1797" style="stroke:#111827;stroke-width:1;stroke-linejoin:miter;stroke-miterlimit:10;"/><text fill="#000000" font-family="'Arial'" font-size="13" font-weight="700" lengthAdjust="spacing" textLength="9.0454" x="499.2256" y="281.5474">2</text><text fill="#000000" font-family="'Arial'" font-size="13" lengthAdjust="spacing" textLength="164.8613" x="512.271" y="273.981">Pr&#252;fung auf bestehenden</text><text fill="#000000" font-family="'Arial'" font-size="13" lengthAdjust="spacing" textLength="106.3169" x="512.271" y="289.1138">Medikationsplan</text></g><g class="message" data-entity-1="part2" data-entity-2="part2" data-source-line="72" id="msg3"><line style="stroke:#111827;stroke-width:1;" x1="492.2256" x2="534.2256" y1="366.5781" y2="366.5781"/><line style="stroke:#111827;stroke-width:1;" x1="534.2256" x2="534.2256" y1="366.5781" y2="379.5781"/><line style="stroke:#111827;stroke-width:1;" x1="493.2256" x2="534.2256" y1="379.5781" y2="379.5781"/><polygon fill="#111827" points="503.2256,375.5781,493.2256,379.5781,503.2256,383.5781,499.2256,379.5781" style="stroke:#111827;stroke-width:1;stroke-linejoin:miter;stroke-miterlimit:10;"/><text fill="#000000" font-family="'Arial'" font-size="13" font-weight="700" lengthAdjust="spacing" textLength="9.0454" x="499.2256" y="346.3794">3</text><text fill="#000000" font-family="'Arial'" font-size="13" lengthAdjust="spacing" textLength="138.6011" x="512.271" y="331.2466">Kein Plan vorhanden:</text><text fill="#000000" font-family="'Arial'" font-size="13" lengthAdjust="spacing" textLength="316.5449" x="512.271" y="346.3794">Fachanwendung erzeugt leeren Medikationsplan</text><text fill="#000000" font-family="'Arial'" font-size="13" lengthAdjust="spacing" textLength="240.9634" x="516.4033" y="361.5122">mit List.emptyReason = "notstarted"</text></g><g class="message" data-entity-1="part2" data-entity-2="part1" data-source-line="73" id="msg4"><line style="stroke:#111827;stroke-width:1;" x1="123.0293" x2="133.0293" y1="423.8438" y2="419.8438"/><line style="stroke:#111827;stroke-width:1;" x1="123.0293" x2="133.0293" y1="423.8438" y2="427.8438"/><line style="stroke:#111827;stroke-width:1;stroke-dasharray:2,2;" x1="122.0293" x2="486.2256" y1="423.8438" y2="423.8438"/><text fill="#000000" font-family="'Arial'" font-size="13" font-weight="700" lengthAdjust="spacing" textLength="9.0454" x="139.0293" y="411.2114">4</text><text fill="#000000" font-family="'Arial'" font-size="13" lengthAdjust="spacing" textLength="152.3755" x="152.0747" y="403.645">Leerer Medikationsplan</text><text fill="#000000" font-family="'Arial'" font-size="13" lengthAdjust="spacing" textLength="225.6021" x="152.0747" y="418.7778">(List.emptyReason = "notstarted")</text></g><g class="footer" data-source-line="78"><text fill="#000000" font-family="'Arial'" font-size="10" lengthAdjust="spacing" textLength="244.8486" x="442.6345" y="531.4229">Sub_UC_06_01 - Initial erstellter Medikationsplan</text></g><?plantuml-src XLHTRzem57tthxXAzx19Oo9fQMabAj6ktQPr6ohjMoNa93V58jYPuz2FQVziR_jZkpO1719fve5mFyuzvzoOSY5amJLVGgnqYlfIvKh3GTyTLkwoF5ayQbN9jAx81lRZLPHpdged8HyXutc9NgPkqn8rX3veYXclSdEjfFdEbmZ1M0kU1zqLK_6A41vr9vkqlHgf3C8l1d2nBm3xECZwlOCqJ4_ns5Ru1WpZqm4VRADtSv4i99ObX1IxzGGDwVU4fwaLRb4yDc4O3gCJYastrXXT8Vlj4_pyKg3EXLnu4gwkkWhkPUeUi3ROznv_LYYJjT89rqOaek3ID2GDtDahQAtLdMPHs-1MUhESHc9ZIsGRnbghftrZNB3fhGjrJTmcrhCEAVI9c1SDZLlaTQgrSymYfyxht8sFcfkvKC-UWaQyorSMgsS87YI1Vnn32130mMb6zyQwmXD3fPIOXS1B25n9m52cTE-UlLvtiFSDKxZcoPpB9wgfYCBw4ERbqV3anBvrnSvfG6gONOyTTjqzxeQtaoC752F761laeYsvgADxmer06kQQUN8uZBVDcvHjhvyz0COhesIrZ54pDXh15oaCNNHH2jHMssZ4sDgRtldvHiiPJ7vCx-1DaNFPqyXJHgF4YjDzThMCkRkjLbWRowXFB6YuagLj0XxhAaFv7jXI6Fgtq3JO43CgWDSAocIkKSGe7L4BndOZQX9iOspFvwN__iaiRrvb46DfS4u8A1_a7WFMsVuL1Nbf2QwKfWrJvzc3R6uRzIjMZmPoH8qIzd1f5rRHZIZD1rmMvkKMUKcYHX2GZDBGYu5fi1jkNNKMdS6D1THjmBV_0Nl7M8ejTxnGlPE4_2NyJ2dxDQtYsVtbh7yywzDkDtidTUHPdfisaNy0?></g></svg>