<svg xmlns="http://www.w3.org/2000/svg" xmlns:xlink="http://www.w3.org/1999/xlink" contentStyleType="text/css" data-diagram-type="SEQUENCE" height="1300px" preserveAspectRatio="none" style="width:772px;height:1300px;background:#F5F5F5;" version="1.1" viewBox="0 0 772 1300" width="772px" zoomAndPan="magnify"><?plantuml 1.2026.7beta1?><defs><linearGradient id="g8p95jebw48b40" x1="50%" x2="50%" y1="0%" y2="100%"><stop offset="0%" stop-color="#E0E5F0"/><stop offset="100%" stop-color="#D1D9E6"/></linearGradient><filter height="300%" id="f8p95jebw48b4" width="300%" x="-1" y="-1"><feGaussianBlur result="blurOut" stdDeviation="2"/><feColorMatrix in="blurOut" result="blurOut2" type="matrix" values="0 0 0 0 0 0 0 0 0 0 0 0 0 0 0 0 0 0 .4 0"/><feOffset dx="4" dy="4" in="blurOut2" result="blurOut3"/><feBlend in="SourceGraphic" in2="blurOut3" mode="normal"/></filter></defs><g><rect fill="#F5F5F5" height="1300" style="stroke:none;stroke-width:1;" width="772" x="0" y="0"/><g class="title" data-source-line="1"><text fill="#000000" font-family="'Arial'" font-size="14" font-weight="700" lengthAdjust="spacing" textLength="539.0137" x="113.282" y="27.9951">Geplante Abgabe f&#252;r bestehende Medikationsplaneintr&#228;ge erstellen</text><text fill="#000000" font-family="'Arial'" font-size="14" font-weight="700" lengthAdjust="spacing" textLength="490.834" x="137.3718" y="44.292">Variante A: Vorab-Ermittlung des GroupIdentifiers (Fehlerfall)</text></g><g><title>GDA 1</title><rect fill="#3588A7" fill-opacity="0.29804" height="1033.9063" style="stroke:#181818;stroke-width:1;" width="10" x="197.2817" y="144.8906"/></g><g><title>e-Med FA</title><rect fill="#A14C37" fill-opacity="0.47059" height="126.8594" style="stroke:#181818;stroke-width:1;" width="10" x="428.6206" y="357.8047"/></g><g><title>e-Med FA</title><rect fill="#A14C37" fill-opacity="0.47059" height="253.7734" style="stroke:#181818;stroke-width:1;" width="10" x="428.6206" y="877.5938"/></g><g><title>e-Rezept</title><rect fill="#F5BD2F" fill-opacity="0.46667" height="142.4531" style="stroke:#181818;stroke-width:1;" width="10" x="683.4058" y="612.2813"/></g><rect fill="none" height="629.2422" rx="5" ry="5" style="stroke:#111827;stroke-width:2;" width="747.5776" x="9" y="571.5547"/><rect fill="#FFFFFF" fill-opacity="0.14902" height="164.5859" rx="5" ry="5" style="stroke:#111827;stroke-width:2;" width="717.5776" x="19" y="666.5781"/><path d="M19,715.3047 L736.5776,715.3047 L736.5776,826.1641 A5,5 0 0 1 731.5776,831.1641 L24,831.1641 A5,5 0 0 1 19,826.1641 L19,715.3047" fill="#7F1515" fill-opacity="0.20000" style="stroke:none;stroke-width:1;"/><rect fill="#FFFFFF" fill-opacity="0.14902" height="245.6094" rx="5" ry="5" style="stroke:#111827;stroke-width:2;" width="589.5776" x="157" y="948.1875"/><path d="M157,1036.2109 L746.5776,1036.2109 L746.5776,1188.7969 A5,5 0 0 1 741.5776,1193.7969 L162,1193.7969 A5,5 0 0 1 157,1188.7969 L157,1036.2109" fill="#7F1515" fill-opacity="0.20000" style="stroke:none;stroke-width:1;"/><rect fill="#FFFFFF" fill-opacity="0.14902" height="96.1563" rx="5" ry="5" style="stroke:#111827;stroke-width:2;" width="569.5776" x="167" y="1090.6406"/><path d="M167,1139.3672 L736.5776,1139.3672 L736.5776,1181.7969 A5,5 0 0 1 731.5776,1186.7969 L172,1186.7969 A5,5 0 0 1 167,1181.7969 L167,1139.3672" fill="#7F1515" fill-opacity="0.20000" style="stroke:none;stroke-width:1;"/><g class="participant-lifeline" data-entity-uid="part1" data-qualified-name="GDA_1" data-source-line="50" id="part1-lifeline"><g><title>GDA 1</title><rect fill="#000000" fill-opacity="0.00000" height="1082.9063" width="8" x="198.2817" y="134.8906"/><line style="stroke:#181818;stroke-width:0.5;stroke-dasharray:5,5;" x1="202" x2="202" y1="134.8906" y2="1217.7969"/></g></g><g class="participant-lifeline" data-entity-uid="part2" data-qualified-name="eMed_FA" data-source-line="51" id="part2-lifeline"><g><title>e-Med FA</title><rect fill="#000000" fill-opacity="0.00000" height="1082.9063" width="8" x="429.6206" y="134.8906"/><line style="stroke:#181818;stroke-width:0.5;stroke-dasharray:5,5;" x1="432.9585" x2="432.9585" y1="134.8906" y2="1217.7969"/></g></g><g class="participant-lifeline" data-entity-uid="part3" data-qualified-name="e_Rezept" data-source-line="52" id="part3-lifeline"><g><title>e-Rezept</title><rect fill="#000000" fill-opacity="0.00000" height="1082.9063" width="8" x="684.4058" y="134.8906"/><line style="stroke:#181818;stroke-width:0.5;stroke-dasharray:5,5;" x1="688.2339" x2="688.2339" y1="134.8906" y2="1217.7969"/></g></g><g class="participant participant-head" data-entity-uid="part1" data-qualified-name="GDA_1" data-source-line="50" id="part1-head"><text fill="#000000" font-family="'Arial'" font-size="14" lengthAdjust="spacing" textLength="44.5635" x="177" y="131.5889">GDA 1</text><ellipse cx="202.2817" cy="67.0938" fill="#3588A7" fill-opacity="0.29804" rx="8" ry="8" style="stroke:#181818;stroke-width:0.5;"/><path d="M202.2817,75.0938 L202.2817,102.0938 M189.2817,83.0938 L215.2817,83.0938 M202.2817,102.0938 L189.2817,117.0938 M202.2817,102.0938 L215.2817,117.0938" fill="none" style="stroke:#181818;stroke-width:0.5;"/></g><g class="participant participant-tail" data-entity-uid="part1" data-qualified-name="GDA_1" data-source-line="50" id="part1-tail"><text fill="#000000" font-family="'Arial'" font-size="14" lengthAdjust="spacing" textLength="44.5635" x="177" y="1229.792">GDA 1</text><ellipse cx="202.2817" cy="1241.5938" fill="#3588A7" fill-opacity="0.29804" rx="8" ry="8" style="stroke:#181818;stroke-width:0.5;"/><path d="M202.2817,1249.5938 L202.2817,1276.5938 M189.2817,1257.5938 L215.2817,1257.5938 M202.2817,1276.5938 L189.2817,1291.5938 M202.2817,1276.5938 L215.2817,1291.5938" fill="none" style="stroke:#181818;stroke-width:0.5;"/></g><g class="participant participant-head" data-entity-uid="part2" data-qualified-name="eMed_FA" data-source-line="51" id="part2-head"><rect fill="#A14C37" fill-opacity="0.47059" height="30.2969" rx="5" ry="5" style="stroke:#555555;stroke-width:0.5;" width="79.3242" x="393.9585" y="103.5938"/><text fill="#000000" font-family="'Arial'" font-size="14" lengthAdjust="spacing" textLength="65.3242" x="400.9585" y="123.5889">e-Med FA</text></g><g class="participant participant-tail" data-entity-uid="part2" data-qualified-name="eMed_FA" data-source-line="51" id="part2-tail"><rect fill="#A14C37" fill-opacity="0.47059" height="30.2969" rx="5" ry="5" style="stroke:#555555;stroke-width:0.5;" width="79.3242" x="393.9585" y="1216.7969"/><text fill="#000000" font-family="'Arial'" font-size="14" lengthAdjust="spacing" textLength="65.3242" x="400.9585" y="1236.792">e-Med FA</text></g><g class="participant participant-head" data-entity-uid="part3" data-qualified-name="e_Rezept" data-source-line="52" id="part3-head"><rect fill="#F5BD2F" fill-opacity="0.46667" height="30.2969" rx="5" ry="5" style="stroke:#555555;stroke-width:0.5;" width="76.3438" x="650.2339" y="103.5938"/><text fill="#000000" font-family="'Arial'" font-size="14" lengthAdjust="spacing" textLength="62.3438" x="657.2339" y="123.5889">e-Rezept</text></g><g class="participant participant-tail" data-entity-uid="part3" data-qualified-name="e_Rezept" data-source-line="52" id="part3-tail"><rect fill="#F5BD2F" fill-opacity="0.46667" height="30.2969" rx="5" ry="5" style="stroke:#555555;stroke-width:0.5;" width="76.3438" x="650.2339" y="1216.7969"/><text fill="#000000" font-family="'Arial'" font-size="14" lengthAdjust="spacing" textLength="62.3438" x="657.2339" y="1236.792">e-Rezept</text></g><g><title>GDA 1</title><rect fill="#3588A7" fill-opacity="0.29804" height="1033.9063" style="stroke:#181818;stroke-width:1;" width="10" x="197.2817" y="144.8906"/></g><g><title>e-Med FA</title><rect fill="#A14C37" fill-opacity="0.47059" height="126.8594" style="stroke:#181818;stroke-width:1;" width="10" x="428.6206" y="357.8047"/></g><g><title>e-Med FA</title><rect fill="#A14C37" fill-opacity="0.47059" height="253.7734" style="stroke:#181818;stroke-width:1;" width="10" x="428.6206" y="877.5938"/></g><g><title>e-Rezept</title><rect fill="#F5BD2F" fill-opacity="0.46667" height="142.4531" style="stroke:#181818;stroke-width:1;" width="10" x="683.4058" y="612.2813"/></g><rect fill="#EEEEEE" height="3" rx="5" ry="5" style="stroke:#EEEEEE;stroke-width:1;" width="766.5776" x="0" y="166.0391"/><line style="stroke:#000000;stroke-width:1;" x1="0" x2="766.5776" y1="166.0391" y2="166.0391"/><line style="stroke:#000000;stroke-width:1;" x1="0" x2="766.5776" y1="169.0391" y2="169.0391"/><rect fill="#EEEEEE" height="24.2969" rx="5" ry="5" style="stroke:#000000;stroke-width:2;" width="216.2891" x="275.1443" y="154.8906"/><text fill="#000000" font-family="'Arial'" font-size="14" font-weight="700" lengthAdjust="spacing" textLength="197.415" x="281.1443" y="171.8857">Medikationsplan abrufen</text><rect fill="none" height="42.5938" rx="5" ry="5" style="stroke:#000000;stroke-width:1.5;" width="302.2827" x="174" y="189.1875"/><path d="M179,189.1875 L241,189.1875 L241,197.1875 L231,207.1875 L174,207.1875 L174,194.1875 A5,5 0 0 1 179,189.1875" fill="#EEEEEE" style="stroke:#000000;stroke-width:2;"/><text fill="#000000" font-family="'Arial'" font-size="14" font-weight="700" lengthAdjust="spacing" textLength="22.4902" x="187" y="204.1826">ref</text><a href="interactions.html#sequenzdiagramm-plan-read" target="_top" title="interactions.html#sequenzdiagramm-plan-read" xlink:actuate="onRequest" xlink:href="interactions.html#sequenzdiagramm-plan-read" xlink:show="new" xlink:title="interactions.html#sequenzdiagramm-plan-read" xlink:type="simple"><text fill="#0000EE" font-family="'Arial'" font-size="14" lengthAdjust="spacing" textLength="70.6426" x="289.8201" y="224.1826">Plan-Read</text></a><path d="M73,246.7813 L73,278.7813 A5,5 0 0 0 78,283.7813 L323,283.7813 A5,5 0 0 0 328,278.7813 L328,251.7813 L318,241.7813 L78,241.7813 A5,5 0 0 0 73,246.7813" fill="url(#g8p95jebw48b40)" filter="url(#f8p95jebw48b4)" style="stroke:#8B95A5;stroke-width:1;"/><path d="M318,241.7813 L318,249.2813 A2.5,2.5 0 0 0 320.5,251.7813 L328,251.7813 L318,241.7813" fill="url(#g8p95jebw48b40)" style="stroke:#8B95A5;stroke-width:1;"/><text fill="#111827" font-family="'Arial'" font-size="14" lengthAdjust="spacing" textLength="195.8018" x="79" y="259.7764">GDA erh&#228;lt Medikationsplan</text><text fill="#111827" font-family="'Arial'" font-size="14" lengthAdjust="spacing" textLength="234.377" x="79" y="276.0732">(Auslieferungs-Collection-Bundle)</text><rect fill="#EEEEEE" height="3" rx="5" ry="5" style="stroke:#EEEEEE;stroke-width:1;" width="766.5776" x="0" y="313.5234"/><line style="stroke:#000000;stroke-width:1;" x1="0" x2="766.5776" y1="313.5234" y2="313.5234"/><line style="stroke:#000000;stroke-width:1;" x1="0" x2="766.5776" y1="316.5234" y2="316.5234"/><rect fill="#EEEEEE" height="24.2969" rx="5" ry="5" style="stroke:#000000;stroke-width:2;" width="379.3398" x="193.6189" y="302.375"/><text fill="#000000" font-family="'Arial'" font-size="14" font-style="italic" font-weight="700" lengthAdjust="spacing" textLength="146.0908" x="199.6189" y="319.3701">Geplante Abgaben</text><text fill="#000000" font-family="'Arial'" font-size="14" font-weight="700" lengthAdjust="spacing" textLength="209.501" x="350.5837" y="319.3701">vorbereiten und schreiben</text><g class="message" data-entity-1="part1" data-entity-2="part2" data-source-line="68" id="msg1"><polygon fill="#111827" points="416.6206,353.8047,426.6206,357.8047,416.6206,361.8047,420.6206,357.8047" style="stroke:#111827;stroke-width:1;stroke-linejoin:miter;stroke-miterlimit:10;"/><line style="stroke:#111827;stroke-width:1;" x1="207.2817" x2="422.6206" y1="357.8047" y2="357.8047"/><text fill="#000000" font-family="'Arial'" font-size="13" font-weight="700" lengthAdjust="spacing" textLength="9.0454" x="214.2817" y="352.7388">1</text><text fill="#000000" font-family="'Arial'" font-size="13" lengthAdjust="spacing" textLength="189.2935" x="227.3271" y="352.7388">POST $groupidentifier-create&#8203;</text></g><path d="M37,375.8047 L37,407.8047 A5,5 0 0 0 42,412.8047 L358,412.8047 A5,5 0 0 0 363,407.8047 L363,380.8047 L353,370.8047 L42,370.8047 A5,5 0 0 0 37,375.8047" fill="url(#g8p95jebw48b40)" filter="url(#f8p95jebw48b4)" style="stroke:#8B95A5;stroke-width:1;"/><path d="M353,370.8047 L353,378.3047 A2.5,2.5 0 0 0 355.5,380.8047 L363,380.8047 L353,370.8047" fill="url(#g8p95jebw48b40)" style="stroke:#8B95A5;stroke-width:1;"/><text fill="#111827" font-family="'Arial'" font-size="14" lengthAdjust="spacing" textLength="305.9287" x="43" y="388.7998">e-Med GroupIdentifier f&#252;r "Rezeptklammer"</text><text fill="#111827" font-family="'Arial'" font-size="14" lengthAdjust="spacing" textLength="68.8311" x="43" y="405.0967">anfordern</text><g class="message" data-entity-1="part2" data-entity-2="part2" data-source-line="76" id="msg2"><line style="stroke:#111827;stroke-width:1;" x1="438.6206" x2="480.6206" y1="442.5313" y2="442.5313"/><line style="stroke:#111827;stroke-width:1;" x1="480.6206" x2="480.6206" y1="442.5313" y2="455.5313"/><line style="stroke:#111827;stroke-width:1;" x1="439.6206" x2="480.6206" y1="455.5313" y2="455.5313"/><polygon fill="#111827" points="449.6206,451.5313,439.6206,455.5313,449.6206,459.5313,445.6206,455.5313" style="stroke:#111827;stroke-width:1;stroke-linejoin:miter;stroke-miterlimit:10;"/><text fill="#000000" font-family="'Arial'" font-size="13" font-weight="700" lengthAdjust="spacing" textLength="9.0454" x="445.6206" y="437.4653">2</text><text fill="#000000" font-family="'Arial'" font-size="13" lengthAdjust="spacing" textLength="207.7397" x="458.666" y="437.4653">e-Med GroupIdentifier erzeugen</text></g><g class="message" data-entity-1="part2" data-entity-2="part1" data-source-line="77" id="msg3"><polygon fill="#111827" points="218.2817,480.6641,208.2817,484.6641,218.2817,488.6641,214.2817,484.6641" style="stroke:#111827;stroke-width:1;stroke-linejoin:miter;stroke-miterlimit:10;"/><line style="stroke:#111827;stroke-width:1;stroke-dasharray:2,2;" x1="212.2817" x2="432.6206" y1="484.6641" y2="484.6641"/><text fill="#000000" font-family="'Arial'" font-size="13" font-weight="700" lengthAdjust="spacing" textLength="9.0454" x="224.2817" y="479.5981">3</text><text fill="#000000" font-family="'Arial'" font-size="13" lengthAdjust="spacing" textLength="142.7144" x="237.3271" y="479.5981">e-Med GroupIdentifier</text></g><path d="M42,502.6641 L42,550.6641 A5,5 0 0 0 47,555.6641 L354,555.6641 A5,5 0 0 0 359,550.6641 L359,507.6641 L349,497.6641 L47,497.6641 A5,5 0 0 0 42,502.6641" fill="url(#g8p95jebw48b40)" filter="url(#f8p95jebw48b4)" style="stroke:#8B95A5;stroke-width:1;"/><path d="M349,497.6641 L349,505.1641 A2.5,2.5 0 0 0 351.5,507.6641 L359,507.6641 L349,497.6641" fill="url(#g8p95jebw48b40)" style="stroke:#8B95A5;stroke-width:1;"/><text fill="#111827" font-family="'Arial'" font-size="14" lengthAdjust="spacing" textLength="57.8799" x="48" y="515.6592">Erstellte</text><text fill="#111827" font-family="'Arial'" font-size="14" font-style="italic" lengthAdjust="spacing" textLength="130.5459" x="110.3301" y="515.6592">Geplante Abgaben</text><text fill="#111827" font-family="'Arial'" font-size="14" lengthAdjust="spacing" textLength="94.2471" x="245.3262" y="515.6592">referenzieren</text><text fill="#111827" font-family="'Arial'" font-size="14" lengthAdjust="spacing" textLength="287.0342" x="48" y="531.9561">zugeh&#246;rige Medikationsplaneintr&#228;ge und</text><text fill="#111827" font-family="'Arial'" font-size="14" lengthAdjust="spacing" textLength="225.4355" x="48" y="548.2529">enthalten e-Med GroupIdentifier</text><path d="M14,571.5547 L80.373,571.5547 L80.373,579.8516 L70.373,589.8516 L9,589.8516 L9,576.5547 A5,5 0 0 1 14,571.5547" fill="#EEF2FF" style="stroke:#111827;stroke-width:1.5;"/><rect fill="none" height="629.2422" rx="5" ry="5" style="stroke:#111827;stroke-width:2;" width="747.5776" x="9" y="571.5547"/><text fill="#000000" font-family="'Arial'" font-size="14" font-weight="700" lengthAdjust="spacing" textLength="26.373" x="24" y="585.5498">par</text><text fill="#000000" font-family="'Arial'" font-size="14" font-weight="700" lengthAdjust="spacing" textLength="168.1504" x="95.373" y="586.5498">[Erstellung e-Rezept]</text><g class="message" data-entity-1="part1" data-entity-2="part3" data-source-line="88" id="msg4"><polygon fill="#111827" points="671.4058,608.2813,681.4058,612.2813,671.4058,616.2813,675.4058,612.2813" style="stroke:#111827;stroke-width:1;stroke-linejoin:miter;stroke-miterlimit:10;"/><line style="stroke:#111827;stroke-width:1;" x1="207.2817" x2="677.4058" y1="612.2813" y2="612.2813"/><text fill="#000000" font-family="'Arial'" font-size="13" font-weight="700" lengthAdjust="spacing" textLength="9.0454" x="214.2817" y="607.2153">4</text><text fill="#000000" font-family="'Arial'" font-size="13" lengthAdjust="spacing" textLength="169.5713" x="227.3271" y="607.2153">Trigger e-Rezept erstellen</text></g><path d="M88,630.2813 L88,646.2813 A5,5 0 0 0 93,651.2813 L307,651.2813 A5,5 0 0 0 312,646.2813 L312,635.2813 L302,625.2813 L93,625.2813 A5,5 0 0 0 88,630.2813" fill="url(#g8p95jebw48b40)" filter="url(#f8p95jebw48b4)" style="stroke:#8B95A5;stroke-width:1;"/><path d="M302,625.2813 L302,632.7813 A2.5,2.5 0 0 0 304.5,635.2813 L312,635.2813 L302,625.2813" fill="url(#g8p95jebw48b40)" style="stroke:#8B95A5;stroke-width:1;"/><text fill="#111827" font-family="'Arial'" font-size="14" lengthAdjust="spacing" textLength="203.6357" x="94" y="643.2764">Erstellung e-Rezept ausl&#246;sen</text><path d="M24,666.5781 L84.9385,666.5781 L84.9385,674.875 L74.9385,684.875 L19,684.875 L19,671.5781 A5,5 0 0 1 24,666.5781" fill="#EEF2FF" style="stroke:#111827;stroke-width:1.5;"/><rect fill="none" height="164.5859" rx="5" ry="5" style="stroke:#111827;stroke-width:2;" width="717.5776" x="19" y="666.5781"/><text fill="#000000" font-family="'Arial'" font-size="14" font-weight="700" lengthAdjust="spacing" textLength="20.9385" x="34" y="680.5732">alt</text><text fill="#000000" font-family="'Arial'" font-size="14" font-weight="700" lengthAdjust="spacing" textLength="144.8193" x="99.9385" y="681.5732">[e-Rezept erstellt]</text><g class="message" data-entity-1="part3" data-entity-2="part1" data-source-line="95" id="msg5"><polygon fill="#111827" points="218.2817,703.3047,208.2817,707.3047,218.2817,711.3047,214.2817,707.3047" style="stroke:#111827;stroke-width:1;stroke-linejoin:miter;stroke-miterlimit:10;"/><line style="stroke:#111827;stroke-width:1;stroke-dasharray:2,2;" x1="212.2817" x2="682.4058" y1="707.3047" y2="707.3047"/><text fill="#000000" font-family="'Arial'" font-size="13" font-weight="700" lengthAdjust="spacing" textLength="9.0454" x="224.2817" y="702.2388">5</text><text fill="#000000" font-family="'Arial'" font-size="13" lengthAdjust="spacing" textLength="18.7573" x="237.3271" y="702.2388">OK</text></g><line style="stroke:#111827;stroke-width:1;stroke-dasharray:2,2;" x1="19" x2="736.5776" y1="716.3047" y2="716.3047"/><text fill="#000000" font-family="'Arial'" font-size="14" font-weight="700" lengthAdjust="spacing" textLength="137.833" x="24" y="729.2998">[e-Rezept Fehler]</text><g class="message" data-entity-1="part3" data-entity-2="part1" data-source-line="98" id="msg6"><polygon fill="#111827" points="218.2817,750.7344,208.2817,754.7344,218.2817,758.7344,214.2817,754.7344" style="stroke:#111827;stroke-width:1;stroke-linejoin:miter;stroke-miterlimit:10;"/><line style="stroke:#111827;stroke-width:1;stroke-dasharray:2,2;" x1="212.2817" x2="687.4058" y1="754.7344" y2="754.7344"/><text fill="#000000" font-family="'Arial'" font-size="13" font-weight="700" lengthAdjust="spacing" textLength="9.0454" x="224.2817" y="749.6685">6</text><text fill="#000000" font-family="'Arial'" font-size="13" lengthAdjust="spacing" textLength="40.6694" x="237.3271" y="749.6685">Fehler</text></g><g class="message" data-entity-1="part1" data-entity-2="part2" data-source-line="100" id="msg7"><polygon fill="#111827" points="421.6206,779.8672,431.6206,783.8672,421.6206,787.8672,425.6206,783.8672" style="stroke:#111827;stroke-width:1;stroke-linejoin:miter;stroke-miterlimit:10;"/><line style="stroke:#111827;stroke-width:1;" x1="207.2817" x2="427.6206" y1="783.8672" y2="783.8672"/><text fill="#000000" font-family="'Arial'" font-size="13" font-weight="700" lengthAdjust="spacing" textLength="9.0454" x="214.2817" y="778.8013">7</text><text fill="#000000" font-family="'Arial'" font-size="13" lengthAdjust="spacing" textLength="176.3315" x="227.3271" y="778.8013">POST $prescription-discard&#8203;</text></g><path d="M29,801.8672 L29,817.8672 A5,5 0 0 0 34,822.8672 L367,822.8672 A5,5 0 0 0 372,817.8672 L372,806.8672 L362,796.8672 L34,796.8672 A5,5 0 0 0 29,801.8672" fill="url(#g8p95jebw48b40)" filter="url(#f8p95jebw48b4)" style="stroke:#8B95A5;stroke-width:1;"/><path d="M362,796.8672 L362,804.3672 A2.5,2.5 0 0 0 364.5,806.8672 L372,806.8672 L362,796.8672" fill="url(#g8p95jebw48b40)" style="stroke:#8B95A5;stroke-width:1;"/><text fill="#111827" font-family="'Arial'" font-size="14" lengthAdjust="spacing" textLength="119.082" x="35" y="814.8623">Siehe Use Case "</text><text fill="#111827" font-family="'Arial'" font-size="14" font-style="italic" lengthAdjust="spacing" textLength="121.6729" x="154.082" y="814.8623">Geplante Abgabe</text><text fill="#111827" font-family="'Arial'" font-size="14" lengthAdjust="spacing" textLength="77.3281" x="280.2051" y="814.8623">verwerfen"</text><line style="stroke:#111827;stroke-width:1;stroke-dasharray:2,2;" x1="9" x2="756.5776" y1="839.1641" y2="839.1641"/><text fill="#000000" font-family="'Arial'" font-size="14" font-weight="700" lengthAdjust="spacing" textLength="192.6436" x="14" y="852.1592">[gleichzeitige Erstellung</text><text fill="#000000" font-family="'Arial'" font-size="14" font-style="italic" font-weight="700" lengthAdjust="spacing" textLength="136.124" x="211.5176" y="852.1592">Geplante Abgabe</text><text fill="#000000" font-family="'Arial'" font-size="14" font-weight="700" lengthAdjust="spacing" textLength="6.3984" x="347.6416" y="852.1592">]</text><g class="message" data-entity-1="part1" data-entity-2="part2" data-source-line="109" id="msg8"><polygon fill="#111827" points="416.6206,873.5938,426.6206,877.5938,416.6206,881.5938,420.6206,877.5938" style="stroke:#111827;stroke-width:1;stroke-linejoin:miter;stroke-miterlimit:10;"/><line style="stroke:#111827;stroke-width:1;" x1="207.2817" x2="422.6206" y1="877.5938" y2="877.5938"/><text fill="#000000" font-family="'Arial'" font-size="13" font-weight="700" lengthAdjust="spacing" textLength="9.0454" x="214.2817" y="872.5278">8</text><text fill="#000000" font-family="'Arial'" font-size="13" lengthAdjust="spacing" textLength="161.6685" x="227.3271" y="872.5278">POST $prescription-write</text></g><path d="M45,895.5938 L45,927.5938 A5,5 0 0 0 50,932.5938 L351,932.5938 A5,5 0 0 0 356,927.5938 L356,900.5938 L346,890.5938 L50,890.5938 A5,5 0 0 0 45,895.5938" fill="url(#g8p95jebw48b40)" filter="url(#f8p95jebw48b4)" style="stroke:#8B95A5;stroke-width:1;"/><path d="M346,890.5938 L346,898.0938 A2.5,2.5 0 0 0 348.5,900.5938 L356,900.5938 L346,890.5938" fill="url(#g8p95jebw48b40)" style="stroke:#8B95A5;stroke-width:1;"/><text fill="#111827" font-family="'Arial'" font-size="14" lengthAdjust="spacing" textLength="239.9209" x="51" y="908.5889">Transaction Bundle mit Geplanten</text><text fill="#111827" font-family="'Arial'" font-size="14" lengthAdjust="spacing" textLength="290.2266" x="51" y="924.8857">Abgaben an Fachanwendung &#252;bermitteln</text><path d="M162,948.1875 L222.9385,948.1875 L222.9385,956.4844 L212.9385,966.4844 L157,966.4844 L157,953.1875 A5,5 0 0 1 162,948.1875" fill="#EEF2FF" style="stroke:#111827;stroke-width:1.5;"/><rect fill="none" height="245.6094" rx="5" ry="5" style="stroke:#111827;stroke-width:2;" width="589.5776" x="157" y="948.1875"/><text fill="#000000" font-family="'Arial'" font-size="14" font-weight="700" lengthAdjust="spacing" textLength="20.9385" x="172" y="962.1826">alt</text><text fill="#000000" font-family="'Arial'" font-size="14" font-weight="700" lengthAdjust="spacing" textLength="6.3984" x="237.9385" y="963.1826">[</text><text fill="#000000" font-family="'Arial'" font-size="14" font-style="italic" font-weight="700" lengthAdjust="spacing" textLength="136.124" x="244.3369" y="963.1826">Geplante Abgabe</text><text fill="#000000" font-family="'Arial'" font-size="14" font-weight="700" lengthAdjust="spacing" textLength="63.6084" x="385.335" y="963.1826">erstellt]</text><g class="message" data-entity-1="part2" data-entity-2="part1" data-source-line="117" id="msg9"><polygon fill="#111827" points="218.2817,984.9141,208.2817,988.9141,218.2817,992.9141,214.2817,988.9141" style="stroke:#111827;stroke-width:1;stroke-linejoin:miter;stroke-miterlimit:10;"/><line style="stroke:#111827;stroke-width:1;stroke-dasharray:2,2;" x1="212.2817" x2="427.6206" y1="988.9141" y2="988.9141"/><text fill="#000000" font-family="'Arial'" font-size="13" font-weight="700" lengthAdjust="spacing" textLength="9.0454" x="224.2817" y="983.8481">9</text><text fill="#000000" font-family="'Arial'" font-size="13" lengthAdjust="spacing" textLength="18.7573" x="237.3271" y="983.8481">OK</text></g><path d="M295,1006.9141 L295,1022.9141 A5,5 0 0 0 300,1027.9141 L562,1027.9141 A5,5 0 0 0 567,1022.9141 L567,1011.9141 L557,1001.9141 L300,1001.9141 A5,5 0 0 0 295,1006.9141" fill="url(#g8p95jebw48b40)" filter="url(#f8p95jebw48b4)" style="stroke:#8B95A5;stroke-width:1;"/><path d="M557,1001.9141 L557,1009.4141 A2.5,2.5 0 0 0 559.5,1011.9141 L567,1011.9141 L557,1001.9141" fill="url(#g8p95jebw48b40)" style="stroke:#8B95A5;stroke-width:1;"/><text fill="#111827" font-family="'Arial'" font-size="14" lengthAdjust="spacing" textLength="251.6309" x="301" y="1019.9092">Geplante Abgabe 1 + 2 gespeichert</text><line style="stroke:#111827;stroke-width:1;stroke-dasharray:2,2;" x1="157" x2="746.5776" y1="1037.2109" y2="1037.2109"/><text fill="#000000" font-family="'Arial'" font-size="14" font-weight="700" lengthAdjust="spacing" textLength="6.3984" x="162" y="1050.2061">[</text><text fill="#000000" font-family="'Arial'" font-size="14" font-style="italic" font-weight="700" lengthAdjust="spacing" textLength="136.124" x="168.3984" y="1050.2061">Geplante Abgabe</text><text fill="#000000" font-family="'Arial'" font-size="14" font-weight="700" lengthAdjust="spacing" textLength="56.6221" x="309.3965" y="1050.2061">Fehler]</text><g class="message" data-entity-1="part2" data-entity-2="part1" data-source-line="124" id="msg10"><polygon fill="#111827" points="218.2817,1071.6406,208.2817,1075.6406,218.2817,1079.6406,214.2817,1075.6406" style="stroke:#111827;stroke-width:1;stroke-linejoin:miter;stroke-miterlimit:10;"/><line style="stroke:#111827;stroke-width:1;stroke-dasharray:2,2;" x1="212.2817" x2="427.6206" y1="1075.6406" y2="1075.6406"/><text fill="#000000" font-family="'Arial'" font-size="13" font-weight="700" lengthAdjust="spacing" textLength="18.0908" x="224.2817" y="1070.5747">10</text><text fill="#000000" font-family="'Arial'" font-size="13" lengthAdjust="spacing" textLength="40.6694" x="246.3726" y="1070.5747">Fehler</text></g><path d="M172,1090.6406 L232.9385,1090.6406 L232.9385,1098.9375 L222.9385,1108.9375 L167,1108.9375 L167,1095.6406 A5,5 0 0 1 172,1090.6406" fill="#EEF2FF" style="stroke:#111827;stroke-width:1.5;"/><rect fill="none" height="96.1563" rx="5" ry="5" style="stroke:#111827;stroke-width:2;" width="569.5776" x="167" y="1090.6406"/><text fill="#000000" font-family="'Arial'" font-size="14" font-weight="700" lengthAdjust="spacing" textLength="20.9385" x="182" y="1104.6357">alt</text><text fill="#000000" font-family="'Arial'" font-size="14" font-weight="700" lengthAdjust="spacing" textLength="304.6094" x="247.9385" y="1105.6357">[Geplante Abgabe erneut &#252;bermitteln]</text><g class="message" data-entity-1="part1" data-entity-2="part2" data-source-line="127" id="msg11"><polygon fill="#111827" points="421.6206,1127.3672,431.6206,1131.3672,421.6206,1135.3672,425.6206,1131.3672" style="stroke:#111827;stroke-width:1;stroke-linejoin:miter;stroke-miterlimit:10;"/><line style="stroke:#111827;stroke-width:1;" x1="207.2817" x2="427.6206" y1="1131.3672" y2="1131.3672"/><text fill="#000000" font-family="'Arial'" font-size="13" font-weight="700" lengthAdjust="spacing" textLength="18.0908" x="214.2817" y="1126.3013">11</text><text fill="#000000" font-family="'Arial'" font-size="13" lengthAdjust="spacing" textLength="161.6685" x="236.3726" y="1126.3013">POST $prescription-write</text></g><line style="stroke:#111827;stroke-width:1;stroke-dasharray:2,2;" x1="167" x2="736.5776" y1="1140.3672" y2="1140.3672"/><text fill="#000000" font-family="'Arial'" font-size="14" font-weight="700" lengthAdjust="spacing" textLength="187.8652" x="172" y="1153.3623">[Fehler nicht behebbar]</text><g class="message" data-entity-1="part1" data-entity-2="part3" data-source-line="131" id="msg12"><polygon fill="#111827" points="676.4058,1174.7969,686.4058,1178.7969,676.4058,1182.7969,680.4058,1178.7969" style="stroke:#111827;stroke-width:1;stroke-linejoin:miter;stroke-miterlimit:10;"/><line style="stroke:#111827;stroke-width:1;" x1="202.2817" x2="682.4058" y1="1178.7969" y2="1178.7969"/><text fill="#000000" font-family="'Arial'" font-size="13" font-weight="700" lengthAdjust="spacing" textLength="18.0908" x="209.2817" y="1173.731">12</text><text fill="#000000" font-family="'Arial'" font-size="13" lengthAdjust="spacing" textLength="310.0576" x="231.3726" y="1173.731">e-Rezept von e-Med GroupIdentifier entkoppeln</text></g><?plantuml-src ZLVDRjj64BxpAQPI3mbQjIPjMR8H6v0JoGtIH8AivD0qC9RaK5o8MZBBbTsgAD1xNoFFa5DkUfC-IMUNFo8fAYqD6-JExCmtt_piMd4L8TnY4Z6X44Rkaha8mUwB11TJXI4A7-4r-dp558z5gXMH2oLtdvO8A4adYb3yAjunoJCRb_0kbipjZUMQAnLjn19yJE5MnflafOz2yO3JHdWomJ126R0eUcfPwOgBX4cs1ZUMFihdSHHBw9wOfofbtcf9feIVQmHz_LFHI4Fcnu-St9Bf52kIV9iKAC6k6lKnO9j8JMAXth0rGcT4mKITTeqxlaMmpzg5ns3_z7k2Ck9YLL4OZziKtXBZ-WKFuD_4lysOx-l8d9Fw-asLixvvgfIAc1BpXmLmqsGFJx0VdFIwlkrVuBdMg5eQkXTzrYzN5o7tLWBJ56nQcrVO7D9tWKrRgL1Xs_RG6T3QNPaN9JTe_La5cEB73Gel0pbZKd6F9rHERN7L5GxAmJnrfSF478YBfDO45RO1HbB6ZysOp6AT5hFKvh4KPBvEQSdqH2t6qd8cEaWN1ew9hh9pxzxHf7v3rQYhv_dqv-dy_lR5wDw6xcb_E6I3Cwz5wa3NOyCBZ_M3XdGsMhmSlrb0bpaCpy-6JaC-casXUnRuGz_f-mtP-FNunVraH7ljC-zqC1WsvVVpyI_ZsKBth-ixmM3GK9Y-AdBfd3VtpkVJENG7WTst-wUdbcKnJn4xMQmiXGwzWTsfKc0b-xG2qa3JuBGgzkW39gDE7NXT_twEMqnKlY7xw3GY8HGR5OlDsaLfMLTNpQa9p9MR00LSNHd0_85HKsQOgq0b1X0_O1xEzoNOItZ_dWOlIhsNRFuGgdNKpHfdwtEsf3vQzxIddaJcmqo_pUdjmmVBCWDWRzNI1A4CTvyYTO3JUZBQf17702NDxhH7fHUXyTcxeKgCyAb5fuAPAIREP_owSO28Pp_oQtY89L61N57Cj0zIBwGlDsSW2xntNSHt2RFftGA-rUMUyFAOw7aKZC9__leR3gF8SjSuMBBJgvCbQHKHAIWx5XE1QHPHmLuceQ2uNW75QXLZkqUKMzmiKUotq1u3ySWEoyUcyyFenjdXIel769OwHvHzhl-2jIKCuUwpvCkl7DcK2Q90XIpIUMb7jwU8kW1o7FeSBshVqXEeJ63U7PUm8DTBpKUkjhyVaFu-uAAR6lq3q6G0sdm3e-hSVKwDqJrISX2f_UneGb2a07lNbGHDNncHDaR7RMt4b4QocyfH4vaOZBoQsLpLh1-hzqHYwacUcFxoUUenwLEr5vZQIA6ZbDFD3Dvgk8p-T0uB9Ej0b8zqmKBHoQ0NP9bNopBnBYFaNhYbDjLbK-6xtMOzyry9vL5ou-a_cgmjleLa8isc76GJ1-WcMTvITTxpBW0QLnFcXKmyKaGQzUuBpHnzxyIeLX-6p5g57E6iNY-7_KpbqaXBqS1WdkPTseRlm84bfedc6QMgfwAjx8uWgnRX8QvSQiIrE9k0Q0RYHZM9-jybckKrGz44dlU1e40L_VyGekiocHjlcNXDh-KSAVlk8HR7HgvGgpX9zk0hzZEBLa5qNkxq-oy0?></g></svg>