<svg xmlns="http://www.w3.org/2000/svg" xmlns:xlink="http://www.w3.org/1999/xlink" contentStyleType="text/css" data-diagram-type="SEQUENCE" height="899px" preserveAspectRatio="none" style="width:655px;height:899px;background:#F5F5F5;" version="1.1" viewBox="0 0 655 899" width="655px" zoomAndPan="magnify"><?plantuml 1.2026.7beta1?><defs><linearGradient id="gd2b885n0rpxa0" x1="50%" x2="50%" y1="0%" y2="100%"><stop offset="0%" stop-color="#E0E5F0"/><stop offset="100%" stop-color="#D1D9E6"/></linearGradient><filter height="300%" id="fd2b885n0rpxa" width="300%" x="-1" y="-1"><feGaussianBlur result="blurOut" stdDeviation="2"/><feColorMatrix in="blurOut" result="blurOut2" type="matrix" values="0 0 0 0 0 0 0 0 0 0 0 0 0 0 0 0 0 0 .4 0"/><feOffset dx="4" dy="4" in="blurOut2" result="blurOut3"/><feBlend in="SourceGraphic" in2="blurOut3" mode="normal"/></filter></defs><g><rect fill="#F5F5F5" height="899" style="stroke:none;stroke-width:1;" width="655" x="0" y="0"/><g class="title" data-source-line="1"><text fill="#000000" font-family="'Arial'" font-size="14" font-weight="700" lengthAdjust="spacing" textLength="254.96" x="196.6611" y="27.9951">Durchgef&#252;hrte Abgabe erstellen</text><text fill="#000000" font-family="'Arial'" font-size="14" font-weight="700" lengthAdjust="spacing" textLength="463.4014" x="92.4404" y="44.292">Variante A: ELGA-Teilnehmer authentifiziert mittels e-card</text></g><g><title>GDA 1</title><rect fill="#3588A7" fill-opacity="0.29804" height="597.7109" style="stroke:#181818;stroke-width:1;" width="10" x="172.2817" y="210.3203"/></g><g><title>e-Med FA</title><rect fill="#A14C37" fill-opacity="0.47059" height="29.1328" style="stroke:#181818;stroke-width:1;" width="10" x="513.2764" y="210.3203"/></g><g><title>e-Med FA</title><rect fill="#A14C37" fill-opacity="0.47059" height="158.75" style="stroke:#181818;stroke-width:1;" width="10" x="513.2764" y="604.1484"/></g><rect fill="#FFFFFF" fill-opacity="0.14902" height="151.75" rx="5" ry="5" style="stroke:#111827;stroke-width:2;" width="481.7656" x="142" y="619.1484"/><path d="M142,723.4688 L623.7656,723.4688 L623.7656,765.8984 A5,5 0 0 1 618.7656,770.8984 L147,770.8984 A5,5 0 0 1 142,765.8984 L142,723.4688" fill="#7F1515" fill-opacity="0.20000" style="stroke:none;stroke-width:1;"/><g class="participant-lifeline" data-entity-uid="part1" data-qualified-name="GDA_1" data-source-line="49" id="part1-lifeline"><g><title>GDA 1</title><rect fill="#000000" fill-opacity="0.00000" height="682.1406" width="8" x="173.2817" y="134.8906"/><line style="stroke:#181818;stroke-width:0.5;stroke-dasharray:5,5;" x1="177" x2="177" y1="134.8906" y2="817.0313"/></g></g><g class="participant-lifeline" data-entity-uid="part2" data-qualified-name="eMed_FA" data-source-line="51" id="part2-lifeline"><g><title>e-Med FA</title><rect fill="#000000" fill-opacity="0.00000" height="682.1406" width="8" x="514.2764" y="134.8906"/><line style="stroke:#181818;stroke-width:0.5;stroke-dasharray:5,5;" x1="517.6143" x2="517.6143" y1="134.8906" y2="817.0313"/></g></g><g class="participant-lifeline" data-entity-uid="part3" data-qualified-name="e_Rezept" data-source-line="53" id="part3-lifeline"><g><title>e-Rezept</title><rect fill="#000000" fill-opacity="0.00000" height="682.1406" width="8" x="602.1104" y="134.8906"/><line style="stroke:#181818;stroke-width:0.5;stroke-dasharray:5,5;" x1="605.9385" x2="605.9385" y1="134.8906" y2="817.0313"/></g></g><g class="participant participant-head" data-entity-uid="part1" data-qualified-name="GDA_1" data-source-line="49" id="part1-head"><text fill="#000000" font-family="'Arial'" font-size="14" lengthAdjust="spacing" textLength="44.5635" x="152" y="131.5889">GDA 1</text><ellipse cx="177.2817" cy="67.0938" fill="#3588A7" fill-opacity="0.29804" rx="8" ry="8" style="stroke:#181818;stroke-width:0.5;"/><path d="M177.2817,75.0938 L177.2817,102.0938 M164.2817,83.0938 L190.2817,83.0938 M177.2817,102.0938 L164.2817,117.0938 M177.2817,102.0938 L190.2817,117.0938" fill="none" style="stroke:#181818;stroke-width:0.5;"/></g><g class="participant participant-tail" data-entity-uid="part1" data-qualified-name="GDA_1" data-source-line="49" id="part1-tail"><text fill="#000000" font-family="'Arial'" font-size="14" lengthAdjust="spacing" textLength="44.5635" x="152" y="829.0264">GDA 1</text><ellipse cx="177.2817" cy="840.8281" fill="#3588A7" fill-opacity="0.29804" rx="8" ry="8" style="stroke:#181818;stroke-width:0.5;"/><path d="M177.2817,848.8281 L177.2817,875.8281 M164.2817,856.8281 L190.2817,856.8281 M177.2817,875.8281 L164.2817,890.8281 M177.2817,875.8281 L190.2817,890.8281" fill="none" style="stroke:#181818;stroke-width:0.5;"/></g><g class="participant participant-head" data-entity-uid="part2" data-qualified-name="eMed_FA" data-source-line="51" id="part2-head"><rect fill="#A14C37" fill-opacity="0.47059" height="30.2969" rx="5" ry="5" style="stroke:#555555;stroke-width:0.5;" width="79.3242" x="478.6143" y="103.5938"/><text fill="#000000" font-family="'Arial'" font-size="14" lengthAdjust="spacing" textLength="65.3242" x="485.6143" y="123.5889">e-Med FA</text></g><g class="participant participant-tail" data-entity-uid="part2" data-qualified-name="eMed_FA" data-source-line="51" id="part2-tail"><rect fill="#A14C37" fill-opacity="0.47059" height="30.2969" rx="5" ry="5" style="stroke:#555555;stroke-width:0.5;" width="79.3242" x="478.6143" y="816.0313"/><text fill="#000000" font-family="'Arial'" font-size="14" lengthAdjust="spacing" textLength="65.3242" x="485.6143" y="836.0264">e-Med FA</text></g><g class="participant participant-head" data-entity-uid="part3" data-qualified-name="e_Rezept" data-source-line="53" id="part3-head"><rect fill="#F5BD2F" fill-opacity="0.46667" height="30.2969" rx="5" ry="5" style="stroke:#555555;stroke-width:0.5;" width="76.3438" x="567.9385" y="103.5938"/><text fill="#000000" font-family="'Arial'" font-size="14" lengthAdjust="spacing" textLength="62.3438" x="574.9385" y="123.5889">e-Rezept</text></g><g class="participant participant-tail" data-entity-uid="part3" data-qualified-name="e_Rezept" data-source-line="53" id="part3-tail"><rect fill="#F5BD2F" fill-opacity="0.46667" height="30.2969" rx="5" ry="5" style="stroke:#555555;stroke-width:0.5;" width="76.3438" x="567.9385" y="816.0313"/><text fill="#000000" font-family="'Arial'" font-size="14" lengthAdjust="spacing" textLength="62.3438" x="574.9385" y="836.0264">e-Rezept</text></g><g><title>GDA 1</title><rect fill="#3588A7" fill-opacity="0.29804" height="597.7109" style="stroke:#181818;stroke-width:1;" width="10" x="172.2817" y="210.3203"/></g><g><title>e-Med FA</title><rect fill="#A14C37" fill-opacity="0.47059" height="29.1328" style="stroke:#181818;stroke-width:1;" width="10" x="513.2764" y="210.3203"/></g><g><title>e-Med FA</title><rect fill="#A14C37" fill-opacity="0.47059" height="158.75" style="stroke:#181818;stroke-width:1;" width="10" x="513.2764" y="604.1484"/></g><rect fill="#EEEEEE" height="3" rx="5" ry="5" style="stroke:#EEEEEE;stroke-width:1;" width="649.2822" x="0" y="166.0391"/><line style="stroke:#000000;stroke-width:1;" x1="0" x2="649.2822" y1="166.0391" y2="166.0391"/><line style="stroke:#000000;stroke-width:1;" x1="0" x2="649.2822" y1="169.0391" y2="169.0391"/><rect fill="#EEEEEE" height="24.2969" rx="5" ry="5" style="stroke:#000000;stroke-width:2;" width="231.7314" x="208.7754" y="154.8906"/><text fill="#000000" font-family="'Arial'" font-size="14" font-weight="700" lengthAdjust="spacing" textLength="212.8574" x="214.7754" y="171.8857">Geplante Abgaben abrufen</text><g class="message" data-entity-1="part1" data-entity-2="part2" data-source-line="59" id="msg1"><polygon fill="#111827" points="501.2764,206.3203,511.2764,210.3203,501.2764,214.3203,505.2764,210.3203" style="stroke:#111827;stroke-width:1;stroke-linejoin:miter;stroke-miterlimit:10;"/><line style="stroke:#111827;stroke-width:1;" x1="182.2817" x2="507.2764" y1="210.3203" y2="210.3203"/><text fill="#000000" font-family="'Arial'" font-size="13" font-weight="700" lengthAdjust="spacing" textLength="9.0454" x="189.2817" y="205.2544">1</text><text fill="#000000" font-family="'Arial'" font-size="13" lengthAdjust="spacing" textLength="261.2061" x="202.3271" y="205.2544">GET MedicationDispense, Status=active</text></g><g class="message" data-entity-1="part2" data-entity-2="part1" data-source-line="62" id="msg2"><polygon fill="#111827" points="193.2817,235.4531,183.2817,239.4531,193.2817,243.4531,189.2817,239.4531" style="stroke:#111827;stroke-width:1;stroke-linejoin:miter;stroke-miterlimit:10;"/><line style="stroke:#111827;stroke-width:1;stroke-dasharray:2,2;" x1="187.2817" x2="517.2764" y1="239.4531" y2="239.4531"/><text fill="#000000" font-family="'Arial'" font-size="13" font-weight="700" lengthAdjust="spacing" textLength="9.0454" x="199.2817" y="234.3872">2</text><text fill="#000000" font-family="'Arial'" font-size="13" lengthAdjust="spacing" textLength="121.2212" x="212.3271" y="234.3872">Geplante Abgaben</text></g><path d="M45,257.4531 L45,289.4531 A5,5 0 0 0 50,294.4531 L300,294.4531 A5,5 0 0 0 305,289.4531 L305,262.4531 L295,252.4531 L50,252.4531 A5,5 0 0 0 45,257.4531" fill="url(#gd2b885n0rpxa0)" filter="url(#fd2b885n0rpxa)" style="stroke:#8B95A5;stroke-width:1;"/><path d="M295,252.4531 L295,259.9531 A2.5,2.5 0 0 0 297.5,262.4531 L305,262.4531 L295,252.4531" fill="url(#gd2b885n0rpxa0)" style="stroke:#8B95A5;stroke-width:1;"/><text fill="#111827" font-family="'Arial'" font-size="14" lengthAdjust="spacing" textLength="164.124" x="51" y="270.4482">GDA erh&#228;lt alle offenen</text><text fill="#111827" font-family="'Arial'" font-size="14" lengthAdjust="spacing" textLength="239.9756" x="51" y="286.7451">Geplanten Abgaben des Patienten</text><rect fill="#EEEEEE" height="3" rx="5" ry="5" style="stroke:#EEEEEE;stroke-width:1;" width="649.2822" x="0" y="324.1953"/><line style="stroke:#000000;stroke-width:1;" x1="0" x2="649.2822" y1="324.1953" y2="324.1953"/><line style="stroke:#000000;stroke-width:1;" x1="0" x2="649.2822" y1="327.1953" y2="327.1953"/><rect fill="#EEEEEE" height="24.2969" rx="5" ry="5" style="stroke:#000000;stroke-width:2;" width="216.2891" x="216.4966" y="313.0469"/><text fill="#000000" font-family="'Arial'" font-size="14" font-weight="700" lengthAdjust="spacing" textLength="197.415" x="222.4966" y="330.042">Medikationsplan abrufen</text><rect fill="none" height="42.5938" rx="5" ry="5" style="stroke:#000000;stroke-width:1.5;" width="411.9385" x="149" y="347.3438"/><path d="M154,347.3438 L216,347.3438 L216,355.3438 L206,365.3438 L149,365.3438 L149,352.3438 A5,5 0 0 1 154,347.3438" fill="#EEEEEE" style="stroke:#000000;stroke-width:2;"/><text fill="#000000" font-family="'Arial'" font-size="14" font-weight="700" lengthAdjust="spacing" textLength="22.4902" x="162" y="362.3389">ref</text><a href="interactions.html#sequenzdiagramm-plan-read" target="_top" title="interactions.html#sequenzdiagramm-plan-read" xlink:actuate="onRequest" xlink:href="interactions.html#sequenzdiagramm-plan-read" xlink:show="new" xlink:title="interactions.html#sequenzdiagramm-plan-read" xlink:type="simple"><text fill="#0000EE" font-family="'Arial'" font-size="14" lengthAdjust="spacing" textLength="70.6426" x="319.6479" y="382.3389">Plan-Read</text></a><path d="M9,404.9375 L9,452.9375 A5,5 0 0 0 14,457.9375 L336,457.9375 A5,5 0 0 0 341,452.9375 L341,409.9375 L331,399.9375 L14,399.9375 A5,5 0 0 0 9,404.9375" fill="url(#gd2b885n0rpxa0)" filter="url(#fd2b885n0rpxa)" style="stroke:#8B95A5;stroke-width:1;"/><path d="M331,399.9375 L331,407.4375 A2.5,2.5 0 0 0 333.5,409.9375 L341,409.9375 L331,399.9375" fill="url(#gd2b885n0rpxa0)" style="stroke:#8B95A5;stroke-width:1;"/><text fill="#111827" font-family="'Arial'" font-size="14" lengthAdjust="spacing" textLength="226.8848" x="15" y="417.9326">GDA erh&#228;lt Medikationsplan und</text><text fill="#111827" font-family="'Arial'" font-size="14" lengthAdjust="spacing" textLength="285.0654" x="15" y="434.2295">kann die Geplanten Abgaben im Kontext</text><text fill="#111827" font-family="'Arial'" font-size="14" lengthAdjust="spacing" textLength="311.6094" x="15" y="450.5264">der bestehenden Gesamtmedikation pr&#252;fen.</text><rect fill="#EEEEEE" height="3" rx="5" ry="5" style="stroke:#EEEEEE;stroke-width:1;" width="649.2822" x="0" y="487.9766"/><line style="stroke:#000000;stroke-width:1;" x1="0" x2="649.2822" y1="487.9766" y2="487.9766"/><line style="stroke:#000000;stroke-width:1;" x1="0" x2="649.2822" y1="490.9766" y2="490.9766"/><rect fill="#EEEEEE" height="24.2969" rx="5" ry="5" style="stroke:#000000;stroke-width:2;" width="423.3223" x="112.98" y="476.8281"/><text fill="#000000" font-family="'Arial'" font-size="14" font-weight="700" lengthAdjust="spacing" textLength="404.4482" x="118.98" y="493.8232">Durchgef&#252;hrte Abgaben vorbereiten und schreiben</text><path d="M5,521.125 L5,569.125 A5,5 0 0 0 10,574.125 L342,574.125 A5,5 0 0 0 347,569.125 L347,526.125 L337,516.125 L10,516.125 A5,5 0 0 0 5,521.125" fill="url(#gd2b885n0rpxa0)" filter="url(#fd2b885n0rpxa)" style="stroke:#8B95A5;stroke-width:1;"/><path d="M337,516.125 L337,523.625 A2.5,2.5 0 0 0 339.5,526.125 L347,526.125 L337,516.125" fill="url(#gd2b885n0rpxa0)" style="stroke:#8B95A5;stroke-width:1;"/><text fill="#111827" font-family="'Arial'" font-size="14" font-style="italic" lengthAdjust="spacing" textLength="168.7656" x="11" y="534.1201">Durchgef&#252;hrte Abgaben</text><text fill="#111827" font-family="'Arial'" font-size="14" lengthAdjust="spacing" textLength="61.0313" x="184.2158" y="534.1201">erstellen</text><text fill="#111827" font-family="'Arial'" font-size="14" lengthAdjust="spacing" textLength="182.4648" x="11" y="550.417">(referenzieren zugeh&#246;rige</text><text fill="#111827" font-family="'Arial'" font-size="14" font-style="italic" lengthAdjust="spacing" textLength="130.5459" x="197.915" y="550.417">Geplante Abgaben</text><text fill="#111827" font-family="'Arial'" font-size="14" lengthAdjust="spacing" textLength="4.4502" x="328.4609" y="550.417">&#160;</text><text fill="#111827" font-family="'Arial'" font-size="14" lengthAdjust="spacing" textLength="26.6328" x="11" y="566.7139">und</text><text fill="#111827" font-family="'Arial'" font-size="14" font-style="italic" lengthAdjust="spacing" textLength="173.1953" x="42.083" y="566.7139">Medikationsplaneintr&#228;ge</text><text fill="#111827" font-family="'Arial'" font-size="14" lengthAdjust="spacing" textLength="5.4619" x="215.2783" y="566.7139">)</text><g class="message" data-entity-1="part1" data-entity-2="part2" data-source-line="86" id="msg3"><polygon fill="#111827" points="501.2764,600.1484,511.2764,604.1484,501.2764,608.1484,505.2764,604.1484" style="stroke:#111827;stroke-width:1;stroke-linejoin:miter;stroke-miterlimit:10;"/><line style="stroke:#111827;stroke-width:1;" x1="182.2817" x2="507.2764" y1="604.1484" y2="604.1484"/><text fill="#000000" font-family="'Arial'" font-size="13" font-weight="700" lengthAdjust="spacing" textLength="9.0454" x="189.2817" y="599.0825">3</text><text fill="#000000" font-family="'Arial'" font-size="13" lengthAdjust="spacing" textLength="298.9492" x="202.3271" y="599.0825">POST Transaction Bundle MedicationDispense</text></g><path d="M147,619.1484 L207.9385,619.1484 L207.9385,627.4453 L197.9385,637.4453 L142,637.4453 L142,624.1484 A5,5 0 0 1 147,619.1484" fill="#EEF2FF" style="stroke:#111827;stroke-width:1.5;"/><rect fill="none" height="151.75" rx="5" ry="5" style="stroke:#111827;stroke-width:2;" width="481.7656" x="142" y="619.1484"/><text fill="#000000" font-family="'Arial'" font-size="14" font-weight="700" lengthAdjust="spacing" textLength="20.9385" x="157" y="633.1436">alt</text><text fill="#000000" font-family="'Arial'" font-size="14" font-weight="700" lengthAdjust="spacing" textLength="356.2207" x="222.9385" y="634.1436">[Durchgef&#252;hrte Abgaben erfolgreich erstellt]</text><path d="M421,648.7422 L421,680.7422 A5,5 0 0 0 426,685.7422 L605,685.7422 A5,5 0 0 0 610,680.7422 L610,653.7422 L600,643.7422 L426,643.7422 A5,5 0 0 0 421,648.7422" fill="url(#gd2b885n0rpxa0)" filter="url(#fd2b885n0rpxa)" style="stroke:#8B95A5;stroke-width:1;"/><path d="M600,643.7422 L600,651.2422 A2.5,2.5 0 0 0 602.5,653.7422 L610,653.7422 L600,643.7422" fill="url(#gd2b885n0rpxa0)" style="stroke:#8B95A5;stroke-width:1;"/><text fill="#111827" font-family="'Arial'" font-size="14" font-style="italic" lengthAdjust="spacing" textLength="168.7656" x="427" y="661.7373">Durchgef&#252;hrte Abgaben</text><text fill="#111827" font-family="'Arial'" font-size="14" lengthAdjust="spacing" textLength="82.6123" x="427" y="678.0342">gespeichert</text><g class="message" data-entity-1="part2" data-entity-2="part1" data-source-line="96" id="msg4"><polygon fill="#111827" points="193.2817,711.4688,183.2817,715.4688,193.2817,719.4688,189.2817,715.4688" style="stroke:#111827;stroke-width:1;stroke-linejoin:miter;stroke-miterlimit:10;"/><line style="stroke:#111827;stroke-width:1;stroke-dasharray:2,2;" x1="187.2817" x2="512.2764" y1="715.4688" y2="715.4688"/><text fill="#000000" font-family="'Arial'" font-size="13" font-weight="700" lengthAdjust="spacing" textLength="9.0454" x="199.2817" y="710.4028">4</text><text fill="#000000" font-family="'Arial'" font-size="13" lengthAdjust="spacing" textLength="18.7573" x="212.3271" y="710.4028">OK</text></g><line style="stroke:#111827;stroke-width:1;stroke-dasharray:2,2;" x1="142" x2="623.7656" y1="724.4688" y2="724.4688"/><text fill="#000000" font-family="'Arial'" font-size="14" font-weight="700" lengthAdjust="spacing" textLength="372.5723" x="147" y="737.4639">[Fehler bei Erstellung Durchgef&#252;hrte Abgaben]</text><g class="message" data-entity-1="part2" data-entity-2="part1" data-source-line="99" id="msg5"><polygon fill="#111827" points="193.2817,758.8984,183.2817,762.8984,193.2817,766.8984,189.2817,762.8984" style="stroke:#111827;stroke-width:1;stroke-linejoin:miter;stroke-miterlimit:10;"/><line style="stroke:#111827;stroke-width:1;stroke-dasharray:2,2;" x1="187.2817" x2="517.2764" y1="762.8984" y2="762.8984"/><text fill="#000000" font-family="'Arial'" font-size="13" font-weight="700" lengthAdjust="spacing" textLength="9.0454" x="199.2817" y="757.8325">5</text><text fill="#000000" font-family="'Arial'" font-size="13" lengthAdjust="spacing" textLength="40.6694" x="212.3271" y="757.8325">Fehler</text></g><g class="message" data-entity-1="part1" data-entity-2="part3" data-source-line="104" id="msg6"><polygon fill="#111827" points="594.1104,795.0313,604.1104,799.0313,594.1104,803.0313,598.1104,799.0313" style="stroke:#111827;stroke-width:1;stroke-linejoin:miter;stroke-miterlimit:10;"/><line style="stroke:#111827;stroke-width:1;" x1="182.2817" x2="600.1104" y1="799.0313" y2="799.0313"/><text fill="#000000" font-family="'Arial'" font-size="13" font-weight="700" lengthAdjust="spacing" textLength="9.0454" x="189.2817" y="793.9653">6</text><text fill="#000000" font-family="'Arial'" font-size="13" lengthAdjust="spacing" textLength="68.9229" x="202.3271" y="793.9653">e-Rezept ?</text></g><?plantuml-src XLRTajes5BxNKvp2JJiJqZNWXMN2TjWiIplvWM5fBvfc664TsngCJ6LvavB9s-GPUfKxNgn7DZ-sSL9pWQNpe-_xT7Ha8qs4S9zgBmpGttyDjK4OhGA-Ga2T68mYL7-fFxYMN5dJ0CQl9wFM0cMaCDoW1fwQ49MHljn9r0Osqb1O0jZok1QC9Mkfjbpp3QnYBL2_ZADOG_CgUufMxgq37QTA73nyr_uA7ad8HVn1gW1y7YLOi1p2j28yJZ6fG9-daNc8bNdBDmYD4H696lKUZtA7u7JhZT-2_Ui_MzIHLEk2mtXSv_2x4jaBNi2_Yp_Ek12MMVkgF7zNrCpDdgAaAgPD-SG0xghguHMw_bMhAHnnWzVMevYflxfnkNkQNOJIMojC4d1eRbvGiq_Z8pQRfI25upZzTe_c7a_xOdIAx7CHO89_fwYy7EICQoCzkQLIgkDLThWeX-mfErrkp8NvkAabGq5jW97MyOSgfsooB4isLRVYoP2lrQ6f2I7VbZYUCkUcY-r2lvsnAqIUbszRKN-WQhJLytBwUZfVJkv7ImUQ7RVVvxskLsDjGzFZ_HkFktx5EXijVXk_NK2JjpbUT_ljYdqqcqApwuk-QBkYOXk_6Tyl7qOKwtIzJg_NhzgNy_6Vuzd2dj-LQFkzNiLX-kgub-thQknyFfr3i-SxhkDsEennpv0uELMUG8FUm6aK5M1iUzvMm3SeB3ZhYoqQmCEeKGPU2LZESOTRSuZ81uqA5SAHcbYbcnLgneP3cE0sojjXrYaLy9LEVVeV3XdBqRPkZs06C1alWDwbnusCrRrCjgWIV0QFXfiq6H99-OGi--EKD4zGv7Wo7VcL6HrdMxHe5Z2uGCW4LfEmh7V4JtWGs0AddX_klqGa1_LzY7tYHApOCPiw4HQOq7ao4kqiGoMoJfI9OvckCwQ9ZIffez4lhFZin6S0xzv9IgKjI0fy7ffDrCnxnqv87b0hsRHikfP6Bc1ct-RqzlxzTsbKiT1v0xRcYWX8X4jQSWElw1pZHmEac8OLqXL8jviWsmGJlZ6RKqROwlrN8lQyJB_sBbNm56kg7fHsDOiYyK8QhGwwL3cyaBVrULxyB6_F5pEm7qbHIglirKlZNHfWkFzNom21SbIh88jcTdaoLhH1qb_llmHedNugSBgivzdqSG4BpLMIRnVSKKggbyiQ_x_APPmswTGMlY4TQZ-E0bBB2u_K3QDEUHRjMD40tnMEx04IC4f47oeqEfC4g3b418an-fGfjwS73AEiD2ICSpGftIJrgzRdFMGWOysfjCeNHJyqg05bEhGd-EK_?></g></svg>