<svg xmlns="http://www.w3.org/2000/svg" xmlns:xlink="http://www.w3.org/1999/xlink" version="1.1" data-diagram-type="SEQUENCE" style="width:691px;height:840px;background:#F5F5F5;" width="691px" height="840px" viewBox="0 0 691 840" zoomAndPan="magnify" preserveAspectRatio="none" contentStyleType="text/css"><?plantuml 1.2026.7beta8?><defs><linearGradient x1="50%" y1="0%" x2="50%" y2="100%" id="gbmysd0l0mwjh0"><stop stop-color="#E0E5F0" offset="0%"/><stop stop-color="#D1D9E6" offset="100%"/></linearGradient></defs><g font-family="sans-serif" lengthAdjust="spacing"><rect x="0" y="0" width="691" height="840" fill="#F5F5F5" style="stroke:none;"/><g class="title" data-source-line="1"><text x="215.116" y="27.995" fill="#000" font-size="14" textLength="259.718" font-weight="700" font-family="'Arial'">Initial erstellter Medikationsplan</text></g><path d="M85.971,318.883 L666.95,318.883 A5,5 0 0 1 671.95,323.883 L671.95,658.398 L80.971,658.398 L80.971,323.883 A5,5 0 0 1 85.971,318.883" fill="#0F9ED5" fill-opacity="0.145"/><path d="M80.971,658.398 L671.95,658.398 L671.95,724.289 A5,5 0 0 1 666.95,729.289 L85.971,729.289 A5,5 0 0 1 80.971,724.289 L80.971,658.398" fill="#E97132" fill-opacity="0.208"/><g><title>GDA 1</title><rect x="118.752" y="123.594" width="8" height="629.695" fill="#000" fill-opacity="0"/><line x1="122.252" y1="123.594" x2="122.252" y2="753.289" style="stroke:#181818;stroke-width:0.5;stroke-dasharray:5,5;"/></g><g><title></title><rect x="117.252" y="197.023" width="10" height="532.266" fill="#156082" fill-opacity="0.502" style="stroke:#181818;stroke-width:1;"/></g><g><title>e-Med FA</title><rect x="379.441" y="123.594" width="8" height="629.695" fill="#000" fill-opacity="0"/><line x1="382.941" y1="123.594" x2="382.941" y2="753.289" style="stroke:#181818;stroke-width:0.5;stroke-dasharray:5,5;"/></g><g><title></title><rect x="377.941" y="197.023" width="10" height="442.375" fill="#E97232" fill-opacity="0.741" style="stroke:#181818;stroke-width:1;"/></g><text x="96.971" y="120.292" fill="#000" font-size="14" textLength="44.563" font-family="'Arial'">GDA 1</text><ellipse cx="122.252" cy="55.797" rx="8" ry="8" fill="#156082" fill-opacity="0.502" style="stroke:#181818;stroke-width:0.5;"/><path d="M122.252,63.797 L122.252,90.797 M109.252,71.797 L135.252,71.797 M122.252,90.797 L109.252,105.797 M122.252,90.797 L135.252,105.797" style="stroke:#181818;stroke-width:0.5;" fill="none"/><rect x="343.279" y="92.297" width="79.324" height="30.297" fill="#E97232" fill-opacity="0.741" style="stroke:#555;stroke-width:0.5;" rx="5" ry="5"/><text x="350.279" y="112.292" fill="#000" font-size="14" textLength="65.324" font-family="'Arial'">e-Med FA</text><text x="96.971" y="766.284" fill="#000" font-size="14" textLength="44.563" font-family="'Arial'">GDA 1</text><ellipse cx="122.252" cy="778.086" rx="8" ry="8" fill="#156082" fill-opacity="0.502" style="stroke:#181818;stroke-width:0.5;"/><path d="M122.252,786.086 L122.252,813.086 M109.252,794.086 L135.252,794.086 M122.252,813.086 L109.252,828.086 M122.252,813.086 L135.252,828.086" style="stroke:#181818;stroke-width:0.5;" fill="none"/><rect x="343.279" y="753.289" width="79.324" height="30.297" fill="#E97232" fill-opacity="0.741" style="stroke:#555;stroke-width:0.5;" rx="5" ry="5"/><text x="350.279" y="773.284" fill="#000" font-size="14" textLength="65.324" font-family="'Arial'">e-Med FA</text><rect x="10" y="152.742" width="670.95" height="3" fill="#EEE" style="stroke:#EEE;stroke-width:1;" rx="5" ry="5"/><line x1="10" y1="152.742" x2="680.95" y2="152.742" style="stroke:#000;stroke-width:1;"/><line x1="10" y1="155.742" x2="680.95" y2="155.742" style="stroke:#000;stroke-width:1;"/><rect x="247.099" y="141.594" width="196.752" height="24.297" fill="#EEE" style="stroke:#000;stroke-width:2;" rx="5" ry="5"/><text x="253.099" y="158.589" fill="#000" font-size="14" textLength="177.878" font-weight="700" font-family="'Arial'">Erstmaliges Plan-Read</text><polygon points="365.941,193.023,375.941,197.023,365.941,201.023,369.941,197.023" fill="#111827" style="stroke:#111827;stroke-width:1;stroke-linejoin:miter;stroke-miterlimit:10;"/><line x1="127.252" y1="197.023" x2="371.941" y2="197.023" style="stroke:#111827;stroke-width:1;"/><text x="134.252" y="191.958" fill="#000" font-size="13" font-weight="700" font-family="'Arial'">1</text><text x="147.298" y="191.958" fill="#000" font-size="13" textLength="108.989" font-family="'Arial'">POST $plan-read</text><path d="M15,215.023 L15,247.023 A5,5 0 0 0 20,252.023 L224,252.023 A5,5 0 0 0 229,247.023 L229,220.023 L219,210.023 L20,210.023 A5,5 0 0 0 15,215.023" style="stroke:#8B95A5;stroke-width:1;" fill="url(#gbmysd0l0mwjh0)"/><path d="M219,210.023 L219,217.523 A2.5,2.5 0 0 0 221.5,220.023 L229,220.023 L219,210.023" style="stroke:#8B95A5;stroke-width:1;" fill="url(#gbmysd0l0mwjh0)"/><text x="21" y="228.019" fill="#111827" font-size="14" textLength="193.505" font-family="'Arial'">Abruf des Medikationsplans</text><text x="21" y="244.315" fill="#111827" font-size="14" textLength="112.492" font-family="'Arial'">zur Bearbeitung</text><line x1="387.941" y1="293.883" x2="429.941" y2="293.883" style="stroke:#111827;stroke-width:1;"/><line x1="429.941" y1="293.883" x2="429.941" y2="306.883" style="stroke:#111827;stroke-width:1;"/><line x1="388.941" y1="306.883" x2="429.941" y2="306.883" style="stroke:#111827;stroke-width:1;"/><polygon points="398.941,302.883,388.941,306.883,398.941,310.883,394.941,306.883" fill="#111827" style="stroke:#111827;stroke-width:1;stroke-linejoin:miter;stroke-miterlimit:10;"/><text x="394.941" y="281.25" fill="#000" font-size="13" font-weight="700" font-family="'Arial'">2</text><text x="407.986" y="273.684" fill="#000" font-size="13" textLength="160.799" font-family="'Arial'">Existiert ein persistierter</text><text x="407.986" y="288.817" fill="#000" font-size="13" textLength="113.217" font-family="'Arial'">Medikationsplan?</text><path d="M85.971,318.883 L146.909,318.883 L146.909,327.18 L136.909,337.18 L80.971,337.18 L80.971,323.883 A5,5 0 0 1 85.971,318.883" style="stroke:#111827;stroke-width:1.5;" fill="#EEF2FF"/><rect x="80.971" y="318.883" width="590.979" height="410.406" fill="none" style="stroke:#111827;stroke-width:2;" rx="5" ry="5"/><text x="95.971" y="332.878" fill="#000" font-size="14" textLength="20.938" font-weight="700" font-family="'Arial'">alt</text><text x="161.909" y="333.878" fill="#000" font-size="14" textLength="313.934" font-weight="700" font-family="'Arial'">[nein: kein Medikationsplan persistiert]</text><line x1="80.971" y1="658.398" x2="671.95" y2="658.398" style="stroke:#111827;stroke-width:1;stroke-dasharray:2,2;"/><text x="85.971" y="673.394" fill="#000" font-size="14" textLength="255.507" font-weight="700" font-family="'Arial'">[ja: Medikationsplan persistiert]</text><line x1="387.941" y1="384.742" x2="429.941" y2="384.742" style="stroke:#111827;stroke-width:1;"/><line x1="429.941" y1="384.742" x2="429.941" y2="397.742" style="stroke:#111827;stroke-width:1;"/><line x1="388.941" y1="397.742" x2="429.941" y2="397.742" style="stroke:#111827;stroke-width:1;"/><polygon points="398.941,393.742,388.941,397.742,398.941,401.742,394.941,397.742" fill="#111827" style="stroke:#111827;stroke-width:1;stroke-linejoin:miter;stroke-miterlimit:10;"/><text x="394.941" y="372.11" fill="#000" font-size="13" font-weight="700" font-family="'Arial'">3</text><text x="407.986" y="364.543" fill="#000" font-size="13" textLength="205.74" font-family="'Arial'">Erzeugt leeren Medikationsplan</text><text x="407.986" y="379.676" fill="#000" font-size="13" textLength="240.963" font-family="'Arial'">List mit emptyReason = "notstarted"</text><line x1="387.941" y1="457.141" x2="429.941" y2="457.141" style="stroke:#111827;stroke-width:1;"/><line x1="429.941" y1="457.141" x2="429.941" y2="470.141" style="stroke:#111827;stroke-width:1;"/><line x1="388.941" y1="470.141" x2="429.941" y2="470.141" style="stroke:#111827;stroke-width:1;"/><polygon points="398.941,466.141,388.941,470.141,398.941,474.141,394.941,470.141" fill="#111827" style="stroke:#111827;stroke-width:1;stroke-linejoin:miter;stroke-miterlimit:10;"/><text x="394.941" y="436.942" fill="#000" font-size="13" font-weight="700" font-family="'Arial'">4</text><text x="407.986" y="421.809" fill="#000" font-size="13" textLength="65.489" font-family="'Arial'">Persistiert</text><text x="407.986" y="436.942" fill="#000" font-size="13" textLength="111.008" font-family="'Arial'">Medikationsplan-</text><text x="407.986" y="452.075" fill="#000" font-size="13" textLength="113.693" font-family="'Arial'">Collection Bundle</text><line x1="387.941" y1="514.406" x2="429.941" y2="514.406" style="stroke:#111827;stroke-width:1;"/><line x1="429.941" y1="514.406" x2="429.941" y2="527.406" style="stroke:#111827;stroke-width:1;"/><line x1="388.941" y1="527.406" x2="429.941" y2="527.406" style="stroke:#111827;stroke-width:1;"/><polygon points="398.941,523.406,388.941,527.406,398.941,531.406,394.941,527.406" fill="#111827" style="stroke:#111827;stroke-width:1;stroke-linejoin:miter;stroke-miterlimit:10;"/><text x="394.941" y="501.774" fill="#000" font-size="13" font-weight="700" font-family="'Arial'">5</text><text x="407.986" y="494.208" fill="#000" font-size="13" textLength="147.342" font-family="'Arial'">Erzeugt Auslieferungs-</text><text x="407.986" y="509.34" fill="#000" font-size="13" textLength="113.693" font-family="'Arial'">Collection Bundle</text><path d="M296.962,545.406 L296.962,577.406 A5,5 0 0 0 301.962,582.406 L462.962,582.406 A5,5 0 0 0 467.962,577.406 L467.962,550.406 L457.962,540.406 L301.962,540.406 A5,5 0 0 0 296.962,545.406" style="stroke:#8B95A5;stroke-width:1;" fill="url(#gbmysd0l0mwjh0)"/><path d="M457.962,540.406 L457.962,547.906 A2.5,2.5 0 0 0 460.462,550.406 L467.962,550.406 L457.962,540.406" style="stroke:#8B95A5;stroke-width:1;" fill="url(#gbmysd0l0mwjh0)"/><text x="302.962" y="558.401" fill="#111827" font-size="14" textLength="150.958" font-family="'Arial'">Keine Transformation</text><text x="302.962" y="574.698" fill="#111827" font-size="14" textLength="85.675" font-family="'Arial'">erforderlich.</text><polygon points="138.252,635.398,128.252,639.398,138.252,643.398,134.252,639.398" fill="#111827" style="stroke:#111827;stroke-width:1;stroke-linejoin:miter;stroke-miterlimit:10;"/><line x1="132.252" y1="639.398" x2="376.941" y2="639.398" style="stroke:#111827;stroke-width:1;"/><text x="144.252" y="619.2" fill="#000" font-size="13" font-weight="700" font-family="'Arial'">6</text><text x="157.298" y="604.067" fill="#000" font-size="13" textLength="206.934" font-family="'Arial'">Auslieferungs-Collection Bundle</text><text x="157.298" y="619.2" fill="#000" font-size="13" textLength="213.643" font-family="'Arial'">(List.emptyReason = notstarted)</text><text x="157.298" y="634.333" fill="#000" font-size="13" textLength="47.398" font-family="'Arial'">+ ETag</text><rect x="98.971" y="681.695" width="321.632" height="42.594" fill="none" style="stroke:#000;stroke-width:1.5;" rx="5" ry="5"/><path d="M103.971,681.695 L165.971,681.695 L165.971,689.695 L155.971,699.695 L98.971,699.695 L98.971,686.695 A5,5 0 0 1 103.971,681.695" style="stroke:#000;stroke-width:2;" fill="#EEE"/><text x="111.971" y="696.69" fill="#000" font-size="14" textLength="22.49" font-weight="700" font-family="'Arial'">ref</text><text x="175.985" y="716.69" fill="#000" font-size="14" textLength="167.604" font-family="'Arial'">Siehe Ablauf Plan-Read.</text><?plantuml-src XLHjZzf64Fw-ls8AbTgg9R9DWFD9j38vNnhb1GJqIuLqMl2OssBMP7UTorsK_zvP0-UrpIaB7xmppyuyysg4oH3UIM44pm2LDfXb1XLyn4Jik16vr8UCIyP-qJiX3rpnFV2DoTN2FD9B_e0wtoDZbNQTgmJLcppB5NIzyhXQljbjLLx8v8H81_Rd8FGzJ_878RUGyaoZepazKvBu-QxH15DUPEOsb-OJtoDq8aNXT2uZ5k89mNzzMVaIxRyV3wWo8NSE88ul0VwHIVc1BVgJ_EkC9ucDBF3gyecRiq5vt9JAt21yOm2JPlRGmq7gzRg9duGuj0ZNqjKw7F31itHvBpOxYLg3JxAvaqsFxcTkregJ2j_thu8HoHQDkdnt6MhyNA3S75dEk39Y8mvScak1rG6jVYXF7TIkJ4jzhcfDuQGR858gVsW6LGhhUIb5bpm-Auw--YHwIymFjHYVBHzLhNfX6fJHEIyhzu5Dwa_KZhPztam_JETtRs-YEn_eTFt1qBiAhhmBWA04XCEXDxff0MRHybtyQMajXCD9yBe5Y6PJA4_NkmtZcq7O1CGVuvkxsuW068w2Vh1Ece2xUVnlF5j2TvFqH_s0Xyqmfk-XvYCOD4tCvzDv2OZ3aTyF-ZG0vPw1OmQuXWvzWTzn4yCELR41QMTPcXQAFRh0RTIfXq0s2vFBOhz6nTXu335jl3tFn1Orp6ZFzUR84nYF6JkwxVrvDdiDi-bY2J_RRTXJXBBqn1TEatc4khHOER7v5ppHPz5Q5Iaj6jrSh9ez5GecoDKQXIdabg5Coe5dbODpPFLOpbANO_nLQ2DGKJQ415f9-dH7jP8Drt-HXynK1PBqv1fszc43wHe2HjrxqRLwmc9h84DKs3AnaX_80Em5CTiVp2FbMUSInj2XMBMXCcBIUS7ohFBU2gAtaZHQ6Mwi12OqQHd-W61Kw4nWYegohLzuJ_-gX2SB97kFjcENYkgMvcfVqh3UL5fESYOszw_i_Lp26f6o4wuRxblEL_9NcwbNzInLIVfj9N-7UCctbcE2pHvXZ25jvzfK_SUlVrXHXQdJhtzK8Iy4tYD4wunJ0p-Fo3bAUiQOm-BOxQJv7m00?></g></svg>