<svg xmlns="http://www.w3.org/2000/svg" xmlns:xlink="http://www.w3.org/1999/xlink" version="1.1" data-diagram-type="SEQUENCE" style="width:785px;height:732px;background:#F5F5F5;" width="785px" height="732px" viewBox="0 0 785 732" zoomAndPan="magnify" preserveAspectRatio="none" contentStyleType="text/css"><?plantuml 1.2026.7beta3?><defs><linearGradient x1="50%" y1="0%" x2="50%" y2="100%" id="g18vqhd4yabg5e0"><stop stop-color="#E0E5F0" offset="0%"/><stop stop-color="#D1D9E6" offset="100%"/></linearGradient></defs><g><rect x="0" y="0" width="785" height="732" fill="#F5F5F5" style="stroke:none;stroke-width:1;"/><g class="title" data-source-line="1"><text x="292.6902" y="27.9951" fill="#000000" font-size="14" lengthAdjust="spacing" textLength="193.0537" font-weight="700" font-family="'Arial'">Geplante Abgaben lesen</text><text x="257.7585" y="44.292" fill="#000000" font-size="14" lengthAdjust="spacing" textLength="262.917" font-weight="700" font-family="'Arial'">Variante A: Zugriff mittels e-card</text></g><g><title>GDA 1</title><rect x="181.2817" y="236.9141" width="10" height="403.9609" fill="#156082" fill-opacity="0.50196" style="stroke:#181818;stroke-width:1;"/></g><g><title>GDA 1</title><rect x="186.2817" y="366.0703" width="10" height="274.8047" fill="#156082" fill-opacity="0.50196" style="stroke:#181818;stroke-width:1;"/></g><g><title>e-Med FA</title><rect x="628.4282" y="366.0703" width="10" height="29.1328" fill="#E97232" fill-opacity="0.74118" style="stroke:#181818;stroke-width:1;"/></g><g><title>e-Rezept</title><rect x="716.2622" y="236.9141" width="10" height="29.1328" fill="#CD3732" fill-opacity="0.66275" style="stroke:#181818;stroke-width:1;"/></g><rect x="9" y="196.1875" width="760.4341" height="436.6875" fill="none" style="stroke:#111827;stroke-width:2;" rx="5" ry="5"/><g class="participant-lifeline" data-qualified-name="GDA_1" data-entity-uid="part1" id="part1-lifeline" data-source-line="51"><g><title>GDA 1</title><rect x="182.2817" y="134.8906" width="8" height="514.9844" fill="#000000" fill-opacity="0.00000"/><line x1="186" y1="134.8906" x2="186" y2="649.875" style="stroke:#181818;stroke-width:0.5;stroke-dasharray:5,5;"/></g></g><g class="participant-lifeline" data-qualified-name="eMed_FA" data-entity-uid="part2" id="part2-lifeline" data-source-line="52"><g><title>e-Med FA</title><rect x="629.4282" y="134.8906" width="8" height="514.9844" fill="#000000" fill-opacity="0.00000"/><line x1="632.7661" y1="134.8906" x2="632.7661" y2="649.875" style="stroke:#181818;stroke-width:0.5;stroke-dasharray:5,5;"/></g></g><g class="participant-lifeline" data-qualified-name="e_Rezept" data-entity-uid="part3" id="part3-lifeline" data-source-line="53"><g><title>e-Rezept</title><rect x="717.2622" y="134.8906" width="8" height="514.9844" fill="#000000" fill-opacity="0.00000"/><line x1="721.0903" y1="134.8906" x2="721.0903" y2="649.875" style="stroke:#181818;stroke-width:0.5;stroke-dasharray:5,5;"/></g></g><g class="participant participant-head" data-qualified-name="GDA_1" data-entity-uid="part1" id="part1-head" data-source-line="51"><text x="161" y="131.5889" fill="#000000" font-size="14" lengthAdjust="spacing" textLength="44.5635" font-family="'Arial'">GDA 1</text><ellipse cx="186.2817" cy="67.0938" rx="8" ry="8" fill="#156082" fill-opacity="0.50196" style="stroke:#181818;stroke-width:0.5;"/><path d="M186.2817,75.0938 L186.2817,102.0938 M173.2817,83.0938 L199.2817,83.0938 M186.2817,102.0938 L173.2817,117.0938 M186.2817,102.0938 L199.2817,117.0938" style="stroke:#181818;stroke-width:0.5;" fill="none"/></g><g class="participant participant-tail" data-qualified-name="GDA_1" data-entity-uid="part1" id="part1-tail" data-source-line="51"><text x="161" y="661.8701" fill="#000000" font-size="14" lengthAdjust="spacing" textLength="44.5635" font-family="'Arial'">GDA 1</text><ellipse cx="186.2817" cy="673.6719" rx="8" ry="8" fill="#156082" fill-opacity="0.50196" style="stroke:#181818;stroke-width:0.5;"/><path d="M186.2817,681.6719 L186.2817,708.6719 M173.2817,689.6719 L199.2817,689.6719 M186.2817,708.6719 L173.2817,723.6719 M186.2817,708.6719 L199.2817,723.6719" style="stroke:#181818;stroke-width:0.5;" fill="none"/></g><g class="participant participant-head" data-qualified-name="eMed_FA" data-entity-uid="part2" id="part2-head" data-source-line="52"><rect x="593.7661" y="103.5938" width="79.3242" height="30.2969" fill="#E97232" fill-opacity="0.74118" style="stroke:#555555;stroke-width:0.5;" rx="5" ry="5"/><text x="600.7661" y="123.5889" fill="#000000" font-size="14" lengthAdjust="spacing" textLength="65.3242" font-family="'Arial'">e-Med FA</text></g><g class="participant participant-tail" data-qualified-name="eMed_FA" data-entity-uid="part2" id="part2-tail" data-source-line="52"><rect x="593.7661" y="648.875" width="79.3242" height="30.2969" fill="#E97232" fill-opacity="0.74118" style="stroke:#555555;stroke-width:0.5;" rx="5" ry="5"/><text x="600.7661" y="668.8701" fill="#000000" font-size="14" lengthAdjust="spacing" textLength="65.3242" font-family="'Arial'">e-Med FA</text></g><g class="participant participant-head" data-qualified-name="e_Rezept" data-entity-uid="part3" id="part3-head" data-source-line="53"><rect x="683.0903" y="103.5938" width="76.3438" height="30.2969" fill="#CD3732" fill-opacity="0.66275" style="stroke:#555555;stroke-width:0.5;" rx="5" ry="5"/><text x="690.0903" y="123.5889" fill="#000000" font-size="14" lengthAdjust="spacing" textLength="62.3438" font-family="'Arial'">e-Rezept</text></g><g class="participant participant-tail" data-qualified-name="e_Rezept" data-entity-uid="part3" id="part3-tail" data-source-line="53"><rect x="683.0903" y="648.875" width="76.3438" height="30.2969" fill="#CD3732" fill-opacity="0.66275" style="stroke:#555555;stroke-width:0.5;" rx="5" ry="5"/><text x="690.0903" y="668.8701" fill="#000000" font-size="14" lengthAdjust="spacing" textLength="62.3438" font-family="'Arial'">e-Rezept</text></g><g><title>GDA 1</title><rect x="181.2817" y="236.9141" width="10" height="403.9609" fill="#156082" fill-opacity="0.50196" style="stroke:#181818;stroke-width:1;"/></g><g><title>GDA 1</title><rect x="186.2817" y="366.0703" width="10" height="274.8047" fill="#156082" fill-opacity="0.50196" style="stroke:#181818;stroke-width:1;"/></g><g><title>e-Med FA</title><rect x="628.4282" y="366.0703" width="10" height="29.1328" fill="#E97232" fill-opacity="0.74118" style="stroke:#181818;stroke-width:1;"/></g><g><title>e-Rezept</title><rect x="716.2622" y="236.9141" width="10" height="29.1328" fill="#CD3732" fill-opacity="0.66275" style="stroke:#181818;stroke-width:1;"/></g><rect x="0" y="166.0391" width="779.4341" height="3" fill="#EEEEEE" style="stroke:#EEEEEE;stroke-width:1;" rx="5" ry="5"/><line x1="0" y1="166.0391" x2="779.4341" y2="166.0391" style="stroke:#000000;stroke-width:1;"/><line x1="0" y1="169.0391" x2="779.4341" y2="169.0391" style="stroke:#000000;stroke-width:1;"/><rect x="162.7058" y="154.8906" width="454.0225" height="24.2969" fill="#EEEEEE" style="stroke:#000000;stroke-width:2;" rx="5" ry="5"/><text x="168.7058" y="171.8857" fill="#000000" font-size="14" lengthAdjust="spacing" textLength="435.1484" font-weight="700" font-family="'Arial'">e-Rezept, Geplante Abgabe + Medikationsplan abrufen</text><path d="M14,196.1875 L80.373,196.1875 L80.373,204.4844 L70.373,214.4844 L9,214.4844 L9,201.1875 A5,5 0 0 1 14,196.1875" style="stroke:#111827;stroke-width:1.5;" fill="#EEF2FF"/><rect x="9" y="196.1875" width="760.4341" height="436.6875" fill="none" style="stroke:#111827;stroke-width:2;" rx="5" ry="5"/><text x="24" y="210.1826" fill="#000000" font-size="14" lengthAdjust="spacing" textLength="26.373" font-weight="700" font-family="'Arial'">par</text><text x="95.373" y="211.1826" fill="#000000" font-size="14" lengthAdjust="spacing" textLength="149.502" font-weight="700" font-family="'Arial'">[e-Rezept abrufen]</text><g class="message" data-entity-1="part1" data-entity-2="part3" id="msg1" data-source-line="60"><polygon points="704.2622,232.9141,714.2622,236.9141,704.2622,240.9141,708.2622,236.9141" fill="#111827" style="stroke:#111827;stroke-width:1;stroke-linejoin:miter;stroke-miterlimit:10;"/><line x1="191.2817" y1="236.9141" x2="710.2622" y2="236.9141" style="stroke:#111827;stroke-width:1;"/><text x="198.2817" y="231.8481" fill="#000000" font-size="13" lengthAdjust="spacing" textLength="9.0454" font-weight="700" font-family="'Arial'">1</text><text x="211.3271" y="231.8481" fill="#000000" font-size="13" lengthAdjust="spacing" textLength="330.4717" font-family="'Arial'">e-Rezepte mittels e-card authentifizierung abrufen</text></g><g class="message" data-entity-1="part3" data-entity-2="part1" id="msg2" data-source-line="63"><polygon points="202.2817,262.0469,192.2817,266.0469,202.2817,270.0469,198.2817,266.0469" fill="#111827" style="stroke:#111827;stroke-width:1;stroke-linejoin:miter;stroke-miterlimit:10;"/><line x1="196.2817" y1="266.0469" x2="720.2622" y2="266.0469" style="stroke:#111827;stroke-width:1;stroke-dasharray:2,2;"/><text x="208.2817" y="260.981" fill="#000000" font-size="13" lengthAdjust="spacing" textLength="9.0454" font-weight="700" font-family="'Arial'">2</text><text x="221.3271" y="260.981" fill="#000000" font-size="13" lengthAdjust="spacing" textLength="65.8887" font-family="'Arial'">e-Rezepte</text></g><path d="M76,284.0469 L76,316.0469 A5,5 0 0 0 81,321.0469 L290,321.0469 A5,5 0 0 0 295,316.0469 L295,289.0469 L285,279.0469 L81,279.0469 A5,5 0 0 0 76,284.0469" style="stroke:#8B95A5;stroke-width:1;" fill="url(#g18vqhd4yabg5e0)"/><path d="M285,279.0469 L285,286.5469 A2.5,2.5 0 0 0 287.5,289.0469 L295,289.0469 L285,279.0469" style="stroke:#8B95A5;stroke-width:1;" fill="url(#g18vqhd4yabg5e0)"/><text x="82" y="297.042" fill="#111827" font-size="14" lengthAdjust="spacing" textLength="186.3135" font-family="'Arial'">GDA erhält alle relevanten</text><text x="82" y="313.3389" fill="#111827" font-size="14" lengthAdjust="spacing" textLength="198.5293" font-family="'Arial'">e-Rezepte zu dem Patienten</text><line x1="9" y1="327.6406" x2="769.4341" y2="327.6406" style="stroke:#111827;stroke-width:1;stroke-dasharray:2,2;"/><text x="14" y="340.6357" fill="#000000" font-size="14" lengthAdjust="spacing" textLength="225.6543" font-weight="700" font-family="'Arial'">[Geplante Abgaben abrufen]</text><g class="message" data-entity-1="part1" data-entity-2="part2" id="msg3" data-source-line="71"><polygon points="616.4282,362.0703,626.4282,366.0703,616.4282,370.0703,620.4282,366.0703" fill="#111827" style="stroke:#111827;stroke-width:1;stroke-linejoin:miter;stroke-miterlimit:10;"/><line x1="196.2817" y1="366.0703" x2="622.4282" y2="366.0703" style="stroke:#111827;stroke-width:1;"/><text x="203.2817" y="361.0044" fill="#000000" font-size="13" lengthAdjust="spacing" textLength="9.0454" font-weight="700" font-family="'Arial'">3</text><text x="216.3271" y="361.0044" fill="#000000" font-size="13" lengthAdjust="spacing" textLength="405.1011" font-family="'Arial'">GET MedicationDispense, Status=active | relevanter Zeitraum</text></g><g class="message" data-entity-1="part2" data-entity-2="part1" id="msg4" data-source-line="74"><polygon points="207.2817,391.2031,197.2817,395.2031,207.2817,399.2031,203.2817,395.2031" fill="#111827" style="stroke:#111827;stroke-width:1;stroke-linejoin:miter;stroke-miterlimit:10;"/><line x1="201.2817" y1="395.2031" x2="632.4282" y2="395.2031" style="stroke:#111827;stroke-width:1;stroke-dasharray:2,2;"/><text x="213.2817" y="390.1372" fill="#000000" font-size="13" lengthAdjust="spacing" textLength="9.0454" font-weight="700" font-family="'Arial'">4</text><text x="226.3271" y="390.1372" fill="#000000" font-size="13" lengthAdjust="spacing" textLength="121.2212" font-family="'Arial'">Geplante Abgaben</text></g><path d="M44,413.2031 L44,461.2031 A5,5 0 0 0 49,466.2031 L322,466.2031 A5,5 0 0 0 327,461.2031 L327,418.2031 L317,408.2031 L49,408.2031 A5,5 0 0 0 44,413.2031" style="stroke:#8B95A5;stroke-width:1;" fill="url(#g18vqhd4yabg5e0)"/><path d="M317,408.2031 L317,415.7031 A2.5,2.5 0 0 0 319.5,418.2031 L327,418.2031 L317,408.2031" style="stroke:#8B95A5;stroke-width:1;" fill="url(#g18vqhd4yabg5e0)"/><text x="50" y="426.1982" fill="#111827" font-size="14" lengthAdjust="spacing" textLength="200.71" font-family="'Arial'">GDA erhält alle offenen bzw.</text><text x="50" y="442.4951" fill="#111827" font-size="14" lengthAdjust="spacing" textLength="262.6367" font-family="'Arial'">im relevanten Zeitraum vorliegenden</text><text x="50" y="458.792" fill="#111827" font-size="14" lengthAdjust="spacing" textLength="239.9756" font-family="'Arial'">Geplanten Abgaben des Patienten</text><rect x="0" y="493.2422" width="779.4341" height="3" fill="#EEEEEE" style="stroke:#EEEEEE;stroke-width:1;" rx="5" ry="5"/><line x1="0" y1="493.2422" x2="779.4341" y2="493.2422" style="stroke:#000000;stroke-width:1;"/><line x1="0" y1="496.2422" x2="779.4341" y2="496.2422" style="stroke:#000000;stroke-width:1;"/><rect x="281.5725" y="482.0938" width="216.2891" height="24.2969" fill="#EEEEEE" style="stroke:#000000;stroke-width:2;" rx="5" ry="5"/><text x="287.5725" y="499.0889" fill="#000000" font-size="14" lengthAdjust="spacing" textLength="197.415" font-weight="700" font-family="'Arial'">Medikationsplan abrufen</text><rect x="158" y="516.3906" width="518.0903" height="42.5938" fill="none" style="stroke:#000000;stroke-width:1.5;" rx="5" ry="5"/><path d="M163,516.3906 L225,516.3906 L225,524.3906 L215,534.3906 L158,534.3906 L158,521.3906 A5,5 0 0 1 163,516.3906" style="stroke:#000000;stroke-width:2;" fill="#EEEEEE"/><text x="171" y="531.3857" fill="#000000" font-size="14" lengthAdjust="spacing" textLength="22.4902" font-weight="700" font-family="'Arial'">ref</text><a target="_top" href="interactions.html#sequenzdiagramm-plan-read" xlink:href="interactions.html#sequenzdiagramm-plan-read" xlink:type="simple" xlink:actuate="onRequest" xlink:show="new" title="interactions.html#sequenzdiagramm-plan-read" xlink:title="interactions.html#sequenzdiagramm-plan-read"><text x="381.7239" y="551.3857" fill="#0000EE" font-size="14" lengthAdjust="spacing" textLength="70.6426" font-family="'Arial'">Plan-Read</text></a><path d="M19,573.9844 L19,621.9844 A5,5 0 0 0 24,626.9844 L346,626.9844 A5,5 0 0 0 351,621.9844 L351,578.9844 L341,568.9844 L24,568.9844 A5,5 0 0 0 19,573.9844" style="stroke:#8B95A5;stroke-width:1;" fill="url(#g18vqhd4yabg5e0)"/><path d="M341,568.9844 L341,576.4844 A2.5,2.5 0 0 0 343.5,578.9844 L351,578.9844 L341,568.9844" style="stroke:#8B95A5;stroke-width:1;" fill="url(#g18vqhd4yabg5e0)"/><text x="25" y="586.9795" fill="#111827" font-size="14" lengthAdjust="spacing" textLength="226.8848" font-family="'Arial'">GDA erhält Medikationsplan und</text><text x="25" y="603.2764" fill="#111827" font-size="14" lengthAdjust="spacing" textLength="285.0654" font-family="'Arial'">kann die Geplanten Abgaben im Kontext</text><text x="25" y="619.5732" fill="#111827" font-size="14" lengthAdjust="spacing" textLength="311.6094" font-family="'Arial'">der bestehenden Gesamtmedikation prüfen.</text><?plantuml-src ZLLDazf64BthLtJWa4EMBKaOM6qLhcADTfDoR2YMvB2sYngX5amXZV1ej6kJvD_aP-JcFvOUYHKZ8N-8owZxJSzxRvgMuYf6kCDzp8H2c0GR5g2063CKxyMVJF8oVWqF-KRoA8A4AuLn1jXRCnbQri_PZeizaom1jbQfl5UVgI9xmYnDqB9EsI2L8SfNQPnAwDh5OsRPUhUHQIx28o8Qw9-1oBOiJ9-us434uWoDp76R52Z1COk66B4yLhUfK6zPWj2Pa9wuquwuvmS4vqLxyckqV_syHnbpiJC0ljy6-4E4nGBFwD-ad-Oi3BKorwx7RqpF1iLZMYfIkfk_B82Rfdjeuo2oUztG2JqSQeHPwIhm1cnGHPTRlju9p39mABOmtBJf_PcRhc9OuJZEbJkYs7tZNlun6MRuCKUnBbdEcLHypVVKKct2Qe1pqy_IpnTMInXE0aoaJ9-QV8jWNN8HQZknIfHdzIbqHpRlQ_IhocNgx2emSgEellDqlAlz-eawJNV6gzdliyNgRZfPEK1FrnaCxIltocu1k0N06mxjqVGCC9yiV_FVBdK5RtZZlZW3JEOpA9wkVUlvqu7N1FXl_EdgTa80z4Pktmt29c2ry1_y-HAwwx0_whlCQygOlORQ6UwWMMAnc2qAWE-DdBxRfzukHWYK3h0CEhG2fsCQO-rFbmtu1aDDKqEnHozmE-dK9TJngmKUSA-E6ygNJaCIiSXLAl8aG6bPup4y0o-QWn9-0JgJxvZYgSXq2bWWyuWcw7XiwPEhlSy9tGU5kjxBYirrXSB6U0LYiaMXUCGF76LEZNsgGrxnHqPxoeAcHqQoajmG2QTCZxWK-mmYb0_nh0X5YvcJFkBnbaezW7BxvT-OLCOq_2N6-AXj4g2FgRGTSggPqBzLSTHPdHHXKT6oI7JBXwZDjVBEh-7ENnRshmlxfppReyZm0kuLKtasBiWZ_7sY8-41kP8iJ-37xJjsMBsde8eRtZN9DomiD_oOWsb4eab-S7Ywr5nvOffQgNXCwOk26pAnjEX8G5JsXPXznMwW3lrcymAT61aqBoh9r_3k7TTsQcsqzNAhahXRJlf3oDc61d_IqmLx4ba8SxrQqEh3X--gRpAYCQhrxvWWCHnR998rhsb0uoS5XU4I0imKRWjJ29-nH2LLLTZBB_-Hn4lJ35hy3m00?></g></svg>