<svg xmlns="http://www.w3.org/2000/svg" xmlns:xlink="http://www.w3.org/1999/xlink" version="1.1" data-diagram-type="SEQUENCE" style="width:616px;height:629px;background:#F5F5F5;" width="616px" height="629px" viewBox="0 0 616 629" zoomAndPan="magnify" preserveAspectRatio="none" contentStyleType="text/css"><?plantuml 1.2026.7beta3?><defs><linearGradient x1="50%" y1="0%" x2="50%" y2="100%" id="g1lsh0lu5e4hi60"><stop stop-color="#E0E5F0" offset="0%"/><stop stop-color="#D1D9E6" offset="100%"/></linearGradient></defs><g><rect x="0" y="0" width="616" height="629" fill="#F5F5F5" style="stroke:none;stroke-width:1;"/><g class="title" data-source-line="1"><text x="134.5557" y="27.9951" fill="#000000" font-size="14" lengthAdjust="spacing" textLength="340.2246" font-weight="700" font-family="'Arial'">Planeintrag in Medikationsplan hinzufügen</text></g><g><title>GDA 1</title><rect x="160.2817" y="128.5938" width="10" height="409.3672" fill="#156082" fill-opacity="0.50196" style="stroke:#181818;stroke-width:1;"/></g><g class="participant-lifeline" data-qualified-name="GDA_1" data-entity-uid="part1" id="part1-lifeline" data-source-line="52"><g><title>GDA 1</title><rect x="161.2817" y="118.5938" width="8" height="428.3672" fill="#000000" fill-opacity="0.00000"/><line x1="165" y1="118.5938" x2="165" y2="546.9609" style="stroke:#181818;stroke-width:0.5;stroke-dasharray:5,5;"/></g></g><g class="participant-lifeline" data-qualified-name="eMed_FA" data-entity-uid="part2" id="part2-lifeline" data-source-line="53"><g><title>e-Med FA</title><rect x="467.2417" y="118.5938" width="8" height="428.3672" fill="#000000" fill-opacity="0.00000"/><line x1="470.5796" y1="118.5938" x2="470.5796" y2="546.9609" style="stroke:#181818;stroke-width:0.5;stroke-dasharray:5,5;"/></g></g><g class="participant participant-head" data-qualified-name="GDA_1" data-entity-uid="part1" id="part1-head" data-source-line="52"><text x="140" y="115.292" fill="#000000" font-size="14" lengthAdjust="spacing" textLength="44.5635" font-family="'Arial'">GDA 1</text><ellipse cx="165.2817" cy="50.7969" rx="8" ry="8" fill="#156082" fill-opacity="0.50196" style="stroke:#181818;stroke-width:0.5;"/><path d="M165.2817,58.7969 L165.2817,85.7969 M152.2817,66.7969 L178.2817,66.7969 M165.2817,85.7969 L152.2817,100.7969 M165.2817,85.7969 L178.2817,100.7969" style="stroke:#181818;stroke-width:0.5;" fill="none"/></g><g class="participant participant-tail" data-qualified-name="GDA_1" data-entity-uid="part1" id="part1-tail" data-source-line="52"><text x="140" y="558.9561" fill="#000000" font-size="14" lengthAdjust="spacing" textLength="44.5635" font-family="'Arial'">GDA 1</text><ellipse cx="165.2817" cy="570.7578" rx="8" ry="8" fill="#156082" fill-opacity="0.50196" style="stroke:#181818;stroke-width:0.5;"/><path d="M165.2817,578.7578 L165.2817,605.7578 M152.2817,586.7578 L178.2817,586.7578 M165.2817,605.7578 L152.2817,620.7578 M165.2817,605.7578 L178.2817,620.7578" style="stroke:#181818;stroke-width:0.5;" fill="none"/></g><g class="participant participant-head" data-qualified-name="eMed_FA" data-entity-uid="part2" id="part2-head" data-source-line="53"><rect x="431.5796" y="87.2969" width="79.3242" height="30.2969" fill="#E97132" fill-opacity="0.50196" style="stroke:#555555;stroke-width:0.5;" rx="5" ry="5"/><text x="438.5796" y="107.292" fill="#000000" font-size="14" lengthAdjust="spacing" textLength="65.3242" font-family="'Arial'">e-Med FA</text></g><g class="participant participant-tail" data-qualified-name="eMed_FA" data-entity-uid="part2" id="part2-tail" data-source-line="53"><rect x="431.5796" y="545.9609" width="79.3242" height="30.2969" fill="#E97132" fill-opacity="0.50196" style="stroke:#555555;stroke-width:0.5;" rx="5" ry="5"/><text x="438.5796" y="565.9561" fill="#000000" font-size="14" lengthAdjust="spacing" textLength="65.3242" font-family="'Arial'">e-Med FA</text></g><g><title>GDA 1</title><rect x="160.2817" y="128.5938" width="10" height="409.3672" fill="#156082" fill-opacity="0.50196" style="stroke:#181818;stroke-width:1;"/></g><rect x="0" y="149.7422" width="610.3359" height="3" fill="#EEEEEE" style="stroke:#EEEEEE;stroke-width:1;" rx="5" ry="5"/><line x1="0" y1="149.7422" x2="610.3359" y2="149.7422" style="stroke:#000000;stroke-width:1;"/><line x1="0" y1="152.7422" x2="610.3359" y2="152.7422" style="stroke:#000000;stroke-width:1;"/><rect x="197.0234" y="138.5938" width="216.2891" height="24.2969" fill="#EEEEEE" style="stroke:#000000;stroke-width:2;" rx="5" ry="5"/><text x="203.0234" y="155.5889" fill="#000000" font-size="14" lengthAdjust="spacing" textLength="197.415" font-weight="700" font-family="'Arial'">Medikationsplan abrufen</text><rect x="137" y="172.8906" width="376.9038" height="42.5938" fill="none" style="stroke:#000000;stroke-width:1.5;" rx="5" ry="5"/><path d="M142,172.8906 L204,172.8906 L204,180.8906 L194,190.8906 L137,190.8906 L137,177.8906 A5,5 0 0 1 142,172.8906" style="stroke:#000000;stroke-width:2;" fill="#EEEEEE"/><text x="150" y="187.8857" fill="#000000" font-size="14" lengthAdjust="spacing" textLength="22.4902" font-weight="700" font-family="'Arial'">ref</text><a target="_top" href="interactions.html#sequenzdiagramm-plan-read" xlink:href="interactions.html#sequenzdiagramm-plan-read" xlink:type="simple" xlink:actuate="onRequest" xlink:show="new" title="interactions.html#sequenzdiagramm-plan-read" xlink:title="interactions.html#sequenzdiagramm-plan-read"><text x="290.1306" y="207.8857" fill="#0000EE" font-size="14" lengthAdjust="spacing" textLength="70.6426" font-family="'Arial'">Plan-Read</text></a><path d="M5,230.4844 L5,262.4844 A5,5 0 0 0 10,267.4844 L321,267.4844 A5,5 0 0 0 326,262.4844 L326,235.4844 L316,225.4844 L10,225.4844 A5,5 0 0 0 5,230.4844" style="stroke:#8B95A5;stroke-width:1;" fill="url(#g1lsh0lu5e4hi60)"/><path d="M316,225.4844 L316,232.9844 A2.5,2.5 0 0 0 318.5,235.4844 L326,235.4844 L316,225.4844" style="stroke:#8B95A5;stroke-width:1;" fill="url(#g1lsh0lu5e4hi60)"/><text x="11" y="243.4795" fill="#111827" font-size="14" lengthAdjust="spacing" textLength="296.0029" font-family="'Arial'">GDA erhält den aktuellen Medikationsplan</text><text x="11" y="259.7764" fill="#111827" font-size="14" lengthAdjust="spacing" textLength="171.1309" font-family="'Arial'">im Auslieferungs-Bundle</text><rect x="0" y="294.2266" width="610.3359" height="3" fill="#EEEEEE" style="stroke:#EEEEEE;stroke-width:1;" rx="5" ry="5"/><line x1="0" y1="294.2266" x2="610.3359" y2="294.2266" style="stroke:#000000;stroke-width:1;"/><line x1="0" y1="297.2266" x2="610.3359" y2="297.2266" style="stroke:#000000;stroke-width:1;"/><rect x="123.2192" y="283.0781" width="363.8975" height="24.2969" fill="#EEEEEE" style="stroke:#000000;stroke-width:2;" rx="5" ry="5"/><text x="129.2192" y="300.0732" fill="#000000" font-size="14" lengthAdjust="spacing" textLength="345.0234" font-weight="700" font-family="'Arial'">Medikationsplan vorbereiten und schreiben</text><g class="message" data-entity-1="part1" data-entity-2="part1" id="msg1" data-source-line="71"><line x1="170.2817" y1="338.5078" x2="212.2817" y2="338.5078" style="stroke:#111827;stroke-width:1;"/><line x1="212.2817" y1="338.5078" x2="212.2817" y2="351.5078" style="stroke:#111827;stroke-width:1;"/><line x1="171.2817" y1="351.5078" x2="212.2817" y2="351.5078" style="stroke:#111827;stroke-width:1;"/><polygon points="181.2817,347.5078,171.2817,351.5078,181.2817,355.5078,177.2817,351.5078" fill="#111827" style="stroke:#111827;stroke-width:1;stroke-linejoin:miter;stroke-miterlimit:10;"/><text x="177.2817" y="333.4419" fill="#000000" font-size="13" lengthAdjust="spacing" textLength="9.0454" font-weight="700" font-family="'Arial'">1</text><text x="190.3271" y="333.4419" fill="#000000" font-size="13" lengthAdjust="spacing" textLength="181.3018" font-family="'Arial'">Neuen Planeintrag erstellen</text></g><g class="message" data-entity-1="part1" data-entity-2="part1" id="msg2" data-source-line="72"><line x1="170.2817" y1="395.7734" x2="212.2817" y2="395.7734" style="stroke:#111827;stroke-width:1;"/><line x1="212.2817" y1="395.7734" x2="212.2817" y2="408.7734" style="stroke:#111827;stroke-width:1;"/><line x1="171.2817" y1="408.7734" x2="212.2817" y2="408.7734" style="stroke:#111827;stroke-width:1;"/><polygon points="181.2817,404.7734,171.2817,408.7734,181.2817,412.7734,177.2817,408.7734" fill="#111827" style="stroke:#111827;stroke-width:1;stroke-linejoin:miter;stroke-miterlimit:10;"/><text x="177.2817" y="383.1411" fill="#000000" font-size="13" lengthAdjust="spacing" textLength="9.0454" font-weight="700" font-family="'Arial'">2</text><text x="190.3271" y="375.5747" fill="#000000" font-size="13" lengthAdjust="spacing" textLength="193.5718" font-family="'Arial'">Planeintrag mit List.entry.flag</text><text x="190.3271" y="390.7075" fill="#000000" font-size="13" lengthAdjust="spacing" textLength="258.9146" font-family="'Arial'">"new" dem Medikationsplan hinzufügen</text></g><path d="M31,426.7734 L31,442.7734 A5,5 0 0 0 36,447.7734 L294,447.7734 A5,5 0 0 0 299,442.7734 L299,431.7734 L289,421.7734 L36,421.7734 A5,5 0 0 0 31,426.7734" style="stroke:#8B95A5;stroke-width:1;" fill="url(#g1lsh0lu5e4hi60)"/><path d="M289,421.7734 L289,429.2734 A2.5,2.5 0 0 0 291.5,431.7734 L299,431.7734 L289,421.7734" style="stroke:#8B95A5;stroke-width:1;" fill="url(#g1lsh0lu5e4hi60)"/><text x="37" y="439.7686" fill="#111827" font-size="14" lengthAdjust="spacing" textLength="247.0645" font-family="'Arial'">Medikationsplaneintrag hinzufügen</text><rect x="137" y="453.0703" width="376.9038" height="42.5938" fill="none" style="stroke:#000000;stroke-width:1.5;" rx="5" ry="5"/><path d="M142,453.0703 L204,453.0703 L204,461.0703 L194,471.0703 L137,471.0703 L137,458.0703 A5,5 0 0 1 142,453.0703" style="stroke:#000000;stroke-width:2;" fill="#EEEEEE"/><text x="150" y="468.0654" fill="#000000" font-size="14" lengthAdjust="spacing" textLength="22.4902" font-weight="700" font-family="'Arial'">ref</text><a target="_top" href="interactions.html#plan-write" xlink:href="interactions.html#plan-write" xlink:type="simple" xlink:actuate="onRequest" xlink:show="new" title="interactions.html#plan-write" xlink:title="interactions.html#plan-write"><text x="289.2385" y="488.0654" fill="#0000EE" font-size="14" lengthAdjust="spacing" textLength="72.4268" font-family="'Arial'">Plan-Write</text></a><path d="M336,510.6641 L336,526.6641 A5,5 0 0 0 341,531.6641 L600,531.6641 A5,5 0 0 0 605,526.6641 L605,515.6641 L595,505.6641 L341,505.6641 A5,5 0 0 0 336,510.6641" style="stroke:#8B95A5;stroke-width:1;" fill="url(#g1lsh0lu5e4hi60)"/><path d="M595,505.6641 L595,513.1641 A2.5,2.5 0 0 0 597.5,515.6641 L605,515.6641 L595,505.6641" style="stroke:#8B95A5;stroke-width:1;" fill="url(#g1lsh0lu5e4hi60)"/><text x="342" y="523.6592" fill="#111827" font-size="14" lengthAdjust="spacing" textLength="248.3359" font-family="'Arial'">Neuer Medikationsplan gespeichert</text><?plantuml-src bLLHRzem47xthxZ1mrv6bQGDXKfCWXAsQMr1b6dIkWePSWaMYSCSfwoTzc_sC_RMFpR7eU0aRDAS5zlt-Uwxx-oBP392c4IK8-DIq10OXslqsPfAbl1qeoomOlmf2vv_XyW9UPsk6TzGGMEWIvc8M_ceFD0jfacCX1oiYqJuA2wJA17GjFGmhNIv3aMISN-72DpyCn3fYlh9bl4G0XgbQ5XsnmH70RRfrCU0Pf4S9LpUq1YXqHUCHetZY5lsX62V7JV-ZVRxnmsAYF6r0V2yOu1FtDSJhD4V9DydrFVpp1ohl3ymDNFrC2NbYKJuGG06LVNGGZUmMatVzhlOpX6cfywYwr9tlpjRiUMQOvg2hVQcXfgMMhzmoxqOKjYstN7ErTvjfIu_JOOfVikGBmkM4oeaMx8DvV9OOcL0xJxeKGRLArCplrIrP33a1kWBaMohIUdDiYvwwrZ4lQ68TQgstYdccrAEUy-5gLOl31oTdN7o4Dx9HNsbhcD-VIx7L-Ff_DsmFxT1ZQRjjgsEqx6E01mDwBRRrlcm1fZqPn-ycrdkeTiUE6SrG7yo1ZsQrgZh3Trk5U1TUyFvgAy0NlVSFgrpyEPJxuitcK7pqdAjivn31J7-2AKOZbjrCPsEfnfGn3XL3q3t6IWKe2aqr0piXYaCsHoA3QZwLqupXs9BBM3KRvHJK3upcV0iNg0W14YlLsjwT26o03dqUfe0Uw3gxHKSpC14O0390-xulTb7lu2xEzLIKUI7bTEJbOoZPl4-ddn6G_LSubOUgYMG-he7jwPgTdzFY7xe1wyapnZ5wlbN95MNKkJMCiCemdgl9Yo6VfP630CK6G_Jra3TEjMX2N9VDn1oBDk7H2Wfa4dbKk4XNQxKQh7BlqYxzRPWSm4tg98e_JLGf58Jgc5DLCmaNB5Kdg1QFvu44Gs_yWR7RKDb5V_xlrELf09-2M6UEMJyVqNIHTaA9KPHbS_vj5oMdGEIAo5gn4DCDyYMAnHoJ-8F?></g></svg>