<?xml version="1.0" encoding="us-ascii" standalone="no"?><svg xmlns="http://www.w3.org/2000/svg" xmlns:xlink="http://www.w3.org/1999/xlink" contentStyleType="text/css" height="472px" preserveAspectRatio="none" style="width:619px;height:472px;background:#F5F5F5;" version="1.1" viewBox="0 0 619 472" width="619px" zoomAndPan="magnify"><defs><linearGradient id="g1k0tow8vr2weq0" x1="50%" x2="50%" y1="0%" y2="100%"><stop offset="0%" stop-color="#E0E5F0"/><stop offset="100%" stop-color="#D1D9E6"/></linearGradient></defs><g><rect fill="#F5F5F5" height="472" style="stroke:none;stroke-width:1.0;" width="619" x="0" y="0"/><text fill="#000000" font-family="Arial" font-size="14" font-weight="bold" lengthAdjust="spacing" textLength="385" x="119" y="28.1318">Leerer Medikationsplan (keine Medikation einnehmen)</text><rect fill="#156082" fill-opacity="0.50196" height="224.8384" style="stroke:#181818;stroke-width:1.0;" width="10" x="38" y="149.146"/><rect fill="#E97232" fill-opacity="0.74118" height="224.8384" style="stroke:#181818;stroke-width:1.0;" width="10" x="272" y="149.146"/><line style="stroke:#181818;stroke-width:0.5;stroke-dasharray:5.0,5.0;" x1="43" x2="43" y1="118.1973" y2="391.9844"/><line style="stroke:#181818;stroke-width:0.5;stroke-dasharray:5.0,5.0;" x1="277" x2="277" y1="118.1973" y2="391.9844"/><text fill="#000000" font-family="Arial" font-size="14" lengthAdjust="spacing" textLength="42" x="19" y="115.2305">GDA 1</text><ellipse cx="43" cy="50.5986" fill="#156082" fill-opacity="0.50196" rx="8" ry="8" style="stroke:#181818;stroke-width:0.5;"/><path d="M43,58.5986 L43,85.5986 M30,66.5986 L56,66.5986 M43,85.5986 L30,100.5986 M43,85.5986 L56,100.5986 " fill="none" style="stroke:#181818;stroke-width:0.5;"/><text fill="#000000" font-family="Arial" font-size="14" lengthAdjust="spacing" textLength="42" x="19" y="404.1162">GDA 1</text><ellipse cx="43" cy="415.583" fill="#156082" fill-opacity="0.50196" rx="8" ry="8" style="stroke:#181818;stroke-width:0.5;"/><path d="M43,423.583 L43,450.583 M30,431.583 L56,431.583 M43,450.583 L30,465.583 M43,450.583 L56,465.583 " fill="none" style="stroke:#181818;stroke-width:0.5;"/><rect fill="#E97232" fill-opacity="0.74118" height="30.0986" rx="5" ry="5" style="stroke:#555555;stroke-width:0.5;" width="76" x="239" y="87.0986"/><text fill="#000000" font-family="Arial" font-size="14" lengthAdjust="spacing" textLength="62" x="246" y="107.2305">e-Med FA</text><rect fill="#E97232" fill-opacity="0.74118" height="30.0986" rx="5" ry="5" style="stroke:#555555;stroke-width:0.5;" width="76" x="239" y="390.9844"/><text fill="#000000" font-family="Arial" font-size="14" lengthAdjust="spacing" textLength="62" x="246" y="411.1162">e-Med FA</text><rect fill="#156082" fill-opacity="0.50196" height="224.8384" style="stroke:#181818;stroke-width:1.0;" width="10" x="38" y="149.146"/><rect fill="#E97232" fill-opacity="0.74118" height="224.8384" style="stroke:#181818;stroke-width:1.0;" width="10" x="272" y="149.146"/><polygon fill="#111827" points="260,145.146,270,149.146,260,153.146,264,149.146" style="stroke:#111827;stroke-width:1.0;"/><line style="stroke:#111827;stroke-width:1.0;" x1="48" x2="266" y1="149.146" y2="149.146"/><text fill="#000000" font-family="Arial" font-size="13" font-weight="bold" lengthAdjust="spacing" textLength="7" x="55" y="144.3911">1</text><text fill="#000000" font-family="Arial" font-size="13" lengthAdjust="spacing" textLength="99" x="66" y="144.3911">POST $plan-read</text><path d="M5,167.146 L5,199.146 A5,5 0 0 0 10,204.146 L311,204.146 A5,5 0 0 0 316,199.146 L316,172.146 L306,162.146 L10,162.146 A5,5 0 0 0 5,167.146 " fill="url(#g1k0tow8vr2weq0)" style="stroke:#8B95A5;stroke-width:1.0;"/><path d="M306,162.146 L306,169.646 A2.5,2.5 0 0 0 308.5,172.146 L316,172.146 L306,162.146 " fill="url(#g1k0tow8vr2weq0)" style="stroke:#8B95A5;stroke-width:1.0;"/><text fill="#111827" font-family="Arial" font-size="14" lengthAdjust="spacing" textLength="159" x="63.5" y="180.2778">Medikationsplan abrufen,</text><text fill="#111827" font-family="Arial" font-size="14" lengthAdjust="spacing" textLength="185" x="63.5" y="196.3765">mit der Intention zu schreiben</text><line style="stroke:#111827;stroke-width:1.0;" x1="282" x2="324" y1="245.2407" y2="245.2407"/><line style="stroke:#111827;stroke-width:1.0;" x1="324" x2="324" y1="245.2407" y2="258.2407"/><line style="stroke:#111827;stroke-width:1.0;" x1="283" x2="324" y1="258.2407" y2="258.2407"/><polygon fill="#111827" points="293,254.2407,283,258.2407,293,262.2407,289,258.2407" style="stroke:#111827;stroke-width:1.0;"/><text fill="#000000" font-family="Arial" font-size="13" font-weight="bold" lengthAdjust="spacing" textLength="7" x="289" y="233.0115">2</text><text fill="#000000" font-family="Arial" font-size="13" lengthAdjust="spacing" textLength="143" x="300" y="225.5371">Pr&#252;fung auf bestehenden</text><text fill="#000000" font-family="Arial" font-size="13" lengthAdjust="spacing" textLength="94" x="300" y="240.4858">Medikationsplan</text><line style="stroke:#111827;stroke-width:1.0;" x1="282" x2="324" y1="317.0869" y2="317.0869"/><line style="stroke:#111827;stroke-width:1.0;" x1="324" x2="324" y1="317.0869" y2="330.0869"/><line style="stroke:#111827;stroke-width:1.0;" x1="283" x2="324" y1="330.0869" y2="330.0869"/><polygon fill="#111827" points="293,326.0869,283,330.0869,293,334.0869,289,330.0869" style="stroke:#111827;stroke-width:1.0;"/><text fill="#000000" font-family="Arial" font-size="13" font-weight="bold" lengthAdjust="spacing" textLength="7" x="289" y="297.3833">3</text><text fill="#000000" font-family="Arial" font-size="13" lengthAdjust="spacing" textLength="138" x="300" y="282.4346">Wenn Plan vorhanden +</text><text fill="#000000" font-family="Arial" font-size="13" lengthAdjust="spacing" textLength="299" x="300" y="297.3833">alle List.enty.flags im Medikationsplan = "removed":</text><text fill="#000000" font-family="Arial" font-size="13" lengthAdjust="spacing" textLength="312" x="300" y="312.332">Fachanwendung setzt List.emptyReason = "nilknown"</text><polygon fill="#111827" points="54,369.9844,44,373.9844,54,377.9844,50,373.9844" style="stroke:#111827;stroke-width:1.0;"/><line style="stroke:#111827;stroke-width:1.0;" x1="48" x2="276" y1="373.9844" y2="373.9844"/><text fill="#000000" font-family="Arial" font-size="13" font-weight="bold" lengthAdjust="spacing" textLength="7" x="60" y="361.7551">4</text><text fill="#000000" font-family="Arial" font-size="13" lengthAdjust="spacing" textLength="134" x="71" y="354.2808">Leerer Medikationsplan</text><text fill="#000000" font-family="Arial" font-size="13" lengthAdjust="spacing" textLength="189" x="71" y="369.2295">(List.emptyReason = "nilknown")</text><!--SRC=[VLNRRjf047ttLqnDfQPgY6mJBexKIX1C6ZK92AWgLKXeiSTXXRrBr-jGKlNF-jOVwzf0MDkaomkUENlcpDcRf392k4CKAE0U0xeYadAMh2F2u6o5bA4M1lNDS1aZUsyOxv8LPMiYI0p4brnCv5PHaGqcF4R3E6ONN0Gehdd41TIiVEXPugyU1KzPi4U4pUod8P8b2VY6iaS8IPIWbjbF4qo9jtNI04EIHdB0cNmWCOBP5PH4vcd4X3uZs9Udaw_9_hnTeuWeMsa0ppi5-Cg2_0zMvFVupn49Wgmpnoh6UxfdpNpebZ8k4NuP0BsoUsXXCxJgjS0EN6nb29sfit2RfFaIdIwflsAO962hs5XpqrBV1sqPYsQ5RTiTfwrYazAw_DOL9lWZHURlL8w8aDIdQyBagSQAWCf-o4SHL5sPIlgmgeM4PZT0LmY-AJUL1uk-vA5J5LyIkreD5RfHojU57b-OTwdAUc7evDrfCu_bdSpKDsexPjldUdWt7Czl-jsv3MhKx6RBwZWTwmJ0oG5kgsMr-nN0g3kzzHwc6OFRwZcN5K1tD8HyrAo1w_MRRXdWtNlz-Q2h0EYsdOQp2Cg0-TZxxescKFE3HhlX4BVSnl0B56eupJB5U3mSvm3FRTiDfw4EG7xFmCu1ae2f_e5jwiOOw-DY0wgRAvEPGR6kFc3GDOijACvKSfR62nI6iMEkVphCl8BHS3A5jzbjM1T8Wam1VIBgyEsWUcKZFvJy2VSApmyiHlbU9GkHXiZEZPXATTS8k6KIMNx1FgUG-4k1T87CG1Ra9zqubZsqL6pY42qe5t__XAdQwoGDOO69nANYGpPZ9Jd6oUdVa34OPMgVk5YIR2Pyc34IPSy5JUI54hoz22Foc02DAq_7Hp05nigCmBoQiG7n5SL6rSy49IYVvPuaNilj64d2yocCHYl6DymiQChTl7hbaPgni_yogOSgmB9zUcYtUFy0]--></g></svg>