<?xml version="1.0" encoding="us-ascii" standalone="no"?><svg xmlns="http://www.w3.org/2000/svg" xmlns:xlink="http://www.w3.org/1999/xlink" contentStyleType="text/css" height="955px" preserveAspectRatio="none" style="width:659px;height:955px;background:#F5F5F5;" version="1.1" viewBox="0 0 659 955" width="659px" zoomAndPan="magnify"><defs><linearGradient id="g1p9qqlnu0c01c0" x1="50%" x2="50%" y1="0%" y2="100%"><stop offset="0%" stop-color="#E0E5F0"/><stop offset="100%" stop-color="#D1D9E6"/></linearGradient></defs><g><rect fill="#F5F5F5" height="955" style="stroke:none;stroke-width:1.0;" width="659" x="0" y="0"/><text fill="#000000" font-family="Arial" font-size="14" font-weight="bold" lengthAdjust="spacing" textLength="71" x="290" y="28.1318">Plan-Read</text><rect fill="#156082" fill-opacity="0.50196" height="673.0596" style="stroke:#181818;stroke-width:1.0;" width="10" x="122" y="193.2446"/><rect fill="#E97232" fill-opacity="0.74118" height="588.7637" style="stroke:#181818;stroke-width:1.0;" width="10" x="354" y="193.2446"/><rect fill="#0F9ED5" fill-opacity="0.14510" height="472.6689" rx="5" ry="5" style="stroke:#111827;stroke-width:2.0;" width="549" x="93" y="317.3394"/><path d="M93,527.0239 L642,527.0239 L642,651.166 A5,5 0 0 1 637,656.166 L98,656.166 A5,5 0 0 1 93,651.166 L93,527.0239 " fill="#0F9ED5" fill-opacity="0.14510" style="stroke:none;stroke-width:1.0;"/><path d="M93,656.166 L642,656.166 L642,785.0083 A5,5 0 0 1 637,790.0083 L98,790.0083 A5,5 0 0 1 93,785.0083 L93,656.166 " fill="#E97132" fill-opacity="0.20784" style="stroke:none;stroke-width:1.0;"/><line style="stroke:#181818;stroke-width:0.5;stroke-dasharray:5.0,5.0;" x1="127" x2="127" y1="118.1973" y2="875.3042"/><line style="stroke:#181818;stroke-width:0.5;stroke-dasharray:5.0,5.0;" x1="359" x2="359" y1="118.1973" y2="875.3042"/><text fill="#000000" font-family="Arial" font-size="14" lengthAdjust="spacing" textLength="42" x="103" y="115.2305">GDA 1</text><ellipse cx="127" cy="50.5986" fill="#156082" fill-opacity="0.50196" rx="8" ry="8" style="stroke:#181818;stroke-width:0.5;"/><path d="M127,58.5986 L127,85.5986 M114,66.5986 L140,66.5986 M127,85.5986 L114,100.5986 M127,85.5986 L140,100.5986 " fill="none" style="stroke:#181818;stroke-width:0.5;"/><text fill="#000000" font-family="Arial" font-size="14" lengthAdjust="spacing" textLength="42" x="103" y="887.436">GDA 1</text><ellipse cx="127" cy="898.9028" fill="#156082" fill-opacity="0.50196" rx="8" ry="8" style="stroke:#181818;stroke-width:0.5;"/><path d="M127,906.9028 L127,933.9028 M114,914.9028 L140,914.9028 M127,933.9028 L114,948.9028 M127,933.9028 L140,948.9028 " fill="none" style="stroke:#181818;stroke-width:0.5;"/><rect fill="#E97232" fill-opacity="0.74118" height="30.0986" rx="5" ry="5" style="stroke:#555555;stroke-width:0.5;" width="76" x="321" y="87.0986"/><text fill="#000000" font-family="Arial" font-size="14" lengthAdjust="spacing" textLength="62" x="328" y="107.2305">e-Med FA</text><rect fill="#E97232" fill-opacity="0.74118" height="30.0986" rx="5" ry="5" style="stroke:#555555;stroke-width:0.5;" width="76" x="321" y="874.3042"/><text fill="#000000" font-family="Arial" font-size="14" lengthAdjust="spacing" textLength="62" x="328" y="894.436">e-Med FA</text><rect fill="#156082" fill-opacity="0.50196" height="673.0596" style="stroke:#181818;stroke-width:1.0;" width="10" x="122" y="193.2446"/><rect fill="#E97232" fill-opacity="0.74118" height="588.7637" style="stroke:#181818;stroke-width:1.0;" width="10" x="354" y="193.2446"/><rect fill="#EEEEEE" height="3" rx="5" ry="5" style="stroke:#EEEEEE;stroke-width:1.0;" width="652" x="0" y="149.2466"/><line style="stroke:#000000;stroke-width:1.0;" x1="0" x2="652" y1="149.2466" y2="149.2466"/><line style="stroke:#000000;stroke-width:1.0;" x1="0" x2="652" y1="152.2466" y2="152.2466"/><rect fill="#EEEEEE" height="24.0986" rx="5" ry="5" style="stroke:#000000;stroke-width:2.0;" width="193" x="229.5" y="138.1973"/><text fill="#000000" font-family="Arial" font-size="14" font-weight="bold" lengthAdjust="spacing" textLength="175" x="235.5" y="155.3291">Medikationsplan abrufen</text><polygon fill="#111827" points="342,189.2446,352,193.2446,342,197.2446,346,193.2446" style="stroke:#111827;stroke-width:1.0;"/><line style="stroke:#111827;stroke-width:1.0;" x1="132" x2="348" y1="193.2446" y2="193.2446"/><text fill="#000000" font-family="Arial" font-size="13" font-weight="bold" lengthAdjust="spacing" textLength="7" x="139" y="188.4897">1</text><text fill="#000000" font-family="Arial" font-size="13" lengthAdjust="spacing" textLength="99" x="150" y="188.4897">POST $plan-read</text><path d="M29,211.2446 L29,243.2446 A5,5 0 0 0 34,248.2446 L219,248.2446 A5,5 0 0 0 224,243.2446 L224,216.2446 L214,206.2446 L34,206.2446 A5,5 0 0 0 29,211.2446 " fill="url(#g1p9qqlnu0c01c0)" style="stroke:#8B95A5;stroke-width:1.0;"/><path d="M214,206.2446 L214,213.7446 A2.5,2.5 0 0 0 216.5,216.2446 L224,216.2446 L214,206.2446 " fill="url(#g1p9qqlnu0c01c0)" style="stroke:#8B95A5;stroke-width:1.0;"/><text fill="#111827" font-family="Arial" font-size="14" lengthAdjust="spacing" textLength="174" x="35" y="224.3765">Abruf des Medikationsplans</text><text fill="#111827" font-family="Arial" font-size="14" lengthAdjust="spacing" textLength="100" x="35" y="240.4751">zur Bearbeitung</text><line style="stroke:#111827;stroke-width:1.0;" x1="364" x2="406" y1="289.3394" y2="289.3394"/><line style="stroke:#111827;stroke-width:1.0;" x1="406" x2="406" y1="289.3394" y2="302.3394"/><line style="stroke:#111827;stroke-width:1.0;" x1="365" x2="406" y1="302.3394" y2="302.3394"/><polygon fill="#111827" points="375,298.3394,365,302.3394,375,306.3394,371,302.3394" style="stroke:#111827;stroke-width:1.0;"/><text fill="#000000" font-family="Arial" font-size="13" font-weight="bold" lengthAdjust="spacing" textLength="7" x="371" y="277.1101">2</text><text fill="#000000" font-family="Arial" font-size="13" lengthAdjust="spacing" textLength="91" x="382" y="269.6357">Existiert bereits</text><text fill="#000000" font-family="Arial" font-size="13" lengthAdjust="spacing" textLength="122" x="386" y="284.5845">ein Medikationsplan?</text><path d="M98,317.3394 L155,317.3394 L155,325.438 L145,335.438 L93,335.438 L93,322.3394 A5,5 0 0 1 98,317.3394 " fill="#EEF2FF" style="stroke:#111827;stroke-width:1.5;"/><rect fill="none" height="472.6689" rx="5" ry="5" style="stroke:#111827;stroke-width:2.0;" width="549" x="93" y="317.3394"/><text fill="#000000" font-family="Arial" font-size="14" font-weight="bold" lengthAdjust="spacing" textLength="17" x="108" y="331.4712">alt</text><text fill="#000000" font-family="Arial" font-size="14" font-weight="bold" lengthAdjust="spacing" textLength="346" x="170" y="332.4712">[Medikationsplan persistiert (kein emptyReason)]</text><line style="stroke:#111827;stroke-width:1.0;" x1="364" x2="406" y1="447.1777" y2="447.1777"/><line style="stroke:#111827;stroke-width:1.0;" x1="406" x2="406" y1="447.1777" y2="460.1777"/><line style="stroke:#111827;stroke-width:1.0;" x1="365" x2="406" y1="460.1777" y2="460.1777"/><polygon fill="#111827" points="375,456.1777,365,460.1777,375,464.1777,371,460.1777" style="stroke:#111827;stroke-width:1.0;"/><text fill="#000000" font-family="Arial" font-size="13" font-weight="bold" lengthAdjust="spacing" textLength="7" x="371" y="397.5767">3</text><text fill="#000000" font-family="Arial" font-size="13" lengthAdjust="spacing" textLength="131" x="382" y="352.7305">Erzeugt Auslieferungs-</text><text fill="#000000" font-family="Arial" font-size="13" lengthAdjust="spacing" textLength="101" x="382" y="367.6792">Collection Bundle</text><text fill="#000000" font-family="Arial" font-size="13" lengthAdjust="spacing" textLength="89" x="382" y="382.6279">Transformation:</text><text fill="#000000" font-family="Arial" font-size="13" lengthAdjust="spacing" textLength="167" x="382" y="397.5767">- new|changed &#8594; unchanged</text><text fill="#000000" font-family="Arial" font-size="13" lengthAdjust="spacing" textLength="248" x="382" y="412.5254">- removed -&gt; aus List und Bundle entfernen</text><text fill="#000000" font-family="Arial" font-size="13" lengthAdjust="spacing" textLength="163" x="382" y="427.4741">wenn alle List.entry entfernt:</text><text fill="#000000" font-family="Arial" font-size="13" lengthAdjust="spacing" textLength="212" x="382" y="442.4229">- setzt List.emptyReason = nilknown</text><polygon fill="#111827" points="143,515.0239,133,519.0239,143,523.0239,139,519.0239" style="stroke:#111827;stroke-width:1.0;"/><line style="stroke:#111827;stroke-width:1.0;stroke-dasharray:2.0,2.0;" x1="137" x2="353" y1="519.0239" y2="519.0239"/><text fill="#000000" font-family="Arial" font-size="13" font-weight="bold" lengthAdjust="spacing" textLength="7" x="149" y="499.3203">4</text><text fill="#000000" font-family="Arial" font-size="13" lengthAdjust="spacing" textLength="82" x="160" y="484.3716">Auslieferungs-</text><text fill="#000000" font-family="Arial" font-size="13" lengthAdjust="spacing" textLength="101" x="160" y="499.3203">Collection Bundle</text><text fill="#000000" font-family="Arial" font-size="13" lengthAdjust="spacing" textLength="42" x="160" y="514.269">+ ETag</text><line style="stroke:#111827;stroke-width:1.0;stroke-dasharray:2.0,2.0;" x1="93" x2="642" y1="528.0239" y2="528.0239"/><text fill="#000000" font-family="Arial" font-size="14" font-weight="bold" lengthAdjust="spacing" textLength="500" x="98" y="541.1558">[Leerer Medikationsplan persistiert mit List.emptyReason = "nilknown"]</text><polygon fill="#111827" points="143,591.9688,133,595.9688,143,599.9688,139,595.9688" style="stroke:#111827;stroke-width:1.0;"/><line style="stroke:#111827;stroke-width:1.0;" x1="137" x2="353" y1="595.9688" y2="595.9688"/><text fill="#000000" font-family="Arial" font-size="13" font-weight="bold" lengthAdjust="spacing" textLength="7" x="149" y="576.2651">5</text><text fill="#000000" font-family="Arial" font-size="13" lengthAdjust="spacing" textLength="101" x="160" y="561.3164">Collection Bundle</text><text fill="#000000" font-family="Arial" font-size="13" lengthAdjust="spacing" textLength="179" x="160" y="576.2651">(List.emptyReason = nilknown)</text><text fill="#000000" font-family="Arial" font-size="13" lengthAdjust="spacing" textLength="42" x="160" y="591.2139">+ ETag</text><path d="M278,613.9688 L278,645.9688 A5,5 0 0 0 283,650.9688 L434,650.9688 A5,5 0 0 0 439,645.9688 L439,618.9688 L429,608.9688 L283,608.9688 A5,5 0 0 0 278,613.9688 " fill="url(#g1p9qqlnu0c01c0)" style="stroke:#8B95A5;stroke-width:1.0;"/><path d="M429,608.9688 L429,616.4688 A2.5,2.5 0 0 0 431.5,618.9688 L439,618.9688 L429,608.9688 " fill="url(#g1p9qqlnu0c01c0)" style="stroke:#8B95A5;stroke-width:1.0;"/><text fill="#111827" font-family="Arial" font-size="14" lengthAdjust="spacing" textLength="136" x="284" y="627.1006">Keine Transformation</text><text fill="#111827" font-family="Arial" font-size="14" lengthAdjust="spacing" textLength="68" x="284" y="643.1992">notwendig.</text><line style="stroke:#111827;stroke-width:1.0;stroke-dasharray:2.0,2.0;" x1="93" x2="642" y1="657.166" y2="657.166"/><text fill="#000000" font-family="Arial" font-size="14" font-weight="bold" lengthAdjust="spacing" textLength="237" x="98" y="670.2979">[kein Medikationsplan persistiert]</text><line style="stroke:#111827;stroke-width:1.0;" x1="364" x2="406" y1="710.1621" y2="710.1621"/><line style="stroke:#111827;stroke-width:1.0;" x1="406" x2="406" y1="710.1621" y2="723.1621"/><line style="stroke:#111827;stroke-width:1.0;" x1="365" x2="406" y1="723.1621" y2="723.1621"/><polygon fill="#111827" points="375,719.1621,365,723.1621,375,727.1621,371,723.1621" style="stroke:#111827;stroke-width:1.0;"/><text fill="#000000" font-family="Arial" font-size="13" font-weight="bold" lengthAdjust="spacing" textLength="7" x="371" y="697.9329">6</text><text fill="#000000" font-family="Arial" font-size="13" lengthAdjust="spacing" textLength="182" x="382" y="690.4585">Erzeugt leeren Medikationsplan</text><text fill="#000000" font-family="Arial" font-size="13" lengthAdjust="spacing" textLength="211" x="386" y="705.4072">mit List.emptyReason = "notstarted"</text><polygon fill="#111827" points="143,778.0083,133,782.0083,143,786.0083,139,782.0083" style="stroke:#111827;stroke-width:1.0;"/><line style="stroke:#111827;stroke-width:1.0;" x1="137" x2="358" y1="782.0083" y2="782.0083"/><text fill="#000000" font-family="Arial" font-size="13" font-weight="bold" lengthAdjust="spacing" textLength="7" x="149" y="762.3047">7</text><text fill="#000000" font-family="Arial" font-size="13" lengthAdjust="spacing" textLength="101" x="160" y="747.356">Collection Bundle</text><text fill="#000000" font-family="Arial" font-size="13" lengthAdjust="spacing" textLength="187" x="160" y="762.3047">(List.emptyReason = notstarted)</text><text fill="#000000" font-family="Arial" font-size="13" lengthAdjust="spacing" textLength="42" x="160" y="777.2534">+ ETag</text><path d="M5,807.0083 L5,855.0083 A5,5 0 0 0 10,860.0083 L245,860.0083 A5,5 0 0 0 250,855.0083 L250,812.0083 L240,802.0083 L10,802.0083 A5,5 0 0 0 5,807.0083 " fill="url(#g1p9qqlnu0c01c0)" style="stroke:#8B95A5;stroke-width:1.0;"/><path d="M240,802.0083 L240,809.5083 A2.5,2.5 0 0 0 242.5,812.0083 L250,812.0083 L240,802.0083 " fill="url(#g1p9qqlnu0c01c0)" style="stroke:#8B95A5;stroke-width:1.0;"/><text fill="#111827" font-family="Arial" font-size="14" lengthAdjust="spacing" textLength="139" x="11" y="820.1401">Nachfolgend kann der</text><text fill="#111827" font-family="Arial" font-size="14" lengthAdjust="spacing" textLength="220" x="11" y="836.2388">Medikationsplan bearbeitet werden</text><text fill="#111827" font-family="Arial" font-size="14" lengthAdjust="spacing" textLength="177" x="11" y="852.3374">und ein Plan-Write erfolgen.</text><!--SRC=[fLRRZXf747tlhwX0fDYAi9Z1mB8IYS0xwrXUBuWbicGXhHgcO5iCtQIxntZNzci-89-OBqdrSEkvs8cKsHUcwt2gpgcgPgsm2S8uuR8nGHupzfDP2xdbcc-0BwpIT_QH07o7HcsGiNDqhdIC-fLAb8PwCtlyA5-iLrgbCZuWbcttvo7C0u_LJiWLB7bYq8iSlgObQWXyqXYNF4tijPBsbcyGQWCjU5AhHjo99uJWPNNmMsN_zhX5dGYvzW1HL0NuNSRP1ooLFrIVnZoEdRAmcJyV-fwriyUtL2gBy9a138lkOHFRosQZ7WTn3piEuJDTp7jjtZwTJX_4OYtH60ZeREAvsQJtOssEnRCY28ABi4jdTuM-VFKhDFX7YdAnhtBCjHKBiUNILWdB0qhpa3rvKBapfV2ngxc0PpV0G6krAuhA3lE-P4TL6K-1VQuM7RscohSvZIVcVQZKBro6cJhlc-VqeJFr1nf7DpwlHZUZoVthgy5z0FJKWtQdUH5UD2i0OGReTJhDxbK9C1vCtqItKyVGwmp3boN0O3o2xAathtlHLRjN14Jleglxwm41iDSDM-4yBWBk9z67Q3o5-Y9kTLiXxnLbZDv2BaVOBb9C9gD91eXwtQ0LjcW1idi6zWvm0pNw147DDuPjpyq6V8UnAzD1iK4lS3sevIKm8asjakbcZfgnVXy89jRS2YNDbYuxu7ETBb52ly_OFdFZboFp9On7TrFuqG4RsjsALA7uo6avzr2_CfOjhVg81mLiu9ZfhZ75d8OzfHg6oFKSXKtbYg6CivrdvmH7SNavnrE_nkYJC5QWja0QYT3C9A2GnQo_4dbYp-qf6a7NcJaIFLix0jnixIFz61WbdzC4L-RMJvYkB0nIamXSeYOrfZ6JDFq9BXmv36aP4fp9gIRbIwKtMSxBcMo0nDsNnGENAshTtt_-1QaylBcWnWsP6RjqF3LmGxKH83xm0KfBwIJAcToXf3vImWpqWYBwyHYtMIA3ziaUecTHq0SfahLKE-dBeuHP0o__YwgV8Pho5MD8D-JPsnkaJkZlMhmHbGNLZXNLyeuVAggeuDbtP3q_5NWUpWCfUujk6VDT0OSZEsEnUk4DfITklxRhYldorVtBj2JEdX81ZUqtJL7MMDfyZF-VBIUQip506rfSEYUzlC-tVF6mLCdA-RBcD79qbGChkZ0_h3LQs27TzkIfcrfdMFRFrNijN2AzP_9S_WS0]--></g></svg>