<?xml version="1.0" encoding="us-ascii" standalone="no"?><svg xmlns="http://www.w3.org/2000/svg" xmlns:xlink="http://www.w3.org/1999/xlink" contentStyleType="text/css" height="766px" preserveAspectRatio="none" style="width:548px;height:766px;background:#F5F5F5;" version="1.1" viewBox="0 0 548 766" width="548px" zoomAndPan="magnify"><defs><linearGradient id="g15g6c1l5o7qqa0" x1="50%" x2="50%" y1="0%" y2="100%"><stop offset="0%" stop-color="#E0E5F0"/><stop offset="100%" stop-color="#D1D9E6"/></linearGradient></defs><g><rect fill="#F5F5F5" height="766" style="stroke:none;stroke-width:1.0;" width="548" x="0" y="0"/><text fill="#000000" font-family="Arial" font-size="14" font-weight="bold" lengthAdjust="spacing" textLength="227" x="156.5" y="28.1318">Initial erstellter Medikationsplan</text><rect fill="#156082" fill-opacity="0.50196" height="402.0791" style="stroke:#181818;stroke-width:1.0;" width="10" x="97" y="193.2446"/><rect fill="#E97232" fill-opacity="0.74118" height="402.0791" style="stroke:#181818;stroke-width:1.0;" width="10" x="329" y="193.2446"/><rect fill="#0F9ED5" fill-opacity="0.14510" height="351.2803" rx="5" ry="5" style="stroke:#111827;stroke-width:2.0;" width="463" x="68" y="317.3394"/><path d="M68,603.3237 L531,603.3237 L531,663.6196 A5,5 0 0 1 526,668.6196 L73,668.6196 A5,5 0 0 1 68,663.6196 L68,603.3237 " fill="#E97132" fill-opacity="0.20784" style="stroke:none;stroke-width:1.0;"/><line style="stroke:#181818;stroke-width:0.5;stroke-dasharray:5.0,5.0;" x1="102" x2="102" y1="118.1973" y2="685.6196"/><line style="stroke:#181818;stroke-width:0.5;stroke-dasharray:5.0,5.0;" x1="334" x2="334" y1="118.1973" y2="685.6196"/><text fill="#000000" font-family="Arial" font-size="14" lengthAdjust="spacing" textLength="42" x="78" y="115.2305">GDA 1</text><ellipse cx="102" cy="50.5986" fill="#156082" fill-opacity="0.50196" rx="8" ry="8" style="stroke:#181818;stroke-width:0.5;"/><path d="M102,58.5986 L102,85.5986 M89,66.5986 L115,66.5986 M102,85.5986 L89,100.5986 M102,85.5986 L115,100.5986 " fill="none" style="stroke:#181818;stroke-width:0.5;"/><text fill="#000000" font-family="Arial" font-size="14" lengthAdjust="spacing" textLength="42" x="78" y="697.7515">GDA 1</text><ellipse cx="102" cy="709.2183" fill="#156082" fill-opacity="0.50196" rx="8" ry="8" style="stroke:#181818;stroke-width:0.5;"/><path d="M102,717.2183 L102,744.2183 M89,725.2183 L115,725.2183 M102,744.2183 L89,759.2183 M102,744.2183 L115,759.2183 " fill="none" style="stroke:#181818;stroke-width:0.5;"/><rect fill="#E97232" fill-opacity="0.74118" height="30.0986" rx="5" ry="5" style="stroke:#555555;stroke-width:0.5;" width="76" x="296" y="87.0986"/><text fill="#000000" font-family="Arial" font-size="14" lengthAdjust="spacing" textLength="62" x="303" y="107.2305">e-Med FA</text><rect fill="#E97232" fill-opacity="0.74118" height="30.0986" rx="5" ry="5" style="stroke:#555555;stroke-width:0.5;" width="76" x="296" y="684.6196"/><text fill="#000000" font-family="Arial" font-size="14" lengthAdjust="spacing" textLength="62" x="303" y="704.7515">e-Med FA</text><rect fill="#156082" fill-opacity="0.50196" height="402.0791" style="stroke:#181818;stroke-width:1.0;" width="10" x="97" y="193.2446"/><rect fill="#E97232" fill-opacity="0.74118" height="402.0791" style="stroke:#181818;stroke-width:1.0;" width="10" x="329" y="193.2446"/><rect fill="#EEEEEE" height="3" rx="5" ry="5" style="stroke:#EEEEEE;stroke-width:1.0;" width="541" x="0" y="149.2466"/><line style="stroke:#000000;stroke-width:1.0;" x1="0" x2="541" y1="149.2466" y2="149.2466"/><line style="stroke:#000000;stroke-width:1.0;" x1="0" x2="541" y1="152.2466" y2="152.2466"/><rect fill="#EEEEEE" height="24.0986" rx="5" ry="5" style="stroke:#000000;stroke-width:2.0;" width="175" x="183" y="138.1973"/><text fill="#000000" font-family="Arial" font-size="14" font-weight="bold" lengthAdjust="spacing" textLength="157" x="189" y="155.3291">Erstmaliges Plan-Read</text><polygon fill="#111827" points="317,189.2446,327,193.2446,317,197.2446,321,193.2446" style="stroke:#111827;stroke-width:1.0;"/><line style="stroke:#111827;stroke-width:1.0;" x1="107" x2="323" y1="193.2446" y2="193.2446"/><text fill="#000000" font-family="Arial" font-size="13" font-weight="bold" lengthAdjust="spacing" textLength="7" x="114" y="188.4897">1</text><text fill="#000000" font-family="Arial" font-size="13" lengthAdjust="spacing" textLength="99" x="125" y="188.4897">POST $plan-read</text><path d="M5,211.2446 L5,243.2446 A5,5 0 0 0 10,248.2446 L195,248.2446 A5,5 0 0 0 200,243.2446 L200,216.2446 L190,206.2446 L10,206.2446 A5,5 0 0 0 5,211.2446 " fill="url(#g15g6c1l5o7qqa0)" style="stroke:#8B95A5;stroke-width:1.0;"/><path d="M190,206.2446 L190,213.7446 A2.5,2.5 0 0 0 192.5,216.2446 L200,216.2446 L190,206.2446 " fill="url(#g15g6c1l5o7qqa0)" style="stroke:#8B95A5;stroke-width:1.0;"/><text fill="#111827" font-family="Arial" font-size="14" lengthAdjust="spacing" textLength="174" x="11" y="224.3765">Abruf des Medikationsplans</text><text fill="#111827" font-family="Arial" font-size="14" lengthAdjust="spacing" textLength="100" x="11" y="240.4751">zur Bearbeitung</text><line style="stroke:#111827;stroke-width:1.0;" x1="339" x2="381" y1="289.3394" y2="289.3394"/><line style="stroke:#111827;stroke-width:1.0;" x1="381" x2="381" y1="289.3394" y2="302.3394"/><line style="stroke:#111827;stroke-width:1.0;" x1="340" x2="381" y1="302.3394" y2="302.3394"/><polygon fill="#111827" points="350,298.3394,340,302.3394,350,306.3394,346,302.3394" style="stroke:#111827;stroke-width:1.0;"/><text fill="#000000" font-family="Arial" font-size="13" font-weight="bold" lengthAdjust="spacing" textLength="7" x="346" y="277.1101">2</text><text fill="#000000" font-family="Arial" font-size="13" lengthAdjust="spacing" textLength="69" x="357" y="269.6357">Existiert ein</text><text fill="#000000" font-family="Arial" font-size="13" lengthAdjust="spacing" textLength="101" x="357" y="284.5845">Medikationsplan?</text><path d="M73,317.3394 L130,317.3394 L130,325.438 L120,335.438 L68,335.438 L68,322.3394 A5,5 0 0 1 73,317.3394 " fill="#EEF2FF" style="stroke:#111827;stroke-width:1.5;"/><rect fill="none" height="351.2803" rx="5" ry="5" style="stroke:#111827;stroke-width:2.0;" width="463" x="68" y="317.3394"/><text fill="#000000" font-family="Arial" font-size="14" font-weight="bold" lengthAdjust="spacing" textLength="17" x="83" y="331.4712">alt</text><text fill="#000000" font-family="Arial" font-size="14" font-weight="bold" lengthAdjust="spacing" textLength="276" x="145" y="332.4712">[nein: kein Medikationsplan persistiert]</text><line style="stroke:#111827;stroke-width:1.0;" x1="339" x2="381" y1="372.4341" y2="372.4341"/><line style="stroke:#111827;stroke-width:1.0;" x1="381" x2="381" y1="372.4341" y2="385.4341"/><line style="stroke:#111827;stroke-width:1.0;" x1="340" x2="381" y1="385.4341" y2="385.4341"/><polygon fill="#111827" points="350,381.4341,340,385.4341,350,389.4341,346,385.4341" style="stroke:#111827;stroke-width:1.0;"/><text fill="#000000" font-family="Arial" font-size="13" font-weight="bold" lengthAdjust="spacing" textLength="7" x="346" y="360.2048">3</text><text fill="#000000" font-family="Arial" font-size="13" lengthAdjust="spacing" textLength="111" x="357" y="352.7305">Erzeugt initiale List</text><text fill="#000000" font-family="Arial" font-size="13" lengthAdjust="spacing" textLength="162" x="357" y="367.6792">(emptyReason = notstarted)</text><line style="stroke:#111827;stroke-width:1.0;" x1="339" x2="381" y1="414.3828" y2="414.3828"/><line style="stroke:#111827;stroke-width:1.0;" x1="381" x2="381" y1="414.3828" y2="427.3828"/><line style="stroke:#111827;stroke-width:1.0;" x1="340" x2="381" y1="427.3828" y2="427.3828"/><polygon fill="#111827" points="350,423.3828,340,427.3828,350,431.3828,346,427.3828" style="stroke:#111827;stroke-width:1.0;"/><text fill="#000000" font-family="Arial" font-size="13" font-weight="bold" lengthAdjust="spacing" textLength="7" x="346" y="409.6279">4</text><text fill="#000000" font-family="Arial" font-size="13" lengthAdjust="spacing" textLength="132" x="357" y="409.6279">Persistiert List-Version</text><line style="stroke:#111827;stroke-width:1.0;" x1="339" x2="381" y1="471.2803" y2="471.2803"/><line style="stroke:#111827;stroke-width:1.0;" x1="381" x2="381" y1="471.2803" y2="484.2803"/><line style="stroke:#111827;stroke-width:1.0;" x1="340" x2="381" y1="484.2803" y2="484.2803"/><polygon fill="#111827" points="350,480.2803,340,484.2803,350,488.2803,346,484.2803" style="stroke:#111827;stroke-width:1.0;"/><text fill="#000000" font-family="Arial" font-size="13" font-weight="bold" lengthAdjust="spacing" textLength="7" x="346" y="459.051">5</text><text fill="#000000" font-family="Arial" font-size="13" lengthAdjust="spacing" textLength="114" x="357" y="451.5767">Erzeugt tempor&#228;res</text><text fill="#000000" font-family="Arial" font-size="13" lengthAdjust="spacing" textLength="101" x="357" y="466.5254">Collection Bundle</text><path d="M255,502.2803 L255,534.2803 A5,5 0 0 0 260,539.2803 L407,539.2803 A5,5 0 0 0 412,534.2803 L412,507.2803 L402,497.2803 L260,497.2803 A5,5 0 0 0 255,502.2803 " fill="url(#g15g6c1l5o7qqa0)" style="stroke:#8B95A5;stroke-width:1.0;"/><path d="M402,497.2803 L402,504.7803 A2.5,2.5 0 0 0 404.5,507.2803 L412,507.2803 L402,497.2803 " fill="url(#g15g6c1l5o7qqa0)" style="stroke:#8B95A5;stroke-width:1.0;"/><text fill="#111827" font-family="Arial" font-size="14" lengthAdjust="spacing" textLength="136" x="261" y="515.4121">Keine Transformation</text><text fill="#111827" font-family="Arial" font-size="14" lengthAdjust="spacing" textLength="76" x="261" y="531.5107">erforderlich.</text><polygon fill="#111827" points="113,591.3237,103,595.3237,113,599.3237,109,595.3237" style="stroke:#111827;stroke-width:1.0;"/><line style="stroke:#111827;stroke-width:1.0;" x1="107" x2="333" y1="595.3237" y2="595.3237"/><text fill="#000000" font-family="Arial" font-size="13" font-weight="bold" lengthAdjust="spacing" textLength="7" x="119" y="575.6201">6</text><text fill="#000000" font-family="Arial" font-size="13" lengthAdjust="spacing" textLength="101" x="130" y="560.6714">Collection Bundle</text><text fill="#000000" font-family="Arial" font-size="13" lengthAdjust="spacing" textLength="187" x="130" y="575.6201">(List.emptyReason = notstarted)</text><text fill="#000000" font-family="Arial" font-size="13" lengthAdjust="spacing" textLength="42" x="130" y="590.5688">+ ETag</text><line style="stroke:#111827;stroke-width:1.0;stroke-dasharray:2.0,2.0;" x1="68" x2="531" y1="604.3237" y2="604.3237"/><text fill="#000000" font-family="Arial" font-size="14" font-weight="bold" lengthAdjust="spacing" textLength="223" x="73" y="617.4556">[ja: Medikationsplan persistiert]</text><rect fill="none" height="42.1973" rx="5" ry="5" style="stroke:#000000;stroke-width:1.5;" width="320" x="75" y="621.4224"/><path d="M80,621.4224 L140,621.4224 L140,629.4224 L130,639.4224 L75,639.4224 L75,626.4224 A5,5 0 0 1 80,621.4224 " fill="#EEEEEE" style="stroke:#000000;stroke-width:2.0;"/><text fill="#000000" font-family="Arial" font-size="14" font-weight="bold" lengthAdjust="spacing" textLength="20" x="88" y="636.5542">ref</text><text fill="#000000" font-family="Arial" font-size="14" lengthAdjust="spacing" textLength="155" x="157.5" y="656.5542">Siehe Ablauf Plan-Read.</text><!--SRC=[XLLjRzf84Fw-ls8A9_LELohR58WZqSeqJg_g2mXeFrIHeWMFoHvcbzjTDqrEzs_kdzmVkraJmjeGTK78ddbsvfbNhB05mdifhE05e3OMYyAYXa-OYJMtGacpBRXaxBbP2xdbcc-0BwtICtj7D_aj6hL1nWxQXT8PwhUgK1hQGNLyBL-kLrgLCdj0v3ttyH3cXcVgLiWLvBmmw6aUhcb9_4BVQ8OvBmjxgQJzp3S8hKHJEAtJY9cuHmXVdLO-HVkFkotgGiYr1qZJKu0lCgiUy8Z-IFsOy2npaKL1NJxoSzQhZfzIgIp2tmnWrCmU1jZBWqux2xCO-mxXMpfRn3tUUvJERyHoBT4O24aszR8PqFkUcxFYfI8CmxDeGB9Peox_-0mD_bMYNEvOJhYsOYcsNDfJWTK1H_rGdJhek397wdrLQmeltG29rkgs6LGbhEUb4fto-AZO-UgIw1qntzPYVBIyKntL2_EeYiwxUN0VkQG-etPqxVDs_74ylNvtaLo7GASTzlh1MNGMd0145I3kzuF1nH5WaipVfv_dpaBS7qMlZW39P0pLQGUNSNhHYvk0z5DwSNsP403ZGTID5baJS3rDlwMJERINMNVGZNZS36Fy0Me-ebxJn7GwdbQ0D1w4tQXB0r3j6TXbW1jeqHE4BJynR7ieDY3jB4VJGR53Bt2PjEeXaCtIAbbk5gWP6muXfOstuOLOeO49xRdE57a6mo5ZExUTrtkpvp0Pp-RmYzk67KqeHqzyvpIPEwXFYrKJgxxZ0tsMB7IPqw8npSLgs7sfOOHSBr3OKguOogmQU7Pmi8-i7ijUwdDCVmXZ1MhAXf1Nik7i3TaixA4aaa3diARV9YsWRMRsfXZrwqbd-XxBbGMn-_j0-4WthkIlkDdQEqgaKHA6BXPZgKoO_VQ4dOddovdeV7K29N_Yrf8VfV_xLwEvaZHV1IuTVnZHk14PkatVGo4UxfFi0xg-cslAVgxqfehQ-T9vDO-5MDwyTE_xGjHeLFKyXoD_5BVZ_lB9uA_axv3E-Sgnoh1PMyOOqbQjJSEV_FodTT6OUttsuX3aJE0DGh8eE3NUOslluw9hZ7aiTbrA6iR-1m00]--></g></svg>