<svg xmlns="http://www.w3.org/2000/svg" xmlns:xlink="http://www.w3.org/1999/xlink" contentStyleType="text/css" data-diagram-type="SEQUENCE" height="625px" preserveAspectRatio="none" style="width:1005px;height:625px;background:#F5F5F5;" version="1.1" viewBox="0 0 1005 625" width="1005px" zoomAndPan="magnify"><?plantuml 1.2026.4beta2?><defs><linearGradient id="g1vhi3b5dxga650" x1="50%" x2="50%" y1="0%" y2="100%"><stop offset="0%" stop-color="#E0E5F0"/><stop offset="100%" stop-color="#D1D9E6"/></linearGradient><filter height="300%" id="f1vhi3b5dxga65" width="300%" x="-1" y="-1"><feGaussianBlur result="blurOut" stdDeviation="2"/><feColorMatrix in="blurOut" result="blurOut2" type="matrix" values="0 0 0 0 0 0 0 0 0 0 0 0 0 0 0 0 0 0 .4 0"/><feOffset dx="4" dy="4" in="blurOut2" result="blurOut3"/><feBlend in="SourceGraphic" in2="blurOut3" mode="normal"/></filter></defs><g><rect fill="#F5F5F5" height="625" style="stroke:none;stroke-width:1;" width="1005" x="0" y="0"/><g class="title" data-source-line="1"><text fill="#000000" font-family="'Arial'" font-size="14" font-weight="700" lengthAdjust="spacing" textLength="210.5332" x="393.9348" y="27.9951">Medikationsplan anpassen</text></g><rect fill="#9FBAC4" height="575.125" rx="5" ry="5" style="stroke:#181818;stroke-width:0.5;" width="74.0586" x="130" y="43.2969"/><text fill="#000000" font-family="'Arial'" font-size="14" font-weight="700" lengthAdjust="spacing" textLength="4.874" x="133" y="56.292">&#160;</text><text fill="#000000" font-family="'Arial'" font-size="14" font-weight="700" lengthAdjust="spacing" textLength="48.5625" x="142.748" y="72.5889">GDA 1</text><rect fill="#C48778" height="575.125" rx="5" ry="5" style="stroke:#181818;stroke-width:0.5;" width="256.9268" x="475.6938" y="43.2969"/><text fill="#000000" font-family="'Arial'" font-size="14" font-weight="700" lengthAdjust="spacing" textLength="4.874" x="478.6938" y="56.292">&#160;</text><text fill="#000000" font-family="'Arial'" font-size="14" font-weight="700" lengthAdjust="spacing" textLength="182.6904" x="512.812" y="72.5889">e-Med Fachanwendung</text><rect fill="#BEAEBE" height="575.125" rx="5" ry="5" style="stroke:#181818;stroke-width:0.5;" width="83.8066" x="774.6206" y="43.2969"/><text fill="#000000" font-family="'Arial'" font-size="14" font-weight="700" lengthAdjust="spacing" textLength="4.874" x="777.6206" y="56.292">&#160;</text><text fill="#000000" font-family="'Arial'" font-size="14" font-weight="700" lengthAdjust="spacing" textLength="48.5625" x="797.1167" y="72.5889">GDA 2</text><rect fill="#BAC38B" height="575.125" rx="5" ry="5" style="stroke:#181818;stroke-width:0.5;" width="77.9756" x="900.4272" y="43.2969"/><text fill="#000000" font-family="'Arial'" font-size="14" font-weight="700" lengthAdjust="spacing" textLength="4.874" x="903.4272" y="56.292">&#160;</text><text fill="#000000" font-family="'Arial'" font-size="14" font-weight="700" lengthAdjust="spacing" textLength="57.3535" x="908.3013" y="72.5889">Patient</text><g><title>GDA 1</title><rect fill="#FFFFFF" height="363.9375" style="stroke:#181818;stroke-width:1;" width="10" x="162.0293" y="166.1875"/></g><g class="participant-lifeline" data-entity-uid="part1" data-qualified-name="GDA_1" data-source-line="42" id="part1-lifeline"><g><title>GDA 1</title><rect fill="#000000" fill-opacity="0.00000" height="382.9375" width="8" x="163.0293" y="156.1875"/><line style="stroke:#181818;stroke-width:0.5;stroke-dasharray:5,5;" x1="166.7476" x2="166.7476" y1="156.1875" y2="539.125"/></g></g><g class="participant-lifeline" data-entity-uid="part2" data-qualified-name="eMed_FA" data-source-line="46" id="part2-lifeline"><g><title>e-Med FA</title><rect fill="#000000" fill-opacity="0.00000" height="382.9375" width="8" x="600.1572" y="156.1875"/><line style="stroke:#181818;stroke-width:0.5;stroke-dasharray:5,5;" x1="603.4951" x2="603.4951" y1="156.1875" y2="539.125"/></g></g><g class="participant-lifeline" data-entity-uid="part3" data-qualified-name="GDA_2" data-source-line="50" id="part3-lifeline"><g><title>GDA 2</title><rect fill="#000000" fill-opacity="0.00000" height="382.9375" width="8" x="812.5239" y="156.1875"/><line style="stroke:#181818;stroke-width:0.5;stroke-dasharray:5,5;" x1="816.2422" x2="816.2422" y1="156.1875" y2="539.125"/></g></g><g class="participant-lifeline" data-entity-uid="part4" data-qualified-name="Patient" data-source-line="54" id="part4-lifeline"><g><title>Patient</title><rect fill="#000000" fill-opacity="0.00000" height="382.9375" width="8" x="935.415" y="156.1875"/><line style="stroke:#181818;stroke-width:0.5;stroke-dasharray:5,5;" x1="938.7271" x2="938.7271" y1="156.1875" y2="539.125"/></g></g><g class="participant participant-head" data-entity-uid="part1" data-qualified-name="GDA_1" data-source-line="42" id="part1-head"><text fill="#000000" font-family="'Arial'" font-size="14" lengthAdjust="spacing" textLength="44.5635" x="141.7476" y="152.8857">GDA 1</text><ellipse cx="167.0293" cy="88.3906" fill="#E2E2F0" rx="8" ry="8" style="stroke:#181818;stroke-width:0.5;"/><path d="M167.0293,96.3906 L167.0293,123.3906 M154.0293,104.3906 L180.0293,104.3906 M167.0293,123.3906 L154.0293,138.3906 M167.0293,123.3906 L180.0293,138.3906" fill="none" style="stroke:#181818;stroke-width:0.5;"/></g><g class="participant participant-tail" data-entity-uid="part1" data-qualified-name="GDA_1" data-source-line="42" id="part1-tail"><text fill="#000000" font-family="'Arial'" font-size="14" lengthAdjust="spacing" textLength="44.5635" x="141.7476" y="551.1201">GDA 1</text><ellipse cx="167.0293" cy="562.9219" fill="#E2E2F0" rx="8" ry="8" style="stroke:#181818;stroke-width:0.5;"/><path d="M167.0293,570.9219 L167.0293,597.9219 M154.0293,578.9219 L180.0293,578.9219 M167.0293,597.9219 L154.0293,612.9219 M167.0293,597.9219 L180.0293,612.9219" fill="none" style="stroke:#181818;stroke-width:0.5;"/></g><g class="participant participant-head" data-entity-uid="part2" data-qualified-name="eMed_FA" data-source-line="46" id="part2-head"><rect fill="#FFFFFF" height="30.2969" rx="5" ry="5" style="stroke:#555555;stroke-width:0.5;" width="79.3242" x="564.4951" y="124.8906"/><text fill="#000000" font-family="'Arial'" font-size="14" lengthAdjust="spacing" textLength="65.3242" x="571.4951" y="144.8857">e-Med FA</text></g><g class="participant participant-tail" data-entity-uid="part2" data-qualified-name="eMed_FA" data-source-line="46" id="part2-tail"><rect fill="#FFFFFF" height="30.2969" rx="5" ry="5" style="stroke:#555555;stroke-width:0.5;" width="79.3242" x="564.4951" y="538.125"/><text fill="#000000" font-family="'Arial'" font-size="14" lengthAdjust="spacing" textLength="65.3242" x="571.4951" y="558.1201">e-Med FA</text></g><g class="participant participant-head" data-entity-uid="part3" data-qualified-name="GDA_2" data-source-line="50" id="part3-head"><text fill="#000000" font-family="'Arial'" font-size="14" lengthAdjust="spacing" textLength="44.5635" x="791.2422" y="152.8857">GDA 2</text><ellipse cx="816.5239" cy="88.3906" fill="#E2E2F0" rx="8" ry="8" style="stroke:#181818;stroke-width:0.5;"/><path d="M816.5239,96.3906 L816.5239,123.3906 M803.5239,104.3906 L829.5239,104.3906 M816.5239,123.3906 L803.5239,138.3906 M816.5239,123.3906 L829.5239,138.3906" fill="none" style="stroke:#181818;stroke-width:0.5;"/></g><g class="participant participant-tail" data-entity-uid="part3" data-qualified-name="GDA_2" data-source-line="50" id="part3-tail"><text fill="#000000" font-family="'Arial'" font-size="14" lengthAdjust="spacing" textLength="44.5635" x="791.2422" y="551.1201">GDA 2</text><ellipse cx="816.5239" cy="562.9219" fill="#E2E2F0" rx="8" ry="8" style="stroke:#181818;stroke-width:0.5;"/><path d="M816.5239,570.9219 L816.5239,597.9219 M803.5239,578.9219 L829.5239,578.9219 M816.5239,597.9219 L803.5239,612.9219 M816.5239,597.9219 L829.5239,612.9219" fill="none" style="stroke:#181818;stroke-width:0.5;"/></g><g class="participant participant-head" data-entity-uid="part4" data-qualified-name="Patient" data-source-line="54" id="part4-head"><text fill="#000000" font-family="'Arial'" font-size="14" lengthAdjust="spacing" textLength="49.376" x="911.7271" y="152.8857">Patient</text><ellipse cx="939.415" cy="88.3906" fill="#E2E2F0" rx="8" ry="8" style="stroke:#181818;stroke-width:0.5;"/><path d="M939.415,96.3906 L939.415,123.3906 M926.415,104.3906 L952.415,104.3906 M939.415,123.3906 L926.415,138.3906 M939.415,123.3906 L952.415,138.3906" fill="none" style="stroke:#181818;stroke-width:0.5;"/></g><g class="participant participant-tail" data-entity-uid="part4" data-qualified-name="Patient" data-source-line="54" id="part4-tail"><text fill="#000000" font-family="'Arial'" font-size="14" lengthAdjust="spacing" textLength="49.376" x="911.7271" y="551.1201">Patient</text><ellipse cx="939.415" cy="562.9219" fill="#E2E2F0" rx="8" ry="8" style="stroke:#181818;stroke-width:0.5;"/><path d="M939.415,570.9219 L939.415,597.9219 M926.415,578.9219 L952.415,578.9219 M939.415,597.9219 L926.415,612.9219 M939.415,597.9219 L952.415,612.9219" fill="none" style="stroke:#181818;stroke-width:0.5;"/></g><g><title>GDA 1</title><rect fill="#FFFFFF" height="363.9375" style="stroke:#181818;stroke-width:1;" width="10" x="162.0293" y="166.1875"/></g><rect fill="#EEEEEE" height="3" rx="5" ry="5" style="stroke:#EEEEEE;stroke-width:1;" width="999.4028" x="0" y="187.3359"/><line style="stroke:#000000;stroke-width:1;" x1="0" x2="999.4028" y1="187.3359" y2="187.3359"/><line style="stroke:#000000;stroke-width:1;" x1="0" x2="999.4028" y1="190.3359" y2="190.3359"/><rect fill="#EEEEEE" height="24.2969" rx="5" ry="5" style="stroke:#000000;stroke-width:2;" width="216.2891" x="391.5569" y="176.1875"/><text fill="#000000" font-family="'Arial'" font-size="14" font-weight="700" lengthAdjust="spacing" textLength="197.415" x="397.5569" y="193.1826">Medikationsplan abrufen</text><rect fill="none" height="42.5938" rx="5" ry="5" style="stroke:#000000;stroke-width:1.5;" width="508.0718" x="138.7476" y="210.4844"/><path d="M143.7476,210.4844 L205.7476,210.4844 L205.7476,218.4844 L195.7476,228.4844 L138.7476,228.4844 L138.7476,215.4844 A5,5 0 0 1 143.7476,210.4844" fill="#EEEEEE" style="stroke:#000000;stroke-width:2;"/><text fill="#000000" font-family="'Arial'" font-size="14" font-weight="700" lengthAdjust="spacing" textLength="22.4902" x="151.7476" y="225.4795">ref</text><a href="interactions.html#sequenzdiagramm-read-to-write-zugriff" target="_top" title="interactions.html#sequenzdiagramm-read-to-write-zugriff" xlink:actuate="onRequest" xlink:href="interactions.html#sequenzdiagramm-read-to-write-zugriff" xlink:show="new" xlink:title="interactions.html#sequenzdiagramm-read-to-write-zugriff" xlink:type="simple"><text fill="#0000EE" font-family="'Arial'" font-size="14" lengthAdjust="spacing" textLength="149.4609" x="318.053" y="245.4795">Read-to-Write-Zugriff</text></a><path d="M5,268.0781 L5,300.0781 A5,5 0 0 0 10,305.0781 L321,305.0781 A5,5 0 0 0 326,300.0781 L326,273.0781 L316,263.0781 L10,263.0781 A5,5 0 0 0 5,268.0781" fill="url(#g1vhi3b5dxga650)" filter="url(#f1vhi3b5dxga65)" style="stroke:#8B95A5;stroke-width:1;"/><path d="M316,263.0781 L316,270.5781 A2.5,2.5 0 0 0 318.5,273.0781 L326,273.0781 L316,263.0781" fill="url(#g1vhi3b5dxga650)" style="stroke:#8B95A5;stroke-width:1;"/><text fill="#111827" font-family="'Arial'" font-size="14" lengthAdjust="spacing" textLength="296.0029" x="11" y="281.0732">GDA erh&#228;lt den aktuellen Medikationsplan</text><text fill="#111827" font-family="'Arial'" font-size="14" lengthAdjust="spacing" textLength="171.1309" x="11" y="297.3701">im Auslieferungs-Bundle</text><rect fill="#EEEEEE" height="3" rx="5" ry="5" style="stroke:#EEEEEE;stroke-width:1;" width="999.4028" x="0" y="334.8203"/><line style="stroke:#000000;stroke-width:1;" x1="0" x2="999.4028" y1="334.8203" y2="334.8203"/><line style="stroke:#000000;stroke-width:1;" x1="0" x2="999.4028" y1="337.8203" y2="337.8203"/><rect fill="#EEEEEE" height="24.2969" rx="5" ry="5" style="stroke:#000000;stroke-width:2;" width="363.8975" x="317.7527" y="323.6719"/><text fill="#000000" font-family="'Arial'" font-size="14" font-weight="700" lengthAdjust="spacing" textLength="345.0234" x="323.7527" y="340.667">Medikationsplan vorbereiten und schreiben</text><g class="message" data-entity-1="part1" data-entity-2="part1" data-source-line="74" id="msg1"><line style="stroke:#111827;stroke-width:1;" x1="172.0293" x2="214.0293" y1="379.1016" y2="379.1016"/><line style="stroke:#111827;stroke-width:1;" x1="214.0293" x2="214.0293" y1="379.1016" y2="392.1016"/><line style="stroke:#111827;stroke-width:1;" x1="173.0293" x2="214.0293" y1="392.1016" y2="392.1016"/><polygon fill="#111827" points="183.0293,388.1016,173.0293,392.1016,183.0293,396.1016,179.0293,392.1016" style="stroke:#111827;stroke-width:1;"/><text fill="#000000" font-family="'Arial'" font-size="13" font-weight="700" lengthAdjust="spacing" textLength="9.0454" x="179.0293" y="374.0356">1</text><text fill="#000000" font-family="'Arial'" font-size="13" lengthAdjust="spacing" textLength="297.5337" x="192.0747" y="374.0356">Planeintrag erstellen/&#228;ndern/Status anpassen</text></g><g class="message" data-entity-1="part1" data-entity-2="part1" data-source-line="75" id="msg2"><line style="stroke:#111827;stroke-width:1;" x1="172.0293" x2="214.0293" y1="421.2344" y2="421.2344"/><line style="stroke:#111827;stroke-width:1;" x1="214.0293" x2="214.0293" y1="421.2344" y2="434.2344"/><line style="stroke:#111827;stroke-width:1;" x1="173.0293" x2="214.0293" y1="434.2344" y2="434.2344"/><polygon fill="#111827" points="183.0293,430.2344,173.0293,434.2344,183.0293,438.2344,179.0293,434.2344" style="stroke:#111827;stroke-width:1;"/><text fill="#000000" font-family="'Arial'" font-size="13" font-weight="700" lengthAdjust="spacing" textLength="9.0454" x="179.0293" y="416.1685">2</text><text fill="#000000" font-family="'Arial'" font-size="13" lengthAdjust="spacing" textLength="201.665" x="192.0747" y="416.1685">List.entry.flag Status anpassen</text></g><rect fill="none" height="42.5938" rx="5" ry="5" style="stroke:#000000;stroke-width:1.5;" width="508.0718" x="138.7476" y="442.2344"/><path d="M143.7476,442.2344 L205.7476,442.2344 L205.7476,450.2344 L195.7476,460.2344 L138.7476,460.2344 L138.7476,447.2344 A5,5 0 0 1 143.7476,442.2344" fill="#EEEEEE" style="stroke:#000000;stroke-width:2;"/><text fill="#000000" font-family="'Arial'" font-size="14" font-weight="700" lengthAdjust="spacing" textLength="22.4902" x="151.7476" y="457.2295">ref</text><a href="interactions.html#write-zugriff" target="_top" title="interactions.html#write-zugriff" xlink:actuate="onRequest" xlink:href="interactions.html#write-zugriff" xlink:show="new" xlink:title="interactions.html#write-zugriff" xlink:type="simple"><text fill="#0000EE" font-family="'Arial'" font-size="14" lengthAdjust="spacing" textLength="89.4961" x="348.0354" y="477.2295">Write-Zugriff</text></a><path d="M467,499.8281 L467,515.8281 A5,5 0 0 0 472,520.8281 L731,520.8281 A5,5 0 0 0 736,515.8281 L736,504.8281 L726,494.8281 L472,494.8281 A5,5 0 0 0 467,499.8281" fill="url(#g1vhi3b5dxga650)" filter="url(#f1vhi3b5dxga65)" style="stroke:#8B95A5;stroke-width:1;"/><path d="M726,494.8281 L726,502.3281 A2.5,2.5 0 0 0 728.5,504.8281 L736,504.8281 L726,494.8281" fill="url(#g1vhi3b5dxga650)" style="stroke:#8B95A5;stroke-width:1;"/><text fill="#111827" font-family="'Arial'" font-size="14" lengthAdjust="spacing" textLength="248.3359" x="473" y="512.8232">Neuer Medikationsplan gespeichert</text><?plantuml-src bLHHJzim47xthpYrhmkGiew2r4c5mVQmeGesJHf3o4akZTNKpco70jF-3V-4FxQB4rAdZIRDUR7llljyzrryLjWSuGicOicjKD8KEPV0PS6DGSdCKj1MynL4IYUeprIkD0mFtFAzF5ukj2fbqY3ISVLv29FnHAs5N43ASuEUfmdJ4ZM4Fcc2AIzpUw6alUGhXC5C2vuF-X7NuWaXVDllxARjOQIo2ByPmEbs0NY0u_GW62PXSeplAeGlm2Gw7lDnQ_sQYNWfqHW8oNRb5JIXyvmdILLunU9b4uRXP7H4jkjM6gjBP7_y13yz5gXp8PTU2UVdVO1lCd4RR0JsjSTV9SguhdJEjHMnABYqdPB6Rcq1TjhgLXUqA_2E-xKv7SUhBACgOAQrMcyBuunTRPsfxyRMKTzrIAQFb7dHgR5bhbqxFSTqvAhp8ZVNZxgTELKFNWKTUv-kB58FCFWfYVp334A00GoFKtetbIeyjWGbnrq8tC30GGOCPKBlxi6BTGi3UgzmmUECopLXIagXNiHvzdPoT5JzTSL6QK0AkBkOEUucUjPFNzqySaGHSeomazoeJMxK4psd0O9qcGlcyU4aQeDVNLLui_S862-jakKgGiqOiEbqTnv5kanHmdHAuDYAUqxFrid5cCOKr3qsyhrfQps1cniXBUegW8ZsChlAX_LJU4e4Nr2pLe56dWHM1MijB0PFvKABD8MhnlhTMN_KrjjRnjoysDp6AYrGPo_FkQLvGuakRObvJhlj4fXOmQmqkS0KDNNC1AVquz7iTJfKlAolydkbIHQaD2GG7aoSqIbgjAZ_cE1zdSq9p2a4gMZD5vIMiIwL_PVdQZJ8_MlBRMasmtqx-hCmTezQen_tqfmOjl7_ANLNqdz8sT2mIopfjAt00as18ivGsrQglm00?></g></svg>