<?xml version="1.0" encoding="us-ascii" standalone="no"?><svg xmlns="http://www.w3.org/2000/svg" xmlns:xlink="http://www.w3.org/1999/xlink" contentStyleType="text/css" height="469px" preserveAspectRatio="none" style="width:538px;height:469px;background:#F5F5F5;" version="1.1" viewBox="0 0 538 469" width="538px" zoomAndPan="magnify"><defs><linearGradient id="g56lk425iew540" x1="50%" x2="50%" y1="0%" y2="100%"><stop offset="0%" stop-color="#E0E5F0"/><stop offset="100%" stop-color="#D1D9E6"/></linearGradient></defs><g><rect fill="#F5F5F5" height="469" style="stroke:none;stroke-width:1.0;" width="538" x="0" y="0"/><text fill="#000000" font-family="Arial" font-size="14" font-weight="bold" lengthAdjust="spacing" textLength="212" x="159.25" y="28.1318">Durchgef&#252;hrte Abgaben lesen</text><text fill="#000000" font-family="Arial" font-size="14" font-weight="bold" lengthAdjust="spacing" textLength="225" x="152.75" y="44.2305">Variante A: Zugriff mittels e-card</text><rect fill="#156082" fill-opacity="0.50196" height="28.9487" style="stroke:#181818;stroke-width:1.0;" width="10" x="137.5" y="241.5405"/><rect fill="#E97232" fill-opacity="0.74118" height="28.9487" style="stroke:#181818;stroke-width:1.0;" width="10" x="463.5" y="241.5405"/><line style="stroke:#181818;stroke-width:0.5;stroke-dasharray:5.0,5.0;" x1="142" x2="142" y1="166.4932" y2="356.7852"/><line style="stroke:#181818;stroke-width:0.5;stroke-dasharray:5.0,5.0;" x1="468.5" x2="468.5" y1="166.4932" y2="356.7852"/><text fill="#000000" font-family="Arial" font-size="14" lengthAdjust="spacing" textLength="34" x="122.5" y="131.3291">GDA:</text><text fill="#000000" font-family="Arial" font-size="14" lengthAdjust="spacing" textLength="28" x="125.5" y="147.4277">Arzt/</text><text fill="#000000" font-family="Arial" font-size="14" lengthAdjust="spacing" textLength="65" x="107" y="163.5264">Apotheker</text><ellipse cx="142.5" cy="66.6973" fill="#156082" fill-opacity="0.50196" rx="8" ry="8" style="stroke:#181818;stroke-width:0.5;"/><path d="M142.5,74.6973 L142.5,101.6973 M129.5,82.6973 L155.5,82.6973 M142.5,101.6973 L129.5,116.6973 M142.5,101.6973 L155.5,116.6973 " fill="none" style="stroke:#181818;stroke-width:0.5;"/><text fill="#000000" font-family="Arial" font-size="14" lengthAdjust="spacing" textLength="34" x="122.5" y="368.917">GDA:</text><text fill="#000000" font-family="Arial" font-size="14" lengthAdjust="spacing" textLength="28" x="125.5" y="385.0156">Arzt/</text><text fill="#000000" font-family="Arial" font-size="14" lengthAdjust="spacing" textLength="65" x="107" y="401.1143">Apotheker</text><ellipse cx="142.5" cy="412.5811" fill="#156082" fill-opacity="0.50196" rx="8" ry="8" style="stroke:#181818;stroke-width:0.5;"/><path d="M142.5,420.5811 L142.5,447.5811 M129.5,428.5811 L155.5,428.5811 M142.5,447.5811 L129.5,462.5811 M142.5,447.5811 L155.5,462.5811 " fill="none" style="stroke:#181818;stroke-width:0.5;"/><rect fill="#E97232" fill-opacity="0.74118" height="30.0986" rx="5" ry="5" style="stroke:#555555;stroke-width:0.5;" width="76" x="430.5" y="135.3945"/><text fill="#000000" font-family="Arial" font-size="14" lengthAdjust="spacing" textLength="62" x="437.5" y="155.5264">e-Med FA</text><rect fill="#E97232" fill-opacity="0.74118" height="30.0986" rx="5" ry="5" style="stroke:#555555;stroke-width:0.5;" width="76" x="430.5" y="355.7852"/><text fill="#000000" font-family="Arial" font-size="14" lengthAdjust="spacing" textLength="62" x="437.5" y="375.917">e-Med FA</text><rect fill="#156082" fill-opacity="0.50196" height="28.9487" style="stroke:#181818;stroke-width:1.0;" width="10" x="137.5" y="241.5405"/><rect fill="#E97232" fill-opacity="0.74118" height="28.9487" style="stroke:#181818;stroke-width:1.0;" width="10" x="463.5" y="241.5405"/><rect fill="#EEEEEE" height="3" rx="5" ry="5" style="stroke:#EEEEEE;stroke-width:1.0;" width="531.5" x="0" y="197.5425"/><line style="stroke:#000000;stroke-width:1.0;" x1="0" x2="531.5" y1="197.5425" y2="197.5425"/><line style="stroke:#000000;stroke-width:1.0;" x1="0" x2="531.5" y1="200.5425" y2="200.5425"/><rect fill="#EEEEEE" height="24.0986" rx="5" ry="5" style="stroke:#000000;stroke-width:2.0;" width="237" x="147.25" y="186.4932"/><text fill="#000000" font-family="Arial" font-size="14" font-weight="bold" lengthAdjust="spacing" textLength="219" x="153.25" y="203.625">Durchgef&#252;hrte Abgabe abrufen</text><polygon fill="#111827" points="451.5,237.5405,461.5,241.5405,451.5,245.5405,455.5,241.5405" style="stroke:#111827;stroke-width:1.0;"/><line style="stroke:#111827;stroke-width:1.0;" x1="147.5" x2="457.5" y1="241.5405" y2="241.5405"/><text fill="#000000" font-family="Arial" font-size="13" font-weight="bold" lengthAdjust="spacing" textLength="7" x="154.5" y="236.7856">1</text><text fill="#000000" font-family="Arial" font-size="13" lengthAdjust="spacing" textLength="291" x="165.5" y="236.7856">GET MedicationDispense f&#252;r bestimmten Zeitraum</text><polygon fill="#111827" points="153.5,266.4893,143.5,270.4893,153.5,274.4893,149.5,270.4893" style="stroke:#111827;stroke-width:1.0;"/><line style="stroke:#111827;stroke-width:1.0;stroke-dasharray:2.0,2.0;" x1="147.5" x2="467.5" y1="270.4893" y2="270.4893"/><text fill="#000000" font-family="Arial" font-size="13" font-weight="bold" lengthAdjust="spacing" textLength="7" x="159.5" y="265.7344">2</text><text fill="#000000" font-family="Arial" font-size="13" lengthAdjust="spacing" textLength="135" x="170.5" y="265.7344">Durchgef&#252;hrte Abgaben</text><path d="M5,288.4893 L5,336.4893 A5,5 0 0 0 10,341.4893 L276,341.4893 A5,5 0 0 0 281,336.4893 L281,293.4893 L271,283.4893 L10,283.4893 A5,5 0 0 0 5,288.4893 " fill="url(#g56lk425iew540)" style="stroke:#8B95A5;stroke-width:1.0;"/><path d="M271,283.4893 L271,290.9893 A2.5,2.5 0 0 0 273.5,293.4893 L281,293.4893 L271,283.4893 " fill="url(#g56lk425iew540)" style="stroke:#8B95A5;stroke-width:1.0;"/><text fill="#111827" font-family="Arial" font-size="14" lengthAdjust="spacing" textLength="167" x="11" y="301.6211">GDA erh&#228;lt alle relevanten</text><text fill="#111827" font-family="Arial" font-size="14" lengthAdjust="spacing" textLength="251" x="11" y="317.7197">Durchgef&#252;hrten Abgaben des Patienten</text><text fill="#111827" font-family="Arial" font-size="14" lengthAdjust="spacing" textLength="149" x="11" y="333.8184">im bestimmten Zeitraum</text><!--SRC=[TLNTSff05BxdAKxrebTE0OEACtO68wQTDj4njXUPp3WBUz0TOQ7BaZJfz6tw6BdBYtK1DO1alN0vvpi_txVBGJ8P8imouU-s6Bo-x8H4SBmjyP13Y2doU_wJ24PuRX_3NROLB0WWOb9Yc0BsV2AefdrCzumdH908Y2zZSIkVL5xoY6aSeQQzURrOK1INSHWBwEh5gdg9lz-AEEFqW0Yi_5T1f3j2uqV6jn2GCCMAvn0cE0emgaaf1YGBvJpcyeP421r7yGaxxOXRzenWNBGxtslxorE28cHyNm6uRXlW1wV51i_QdyQ_buJId9cfr-tJgcPMiQgIybYTpHyDODfK3tMq0htNfGQrSP0Zgfb6dcqHwsHTxvY_vvYcO2ZRggAchfwFlULPAb8OXZ4oXyfsspYNlzKEK_oL8VVBBfT4IEQpH5sfDc8rmBdeP-xZWTKS5IK1727YnsQ_XR5EkJ2rLJmvobfzPRfICYUrza-PIzVPKM1W1a4zygsycUlrGTsq_6PSBhulLfkhcRCnGAskOGtqaJdIMm1c0R070tquEmCidVLNzsQTPx07K_FY3E0i5r2ihZwttPbbDm7kjJlRp1q5G7jezasFDW6RbNldBjVGzMb_s3U9tQIn-0Qr6gRLJB5QBLO5mBM7Hj_igxjTZ10e5I0fTDHkVCyTyIm_gRyabZlSe-XKbTAIjzC7l4QQzvt7OayzmDpfr3bf7w4MiLdXCoRo458-T1eiLMEPZ7aMUIWqRJ9fdvj0F945QdnE9ffMSkXzFhOqXYjt3MhFV29Pp6SiJP2dQXoylWZmC9KiYgGAlaCc1SaYoCLW3qIbBtDLEPzSHy9rYaThJzKl0iRlJ7gDOZDLrLGMAyPC_827Wycf0OhTwxzGgHQgQIymn8VyGy51gzVXfqyAnLIzfv9X2MDHEsVaj1XhclOV]--></g></svg>