<svg xmlns="http://www.w3.org/2000/svg" xmlns:xlink="http://www.w3.org/1999/xlink" contentStyleType="text/css" data-diagram-type="SEQUENCE" height="1426px" preserveAspectRatio="none" style="width:1062px;height:1426px;background:#F5F5F5;" version="1.1" viewBox="0 0 1062 1426" width="1062px" zoomAndPan="magnify"><?plantuml 1.2026.7beta1?><defs><linearGradient id="gb2p18ng9a5nc0" x1="50%" x2="50%" y1="0%" y2="100%"><stop offset="0%" stop-color="#E0E5F0"/><stop offset="100%" stop-color="#D1D9E6"/></linearGradient><filter height="300%" id="fb2p18ng9a5nc" width="300%" x="-1" y="-1"><feGaussianBlur result="blurOut" stdDeviation="2"/><feColorMatrix in="blurOut" result="blurOut2" type="matrix" values="0 0 0 0 0 0 0 0 0 0 0 0 0 0 0 0 0 0 .4 0"/><feOffset dx="4" dy="4" in="blurOut2" result="blurOut3"/><feBlend in="SourceGraphic" in2="blurOut3" mode="normal"/></filter></defs><g><rect fill="#F5F5F5" height="1426" style="stroke:none;stroke-width:1;" width="1062" x="0" y="0"/><g class="title" data-source-line="1"><text fill="#000000" font-family="'Arial'" font-size="14" font-weight="700" lengthAdjust="spacing" textLength="539.0137" x="258.1401" y="27.9951">Geplante Abgabe f&#252;r bestehende Medikationsplaneintr&#228;ge erstellen</text><text fill="#000000" font-family="'Arial'" font-size="14" font-weight="700" lengthAdjust="spacing" textLength="397.8037" x="328.7451" y="44.292">Variante A: Vorab-Ermittlung des GroupIdentifiers</text></g><rect fill="#9FBAC4" height="1359.8203" rx="5" ry="5" style="stroke:#181818;stroke-width:0.5;" width="74.0586" x="166" y="59.5938"/><text fill="#000000" font-family="'Arial'" font-size="14" font-weight="700" lengthAdjust="spacing" textLength="4.874" x="169" y="72.5889">&#160;</text><text fill="#000000" font-family="'Arial'" font-size="14" font-weight="700" lengthAdjust="spacing" textLength="48.5625" x="178.748" y="88.8857">GDA 1</text><rect fill="#C48778" height="1359.8203" rx="5" ry="5" style="stroke:#181818;stroke-width:0.5;" width="256.9268" x="398.4536" y="59.5938"/><text fill="#000000" font-family="'Arial'" font-size="14" font-weight="700" lengthAdjust="spacing" textLength="4.874" x="401.4536" y="72.5889">&#160;</text><text fill="#000000" font-family="'Arial'" font-size="14" font-weight="700" lengthAdjust="spacing" textLength="182.6904" x="435.5718" y="88.8857">e-Med Fachanwendung</text><rect fill="#CBB272" height="1359.8203" rx="5" ry="5" style="stroke:#181818;stroke-width:0.5;" width="105.1826" x="822.5098" y="59.5938"/><text fill="#000000" font-family="'Arial'" font-size="14" font-weight="700" lengthAdjust="spacing" textLength="4.874" x="825.5098" y="72.5889">&#160;</text><text fill="#000000" font-family="'Arial'" font-size="14" font-weight="700" lengthAdjust="spacing" textLength="69.9385" x="845.0059" y="88.8857">e-Rezept</text><g><title>GDA 1</title><rect fill="#FFFFFF" height="1063.0391" style="stroke:#181818;stroke-width:1;" width="10" x="198.0293" y="182.4844"/></g><g><title>e-Med FA</title><rect fill="#FFFFFF" height="126.8594" style="stroke:#181818;stroke-width:1;" width="10" x="521.917" y="395.3984"/></g><g><title>e-Med FA</title><rect fill="#FFFFFF" height="301.2031" style="stroke:#181818;stroke-width:1;" width="10" x="521.917" y="915.1875"/></g><g><title>e-Rezept</title><rect fill="#FFFFFF" height="142.4531" style="stroke:#181818;stroke-width:1;" width="10" x="870.1011" y="649.875"/></g><rect fill="none" height="713.9688" rx="5" ry="5" style="stroke:#111827;stroke-width:2;" width="1037.2939" x="9" y="609.1484"/><rect fill="none" height="164.5859" rx="5" ry="5" style="stroke:#111827;stroke-width:2;" width="904.2729" x="19" y="704.1719"/><rect fill="none" height="330.3359" rx="5" ry="5" style="stroke:#111827;stroke-width:2;" width="878.5464" x="157.7476" y="985.7813"/><rect fill="none" height="180.8828" rx="5" ry="5" style="stroke:#111827;stroke-width:2;" width="858.5464" x="167.7476" y="1128.2344"/><g class="participant-lifeline" data-entity-uid="part1" data-qualified-name="GDA_1" data-source-line="43" id="part1-lifeline"><g><title>GDA 1</title><rect fill="#000000" fill-opacity="0.00000" height="1167.6328" width="8" x="199.0293" y="172.4844"/><line style="stroke:#181818;stroke-width:0.5;stroke-dasharray:5,5;" x1="202.7476" x2="202.7476" y1="172.4844" y2="1340.1172"/></g></g><g class="participant-lifeline" data-entity-uid="part2" data-qualified-name="eMed_FA" data-source-line="47" id="part2-lifeline"><g><title>e-Med FA</title><rect fill="#000000" fill-opacity="0.00000" height="1167.6328" width="8" x="522.917" y="172.4844"/><line style="stroke:#181818;stroke-width:0.5;stroke-dasharray:5,5;" x1="526.2549" x2="526.2549" y1="172.4844" y2="1340.1172"/></g></g><g class="participant-lifeline" data-entity-uid="part3" data-qualified-name="e_Rezept" data-source-line="51" id="part3-lifeline"><g><title>e-Rezept</title><rect fill="#000000" fill-opacity="0.00000" height="1167.6328" width="8" x="871.1011" y="172.4844"/><line style="stroke:#181818;stroke-width:0.5;stroke-dasharray:5,5;" x1="874.9292" x2="874.9292" y1="172.4844" y2="1340.1172"/></g></g><g class="participant participant-head" data-entity-uid="part1" data-qualified-name="GDA_1" data-source-line="43" id="part1-head"><text fill="#000000" font-family="'Arial'" font-size="14" lengthAdjust="spacing" textLength="44.5635" x="177.7476" y="169.1826">GDA 1</text><ellipse cx="203.0293" cy="104.6875" fill="#E2E2F0" rx="8" ry="8" style="stroke:#181818;stroke-width:0.5;"/><path d="M203.0293,112.6875 L203.0293,139.6875 M190.0293,120.6875 L216.0293,120.6875 M203.0293,139.6875 L190.0293,154.6875 M203.0293,139.6875 L216.0293,154.6875" fill="none" style="stroke:#181818;stroke-width:0.5;"/></g><g class="participant participant-tail" data-entity-uid="part1" data-qualified-name="GDA_1" data-source-line="43" id="part1-tail"><text fill="#000000" font-family="'Arial'" font-size="14" lengthAdjust="spacing" textLength="44.5635" x="177.7476" y="1352.1123">GDA 1</text><ellipse cx="203.0293" cy="1363.9141" fill="#E2E2F0" rx="8" ry="8" style="stroke:#181818;stroke-width:0.5;"/><path d="M203.0293,1371.9141 L203.0293,1398.9141 M190.0293,1379.9141 L216.0293,1379.9141 M203.0293,1398.9141 L190.0293,1413.9141 M203.0293,1398.9141 L216.0293,1413.9141" fill="none" style="stroke:#181818;stroke-width:0.5;"/></g><g class="participant participant-head" data-entity-uid="part2" data-qualified-name="eMed_FA" data-source-line="47" id="part2-head"><rect fill="#FFFFFF" height="30.2969" rx="5" ry="5" style="stroke:#555555;stroke-width:0.5;" width="79.3242" x="487.2549" y="141.1875"/><text fill="#000000" font-family="'Arial'" font-size="14" lengthAdjust="spacing" textLength="65.3242" x="494.2549" y="161.1826">e-Med FA</text></g><g class="participant participant-tail" data-entity-uid="part2" data-qualified-name="eMed_FA" data-source-line="47" id="part2-tail"><rect fill="#FFFFFF" height="30.2969" rx="5" ry="5" style="stroke:#555555;stroke-width:0.5;" width="79.3242" x="487.2549" y="1339.1172"/><text fill="#000000" font-family="'Arial'" font-size="14" lengthAdjust="spacing" textLength="65.3242" x="494.2549" y="1359.1123">e-Med FA</text></g><g class="participant participant-head" data-entity-uid="part3" data-qualified-name="e_Rezept" data-source-line="51" id="part3-head"><rect fill="#FFFFFF" height="30.2969" rx="5" ry="5" style="stroke:#555555;stroke-width:0.5;" width="76.3438" x="836.9292" y="141.1875"/><text fill="#000000" font-family="'Arial'" font-size="14" lengthAdjust="spacing" textLength="62.3438" x="843.9292" y="161.1826">e-Rezept</text></g><g class="participant participant-tail" data-entity-uid="part3" data-qualified-name="e_Rezept" data-source-line="51" id="part3-tail"><rect fill="#FFFFFF" height="30.2969" rx="5" ry="5" style="stroke:#555555;stroke-width:0.5;" width="76.3438" x="836.9292" y="1339.1172"/><text fill="#000000" font-family="'Arial'" font-size="14" lengthAdjust="spacing" textLength="62.3438" x="843.9292" y="1359.1123">e-Rezept</text></g><g><title>GDA 1</title><rect fill="#FFFFFF" height="1063.0391" style="stroke:#181818;stroke-width:1;" width="10" x="198.0293" y="182.4844"/></g><g><title>e-Med FA</title><rect fill="#FFFFFF" height="126.8594" style="stroke:#181818;stroke-width:1;" width="10" x="521.917" y="395.3984"/></g><g><title>e-Med FA</title><rect fill="#FFFFFF" height="301.2031" style="stroke:#181818;stroke-width:1;" width="10" x="521.917" y="915.1875"/></g><g><title>e-Rezept</title><rect fill="#FFFFFF" height="142.4531" style="stroke:#181818;stroke-width:1;" width="10" x="870.1011" y="649.875"/></g><rect fill="#EEEEEE" height="3" rx="5" ry="5" style="stroke:#EEEEEE;stroke-width:1;" width="1056.2939" x="0" y="203.6328"/><line style="stroke:#000000;stroke-width:1;" x1="0" x2="1056.2939" y1="203.6328" y2="203.6328"/><line style="stroke:#000000;stroke-width:1;" x1="0" x2="1056.2939" y1="206.6328" y2="206.6328"/><rect fill="#EEEEEE" height="24.2969" rx="5" ry="5" style="stroke:#000000;stroke-width:2;" width="216.2891" x="420.0024" y="192.4844"/><text fill="#000000" font-family="'Arial'" font-size="14" font-weight="700" lengthAdjust="spacing" textLength="197.415" x="426.0024" y="209.4795">Medikationsplan abrufen</text><rect fill="none" height="42.5938" rx="5" ry="5" style="stroke:#000000;stroke-width:1.5;" width="394.8315" x="174.7476" y="226.7813"/><path d="M179.7476,226.7813 L241.7476,226.7813 L241.7476,234.7813 L231.7476,244.7813 L174.7476,244.7813 L174.7476,231.7813 A5,5 0 0 1 179.7476,226.7813" fill="#EEEEEE" style="stroke:#000000;stroke-width:2;"/><text fill="#000000" font-family="'Arial'" font-size="14" font-weight="700" lengthAdjust="spacing" textLength="22.4902" x="187.7476" y="241.7764">ref</text><a href="interactions.html#sequenzdiagramm-plan-read" target="_top" title="interactions.html#sequenzdiagramm-plan-read" xlink:actuate="onRequest" xlink:href="interactions.html#sequenzdiagramm-plan-read" xlink:show="new" xlink:title="interactions.html#sequenzdiagramm-plan-read" xlink:type="simple"><text fill="#0000EE" font-family="'Arial'" font-size="14" lengthAdjust="spacing" textLength="70.6426" x="336.842" y="261.7764">Plan-Read</text></a><path d="M73,284.375 L73,316.375 A5,5 0 0 0 78,321.375 L323,321.375 A5,5 0 0 0 328,316.375 L328,289.375 L318,279.375 L78,279.375 A5,5 0 0 0 73,284.375" fill="url(#gb2p18ng9a5nc0)" filter="url(#fb2p18ng9a5nc)" style="stroke:#8B95A5;stroke-width:1;"/><path d="M318,279.375 L318,286.875 A2.5,2.5 0 0 0 320.5,289.375 L328,289.375 L318,279.375" fill="url(#gb2p18ng9a5nc0)" style="stroke:#8B95A5;stroke-width:1;"/><text fill="#111827" font-family="'Arial'" font-size="14" lengthAdjust="spacing" textLength="195.8018" x="79" y="297.3701">GDA erh&#228;lt Medikationsplan</text><text fill="#111827" font-family="'Arial'" font-size="14" lengthAdjust="spacing" textLength="234.377" x="79" y="313.667">(Auslieferungs-Collection-Bundle)</text><rect fill="#EEEEEE" height="3" rx="5" ry="5" style="stroke:#EEEEEE;stroke-width:1;" width="1056.2939" x="0" y="351.1172"/><line style="stroke:#000000;stroke-width:1;" x1="0" x2="1056.2939" y1="351.1172" y2="351.1172"/><line style="stroke:#000000;stroke-width:1;" x1="0" x2="1056.2939" y1="354.1172" y2="354.1172"/><rect fill="#EEEEEE" height="24.2969" rx="5" ry="5" style="stroke:#000000;stroke-width:2;" width="379.3398" x="338.4771" y="339.9688"/><text fill="#000000" font-family="'Arial'" font-size="14" font-style="italic" font-weight="700" lengthAdjust="spacing" textLength="146.0908" x="344.4771" y="356.9639">Geplante Abgaben</text><text fill="#000000" font-family="'Arial'" font-size="14" font-weight="700" lengthAdjust="spacing" textLength="209.501" x="495.4419" y="356.9639">vorbereiten und schreiben</text><g class="message" data-entity-1="part1" data-entity-2="part2" data-source-line="71" id="msg1"><polygon fill="#111827" points="509.917,391.3984,519.917,395.3984,509.917,399.3984,513.917,395.3984" style="stroke:#111827;stroke-width:1;stroke-linejoin:miter;stroke-miterlimit:10;"/><line style="stroke:#111827;stroke-width:1;" x1="208.0293" x2="515.917" y1="395.3984" y2="395.3984"/><text fill="#000000" font-family="'Arial'" font-size="13" font-weight="700" lengthAdjust="spacing" textLength="9.0454" x="215.0293" y="390.3325">1</text><text fill="#000000" font-family="'Arial'" font-size="13" lengthAdjust="spacing" textLength="189.2935" x="228.0747" y="390.3325">POST $groupidentifier-create&#8203;</text></g><path d="M39,413.3984 L39,445.3984 A5,5 0 0 0 44,450.3984 L358,450.3984 A5,5 0 0 0 363,445.3984 L363,418.3984 L353,408.3984 L44,408.3984 A5,5 0 0 0 39,413.3984" fill="url(#gb2p18ng9a5nc0)" filter="url(#fb2p18ng9a5nc)" style="stroke:#8B95A5;stroke-width:1;"/><path d="M353,408.3984 L353,415.8984 A2.5,2.5 0 0 0 355.5,418.3984 L363,418.3984 L353,408.3984" fill="url(#gb2p18ng9a5nc0)" style="stroke:#8B95A5;stroke-width:1;"/><text fill="#111827" font-family="'Arial'" font-size="14" lengthAdjust="spacing" textLength="303.9668" x="45" y="426.3936">e-Med groupIdentifier f&#252;r "Rezeptklammer"</text><text fill="#111827" font-family="'Arial'" font-size="14" lengthAdjust="spacing" textLength="68.8311" x="45" y="442.6904">anfordern</text><g class="message" data-entity-1="part2" data-entity-2="part2" data-source-line="79" id="msg2"><line style="stroke:#111827;stroke-width:1;" x1="531.917" x2="573.917" y1="480.125" y2="480.125"/><line style="stroke:#111827;stroke-width:1;" x1="573.917" x2="573.917" y1="480.125" y2="493.125"/><line style="stroke:#111827;stroke-width:1;" x1="532.917" x2="573.917" y1="493.125" y2="493.125"/><polygon fill="#111827" points="542.917,489.125,532.917,493.125,542.917,497.125,538.917,493.125" style="stroke:#111827;stroke-width:1;stroke-linejoin:miter;stroke-miterlimit:10;"/><text fill="#000000" font-family="'Arial'" font-size="13" font-weight="700" lengthAdjust="spacing" textLength="9.0454" x="538.917" y="475.0591">2</text><text fill="#000000" font-family="'Arial'" font-size="13" lengthAdjust="spacing" textLength="205.918" x="551.9624" y="475.0591">e-Med groupIdentifier erzeugen</text></g><g class="message" data-entity-1="part2" data-entity-2="part1" data-source-line="80" id="msg3"><line style="stroke:#111827;stroke-width:1;" x1="209.0293" x2="219.0293" y1="522.2578" y2="518.2578"/><line style="stroke:#111827;stroke-width:1;" x1="209.0293" x2="219.0293" y1="522.2578" y2="526.2578"/><line style="stroke:#111827;stroke-width:1;stroke-dasharray:2,2;" x1="208.0293" x2="525.917" y1="522.2578" y2="522.2578"/><text fill="#000000" font-family="'Arial'" font-size="13" font-weight="700" lengthAdjust="spacing" textLength="9.0454" x="225.0293" y="517.1919">3</text><text fill="#000000" font-family="'Arial'" font-size="13" lengthAdjust="spacing" textLength="140.8926" x="238.0747" y="517.1919">e-Med groupIdentifier</text></g><path d="M43,540.2578 L43,588.2578 A5,5 0 0 0 48,593.2578 L355,593.2578 A5,5 0 0 0 360,588.2578 L360,545.2578 L350,535.2578 L48,535.2578 A5,5 0 0 0 43,540.2578" fill="url(#gb2p18ng9a5nc0)" filter="url(#fb2p18ng9a5nc)" style="stroke:#8B95A5;stroke-width:1;"/><path d="M350,535.2578 L350,542.7578 A2.5,2.5 0 0 0 352.5,545.2578 L360,545.2578 L350,535.2578" fill="url(#gb2p18ng9a5nc0)" style="stroke:#8B95A5;stroke-width:1;"/><text fill="#111827" font-family="'Arial'" font-size="14" lengthAdjust="spacing" textLength="57.8799" x="49" y="553.2529">Erstellte</text><text fill="#111827" font-family="'Arial'" font-size="14" font-style="italic" lengthAdjust="spacing" textLength="130.5459" x="111.3301" y="553.2529">Geplante Abgaben</text><text fill="#111827" font-family="'Arial'" font-size="14" lengthAdjust="spacing" textLength="94.2471" x="246.3262" y="553.2529">referenzieren</text><text fill="#111827" font-family="'Arial'" font-size="14" lengthAdjust="spacing" textLength="287.0342" x="49" y="569.5498">zugeh&#246;rige Medikationsplaneintr&#228;ge und</text><text fill="#111827" font-family="'Arial'" font-size="14" lengthAdjust="spacing" textLength="223.4736" x="49" y="585.8467">enthalten e-Med groupIdentifier</text><path d="M14,609.1484 L80.373,609.1484 L80.373,617.4453 L70.373,627.4453 L9,627.4453 L9,614.1484 A5,5 0 0 1 14,609.1484" fill="#EEF2FF" style="stroke:#111827;stroke-width:1.5;"/><rect fill="none" height="713.9688" rx="5" ry="5" style="stroke:#111827;stroke-width:2;" width="1037.2939" x="9" y="609.1484"/><text fill="#000000" font-family="'Arial'" font-size="14" font-weight="700" lengthAdjust="spacing" textLength="26.373" x="24" y="623.1436">par</text><text fill="#000000" font-family="'Arial'" font-size="14" font-weight="700" lengthAdjust="spacing" textLength="168.1504" x="95.373" y="624.1436">[Erstellung e-Rezept]</text><g class="message" data-entity-1="part1" data-entity-2="part3" data-source-line="93" id="msg4"><line style="stroke:#111827;stroke-width:1;" x1="868.1011" x2="858.1011" y1="649.875" y2="645.875"/><line style="stroke:#111827;stroke-width:1;" x1="868.1011" x2="858.1011" y1="649.875" y2="653.875"/><line style="stroke:#111827;stroke-width:1;" x1="208.0293" x2="869.1011" y1="649.875" y2="649.875"/><text fill="#000000" font-family="'Arial'" font-size="13" font-weight="700" lengthAdjust="spacing" textLength="9.0454" x="215.0293" y="644.8091">4</text><text fill="#000000" font-family="'Arial'" font-size="13" lengthAdjust="spacing" textLength="169.5713" x="228.0747" y="644.8091">Trigger e-Rezept erstellen</text></g><path d="M89,667.875 L89,683.875 A5,5 0 0 0 94,688.875 L308,688.875 A5,5 0 0 0 313,683.875 L313,672.875 L303,662.875 L94,662.875 A5,5 0 0 0 89,667.875" fill="url(#gb2p18ng9a5nc0)" filter="url(#fb2p18ng9a5nc)" style="stroke:#8B95A5;stroke-width:1;"/><path d="M303,662.875 L303,670.375 A2.5,2.5 0 0 0 305.5,672.875 L313,672.875 L303,662.875" fill="url(#gb2p18ng9a5nc0)" style="stroke:#8B95A5;stroke-width:1;"/><text fill="#111827" font-family="'Arial'" font-size="14" lengthAdjust="spacing" textLength="203.6357" x="95" y="680.8701">Erstellung e-Rezept ausl&#246;sen</text><path d="M24,704.1719 L84.9385,704.1719 L84.9385,712.4688 L74.9385,722.4688 L19,722.4688 L19,709.1719 A5,5 0 0 1 24,704.1719" fill="#EEF2FF" style="stroke:#111827;stroke-width:1.5;"/><rect fill="none" height="164.5859" rx="5" ry="5" style="stroke:#111827;stroke-width:2;" width="904.2729" x="19" y="704.1719"/><text fill="#000000" font-family="'Arial'" font-size="14" font-weight="700" lengthAdjust="spacing" textLength="20.9385" x="34" y="718.167">alt</text><text fill="#000000" font-family="'Arial'" font-size="14" font-weight="700" lengthAdjust="spacing" textLength="236.0859" x="99.9385" y="719.167">[e-Rezept erfolgreich erstellt]</text><g class="message" data-entity-1="part3" data-entity-2="part1" data-source-line="100" id="msg5"><line style="stroke:#111827;stroke-width:1;" x1="209.0293" x2="219.0293" y1="744.8984" y2="740.8984"/><line style="stroke:#111827;stroke-width:1;" x1="209.0293" x2="219.0293" y1="744.8984" y2="748.8984"/><line style="stroke:#111827;stroke-width:1;stroke-dasharray:2,2;" x1="208.0293" x2="869.1011" y1="744.8984" y2="744.8984"/><text fill="#000000" font-family="'Arial'" font-size="13" font-weight="700" lengthAdjust="spacing" textLength="9.0454" x="225.0293" y="739.8325">5</text><text fill="#000000" font-family="'Arial'" font-size="13" lengthAdjust="spacing" textLength="18.7573" x="238.0747" y="739.8325">OK</text></g><line style="stroke:#111827;stroke-width:1;stroke-dasharray:2,2;" x1="19" x2="923.2729" y1="753.8984" y2="753.8984"/><text fill="#000000" font-family="'Arial'" font-size="14" font-weight="700" lengthAdjust="spacing" textLength="252.4375" x="24" y="766.8936">[Fehler bei Erstellung e-Rezept]</text><g class="message" data-entity-1="part3" data-entity-2="part1" data-source-line="103" id="msg6"><line style="stroke:#111827;stroke-width:1;" x1="209.0293" x2="219.0293" y1="792.3281" y2="788.3281"/><line style="stroke:#111827;stroke-width:1;" x1="209.0293" x2="219.0293" y1="792.3281" y2="796.3281"/><line style="stroke:#111827;stroke-width:1;stroke-dasharray:2,2;" x1="208.0293" x2="874.1011" y1="792.3281" y2="792.3281"/><text fill="#000000" font-family="'Arial'" font-size="13" font-weight="700" lengthAdjust="spacing" textLength="9.0454" x="225.0293" y="787.2622">6</text><text fill="#000000" font-family="'Arial'" font-size="13" lengthAdjust="spacing" textLength="40.6694" x="238.0747" y="787.2622">Fehler</text></g><g class="message" data-entity-1="part1" data-entity-2="part2" data-source-line="105" id="msg7"><line style="stroke:#111827;stroke-width:1;" x1="524.917" x2="514.917" y1="821.4609" y2="817.4609"/><line style="stroke:#111827;stroke-width:1;" x1="524.917" x2="514.917" y1="821.4609" y2="825.4609"/><line style="stroke:#111827;stroke-width:1;" x1="208.0293" x2="525.917" y1="821.4609" y2="821.4609"/><text fill="#000000" font-family="'Arial'" font-size="13" font-weight="700" lengthAdjust="spacing" textLength="9.0454" x="215.0293" y="816.395">7</text><text fill="#000000" font-family="'Arial'" font-size="13" lengthAdjust="spacing" textLength="148.4082" x="228.0747" y="816.395">POST $prescription-discard&#8203;</text></g><path d="M29,839.4609 L29,855.4609 A5,5 0 0 0 34,860.4609 L367,860.4609 A5,5 0 0 0 372,855.4609 L372,844.4609 L362,834.4609 L34,834.4609 A5,5 0 0 0 29,839.4609" fill="url(#gb2p18ng9a5nc0)" filter="url(#fb2p18ng9a5nc)" style="stroke:#8B95A5;stroke-width:1;"/><path d="M362,834.4609 L362,841.9609 A2.5,2.5 0 0 0 364.5,844.4609 L372,844.4609 L362,834.4609" fill="url(#gb2p18ng9a5nc0)" style="stroke:#8B95A5;stroke-width:1;"/><text fill="#111827" font-family="'Arial'" font-size="14" lengthAdjust="spacing" textLength="119.082" x="35" y="852.4561">Siehe Use Case "</text><text fill="#111827" font-family="'Arial'" font-size="14" font-style="italic" lengthAdjust="spacing" textLength="121.6729" x="154.082" y="852.4561">Geplante Abgabe</text><text fill="#111827" font-family="'Arial'" font-size="14" lengthAdjust="spacing" textLength="77.3281" x="280.2051" y="852.4561">verwerfen"</text><line style="stroke:#111827;stroke-width:1;stroke-dasharray:2,2;" x1="9" x2="1046.2939" y1="876.7578" y2="876.7578"/><text fill="#000000" font-family="'Arial'" font-size="14" font-weight="700" lengthAdjust="spacing" textLength="192.6436" x="14" y="889.7529">[gleichzeitige Erstellung</text><text fill="#000000" font-family="'Arial'" font-size="14" font-style="italic" font-weight="700" lengthAdjust="spacing" textLength="136.124" x="211.5176" y="889.7529">Geplante Abgabe</text><text fill="#000000" font-family="'Arial'" font-size="14" font-weight="700" lengthAdjust="spacing" textLength="6.3984" x="347.6416" y="889.7529">]</text><g class="message" data-entity-1="part1" data-entity-2="part2" data-source-line="116" id="msg8"><line style="stroke:#111827;stroke-width:1;" x1="519.917" x2="509.917" y1="915.1875" y2="911.1875"/><line style="stroke:#111827;stroke-width:1;" x1="519.917" x2="509.917" y1="915.1875" y2="919.1875"/><line style="stroke:#111827;stroke-width:1;" x1="208.0293" x2="520.917" y1="915.1875" y2="915.1875"/><text fill="#000000" font-family="'Arial'" font-size="13" font-weight="700" lengthAdjust="spacing" textLength="9.0454" x="215.0293" y="910.1216">8</text><text fill="#000000" font-family="'Arial'" font-size="13" lengthAdjust="spacing" textLength="133.7451" x="228.0747" y="910.1216">POST $prescription-write</text></g><path d="M45,933.1875 L45,965.1875 A5,5 0 0 0 50,970.1875 L351,970.1875 A5,5 0 0 0 356,965.1875 L356,938.1875 L346,928.1875 L50,928.1875 A5,5 0 0 0 45,933.1875" fill="url(#gb2p18ng9a5nc0)" filter="url(#fb2p18ng9a5nc)" style="stroke:#8B95A5;stroke-width:1;"/><path d="M346,928.1875 L346,935.6875 A2.5,2.5 0 0 0 348.5,938.1875 L356,938.1875 L346,928.1875" fill="url(#gb2p18ng9a5nc0)" style="stroke:#8B95A5;stroke-width:1;"/><text fill="#111827" font-family="'Arial'" font-size="14" lengthAdjust="spacing" textLength="239.9209" x="51" y="946.1826">Transaction Bundle mit Geplanten</text><text fill="#111827" font-family="'Arial'" font-size="14" lengthAdjust="spacing" textLength="290.2266" x="51" y="962.4795">Abgaben an Fachanwendung &#252;bermitteln</text><path d="M162.7476,985.7813 L223.686,985.7813 L223.686,994.0781 L213.686,1004.0781 L157.7476,1004.0781 L157.7476,990.7813 A5,5 0 0 1 162.7476,985.7813" fill="#EEF2FF" style="stroke:#111827;stroke-width:1.5;"/><rect fill="none" height="330.3359" rx="5" ry="5" style="stroke:#111827;stroke-width:2;" width="878.5464" x="157.7476" y="985.7813"/><text fill="#000000" font-family="'Arial'" font-size="14" font-weight="700" lengthAdjust="spacing" textLength="20.9385" x="172.7476" y="999.7764">alt</text><text fill="#000000" font-family="'Arial'" font-size="14" font-weight="700" lengthAdjust="spacing" textLength="6.3984" x="238.686" y="1000.7764">[</text><text fill="#000000" font-family="'Arial'" font-size="14" font-style="italic" font-weight="700" lengthAdjust="spacing" textLength="136.124" x="245.0845" y="1000.7764">Geplante Abgabe</text><text fill="#000000" font-family="'Arial'" font-size="14" font-weight="700" lengthAdjust="spacing" textLength="154.875" x="386.0825" y="1000.7764">erfolgreich erstellt]</text><g class="message" data-entity-1="part2" data-entity-2="part1" data-source-line="124" id="msg9"><line style="stroke:#111827;stroke-width:1;" x1="209.0293" x2="219.0293" y1="1026.5078" y2="1022.5078"/><line style="stroke:#111827;stroke-width:1;" x1="209.0293" x2="219.0293" y1="1026.5078" y2="1030.5078"/><line style="stroke:#111827;stroke-width:1;stroke-dasharray:2,2;" x1="208.0293" x2="520.917" y1="1026.5078" y2="1026.5078"/><text fill="#000000" font-family="'Arial'" font-size="13" font-weight="700" lengthAdjust="spacing" textLength="9.0454" x="225.0293" y="1021.4419">9</text><text fill="#000000" font-family="'Arial'" font-size="13" lengthAdjust="spacing" textLength="18.7573" x="238.0747" y="1021.4419">OK</text></g><path d="M389,1044.5078 L389,1060.5078 A5,5 0 0 0 394,1065.5078 L656,1065.5078 A5,5 0 0 0 661,1060.5078 L661,1049.5078 L651,1039.5078 L394,1039.5078 A5,5 0 0 0 389,1044.5078" fill="url(#gb2p18ng9a5nc0)" filter="url(#fb2p18ng9a5nc)" style="stroke:#8B95A5;stroke-width:1;"/><path d="M651,1039.5078 L651,1047.0078 A2.5,2.5 0 0 0 653.5,1049.5078 L661,1049.5078 L651,1039.5078" fill="url(#gb2p18ng9a5nc0)" style="stroke:#8B95A5;stroke-width:1;"/><text fill="#111827" font-family="'Arial'" font-size="14" lengthAdjust="spacing" textLength="251.6309" x="395" y="1057.5029">Geplante Abgabe 1 + 2 gespeichert</text><line style="stroke:#111827;stroke-width:1;stroke-dasharray:2,2;" x1="157.7476" x2="1036.2939" y1="1074.8047" y2="1074.8047"/><text fill="#000000" font-family="'Arial'" font-size="14" font-weight="700" lengthAdjust="spacing" textLength="171.2266" x="162.7476" y="1087.7998">[Fehler bei Erstellung</text><text fill="#000000" font-family="'Arial'" font-size="14" font-style="italic" font-weight="700" lengthAdjust="spacing" textLength="136.124" x="338.8481" y="1087.7998">Geplante Abgabe</text><text fill="#000000" font-family="'Arial'" font-size="14" font-weight="700" lengthAdjust="spacing" textLength="6.3984" x="474.9722" y="1087.7998">]</text><g class="message" data-entity-1="part2" data-entity-2="part1" data-source-line="131" id="msg10"><line style="stroke:#111827;stroke-width:1;" x1="209.0293" x2="219.0293" y1="1113.2344" y2="1109.2344"/><line style="stroke:#111827;stroke-width:1;" x1="209.0293" x2="219.0293" y1="1113.2344" y2="1117.2344"/><line style="stroke:#111827;stroke-width:1;stroke-dasharray:2,2;" x1="208.0293" x2="520.917" y1="1113.2344" y2="1113.2344"/><text fill="#000000" font-family="'Arial'" font-size="13" font-weight="700" lengthAdjust="spacing" textLength="18.0908" x="225.0293" y="1108.1685">10</text><text fill="#000000" font-family="'Arial'" font-size="13" lengthAdjust="spacing" textLength="40.6694" x="247.1201" y="1108.1685">Fehler</text></g><path d="M172.7476,1128.2344 L233.686,1128.2344 L233.686,1136.5313 L223.686,1146.5313 L167.7476,1146.5313 L167.7476,1133.2344 A5,5 0 0 1 172.7476,1128.2344" fill="#EEF2FF" style="stroke:#111827;stroke-width:1.5;"/><rect fill="none" height="180.8828" rx="5" ry="5" style="stroke:#111827;stroke-width:2;" width="858.5464" x="167.7476" y="1128.2344"/><text fill="#000000" font-family="'Arial'" font-size="14" font-weight="700" lengthAdjust="spacing" textLength="20.9385" x="182.7476" y="1142.2295">alt</text><text fill="#000000" font-family="'Arial'" font-size="14" font-weight="700" lengthAdjust="spacing" textLength="494.416" x="248.686" y="1143.2295">[Fehler in Geplanter Abgabe beheben und erneut &#252;bermitteln]</text><g class="message" data-entity-1="part1" data-entity-2="part2" data-source-line="134" id="msg11"><line style="stroke:#111827;stroke-width:1;" x1="519.917" x2="509.917" y1="1168.9609" y2="1164.9609"/><line style="stroke:#111827;stroke-width:1;" x1="519.917" x2="509.917" y1="1168.9609" y2="1172.9609"/><line style="stroke:#111827;stroke-width:1;" x1="208.0293" x2="520.917" y1="1168.9609" y2="1168.9609"/><text fill="#000000" font-family="'Arial'" font-size="13" font-weight="700" lengthAdjust="spacing" textLength="18.0908" x="215.0293" y="1163.895">11</text><text fill="#000000" font-family="'Arial'" font-size="13" lengthAdjust="spacing" textLength="133.7451" x="237.1201" y="1163.895">POST $prescription-write</text></g><line style="stroke:#111827;stroke-width:1;stroke-dasharray:2,2;" x1="167.7476" x2="1026.2939" y1="1177.9609" y2="1177.9609"/><text fill="#000000" font-family="'Arial'" font-size="14" font-weight="700" lengthAdjust="spacing" textLength="187.8652" x="172.7476" y="1190.9561">[Fehler nicht behebbar]</text><g class="message" data-entity-1="part2" data-entity-2="part1" data-source-line="137" id="msg12"><line style="stroke:#111827;stroke-width:1;" x1="209.0293" x2="219.0293" y1="1216.3906" y2="1212.3906"/><line style="stroke:#111827;stroke-width:1;" x1="209.0293" x2="219.0293" y1="1216.3906" y2="1220.3906"/><line style="stroke:#111827;stroke-width:1;stroke-dasharray:2,2;" x1="208.0293" x2="525.917" y1="1216.3906" y2="1216.3906"/><text fill="#000000" font-family="'Arial'" font-size="13" font-weight="700" lengthAdjust="spacing" textLength="18.0908" x="225.0293" y="1211.3247">12</text><text fill="#000000" font-family="'Arial'" font-size="13" lengthAdjust="spacing" textLength="40.6694" x="247.1201" y="1211.3247">Fehler</text></g><g class="message" data-entity-1="part1" data-entity-2="part3" data-source-line="139" id="msg13"><line style="stroke:#111827;stroke-width:1;" x1="873.1011" x2="863.1011" y1="1245.5234" y2="1241.5234"/><line style="stroke:#111827;stroke-width:1;" x1="873.1011" x2="863.1011" y1="1245.5234" y2="1249.5234"/><line style="stroke:#111827;stroke-width:1;" x1="203.0293" x2="874.1011" y1="1245.5234" y2="1245.5234"/><text fill="#000000" font-family="'Arial'" font-size="13" font-weight="700" lengthAdjust="spacing" textLength="18.0908" x="210.0293" y="1240.4575">13</text><text fill="#000000" font-family="'Arial'" font-size="13" lengthAdjust="spacing" textLength="308.2358" x="232.1201" y="1240.4575">e-Rezept von e-Med groupIdentifier entkoppeln</text></g><path d="M733,1263.5234 L733,1295.5234 A5,5 0 0 0 738,1300.5234 L1008,1300.5234 A5,5 0 0 0 1013,1295.5234 L1013,1268.5234 L1003,1258.5234 L738,1258.5234 A5,5 0 0 0 733,1263.5234" fill="url(#gb2p18ng9a5nc0)" filter="url(#fb2p18ng9a5nc)" style="stroke:#8B95A5;stroke-width:1;"/><path d="M1003,1258.5234 L1003,1266.0234 A2.5,2.5 0 0 0 1005.5,1268.5234 L1013,1268.5234 L1003,1258.5234" fill="url(#gb2p18ng9a5nc0)" style="stroke:#8B95A5;stroke-width:1;"/><text fill="#111827" font-family="'Arial'" font-size="14" lengthAdjust="spacing" textLength="259.2939" x="739" y="1276.5186">Siehe Use Case "e-Rezept von e-Med</text><text fill="#111827" font-family="'Arial'" font-size="14" lengthAdjust="spacing" textLength="193.7236" x="739" y="1292.8154">groupIdentifier entkoppeln"</text><?plantuml-src ZLRDRjms4BxpAGPo3orQjTvjNFyWNc2TscbHj35i9vSaC2Xf916hfLIAQxjR5EYzhv5do2ctVPC-IOUafALMsg0oB6Z9uSnyttmpaXQwG7Y9LS6bHfX76OyGqiqd1H7M6dEK2SAlc8W5rwAKjJ548RNQVCWGK95DKQ1y9zzm9PoFCtXJAXw5bsefj2vMCeC4QtYfobNrSu9IYrJGGSRgXP0LLtm9KQaIL2_AebHmS6WlVvV7YunEowInI8_CdsTHvpmf7mL5IdbHexVJ75CI5KnyfmccV5NegrBgt_WI8PXJ_aKmRd4hrWYJP-ER_RGz6raI7NyoW8jT07Y8H-bXU91CabFymLZu19n4fqVyg5kzoqMya5ZNCA6r6m_G2Vs-vabYW1ilNZQJoUHaUanhjnqrMgsG_UKd-DCV5Qf2o8K7uV9opE0roS0yO4Emppt-la8PEwJNN6aHYugKq8DqPAyTWq5PxTKt6X8ys6wBqzjeQPcQ0tEboiTTOknYdrkxD1Qnst2nlgSbA-SUniwpsnhK7DEfHUUTt8QVzYjpKJvv27hhOxoog7o2u9qavp_EOG8GmC5fIdrZME6n9bFQk9y0ho6m9W6ZpgQ-U_BEsWj3wdQuud7EvIFPcFPr5_byyUpa-DYehjeo3KW7xg_crdTpUZxk7iCRN6EbhQyuYgR7qrrVzus5S-P-UCxuIfTojOnGCNP-lZkOW4TgbQA4ytCoZRLuuDI15ZbJc4BvW0qHttHPdy7RjpJFK1bxylDjhfV5WHFrEX4y8zgNeV4UAkG9N9kd6tfw_vunPbjywvOPRb7bcm-57YJ7lfolwa9WYef8hKCgOO4sQ7X1CYdmAulJkBJWdelPpc2MpxyJCtWe5U57eGaedOCwpkbNrC1cp5KwdBKGp-3wrUqTV67KM8bk08SnuT7uxz__m127gsFM7zdklH2ueYmAuWLLmBXChIAbbtt7VPC2QzdsingFWMgDgmpbzaWucxcizXnX2GxY3G1TkZSLBUwZLPd2KCs5kGDRKnBvvgCIsMVUVqG_eTOvBqmnnhFRii8OIHsQJ4nVjG9d3A2jsgphWJEue-YPuQJjc-vzwzgwmTpOqzekQXYB1fnakFbOMo_RxCWZYTOBbPP5HiAAypQiYG3R5lKBy-eNksSSqki1hZ0lq7n2Y56uUzqqvwo1NzLxxw17L5_VolHihSD4r35N2GcxpMcC67ep2lgyWTUKxWjEjs0e3DTkg1w939I1oxibhCLB4c3CeiuAmzQQEjE8nWC-xdcdwkDW7fMmiGOA7yDqfxYitHm3DrA0Fi6wppjJxqRnGFEeF-CtdsYec0ysB7gwi22DClRGiryd8_rBCjafnnQEhUtEX-W4leOfP5XNnZygtI_1v-MsX_LzkJadBZ-3jt4gP9ULQjEAI3XHCtrfyE5AxzBtluJgQkiIyc18WgfTZ8Yhnjd-ZA6n69c2WpowoTAr-KCfzmrYgHTbLMtnU06SIzPiUDNq6tMinuPnEzFzyOEM0w_khl7SdVx_0m00?></g></svg>