<svg xmlns="http://www.w3.org/2000/svg" xmlns:xlink="http://www.w3.org/1999/xlink" version="1.1" data-diagram-type="SEQUENCE" style="width:689px;height:742px;background:#F5F5F5;" width="689px" height="742px" viewBox="0 0 689 742" zoomAndPan="magnify" preserveAspectRatio="none" contentStyleType="text/css"><?plantuml 1.2026.7beta6?><defs><linearGradient x1="50%" y1="0%" x2="50%" y2="100%" id="g13j59z90643ez0"><stop stop-color="#E0E5F0" offset="0%"/><stop stop-color="#D1D9E6" offset="100%"/></linearGradient></defs><g font-family="sans-serif" lengthAdjust="spacing"><rect x="0" y="0" width="689" height="742" fill="#F5F5F5" style="stroke:none;"/><g class="title" data-source-line="1"><text x="213.727" y="27.995" fill="#000" font-size="14" textLength="259.718" font-weight="700" font-family="'Arial'">Initial erstellter Medikationsplan</text></g><path d="M104.342,272.258 L664.171,272.258 A5,5 0 0 1 669.171,277.258 L669.171,576.719 L99.342,576.719 L99.342,277.258 A5,5 0 0 1 104.342,272.258" fill="#0F9ED5" fill-opacity="0.145"/><path d="M99.342,576.719 L669.171,576.719 L669.171,626.656 A5,5 0 0 1 664.171,631.656 L104.342,631.656 A5,5 0 0 1 99.342,626.656 L99.342,576.719" fill="#E97132" fill-opacity="0.208"/><g><title>GDA 1</title><rect x="111.842" y="123.594" width="8" height="532.063" fill="#000" fill-opacity="0"/><line x1="115.342" y1="123.594" x2="115.342" y2="655.656" style="stroke:#181818;stroke-width:0.5;stroke-dasharray:5,5;"/></g><g><title></title><rect x="110.342" y="152.727" width="10" height="478.93" fill="#156082" fill-opacity="0.502" style="stroke:#181818;stroke-width:1;"/></g><g><title>e-Med FA</title><rect x="372.53" y="123.594" width="8" height="532.063" fill="#000" fill-opacity="0"/><line x1="376.03" y1="123.594" x2="376.03" y2="655.656" style="stroke:#181818;stroke-width:0.5;stroke-dasharray:5,5;"/></g><g><title></title><rect x="371.03" y="152.727" width="10" height="404.992" fill="#E97232" fill-opacity="0.741" style="stroke:#181818;stroke-width:1;"/></g><text x="90.06" y="120.292" fill="#000" font-size="14" textLength="44.563" font-family="'Arial'">GDA 1</text><ellipse cx="115.342" cy="55.797" rx="8" ry="8" fill="#156082" fill-opacity="0.502" style="stroke:#181818;stroke-width:0.5;"/><path d="M115.342,63.797 L115.342,90.797 M102.342,71.797 L128.342,71.797 M115.342,90.797 L102.342,105.797 M115.342,90.797 L128.342,105.797" style="stroke:#181818;stroke-width:0.5;" fill="none"/><rect x="336.368" y="92.297" width="79.324" height="30.297" fill="#E97232" fill-opacity="0.741" style="stroke:#555;stroke-width:0.5;" rx="5" ry="5"/><text x="343.368" y="112.292" fill="#000" font-size="14" textLength="65.324" font-family="'Arial'">e-Med FA</text><text x="90.06" y="668.651" fill="#000" font-size="14" textLength="44.563" font-family="'Arial'">GDA 1</text><ellipse cx="115.342" cy="680.453" rx="8" ry="8" fill="#156082" fill-opacity="0.502" style="stroke:#181818;stroke-width:0.5;"/><path d="M115.342,688.453 L115.342,715.453 M102.342,696.453 L128.342,696.453 M115.342,715.453 L102.342,730.453 M115.342,715.453 L128.342,730.453" style="stroke:#181818;stroke-width:0.5;" fill="none"/><rect x="336.368" y="655.656" width="79.324" height="30.297" fill="#E97232" fill-opacity="0.741" style="stroke:#555;stroke-width:0.5;" rx="5" ry="5"/><text x="343.368" y="675.651" fill="#000" font-size="14" textLength="65.324" font-family="'Arial'">e-Med FA</text><polygon points="359.03,148.727,369.03,152.727,359.03,156.727,363.03,152.727" fill="#111827" style="stroke:#111827;stroke-width:1;stroke-linejoin:miter;stroke-miterlimit:10;"/><line x1="120.342" y1="152.727" x2="365.03" y2="152.727" style="stroke:#111827;stroke-width:1;"/><text x="127.342" y="147.661" fill="#000" font-size="13" font-weight="700" font-family="'Arial'">1</text><text x="140.387" y="147.661" fill="#000" font-size="13" textLength="108.989" font-family="'Arial'">POST $plan-read</text><path d="M15,170.727 L15,200.727 A5,5 0 0 0 20,205.727 L210,205.727 A5,5 0 0 0 215,200.727 L215,175.727 L205,165.727 L20,165.727 A5,5 0 0 0 15,170.727" style="stroke:#8B95A5;stroke-width:1;" fill="url(#g13j59z90643ez0)"/><path d="M205,165.727 L205,173.227 A2.5,2.5 0 0 0 207.5,175.727 L215,175.727 L205,165.727" style="stroke:#8B95A5;stroke-width:1;" fill="url(#g13j59z90643ez0)"/><text x="21" y="182.793" fill="#111827" font-size="13" textLength="179.683" font-family="'Arial'">Abruf des Medikationsplans</text><text x="21" y="197.926" fill="#111827" font-size="13" textLength="104.457" font-family="'Arial'">zur Bearbeitung</text><line x1="381.03" y1="247.258" x2="423.03" y2="247.258" style="stroke:#111827;stroke-width:1;"/><line x1="423.03" y1="247.258" x2="423.03" y2="260.258" style="stroke:#111827;stroke-width:1;"/><line x1="382.03" y1="260.258" x2="423.03" y2="260.258" style="stroke:#111827;stroke-width:1;"/><polygon points="392.03,256.258,382.03,260.258,392.03,264.258,388.03,260.258" fill="#111827" style="stroke:#111827;stroke-width:1;stroke-linejoin:miter;stroke-miterlimit:10;"/><text x="388.03" y="234.625" fill="#000" font-size="13" font-weight="700" font-family="'Arial'">2</text><text x="401.075" y="227.059" fill="#000" font-size="13" textLength="102.648" font-family="'Arial'">Existiert bereits</text><text x="401.075" y="242.192" fill="#000" font-size="13" textLength="137.198" font-family="'Arial'">ein Medikationsplan?</text><path d="M104.342,272.258 L163.784,272.258 L163.784,279.391 L153.784,289.391 L99.342,289.391 L99.342,277.258 A5,5 0 0 1 104.342,272.258" style="stroke:#111827;stroke-width:1.5;" fill="#EEF2FF"/><rect x="99.342" y="272.258" width="569.83" height="359.398" fill="none" style="stroke:#111827;stroke-width:2;" rx="5" ry="5"/><text x="114.342" y="285.325" fill="#000" font-size="13" textLength="19.443" font-weight="700" font-family="'Arial'">alt</text><text x="178.784" y="284.468" fill="#000" font-size="11" textLength="211.541" font-weight="700" font-family="'Arial'">[kein Medikationsplan persistiert]</text><line x1="99.342" y1="576.719" x2="669.171" y2="576.719" style="stroke:#111827;stroke-width:1;stroke-dasharray:2,2;"/><text x="104.342" y="588.929" fill="#000" font-size="11" textLength="181.333" font-weight="700" font-family="'Arial'">[Medikationsplan persistiert]</text><line x1="381.03" y1="335.656" x2="423.03" y2="335.656" style="stroke:#111827;stroke-width:1;"/><line x1="423.03" y1="335.656" x2="423.03" y2="348.656" style="stroke:#111827;stroke-width:1;"/><line x1="382.03" y1="348.656" x2="423.03" y2="348.656" style="stroke:#111827;stroke-width:1;"/><polygon points="392.03,344.656,382.03,348.656,392.03,352.656,388.03,348.656" fill="#111827" style="stroke:#111827;stroke-width:1;stroke-linejoin:miter;stroke-miterlimit:10;"/><text x="388.03" y="323.024" fill="#000" font-size="13" font-weight="700" font-family="'Arial'">3</text><text x="401.075" y="315.458" fill="#000" font-size="13" textLength="205.74" font-family="'Arial'">Erzeugt leeren Medikationsplan</text><text x="405.208" y="330.59" fill="#000" font-size="13" textLength="240.963" font-family="'Arial'">mit List.emptyReason = "notstarted"</text><line x1="381.03" y1="377.789" x2="423.03" y2="377.789" style="stroke:#111827;stroke-width:1;"/><line x1="423.03" y1="377.789" x2="423.03" y2="390.789" style="stroke:#111827;stroke-width:1;"/><line x1="382.03" y1="390.789" x2="423.03" y2="390.789" style="stroke:#111827;stroke-width:1;"/><polygon points="392.03,386.789,382.03,390.789,392.03,394.789,388.03,390.789" fill="#111827" style="stroke:#111827;stroke-width:1;stroke-linejoin:miter;stroke-miterlimit:10;"/><text x="388.03" y="372.723" fill="#000" font-size="13" font-weight="700" font-family="'Arial'">4</text><text x="401.075" y="372.723" fill="#000" font-size="13" textLength="175.938" font-family="'Arial'">Persistiert Medikationsplan</text><line x1="381.03" y1="435.055" x2="423.03" y2="435.055" style="stroke:#111827;stroke-width:1;"/><line x1="423.03" y1="435.055" x2="423.03" y2="448.055" style="stroke:#111827;stroke-width:1;"/><line x1="382.03" y1="448.055" x2="423.03" y2="448.055" style="stroke:#111827;stroke-width:1;"/><polygon points="392.03,444.055,382.03,448.055,392.03,452.055,388.03,448.055" fill="#111827" style="stroke:#111827;stroke-width:1;stroke-linejoin:miter;stroke-miterlimit:10;"/><text x="388.03" y="422.422" fill="#000" font-size="13" font-weight="700" font-family="'Arial'">5</text><text x="401.075" y="414.856" fill="#000" font-size="13" textLength="147.342" font-family="'Arial'">Erzeugt Auslieferungs-</text><text x="401.075" y="429.989" fill="#000" font-size="13" textLength="113.693" font-family="'Arial'">Collection Bundle</text><path d="M295.442,466.055 L295.442,496.055 A5,5 0 0 0 300.442,501.055 L451.442,501.055 A5,5 0 0 0 456.442,496.055 L456.442,471.055 L446.442,461.055 L300.442,461.055 A5,5 0 0 0 295.442,466.055" style="stroke:#8B95A5;stroke-width:1;" fill="url(#g13j59z90643ez0)"/><path d="M446.442,461.055 L446.442,468.555 A2.5,2.5 0 0 0 448.942,471.055 L456.442,471.055 L446.442,461.055" style="stroke:#8B95A5;stroke-width:1;" fill="url(#g13j59z90643ez0)"/><text x="301.442" y="478.122" fill="#111827" font-size="13" textLength="140.175" font-family="'Arial'">Keine Transformation</text><text x="301.442" y="493.254" fill="#111827" font-size="13" textLength="72.408" font-family="'Arial'">notwendig.</text><polygon points="131.342,553.719,121.342,557.719,131.342,561.719,127.342,557.719" fill="#111827" style="stroke:#111827;stroke-width:1;stroke-linejoin:miter;stroke-miterlimit:10;"/><line x1="125.342" y1="557.719" x2="370.03" y2="557.719" style="stroke:#111827;stroke-width:1;"/><text x="137.342" y="537.52" fill="#000" font-size="13" font-weight="700" font-family="'Arial'">6</text><text x="150.387" y="522.387" fill="#000" font-size="13" textLength="206.934" font-family="'Arial'">Auslieferungs-Collection Bundle</text><text x="150.387" y="537.52" fill="#000" font-size="13" textLength="213.643" font-family="'Arial'">(List.emptyReason = notstarted)</text><text x="150.387" y="552.653" fill="#000" font-size="13" textLength="47.398" font-family="'Arial'">+ ETag</text><path d="M287.714,606.523 L287.714,621.523 A5,5 0 0 0 292.714,626.523 L458.714,626.523 A5,5 0 0 0 463.714,621.523 L463.714,611.523 L453.714,601.523 L292.714,601.523 A5,5 0 0 0 287.714,606.523" style="stroke:#8B95A5;stroke-width:1;" fill="url(#g13j59z90643ez0)"/><path d="M453.714,601.523 L453.714,609.023 A2.5,2.5 0 0 0 456.214,611.523 L463.714,611.523 L453.714,601.523" style="stroke:#8B95A5;stroke-width:1;" fill="url(#g13j59z90643ez0)"/><text x="293.714" y="618.59" fill="#111827" font-size="13" textLength="155.632" font-family="'Arial'">Siehe Ablauf Plan-Read.</text><?plantuml-src VLLjRzem4FxkNt63ITiqCIMXG3DfcyAQRbMtWe1zcP0gWmzg4HncE-lBjF--IoZ5UUdC5pW_zppFtTd6IfiWN2Xf9Ky0jR6O91OrV4SXDzpAL9bTmXLZhyn6gXtNV0jyQLCzjVUKoM_Hf5jaxBYxIBL0_JbDKWrjhrZkBbzkrZhDb7X4h7hvnq6O6oxIMwdMiEA9GMVdCKqhykUxf09NF4liUQhi5TyYj29DvRHSpmvaAXyG_9Fc_ETyVxtVeKwasZY0E6u2_52Y-88r_yFqRio5o4iBl79yw3QjLootfogr27yOmB3QFlImj_8wRU6B4FivmcKwNOGztdkApcxaSgFG6F0fDd7QwT7lWxUSnMc5x_kdmO1YqyfW_heE3VxAK2ttBiTSMxcKEwviKs5bGEr05AiCga-cjdsOQcd3QJT0f7LwMosg29RxKeIQ59yszbfT2dqXvxjIZK_C-wtQl70L5DKvcKVv86_g2pgE-V7vFFescbn_EOkkVQ3LzdjzxpGuzHe0GG48-trlS5O3ZAFPHNmrond2_Z0ugG6YyGYArVREm_Yi5rO1yVVuxFey8W26Ww0RB4GLS3s9VyRZ6RINeZle1ZoibZ6wX996qAjIJ2QZIG68mu7V3Rfq0Og71lOTu0PQz0tybjiOjZiE6v0UhTnc3iKE_O3pg5KkWJWpcwfikq3Ds9wvy_6G-Hx6e-aCNkOlNaSZ5xa3-PlJvTj3NMLMNChqDpuwPD52PojwIqpryJJi8TCmHAuNA6scrWoLAEuqEmeSp9Vj7gAkn_XE6YjHMw0YYD3C5KfL5Vr4t8azTd_JW05wiio1ZD6XR9JJ3vYjBIH8QZMAkOAjjF2DMDxXTcVl9yXDgk03jAX0OsayA5hFK8yT-TeVpl_TH9b99AvGKpjDPwxeUYMupDDXIBSjGSe_3kWndMANc1-vcQQfh5AzBGJtq5iQYbo_otKFqobPA8RylY9SavshrmszEBRYpLozXNZ6rq3i0glZPumXlQsbE_7VeJLNEPLuWn0j4audSfoVPh8YIhKnHxmexHy0?></g></svg>