<svg xmlns="http://www.w3.org/2000/svg" xmlns:xlink="http://www.w3.org/1999/xlink" contentStyleType="text/css" data-diagram-type="SEQUENCE" height="1818px" preserveAspectRatio="none" style="width:1155px;height:1818px;background:#F5F5F5;" version="1.1" viewBox="0 0 1155 1818" width="1155px" zoomAndPan="magnify"><?plantuml 1.2026.4beta2?><defs><linearGradient id="g7nbzosf6cwh10" x1="50%" x2="50%" y1="0%" y2="100%"><stop offset="0%" stop-color="#E0E5F0"/><stop offset="100%" stop-color="#D1D9E6"/></linearGradient><filter height="300%" id="f7nbzosf6cwh1" width="300%" x="-1" y="-1"><feGaussianBlur result="blurOut" stdDeviation="2"/><feColorMatrix in="blurOut" result="blurOut2" type="matrix" values="0 0 0 0 0 0 0 0 0 0 0 0 0 0 0 0 0 0 .4 0"/><feOffset dx="4" dy="4" in="blurOut2" result="blurOut3"/><feBlend in="SourceGraphic" in2="blurOut3" mode="normal"/></filter></defs><g><rect fill="#F5F5F5" height="1818" style="stroke:none;stroke-width:1;" width="1155" x="0" y="0"/><g class="title" data-source-line="1"><text fill="#000000" font-family="'Arial'" font-size="14" font-weight="700" lengthAdjust="spacing" textLength="484.9551" x="331.6228" y="27.9951">Geplante Abgabe f&#252;r neue Medikationsplaneintr&#228;ge erstellen</text></g><rect fill="#9FBAC4" height="1767.7734" rx="5" ry="5" style="stroke:#181818;stroke-width:0.5;" width="74.0586" x="165" y="43.2969"/><text fill="#000000" font-family="'Arial'" font-size="14" font-weight="700" lengthAdjust="spacing" textLength="4.874" x="168" y="56.292">&#160;</text><text fill="#000000" font-family="'Arial'" font-size="14" font-weight="700" lengthAdjust="spacing" textLength="48.5625" x="177.748" y="72.5889">GDA 1</text><rect fill="#C48778" height="1767.7734" rx="5" ry="5" style="stroke:#181818;stroke-width:0.5;" width="256.9268" x="496.3936" y="43.2969"/><text fill="#000000" font-family="'Arial'" font-size="14" font-weight="700" lengthAdjust="spacing" textLength="4.874" x="499.3936" y="56.292">&#160;</text><text fill="#000000" font-family="'Arial'" font-size="14" font-weight="700" lengthAdjust="spacing" textLength="182.6904" x="533.5117" y="72.5889">e-Med Fachanwendung</text><rect fill="#CBB272" height="1767.7734" rx="5" ry="5" style="stroke:#181818;stroke-width:0.5;" width="105.1826" x="920.4497" y="43.2969"/><text fill="#000000" font-family="'Arial'" font-size="14" font-weight="700" lengthAdjust="spacing" textLength="4.874" x="923.4497" y="56.292">&#160;</text><text fill="#000000" font-family="'Arial'" font-size="14" font-weight="700" lengthAdjust="spacing" textLength="69.9385" x="942.9458" y="72.5889">e-Rezept</text><g><title>GDA 1</title><rect fill="#FFFFFF" height="1556.5859" style="stroke:#181818;stroke-width:1;" width="10" x="197.0293" y="166.1875"/></g><g><title>e-Med FA</title><rect fill="#FFFFFF" height="126.8594" style="stroke:#181818;stroke-width:1;" width="10" x="619.8569" y="643.4453"/></g><g><title>e-Med FA</title><rect fill="#FFFFFF" height="615.8906" style="stroke:#181818;stroke-width:1;" width="10" x="619.8569" y="1083.8828"/></g><g><title>e-Rezept</title><rect fill="#FFFFFF" height="184.5859" style="stroke:#181818;stroke-width:1;" width="10" x="968.041" y="855.0313"/></g><rect fill="none" height="805.4453" rx="5" ry="5" style="stroke:#111827;stroke-width:2;" width="1070.7813" x="68" y="909.3281"/><rect fill="none" height="177.5859" rx="5" ry="5" style="stroke:#111827;stroke-width:2;" width="703.189" x="166.7476" y="1196.6094"/><rect fill="none" height="177.5859" rx="5" ry="5" style="stroke:#111827;stroke-width:2;" width="703.189" x="166.7476" y="1530.1875"/><g class="participant-lifeline" data-entity-uid="part1" data-qualified-name="GDA_1" data-source-line="43" id="part1-lifeline"><g><title>GDA 1</title><rect fill="#000000" fill-opacity="0.00000" height="1575.5859" width="8" x="198.0293" y="156.1875"/><line style="stroke:#181818;stroke-width:0.5;stroke-dasharray:5,5;" x1="201.7476" x2="201.7476" y1="156.1875" y2="1731.7734"/></g></g><g class="participant-lifeline" data-entity-uid="part2" data-qualified-name="eMed_FA" data-source-line="47" id="part2-lifeline"><g><title>e-Med FA</title><rect fill="#000000" fill-opacity="0.00000" height="1575.5859" width="8" x="620.8569" y="156.1875"/><line style="stroke:#181818;stroke-width:0.5;stroke-dasharray:5,5;" x1="624.1948" x2="624.1948" y1="156.1875" y2="1731.7734"/></g></g><g class="participant-lifeline" data-entity-uid="part3" data-qualified-name="e_Rezept" data-source-line="51" id="part3-lifeline"><g><title>e-Rezept</title><rect fill="#000000" fill-opacity="0.00000" height="1575.5859" width="8" x="969.041" y="156.1875"/><line style="stroke:#181818;stroke-width:0.5;stroke-dasharray:5,5;" x1="972.8691" x2="972.8691" y1="156.1875" y2="1731.7734"/></g></g><g class="participant participant-head" data-entity-uid="part1" data-qualified-name="GDA_1" data-source-line="43" id="part1-head"><text fill="#000000" font-family="'Arial'" font-size="14" lengthAdjust="spacing" textLength="44.5635" x="176.7476" y="152.8857">GDA 1</text><ellipse cx="202.0293" cy="88.3906" fill="#E2E2F0" rx="8" ry="8" style="stroke:#181818;stroke-width:0.5;"/><path d="M202.0293,96.3906 L202.0293,123.3906 M189.0293,104.3906 L215.0293,104.3906 M202.0293,123.3906 L189.0293,138.3906 M202.0293,123.3906 L215.0293,138.3906" fill="none" style="stroke:#181818;stroke-width:0.5;"/></g><g class="participant participant-tail" data-entity-uid="part1" data-qualified-name="GDA_1" data-source-line="43" id="part1-tail"><text fill="#000000" font-family="'Arial'" font-size="14" lengthAdjust="spacing" textLength="44.5635" x="176.7476" y="1743.7686">GDA 1</text><ellipse cx="202.0293" cy="1755.5703" fill="#E2E2F0" rx="8" ry="8" style="stroke:#181818;stroke-width:0.5;"/><path d="M202.0293,1763.5703 L202.0293,1790.5703 M189.0293,1771.5703 L215.0293,1771.5703 M202.0293,1790.5703 L189.0293,1805.5703 M202.0293,1790.5703 L215.0293,1805.5703" fill="none" style="stroke:#181818;stroke-width:0.5;"/></g><g class="participant participant-head" data-entity-uid="part2" data-qualified-name="eMed_FA" data-source-line="47" id="part2-head"><rect fill="#FFFFFF" height="30.2969" rx="5" ry="5" style="stroke:#555555;stroke-width:0.5;" width="79.3242" x="585.1948" y="124.8906"/><text fill="#000000" font-family="'Arial'" font-size="14" lengthAdjust="spacing" textLength="65.3242" x="592.1948" y="144.8857">e-Med FA</text></g><g class="participant participant-tail" data-entity-uid="part2" data-qualified-name="eMed_FA" data-source-line="47" id="part2-tail"><rect fill="#FFFFFF" height="30.2969" rx="5" ry="5" style="stroke:#555555;stroke-width:0.5;" width="79.3242" x="585.1948" y="1730.7734"/><text fill="#000000" font-family="'Arial'" font-size="14" lengthAdjust="spacing" textLength="65.3242" x="592.1948" y="1750.7686">e-Med FA</text></g><g class="participant participant-head" data-entity-uid="part3" data-qualified-name="e_Rezept" data-source-line="51" id="part3-head"><rect fill="#FFFFFF" height="30.2969" rx="5" ry="5" style="stroke:#555555;stroke-width:0.5;" width="76.3438" x="934.8691" y="124.8906"/><text fill="#000000" font-family="'Arial'" font-size="14" lengthAdjust="spacing" textLength="62.3438" x="941.8691" y="144.8857">e-Rezept</text></g><g class="participant participant-tail" data-entity-uid="part3" data-qualified-name="e_Rezept" data-source-line="51" id="part3-tail"><rect fill="#FFFFFF" height="30.2969" rx="5" ry="5" style="stroke:#555555;stroke-width:0.5;" width="76.3438" x="934.8691" y="1730.7734"/><text fill="#000000" font-family="'Arial'" font-size="14" lengthAdjust="spacing" textLength="62.3438" x="941.8691" y="1750.7686">e-Rezept</text></g><g><title>GDA 1</title><rect fill="#FFFFFF" height="1556.5859" style="stroke:#181818;stroke-width:1;" width="10" x="197.0293" y="166.1875"/></g><g><title>e-Med FA</title><rect fill="#FFFFFF" height="126.8594" style="stroke:#181818;stroke-width:1;" width="10" x="619.8569" y="643.4453"/></g><g><title>e-Med FA</title><rect fill="#FFFFFF" height="615.8906" style="stroke:#181818;stroke-width:1;" width="10" x="619.8569" y="1083.8828"/></g><g><title>e-Rezept</title><rect fill="#FFFFFF" height="184.5859" style="stroke:#181818;stroke-width:1;" width="10" x="968.041" y="855.0313"/></g><rect fill="#EEEEEE" height="3" rx="5" ry="5" style="stroke:#EEEEEE;stroke-width:1;" width="1149.2007" x="0" y="187.3359"/><line style="stroke:#000000;stroke-width:1;" x1="0" x2="1149.2007" y1="187.3359" y2="187.3359"/><line style="stroke:#000000;stroke-width:1;" x1="0" x2="1149.2007" y1="190.3359" y2="190.3359"/><rect fill="#EEEEEE" height="24.2969" rx="5" ry="5" style="stroke:#000000;stroke-width:2;" width="513.7412" x="317.7297" y="176.1875"/><text fill="#000000" font-family="'Arial'" font-size="14" font-weight="700" lengthAdjust="spacing" textLength="494.8672" x="323.7297" y="193.1826">2 Medikationsplaneintr&#228;ge in den Medikationsplan hinzuf&#252;gen</text><rect fill="none" height="42.5938" rx="5" ry="5" style="stroke:#000000;stroke-width:1.5;" width="493.7715" x="173.7476" y="210.4844"/><path d="M178.7476,210.4844 L240.7476,210.4844 L240.7476,218.4844 L230.7476,228.4844 L173.7476,228.4844 L173.7476,215.4844 A5,5 0 0 1 178.7476,210.4844" fill="#EEEEEE" style="stroke:#000000;stroke-width:2;"/><text fill="#000000" font-family="'Arial'" font-size="14" font-weight="700" lengthAdjust="spacing" textLength="22.4902" x="186.7476" y="225.4795">ref</text><a href="Sub_UC_eMed_06.html#ablauf-2" target="_top" title="Sub_UC_eMed_06.html#ablauf-2" xlink:actuate="onRequest" xlink:href="Sub_UC_eMed_06.html#ablauf-2" xlink:show="new" xlink:title="Sub_UC_eMed_06.html#ablauf-2" xlink:type="simple"><text fill="#0000EE" font-family="'Arial'" font-size="14" lengthAdjust="spacing" textLength="383.2227" x="229.022" y="245.4795">Medikationsplaneintrag in Medikationsplan hinzuf&#252;gen</text></a><rect fill="#EEEEEE" height="3" rx="5" ry="5" style="stroke:#EEEEEE;stroke-width:1;" width="1149.2007" x="0" y="279.2266"/><line style="stroke:#000000;stroke-width:1;" x1="0" x2="1149.2007" y1="279.2266" y2="279.2266"/><line style="stroke:#000000;stroke-width:1;" x1="0" x2="1149.2007" y1="282.2266" y2="282.2266"/><rect fill="#EEEEEE" height="24.2969" rx="5" ry="5" style="stroke:#000000;stroke-width:2;" width="216.2891" x="466.4558" y="268.0781"/><text fill="#000000" font-family="'Arial'" font-size="14" font-weight="700" lengthAdjust="spacing" textLength="197.415" x="472.4558" y="285.0732">Medikationsplan abrufen</text><rect fill="none" height="42.5938" rx="5" ry="5" style="stroke:#000000;stroke-width:1.5;" width="493.7715" x="173.7476" y="302.375"/><path d="M178.7476,302.375 L240.7476,302.375 L240.7476,310.375 L230.7476,320.375 L173.7476,320.375 L173.7476,307.375 A5,5 0 0 1 178.7476,302.375" fill="#EEEEEE" style="stroke:#000000;stroke-width:2;"/><text fill="#000000" font-family="'Arial'" font-size="14" font-weight="700" lengthAdjust="spacing" textLength="22.4902" x="186.7476" y="317.3701">ref</text><a href="interactions.html#sequenzdiagramm-read-to-write-zugriff" target="_top" title="interactions.html#sequenzdiagramm-read-to-write-zugriff" xlink:actuate="onRequest" xlink:href="interactions.html#sequenzdiagramm-read-to-write-zugriff" xlink:show="new" xlink:title="interactions.html#sequenzdiagramm-read-to-write-zugriff" xlink:type="simple"><text fill="#0000EE" font-family="'Arial'" font-size="14" lengthAdjust="spacing" textLength="149.4609" x="345.9028" y="337.3701">Read-to-Write-Zugriff</text></a><path d="M43,359.9688 L43,407.9688 A5,5 0 0 0 48,412.9688 L351,412.9688 A5,5 0 0 0 356,407.9688 L356,364.9688 L346,354.9688 L48,354.9688 A5,5 0 0 0 43,359.9688" fill="url(#g7nbzosf6cwh10)" filter="url(#f7nbzosf6cwh1)" style="stroke:#8B95A5;stroke-width:1;"/><path d="M346,354.9688 L346,362.4688 A2.5,2.5 0 0 0 348.5,364.9688 L356,364.9688 L346,354.9688" fill="url(#g7nbzosf6cwh10)" style="stroke:#8B95A5;stroke-width:1;"/><text fill="#111827" font-family="'Arial'" font-size="14" lengthAdjust="spacing" textLength="208.0654" x="49" y="372.9639">GDA erh&#228;lt den aktualisierten</text><text fill="#111827" font-family="'Arial'" font-size="14" lengthAdjust="spacing" textLength="263.3613" x="49" y="389.2607">Medikationsplan im Collection Bundle</text><text fill="#111827" font-family="'Arial'" font-size="14" lengthAdjust="spacing" textLength="292.708" x="49" y="405.5576">(neuer Planeintrag hat Flag "unchanged")</text><rect fill="#EEEEEE" height="3" rx="5" ry="5" style="stroke:#EEEEEE;stroke-width:1;" width="1149.2007" x="0" y="443.0078"/><line style="stroke:#000000;stroke-width:1;" x1="0" x2="1149.2007" y1="443.0078" y2="443.0078"/><line style="stroke:#000000;stroke-width:1;" x1="0" x2="1149.2007" y1="446.0078" y2="446.0078"/><rect fill="#EEEEEE" height="24.2969" rx="5" ry="5" style="stroke:#000000;stroke-width:2;" width="379.3398" x="384.9304" y="431.8594"/><text fill="#000000" font-family="'Arial'" font-size="14" font-weight="700" lengthAdjust="spacing" textLength="360.4658" x="390.9304" y="448.8545">Geplante Abgaben vorbereiten und schreiben</text><g class="message" data-entity-1="part1" data-entity-2="part1" data-source-line="74" id="msg1"><line style="stroke:#111827;stroke-width:1;" x1="207.0293" x2="249.0293" y1="487.2891" y2="487.2891"/><line style="stroke:#111827;stroke-width:1;" x1="249.0293" x2="249.0293" y1="487.2891" y2="500.2891"/><line style="stroke:#111827;stroke-width:1;" x1="208.0293" x2="249.0293" y1="500.2891" y2="500.2891"/><polygon fill="#111827" points="218.0293,496.2891,208.0293,500.2891,218.0293,504.2891,214.0293,500.2891" style="stroke:#111827;stroke-width:1;"/><text fill="#000000" font-family="'Arial'" font-size="13" font-weight="700" lengthAdjust="spacing" textLength="9.0454" x="214.0293" y="482.2231">1</text><text fill="#000000" font-family="'Arial'" font-size="13" lengthAdjust="spacing" textLength="186.1895" x="227.0747" y="482.2231">Geplante Abgabe 1 erstellen</text></g><g class="message" data-entity-1="part1" data-entity-2="part1" data-source-line="75" id="msg2"><line style="stroke:#111827;stroke-width:1;" x1="207.0293" x2="249.0293" y1="529.4219" y2="529.4219"/><line style="stroke:#111827;stroke-width:1;" x1="249.0293" x2="249.0293" y1="529.4219" y2="542.4219"/><line style="stroke:#111827;stroke-width:1;" x1="208.0293" x2="249.0293" y1="542.4219" y2="542.4219"/><polygon fill="#111827" points="218.0293,538.4219,208.0293,542.4219,218.0293,546.4219,214.0293,542.4219" style="stroke:#111827;stroke-width:1;"/><text fill="#000000" font-family="'Arial'" font-size="13" font-weight="700" lengthAdjust="spacing" textLength="9.0454" x="214.0293" y="524.356">2</text><text fill="#000000" font-family="'Arial'" font-size="13" lengthAdjust="spacing" textLength="186.1895" x="227.0747" y="524.356">Geplante Abgabe 2 erstellen</text></g><path d="M5,560.4219 L5,608.4219 A5,5 0 0 0 10,613.4219 L392,613.4219 A5,5 0 0 0 397,608.4219 L397,565.4219 L387,555.4219 L10,555.4219 A5,5 0 0 0 5,560.4219" fill="url(#g7nbzosf6cwh10)" filter="url(#f7nbzosf6cwh1)" style="stroke:#8B95A5;stroke-width:1;"/><path d="M387,555.4219 L387,562.9219 A2.5,2.5 0 0 0 389.5,565.4219 L397,565.4219 L387,555.4219" fill="url(#g7nbzosf6cwh10)" style="stroke:#8B95A5;stroke-width:1;"/><text fill="#111827" font-family="'Arial'" font-size="14" lengthAdjust="spacing" textLength="309.8662" x="11" y="573.417">Die neu erstellten geplanten Abgaben 1 + 2</text><text fill="#111827" font-family="'Arial'" font-size="14" lengthAdjust="spacing" textLength="371.8613" x="11" y="589.7139">referenizieren bestehenden Medikationsplaneintr&#228;ge</text><text fill="#111827" font-family="'Arial'" font-size="14" lengthAdjust="spacing" textLength="207.9219" x="11" y="606.0107">(Medikationsplaneintrags-ids)</text><g class="message" data-entity-1="part1" data-entity-2="part2" data-source-line="84" id="msg3"><polygon fill="#111827" points="607.8569,639.4453,617.8569,643.4453,607.8569,647.4453,611.8569,643.4453" style="stroke:#111827;stroke-width:1;"/><line style="stroke:#111827;stroke-width:1;" x1="207.0293" x2="613.8569" y1="643.4453" y2="643.4453"/><text fill="#000000" font-family="'Arial'" font-size="13" font-weight="700" lengthAdjust="spacing" textLength="9.0454" x="214.0293" y="638.3794">3</text><text fill="#000000" font-family="'Arial'" font-size="13" lengthAdjust="spacing" textLength="208.9395" x="227.0747" y="638.3794">e-Med groupIdentifier anfordern</text></g><path d="M38,661.4453 L38,693.4453 A5,5 0 0 0 43,698.4453 L357,698.4453 A5,5 0 0 0 362,693.4453 L362,666.4453 L352,656.4453 L43,656.4453 A5,5 0 0 0 38,661.4453" fill="url(#g7nbzosf6cwh10)" filter="url(#f7nbzosf6cwh1)" style="stroke:#8B95A5;stroke-width:1;"/><path d="M352,656.4453 L352,663.9453 A2.5,2.5 0 0 0 354.5,666.4453 L362,666.4453 L352,656.4453" fill="url(#g7nbzosf6cwh10)" style="stroke:#8B95A5;stroke-width:1;"/><text fill="#111827" font-family="'Arial'" font-size="14" lengthAdjust="spacing" textLength="303.9668" x="44" y="674.4404">e-Med groupIdentifier f&#252;r "Rezeptklammer"</text><text fill="#111827" font-family="'Arial'" font-size="14" lengthAdjust="spacing" textLength="68.8311" x="44" y="690.7373">anfordern</text><g class="message" data-entity-1="part2" data-entity-2="part2" data-source-line="92" id="msg4"><line style="stroke:#111827;stroke-width:1;" x1="629.8569" x2="671.8569" y1="728.1719" y2="728.1719"/><line style="stroke:#111827;stroke-width:1;" x1="671.8569" x2="671.8569" y1="728.1719" y2="741.1719"/><line style="stroke:#111827;stroke-width:1;" x1="630.8569" x2="671.8569" y1="741.1719" y2="741.1719"/><polygon fill="#111827" points="640.8569,737.1719,630.8569,741.1719,640.8569,745.1719,636.8569,741.1719" style="stroke:#111827;stroke-width:1;"/><text fill="#000000" font-family="'Arial'" font-size="13" font-weight="700" lengthAdjust="spacing" textLength="9.0454" x="636.8569" y="723.106">4</text><text fill="#000000" font-family="'Arial'" font-size="13" lengthAdjust="spacing" textLength="205.918" x="649.9023" y="723.106">e-Med groupIdentifier erzeugen</text></g><g class="message" data-entity-1="part2" data-entity-2="part1" data-source-line="93" id="msg5"><line style="stroke:#111827;stroke-width:1;" x1="208.0293" x2="218.0293" y1="770.3047" y2="766.3047"/><line style="stroke:#111827;stroke-width:1;" x1="208.0293" x2="218.0293" y1="770.3047" y2="774.3047"/><line style="stroke:#111827;stroke-width:1;stroke-dasharray:2,2;" x1="207.0293" x2="623.8569" y1="770.3047" y2="770.3047"/><text fill="#000000" font-family="'Arial'" font-size="13" font-weight="700" lengthAdjust="spacing" textLength="9.0454" x="224.0293" y="765.2388">5</text><text fill="#000000" font-family="'Arial'" font-size="13" lengthAdjust="spacing" textLength="140.8926" x="237.0747" y="765.2388">e-Med groupIdentifier</text></g><path d="M79,788.3047 L79,820.3047 A5,5 0 0 0 84,825.3047 L316,825.3047 A5,5 0 0 0 321,820.3047 L321,793.3047 L311,783.3047 L84,783.3047 A5,5 0 0 0 79,788.3047" fill="url(#g7nbzosf6cwh10)" filter="url(#f7nbzosf6cwh1)" style="stroke:#8B95A5;stroke-width:1;"/><path d="M311,783.3047 L311,790.8047 A2.5,2.5 0 0 0 313.5,793.3047 L321,793.3047 L311,783.3047" fill="url(#g7nbzosf6cwh10)" style="stroke:#8B95A5;stroke-width:1;"/><text fill="#111827" font-family="'Arial'" font-size="14" lengthAdjust="spacing" textLength="158.0127" x="85" y="801.2998">Geplante Abgaben mit</text><text fill="#111827" font-family="'Arial'" font-size="14" lengthAdjust="spacing" textLength="221.1016" x="85" y="817.5967">e-Med groupIdentifier versehen</text><g class="message" data-entity-1="part1" data-entity-2="part3" data-source-line="101" id="msg6"><line style="stroke:#111827;stroke-width:1;" x1="966.041" x2="956.041" y1="855.0313" y2="851.0313"/><line style="stroke:#111827;stroke-width:1;" x1="966.041" x2="956.041" y1="855.0313" y2="859.0313"/><line style="stroke:#111827;stroke-width:1;" x1="207.0293" x2="967.041" y1="855.0313" y2="855.0313"/><text fill="#000000" font-family="'Arial'" font-size="13" font-weight="700" lengthAdjust="spacing" textLength="9.0454" x="214.0293" y="849.9653">6</text><text fill="#000000" font-family="'Arial'" font-size="13" lengthAdjust="spacing" textLength="169.5713" x="227.0747" y="849.9653">Trigger e-Rezept erstellen</text></g><path d="M88,873.0313 L88,889.0313 A5,5 0 0 0 93,894.0313 L307,894.0313 A5,5 0 0 0 312,889.0313 L312,878.0313 L302,868.0313 L93,868.0313 A5,5 0 0 0 88,873.0313" fill="url(#g7nbzosf6cwh10)" filter="url(#f7nbzosf6cwh1)" style="stroke:#8B95A5;stroke-width:1;"/><path d="M302,868.0313 L302,875.5313 A2.5,2.5 0 0 0 304.5,878.0313 L312,878.0313 L302,868.0313" fill="url(#g7nbzosf6cwh10)" style="stroke:#8B95A5;stroke-width:1;"/><text fill="#111827" font-family="'Arial'" font-size="14" lengthAdjust="spacing" textLength="203.6357" x="94" y="886.0264">Erstellung e-Rezept ausl&#246;sen</text><path d="M73,909.3281 L133.9385,909.3281 L133.9385,917.625 L123.9385,927.625 L68,927.625 L68,914.3281 A5,5 0 0 1 73,909.3281" fill="#EEF2FF" style="stroke:#111827;stroke-width:1.5;"/><rect fill="none" height="805.4453" rx="5" ry="5" style="stroke:#111827;stroke-width:2;" width="1070.7813" x="68" y="909.3281"/><text fill="#000000" font-family="'Arial'" font-size="14" font-weight="700" lengthAdjust="spacing" textLength="20.9385" x="83" y="923.3232">alt</text><text fill="#000000" font-family="'Arial'" font-size="14" font-weight="700" lengthAdjust="spacing" textLength="253.627" x="148.9385" y="924.3232">[Fehler bei Erstellung e_Rezept]</text><g class="message" data-entity-1="part3" data-entity-2="part1" data-source-line="109" id="msg7"><line style="stroke:#111827;stroke-width:1;" x1="208.0293" x2="218.0293" y1="950.0547" y2="946.0547"/><line style="stroke:#111827;stroke-width:1;" x1="208.0293" x2="218.0293" y1="950.0547" y2="954.0547"/><line style="stroke:#111827;stroke-width:1;stroke-dasharray:2,2;" x1="207.0293" x2="967.041" y1="950.0547" y2="950.0547"/><text fill="#000000" font-family="'Arial'" font-size="13" font-weight="700" lengthAdjust="spacing" textLength="9.0454" x="224.0293" y="944.9888">7</text><text fill="#000000" font-family="'Arial'" font-size="13" lengthAdjust="spacing" textLength="40.6694" x="237.0747" y="944.9888">Fehler</text></g><line style="stroke:#111827;stroke-width:1;stroke-dasharray:2,2;" x1="68" x2="1138.7813" y1="959.0547" y2="959.0547"/><text fill="#000000" font-family="'Arial'" font-size="14" font-weight="700" lengthAdjust="spacing" textLength="237.2754" x="73" y="972.0498">[e_Rezept erfolgreich erstellt]</text><g class="message" data-entity-1="part3" data-entity-2="part3" data-source-line="112" id="msg8"><line style="stroke:#111827;stroke-width:1;" x1="978.041" x2="1020.041" y1="997.4844" y2="997.4844"/><line style="stroke:#111827;stroke-width:1;" x1="1020.041" x2="1020.041" y1="997.4844" y2="1010.4844"/><line style="stroke:#111827;stroke-width:1;" x1="979.041" x2="1020.041" y1="1010.4844" y2="1010.4844"/><polygon fill="#111827" points="989.041,1006.4844,979.041,1010.4844,989.041,1014.4844,985.041,1010.4844" style="stroke:#111827;stroke-width:1;"/><text fill="#000000" font-family="'Arial'" font-size="13" font-weight="700" lengthAdjust="spacing" textLength="9.0454" x="985.041" y="992.4185">8</text><text fill="#000000" font-family="'Arial'" font-size="13" lengthAdjust="spacing" textLength="118.6948" x="998.0864" y="992.4185">e-Rezept erstellen</text></g><g class="message" data-entity-1="part3" data-entity-2="part1" data-source-line="113" id="msg9"><line style="stroke:#111827;stroke-width:1;" x1="208.0293" x2="218.0293" y1="1039.6172" y2="1035.6172"/><line style="stroke:#111827;stroke-width:1;" x1="208.0293" x2="218.0293" y1="1039.6172" y2="1043.6172"/><line style="stroke:#111827;stroke-width:1;stroke-dasharray:2,2;" x1="207.0293" x2="972.041" y1="1039.6172" y2="1039.6172"/><text fill="#000000" font-family="'Arial'" font-size="13" font-weight="700" lengthAdjust="spacing" textLength="9.0454" x="224.0293" y="1034.5513">9</text><text fill="#000000" font-family="'Arial'" font-size="13" lengthAdjust="spacing" textLength="18.7573" x="237.0747" y="1034.5513">OK</text></g><g class="message" data-entity-1="part1" data-entity-2="part2" data-source-line="115" id="msg10"><line style="stroke:#111827;stroke-width:1;" x1="617.8569" x2="607.8569" y1="1083.8828" y2="1079.8828"/><line style="stroke:#111827;stroke-width:1;" x1="617.8569" x2="607.8569" y1="1083.8828" y2="1087.8828"/><line style="stroke:#111827;stroke-width:1;" x1="207.0293" x2="618.8569" y1="1083.8828" y2="1083.8828"/><text fill="#000000" font-family="'Arial'" font-size="13" font-weight="700" lengthAdjust="spacing" textLength="18.0908" x="214.0293" y="1071.2505">10</text><text fill="#000000" font-family="'Arial'" font-size="13" lengthAdjust="spacing" textLength="162.8809" x="236.1201" y="1063.6841">POST MedicationRequest</text><text fill="#000000" font-family="'Arial'" font-size="13" lengthAdjust="spacing" textLength="131.3965" x="236.1201" y="1078.8169">(GeplanteAbgabe 1)</text></g><path d="M78,1101.8828 L78,1133.8828 A5,5 0 0 0 83,1138.8828 L317,1138.8828 A5,5 0 0 0 322,1133.8828 L322,1106.8828 L312,1096.8828 L83,1096.8828 A5,5 0 0 0 78,1101.8828" fill="url(#g7nbzosf6cwh10)" filter="url(#f7nbzosf6cwh1)" style="stroke:#8B95A5;stroke-width:1;"/><path d="M312,1096.8828 L312,1104.3828 A2.5,2.5 0 0 0 314.5,1106.8828 L322,1106.8828 L312,1096.8828" fill="url(#g7nbzosf6cwh10)" style="stroke:#8B95A5;stroke-width:1;"/><text fill="#111827" font-family="'Arial'" font-size="14" lengthAdjust="spacing" textLength="135.0303" x="84" y="1114.8779">Geplante Abgabe 1</text><text fill="#111827" font-family="'Arial'" font-size="14" lengthAdjust="spacing" textLength="223.4736" x="84" y="1131.1748">an Fachanwendung &#252;bermitteln</text><g class="message" data-entity-1="part2" data-entity-2="part2" data-source-line="123" id="msg11"><line style="stroke:#111827;stroke-width:1;" x1="629.8569" x2="671.8569" y1="1168.6094" y2="1168.6094"/><line style="stroke:#111827;stroke-width:1;" x1="671.8569" x2="671.8569" y1="1168.6094" y2="1181.6094"/><line style="stroke:#111827;stroke-width:1;" x1="630.8569" x2="671.8569" y1="1181.6094" y2="1181.6094"/><polygon fill="#111827" points="640.8569,1177.6094,630.8569,1181.6094,640.8569,1185.6094,636.8569,1181.6094" style="stroke:#111827;stroke-width:1;"/><text fill="#000000" font-family="'Arial'" font-size="13" font-weight="700" lengthAdjust="spacing" textLength="18.0908" x="636.8569" y="1163.5435">11</text><text fill="#000000" font-family="'Arial'" font-size="13" lengthAdjust="spacing" textLength="168.0352" x="658.9478" y="1163.5435">GeplanteAbgabe 1 pr&#252;fen</text></g><path d="M171.7476,1196.6094 L232.686,1196.6094 L232.686,1204.9063 L222.686,1214.9063 L166.7476,1214.9063 L166.7476,1201.6094 A5,5 0 0 1 171.7476,1196.6094" fill="#EEF2FF" style="stroke:#111827;stroke-width:1.5;"/><rect fill="none" height="177.5859" rx="5" ry="5" style="stroke:#111827;stroke-width:2;" width="703.189" x="166.7476" y="1196.6094"/><text fill="#000000" font-family="'Arial'" font-size="14" font-weight="700" lengthAdjust="spacing" textLength="20.9385" x="181.7476" y="1210.6045">alt</text><text fill="#000000" font-family="'Arial'" font-size="14" font-weight="700" lengthAdjust="spacing" textLength="59.0967" x="247.686" y="1211.6045">[g&#252;ltig]</text><g class="message" data-entity-1="part2" data-entity-2="part2" data-source-line="125" id="msg12"><line style="stroke:#111827;stroke-width:1;" x1="629.8569" x2="671.8569" y1="1237.3359" y2="1237.3359"/><line style="stroke:#111827;stroke-width:1;" x1="671.8569" x2="671.8569" y1="1237.3359" y2="1250.3359"/><line style="stroke:#111827;stroke-width:1;" x1="630.8569" x2="671.8569" y1="1250.3359" y2="1250.3359"/><polygon fill="#111827" points="640.8569,1246.3359,630.8569,1250.3359,640.8569,1254.3359,636.8569,1250.3359" style="stroke:#111827;stroke-width:1;"/><text fill="#000000" font-family="'Arial'" font-size="13" font-weight="700" lengthAdjust="spacing" textLength="18.0908" x="636.8569" y="1232.27">12</text><text fill="#000000" font-family="'Arial'" font-size="13" lengthAdjust="spacing" textLength="188.9888" x="658.9478" y="1232.27">GeplanteAbgabe 1 speichern</text></g><path d="M501,1268.3359 L501,1284.3359 A5,5 0 0 0 506,1289.3359 L739,1289.3359 A5,5 0 0 0 744,1284.3359 L744,1273.3359 L734,1263.3359 L506,1263.3359 A5,5 0 0 0 501,1268.3359" fill="url(#g7nbzosf6cwh10)" filter="url(#f7nbzosf6cwh1)" style="stroke:#8B95A5;stroke-width:1;"/><path d="M734,1263.3359 L734,1270.8359 A2.5,2.5 0 0 0 736.5,1273.3359 L744,1273.3359 L734,1263.3359" fill="url(#g7nbzosf6cwh10)" style="stroke:#8B95A5;stroke-width:1;"/><text fill="#111827" font-family="'Arial'" font-size="14" lengthAdjust="spacing" textLength="222.0928" x="507" y="1281.3311">Geplante Abgabe 1 gespeichert</text><g class="message" data-entity-1="part2" data-entity-2="part1" data-source-line="131" id="msg13"><line style="stroke:#111827;stroke-width:1;" x1="208.0293" x2="218.0293" y1="1318.7656" y2="1314.7656"/><line style="stroke:#111827;stroke-width:1;" x1="208.0293" x2="218.0293" y1="1318.7656" y2="1322.7656"/><line style="stroke:#111827;stroke-width:1;stroke-dasharray:2,2;" x1="207.0293" x2="618.8569" y1="1318.7656" y2="1318.7656"/><text fill="#000000" font-family="'Arial'" font-size="13" font-weight="700" lengthAdjust="spacing" textLength="18.0908" x="224.0293" y="1313.6997">13</text><text fill="#000000" font-family="'Arial'" font-size="13" lengthAdjust="spacing" textLength="18.7573" x="246.1201" y="1313.6997">OK</text></g><line style="stroke:#111827;stroke-width:1;stroke-dasharray:2,2;" x1="166.7476" x2="869.9365" y1="1327.7656" y2="1327.7656"/><text fill="#000000" font-family="'Arial'" font-size="14" font-weight="700" lengthAdjust="spacing" textLength="79.0303" x="171.7476" y="1340.7607">[ung&#252;ltig]</text><g class="message" data-entity-1="part2" data-entity-2="part1" data-source-line="133" id="msg14"><line style="stroke:#111827;stroke-width:1;" x1="208.0293" x2="218.0293" y1="1366.1953" y2="1362.1953"/><line style="stroke:#111827;stroke-width:1;" x1="208.0293" x2="218.0293" y1="1366.1953" y2="1370.1953"/><line style="stroke:#111827;stroke-width:1;stroke-dasharray:2,2;" x1="207.0293" x2="618.8569" y1="1366.1953" y2="1366.1953"/><text fill="#000000" font-family="'Arial'" font-size="13" font-weight="700" lengthAdjust="spacing" textLength="18.0908" x="224.0293" y="1361.1294">14</text><text fill="#000000" font-family="'Arial'" font-size="13" lengthAdjust="spacing" textLength="40.6694" x="246.1201" y="1361.1294">Fehler</text></g><g class="message" data-entity-1="part1" data-entity-2="part2" data-source-line="136" id="msg15"><line style="stroke:#111827;stroke-width:1;" x1="617.8569" x2="607.8569" y1="1417.4609" y2="1413.4609"/><line style="stroke:#111827;stroke-width:1;" x1="617.8569" x2="607.8569" y1="1417.4609" y2="1421.4609"/><line style="stroke:#111827;stroke-width:1;" x1="207.0293" x2="618.8569" y1="1417.4609" y2="1417.4609"/><text fill="#000000" font-family="'Arial'" font-size="13" font-weight="700" lengthAdjust="spacing" textLength="18.0908" x="214.0293" y="1404.8286">15</text><text fill="#000000" font-family="'Arial'" font-size="13" lengthAdjust="spacing" textLength="162.8809" x="236.1201" y="1397.2622">POST MedicationRequest</text><text fill="#000000" font-family="'Arial'" font-size="13" lengthAdjust="spacing" textLength="131.3965" x="236.1201" y="1412.395">(GeplanteAbgabe 2)</text></g><path d="M78,1435.4609 L78,1467.4609 A5,5 0 0 0 83,1472.4609 L317,1472.4609 A5,5 0 0 0 322,1467.4609 L322,1440.4609 L312,1430.4609 L83,1430.4609 A5,5 0 0 0 78,1435.4609" fill="url(#g7nbzosf6cwh10)" filter="url(#f7nbzosf6cwh1)" style="stroke:#8B95A5;stroke-width:1;"/><path d="M312,1430.4609 L312,1437.9609 A2.5,2.5 0 0 0 314.5,1440.4609 L322,1440.4609 L312,1430.4609" fill="url(#g7nbzosf6cwh10)" style="stroke:#8B95A5;stroke-width:1;"/><text fill="#111827" font-family="'Arial'" font-size="14" lengthAdjust="spacing" textLength="135.0303" x="84" y="1448.4561">Geplante Abgabe 2</text><text fill="#111827" font-family="'Arial'" font-size="14" lengthAdjust="spacing" textLength="223.4736" x="84" y="1464.7529">an Fachanwendung &#252;bermitteln</text><g class="message" data-entity-1="part2" data-entity-2="part2" data-source-line="142" id="msg16"><line style="stroke:#111827;stroke-width:1;" x1="629.8569" x2="671.8569" y1="1502.1875" y2="1502.1875"/><line style="stroke:#111827;stroke-width:1;" x1="671.8569" x2="671.8569" y1="1502.1875" y2="1515.1875"/><line style="stroke:#111827;stroke-width:1;" x1="630.8569" x2="671.8569" y1="1515.1875" y2="1515.1875"/><polygon fill="#111827" points="640.8569,1511.1875,630.8569,1515.1875,640.8569,1519.1875,636.8569,1515.1875" style="stroke:#111827;stroke-width:1;"/><text fill="#000000" font-family="'Arial'" font-size="13" font-weight="700" lengthAdjust="spacing" textLength="18.0908" x="636.8569" y="1497.1216">16</text><text fill="#000000" font-family="'Arial'" font-size="13" lengthAdjust="spacing" textLength="168.0352" x="658.9478" y="1497.1216">GeplanteAbgabe 2 pr&#252;fen</text></g><path d="M171.7476,1530.1875 L232.686,1530.1875 L232.686,1538.4844 L222.686,1548.4844 L166.7476,1548.4844 L166.7476,1535.1875 A5,5 0 0 1 171.7476,1530.1875" fill="#EEF2FF" style="stroke:#111827;stroke-width:1.5;"/><rect fill="none" height="177.5859" rx="5" ry="5" style="stroke:#111827;stroke-width:2;" width="703.189" x="166.7476" y="1530.1875"/><text fill="#000000" font-family="'Arial'" font-size="14" font-weight="700" lengthAdjust="spacing" textLength="20.9385" x="181.7476" y="1544.1826">alt</text><text fill="#000000" font-family="'Arial'" font-size="14" font-weight="700" lengthAdjust="spacing" textLength="59.0967" x="247.686" y="1545.1826">[g&#252;ltig]</text><g class="message" data-entity-1="part2" data-entity-2="part2" data-source-line="144" id="msg17"><line style="stroke:#111827;stroke-width:1;" x1="629.8569" x2="671.8569" y1="1570.9141" y2="1570.9141"/><line style="stroke:#111827;stroke-width:1;" x1="671.8569" x2="671.8569" y1="1570.9141" y2="1583.9141"/><line style="stroke:#111827;stroke-width:1;" x1="630.8569" x2="671.8569" y1="1583.9141" y2="1583.9141"/><polygon fill="#111827" points="640.8569,1579.9141,630.8569,1583.9141,640.8569,1587.9141,636.8569,1583.9141" style="stroke:#111827;stroke-width:1;"/><text fill="#000000" font-family="'Arial'" font-size="13" font-weight="700" lengthAdjust="spacing" textLength="18.0908" x="636.8569" y="1565.8481">17</text><text fill="#000000" font-family="'Arial'" font-size="13" lengthAdjust="spacing" textLength="188.9888" x="658.9478" y="1565.8481">GeplanteAbgabe 2 speichern</text></g><path d="M501,1601.9141 L501,1617.9141 A5,5 0 0 0 506,1622.9141 L739,1622.9141 A5,5 0 0 0 744,1617.9141 L744,1606.9141 L734,1596.9141 L506,1596.9141 A5,5 0 0 0 501,1601.9141" fill="url(#g7nbzosf6cwh10)" filter="url(#f7nbzosf6cwh1)" style="stroke:#8B95A5;stroke-width:1;"/><path d="M734,1596.9141 L734,1604.4141 A2.5,2.5 0 0 0 736.5,1606.9141 L744,1606.9141 L734,1596.9141" fill="url(#g7nbzosf6cwh10)" style="stroke:#8B95A5;stroke-width:1;"/><text fill="#111827" font-family="'Arial'" font-size="14" lengthAdjust="spacing" textLength="222.0928" x="507" y="1614.9092">Geplante Abgabe 2 gespeichert</text><g class="message" data-entity-1="part2" data-entity-2="part1" data-source-line="150" id="msg18"><line style="stroke:#111827;stroke-width:1;" x1="208.0293" x2="218.0293" y1="1652.3438" y2="1648.3438"/><line style="stroke:#111827;stroke-width:1;" x1="208.0293" x2="218.0293" y1="1652.3438" y2="1656.3438"/><line style="stroke:#111827;stroke-width:1;stroke-dasharray:2,2;" x1="207.0293" x2="618.8569" y1="1652.3438" y2="1652.3438"/><text fill="#000000" font-family="'Arial'" font-size="13" font-weight="700" lengthAdjust="spacing" textLength="18.0908" x="224.0293" y="1647.2778">18</text><text fill="#000000" font-family="'Arial'" font-size="13" lengthAdjust="spacing" textLength="18.7573" x="246.1201" y="1647.2778">OK</text></g><line style="stroke:#111827;stroke-width:1;stroke-dasharray:2,2;" x1="166.7476" x2="869.9365" y1="1661.3438" y2="1661.3438"/><text fill="#000000" font-family="'Arial'" font-size="14" font-weight="700" lengthAdjust="spacing" textLength="79.0303" x="171.7476" y="1674.3389">[ung&#252;ltig]</text><g class="message" data-entity-1="part2" data-entity-2="part1" data-source-line="152" id="msg19"><line style="stroke:#111827;stroke-width:1;" x1="208.0293" x2="218.0293" y1="1699.7734" y2="1695.7734"/><line style="stroke:#111827;stroke-width:1;" x1="208.0293" x2="218.0293" y1="1699.7734" y2="1703.7734"/><line style="stroke:#111827;stroke-width:1;stroke-dasharray:2,2;" x1="207.0293" x2="623.8569" y1="1699.7734" y2="1699.7734"/><text fill="#000000" font-family="'Arial'" font-size="13" font-weight="700" lengthAdjust="spacing" textLength="18.0908" x="224.0293" y="1694.7075">19</text><text fill="#000000" font-family="'Arial'" font-size="13" lengthAdjust="spacing" textLength="40.6694" x="246.1201" y="1694.7075">Fehler</text></g><?plantuml-src hLNRRjj647tdLmpa5nij2vEDuWjW0x9ZfKNHnh0T56WI24joI2v4BTNbqdPLz6_o3NtoctwiiylRag8J5wrimDRkNCwSCpEhkCeGtk8wOq8Xp8A41GZnzac2m1BXPupuaYcUYqAR81TARZyd22WBXLc6md6A9HTh9jaAWbn6A2_pB9UmTsW-zYqBbudCIn7L5l5K_rWMHSgY_86B16AM5MZTr6vIe0JF3XfXpCfCpNEXVc4hXCbCSfPDnYrk-GR1UpL-sOTjsOYScFdJ0RWO5e27E8qFtRt8YqxmjRQm2JWEJgPisfxUfJnS2YmAyEZinYhecBvVioZIXUie5XhFyuxz8pgxRQbHiaJdBnlW3t-iKMPSBAqIhgx63DwBoFo3DS4sz_XxYIAiAhrcKl6GhwafUYLDpMTWi2Eh-VIDTWdUkMx4wLqqjFZQOIPb_Z0anXpskJL7OndRYohNztJqbf2lUpMsaQkh7SqnzarrbcUNtkyhSv4_MXNqpiTuTOBy4IOV1GL_CmCFO09x9p7DZMQ5XOfCwMBX0IjWOamc3eg8vkxHyZKVT6bqOSx2b8a7iYa9GlMXc9UlZe-ETDUjEwO1oM4ndvdOjVTiF3owDxZ1jJAnmY3mZ_nXh4LjKGMhlbZ1MAboKQu2b8vpTWR-ytk62vfHCRo7b8jDIMigeRkpCmeOAdxFQ4uDFuuZCORy7ck-lcsBEuKF7sxBOF7-Sc6E3bz_bwfLjiU2Z9MnEmw49Hh65o1y-cJA65gmG9Pn3V1BW2W7Ibq1ELPmgc7SH9mbr2uhLoABN9Mx3v8hT3Tb8daSmqrz-giv_QqwrLZCnkgoERfLKARRpvaoRBAbAbd62uvIqGOVukOheBxCq2222-fzUYESVVqWIBYsM4cPWdb6_qnAeHijmMXoO5JM20mdWwT5m7qkINOan08eCXHXIj-2cgQglTtp2lZfpilaMG_Frsnz-v4QKlA6etxX6XED9gdzHOlLWsyeYjQE40k-uVeF14WkALMvsvTjtphxuurKk3mgR8gwAkgEEAr7Lo-TzO-KG_6OyW8JiTaO8xMCEvX7V5ADtZAZBa8vSRee7OHsTce4JjERNmU5SeCb3K3dufwtUeowE17kvDljrs7JhBY2PyeahqAhOHNKK7hUxg5Jk9CyIJJYPdTrlJ7CVbNTw8tPMhEooBP_5tQQhemw2J59ypN7DADG0NAm0xKsq2r7cwpQpN6GtkNE16MSPmaDI9YshTeBOTSuKjipsTxzH3Us4Wqy08kyHllhTxTtfjD3qyytUZaLwgFORtHgXlEWUgRwwW8C2ORTiTQEOl1SRPzeKP3oL8eff24UGF-EDUaG3wpbzeasi14csJvbYYSwqajSYxKcNK-AoTVLqDMrkvmIRDoKZTZEELJ1w4tbjkZ6RPl-C56T_wQJV_0YKVn_8yhBQFLRHIXqJvCNkjkg65t6bHafPg1D7_h_gKz_i5f8HZQzFVu1?></g></svg>