<?xml version="1.0" encoding="us-ascii" standalone="no"?><svg xmlns="http://www.w3.org/2000/svg" xmlns:xlink="http://www.w3.org/1999/xlink" contentStyleType="text/css" height="610px" preserveAspectRatio="none" style="width:524px;height:610px;background:#F5F5F5;" version="1.1" viewBox="0 0 524 610" width="524px" zoomAndPan="magnify"><defs><linearGradient id="gmbm55yc5qapl0" x1="50%" x2="50%" y1="0%" y2="100%"><stop offset="0%" stop-color="#E0E5F0"/><stop offset="100%" stop-color="#D1D9E6"/></linearGradient></defs><g><rect fill="#F5F5F5" height="610" style="stroke:none;stroke-width:1.0;" width="524" x="0" y="0"/><text fill="#000000" font-family="Arial" font-size="14" font-weight="bold" lengthAdjust="spacing" textLength="300" x="108" y="28.1318">Planeintrag in Medikationsplan hinzuf&#252;gen</text><rect fill="#156082" fill-opacity="0.50196" height="393.0337" style="stroke:#181818;stroke-width:1.0;" width="10" x="134" y="128.1973"/><line style="stroke:#181818;stroke-width:0.5;stroke-dasharray:5.0,5.0;" x1="139" x2="139" y1="118.1973" y2="530.231"/><line style="stroke:#181818;stroke-width:0.5;stroke-dasharray:5.0,5.0;" x1="400" x2="400" y1="118.1973" y2="530.231"/><text fill="#000000" font-family="Arial" font-size="14" lengthAdjust="spacing" textLength="42" x="115" y="115.2305">GDA 1</text><ellipse cx="139" cy="50.5986" fill="#156082" fill-opacity="0.50196" rx="8" ry="8" style="stroke:#181818;stroke-width:0.5;"/><path d="M139,58.5986 L139,85.5986 M126,66.5986 L152,66.5986 M139,85.5986 L126,100.5986 M139,85.5986 L152,100.5986 " fill="none" style="stroke:#181818;stroke-width:0.5;"/><text fill="#000000" font-family="Arial" font-size="14" lengthAdjust="spacing" textLength="42" x="115" y="542.3628">GDA 1</text><ellipse cx="139" cy="553.8296" fill="#156082" fill-opacity="0.50196" rx="8" ry="8" style="stroke:#181818;stroke-width:0.5;"/><path d="M139,561.8296 L139,588.8296 M126,569.8296 L152,569.8296 M139,588.8296 L126,603.8296 M139,588.8296 L152,603.8296 " fill="none" style="stroke:#181818;stroke-width:0.5;"/><rect fill="#E97232" fill-opacity="0.74118" height="30.0986" rx="5" ry="5" style="stroke:#555555;stroke-width:0.5;" width="76" x="362" y="87.0986"/><text fill="#000000" font-family="Arial" font-size="14" lengthAdjust="spacing" textLength="62" x="369" y="107.2305">e-Med FA</text><rect fill="#E97232" fill-opacity="0.74118" height="30.0986" rx="5" ry="5" style="stroke:#555555;stroke-width:0.5;" width="76" x="362" y="529.231"/><text fill="#000000" font-family="Arial" font-size="14" lengthAdjust="spacing" textLength="62" x="369" y="549.3628">e-Med FA</text><rect fill="#156082" fill-opacity="0.50196" height="393.0337" style="stroke:#181818;stroke-width:1.0;" width="10" x="134" y="128.1973"/><rect fill="#EEEEEE" height="3" rx="5" ry="5" style="stroke:#EEEEEE;stroke-width:1.0;" width="517" x="0" y="148.6716"/><line style="stroke:#000000;stroke-width:1.0;" x1="0" x2="517" y1="148.6716" y2="148.6716"/><line style="stroke:#000000;stroke-width:1.0;" x1="0" x2="517" y1="151.6716" y2="151.6716"/><rect fill="#EEEEEE" height="22.9487" rx="5" ry="5" style="stroke:#000000;stroke-width:2.0;" width="175" x="171" y="138.1973"/><text fill="#000000" font-family="Arial" font-size="13" font-weight="bold" lengthAdjust="spacing" textLength="157" x="177" y="154.3911">Medikationsplan abrufen</text><rect fill="none" height="38.7476" rx="5" ry="5" style="stroke:#000000;stroke-width:1.5;" width="349" x="112" y="171.146"/><path d="M117,171.146 L174,171.146 L174,177.146 L164,187.146 L112,187.146 L112,176.146 A5,5 0 0 1 117,171.146 " fill="#EEEEEE" style="stroke:#000000;stroke-width:2.0;"/><text fill="#000000" font-family="Arial" font-size="13" font-weight="bold" lengthAdjust="spacing" textLength="17" x="125" y="185.3398">ref</text><a href="interactions.html#sequenzdiagramm-plan-read" target="_top" title="interactions.html#sequenzdiagramm-plan-read" xlink:actuate="onRequest" xlink:href="interactions.html#sequenzdiagramm-plan-read" xlink:show="new" xlink:title="interactions.html#sequenzdiagramm-plan-read" xlink:type="simple"><text fill="#0000EE" font-family="Arial" font-size="12" lengthAdjust="spacing" textLength="59" x="257" y="202.4019">Plan-Read</text></a><path d="M5,224.8936 L5,253.8936 A5,5 0 0 0 10,258.8936 L268,258.8936 A5,5 0 0 0 273,253.8936 L273,229.8936 L263,219.8936 L10,219.8936 A5,5 0 0 0 5,224.8936 " fill="url(#gmbm55yc5qapl0)" style="stroke:#8B95A5;stroke-width:1.0;"/><path d="M263,219.8936 L263,227.3936 A2.5,2.5 0 0 0 265.5,229.8936 L273,229.8936 L263,219.8936 " fill="url(#gmbm55yc5qapl0)" style="stroke:#8B95A5;stroke-width:1.0;"/><text fill="#111827" font-family="Arial" font-size="13" lengthAdjust="spacing" textLength="243" x="11" y="237.0874">GDA erh&#228;lt den aktuellen Medikationsplan</text><text fill="#111827" font-family="Arial" font-size="13" lengthAdjust="spacing" textLength="140" x="11" y="252.0361">im Auslieferungs-Bundle</text><rect fill="#EEEEEE" height="3" rx="5" ry="5" style="stroke:#EEEEEE;stroke-width:1.0;" width="517" x="0" y="285.2654"/><line style="stroke:#000000;stroke-width:1.0;" x1="0" x2="517" y1="285.2654" y2="285.2654"/><line style="stroke:#000000;stroke-width:1.0;" x1="0" x2="517" y1="288.2654" y2="288.2654"/><rect fill="#EEEEEE" height="22.9487" rx="5" ry="5" style="stroke:#000000;stroke-width:2.0;" width="293" x="112" y="274.791"/><text fill="#000000" font-family="Arial" font-size="13" font-weight="bold" lengthAdjust="spacing" textLength="275" x="118" y="290.9849">Medikationsplan vorbereiten und schreiben</text><line style="stroke:#111827;stroke-width:1.0;" x1="144" x2="186" y1="328.6885" y2="328.6885"/><line style="stroke:#111827;stroke-width:1.0;" x1="186" x2="186" y1="328.6885" y2="341.6885"/><line style="stroke:#111827;stroke-width:1.0;" x1="145" x2="186" y1="341.6885" y2="341.6885"/><polygon fill="#111827" points="155,337.6885,145,341.6885,155,345.6885,151,341.6885" style="stroke:#111827;stroke-width:1.0;"/><text fill="#000000" font-family="Arial" font-size="13" font-weight="bold" lengthAdjust="spacing" textLength="7" x="151" y="323.9336">1</text><text fill="#000000" font-family="Arial" font-size="13" lengthAdjust="spacing" textLength="159" x="162" y="323.9336">Neuen Planeintrag erstellen</text><line style="stroke:#111827;stroke-width:1.0;" x1="144" x2="186" y1="385.5859" y2="385.5859"/><line style="stroke:#111827;stroke-width:1.0;" x1="186" x2="186" y1="385.5859" y2="398.5859"/><line style="stroke:#111827;stroke-width:1.0;" x1="145" x2="186" y1="398.5859" y2="398.5859"/><polygon fill="#111827" points="155,394.5859,145,398.5859,155,402.5859,151,398.5859" style="stroke:#111827;stroke-width:1.0;"/><text fill="#000000" font-family="Arial" font-size="13" font-weight="bold" lengthAdjust="spacing" textLength="7" x="151" y="373.3567">2</text><text fill="#000000" font-family="Arial" font-size="13" lengthAdjust="spacing" textLength="169" x="162" y="365.8823">Planeintrag mit List.entry.flag</text><text fill="#000000" font-family="Arial" font-size="13" lengthAdjust="spacing" textLength="226" x="162" y="380.8311">"new" dem Medikationsplan hinzuf&#252;gen</text><path d="M29,416.5859 L29,430.5859 A5,5 0 0 0 34,435.5859 L244,435.5859 A5,5 0 0 0 249,430.5859 L249,421.5859 L239,411.5859 L34,411.5859 A5,5 0 0 0 29,416.5859 " fill="url(#gmbm55yc5qapl0)" style="stroke:#8B95A5;stroke-width:1.0;"/><path d="M239,411.5859 L239,419.0859 A2.5,2.5 0 0 0 241.5,421.5859 L249,421.5859 L239,411.5859 " fill="url(#gmbm55yc5qapl0)" style="stroke:#8B95A5;stroke-width:1.0;"/><text fill="#111827" font-family="Arial" font-size="13" lengthAdjust="spacing" textLength="199" x="35" y="428.7798">Medikationsplaneintrag hinzuf&#252;gen</text><rect fill="none" height="38.7476" rx="5" ry="5" style="stroke:#000000;stroke-width:1.5;" width="349" x="112" y="441.5347"/><path d="M117,441.5347 L174,441.5347 L174,447.5347 L164,457.5347 L112,457.5347 L112,446.5347 A5,5 0 0 1 117,441.5347 " fill="#EEEEEE" style="stroke:#000000;stroke-width:2.0;"/><text fill="#000000" font-family="Arial" font-size="13" font-weight="bold" lengthAdjust="spacing" textLength="17" x="125" y="455.7285">ref</text><a href="interactions.html#plan-write" target="_top" title="interactions.html#plan-write" xlink:actuate="onRequest" xlink:href="interactions.html#plan-write" xlink:show="new" xlink:title="interactions.html#plan-write" xlink:type="simple"><text fill="#0000EE" font-family="Arial" font-size="12" lengthAdjust="spacing" textLength="57" x="258" y="472.7905">Plan-Write</text></a><path d="M288,495.2822 L288,509.2822 A5,5 0 0 0 293,514.2822 L507,514.2822 A5,5 0 0 0 512,509.2822 L512,500.2822 L502,490.2822 L293,490.2822 A5,5 0 0 0 288,495.2822 " fill="url(#gmbm55yc5qapl0)" style="stroke:#8B95A5;stroke-width:1.0;"/><path d="M502,490.2822 L502,497.7822 A2.5,2.5 0 0 0 504.5,500.2822 L512,500.2822 L502,490.2822 " fill="url(#gmbm55yc5qapl0)" style="stroke:#8B95A5;stroke-width:1.0;"/><text fill="#111827" font-family="Arial" font-size="13" lengthAdjust="spacing" textLength="203" x="294" y="507.4761">Neuer Medikationsplan gespeichert</text><!--SRC=[bLNTRjem5BxtKvp1nMv6bOJnaqfCWXAwQMr1b6dIkWePSW8MYSCSfwoTzZPxZDtrnUOu59o4JPfpO_jyFkVxph5F99CXmYIa71cNWgw0SRX6dsseP35Fjie2QyQVqk3vzmev8Q-J3UDRAcW4T2bZSIiVbGUwmoIEa92ZTH4B7yL57CO2wfOUffKkDoiHfzpV8u9MzXc8P4tzUCVu2W8Q9cXOziS4Hm6swTJ7WAQX7CLStj08eTONZ8OraxC1kMLF2FRRq-V_nllzunP5oFZ607ZUAS0dxki9LlWFukyJwlkPDCSgxW_CfBNqC7FAOudmWm0Cokb32rk1rQZxjkzYEqEOdheBjqLRXztPcYqt79C4RBKtDT9fgVKBjyoBaGhRjhjEH-tTbWhpqsIOuBSK-J9dEQ52iYNRKYvF2Ii2AXT2ZoAeMfcA-QMg1OEHRe2-4F6kB4fl5lEYjqv5F1ZoM4srTQcORmiQ3vvpKwLU63XQdN7o6Dx9alfANSVi-boChyRJ-UMmFxT1ZRhTQbjTfskT03WQuBRRLcTO0Kpwim_UpIppuBO7pjiAe3yPWnvrQ-HwmvPR1dZNtd0-wYi0kXsdwIpyCc0-zRvuandKbtwpqtIeMvOn_WY564whx68w7Kyrm7CxTjDfgWUW6mta6Q09rDGCx9gP6B8z5XjGDR2CPWR5Xbh0g5yhIb0-KndpD5gW80H8hrVfUdGXqW0vz7gQ07kWwktb7Cp0H600yGFk-RqvH3-7kplLKr5aXvNJixMCmdh-FfvyHbVgkKIDB5H38FLr4svCrUp-dX3zq8zUIQOOnVhvLoXLbrBaDZB5CCHgioOiWdwQX0m352bV9Os1kdMgHHFalcuWv9JQXrYeL22JogN2Gx9SgzLYhp-NtNYNipc76rGY2hyD58dKX2fO4nKn2LSiaMUerezdGKXNNtcDuwwcL4N__l6KKr82luGmpnmL_r-HT55sGYKZhyhdR5eiozu1oJ8XAiHNc6oHBTSev9747m00]--></g></svg>