<svg xmlns="http://www.w3.org/2000/svg" xmlns:xlink="http://www.w3.org/1999/xlink" version="1.1" data-diagram-type="SEQUENCE" style="width:761px;height:971px;background:#F5F5F5;" width="761px" height="971px" viewBox="0 0 761 971" zoomAndPan="magnify" preserveAspectRatio="none" contentStyleType="text/css"><?plantuml 1.2026.7beta8?><defs><linearGradient x1="50%" y1="0%" x2="50%" y2="100%" id="g1inkzir04lfo00"><stop stop-color="#E0E5F0" offset="0%"/><stop stop-color="#D1D9E6" offset="100%"/></linearGradient></defs><g font-family="sans-serif" lengthAdjust="spacing"><rect x="0" y="0" width="761" height="971" fill="#F5F5F5" style="stroke:none;"/><g class="title" data-source-line="1"><text x="339.944" y="27.995" fill="#000" font-size="14" textLength="80.028" font-weight="700" font-family="'Arial'">Plan-Read</text></g><path d="M115.646,318.883 L736.917,318.883 A5,5 0 0 1 741.917,323.883 L741.917,605.563 L110.646,605.563 L110.646,323.883 A5,5 0 0 1 115.646,318.883" fill="#0F9ED5" fill-opacity="0.145"/><rect x="110.646" y="605.563" width="631.271" height="98.188" fill="#34738D" fill-opacity="0.306" style="stroke:#34738D4E;stroke-width:1;"/><path d="M110.646,703.75 L741.917,703.75 L741.917,785.938 A5,5 0 0 1 736.917,790.938 L115.646,790.938 A5,5 0 0 1 110.646,785.938 L110.646,703.75" fill="#E97132" fill-opacity="0.208"/><g><title>GDA 1</title><rect x="148.427" y="123.594" width="8" height="760.234" fill="#000" fill-opacity="0"/><line x1="151.927" y1="123.594" x2="151.927" y2="883.828" style="stroke:#181818;stroke-width:0.5;stroke-dasharray:5,5;"/></g><g><title></title><rect x="146.927" y="197.023" width="10" height="686.805" fill="#156082" fill-opacity="0.502" style="stroke:#181818;stroke-width:1;"/></g><g><title>e-Med FA</title><rect x="402.406" y="123.594" width="8" height="760.234" fill="#000" fill-opacity="0"/><line x1="405.906" y1="123.594" x2="405.906" y2="883.828" style="stroke:#181818;stroke-width:0.5;stroke-dasharray:5,5;"/></g><g><title></title><rect x="400.906" y="197.023" width="10" height="593.914" fill="#E97232" fill-opacity="0.741" style="stroke:#181818;stroke-width:1;"/></g><text x="126.646" y="120.292" fill="#000" font-size="14" textLength="44.563" font-family="'Arial'">GDA 1</text><ellipse cx="151.927" cy="55.797" rx="8" ry="8" fill="#156082" fill-opacity="0.502" style="stroke:#181818;stroke-width:0.5;"/><path d="M151.927,63.797 L151.927,90.797 M138.927,71.797 L164.927,71.797 M151.927,90.797 L138.927,105.797 M151.927,90.797 L164.927,105.797" style="stroke:#181818;stroke-width:0.5;" fill="none"/><rect x="366.244" y="92.297" width="79.324" height="30.297" fill="#E97232" fill-opacity="0.741" style="stroke:#555;stroke-width:0.5;" rx="5" ry="5"/><text x="373.244" y="112.292" fill="#000" font-size="14" textLength="65.324" font-family="'Arial'">e-Med FA</text><text x="126.646" y="896.823" fill="#000" font-size="14" textLength="44.563" font-family="'Arial'">GDA 1</text><ellipse cx="151.927" cy="908.625" rx="8" ry="8" fill="#156082" fill-opacity="0.502" style="stroke:#181818;stroke-width:0.5;"/><path d="M151.927,916.625 L151.927,943.625 M138.927,924.625 L164.927,924.625 M151.927,943.625 L138.927,958.625 M151.927,943.625 L164.927,958.625" style="stroke:#181818;stroke-width:0.5;" fill="none"/><rect x="366.244" y="883.828" width="79.324" height="30.297" fill="#E97232" fill-opacity="0.741" style="stroke:#555;stroke-width:0.5;" rx="5" ry="5"/><text x="373.244" y="903.823" fill="#000" font-size="14" textLength="65.324" font-family="'Arial'">e-Med FA</text><rect x="10" y="152.742" width="740.917" height="3" fill="#EEE" style="stroke:#EEE;stroke-width:1;" rx="5" ry="5"/><line x1="10" y1="152.742" x2="750.917" y2="152.742" style="stroke:#000;stroke-width:1;"/><line x1="10" y1="155.742" x2="750.917" y2="155.742" style="stroke:#000;stroke-width:1;"/><rect x="242.099" y="141.594" width="276.719" height="24.297" fill="#EEE" style="stroke:#000;stroke-width:2;" rx="5" ry="5"/><text x="248.099" y="158.589" fill="#000" font-size="14" textLength="257.845" font-weight="700" font-family="'Arial'">Aktuellen Medikationsplan lesen</text><polygon points="388.906,193.023,398.906,197.023,388.906,201.023,392.906,197.023" fill="#111827" style="stroke:#111827;stroke-width:1;stroke-linejoin:miter;stroke-miterlimit:10;"/><line x1="156.927" y1="197.023" x2="394.906" y2="197.023" style="stroke:#111827;stroke-width:1;"/><text x="163.927" y="191.958" fill="#000" font-size="13" font-weight="700" font-family="'Arial'">1</text><text x="176.973" y="191.958" fill="#000" font-size="13" textLength="108.989" font-family="'Arial'">POST $plan-read</text><path d="M44.675,215.023 L44.675,247.023 A5,5 0 0 0 49.675,252.023 L253.675,252.023 A5,5 0 0 0 258.675,247.023 L258.675,220.023 L248.675,210.023 L49.675,210.023 A5,5 0 0 0 44.675,215.023" style="stroke:#8B95A5;stroke-width:1;" fill="url(#g1inkzir04lfo00)"/><path d="M248.675,210.023 L248.675,217.523 A2.5,2.5 0 0 0 251.175,220.023 L258.675,220.023 L248.675,210.023" style="stroke:#8B95A5;stroke-width:1;" fill="url(#g1inkzir04lfo00)"/><text x="50.675" y="228.019" fill="#111827" font-size="14" textLength="193.505" font-family="'Arial'">Abruf des Medikationsplans</text><text x="50.675" y="244.315" fill="#111827" font-size="14" textLength="112.492" font-family="'Arial'">zur Bearbeitung</text><line x1="410.906" y1="293.883" x2="452.906" y2="293.883" style="stroke:#111827;stroke-width:1;"/><line x1="452.906" y1="293.883" x2="452.906" y2="306.883" style="stroke:#111827;stroke-width:1;"/><line x1="411.906" y1="306.883" x2="452.906" y2="306.883" style="stroke:#111827;stroke-width:1;"/><polygon points="421.906,302.883,411.906,306.883,421.906,310.883,417.906,306.883" fill="#111827" style="stroke:#111827;stroke-width:1;stroke-linejoin:miter;stroke-miterlimit:10;"/><text x="417.906" y="281.25" fill="#000" font-size="13" font-weight="700" font-family="'Arial'">2</text><text x="430.952" y="273.684" fill="#000" font-size="13" textLength="160.799" font-family="'Arial'">Existiert ein persistierter</text><text x="430.952" y="288.817" fill="#000" font-size="13" textLength="113.217" font-family="'Arial'">Medikationsplan?</text><path d="M115.646,318.883 L176.584,318.883 L176.584,327.18 L166.584,337.18 L110.646,337.18 L110.646,323.883 A5,5 0 0 1 115.646,318.883" style="stroke:#111827;stroke-width:1.5;" fill="#EEF2FF"/><rect x="110.646" y="318.883" width="631.271" height="472.055" fill="none" style="stroke:#111827;stroke-width:2;" rx="5" ry="5"/><text x="125.646" y="332.878" fill="#000" font-size="14" textLength="20.938" font-weight="700" font-family="'Arial'">alt</text><text x="191.584" y="333.878" fill="#000" font-size="14" textLength="419.187" font-weight="700" font-family="'Arial'">[ja: Medikationsplan persistiert (kein emptyReason)]</text><line x1="110.646" y1="605.563" x2="741.917" y2="605.563" style="stroke:#111827;stroke-width:1;stroke-dasharray:2,2;"/><text x="115.646" y="620.558" fill="#000" font-size="14" textLength="624.271" font-weight="700" font-family="'Arial'">[ja: leerer Medikationsplan persistiert (emptyReason = notstarted | nilknown)]</text><line x1="110.646" y1="703.75" x2="741.917" y2="703.75" style="stroke:#111827;stroke-width:1;stroke-dasharray:2,2;"/><text x="115.646" y="718.745" fill="#000" font-size="14" textLength="313.934" font-weight="700" font-family="'Arial'">[nein: kein Medikationsplan persistiert]</text><line x1="410.906" y1="460.406" x2="452.906" y2="460.406" style="stroke:#111827;stroke-width:1;"/><line x1="452.906" y1="460.406" x2="452.906" y2="473.406" style="stroke:#111827;stroke-width:1;"/><line x1="411.906" y1="473.406" x2="452.906" y2="473.406" style="stroke:#111827;stroke-width:1;"/><polygon points="421.906,469.406,411.906,473.406,421.906,477.406,417.906,473.406" fill="#111827" style="stroke:#111827;stroke-width:1;stroke-linejoin:miter;stroke-miterlimit:10;"/><text x="417.906" y="409.942" fill="#000" font-size="13" font-weight="700" font-family="'Arial'">3</text><text x="430.952" y="364.543" fill="#000" font-size="13" textLength="147.342" font-family="'Arial'">Erzeugt Auslieferungs-</text><text x="430.952" y="379.676" fill="#000" font-size="13" textLength="113.693" font-family="'Arial'">Collection Bundle</text><text x="430.952" y="394.809" fill="#000" font-size="13" textLength="104.051" font-family="'Arial'">Transformation:</text><text x="430.952" y="409.942" fill="#000" font-size="13" textLength="187.897" font-family="'Arial'">- new|changed → unchanged</text><text x="430.952" y="425.075" fill="#000" font-size="13" textLength="286.527" font-family="'Arial'">- removed -> aus List und Bundle entfernen</text><text x="430.952" y="440.208" fill="#000" font-size="13" textLength="188.894" font-family="'Arial'">wenn alle List.entry entfernt:</text><text x="430.952" y="455.34" fill="#000" font-size="13" textLength="238.481" font-family="'Arial'">- setzt List.emptyReason = nilknown</text><path d="M298.483,491.406 L298.483,539.406 A5,5 0 0 0 303.483,544.406 L507.483,544.406 A5,5 0 0 0 512.483,539.406 L512.483,496.406 L502.483,486.406 L303.483,486.406 A5,5 0 0 0 298.483,491.406" style="stroke:#8B95A5;stroke-width:1;" fill="url(#g1inkzir04lfo00)"/><path d="M502.483,486.406 L502.483,493.906 A2.5,2.5 0 0 0 504.983,496.406 L512.483,496.406 L502.483,486.406" style="stroke:#8B95A5;stroke-width:1;" fill="url(#g1inkzir04lfo00)"/><text x="304.483" y="504.401" fill="#111827" font-size="14" textLength="110.688" font-family="'Arial'">Das persistierte</text><text x="304.483" y="520.698" fill="#111827" font-size="14" textLength="193.847" font-family="'Arial'">Medikationsplan-Collection-</text><text x="304.483" y="536.995" fill="#111827" font-size="14" textLength="188.344" font-family="'Arial'">Bundle bleibt unverändert.</text><polygon points="167.927,582.563,157.927,586.563,167.927,590.563,163.927,586.563" fill="#111827" style="stroke:#111827;stroke-width:1;stroke-linejoin:miter;stroke-miterlimit:10;"/><line x1="161.927" y1="586.563" x2="399.906" y2="586.563" style="stroke:#111827;stroke-width:1;stroke-dasharray:2,2;"/><text x="173.927" y="573.93" fill="#000" font-size="13" font-weight="700" font-family="'Arial'">4</text><text x="186.973" y="566.364" fill="#000" font-size="13" textLength="206.934" font-family="'Arial'">Auslieferungs-Collection Bundle</text><text x="186.973" y="581.497" fill="#000" font-size="13" textLength="47.398" font-family="'Arial'">+ ETag</text><rect x="128.646" y="628.859" width="314.923" height="58.891" fill="none" style="stroke:#000;stroke-width:1.5;" rx="5" ry="5"/><path d="M133.646,628.859 L195.646,628.859 L195.646,636.859 L185.646,646.859 L128.646,646.859 L128.646,633.859 A5,5 0 0 1 133.646,628.859" style="stroke:#000;stroke-width:2;" fill="#EEE"/><text x="141.646" y="643.854" fill="#000" font-size="14" textLength="22.49" font-weight="700" font-family="'Arial'">ref</text><text x="183.223" y="663.854" fill="#000" font-size="14" textLength="201.318" font-family="'Arial'">Siehe Sub_UC_eMed_05_04 -</text><text x="181.633" y="680.151" fill="#000" font-size="14" textLength="208.947" font-family="'Arial'">Leeren Medikationsplan lesen</text><rect x="128.646" y="727.047" width="314.923" height="58.891" fill="none" style="stroke:#000;stroke-width:1.5;" rx="5" ry="5"/><path d="M133.646,727.047 L195.646,727.047 L195.646,735.047 L185.646,745.047 L128.646,745.047 L128.646,732.047 A5,5 0 0 1 133.646,727.047" style="stroke:#000;stroke-width:2;" fill="#EEE"/><text x="141.646" y="742.042" fill="#000" font-size="14" textLength="22.49" font-weight="700" font-family="'Arial'">ref</text><text x="183.223" y="762.042" fill="#000" font-size="14" textLength="201.318" font-family="'Arial'">Siehe Sub_UC_eMed_05_03 -</text><text x="173.338" y="778.339" fill="#000" font-size="14" textLength="225.538" font-family="'Arial'">Initial erstellter Medikationsplan</text><path d="M15,814.938 L15,862.938 A5,5 0 0 0 20,867.938 L283,867.938 A5,5 0 0 0 288,862.938 L288,819.938 L278,809.938 L20,809.938 A5,5 0 0 0 15,814.938" style="stroke:#8B95A5;stroke-width:1;" fill="url(#g1inkzir04lfo00)"/><path d="M278,809.938 L278,817.438 A2.5,2.5 0 0 0 280.5,819.938 L288,819.938 L278,809.938" style="stroke:#8B95A5;stroke-width:1;" fill="url(#g1inkzir04lfo00)"/><text x="21" y="827.933" fill="#111827" font-size="14" textLength="154.854" font-family="'Arial'">Nachfolgend kann der</text><text x="21" y="844.229" fill="#111827" font-size="14" textLength="248.404" font-family="'Arial'">Medikationsplan bearbeitet werden</text><text x="21" y="860.526" fill="#111827" font-size="14" textLength="196.362" font-family="'Arial'">und ein Plan-Write erfolgen.</text><?plantuml-src dLPTZk9647xtAIeGALabZ6ppZqGY63oRLMO71AmYHKYeZGleODfikxtiJ3QlEK3Ea9la9Zb9gcr-sZQx3p4lkEfprLTVLvMjk0eH9Y4JjIcomBA-YNTS79XaUs0h5ScPUYO0Es8SxT6ohbu_aW7A-oYC95Jjz3AzRBNRo2WHmGcnRkgVWOYtB8YEN6nWpS8O3S_fCIbGWcC63N3Dab0zH48ziJr2PI0v2okt4JF-Wk0qRZi_H_kdvmFAa8kT0V2yMu1t8aZ_O8d-CFeuOK6WAtFjl7reQjPCBrDI4Ic4tos0OL4zjB6vjclLm0cwsD88CrB7xpPPysATR_bg9p2EmI7Rr53JflipDnt5aC9nd8xR9jkiS2v_c0nZV9-WM6Ki9qmglk879jIjmlA0KZ-aLnvKFfcI-togEOSXDy10okXOB2ervdL9JRSoNXnPhZgPNXFpGwx6I-JCLJelNBjfTSQJr_Ik5lKhQaVTFlVZn_5q-NeqM3f0LzLfjkoEsx5l0DmKq6srxFQe19WCvc-yfxcEq6qDtKO9C9YC8RsgzaFN6pMxHO3trXij7mO4m6xRhRj-K0GifzwltcGErLLGRzTTrYsMCVuPSZdSPWcGLG7LUgDTxmGDBEQOJiVJ5E1rsqxThTE4f8i8CebO31Nw1qx5LCuwNBi1y2q6kWuDnHhTmCEWag_Heg29YaIozr5QLhyFWvrAC0nH03t0TqpnICG7seiGOapMVj-oCWQr7yuPUZ0Pp-RmjORLf5wVn9H_O3J56THaQANJ7Nt0KoNMm9V9cfPINCmOMo-9X24owIDNYTXOA89qELZN1ESYysMThIP7xoEF5KT9md01jBxYqptAXIYa_f4oXEfwcB-nNaaF8m9ykzCnSNzGp_JwY2FnYdh-9WdvWib6mI29Guvhb5HMN5i8cfSGLpeu36byGbo8kIG9rf7Sfpbx2r43WSTFgoqJ6phBV__y2n9nkjDEYNjIDT3fM1B38t4ZG72A1oWKfHCe5kA8GW2ZX2deZZpo-UnNQQ8OrOiwUQz5GHy43tSYEWegxtgEf-h8Dg9UCvK5iXLqgrrBhUbLdR7pG-I-valn_lbRlrFKdPRmSk26d5HWsZczWeetDFmEl3dRW6KXhN1pzFI1XeYIs7_nN0lLHofMD66aygUB5AyqEObhewU_loeouxX5c2N-yjtzCZNRpQNTW9gMvb4p-CoadQgdm3dssLuGr6uzI9lk2_J_1x5wHkoDu8e-AO1YATe6gYoJIGzeUei3gMUrFEjFRBLTH-56FxfZr8Lqq60LI_1F8uyAZaYl306MRcHTRVg5zelaEf7C8jrTri9_?></g></svg>