<?xml version="1.0" encoding="us-ascii" standalone="no"?><svg xmlns="http://www.w3.org/2000/svg" xmlns:xlink="http://www.w3.org/1999/xlink" contentStyleType="text/css" height="796px" preserveAspectRatio="none" style="width:597px;height:796px;background:#F5F5F5;" version="1.1" viewBox="0 0 597 796" width="597px" zoomAndPan="magnify"><defs><linearGradient id="gmu87im2qkk9v0" x1="50%" x2="50%" y1="0%" y2="100%"><stop offset="0%" stop-color="#E0E5F0"/><stop offset="100%" stop-color="#D1D9E6"/></linearGradient></defs><g><rect fill="#F5F5F5" height="796" style="stroke:none;stroke-width:1.0;" width="597" x="0" y="0"/><text fill="#000000" font-family="Arial" font-size="14" font-weight="bold" lengthAdjust="spacing" textLength="227" x="181" y="28.1318">Initial erstellter Medikationsplan</text><rect fill="#156082" fill-opacity="0.50196" height="431.9766" style="stroke:#181818;stroke-width:1.0;" width="10" x="97" y="193.2446"/><rect fill="#E97232" fill-opacity="0.74118" height="431.9766" style="stroke:#181818;stroke-width:1.0;" width="10" x="329" y="193.2446"/><rect fill="#0F9ED5" fill-opacity="0.14510" height="381.1777" rx="5" ry="5" style="stroke:#111827;stroke-width:2.0;" width="512" x="68" y="317.3394"/><path d="M68,633.2212 L580,633.2212 L580,693.5171 A5,5 0 0 1 575,698.5171 L73,698.5171 A5,5 0 0 1 68,693.5171 L68,633.2212 " fill="#E97132" fill-opacity="0.20784" style="stroke:none;stroke-width:1.0;"/><line style="stroke:#181818;stroke-width:0.5;stroke-dasharray:5.0,5.0;" x1="102" x2="102" y1="118.1973" y2="715.5171"/><line style="stroke:#181818;stroke-width:0.5;stroke-dasharray:5.0,5.0;" x1="334" x2="334" y1="118.1973" y2="715.5171"/><text fill="#000000" font-family="Arial" font-size="14" lengthAdjust="spacing" textLength="42" x="78" y="115.2305">GDA 1</text><ellipse cx="102" cy="50.5986" fill="#156082" fill-opacity="0.50196" rx="8" ry="8" style="stroke:#181818;stroke-width:0.5;"/><path d="M102,58.5986 L102,85.5986 M89,66.5986 L115,66.5986 M102,85.5986 L89,100.5986 M102,85.5986 L115,100.5986 " fill="none" style="stroke:#181818;stroke-width:0.5;"/><text fill="#000000" font-family="Arial" font-size="14" lengthAdjust="spacing" textLength="42" x="78" y="727.6489">GDA 1</text><ellipse cx="102" cy="739.1157" fill="#156082" fill-opacity="0.50196" rx="8" ry="8" style="stroke:#181818;stroke-width:0.5;"/><path d="M102,747.1157 L102,774.1157 M89,755.1157 L115,755.1157 M102,774.1157 L89,789.1157 M102,774.1157 L115,789.1157 " fill="none" style="stroke:#181818;stroke-width:0.5;"/><rect fill="#E97232" fill-opacity="0.74118" height="30.0986" rx="5" ry="5" style="stroke:#555555;stroke-width:0.5;" width="76" x="296" y="87.0986"/><text fill="#000000" font-family="Arial" font-size="14" lengthAdjust="spacing" textLength="62" x="303" y="107.2305">e-Med FA</text><rect fill="#E97232" fill-opacity="0.74118" height="30.0986" rx="5" ry="5" style="stroke:#555555;stroke-width:0.5;" width="76" x="296" y="714.5171"/><text fill="#000000" font-family="Arial" font-size="14" lengthAdjust="spacing" textLength="62" x="303" y="734.6489">e-Med FA</text><rect fill="#156082" fill-opacity="0.50196" height="431.9766" style="stroke:#181818;stroke-width:1.0;" width="10" x="97" y="193.2446"/><rect fill="#E97232" fill-opacity="0.74118" height="431.9766" style="stroke:#181818;stroke-width:1.0;" width="10" x="329" y="193.2446"/><rect fill="#EEEEEE" height="3" rx="5" ry="5" style="stroke:#EEEEEE;stroke-width:1.0;" width="590" x="0" y="149.2466"/><line style="stroke:#000000;stroke-width:1.0;" x1="0" x2="590" y1="149.2466" y2="149.2466"/><line style="stroke:#000000;stroke-width:1.0;" x1="0" x2="590" y1="152.2466" y2="152.2466"/><rect fill="#EEEEEE" height="24.0986" rx="5" ry="5" style="stroke:#000000;stroke-width:2.0;" width="175" x="207.5" y="138.1973"/><text fill="#000000" font-family="Arial" font-size="14" font-weight="bold" lengthAdjust="spacing" textLength="157" x="213.5" y="155.3291">Erstmaliges Plan-Read</text><polygon fill="#111827" points="317,189.2446,327,193.2446,317,197.2446,321,193.2446" style="stroke:#111827;stroke-width:1.0;"/><line style="stroke:#111827;stroke-width:1.0;" x1="107" x2="323" y1="193.2446" y2="193.2446"/><text fill="#000000" font-family="Arial" font-size="13" font-weight="bold" lengthAdjust="spacing" textLength="7" x="114" y="188.4897">1</text><text fill="#000000" font-family="Arial" font-size="13" lengthAdjust="spacing" textLength="99" x="125" y="188.4897">POST $plan-read</text><path d="M5,211.2446 L5,243.2446 A5,5 0 0 0 10,248.2446 L195,248.2446 A5,5 0 0 0 200,243.2446 L200,216.2446 L190,206.2446 L10,206.2446 A5,5 0 0 0 5,211.2446 " fill="url(#gmu87im2qkk9v0)" style="stroke:#8B95A5;stroke-width:1.0;"/><path d="M190,206.2446 L190,213.7446 A2.5,2.5 0 0 0 192.5,216.2446 L200,216.2446 L190,206.2446 " fill="url(#gmu87im2qkk9v0)" style="stroke:#8B95A5;stroke-width:1.0;"/><text fill="#111827" font-family="Arial" font-size="14" lengthAdjust="spacing" textLength="174" x="11" y="224.3765">Abruf des Medikationsplans</text><text fill="#111827" font-family="Arial" font-size="14" lengthAdjust="spacing" textLength="100" x="11" y="240.4751">zur Bearbeitung</text><line style="stroke:#111827;stroke-width:1.0;" x1="339" x2="381" y1="289.3394" y2="289.3394"/><line style="stroke:#111827;stroke-width:1.0;" x1="381" x2="381" y1="289.3394" y2="302.3394"/><line style="stroke:#111827;stroke-width:1.0;" x1="340" x2="381" y1="302.3394" y2="302.3394"/><polygon fill="#111827" points="350,298.3394,340,302.3394,350,306.3394,346,302.3394" style="stroke:#111827;stroke-width:1.0;"/><text fill="#000000" font-family="Arial" font-size="13" font-weight="bold" lengthAdjust="spacing" textLength="7" x="346" y="277.1101">2</text><text fill="#000000" font-family="Arial" font-size="13" lengthAdjust="spacing" textLength="141" x="357" y="269.6357">Existiert ein persistierter</text><text fill="#000000" font-family="Arial" font-size="13" lengthAdjust="spacing" textLength="101" x="357" y="284.5845">Medikationsplan?</text><path d="M73,317.3394 L130,317.3394 L130,325.438 L120,335.438 L68,335.438 L68,322.3394 A5,5 0 0 1 73,317.3394 " fill="#EEF2FF" style="stroke:#111827;stroke-width:1.5;"/><rect fill="none" height="381.1777" rx="5" ry="5" style="stroke:#111827;stroke-width:2.0;" width="512" x="68" y="317.3394"/><text fill="#000000" font-family="Arial" font-size="14" font-weight="bold" lengthAdjust="spacing" textLength="17" x="83" y="331.4712">alt</text><text fill="#000000" font-family="Arial" font-size="14" font-weight="bold" lengthAdjust="spacing" textLength="276" x="145" y="332.4712">[nein: kein Medikationsplan persistiert]</text><line style="stroke:#111827;stroke-width:1.0;" x1="339" x2="381" y1="372.4341" y2="372.4341"/><line style="stroke:#111827;stroke-width:1.0;" x1="381" x2="381" y1="372.4341" y2="385.4341"/><line style="stroke:#111827;stroke-width:1.0;" x1="340" x2="381" y1="385.4341" y2="385.4341"/><polygon fill="#111827" points="350,381.4341,340,385.4341,350,389.4341,346,385.4341" style="stroke:#111827;stroke-width:1.0;"/><text fill="#000000" font-family="Arial" font-size="13" font-weight="bold" lengthAdjust="spacing" textLength="7" x="346" y="360.2048">3</text><text fill="#000000" font-family="Arial" font-size="13" lengthAdjust="spacing" textLength="182" x="357" y="352.7305">Erzeugt leeren Medikationsplan</text><text fill="#000000" font-family="Arial" font-size="13" lengthAdjust="spacing" textLength="211" x="357" y="367.6792">List mit emptyReason = "notstarted"</text><line style="stroke:#111827;stroke-width:1.0;" x1="339" x2="381" y1="444.2803" y2="444.2803"/><line style="stroke:#111827;stroke-width:1.0;" x1="381" x2="381" y1="444.2803" y2="457.2803"/><line style="stroke:#111827;stroke-width:1.0;" x1="340" x2="381" y1="457.2803" y2="457.2803"/><polygon fill="#111827" points="350,453.2803,340,457.2803,350,461.2803,346,457.2803" style="stroke:#111827;stroke-width:1.0;"/><text fill="#000000" font-family="Arial" font-size="13" font-weight="bold" lengthAdjust="spacing" textLength="7" x="346" y="424.5767">4</text><text fill="#000000" font-family="Arial" font-size="13" lengthAdjust="spacing" textLength="59" x="357" y="409.6279">Persistiert</text><text fill="#000000" font-family="Arial" font-size="13" lengthAdjust="spacing" textLength="98" x="357" y="424.5767">Medikationsplan-</text><text fill="#000000" font-family="Arial" font-size="13" lengthAdjust="spacing" textLength="101" x="357" y="439.5254">Collection Bundle</text><line style="stroke:#111827;stroke-width:1.0;" x1="339" x2="381" y1="501.1777" y2="501.1777"/><line style="stroke:#111827;stroke-width:1.0;" x1="381" x2="381" y1="501.1777" y2="514.1777"/><line style="stroke:#111827;stroke-width:1.0;" x1="340" x2="381" y1="514.1777" y2="514.1777"/><polygon fill="#111827" points="350,510.1777,340,514.1777,350,518.1777,346,514.1777" style="stroke:#111827;stroke-width:1.0;"/><text fill="#000000" font-family="Arial" font-size="13" font-weight="bold" lengthAdjust="spacing" textLength="7" x="346" y="488.9485">5</text><text fill="#000000" font-family="Arial" font-size="13" lengthAdjust="spacing" textLength="131" x="357" y="481.4741">Erzeugt Auslieferungs-</text><text fill="#000000" font-family="Arial" font-size="13" lengthAdjust="spacing" textLength="101" x="357" y="496.4229">Collection Bundle</text><path d="M255,532.1777 L255,564.1777 A5,5 0 0 0 260,569.1777 L407,569.1777 A5,5 0 0 0 412,564.1777 L412,537.1777 L402,527.1777 L260,527.1777 A5,5 0 0 0 255,532.1777 " fill="url(#gmu87im2qkk9v0)" style="stroke:#8B95A5;stroke-width:1.0;"/><path d="M402,527.1777 L402,534.6777 A2.5,2.5 0 0 0 404.5,537.1777 L412,537.1777 L402,527.1777 " fill="url(#gmu87im2qkk9v0)" style="stroke:#8B95A5;stroke-width:1.0;"/><text fill="#111827" font-family="Arial" font-size="14" lengthAdjust="spacing" textLength="136" x="261" y="545.3096">Keine Transformation</text><text fill="#111827" font-family="Arial" font-size="14" lengthAdjust="spacing" textLength="76" x="261" y="561.4082">erforderlich.</text><polygon fill="#111827" points="113,621.2212,103,625.2212,113,629.2212,109,625.2212" style="stroke:#111827;stroke-width:1.0;"/><line style="stroke:#111827;stroke-width:1.0;" x1="107" x2="333" y1="625.2212" y2="625.2212"/><text fill="#000000" font-family="Arial" font-size="13" font-weight="bold" lengthAdjust="spacing" textLength="7" x="119" y="605.5176">6</text><text fill="#000000" font-family="Arial" font-size="13" lengthAdjust="spacing" textLength="183" x="130" y="590.5688">Auslieferungs-Collection Bundle</text><text fill="#000000" font-family="Arial" font-size="13" lengthAdjust="spacing" textLength="187" x="130" y="605.5176">(List.emptyReason = notstarted)</text><text fill="#000000" font-family="Arial" font-size="13" lengthAdjust="spacing" textLength="42" x="130" y="620.4663">+ ETag</text><line style="stroke:#111827;stroke-width:1.0;stroke-dasharray:2.0,2.0;" x1="68" x2="580" y1="634.2212" y2="634.2212"/><text fill="#000000" font-family="Arial" font-size="14" font-weight="bold" lengthAdjust="spacing" textLength="223" x="73" y="647.353">[ja: Medikationsplan persistiert]</text><rect fill="none" height="42.1973" rx="5" ry="5" style="stroke:#000000;stroke-width:1.5;" width="320" x="75" y="651.3198"/><path d="M80,651.3198 L140,651.3198 L140,659.3198 L130,669.3198 L75,669.3198 L75,656.3198 A5,5 0 0 1 80,651.3198 " fill="#EEEEEE" style="stroke:#000000;stroke-width:2.0;"/><text fill="#000000" font-family="Arial" font-size="14" font-weight="bold" lengthAdjust="spacing" textLength="20" x="88" y="666.4517">ref</text><text fill="#000000" font-family="Arial" font-size="14" lengthAdjust="spacing" textLength="155" x="157.5" y="686.4517">Siehe Ablauf Plan-Read.</text><!--SRC=[XLHjZzf64Fw-ls8AbTgg9R9DWFD9j38vNnhb1GJqIuLqMl2OssBMP7UTorsK_zvP0-UrpIaB7xmppyuyysg4oH3UIM44pm2LDfXb1XLyn4Jik16vr8UCIyP-qJiX3rpnFV2DoTN2FD9B_e0wtoDZbNQTgmJLcppB5NIzyhXQljbjLLx8v8H81_Rd8FGzJ_878RUGyaoZepazKvBu-QxH15DUPEOsb-OJtoDq8aNXT2uZ5k89mNzzMVaIxRyV3wWo8NSE88ul0VwHIVc1BVgJ_EkC9ucDBF3gyecRiq5vt9JAt21yOm2JPlRGmq7gzRg9duGuj0ZNqjKw7F31itHvBpOxYLg3JxAvaqsFxcTkregJ2j_thu8HoHQDkdnt6MhyNA3S75dEk39Y8mvScak1rG6jVYXF7TIkJ4jzhcfDuQGR858gVsW6LGhhUIb5bpm-Auw- -YHwIymFjHYVBHzLhNfX6fJHEIyhzu5Dwa_KZhPztam_JETtRs-YEn_eTFt1qBiAhhmBWA04XCEXDxff0MRHybtyQMajXCD9yBe5Y6PJA4_NkmtZcq7O1CGVuvkxsuW068w2Vh1Ece2xUVnlF5j2TvFqH_s0Xyqmfk-XvYCOD4tCvzDv2OZ3aTyF-ZG0vPw1OmQuXWvzWTzn4yCELR41QMTPcXQAFRh0RTIfXq0s2vFBOhz6nTXu335jl3tFn1Orp6ZFzUR84nYF6JkwxVrvDdiDi-bY2J_RRTXJXBBqn1TEatc4khHOER7v5ppHPz5Q5Iaj6jrSh9ez5GecoDKQXIdabg5Coe5dbODpPFLOpbANO_nLQ2DGKJQ415f9-dH7jP8Drt-HXynK1PBqv1fszc43wHe2HjrxqRLwmc9h84DKs3AnaX_80Em5CTiVp2FbMUSInj2XMBMXCcBIUS7ohFBU2gAtaZHQ6Mwi12OqQHd-W61Kw4nWYegohLzuJ_-gX2SB97kFjcENYkgMvcfVqh3UL5fESYOszw_i_Lp26f6o4wuRxblEL_9NcwbNzInLIVfj9N-7UCctbcE2pHvXZ25jvzfK_SUlVrXHXQdJhtzK8Iy4tYD4wunJ0p-Fo3bAUiQOm-BOxQHXx7y0]--></g></svg>