<svg xmlns="http://www.w3.org/2000/svg" xmlns:xlink="http://www.w3.org/1999/xlink" contentStyleType="text/css" data-diagram-type="SEQUENCE" height="920px" preserveAspectRatio="none" style="width:726px;height:920px;background:#F5F5F5;" version="1.1" viewBox="0 0 726 920" width="726px" zoomAndPan="magnify"><?plantuml 1.2026.7beta1?><defs><linearGradient id="g4mumrg3kvwq00" x1="50%" x2="50%" y1="0%" y2="100%"><stop offset="0%" stop-color="#E0E5F0"/><stop offset="100%" stop-color="#D1D9E6"/></linearGradient><filter height="300%" id="f4mumrg3kvwq0" width="300%" x="-1" y="-1"><feGaussianBlur result="blurOut" stdDeviation="2"/><feColorMatrix in="blurOut" result="blurOut2" type="matrix" values="0 0 0 0 0 0 0 0 0 0 0 0 0 0 0 0 0 0 .4 0"/><feOffset dx="4" dy="4" in="blurOut2" result="blurOut3"/><feBlend in="SourceGraphic" in2="blurOut3" mode="normal"/></filter></defs><g><rect fill="#F5F5F5" height="920" style="stroke:none;stroke-width:1;" width="726" x="0" y="0"/><g class="title" data-source-line="1"><text fill="#000000" font-family="'Arial'" font-size="14" font-weight="700" lengthAdjust="spacing" textLength="539.0137" x="90.282" y="27.9951">Geplante Abgabe f&#252;r bestehende Medikationsplaneintr&#228;ge erstellen</text><text fill="#000000" font-family="'Arial'" font-size="14" font-weight="700" lengthAdjust="spacing" textLength="497.6836" x="110.947" y="44.292">Variante A: Vorab-Ermittlung des GroupIdentifiers (Normalfall)</text></g><g><title>GDA 1</title><rect fill="#3588A7" fill-opacity="0.29804" height="628.6797" style="stroke:#181818;stroke-width:1;" width="10" x="171.2817" y="144.8906"/></g><g><title>e-Med FA</title><rect fill="#A14C37" fill-opacity="0.47059" height="126.8594" style="stroke:#181818;stroke-width:1;" width="10" x="402.6206" y="357.8047"/></g><g><title>e-Med FA</title><rect fill="#A14C37" fill-opacity="0.47059" height="84.7266" style="stroke:#181818;stroke-width:1;" width="10" x="402.6206" y="688.8438"/></g><g><title>e-Rezept</title><rect fill="#F5BD2F" fill-opacity="0.46667" height="29.1328" style="stroke:#181818;stroke-width:1;" width="10" x="657.4058" y="612.2813"/></g><rect fill="none" height="249.3125" rx="5" ry="5" style="stroke:#111827;stroke-width:2;" width="701.5776" x="9" y="571.5547"/><g class="participant-lifeline" data-entity-uid="part1" data-qualified-name="GDA_1" data-source-line="49" id="part1-lifeline"><g><title>GDA 1</title><rect fill="#000000" fill-opacity="0.00000" height="702.9766" width="8" x="172.2817" y="134.8906"/><line style="stroke:#181818;stroke-width:0.5;stroke-dasharray:5,5;" x1="176" x2="176" y1="134.8906" y2="837.8672"/></g></g><g class="participant-lifeline" data-entity-uid="part2" data-qualified-name="eMed_FA" data-source-line="50" id="part2-lifeline"><g><title>e-Med FA</title><rect fill="#000000" fill-opacity="0.00000" height="702.9766" width="8" x="403.6206" y="134.8906"/><line style="stroke:#181818;stroke-width:0.5;stroke-dasharray:5,5;" x1="406.9585" x2="406.9585" y1="134.8906" y2="837.8672"/></g></g><g class="participant-lifeline" data-entity-uid="part3" data-qualified-name="e_Rezept" data-source-line="51" id="part3-lifeline"><g><title>e-Rezept</title><rect fill="#000000" fill-opacity="0.00000" height="702.9766" width="8" x="658.4058" y="134.8906"/><line style="stroke:#181818;stroke-width:0.5;stroke-dasharray:5,5;" x1="662.2339" x2="662.2339" y1="134.8906" y2="837.8672"/></g></g><g class="participant participant-head" data-entity-uid="part1" data-qualified-name="GDA_1" data-source-line="49" id="part1-head"><text fill="#000000" font-family="'Arial'" font-size="14" lengthAdjust="spacing" textLength="44.5635" x="151" y="131.5889">GDA 1</text><ellipse cx="176.2817" cy="67.0938" fill="#3588A7" fill-opacity="0.29804" rx="8" ry="8" style="stroke:#181818;stroke-width:0.5;"/><path d="M176.2817,75.0938 L176.2817,102.0938 M163.2817,83.0938 L189.2817,83.0938 M176.2817,102.0938 L163.2817,117.0938 M176.2817,102.0938 L189.2817,117.0938" fill="none" style="stroke:#181818;stroke-width:0.5;"/></g><g class="participant participant-tail" data-entity-uid="part1" data-qualified-name="GDA_1" data-source-line="49" id="part1-tail"><text fill="#000000" font-family="'Arial'" font-size="14" lengthAdjust="spacing" textLength="44.5635" x="151" y="849.8623">GDA 1</text><ellipse cx="176.2817" cy="861.6641" fill="#3588A7" fill-opacity="0.29804" rx="8" ry="8" style="stroke:#181818;stroke-width:0.5;"/><path d="M176.2817,869.6641 L176.2817,896.6641 M163.2817,877.6641 L189.2817,877.6641 M176.2817,896.6641 L163.2817,911.6641 M176.2817,896.6641 L189.2817,911.6641" fill="none" style="stroke:#181818;stroke-width:0.5;"/></g><g class="participant participant-head" data-entity-uid="part2" data-qualified-name="eMed_FA" data-source-line="50" id="part2-head"><rect fill="#A14C37" fill-opacity="0.47059" height="30.2969" rx="5" ry="5" style="stroke:#555555;stroke-width:0.5;" width="79.3242" x="367.9585" y="103.5938"/><text fill="#000000" font-family="'Arial'" font-size="14" lengthAdjust="spacing" textLength="65.3242" x="374.9585" y="123.5889">e-Med FA</text></g><g class="participant participant-tail" data-entity-uid="part2" data-qualified-name="eMed_FA" data-source-line="50" id="part2-tail"><rect fill="#A14C37" fill-opacity="0.47059" height="30.2969" rx="5" ry="5" style="stroke:#555555;stroke-width:0.5;" width="79.3242" x="367.9585" y="836.8672"/><text fill="#000000" font-family="'Arial'" font-size="14" lengthAdjust="spacing" textLength="65.3242" x="374.9585" y="856.8623">e-Med FA</text></g><g class="participant participant-head" data-entity-uid="part3" data-qualified-name="e_Rezept" data-source-line="51" id="part3-head"><rect fill="#F5BD2F" fill-opacity="0.46667" height="30.2969" rx="5" ry="5" style="stroke:#555555;stroke-width:0.5;" width="76.3438" x="624.2339" y="103.5938"/><text fill="#000000" font-family="'Arial'" font-size="14" lengthAdjust="spacing" textLength="62.3438" x="631.2339" y="123.5889">e-Rezept</text></g><g class="participant participant-tail" data-entity-uid="part3" data-qualified-name="e_Rezept" data-source-line="51" id="part3-tail"><rect fill="#F5BD2F" fill-opacity="0.46667" height="30.2969" rx="5" ry="5" style="stroke:#555555;stroke-width:0.5;" width="76.3438" x="624.2339" y="836.8672"/><text fill="#000000" font-family="'Arial'" font-size="14" lengthAdjust="spacing" textLength="62.3438" x="631.2339" y="856.8623">e-Rezept</text></g><g><title>GDA 1</title><rect fill="#3588A7" fill-opacity="0.29804" height="628.6797" style="stroke:#181818;stroke-width:1;" width="10" x="171.2817" y="144.8906"/></g><g><title>e-Med FA</title><rect fill="#A14C37" fill-opacity="0.47059" height="126.8594" style="stroke:#181818;stroke-width:1;" width="10" x="402.6206" y="357.8047"/></g><g><title>e-Med FA</title><rect fill="#A14C37" fill-opacity="0.47059" height="84.7266" style="stroke:#181818;stroke-width:1;" width="10" x="402.6206" y="688.8438"/></g><g><title>e-Rezept</title><rect fill="#F5BD2F" fill-opacity="0.46667" height="29.1328" style="stroke:#181818;stroke-width:1;" width="10" x="657.4058" y="612.2813"/></g><rect fill="#EEEEEE" height="3" rx="5" ry="5" style="stroke:#EEEEEE;stroke-width:1;" width="720.5776" x="0" y="166.0391"/><line style="stroke:#000000;stroke-width:1;" x1="0" x2="720.5776" y1="166.0391" y2="166.0391"/><line style="stroke:#000000;stroke-width:1;" x1="0" x2="720.5776" y1="169.0391" y2="169.0391"/><rect fill="#EEEEEE" height="24.2969" rx="5" ry="5" style="stroke:#000000;stroke-width:2;" width="216.2891" x="252.1443" y="154.8906"/><text fill="#000000" font-family="'Arial'" font-size="14" font-weight="700" lengthAdjust="spacing" textLength="197.415" x="258.1443" y="171.8857">Medikationsplan abrufen</text><rect fill="none" height="42.5938" rx="5" ry="5" style="stroke:#000000;stroke-width:1.5;" width="302.2827" x="148" y="189.1875"/><path d="M153,189.1875 L215,189.1875 L215,197.1875 L205,207.1875 L148,207.1875 L148,194.1875 A5,5 0 0 1 153,189.1875" fill="#EEEEEE" style="stroke:#000000;stroke-width:2;"/><text fill="#000000" font-family="'Arial'" font-size="14" font-weight="700" lengthAdjust="spacing" textLength="22.4902" x="161" y="204.1826">ref</text><a href="interactions.html#sequenzdiagramm-plan-read" target="_top" title="interactions.html#sequenzdiagramm-plan-read" xlink:actuate="onRequest" xlink:href="interactions.html#sequenzdiagramm-plan-read" xlink:show="new" xlink:title="interactions.html#sequenzdiagramm-plan-read" xlink:type="simple"><text fill="#0000EE" font-family="'Arial'" font-size="14" lengthAdjust="spacing" textLength="70.6426" x="263.8201" y="224.1826">Plan-Read</text></a><path d="M47,246.7813 L47,278.7813 A5,5 0 0 0 52,283.7813 L297,283.7813 A5,5 0 0 0 302,278.7813 L302,251.7813 L292,241.7813 L52,241.7813 A5,5 0 0 0 47,246.7813" fill="url(#g4mumrg3kvwq00)" filter="url(#f4mumrg3kvwq0)" style="stroke:#8B95A5;stroke-width:1;"/><path d="M292,241.7813 L292,249.2813 A2.5,2.5 0 0 0 294.5,251.7813 L302,251.7813 L292,241.7813" fill="url(#g4mumrg3kvwq00)" style="stroke:#8B95A5;stroke-width:1;"/><text fill="#111827" font-family="'Arial'" font-size="14" lengthAdjust="spacing" textLength="195.8018" x="53" y="259.7764">GDA erh&#228;lt Medikationsplan</text><text fill="#111827" font-family="'Arial'" font-size="14" lengthAdjust="spacing" textLength="234.377" x="53" y="276.0732">(Auslieferungs-Collection-Bundle)</text><rect fill="#EEEEEE" height="3" rx="5" ry="5" style="stroke:#EEEEEE;stroke-width:1;" width="720.5776" x="0" y="313.5234"/><line style="stroke:#000000;stroke-width:1;" x1="0" x2="720.5776" y1="313.5234" y2="313.5234"/><line style="stroke:#000000;stroke-width:1;" x1="0" x2="720.5776" y1="316.5234" y2="316.5234"/><rect fill="#EEEEEE" height="24.2969" rx="5" ry="5" style="stroke:#000000;stroke-width:2;" width="379.3398" x="170.6189" y="302.375"/><text fill="#000000" font-family="'Arial'" font-size="14" font-style="italic" font-weight="700" lengthAdjust="spacing" textLength="146.0908" x="176.6189" y="319.3701">Geplante Abgaben</text><text fill="#000000" font-family="'Arial'" font-size="14" font-weight="700" lengthAdjust="spacing" textLength="209.501" x="327.5837" y="319.3701">vorbereiten und schreiben</text><g class="message" data-entity-1="part1" data-entity-2="part2" data-source-line="70" id="msg1"><polygon fill="#111827" points="390.6206,353.8047,400.6206,357.8047,390.6206,361.8047,394.6206,357.8047" style="stroke:#111827;stroke-width:1;stroke-linejoin:miter;stroke-miterlimit:10;"/><line style="stroke:#111827;stroke-width:1;" x1="181.2817" x2="396.6206" y1="357.8047" y2="357.8047"/><text fill="#000000" font-family="'Arial'" font-size="13" font-weight="700" lengthAdjust="spacing" textLength="9.0454" x="188.2817" y="352.7388">1</text><text fill="#000000" font-family="'Arial'" font-size="13" lengthAdjust="spacing" textLength="189.2935" x="201.3271" y="352.7388">POST $groupidentifier-create&#8203;</text></g><path d="M65,375.8047 L65,407.8047 A5,5 0 0 0 70,412.8047 L278,412.8047 A5,5 0 0 0 283,407.8047 L283,380.8047 L273,370.8047 L70,370.8047 A5,5 0 0 0 65,375.8047" fill="url(#g4mumrg3kvwq00)" filter="url(#f4mumrg3kvwq0)" style="stroke:#8B95A5;stroke-width:1;"/><path d="M273,370.8047 L273,378.3047 A2.5,2.5 0 0 0 275.5,380.8047 L283,380.8047 L273,370.8047" fill="url(#g4mumrg3kvwq00)" style="stroke:#8B95A5;stroke-width:1;"/><text fill="#111827" font-family="'Arial'" font-size="14" lengthAdjust="spacing" textLength="177.7002" x="71" y="388.7998">e-Med GroupIdentifier f&#252;r</text><text fill="#111827" font-family="'Arial'" font-size="14" lengthAdjust="spacing" textLength="197.0596" x="71" y="405.0967">"Rezeptklammer" anfordern</text><g class="message" data-entity-1="part2" data-entity-2="part2" data-source-line="78" id="msg2"><line style="stroke:#111827;stroke-width:1;" x1="412.6206" x2="454.6206" y1="442.5313" y2="442.5313"/><line style="stroke:#111827;stroke-width:1;" x1="454.6206" x2="454.6206" y1="442.5313" y2="455.5313"/><line style="stroke:#111827;stroke-width:1;" x1="413.6206" x2="454.6206" y1="455.5313" y2="455.5313"/><polygon fill="#111827" points="423.6206,451.5313,413.6206,455.5313,423.6206,459.5313,419.6206,455.5313" style="stroke:#111827;stroke-width:1;stroke-linejoin:miter;stroke-miterlimit:10;"/><text fill="#000000" font-family="'Arial'" font-size="13" font-weight="700" lengthAdjust="spacing" textLength="9.0454" x="419.6206" y="437.4653">2</text><text fill="#000000" font-family="'Arial'" font-size="13" lengthAdjust="spacing" textLength="207.7397" x="432.666" y="437.4653">e-Med GroupIdentifier erzeugen</text></g><g class="message" data-entity-1="part2" data-entity-2="part1" data-source-line="79" id="msg3"><polygon fill="#111827" points="192.2817,480.6641,182.2817,484.6641,192.2817,488.6641,188.2817,484.6641" style="stroke:#111827;stroke-width:1;stroke-linejoin:miter;stroke-miterlimit:10;"/><line style="stroke:#111827;stroke-width:1;" x1="186.2817" x2="406.6206" y1="484.6641" y2="484.6641"/><text fill="#000000" font-family="'Arial'" font-size="13" font-weight="700" lengthAdjust="spacing" textLength="9.0454" x="198.2817" y="479.5981">3</text><text fill="#000000" font-family="'Arial'" font-size="13" lengthAdjust="spacing" textLength="142.7144" x="211.3271" y="479.5981">e-Med GroupIdentifier</text></g><path d="M16,502.6641 L16,550.6641 A5,5 0 0 0 21,555.6641 L328,555.6641 A5,5 0 0 0 333,550.6641 L333,507.6641 L323,497.6641 L21,497.6641 A5,5 0 0 0 16,502.6641" fill="url(#g4mumrg3kvwq00)" filter="url(#f4mumrg3kvwq0)" style="stroke:#8B95A5;stroke-width:1;"/><path d="M323,497.6641 L323,505.1641 A2.5,2.5 0 0 0 325.5,507.6641 L333,507.6641 L323,497.6641" fill="url(#g4mumrg3kvwq00)" style="stroke:#8B95A5;stroke-width:1;"/><text fill="#111827" font-family="'Arial'" font-size="14" lengthAdjust="spacing" textLength="57.8799" x="22" y="515.6592">Erstellte</text><text fill="#111827" font-family="'Arial'" font-size="14" font-style="italic" lengthAdjust="spacing" textLength="130.5459" x="84.3301" y="515.6592">Geplante Abgaben</text><text fill="#111827" font-family="'Arial'" font-size="14" lengthAdjust="spacing" textLength="94.2471" x="219.3262" y="515.6592">referenzieren</text><text fill="#111827" font-family="'Arial'" font-size="14" lengthAdjust="spacing" textLength="287.0342" x="22" y="531.9561">zugeh&#246;rige Medikationsplaneintr&#228;ge und</text><text fill="#111827" font-family="'Arial'" font-size="14" lengthAdjust="spacing" textLength="225.4355" x="22" y="548.2529">enthalten e-Med GroupIdentifier</text><path d="M14,571.5547 L80.373,571.5547 L80.373,579.8516 L70.373,589.8516 L9,589.8516 L9,576.5547 A5,5 0 0 1 14,571.5547" fill="#EEF2FF" style="stroke:#111827;stroke-width:1.5;"/><rect fill="none" height="249.3125" rx="5" ry="5" style="stroke:#111827;stroke-width:2;" width="701.5776" x="9" y="571.5547"/><text fill="#000000" font-family="'Arial'" font-size="14" font-weight="700" lengthAdjust="spacing" textLength="26.373" x="24" y="585.5498">par</text><text fill="#000000" font-family="'Arial'" font-size="14" font-weight="700" lengthAdjust="spacing" textLength="168.1504" x="95.373" y="586.5498">[Erstellung e-Rezept]</text><g class="message" data-entity-1="part1" data-entity-2="part3" data-source-line="90" id="msg4"><polygon fill="#111827" points="645.4058,608.2813,655.4058,612.2813,645.4058,616.2813,649.4058,612.2813" style="stroke:#111827;stroke-width:1;stroke-linejoin:miter;stroke-miterlimit:10;"/><line style="stroke:#111827;stroke-width:1;" x1="181.2817" x2="651.4058" y1="612.2813" y2="612.2813"/><text fill="#000000" font-family="'Arial'" font-size="13" font-weight="700" lengthAdjust="spacing" textLength="9.0454" x="188.2817" y="607.2153">4</text><text fill="#000000" font-family="'Arial'" font-size="13" lengthAdjust="spacing" textLength="169.5713" x="201.3271" y="607.2153">Trigger e-Rezept erstellen</text></g><g class="message" data-entity-1="part3" data-entity-2="part1" data-source-line="92" id="msg5"><polygon fill="#111827" points="192.2817,637.4141,182.2817,641.4141,192.2817,645.4141,188.2817,641.4141" style="stroke:#111827;stroke-width:1;stroke-linejoin:miter;stroke-miterlimit:10;"/><line style="stroke:#111827;stroke-width:1;stroke-dasharray:2,2;" x1="186.2817" x2="661.4058" y1="641.4141" y2="641.4141"/><text fill="#000000" font-family="'Arial'" font-size="13" font-weight="700" lengthAdjust="spacing" textLength="9.0454" x="198.2817" y="636.3481">5</text><text fill="#000000" font-family="'Arial'" font-size="13" lengthAdjust="spacing" textLength="18.7573" x="211.3271" y="636.3481">OK</text></g><line style="stroke:#111827;stroke-width:1;stroke-dasharray:2,2;" x1="9" x2="710.5776" y1="650.4141" y2="650.4141"/><text fill="#000000" font-family="'Arial'" font-size="14" font-weight="700" lengthAdjust="spacing" textLength="192.6436" x="14" y="663.4092">[gleichzeitige Erstellung</text><text fill="#000000" font-family="'Arial'" font-size="14" font-style="italic" font-weight="700" lengthAdjust="spacing" textLength="136.124" x="211.5176" y="663.4092">Geplante Abgabe</text><text fill="#000000" font-family="'Arial'" font-size="14" font-weight="700" lengthAdjust="spacing" textLength="6.3984" x="347.6416" y="663.4092">]</text><g class="message" data-entity-1="part1" data-entity-2="part2" data-source-line="97" id="msg6"><polygon fill="#111827" points="390.6206,684.8438,400.6206,688.8438,390.6206,692.8438,394.6206,688.8438" style="stroke:#111827;stroke-width:1;stroke-linejoin:miter;stroke-miterlimit:10;"/><line style="stroke:#111827;stroke-width:1;" x1="181.2817" x2="396.6206" y1="688.8438" y2="688.8438"/><text fill="#000000" font-family="'Arial'" font-size="13" font-weight="700" lengthAdjust="spacing" textLength="9.0454" x="188.2817" y="683.7778">6</text><text fill="#000000" font-family="'Arial'" font-size="13" lengthAdjust="spacing" textLength="161.6685" x="201.3271" y="683.7778">POST $prescription-write</text></g><path d="M19,706.8438 L19,738.8438 A5,5 0 0 0 24,743.8438 L325,743.8438 A5,5 0 0 0 330,738.8438 L330,711.8438 L320,701.8438 L24,701.8438 A5,5 0 0 0 19,706.8438" fill="url(#g4mumrg3kvwq00)" filter="url(#f4mumrg3kvwq0)" style="stroke:#8B95A5;stroke-width:1;"/><path d="M320,701.8438 L320,709.3438 A2.5,2.5 0 0 0 322.5,711.8438 L330,711.8438 L320,701.8438" fill="url(#g4mumrg3kvwq00)" style="stroke:#8B95A5;stroke-width:1;"/><text fill="#111827" font-family="'Arial'" font-size="14" lengthAdjust="spacing" textLength="239.9209" x="25" y="719.8389">Transaction Bundle mit Geplanten</text><text fill="#111827" font-family="'Arial'" font-size="14" lengthAdjust="spacing" textLength="290.2266" x="25" y="736.1357">Abgaben an Fachanwendung &#252;bermitteln</text><g class="message" data-entity-1="part2" data-entity-2="part1" data-source-line="104" id="msg7"><polygon fill="#111827" points="187.2817,769.5703,177.2817,773.5703,187.2817,777.5703,183.2817,773.5703" style="stroke:#111827;stroke-width:1;stroke-linejoin:miter;stroke-miterlimit:10;"/><line style="stroke:#111827;stroke-width:1;stroke-dasharray:2,2;" x1="181.2817" x2="406.6206" y1="773.5703" y2="773.5703"/><text fill="#000000" font-family="'Arial'" font-size="13" font-weight="700" lengthAdjust="spacing" textLength="9.0454" x="193.2817" y="768.5044">7</text><text fill="#000000" font-family="'Arial'" font-size="13" lengthAdjust="spacing" textLength="18.7573" x="206.3271" y="768.5044">OK</text></g><path d="M303,791.5703 L303,807.5703 A5,5 0 0 0 308,812.5703 L503,812.5703 A5,5 0 0 0 508,807.5703 L508,796.5703 L498,786.5703 L308,786.5703 A5,5 0 0 0 303,791.5703" fill="url(#g4mumrg3kvwq00)" filter="url(#f4mumrg3kvwq0)" style="stroke:#8B95A5;stroke-width:1;"/><path d="M498,786.5703 L498,794.0703 A2.5,2.5 0 0 0 500.5,796.5703 L508,796.5703 L498,786.5703" fill="url(#g4mumrg3kvwq00)" style="stroke:#8B95A5;stroke-width:1;"/><text fill="#111827" font-family="'Arial'" font-size="14" font-style="italic" lengthAdjust="spacing" textLength="130.5459" x="309" y="804.5654">Geplante Abgaben</text><text fill="#111827" font-family="'Arial'" font-size="14" lengthAdjust="spacing" textLength="49.0342" x="443.9961" y="804.5654">erstellt</text><?plantuml-src VLRTRk965BwVfpY5NknAfOq11n9j8f5Tagws6n2XUz7j2WtsCOmOnknuI5ggIhtlQ-mpz6hlU9C-IS_OneoDKo95zlcP-SvtlZDZ8un4kCEDvCeW3EOBFaU8zbyrp34nk4GL8hp7KAou4R5AR20APVJ-om81DSL8YUfNzO5haQrn2HzYpUUjeLuBO-HMBI341EvqlDsy3L4P4GbAX1VtiLvp6N4fNpAMh8JQSCtNC8zrYFfrB6CDpRFqvtfvi5hGKYhC8oBV_ZaHoPA7yPEWRMdf11rFdgOLQl3SHKEC-5QQsrYPUxv6Q0oe6DceZtWGEmIlM-zy3lQFlszGIw5MJi1mM1VmCp5k7_04_atysvY7eQsiVLQstxYS-UdFfLJ5r9W_6C1DbJqyGpywQpL3Bxp0SnlXhjIVN_ZSBwpJfGXM2fC4FB9D73Rxz7x0PbTngF0yhz_kaUsXw8lHMsH_kW0J_Bn55MGWnrmR4OWDoQckhdB0YHpINpdej34dxaDJImw7RO21rl5JjQRKMAObDTNjM3YolJfaIcUYL6EnSkOwQHT6xRGw9_EuVTkI-WsfqQhdzUYdqMHszsOmyw3PyVjztki6DTusD0FUlmYu7rMyuy7qxV1-2atUvdZUxRSh_i5u1Crk5FR3jXzMVCFtmpUpsm7bUjsWq-lrg_xPPFZBS3orypiFsr6lLmaOlJlqidrUpPrCHXDezYBFz_nEXp4U628dAvKdqA0dy1ek0snpx2eWdMSMcmt55ht0xQ1HnbsEdqrmXnkJ9sGlZKeXX69hOhLTpr4pTdLLFJI1p_KsGWLNLobWySXf9ZFCBb2D4SIFc9VpNG7s4Zv-f7CNjSsbDRzVchLiPdEp2mLVq1YjMtQdbaOUmjW-JUZfqoV6M7e079TbbY7Ko_qNQKw0iXU3RI85HgZfx4vQ93s9wQQj6rAYn9UCReNqJ4aBVIMkAnU8UlM3k8R7M1CNA0mLJNcG14jwc-SKC9RLthe-b7W9uz735BwrWj-8ug9e1LIFmN__-XjEwyZQLxbQilkBDR96hIGHWxe1N4Nfl2W7Vj680yrb5HoiBiZwBL7lSBj0vQQa49z9O25MzpwjRfXThsHyZcDjkqG24FO_i1r1MEx_qMBnFvSszO8OC4ikRMVgqHqPea6078UzoG_oP_OCAXgO3yWbJ6dhXQKZ3pj-8L3yiU33G5L628wUrf6_qJjok7JbCMG5O4Xt92maYc2v8wtPoXsufxnPsihWo-hRQ4m2BJQftfyqgRU4l5Oc0DNE0J71LPBDAcHZ0_GvL7ngMJxoHf8muPO7IwwUY7QBUl-L1iT-FA6qSKKpg5me89GOIZqraYeP3z2EO8zXpmaixvznOLXr_0S0?></g></svg>