<svg xmlns="http://www.w3.org/2000/svg" xmlns:xlink="http://www.w3.org/1999/xlink" contentStyleType="text/css" data-diagram-type="SEQUENCE" height="1772px" preserveAspectRatio="none" style="width:1411px;height:1772px;background:#F5F5F5;" version="1.1" viewBox="0 0 1411 1772" width="1411px" zoomAndPan="magnify"><?plantuml 1.2026.4beta2?><defs><linearGradient id="gjc534dtcqyti0" x1="50%" x2="50%" y1="0%" y2="100%"><stop offset="0%" stop-color="#E0E5F0"/><stop offset="100%" stop-color="#D1D9E6"/></linearGradient><filter height="300%" id="fjc534dtcqyti" width="300%" x="-1" y="-1"><feGaussianBlur result="blurOut" stdDeviation="2"/><feColorMatrix in="blurOut" result="blurOut2" type="matrix" values="0 0 0 0 0 0 0 0 0 0 0 0 0 0 0 0 0 0 .4 0"/><feOffset dx="4" dy="4" in="blurOut2" result="blurOut3"/><feBlend in="SourceGraphic" in2="blurOut3" mode="normal"/></filter></defs><g><rect fill="#F5F5F5" height="1772" style="stroke:none;stroke-width:1;" width="1411" x="0" y="0"/><g class="title" data-source-line="1"><text fill="#000000" font-family="'Arial'" font-size="14" font-weight="700" lengthAdjust="spacing" textLength="679.3896" x="362.7134" y="27.9951">Geplante Abgabe aus bestehenden Medikationsplaneintr&#228;gen (unver&#228;ndert) erstellen</text></g><rect fill="#9FBAC4" height="1722.4453" rx="5" ry="5" style="stroke:#181818;stroke-width:0.5;" width="74.0586" x="165" y="43.2969"/><text fill="#000000" font-family="'Arial'" font-size="14" font-weight="700" lengthAdjust="spacing" textLength="4.874" x="168" y="56.292">&#160;</text><text fill="#000000" font-family="'Arial'" font-size="14" font-weight="700" lengthAdjust="spacing" textLength="48.5625" x="177.748" y="72.5889">GDA 1</text><rect fill="#C48778" height="1722.4453" rx="5" ry="5" style="stroke:#181818;stroke-width:0.5;" width="256.9268" x="557.2476" y="43.2969"/><text fill="#000000" font-family="'Arial'" font-size="14" font-weight="700" lengthAdjust="spacing" textLength="4.874" x="560.2476" y="56.292">&#160;</text><text fill="#000000" font-family="'Arial'" font-size="14" font-weight="700" lengthAdjust="spacing" textLength="182.6904" x="594.3657" y="72.5889">e-Med Fachanwendung</text><rect fill="#CBB272" height="1722.4453" rx="5" ry="5" style="stroke:#181818;stroke-width:0.5;" width="105.1826" x="1177.0654" y="43.2969"/><text fill="#000000" font-family="'Arial'" font-size="14" font-weight="700" lengthAdjust="spacing" textLength="4.874" x="1180.0654" y="56.292">&#160;</text><text fill="#000000" font-family="'Arial'" font-size="14" font-weight="700" lengthAdjust="spacing" textLength="69.9385" x="1199.5615" y="72.5889">e-Rezept</text><g><title>GDA 1</title><rect fill="#FFFFFF" height="1511.2578" style="stroke:#181818;stroke-width:1;" width="10" x="197.0293" y="166.1875"/></g><g><title>e-Med FA</title><rect fill="#FFFFFF" height="126.8594" style="stroke:#181818;stroke-width:1;" width="10" x="680.7109" y="598.1172"/></g><g><title>e-Med FA</title><rect fill="#FFFFFF" height="615.8906" style="stroke:#181818;stroke-width:1;" width="10" x="680.7109" y="1038.5547"/></g><g><title>e-Rezept</title><rect fill="#FFFFFF" height="184.5859" style="stroke:#181818;stroke-width:1;" width="10" x="1224.6567" y="809.7031"/></g><rect fill="none" height="805.4453" rx="5" ry="5" style="stroke:#111827;stroke-width:2;" width="1327.397" x="68" y="864"/><rect fill="none" height="177.5859" rx="5" ry="5" style="stroke:#111827;stroke-width:2;" width="967.6885" x="166.7476" y="1151.2813"/><rect fill="none" height="177.5859" rx="5" ry="5" style="stroke:#111827;stroke-width:2;" width="967.6885" x="166.7476" y="1484.8594"/><g class="participant-lifeline" data-entity-uid="part1" data-qualified-name="GDA_1" data-source-line="43" id="part1-lifeline"><g><title>GDA 1</title><rect fill="#000000" fill-opacity="0.00000" height="1530.2578" width="8" x="198.0293" y="156.1875"/><line style="stroke:#181818;stroke-width:0.5;stroke-dasharray:5,5;" x1="201.7476" x2="201.7476" y1="156.1875" y2="1686.4453"/></g></g><g class="participant-lifeline" data-entity-uid="part2" data-qualified-name="eMed_FA" data-source-line="47" id="part2-lifeline"><g><title>e-Med FA</title><rect fill="#000000" fill-opacity="0.00000" height="1530.2578" width="8" x="681.7109" y="156.1875"/><line style="stroke:#181818;stroke-width:0.5;stroke-dasharray:5,5;" x1="685.0488" x2="685.0488" y1="156.1875" y2="1686.4453"/></g></g><g class="participant-lifeline" data-entity-uid="part3" data-qualified-name="e_Rezept" data-source-line="51" id="part3-lifeline"><g><title>e-Rezept</title><rect fill="#000000" fill-opacity="0.00000" height="1530.2578" width="8" x="1225.6567" y="156.1875"/><line style="stroke:#181818;stroke-width:0.5;stroke-dasharray:5,5;" x1="1229.4849" x2="1229.4849" y1="156.1875" y2="1686.4453"/></g></g><g class="participant participant-head" data-entity-uid="part1" data-qualified-name="GDA_1" data-source-line="43" id="part1-head"><text fill="#000000" font-family="'Arial'" font-size="14" lengthAdjust="spacing" textLength="44.5635" x="176.7476" y="152.8857">GDA 1</text><ellipse cx="202.0293" cy="88.3906" fill="#E2E2F0" rx="8" ry="8" style="stroke:#181818;stroke-width:0.5;"/><path d="M202.0293,96.3906 L202.0293,123.3906 M189.0293,104.3906 L215.0293,104.3906 M202.0293,123.3906 L189.0293,138.3906 M202.0293,123.3906 L215.0293,138.3906" fill="none" style="stroke:#181818;stroke-width:0.5;"/></g><g class="participant participant-tail" data-entity-uid="part1" data-qualified-name="GDA_1" data-source-line="43" id="part1-tail"><text fill="#000000" font-family="'Arial'" font-size="14" lengthAdjust="spacing" textLength="44.5635" x="176.7476" y="1698.4404">GDA 1</text><ellipse cx="202.0293" cy="1710.2422" fill="#E2E2F0" rx="8" ry="8" style="stroke:#181818;stroke-width:0.5;"/><path d="M202.0293,1718.2422 L202.0293,1745.2422 M189.0293,1726.2422 L215.0293,1726.2422 M202.0293,1745.2422 L189.0293,1760.2422 M202.0293,1745.2422 L215.0293,1760.2422" fill="none" style="stroke:#181818;stroke-width:0.5;"/></g><g class="participant participant-head" data-entity-uid="part2" data-qualified-name="eMed_FA" data-source-line="47" id="part2-head"><rect fill="#FFFFFF" height="30.2969" rx="5" ry="5" style="stroke:#555555;stroke-width:0.5;" width="79.3242" x="646.0488" y="124.8906"/><text fill="#000000" font-family="'Arial'" font-size="14" lengthAdjust="spacing" textLength="65.3242" x="653.0488" y="144.8857">e-Med FA</text></g><g class="participant participant-tail" data-entity-uid="part2" data-qualified-name="eMed_FA" data-source-line="47" id="part2-tail"><rect fill="#FFFFFF" height="30.2969" rx="5" ry="5" style="stroke:#555555;stroke-width:0.5;" width="79.3242" x="646.0488" y="1685.4453"/><text fill="#000000" font-family="'Arial'" font-size="14" lengthAdjust="spacing" textLength="65.3242" x="653.0488" y="1705.4404">e-Med FA</text></g><g class="participant participant-head" data-entity-uid="part3" data-qualified-name="e_Rezept" data-source-line="51" id="part3-head"><rect fill="#FFFFFF" height="30.2969" rx="5" ry="5" style="stroke:#555555;stroke-width:0.5;" width="76.3438" x="1191.4849" y="124.8906"/><text fill="#000000" font-family="'Arial'" font-size="14" lengthAdjust="spacing" textLength="62.3438" x="1198.4849" y="144.8857">e-Rezept</text></g><g class="participant participant-tail" data-entity-uid="part3" data-qualified-name="e_Rezept" data-source-line="51" id="part3-tail"><rect fill="#FFFFFF" height="30.2969" rx="5" ry="5" style="stroke:#555555;stroke-width:0.5;" width="76.3438" x="1191.4849" y="1685.4453"/><text fill="#000000" font-family="'Arial'" font-size="14" lengthAdjust="spacing" textLength="62.3438" x="1198.4849" y="1705.4404">e-Rezept</text></g><g><title>GDA 1</title><rect fill="#FFFFFF" height="1511.2578" style="stroke:#181818;stroke-width:1;" width="10" x="197.0293" y="166.1875"/></g><g><title>e-Med FA</title><rect fill="#FFFFFF" height="126.8594" style="stroke:#181818;stroke-width:1;" width="10" x="680.7109" y="598.1172"/></g><g><title>e-Med FA</title><rect fill="#FFFFFF" height="615.8906" style="stroke:#181818;stroke-width:1;" width="10" x="680.7109" y="1038.5547"/></g><g><title>e-Rezept</title><rect fill="#FFFFFF" height="184.5859" style="stroke:#181818;stroke-width:1;" width="10" x="1224.6567" y="809.7031"/></g><rect fill="#EEEEEE" height="3" rx="5" ry="5" style="stroke:#EEEEEE;stroke-width:1;" width="1405.8164" x="0" y="187.3359"/><line style="stroke:#000000;stroke-width:1;" x1="0" x2="1405.8164" y1="187.3359" y2="187.3359"/><line style="stroke:#000000;stroke-width:1;" x1="0" x2="1405.8164" y1="190.3359" y2="190.3359"/><rect fill="#EEEEEE" height="24.2969" rx="5" ry="5" style="stroke:#000000;stroke-width:2;" width="216.2891" x="594.7637" y="176.1875"/><text fill="#000000" font-family="'Arial'" font-size="14" font-weight="700" lengthAdjust="spacing" textLength="197.415" x="600.7637" y="193.1826">Medikationsplan abrufen</text><rect fill="none" height="42.5938" rx="5" ry="5" style="stroke:#000000;stroke-width:1.5;" width="554.6255" x="173.7476" y="210.4844"/><path d="M178.7476,210.4844 L240.7476,210.4844 L240.7476,218.4844 L230.7476,228.4844 L173.7476,228.4844 L173.7476,215.4844 A5,5 0 0 1 178.7476,210.4844" fill="#EEEEEE" style="stroke:#000000;stroke-width:2;"/><text fill="#000000" font-family="'Arial'" font-size="14" font-weight="700" lengthAdjust="spacing" textLength="22.4902" x="186.7476" y="225.4795">ref</text><text fill="#000000" font-family="'Arial'" font-size="14" lengthAdjust="spacing" textLength="89.9951" x="406.0627" y="245.4795">$readtowrite</text><path d="M56,268.0781 L56,316.0781 A5,5 0 0 0 61,321.0781 L339,321.0781 A5,5 0 0 0 344,316.0781 L344,273.0781 L334,263.0781 L61,263.0781 A5,5 0 0 0 56,268.0781" fill="url(#gjc534dtcqyti0)" filter="url(#fjc534dtcqyti)" style="stroke:#8B95A5;stroke-width:1;"/><path d="M334,263.0781 L334,270.5781 A2.5,2.5 0 0 0 336.5,273.0781 L344,273.0781 L334,263.0781" fill="url(#gjc534dtcqyti0)" style="stroke:#8B95A5;stroke-width:1;"/><text fill="#111827" font-family="'Arial'" font-size="14" lengthAdjust="spacing" textLength="177.0576" x="62" y="281.0732">GDA erh&#228;lt den aktuellen</text><text fill="#111827" font-family="'Arial'" font-size="14" lengthAdjust="spacing" textLength="263.3613" x="62" y="297.3701">Medikationsplan im Collection Bundle</text><text fill="#111827" font-family="'Arial'" font-size="14" lengthAdjust="spacing" textLength="259.4102" x="62" y="313.667">(AtElgaEmedBundleMedikationsplan)</text><g class="message" data-entity-1="part1" data-entity-2="part1" data-source-line="68" id="msg1"><line style="stroke:#111827;stroke-width:1;" x1="207.0293" x2="249.0293" y1="366.2344" y2="366.2344"/><line style="stroke:#111827;stroke-width:1;" x1="249.0293" x2="249.0293" y1="366.2344" y2="379.2344"/><line style="stroke:#111827;stroke-width:1;" x1="208.0293" x2="249.0293" y1="379.2344" y2="379.2344"/><polygon fill="#111827" points="218.0293,375.2344,208.0293,379.2344,218.0293,383.2344,214.0293,379.2344" style="stroke:#111827;stroke-width:1;"/><text fill="#000000" font-family="'Arial'" font-size="13" font-weight="700" lengthAdjust="spacing" textLength="9.0454" x="214.0293" y="353.6021">1</text><text fill="#000000" font-family="'Arial'" font-size="13" lengthAdjust="spacing" textLength="173.7861" x="227.0747" y="346.0356">Geplante Abgabe erstellen</text><text fill="#000000" font-family="'Arial'" font-size="13" lengthAdjust="spacing" textLength="335.042" x="227.0747" y="361.1685">(AtElgaEmedMedicationRequestGeplanteAbgabe 1)</text></g><g class="message" data-entity-1="part1" data-entity-2="part1" data-source-line="69" id="msg2"><line style="stroke:#111827;stroke-width:1;" x1="207.0293" x2="249.0293" y1="423.5" y2="423.5"/><line style="stroke:#111827;stroke-width:1;" x1="249.0293" x2="249.0293" y1="423.5" y2="436.5"/><line style="stroke:#111827;stroke-width:1;" x1="208.0293" x2="249.0293" y1="436.5" y2="436.5"/><polygon fill="#111827" points="218.0293,432.5,208.0293,436.5,218.0293,440.5,214.0293,436.5" style="stroke:#111827;stroke-width:1;"/><text fill="#000000" font-family="'Arial'" font-size="13" font-weight="700" lengthAdjust="spacing" textLength="9.0454" x="214.0293" y="410.8677">2</text><text fill="#000000" font-family="'Arial'" font-size="13" lengthAdjust="spacing" textLength="173.7861" x="227.0747" y="403.3013">Geplante Abgabe erstellen</text><text fill="#000000" font-family="'Arial'" font-size="13" lengthAdjust="spacing" textLength="335.042" x="227.0747" y="418.4341">(AtElgaEmedMedicationRequestGeplanteAbgabe 2)</text></g><path d="M5,454.5 L5,519.5 A5,5 0 0 0 10,524.5 L392,524.5 A5,5 0 0 0 397,519.5 L397,459.5 L387,449.5 L10,449.5 A5,5 0 0 0 5,454.5" fill="url(#gjc534dtcqyti0)" filter="url(#fjc534dtcqyti)" style="stroke:#8B95A5;stroke-width:1;"/><path d="M387,449.5 L387,457 A2.5,2.5 0 0 0 389.5,459.5 L397,459.5 L387,449.5" fill="url(#gjc534dtcqyti0)" style="stroke:#8B95A5;stroke-width:1;"/><text fill="#111827" font-family="'Arial'" font-size="14" lengthAdjust="spacing" textLength="309.8662" x="11" y="467.4951">Die neu erstellten geplanten Abgaben 1 + 2</text><text fill="#111827" font-family="'Arial'" font-size="14" lengthAdjust="spacing" textLength="347.457" x="11" y="483.792">(AtElgaEmedMedicationRequestGeplanteAbgabe)</text><text fill="#111827" font-family="'Arial'" font-size="14" lengthAdjust="spacing" textLength="371.8613" x="11" y="500.0889">referenizieren bestehenden Medikationsplaneintr&#228;ge</text><text fill="#111827" font-family="'Arial'" font-size="14" lengthAdjust="spacing" textLength="207.9219" x="11" y="516.3857">(Medikationsplaneintrags-ids)</text><rect fill="#EEEEEE" height="3" rx="5" ry="5" style="stroke:#EEEEEE;stroke-width:1;" width="1405.8164" x="0" y="553.8359"/><line style="stroke:#000000;stroke-width:1;" x1="0" x2="1405.8164" y1="553.8359" y2="553.8359"/><line style="stroke:#000000;stroke-width:1;" x1="0" x2="1405.8164" y1="556.8359" y2="556.8359"/><rect fill="#EEEEEE" height="24.2969" rx="5" ry="5" style="stroke:#000000;stroke-width:2;" width="237.1523" x="584.332" y="542.6875"/><text fill="#000000" font-family="'Arial'" font-size="14" font-weight="700" lengthAdjust="spacing" textLength="218.2783" x="590.332" y="559.6826">Geplante Abgabe schreiben</text><g class="message" data-entity-1="part1" data-entity-2="part2" data-source-line="79" id="msg3"><polygon fill="#111827" points="668.7109,594.1172,678.7109,598.1172,668.7109,602.1172,672.7109,598.1172" style="stroke:#111827;stroke-width:1;"/><line style="stroke:#111827;stroke-width:1;" x1="207.0293" x2="674.7109" y1="598.1172" y2="598.1172"/><text fill="#000000" font-family="'Arial'" font-size="13" font-weight="700" lengthAdjust="spacing" textLength="9.0454" x="214.0293" y="593.0513">3</text><text fill="#000000" font-family="'Arial'" font-size="13" lengthAdjust="spacing" textLength="208.9395" x="227.0747" y="593.0513">e-Med groupIdentifier anfordern</text></g><path d="M38,616.1172 L38,648.1172 A5,5 0 0 0 43,653.1172 L357,653.1172 A5,5 0 0 0 362,648.1172 L362,621.1172 L352,611.1172 L43,611.1172 A5,5 0 0 0 38,616.1172" fill="url(#gjc534dtcqyti0)" filter="url(#fjc534dtcqyti)" style="stroke:#8B95A5;stroke-width:1;"/><path d="M352,611.1172 L352,618.6172 A2.5,2.5 0 0 0 354.5,621.1172 L362,621.1172 L352,611.1172" fill="url(#gjc534dtcqyti0)" style="stroke:#8B95A5;stroke-width:1;"/><text fill="#111827" font-family="'Arial'" font-size="14" lengthAdjust="spacing" textLength="303.9668" x="44" y="629.1123">e-Med groupIdentifier f&#252;r "Rezeptklammer"</text><text fill="#111827" font-family="'Arial'" font-size="14" lengthAdjust="spacing" textLength="68.8311" x="44" y="645.4092">anfordern</text><g class="message" data-entity-1="part2" data-entity-2="part2" data-source-line="87" id="msg4"><line style="stroke:#111827;stroke-width:1;" x1="690.7109" x2="732.7109" y1="682.8438" y2="682.8438"/><line style="stroke:#111827;stroke-width:1;" x1="732.7109" x2="732.7109" y1="682.8438" y2="695.8438"/><line style="stroke:#111827;stroke-width:1;" x1="691.7109" x2="732.7109" y1="695.8438" y2="695.8438"/><polygon fill="#111827" points="701.7109,691.8438,691.7109,695.8438,701.7109,699.8438,697.7109,695.8438" style="stroke:#111827;stroke-width:1;"/><text fill="#000000" font-family="'Arial'" font-size="13" font-weight="700" lengthAdjust="spacing" textLength="9.0454" x="697.7109" y="677.7778">4</text><text fill="#000000" font-family="'Arial'" font-size="13" lengthAdjust="spacing" textLength="205.918" x="710.7563" y="677.7778">e-Med groupIdentifier erzeugen</text></g><g class="message" data-entity-1="part2" data-entity-2="part1" data-source-line="88" id="msg5"><line style="stroke:#111827;stroke-width:1;" x1="208.0293" x2="218.0293" y1="724.9766" y2="720.9766"/><line style="stroke:#111827;stroke-width:1;" x1="208.0293" x2="218.0293" y1="724.9766" y2="728.9766"/><line style="stroke:#111827;stroke-width:1;stroke-dasharray:2,2;" x1="207.0293" x2="684.7109" y1="724.9766" y2="724.9766"/><text fill="#000000" font-family="'Arial'" font-size="13" font-weight="700" lengthAdjust="spacing" textLength="9.0454" x="224.0293" y="719.9106">5</text><text fill="#000000" font-family="'Arial'" font-size="13" lengthAdjust="spacing" textLength="140.8926" x="237.0747" y="719.9106">e-Med groupIdentifier</text></g><path d="M79,742.9766 L79,774.9766 A5,5 0 0 0 84,779.9766 L316,779.9766 A5,5 0 0 0 321,774.9766 L321,747.9766 L311,737.9766 L84,737.9766 A5,5 0 0 0 79,742.9766" fill="url(#gjc534dtcqyti0)" filter="url(#fjc534dtcqyti)" style="stroke:#8B95A5;stroke-width:1;"/><path d="M311,737.9766 L311,745.4766 A2.5,2.5 0 0 0 313.5,747.9766 L321,747.9766 L311,737.9766" fill="url(#gjc534dtcqyti0)" style="stroke:#8B95A5;stroke-width:1;"/><text fill="#111827" font-family="'Arial'" font-size="14" lengthAdjust="spacing" textLength="158.0127" x="85" y="755.9717">Geplante Abgaben mit</text><text fill="#111827" font-family="'Arial'" font-size="14" lengthAdjust="spacing" textLength="221.1016" x="85" y="772.2686">e-Med groupIdentifier versehen</text><g class="message" data-entity-1="part1" data-entity-2="part3" data-source-line="96" id="msg6"><line style="stroke:#111827;stroke-width:1;" x1="1222.6567" x2="1212.6567" y1="809.7031" y2="805.7031"/><line style="stroke:#111827;stroke-width:1;" x1="1222.6567" x2="1212.6567" y1="809.7031" y2="813.7031"/><line style="stroke:#111827;stroke-width:1;" x1="207.0293" x2="1223.6567" y1="809.7031" y2="809.7031"/><text fill="#000000" font-family="'Arial'" font-size="13" font-weight="700" lengthAdjust="spacing" textLength="9.0454" x="214.0293" y="804.6372">6</text><text fill="#000000" font-family="'Arial'" font-size="13" lengthAdjust="spacing" textLength="169.5713" x="227.0747" y="804.6372">Trigger e-Rezept erstellen</text></g><path d="M88,827.7031 L88,843.7031 A5,5 0 0 0 93,848.7031 L307,848.7031 A5,5 0 0 0 312,843.7031 L312,832.7031 L302,822.7031 L93,822.7031 A5,5 0 0 0 88,827.7031" fill="url(#gjc534dtcqyti0)" filter="url(#fjc534dtcqyti)" style="stroke:#8B95A5;stroke-width:1;"/><path d="M302,822.7031 L302,830.2031 A2.5,2.5 0 0 0 304.5,832.7031 L312,832.7031 L302,822.7031" fill="url(#gjc534dtcqyti0)" style="stroke:#8B95A5;stroke-width:1;"/><text fill="#111827" font-family="'Arial'" font-size="14" lengthAdjust="spacing" textLength="203.6357" x="94" y="840.6982">Erstellung e-Rezept ausl&#246;sen</text><path d="M73,864 L133.9385,864 L133.9385,872.2969 L123.9385,882.2969 L68,882.2969 L68,869 A5,5 0 0 1 73,864" fill="#EEF2FF" style="stroke:#111827;stroke-width:1.5;"/><rect fill="none" height="805.4453" rx="5" ry="5" style="stroke:#111827;stroke-width:2;" width="1327.397" x="68" y="864"/><text fill="#000000" font-family="'Arial'" font-size="14" font-weight="700" lengthAdjust="spacing" textLength="20.9385" x="83" y="877.9951">alt</text><text fill="#000000" font-family="'Arial'" font-size="14" font-weight="700" lengthAdjust="spacing" textLength="253.627" x="148.9385" y="878.9951">[Fehler bei Erstellung e_Rezept]</text><g class="message" data-entity-1="part3" data-entity-2="part1" data-source-line="104" id="msg7"><line style="stroke:#111827;stroke-width:1;" x1="208.0293" x2="218.0293" y1="904.7266" y2="900.7266"/><line style="stroke:#111827;stroke-width:1;" x1="208.0293" x2="218.0293" y1="904.7266" y2="908.7266"/><line style="stroke:#111827;stroke-width:1;stroke-dasharray:2,2;" x1="207.0293" x2="1223.6567" y1="904.7266" y2="904.7266"/><text fill="#000000" font-family="'Arial'" font-size="13" font-weight="700" lengthAdjust="spacing" textLength="9.0454" x="224.0293" y="899.6606">7</text><text fill="#000000" font-family="'Arial'" font-size="13" lengthAdjust="spacing" textLength="40.6694" x="237.0747" y="899.6606">Fehler</text></g><line style="stroke:#111827;stroke-width:1;stroke-dasharray:2,2;" x1="68" x2="1395.397" y1="913.7266" y2="913.7266"/><text fill="#000000" font-family="'Arial'" font-size="14" font-weight="700" lengthAdjust="spacing" textLength="237.2754" x="73" y="926.7217">[e_Rezept erfolgreich erstellt]</text><g class="message" data-entity-1="part3" data-entity-2="part3" data-source-line="107" id="msg8"><line style="stroke:#111827;stroke-width:1;" x1="1234.6567" x2="1276.6567" y1="952.1563" y2="952.1563"/><line style="stroke:#111827;stroke-width:1;" x1="1276.6567" x2="1276.6567" y1="952.1563" y2="965.1563"/><line style="stroke:#111827;stroke-width:1;" x1="1235.6567" x2="1276.6567" y1="965.1563" y2="965.1563"/><polygon fill="#111827" points="1245.6567,961.1563,1235.6567,965.1563,1245.6567,969.1563,1241.6567,965.1563" style="stroke:#111827;stroke-width:1;"/><text fill="#000000" font-family="'Arial'" font-size="13" font-weight="700" lengthAdjust="spacing" textLength="9.0454" x="1241.6567" y="947.0903">8</text><text fill="#000000" font-family="'Arial'" font-size="13" lengthAdjust="spacing" textLength="118.6948" x="1254.7021" y="947.0903">e-Rezept erstellen</text></g><g class="message" data-entity-1="part3" data-entity-2="part1" data-source-line="108" id="msg9"><line style="stroke:#111827;stroke-width:1;" x1="208.0293" x2="218.0293" y1="994.2891" y2="990.2891"/><line style="stroke:#111827;stroke-width:1;" x1="208.0293" x2="218.0293" y1="994.2891" y2="998.2891"/><line style="stroke:#111827;stroke-width:1;stroke-dasharray:2,2;" x1="207.0293" x2="1228.6567" y1="994.2891" y2="994.2891"/><text fill="#000000" font-family="'Arial'" font-size="13" font-weight="700" lengthAdjust="spacing" textLength="9.0454" x="224.0293" y="989.2231">9</text><text fill="#000000" font-family="'Arial'" font-size="13" lengthAdjust="spacing" textLength="18.7573" x="237.0747" y="989.2231">OK</text></g><g class="message" data-entity-1="part1" data-entity-2="part2" data-source-line="110" id="msg10"><line style="stroke:#111827;stroke-width:1;" x1="678.7109" x2="668.7109" y1="1038.5547" y2="1034.5547"/><line style="stroke:#111827;stroke-width:1;" x1="678.7109" x2="668.7109" y1="1038.5547" y2="1042.5547"/><line style="stroke:#111827;stroke-width:1;" x1="207.0293" x2="679.7109" y1="1038.5547" y2="1038.5547"/><text fill="#000000" font-family="'Arial'" font-size="13" font-weight="700" lengthAdjust="spacing" textLength="18.0908" x="214.0293" y="1025.9224">10</text><text fill="#000000" font-family="'Arial'" font-size="13" lengthAdjust="spacing" textLength="162.8809" x="236.1201" y="1018.356">POST MedicationRequest</text><text fill="#000000" font-family="'Arial'" font-size="13" lengthAdjust="spacing" textLength="335.042" x="236.1201" y="1033.4888">(AtElgaEmedMedicationRequestGeplanteAbgabe 1)</text></g><path d="M78,1056.5547 L78,1088.5547 A5,5 0 0 0 83,1093.5547 L317,1093.5547 A5,5 0 0 0 322,1088.5547 L322,1061.5547 L312,1051.5547 L83,1051.5547 A5,5 0 0 0 78,1056.5547" fill="url(#gjc534dtcqyti0)" filter="url(#fjc534dtcqyti)" style="stroke:#8B95A5;stroke-width:1;"/><path d="M312,1051.5547 L312,1059.0547 A2.5,2.5 0 0 0 314.5,1061.5547 L322,1061.5547 L312,1051.5547" fill="url(#gjc534dtcqyti0)" style="stroke:#8B95A5;stroke-width:1;"/><text fill="#111827" font-family="'Arial'" font-size="14" lengthAdjust="spacing" textLength="135.0303" x="84" y="1069.5498">Geplante Abgabe 1</text><text fill="#111827" font-family="'Arial'" font-size="14" lengthAdjust="spacing" textLength="223.4736" x="84" y="1085.8467">an Fachanwendung &#252;bermitteln</text><g class="message" data-entity-1="part2" data-entity-2="part2" data-source-line="118" id="msg11"><line style="stroke:#111827;stroke-width:1;" x1="690.7109" x2="732.7109" y1="1123.2813" y2="1123.2813"/><line style="stroke:#111827;stroke-width:1;" x1="732.7109" x2="732.7109" y1="1123.2813" y2="1136.2813"/><line style="stroke:#111827;stroke-width:1;" x1="691.7109" x2="732.7109" y1="1136.2813" y2="1136.2813"/><polygon fill="#111827" points="701.7109,1132.2813,691.7109,1136.2813,701.7109,1140.2813,697.7109,1136.2813" style="stroke:#111827;stroke-width:1;"/><text fill="#000000" font-family="'Arial'" font-size="13" font-weight="700" lengthAdjust="spacing" textLength="18.0908" x="697.7109" y="1118.2153">11</text><text fill="#000000" font-family="'Arial'" font-size="13" lengthAdjust="spacing" textLength="371.6807" x="719.8018" y="1118.2153">AtElgaEmedMedicationRequestGeplanteAbgabe 1 pr&#252;fen</text></g><path d="M171.7476,1151.2813 L232.686,1151.2813 L232.686,1159.5781 L222.686,1169.5781 L166.7476,1169.5781 L166.7476,1156.2813 A5,5 0 0 1 171.7476,1151.2813" fill="#EEF2FF" style="stroke:#111827;stroke-width:1.5;"/><rect fill="none" height="177.5859" rx="5" ry="5" style="stroke:#111827;stroke-width:2;" width="967.6885" x="166.7476" y="1151.2813"/><text fill="#000000" font-family="'Arial'" font-size="14" font-weight="700" lengthAdjust="spacing" textLength="20.9385" x="181.7476" y="1165.2764">alt</text><text fill="#000000" font-family="'Arial'" font-size="14" font-weight="700" lengthAdjust="spacing" textLength="59.0967" x="247.686" y="1166.2764">[g&#252;ltig]</text><g class="message" data-entity-1="part2" data-entity-2="part2" data-source-line="120" id="msg12"><line style="stroke:#111827;stroke-width:1;" x1="690.7109" x2="732.7109" y1="1192.0078" y2="1192.0078"/><line style="stroke:#111827;stroke-width:1;" x1="732.7109" x2="732.7109" y1="1192.0078" y2="1205.0078"/><line style="stroke:#111827;stroke-width:1;" x1="691.7109" x2="732.7109" y1="1205.0078" y2="1205.0078"/><polygon fill="#111827" points="701.7109,1201.0078,691.7109,1205.0078,701.7109,1209.0078,697.7109,1205.0078" style="stroke:#111827;stroke-width:1;"/><text fill="#000000" font-family="'Arial'" font-size="13" font-weight="700" lengthAdjust="spacing" textLength="18.0908" x="697.7109" y="1186.9419">12</text><text fill="#000000" font-family="'Arial'" font-size="13" lengthAdjust="spacing" textLength="392.6343" x="719.8018" y="1186.9419">AtElgaEmedMedicationRequestGeplanteAbgabe 1 speichern</text></g><path d="M562,1223.0078 L562,1239.0078 A5,5 0 0 0 567,1244.0078 L800,1244.0078 A5,5 0 0 0 805,1239.0078 L805,1228.0078 L795,1218.0078 L567,1218.0078 A5,5 0 0 0 562,1223.0078" fill="url(#gjc534dtcqyti0)" filter="url(#fjc534dtcqyti)" style="stroke:#8B95A5;stroke-width:1;"/><path d="M795,1218.0078 L795,1225.5078 A2.5,2.5 0 0 0 797.5,1228.0078 L805,1228.0078 L795,1218.0078" fill="url(#gjc534dtcqyti0)" style="stroke:#8B95A5;stroke-width:1;"/><text fill="#111827" font-family="'Arial'" font-size="14" lengthAdjust="spacing" textLength="222.0928" x="568" y="1236.0029">Geplante Abgabe 1 gespeichert</text><g class="message" data-entity-1="part2" data-entity-2="part1" data-source-line="126" id="msg13"><line style="stroke:#111827;stroke-width:1;" x1="208.0293" x2="218.0293" y1="1273.4375" y2="1269.4375"/><line style="stroke:#111827;stroke-width:1;" x1="208.0293" x2="218.0293" y1="1273.4375" y2="1277.4375"/><line style="stroke:#111827;stroke-width:1;stroke-dasharray:2,2;" x1="207.0293" x2="679.7109" y1="1273.4375" y2="1273.4375"/><text fill="#000000" font-family="'Arial'" font-size="13" font-weight="700" lengthAdjust="spacing" textLength="18.0908" x="224.0293" y="1268.3716">13</text><text fill="#000000" font-family="'Arial'" font-size="13" lengthAdjust="spacing" textLength="18.7573" x="246.1201" y="1268.3716">OK</text></g><line style="stroke:#111827;stroke-width:1;stroke-dasharray:2,2;" x1="166.7476" x2="1134.436" y1="1282.4375" y2="1282.4375"/><text fill="#000000" font-family="'Arial'" font-size="14" font-weight="700" lengthAdjust="spacing" textLength="79.0303" x="171.7476" y="1295.4326">[ung&#252;ltig]</text><g class="message" data-entity-1="part2" data-entity-2="part1" data-source-line="128" id="msg14"><line style="stroke:#111827;stroke-width:1;" x1="208.0293" x2="218.0293" y1="1320.8672" y2="1316.8672"/><line style="stroke:#111827;stroke-width:1;" x1="208.0293" x2="218.0293" y1="1320.8672" y2="1324.8672"/><line style="stroke:#111827;stroke-width:1;stroke-dasharray:2,2;" x1="207.0293" x2="679.7109" y1="1320.8672" y2="1320.8672"/><text fill="#000000" font-family="'Arial'" font-size="13" font-weight="700" lengthAdjust="spacing" textLength="18.0908" x="224.0293" y="1315.8013">14</text><text fill="#000000" font-family="'Arial'" font-size="13" lengthAdjust="spacing" textLength="40.6694" x="246.1201" y="1315.8013">Fehler</text></g><g class="message" data-entity-1="part1" data-entity-2="part2" data-source-line="131" id="msg15"><line style="stroke:#111827;stroke-width:1;" x1="678.7109" x2="668.7109" y1="1372.1328" y2="1368.1328"/><line style="stroke:#111827;stroke-width:1;" x1="678.7109" x2="668.7109" y1="1372.1328" y2="1376.1328"/><line style="stroke:#111827;stroke-width:1;" x1="207.0293" x2="679.7109" y1="1372.1328" y2="1372.1328"/><text fill="#000000" font-family="'Arial'" font-size="13" font-weight="700" lengthAdjust="spacing" textLength="18.0908" x="214.0293" y="1359.5005">15</text><text fill="#000000" font-family="'Arial'" font-size="13" lengthAdjust="spacing" textLength="162.8809" x="236.1201" y="1351.9341">POST MedicationRequest</text><text fill="#000000" font-family="'Arial'" font-size="13" lengthAdjust="spacing" textLength="335.042" x="236.1201" y="1367.0669">(AtElgaEmedMedicationRequestGeplanteAbgabe 2)</text></g><path d="M78,1390.1328 L78,1422.1328 A5,5 0 0 0 83,1427.1328 L317,1427.1328 A5,5 0 0 0 322,1422.1328 L322,1395.1328 L312,1385.1328 L83,1385.1328 A5,5 0 0 0 78,1390.1328" fill="url(#gjc534dtcqyti0)" filter="url(#fjc534dtcqyti)" style="stroke:#8B95A5;stroke-width:1;"/><path d="M312,1385.1328 L312,1392.6328 A2.5,2.5 0 0 0 314.5,1395.1328 L322,1395.1328 L312,1385.1328" fill="url(#gjc534dtcqyti0)" style="stroke:#8B95A5;stroke-width:1;"/><text fill="#111827" font-family="'Arial'" font-size="14" lengthAdjust="spacing" textLength="135.0303" x="84" y="1403.1279">Geplante Abgabe 2</text><text fill="#111827" font-family="'Arial'" font-size="14" lengthAdjust="spacing" textLength="223.4736" x="84" y="1419.4248">an Fachanwendung &#252;bermitteln</text><g class="message" data-entity-1="part2" data-entity-2="part2" data-source-line="137" id="msg16"><line style="stroke:#111827;stroke-width:1;" x1="690.7109" x2="732.7109" y1="1456.8594" y2="1456.8594"/><line style="stroke:#111827;stroke-width:1;" x1="732.7109" x2="732.7109" y1="1456.8594" y2="1469.8594"/><line style="stroke:#111827;stroke-width:1;" x1="691.7109" x2="732.7109" y1="1469.8594" y2="1469.8594"/><polygon fill="#111827" points="701.7109,1465.8594,691.7109,1469.8594,701.7109,1473.8594,697.7109,1469.8594" style="stroke:#111827;stroke-width:1;"/><text fill="#000000" font-family="'Arial'" font-size="13" font-weight="700" lengthAdjust="spacing" textLength="18.0908" x="697.7109" y="1451.7935">16</text><text fill="#000000" font-family="'Arial'" font-size="13" lengthAdjust="spacing" textLength="371.6807" x="719.8018" y="1451.7935">AtElgaEmedMedicationRequestGeplanteAbgabe 2 pr&#252;fen</text></g><path d="M171.7476,1484.8594 L232.686,1484.8594 L232.686,1493.1563 L222.686,1503.1563 L166.7476,1503.1563 L166.7476,1489.8594 A5,5 0 0 1 171.7476,1484.8594" fill="#EEF2FF" style="stroke:#111827;stroke-width:1.5;"/><rect fill="none" height="177.5859" rx="5" ry="5" style="stroke:#111827;stroke-width:2;" width="967.6885" x="166.7476" y="1484.8594"/><text fill="#000000" font-family="'Arial'" font-size="14" font-weight="700" lengthAdjust="spacing" textLength="20.9385" x="181.7476" y="1498.8545">alt</text><text fill="#000000" font-family="'Arial'" font-size="14" font-weight="700" lengthAdjust="spacing" textLength="59.0967" x="247.686" y="1499.8545">[g&#252;ltig]</text><g class="message" data-entity-1="part2" data-entity-2="part2" data-source-line="139" id="msg17"><line style="stroke:#111827;stroke-width:1;" x1="690.7109" x2="732.7109" y1="1525.5859" y2="1525.5859"/><line style="stroke:#111827;stroke-width:1;" x1="732.7109" x2="732.7109" y1="1525.5859" y2="1538.5859"/><line style="stroke:#111827;stroke-width:1;" x1="691.7109" x2="732.7109" y1="1538.5859" y2="1538.5859"/><polygon fill="#111827" points="701.7109,1534.5859,691.7109,1538.5859,701.7109,1542.5859,697.7109,1538.5859" style="stroke:#111827;stroke-width:1;"/><text fill="#000000" font-family="'Arial'" font-size="13" font-weight="700" lengthAdjust="spacing" textLength="18.0908" x="697.7109" y="1520.52">17</text><text fill="#000000" font-family="'Arial'" font-size="13" lengthAdjust="spacing" textLength="392.6343" x="719.8018" y="1520.52">AtElgaEmedMedicationRequestGeplanteAbgabe 2 speichern</text></g><path d="M562,1556.5859 L562,1572.5859 A5,5 0 0 0 567,1577.5859 L800,1577.5859 A5,5 0 0 0 805,1572.5859 L805,1561.5859 L795,1551.5859 L567,1551.5859 A5,5 0 0 0 562,1556.5859" fill="url(#gjc534dtcqyti0)" filter="url(#fjc534dtcqyti)" style="stroke:#8B95A5;stroke-width:1;"/><path d="M795,1551.5859 L795,1559.0859 A2.5,2.5 0 0 0 797.5,1561.5859 L805,1561.5859 L795,1551.5859" fill="url(#gjc534dtcqyti0)" style="stroke:#8B95A5;stroke-width:1;"/><text fill="#111827" font-family="'Arial'" font-size="14" lengthAdjust="spacing" textLength="222.0928" x="568" y="1569.5811">Geplante Abgabe 2 gespeichert</text><g class="message" data-entity-1="part2" data-entity-2="part1" data-source-line="145" id="msg18"><line style="stroke:#111827;stroke-width:1;" x1="208.0293" x2="218.0293" y1="1607.0156" y2="1603.0156"/><line style="stroke:#111827;stroke-width:1;" x1="208.0293" x2="218.0293" y1="1607.0156" y2="1611.0156"/><line style="stroke:#111827;stroke-width:1;stroke-dasharray:2,2;" x1="207.0293" x2="679.7109" y1="1607.0156" y2="1607.0156"/><text fill="#000000" font-family="'Arial'" font-size="13" font-weight="700" lengthAdjust="spacing" textLength="18.0908" x="224.0293" y="1601.9497">18</text><text fill="#000000" font-family="'Arial'" font-size="13" lengthAdjust="spacing" textLength="18.7573" x="246.1201" y="1601.9497">OK</text></g><line style="stroke:#111827;stroke-width:1;stroke-dasharray:2,2;" x1="166.7476" x2="1134.436" y1="1616.0156" y2="1616.0156"/><text fill="#000000" font-family="'Arial'" font-size="14" font-weight="700" lengthAdjust="spacing" textLength="79.0303" x="171.7476" y="1629.0107">[ung&#252;ltig]</text><g class="message" data-entity-1="part2" data-entity-2="part1" data-source-line="147" id="msg19"><line style="stroke:#111827;stroke-width:1;" x1="208.0293" x2="218.0293" y1="1654.4453" y2="1650.4453"/><line style="stroke:#111827;stroke-width:1;" x1="208.0293" x2="218.0293" y1="1654.4453" y2="1658.4453"/><line style="stroke:#111827;stroke-width:1;stroke-dasharray:2,2;" x1="207.0293" x2="684.7109" y1="1654.4453" y2="1654.4453"/><text fill="#000000" font-family="'Arial'" font-size="13" font-weight="700" lengthAdjust="spacing" textLength="18.0908" x="224.0293" y="1649.3794">19</text><text fill="#000000" font-family="'Arial'" font-size="13" lengthAdjust="spacing" textLength="40.6694" x="246.1201" y="1649.3794">Fehler</text></g><?plantuml-src jLRRRjj647tVhnZ8VR3G2Z3PgBu0DY0dTbeKQGpRVGjWBCaXjH2rP9VBs7MHlyatzCbl-h7EBc_BIv0ORcW34dVkvypCIWkT8hp5FELI8wo2X0S8l2mWm4BZ6cM44jvX93PSYqmMHX65r6htEI79VYa_8dqdDQNdW8gCqXGbOyL6o9mhleKWKoHzdQMPWhq3-xXI7cuIbPKogZNYfVbpD8erZx9x8HE8ULgW8wdDb4G5dkiqmfYNgRxCfFw3Rn5cAoLuEflMk16F2DwhQM4_RKT7PeJNFmpWV5W07k0oFbZiHLvqZByO3HU0e-1uoPVjwUrQX1k9HG4UdLqx1HtH-nMF8bEuyU9autdUaNz8PpSjD5gLo3wv2VxwTuug5NBZb71nCQNmfs6Flc0Di8iz_bMY3AjAhxZI8XGvjKglfALz1WeZMktJLne3F18tvFG43Io-CLWfbTqFWR67VMpjqLJ4Lb35-fcEtbBcUQ_6rdCb6d6EiM-hSooxy7wVcVFimQcWTpw5Amko1vXzaEJypGeyW1di7SSqDmOL7cfI9S6T1xo0cLMPCPfRchi7nzO-kA1HXaiUhhcy9vsIKgWUyldwrT7XeUcwl4CQa0pkBbVMTsszcdQFYsjyn5nRNs4G-8V-qDTThL4vgruSPxpKcIot0Ih6Ja-7MmTueCgOTixfAQc6MdpaD86sSiOKnf3H9ghUVshJFe4V5F98P_TAQEfiExMT8ZDmeLhlFgSQpARZ6rrM2smONMo1Q4anD4TmJjJJucJxAtsH9lnYYr5rD32Rs-fCLCOgaXPdLUYJqTPjb-S7wRWr3aFhyDhCOg4RizhActydn_vyXDORWI2nR1ng0YofZMGTJ5A3_WX-3vclH9eRzb2X58_2V7pJrSFsfoGyAHOYAbpKgP66U1JXMg48wbPgqQjxvgIU4ZFV-M-KWnOnvGLSndOuvRYBfWtYtPE2MTNbcvHljwXchFFIfTWsSvq1QxhtwqcXUiIIBkBEP77Mzi6a2Ojm56yy5dt496o5XY-KILQ5OMkYqy_QaJ-1MoMIn6JSh8dkjy8m-aKbCSkfrQQV9Edkty8DqvLH1o4aQOmlSPsIgm05k8vQ7UZsa0jMRSOOqXNOgQ2AipIXTWdNRTltNBWrJjJsXMZlVoU9oqIJ7e03NiFzrVkRMnXDqNFNXBqi-iG33B67qRIOCzf__KjZzqHRcfg2ghGrDfm0cF-f_dr6gf2htHDjUajdidjAjKXCa1TwBNB3eXazcsLNUOV6g7RQRusPTkjqqndIQXk8G6eJdzPj6ivwPT-DU7_-JIpxps7vnMJuBSKKjKVoopsxD5kYfwcUW610Th_W_vFm_kYtATa-CFljFm00?></g></svg>