<svg xmlns="http://www.w3.org/2000/svg" xmlns:xlink="http://www.w3.org/1999/xlink" contentStyleType="text/css" data-diagram-type="SEQUENCE" height="905px" preserveAspectRatio="none" style="width:725px;height:905px;background:#F5F5F5;" version="1.1" viewBox="0 0 725 905" width="725px" zoomAndPan="magnify"><?plantuml 1.2026.7beta1?><defs><linearGradient id="g8e4aawj9tjmo0" x1="50%" x2="50%" y1="0%" y2="100%"><stop offset="0%" stop-color="#E0E5F0"/><stop offset="100%" stop-color="#D1D9E6"/></linearGradient></defs><g><rect fill="#F5F5F5" height="905" style="stroke:none;stroke-width:1;" width="725" x="0" y="0"/><g class="title" data-source-line="1"><text fill="#000000" font-family="'Arial'" font-size="14" font-weight="700" lengthAdjust="spacing" textLength="539.0137" x="89.782" y="27.9951">Geplante Abgabe f&#252;r bestehende Medikationsplaneintr&#228;ge erstellen</text><text fill="#000000" font-family="'Arial'" font-size="14" font-weight="700" lengthAdjust="spacing" textLength="497.6836" x="110.447" y="44.292">Variante A: Vorab-Ermittlung des GroupIdentifiers (Normalfall)</text></g><g><title>GDA 1</title><rect fill="#0078D4" fill-opacity="0.37647" height="616.6797" style="stroke:#181818;stroke-width:1;" width="10" x="170.2817" y="144.8906"/></g><g><title>e-Med FA</title><rect fill="#F5A403" fill-opacity="0.37647" height="123.8594" style="stroke:#181818;stroke-width:1;" width="10" x="401.6206" y="354.8047"/></g><g><title>e-Med FA</title><rect fill="#F5A403" fill-opacity="0.37647" height="81.7266" style="stroke:#181818;stroke-width:1;" width="10" x="401.6206" y="679.8438"/></g><g><title>e-Rezept</title><rect fill="#E74856" fill-opacity="0.37647" height="29.1328" style="stroke:#181818;stroke-width:1;" width="10" x="656.4058" y="603.2813"/></g><rect fill="none" height="243.3125" rx="5" ry="5" style="stroke:#111827;stroke-width:2;" width="700.5776" x="9" y="562.5547"/><g class="participant-lifeline" data-entity-uid="part1" data-qualified-name="GDA_1" data-source-line="50" id="part1-lifeline"><g><title>GDA 1</title><rect fill="#000000" fill-opacity="0.00000" height="687.9766" width="8" x="171.2817" y="134.8906"/><line style="stroke:#181818;stroke-width:0.5;stroke-dasharray:5,5;" x1="175" x2="175" y1="134.8906" y2="822.8672"/></g></g><g class="participant-lifeline" data-entity-uid="part2" data-qualified-name="eMed_FA" data-source-line="51" id="part2-lifeline"><g><title>e-Med FA</title><rect fill="#000000" fill-opacity="0.00000" height="687.9766" width="8" x="402.6206" y="134.8906"/><line style="stroke:#181818;stroke-width:0.5;stroke-dasharray:5,5;" x1="405.9585" x2="405.9585" y1="134.8906" y2="822.8672"/></g></g><g class="participant-lifeline" data-entity-uid="part3" data-qualified-name="e_Rezept" data-source-line="52" id="part3-lifeline"><g><title>e-Rezept</title><rect fill="#000000" fill-opacity="0.00000" height="687.9766" width="8" x="657.4058" y="134.8906"/><line style="stroke:#181818;stroke-width:0.5;stroke-dasharray:5,5;" x1="661.2339" x2="661.2339" y1="134.8906" y2="822.8672"/></g></g><g class="participant participant-head" data-entity-uid="part1" data-qualified-name="GDA_1" data-source-line="50" id="part1-head"><text fill="#000000" font-family="'Arial'" font-size="14" lengthAdjust="spacing" textLength="44.5635" x="150" y="131.5889">GDA 1</text><ellipse cx="175.2817" cy="67.0938" fill="#0078D4" fill-opacity="0.37647" rx="8" ry="8" style="stroke:#181818;stroke-width:0.5;"/><path d="M175.2817,75.0938 L175.2817,102.0938 M162.2817,83.0938 L188.2817,83.0938 M175.2817,102.0938 L162.2817,117.0938 M175.2817,102.0938 L188.2817,117.0938" fill="none" style="stroke:#181818;stroke-width:0.5;"/></g><g class="participant participant-tail" data-entity-uid="part1" data-qualified-name="GDA_1" data-source-line="50" id="part1-tail"><text fill="#000000" font-family="'Arial'" font-size="14" lengthAdjust="spacing" textLength="44.5635" x="150" y="834.8623">GDA 1</text><ellipse cx="175.2817" cy="846.6641" fill="#0078D4" fill-opacity="0.37647" rx="8" ry="8" style="stroke:#181818;stroke-width:0.5;"/><path d="M175.2817,854.6641 L175.2817,881.6641 M162.2817,862.6641 L188.2817,862.6641 M175.2817,881.6641 L162.2817,896.6641 M175.2817,881.6641 L188.2817,896.6641" fill="none" style="stroke:#181818;stroke-width:0.5;"/></g><g class="participant participant-head" data-entity-uid="part2" data-qualified-name="eMed_FA" data-source-line="51" id="part2-head"><rect fill="#F5A403" fill-opacity="0.37647" height="30.2969" rx="5" ry="5" style="stroke:#555555;stroke-width:0.5;" width="79.3242" x="366.9585" y="103.5938"/><text fill="#000000" font-family="'Arial'" font-size="14" lengthAdjust="spacing" textLength="65.3242" x="373.9585" y="123.5889">e-Med FA</text></g><g class="participant participant-tail" data-entity-uid="part2" data-qualified-name="eMed_FA" data-source-line="51" id="part2-tail"><rect fill="#F5A403" fill-opacity="0.37647" height="30.2969" rx="5" ry="5" style="stroke:#555555;stroke-width:0.5;" width="79.3242" x="366.9585" y="821.8672"/><text fill="#000000" font-family="'Arial'" font-size="14" lengthAdjust="spacing" textLength="65.3242" x="373.9585" y="841.8623">e-Med FA</text></g><g class="participant participant-head" data-entity-uid="part3" data-qualified-name="e_Rezept" data-source-line="52" id="part3-head"><rect fill="#E74856" fill-opacity="0.37647" height="30.2969" rx="5" ry="5" style="stroke:#555555;stroke-width:0.5;" width="76.3438" x="623.2339" y="103.5938"/><text fill="#000000" font-family="'Arial'" font-size="14" lengthAdjust="spacing" textLength="62.3438" x="630.2339" y="123.5889">e-Rezept</text></g><g class="participant participant-tail" data-entity-uid="part3" data-qualified-name="e_Rezept" data-source-line="52" id="part3-tail"><rect fill="#E74856" fill-opacity="0.37647" height="30.2969" rx="5" ry="5" style="stroke:#555555;stroke-width:0.5;" width="76.3438" x="623.2339" y="821.8672"/><text fill="#000000" font-family="'Arial'" font-size="14" lengthAdjust="spacing" textLength="62.3438" x="630.2339" y="841.8623">e-Rezept</text></g><g><title>GDA 1</title><rect fill="#0078D4" fill-opacity="0.37647" height="616.6797" style="stroke:#181818;stroke-width:1;" width="10" x="170.2817" y="144.8906"/></g><g><title>e-Med FA</title><rect fill="#F5A403" fill-opacity="0.37647" height="123.8594" style="stroke:#181818;stroke-width:1;" width="10" x="401.6206" y="354.8047"/></g><g><title>e-Med FA</title><rect fill="#F5A403" fill-opacity="0.37647" height="81.7266" style="stroke:#181818;stroke-width:1;" width="10" x="401.6206" y="679.8438"/></g><g><title>e-Rezept</title><rect fill="#E74856" fill-opacity="0.37647" height="29.1328" style="stroke:#181818;stroke-width:1;" width="10" x="656.4058" y="603.2813"/></g><rect fill="#EEEEEE" height="3" rx="5" ry="5" style="stroke:#EEEEEE;stroke-width:1;" width="719.5776" x="0" y="166.0391"/><line style="stroke:#000000;stroke-width:1;" x1="0" x2="719.5776" y1="166.0391" y2="166.0391"/><line style="stroke:#000000;stroke-width:1;" x1="0" x2="719.5776" y1="169.0391" y2="169.0391"/><rect fill="#EEEEEE" height="24.2969" rx="5" ry="5" style="stroke:#000000;stroke-width:2;" width="216.2891" x="251.6443" y="154.8906"/><text fill="#000000" font-family="'Arial'" font-size="14" font-weight="700" lengthAdjust="spacing" textLength="197.415" x="257.6443" y="171.8857">Medikationsplan abrufen</text><rect fill="none" height="42.5938" rx="5" ry="5" style="stroke:#000000;stroke-width:1.5;" width="302.2827" x="147" y="189.1875"/><path d="M152,189.1875 L214,189.1875 L214,197.1875 L204,207.1875 L147,207.1875 L147,194.1875 A5,5 0 0 1 152,189.1875" fill="#EEEEEE" style="stroke:#000000;stroke-width:2;"/><text fill="#000000" font-family="'Arial'" font-size="14" font-weight="700" lengthAdjust="spacing" textLength="22.4902" x="160" y="204.1826">ref</text><a href="interactions.html#sequenzdiagramm-plan-read" target="_top" title="interactions.html#sequenzdiagramm-plan-read" xlink:actuate="onRequest" xlink:href="interactions.html#sequenzdiagramm-plan-read" xlink:show="new" xlink:title="interactions.html#sequenzdiagramm-plan-read" xlink:type="simple"><text fill="#0000EE" font-family="'Arial'" font-size="14" lengthAdjust="spacing" textLength="70.6426" x="262.8201" y="224.1826">Plan-Read</text></a><path d="M47,246.7813 L47,278.7813 A5,5 0 0 0 52,283.7813 L297,283.7813 A5,5 0 0 0 302,278.7813 L302,251.7813 L292,241.7813 L52,241.7813 A5,5 0 0 0 47,246.7813" fill="url(#g8e4aawj9tjmo0)" style="stroke:#8B95A5;stroke-width:1;"/><path d="M292,241.7813 L292,249.2813 A2.5,2.5 0 0 0 294.5,251.7813 L302,251.7813 L292,241.7813" fill="url(#g8e4aawj9tjmo0)" style="stroke:#8B95A5;stroke-width:1;"/><text fill="#111827" font-family="'Arial'" font-size="14" lengthAdjust="spacing" textLength="195.8018" x="53" y="259.7764">GDA erh&#228;lt Medikationsplan</text><text fill="#111827" font-family="'Arial'" font-size="14" lengthAdjust="spacing" textLength="234.377" x="53" y="276.0732">(Auslieferungs-Collection-Bundle)</text><rect fill="#EEEEEE" height="3" rx="5" ry="5" style="stroke:#EEEEEE;stroke-width:1;" width="719.5776" x="0" y="310.5234"/><line style="stroke:#000000;stroke-width:1;" x1="0" x2="719.5776" y1="310.5234" y2="310.5234"/><line style="stroke:#000000;stroke-width:1;" x1="0" x2="719.5776" y1="313.5234" y2="313.5234"/><rect fill="#EEEEEE" height="24.2969" rx="5" ry="5" style="stroke:#000000;stroke-width:2;" width="379.3398" x="170.1189" y="299.375"/><text fill="#000000" font-family="'Arial'" font-size="14" font-style="italic" font-weight="700" lengthAdjust="spacing" textLength="146.0908" x="176.1189" y="316.3701">Geplante Abgaben</text><text fill="#000000" font-family="'Arial'" font-size="14" font-weight="700" lengthAdjust="spacing" textLength="209.501" x="327.0837" y="316.3701">vorbereiten und schreiben</text><g class="message" data-entity-1="part1" data-entity-2="part2" data-source-line="71" id="msg1"><polygon fill="#111827" points="389.6206,350.8047,399.6206,354.8047,389.6206,358.8047,393.6206,354.8047" style="stroke:#111827;stroke-width:1;stroke-linejoin:miter;stroke-miterlimit:10;"/><line style="stroke:#111827;stroke-width:1;" x1="180.2817" x2="395.6206" y1="354.8047" y2="354.8047"/><text fill="#000000" font-family="'Arial'" font-size="13" font-weight="700" lengthAdjust="spacing" textLength="9.0454" x="187.2817" y="349.7388">1</text><text fill="#000000" font-family="'Arial'" font-size="13" lengthAdjust="spacing" textLength="189.2935" x="200.3271" y="349.7388">POST $groupidentifier-create&#8203;</text></g><path d="M66,372.8047 L66,404.8047 A5,5 0 0 0 71,409.8047 L279,409.8047 A5,5 0 0 0 284,404.8047 L284,377.8047 L274,367.8047 L71,367.8047 A5,5 0 0 0 66,372.8047" fill="url(#g8e4aawj9tjmo0)" style="stroke:#8B95A5;stroke-width:1;"/><path d="M274,367.8047 L274,375.3047 A2.5,2.5 0 0 0 276.5,377.8047 L284,377.8047 L274,367.8047" fill="url(#g8e4aawj9tjmo0)" style="stroke:#8B95A5;stroke-width:1;"/><text fill="#111827" font-family="'Arial'" font-size="14" lengthAdjust="spacing" textLength="177.7002" x="72" y="385.7998">e-Med GroupIdentifier f&#252;r</text><text fill="#111827" font-family="'Arial'" font-size="14" lengthAdjust="spacing" textLength="197.0596" x="72" y="402.0967">"Rezeptklammer" anfordern</text><g class="message" data-entity-1="part2" data-entity-2="part2" data-source-line="79" id="msg2"><line style="stroke:#111827;stroke-width:1;" x1="411.6206" x2="453.6206" y1="436.5313" y2="436.5313"/><line style="stroke:#111827;stroke-width:1;" x1="453.6206" x2="453.6206" y1="436.5313" y2="449.5313"/><line style="stroke:#111827;stroke-width:1;" x1="412.6206" x2="453.6206" y1="449.5313" y2="449.5313"/><polygon fill="#111827" points="422.6206,445.5313,412.6206,449.5313,422.6206,453.5313,418.6206,449.5313" style="stroke:#111827;stroke-width:1;stroke-linejoin:miter;stroke-miterlimit:10;"/><text fill="#000000" font-family="'Arial'" font-size="13" font-weight="700" lengthAdjust="spacing" textLength="9.0454" x="418.6206" y="431.4653">2</text><text fill="#000000" font-family="'Arial'" font-size="13" lengthAdjust="spacing" textLength="207.7397" x="431.666" y="431.4653">e-Med GroupIdentifier erzeugen</text></g><g class="message" data-entity-1="part2" data-entity-2="part1" data-source-line="80" id="msg3"><polygon fill="#111827" points="191.2817,474.6641,181.2817,478.6641,191.2817,482.6641,187.2817,478.6641" style="stroke:#111827;stroke-width:1;stroke-linejoin:miter;stroke-miterlimit:10;"/><line style="stroke:#111827;stroke-width:1;" x1="185.2817" x2="405.6206" y1="478.6641" y2="478.6641"/><text fill="#000000" font-family="'Arial'" font-size="13" font-weight="700" lengthAdjust="spacing" textLength="9.0454" x="197.2817" y="473.5981">3</text><text fill="#000000" font-family="'Arial'" font-size="13" lengthAdjust="spacing" textLength="142.7144" x="210.3271" y="473.5981">e-Med GroupIdentifier</text></g><path d="M16,496.6641 L16,544.6641 A5,5 0 0 0 21,549.6641 L328,549.6641 A5,5 0 0 0 333,544.6641 L333,501.6641 L323,491.6641 L21,491.6641 A5,5 0 0 0 16,496.6641" fill="url(#g8e4aawj9tjmo0)" style="stroke:#8B95A5;stroke-width:1;"/><path d="M323,491.6641 L323,499.1641 A2.5,2.5 0 0 0 325.5,501.6641 L333,501.6641 L323,491.6641" fill="url(#g8e4aawj9tjmo0)" style="stroke:#8B95A5;stroke-width:1;"/><text fill="#111827" font-family="'Arial'" font-size="14" lengthAdjust="spacing" textLength="57.8799" x="22" y="509.6592">Erstellte</text><text fill="#111827" font-family="'Arial'" font-size="14" font-style="italic" lengthAdjust="spacing" textLength="130.5459" x="84.3301" y="509.6592">Geplante Abgaben</text><text fill="#111827" font-family="'Arial'" font-size="14" lengthAdjust="spacing" textLength="94.2471" x="219.3262" y="509.6592">referenzieren</text><text fill="#111827" font-family="'Arial'" font-size="14" lengthAdjust="spacing" textLength="287.0342" x="22" y="525.9561">zugeh&#246;rige Medikationsplaneintr&#228;ge und</text><text fill="#111827" font-family="'Arial'" font-size="14" lengthAdjust="spacing" textLength="225.4355" x="22" y="542.2529">enthalten e-Med GroupIdentifier</text><path d="M14,562.5547 L80.373,562.5547 L80.373,570.8516 L70.373,580.8516 L9,580.8516 L9,567.5547 A5,5 0 0 1 14,562.5547" fill="#EEF2FF" style="stroke:#111827;stroke-width:1.5;"/><rect fill="none" height="243.3125" rx="5" ry="5" style="stroke:#111827;stroke-width:2;" width="700.5776" x="9" y="562.5547"/><text fill="#000000" font-family="'Arial'" font-size="14" font-weight="700" lengthAdjust="spacing" textLength="26.373" x="24" y="576.5498">par</text><text fill="#000000" font-family="'Arial'" font-size="14" font-weight="700" lengthAdjust="spacing" textLength="168.1504" x="95.373" y="577.5498">[Erstellung e-Rezept]</text><g class="message" data-entity-1="part1" data-entity-2="part3" data-source-line="91" id="msg4"><polygon fill="#111827" points="644.4058,599.2813,654.4058,603.2813,644.4058,607.2813,648.4058,603.2813" style="stroke:#111827;stroke-width:1;stroke-linejoin:miter;stroke-miterlimit:10;"/><line style="stroke:#111827;stroke-width:1;" x1="180.2817" x2="650.4058" y1="603.2813" y2="603.2813"/><text fill="#000000" font-family="'Arial'" font-size="13" font-weight="700" lengthAdjust="spacing" textLength="9.0454" x="187.2817" y="598.2153">4</text><text fill="#000000" font-family="'Arial'" font-size="13" lengthAdjust="spacing" textLength="169.5713" x="200.3271" y="598.2153">Trigger e-Rezept erstellen</text></g><g class="message" data-entity-1="part3" data-entity-2="part1" data-source-line="93" id="msg5"><polygon fill="#111827" points="191.2817,628.4141,181.2817,632.4141,191.2817,636.4141,187.2817,632.4141" style="stroke:#111827;stroke-width:1;stroke-linejoin:miter;stroke-miterlimit:10;"/><line style="stroke:#111827;stroke-width:1;stroke-dasharray:2,2;" x1="185.2817" x2="660.4058" y1="632.4141" y2="632.4141"/><text fill="#000000" font-family="'Arial'" font-size="13" font-weight="700" lengthAdjust="spacing" textLength="9.0454" x="197.2817" y="627.3481">5</text><text fill="#000000" font-family="'Arial'" font-size="13" lengthAdjust="spacing" textLength="18.7573" x="210.3271" y="627.3481">OK</text></g><line style="stroke:#111827;stroke-width:1;stroke-dasharray:2,2;" x1="9" x2="709.5776" y1="641.4141" y2="641.4141"/><text fill="#000000" font-family="'Arial'" font-size="14" font-weight="700" lengthAdjust="spacing" textLength="192.6436" x="14" y="654.4092">[gleichzeitige Erstellung</text><text fill="#000000" font-family="'Arial'" font-size="14" font-style="italic" font-weight="700" lengthAdjust="spacing" textLength="136.124" x="211.5176" y="654.4092">Geplante Abgabe</text><text fill="#000000" font-family="'Arial'" font-size="14" font-weight="700" lengthAdjust="spacing" textLength="6.3984" x="347.6416" y="654.4092">]</text><g class="message" data-entity-1="part1" data-entity-2="part2" data-source-line="98" id="msg6"><polygon fill="#111827" points="389.6206,675.8438,399.6206,679.8438,389.6206,683.8438,393.6206,679.8438" style="stroke:#111827;stroke-width:1;stroke-linejoin:miter;stroke-miterlimit:10;"/><line style="stroke:#111827;stroke-width:1;" x1="180.2817" x2="395.6206" y1="679.8438" y2="679.8438"/><text fill="#000000" font-family="'Arial'" font-size="13" font-weight="700" lengthAdjust="spacing" textLength="9.0454" x="187.2817" y="674.7778">6</text><text fill="#000000" font-family="'Arial'" font-size="13" lengthAdjust="spacing" textLength="161.6685" x="200.3271" y="674.7778">POST $prescription-write</text></g><path d="M19,697.8438 L19,729.8438 A5,5 0 0 0 24,734.8438 L325,734.8438 A5,5 0 0 0 330,729.8438 L330,702.8438 L320,692.8438 L24,692.8438 A5,5 0 0 0 19,697.8438" fill="url(#g8e4aawj9tjmo0)" style="stroke:#8B95A5;stroke-width:1;"/><path d="M320,692.8438 L320,700.3438 A2.5,2.5 0 0 0 322.5,702.8438 L330,702.8438 L320,692.8438" fill="url(#g8e4aawj9tjmo0)" style="stroke:#8B95A5;stroke-width:1;"/><text fill="#111827" font-family="'Arial'" font-size="14" lengthAdjust="spacing" textLength="239.9209" x="25" y="710.8389">Transaction Bundle mit Geplanten</text><text fill="#111827" font-family="'Arial'" font-size="14" lengthAdjust="spacing" textLength="290.2266" x="25" y="727.1357">Abgaben an Fachanwendung &#252;bermitteln</text><g class="message" data-entity-1="part2" data-entity-2="part1" data-source-line="105" id="msg7"><polygon fill="#111827" points="186.2817,757.5703,176.2817,761.5703,186.2817,765.5703,182.2817,761.5703" style="stroke:#111827;stroke-width:1;stroke-linejoin:miter;stroke-miterlimit:10;"/><line style="stroke:#111827;stroke-width:1;stroke-dasharray:2,2;" x1="180.2817" x2="405.6206" y1="761.5703" y2="761.5703"/><text fill="#000000" font-family="'Arial'" font-size="13" font-weight="700" lengthAdjust="spacing" textLength="9.0454" x="192.2817" y="756.5044">7</text><text fill="#000000" font-family="'Arial'" font-size="13" lengthAdjust="spacing" textLength="18.7573" x="205.3271" y="756.5044">OK</text></g><path d="M304,779.5703 L304,795.5703 A5,5 0 0 0 309,800.5703 L504,800.5703 A5,5 0 0 0 509,795.5703 L509,784.5703 L499,774.5703 L309,774.5703 A5,5 0 0 0 304,779.5703" fill="url(#g8e4aawj9tjmo0)" style="stroke:#8B95A5;stroke-width:1;"/><path d="M499,774.5703 L499,782.0703 A2.5,2.5 0 0 0 501.5,784.5703 L509,784.5703 L499,774.5703" fill="url(#g8e4aawj9tjmo0)" style="stroke:#8B95A5;stroke-width:1;"/><text fill="#111827" font-family="'Arial'" font-size="14" font-style="italic" lengthAdjust="spacing" textLength="130.5459" x="310" y="792.5654">Geplante Abgaben</text><text fill="#111827" font-family="'Arial'" font-size="14" lengthAdjust="spacing" textLength="49.0342" x="444.9961" y="792.5654">erstellt</text><?plantuml-src VLRDRkCs4BxhAQPE3xj0tSgE_n9i0jY9d2ws6nkEkuTk5m5jZMp2DAMbwAHrKQ3tliO-GqzxyvlqIJgKP8lwIMN0eCYFCzzyCqDASoqGxZ0IJ6g4uMB55WZ1uQk21SOQroXzXFVeymtJF9In0IANMXs-h11G4KO8bB_A3qpnrCObV0WLMpGzjULQYvrSWOyntAbm5xtrKMeUSDe8h-v3jMKYO4AyTfnumsN45Dl28bG-gfjGX0hEtEInLzboio9JqiyGGTVyB4IyPdxupCajcOxHMicsAOaAMhPH7mEs4teSIdtFjWYD8GKZ6lM81xv7Q7Ng5r-Y_UFl4Ih1vSO2U5uTu6TIt0omGdyK_ZPblcyYQxl5-P6jMJTvR4bbI8dvmm4ObTL35xk1spppM_u5zWp2jZHON7HPzpGxN_FbHc8SGulcPfQQBhqVkHahbXIjLclGxjFSGoalVzeCO_oyGxbCMKwPqdp98wgdki2AW4ez94yHLCrCPVcOrSA29JV0KAdmkHnKCbdK9PcgytXQI7sTqrJI58KOJvRJfKg-C6WdqLaxS_Tj8-etL8wcV6ucFqrcZtUtmySMq4Cy-eFRJi-j0RGJmA3Vwum65S1qE7_htSyJ2nTTjri13ASJWCp5g7zpNW5uxxtRn_4GJBEoZbi3U9nvltZJEPnv_SwWsoD02J5v1vcFhklrnkDsjsnYDflC4i1uFBXntNDg0BRKf5cg08kXGIDeDMnXd2XFDY2TSuQcWMAJNc0yR1H3AE8VPxZ7I6SRqfT6AIHYiTEXt6qNg1pdwgfyc09Rg5s04gwk4iByYL6lffnjeWe329ym2-Ux4zbB-FYHpcDKPY_P_7wjj-8iRQUzpzcAkclRD9wQ2faFKpEQqUZJ9yTnaeCXD-iOXL2j3r-4hX1rNWrtiU0OeA8pFMvIHGfCd3P7LA02NpjqMoHdJHBe6tvTkbZacn_uDJo5YhH0hYbesWVnSarlYqm2nqbZRruVGxo4wUHX3j-QFeZuwG9fBYaUZV_-zJTKuqZJLxfoqdlDQQI9sWWI1bK3c0oIDf8M_LCYZZ8Ng-0uQvEiTubgZxiLIdjBGl653OwFPT_LwBpqsgN9bpHM9ajK0DpyWxCd2kl3Fugl_kSofroG0dhDXCbCFRjS8Me4o7YO6_vO_euvcau9p1ha4kRaUcNao63vbmFXyu2F3LLg8SXNchb-atUqOCkLOHnp2ZX8Lmoi1FBbUa-rPYAtw5PrCx8LoHUhBr8OBnMFadf_LbIz1UQrPG9GpXoG4ap6QQz2sZP0dqcdJp2ZHvP8AamOi-MQoMUItR0-VAN6CHzLA0pkb0mA5quK2WebApKbLPWyKil9vh2N2YpBdxPfcEhu3m00?></g></svg>