<svg xmlns="http://www.w3.org/2000/svg" xmlns:xlink="http://www.w3.org/1999/xlink" contentStyleType="text/css" data-diagram-type="SEQUENCE" height="1016px" preserveAspectRatio="none" style="width:832px;height:1016px;background:#F5F5F5;" version="1.1" viewBox="0 0 832 1016" width="832px" zoomAndPan="magnify"><?plantuml 1.2026.7beta1?><defs><linearGradient id="g19j61mob6ql7z0" x1="50%" x2="50%" y1="0%" y2="100%"><stop offset="0%" stop-color="#E0E5F0"/><stop offset="100%" stop-color="#D1D9E6"/></linearGradient><filter height="300%" id="f19j61mob6ql7z" width="300%" x="-1" y="-1"><feGaussianBlur result="blurOut" stdDeviation="2"/><feColorMatrix in="blurOut" result="blurOut2" type="matrix" values="0 0 0 0 0 0 0 0 0 0 0 0 0 0 0 0 0 0 .4 0"/><feOffset dx="4" dy="4" in="blurOut2" result="blurOut3"/><feBlend in="SourceGraphic" in2="blurOut3" mode="normal"/></filter></defs><g><rect fill="#F5F5F5" height="1016" style="stroke:none;stroke-width:1;" width="832" x="0" y="0"/><g class="title" data-source-line="1"><text fill="#000000" font-family="'Arial'" font-size="14" font-weight="700" lengthAdjust="spacing" textLength="539.0137" x="143.4031" y="27.9951">Geplante Abgabe f&#252;r bestehende Medikationsplaneintr&#228;ge erstellen</text><text fill="#000000" font-family="'Arial'" font-size="14" font-weight="700" lengthAdjust="spacing" textLength="567.0957" x="129.3621" y="44.292">Variante B: Sequentielles Erstellen von Geplanter Abgabe und e-Rezept</text></g><g><title>GDA 1</title><rect fill="#3588A7" fill-opacity="0.29804" height="724.8359" style="stroke:#181818;stroke-width:1;" width="10" x="159.2817" y="144.8906"/></g><g><title>e-Med FA</title><rect fill="#A14C37" fill-opacity="0.47059" height="199.7188" style="stroke:#181818;stroke-width:1;" width="10" x="492.9619" y="445.9922"/></g><g><title>e-Rezept</title><rect fill="#F5BD2F" fill-opacity="0.46667" height="158.75" style="stroke:#181818;stroke-width:1;" width="10" x="763.6479" y="681.8438"/></g><rect fill="#FFFFFF" fill-opacity="0.14902" height="192.7188" rx="5" ry="5" style="stroke:#111827;stroke-width:2;" width="639.6479" x="129" y="460.9922"/><path d="M129,606.2813 L768.6479,606.2813 L768.6479,648.7109 A5,5 0 0 1 763.6479,653.7109 L134,653.7109 A5,5 0 0 1 129,648.7109 L129,606.2813" fill="#7F1515" fill-opacity="0.20000" style="stroke:none;stroke-width:1;"/><rect fill="#FFFFFF" fill-opacity="0.14902" height="164.5859" rx="5" ry="5" style="stroke:#111827;stroke-width:2;" width="687.8198" x="129" y="752.4375"/><path d="M129,801.1641 L816.8198,801.1641 L816.8198,912.0234 A5,5 0 0 1 811.8198,917.0234 L134,917.0234 A5,5 0 0 1 129,912.0234 L129,801.1641" fill="#7F1515" fill-opacity="0.20000" style="stroke:none;stroke-width:1;"/><g class="participant-lifeline" data-entity-uid="part1" data-qualified-name="GDA_1" data-source-line="49" id="part1-lifeline"><g><title>GDA 1</title><rect fill="#000000" fill-opacity="0.00000" height="799.1328" width="8" x="160.2817" y="134.8906"/><line style="stroke:#181818;stroke-width:0.5;stroke-dasharray:5,5;" x1="164" x2="164" y1="134.8906" y2="934.0234"/></g></g><g class="participant-lifeline" data-entity-uid="part2" data-qualified-name="eMed_FA" data-source-line="50" id="part2-lifeline"><g><title>e-Med FA</title><rect fill="#000000" fill-opacity="0.00000" height="799.1328" width="8" x="493.9619" y="134.8906"/><line style="stroke:#181818;stroke-width:0.5;stroke-dasharray:5,5;" x1="497.2998" x2="497.2998" y1="134.8906" y2="934.0234"/></g></g><g class="participant-lifeline" data-entity-uid="part3" data-qualified-name="e_Rezept" data-source-line="51" id="part3-lifeline"><g><title>e-Rezept</title><rect fill="#000000" fill-opacity="0.00000" height="799.1328" width="8" x="764.6479" y="134.8906"/><line style="stroke:#181818;stroke-width:0.5;stroke-dasharray:5,5;" x1="768.4761" x2="768.4761" y1="134.8906" y2="934.0234"/></g></g><g class="participant participant-head" data-entity-uid="part1" data-qualified-name="GDA_1" data-source-line="49" id="part1-head"><text fill="#000000" font-family="'Arial'" font-size="14" lengthAdjust="spacing" textLength="44.5635" x="139" y="131.5889">GDA 1</text><ellipse cx="164.2817" cy="67.0938" fill="#3588A7" fill-opacity="0.29804" rx="8" ry="8" style="stroke:#181818;stroke-width:0.5;"/><path d="M164.2817,75.0938 L164.2817,102.0938 M151.2817,83.0938 L177.2817,83.0938 M164.2817,102.0938 L151.2817,117.0938 M164.2817,102.0938 L177.2817,117.0938" fill="none" style="stroke:#181818;stroke-width:0.5;"/></g><g class="participant participant-tail" data-entity-uid="part1" data-qualified-name="GDA_1" data-source-line="49" id="part1-tail"><text fill="#000000" font-family="'Arial'" font-size="14" lengthAdjust="spacing" textLength="44.5635" x="139" y="946.0186">GDA 1</text><ellipse cx="164.2817" cy="957.8203" fill="#3588A7" fill-opacity="0.29804" rx="8" ry="8" style="stroke:#181818;stroke-width:0.5;"/><path d="M164.2817,965.8203 L164.2817,992.8203 M151.2817,973.8203 L177.2817,973.8203 M164.2817,992.8203 L151.2817,1007.8203 M164.2817,992.8203 L177.2817,1007.8203" fill="none" style="stroke:#181818;stroke-width:0.5;"/></g><g class="participant participant-head" data-entity-uid="part2" data-qualified-name="eMed_FA" data-source-line="50" id="part2-head"><rect fill="#A14C37" fill-opacity="0.47059" height="30.2969" rx="5" ry="5" style="stroke:#555555;stroke-width:0.5;" width="79.3242" x="458.2998" y="103.5938"/><text fill="#000000" font-family="'Arial'" font-size="14" lengthAdjust="spacing" textLength="65.3242" x="465.2998" y="123.5889">e-Med FA</text></g><g class="participant participant-tail" data-entity-uid="part2" data-qualified-name="eMed_FA" data-source-line="50" id="part2-tail"><rect fill="#A14C37" fill-opacity="0.47059" height="30.2969" rx="5" ry="5" style="stroke:#555555;stroke-width:0.5;" width="79.3242" x="458.2998" y="933.0234"/><text fill="#000000" font-family="'Arial'" font-size="14" lengthAdjust="spacing" textLength="65.3242" x="465.2998" y="953.0186">e-Med FA</text></g><g class="participant participant-head" data-entity-uid="part3" data-qualified-name="e_Rezept" data-source-line="51" id="part3-head"><rect fill="#F5BD2F" fill-opacity="0.46667" height="30.2969" rx="5" ry="5" style="stroke:#555555;stroke-width:0.5;" width="76.3438" x="730.4761" y="103.5938"/><text fill="#000000" font-family="'Arial'" font-size="14" lengthAdjust="spacing" textLength="62.3438" x="737.4761" y="123.5889">e-Rezept</text></g><g class="participant participant-tail" data-entity-uid="part3" data-qualified-name="e_Rezept" data-source-line="51" id="part3-tail"><rect fill="#F5BD2F" fill-opacity="0.46667" height="30.2969" rx="5" ry="5" style="stroke:#555555;stroke-width:0.5;" width="76.3438" x="730.4761" y="933.0234"/><text fill="#000000" font-family="'Arial'" font-size="14" lengthAdjust="spacing" textLength="62.3438" x="737.4761" y="953.0186">e-Rezept</text></g><g><title>GDA 1</title><rect fill="#3588A7" fill-opacity="0.29804" height="724.8359" style="stroke:#181818;stroke-width:1;" width="10" x="159.2817" y="144.8906"/></g><g><title>e-Med FA</title><rect fill="#A14C37" fill-opacity="0.47059" height="199.7188" style="stroke:#181818;stroke-width:1;" width="10" x="492.9619" y="445.9922"/></g><g><title>e-Rezept</title><rect fill="#F5BD2F" fill-opacity="0.46667" height="158.75" style="stroke:#181818;stroke-width:1;" width="10" x="763.6479" y="681.8438"/></g><rect fill="#EEEEEE" height="3" rx="5" ry="5" style="stroke:#EEEEEE;stroke-width:1;" width="826.8198" x="0" y="166.0391"/><line style="stroke:#000000;stroke-width:1;" x1="0" x2="826.8198" y1="166.0391" y2="166.0391"/><line style="stroke:#000000;stroke-width:1;" x1="0" x2="826.8198" y1="169.0391" y2="169.0391"/><rect fill="#EEEEEE" height="24.2969" rx="5" ry="5" style="stroke:#000000;stroke-width:2;" width="216.2891" x="305.2654" y="154.8906"/><text fill="#000000" font-family="'Arial'" font-size="14" font-weight="700" lengthAdjust="spacing" textLength="197.415" x="311.2654" y="171.8857">Medikationsplan abrufen</text><rect fill="none" height="42.5938" rx="5" ry="5" style="stroke:#000000;stroke-width:1.5;" width="404.624" x="136" y="189.1875"/><path d="M141,189.1875 L203,189.1875 L203,197.1875 L193,207.1875 L136,207.1875 L136,194.1875 A5,5 0 0 1 141,189.1875" fill="#EEEEEE" style="stroke:#000000;stroke-width:2;"/><text fill="#000000" font-family="'Arial'" font-size="14" font-weight="700" lengthAdjust="spacing" textLength="22.4902" x="149" y="204.1826">ref</text><a href="interactions.html#sequenzdiagramm-plan-read" target="_top" title="interactions.html#sequenzdiagramm-plan-read" xlink:actuate="onRequest" xlink:href="interactions.html#sequenzdiagramm-plan-read" xlink:show="new" xlink:title="interactions.html#sequenzdiagramm-plan-read" xlink:type="simple"><text fill="#0000EE" font-family="'Arial'" font-size="14" lengthAdjust="spacing" textLength="70.6426" x="302.9907" y="224.1826">Plan-Read</text></a><path d="M35,246.7813 L35,278.7813 A5,5 0 0 0 40,283.7813 L285,283.7813 A5,5 0 0 0 290,278.7813 L290,251.7813 L280,241.7813 L40,241.7813 A5,5 0 0 0 35,246.7813" fill="url(#g19j61mob6ql7z0)" filter="url(#f19j61mob6ql7z)" style="stroke:#8B95A5;stroke-width:1;"/><path d="M280,241.7813 L280,249.2813 A2.5,2.5 0 0 0 282.5,251.7813 L290,251.7813 L280,241.7813" fill="url(#g19j61mob6ql7z0)" style="stroke:#8B95A5;stroke-width:1;"/><text fill="#111827" font-family="'Arial'" font-size="14" lengthAdjust="spacing" textLength="195.8018" x="41" y="259.7764">GDA erh&#228;lt Medikationsplan</text><text fill="#111827" font-family="'Arial'" font-size="14" lengthAdjust="spacing" textLength="234.377" x="41" y="276.0732">(Auslieferungs-Collection-Bundle)</text><rect fill="#EEEEEE" height="3" rx="5" ry="5" style="stroke:#EEEEEE;stroke-width:1;" width="826.8198" x="0" y="313.5234"/><line style="stroke:#000000;stroke-width:1;" x1="0" x2="826.8198" y1="313.5234" y2="313.5234"/><line style="stroke:#000000;stroke-width:1;" x1="0" x2="826.8198" y1="316.5234" y2="316.5234"/><rect fill="#EEEEEE" height="24.2969" rx="5" ry="5" style="stroke:#000000;stroke-width:2;" width="379.3398" x="223.74" y="302.375"/><text fill="#000000" font-family="'Arial'" font-size="14" font-weight="700" lengthAdjust="spacing" textLength="360.4658" x="229.74" y="319.3701">Geplante Abgaben vorbereiten und schreiben</text><path d="M5,346.6719 L5,411.6719 A5,5 0 0 0 10,416.6719 L317,416.6719 A5,5 0 0 0 322,411.6719 L322,351.6719 L312,341.6719 L10,341.6719 A5,5 0 0 0 5,346.6719" fill="url(#g19j61mob6ql7z0)" filter="url(#f19j61mob6ql7z)" style="stroke:#8B95A5;stroke-width:1;"/><path d="M312,341.6719 L312,349.1719 A2.5,2.5 0 0 0 314.5,351.6719 L322,351.6719 L312,341.6719" fill="url(#g19j61mob6ql7z0)" style="stroke:#8B95A5;stroke-width:1;"/><text fill="#111827" font-family="'Arial'" font-size="14" lengthAdjust="spacing" textLength="57.8799" x="11" y="359.667">Erstellte</text><text fill="#111827" font-family="'Arial'" font-size="14" font-style="italic" lengthAdjust="spacing" textLength="130.5459" x="73.3301" y="359.667">Geplante Abgaben</text><text fill="#111827" font-family="'Arial'" font-size="14" lengthAdjust="spacing" textLength="94.2471" x="208.3262" y="359.667">referenzieren</text><text fill="#111827" font-family="'Arial'" font-size="14" lengthAdjust="spacing" textLength="260.668" x="11" y="375.9639">zugeh&#246;rige Medikationsplaneintr&#228;ge;</text><text fill="#111827" font-family="'Arial'" font-size="14" lengthAdjust="spacing" textLength="256.2725" x="11" y="392.2607">groupIdentifier f&#252;r "Rezeptklammer"</text><text fill="#111827" font-family="'Arial'" font-size="14" lengthAdjust="spacing" textLength="70.9775" x="11" y="408.5576">bleibt leer</text><g class="message" data-entity-1="part1" data-entity-2="part2" data-source-line="74" id="msg1"><polygon fill="#111827" points="480.9619,441.9922,490.9619,445.9922,480.9619,449.9922,484.9619,445.9922" style="stroke:#111827;stroke-width:1;stroke-linejoin:miter;stroke-miterlimit:10;"/><line style="stroke:#111827;stroke-width:1;" x1="169.2817" x2="486.9619" y1="445.9922" y2="445.9922"/><text fill="#000000" font-family="'Arial'" font-size="13" font-weight="700" lengthAdjust="spacing" textLength="9.0454" x="176.2817" y="440.9263">1</text><text fill="#000000" font-family="'Arial'" font-size="13" lengthAdjust="spacing" textLength="247.749" x="189.3271" y="440.9263">POST Transaction Bundle GeplAbgabe</text></g><path d="M134,460.9922 L194.9385,460.9922 L194.9385,469.2891 L184.9385,479.2891 L129,479.2891 L129,465.9922 A5,5 0 0 1 134,460.9922" fill="#EEF2FF" style="stroke:#111827;stroke-width:1.5;"/><rect fill="none" height="192.7188" rx="5" ry="5" style="stroke:#111827;stroke-width:2;" width="639.6479" x="129" y="460.9922"/><text fill="#000000" font-family="'Arial'" font-size="14" font-weight="700" lengthAdjust="spacing" textLength="20.9385" x="144" y="474.9873">alt</text><text fill="#000000" font-family="'Arial'" font-size="14" font-weight="700" lengthAdjust="spacing" textLength="220.9717" x="209.9385" y="475.9873">[Geplante Abgaben erstellt]</text><g class="message" data-entity-1="part2" data-entity-2="part2" data-source-line="79" id="msg2"><line style="stroke:#111827;stroke-width:1;" x1="502.9619" x2="544.9619" y1="516.8516" y2="516.8516"/><line style="stroke:#111827;stroke-width:1;" x1="544.9619" x2="544.9619" y1="516.8516" y2="529.8516"/><line style="stroke:#111827;stroke-width:1;" x1="503.9619" x2="544.9619" y1="529.8516" y2="529.8516"/><polygon fill="#111827" points="513.9619,525.8516,503.9619,529.8516,513.9619,533.8516,509.9619,529.8516" style="stroke:#111827;stroke-width:1;stroke-linejoin:miter;stroke-miterlimit:10;"/><text fill="#000000" font-family="'Arial'" font-size="13" font-weight="700" lengthAdjust="spacing" textLength="9.0454" x="509.9619" y="504.2192">2</text><text fill="#000000" font-family="'Arial'" font-size="13" lengthAdjust="spacing" textLength="207.7397" x="523.0073" y="496.6528">e-Med GroupIdentifier erzeugen</text><text fill="#000000" font-family="'Arial'" font-size="13" lengthAdjust="spacing" textLength="223.6406" x="523.0073" y="511.7856">+ in geplanten Abgaben erg&#228;nzen</text></g><path d="M360,547.8516 L360,563.8516 A5,5 0 0 0 365,568.8516 L627,568.8516 A5,5 0 0 0 632,563.8516 L632,552.8516 L622,542.8516 L365,542.8516 A5,5 0 0 0 360,547.8516" fill="url(#g19j61mob6ql7z0)" filter="url(#f19j61mob6ql7z)" style="stroke:#8B95A5;stroke-width:1;"/><path d="M622,542.8516 L622,550.3516 A2.5,2.5 0 0 0 624.5,552.8516 L632,552.8516 L622,542.8516" fill="url(#g19j61mob6ql7z0)" style="stroke:#8B95A5;stroke-width:1;"/><text fill="#111827" font-family="'Arial'" font-size="14" lengthAdjust="spacing" textLength="251.6309" x="366" y="560.8467">Geplante Abgabe 1 + 2 gespeichert</text><g class="message" data-entity-1="part2" data-entity-2="part1" data-source-line="85" id="msg3"><polygon fill="#111827" points="180.2817,594.2813,170.2817,598.2813,180.2817,602.2813,176.2817,598.2813" style="stroke:#111827;stroke-width:1;stroke-linejoin:miter;stroke-miterlimit:10;"/><line style="stroke:#111827;stroke-width:1;stroke-dasharray:2,2;" x1="174.2817" x2="491.9619" y1="598.2813" y2="598.2813"/><text fill="#000000" font-family="'Arial'" font-size="13" font-weight="700" lengthAdjust="spacing" textLength="9.0454" x="186.2817" y="593.2153">3</text><text fill="#000000" font-family="'Arial'" font-size="13" lengthAdjust="spacing" textLength="286.6348" x="199.3271" y="593.2153">OK (Ressourcen inkl. e-Med GroupIdentifier)</text></g><line style="stroke:#111827;stroke-width:1;stroke-dasharray:2,2;" x1="129" x2="768.6479" y1="607.2813" y2="607.2813"/><text fill="#000000" font-family="'Arial'" font-size="14" font-weight="700" lengthAdjust="spacing" textLength="213.9854" x="134" y="620.2764">[Geplante Abgaben Fehler]</text><g class="message" data-entity-1="part2" data-entity-2="part1" data-source-line="89" id="msg4"><polygon fill="#111827" points="180.2817,641.7109,170.2817,645.7109,180.2817,649.7109,176.2817,645.7109" style="stroke:#111827;stroke-width:1;stroke-linejoin:miter;stroke-miterlimit:10;"/><line style="stroke:#111827;stroke-width:1;stroke-dasharray:2,2;" x1="174.2817" x2="496.9619" y1="645.7109" y2="645.7109"/><text fill="#000000" font-family="'Arial'" font-size="13" font-weight="700" lengthAdjust="spacing" textLength="9.0454" x="186.2817" y="640.645">4</text><text fill="#000000" font-family="'Arial'" font-size="13" lengthAdjust="spacing" textLength="40.6694" x="199.3271" y="640.645">Fehler</text></g><g class="message" data-entity-1="part1" data-entity-2="part3" data-source-line="94" id="msg5"><polygon fill="#111827" points="751.6479,677.8438,761.6479,681.8438,751.6479,685.8438,755.6479,681.8438" style="stroke:#111827;stroke-width:1;stroke-linejoin:miter;stroke-miterlimit:10;"/><line style="stroke:#111827;stroke-width:1;" x1="169.2817" x2="757.6479" y1="681.8438" y2="681.8438"/><text fill="#000000" font-family="'Arial'" font-size="13" font-weight="700" lengthAdjust="spacing" textLength="9.0454" x="176.2817" y="676.7778">5</text><text fill="#000000" font-family="'Arial'" font-size="13" lengthAdjust="spacing" textLength="357.8174" x="189.3271" y="676.7778">Trigger e-Rezept erstellen (inkl. e-Med GroupIdentifier)</text></g><path d="M42,699.8438 L42,731.8438 A5,5 0 0 0 47,736.8438 L278,736.8438 A5,5 0 0 0 283,731.8438 L283,704.8438 L273,694.8438 L47,694.8438 A5,5 0 0 0 42,699.8438" fill="url(#g19j61mob6ql7z0)" filter="url(#f19j61mob6ql7z)" style="stroke:#8B95A5;stroke-width:1;"/><path d="M273,694.8438 L273,702.3438 A2.5,2.5 0 0 0 275.5,704.8438 L283,704.8438 L273,694.8438" fill="url(#g19j61mob6ql7z0)" style="stroke:#8B95A5;stroke-width:1;"/><text fill="#111827" font-family="'Arial'" font-size="14" lengthAdjust="spacing" textLength="170.8643" x="48" y="712.8389">Erstellung e-Rezept inkl.</text><text fill="#111827" font-family="'Arial'" font-size="14" lengthAdjust="spacing" textLength="220.124" x="48" y="729.1357">e-Med GroupIdentifier ausl&#246;sen</text><path d="M134,752.4375 L194.9385,752.4375 L194.9385,760.7344 L184.9385,770.7344 L129,770.7344 L129,757.4375 A5,5 0 0 1 134,752.4375" fill="#EEF2FF" style="stroke:#111827;stroke-width:1.5;"/><rect fill="none" height="164.5859" rx="5" ry="5" style="stroke:#111827;stroke-width:2;" width="687.8198" x="129" y="752.4375"/><text fill="#000000" font-family="'Arial'" font-size="14" font-weight="700" lengthAdjust="spacing" textLength="20.9385" x="144" y="766.4326">alt</text><text fill="#000000" font-family="'Arial'" font-size="14" font-weight="700" lengthAdjust="spacing" textLength="144.8193" x="209.9385" y="767.4326">[e-Rezept erstellt]</text><g class="message" data-entity-1="part3" data-entity-2="part1" data-source-line="102" id="msg6"><polygon fill="#111827" points="180.2817,789.1641,170.2817,793.1641,180.2817,797.1641,176.2817,793.1641" style="stroke:#111827;stroke-width:1;stroke-linejoin:miter;stroke-miterlimit:10;"/><line style="stroke:#111827;stroke-width:1;stroke-dasharray:2,2;" x1="174.2817" x2="762.6479" y1="793.1641" y2="793.1641"/><text fill="#000000" font-family="'Arial'" font-size="13" font-weight="700" lengthAdjust="spacing" textLength="9.0454" x="186.2817" y="788.0981">6</text><text fill="#000000" font-family="'Arial'" font-size="13" lengthAdjust="spacing" textLength="18.7573" x="199.3271" y="788.0981">OK</text></g><line style="stroke:#111827;stroke-width:1;stroke-dasharray:2,2;" x1="129" x2="816.8198" y1="802.1641" y2="802.1641"/><text fill="#000000" font-family="'Arial'" font-size="14" font-weight="700" lengthAdjust="spacing" textLength="137.833" x="134" y="815.1592">[e-Rezept Fehler]</text><g class="message" data-entity-1="part3" data-entity-2="part1" data-source-line="105" id="msg7"><polygon fill="#111827" points="180.2817,836.5938,170.2817,840.5938,180.2817,844.5938,176.2817,840.5938" style="stroke:#111827;stroke-width:1;stroke-linejoin:miter;stroke-miterlimit:10;"/><line style="stroke:#111827;stroke-width:1;stroke-dasharray:2,2;" x1="174.2817" x2="767.6479" y1="840.5938" y2="840.5938"/><text fill="#000000" font-family="'Arial'" font-size="13" font-weight="700" lengthAdjust="spacing" textLength="9.0454" x="186.2817" y="835.5278">7</text><text fill="#000000" font-family="'Arial'" font-size="13" lengthAdjust="spacing" textLength="40.6694" x="199.3271" y="835.5278">Fehler</text></g><g class="message" data-entity-1="part1" data-entity-2="part2" data-source-line="107" id="msg8"><polygon fill="#111827" points="485.9619,865.7266,495.9619,869.7266,485.9619,873.7266,489.9619,869.7266" style="stroke:#111827;stroke-width:1;stroke-linejoin:miter;stroke-miterlimit:10;"/><line style="stroke:#111827;stroke-width:1;" x1="164.2817" x2="491.9619" y1="869.7266" y2="869.7266"/><text fill="#000000" font-family="'Arial'" font-size="13" font-weight="700" lengthAdjust="spacing" textLength="9.0454" x="171.2817" y="864.6606">8</text><text fill="#000000" font-family="'Arial'" font-size="13" font-style="italic" lengthAdjust="spacing" textLength="112.9819" x="184.3271" y="864.6606">Geplante Abgabe</text><text fill="#000000" font-family="'Arial'" font-size="13" lengthAdjust="spacing" textLength="135.7192" x="301.4414" y="864.6606">verwerfen ($discard)</text></g><path d="M324,887.7266 L324,903.7266 A5,5 0 0 0 329,908.7266 L662,908.7266 A5,5 0 0 0 667,903.7266 L667,892.7266 L657,882.7266 L329,882.7266 A5,5 0 0 0 324,887.7266" fill="url(#g19j61mob6ql7z0)" filter="url(#f19j61mob6ql7z)" style="stroke:#8B95A5;stroke-width:1;"/><path d="M657,882.7266 L657,890.2266 A2.5,2.5 0 0 0 659.5,892.7266 L667,892.7266 L657,882.7266" fill="url(#g19j61mob6ql7z0)" style="stroke:#8B95A5;stroke-width:1;"/><text fill="#111827" font-family="'Arial'" font-size="14" lengthAdjust="spacing" textLength="119.082" x="330" y="900.7217">Siehe Use Case "</text><text fill="#111827" font-family="'Arial'" font-size="14" font-style="italic" lengthAdjust="spacing" textLength="121.6729" x="449.082" y="900.7217">Geplante Abgabe</text><text fill="#111827" font-family="'Arial'" font-size="14" lengthAdjust="spacing" textLength="77.3281" x="575.2051" y="900.7217">verwerfen"</text><?plantuml-src XLRRRjj647tVhvXAVR2HAZLfovBLs82So6xG9X8afGzD0sD53gc5gAMw9ErMHV_6tv2dlkd7EikRbXUt520iTovxvinb6OiuGBZ7NS1bZ31U-No5u1t-KR32ACOrIXVX0xfYmsCHoaWhef2nEZpx2AX89mXG_YP_uKgaFcv7iC3V4vInqA889eKIF8QoF4iLXoNI1UpDSO-x61YBDaBkkE9RM8NAHVKs3485tRFqCQNSsVWg9EjSm-lhdw4HhRaRFWdfWyU320r9RgOaeR1CfovwF0dYkr367_aMeJEce89EkyP2x16iYtRXIx1__7E7AX1oOoXC9cqAduXvlS06_DlmZnbtNHsPVLRTlpKvwwUFIQaCAK5_CO3REdjuXdtlhDTrBVSABxM6wMcukkhpVhcxN0jd8p6AmAAzkS7caDuBRDgBGOLbMKDxG7kBCY-nIf3zRGACqifnCf0phcBXY1sLIrjSLOL6EQHFLQcPc8QuI6f5OB0DC5OgVAh7b6vMQKctsaui1TbPvxHrJyXtbHXBpvceaIxqx3Gwm_9ulAr9_OQgKLVFs-dFq_d3_RlnWmNTy_vmo0SNJelKXgx3XrSExtirwMoyV3_vk8GkjpbUNWpjcdmycqBtmdE7hjrtQxB9XycxXxinsLeNplbWCApB7-QJNoUpfUxVbMjxWq5DOVfJaKlxicuxdq_dq1ruLj_gdvypnfsOoCb2vH5qQ0LMnsI0xOvP1QIvfh5fLUpH2zoDErNSLVs7V4fb1jbBfnO8eKZYK2RR5Ih6hg_hmnFuIYKU3SFhwnImUEJKanbc4wX23y97pCFvhWGxWi-VXPwVsfPylbx7sw2RzStU5TodDjhsz4azXTo5cLxDQVNb2sDf_n-zCaqGglNXEOWREDd9E8a2WHwgHFfHZoelmFJCtYqLOe2dZ2w7TAIaSTOk4Jtj5N608gQr7lAHiwQtLHvw7Kf-Iz3c6t5Jz_NcUt43IaEX88N-1xPFV5mVlYhXltn1_S1qr-pUk_esyiWmkzewMUes0L65giDM0U6A8K1AsJ6cB2UzcuBw4SocYoKi5PTHHZvaHAIXPqYF6ItoLIqdnedfih0RbENtQSoeimi79e2iIkzhCQ7Q8v51b_0h41BytAiqtFg7Pxb7gVqUYS_TwYbI-m2mu1NOv2ZQeN3Mg6ADfoJ6m4RWKff6GE6Sp6duX8bow4Ywm8BNxNXFoG5ZI7TQfOyRPDpXEg24j9wMoO24BjOfPpg7PlhojXrHweJlwy2Bputo-mLE_XFm2yLAVN7qbJbWxIdYr4g7hn5beAJn2BiOAur1OjPA7NEQaiAoaeSMRalZ8wSjfksavegwIXeDqMpLj5E9g2TKUiYTVEkAoE7AFNsfz1Q2FZBXamRCwQ_pVouxPYbMa6Qf8Tc_?></g></svg>