<?xml version="1.0" encoding="us-ascii" standalone="no"?><svg xmlns="http://www.w3.org/2000/svg" xmlns:xlink="http://www.w3.org/1999/xlink" contentStyleType="text/css" height="899px" preserveAspectRatio="none" style="width:731px;height:899px;background:#F5F5F5;" version="1.1" viewBox="0 0 731 899" width="731px" zoomAndPan="magnify"><defs><linearGradient id="g1njku3ufbioli0" x1="50%" x2="50%" y1="0%" y2="100%"><stop offset="0%" stop-color="#E0E5F0"/><stop offset="100%" stop-color="#D1D9E6"/></linearGradient></defs><g><rect fill="#F5F5F5" height="899" style="stroke:none;stroke-width:1.0;" width="731" x="0" y="0"/><text fill="#000000" font-family="Arial" font-size="14" font-weight="bold" lengthAdjust="spacing" textLength="235" x="244" y="28.1318">Durchgef&#252;hrte Abgabe schreiben</text><text fill="#000000" font-family="Arial" font-size="14" font-weight="bold" lengthAdjust="spacing" textLength="225" x="249" y="44.2305">Variante A: Zugriff mittels e-card</text><rect fill="#0F9ED5" fill-opacity="0.56471" height="665.6138" style="stroke:#181818;stroke-width:1.0;" width="10" x="155" y="144.2959"/><rect fill="#E97232" fill-opacity="0.74118" height="154.3906" style="stroke:#181818;stroke-width:1.0;" width="10" x="466" y="632.519"/><rect fill="#CD3732" fill-opacity="0.66275" height="102.1934" style="stroke:#181818;stroke-width:1.0;" width="10" x="589.5" y="395.1323"/><rect fill="none" height="446.9233" rx="5" ry="5" style="stroke:#111827;stroke-width:2.0;" width="651" x="19" y="354.9863"/><rect fill="#0F9ED5" fill-opacity="0.14510" height="176.3394" rx="5" ry="5" style="stroke:#111827;stroke-width:2.0;" width="631" x="29" y="410.1323"/><path d="M29,458.2783 L660,458.2783 L660,581.4717 A5,5 0 0 1 655,586.4717 L34,586.4717 A5,5 0 0 1 29,581.4717 L29,458.2783 " fill="#E97132" fill-opacity="0.20784" style="stroke:none;stroke-width:1.0;"/><rect fill="#0F9ED5" fill-opacity="0.14510" height="147.3906" rx="5" ry="5" style="stroke:#111827;stroke-width:2.0;" width="450" x="117" y="647.519"/><path d="M117,747.8623 L567,747.8623 L567,789.9097 A5,5 0 0 1 562,794.9097 L122,794.9097 A5,5 0 0 1 117,789.9097 L117,747.8623 " fill="#E97132" fill-opacity="0.20784" style="stroke:none;stroke-width:1.0;"/><line style="stroke:#181818;stroke-width:0.5;stroke-dasharray:5.0,5.0;" x1="160" x2="160" y1="134.2959" y2="818.9097"/><line style="stroke:#181818;stroke-width:0.5;stroke-dasharray:5.0,5.0;" x1="471" x2="471" y1="134.2959" y2="818.9097"/><line style="stroke:#181818;stroke-width:0.5;stroke-dasharray:5.0,5.0;" x1="594" x2="594" y1="134.2959" y2="818.9097"/><text fill="#000000" font-family="Arial" font-size="14" lengthAdjust="spacing" textLength="60" x="127" y="131.3291">Apotheke</text><ellipse cx="160" cy="66.6973" fill="#0F9ED5" fill-opacity="0.56471" rx="8" ry="8" style="stroke:#181818;stroke-width:0.5;"/><path d="M160,74.6973 L160,101.6973 M147,82.6973 L173,82.6973 M160,101.6973 L147,116.6973 M160,101.6973 L173,116.6973 " fill="none" style="stroke:#181818;stroke-width:0.5;"/><text fill="#000000" font-family="Arial" font-size="14" lengthAdjust="spacing" textLength="60" x="127" y="831.0415">Apotheke</text><ellipse cx="160" cy="842.5083" fill="#0F9ED5" fill-opacity="0.56471" rx="8" ry="8" style="stroke:#181818;stroke-width:0.5;"/><path d="M160,850.5083 L160,877.5083 M147,858.5083 L173,858.5083 M160,877.5083 L147,892.5083 M160,877.5083 L173,892.5083 " fill="none" style="stroke:#181818;stroke-width:0.5;"/><rect fill="#E97232" fill-opacity="0.74118" height="30.0986" rx="5" ry="5" style="stroke:#555555;stroke-width:0.5;" width="76" x="433" y="103.1973"/><text fill="#000000" font-family="Arial" font-size="14" lengthAdjust="spacing" textLength="62" x="440" y="123.3291">e-Med FA</text><rect fill="#E97232" fill-opacity="0.74118" height="30.0986" rx="5" ry="5" style="stroke:#555555;stroke-width:0.5;" width="76" x="433" y="817.9097"/><text fill="#000000" font-family="Arial" font-size="14" lengthAdjust="spacing" textLength="62" x="440" y="838.0415">e-Med FA</text><rect fill="#CD3732" fill-opacity="0.66275" height="30.0986" rx="5" ry="5" style="stroke:#555555;stroke-width:0.5;" width="71" x="559" y="103.1973"/><text fill="#000000" font-family="Arial" font-size="14" lengthAdjust="spacing" textLength="57" x="566" y="123.3291">e-Rezept</text><rect fill="#CD3732" fill-opacity="0.66275" height="30.0986" rx="5" ry="5" style="stroke:#555555;stroke-width:0.5;" width="71" x="559" y="817.9097"/><text fill="#000000" font-family="Arial" font-size="14" lengthAdjust="spacing" textLength="57" x="566" y="838.0415">e-Rezept</text><rect fill="#0F9ED5" fill-opacity="0.56471" height="665.6138" style="stroke:#181818;stroke-width:1.0;" width="10" x="155" y="144.2959"/><rect fill="#E97232" fill-opacity="0.74118" height="154.3906" style="stroke:#181818;stroke-width:1.0;" width="10" x="466" y="632.519"/><rect fill="#CD3732" fill-opacity="0.66275" height="102.1934" style="stroke:#181818;stroke-width:1.0;" width="10" x="589.5" y="395.1323"/><rect fill="#EEEEEE" height="3" rx="5" ry="5" style="stroke:#EEEEEE;stroke-width:1.0;" width="724" x="0" y="165.3452"/><line style="stroke:#000000;stroke-width:1.0;" x1="0" x2="724" y1="165.3452" y2="165.3452"/><line style="stroke:#000000;stroke-width:1.0;" x1="0" x2="724" y1="168.3452" y2="168.3452"/><rect fill="#EEEEEE" height="24.0986" rx="5" ry="5" style="stroke:#000000;stroke-width:2.0;" width="401" x="161.5" y="154.2959"/><text fill="#000000" font-family="Arial" font-size="14" font-weight="bold" lengthAdjust="spacing" textLength="383" x="167.5" y="171.4277">e-Rezept, Geplante Abgabe + Medikationsplan abrufen</text><rect fill="none" height="42.1973" rx="5" ry="5" style="stroke:#000000;stroke-width:1.5;" width="408" x="124" y="188.3945"/><path d="M129,188.3945 L189,188.3945 L189,196.3945 L179,206.3945 L124,206.3945 L124,193.3945 A5,5 0 0 1 129,188.3945 " fill="#EEEEEE" style="stroke:#000000;stroke-width:2.0;"/><text fill="#000000" font-family="Arial" font-size="14" font-weight="bold" lengthAdjust="spacing" textLength="20" x="137" y="203.5264">ref</text><a href="Sub_UC_eMed_07_01.html#sub_uc_emed_07_01_a-zugriff-mittels-e-card" target="_top" title="Sub_UC_eMed_07_01.html#sub_uc_emed_07_01_a-zugriff-mittels-e-card" xlink:actuate="onRequest" xlink:href="Sub_UC_eMed_07_01.html#sub_uc_emed_07_01_a-zugriff-mittels-e-card" xlink:show="new" xlink:title="Sub_UC_eMed_07_01.html#sub_uc_emed_07_01_a-zugriff-mittels-e-card" xlink:type="simple"><text fill="#0000EE" font-family="Arial" font-size="14" lengthAdjust="spacing" textLength="299" x="178.5" y="223.5264">Geplante Abgaben lesen - Zugriff mittels e-card</text></a><rect fill="#EEEEEE" height="3" rx="5" ry="5" style="stroke:#EEEEEE;stroke-width:1.0;" width="724" x="0" y="256.6411"/><line style="stroke:#000000;stroke-width:1.0;" x1="0" x2="724" y1="256.6411" y2="256.6411"/><line style="stroke:#000000;stroke-width:1.0;" x1="0" x2="724" y1="259.6411" y2="259.6411"/><rect fill="#EEEEEE" height="24.0986" rx="5" ry="5" style="stroke:#000000;stroke-width:2.0;" width="578" x="73" y="245.5918"/><text fill="#000000" font-family="Arial" font-size="14" font-weight="bold" lengthAdjust="spacing" textLength="556" x="79" y="262.7236">e-Rezept aktualisieren und Durchgef&#252;hrte Abgaben vorbereiten und schreiben</text><path d="M5,289.6904 L5,337.6904 A5,5 0 0 0 10,342.6904 L311,342.6904 A5,5 0 0 0 316,337.6904 L316,294.6904 L306,284.6904 L10,284.6904 A5,5 0 0 0 5,289.6904 " fill="url(#g1njku3ufbioli0)" style="stroke:#8B95A5;stroke-width:1.0;"/><path d="M306,284.6904 L306,292.1904 A2.5,2.5 0 0 0 308.5,294.6904 L316,294.6904 L306,284.6904 " fill="url(#g1njku3ufbioli0)" style="stroke:#8B95A5;stroke-width:1.0;"/><text fill="#111827" font-family="Arial" font-size="14" font-style="italic" lengthAdjust="spacing" textLength="152" x="11" y="302.8223">Durchgef&#252;hrte Abgaben</text><text fill="#111827" font-family="Arial" font-size="14" lengthAdjust="spacing" textLength="54" x="167" y="302.8223">erstellen</text><text fill="#111827" font-family="Arial" font-size="14" lengthAdjust="spacing" textLength="163" x="11" y="318.9209">(referenzieren zugeh&#246;rige</text><text fill="#111827" font-family="Arial" font-size="14" font-style="italic" lengthAdjust="spacing" textLength="119" x="178" y="318.9209">Geplante Abgaben</text><text fill="#111827" font-family="Arial" font-size="14" lengthAdjust="spacing" textLength="4" x="297" y="318.9209">&#160;</text><text fill="#111827" font-family="Arial" font-size="14" lengthAdjust="spacing" textLength="24" x="11" y="335.0195">und</text><text fill="#111827" font-family="Arial" font-size="14" font-style="italic" lengthAdjust="spacing" textLength="156" x="39" y="335.0195">Medikationsplaneintr&#228;ge</text><text fill="#111827" font-family="Arial" font-size="14" lengthAdjust="spacing" textLength="5" x="195" y="335.0195">)</text><path d="M24,354.9863 L87,354.9863 L87,363.085 L77,373.085 L19,373.085 L19,359.9863 A5,5 0 0 1 24,354.9863 " fill="#EEF2FF" style="stroke:#111827;stroke-width:1.5;"/><rect fill="none" height="446.9233" rx="5" ry="5" style="stroke:#111827;stroke-width:2.0;" width="651" x="19" y="354.9863"/><text fill="#000000" font-family="Arial" font-size="14" font-weight="bold" lengthAdjust="spacing" textLength="23" x="34" y="369.1182">par</text><text fill="#000000" font-family="Arial" font-size="14" font-weight="bold" lengthAdjust="spacing" textLength="178" x="102" y="370.1182">[Aktualisierung e-Rezept]</text><polygon fill="#111827" points="577.5,391.1323,587.5,395.1323,577.5,399.1323,581.5,395.1323" style="stroke:#111827;stroke-width:1.0;"/><line style="stroke:#111827;stroke-width:1.0;" x1="165" x2="583.5" y1="395.1323" y2="395.1323"/><text fill="#000000" font-family="Arial" font-size="13" font-weight="bold" lengthAdjust="spacing" textLength="7" x="172" y="390.3774">1</text><text fill="#000000" font-family="Arial" font-size="13" lengthAdjust="spacing" textLength="172" x="183" y="390.3774">Trigger e-Rezept aktualisieren</text><path d="M34,410.1323 L91,410.1323 L91,418.231 L81,428.231 L29,428.231 L29,415.1323 A5,5 0 0 1 34,410.1323 " fill="#EEF2FF" style="stroke:#111827;stroke-width:1.5;"/><rect fill="none" height="176.3394" rx="5" ry="5" style="stroke:#111827;stroke-width:2.0;" width="631" x="29" y="410.1323"/><text fill="#000000" font-family="Arial" font-size="14" font-weight="bold" lengthAdjust="spacing" textLength="17" x="44" y="424.2642">alt</text><text fill="#000000" font-family="Arial" font-size="14" font-weight="bold" lengthAdjust="spacing" textLength="155" x="106" y="425.2642">[e-Rezept aktualisiert]</text><polygon fill="#111827" points="176,446.2783,166,450.2783,176,454.2783,172,450.2783" style="stroke:#111827;stroke-width:1.0;"/><line style="stroke:#111827;stroke-width:1.0;stroke-dasharray:2.0,2.0;" x1="170" x2="588.5" y1="450.2783" y2="450.2783"/><text fill="#000000" font-family="Arial" font-size="13" font-weight="bold" lengthAdjust="spacing" textLength="7" x="182" y="445.5234">2</text><text fill="#000000" font-family="Arial" font-size="13" lengthAdjust="spacing" textLength="19" x="193" y="445.5234">OK</text><line style="stroke:#111827;stroke-width:1.0;stroke-dasharray:2.0,2.0;" x1="29" x2="660" y1="459.2783" y2="459.2783"/><text fill="#000000" font-family="Arial" font-size="14" font-weight="bold" lengthAdjust="spacing" textLength="123" x="34" y="472.4102">[e-Rezept Fehler]</text><polygon fill="#111827" points="176,493.3257,166,497.3257,176,501.3257,172,497.3257" style="stroke:#111827;stroke-width:1.0;"/><line style="stroke:#111827;stroke-width:1.0;stroke-dasharray:2.0,2.0;" x1="170" x2="593.5" y1="497.3257" y2="497.3257"/><text fill="#000000" font-family="Arial" font-size="13" font-weight="bold" lengthAdjust="spacing" textLength="7" x="182" y="492.5708">3</text><text fill="#000000" font-family="Arial" font-size="13" lengthAdjust="spacing" textLength="36" x="193" y="492.5708">Fehler</text><polygon fill="#111827" points="459,522.2744,469,526.2744,459,530.2744,463,526.2744" style="stroke:#111827;stroke-width:1.0;"/><line style="stroke:#111827;stroke-width:1.0;" x1="165" x2="465" y1="526.2744" y2="526.2744"/><text fill="#000000" font-family="Arial" font-size="13" font-weight="bold" lengthAdjust="spacing" textLength="7" x="172" y="521.5195">4</text><text fill="#000000" font-family="Arial" font-size="13" lengthAdjust="spacing" textLength="144" x="183" y="521.5195">POST $dispense-discard&#8203;</text><path d="M39,544.2744 L39,576.2744 A5,5 0 0 0 44,581.2744 L275,581.2744 A5,5 0 0 0 280,576.2744 L280,549.2744 L270,539.2744 L44,539.2744 A5,5 0 0 0 39,544.2744 " fill="url(#g1njku3ufbioli0)" style="stroke:#8B95A5;stroke-width:1.0;"/><path d="M270,539.2744 L270,546.7744 A2.5,2.5 0 0 0 272.5,549.2744 L280,549.2744 L270,539.2744 " fill="url(#g1njku3ufbioli0)" style="stroke:#8B95A5;stroke-width:1.0;"/><text fill="#111827" font-family="Arial" font-size="14" lengthAdjust="spacing" textLength="101" x="45" y="557.4063">Siehe Use Case</text><text fill="#111827" font-family="Arial" font-size="14" lengthAdjust="spacing" textLength="5" x="45" y="573.5049">"</text><text fill="#111827" font-family="Arial" font-size="14" font-style="italic" lengthAdjust="spacing" textLength="144" x="50" y="573.5049">Durchgef&#252;hrte Abgabe</text><text fill="#111827" font-family="Arial" font-size="14" lengthAdjust="spacing" textLength="67" x="198" y="573.5049">verwerfen"</text><line style="stroke:#111827;stroke-width:1.0;stroke-dasharray:2.0,2.0;" x1="19" x2="670" y1="594.4717" y2="594.4717"/><text fill="#000000" font-family="Arial" font-size="14" font-weight="bold" lengthAdjust="spacing" textLength="171" x="24" y="607.6035">[gleichzeitige Erstellung</text><text fill="#000000" font-family="Arial" font-size="14" font-style="italic" font-weight="bold" lengthAdjust="spacing" textLength="165" x="199" y="607.6035">Durchgef&#252;hrte Abgaben</text><text fill="#000000" font-family="Arial" font-size="14" font-weight="bold" lengthAdjust="spacing" textLength="5" x="364" y="607.6035">]</text><polygon fill="#111827" points="454,628.519,464,632.519,454,636.519,458,632.519" style="stroke:#111827;stroke-width:1.0;"/><line style="stroke:#111827;stroke-width:1.0;" x1="165" x2="460" y1="632.519" y2="632.519"/><text fill="#000000" font-family="Arial" font-size="13" font-weight="bold" lengthAdjust="spacing" textLength="7" x="172" y="627.7642">5</text><text fill="#000000" font-family="Arial" font-size="13" lengthAdjust="spacing" textLength="271" x="183" y="627.7642">POST Transaction Bundle MedicationDispense</text><path d="M122,647.519 L179,647.519 L179,655.6177 L169,665.6177 L117,665.6177 L117,652.519 A5,5 0 0 1 122,647.519 " fill="#EEF2FF" style="stroke:#111827;stroke-width:1.5;"/><rect fill="none" height="147.3906" rx="5" ry="5" style="stroke:#111827;stroke-width:2.0;" width="450" x="117" y="647.519"/><text fill="#000000" font-family="Arial" font-size="14" font-weight="bold" lengthAdjust="spacing" textLength="17" x="132" y="661.6509">alt</text><text fill="#000000" font-family="Arial" font-size="14" font-weight="bold" lengthAdjust="spacing" textLength="233" x="194" y="662.6509">[Durchgef&#252;hrte Abgaben erstellt]</text><path d="M384,676.7163 L384,708.7163 A5,5 0 0 0 389,713.7163 L552,713.7163 A5,5 0 0 0 557,708.7163 L557,681.7163 L547,671.7163 L389,671.7163 A5,5 0 0 0 384,676.7163 " fill="url(#g1njku3ufbioli0)" style="stroke:#8B95A5;stroke-width:1.0;"/><path d="M547,671.7163 L547,679.2163 A2.5,2.5 0 0 0 549.5,681.7163 L557,681.7163 L547,671.7163 " fill="url(#g1njku3ufbioli0)" style="stroke:#8B95A5;stroke-width:1.0;"/><text fill="#111827" font-family="Arial" font-size="14" font-style="italic" lengthAdjust="spacing" textLength="152" x="390" y="689.8481">Durchgef&#252;hrte Abgaben</text><text fill="#111827" font-family="Arial" font-size="14" lengthAdjust="spacing" textLength="74" x="390" y="705.9468">gespeichert</text><polygon fill="#111827" points="176,735.8623,166,739.8623,176,743.8623,172,739.8623" style="stroke:#111827;stroke-width:1.0;"/><line style="stroke:#111827;stroke-width:1.0;stroke-dasharray:2.0,2.0;" x1="170" x2="465" y1="739.8623" y2="739.8623"/><text fill="#000000" font-family="Arial" font-size="13" font-weight="bold" lengthAdjust="spacing" textLength="7" x="182" y="735.1074">6</text><text fill="#000000" font-family="Arial" font-size="13" lengthAdjust="spacing" textLength="19" x="193" y="735.1074">OK</text><line style="stroke:#111827;stroke-width:1.0;stroke-dasharray:2.0,2.0;" x1="117" x2="567" y1="748.8623" y2="748.8623"/><text fill="#000000" font-family="Arial" font-size="14" font-weight="bold" lengthAdjust="spacing" textLength="331" x="122" y="761.9941">[Fehler bei Erstellung Durchgef&#252;hrte Abgaben]</text><polygon fill="#111827" points="176,782.9097,166,786.9097,176,790.9097,172,786.9097" style="stroke:#111827;stroke-width:1.0;"/><line style="stroke:#111827;stroke-width:1.0;stroke-dasharray:2.0,2.0;" x1="170" x2="470" y1="786.9097" y2="786.9097"/><text fill="#000000" font-family="Arial" font-size="13" font-weight="bold" lengthAdjust="spacing" textLength="7" x="182" y="782.1548">7</text><text fill="#000000" font-family="Arial" font-size="13" lengthAdjust="spacing" textLength="36" x="193" y="782.1548">Fehler</text><!--SRC=[VLRHRk9657ttLzn2fRRgqjfc2I7QH2A1fDLs5mIa3xjTeS6-nYFCc8x7oMvMbVhUt-WtzAbl-PD-IU-CZR6DMKT1-DupTywvzymaYgi8OPHABrnZyFnlA1N2SBLcAuJ42oNo5OhVnAzCSYPqwWBUfMl9Wm2sN2cC4i2EnwHlMTya6ovsJB8jC4_5Sgu-KMdsY4cyHSiwP5Unz57Un54ieMsRfvnbtcOjurJuEIBewPyI8WcP7pzoiOQ0HGcMClaoAL22KoxgOy3IIDt6GhrbMuJMaFH4hMR4d3yXE2-RawTe__HfXpBYObC2ZCVGXBWNllc2H_oluuzJvljQccjNuzVbflNCK-wfY6audos0wthxqCPUO7VQlkCFy4mZofNELuCUwnNHHSYzZS0a0OTYir8xRNhVSzDLIhrm7EVSxLDiNXlC7sM62VwUel0obbCc5VVuZZpL9Am2EExwKNe_iKgYr4c0ePJnOvsl2LObcr3JZaKYswjBeJjgywv2lwYSfOv6WO4R1DMLX-rTtQ-lo6hQ6JUJNoQpvTrek7I0dhRJExFFtNEx0U0QmE3ipEwFZW3JuUBdyTk5hZ0uktPV7W66qmcOfstV3iQZtg0E6ByPZvQtGmBWeEzstPLV1ondutVZwGBQdj_jTrqsgCkOl8RA7cwlNc8scymCO3peErstIzusTmXeWSDT32oXCxkBLOWRR1seMxl3l07VeA-PQYnsw0LkXwsgYYf-ESCdtAbyGVRIggaY8gcAHRfTeJIa-0EZexRdTMYYTNa9-o8lu0vtKNPXPdVfzq1y-8Of7ej4fu2jP1gWWCjBYnmXCO3u0Gl1Bmer5_3-_JnTBUzlbYPazvUsyqEejb4xeN3gBN6x3ozPvocxdJlvxTp9RkSw7m4H9lJPEN6RV_XWbVK0swYKHJpXA6aLERhvJuQ0XrXIev2h75Ry3G4Zr5nJPPtMAtxLNEhLZ_mAK2R4AjBBhM-fHthxfum42SNm-H_9rmXKf2xGBBSq1KhMUezSAFdyznerw3iB2QI9MPQs1mmFMbEwFlOzq5FQJxrpLPZd0XP4OKsAcfj5gmhJ58QhMOp44IfIX-FIL4jP-eGKDJf48kTp0PFNcXxDhtgYYZAt64RatzC5CW0OX8z7ZAqiKzQVsVC2ffFv0hxsUR93aM27lcW3_VVdNsQ5-JYUkexEEOO8zveoemyJQvsoWnadLNX4IOUcbIdPpyryjQniGzE4TOJS2v_8XzeUuyn5UffVj5jzn1M92yb4eXiJ2xWcNz7_DjfMdh7LA9TVcNP-WAiNK7tI9yvHRdnbrHgO5pNHBslHY3KIBMf4OPx2wUOj9rXp4ZHQAJV82dcvdStxdwv-ocQvgdoI-lT_]--></g></svg>