<?xml version="1.0" encoding="us-ascii" standalone="no"?><svg xmlns="http://www.w3.org/2000/svg" xmlns:xlink="http://www.w3.org/1999/xlink" contentStyleType="text/css" height="765px" preserveAspectRatio="none" style="width:590px;height:765px;background:#F5F5F5;" version="1.1" viewBox="0 0 590 765" width="590px" zoomAndPan="magnify"><defs><linearGradient id="gbvxa58ynnizc0" x1="50%" x2="50%" y1="0%" y2="100%"><stop offset="0%" stop-color="#E0E5F0"/><stop offset="100%" stop-color="#D1D9E6"/></linearGradient></defs><g><rect fill="#F5F5F5" height="765" style="stroke:none;stroke-width:1.0;" width="590" x="0" y="0"/><text fill="#000000" font-family="Arial" font-size="14" font-weight="bold" lengthAdjust="spacing" textLength="227" x="177.5" y="28.1318">Initial erstellter Medikationsplan</text><rect fill="#156082" fill-opacity="0.50196" height="425.1284" style="stroke:#181818;stroke-width:1.0;" width="10" x="90" y="192.0947"/><rect fill="#E97232" fill-opacity="0.74118" height="425.1284" style="stroke:#181818;stroke-width:1.0;" width="10" x="322" y="192.0947"/><line style="stroke:#181818;stroke-width:0.5;stroke-dasharray:5.0,5.0;" x1="95" x2="95" y1="118.1973" y2="684.8208"/><line style="stroke:#181818;stroke-width:0.5;stroke-dasharray:5.0,5.0;" x1="327" x2="327" y1="118.1973" y2="684.8208"/><text fill="#000000" font-family="Arial" font-size="14" lengthAdjust="spacing" textLength="42" x="71" y="115.2305">GDA 1</text><ellipse cx="95" cy="50.5986" fill="#156082" fill-opacity="0.50196" rx="8" ry="8" style="stroke:#181818;stroke-width:0.5;"/><path d="M95,58.5986 L95,85.5986 M82,66.5986 L108,66.5986 M95,85.5986 L82,100.5986 M95,85.5986 L108,100.5986 " fill="none" style="stroke:#181818;stroke-width:0.5;"/><text fill="#000000" font-family="Arial" font-size="14" lengthAdjust="spacing" textLength="42" x="71" y="696.9526">GDA 1</text><ellipse cx="95" cy="708.4194" fill="#156082" fill-opacity="0.50196" rx="8" ry="8" style="stroke:#181818;stroke-width:0.5;"/><path d="M95,716.4194 L95,743.4194 M82,724.4194 L108,724.4194 M95,743.4194 L82,758.4194 M95,743.4194 L108,758.4194 " fill="none" style="stroke:#181818;stroke-width:0.5;"/><rect fill="#E97232" fill-opacity="0.74118" height="30.0986" rx="5" ry="5" style="stroke:#555555;stroke-width:0.5;" width="76" x="289" y="87.0986"/><text fill="#000000" font-family="Arial" font-size="14" lengthAdjust="spacing" textLength="62" x="296" y="107.2305">e-Med FA</text><rect fill="#E97232" fill-opacity="0.74118" height="30.0986" rx="5" ry="5" style="stroke:#555555;stroke-width:0.5;" width="76" x="289" y="683.8208"/><text fill="#000000" font-family="Arial" font-size="14" lengthAdjust="spacing" textLength="62" x="296" y="703.9526">e-Med FA</text><rect fill="#156082" fill-opacity="0.50196" height="425.1284" style="stroke:#181818;stroke-width:1.0;" width="10" x="90" y="192.0947"/><rect fill="#E97232" fill-opacity="0.74118" height="425.1284" style="stroke:#181818;stroke-width:1.0;" width="10" x="322" y="192.0947"/><rect fill="#EEEEEE" height="3" rx="5" ry="5" style="stroke:#EEEEEE;stroke-width:1.0;" width="583" x="0" y="148.6716"/><line style="stroke:#000000;stroke-width:1.0;" x1="0" x2="583" y1="148.6716" y2="148.6716"/><line style="stroke:#000000;stroke-width:1.0;" x1="0" x2="583" y1="151.6716" y2="151.6716"/><rect fill="#EEEEEE" height="22.9487" rx="5" ry="5" style="stroke:#000000;stroke-width:2.0;" width="237" x="173" y="138.1973"/><text fill="#000000" font-family="Arial" font-size="13" font-weight="bold" lengthAdjust="spacing" textLength="219" x="179" y="154.3911">Erstmaliges Medikationsplan lesen</text><polygon fill="#111827" points="310,188.0947,320,192.0947,310,196.0947,314,192.0947" style="stroke:#111827;stroke-width:1.0;"/><line style="stroke:#111827;stroke-width:1.0;" x1="100" x2="316" y1="192.0947" y2="192.0947"/><text fill="#000000" font-family="Arial" font-size="13" font-weight="bold" lengthAdjust="spacing" textLength="7" x="107" y="187.3398">1</text><text fill="#000000" font-family="Arial" font-size="13" lengthAdjust="spacing" textLength="99" x="118" y="187.3398">POST $plan-read</text><path d="M5,210.0947 L5,239.0947 A5,5 0 0 0 10,244.0947 L181,244.0947 A5,5 0 0 0 186,239.0947 L186,215.0947 L176,205.0947 L10,205.0947 A5,5 0 0 0 5,210.0947 " fill="url(#gbvxa58ynnizc0)" style="stroke:#8B95A5;stroke-width:1.0;"/><path d="M176,205.0947 L176,212.5947 A2.5,2.5 0 0 0 178.5,215.0947 L186,215.0947 L176,205.0947 " fill="url(#gbvxa58ynnizc0)" style="stroke:#8B95A5;stroke-width:1.0;"/><text fill="#111827" font-family="Arial" font-size="13" lengthAdjust="spacing" textLength="160" x="11" y="222.2886">Abruf des Medikationsplans</text><text fill="#111827" font-family="Arial" font-size="13" lengthAdjust="spacing" textLength="91" x="11" y="237.2373">zur Bearbeitung</text><line style="stroke:#111827;stroke-width:1.0;" x1="332" x2="374" y1="285.8896" y2="285.8896"/><line style="stroke:#111827;stroke-width:1.0;" x1="374" x2="374" y1="285.8896" y2="298.8896"/><line style="stroke:#111827;stroke-width:1.0;" x1="333" x2="374" y1="298.8896" y2="298.8896"/><polygon fill="#111827" points="343,294.8896,333,298.8896,343,302.8896,339,298.8896" style="stroke:#111827;stroke-width:1.0;"/><text fill="#000000" font-family="Arial" font-size="13" font-weight="bold" lengthAdjust="spacing" textLength="7" x="339" y="273.6604">2</text><text fill="#000000" font-family="Arial" font-size="13" lengthAdjust="spacing" textLength="141" x="350" y="266.186">Existiert ein persistierter</text><text fill="#000000" font-family="Arial" font-size="13" lengthAdjust="spacing" textLength="101" x="350" y="281.1348">Medikationsplan?</text><line style="stroke:#111827;stroke-width:1.0;" x1="332" x2="374" y1="366.7358" y2="366.7358"/><line style="stroke:#111827;stroke-width:1.0;" x1="374" x2="374" y1="366.7358" y2="379.7358"/><line style="stroke:#111827;stroke-width:1.0;" x1="333" x2="374" y1="379.7358" y2="379.7358"/><polygon fill="#111827" points="343,375.7358,333,379.7358,343,383.7358,339,379.7358" style="stroke:#111827;stroke-width:1.0;"/><text fill="#000000" font-family="Arial" font-size="13" font-weight="bold" lengthAdjust="spacing" textLength="7" x="339" y="354.5066">3</text><text fill="#000000" font-family="Arial" font-size="13" lengthAdjust="spacing" textLength="182" x="350" y="347.0322">Erzeugt leeren Medikationsplan</text><text fill="#000000" font-family="Arial" font-size="13" lengthAdjust="spacing" textLength="211" x="350" y="361.981">List mit emptyReason = "notstarted"</text><line style="stroke:#111827;stroke-width:1.0;" x1="332" x2="374" y1="438.582" y2="438.582"/><line style="stroke:#111827;stroke-width:1.0;" x1="374" x2="374" y1="438.582" y2="451.582"/><line style="stroke:#111827;stroke-width:1.0;" x1="333" x2="374" y1="451.582" y2="451.582"/><polygon fill="#111827" points="343,447.582,333,451.582,343,455.582,339,451.582" style="stroke:#111827;stroke-width:1.0;"/><text fill="#000000" font-family="Arial" font-size="13" font-weight="bold" lengthAdjust="spacing" textLength="7" x="339" y="418.8784">4</text><text fill="#000000" font-family="Arial" font-size="13" lengthAdjust="spacing" textLength="59" x="350" y="403.9297">Persistiert</text><text fill="#000000" font-family="Arial" font-size="13" lengthAdjust="spacing" textLength="98" x="350" y="418.8784">Medikationsplan-</text><text fill="#000000" font-family="Arial" font-size="13" lengthAdjust="spacing" textLength="101" x="350" y="433.8271">Collection Bundle</text><line style="stroke:#111827;stroke-width:1.0;" x1="332" x2="374" y1="495.4795" y2="495.4795"/><line style="stroke:#111827;stroke-width:1.0;" x1="374" x2="374" y1="495.4795" y2="508.4795"/><line style="stroke:#111827;stroke-width:1.0;" x1="333" x2="374" y1="508.4795" y2="508.4795"/><polygon fill="#111827" points="343,504.4795,333,508.4795,343,512.4795,339,508.4795" style="stroke:#111827;stroke-width:1.0;"/><text fill="#000000" font-family="Arial" font-size="13" font-weight="bold" lengthAdjust="spacing" textLength="7" x="339" y="483.2502">5</text><text fill="#000000" font-family="Arial" font-size="13" lengthAdjust="spacing" textLength="131" x="350" y="475.7759">Erzeugt Auslieferungs-</text><text fill="#000000" font-family="Arial" font-size="13" lengthAdjust="spacing" textLength="101" x="350" y="490.7246">Collection Bundle</text><path d="M255,526.4795 L255,555.4795 A5,5 0 0 0 260,560.4795 L393,560.4795 A5,5 0 0 0 398,555.4795 L398,531.4795 L388,521.4795 L260,521.4795 A5,5 0 0 0 255,526.4795 " fill="url(#gbvxa58ynnizc0)" style="stroke:#8B95A5;stroke-width:1.0;"/><path d="M388,521.4795 L388,528.9795 A2.5,2.5 0 0 0 390.5,531.4795 L398,531.4795 L388,521.4795 " fill="url(#gbvxa58ynnizc0)" style="stroke:#8B95A5;stroke-width:1.0;"/><text fill="#111827" font-family="Arial" font-size="13" lengthAdjust="spacing" textLength="122" x="261" y="538.6733">Keine Transformation</text><text fill="#111827" font-family="Arial" font-size="13" lengthAdjust="spacing" textLength="62" x="261" y="553.6221">notwendig.</text><polygon fill="#111827" points="106,613.2231,96,617.2231,106,621.2231,102,617.2231" style="stroke:#111827;stroke-width:1.0;"/><line style="stroke:#111827;stroke-width:1.0;" x1="100" x2="326" y1="617.2231" y2="617.2231"/><text fill="#000000" font-family="Arial" font-size="13" font-weight="bold" lengthAdjust="spacing" textLength="7" x="112" y="597.5195">6</text><text fill="#000000" font-family="Arial" font-size="13" lengthAdjust="spacing" textLength="183" x="123" y="582.5708">Auslieferungs-Collection Bundle</text><text fill="#000000" font-family="Arial" font-size="13" lengthAdjust="spacing" textLength="187" x="123" y="597.5195">(List.emptyReason = notstarted)</text><text fill="#000000" font-family="Arial" font-size="13" lengthAdjust="spacing" textLength="42" x="123" y="612.4683">+ ETag</text><path d="M246,649.8721 L246,663.8721 A5,5 0 0 0 251,668.8721 L403,668.8721 A5,5 0 0 0 408,663.8721 L408,654.8721 L398,644.8721 L251,644.8721 A5,5 0 0 0 246,649.8721 " fill="url(#gbvxa58ynnizc0)" style="stroke:#8B95A5;stroke-width:1.0;"/><path d="M398,644.8721 L398,652.3721 A2.5,2.5 0 0 0 400.5,654.8721 L408,654.8721 L398,644.8721 " fill="url(#gbvxa58ynnizc0)" style="stroke:#8B95A5;stroke-width:1.0;"/><text fill="#111827" font-family="Arial" font-size="13" lengthAdjust="spacing" textLength="141" x="252" y="662.0659">Siehe Ablauf Plan-Read.</text><!--SRC=[XLJlR-8u4Ftkls8MLjexdLWbOO6cKkyKjcbtjJz0m7qv8LK63zHBS5ZRsMvxkl_znW6Aaz0xjn_8-7dclJTZMsapX8zAMiapG6qiPfb53LzGo0stCbTcbt75s1kpaMh7DTy2NzfSJ-qZdUGFQF8jCdRQNUHQe7wVPxc6Tb0kVvSlDskT5qeS4AkU-_CGvfwB_46gDQnuPj3REHpJYlY5VbA1ArvazYPNzYlV8hGIJN9QFcSFCfLF2E6xy-TVultXSOSwashZ0TBq7E1F9SeVsE0_p7-EkH1EMXHKuqFVj5wvV4zLRX7-PW33kdqOO6yLTDeY537s7SBFTB68Uxpt79tTo-L6eJ4GKcpYsHdGzv6Ro-9P4ORXHJIWsBJMc7zyXWQ_5wYMUvPZhgrSoXrNzfomAg0n4EMgWfgTQMmVkrhPyEm6IBJE7-gYoc3Lbp9qhkBpnhvMbqAtn7nNqVYSUR_Lw1UkebATT_9KFdAclg9nTEFpVlHvDBcxlKxkGg3L3dlzu2Aw2Cu0eX8Gz_l1uBe162UpZ-dNcSiGzuVHkmOW6O-WNEtW9awlUt4Ta7v9h-zk4W9WF8YwqKBK0NUJzAzqF8FsKdG7tOZ7THcZJr2f4VNgAIQJqQG4fF4Wx4PTkW3bGmDx1xY15ls2iEKRmtQdPWFIe-LeEYXsw0DkabPL0kKiRAwAxG8rOrTNaDAJj-MPNAEfltcGeK45LrUCxIbqVZ-Mk8JnQ3g3rmxMqSY5eof_SBgbUwXFaPMtD_-11oaiMUXYHOzEew9XJuM68NAzG6aBjMQeH7dvsQd0KMLLrp7gSqn_IcCbQd96Ag3doHo-KSzLhVGVL26pfsOfEd896tUmRekN21XDyjdI-WcBjIKBKMCZnLnzfWImbSHikxEF4-Gc9wUXHLgDfPQYQBsGUNogtX3HcIkwPXakNGI6TEio_1-2IM4oYIlKvBPvuVpp_wcHXpmK-uHkXcUQkhVAzROaiuS-KFFa-gqZSEnYXKiv39Sr1etwS_MBC-jjrQYJJx_ErM-GplZQ4HHO7nF66D9ZNRbat_ZbVpVrlDAfn7k4P95ncjwnivleY8e-vX4u3F-_]--></g></svg>