<svg xmlns="http://www.w3.org/2000/svg" xmlns:xlink="http://www.w3.org/1999/xlink" version="1.1" data-diagram-type="SEQUENCE" style="width:623px;height:777px;background:#F5F5F5;" width="623px" height="777px" viewBox="0 0 623 777" zoomAndPan="magnify" preserveAspectRatio="none" contentStyleType="text/css"><?plantuml 1.2026.7beta6?><defs><linearGradient x1="50%" y1="0%" x2="50%" y2="100%" id="g1hxzr9v4sr9bp0"><stop stop-color="#E0E5F0" offset="0%"/><stop stop-color="#D1D9E6" offset="100%"/></linearGradient></defs><g font-family="sans-serif" lengthAdjust="spacing"><rect x="0" y="0" width="623" height="777" fill="#F5F5F5" style="stroke:none;"/><g class="title" data-source-line="1"><text x="192.458" y="27.995" fill="#000" font-size="14" textLength="236.763" font-weight="700" font-family="'Arial'">Leeren Medikationsplan lesen</text></g><path d="M131.897,315.391 L587.263,315.391 A5,5 0 0 1 592.263,320.391 L592.263,546.195 L126.897,546.195 L126.897,320.391 A5,5 0 0 1 131.897,315.391" fill="#0F9ED5" fill-opacity="0.145"/><path d="M126.897,546.195 L592.263,546.195 L592.263,596.133 A5,5 0 0 1 587.263,601.133 L131.897,601.133 A5,5 0 0 1 126.897,596.133 L126.897,546.195" fill="#E97132" fill-opacity="0.208"/><g><title>GDA 1</title><rect x="139.397" y="123.594" width="8" height="566.938" fill="#000" fill-opacity="0"/><line x1="142.897" y1="123.594" x2="142.897" y2="690.531" style="stroke:#181818;stroke-width:0.5;stroke-dasharray:5,5;"/></g><g><title></title><rect x="137.897" y="195.859" width="10" height="494.672" fill="#156082" fill-opacity="0.502" style="stroke:#181818;stroke-width:1;"/></g><g><title>e-Med FA</title><rect x="393.376" y="123.594" width="8" height="566.938" fill="#000" fill-opacity="0"/><line x1="396.876" y1="123.594" x2="396.876" y2="690.531" style="stroke:#181818;stroke-width:0.5;stroke-dasharray:5,5;"/></g><g><title></title><rect x="391.876" y="195.859" width="10" height="405.273" fill="#E97232" fill-opacity="0.741" style="stroke:#181818;stroke-width:1;"/></g><text x="117.615" y="120.292" fill="#000" font-size="14" textLength="44.563" font-family="'Arial'">GDA 1</text><ellipse cx="142.897" cy="55.797" rx="8" ry="8" fill="#156082" fill-opacity="0.502" style="stroke:#181818;stroke-width:0.5;"/><path d="M142.897,63.797 L142.897,90.797 M129.897,71.797 L155.897,71.797 M142.897,90.797 L129.897,105.797 M142.897,90.797 L155.897,105.797" style="stroke:#181818;stroke-width:0.5;" fill="none"/><rect x="357.214" y="92.297" width="79.324" height="30.297" fill="#E97232" fill-opacity="0.741" style="stroke:#555;stroke-width:0.5;" rx="5" ry="5"/><text x="364.214" y="112.292" fill="#000" font-size="14" textLength="65.324" font-family="'Arial'">e-Med FA</text><text x="117.615" y="703.526" fill="#000" font-size="14" textLength="44.563" font-family="'Arial'">GDA 1</text><ellipse cx="142.897" cy="715.328" rx="8" ry="8" fill="#156082" fill-opacity="0.502" style="stroke:#181818;stroke-width:0.5;"/><path d="M142.897,723.328 L142.897,750.328 M129.897,731.328 L155.897,731.328 M142.897,750.328 L129.897,765.328 M142.897,750.328 L155.897,765.328" style="stroke:#181818;stroke-width:0.5;" fill="none"/><rect x="357.214" y="690.531" width="79.324" height="30.297" fill="#E97232" fill-opacity="0.741" style="stroke:#555;stroke-width:0.5;" rx="5" ry="5"/><text x="364.214" y="710.526" fill="#000" font-size="14" textLength="65.324" font-family="'Arial'">e-Med FA</text><rect x="10" y="152.16" width="602.679" height="3" fill="#EEE" style="stroke:#EEE;stroke-width:1;" rx="5" ry="5"/><line x1="10" y1="152.16" x2="612.679" y2="152.16" style="stroke:#000;stroke-width:1;"/><line x1="10" y1="155.16" x2="612.679" y2="155.16" style="stroke:#000;stroke-width:1;"/><rect x="210.42" y="141.594" width="201.84" height="23.133" fill="#EEE" style="stroke:#000;stroke-width:2;" rx="5" ry="5"/><text x="216.42" y="157.661" fill="#000" font-size="13" textLength="183.314" font-weight="700" font-family="'Arial'">Medikationsplan abrufen</text><polygon points="379.876,191.859,389.876,195.859,379.876,199.859,383.876,195.859" fill="#111827" style="stroke:#111827;stroke-width:1;stroke-linejoin:miter;stroke-miterlimit:10;"/><line x1="147.897" y1="195.859" x2="385.876" y2="195.859" style="stroke:#111827;stroke-width:1;"/><text x="154.897" y="190.793" fill="#000" font-size="13" font-weight="700" font-family="'Arial'">1</text><text x="167.942" y="190.793" fill="#000" font-size="13" textLength="108.989" font-family="'Arial'">POST $plan-read</text><path d="M42.555,213.859 L42.555,243.859 A5,5 0 0 0 47.555,248.859 L237.555,248.859 A5,5 0 0 0 242.555,243.859 L242.555,218.859 L232.555,208.859 L47.555,208.859 A5,5 0 0 0 42.555,213.859" style="stroke:#8B95A5;stroke-width:1;" fill="url(#g1hxzr9v4sr9bp0)"/><path d="M232.555,208.859 L232.555,216.359 A2.5,2.5 0 0 0 235.055,218.859 L242.555,218.859 L232.555,208.859" style="stroke:#8B95A5;stroke-width:1;" fill="url(#g1hxzr9v4sr9bp0)"/><text x="48.555" y="225.926" fill="#111827" font-size="13" textLength="179.683" font-family="'Arial'">Abruf des Medikationsplans</text><text x="48.555" y="241.059" fill="#111827" font-size="13" textLength="104.457" font-family="'Arial'">zur Bearbeitung</text><line x1="401.876" y1="290.391" x2="443.876" y2="290.391" style="stroke:#111827;stroke-width:1;"/><line x1="443.876" y1="290.391" x2="443.876" y2="303.391" style="stroke:#111827;stroke-width:1;"/><line x1="402.876" y1="303.391" x2="443.876" y2="303.391" style="stroke:#111827;stroke-width:1;"/><polygon points="412.876,299.391,402.876,303.391,412.876,307.391,408.876,303.391" fill="#111827" style="stroke:#111827;stroke-width:1;stroke-linejoin:miter;stroke-miterlimit:10;"/><text x="408.876" y="277.758" fill="#000" font-size="13" font-weight="700" font-family="'Arial'">2</text><text x="421.921" y="270.192" fill="#000" font-size="13" textLength="102.648" font-family="'Arial'">Existiert bereits</text><text x="426.053" y="285.325" fill="#000" font-size="13" textLength="179.626" font-family="'Arial'">ein leerer Medikationsplan?</text><path d="M131.897,315.391 L191.34,315.391 L191.34,322.523 L181.34,332.523 L126.897,332.523 L126.897,320.391 A5,5 0 0 1 131.897,315.391" style="stroke:#111827;stroke-width:1.5;" fill="#EEF2FF"/><rect x="126.897" y="315.391" width="465.366" height="285.742" fill="none" style="stroke:#111827;stroke-width:2;" rx="5" ry="5"/><text x="141.897" y="328.458" fill="#000" font-size="13" textLength="19.443" font-weight="700" font-family="'Arial'">alt</text><text x="206.34" y="327.601" fill="#000" font-size="11" textLength="200.626" font-weight="700" font-family="'Arial'">[Medikationsplan persistiert mit</text><text x="206.34" y="340.406" fill="#000" font-size="11" textLength="289.744" font-weight="700" font-family="'Arial'">List.emptyReason = "nilknown" | "notstarted"]</text><line x1="126.897" y1="546.195" x2="592.263" y2="546.195" style="stroke:#111827;stroke-width:1;stroke-dasharray:2,2;"/><text x="131.897" y="558.406" fill="#000" font-size="11" textLength="43.796" font-weight="700" font-family="'Arial'">[sonst]</text><line x1="401.876" y1="389.398" x2="443.876" y2="389.398" style="stroke:#111827;stroke-width:1;"/><line x1="443.876" y1="389.398" x2="443.876" y2="402.398" style="stroke:#111827;stroke-width:1;"/><line x1="402.876" y1="402.398" x2="443.876" y2="402.398" style="stroke:#111827;stroke-width:1;"/><polygon points="412.876,398.398,402.876,402.398,412.876,406.398,408.876,402.398" fill="#111827" style="stroke:#111827;stroke-width:1;stroke-linejoin:miter;stroke-miterlimit:10;"/><text x="408.876" y="376.766" fill="#000" font-size="13" font-weight="700" font-family="'Arial'">3</text><text x="421.921" y="369.2" fill="#000" font-size="13" textLength="147.342" font-family="'Arial'">Erzeugt Auslieferungs-</text><text x="421.921" y="384.333" fill="#000" font-size="13" textLength="113.693" font-family="'Arial'">Collection Bundle</text><path d="M287.778,420.398 L287.778,465.398 A5,5 0 0 0 292.778,470.398 L500.778,470.398 A5,5 0 0 0 505.778,465.398 L505.778,425.398 L495.778,415.398 L292.778,415.398 A5,5 0 0 0 287.778,420.398" style="stroke:#8B95A5;stroke-width:1;" fill="url(#g1hxzr9v4sr9bp0)"/><path d="M495.778,415.398 L495.778,422.898 A2.5,2.5 0 0 0 498.278,425.398 L505.778,425.398 L495.778,415.398" style="stroke:#8B95A5;stroke-width:1;" fill="url(#g1hxzr9v4sr9bp0)"/><text x="293.778" y="432.465" fill="#111827" font-size="13" textLength="140.175" font-family="'Arial'">Keine Transformation</text><text x="293.778" y="447.598" fill="#111827" font-size="13" textLength="193.064" font-family="'Arial'">notwendig. List.emptyReason</text><text x="293.778" y="462.731" fill="#111827" font-size="13" textLength="125.5" font-family="'Arial'">bleibt unverändert.</text><polygon points="158.897,523.195,148.897,527.195,158.897,531.195,154.897,527.195" fill="#111827" style="stroke:#111827;stroke-width:1;stroke-linejoin:miter;stroke-miterlimit:10;"/><line x1="152.897" y1="527.195" x2="390.876" y2="527.195" style="stroke:#111827;stroke-width:1;"/><text x="164.897" y="506.997" fill="#000" font-size="13" font-weight="700" font-family="'Arial'">4</text><text x="177.942" y="491.864" fill="#000" font-size="13" textLength="206.934" font-family="'Arial'">Auslieferungs-Collection Bundle</text><text x="177.942" y="506.997" fill="#000" font-size="13" textLength="147.101" font-family="'Arial'">(mit List.emptyReason</text><text x="177.942" y="522.129" fill="#000" font-size="13" textLength="47.398" font-family="'Arial'">+ ETag</text><path d="M308.56,576 L308.56,591 A5,5 0 0 0 313.56,596 L479.56,596 A5,5 0 0 0 484.56,591 L484.56,581 L474.56,571 L313.56,571 A5,5 0 0 0 308.56,576" style="stroke:#8B95A5;stroke-width:1;" fill="url(#g1hxzr9v4sr9bp0)"/><path d="M474.56,571 L474.56,578.5 A2.5,2.5 0 0 0 477.06,581 L484.56,581 L474.56,571" style="stroke:#8B95A5;stroke-width:1;" fill="url(#g1hxzr9v4sr9bp0)"/><text x="314.56" y="588.067" fill="#111827" font-size="13" textLength="155.632" font-family="'Arial'">Siehe Ablauf Plan-Read.</text><path d="M15,625.133 L15,670.133 A5,5 0 0 0 20,675.133 L265,675.133 A5,5 0 0 0 270,670.133 L270,630.133 L260,620.133 L20,620.133 A5,5 0 0 0 15,625.133" style="stroke:#8B95A5;stroke-width:1;" fill="url(#g1hxzr9v4sr9bp0)"/><path d="M260,620.133 L260,627.633 A2.5,2.5 0 0 0 262.5,630.133 L270,630.133 L260,620.133" style="stroke:#8B95A5;stroke-width:1;" fill="url(#g1hxzr9v4sr9bp0)"/><text x="21" y="637.2" fill="#111827" font-size="13" textLength="143.793" font-family="'Arial'">Nachfolgend kann der</text><text x="21" y="652.333" fill="#111827" font-size="13" textLength="230.661" font-family="'Arial'">Medikationsplan bearbeitet werden</text><text x="21" y="667.465" fill="#111827" font-size="13" textLength="182.336" font-family="'Arial'">und ein Plan-Write erfolgen.</text><?plantuml-src TLJXZjf64FxlfvX2fLQgEDacm3dIjJ8vNrhbSY2WgbGXdTPupAqmksHt7NBNv6tw9dsnpXeurZOnVzYPRsU--MPs33S5mZsYGW4VCUCRPhWKUbSm0GLg59xtazvmiMEARO6jZ5Hpyqnts1wrtABddRsfL1cgTxAG2hf-zRbUjjgibIn5TaJa0_jp4Fg9PNBFnHfoLcXqFCThIg22m0sQOSxAmjn9OHxO5g4JAywAZilPWSpv2qBmvlBzx_7-_Nc7gk1Yum2Iv1BWJv5LVx35Voo_J5cMsT92lsuVkw8Dgi_LL4Y3y8y7C6xAXpuESh_NpO8img55k96kqsZ01g_MnHDVRGHg3G7PPewSFfrFt6mKHueW2Ax34TdcZSPySnbg_5IYM1rOJfaoVCLtJ9XBXTK1hO6elZgetPcM-zJLciEH6o1MIkwRHLN6kYwLwLB6LySXLvzCxudvhbRZQ-I3gzKlpCEgEkVcENreHVs1nj6Epxl9_MJs-FusVWo0lcum6FhNuRL_0H1MW6Wuz4UtBS0qNloHF2niX6Wu3j-q0F5q0jNNzU-Yv7OGDG79n-JsyIuc04QZi1-cMHFmE4l-JgOBwAwo_gWVigXPnkG3r7A4WsQ8sMmogm19D0hwOPyUGBLeuA00qz2XVn1qN66ytRdPWBIwB4qBnHuTu2xkr4lmA6Xff2YtAIhFkxbfhJkMgZAdDNXputc7pBrVJv7VmdGoNy2F5jXJo3BBa7zcz3WFK9UPLprQ-HcF5NYnZKoxHZTpQk-bL316fbBafXHh3qLMlNdldE1KNBsSazNbc7pXsd1K1gX62gYN0f3RHKv7rKp-cvMaCESsDGMXjQPF0RVSBCKzdQvmkpFFCsHQabJG4RpO2BaN7VXA1scqeRvWrl5eqYzoL2zOhWt4fIuuvgYeQjrR2deb1QviSXZJeocGxfzrF5udsmUqaxDG95ukrRQYUu3kIJk-le8MItAd1VBKG2aes7__sZrjhYp1azerhbNJtZOOjlWjnSyaIYlRKlm2oOAjWTH5MfQr8IU_DjyfRCxn2I5E2qQpChLpHW6p1iiCcsDX9wOzSGzizPJBOcslRfWGT561rsnmUXmyDB17saSa5PLMZKn5u2_5RI9rY7JrEfp_0m00?></g></svg>