<?xml version="1.0" encoding="us-ascii" standalone="no"?><svg xmlns="http://www.w3.org/2000/svg" xmlns:xlink="http://www.w3.org/1999/xlink" contentStyleType="text/css" height="804px" preserveAspectRatio="none" style="width:667px;height:804px;background:#F5F5F5;" version="1.1" viewBox="0 0 667 804" width="667px" zoomAndPan="magnify"><defs><linearGradient id="ggl05jb88wz430" x1="50%" x2="50%" y1="0%" y2="100%"><stop offset="0%" stop-color="#E0E5F0"/><stop offset="100%" stop-color="#D1D9E6"/></linearGradient></defs><g><rect fill="#F5F5F5" height="804" style="stroke:none;stroke-width:1.0;" width="667" x="0" y="0"/><text fill="#000000" font-family="Arial" font-size="14" font-weight="bold" lengthAdjust="spacing" textLength="140" x="265.75" y="28.1318">Prescription-Search</text><rect fill="#156082" fill-opacity="0.50196" height="486.3218" style="stroke:#181818;stroke-width:1.0;" width="10" x="147.5" y="196.292"/><rect fill="#E97232" fill-opacity="0.74118" height="274.4341" style="stroke:#181818;stroke-width:1.0;" width="10" x="525.5" y="196.292"/><rect fill="#0F9ED5" fill-opacity="0.14510" height="210.5366" rx="5" ry="5" style="stroke:#111827;stroke-width:2.0;" width="585.5" x="13" y="268.1895"/><path d="M13,384.6313 L598.5,384.6313 L598.5,426.6787 A5,5 0 0 1 593.5,431.6787 L18,431.6787 A5,5 0 0 1 13,426.6787 L13,384.6313 " fill="#34738D" fill-opacity="0.30588" style="stroke:none;stroke-width:1.0;"/><path d="M13,431.6787 L598.5,431.6787 L598.5,473.7261 A5,5 0 0 1 593.5,478.7261 L18,478.7261 A5,5 0 0 1 13,473.7261 L13,431.6787 " fill="#E97132" fill-opacity="0.20784" style="stroke:none;stroke-width:1.0;"/><rect fill="none" height="181.8877" rx="5" ry="5" style="stroke:#111827;stroke-width:2.0;" width="588.5" x="10" y="492.7261"/><line style="stroke:#181818;stroke-width:0.5;stroke-dasharray:5.0,5.0;" x1="152" x2="152" y1="150.3945" y2="691.6138"/><line style="stroke:#181818;stroke-width:0.5;stroke-dasharray:5.0,5.0;" x1="530.5" x2="530.5" y1="150.3945" y2="691.6138"/><text fill="#000000" font-family="Arial" font-size="14" lengthAdjust="spacing" textLength="30" x="134.5" y="115.2305">GDA</text><text fill="#000000" font-family="Arial" font-size="14" lengthAdjust="spacing" textLength="28" x="135.5" y="131.3291">Arzt/</text><text fill="#000000" font-family="Arial" font-size="14" lengthAdjust="spacing" textLength="65" x="117" y="147.4277">Apotheker</text><ellipse cx="152.5" cy="50.5986" fill="#156082" fill-opacity="0.50196" rx="8" ry="8" style="stroke:#181818;stroke-width:0.5;"/><path d="M152.5,58.5986 L152.5,85.5986 M139.5,66.5986 L165.5,66.5986 M152.5,85.5986 L139.5,100.5986 M152.5,85.5986 L165.5,100.5986 " fill="none" style="stroke:#181818;stroke-width:0.5;"/><text fill="#000000" font-family="Arial" font-size="14" lengthAdjust="spacing" textLength="30" x="134.5" y="703.7456">GDA</text><text fill="#000000" font-family="Arial" font-size="14" lengthAdjust="spacing" textLength="28" x="135.5" y="719.8442">Arzt/</text><text fill="#000000" font-family="Arial" font-size="14" lengthAdjust="spacing" textLength="65" x="117" y="735.9429">Apotheker</text><ellipse cx="152.5" cy="747.4097" fill="#156082" fill-opacity="0.50196" rx="8" ry="8" style="stroke:#181818;stroke-width:0.5;"/><path d="M152.5,755.4097 L152.5,782.4097 M139.5,763.4097 L165.5,763.4097 M152.5,782.4097 L139.5,797.4097 M152.5,782.4097 L165.5,797.4097 " fill="none" style="stroke:#181818;stroke-width:0.5;"/><rect fill="#E97232" fill-opacity="0.74118" height="30.0986" rx="5" ry="5" style="stroke:#555555;stroke-width:0.5;" width="76" x="492.5" y="119.2959"/><text fill="#000000" font-family="Arial" font-size="14" lengthAdjust="spacing" textLength="62" x="499.5" y="139.4277">e-Med FA</text><rect fill="#E97232" fill-opacity="0.74118" height="30.0986" rx="5" ry="5" style="stroke:#555555;stroke-width:0.5;" width="76" x="492.5" y="690.6138"/><text fill="#000000" font-family="Arial" font-size="14" lengthAdjust="spacing" textLength="62" x="499.5" y="710.7456">e-Med FA</text><rect fill="#156082" fill-opacity="0.50196" height="486.3218" style="stroke:#181818;stroke-width:1.0;" width="10" x="147.5" y="196.292"/><rect fill="#E97232" fill-opacity="0.74118" height="274.4341" style="stroke:#181818;stroke-width:1.0;" width="10" x="525.5" y="196.292"/><polygon fill="#111827" points="513.5,192.292,523.5,196.292,513.5,200.292,517.5,196.292" style="stroke:#111827;stroke-width:1.0;"/><line style="stroke:#111827;stroke-width:1.0;" x1="157.5" x2="519.5" y1="196.292" y2="196.292"/><text fill="#000000" font-family="Arial" font-size="13" font-weight="bold" lengthAdjust="spacing" textLength="7" x="164.5" y="184.0627">1</text><text fill="#000000" font-family="Arial" font-size="13" lengthAdjust="spacing" textLength="343" x="175.5" y="176.5884">GET MedicationRequest mit category = "Geplante Abgabe"</text><text fill="#000000" font-family="Arial" font-size="13" lengthAdjust="spacing" textLength="120" x="175.5" y="191.5371">und Suchparametern</text><line style="stroke:#111827;stroke-width:1.0;" x1="535.5" x2="577.5" y1="240.1895" y2="240.1895"/><line style="stroke:#111827;stroke-width:1.0;" x1="577.5" x2="577.5" y1="240.1895" y2="253.1895"/><line style="stroke:#111827;stroke-width:1.0;" x1="536.5" x2="577.5" y1="253.1895" y2="253.1895"/><polygon fill="#111827" points="546.5,249.1895,536.5,253.1895,546.5,257.1895,542.5,253.1895" style="stroke:#111827;stroke-width:1.0;"/><text fill="#000000" font-family="Arial" font-size="13" font-weight="bold" lengthAdjust="spacing" textLength="7" x="542.5" y="227.9602">2</text><text fill="#000000" font-family="Arial" font-size="13" lengthAdjust="spacing" textLength="107" x="553.5" y="220.4858">Geplante Abgaben</text><text fill="#000000" font-family="Arial" font-size="13" lengthAdjust="spacing" textLength="50" x="553.5" y="235.4346">ermitteln</text><path d="M18,268.1895 L452,268.1895 L452,276.2881 L442,286.2881 L13,286.2881 L13,273.1895 A5,5 0 0 1 18,268.1895 " fill="#EEF2FF" style="stroke:#111827;stroke-width:1.5;"/><rect fill="none" height="210.5366" rx="5" ry="5" style="stroke:#111827;stroke-width:2.0;" width="585.5" x="13" y="268.1895"/><text fill="#000000" font-family="Arial" font-size="14" font-weight="bold" lengthAdjust="spacing" textLength="390" x="28" y="282.3213">alt: Geplante Abgaben mit Suchparametern vorhanden?</text><text fill="#000000" font-family="Arial" font-size="14" font-weight="bold" lengthAdjust="spacing" textLength="22" x="467" y="283.3213">[ja]</text><polygon fill="#111827" points="168.5,304.3354,158.5,308.3354,168.5,312.3354,164.5,308.3354" style="stroke:#111827;stroke-width:1.0;"/><line style="stroke:#111827;stroke-width:1.0;" x1="162.5" x2="524.5" y1="308.3354" y2="308.3354"/><text fill="#000000" font-family="Arial" font-size="13" font-weight="bold" lengthAdjust="spacing" textLength="7" x="174.5" y="303.5806">3</text><text fill="#000000" font-family="Arial" font-size="13" lengthAdjust="spacing" textLength="286" x="185.5" y="303.5806">Bundle (type=searchset) mit MedicationRequests</text><path d="M23,326.3354 L23,374.3354 A5,5 0 0 0 28,379.3354 L277,379.3354 A5,5 0 0 0 282,374.3354 L282,331.3354 L272,321.3354 L28,321.3354 A5,5 0 0 0 23,326.3354 " fill="url(#ggl05jb88wz430)" style="stroke:#8B95A5;stroke-width:1.0;"/><path d="M272,321.3354 L272,328.8354 A2.5,2.5 0 0 0 274.5,331.3354 L282,331.3354 L272,321.3354 " fill="url(#ggl05jb88wz430)" style="stroke:#8B95A5;stroke-width:1.0;"/><text fill="#111827" font-family="Arial" font-size="14" lengthAdjust="spacing" textLength="211" x="29" y="339.4673">GDA erh&#228;lt alle den Suchkriterien</text><text fill="#111827" font-family="Arial" font-size="14" lengthAdjust="spacing" textLength="234" x="29" y="355.5659">entsprechenden Geplanten Abgaben</text><text fill="#111827" font-family="Arial" font-size="14" lengthAdjust="spacing" textLength="91" x="29" y="371.6646">des Patienten.</text><line style="stroke:#111827;stroke-width:1.0;stroke-dasharray:2.0,2.0;" x1="13" x2="598.5" y1="385.6313" y2="385.6313"/><text fill="#000000" font-family="Arial" font-size="14" font-weight="bold" lengthAdjust="spacing" textLength="41" x="18" y="398.7632">[nein]</text><polygon fill="#111827" points="168.5,419.6787,158.5,423.6787,168.5,427.6787,164.5,423.6787" style="stroke:#111827;stroke-width:1.0;"/><line style="stroke:#111827;stroke-width:1.0;" x1="162.5" x2="524.5" y1="423.6787" y2="423.6787"/><text fill="#000000" font-family="Arial" font-size="13" font-weight="bold" lengthAdjust="spacing" textLength="7" x="174.5" y="418.9238">4</text><text fill="#000000" font-family="Arial" font-size="13" lengthAdjust="spacing" textLength="226" x="185.5" y="418.9238">Bundle (type=searchset) ohne Eintr&#228;ge</text><line style="stroke:#111827;stroke-width:1.0;stroke-dasharray:2.0,2.0;" x1="13" x2="598.5" y1="432.6787" y2="432.6787"/><text fill="#000000" font-family="Arial" font-size="14" font-weight="bold" lengthAdjust="spacing" textLength="56" x="18" y="445.8105">[Fehler]</text><polygon fill="#111827" points="168.5,466.7261,158.5,470.7261,168.5,474.7261,164.5,470.7261" style="stroke:#111827;stroke-width:1.0;"/><line style="stroke:#111827;stroke-width:1.0;stroke-dasharray:2.0,2.0;" x1="162.5" x2="529.5" y1="470.7261" y2="470.7261"/><text fill="#000000" font-family="Arial" font-size="13" font-weight="bold" lengthAdjust="spacing" textLength="7" x="174.5" y="465.9712">5</text><text fill="#000000" font-family="Arial" font-size="13" lengthAdjust="spacing" textLength="170" x="185.5" y="465.9712">HTTP 4xx OperationOutcome</text><path d="M15,492.7261 L78,492.7261 L78,500.8247 L68,510.8247 L10,510.8247 L10,497.7261 A5,5 0 0 1 15,492.7261 " fill="#EEF2FF" style="stroke:#111827;stroke-width:1.5;"/><rect fill="none" height="181.8877" rx="5" ry="5" style="stroke:#111827;stroke-width:2.0;" width="588.5" x="10" y="492.7261"/><text fill="#000000" font-family="Arial" font-size="14" font-weight="bold" lengthAdjust="spacing" textLength="23" x="25" y="506.8579">opt</text><text fill="#000000" font-family="Arial" font-size="14" font-weight="bold" lengthAdjust="spacing" textLength="250" x="93" y="507.8579">[Zus&#228;tzliche Informationen abrufen]</text><rect fill="none" height="42.1973" rx="5" ry="5" style="stroke:#000000;stroke-width:1.5;" width="477.5" x="114" y="511.9233"/><path d="M119,511.9233 L179,511.9233 L179,519.9233 L169,529.9233 L114,529.9233 L114,516.9233 A5,5 0 0 1 119,511.9233 " fill="#EEEEEE" style="stroke:#000000;stroke-width:2.0;"/><text fill="#000000" font-family="Arial" font-size="14" font-weight="bold" lengthAdjust="spacing" textLength="20" x="127" y="527.0552">ref</text><text fill="#000000" font-family="Arial" font-size="14" lengthAdjust="spacing" textLength="67" x="319.25" y="547.0552">Plan-Read</text><rect fill="none" height="42.1973" rx="5" ry="5" style="stroke:#000000;stroke-width:1.5;" width="477.5" x="114" y="559.1206"/><path d="M119,559.1206 L179,559.1206 L179,567.1206 L169,577.1206 L114,577.1206 L114,564.1206 A5,5 0 0 1 119,559.1206 " fill="#EEEEEE" style="stroke:#000000;stroke-width:2.0;"/><text fill="#000000" font-family="Arial" font-size="14" font-weight="bold" lengthAdjust="spacing" textLength="20" x="127" y="574.2524">ref</text><text fill="#000000" font-family="Arial" font-size="14" lengthAdjust="spacing" textLength="109" x="298.25" y="594.2524">Dispense-Search</text><path d="M20,616.3179 L20,664.3179 A5,5 0 0 0 25,669.3179 L280,669.3179 A5,5 0 0 0 285,664.3179 L285,621.3179 L275,611.3179 L25,611.3179 A5,5 0 0 0 20,616.3179 " fill="url(#ggl05jb88wz430)" style="stroke:#8B95A5;stroke-width:1.0;"/><path d="M275,611.3179 L275,618.8179 A2.5,2.5 0 0 0 277.5,621.3179 L285,621.3179 L275,611.3179 " fill="url(#ggl05jb88wz430)" style="stroke:#8B95A5;stroke-width:1.0;"/><text fill="#111827" font-family="Arial" font-size="14" lengthAdjust="spacing" textLength="244" x="26" y="629.4497">Optionaler Abruf des Medikationsplans</text><text fill="#111827" font-family="Arial" font-size="14" lengthAdjust="spacing" textLength="236" x="26" y="645.5483">und der Durchgef&#252;hrten Abgaben zur</text><text fill="#111827" font-family="Arial" font-size="14" lengthAdjust="spacing" textLength="144" x="26" y="661.647">fachlichen Beurteilung.</text><!--SRC=[bLRRZjis47tNLqpjXxH0DxNaUu2qa6Dv4pI93TjzIRSmQ6baiPOfXQBsug1_iv_Hj_sn3kcRBYwAQXzM79wPENDcI5bn5IFC96Q-vAdYYRXP89D-P5cliYqNAPDi1ynNYLoe9uAo1yoI7LhMPNUTo03bkoHE93HRvYdkCd-xaKakWYCYxEg_0YABM90ySB61aCKP5dQERbAW1BiODC2GvR6Q949zPZk4XYivYnlN4Gk-Hx0xrpV_ZVRxfnHbpCMs0F2yQu3VH61Ui4P_b3pEM13eofnMsJugQjOrJr5IaIY4RnR0gAeUjh0RjcwQWHqCiQSHnKY3zR3BkcVhCkB-Lc2MWKssUK7D5grFt7IKWXIsRG-SFjaMbRxyLMIOuTSSXNzWEMDISP-dJAXhXPK0TT5hswU6bJOAIWAuKYOFLRx6M2xPcAvbF6ySShN9T4iofoNwvyY7hLehC7J2iEnvIUzelRwZITEJyMxwSJfVtOxTbGtqDErkhpLm1gqh0CS0XhrUgp-k0MRkyeFtUQaZ37iZfrC3kBCfcAVPcWozSNTO1NYVlF5guX80XtsdxQo3Ac0rzxvuioKq_Q3TRpjiM2rZ-YkKSZZT6k1G1JJRdNvx47ImccC-dyuDm1lsxRRJfk4tTmmS968PDEZjJhXohtwYVscY8joYR1ILjDBBT01-ma3NfLtnXXOmSHlbcgrNKF9OpN6FgJgw71QDYWh4ArU9o7Thb9PrO7VpyodR6xZrba3lt6VwxfphGv4fs745PC5D8f_WBTM2QKmf4TprXgsnSITeYc2H-v4vJAXG2j0Ay7loEefGhFIyTIgpt4pBEjbBtCfPnHqTV6AcC1QMfISvlJIKnQhkOEgeiBnFPCJenXE_mEz_iZze-Wkf3TatCABgw5FnlQ8hycrcFYSPgXzCk9fOcKKnp7sNtEDn0FIP6hk0CdfvZgb1CKMZb8RBLd8YmccbSmkLfHBz23MbSm7YN05X0ipe7b7aGHkl3rw1oKYoqRrM75g1NFolafA8XjhZGicNvqqvu6789nZ5D3g5c9UWxvVB6NGU7s5AdnAZoJHNllwwQjRLdfFH8kQMPIKqj5_oxELPxMDEjSC74IPoPo9GpMmjyn25rXL0ObWGziTBBBfSIIiQUnQObHQ5mF_fDUPPYYB3q- -4cc-zbq05QcwCbA3E43lJ53qAMqCwqstB358V3Bf7OPnJy0s6Btz7ijZGVIx104FcHwPw0IFC2SFZN6nUd_aS6wm5-mS0]--></g></svg>