<?xml version="1.0" encoding="us-ascii" standalone="no"?><svg xmlns="http://www.w3.org/2000/svg" xmlns:xlink="http://www.w3.org/1999/xlink" contentStyleType="text/css" height="1176px" preserveAspectRatio="none" style="width:739px;height:1176px;background:#F5F5F5;" version="1.1" viewBox="0 0 739 1176" width="739px" zoomAndPan="magnify"><defs><linearGradient id="g1vv9j5j5pqm10" x1="50%" x2="50%" y1="0%" y2="100%"><stop offset="0%" stop-color="#E0E5F0"/><stop offset="100%" stop-color="#D1D9E6"/></linearGradient></defs><g><rect fill="#F5F5F5" height="1176" style="stroke:none;stroke-width:1.0;" width="739" x="0" y="0"/><text fill="#000000" font-family="Arial" font-size="14" font-weight="bold" lengthAdjust="spacing" textLength="71" x="330" y="28.1318">Plan-Read</text><rect fill="#156082" fill-opacity="0.50196" height="893.8486" style="stroke:#181818;stroke-width:1.0;" width="10" x="122" y="193.2446"/><rect fill="#E97232" fill-opacity="0.74118" height="728.1582" style="stroke:#181818;stroke-width:1.0;" width="10" x="360" y="193.2446"/><rect fill="#0F9ED5" fill-opacity="0.14510" height="693.458" rx="5" ry="5" style="stroke:#111827;stroke-width:2.0;" width="639" x="83" y="317.3394"/><rect fill="#0F9ED5" fill-opacity="0.14510" height="181.9883" rx="5" ry="5" style="stroke:#111827;stroke-width:2.0;" width="521" x="93" y="554.375"/><path d="M93,617.4697 L614,617.4697 L614,731.3633 A5,5 0 0 1 609,736.3633 L98,736.3633 A5,5 0 0 1 93,731.3633 L93,617.4697 " fill="#E97132" fill-opacity="0.20784" style="stroke:none;stroke-width:1.0;"/><path d="M83,743.3633 L722,743.3633 L722,924.4028 A5,5 0 0 1 717,929.4028 L88,929.4028 A5,5 0 0 1 83,924.4028 L83,743.3633 " fill="#34738D" fill-opacity="0.30588" style="stroke:none;stroke-width:1.0;"/><path d="M83,929.4028 L722,929.4028 L722,1005.7974 A5,5 0 0 1 717,1010.7974 L88,1010.7974 A5,5 0 0 1 83,1005.7974 L83,929.4028 " fill="#E97132" fill-opacity="0.20784" style="stroke:none;stroke-width:1.0;"/><line style="stroke:#181818;stroke-width:0.5;stroke-dasharray:5.0,5.0;" x1="127" x2="127" y1="118.1973" y2="1096.0933"/><line style="stroke:#181818;stroke-width:0.5;stroke-dasharray:5.0,5.0;" x1="365" x2="365" y1="118.1973" y2="1096.0933"/><text fill="#000000" font-family="Arial" font-size="14" lengthAdjust="spacing" textLength="42" x="103" y="115.2305">GDA 1</text><ellipse cx="127" cy="50.5986" fill="#156082" fill-opacity="0.50196" rx="8" ry="8" style="stroke:#181818;stroke-width:0.5;"/><path d="M127,58.5986 L127,85.5986 M114,66.5986 L140,66.5986 M127,85.5986 L114,100.5986 M127,85.5986 L140,100.5986 " fill="none" style="stroke:#181818;stroke-width:0.5;"/><text fill="#000000" font-family="Arial" font-size="14" lengthAdjust="spacing" textLength="42" x="103" y="1108.2251">GDA 1</text><ellipse cx="127" cy="1119.6919" fill="#156082" fill-opacity="0.50196" rx="8" ry="8" style="stroke:#181818;stroke-width:0.5;"/><path d="M127,1127.6919 L127,1154.6919 M114,1135.6919 L140,1135.6919 M127,1154.6919 L114,1169.6919 M127,1154.6919 L140,1169.6919 " fill="none" style="stroke:#181818;stroke-width:0.5;"/><rect fill="#E97232" fill-opacity="0.74118" height="30.0986" rx="5" ry="5" style="stroke:#555555;stroke-width:0.5;" width="76" x="327" y="87.0986"/><text fill="#000000" font-family="Arial" font-size="14" lengthAdjust="spacing" textLength="62" x="334" y="107.2305">e-Med FA</text><rect fill="#E97232" fill-opacity="0.74118" height="30.0986" rx="5" ry="5" style="stroke:#555555;stroke-width:0.5;" width="76" x="327" y="1095.0933"/><text fill="#000000" font-family="Arial" font-size="14" lengthAdjust="spacing" textLength="62" x="334" y="1115.2251">e-Med FA</text><rect fill="#156082" fill-opacity="0.50196" height="893.8486" style="stroke:#181818;stroke-width:1.0;" width="10" x="122" y="193.2446"/><rect fill="#E97232" fill-opacity="0.74118" height="728.1582" style="stroke:#181818;stroke-width:1.0;" width="10" x="360" y="193.2446"/><rect fill="#EEEEEE" height="3" rx="5" ry="5" style="stroke:#EEEEEE;stroke-width:1.0;" width="732" x="0" y="149.2466"/><line style="stroke:#000000;stroke-width:1.0;" x1="0" x2="732" y1="149.2466" y2="149.2466"/><line style="stroke:#000000;stroke-width:1.0;" x1="0" x2="732" y1="152.2466" y2="152.2466"/><rect fill="#EEEEEE" height="24.0986" rx="5" ry="5" style="stroke:#000000;stroke-width:2.0;" width="247" x="242.5" y="138.1973"/><text fill="#000000" font-family="Arial" font-size="14" font-weight="bold" lengthAdjust="spacing" textLength="229" x="248.5" y="155.3291">Aktuellen Medikationsplan lesen</text><polygon fill="#111827" points="348,189.2446,358,193.2446,348,197.2446,352,193.2446" style="stroke:#111827;stroke-width:1.0;"/><line style="stroke:#111827;stroke-width:1.0;" x1="132" x2="354" y1="193.2446" y2="193.2446"/><text fill="#000000" font-family="Arial" font-size="13" font-weight="bold" lengthAdjust="spacing" textLength="7" x="139" y="188.4897">1</text><text fill="#000000" font-family="Arial" font-size="13" lengthAdjust="spacing" textLength="99" x="150" y="188.4897">POST $plan-read</text><path d="M29,211.2446 L29,243.2446 A5,5 0 0 0 34,248.2446 L219,248.2446 A5,5 0 0 0 224,243.2446 L224,216.2446 L214,206.2446 L34,206.2446 A5,5 0 0 0 29,211.2446 " fill="url(#g1vv9j5j5pqm10)" style="stroke:#8B95A5;stroke-width:1.0;"/><path d="M214,206.2446 L214,213.7446 A2.5,2.5 0 0 0 216.5,216.2446 L224,216.2446 L214,206.2446 " fill="url(#g1vv9j5j5pqm10)" style="stroke:#8B95A5;stroke-width:1.0;"/><text fill="#111827" font-family="Arial" font-size="14" lengthAdjust="spacing" textLength="174" x="35" y="224.3765">Abruf des Medikationsplans</text><text fill="#111827" font-family="Arial" font-size="14" lengthAdjust="spacing" textLength="100" x="35" y="240.4751">zur Bearbeitung</text><line style="stroke:#111827;stroke-width:1.0;" x1="370" x2="412" y1="289.3394" y2="289.3394"/><line style="stroke:#111827;stroke-width:1.0;" x1="412" x2="412" y1="289.3394" y2="302.3394"/><line style="stroke:#111827;stroke-width:1.0;" x1="371" x2="412" y1="302.3394" y2="302.3394"/><polygon fill="#111827" points="381,298.3394,371,302.3394,381,306.3394,377,302.3394" style="stroke:#111827;stroke-width:1.0;"/><text fill="#000000" font-family="Arial" font-size="13" font-weight="bold" lengthAdjust="spacing" textLength="7" x="377" y="277.1101">2</text><text fill="#000000" font-family="Arial" font-size="13" lengthAdjust="spacing" textLength="141" x="388" y="269.6357">Existiert ein persistierter</text><text fill="#000000" font-family="Arial" font-size="13" lengthAdjust="spacing" textLength="101" x="388" y="284.5845">Medikationsplan?</text><path d="M88,317.3394 L359,317.3394 L359,325.438 L349,335.438 L83,335.438 L83,322.3394 A5,5 0 0 1 88,317.3394 " fill="#EEF2FF" style="stroke:#111827;stroke-width:1.5;"/><rect fill="none" height="693.458" rx="5" ry="5" style="stroke:#111827;stroke-width:2.0;" width="639" x="83" y="317.3394"/><text fill="#000000" font-family="Arial" font-size="14" font-weight="bold" lengthAdjust="spacing" textLength="227" x="98" y="331.4712">alt: Medikationsplan persistiert?</text><text fill="#000000" font-family="Arial" font-size="14" font-weight="bold" lengthAdjust="spacing" textLength="343" x="374" y="332.4712">[ja: Planeintr&#228;ge vorhanden (kein emptyReason)]</text><line style="stroke:#111827;stroke-width:1.0;" x1="370" x2="412" y1="417.2803" y2="417.2803"/><line style="stroke:#111827;stroke-width:1.0;" x1="412" x2="412" y1="417.2803" y2="430.2803"/><line style="stroke:#111827;stroke-width:1.0;" x1="371" x2="412" y1="430.2803" y2="430.2803"/><polygon fill="#111827" points="381,426.2803,371,430.2803,381,434.2803,377,430.2803" style="stroke:#111827;stroke-width:1.0;"/><text fill="#000000" font-family="Arial" font-size="13" font-weight="bold" lengthAdjust="spacing" textLength="7" x="377" y="382.6279">3</text><text fill="#000000" font-family="Arial" font-size="13" lengthAdjust="spacing" textLength="131" x="388" y="352.7305">Erzeugt Auslieferungs-</text><text fill="#000000" font-family="Arial" font-size="13" lengthAdjust="spacing" textLength="101" x="388" y="367.6792">Collection Bundle</text><text fill="#000000" font-family="Arial" font-size="13" lengthAdjust="spacing" textLength="89" x="388" y="382.6279">Transformation:</text><text fill="#000000" font-family="Arial" font-size="13" lengthAdjust="spacing" textLength="167" x="388" y="397.5767">- new|changed &#8594; unchanged</text><text fill="#000000" font-family="Arial" font-size="13" lengthAdjust="spacing" textLength="248" x="388" y="412.5254">- removed -&gt; aus List und Bundle entfernen</text><path d="M238,448.2803 L238,480.2803 A5,5 0 0 0 243,485.2803 L487,485.2803 A5,5 0 0 0 492,480.2803 L492,453.2803 L482,443.2803 L243,443.2803 A5,5 0 0 0 238,448.2803 " fill="url(#g1vv9j5j5pqm10)" style="stroke:#8B95A5;stroke-width:1.0;"/><path d="M482,443.2803 L482,450.7803 A2.5,2.5 0 0 0 484.5,453.2803 L492,453.2803 L482,443.2803 " fill="url(#g1vv9j5j5pqm10)" style="stroke:#8B95A5;stroke-width:1.0;"/><text fill="#111827" font-family="Arial" font-size="14" lengthAdjust="spacing" textLength="210" x="244" y="461.4121">Das persistierte Medikationsplan-</text><text fill="#111827" font-family="Arial" font-size="14" lengthAdjust="spacing" textLength="233" x="244" y="477.5107">Collection Bundle bleibt unver&#228;ndert.</text><line style="stroke:#111827;stroke-width:1.0;" x1="370" x2="412" y1="526.375" y2="526.375"/><line style="stroke:#111827;stroke-width:1.0;" x1="412" x2="412" y1="526.375" y2="539.375"/><line style="stroke:#111827;stroke-width:1.0;" x1="371" x2="412" y1="539.375" y2="539.375"/><polygon fill="#111827" points="381,535.375,371,539.375,381,543.375,377,539.375" style="stroke:#111827;stroke-width:1.0;"/><text fill="#000000" font-family="Arial" font-size="13" font-weight="bold" lengthAdjust="spacing" textLength="7" x="377" y="514.1458">4</text><text fill="#000000" font-family="Arial" font-size="13" lengthAdjust="spacing" textLength="169" x="388" y="506.6714">Sind nach der Transformation</text><text fill="#000000" font-family="Arial" font-size="13" lengthAdjust="spacing" textLength="150" x="388" y="521.6201">Listeneintr&#228;ge vorhanden?</text><path d="M98,554.375 L346,554.375 L346,562.4736 L336,572.4736 L93,572.4736 L93,559.375 A5,5 0 0 1 98,554.375 " fill="#EEF2FF" style="stroke:#111827;stroke-width:1.5;"/><rect fill="none" height="181.9883" rx="5" ry="5" style="stroke:#111827;stroke-width:2.0;" width="521" x="93" y="554.375"/><text fill="#000000" font-family="Arial" font-size="14" font-weight="bold" lengthAdjust="spacing" textLength="204" x="108" y="568.5068">alt: Planeintr&#228;ge vorhanden?</text><text fill="#000000" font-family="Arial" font-size="14" font-weight="bold" lengthAdjust="spacing" textLength="22" x="361" y="569.5068">[ja]</text><polygon fill="#111827" points="143,605.4697,133,609.4697,143,613.4697,139,609.4697" style="stroke:#111827;stroke-width:1.0;"/><line style="stroke:#111827;stroke-width:1.0;" x1="137" x2="359" y1="609.4697" y2="609.4697"/><text fill="#000000" font-family="Arial" font-size="13" font-weight="bold" lengthAdjust="spacing" textLength="7" x="149" y="597.2405">5</text><text fill="#000000" font-family="Arial" font-size="13" lengthAdjust="spacing" textLength="183" x="160" y="589.7661">Auslieferungs-Collection Bundle</text><text fill="#000000" font-family="Arial" font-size="13" lengthAdjust="spacing" textLength="42" x="160" y="604.7148">+ ETag</text><line style="stroke:#111827;stroke-width:1.0;stroke-dasharray:2.0,2.0;" x1="93" x2="614" y1="618.4697" y2="618.4697"/><text fill="#000000" font-family="Arial" font-size="14" font-weight="bold" lengthAdjust="spacing" textLength="216" x="98" y="631.6016">[nein: Leerer Medikationsplan]</text><line style="stroke:#111827;stroke-width:1.0;" x1="370" x2="412" y1="656.5171" y2="656.5171"/><line style="stroke:#111827;stroke-width:1.0;" x1="412" x2="412" y1="656.5171" y2="669.5171"/><line style="stroke:#111827;stroke-width:1.0;" x1="371" x2="412" y1="669.5171" y2="669.5171"/><polygon fill="#111827" points="381,665.5171,371,669.5171,381,673.5171,377,669.5171" style="stroke:#111827;stroke-width:1.0;"/><text fill="#000000" font-family="Arial" font-size="13" font-weight="bold" lengthAdjust="spacing" textLength="7" x="377" y="651.7622">6</text><text fill="#000000" font-family="Arial" font-size="13" lengthAdjust="spacing" textLength="214" x="388" y="651.7622">List.emptyReason = nilknown setzen</text><polygon fill="#111827" points="143,724.3633,133,728.3633,143,732.3633,139,728.3633" style="stroke:#111827;stroke-width:1.0;"/><line style="stroke:#111827;stroke-width:1.0;" x1="137" x2="359" y1="728.3633" y2="728.3633"/><text fill="#000000" font-family="Arial" font-size="13" font-weight="bold" lengthAdjust="spacing" textLength="7" x="149" y="708.6597">7</text><text fill="#000000" font-family="Arial" font-size="13" lengthAdjust="spacing" textLength="183" x="160" y="693.7109">Auslieferungs-Collection Bundle</text><text fill="#000000" font-family="Arial" font-size="13" lengthAdjust="spacing" textLength="193" x="160" y="708.6597">mit List.emptyReason = nilknown</text><text fill="#000000" font-family="Arial" font-size="13" lengthAdjust="spacing" textLength="42" x="160" y="723.6084">+ ETag</text><line style="stroke:#111827;stroke-width:1.0;stroke-dasharray:2.0,2.0;" x1="83" x2="722" y1="744.3633" y2="744.3633"/><text fill="#000000" font-family="Arial" font-size="14" font-weight="bold" lengthAdjust="spacing" textLength="490" x="88" y="757.4951">[ja: leerer Medikationsplan (mit emptyReason = notstarted | nilknown)]</text><line style="stroke:#111827;stroke-width:1.0;" x1="370" x2="412" y1="797.3594" y2="797.3594"/><line style="stroke:#111827;stroke-width:1.0;" x1="412" x2="412" y1="797.3594" y2="810.3594"/><line style="stroke:#111827;stroke-width:1.0;" x1="371" x2="412" y1="810.3594" y2="810.3594"/><polygon fill="#111827" points="381,806.3594,371,810.3594,381,814.3594,377,810.3594" style="stroke:#111827;stroke-width:1.0;"/><text fill="#000000" font-family="Arial" font-size="13" font-weight="bold" lengthAdjust="spacing" textLength="7" x="377" y="785.1301">8</text><text fill="#000000" font-family="Arial" font-size="13" lengthAdjust="spacing" textLength="131" x="388" y="777.6558">Erzeugt Auslieferungs-</text><text fill="#000000" font-family="Arial" font-size="13" lengthAdjust="spacing" textLength="101" x="388" y="792.6045">Collection Bundle</text><path d="M236,828.3594 L236,860.3594 A5,5 0 0 0 241,865.3594 L488,865.3594 A5,5 0 0 0 493,860.3594 L493,833.3594 L483,823.3594 L241,823.3594 A5,5 0 0 0 236,828.3594 " fill="url(#g1vv9j5j5pqm10)" style="stroke:#8B95A5;stroke-width:1.0;"/><path d="M483,823.3594 L483,830.8594 A2.5,2.5 0 0 0 485.5,833.3594 L493,833.3594 L483,823.3594 " fill="url(#g1vv9j5j5pqm10)" style="stroke:#8B95A5;stroke-width:1.0;"/><text fill="#111827" font-family="Arial" font-size="14" lengthAdjust="spacing" textLength="216" x="242" y="841.4912">Keine Transformation erforderlich.</text><text fill="#111827" font-family="Arial" font-size="14" lengthAdjust="spacing" textLength="236" x="242" y="857.5898">List.emptyReason bleibt unver&#228;ndert.</text><polygon fill="#111827" points="143,917.4028,133,921.4028,143,925.4028,139,921.4028" style="stroke:#111827;stroke-width:1.0;"/><line style="stroke:#111827;stroke-width:1.0;" x1="137" x2="364" y1="921.4028" y2="921.4028"/><text fill="#000000" font-family="Arial" font-size="13" font-weight="bold" lengthAdjust="spacing" textLength="7" x="149" y="901.6992">9</text><text fill="#000000" font-family="Arial" font-size="13" lengthAdjust="spacing" textLength="183" x="160" y="886.7505">Auslieferungs-Collection Bundle</text><text fill="#000000" font-family="Arial" font-size="13" lengthAdjust="spacing" textLength="135" x="160" y="901.6992">(mit List.emptyReason)</text><text fill="#000000" font-family="Arial" font-size="13" lengthAdjust="spacing" textLength="42" x="160" y="916.6479">+ ETag</text><line style="stroke:#111827;stroke-width:1.0;stroke-dasharray:2.0,2.0;" x1="83" x2="722" y1="930.4028" y2="930.4028"/><text fill="#000000" font-family="Arial" font-size="14" font-weight="bold" lengthAdjust="spacing" textLength="276" x="88" y="943.5347">[nein: kein Medikationsplan persistiert]</text><rect fill="none" height="58.2959" rx="5" ry="5" style="stroke:#000000;stroke-width:1.5;" width="326" x="100" y="947.5015"/><path d="M105,947.5015 L165,947.5015 L165,955.5015 L155,965.5015 L100,965.5015 L100,952.5015 A5,5 0 0 1 105,947.5015 " fill="#EEEEEE" style="stroke:#000000;stroke-width:2.0;"/><text fill="#000000" font-family="Arial" font-size="14" font-weight="bold" lengthAdjust="spacing" textLength="20" x="113" y="962.6333">ref</text><text fill="#000000" font-family="Arial" font-size="14" lengthAdjust="spacing" textLength="192" x="165" y="982.6333">Siehe Sub_UC_eMed_05_03 -</text><text fill="#000000" font-family="Arial" font-size="14" lengthAdjust="spacing" textLength="197" x="164.5" y="998.7319">Initial erstellter Medikationsplan</text><path d="M5,1027.7974 L5,1075.7974 A5,5 0 0 0 10,1080.7974 L245,1080.7974 A5,5 0 0 0 250,1075.7974 L250,1032.7974 L240,1022.7974 L10,1022.7974 A5,5 0 0 0 5,1027.7974 " fill="url(#g1vv9j5j5pqm10)" style="stroke:#8B95A5;stroke-width:1.0;"/><path d="M240,1022.7974 L240,1030.2974 A2.5,2.5 0 0 0 242.5,1032.7974 L250,1032.7974 L240,1022.7974 " fill="url(#g1vv9j5j5pqm10)" style="stroke:#8B95A5;stroke-width:1.0;"/><text fill="#111827" font-family="Arial" font-size="14" lengthAdjust="spacing" textLength="139" x="11" y="1040.9292">Nachfolgend kann der</text><text fill="#111827" font-family="Arial" font-size="14" lengthAdjust="spacing" textLength="220" x="11" y="1057.0278">Medikationsplan bearbeitet werden</text><text fill="#111827" font-family="Arial" font-size="14" lengthAdjust="spacing" textLength="177" x="11" y="1073.1265">und ein Plan-Write erfolgen.</text><!--SRC=[fLRRRY9747tlhwYOIB6LOCqCnXWanm8RRrRhDGXOHKeSeOQfWGv33zlJOzREvZKVa6_OFza_oPUakhdDpQjScXUc-anLdLFLrQE53X7w8PVL0NAViM_YXP0hhlWI-5H7QgYV2C3N64TBPEomEucKZ-ew2YC55SUkz2wVBcOgIgI_HGHryqiXuZdtexMGCmXu66DgP_kQagZ0JJlrCU19g6yZgU_v4k6ehGGFZyeHG_6Cu9wLRxwKzWzFArIXa8iKeDij0xoJlls3XVGxqOS-ztt3p7EozavQixfTQKbbf15-Om2Tl7heO3rmgXNVzPjuRX1fJnUJPftNzzRHN4mN4kCONB8DKcewzBpBpNX9IU6wxeNN8DimLvVVqnd6-3v1ETrasUTAYwbOSQdBY6K1XNwmAmigLgQmlQjgPYCbDq1RgMYT9sMDMLsigIpYVcCJgqQcLvJvAiDnxtcpLQWN1fvbbthp4Dupedv5xMZQvxftrnkCNzsqnoxGghZrS-V2kt1A09u5DC_FdSPD0T1lZrvtxqV6G_EyuvqL0Er-3-ogEBVDxaszcGTqttPlnhTj0c2puTMyYPy7Z0VTdxhz4LIcVgrHytWpJwFt1Z8nl7e1i641bTfPetRXds4-nc3G6rX0jzbmQrwDJeWTHB2HYCTmHF_0FKehnrQ7RW1yYxxXOQ1OfGUuRHzbEJ9ockX89ii9AiOkBw6zq0c68KgW5yI2Qn79U4Lp4KACoNfvoTWcW-htkmWjwFU68_ZQmAhAZ4_AL3noEiKRQ3f3Paztz8XR9gmzKKb0GodEHupPSwAWWrnDKEX4pXXAtmu7TWYm8vcbjREcS-n-4B4Mg4WO8O76LxnzHlKWSw6l63Dzl3gKauUwLP0avUGAVlwLj-mDGkwr-lnfXl0OgJcd0IdXU662udAbd-X-YIDvyWkTYj8qrJCcCmtj90u51gY8U5nza7IYGfoQsD2X0nRYWnmf4Yc8rDAcr7gGLP2u_ZYbc3Egzbz__0c9t3wPJOLBqjqtuNWImnsbJW1_wmzGQWedKL9cXoBjSYJZ3NLIMhUy7bN25DA4IOXYOWAHjy-Vp7MXJmttNItBPHWAiy-dS-eC1Lcc3zAaZcL2Nm4ZXsMrUw4ojcwc5faqR6UsSZKegS2tq1tncOs9T4bapgw9re8xH4K4yfrZ0-QZxiaRUgUfPe5Ba29So6WjwUhHpxP4_odXfT1Vyhvdj5biKoV6KkJiv3Aj7fOpEpOXSjuZ7MiQJDHw7_UXJZRU_yy9AEjJihr1CqQpBGEe0dlxX68wFpNA5rJuLttwJ_K-BXFy9DKux8M-iVFY2_F6YASmI0tIxmuA30NE4OR9PFpkUcpDJdtirA1gYB-MGjFd8Yb2PoWCTR66MzRataJnCJzicUs9_1o_fyCQHE7ClBhWKjg3o_8K9jjnZXhMgCneP6O46RRsw_j79KmWjV5qUXZvVmC0]--></g></svg>