<?xml version="1.0" encoding="us-ascii" standalone="no"?><svg xmlns="http://www.w3.org/2000/svg" xmlns:xlink="http://www.w3.org/1999/xlink" contentStyleType="text/css" height="873px" preserveAspectRatio="none" style="width:747px;height:873px;background:#F5F5F5;" version="1.1" viewBox="0 0 747 873" width="747px" zoomAndPan="magnify"><defs><linearGradient id="g18qj788lk9rke0" x1="50%" x2="50%" y1="0%" y2="100%"><stop offset="0%" stop-color="#E0E5F0"/><stop offset="100%" stop-color="#D1D9E6"/></linearGradient></defs><g><rect fill="#F5F5F5" height="873" style="stroke:none;stroke-width:1.0;" width="747" x="0" y="0"/><text fill="#000000" font-family="Arial" font-size="14" font-weight="bold" lengthAdjust="spacing" textLength="162" x="293.75" y="28.1318">Groupidentifier-Search</text><rect fill="#156082" fill-opacity="0.50196" height="570.2173" style="stroke:#181818;stroke-width:1.0;" width="10" x="60.5" y="181.3433"/><rect fill="#E97232" fill-opacity="0.74118" height="554.2173" style="stroke:#181818;stroke-width:1.0;" width="10" x="461.5" y="181.3433"/><rect fill="#0F9ED5" fill-opacity="0.14510" height="490.3198" rx="5" ry="5" style="stroke:#111827;stroke-width:2.0;" width="730.5" x="10" y="253.2407"/><rect fill="#0F9ED5" fill-opacity="0.14510" height="266.3828" rx="5" ry="5" style="stroke:#111827;stroke-width:2.0;" width="710.5" x="20" y="408.1816"/><path d="M20,627.5171 L730.5,627.5171 L730.5,669.5645 A5,5 0 0 1 725.5,674.5645 L25,674.5645 A5,5 0 0 1 20,669.5645 L20,627.5171 " fill="#34738D" fill-opacity="0.30588" style="stroke:none;stroke-width:1.0;"/><path d="M10,681.5645 L740.5,681.5645 L740.5,738.5605 A5,5 0 0 1 735.5,743.5605 L15,743.5605 A5,5 0 0 1 10,738.5605 L10,681.5645 " fill="#E97132" fill-opacity="0.20784" style="stroke:none;stroke-width:1.0;"/><line style="stroke:#181818;stroke-width:0.5;stroke-dasharray:5.0,5.0;" x1="65" x2="65" y1="150.3945" y2="760.5605"/><line style="stroke:#181818;stroke-width:0.5;stroke-dasharray:5.0,5.0;" x1="466.5" x2="466.5" y1="150.3945" y2="760.5605"/><text fill="#000000" font-family="Arial" font-size="14" lengthAdjust="spacing" textLength="30" x="47.5" y="115.2305">GDA</text><text fill="#000000" font-family="Arial" font-size="14" lengthAdjust="spacing" textLength="28" x="48.5" y="131.3291">Arzt/</text><text fill="#000000" font-family="Arial" font-size="14" lengthAdjust="spacing" textLength="65" x="30" y="147.4277">Apotheker</text><ellipse cx="65.5" cy="50.5986" fill="#156082" fill-opacity="0.50196" rx="8" ry="8" style="stroke:#181818;stroke-width:0.5;"/><path d="M65.5,58.5986 L65.5,85.5986 M52.5,66.5986 L78.5,66.5986 M65.5,85.5986 L52.5,100.5986 M65.5,85.5986 L78.5,100.5986 " fill="none" style="stroke:#181818;stroke-width:0.5;"/><text fill="#000000" font-family="Arial" font-size="14" lengthAdjust="spacing" textLength="30" x="47.5" y="772.6924">GDA</text><text fill="#000000" font-family="Arial" font-size="14" lengthAdjust="spacing" textLength="28" x="48.5" y="788.791">Arzt/</text><text fill="#000000" font-family="Arial" font-size="14" lengthAdjust="spacing" textLength="65" x="30" y="804.8896">Apotheker</text><ellipse cx="65.5" cy="816.3564" fill="#156082" fill-opacity="0.50196" rx="8" ry="8" style="stroke:#181818;stroke-width:0.5;"/><path d="M65.5,824.3564 L65.5,851.3564 M52.5,832.3564 L78.5,832.3564 M65.5,851.3564 L52.5,866.3564 M65.5,851.3564 L78.5,866.3564 " fill="none" style="stroke:#181818;stroke-width:0.5;"/><rect fill="#E97232" fill-opacity="0.74118" height="30.0986" rx="5" ry="5" style="stroke:#555555;stroke-width:0.5;" width="76" x="428.5" y="119.2959"/><text fill="#000000" font-family="Arial" font-size="14" lengthAdjust="spacing" textLength="62" x="435.5" y="139.4277">e-Med FA</text><rect fill="#E97232" fill-opacity="0.74118" height="30.0986" rx="5" ry="5" style="stroke:#555555;stroke-width:0.5;" width="76" x="428.5" y="759.5605"/><text fill="#000000" font-family="Arial" font-size="14" lengthAdjust="spacing" textLength="62" x="435.5" y="779.6924">e-Med FA</text><rect fill="#156082" fill-opacity="0.50196" height="570.2173" style="stroke:#181818;stroke-width:1.0;" width="10" x="60.5" y="181.3433"/><rect fill="#E97232" fill-opacity="0.74118" height="554.2173" style="stroke:#181818;stroke-width:1.0;" width="10" x="461.5" y="181.3433"/><polygon fill="#111827" points="449.5,177.3433,459.5,181.3433,449.5,185.3433,453.5,181.3433" style="stroke:#111827;stroke-width:1.0;"/><line style="stroke:#111827;stroke-width:1.0;" x1="70.5" x2="455.5" y1="181.3433" y2="181.3433"/><text fill="#000000" font-family="Arial" font-size="13" font-weight="bold" lengthAdjust="spacing" textLength="7" x="77.5" y="176.5884">1</text><text fill="#000000" font-family="Arial" font-size="13" lengthAdjust="spacing" textLength="304" x="88.5" y="176.5884">POST $groupidentifier-search (e-Med GroupIdentifier)</text><line style="stroke:#111827;stroke-width:1.0;" x1="471.5" x2="513.5" y1="225.2407" y2="225.2407"/><line style="stroke:#111827;stroke-width:1.0;" x1="513.5" x2="513.5" y1="225.2407" y2="238.2407"/><line style="stroke:#111827;stroke-width:1.0;" x1="472.5" x2="513.5" y1="238.2407" y2="238.2407"/><polygon fill="#111827" points="482.5,234.2407,472.5,238.2407,482.5,242.2407,478.5,238.2407" style="stroke:#111827;stroke-width:1.0;"/><text fill="#000000" font-family="Arial" font-size="13" font-weight="bold" lengthAdjust="spacing" textLength="7" x="478.5" y="213.0115">2</text><text fill="#000000" font-family="Arial" font-size="13" lengthAdjust="spacing" textLength="124" x="489.5" y="205.5371">Syntaktische Pr&#252;fung</text><text fill="#000000" font-family="Arial" font-size="13" lengthAdjust="spacing" textLength="148" x="489.5" y="220.4858">des e-Med GroupIdentifier</text><path d="M15,253.2407 L328,253.2407 L328,261.3394 L318,271.3394 L10,271.3394 L10,258.2407 A5,5 0 0 1 15,253.2407 " fill="#EEF2FF" style="stroke:#111827;stroke-width:1.5;"/><rect fill="none" height="490.3198" rx="5" ry="5" style="stroke:#111827;stroke-width:2.0;" width="730.5" x="10" y="253.2407"/><text fill="#000000" font-family="Arial" font-size="14" font-weight="bold" lengthAdjust="spacing" textLength="269" x="25" y="267.3726">alt: GroupIdentifier syntaktisch g&#252;ltig?</text><text fill="#000000" font-family="Arial" font-size="14" font-weight="bold" lengthAdjust="spacing" textLength="22" x="343" y="268.3726">[ja]</text><line style="stroke:#111827;stroke-width:1.0;" x1="471.5" x2="513.5" y1="338.2329" y2="338.2329"/><line style="stroke:#111827;stroke-width:1.0;" x1="513.5" x2="513.5" y1="338.2329" y2="351.2329"/><line style="stroke:#111827;stroke-width:1.0;" x1="472.5" x2="513.5" y1="351.2329" y2="351.2329"/><polygon fill="#111827" points="482.5,347.2329,472.5,351.2329,482.5,355.2329,478.5,351.2329" style="stroke:#111827;stroke-width:1.0;"/><text fill="#000000" font-family="Arial" font-size="13" font-weight="bold" lengthAdjust="spacing" textLength="7" x="478.5" y="311.0549">3</text><text fill="#000000" font-family="Arial" font-size="13" lengthAdjust="spacing" textLength="223" x="489.5" y="288.6318">Ermitteln von MedicationRequests mit:</text><text fill="#000000" font-family="Arial" font-size="13" lengthAdjust="spacing" textLength="209" x="489.5" y="303.5806">- category = "Geplante Abgabe" und</text><text fill="#000000" font-family="Arial" font-size="13" lengthAdjust="spacing" textLength="156" x="489.5" y="318.5293">- e-Med GroupIdentifier und</text><text fill="#000000" font-family="Arial" font-size="13" lengthAdjust="spacing" textLength="93" x="489.5" y="333.478">- status = active</text><line style="stroke:#111827;stroke-width:1.0;" x1="471.5" x2="513.5" y1="380.1816" y2="380.1816"/><line style="stroke:#111827;stroke-width:1.0;" x1="513.5" x2="513.5" y1="380.1816" y2="393.1816"/><line style="stroke:#111827;stroke-width:1.0;" x1="472.5" x2="513.5" y1="393.1816" y2="393.1816"/><polygon fill="#111827" points="482.5,389.1816,472.5,393.1816,482.5,397.1816,478.5,393.1816" style="stroke:#111827;stroke-width:1.0;"/><text fill="#000000" font-family="Arial" font-size="13" font-weight="bold" lengthAdjust="spacing" textLength="7" x="478.5" y="375.4268">4</text><text fill="#000000" font-family="Arial" font-size="13" lengthAdjust="spacing" textLength="150" x="489.5" y="375.4268">Mindestens ein Ergebnis?</text><path d="M25,408.1816 L396,408.1816 L396,416.2803 L386,426.2803 L20,426.2803 L20,413.1816 A5,5 0 0 1 25,408.1816 " fill="#EEF2FF" style="stroke:#111827;stroke-width:1.5;"/><rect fill="none" height="266.3828" rx="5" ry="5" style="stroke:#111827;stroke-width:2.0;" width="710.5" x="20" y="408.1816"/><text fill="#000000" font-family="Arial" font-size="14" font-weight="bold" lengthAdjust="spacing" textLength="327" x="35" y="422.3135">alt: Mindestens eine offene Geplante Abgabe?</text><text fill="#000000" font-family="Arial" font-size="14" font-weight="bold" lengthAdjust="spacing" textLength="22" x="411" y="423.3135">[ja]</text><line style="stroke:#111827;stroke-width:1.0;" x1="471.5" x2="513.5" y1="478.2251" y2="478.2251"/><line style="stroke:#111827;stroke-width:1.0;" x1="513.5" x2="513.5" y1="478.2251" y2="491.2251"/><line style="stroke:#111827;stroke-width:1.0;" x1="472.5" x2="513.5" y1="491.2251" y2="491.2251"/><polygon fill="#111827" points="482.5,487.2251,472.5,491.2251,482.5,495.2251,478.5,491.2251" style="stroke:#111827;stroke-width:1.0;"/><text fill="#000000" font-family="Arial" font-size="13" font-weight="bold" lengthAdjust="spacing" textLength="7" x="478.5" y="458.5215">5</text><text fill="#000000" font-family="Arial" font-size="13" lengthAdjust="spacing" textLength="229" x="489.5" y="443.5728">Ermitteln von MedicationDispenses mit:</text><text fill="#000000" font-family="Arial" font-size="13" lengthAdjust="spacing" textLength="156" x="489.5" y="458.5215">- e-Med GroupIdentifier und</text><text fill="#000000" font-family="Arial" font-size="13" lengthAdjust="spacing" textLength="186" x="489.5" y="473.4702">- status = completed | cancelled</text><path d="M351,509.2251 L351,573.2251 A5,5 0 0 0 356,578.2251 L577,578.2251 A5,5 0 0 0 582,573.2251 L582,514.2251 L572,504.2251 L356,504.2251 A5,5 0 0 0 351,509.2251 " fill="url(#g18qj788lk9rke0)" style="stroke:#8B95A5;stroke-width:1.0;"/><path d="M572,504.2251 L572,511.7251 A2.5,2.5 0 0 0 574.5,514.2251 L582,514.2251 L572,504.2251 " fill="url(#g18qj788lk9rke0)" style="stroke:#8B95A5;stroke-width:1.0;"/><text fill="#111827" font-family="Arial" font-size="14" lengthAdjust="spacing" textLength="206" x="357" y="522.3569">Die zugeh&#246;rigen Durchgef&#252;hrten</text><text fill="#111827" font-family="Arial" font-size="14" lengthAdjust="spacing" textLength="205" x="357" y="538.4556">Abgaben werden gemeinsam mit</text><text fill="#111827" font-family="Arial" font-size="14" lengthAdjust="spacing" textLength="207" x="357" y="554.5542">den offenen Geplanten Abgaben</text><text fill="#111827" font-family="Arial" font-size="14" lengthAdjust="spacing" textLength="96" x="357" y="570.6528">zur&#252;ckgeliefert.</text><polygon fill="#111827" points="81.5,615.5171,71.5,619.5171,81.5,623.5171,77.5,619.5171" style="stroke:#111827;stroke-width:1.0;"/><line style="stroke:#111827;stroke-width:1.0;" x1="75.5" x2="460.5" y1="619.5171" y2="619.5171"/><text fill="#000000" font-family="Arial" font-size="13" font-weight="bold" lengthAdjust="spacing" textLength="7" x="87.5" y="607.2878">6</text><text fill="#000000" font-family="Arial" font-size="13" lengthAdjust="spacing" textLength="142" x="98.5" y="599.8135">Bundle (type=searchset)</text><text fill="#000000" font-family="Arial" font-size="13" lengthAdjust="spacing" textLength="356" x="98.5" y="614.7622">mit MedicationRequest- und MedicationDispense-Ressourcen</text><line style="stroke:#111827;stroke-width:1.0;stroke-dasharray:2.0,2.0;" x1="20" x2="730.5" y1="628.5171" y2="628.5171"/><text fill="#000000" font-family="Arial" font-size="14" font-weight="bold" lengthAdjust="spacing" textLength="41" x="25" y="641.6489">[nein]</text><polygon fill="#111827" points="81.5,662.5645,71.5,666.5645,81.5,670.5645,77.5,666.5645" style="stroke:#111827;stroke-width:1.0;"/><line style="stroke:#111827;stroke-width:1.0;" x1="75.5" x2="460.5" y1="666.5645" y2="666.5645"/><text fill="#000000" font-family="Arial" font-size="13" font-weight="bold" lengthAdjust="spacing" textLength="7" x="87.5" y="661.8096">7</text><text fill="#000000" font-family="Arial" font-size="13" lengthAdjust="spacing" textLength="226" x="98.5" y="661.8096">Bundle (type=searchset) ohne Eintr&#228;ge</text><line style="stroke:#111827;stroke-width:1.0;stroke-dasharray:2.0,2.0;" x1="10" x2="740.5" y1="682.5645" y2="682.5645"/><text fill="#000000" font-family="Arial" font-size="14" font-weight="bold" lengthAdjust="spacing" textLength="99" x="15" y="695.6963">[nein: Felhler]</text><polygon fill="#111827" points="81.5,731.5605,71.5,735.5605,81.5,739.5605,77.5,735.5605" style="stroke:#111827;stroke-width:1.0;"/><line style="stroke:#111827;stroke-width:1.0;stroke-dasharray:2.0,2.0;" x1="75.5" x2="465.5" y1="735.5605" y2="735.5605"/><text fill="#000000" font-family="Arial" font-size="13" font-weight="bold" lengthAdjust="spacing" textLength="7" x="87.5" y="723.3313">8</text><text fill="#000000" font-family="Arial" font-size="13" lengthAdjust="spacing" textLength="57" x="98.5" y="715.8569">HTTP 4xx</text><text fill="#000000" font-family="Arial" font-size="13" lengthAdjust="spacing" textLength="109" x="98.5" y="730.8057">OperationOutcome</text><!--SRC=[bLRDZk964BxxAIeGQNSF960664RQh9Z5ixjAPa50Bib4eyOkcmwcctItvuSaRvDdo6bkysAfRWzW6w-KDHBWgg-wllgwkcp3JOhmGSbiooCKXiSSLMkEJ8KhptkbrrnicM8ROA6HQcuU2StkKSiDUjxHkvGgGlLUfb91i-skefU5wuHIYEW54VVifu3GAnR9UouIY5cgiU1v2LC25NIAYqOOiomrLrAOpso3q1Wfpj96FMBETmYTithdbsX_VDoYIhbO5m11K0VuMKJk3vxGlvGFKnP5jZA_NRPV5ZNhkQiegP06uKyFuBAg7hQn5xTRpQWJ3R5l4SMLpfV37kiTh8iL3zS2jOOEsMO5DTjql-TcLob8qUbqplq1sUQLVVcxo53Z7ncAC6SvPShma6-PC7M5bG2def-uznjMSXIK11Wf9U-hV9snNB8prMKyEF9SNJAvSr2YVrWvTvri1SP-79SZZ-bzgzStr6csCzvFVfhCRZ-CHxSTeAlPwVNRv_vvkmRWEy2mtsyFnYU0wMZnAVYyi2iC-vV-sGbWD9s0kvhjgs4mxWshWE0w6DzUZGY0mu7VzPTH5N0x2tu9fWjeXb5tqFNPi5h6v4SevV1x9u2y2cXspmRTy-WCgpbciydC0OBXeDFrkzJyRiP0BX7JqA1_DsAaTkPx-jbAiy8rgaPHIMzxx0x0QuniNJOKMtG3LwD6kMRlLIdWTeOxt9gNYFocKH61Q6L6YcopHELvERdM3_ja5p2Tp1VmRLAPeDfDK7YTyt3TyUdWVMChvNUC3dY-Nh6YWsjVJddJF6zlBvAOFmh3reRhS8KmLSzFSIQI6vfA6cePU9uZVDnDbfgBAWZqSLL8dfzImvDtyEllx3UFEhwEHg0st1XC1Tn90MJb8JDSYfcT5Dfe8FV5ZMW1cJ6HwX7UqYxZDgNTG1Wj4xR41j3nifXQudkdDinaciATN4Xyla3fcbiL30fIWWjYcE1ISFtEim5r8fG346GS8_rKM1vr-3ebnbnlQMayIl7_oWpbPfkY8UHV91uDtJJ5o6LtN-vX8Uyey8M1iuuvmYvBSFNyh-892XXdr9G9nizFAqKLvh5vGGBkaQQNW0GtLBUc-KuCSuGrvpA8WmvY7-SGkunwZcOZfXnZLEQxN1WHEMOdChbElu1BgfBU9ruRUew-pK-CHlFcHjZC9ztJigBKI4ddLcj9bJakjWteILKSGuBg-Je685UqvG4NHZt_a-1UPwg7ZjznzNo6sUKlu0hJLKhw5zlmcEVZOZ65iuU76p6XLmP7VvAPqBv5MNchPzxMOPFz1m00]--></g></svg>