<svg xmlns="http://www.w3.org/2000/svg" xmlns:xlink="http://www.w3.org/1999/xlink" contentStyleType="text/css" data-diagram-type="SEQUENCE" height="496px" preserveAspectRatio="none" style="width:1099px;height:496px;background:#F5F5F5;" version="1.1" viewBox="0 0 1099 496" width="1099px" zoomAndPan="magnify"><?plantuml 1.2026.5?><defs><linearGradient id="g15l1tfmmft6wf0" x1="50%" x2="50%" y1="0%" y2="100%"><stop offset="0%" stop-color="#E0E5F0"/><stop offset="100%" stop-color="#D1D9E6"/></linearGradient><filter height="300%" id="f15l1tfmmft6wf" width="300%" x="-1" y="-1"><feGaussianBlur result="blurOut" stdDeviation="2"/><feColorMatrix in="blurOut" result="blurOut2" type="matrix" values="0 0 0 0 0 0 0 0 0 0 0 0 0 0 0 0 0 0 .4 0"/><feOffset dx="4" dy="4" in="blurOut2" result="blurOut3"/><feBlend in="SourceGraphic" in2="blurOut3" mode="normal"/></filter></defs><g><rect fill="#F5F5F5" height="496" style="stroke:none;stroke-width:1;" width="1099" x="0" y="0"/><rect fill="#9FBAC4" height="470.8438" rx="5" ry="5" style="stroke:#181818;stroke-width:0.5;" width="74.0586" x="21" y="6"/><text fill="#000000" font-family="'Arial'" font-size="14" font-weight="700" lengthAdjust="spacing" textLength="4.874" x="24" y="18.9951">&#160;</text><text fill="#000000" font-family="'Arial'" font-size="14" font-weight="700" lengthAdjust="spacing" textLength="48.5625" x="33.748" y="35.292">GDA 1</text><rect fill="#C48778" height="470.8438" rx="5" ry="5" style="stroke:#181818;stroke-width:0.5;" width="256.9268" x="284.9995" y="6"/><text fill="#000000" font-family="'Arial'" font-size="14" font-weight="700" lengthAdjust="spacing" textLength="4.874" x="287.9995" y="18.9951">&#160;</text><text fill="#000000" font-family="'Arial'" font-size="14" font-weight="700" lengthAdjust="spacing" textLength="182.6904" x="322.1177" y="35.292">e-Med Fachanwendung</text><rect fill="#BEAEBE" height="470.8438" rx="5" ry="5" style="stroke:#181818;stroke-width:0.5;" width="83.8066" x="868.6655" y="6"/><text fill="#000000" font-family="'Arial'" font-size="14" font-weight="700" lengthAdjust="spacing" textLength="4.874" x="871.6655" y="18.9951">&#160;</text><text fill="#000000" font-family="'Arial'" font-size="14" font-weight="700" lengthAdjust="spacing" textLength="48.5625" x="891.1616" y="35.292">GDA 2</text><rect fill="#BAC38B" height="470.8438" rx="5" ry="5" style="stroke:#181818;stroke-width:0.5;" width="77.9756" x="994.4722" y="6"/><text fill="#000000" font-family="'Arial'" font-size="14" font-weight="700" lengthAdjust="spacing" textLength="4.874" x="997.4722" y="18.9951">&#160;</text><text fill="#000000" font-family="'Arial'" font-size="14" font-weight="700" lengthAdjust="spacing" textLength="57.3535" x="1002.3462" y="35.292">Patient</text><g><title>GDA 1</title><rect fill="#FFFFFF" height="229.5234" style="stroke:#181818;stroke-width:1;" width="10" x="53.0293" y="150.0234"/></g><g><title>e-Med FA</title><rect fill="#FFFFFF" height="229.5234" style="stroke:#181818;stroke-width:1;" width="10" x="408.4629" y="150.0234"/></g><g class="participant-lifeline" data-entity-uid="part1" data-qualified-name="GDA_1" data-source-line="41" id="part1-lifeline"><g><title>GDA 1</title><rect fill="#000000" fill-opacity="0.00000" height="278.6563" width="8" x="54.0293" y="118.8906"/><line style="stroke:#181818;stroke-width:0.5;stroke-dasharray:5,5;" x1="57.7476" x2="57.7476" y1="118.8906" y2="397.5469"/></g></g><g class="participant-lifeline" data-entity-uid="part2" data-qualified-name="eMed_FA" data-source-line="45" id="part2-lifeline"><g><title>e-Med FA</title><rect fill="#000000" fill-opacity="0.00000" height="278.6563" width="8" x="409.4629" y="118.8906"/><line style="stroke:#181818;stroke-width:0.5;stroke-dasharray:5,5;" x1="412.8008" x2="412.8008" y1="118.8906" y2="397.5469"/></g></g><g class="participant-lifeline" data-entity-uid="part3" data-qualified-name="GDA_2" data-source-line="49" id="part3-lifeline"><g><title>GDA 2</title><rect fill="#000000" fill-opacity="0.00000" height="278.6563" width="8" x="906.5688" y="118.8906"/><line style="stroke:#181818;stroke-width:0.5;stroke-dasharray:5,5;" x1="910.2871" x2="910.2871" y1="118.8906" y2="397.5469"/></g></g><g class="participant-lifeline" data-entity-uid="part4" data-qualified-name="Patient" data-source-line="53" id="part4-lifeline"><g><title>Patient</title><rect fill="#000000" fill-opacity="0.00000" height="278.6563" width="8" x="1029.46" y="118.8906"/><line style="stroke:#181818;stroke-width:0.5;stroke-dasharray:5,5;" x1="1032.772" x2="1032.772" y1="118.8906" y2="397.5469"/></g></g><g class="participant participant-head" data-entity-uid="part1" data-qualified-name="GDA_1" data-source-line="41" id="part1-head"><text fill="#000000" font-family="'Arial'" font-size="14" lengthAdjust="spacing" textLength="44.5635" x="32.7476" y="115.5889">GDA 1</text><ellipse cx="58.0293" cy="51.0938" fill="#E2E2F0" rx="8" ry="8" style="stroke:#181818;stroke-width:0.5;"/><path d="M58.0293,59.0938 L58.0293,86.0938 M45.0293,67.0938 L71.0293,67.0938 M58.0293,86.0938 L45.0293,101.0938 M58.0293,86.0938 L71.0293,101.0938" fill="none" style="stroke:#181818;stroke-width:0.5;"/></g><g class="participant participant-tail" data-entity-uid="part1" data-qualified-name="GDA_1" data-source-line="41" id="part1-tail"><text fill="#000000" font-family="'Arial'" font-size="14" lengthAdjust="spacing" textLength="44.5635" x="32.7476" y="409.542">GDA 1</text><ellipse cx="58.0293" cy="421.3438" fill="#E2E2F0" rx="8" ry="8" style="stroke:#181818;stroke-width:0.5;"/><path d="M58.0293,429.3438 L58.0293,456.3438 M45.0293,437.3438 L71.0293,437.3438 M58.0293,456.3438 L45.0293,471.3438 M58.0293,456.3438 L71.0293,471.3438" fill="none" style="stroke:#181818;stroke-width:0.5;"/></g><g class="participant participant-head" data-entity-uid="part2" data-qualified-name="eMed_FA" data-source-line="45" id="part2-head"><rect fill="#FFFFFF" height="30.2969" rx="5" ry="5" style="stroke:#555555;stroke-width:0.5;" width="79.3242" x="373.8008" y="87.5938"/><text fill="#000000" font-family="'Arial'" font-size="14" lengthAdjust="spacing" textLength="65.3242" x="380.8008" y="107.5889">e-Med FA</text></g><g class="participant participant-tail" data-entity-uid="part2" data-qualified-name="eMed_FA" data-source-line="45" id="part2-tail"><rect fill="#FFFFFF" height="30.2969" rx="5" ry="5" style="stroke:#555555;stroke-width:0.5;" width="79.3242" x="373.8008" y="396.5469"/><text fill="#000000" font-family="'Arial'" font-size="14" lengthAdjust="spacing" textLength="65.3242" x="380.8008" y="416.542">e-Med FA</text></g><g class="participant participant-head" data-entity-uid="part3" data-qualified-name="GDA_2" data-source-line="49" id="part3-head"><text fill="#000000" font-family="'Arial'" font-size="14" lengthAdjust="spacing" textLength="44.5635" x="885.2871" y="115.5889">GDA 2</text><ellipse cx="910.5688" cy="51.0938" fill="#E2E2F0" rx="8" ry="8" style="stroke:#181818;stroke-width:0.5;"/><path d="M910.5688,59.0938 L910.5688,86.0938 M897.5688,67.0938 L923.5688,67.0938 M910.5688,86.0938 L897.5688,101.0938 M910.5688,86.0938 L923.5688,101.0938" fill="none" style="stroke:#181818;stroke-width:0.5;"/></g><g class="participant participant-tail" data-entity-uid="part3" data-qualified-name="GDA_2" data-source-line="49" id="part3-tail"><text fill="#000000" font-family="'Arial'" font-size="14" lengthAdjust="spacing" textLength="44.5635" x="885.2871" y="409.542">GDA 2</text><ellipse cx="910.5688" cy="421.3438" fill="#E2E2F0" rx="8" ry="8" style="stroke:#181818;stroke-width:0.5;"/><path d="M910.5688,429.3438 L910.5688,456.3438 M897.5688,437.3438 L923.5688,437.3438 M910.5688,456.3438 L897.5688,471.3438 M910.5688,456.3438 L923.5688,471.3438" fill="none" style="stroke:#181818;stroke-width:0.5;"/></g><g class="participant participant-head" data-entity-uid="part4" data-qualified-name="Patient" data-source-line="53" id="part4-head"><text fill="#000000" font-family="'Arial'" font-size="14" lengthAdjust="spacing" textLength="49.376" x="1005.772" y="115.5889">Patient</text><ellipse cx="1033.46" cy="51.0938" fill="#E2E2F0" rx="8" ry="8" style="stroke:#181818;stroke-width:0.5;"/><path d="M1033.46,59.0938 L1033.46,86.0938 M1020.46,67.0938 L1046.46,67.0938 M1033.46,86.0938 L1020.46,101.0938 M1033.46,86.0938 L1046.46,101.0938" fill="none" style="stroke:#181818;stroke-width:0.5;"/></g><g class="participant participant-tail" data-entity-uid="part4" data-qualified-name="Patient" data-source-line="53" id="part4-tail"><text fill="#000000" font-family="'Arial'" font-size="14" lengthAdjust="spacing" textLength="49.376" x="1005.772" y="409.542">Patient</text><ellipse cx="1033.46" cy="421.3438" fill="#E2E2F0" rx="8" ry="8" style="stroke:#181818;stroke-width:0.5;"/><path d="M1033.46,429.3438 L1033.46,456.3438 M1020.46,437.3438 L1046.46,437.3438 M1033.46,456.3438 L1020.46,471.3438 M1033.46,456.3438 L1046.46,471.3438" fill="none" style="stroke:#181818;stroke-width:0.5;"/></g><g><title>GDA 1</title><rect fill="#FFFFFF" height="229.5234" style="stroke:#181818;stroke-width:1;" width="10" x="53.0293" y="150.0234"/></g><g><title>e-Med FA</title><rect fill="#FFFFFF" height="229.5234" style="stroke:#181818;stroke-width:1;" width="10" x="408.4629" y="150.0234"/></g><g class="message" data-entity-1="part1" data-entity-2="part2" data-source-line="59" id="msg1"><line style="stroke:#111827;stroke-width:1;" x1="406.4629" x2="396.4629" y1="150.0234" y2="146.0234"/><line style="stroke:#111827;stroke-width:1;" x1="406.4629" x2="396.4629" y1="150.0234" y2="154.0234"/><line style="stroke:#111827;stroke-width:1;" x1="63.0293" x2="407.4629" y1="150.0234" y2="150.0234"/><text fill="#000000" font-family="'Arial'" font-size="13" font-weight="700" lengthAdjust="spacing" textLength="9.0454" x="70.0293" y="144.9575">1</text><text fill="#000000" font-family="'Arial'" font-size="13" lengthAdjust="spacing" textLength="108.9893" x="83.0747" y="144.9575">POST $plan-read</text></g><path d="M28,168.0234 L28,200.0234 A5,5 0 0 0 33,205.0234 L438,205.0234 A5,5 0 0 0 443,200.0234 L443,173.0234 L433,163.0234 L33,163.0234 A5,5 0 0 0 28,168.0234" fill="url(#g15l1tfmmft6wf0)" filter="url(#f15l1tfmmft6wf)" style="stroke:#8B95A5;stroke-width:1;"/><path d="M433,163.0234 L433,170.5234 A2.5,2.5 0 0 0 435.5,173.0234 L443,173.0234 L433,163.0234" fill="url(#g15l1tfmmft6wf0)" style="stroke:#8B95A5;stroke-width:1;"/><text fill="#111827" font-family="'Arial'" font-size="14" lengthAdjust="spacing" textLength="177.9053" x="123.8958" y="181.0186">Medikationsplan abrufen,</text><text fill="#111827" font-family="'Arial'" font-size="14" lengthAdjust="spacing" textLength="211.5859" x="123.8958" y="197.3154">mit der Intention zu schreiben</text><g class="message" data-entity-1="part2" data-entity-2="part2" data-source-line="68" id="msg2"><line style="stroke:#111827;stroke-width:1;" x1="418.4629" x2="460.4629" y1="249.8828" y2="249.8828"/><line style="stroke:#111827;stroke-width:1;" x1="460.4629" x2="460.4629" y1="249.8828" y2="262.8828"/><line style="stroke:#111827;stroke-width:1;" x1="419.4629" x2="460.4629" y1="262.8828" y2="262.8828"/><polygon fill="#111827" points="429.4629,258.8828,419.4629,262.8828,429.4629,266.8828,425.4629,262.8828" style="stroke:#111827;stroke-width:1;stroke-linejoin:miter;stroke-miterlimit:10;"/><text fill="#000000" font-family="'Arial'" font-size="13" font-weight="700" lengthAdjust="spacing" textLength="9.0454" x="425.4629" y="237.2505">2</text><text fill="#000000" font-family="'Arial'" font-size="13" lengthAdjust="spacing" textLength="164.8613" x="438.5083" y="229.6841">Pr&#252;fung auf bestehenden</text><text fill="#000000" font-family="'Arial'" font-size="13" lengthAdjust="spacing" textLength="106.3169" x="438.5083" y="244.8169">Medikationsplan</text></g><g class="message" data-entity-1="part2" data-entity-2="part2" data-source-line="70" id="msg3"><line style="stroke:#111827;stroke-width:1;" x1="418.4629" x2="460.4629" y1="322.2813" y2="322.2813"/><line style="stroke:#111827;stroke-width:1;" x1="460.4629" x2="460.4629" y1="322.2813" y2="335.2813"/><line style="stroke:#111827;stroke-width:1;" x1="419.4629" x2="460.4629" y1="335.2813" y2="335.2813"/><polygon fill="#111827" points="429.4629,331.2813,419.4629,335.2813,429.4629,339.2813,425.4629,335.2813" style="stroke:#111827;stroke-width:1;stroke-linejoin:miter;stroke-miterlimit:10;"/><text fill="#000000" font-family="'Arial'" font-size="13" font-weight="700" lengthAdjust="spacing" textLength="9.0454" x="425.4629" y="302.0825">3</text><text fill="#000000" font-family="'Arial'" font-size="13" lengthAdjust="spacing" textLength="158.2026" x="438.5083" y="286.9497">Wenn Plan vorhanden +</text><text fill="#000000" font-family="'Arial'" font-size="13" lengthAdjust="spacing" textLength="342.7734" x="438.5083" y="302.0825">alle List.enty.flags im Medikationsplan = "removed":</text><text fill="#000000" font-family="'Arial'" font-size="13" lengthAdjust="spacing" textLength="352.6377" x="438.5083" y="317.2153">Fachanwendung setzt List.emptyReason = "nilknown"</text></g><g class="message" data-entity-1="part2" data-entity-2="part1" data-source-line="72" id="msg4"><line style="stroke:#111827;stroke-width:1;" x1="59.0293" x2="69.0293" y1="379.5469" y2="375.5469"/><line style="stroke:#111827;stroke-width:1;" x1="59.0293" x2="69.0293" y1="379.5469" y2="383.5469"/><line style="stroke:#111827;stroke-width:1;stroke-dasharray:2,2;" x1="58.0293" x2="412.4629" y1="379.5469" y2="379.5469"/><text fill="#000000" font-family="'Arial'" font-size="13" font-weight="700" lengthAdjust="spacing" textLength="9.0454" x="75.0293" y="366.9146">4</text><text fill="#000000" font-family="'Arial'" font-size="13" lengthAdjust="spacing" textLength="152.3755" x="88.0747" y="359.3481">Leerer Medikationsplan</text><text fill="#000000" font-family="'Arial'" font-size="13" lengthAdjust="spacing" textLength="215.8394" x="88.0747" y="374.481">(List.emptyReason = "nilknown")</text></g><g class="footer" data-source-line="77"><text fill="#000000" font-family="'Arial'" font-size="10" lengthAdjust="spacing" textLength="356.8213" x="367.8132" y="487.126">Sub_UC_06_02 - Leerer Medikationsplan (keine Medikation einnehmen)</text></g><?plantuml-src VLHHJzim47xthpY5FO16KPDHA4X3AWosIMohA6WlbIedkL2hYTqv3WMc_REzxO_jxAQjqsPp7fBStVVTTv_Zb3CXvrpp0cAbKzHNAbSQzhfkiNAJvSdiKQjAfdL5rhENLr5EUQeMGZv2nlCIlKmDqn8rX3vfYXclSdEZfFdA2uHWe0NFW_QAaNX528_RaqtPNerK1k4d0xZS7W2xsCkwdRqqJC_mn5Ru1lJZinxlhQFtKv7C99ObX1IxymRgq_kGfwaTtB9uQi8mx4Ud51kjhJ6wGlRB5_ZfPOuw5tBcZN1ztLRm85FtWBN1llVueqAPB2STScr48kPSciP8FRUs2dQsrQrcqQx1E-dLvZGIAriY2nXehHRRnhXWqriNQkkuJYnxlQFGHr8-RyouPbwcTlOSiyXDvo4txQFcpbogPs-2HhpDLnQhPmZ6aiW_3204263lBADpOrtXYQ5IIan2u2K4hYHWA5CwTyyUrYtiVC4KRdWovN91DHL9M2xYl3hkdvxQhsw-SHgG09ERWUEkqODsUjivSaGnSeon8IvQYujQq4Dk158p1-R9ktwy1gzI5bu_UmICLqR9geXHCxOqeNDniH9z3iDletjuCy-vx6ZaAIDEySJfuBfQnjmXLazOEtYuGZAwYHcrKxAqQE2nhZAKXwmGXduF6ZvBGr8e3wyLbCbKeuXHEcMMb6rQhIXNJdPyVVhFxynk0gyoYB4qE2K6b6Ev9O2rmh-Z9FEilYUbQKi92M_7akSvmgqepH59V3dASlvOWYXWUwZt46WiQFmqE1_BvbTHedarDKanDozto4lb85BaCwaMCl0qMTETW-TmYwZ9dwrUOxd_Nwu3nbBSiSmBrHkMq4J4dYbbRwCgdZnSJRedasu4dN-qXlqPsd_R9WpqBd5Qe3pu2m00?></g></svg>