<?xml version="1.0" encoding="us-ascii" standalone="no"?><svg xmlns="http://www.w3.org/2000/svg" xmlns:xlink="http://www.w3.org/1999/xlink" contentStyleType="text/css" height="651px" preserveAspectRatio="none" style="width:714px;height:651px;background:#F5F5F5;" version="1.1" viewBox="0 0 714 651" width="714px" zoomAndPan="magnify"><defs><linearGradient id="g9mz4cc3yb1540" x1="50%" x2="50%" y1="0%" y2="100%"><stop offset="0%" stop-color="#E0E5F0"/><stop offset="100%" stop-color="#D1D9E6"/></linearGradient></defs><g><rect fill="#F5F5F5" height="651" style="stroke:none;stroke-width:1.0;" width="714" x="0" y="0"/><text fill="#000000" font-family="Arial" font-size="14" font-weight="bold" lengthAdjust="spacing" textLength="173" x="266.75" y="28.1318">Geplante Abgaben lesen</text><text fill="#000000" font-family="Arial" font-size="14" font-weight="bold" lengthAdjust="spacing" textLength="225" x="240.75" y="44.2305">Variante A: Zugriff mittels e-card</text><rect fill="#156082" fill-opacity="0.50196" height="28.9487" style="stroke:#181818;stroke-width:1.0;" width="10" x="162.5" y="282.6865"/><rect fill="#E97232" fill-opacity="0.74118" height="28.9487" style="stroke:#181818;stroke-width:1.0;" width="10" x="624.5" y="282.6865"/><rect fill="none" height="293.9312" rx="5" ry="5" style="stroke:#111827;stroke-width:2.0;" width="687.5" x="10" y="227.5918"/><line style="stroke:#181818;stroke-width:0.5;stroke-dasharray:5.0,5.0;" x1="167" x2="167" y1="166.4932" y2="538.5229"/><line style="stroke:#181818;stroke-width:0.5;stroke-dasharray:5.0,5.0;" x1="629.5" x2="629.5" y1="166.4932" y2="538.5229"/><text fill="#000000" font-family="Arial" font-size="14" lengthAdjust="spacing" textLength="30" x="149.5" y="131.3291">GDA</text><text fill="#000000" font-family="Arial" font-size="14" lengthAdjust="spacing" textLength="28" x="150.5" y="147.4277">Arzt/</text><text fill="#000000" font-family="Arial" font-size="14" lengthAdjust="spacing" textLength="65" x="132" y="163.5264">Apotheker</text><ellipse cx="167.5" cy="66.6973" fill="#156082" fill-opacity="0.50196" rx="8" ry="8" style="stroke:#181818;stroke-width:0.5;"/><path d="M167.5,74.6973 L167.5,101.6973 M154.5,82.6973 L180.5,82.6973 M167.5,101.6973 L154.5,116.6973 M167.5,101.6973 L180.5,116.6973 " fill="none" style="stroke:#181818;stroke-width:0.5;"/><text fill="#000000" font-family="Arial" font-size="14" lengthAdjust="spacing" textLength="30" x="149.5" y="550.6548">GDA</text><text fill="#000000" font-family="Arial" font-size="14" lengthAdjust="spacing" textLength="28" x="150.5" y="566.7534">Arzt/</text><text fill="#000000" font-family="Arial" font-size="14" lengthAdjust="spacing" textLength="65" x="132" y="582.8521">Apotheker</text><ellipse cx="167.5" cy="594.3188" fill="#156082" fill-opacity="0.50196" rx="8" ry="8" style="stroke:#181818;stroke-width:0.5;"/><path d="M167.5,602.3188 L167.5,629.3188 M154.5,610.3188 L180.5,610.3188 M167.5,629.3188 L154.5,644.3188 M167.5,629.3188 L180.5,644.3188 " fill="none" style="stroke:#181818;stroke-width:0.5;"/><rect fill="#E97232" fill-opacity="0.74118" height="30.0986" rx="5" ry="5" style="stroke:#555555;stroke-width:0.5;" width="76" x="591.5" y="135.3945"/><text fill="#000000" font-family="Arial" font-size="14" lengthAdjust="spacing" textLength="62" x="598.5" y="155.5264">e-Med FA</text><rect fill="#E97232" fill-opacity="0.74118" height="30.0986" rx="5" ry="5" style="stroke:#555555;stroke-width:0.5;" width="76" x="591.5" y="537.5229"/><text fill="#000000" font-family="Arial" font-size="14" lengthAdjust="spacing" textLength="62" x="598.5" y="557.6548">e-Med FA</text><rect fill="#156082" fill-opacity="0.50196" height="28.9487" style="stroke:#181818;stroke-width:1.0;" width="10" x="162.5" y="282.6865"/><rect fill="#E97232" fill-opacity="0.74118" height="28.9487" style="stroke:#181818;stroke-width:1.0;" width="10" x="624.5" y="282.6865"/><rect fill="#EEEEEE" height="3" rx="5" ry="5" style="stroke:#EEEEEE;stroke-width:1.0;" width="707.5" x="0" y="197.5425"/><line style="stroke:#000000;stroke-width:1.0;" x1="0" x2="707.5" y1="197.5425" y2="197.5425"/><line style="stroke:#000000;stroke-width:1.0;" x1="0" x2="707.5" y1="200.5425" y2="200.5425"/><rect fill="#EEEEEE" height="24.0986" rx="5" ry="5" style="stroke:#000000;stroke-width:2.0;" width="330" x="188.75" y="186.4932"/><text fill="#000000" font-family="Arial" font-size="14" font-weight="bold" lengthAdjust="spacing" textLength="312" x="194.75" y="203.625">Geplante Abgabe + Medikationsplan abrufen</text><path d="M15,227.5918 L78,227.5918 L78,235.6904 L68,245.6904 L10,245.6904 L10,232.5918 A5,5 0 0 1 15,227.5918 " fill="#EEF2FF" style="stroke:#111827;stroke-width:1.5;"/><rect fill="none" height="293.9312" rx="5" ry="5" style="stroke:#111827;stroke-width:2.0;" width="687.5" x="10" y="227.5918"/><text fill="#000000" font-family="Arial" font-size="14" font-weight="bold" lengthAdjust="spacing" textLength="23" x="25" y="241.7236">par</text><text fill="#000000" font-family="Arial" font-size="14" font-weight="bold" lengthAdjust="spacing" textLength="199" x="93" y="242.7236">[Geplante Abgaben abrufen]</text><polygon fill="#111827" points="612.5,278.6865,622.5,282.6865,612.5,286.6865,616.5,282.6865" style="stroke:#111827;stroke-width:1.0;"/><line style="stroke:#111827;stroke-width:1.0;" x1="172.5" x2="618.5" y1="282.6865" y2="282.6865"/><text fill="#000000" font-family="Arial" font-size="13" font-weight="bold" lengthAdjust="spacing" textLength="7" x="179.5" y="270.4573">1</text><text fill="#000000" font-family="Arial" font-size="13" lengthAdjust="spacing" textLength="427" x="190.5" y="262.9829">GET MedicationRequest mit Suchkriterium category = "Geplante Abgabe"</text><text fill="#000000" font-family="Arial" font-size="13" lengthAdjust="spacing" textLength="270" x="190.5" y="277.9316">mit status = active oder f&#252;r relevanten Zeitraum</text><polygon fill="#111827" points="178.5,307.6353,168.5,311.6353,178.5,315.6353,174.5,311.6353" style="stroke:#111827;stroke-width:1.0;"/><line style="stroke:#111827;stroke-width:1.0;stroke-dasharray:2.0,2.0;" x1="172.5" x2="628.5" y1="311.6353" y2="311.6353"/><text fill="#000000" font-family="Arial" font-size="13" font-weight="bold" lengthAdjust="spacing" textLength="7" x="184.5" y="306.8804">2</text><text fill="#000000" font-family="Arial" font-size="13" lengthAdjust="spacing" textLength="107" x="195.5" y="306.8804">Geplante Abgaben</text><path d="M42,329.6353 L42,377.6353 A5,5 0 0 0 47,382.6353 L288,382.6353 A5,5 0 0 0 293,377.6353 L293,334.6353 L283,324.6353 L47,324.6353 A5,5 0 0 0 42,329.6353 " fill="url(#g9mz4cc3yb1540)" style="stroke:#8B95A5;stroke-width:1.0;"/><path d="M283,324.6353 L283,332.1353 A2.5,2.5 0 0 0 285.5,334.6353 L293,334.6353 L283,324.6353 " fill="url(#g9mz4cc3yb1540)" style="stroke:#8B95A5;stroke-width:1.0;"/><text fill="#111827" font-family="Arial" font-size="14" lengthAdjust="spacing" textLength="179" x="48" y="342.7671">GDA erh&#228;lt alle offenen bzw.</text><text fill="#111827" font-family="Arial" font-size="14" lengthAdjust="spacing" textLength="230" x="48" y="358.8657">im relevanten Zeitraum vorliegenden</text><text fill="#111827" font-family="Arial" font-size="14" lengthAdjust="spacing" textLength="218" x="48" y="374.9644">Geplanten Abgaben des Patienten</text><line style="stroke:#111827;stroke-width:1.0;stroke-dasharray:2.0,2.0;" x1="10" x2="697.5" y1="388.9312" y2="388.9312"/><text fill="#000000" font-family="Arial" font-size="14" font-weight="bold" lengthAdjust="spacing" textLength="185" x="15" y="402.063">[Medikationsplan abrufen]</text><rect fill="none" height="42.1973" rx="5" ry="5" style="stroke:#000000;stroke-width:1.5;" width="561.5" x="129" y="406.0298"/><path d="M134,406.0298 L194,406.0298 L194,414.0298 L184,424.0298 L129,424.0298 L129,411.0298 A5,5 0 0 1 134,406.0298 " fill="#EEEEEE" style="stroke:#000000;stroke-width:2.0;"/><text fill="#000000" font-family="Arial" font-size="14" font-weight="bold" lengthAdjust="spacing" textLength="20" x="142" y="421.1616">ref</text><a href="interactions.html#sequenzdiagramm-plan-read" target="_top" title="interactions.html#sequenzdiagramm-plan-read" xlink:actuate="onRequest" xlink:href="interactions.html#sequenzdiagramm-plan-read" xlink:show="new" xlink:title="interactions.html#sequenzdiagramm-plan-read" xlink:type="simple"><text fill="#0000EE" font-family="Arial" font-size="14" lengthAdjust="spacing" textLength="67" x="376.25" y="441.1616">Plan-Read</text></a><path d="M20,463.2271 L20,511.2271 A5,5 0 0 0 25,516.2271 L310,516.2271 A5,5 0 0 0 315,511.2271 L315,468.2271 L305,458.2271 L25,458.2271 A5,5 0 0 0 20,463.2271 " fill="url(#g9mz4cc3yb1540)" style="stroke:#8B95A5;stroke-width:1.0;"/><path d="M305,458.2271 L305,465.7271 A2.5,2.5 0 0 0 307.5,468.2271 L315,468.2271 L305,458.2271 " fill="url(#g9mz4cc3yb1540)" style="stroke:#8B95A5;stroke-width:1.0;"/><text fill="#111827" font-family="Arial" font-size="14" lengthAdjust="spacing" textLength="204" x="26" y="476.3589">GDA erh&#228;lt Medikationsplan und</text><text fill="#111827" font-family="Arial" font-size="14" lengthAdjust="spacing" textLength="254" x="26" y="492.4575">kann die Geplanten Abgaben im Kontext</text><text fill="#111827" font-family="Arial" font-size="14" lengthAdjust="spacing" textLength="274" x="26" y="508.5562">der bestehenden Gesamtmedikation pr&#252;fen</text><!--SRC=[bLLHSzf647xNhzZ20myDAH81Z6Ve38vbjvCcC9ZsmN66ET0ARf3kbDF9Zkdat-HdvCr_h7id498WxLH-iDZzTlVRxrPxcki8uHQJY0cDC5wksH85H9YYU11_CSLp-oNSPsl5mn1YhZL6AM1xnLJWEArqoqN258k1hRHKT_gPCh8dJ6MCZdFqBgKAKBsLaLJGxDYdx6MhxLh9J0HxHDWpVoL4kc61VE9Y3I6BKYnvzc5Ae0Atd3J0a6MHlf52Vs0nGcDC_KIDyuWxlaDmtvnt_eZsRyy9geYBRGdW- -S0Vuh0lk09_IlvPSg2m7JcTQhsgx9cFVkK9HMIpkPl1-2ghXvsi1Tssit03ORODuXofelbiCTwXNM-uQkjm3G5bsopafeT-dtWPhAKf71Tzy8RaEskTYvVomnJ_9oXMEKifqnflk89ZTIvnYg0Kz5Ft8S3gpXAIWACbP9FTRxMM6tPcivLB1nvhIwPRadcf4A_o9oxJeu2GoyCgv77yfxHwoUQD3CPRoT_J6QBs-lnmWLwccwltxdmBZfd09u53Flzpk3w130Tpt_tFynDXc7_odjp0XXF9s2VPkTcw5_tXdM0_zw_NjoC2O33WTVrba4Ti9Zvz_vq3irLq1rqFJQijp5v1vKQNg-UOZQRp2p07mxShjUbsROh1785M0eDUdiGOxNJlz2_HEeDRb4roa8voV7m0TzZO6YRK6pJ3xWPDwejEIseH2nckCD4xqFo7urQayGhqr9ayHALuun6zOK9FmFLubkckHIfSG5RgYoaJJeQEIqAE6H-zVz2dHPnBO8F7fgbrbwZzgz51vS53isItY_eIWofonyP-VFWieeLTo5AJGO3AdnjgcrZIuKj8i2JH2GwcjrW3klqjZbIF3QL7-GbtFfpAz3A2ZGpwoJLjh-xRBNPAgvHyIm6ykDQgcSOqT1K2pGUXC6dckai9RzbXo3fEuJmvRi2XH4-cW01zyYrObbCNFvLh6E7-uchVZQ4E3XACjKR9rHPgpo0Z7QjoqVSVmYvBe1gy_8jeY68w7wL8Gb6V9UxfzUc6e_FTG6FaguSN2FTFLRUFG5HI1zWIjjJSxHMGri4jhxZc0FxqMmwX5GObaY-AXg-X8yVEQLJfZEAUxtHSTJCBu9TmDcQxeMuRRAr5R80fkPjHc-VFlrdxtKwj6KDwIqJr0h7CmsICEzeV-CN3LPk1KiQ8DnOIGYVibZ7HLP8rCltV1GB8Ig7b9CYd_CF]--></g></svg>