<?xml version="1.0" encoding="us-ascii" standalone="no"?><svg xmlns="http://www.w3.org/2000/svg" xmlns:xlink="http://www.w3.org/1999/xlink" contentStyleType="text/css" height="464px" preserveAspectRatio="none" style="width:526px;height:464px;background:#F5F5F5;" version="1.1" viewBox="0 0 526 464" width="526px" zoomAndPan="magnify"><defs><linearGradient id="g1hv815idsgdqa0" x1="50%" x2="50%" y1="0%" y2="100%"><stop offset="0%" stop-color="#E0E5F0"/><stop offset="100%" stop-color="#D1D9E6"/></linearGradient></defs><g><rect fill="#F5F5F5" height="464" style="stroke:none;stroke-width:1.0;" width="526" x="0" y="0"/><text fill="#000000" font-family="Arial" font-size="14" font-weight="bold" lengthAdjust="spacing" textLength="212" x="153.25" y="28.1318">Durchgef&#252;hrte Abgaben lesen</text><text fill="#000000" font-family="Arial" font-size="14" font-weight="bold" lengthAdjust="spacing" textLength="225" x="146.75" y="44.2305">Variante A: Zugriff mittels e-card</text><rect fill="#156082" fill-opacity="0.50196" height="28.9487" style="stroke:#181818;stroke-width:1.0;" width="10" x="125.5" y="240.3906"/><rect fill="#E97232" fill-opacity="0.74118" height="28.9487" style="stroke:#181818;stroke-width:1.0;" width="10" x="451.5" y="240.3906"/><line style="stroke:#181818;stroke-width:0.5;stroke-dasharray:5.0,5.0;" x1="130" x2="130" y1="166.4932" y2="352.1855"/><line style="stroke:#181818;stroke-width:0.5;stroke-dasharray:5.0,5.0;" x1="456.5" x2="456.5" y1="166.4932" y2="352.1855"/><text fill="#000000" font-family="Arial" font-size="14" lengthAdjust="spacing" textLength="34" x="110.5" y="131.3291">GDA:</text><text fill="#000000" font-family="Arial" font-size="14" lengthAdjust="spacing" textLength="28" x="113.5" y="147.4277">Arzt/</text><text fill="#000000" font-family="Arial" font-size="14" lengthAdjust="spacing" textLength="65" x="95" y="163.5264">Apotheker</text><ellipse cx="130.5" cy="66.6973" fill="#156082" fill-opacity="0.50196" rx="8" ry="8" style="stroke:#181818;stroke-width:0.5;"/><path d="M130.5,74.6973 L130.5,101.6973 M117.5,82.6973 L143.5,82.6973 M130.5,101.6973 L117.5,116.6973 M130.5,101.6973 L143.5,116.6973 " fill="none" style="stroke:#181818;stroke-width:0.5;"/><text fill="#000000" font-family="Arial" font-size="14" lengthAdjust="spacing" textLength="34" x="110.5" y="364.3174">GDA:</text><text fill="#000000" font-family="Arial" font-size="14" lengthAdjust="spacing" textLength="28" x="113.5" y="380.416">Arzt/</text><text fill="#000000" font-family="Arial" font-size="14" lengthAdjust="spacing" textLength="65" x="95" y="396.5146">Apotheker</text><ellipse cx="130.5" cy="407.9814" fill="#156082" fill-opacity="0.50196" rx="8" ry="8" style="stroke:#181818;stroke-width:0.5;"/><path d="M130.5,415.9814 L130.5,442.9814 M117.5,423.9814 L143.5,423.9814 M130.5,442.9814 L117.5,457.9814 M130.5,442.9814 L143.5,457.9814 " fill="none" style="stroke:#181818;stroke-width:0.5;"/><rect fill="#E97232" fill-opacity="0.74118" height="30.0986" rx="5" ry="5" style="stroke:#555555;stroke-width:0.5;" width="76" x="418.5" y="135.3945"/><text fill="#000000" font-family="Arial" font-size="14" lengthAdjust="spacing" textLength="62" x="425.5" y="155.5264">e-Med FA</text><rect fill="#E97232" fill-opacity="0.74118" height="30.0986" rx="5" ry="5" style="stroke:#555555;stroke-width:0.5;" width="76" x="418.5" y="351.1855"/><text fill="#000000" font-family="Arial" font-size="14" lengthAdjust="spacing" textLength="62" x="425.5" y="371.3174">e-Med FA</text><rect fill="#156082" fill-opacity="0.50196" height="28.9487" style="stroke:#181818;stroke-width:1.0;" width="10" x="125.5" y="240.3906"/><rect fill="#E97232" fill-opacity="0.74118" height="28.9487" style="stroke:#181818;stroke-width:1.0;" width="10" x="451.5" y="240.3906"/><rect fill="#EEEEEE" height="3" rx="5" ry="5" style="stroke:#EEEEEE;stroke-width:1.0;" width="519.5" x="0" y="196.9675"/><line style="stroke:#000000;stroke-width:1.0;" x1="0" x2="519.5" y1="196.9675" y2="196.9675"/><line style="stroke:#000000;stroke-width:1.0;" x1="0" x2="519.5" y1="199.9675" y2="199.9675"/><rect fill="#EEEEEE" height="22.9487" rx="5" ry="5" style="stroke:#000000;stroke-width:2.0;" width="214" x="152.75" y="186.4932"/><text fill="#000000" font-family="Arial" font-size="13" font-weight="bold" lengthAdjust="spacing" textLength="196" x="158.75" y="202.687">Durchgef&#252;hrte Abgabe abrufen</text><polygon fill="#111827" points="439.5,236.3906,449.5,240.3906,439.5,244.3906,443.5,240.3906" style="stroke:#111827;stroke-width:1.0;"/><line style="stroke:#111827;stroke-width:1.0;" x1="135.5" x2="445.5" y1="240.3906" y2="240.3906"/><text fill="#000000" font-family="Arial" font-size="13" font-weight="bold" lengthAdjust="spacing" textLength="7" x="142.5" y="235.6357">1</text><text fill="#000000" font-family="Arial" font-size="13" lengthAdjust="spacing" textLength="291" x="153.5" y="235.6357">GET MedicationDispense f&#252;r bestimmten Zeitraum</text><polygon fill="#111827" points="141.5,265.3394,131.5,269.3394,141.5,273.3394,137.5,269.3394" style="stroke:#111827;stroke-width:1.0;"/><line style="stroke:#111827;stroke-width:1.0;stroke-dasharray:2.0,2.0;" x1="135.5" x2="455.5" y1="269.3394" y2="269.3394"/><text fill="#000000" font-family="Arial" font-size="13" font-weight="bold" lengthAdjust="spacing" textLength="7" x="147.5" y="264.5845">2</text><text fill="#000000" font-family="Arial" font-size="13" lengthAdjust="spacing" textLength="135" x="158.5" y="264.5845">Durchgef&#252;hrte Abgaben</text><path d="M5,287.3394 L5,331.3394 A5,5 0 0 0 10,336.3394 L251,336.3394 A5,5 0 0 0 256,331.3394 L256,292.3394 L246,282.3394 L10,282.3394 A5,5 0 0 0 5,287.3394 " fill="url(#g1hv815idsgdqa0)" style="stroke:#8B95A5;stroke-width:1.0;"/><path d="M246,282.3394 L246,289.8394 A2.5,2.5 0 0 0 248.5,292.3394 L256,292.3394 L246,282.3394 " fill="url(#g1hv815idsgdqa0)" style="stroke:#8B95A5;stroke-width:1.0;"/><text fill="#111827" font-family="Arial" font-size="13" lengthAdjust="spacing" textLength="150" x="11" y="299.5332">GDA erh&#228;lt alle relevanten</text><text fill="#111827" font-family="Arial" font-size="13" lengthAdjust="spacing" textLength="226" x="11" y="314.4819">Durchgef&#252;hrten Abgaben des Patienten</text><text fill="#111827" font-family="Arial" font-size="13" lengthAdjust="spacing" textLength="140" x="11" y="329.4307">im bestimmten Zeitraum</text><!--SRC=[TLNDRjf04BxxAQPmw0dLDk77I5GomQHLcu08xI6AXDRUCQomr-vwdJIf-ZPzZDpoObtRGDQ6B0VMCz_yVD-knvB9266QYs2xmV3rPIiaWkjlY8yS8ioGt_EVH3322_i8xlADO648CPCIemom4n113UDZjcCy9OB4G0APY5lvfFAIHyoI60tZpUidWgAuJA94GDiib-ubmMuZafpJFIBi5JyDaMq9JHuPtq18eWmrppvCS1HWwKafXYIFv2pXyeR422rNyObQUiyQv9Oz8rWNv-FVw_lBKueYOdod0Jpl7E07f-K6J_gV9ByNXDA2cctMxHDTj5wvT4rveWxdZm4mQSg79lP2izEc5dMmNo3qJ4FVwP7UqRhQic37CSl0KhQb9gUfdW-z5LaqAIpB6je3PRjj7CnVlSCCV-N8WwhB1H6I1InLT-eSiHhWLFGJz-70QWvDIG1NYEInsMzfh5CkJUSg7XrLhQuoNIcPqrhxnyoLw-GeCBJ3i1xvLjukzFgWRbfnCoxdt-VBzTNKNLkWLjlgzSsXFJJF0EmIuFJxvc1w0bYugw_UpQh8uFGdziK9m5tCeLnjS-PuqvxJ17ZNtdGzSnK0dO7TjNtQ1AoNtfstM44xeDr1roPEayRy6zHgsBrcYkLolYm1dZEmkdPNtUroXa2b0CcWfNQZU-wAP_b9_QM9tE8EHKjNoaZVJX_m6cdHTn6B7VK0CxTLvsHyX5h4UedFcCfzIFNGQh1KZUKouNdiep2CyVZyu0JYYpnKytCyDeoAG-VpeQKHN7ahK7iM4CaIFcLPYZnJu-3rHO2FcMHnB5Nm7J8fI1v38GPx82fzbKldV7GT2DSf7gmTLRyC6BqpwWsApLIwgIfMZfda0VS7Kr035DlNVv5IBLBZNc243yMNWeDHhyEFtnIAcNfF9SCAnkBpd97JSgmPndy0]--></g></svg>