<?xml version="1.0" encoding="us-ascii" standalone="no"?><svg xmlns="http://www.w3.org/2000/svg" xmlns:xlink="http://www.w3.org/1999/xlink" contentStyleType="text/css" height="469px" preserveAspectRatio="none" style="width:539px;height:469px;background:#F5F5F5;" version="1.1" viewBox="0 0 539 469" width="539px" zoomAndPan="magnify"><defs><linearGradient id="g1u8a3b7p1tc1y0" x1="50%" x2="50%" y1="0%" y2="100%"><stop offset="0%" stop-color="#E0E5F0"/><stop offset="100%" stop-color="#D1D9E6"/></linearGradient></defs><g><rect fill="#F5F5F5" height="469" style="stroke:none;stroke-width:1.0;" width="539" x="0" y="0"/><text fill="#000000" font-family="Arial" font-size="14" font-weight="bold" lengthAdjust="spacing" textLength="212" x="159.75" y="28.1318">Durchgef&#252;hrte Abgaben lesen</text><text fill="#000000" font-family="Arial" font-size="14" font-weight="bold" lengthAdjust="spacing" textLength="225" x="153.25" y="44.2305">Variante A: Zugriff mittels e-card</text><rect fill="#156082" fill-opacity="0.50196" height="28.9487" style="stroke:#181818;stroke-width:1.0;" width="10" x="148.5" y="241.5405"/><rect fill="#E97232" fill-opacity="0.74118" height="28.9487" style="stroke:#181818;stroke-width:1.0;" width="10" x="464.5" y="241.5405"/><line style="stroke:#181818;stroke-width:0.5;stroke-dasharray:5.0,5.0;" x1="153" x2="153" y1="166.4932" y2="356.7852"/><line style="stroke:#181818;stroke-width:0.5;stroke-dasharray:5.0,5.0;" x1="469.5" x2="469.5" y1="166.4932" y2="356.7852"/><text fill="#000000" font-family="Arial" font-size="14" lengthAdjust="spacing" textLength="34" x="133.5" y="131.3291">GDA:</text><text fill="#000000" font-family="Arial" font-size="14" lengthAdjust="spacing" textLength="28" x="136.5" y="147.4277">Arzt/</text><text fill="#000000" font-family="Arial" font-size="14" lengthAdjust="spacing" textLength="65" x="118" y="163.5264">Apotheker</text><ellipse cx="153.5" cy="66.6973" fill="#156082" fill-opacity="0.50196" rx="8" ry="8" style="stroke:#181818;stroke-width:0.5;"/><path d="M153.5,74.6973 L153.5,101.6973 M140.5,82.6973 L166.5,82.6973 M153.5,101.6973 L140.5,116.6973 M153.5,101.6973 L166.5,116.6973 " fill="none" style="stroke:#181818;stroke-width:0.5;"/><text fill="#000000" font-family="Arial" font-size="14" lengthAdjust="spacing" textLength="34" x="133.5" y="368.917">GDA:</text><text fill="#000000" font-family="Arial" font-size="14" lengthAdjust="spacing" textLength="28" x="136.5" y="385.0156">Arzt/</text><text fill="#000000" font-family="Arial" font-size="14" lengthAdjust="spacing" textLength="65" x="118" y="401.1143">Apotheker</text><ellipse cx="153.5" cy="412.5811" fill="#156082" fill-opacity="0.50196" rx="8" ry="8" style="stroke:#181818;stroke-width:0.5;"/><path d="M153.5,420.5811 L153.5,447.5811 M140.5,428.5811 L166.5,428.5811 M153.5,447.5811 L140.5,462.5811 M153.5,447.5811 L166.5,462.5811 " fill="none" style="stroke:#181818;stroke-width:0.5;"/><rect fill="#E97232" fill-opacity="0.74118" height="30.0986" rx="5" ry="5" style="stroke:#555555;stroke-width:0.5;" width="76" x="431.5" y="135.3945"/><text fill="#000000" font-family="Arial" font-size="14" lengthAdjust="spacing" textLength="62" x="438.5" y="155.5264">e-Med FA</text><rect fill="#E97232" fill-opacity="0.74118" height="30.0986" rx="5" ry="5" style="stroke:#555555;stroke-width:0.5;" width="76" x="431.5" y="355.7852"/><text fill="#000000" font-family="Arial" font-size="14" lengthAdjust="spacing" textLength="62" x="438.5" y="375.917">e-Med FA</text><rect fill="#156082" fill-opacity="0.50196" height="28.9487" style="stroke:#181818;stroke-width:1.0;" width="10" x="148.5" y="241.5405"/><rect fill="#E97232" fill-opacity="0.74118" height="28.9487" style="stroke:#181818;stroke-width:1.0;" width="10" x="464.5" y="241.5405"/><rect fill="#EEEEEE" height="3" rx="5" ry="5" style="stroke:#EEEEEE;stroke-width:1.0;" width="532.5" x="0" y="197.5425"/><line style="stroke:#000000;stroke-width:1.0;" x1="0" x2="532.5" y1="197.5425" y2="197.5425"/><line style="stroke:#000000;stroke-width:1.0;" x1="0" x2="532.5" y1="200.5425" y2="200.5425"/><rect fill="#EEEEEE" height="24.0986" rx="5" ry="5" style="stroke:#000000;stroke-width:2.0;" width="237" x="147.75" y="186.4932"/><text fill="#000000" font-family="Arial" font-size="14" font-weight="bold" lengthAdjust="spacing" textLength="219" x="153.75" y="203.625">Durchgef&#252;hrte Abgabe abrufen</text><polygon fill="#111827" points="452.5,237.5405,462.5,241.5405,452.5,245.5405,456.5,241.5405" style="stroke:#111827;stroke-width:1.0;"/><line style="stroke:#111827;stroke-width:1.0;" x1="158.5" x2="458.5" y1="241.5405" y2="241.5405"/><text fill="#000000" font-family="Arial" font-size="13" font-weight="bold" lengthAdjust="spacing" textLength="7" x="165.5" y="236.7856">1</text><text fill="#000000" font-family="Arial" font-size="13" lengthAdjust="spacing" textLength="281" x="176.5" y="236.7856">GET MedicationDispense f&#252;r relevanten Zeitraum</text><polygon fill="#111827" points="164.5,266.4893,154.5,270.4893,164.5,274.4893,160.5,270.4893" style="stroke:#111827;stroke-width:1.0;"/><line style="stroke:#111827;stroke-width:1.0;stroke-dasharray:2.0,2.0;" x1="158.5" x2="468.5" y1="270.4893" y2="270.4893"/><text fill="#000000" font-family="Arial" font-size="13" font-weight="bold" lengthAdjust="spacing" textLength="7" x="170.5" y="265.7344">2</text><text fill="#000000" font-family="Arial" font-size="13" lengthAdjust="spacing" textLength="135" x="181.5" y="265.7344">Durchgef&#252;hrte Abgaben</text><path d="M5,288.4893 L5,336.4893 A5,5 0 0 0 10,341.4893 L298,341.4893 A5,5 0 0 0 303,336.4893 L303,293.4893 L293,283.4893 L10,283.4893 A5,5 0 0 0 5,288.4893 " fill="url(#g1u8a3b7p1tc1y0)" style="stroke:#8B95A5;stroke-width:1.0;"/><path d="M293,283.4893 L293,290.9893 A2.5,2.5 0 0 0 295.5,293.4893 L303,293.4893 L293,283.4893 " fill="url(#g1u8a3b7p1tc1y0)" style="stroke:#8B95A5;stroke-width:1.0;"/><text fill="#111827" font-family="Arial" font-size="14" lengthAdjust="spacing" textLength="185" x="11" y="301.6211">GDA erh&#228;lt alle im relevanten</text><text fill="#111827" font-family="Arial" font-size="14" lengthAdjust="spacing" textLength="273" x="11" y="317.7197">Zeitraum abgeschlossenen Durchgef&#252;hrten</text><text fill="#111827" font-family="Arial" font-size="14" lengthAdjust="spacing" textLength="148" x="11" y="333.8184">Abgaben des Patienten</text><!--SRC=[TLNDRjf04BxxAQPmw0dLDZ5W92gPODAgJK24zX15Gcjx32lChhjU9qsglaqV8xUyMDSsaBKXou7rp3S_txVhiQGoGPZa8joiCNvzsGY9u0Lh4Y2313Daz-md4PImmZw4ktmjQ1p3Zag9IGRO2Oc83EDZjgKi9OBiW8IIYrlvfFAIHypu3WtZpHjm4Q6uv0aNq3RBfNj9k5qBdhDeZuYTugSXiWs9-2DbQuX9ag7csOS9XW8iFMc4CSaJEULCtf0TGijJV9BMUSGjVKQmBiuxtslxorEA8g5igm5y_npW1ulA3PwqF-Q_voIA2cQsMRUFTSsSSkcICgxEvey1C6wgXoOwiTbfHrRaOgz0w9a6WUiGvsXTRcYuPPXbO2dRGbFJLC-7teeicXIMPGtilhBTDixbhzvXXhzoP67LvPm8IKEQgYjrZbWDS2hwYVjmO3M7fYI09mH_RFPR6kkKIzEvYaT7LQkhJ5TAvhJM_Z5pvJev2epjEAv7lfMt2xq-g9jMt8pBsVVPOdKryLOMgDMsd9uvi0Vc6O1T0jnUp-nFJW1pR_dLlraM6TpUsBuu0NZp6PIhRKvTV-AuJO1_xKzMKqy1qEtRNJk8ce3Lmh_pvqjeXr6ttxM9swGn-mQr6hRJJB5Op1Obm7VxLjVkghjTZX2e520PjDHkUCyyyIm_gR-KomrkKRHqfOpqxVG1hp4g-YvYiQCUOEgrwfoCZr2BM2tm6LEv3waUMWsMgh5SSfRl0XI6CHgTdvj00f77QdoEHePHSUXyFhGqX2j_2MfFGo8fPnEQfSWoDGvUNmG8JF2X6BKCxf1AGV8T56BG1wBILxbqpaVNWN2Tui7QKVNBWE4xazw8i9bADrN5oZ737t1_C0KrGB5v_PSerH8rxUbE9s0S6P1WZLcuINYcFYVAK-z18G_VcmWpzH9BYbK2P54vsmpZFm00]--></g></svg>