<svg xmlns="http://www.w3.org/2000/svg" xmlns:xlink="http://www.w3.org/1999/xlink" contentStyleType="text/css" data-diagram-type="SEQUENCE" height="629px" preserveAspectRatio="none" style="width:647px;height:629px;background:#F5F5F5;" version="1.1" viewBox="0 0 647 629" width="647px" zoomAndPan="magnify"><?plantuml 1.2026.7beta1?><defs><linearGradient id="g1iza5kcibknah0" x1="50%" x2="50%" y1="0%" y2="100%"><stop offset="0%" stop-color="#E0E5F0"/><stop offset="100%" stop-color="#D1D9E6"/></linearGradient></defs><g><rect fill="#F5F5F5" height="629" style="stroke:none;stroke-width:1;" width="647" x="0" y="0"/><g class="title" data-source-line="1"><text fill="#000000" font-family="'Arial'" font-size="14" font-weight="700" lengthAdjust="spacing" textLength="340.2246" x="150.3093" y="27.9951">Planeintrag in Medikationsplan hinzuf&#252;gen</text></g><g><title>GDA 1</title><rect fill="#156082" fill-opacity="0.50196" height="409.3672" style="stroke:#181818;stroke-width:1;" width="10" x="160.2817" y="128.5938"/></g><g class="participant-lifeline" data-entity-uid="part1" data-qualified-name="GDA_1" data-source-line="52" id="part1-lifeline"><g><title>GDA 1</title><rect fill="#000000" fill-opacity="0.00000" height="428.3672" width="8" x="161.2817" y="118.5938"/><line style="stroke:#181818;stroke-width:0.5;stroke-dasharray:5,5;" x1="165" x2="165" y1="118.5938" y2="546.9609"/></g></g><g class="participant-lifeline" data-entity-uid="part2" data-qualified-name="eMed_FA" data-source-line="53" id="part2-lifeline"><g><title>e-Med FA</title><rect fill="#000000" fill-opacity="0.00000" height="428.3672" width="8" x="467.2417" y="118.5938"/><line style="stroke:#181818;stroke-width:0.5;stroke-dasharray:5,5;" x1="470.5796" x2="470.5796" y1="118.5938" y2="546.9609"/></g></g><g class="participant-lifeline" data-entity-uid="part3" data-qualified-name="GDA_2" data-source-line="54" id="part3-lifeline"><g><title>GDA 2</title><rect fill="#000000" fill-opacity="0.00000" height="428.3672" width="8" x="542.1855" y="118.5938"/><line style="stroke:#181818;stroke-width:0.5;stroke-dasharray:5,5;" x1="545.9038" x2="545.9038" y1="118.5938" y2="546.9609"/></g></g><g class="participant-lifeline" data-entity-uid="part4" data-qualified-name="Patient" data-source-line="55" id="part4-lifeline"><g><title>Patient</title><rect fill="#000000" fill-opacity="0.00000" height="428.3672" width="8" x="605.1553" y="118.5938"/><line style="stroke:#181818;stroke-width:0.5;stroke-dasharray:5,5;" x1="608.4673" x2="608.4673" y1="118.5938" y2="546.9609"/></g></g><g class="participant participant-head" data-entity-uid="part1" data-qualified-name="GDA_1" data-source-line="52" id="part1-head"><text fill="#000000" font-family="'Arial'" font-size="14" lengthAdjust="spacing" textLength="44.5635" x="140" y="115.292">GDA 1</text><ellipse cx="165.2817" cy="50.7969" fill="#156082" fill-opacity="0.50196" rx="8" ry="8" style="stroke:#181818;stroke-width:0.5;"/><path d="M165.2817,58.7969 L165.2817,85.7969 M152.2817,66.7969 L178.2817,66.7969 M165.2817,85.7969 L152.2817,100.7969 M165.2817,85.7969 L178.2817,100.7969" fill="none" style="stroke:#181818;stroke-width:0.5;"/></g><g class="participant participant-tail" data-entity-uid="part1" data-qualified-name="GDA_1" data-source-line="52" id="part1-tail"><text fill="#000000" font-family="'Arial'" font-size="14" lengthAdjust="spacing" textLength="44.5635" x="140" y="558.9561">GDA 1</text><ellipse cx="165.2817" cy="570.7578" fill="#156082" fill-opacity="0.50196" rx="8" ry="8" style="stroke:#181818;stroke-width:0.5;"/><path d="M165.2817,578.7578 L165.2817,605.7578 M152.2817,586.7578 L178.2817,586.7578 M165.2817,605.7578 L152.2817,620.7578 M165.2817,605.7578 L178.2817,620.7578" fill="none" style="stroke:#181818;stroke-width:0.5;"/></g><g class="participant participant-head" data-entity-uid="part2" data-qualified-name="eMed_FA" data-source-line="53" id="part2-head"><rect fill="#E97132" fill-opacity="0.50196" height="30.2969" rx="5" ry="5" style="stroke:#555555;stroke-width:0.5;" width="79.3242" x="431.5796" y="87.2969"/><text fill="#000000" font-family="'Arial'" font-size="14" lengthAdjust="spacing" textLength="65.3242" x="438.5796" y="107.292">e-Med FA</text></g><g class="participant participant-tail" data-entity-uid="part2" data-qualified-name="eMed_FA" data-source-line="53" id="part2-tail"><rect fill="#E97132" fill-opacity="0.50196" height="30.2969" rx="5" ry="5" style="stroke:#555555;stroke-width:0.5;" width="79.3242" x="431.5796" y="545.9609"/><text fill="#000000" font-family="'Arial'" font-size="14" lengthAdjust="spacing" textLength="65.3242" x="438.5796" y="565.9561">e-Med FA</text></g><g class="participant participant-head" data-entity-uid="part3" data-qualified-name="GDA_2" data-source-line="54" id="part3-head"><text fill="#000000" font-family="'Arial'" font-size="14" lengthAdjust="spacing" textLength="44.5635" x="520.9038" y="115.292">GDA 2</text><ellipse cx="546.1855" cy="50.7969" fill="#96607D" fill-opacity="0.50196" rx="8" ry="8" style="stroke:#181818;stroke-width:0.5;"/><path d="M546.1855,58.7969 L546.1855,85.7969 M533.1855,66.7969 L559.1855,66.7969 M546.1855,85.7969 L533.1855,100.7969 M546.1855,85.7969 L559.1855,100.7969" fill="none" style="stroke:#181818;stroke-width:0.5;"/></g><g class="participant participant-tail" data-entity-uid="part3" data-qualified-name="GDA_2" data-source-line="54" id="part3-tail"><text fill="#000000" font-family="'Arial'" font-size="14" lengthAdjust="spacing" textLength="44.5635" x="520.9038" y="558.9561">GDA 2</text><ellipse cx="546.1855" cy="570.7578" fill="#96607D" fill-opacity="0.50196" rx="8" ry="8" style="stroke:#181818;stroke-width:0.5;"/><path d="M546.1855,578.7578 L546.1855,605.7578 M533.1855,586.7578 L559.1855,586.7578 M546.1855,605.7578 L533.1855,620.7578 M546.1855,605.7578 L559.1855,620.7578" fill="none" style="stroke:#181818;stroke-width:0.5;"/></g><g class="participant participant-head" data-entity-uid="part4" data-qualified-name="Patient" data-source-line="55" id="part4-head"><text fill="#000000" font-family="'Arial'" font-size="14" lengthAdjust="spacing" textLength="49.376" x="581.4673" y="115.292">Patient</text><ellipse cx="609.1553" cy="50.7969" fill="#196B24" fill-opacity="0.50196" rx="8" ry="8" style="stroke:#181818;stroke-width:0.5;"/><path d="M609.1553,58.7969 L609.1553,85.7969 M596.1553,66.7969 L622.1553,66.7969 M609.1553,85.7969 L596.1553,100.7969 M609.1553,85.7969 L622.1553,100.7969" fill="none" style="stroke:#181818;stroke-width:0.5;"/></g><g class="participant participant-tail" data-entity-uid="part4" data-qualified-name="Patient" data-source-line="55" id="part4-tail"><text fill="#000000" font-family="'Arial'" font-size="14" lengthAdjust="spacing" textLength="49.376" x="581.4673" y="558.9561">Patient</text><ellipse cx="609.1553" cy="570.7578" fill="#196B24" fill-opacity="0.50196" rx="8" ry="8" style="stroke:#181818;stroke-width:0.5;"/><path d="M609.1553,578.7578 L609.1553,605.7578 M596.1553,586.7578 L622.1553,586.7578 M609.1553,605.7578 L596.1553,620.7578 M609.1553,605.7578 L622.1553,620.7578" fill="none" style="stroke:#181818;stroke-width:0.5;"/></g><g><title>GDA 1</title><rect fill="#156082" fill-opacity="0.50196" height="409.3672" style="stroke:#181818;stroke-width:1;" width="10" x="160.2817" y="128.5938"/></g><rect fill="#EEEEEE" height="3" rx="5" ry="5" style="stroke:#EEEEEE;stroke-width:1;" width="641.8433" x="0" y="149.7422"/><line style="stroke:#000000;stroke-width:1;" x1="0" x2="641.8433" y1="149.7422" y2="149.7422"/><line style="stroke:#000000;stroke-width:1;" x1="0" x2="641.8433" y1="152.7422" y2="152.7422"/><rect fill="#EEEEEE" height="24.2969" rx="5" ry="5" style="stroke:#000000;stroke-width:2;" width="216.2891" x="212.7771" y="138.5938"/><text fill="#000000" font-family="'Arial'" font-size="14" font-weight="700" lengthAdjust="spacing" textLength="197.415" x="218.7771" y="155.5889">Medikationsplan abrufen</text><rect fill="none" height="42.5938" rx="5" ry="5" style="stroke:#000000;stroke-width:1.5;" width="376.9038" x="137" y="172.8906"/><path d="M142,172.8906 L204,172.8906 L204,180.8906 L194,190.8906 L137,190.8906 L137,177.8906 A5,5 0 0 1 142,172.8906" fill="#EEEEEE" style="stroke:#000000;stroke-width:2;"/><text fill="#000000" font-family="'Arial'" font-size="14" font-weight="700" lengthAdjust="spacing" textLength="22.4902" x="150" y="187.8857">ref</text><a href="interactions.html#sequenzdiagramm-plan-read" target="_top" title="interactions.html#sequenzdiagramm-plan-read" xlink:actuate="onRequest" xlink:href="interactions.html#sequenzdiagramm-plan-read" xlink:show="new" xlink:title="interactions.html#sequenzdiagramm-plan-read" xlink:type="simple"><text fill="#0000EE" font-family="'Arial'" font-size="14" lengthAdjust="spacing" textLength="70.6426" x="290.1306" y="207.8857">Plan-Read</text></a><path d="M5,230.4844 L5,262.4844 A5,5 0 0 0 10,267.4844 L321,267.4844 A5,5 0 0 0 326,262.4844 L326,235.4844 L316,225.4844 L10,225.4844 A5,5 0 0 0 5,230.4844" fill="url(#g1iza5kcibknah0)" style="stroke:#8B95A5;stroke-width:1;"/><path d="M316,225.4844 L316,232.9844 A2.5,2.5 0 0 0 318.5,235.4844 L326,235.4844 L316,225.4844" fill="url(#g1iza5kcibknah0)" style="stroke:#8B95A5;stroke-width:1;"/><text fill="#111827" font-family="'Arial'" font-size="14" lengthAdjust="spacing" textLength="296.0029" x="11" y="243.4795">GDA erh&#228;lt den aktuellen Medikationsplan</text><text fill="#111827" font-family="'Arial'" font-size="14" lengthAdjust="spacing" textLength="171.1309" x="11" y="259.7764">im Auslieferungs-Bundle</text><rect fill="#EEEEEE" height="3" rx="5" ry="5" style="stroke:#EEEEEE;stroke-width:1;" width="641.8433" x="0" y="294.2266"/><line style="stroke:#000000;stroke-width:1;" x1="0" x2="641.8433" y1="294.2266" y2="294.2266"/><line style="stroke:#000000;stroke-width:1;" x1="0" x2="641.8433" y1="297.2266" y2="297.2266"/><rect fill="#EEEEEE" height="24.2969" rx="5" ry="5" style="stroke:#000000;stroke-width:2;" width="363.8975" x="138.9729" y="283.0781"/><text fill="#000000" font-family="'Arial'" font-size="14" font-weight="700" lengthAdjust="spacing" textLength="345.0234" x="144.9729" y="300.0732">Medikationsplan vorbereiten und schreiben</text><g class="message" data-entity-1="part1" data-entity-2="part1" data-source-line="73" id="msg1"><line style="stroke:#111827;stroke-width:1;" x1="170.2817" x2="212.2817" y1="338.5078" y2="338.5078"/><line style="stroke:#111827;stroke-width:1;" x1="212.2817" x2="212.2817" y1="338.5078" y2="351.5078"/><line style="stroke:#111827;stroke-width:1;" x1="171.2817" x2="212.2817" y1="351.5078" y2="351.5078"/><polygon fill="#111827" points="181.2817,347.5078,171.2817,351.5078,181.2817,355.5078,177.2817,351.5078" style="stroke:#111827;stroke-width:1;stroke-linejoin:miter;stroke-miterlimit:10;"/><text fill="#000000" font-family="'Arial'" font-size="13" font-weight="700" lengthAdjust="spacing" textLength="9.0454" x="177.2817" y="333.4419">1</text><text fill="#000000" font-family="'Arial'" font-size="13" lengthAdjust="spacing" textLength="181.3018" x="190.3271" y="333.4419">Neuen Planeintrag erstellen</text></g><g class="message" data-entity-1="part1" data-entity-2="part1" data-source-line="74" id="msg2"><line style="stroke:#111827;stroke-width:1;" x1="170.2817" x2="212.2817" y1="395.7734" y2="395.7734"/><line style="stroke:#111827;stroke-width:1;" x1="212.2817" x2="212.2817" y1="395.7734" y2="408.7734"/><line style="stroke:#111827;stroke-width:1;" x1="171.2817" x2="212.2817" y1="408.7734" y2="408.7734"/><polygon fill="#111827" points="181.2817,404.7734,171.2817,408.7734,181.2817,412.7734,177.2817,408.7734" style="stroke:#111827;stroke-width:1;stroke-linejoin:miter;stroke-miterlimit:10;"/><text fill="#000000" font-family="'Arial'" font-size="13" font-weight="700" lengthAdjust="spacing" textLength="9.0454" x="177.2817" y="383.1411">2</text><text fill="#000000" font-family="'Arial'" font-size="13" lengthAdjust="spacing" textLength="193.5718" x="190.3271" y="375.5747">Planeintrag mit List.entry.flag</text><text fill="#000000" font-family="'Arial'" font-size="13" lengthAdjust="spacing" textLength="258.9146" x="190.3271" y="390.7075">"new" dem Medikationsplan hinzuf&#252;gen</text></g><path d="M31,426.7734 L31,442.7734 A5,5 0 0 0 36,447.7734 L294,447.7734 A5,5 0 0 0 299,442.7734 L299,431.7734 L289,421.7734 L36,421.7734 A5,5 0 0 0 31,426.7734" fill="url(#g1iza5kcibknah0)" style="stroke:#8B95A5;stroke-width:1;"/><path d="M289,421.7734 L289,429.2734 A2.5,2.5 0 0 0 291.5,431.7734 L299,431.7734 L289,421.7734" fill="url(#g1iza5kcibknah0)" style="stroke:#8B95A5;stroke-width:1;"/><text fill="#111827" font-family="'Arial'" font-size="14" lengthAdjust="spacing" textLength="247.0645" x="37" y="439.7686">Medikationsplaneintrag hinzuf&#252;gen</text><rect fill="none" height="42.5938" rx="5" ry="5" style="stroke:#000000;stroke-width:1.5;" width="376.9038" x="137" y="453.0703"/><path d="M142,453.0703 L204,453.0703 L204,461.0703 L194,471.0703 L137,471.0703 L137,458.0703 A5,5 0 0 1 142,453.0703" fill="#EEEEEE" style="stroke:#000000;stroke-width:2;"/><text fill="#000000" font-family="'Arial'" font-size="14" font-weight="700" lengthAdjust="spacing" textLength="22.4902" x="150" y="468.0654">ref</text><a href="interactions.html#plan-write" target="_top" title="interactions.html#plan-write" xlink:actuate="onRequest" xlink:href="interactions.html#plan-write" xlink:show="new" xlink:title="interactions.html#plan-write" xlink:type="simple"><text fill="#0000EE" font-family="'Arial'" font-size="14" lengthAdjust="spacing" textLength="72.4268" x="289.2385" y="488.0654">Plan-Write</text></a><path d="M336,510.6641 L336,526.6641 A5,5 0 0 0 341,531.6641 L600,531.6641 A5,5 0 0 0 605,526.6641 L605,515.6641 L595,505.6641 L341,505.6641 A5,5 0 0 0 336,510.6641" fill="url(#g1iza5kcibknah0)" style="stroke:#8B95A5;stroke-width:1;"/><path d="M595,505.6641 L595,513.1641 A2.5,2.5 0 0 0 597.5,515.6641 L605,515.6641 L595,505.6641" fill="url(#g1iza5kcibknah0)" style="stroke:#8B95A5;stroke-width:1;"/><text fill="#111827" font-family="'Arial'" font-size="14" lengthAdjust="spacing" textLength="248.3359" x="342" y="523.6592">Neuer Medikationsplan gespeichert</text><?plantuml-src bLNHRjem57ttLzp1mrv6bQGDBPMO16swJMiBefqchQkG8JTWaJZCSShQQN-ppzXRVsmt3WM7i4apBuxlyV4zvzeNBNICC8ovH26ruZCG4gum50kkHIgp9KLWBkHJ7Zt_dg5ax7Ms47B95K-0JtMgRlGZCV0LPcc2Z6sZarI5gCxIE5NGTCometowcAaqb-4Q4Vd5pq9aSnwcAo5d4F4uGokotgOaAd1jqX0ZdiVw8fNwcYS8ZPuIF6xiHzo89mJtQ7_mRsc_VroYYeLSM80Ws0Vu94CpmLhw_VJxa8TXeSnpgkjzspFV3DjIcMg47moWl-iUEkX7JgiPkc47smN2PZgPT7pkRrPlvsAwa9XbuDBQo7BJeU-Nt0eMomhNTK-yOrgxsQdBJpl33B_bAATbbaEkj9YA9PTwdx0ge7OVpAY2wfMfXL-gMWbOTWFqb4fNkwBCOjKNixJln4sWFEkGbjvHvikAnWrp6QhL2oFFgBDsRe_t2bDVqNKihi_Pu78m6hyxxurTeD5q_RPpufquUm2U0NJQRUVul0OOzcu_1DUt1KEdtVUEQe3US01cD9sBJd3kTtO1mLLmFhxe4I3e7Bk7zHo2yIZu4WnleNdc-CvHaSCEOl0HAcTu_Yx5Q3GO6K1vnY4z0DDde7I0Pz2W6RWDsnYst1ORaFfNaMO1nHPzm4MlKPLWKNeRIi-czDQG8VL19D82j9utgePIVhbEPPvCK346hDkjDL0-KNc44hfT8qOyS7h7fHvR15COGVg0QwrlDafEuUwEsZEgOZEH7inr4ZVBj_OK2ZwZfvUqYgDQ2dbe-dbhHBFxUyPCqzYoia8ggldphrXJnwFa5Zh7ECPwtsSYWLwUnG8ZLBcSPQq-tM3gzWnbQ9eHswVs8LLa1GfDb8I7R3gdhybQVocxzRRCvXIkaKHK_e5GPTeaLCFQg4Hek1IPFg2AgCU3AEQphx8XSTKWLSc__yDsBTa1lnnXxzag_hyYcQAi59bHLkLpCQsMPKt02YTKBV4PPaiKqpaglKdY3m00?></g></svg>