<?xml version="1.0" encoding="us-ascii" standalone="no"?><svg xmlns="http://www.w3.org/2000/svg" xmlns:xlink="http://www.w3.org/1999/xlink" contentStyleType="text/css" height="552px" preserveAspectRatio="none" style="width:675px;height:552px;background:#F5F5F5;" version="1.1" viewBox="0 0 675 552" width="675px" zoomAndPan="magnify"><defs><linearGradient id="g112o0h0p4j12l0" x1="50%" x2="50%" y1="0%" y2="100%"><stop offset="0%" stop-color="#E0E5F0"/><stop offset="100%" stop-color="#D1D9E6"/></linearGradient></defs><g><rect fill="#F5F5F5" height="552" style="stroke:none;stroke-width:1.0;" width="675" x="0" y="0"/><text fill="#000000" font-family="Arial" font-size="14" font-weight="bold" lengthAdjust="spacing" textLength="212" x="227.5" y="28.1318">Durchgef&#252;hrte Abgaben lesen</text><text fill="#000000" font-family="Arial" font-size="14" font-weight="bold" lengthAdjust="spacing" textLength="244" x="211.5" y="44.2305">Variante B: Zugriff mittels e-Rezept</text><rect fill="#0F9ED5" fill-opacity="0.56471" height="117.1421" style="stroke:#181818;stroke-width:1.0;" width="10" x="189" y="261.5405"/><rect fill="#E97232" fill-opacity="0.74118" height="117.1421" style="stroke:#181818;stroke-width:1.0;" width="10" x="585" y="261.5405"/><rect fill="#0F9ED5" fill-opacity="0.14510" height="110.1421" rx="5" ry="5" style="stroke:#111827;stroke-width:2.0;" width="507" x="151" y="276.5405"/><path d="M151,339.6353 L658,339.6353 L658,381.6826 A5,5 0 0 1 653,386.6826 L156,386.6826 A5,5 0 0 1 151,381.6826 L151,339.6353 " fill="#E97132" fill-opacity="0.20784" style="stroke:none;stroke-width:1.0;"/><line style="stroke:#181818;stroke-width:0.5;stroke-dasharray:5.0,5.0;" x1="194" x2="194" y1="134.2959" y2="471.9785"/><line style="stroke:#181818;stroke-width:0.5;stroke-dasharray:5.0,5.0;" x1="590" x2="590" y1="134.2959" y2="471.9785"/><text fill="#000000" font-family="Arial" font-size="14" lengthAdjust="spacing" textLength="60" x="161" y="131.3291">Apotheke</text><ellipse cx="194" cy="66.6973" fill="#0F9ED5" fill-opacity="0.56471" rx="8" ry="8" style="stroke:#181818;stroke-width:0.5;"/><path d="M194,74.6973 L194,101.6973 M181,82.6973 L207,82.6973 M194,101.6973 L181,116.6973 M194,101.6973 L207,116.6973 " fill="none" style="stroke:#181818;stroke-width:0.5;"/><text fill="#000000" font-family="Arial" font-size="14" lengthAdjust="spacing" textLength="60" x="161" y="484.1104">Apotheke</text><ellipse cx="194" cy="495.5771" fill="#0F9ED5" fill-opacity="0.56471" rx="8" ry="8" style="stroke:#181818;stroke-width:0.5;"/><path d="M194,503.5771 L194,530.5771 M181,511.5771 L207,511.5771 M194,530.5771 L181,545.5771 M194,530.5771 L207,545.5771 " fill="none" style="stroke:#181818;stroke-width:0.5;"/><rect fill="#E97232" fill-opacity="0.74118" height="30.0986" rx="5" ry="5" style="stroke:#555555;stroke-width:0.5;" width="76" x="552" y="103.1973"/><text fill="#000000" font-family="Arial" font-size="14" lengthAdjust="spacing" textLength="62" x="559" y="123.3291">e-Med FA</text><rect fill="#E97232" fill-opacity="0.74118" height="30.0986" rx="5" ry="5" style="stroke:#555555;stroke-width:0.5;" width="76" x="552" y="470.9785"/><text fill="#000000" font-family="Arial" font-size="14" lengthAdjust="spacing" textLength="62" x="559" y="491.1104">e-Med FA</text><rect fill="#0F9ED5" fill-opacity="0.56471" height="117.1421" style="stroke:#181818;stroke-width:1.0;" width="10" x="189" y="261.5405"/><rect fill="#E97232" fill-opacity="0.74118" height="117.1421" style="stroke:#181818;stroke-width:1.0;" width="10" x="585" y="261.5405"/><rect fill="#EEEEEE" height="3" rx="5" ry="5" style="stroke:#EEEEEE;stroke-width:1.0;" width="668" x="0" y="165.3452"/><line style="stroke:#000000;stroke-width:1.0;" x1="0" x2="668" y1="165.3452" y2="165.3452"/><line style="stroke:#000000;stroke-width:1.0;" x1="0" x2="668" y1="168.3452" y2="168.3452"/><rect fill="#EEEEEE" height="24.0986" rx="5" ry="5" style="stroke:#000000;stroke-width:2.0;" width="250" x="209" y="154.2959"/><text fill="#000000" font-family="Arial" font-size="14" font-weight="bold" lengthAdjust="spacing" textLength="228" x="215" y="171.4277">Durchgef&#252;hrte Abgaben abrufen</text><path d="M75,198.3945 L75,230.3945 A5,5 0 0 0 80,235.3945 L307,235.3945 A5,5 0 0 0 312,230.3945 L312,203.3945 L302,193.3945 L80,193.3945 A5,5 0 0 0 75,198.3945 " fill="url(#g112o0h0p4j12l0)" style="stroke:#8B95A5;stroke-width:1.0;"/><path d="M302,193.3945 L302,200.8945 A2.5,2.5 0 0 0 304.5,203.3945 L312,203.3945 L302,193.3945 " fill="url(#g112o0h0p4j12l0)" style="stroke:#8B95A5;stroke-width:1.0;"/><text fill="#111827" font-family="Arial" font-size="14" lengthAdjust="spacing" textLength="212" x="81" y="211.5264">Annahme: Durchgef&#252;hrte Abgabe</text><text fill="#111827" font-family="Arial" font-size="14" lengthAdjust="spacing" textLength="204" x="81" y="227.625">speichert e-Med Groupidentifier.</text><polygon fill="#111827" points="573,257.5405,583,261.5405,573,265.5405,577,261.5405" style="stroke:#111827;stroke-width:1.0;"/><line style="stroke:#111827;stroke-width:1.0;" x1="199" x2="579" y1="261.5405" y2="261.5405"/><text fill="#000000" font-family="Arial" font-size="13" font-weight="bold" lengthAdjust="spacing" textLength="7" x="206" y="256.7856">1</text><text fill="#000000" font-family="Arial" font-size="13" lengthAdjust="spacing" textLength="361" x="217" y="256.7856">GET MedicationDispense mit e-Med Groupidentifier (QR-Code)</text><path d="M156,276.5405 L213,276.5405 L213,284.6392 L203,294.6392 L151,294.6392 L151,281.5405 A5,5 0 0 1 156,276.5405 " fill="#EEF2FF" style="stroke:#111827;stroke-width:1.5;"/><rect fill="none" height="110.1421" rx="5" ry="5" style="stroke:#111827;stroke-width:2.0;" width="507" x="151" y="276.5405"/><text fill="#000000" font-family="Arial" font-size="14" font-weight="bold" lengthAdjust="spacing" textLength="17" x="166" y="290.6724">alt</text><text fill="#000000" font-family="Arial" font-size="14" font-weight="bold" lengthAdjust="spacing" textLength="211" x="228" y="291.6724">[e-Med GroupIdentifier g&#252;ltig]</text><polygon fill="#111827" points="210,327.6353,200,331.6353,210,335.6353,206,331.6353" style="stroke:#111827;stroke-width:1.0;"/><line style="stroke:#111827;stroke-width:1.0;stroke-dasharray:2.0,2.0;" x1="204" x2="584" y1="331.6353" y2="331.6353"/><text fill="#000000" font-family="Arial" font-size="13" font-weight="bold" lengthAdjust="spacing" textLength="7" x="216" y="319.406">2</text><text fill="#000000" font-family="Arial" font-size="13" lengthAdjust="spacing" textLength="197" x="227" y="311.9316">Durchgef&#252;hrte Abgaben mit e-Med</text><text fill="#000000" font-family="Arial" font-size="13" lengthAdjust="spacing" textLength="83" x="227" y="326.8804">Groupidentifier</text><line style="stroke:#111827;stroke-width:1.0;stroke-dasharray:2.0,2.0;" x1="151" x2="658" y1="340.6353" y2="340.6353"/><text fill="#000000" font-family="Arial" font-size="14" font-weight="bold" lengthAdjust="spacing" textLength="89" x="156" y="353.7671">[nicht g&#252;ltig]</text><polygon fill="#111827" points="205,374.6826,195,378.6826,205,382.6826,201,378.6826" style="stroke:#111827;stroke-width:1.0;"/><line style="stroke:#111827;stroke-width:1.0;stroke-dasharray:2.0,2.0;" x1="199" x2="589" y1="378.6826" y2="378.6826"/><text fill="#000000" font-family="Arial" font-size="13" font-weight="bold" lengthAdjust="spacing" textLength="7" x="211" y="373.9277">3</text><text fill="#000000" font-family="Arial" font-size="13" lengthAdjust="spacing" textLength="36" x="222" y="373.9277">Fehler</text><path d="M5,403.6826 L5,451.6826 A5,5 0 0 0 10,456.6826 L379,456.6826 A5,5 0 0 0 384,451.6826 L384,408.6826 L374,398.6826 L10,398.6826 A5,5 0 0 0 5,403.6826 " fill="url(#g112o0h0p4j12l0)" style="stroke:#8B95A5;stroke-width:1.0;"/><path d="M374,398.6826 L374,406.1826 A2.5,2.5 0 0 0 376.5,408.6826 L384,408.6826 L374,398.6826 " fill="url(#g112o0h0p4j12l0)" style="stroke:#8B95A5;stroke-width:1.0;"/><text fill="#111827" font-family="Arial" font-size="14" lengthAdjust="spacing" textLength="354" x="11" y="416.8145">GDA erh&#228;lt ausschlie&#223;lich die Durchgef&#252;hrten Abgaben,</text><text fill="#111827" font-family="Arial" font-size="14" lengthAdjust="spacing" textLength="303" x="11" y="432.9131">die den im QR-Code des e-Rezepts enthaltenen</text><text fill="#111827" font-family="Arial" font-size="14" lengthAdjust="spacing" textLength="205" x="11" y="449.0117">e-Med GroupIdentifier enthalten.</text><!--SRC=[XLRDajf64BxFKtJWG589BYGChBPgKoKMiTcARJ1BSd2vYXga5ff2ZEJHo1lRvMVn9O_XsxwOMmBqXpOP3fhf_gP_lkxfGWiT8inIvGOxz9- -1qeZsDiTtwA441EKx-NVN0akIJwzXdVfJWdVXuFG6iC4iB_2pnXhndh9NiYOAtu0xkf8FUXFP9a_OX8TaB5IkusKX-es2YC5tK6-gbhkxdSgIgLtGlYZx5T1907teaSXT-3pCC6AvdHDILHWL8rwwFCqrFD8wZVyWD2nAQEmquvu49yHZ9VjokV2_kDJZ2eKSby1E4uRu2_fvHky27yQ_RFadfTbPWxgyccLir6-gfJAYAhpXG5Cc-pX04V-eD_r3C_2SOQeMhhQMYC-AgJhGBXxYKa21ibM5JO7T3x7bbcfK64OnfKv8Tb3eovVgn4c-255wHwZN7AbXIjYQggsn6g0Iz8lrEU2rHGL9W5ifQB7Phovi9voBchpM2YEleOakYEQurhuXUMZwg8Kw9k-NxzPkZSpldwYJiiwutRnQh7QtCtiZG6qkiPeFBWohmOj03C7MEFnO3Ax02pjzRtpPfrPiCPJy-K5m5uk85_TmTnoPYEh2N1UExFDt2O0MXDpQ6wz9c2pSjuvopLqNMyu6PhSQgQn-1DgFinHqyHgjLZb0CUQ64DpIBtTosS872dW2NHe1qQdoWmh8NOSvI3wwW3ts2dJOt7P4u2lqSkooR3OfmFCxKuzKzQhNTWSnzlfnl7GQQJE64zr9DF35XLZDpVFZLE-LQbFNxYvOJs2dUt1ht27SPYFs2QMeAm755A9Fgb834No_T-BKAzBP7D8z-zdyFFRLVysyl2NcXsYKdpavFziiEIlfYxuQ32GWGfTdw8vsQa4asCyl32LvKT18Z2MZx7e8nP5PRQKF3ZWTJkbm98OXHkWeahbvSoVbl1GQk4BL2-0eVJoySXObQjZ7rp3dRC6sWkNQn79cI1xaa8XujeDblIn_w2ipF7KR_KEOppKvTke-Bal_UoUleTQx6XQd6tKM7scmugutyj6u6I8vInNdvmaxlJ_kPfZ4ERtAxKxbwTUqEFjZF6sKcOF65Nmz2ybpzCaSODGuDEta680JpJ_WyXpJhy1oxIK28W3dDYdOzdLj9Cw84vH4eYryrb0NfGTyGC0]--></g></svg>