<svg xmlns="http://www.w3.org/2000/svg" xmlns:xlink="http://www.w3.org/1999/xlink" contentStyleType="text/css" data-diagram-type="SEQUENCE" height="1224px" preserveAspectRatio="none" style="width:971px;height:1224px;background:#F5F5F5;" version="1.1" viewBox="0 0 971 1224" width="971px" zoomAndPan="magnify"><?plantuml 1.2026.7beta1?><defs><linearGradient id="g136sguwlyh97i0" x1="50%" x2="50%" y1="0%" y2="100%"><stop offset="0%" stop-color="#E0E5F0"/><stop offset="100%" stop-color="#D1D9E6"/></linearGradient></defs><g><rect fill="#F5F5F5" height="1224" style="stroke:none;stroke-width:1;" width="971" x="0" y="0"/><g class="title" data-source-line="1"><text fill="#000000" font-family="'Arial'" font-size="14" font-weight="700" lengthAdjust="spacing" textLength="539.0137" x="212.5039" y="27.9951">Geplante Abgabe f&#252;r bestehende Medikationsplaneintr&#228;ge erstellen</text><text fill="#000000" font-family="'Arial'" font-size="14" font-weight="700" lengthAdjust="spacing" textLength="676.2588" x="143.8813" y="44.292">Variante C: Nachtr&#228;gliche Verkn&#252;pfung des e-Rezepts mit dem e-Med GroupIdentifier</text></g><g><title>GDA 1</title><rect fill="#0078D4" fill-opacity="0.37647" height="988.6094" style="stroke:#181818;stroke-width:1;" width="10" x="170.2817" y="144.8906"/></g><g><title>e-Med FA</title><rect fill="#F5A403" fill-opacity="0.37647" height="265.6094" style="stroke:#181818;stroke-width:1;" width="10" x="503.9619" y="676.7656"/></g><g><title>e-Rezept</title><rect fill="#E74856" fill-opacity="0.37647" height="155.75" style="stroke:#181818;stroke-width:1;" width="10" x="770.2617" y="466.5859"/></g><g><title>e-Rezept</title><rect fill="#E74856" fill-opacity="0.37647" height="138.9922" style="stroke:#181818;stroke-width:1;" width="10" x="770.2617" y="985.5078"/></g><rect fill="none" height="531.5156" rx="5" ry="5" style="stroke:#111827;stroke-width:2;" width="824.4336" x="9" y="425.8594"/><rect fill="#50E6FF" fill-opacity="0.14510" height="96.1563" rx="5" ry="5" style="stroke:#111827;stroke-width:2;" width="683.4336" x="140" y="534.1797"/><path d="M140,582.9063 L823.4336,582.9063 L823.4336,625.3359 A5,5 0 0 1 818.4336,630.3359 L145,630.3359 A5,5 0 0 1 140,625.3359 L140,582.9063" fill="#FF8C00" fill-opacity="0.20784" style="stroke:none;stroke-width:1;"/><rect fill="#50E6FF" fill-opacity="0.14510" height="206.0156" rx="5" ry="5" style="stroke:#111827;stroke-width:2;" width="635.2617" x="140" y="744.3594"/><path d="M140,902.9453 L775.2617,902.9453 L775.2617,945.375 A5,5 0 0 1 770.2617,950.375 L145,950.375 A5,5 0 0 1 140,945.375 L140,902.9453" fill="#FF8C00" fill-opacity="0.20784" style="stroke:none;stroke-width:1;"/><g class="participant-lifeline" data-entity-uid="part1" data-qualified-name="GDA_1" data-source-line="50" id="part1-lifeline"><g><title>GDA 1</title><rect fill="#000000" fill-opacity="0.00000" height="1007.6094" width="8" x="171.2817" y="134.8906"/><line style="stroke:#181818;stroke-width:0.5;stroke-dasharray:5,5;" x1="175" x2="175" y1="134.8906" y2="1142.5"/></g></g><g class="participant-lifeline" data-entity-uid="part2" data-qualified-name="eMed_FA" data-source-line="52" id="part2-lifeline"><g><title>e-Med FA</title><rect fill="#000000" fill-opacity="0.00000" height="1007.6094" width="8" x="504.9619" y="134.8906"/><line style="stroke:#181818;stroke-width:0.5;stroke-dasharray:5,5;" x1="508.2998" x2="508.2998" y1="134.8906" y2="1142.5"/></g></g><g class="participant-lifeline" data-entity-uid="part3" data-qualified-name="e_Rezept" data-source-line="54" id="part3-lifeline"><g><title>e-Rezept</title><rect fill="#000000" fill-opacity="0.00000" height="1007.6094" width="8" x="771.2617" y="134.8906"/><line style="stroke:#181818;stroke-width:0.5;stroke-dasharray:5,5;" x1="775.0898" x2="775.0898" y1="134.8906" y2="1142.5"/></g></g><g class="participant participant-head" data-entity-uid="part1" data-qualified-name="GDA_1" data-source-line="50" id="part1-head"><text fill="#000000" font-family="'Arial'" font-size="14" lengthAdjust="spacing" textLength="44.5635" x="150" y="131.5889">GDA 1</text><ellipse cx="175.2817" cy="67.0938" fill="#0078D4" fill-opacity="0.37647" rx="8" ry="8" style="stroke:#181818;stroke-width:0.5;"/><path d="M175.2817,75.0938 L175.2817,102.0938 M162.2817,83.0938 L188.2817,83.0938 M175.2817,102.0938 L162.2817,117.0938 M175.2817,102.0938 L188.2817,117.0938" fill="none" style="stroke:#181818;stroke-width:0.5;"/></g><g class="participant participant-tail" data-entity-uid="part1" data-qualified-name="GDA_1" data-source-line="50" id="part1-tail"><text fill="#000000" font-family="'Arial'" font-size="14" lengthAdjust="spacing" textLength="44.5635" x="150" y="1154.4951">GDA 1</text><ellipse cx="175.2817" cy="1166.2969" fill="#0078D4" fill-opacity="0.37647" rx="8" ry="8" style="stroke:#181818;stroke-width:0.5;"/><path d="M175.2817,1174.2969 L175.2817,1201.2969 M162.2817,1182.2969 L188.2817,1182.2969 M175.2817,1201.2969 L162.2817,1216.2969 M175.2817,1201.2969 L188.2817,1216.2969" fill="none" style="stroke:#181818;stroke-width:0.5;"/></g><g class="participant participant-head" data-entity-uid="part2" data-qualified-name="eMed_FA" data-source-line="52" id="part2-head"><rect fill="#F5A403" fill-opacity="0.37647" height="30.2969" rx="5" ry="5" style="stroke:#555555;stroke-width:0.5;" width="79.3242" x="469.2998" y="103.5938"/><text fill="#000000" font-family="'Arial'" font-size="14" lengthAdjust="spacing" textLength="65.3242" x="476.2998" y="123.5889">e-Med FA</text></g><g class="participant participant-tail" data-entity-uid="part2" data-qualified-name="eMed_FA" data-source-line="52" id="part2-tail"><rect fill="#F5A403" fill-opacity="0.37647" height="30.2969" rx="5" ry="5" style="stroke:#555555;stroke-width:0.5;" width="79.3242" x="469.2998" y="1141.5"/><text fill="#000000" font-family="'Arial'" font-size="14" lengthAdjust="spacing" textLength="65.3242" x="476.2998" y="1161.4951">e-Med FA</text></g><g class="participant participant-head" data-entity-uid="part3" data-qualified-name="e_Rezept" data-source-line="54" id="part3-head"><rect fill="#E74856" fill-opacity="0.37647" height="30.2969" rx="5" ry="5" style="stroke:#555555;stroke-width:0.5;" width="76.3438" x="737.0898" y="103.5938"/><text fill="#000000" font-family="'Arial'" font-size="14" lengthAdjust="spacing" textLength="62.3438" x="744.0898" y="123.5889">e-Rezept</text></g><g class="participant participant-tail" data-entity-uid="part3" data-qualified-name="e_Rezept" data-source-line="54" id="part3-tail"><rect fill="#E74856" fill-opacity="0.37647" height="30.2969" rx="5" ry="5" style="stroke:#555555;stroke-width:0.5;" width="76.3438" x="737.0898" y="1141.5"/><text fill="#000000" font-family="'Arial'" font-size="14" lengthAdjust="spacing" textLength="62.3438" x="744.0898" y="1161.4951">e-Rezept</text></g><g><title>GDA 1</title><rect fill="#0078D4" fill-opacity="0.37647" height="988.6094" style="stroke:#181818;stroke-width:1;" width="10" x="170.2817" y="144.8906"/></g><g><title>e-Med FA</title><rect fill="#F5A403" fill-opacity="0.37647" height="265.6094" style="stroke:#181818;stroke-width:1;" width="10" x="503.9619" y="676.7656"/></g><g><title>e-Rezept</title><rect fill="#E74856" fill-opacity="0.37647" height="155.75" style="stroke:#181818;stroke-width:1;" width="10" x="770.2617" y="466.5859"/></g><g><title>e-Rezept</title><rect fill="#E74856" fill-opacity="0.37647" height="138.9922" style="stroke:#181818;stroke-width:1;" width="10" x="770.2617" y="985.5078"/></g><rect fill="#EEEEEE" height="3" rx="5" ry="5" style="stroke:#EEEEEE;stroke-width:1;" width="965.0215" x="0" y="166.0391"/><line style="stroke:#000000;stroke-width:1;" x1="0" x2="965.0215" y1="166.0391" y2="166.0391"/><line style="stroke:#000000;stroke-width:1;" x1="0" x2="965.0215" y1="169.0391" y2="169.0391"/><rect fill="#EEEEEE" height="24.2969" rx="5" ry="5" style="stroke:#000000;stroke-width:2;" width="216.2891" x="374.3662" y="154.8906"/><text fill="#000000" font-family="'Arial'" font-size="14" font-weight="700" lengthAdjust="spacing" textLength="197.415" x="380.3662" y="171.8857">Medikationsplan abrufen</text><rect fill="none" height="42.5938" rx="5" ry="5" style="stroke:#000000;stroke-width:1.5;" width="404.624" x="147" y="189.1875"/><path d="M152,189.1875 L214,189.1875 L214,197.1875 L204,207.1875 L147,207.1875 L147,194.1875 A5,5 0 0 1 152,189.1875" fill="#EEEEEE" style="stroke:#000000;stroke-width:2;"/><text fill="#000000" font-family="'Arial'" font-size="14" font-weight="700" lengthAdjust="spacing" textLength="22.4902" x="160" y="204.1826">ref</text><a href="interactions.html#sequenzdiagramm-plan-read" target="_top" title="interactions.html#sequenzdiagramm-plan-read" xlink:actuate="onRequest" xlink:href="interactions.html#sequenzdiagramm-plan-read" xlink:show="new" xlink:title="interactions.html#sequenzdiagramm-plan-read" xlink:type="simple"><text fill="#0000EE" font-family="'Arial'" font-size="14" lengthAdjust="spacing" textLength="70.6426" x="313.9907" y="224.1826">Plan-Read</text></a><path d="M47,246.7813 L47,278.7813 A5,5 0 0 0 52,283.7813 L297,283.7813 A5,5 0 0 0 302,278.7813 L302,251.7813 L292,241.7813 L52,241.7813 A5,5 0 0 0 47,246.7813" fill="url(#g136sguwlyh97i0)" style="stroke:#8B95A5;stroke-width:1;"/><path d="M292,241.7813 L292,249.2813 A2.5,2.5 0 0 0 294.5,251.7813 L302,251.7813 L292,241.7813" fill="url(#g136sguwlyh97i0)" style="stroke:#8B95A5;stroke-width:1;"/><text fill="#111827" font-family="'Arial'" font-size="14" lengthAdjust="spacing" textLength="195.8018" x="53" y="259.7764">GDA erh&#228;lt Medikationsplan</text><text fill="#111827" font-family="'Arial'" font-size="14" lengthAdjust="spacing" textLength="234.377" x="53" y="276.0732">(Auslieferungs-Collection-Bundle)</text><rect fill="#EEEEEE" height="3" rx="5" ry="5" style="stroke:#EEEEEE;stroke-width:1;" width="965.0215" x="0" y="310.5234"/><line style="stroke:#000000;stroke-width:1;" x1="0" x2="965.0215" y1="310.5234" y2="310.5234"/><line style="stroke:#000000;stroke-width:1;" x1="0" x2="965.0215" y1="313.5234" y2="313.5234"/><rect fill="#EEEEEE" height="24.2969" rx="5" ry="5" style="stroke:#000000;stroke-width:2;" width="379.3398" x="292.8408" y="299.375"/><text fill="#000000" font-family="'Arial'" font-size="14" font-style="italic" font-weight="700" lengthAdjust="spacing" textLength="146.0908" x="298.8408" y="316.3701">Geplante Abgaben</text><text fill="#000000" font-family="'Arial'" font-size="14" font-weight="700" lengthAdjust="spacing" textLength="209.501" x="449.8057" y="316.3701">vorbereiten und schreiben</text><path d="M16,343.6719 L16,408.6719 A5,5 0 0 0 21,413.6719 L328,413.6719 A5,5 0 0 0 333,408.6719 L333,348.6719 L323,338.6719 L21,338.6719 A5,5 0 0 0 16,343.6719" fill="url(#g136sguwlyh97i0)" style="stroke:#8B95A5;stroke-width:1;"/><path d="M323,338.6719 L323,346.1719 A2.5,2.5 0 0 0 325.5,348.6719 L333,348.6719 L323,338.6719" fill="url(#g136sguwlyh97i0)" style="stroke:#8B95A5;stroke-width:1;"/><text fill="#111827" font-family="'Arial'" font-size="14" lengthAdjust="spacing" textLength="57.8799" x="22" y="356.667">Erstellte</text><text fill="#111827" font-family="'Arial'" font-size="14" font-style="italic" lengthAdjust="spacing" textLength="130.5459" x="84.3301" y="356.667">Geplante Abgaben</text><text fill="#111827" font-family="'Arial'" font-size="14" lengthAdjust="spacing" textLength="94.2471" x="219.3262" y="356.667">referenzieren</text><text fill="#111827" font-family="'Arial'" font-size="14" lengthAdjust="spacing" textLength="260.668" x="22" y="372.9639">zugeh&#246;rige Medikationsplaneintr&#228;ge;</text><text fill="#111827" font-family="'Arial'" font-size="14" lengthAdjust="spacing" textLength="256.2725" x="22" y="389.2607">groupIdentifier f&#252;r "Rezeptklammer"</text><text fill="#111827" font-family="'Arial'" font-size="14" lengthAdjust="spacing" textLength="70.9775" x="22" y="405.5576">bleibt leer</text><path d="M14,425.8594 L80.373,425.8594 L80.373,434.1563 L70.373,444.1563 L9,444.1563 L9,430.8594 A5,5 0 0 1 14,425.8594" fill="#EEF2FF" style="stroke:#111827;stroke-width:1.5;"/><rect fill="none" height="531.5156" rx="5" ry="5" style="stroke:#111827;stroke-width:2;" width="824.4336" x="9" y="425.8594"/><text fill="#000000" font-family="'Arial'" font-size="14" font-weight="700" lengthAdjust="spacing" textLength="26.373" x="24" y="439.8545">par</text><text fill="#000000" font-family="'Arial'" font-size="14" font-weight="700" lengthAdjust="spacing" textLength="168.1504" x="95.373" y="440.8545">[Erstellung e-Rezept]</text><g class="message" data-entity-1="part1" data-entity-2="part3" data-source-line="80" id="msg1"><polygon fill="#111827" points="758.2617,462.5859,768.2617,466.5859,758.2617,470.5859,762.2617,466.5859" style="stroke:#111827;stroke-width:1;stroke-linejoin:miter;stroke-miterlimit:10;"/><line style="stroke:#111827;stroke-width:1;" x1="180.2817" x2="764.2617" y1="466.5859" y2="466.5859"/><text fill="#000000" font-family="'Arial'" font-size="13" font-weight="700" lengthAdjust="spacing" textLength="9.0454" x="187.2817" y="461.52">1</text><text fill="#000000" font-family="'Arial'" font-size="13" lengthAdjust="spacing" textLength="169.5713" x="200.3271" y="461.52">Trigger e-Rezept erstellen</text></g><path d="M60,484.5859 L60,516.5859 A5,5 0 0 0 65,521.5859 L284,521.5859 A5,5 0 0 0 289,516.5859 L289,489.5859 L279,479.5859 L65,479.5859 A5,5 0 0 0 60,484.5859" fill="url(#g136sguwlyh97i0)" style="stroke:#8B95A5;stroke-width:1;"/><path d="M279,479.5859 L279,487.0859 A2.5,2.5 0 0 0 281.5,489.5859 L289,489.5859 L279,479.5859" fill="url(#g136sguwlyh97i0)" style="stroke:#8B95A5;stroke-width:1;"/><text fill="#111827" font-family="'Arial'" font-size="14" lengthAdjust="spacing" textLength="208.0859" x="66" y="497.5811">Erstellung e-Rezept ausl&#246;sen,</text><text fill="#111827" font-family="'Arial'" font-size="14" lengthAdjust="spacing" textLength="193.0674" x="66" y="513.8779">ohne e-Med GroupIdentifier</text><path d="M145,534.1797 L205.9385,534.1797 L205.9385,542.4766 L195.9385,552.4766 L140,552.4766 L140,539.1797 A5,5 0 0 1 145,534.1797" fill="#EEF2FF" style="stroke:#111827;stroke-width:1.5;"/><rect fill="none" height="96.1563" rx="5" ry="5" style="stroke:#111827;stroke-width:2;" width="683.4336" x="140" y="534.1797"/><text fill="#000000" font-family="'Arial'" font-size="14" font-weight="700" lengthAdjust="spacing" textLength="20.9385" x="155" y="548.1748">alt</text><text fill="#000000" font-family="'Arial'" font-size="14" font-weight="700" lengthAdjust="spacing" textLength="144.8193" x="220.9385" y="549.1748">[e-Rezept erstellt]</text><g class="message" data-entity-1="part3" data-entity-2="part1" data-source-line="88" id="msg2"><polygon fill="#111827" points="191.2817,570.9063,181.2817,574.9063,191.2817,578.9063,187.2817,574.9063" style="stroke:#111827;stroke-width:1;stroke-linejoin:miter;stroke-miterlimit:10;"/><line style="stroke:#111827;stroke-width:1;stroke-dasharray:2,2;" x1="185.2817" x2="769.2617" y1="574.9063" y2="574.9063"/><text fill="#000000" font-family="'Arial'" font-size="13" font-weight="700" lengthAdjust="spacing" textLength="9.0454" x="197.2817" y="569.8403">2</text><text fill="#000000" font-family="'Arial'" font-size="13" lengthAdjust="spacing" textLength="18.7573" x="210.3271" y="569.8403">OK</text></g><line style="stroke:#111827;stroke-width:1;stroke-dasharray:2,2;" x1="140" x2="823.4336" y1="583.9063" y2="583.9063"/><text fill="#000000" font-family="'Arial'" font-size="14" font-weight="700" lengthAdjust="spacing" textLength="137.833" x="145" y="596.9014">[e-Rezept Fehler]</text><g class="message" data-entity-1="part3" data-entity-2="part1" data-source-line="91" id="msg3"><polygon fill="#111827" points="191.2817,618.3359,181.2817,622.3359,191.2817,626.3359,187.2817,622.3359" style="stroke:#111827;stroke-width:1;stroke-linejoin:miter;stroke-miterlimit:10;"/><line style="stroke:#111827;stroke-width:1;stroke-dasharray:2,2;" x1="185.2817" x2="774.2617" y1="622.3359" y2="622.3359"/><text fill="#000000" font-family="'Arial'" font-size="13" font-weight="700" lengthAdjust="spacing" textLength="9.0454" x="197.2817" y="617.27">3</text><text fill="#000000" font-family="'Arial'" font-size="13" lengthAdjust="spacing" textLength="40.6694" x="210.3271" y="617.27">Fehler</text></g><line style="stroke:#111827;stroke-width:1;stroke-dasharray:2,2;" x1="9" x2="833.4336" y1="638.3359" y2="638.3359"/><text fill="#000000" font-family="'Arial'" font-size="14" font-weight="700" lengthAdjust="spacing" textLength="192.6436" x="14" y="651.3311">[gleichzeitige Erstellung</text><text fill="#000000" font-family="'Arial'" font-size="14" font-style="italic" font-weight="700" lengthAdjust="spacing" textLength="136.124" x="211.5176" y="651.3311">Geplante Abgabe</text><text fill="#000000" font-family="'Arial'" font-size="14" font-weight="700" lengthAdjust="spacing" textLength="6.3984" x="347.6416" y="651.3311">]</text><g class="message" data-entity-1="part1" data-entity-2="part2" data-source-line="97" id="msg4"><polygon fill="#111827" points="491.9619,672.7656,501.9619,676.7656,491.9619,680.7656,495.9619,676.7656" style="stroke:#111827;stroke-width:1;stroke-linejoin:miter;stroke-miterlimit:10;"/><line style="stroke:#111827;stroke-width:1;" x1="180.2817" x2="497.9619" y1="676.7656" y2="676.7656"/><text fill="#000000" font-family="'Arial'" font-size="13" font-weight="700" lengthAdjust="spacing" textLength="9.0454" x="187.2817" y="671.6997">4</text><text fill="#000000" font-family="'Arial'" font-size="13" lengthAdjust="spacing" textLength="247.749" x="200.3271" y="671.6997">POST Transaction Bundle GeplAbgabe</text></g><path d="M19,694.7656 L19,726.7656 A5,5 0 0 0 24,731.7656 L325,731.7656 A5,5 0 0 0 330,726.7656 L330,699.7656 L320,689.7656 L24,689.7656 A5,5 0 0 0 19,694.7656" fill="url(#g136sguwlyh97i0)" style="stroke:#8B95A5;stroke-width:1;"/><path d="M320,689.7656 L320,697.2656 A2.5,2.5 0 0 0 322.5,699.7656 L330,699.7656 L320,689.7656" fill="url(#g136sguwlyh97i0)" style="stroke:#8B95A5;stroke-width:1;"/><text fill="#111827" font-family="'Arial'" font-size="14" lengthAdjust="spacing" textLength="239.9209" x="25" y="707.7607">Transaction Bundle mit Geplanten</text><text fill="#111827" font-family="'Arial'" font-size="14" lengthAdjust="spacing" textLength="290.2266" x="25" y="724.0576">Abgaben an Fachanwendung &#252;bermitteln</text><path d="M145,744.3594 L205.9385,744.3594 L205.9385,752.6563 L195.9385,762.6563 L140,762.6563 L140,749.3594 A5,5 0 0 1 145,744.3594" fill="#EEF2FF" style="stroke:#111827;stroke-width:1.5;"/><rect fill="none" height="206.0156" rx="5" ry="5" style="stroke:#111827;stroke-width:2;" width="635.2617" x="140" y="744.3594"/><text fill="#000000" font-family="'Arial'" font-size="14" font-weight="700" lengthAdjust="spacing" textLength="20.9385" x="155" y="758.3545">alt</text><text fill="#000000" font-family="'Arial'" font-size="14" font-weight="700" lengthAdjust="spacing" textLength="220.9717" x="220.9385" y="759.3545">[Geplante Abgaben erstellt]</text><g class="message" data-entity-1="part2" data-entity-2="part2" data-source-line="107" id="msg5"><line style="stroke:#111827;stroke-width:1;" x1="513.9619" x2="555.9619" y1="800.2188" y2="800.2188"/><line style="stroke:#111827;stroke-width:1;" x1="555.9619" x2="555.9619" y1="800.2188" y2="813.2188"/><line style="stroke:#111827;stroke-width:1;" x1="514.9619" x2="555.9619" y1="813.2188" y2="813.2188"/><polygon fill="#111827" points="524.9619,809.2188,514.9619,813.2188,524.9619,817.2188,520.9619,813.2188" style="stroke:#111827;stroke-width:1;stroke-linejoin:miter;stroke-miterlimit:10;"/><text fill="#000000" font-family="'Arial'" font-size="13" font-weight="700" lengthAdjust="spacing" textLength="9.0454" x="520.9619" y="787.5864">5</text><text fill="#000000" font-family="'Arial'" font-size="13" lengthAdjust="spacing" textLength="207.7397" x="534.0073" y="780.02">e-Med GroupIdentifier erzeugen</text><text fill="#000000" font-family="'Arial'" font-size="13" lengthAdjust="spacing" textLength="219.2544" x="534.0073" y="795.1528">+ geplanten Abgaben hinzuf&#252;gen</text></g><path d="M413,831.2188 L413,863.2188 A5,5 0 0 0 418,868.2188 L598,868.2188 A5,5 0 0 0 603,863.2188 L603,836.2188 L593,826.2188 L418,826.2188 A5,5 0 0 0 413,831.2188" fill="url(#g136sguwlyh97i0)" style="stroke:#8B95A5;stroke-width:1;"/><path d="M593,826.2188 L593,833.7188 A2.5,2.5 0 0 0 595.5,836.2188 L603,836.2188 L593,826.2188" fill="url(#g136sguwlyh97i0)" style="stroke:#8B95A5;stroke-width:1;"/><text fill="#111827" font-family="'Arial'" font-size="14" lengthAdjust="spacing" textLength="164.5684" x="419" y="844.2139">Geplante Abgabe 1 + 2</text><text fill="#111827" font-family="'Arial'" font-size="14" lengthAdjust="spacing" textLength="82.6123" x="419" y="860.5107">gespeichert</text><g class="message" data-entity-1="part2" data-entity-2="part1" data-source-line="114" id="msg6"><polygon fill="#111827" points="191.2817,890.9453,181.2817,894.9453,191.2817,898.9453,187.2817,894.9453" style="stroke:#111827;stroke-width:1;stroke-linejoin:miter;stroke-miterlimit:10;"/><line style="stroke:#111827;stroke-width:1;" x1="185.2817" x2="502.9619" y1="894.9453" y2="894.9453"/><text fill="#000000" font-family="'Arial'" font-size="13" font-weight="700" lengthAdjust="spacing" textLength="9.0454" x="197.2817" y="889.8794">6</text><text fill="#000000" font-family="'Arial'" font-size="13" lengthAdjust="spacing" textLength="286.6348" x="210.3271" y="889.8794">OK (Ressourcen inkl. e-Med GroupIdentifier)</text></g><line style="stroke:#111827;stroke-width:1;stroke-dasharray:2,2;" x1="140" x2="775.2617" y1="903.9453" y2="903.9453"/><text fill="#000000" font-family="'Arial'" font-size="14" font-weight="700" lengthAdjust="spacing" textLength="204.0186" x="145" y="916.9404">[Geplante Abgabe Fehler]</text><g class="message" data-entity-1="part2" data-entity-2="part1" data-source-line="117" id="msg7"><polygon fill="#111827" points="191.2817,938.375,181.2817,942.375,191.2817,946.375,187.2817,942.375" style="stroke:#111827;stroke-width:1;stroke-linejoin:miter;stroke-miterlimit:10;"/><line style="stroke:#111827;stroke-width:1;stroke-dasharray:2,2;" x1="185.2817" x2="507.9619" y1="942.375" y2="942.375"/><text fill="#000000" font-family="'Arial'" font-size="13" font-weight="700" lengthAdjust="spacing" textLength="9.0454" x="197.2817" y="937.3091">7</text><text fill="#000000" font-family="'Arial'" font-size="13" lengthAdjust="spacing" textLength="40.6694" x="210.3271" y="937.3091">Fehler</text></g><g class="message" data-entity-1="part1" data-entity-2="part3" data-source-line="124" id="msg8"><polygon fill="#111827" points="758.2617,981.5078,768.2617,985.5078,758.2617,989.5078,762.2617,985.5078" style="stroke:#111827;stroke-width:1;stroke-linejoin:miter;stroke-miterlimit:10;"/><line style="stroke:#111827;stroke-width:1;" x1="180.2817" x2="764.2617" y1="985.5078" y2="985.5078"/><text fill="#000000" font-family="'Arial'" font-size="13" font-weight="700" lengthAdjust="spacing" textLength="9.0454" x="187.2817" y="980.4419">8</text><text fill="#000000" font-family="'Arial'" font-size="13" lengthAdjust="spacing" textLength="308.4834" x="200.3271" y="980.4419">e-Rezept mit e-Med GroupIdentifier verkn&#252;pfen</text></g><g class="message" data-entity-1="part3" data-entity-2="part3" data-source-line="126" id="msg9"><line style="stroke:#111827;stroke-width:1;" x1="780.2617" x2="822.2617" y1="1029.7734" y2="1029.7734"/><line style="stroke:#111827;stroke-width:1;" x1="822.2617" x2="822.2617" y1="1029.7734" y2="1042.7734"/><line style="stroke:#111827;stroke-width:1;" x1="781.2617" x2="822.2617" y1="1042.7734" y2="1042.7734"/><polygon fill="#111827" points="791.2617,1038.7734,781.2617,1042.7734,791.2617,1046.7734,787.2617,1042.7734" style="stroke:#111827;stroke-width:1;stroke-linejoin:miter;stroke-miterlimit:10;"/><text fill="#000000" font-family="'Arial'" font-size="13" font-weight="700" lengthAdjust="spacing" textLength="9.0454" x="787.2617" y="1017.1411">9</text><text fill="#000000" font-family="'Arial'" font-size="13" lengthAdjust="spacing" textLength="142.7144" x="800.3071" y="1009.5747">e-Med GroupIdentifier</text><text fill="#000000" font-family="'Arial'" font-size="13" lengthAdjust="spacing" textLength="60.8613" x="800.3071" y="1024.7075">erg&#228;nzen</text></g><path d="M651,1060.7734 L651,1092.7734 A5,5 0 0 0 656,1097.7734 L892,1097.7734 A5,5 0 0 0 897,1092.7734 L897,1065.7734 L887,1055.7734 L656,1055.7734 A5,5 0 0 0 651,1060.7734" fill="url(#g136sguwlyh97i0)" style="stroke:#8B95A5;stroke-width:1;"/><path d="M887,1055.7734 L887,1063.2734 A2.5,2.5 0 0 0 889.5,1065.7734 L897,1065.7734 L887,1055.7734" fill="url(#g136sguwlyh97i0)" style="stroke:#8B95A5;stroke-width:1;"/><text fill="#111827" font-family="'Arial'" font-size="14" lengthAdjust="spacing" textLength="185.0283" x="657" y="1073.7686">Bestehendes e-Rezept mit</text><text fill="#111827" font-family="'Arial'" font-size="14" lengthAdjust="spacing" textLength="225.9551" x="657" y="1090.0654">e-Med GroupIdentifier verkn&#252;pft</text><g class="message" data-entity-1="part3" data-entity-2="part1" data-source-line="131" id="msg10"><polygon fill="#111827" points="191.2817,1120.5,181.2817,1124.5,191.2817,1128.5,187.2817,1124.5" style="stroke:#111827;stroke-width:1;stroke-linejoin:miter;stroke-miterlimit:10;"/><line style="stroke:#111827;stroke-width:1;stroke-dasharray:2,2;" x1="185.2817" x2="774.2617" y1="1124.5" y2="1124.5"/><text fill="#000000" font-family="'Arial'" font-size="13" font-weight="700" lengthAdjust="spacing" textLength="18.0908" x="197.2817" y="1119.4341">10</text><text fill="#000000" font-family="'Arial'" font-size="13" lengthAdjust="spacing" textLength="18.7573" x="219.3726" y="1119.4341">OK</text></g><?plantuml-src ZLRTRjis5BxNKvmvDorQTx8J9qxM1B0JEolQneRZzM9j4T3MaKHOfbnAIbOFUviyGwzovnVR8IdhFzram938Z-Tyv-SZ6VCuGBZ6JS14Z31OU6o1uEwU92mmYj57uI1yH8UlMCn34IaWSX7BtQE7W98mGO3YY_Z49DSsBi_WXYrzZGZuqaVuX78bTayRDn4UE1W1jcUunKqSmPh7DBAc4V81rp9CDkyS535tEKhBYbPSR9XaQrY4qa5v6GQXX0DRFyLPjbnvj5WuASBjgLy14VdC2Hyu4N1P465X9bqc1Khe58qwwB8aYCUXY6_O6g4re0Y3LZFYbcyHEaVDay_H_ltx1cN0nQe068sQ07zG6TGBrkWFmx-cp75KP5sxF3uivgodds9AHKZL-ji265QpXpRsNBjzu7ISKpnMYAAb_kAqnthPwDpdovN0A88EZSqAsRJfUyzDMIcaejFfzBidD7PRgSi_HOOHVajGB0tBAPCnN_8DDLbJO6L0hH_qKmRLArERtbUrD558Dy10ol2X6fGUBET53pLvp2QChqCQqZ8enPXPDbErUg7RrT4LLkRkkogflr0xglQvd7oOpEwkhmPt7Q27U9pqhuwExGP0LmFw9yT7mtuDC1tCturkvjh2QS_krG23wGGWTJ4ykJoi0KOVHrTtum4eiR8Zkm5mDnlzEPhEuM1qSjJl7HEWWfYyXzH7pnuTZyVTNjN4R3QPQS1utB-qxKCI05l6b3EJ0HP1YzwWqoecnh8sURK1QMTIF1NMR5FZGQiSGsN1dTdTqXNcerK9YdWaSIYIzKBjS-VdrJqMs48cBWeuFzUK-JqZjHhMHQeINGZlCGteTSRs33v_fcqQfLfBDj_uyJeuC8BQEfnvfAzrMtbgIsGEJDNRZDw-VhKiIsyDkLbBvGYbltiCuXfHwyKWYGAEBahQtwCszMI0scbxI2qQu4kB3X6zs-X0t_ABodaZtlxAB-0-b9GBv345JUiWMlhqjKXJK6KqCYSF3JvdJof652nN_s1j4m_ztG_9lUVFizyihtm2cPEmPKgu2YXbA5lM8Y1UCGH8fSj3enQ0b9Kwv_Q5jvGiTTdQ5rbhdC6SY7ZaO0_BZrB2P_NEMgdIF03LV42JRs1KcTsF2CLh0eG-wQBve0N8uo3tGPmBh4emjfIUCc9jYaepE8F9UxKOQHSlgIypC4O_qBwQbvjfqFCErb9WE5gMjkzH1PR-bff5bRCGURqPL2_Gsb8LZ4REO3gvdLCbc8YCIi0qhBuFcTLcPKucLLTP_KtLW2QxwhQpfoSqA6rO81sDwTB4n0C5gGBPFP4O24-1YP-LfzhwUPbCebF2nQWRMu3MRP4aGZUvL-3jEMPMVIws2Oc10CPm7d5gLuzMBv8TU0LTKr8Feuqg6igqWmeHbNXctGGlPdHyXObS4W6w0mLlcgc_R6oxAfLYz-sT_NVpfR5bpQV-6jISzRYgS7D-x_UNuF-hy5mZPKyDnh_GRSlRFOgjjbqeJQuTkgrbz_cenDUavEUSus8BFgl-Hjt-2m00?></g></svg>