<svg xmlns="http://www.w3.org/2000/svg" xmlns:xlink="http://www.w3.org/1999/xlink" version="1.1" data-diagram-type="SEQUENCE" style="width:860px;height:1281px;background:#F5F5F5;" width="860px" height="1281px" viewBox="0 0 860 1281" zoomAndPan="magnify" preserveAspectRatio="none" contentStyleType="text/css"><?plantuml 1.2026.7beta8?><defs><linearGradient x1="50%" y1="0%" x2="50%" y2="100%" id="g1p3ajis101sjh0"><stop stop-color="#E0E5F0" offset="0%"/><stop stop-color="#D1D9E6" offset="100%"/></linearGradient></defs><g font-family="sans-serif" lengthAdjust="spacing"><rect x="0" y="0" width="860" height="1281" fill="#F5F5F5" style="stroke:none;"/><g class="title" data-source-line="1"><text x="389.446" y="27.995" fill="#000" font-size="14" textLength="80.028" font-weight="700" font-family="'Arial'">Plan-Read</text></g><path d="M115.646,318.883 L835.92,318.883 A5,5 0 0 1 840.92,323.883 L840.92,810.148 L110.646,810.148 L110.646,323.883 A5,5 0 0 1 115.646,318.883" fill="#0F9ED5" fill-opacity="0.145"/><rect x="110.646" y="810.148" width="730.274" height="203.555" fill="#34738D" fill-opacity="0.306" style="stroke:#34738D4E;stroke-width:1;"/><path d="M110.646,1013.703 L840.92,1013.703 L840.92,1095.891 A5,5 0 0 1 835.92,1100.891 L115.646,1100.891 A5,5 0 0 1 110.646,1095.891 L110.646,1013.703" fill="#E97132" fill-opacity="0.208"/><path d="M140.927,565 L540.315,565 A5,5 0 0 1 545.315,570 L545.315,649.859 L135.927,649.859 L135.927,570 A5,5 0 0 1 140.927,565" fill="#0F9ED5" fill-opacity="0.145"/><path d="M135.927,649.859 L545.315,649.859 L545.315,780.148 A5,5 0 0 1 540.315,785.148 L140.927,785.148 A5,5 0 0 1 135.927,780.148 L135.927,649.859" fill="#E97132" fill-opacity="0.208"/><g><title>GDA 1</title><rect x="148.427" y="123.594" width="8" height="1070.188" fill="#000" fill-opacity="0"/><line x1="151.927" y1="123.594" x2="151.927" y2="1193.781" style="stroke:#181818;stroke-width:0.5;stroke-dasharray:5,5;"/></g><g><title></title><rect x="146.927" y="197.023" width="10" height="996.758" fill="#156082" fill-opacity="0.502" style="stroke:#181818;stroke-width:1;"/></g><g><title>e-Med FA</title><rect x="414.714" y="123.594" width="8" height="1070.188" fill="#000" fill-opacity="0"/><line x1="418.214" y1="123.594" x2="418.214" y2="1193.781" style="stroke:#181818;stroke-width:0.5;stroke-dasharray:5,5;"/></g><g><title></title><rect x="413.214" y="197.023" width="10" height="903.867" fill="#E97232" fill-opacity="0.741" style="stroke:#181818;stroke-width:1;"/></g><text x="126.646" y="120.292" fill="#000" font-size="14" textLength="44.563" font-family="'Arial'">GDA 1</text><ellipse cx="151.927" cy="55.797" rx="8" ry="8" fill="#156082" fill-opacity="0.502" style="stroke:#181818;stroke-width:0.5;"/><path d="M151.927,63.797 L151.927,90.797 M138.927,71.797 L164.927,71.797 M151.927,90.797 L138.927,105.797 M151.927,90.797 L164.927,105.797" style="stroke:#181818;stroke-width:0.5;" fill="none"/><rect x="378.552" y="92.297" width="79.324" height="30.297" fill="#E97232" fill-opacity="0.741" style="stroke:#555;stroke-width:0.5;" rx="5" ry="5"/><text x="385.552" y="112.292" fill="#000" font-size="14" textLength="65.324" font-family="'Arial'">e-Med FA</text><text x="126.646" y="1206.776" fill="#000" font-size="14" textLength="44.563" font-family="'Arial'">GDA 1</text><ellipse cx="151.927" cy="1218.578" rx="8" ry="8" fill="#156082" fill-opacity="0.502" style="stroke:#181818;stroke-width:0.5;"/><path d="M151.927,1226.578 L151.927,1253.578 M138.927,1234.578 L164.927,1234.578 M151.927,1253.578 L138.927,1268.578 M151.927,1253.578 L164.927,1268.578" style="stroke:#181818;stroke-width:0.5;" fill="none"/><rect x="378.552" y="1193.781" width="79.324" height="30.297" fill="#E97232" fill-opacity="0.741" style="stroke:#555;stroke-width:0.5;" rx="5" ry="5"/><text x="385.552" y="1213.776" fill="#000" font-size="14" textLength="65.324" font-family="'Arial'">e-Med FA</text><rect x="10" y="152.742" width="839.92" height="3" fill="#EEE" style="stroke:#EEE;stroke-width:1;" rx="5" ry="5"/><line x1="10" y1="152.742" x2="849.92" y2="152.742" style="stroke:#000;stroke-width:1;"/><line x1="10" y1="155.742" x2="849.92" y2="155.742" style="stroke:#000;stroke-width:1;"/><rect x="291.601" y="141.594" width="276.719" height="24.297" fill="#EEE" style="stroke:#000;stroke-width:2;" rx="5" ry="5"/><text x="297.601" y="158.589" fill="#000" font-size="14" textLength="257.845" font-weight="700" font-family="'Arial'">Aktuellen Medikationsplan lesen</text><polygon points="401.214,193.023,411.214,197.023,401.214,201.023,405.214,197.023" fill="#111827" style="stroke:#111827;stroke-width:1;stroke-linejoin:miter;stroke-miterlimit:10;"/><line x1="156.927" y1="197.023" x2="407.214" y2="197.023" style="stroke:#111827;stroke-width:1;"/><text x="163.927" y="191.958" fill="#000" font-size="13" font-weight="700" font-family="'Arial'">1</text><text x="176.973" y="191.958" fill="#000" font-size="13" textLength="108.989" font-family="'Arial'">POST $plan-read</text><path d="M44.675,215.023 L44.675,247.023 A5,5 0 0 0 49.675,252.023 L253.675,252.023 A5,5 0 0 0 258.675,247.023 L258.675,220.023 L248.675,210.023 L49.675,210.023 A5,5 0 0 0 44.675,215.023" style="stroke:#8B95A5;stroke-width:1;" fill="url(#g1p3ajis101sjh0)"/><path d="M248.675,210.023 L248.675,217.523 A2.5,2.5 0 0 0 251.175,220.023 L258.675,220.023 L248.675,210.023" style="stroke:#8B95A5;stroke-width:1;" fill="url(#g1p3ajis101sjh0)"/><text x="50.675" y="228.019" fill="#111827" font-size="14" textLength="193.505" font-family="'Arial'">Abruf des Medikationsplans</text><text x="50.675" y="244.315" fill="#111827" font-size="14" textLength="112.492" font-family="'Arial'">zur Bearbeitung</text><line x1="423.214" y1="293.883" x2="465.214" y2="293.883" style="stroke:#111827;stroke-width:1;"/><line x1="465.214" y1="293.883" x2="465.214" y2="306.883" style="stroke:#111827;stroke-width:1;"/><line x1="424.214" y1="306.883" x2="465.214" y2="306.883" style="stroke:#111827;stroke-width:1;"/><polygon points="434.214,302.883,424.214,306.883,434.214,310.883,430.214,306.883" fill="#111827" style="stroke:#111827;stroke-width:1;stroke-linejoin:miter;stroke-miterlimit:10;"/><text x="430.214" y="281.25" fill="#000" font-size="13" font-weight="700" font-family="'Arial'">2</text><text x="443.26" y="273.684" fill="#000" font-size="13" textLength="160.799" font-family="'Arial'">Existiert ein persistierter</text><text x="443.26" y="288.817" fill="#000" font-size="13" textLength="113.217" font-family="'Arial'">Medikationsplan?</text><path d="M115.646,318.883 L418.043,318.883 L418.043,327.18 L408.043,337.18 L110.646,337.18 L110.646,323.883 A5,5 0 0 1 115.646,318.883" style="stroke:#111827;stroke-width:1.5;" fill="#EEF2FF"/><rect x="110.646" y="318.883" width="730.274" height="782.008" fill="none" style="stroke:#111827;stroke-width:2;" rx="5" ry="5"/><text x="125.646" y="332.878" fill="#000" font-size="14" textLength="257.523" font-weight="700" font-family="'Arial'">alt: Medikationsplan persistiert?</text><text x="433.043" y="333.878" fill="#000" font-size="14" textLength="391.877" font-weight="700" font-family="'Arial'">[ja: Planeinträge vorhanden (kein emptyReason)]</text><line x1="110.646" y1="810.148" x2="840.92" y2="810.148" style="stroke:#111827;stroke-width:1;stroke-dasharray:2,2;"/><text x="115.646" y="825.144" fill="#000" font-size="14" textLength="567.882" font-weight="700" font-family="'Arial'">[ja: leerer Medikationsplan (mit emptyReason = notstarted | nilknown)]</text><line x1="110.646" y1="1013.703" x2="840.92" y2="1013.703" style="stroke:#111827;stroke-width:1;stroke-dasharray:2,2;"/><text x="115.646" y="1028.698" fill="#000" font-size="14" textLength="313.934" font-weight="700" font-family="'Arial'">[nein: kein Medikationsplan persistiert]</text><line x1="423.214" y1="430.141" x2="465.214" y2="430.141" style="stroke:#111827;stroke-width:1;"/><line x1="465.214" y1="430.141" x2="465.214" y2="443.141" style="stroke:#111827;stroke-width:1;"/><line x1="424.214" y1="443.141" x2="465.214" y2="443.141" style="stroke:#111827;stroke-width:1;"/><polygon points="434.214,439.141,424.214,443.141,434.214,447.141,430.214,443.141" fill="#111827" style="stroke:#111827;stroke-width:1;stroke-linejoin:miter;stroke-miterlimit:10;"/><text x="430.214" y="394.809" fill="#000" font-size="13" font-weight="700" font-family="'Arial'">3</text><text x="443.26" y="364.543" fill="#000" font-size="13" textLength="147.342" font-family="'Arial'">Erzeugt Auslieferungs-</text><text x="443.26" y="379.676" fill="#000" font-size="13" textLength="113.693" font-family="'Arial'">Collection Bundle</text><text x="443.26" y="394.809" fill="#000" font-size="13" textLength="104.051" font-family="'Arial'">Transformation:</text><text x="443.26" y="409.942" fill="#000" font-size="13" textLength="187.897" font-family="'Arial'">- new|changed → unchanged</text><text x="443.26" y="425.075" fill="#000" font-size="13" textLength="286.527" font-family="'Arial'">- removed -> aus List und Bundle entfernen</text><path d="M276.693,461.141 L276.693,493.141 A5,5 0 0 0 281.693,498.141 L554.693,498.141 A5,5 0 0 0 559.693,493.141 L559.693,466.141 L549.693,456.141 L281.693,456.141 A5,5 0 0 0 276.693,461.141" style="stroke:#8B95A5;stroke-width:1;" fill="url(#g1p3ajis101sjh0)"/><path d="M549.693,456.141 L549.693,463.641 A2.5,2.5 0 0 0 552.193,466.141 L559.693,466.141 L549.693,456.141" style="stroke:#8B95A5;stroke-width:1;" fill="url(#g1p3ajis101sjh0)"/><text x="282.693" y="474.136" fill="#111827" font-size="14" textLength="234.685" font-family="'Arial'">Das persistierte Medikationsplan-</text><text x="282.693" y="490.433" fill="#111827" font-size="14" textLength="262.042" font-family="'Arial'">Collection Bundle bleibt unverändert.</text><line x1="423.214" y1="540" x2="465.214" y2="540" style="stroke:#111827;stroke-width:1;"/><line x1="465.214" y1="540" x2="465.214" y2="553" style="stroke:#111827;stroke-width:1;"/><line x1="424.214" y1="553" x2="465.214" y2="553" style="stroke:#111827;stroke-width:1;"/><polygon points="434.214,549,424.214,553,434.214,557,430.214,553" fill="#111827" style="stroke:#111827;stroke-width:1;stroke-linejoin:miter;stroke-miterlimit:10;"/><text x="430.214" y="527.368" fill="#000" font-size="13" font-weight="700" font-family="'Arial'">4</text><text x="443.26" y="519.801" fill="#000" font-size="13" textLength="193.61" font-family="'Arial'">Sind nach der Transformation</text><text x="443.26" y="534.934" fill="#000" font-size="13" textLength="174.427" font-family="'Arial'">Listeneinträge vorhanden?</text><path d="M140.927,565 L416.015,565 L416.015,573.297 L406.015,583.297 L135.927,583.297 L135.927,570 A5,5 0 0 1 140.927,565" style="stroke:#111827;stroke-width:1.5;" fill="#EEF2FF"/><rect x="135.927" y="565" width="409.388" height="220.148" fill="none" style="stroke:#111827;stroke-width:2;" rx="5" ry="5"/><text x="150.927" y="578.995" fill="#000" font-size="14" textLength="230.214" font-weight="700" font-family="'Arial'">alt: Planeinträge vorhanden?</text><text x="431.015" y="579.995" fill="#000" font-size="14" textLength="27.043" font-weight="700" font-family="'Arial'">[ja]</text><line x1="135.927" y1="649.859" x2="545.315" y2="649.859" style="stroke:#111827;stroke-width:1;stroke-dasharray:2,2;"/><text x="140.927" y="664.854" fill="#000" font-size="14" textLength="244.234" font-weight="700" font-family="'Arial'">[nein: Leerer Medikationsplan]</text><polygon points="167.927,626.859,157.927,630.859,167.927,634.859,163.927,630.859" fill="#111827" style="stroke:#111827;stroke-width:1;stroke-linejoin:miter;stroke-miterlimit:10;"/><line x1="161.927" y1="630.859" x2="412.214" y2="630.859" style="stroke:#111827;stroke-width:1;stroke-dasharray:2,2;"/><text x="173.927" y="618.227" fill="#000" font-size="13" font-weight="700" font-family="'Arial'">5</text><text x="186.973" y="610.661" fill="#000" font-size="13" textLength="206.934" font-family="'Arial'">Auslieferungs-Collection Bundle</text><text x="186.973" y="625.793" fill="#000" font-size="13" textLength="47.398" font-family="'Arial'">+ ETag</text><path d="M312.114,683.156 L312.114,715.156 A5,5 0 0 0 317.114,720.156 L519.114,720.156 A5,5 0 0 0 524.114,715.156 L524.114,688.156 L514.114,678.156 L317.114,678.156 A5,5 0 0 0 312.114,683.156" style="stroke:#8B95A5;stroke-width:1;" fill="url(#g1p3ajis101sjh0)"/><path d="M514.114,678.156 L514.114,685.656 A2.5,2.5 0 0 0 516.614,688.156 L524.114,688.156 L514.114,678.156" style="stroke:#8B95A5;stroke-width:1;" fill="url(#g1p3ajis101sjh0)"/><text x="318.114" y="696.151" fill="#111827" font-size="14" textLength="186.751" font-family="'Arial'">List.emptyReason wird auf</text><text x="318.114" y="712.448" fill="#111827" font-size="14" textLength="123.156" font-family="'Arial'">nilknown gesetzt.</text><polygon points="167.927,773.148,157.927,777.148,167.927,781.148,163.927,777.148" fill="#111827" style="stroke:#111827;stroke-width:1;stroke-linejoin:miter;stroke-miterlimit:10;"/><line x1="161.927" y1="777.148" x2="412.214" y2="777.148" style="stroke:#111827;stroke-width:1;"/><text x="173.927" y="756.95" fill="#000" font-size="13" font-weight="700" font-family="'Arial'">6</text><text x="186.973" y="741.817" fill="#000" font-size="13" textLength="206.934" font-family="'Arial'">Auslieferungs-Collection Bundle</text><text x="186.973" y="756.95" fill="#000" font-size="13" textLength="219.242" font-family="'Arial'">mit List.emptyReason = nilknown</text><text x="186.973" y="772.083" fill="#000" font-size="13" textLength="47.398" font-family="'Arial'">+ ETag</text><line x1="423.214" y1="869.711" x2="465.214" y2="869.711" style="stroke:#111827;stroke-width:1;"/><line x1="465.214" y1="869.711" x2="465.214" y2="882.711" style="stroke:#111827;stroke-width:1;"/><line x1="424.214" y1="882.711" x2="465.214" y2="882.711" style="stroke:#111827;stroke-width:1;"/><polygon points="434.214,878.711,424.214,882.711,434.214,886.711,430.214,882.711" fill="#111827" style="stroke:#111827;stroke-width:1;stroke-linejoin:miter;stroke-miterlimit:10;"/><text x="430.214" y="857.079" fill="#000" font-size="13" font-weight="700" font-family="'Arial'">7</text><text x="443.26" y="849.512" fill="#000" font-size="13" textLength="147.342" font-family="'Arial'">Erzeugt Auslieferungs-</text><text x="443.26" y="864.645" fill="#000" font-size="13" textLength="113.693" font-family="'Arial'">Collection Bundle</text><path d="M275.169,900.711 L275.169,932.711 A5,5 0 0 0 280.169,937.711 L556.169,937.711 A5,5 0 0 0 561.169,932.711 L561.169,905.711 L551.169,895.711 L280.169,895.711 A5,5 0 0 0 275.169,900.711" style="stroke:#8B95A5;stroke-width:1;" fill="url(#g1p3ajis101sjh0)"/><path d="M551.169,895.711 L551.169,903.211 A2.5,2.5 0 0 0 553.669,905.711 L561.169,905.711 L551.169,895.711" style="stroke:#8B95A5;stroke-width:1;" fill="url(#g1p3ajis101sjh0)"/><text x="281.169" y="913.706" fill="#111827" font-size="14" textLength="241.083" font-family="'Arial'">Keine Transformation erforderlich.</text><text x="281.169" y="930.003" fill="#111827" font-size="14" textLength="265.091" font-family="'Arial'">List.emptyReason bleibt unverändert.</text><polygon points="167.927,990.703,157.927,994.703,167.927,998.703,163.927,994.703" fill="#111827" style="stroke:#111827;stroke-width:1;stroke-linejoin:miter;stroke-miterlimit:10;"/><line x1="161.927" y1="994.703" x2="412.214" y2="994.703" style="stroke:#111827;stroke-width:1;"/><text x="173.927" y="974.504" fill="#000" font-size="13" font-weight="700" font-family="'Arial'">8</text><text x="186.973" y="959.372" fill="#000" font-size="13" textLength="206.934" font-family="'Arial'">Auslieferungs-Collection Bundle</text><text x="186.973" y="974.504" fill="#000" font-size="13" textLength="152.172" font-family="'Arial'">(mit List.emptyReason)</text><text x="186.973" y="989.637" fill="#000" font-size="13" textLength="47.398" font-family="'Arial'">+ ETag</text><rect x="128.646" y="1037" width="327.231" height="58.891" fill="none" style="stroke:#000;stroke-width:1.5;" rx="5" ry="5"/><path d="M133.646,1037 L195.646,1037 L195.646,1045 L185.646,1055 L128.646,1055 L128.646,1042 A5,5 0 0 1 133.646,1037" style="stroke:#000;stroke-width:2;" fill="#EEE"/><text x="141.646" y="1051.995" fill="#000" font-size="14" textLength="22.49" font-weight="700" font-family="'Arial'">ref</text><text x="189.377" y="1071.995" fill="#000" font-size="14" textLength="201.318" font-family="'Arial'">Siehe Sub_UC_eMed_05_03 -</text><text x="179.492" y="1088.292" fill="#000" font-size="14" textLength="225.538" font-family="'Arial'">Initial erstellter Medikationsplan</text><path d="M15,1124.891 L15,1172.891 A5,5 0 0 0 20,1177.891 L283,1177.891 A5,5 0 0 0 288,1172.891 L288,1129.891 L278,1119.891 L20,1119.891 A5,5 0 0 0 15,1124.891" style="stroke:#8B95A5;stroke-width:1;" fill="url(#g1p3ajis101sjh0)"/><path d="M278,1119.891 L278,1127.391 A2.5,2.5 0 0 0 280.5,1129.891 L288,1129.891 L278,1119.891" style="stroke:#8B95A5;stroke-width:1;" fill="url(#g1p3ajis101sjh0)"/><text x="21" y="1137.886" fill="#111827" font-size="14" textLength="154.854" font-family="'Arial'">Nachfolgend kann der</text><text x="21" y="1154.183" fill="#111827" font-size="14" textLength="248.404" font-family="'Arial'">Medikationsplan bearbeitet werden</text><text x="21" y="1170.479" fill="#111827" font-size="14" textLength="196.362" font-family="'Arial'">und ein Plan-Write erfolgen.</text><?plantuml-src fLRRRY9747tlhwYOIB6LOC5WZ45oBB3nPhLUWu1LfCGHQfWQw33qa9uUitOsh_i1-mtx9_id-P9KDxUUYwEDCdxnLDVKgNFgqcYXGuH-o6LvWDndxBju8UIAAxu4FjMH6kedSk1hZACbCdOudKJAHtKTXP62KiK-xYcVBcOgIgI_zGZgvi_nYEVSZzP2pY3WOOpEoVOp9L51rGtgOy2JKDz6Kj_p9S9HMmaU7XLx3CKpGlMi-F2bj7zwMg4AXLmu3jrkaSCxwTj_C9T-9thVvxvlc7cLjBtZQbQtZokfZ3J2dmoWarKFArWFAkMIN_MRU6uyt4WNasQTr_VMqLnC5nBZ6Afa6pXgLkXzbvk9uaXHhLOll0RPXfcw_ELc6ECV2Shf9ii-LrfCnOfBNKGixP3h1_kadVALoHtlgfewSEG6Q2iLhREah36jYpKL8UuFDbWrChsYp5SfZll8cwDSlJ3mB3ldomEyPqJzXjhHjCzrxwut6B-wQO-hG4-fMZ-lN7WNbG87ppeqpyyhZPkSGxyzUjsz7va8pVEETvPpQFTxO9zIvRRPlQatimxTjzsRyMsR7B3Py6hUnCywZ0VTNxhz4PIcVgrHytWpIwFt1b8ONZtdi641fTfPetRXds4MOp3e3Qn3jzcerhmQJOXTHB2HYCTmHFz1zSXLZgqEtG3u5dt3mxXYcLxWjdsKviWeQA8ZcImdg1Yxl8JsGYSOXYY1FX0BhaKaunNjHGWn9klb9MER3Ce_xX1QqEyDH_2jSIihipufK_78QOethcw6p4vtz8XR9gmzKKb0IodE8iRiEL7GGQucA7GYPmobRvS3Em3iIAPfxQnkZjtt8jO25GaZ9D3wYhVlg1va1lgACTF7gqCvUQXREKcS85Vmw--yPMyG2g_LbyypXCT8pJajI0d72mEAovL-elibZkJ9RpGLXMcgPqnc6jf970eCK17nkFmWQQ92d1fiwD20XVWWHuf42YArj2cr7cGP9Au_J0bpHjN---CdIEJspHmgN9Bkle7ZIGntb3ev-DjuW58Jd4H9cHsAjCkHZ3VKIQvkMJtAv9DB4oOXYea1ecXVFflhGfyQxhjQ5iim5EQSJ-VK6GhIJ1-aIHsBXBu2HW6BQlT2PMpTJ2sSD2WFsvgjJ14AIl0zT4TyPa6HRedKy1gu5jmXAcAGRHsBMAWosCASEhq2Qw5yAbcm_Kg42ncj9Sne8lMpLJEbPqhHhsMo53eFVBa7srFTF6nJGSOSrdQdcI48YoaV6uXCz4Z7cbOMDUM7FTJ99lh_cOsY3YRR6pGBDjrCW2gmzr8eflDJet1EXV_KmL-hzt6Hu2TEHx4N6ifkad_PH4OyXO6pOdyuA30KE4SO9fFnk-knDLVguqeDoeRuQoaq_P0aHMYwmb3dQxXbJU4DYe_PDSniJsGt_3sDSH25C_FfWajfHvfbAKosYnurh56PfSdCSZ9ixU_odvKmG6eJwNH_6Vm3?></g></svg>