<svg xmlns="http://www.w3.org/2000/svg" xmlns:xlink="http://www.w3.org/1999/xlink" contentStyleType="text/css" data-diagram-type="SEQUENCE" height="679px" preserveAspectRatio="none" style="width:966px;height:679px;background:#F5F5F5;" version="1.1" viewBox="0 0 966 679" width="966px" zoomAndPan="magnify"><?plantuml 1.2026.4beta2?><defs><linearGradient id="g1atawtjrcb0ts0" x1="50%" x2="50%" y1="0%" y2="100%"><stop offset="0%" stop-color="#E0E5F0"/><stop offset="100%" stop-color="#D1D9E6"/></linearGradient><filter height="300%" id="f1atawtjrcb0ts" width="300%" x="-1" y="-1"><feGaussianBlur result="blurOut" stdDeviation="2"/><feColorMatrix in="blurOut" result="blurOut2" type="matrix" values="0 0 0 0 0 0 0 0 0 0 0 0 0 0 0 0 0 0 .4 0"/><feOffset dx="4" dy="4" in="blurOut2" result="blurOut3"/><feBlend in="SourceGraphic" in2="blurOut3" mode="normal"/></filter></defs><g><rect fill="#F5F5F5" height="679" style="stroke:none;stroke-width:1;" width="966" x="0" y="0"/><g class="title" data-source-line="1"><text fill="#000000" font-family="'Arial'" font-size="14" font-weight="700" lengthAdjust="spacing" textLength="436.3994" x="261.6921" y="27.9951">Medikationsplaneintrag in Medikationsplan hinzuf&#252;gen</text></g><rect fill="#9FBAC4" height="629.5547" rx="5" ry="5" style="stroke:#181818;stroke-width:0.5;" width="74.0586" x="130" y="43.2969"/><text fill="#000000" font-family="'Arial'" font-size="14" font-weight="700" lengthAdjust="spacing" textLength="4.874" x="133" y="56.292">&#160;</text><text fill="#000000" font-family="'Arial'" font-size="14" font-weight="700" lengthAdjust="spacing" textLength="48.5625" x="142.748" y="72.5889">GDA 1</text><rect fill="#C48778" height="629.5547" rx="5" ry="5" style="stroke:#181818;stroke-width:0.5;" width="256.9268" x="437.0747" y="43.2969"/><text fill="#000000" font-family="'Arial'" font-size="14" font-weight="700" lengthAdjust="spacing" textLength="4.874" x="440.0747" y="56.292">&#160;</text><text fill="#000000" font-family="'Arial'" font-size="14" font-weight="700" lengthAdjust="spacing" textLength="182.6904" x="474.1929" y="72.5889">e-Med Fachanwendung</text><rect fill="#BEAEBE" height="629.5547" rx="5" ry="5" style="stroke:#181818;stroke-width:0.5;" width="83.8066" x="736.0015" y="43.2969"/><text fill="#000000" font-family="'Arial'" font-size="14" font-weight="700" lengthAdjust="spacing" textLength="4.874" x="739.0015" y="56.292">&#160;</text><text fill="#000000" font-family="'Arial'" font-size="14" font-weight="700" lengthAdjust="spacing" textLength="48.5625" x="758.4976" y="72.5889">GDA 2</text><rect fill="#BAC38B" height="629.5547" rx="5" ry="5" style="stroke:#181818;stroke-width:0.5;" width="77.9756" x="861.8081" y="43.2969"/><text fill="#000000" font-family="'Arial'" font-size="14" font-weight="700" lengthAdjust="spacing" textLength="4.874" x="864.8081" y="56.292">&#160;</text><text fill="#000000" font-family="'Arial'" font-size="14" font-weight="700" lengthAdjust="spacing" textLength="57.3535" x="869.6821" y="72.5889">Patient</text><g><title>GDA 1</title><rect fill="#FFFFFF" height="418.3672" style="stroke:#181818;stroke-width:1;" width="10" x="162.0293" y="166.1875"/></g><g class="participant-lifeline" data-entity-uid="part1" data-qualified-name="GDA_1" data-source-line="42" id="part1-lifeline"><g><title>GDA 1</title><rect fill="#000000" fill-opacity="0.00000" height="437.3672" width="8" x="163.0293" y="156.1875"/><line style="stroke:#181818;stroke-width:0.5;stroke-dasharray:5,5;" x1="166.7476" x2="166.7476" y1="156.1875" y2="593.5547"/></g></g><g class="participant-lifeline" data-entity-uid="part2" data-qualified-name="eMed_FA" data-source-line="46" id="part2-lifeline"><g><title>e-Med FA</title><rect fill="#000000" fill-opacity="0.00000" height="437.3672" width="8" x="561.5381" y="156.1875"/><line style="stroke:#181818;stroke-width:0.5;stroke-dasharray:5,5;" x1="564.876" x2="564.876" y1="156.1875" y2="593.5547"/></g></g><g class="participant-lifeline" data-entity-uid="part3" data-qualified-name="GDA_2" data-source-line="50" id="part3-lifeline"><g><title>GDA 2</title><rect fill="#000000" fill-opacity="0.00000" height="437.3672" width="8" x="773.9048" y="156.1875"/><line style="stroke:#181818;stroke-width:0.5;stroke-dasharray:5,5;" x1="777.623" x2="777.623" y1="156.1875" y2="593.5547"/></g></g><g class="participant-lifeline" data-entity-uid="part4" data-qualified-name="Patient" data-source-line="54" id="part4-lifeline"><g><title>Patient</title><rect fill="#000000" fill-opacity="0.00000" height="437.3672" width="8" x="896.7959" y="156.1875"/><line style="stroke:#181818;stroke-width:0.5;stroke-dasharray:5,5;" x1="900.1079" x2="900.1079" y1="156.1875" y2="593.5547"/></g></g><g class="participant participant-head" data-entity-uid="part1" data-qualified-name="GDA_1" data-source-line="42" id="part1-head"><text fill="#000000" font-family="'Arial'" font-size="14" lengthAdjust="spacing" textLength="44.5635" x="141.7476" y="152.8857">GDA 1</text><ellipse cx="167.0293" cy="88.3906" fill="#E2E2F0" rx="8" ry="8" style="stroke:#181818;stroke-width:0.5;"/><path d="M167.0293,96.3906 L167.0293,123.3906 M154.0293,104.3906 L180.0293,104.3906 M167.0293,123.3906 L154.0293,138.3906 M167.0293,123.3906 L180.0293,138.3906" fill="none" style="stroke:#181818;stroke-width:0.5;"/></g><g class="participant participant-tail" data-entity-uid="part1" data-qualified-name="GDA_1" data-source-line="42" id="part1-tail"><text fill="#000000" font-family="'Arial'" font-size="14" lengthAdjust="spacing" textLength="44.5635" x="141.7476" y="605.5498">GDA 1</text><ellipse cx="167.0293" cy="617.3516" fill="#E2E2F0" rx="8" ry="8" style="stroke:#181818;stroke-width:0.5;"/><path d="M167.0293,625.3516 L167.0293,652.3516 M154.0293,633.3516 L180.0293,633.3516 M167.0293,652.3516 L154.0293,667.3516 M167.0293,652.3516 L180.0293,667.3516" fill="none" style="stroke:#181818;stroke-width:0.5;"/></g><g class="participant participant-head" data-entity-uid="part2" data-qualified-name="eMed_FA" data-source-line="46" id="part2-head"><rect fill="#FFFFFF" height="30.2969" rx="5" ry="5" style="stroke:#555555;stroke-width:0.5;" width="79.3242" x="525.876" y="124.8906"/><text fill="#000000" font-family="'Arial'" font-size="14" lengthAdjust="spacing" textLength="65.3242" x="532.876" y="144.8857">e-Med FA</text></g><g class="participant participant-tail" data-entity-uid="part2" data-qualified-name="eMed_FA" data-source-line="46" id="part2-tail"><rect fill="#FFFFFF" height="30.2969" rx="5" ry="5" style="stroke:#555555;stroke-width:0.5;" width="79.3242" x="525.876" y="592.5547"/><text fill="#000000" font-family="'Arial'" font-size="14" lengthAdjust="spacing" textLength="65.3242" x="532.876" y="612.5498">e-Med FA</text></g><g class="participant participant-head" data-entity-uid="part3" data-qualified-name="GDA_2" data-source-line="50" id="part3-head"><text fill="#000000" font-family="'Arial'" font-size="14" lengthAdjust="spacing" textLength="44.5635" x="752.623" y="152.8857">GDA 2</text><ellipse cx="777.9048" cy="88.3906" fill="#E2E2F0" rx="8" ry="8" style="stroke:#181818;stroke-width:0.5;"/><path d="M777.9048,96.3906 L777.9048,123.3906 M764.9048,104.3906 L790.9048,104.3906 M777.9048,123.3906 L764.9048,138.3906 M777.9048,123.3906 L790.9048,138.3906" fill="none" style="stroke:#181818;stroke-width:0.5;"/></g><g class="participant participant-tail" data-entity-uid="part3" data-qualified-name="GDA_2" data-source-line="50" id="part3-tail"><text fill="#000000" font-family="'Arial'" font-size="14" lengthAdjust="spacing" textLength="44.5635" x="752.623" y="605.5498">GDA 2</text><ellipse cx="777.9048" cy="617.3516" fill="#E2E2F0" rx="8" ry="8" style="stroke:#181818;stroke-width:0.5;"/><path d="M777.9048,625.3516 L777.9048,652.3516 M764.9048,633.3516 L790.9048,633.3516 M777.9048,652.3516 L764.9048,667.3516 M777.9048,652.3516 L790.9048,667.3516" fill="none" style="stroke:#181818;stroke-width:0.5;"/></g><g class="participant participant-head" data-entity-uid="part4" data-qualified-name="Patient" data-source-line="54" id="part4-head"><text fill="#000000" font-family="'Arial'" font-size="14" lengthAdjust="spacing" textLength="49.376" x="873.1079" y="152.8857">Patient</text><ellipse cx="900.7959" cy="88.3906" fill="#E2E2F0" rx="8" ry="8" style="stroke:#181818;stroke-width:0.5;"/><path d="M900.7959,96.3906 L900.7959,123.3906 M887.7959,104.3906 L913.7959,104.3906 M900.7959,123.3906 L887.7959,138.3906 M900.7959,123.3906 L913.7959,138.3906" fill="none" style="stroke:#181818;stroke-width:0.5;"/></g><g class="participant participant-tail" data-entity-uid="part4" data-qualified-name="Patient" data-source-line="54" id="part4-tail"><text fill="#000000" font-family="'Arial'" font-size="14" lengthAdjust="spacing" textLength="49.376" x="873.1079" y="605.5498">Patient</text><ellipse cx="900.7959" cy="617.3516" fill="#E2E2F0" rx="8" ry="8" style="stroke:#181818;stroke-width:0.5;"/><path d="M900.7959,625.3516 L900.7959,652.3516 M887.7959,633.3516 L913.7959,633.3516 M900.7959,652.3516 L887.7959,667.3516 M900.7959,652.3516 L913.7959,667.3516" fill="none" style="stroke:#181818;stroke-width:0.5;"/></g><g><title>GDA 1</title><rect fill="#FFFFFF" height="418.3672" style="stroke:#181818;stroke-width:1;" width="10" x="162.0293" y="166.1875"/></g><rect fill="#EEEEEE" height="3" rx="5" ry="5" style="stroke:#EEEEEE;stroke-width:1;" width="960.7837" x="0" y="187.3359"/><line style="stroke:#000000;stroke-width:1;" x1="0" x2="960.7837" y1="187.3359" y2="187.3359"/><line style="stroke:#000000;stroke-width:1;" x1="0" x2="960.7837" y1="190.3359" y2="190.3359"/><rect fill="#EEEEEE" height="24.2969" rx="5" ry="5" style="stroke:#000000;stroke-width:2;" width="216.2891" x="372.2473" y="176.1875"/><text fill="#000000" font-family="'Arial'" font-size="14" font-weight="700" lengthAdjust="spacing" textLength="197.415" x="378.2473" y="193.1826">Medikationsplan abrufen</text><rect fill="none" height="42.5938" rx="5" ry="5" style="stroke:#000000;stroke-width:1.5;" width="469.4526" x="138.7476" y="210.4844"/><path d="M143.7476,210.4844 L205.7476,210.4844 L205.7476,218.4844 L195.7476,228.4844 L138.7476,228.4844 L138.7476,215.4844 A5,5 0 0 1 143.7476,210.4844" fill="#EEEEEE" style="stroke:#000000;stroke-width:2;"/><text fill="#000000" font-family="'Arial'" font-size="14" font-weight="700" lengthAdjust="spacing" textLength="22.4902" x="151.7476" y="225.4795">ref</text><a href="interactions.html#sequenzdiagramm-read-to-write-zugriff" target="_top" title="interactions.html#sequenzdiagramm-read-to-write-zugriff" xlink:actuate="onRequest" xlink:href="interactions.html#sequenzdiagramm-read-to-write-zugriff" xlink:show="new" xlink:title="interactions.html#sequenzdiagramm-read-to-write-zugriff" xlink:type="simple"><text fill="#0000EE" font-family="'Arial'" font-size="14" lengthAdjust="spacing" textLength="149.4609" x="298.7434" y="245.4795">Read-to-Write-Zugriff</text></a><path d="M5,268.0781 L5,300.0781 A5,5 0 0 0 10,305.0781 L321,305.0781 A5,5 0 0 0 326,300.0781 L326,273.0781 L316,263.0781 L10,263.0781 A5,5 0 0 0 5,268.0781" fill="url(#g1atawtjrcb0ts0)" filter="url(#f1atawtjrcb0ts)" style="stroke:#8B95A5;stroke-width:1;"/><path d="M316,263.0781 L316,270.5781 A2.5,2.5 0 0 0 318.5,273.0781 L326,273.0781 L316,263.0781" fill="url(#g1atawtjrcb0ts0)" style="stroke:#8B95A5;stroke-width:1;"/><text fill="#111827" font-family="'Arial'" font-size="14" lengthAdjust="spacing" textLength="296.0029" x="11" y="281.0732">GDA erh&#228;lt den aktuellen Medikationsplan</text><text fill="#111827" font-family="'Arial'" font-size="14" lengthAdjust="spacing" textLength="171.1309" x="11" y="297.3701">im Auslieferungs-Bundle</text><rect fill="#EEEEEE" height="3" rx="5" ry="5" style="stroke:#EEEEEE;stroke-width:1;" width="960.7837" x="0" y="334.8203"/><line style="stroke:#000000;stroke-width:1;" x1="0" x2="960.7837" y1="334.8203" y2="334.8203"/><line style="stroke:#000000;stroke-width:1;" x1="0" x2="960.7837" y1="337.8203" y2="337.8203"/><rect fill="#EEEEEE" height="24.2969" rx="5" ry="5" style="stroke:#000000;stroke-width:2;" width="363.8975" x="298.4431" y="323.6719"/><text fill="#000000" font-family="'Arial'" font-size="14" font-weight="700" lengthAdjust="spacing" textLength="345.0234" x="304.4431" y="340.667">Medikationsplan vorbereiten und schreiben</text><g class="message" data-entity-1="part1" data-entity-2="part1" data-source-line="74" id="msg1"><line style="stroke:#111827;stroke-width:1;" x1="172.0293" x2="214.0293" y1="379.1016" y2="379.1016"/><line style="stroke:#111827;stroke-width:1;" x1="214.0293" x2="214.0293" y1="379.1016" y2="392.1016"/><line style="stroke:#111827;stroke-width:1;" x1="173.0293" x2="214.0293" y1="392.1016" y2="392.1016"/><polygon fill="#111827" points="183.0293,388.1016,173.0293,392.1016,183.0293,396.1016,179.0293,392.1016" style="stroke:#111827;stroke-width:1;"/><text fill="#000000" font-family="'Arial'" font-size="13" font-weight="700" lengthAdjust="spacing" textLength="9.0454" x="179.0293" y="374.0356">1</text><text fill="#000000" font-family="'Arial'" font-size="13" lengthAdjust="spacing" textLength="181.3018" x="192.0747" y="374.0356">Neuen Planeintrag erstellen</text></g><g class="message" data-entity-1="part1" data-entity-2="part1" data-source-line="75" id="msg2"><line style="stroke:#111827;stroke-width:1;" x1="172.0293" x2="214.0293" y1="436.3672" y2="436.3672"/><line style="stroke:#111827;stroke-width:1;" x1="214.0293" x2="214.0293" y1="436.3672" y2="449.3672"/><line style="stroke:#111827;stroke-width:1;" x1="173.0293" x2="214.0293" y1="449.3672" y2="449.3672"/><polygon fill="#111827" points="183.0293,445.3672,173.0293,449.3672,183.0293,453.3672,179.0293,449.3672" style="stroke:#111827;stroke-width:1;"/><text fill="#000000" font-family="'Arial'" font-size="13" font-weight="700" lengthAdjust="spacing" textLength="9.0454" x="179.0293" y="423.7349">2</text><text fill="#000000" font-family="'Arial'" font-size="13" lengthAdjust="spacing" textLength="193.5718" x="192.0747" y="416.1685">Planeintrag mit List.entry.flag</text><text fill="#000000" font-family="'Arial'" font-size="13" lengthAdjust="spacing" textLength="258.9146" x="192.0747" y="431.3013">"new" dem Medikationsplan hinzuf&#252;gen</text></g><path d="M31,467.3672 L31,483.3672 A5,5 0 0 0 36,488.3672 L294,488.3672 A5,5 0 0 0 299,483.3672 L299,472.3672 L289,462.3672 L36,462.3672 A5,5 0 0 0 31,467.3672" fill="url(#g1atawtjrcb0ts0)" filter="url(#f1atawtjrcb0ts)" style="stroke:#8B95A5;stroke-width:1;"/><path d="M289,462.3672 L289,469.8672 A2.5,2.5 0 0 0 291.5,472.3672 L299,472.3672 L289,462.3672" fill="url(#g1atawtjrcb0ts0)" style="stroke:#8B95A5;stroke-width:1;"/><text fill="#111827" font-family="'Arial'" font-size="14" lengthAdjust="spacing" textLength="247.0645" x="37" y="480.3623">Medikationsplaneintrag hinzuf&#252;gen</text><rect fill="none" height="42.5938" rx="5" ry="5" style="stroke:#000000;stroke-width:1.5;" width="469.4526" x="138.7476" y="496.6641"/><path d="M143.7476,496.6641 L205.7476,496.6641 L205.7476,504.6641 L195.7476,514.6641 L138.7476,514.6641 L138.7476,501.6641 A5,5 0 0 1 143.7476,496.6641" fill="#EEEEEE" style="stroke:#000000;stroke-width:2;"/><text fill="#000000" font-family="'Arial'" font-size="14" font-weight="700" lengthAdjust="spacing" textLength="22.4902" x="151.7476" y="511.6592">ref</text><a href="interactions.html#write-zugriff" target="_top" title="interactions.html#write-zugriff" xlink:actuate="onRequest" xlink:href="interactions.html#write-zugriff" xlink:show="new" xlink:title="interactions.html#write-zugriff" xlink:type="simple"><text fill="#0000EE" font-family="'Arial'" font-size="14" lengthAdjust="spacing" textLength="89.4961" x="328.7258" y="531.6592">Write-Zugriff</text></a><path d="M429,554.2578 L429,570.2578 A5,5 0 0 0 434,575.2578 L693,575.2578 A5,5 0 0 0 698,570.2578 L698,559.2578 L688,549.2578 L434,549.2578 A5,5 0 0 0 429,554.2578" fill="url(#g1atawtjrcb0ts0)" filter="url(#f1atawtjrcb0ts)" style="stroke:#8B95A5;stroke-width:1;"/><path d="M688,549.2578 L688,556.7578 A2.5,2.5 0 0 0 690.5,559.2578 L698,559.2578 L688,549.2578" fill="url(#g1atawtjrcb0ts0)" style="stroke:#8B95A5;stroke-width:1;"/><text fill="#111827" font-family="'Arial'" font-size="14" lengthAdjust="spacing" textLength="248.3359" x="435" y="567.2529">Neuer Medikationsplan gespeichert</text><?plantuml-src bLN1Rfj04BtlLupmjKJ1YHidaYivQT8UsiXAMbLg4aKB3B0oBEwon8ch_aq_exVyM8U5uCNGI5qkCFDcTjwRtK4BdI9ynb0ikHQvB5OfboYaLZm68NSza0YvAQFdFp5ALYo5N775C_1p5Q8wozDSmMZVBDlBWsMiybA63IAQL8-5A18UvciXOuXuMg3bQSAKH0MUdJJ4Y9UfliYblkGPWZDNWgVECE9QR12yms5djsmB8tEDy9C1dEuIm7sSHFlkAFJ2OtnR8Mm1flxnX4zQwvT414k9HG4UsQuiGbFwNl0mh8XNMQngFC-RZe_8TjrAerM9x9TTuCUd5QfKoAL5uVny2F1LXkO56u5jxV57YJAecIwuqY8GAovrXzB4h1r0hwrcTK5zWNlkb-Pq72-oZAk0kLBvUbSOO-ngQqn3ExQEUgy3CdsWobSTZctcsjNhEKPZmywAt6u_xdRcD7-q67JiGxeoFty4vrPIylTpy00S61r7T6ygLNYW2KgEUmzu0Ow1E0nbIFVkqOer2rswid31WuJBDM5AAg5UbFFiS7fqL9swrLPfG0gulvYRt4tqV3XzjVFO9FAHeu-TuiPjSUE1w0ND4AJDJ30F3gP-6_pYgiARToi1uwNEPPdvg1W3DflrHXBtLHcXXDcCm84M3vokhP6BCOKHv0_OoFUcvNe2DpSqv51L0PHeBz5PEgglmYOKFAPcPQv27hewTzTAQ7GtPQn45C5LO_rchDzhwzqTOsPUR7TZbHQeakVVgQPvGuKkTObfYlsfoaG6yx981KQeg6E5Uqe7ZmQpqQ7AouQOF-IAP44gGmBXeGWI-l8RBUeJuxwhgpc1IoHoiB3cEwf2cu9wM1kL2GsVHA7tg37gQIzAUNmh7ObhXrXbh_uXUfByuqTZnsmP_r_pkarwfJbD6bRfeNhbnrYiK0G9AjsMyXS0?></g></svg>