<svg xmlns="http://www.w3.org/2000/svg" xmlns:xlink="http://www.w3.org/1999/xlink" version="1.1" data-diagram-type="ACTIVITY" style="width:827px;height:616px;background:#F5F5F5;" width="827px" height="616px" viewBox="0 0 827 616" zoomAndPan="magnify" preserveAspectRatio="none" contentStyleType="text/css"><?plantuml 1.2026.7beta8?><defs><linearGradient x1="50%" y1="0%" x2="50%" y2="100%" id="gigkou860xhwq0"><stop stop-color="#E0E5F0" offset="0%"/><stop stop-color="#D1D9E6" offset="100%"/></linearGradient></defs><g font-family="sans-serif" lengthAdjust="spacing"><rect x="0" y="0" width="827" height="616" fill="#F5F5F5" style="stroke:none;"/><g class="title" data-source-line="1"><text x="97.819" y="32.995" fill="#000" font-size="14" textLength="629.754" font-weight="700" font-family="'Arial'">Prüfung des Planzustands und Erzeugung des Auslieferungs-Collection-Bundles</text></g><ellipse cx="357.698" cy="62.297" rx="10" ry="10" fill="#111827" style="stroke:#222;stroke-width:1;"/><polygon points="300.45,92.297,414.945,92.297,426.945,108.594,414.945,124.891,300.45,124.891,288.45,108.594,300.45,92.297" fill="#EEF2FF" style="stroke:#111827;stroke-width:1;stroke-linejoin:miter;stroke-miterlimit:10;"/><text x="300.45" y="105.292" fill="#000" font-size="14" textLength="114.495" font-family="'Arial'">Medikationsplan</text><text x="300.45" y="121.589" fill="#000" font-size="14" textLength="82.735" font-family="'Arial'">vorhanden?</text><text x="256.601" y="105.292" fill="#000" font-size="14" textLength="31.849" font-family="'Arial'">Nein</text><text x="426.945" y="105.292" fill="#000" font-size="14" textLength="12.708" font-family="'Arial'">Ja</text><path d="M197.668,134.891 L197.668,160.336 L177.668,164.336 L197.668,168.336 L197.668,193.781 A0,0 0 0 0 197.668,193.781 L393.839,193.781 A0,0 0 0 0 393.839,193.781 L393.839,144.891 L383.839,134.891 L197.668,134.891 A0,0 0 0 0 197.668,134.891" style="stroke:#8B95A5;stroke-width:1;" fill="url(#gigkou860xhwq0)"/><path d="M383.839,134.891 L383.839,144.891 L393.839,144.891 L383.839,134.891" style="stroke:#8B95A5;stroke-width:1;" fill="url(#gigkou860xhwq0)"/><text x="203.668" y="152.886" fill="#111827" font-size="14" textLength="175.171" font-family="'Arial'">Initialen Medikationsplan</text><text x="203.668" y="169.183" fill="#111827" font-size="14" textLength="61.031" font-family="'Arial'">erstellen</text><text x="203.668" y="185.479" fill="#111827" font-size="14" textLength="159.414" font-family="'Arial'">(Sub_UC_eMed_01_03)</text><rect x="16" y="138.039" width="161.668" height="52.594" fill="#FFF" style="stroke:#555;stroke-width:1;" rx="5" ry="5"/><text x="26" y="161.034" fill="#000" font-size="14" textLength="141.668" font-family="'Arial'">List.emptyReason =</text><text x="26" y="177.331" fill="#000" font-size="14" textLength="73.035" font-family="'Arial'">notstarted</text><polygon points="574.319,134.891,662.803,134.891,674.803,151.188,662.803,167.484,574.319,167.484,562.319,151.188,574.319,134.891" fill="#EEF2FF" style="stroke:#111827;stroke-width:1;stroke-linejoin:miter;stroke-miterlimit:10;"/><text x="574.319" y="147.886" fill="#000" font-size="14" textLength="88.484" font-family="'Arial'">Planeinträge</text><text x="574.319" y="164.183" fill="#000" font-size="14" textLength="82.735" font-family="'Arial'">vorhanden?</text><text x="549.611" y="147.886" fill="#000" font-size="14" textLength="12.708" font-family="'Arial'">Ja</text><text x="674.803" y="147.886" fill="#000" font-size="14" textLength="31.849" font-family="'Arial'">Nein</text><rect x="442.261" y="177.484" width="144.824" height="52.594" fill="#FFF" style="stroke:#555;stroke-width:1;" rx="5" ry="5"/><text x="452.261" y="200.479" fill="#000" font-size="14" textLength="124.824" font-family="'Arial'">Transformationen</text><text x="452.261" y="216.776" fill="#000" font-size="14" textLength="86.003" font-family="'Arial'">durchführen</text><rect x="433.839" y="308.82" width="161.668" height="52.594" fill="#FFF" style="stroke:#555;stroke-width:1;" rx="5" ry="5"/><text x="443.839" y="331.815" fill="#000" font-size="14" textLength="141.668" font-family="'Arial'">List.emptyReason =</text><text x="443.839" y="348.112" fill="#000" font-size="14" textLength="62.521" font-family="'Arial'">nilknown</text><polygon points="451.201,250.078,578.145,250.078,590.145,266.375,578.145,282.672,451.201,282.672,439.201,266.375,451.201,250.078" fill="#EEF2FF" style="stroke:#111827;stroke-width:1;stroke-linejoin:miter;stroke-miterlimit:10;"/><text x="518.673" y="295.667" fill="#000" font-size="14" textLength="31.849" font-family="'Arial'">Nein</text><text x="451.201" y="263.073" fill="#000" font-size="14" textLength="126.943" font-family="'Arial'">noch Planeinträge</text><text x="451.201" y="279.37" fill="#000" font-size="14" textLength="82.735" font-family="'Arial'">vorhanden?</text><text x="590.145" y="263.073" fill="#000" font-size="14" textLength="12.708" font-family="'Arial'">Ja</text><polygon points="514.673,381.414,526.673,393.414,514.673,405.414,502.673,393.414,514.673,381.414" fill="#EEF2FF" style="stroke:#111827;stroke-width:1;stroke-linejoin:miter;stroke-miterlimit:10;"/><rect x="637.507" y="177.484" width="169.885" height="36.297" fill="#FFF" style="stroke:#555;stroke-width:1;" rx="5" ry="5"/><text x="647.507" y="200.479" fill="#000" font-size="14" textLength="149.885" font-family="'Arial'">keine Transformation</text><polygon points="618.561,411.414,630.561,423.414,618.561,435.414,606.561,423.414,618.561,411.414" fill="#EEF2FF" style="stroke:#111827;stroke-width:1;stroke-linejoin:miter;stroke-miterlimit:10;"/><polygon points="357.698,441.414,369.698,453.414,357.698,465.414,345.698,453.414,357.698,441.414" fill="#EEF2FF" style="stroke:#111827;stroke-width:1;stroke-linejoin:miter;stroke-miterlimit:10;"/><rect x="286.478" y="485.414" width="142.438" height="68.891" fill="#FFF" style="stroke:#555;stroke-width:1;" rx="5" ry="5"/><text x="296.478" y="508.409" fill="#000" font-size="14" textLength="122.438" font-family="'Arial'">Collection Bundle</text><text x="296.478" y="524.706" fill="#000" font-size="14" textLength="114.495" font-family="'Arial'">zur Auslieferung</text><text x="296.478" y="541.003" fill="#000" font-size="14" textLength="65.577" font-family="'Arial'">erzeugen</text><ellipse cx="357.698" cy="585.305" rx="11" ry="11" fill="none" style="stroke:#222;stroke-width:1;"/><ellipse cx="357.698" cy="585.305" rx="6" ry="6" fill="#222" style="stroke:#222;stroke-width:1;"/><line x1="514.673" y1="282.672" x2="514.673" y2="308.82" style="stroke:#111827;stroke-width:1;"/><polygon points="510.673,298.82,514.673,308.82,518.673,298.82,514.673,302.82" fill="#111827" style="stroke:#111827;stroke-width:1;stroke-linejoin:miter;stroke-miterlimit:10;"/><line x1="590.145" y1="266.375" x2="605.507" y2="266.375" style="stroke:#111827;stroke-width:1;"/><polygon points="601.507,322.969,605.507,332.969,609.507,322.969,605.507,326.969" fill="#111827" style="stroke:#111827;stroke-width:1;stroke-linejoin:miter;stroke-miterlimit:10;"/><line x1="605.507" y1="266.375" x2="605.507" y2="393.414" style="stroke:#111827;stroke-width:1;"/><line x1="605.507" y1="393.414" x2="526.673" y2="393.414" style="stroke:#111827;stroke-width:1;"/><polygon points="536.673,389.414,526.673,393.414,536.673,397.414,532.673,393.414" fill="#111827" style="stroke:#111827;stroke-width:1;stroke-linejoin:miter;stroke-miterlimit:10;"/><line x1="514.673" y1="361.414" x2="514.673" y2="381.414" style="stroke:#111827;stroke-width:1;"/><polygon points="510.673,371.414,514.673,381.414,518.673,371.414,514.673,375.414" fill="#111827" style="stroke:#111827;stroke-width:1;stroke-linejoin:miter;stroke-miterlimit:10;"/><line x1="514.673" y1="230.078" x2="514.673" y2="250.078" style="stroke:#111827;stroke-width:1;"/><polygon points="510.673,240.078,514.673,250.078,518.673,240.078,514.673,244.078" fill="#111827" style="stroke:#111827;stroke-width:1;stroke-linejoin:miter;stroke-miterlimit:10;"/><line x1="562.319" y1="151.188" x2="514.673" y2="151.188" style="stroke:#111827;stroke-width:1;"/><line x1="514.673" y1="151.188" x2="514.673" y2="177.484" style="stroke:#111827;stroke-width:1;"/><polygon points="510.673,167.484,514.673,177.484,518.673,167.484,514.673,171.484" fill="#111827" style="stroke:#111827;stroke-width:1;stroke-linejoin:miter;stroke-miterlimit:10;"/><line x1="674.803" y1="151.188" x2="722.449" y2="151.188" style="stroke:#111827;stroke-width:1;"/><line x1="722.449" y1="151.188" x2="722.449" y2="177.484" style="stroke:#111827;stroke-width:1;"/><polygon points="718.449,167.484,722.449,177.484,726.449,167.484,722.449,171.484" fill="#111827" style="stroke:#111827;stroke-width:1;stroke-linejoin:miter;stroke-miterlimit:10;"/><line x1="514.673" y1="405.414" x2="514.673" y2="423.414" style="stroke:#111827;stroke-width:1;"/><line x1="514.673" y1="423.414" x2="606.561" y2="423.414" style="stroke:#111827;stroke-width:1;"/><polygon points="596.561,419.414,606.561,423.414,596.561,427.414,600.561,423.414" fill="#111827" style="stroke:#111827;stroke-width:1;stroke-linejoin:miter;stroke-miterlimit:10;"/><line x1="722.449" y1="213.781" x2="722.449" y2="423.414" style="stroke:#111827;stroke-width:1;"/><line x1="722.449" y1="423.414" x2="630.561" y2="423.414" style="stroke:#111827;stroke-width:1;"/><polygon points="640.561,419.414,630.561,423.414,640.561,427.414,636.561,423.414" fill="#111827" style="stroke:#111827;stroke-width:1;stroke-linejoin:miter;stroke-miterlimit:10;"/><line x1="288.45" y1="108.594" x2="96.834" y2="108.594" style="stroke:#111827;stroke-width:1;"/><line x1="96.834" y1="108.594" x2="96.834" y2="138.039" style="stroke:#111827;stroke-width:1;"/><polygon points="92.834,128.039,96.834,138.039,100.834,128.039,96.834,132.039" fill="#111827" style="stroke:#111827;stroke-width:1;stroke-linejoin:miter;stroke-miterlimit:10;"/><line x1="426.945" y1="108.594" x2="618.561" y2="108.594" style="stroke:#111827;stroke-width:1;"/><line x1="618.561" y1="108.594" x2="618.561" y2="134.891" style="stroke:#111827;stroke-width:1;"/><polygon points="614.561,124.891,618.561,134.891,622.561,124.891,618.561,128.891" fill="#111827" style="stroke:#111827;stroke-width:1;stroke-linejoin:miter;stroke-miterlimit:10;"/><line x1="96.834" y1="190.633" x2="96.834" y2="453.414" style="stroke:#111827;stroke-width:1;"/><line x1="96.834" y1="453.414" x2="345.698" y2="453.414" style="stroke:#111827;stroke-width:1;"/><polygon points="335.698,449.414,345.698,453.414,335.698,457.414,339.698,453.414" fill="#111827" style="stroke:#111827;stroke-width:1;stroke-linejoin:miter;stroke-miterlimit:10;"/><line x1="618.561" y1="435.414" x2="618.561" y2="453.414" style="stroke:#111827;stroke-width:1;"/><line x1="618.561" y1="453.414" x2="369.698" y2="453.414" style="stroke:#111827;stroke-width:1;"/><polygon points="379.698,449.414,369.698,453.414,379.698,457.414,375.698,453.414" fill="#111827" style="stroke:#111827;stroke-width:1;stroke-linejoin:miter;stroke-miterlimit:10;"/><line x1="357.698" y1="72.297" x2="357.698" y2="92.297" style="stroke:#111827;stroke-width:1;"/><polygon points="353.698,82.297,357.698,92.297,361.698,82.297,357.698,86.297" fill="#111827" style="stroke:#111827;stroke-width:1;stroke-linejoin:miter;stroke-miterlimit:10;"/><line x1="357.698" y1="465.414" x2="357.698" y2="485.414" style="stroke:#111827;stroke-width:1;"/><polygon points="353.698,475.414,357.698,485.414,361.698,475.414,357.698,479.414" fill="#111827" style="stroke:#111827;stroke-width:1;stroke-linejoin:miter;stroke-miterlimit:10;"/><line x1="357.698" y1="554.305" x2="357.698" y2="574.305" style="stroke:#111827;stroke-width:1;"/><polygon points="353.698,564.305,357.698,574.305,361.698,564.305,357.698,568.305" fill="#111827" style="stroke:#111827;stroke-width:1;stroke-linejoin:miter;stroke-miterlimit:10;"/><?plantuml-src ZLJ1RXen4BtlLuoI2nnIxQQbJOYgAgHKRTL6A2Gt96JmcBLsiP7j3OMgVzFFo8qVwzWirC1MgZcmddb-ysRi6ITTYJ0mcnTHgHbmj30ecLfNrZ75BLIAGz-iiPhjtBULBIKAD6Im5tUwB77gf5ONFSAMQ9F45b8jc65pc6Z3qH166pXFmugzR5hCZAPZDK9q_2z2s9nnlPGKMR3IOkIfZnc51hAObADWLUa-QUNksHpXxDP8Lfur8uPoZP2zQNR-I_RdrG9DALKH0Vhz9i2Juk43J-Jtz8y1uzndTfaUsdjnpJfXnILLsY7yJ01wnzN353iYlJZd6R_6jnuHCrrDhZkiixS-vd9QABGMCh8zHDLCQR_JvbcYKcHPTdNvZcp3etlv5Ijaz1oUfLirgnHX7QkhysnMTtePMzlkzW0-IZRNYf-M1CLb2BO3n37tsTJEfZ13nyn9zlqz_zvqQunUDXhZL7oPF66II06jxyXbmNphs0Mrt4WzQvDJqw7wq0QNeuBMFKhLJeYg-qrQzmhd2xTwG6QrWlSZHKyXq26_yPZmCeoSvOus05-KTFJoYUOeKF2YiGwfTRUxrh2QZ9_knaZGSPgDqzTjiYFrlYTD4gHBXjPN5hHuxNv6a3PdDhzdsAIynfBoHyEK5ThCWmAaF7bbfhdOlEG6rSqMvJcLdkRm_yHRJViAXLYDLP9beVHo5ucIai9_dfpl5kXRzL1lE5MVgV-wVsSUR6VUYEQbEHYC8-eaFpH3WjRfnHy0?></g></svg>