<?xml version="1.0" encoding="us-ascii" standalone="no"?><svg xmlns="http://www.w3.org/2000/svg" xmlns:xlink="http://www.w3.org/1999/xlink" contentStyleType="text/css" height="516px" preserveAspectRatio="none" style="width:670px;height:516px;background:#F5F5F5;" version="1.1" viewBox="0 0 670 516" width="670px" zoomAndPan="magnify"><defs><linearGradient id="g1mt0aemgq233k0" x1="50%" x2="50%" y1="0%" y2="100%"><stop offset="0%" stop-color="#E0E5F0"/><stop offset="100%" stop-color="#D1D9E6"/></linearGradient></defs><g><rect fill="#F5F5F5" height="516" style="stroke:none;stroke-width:1.0;" width="670" x="0" y="0"/><text fill="#000000" font-family="Arial" font-size="14" font-weight="bold" lengthAdjust="spacing" textLength="227" x="217.5" y="28.1318">Initial erstellter Medikationsplan</text><rect fill="#156082" fill-opacity="0.50196" height="224.8384" style="stroke:#181818;stroke-width:1.0;" width="10" x="103" y="193.2446"/><rect fill="#E97232" fill-opacity="0.74118" height="224.8384" style="stroke:#181818;stroke-width:1.0;" width="10" x="345" y="193.2446"/><line style="stroke:#181818;stroke-width:0.5;stroke-dasharray:5.0,5.0;" x1="108" x2="108" y1="118.1973" y2="436.083"/><line style="stroke:#181818;stroke-width:0.5;stroke-dasharray:5.0,5.0;" x1="350" x2="350" y1="118.1973" y2="436.083"/><text fill="#000000" font-family="Arial" font-size="14" lengthAdjust="spacing" textLength="42" x="84" y="115.2305">GDA 1</text><ellipse cx="108" cy="50.5986" fill="#156082" fill-opacity="0.50196" rx="8" ry="8" style="stroke:#181818;stroke-width:0.5;"/><path d="M108,58.5986 L108,85.5986 M95,66.5986 L121,66.5986 M108,85.5986 L95,100.5986 M108,85.5986 L121,100.5986 " fill="none" style="stroke:#181818;stroke-width:0.5;"/><text fill="#000000" font-family="Arial" font-size="14" lengthAdjust="spacing" textLength="42" x="84" y="448.2148">GDA 1</text><ellipse cx="108" cy="459.6816" fill="#156082" fill-opacity="0.50196" rx="8" ry="8" style="stroke:#181818;stroke-width:0.5;"/><path d="M108,467.6816 L108,494.6816 M95,475.6816 L121,475.6816 M108,494.6816 L95,509.6816 M108,494.6816 L121,509.6816 " fill="none" style="stroke:#181818;stroke-width:0.5;"/><rect fill="#E97232" fill-opacity="0.74118" height="30.0986" rx="5" ry="5" style="stroke:#555555;stroke-width:0.5;" width="76" x="312" y="87.0986"/><text fill="#000000" font-family="Arial" font-size="14" lengthAdjust="spacing" textLength="62" x="319" y="107.2305">e-Med FA</text><rect fill="#E97232" fill-opacity="0.74118" height="30.0986" rx="5" ry="5" style="stroke:#555555;stroke-width:0.5;" width="76" x="312" y="435.083"/><text fill="#000000" font-family="Arial" font-size="14" lengthAdjust="spacing" textLength="62" x="319" y="455.2148">e-Med FA</text><rect fill="#156082" fill-opacity="0.50196" height="224.8384" style="stroke:#181818;stroke-width:1.0;" width="10" x="103" y="193.2446"/><rect fill="#E97232" fill-opacity="0.74118" height="224.8384" style="stroke:#181818;stroke-width:1.0;" width="10" x="345" y="193.2446"/><rect fill="#EEEEEE" height="3" rx="5" ry="5" style="stroke:#EEEEEE;stroke-width:1.0;" width="663" x="0" y="149.2466"/><line style="stroke:#000000;stroke-width:1.0;" x1="0" x2="663" y1="149.2466" y2="149.2466"/><line style="stroke:#000000;stroke-width:1.0;" x1="0" x2="663" y1="152.2466" y2="152.2466"/><rect fill="#EEEEEE" height="24.0986" rx="5" ry="5" style="stroke:#000000;stroke-width:2.0;" width="114" x="274.5" y="138.1973"/><text fill="#000000" font-family="Arial" font-size="14" font-weight="bold" lengthAdjust="spacing" textLength="96" x="280.5" y="155.3291">Initialisierung</text><polygon fill="#111827" points="333,189.2446,343,193.2446,333,197.2446,337,193.2446" style="stroke:#111827;stroke-width:1.0;"/><line style="stroke:#111827;stroke-width:1.0;" x1="113" x2="339" y1="193.2446" y2="193.2446"/><text fill="#000000" font-family="Arial" font-size="13" font-weight="bold" lengthAdjust="spacing" textLength="7" x="120" y="188.4897">1</text><text fill="#000000" font-family="Arial" font-size="13" lengthAdjust="spacing" textLength="99" x="131" y="188.4897">POST $plan-read</text><path d="M5,211.2446 L5,243.2446 A5,5 0 0 0 10,248.2446 L206,248.2446 A5,5 0 0 0 211,243.2446 L211,216.2446 L201,206.2446 L10,206.2446 A5,5 0 0 0 5,211.2446 " fill="url(#g1mt0aemgq233k0)" style="stroke:#8B95A5;stroke-width:1.0;"/><path d="M201,206.2446 L201,213.7446 A2.5,2.5 0 0 0 203.5,216.2446 L211,216.2446 L201,206.2446 " fill="url(#g1mt0aemgq233k0)" style="stroke:#8B95A5;stroke-width:1.0;"/><text fill="#111827" font-family="Arial" font-size="14" lengthAdjust="spacing" textLength="159" x="11" y="224.3765">Medikationsplan abrufen,</text><text fill="#111827" font-family="Arial" font-size="14" lengthAdjust="spacing" textLength="185" x="11" y="240.4751">mit der Intention zu schreiben</text><line style="stroke:#111827;stroke-width:1.0;" x1="355" x2="397" y1="289.3394" y2="289.3394"/><line style="stroke:#111827;stroke-width:1.0;" x1="397" x2="397" y1="289.3394" y2="302.3394"/><line style="stroke:#111827;stroke-width:1.0;" x1="356" x2="397" y1="302.3394" y2="302.3394"/><polygon fill="#111827" points="366,298.3394,356,302.3394,366,306.3394,362,302.3394" style="stroke:#111827;stroke-width:1.0;"/><text fill="#000000" font-family="Arial" font-size="13" font-weight="bold" lengthAdjust="spacing" textLength="7" x="362" y="277.1101">2</text><text fill="#000000" font-family="Arial" font-size="13" lengthAdjust="spacing" textLength="143" x="373" y="269.6357">Pr&#252;fung auf bestehenden</text><text fill="#000000" font-family="Arial" font-size="13" lengthAdjust="spacing" textLength="94" x="373" y="284.5845">Medikationsplan</text><line style="stroke:#111827;stroke-width:1.0;" x1="355" x2="397" y1="361.1855" y2="361.1855"/><line style="stroke:#111827;stroke-width:1.0;" x1="397" x2="397" y1="361.1855" y2="374.1855"/><line style="stroke:#111827;stroke-width:1.0;" x1="356" x2="397" y1="374.1855" y2="374.1855"/><polygon fill="#111827" points="366,370.1855,356,374.1855,366,378.1855,362,374.1855" style="stroke:#111827;stroke-width:1.0;"/><text fill="#000000" font-family="Arial" font-size="13" font-weight="bold" lengthAdjust="spacing" textLength="7" x="362" y="341.4819">3</text><text fill="#000000" font-family="Arial" font-size="13" lengthAdjust="spacing" textLength="122" x="373" y="326.5332">Kein Plan vorhanden:</text><text fill="#000000" font-family="Arial" font-size="13" lengthAdjust="spacing" textLength="278" x="373" y="341.4819">Fachanwendung erzeugt leeren Medikationsplan</text><text fill="#000000" font-family="Arial" font-size="13" lengthAdjust="spacing" textLength="211" x="373" y="356.4307">mit List.emptyReason = "notstarted"</text><polygon fill="#111827" points="119,414.083,109,418.083,119,422.083,115,418.083" style="stroke:#111827;stroke-width:1.0;"/><line style="stroke:#111827;stroke-width:1.0;" x1="113" x2="349" y1="418.083" y2="418.083"/><text fill="#000000" font-family="Arial" font-size="13" font-weight="bold" lengthAdjust="spacing" textLength="7" x="125" y="405.8538">4</text><text fill="#000000" font-family="Arial" font-size="13" lengthAdjust="spacing" textLength="134" x="136" y="398.3794">Leerer Medikationsplan</text><text fill="#000000" font-family="Arial" font-size="13" lengthAdjust="spacing" textLength="197" x="136" y="413.3281">(List.emptyReason = "notstarted")</text><!--SRC=[XLLjRzem4FxkNt63ITkaCIMX0LA9IL12L_K51EpBL0cP-2WMmM6EKzPE-sVxjZysEvJY94mpNvoxntVFSsSVYgiOuKfmnMaCA5E5SQnGmYqolgQA9oBTnbGGyYvTSx6bacw0HYgHK_MaJz8Tfia62Jbw5ubaA2-IE95GT_9bUscqVf199jWBOkcRduL8LvGbEouUO4dZ52tFop4fD3_N3ifmIRDO3HEXxkW6eTQJMaxjD6BAdn7SizFEVz7-yhH56NEnjW1XU0hmLR1yWnNw_UJ7c39cb7bEqTwtQ-RdoowfI1J2JmBGBrSF7VINJgFEN1PWoo3iI9r5u5F_rJfRyMWjC4t1rRQ9LKr7Vn-ucIXMALpNxNXjRPkM-lBBPfZYzmn5j6SvfbBnY6-fKAU45G6L-v2l8gZQcOhxqDM2moetG4_AP5SMbHkBTSbDfpA-ElQvcjfqgPbl2nfV8-zTbNxXqilLMIUFwJrJr3VwEfhhSp6w6KtcbuFUt0MzwgxVSZfUnpa1y790q6evxK45CExDhiAxcOaGjFhUMGNG6uyWNtLd68G3FoW3mjjmC1_sD023jjVq5gmCc4_2R-5u1lM8DTjDZmPb6QDhAEJm_7A8oMGqoG5Xq7QRNbC_W7pEmBu2D8MQte5Rimj3jiTc0-gPPMWQA3Rq1mnxjQ847JDJYSWs2vI4TBk7oSTJZZBJDwNR9MIViF7v4F0SngFf3DwQETYGI9aXnX-fVfDxg4s8v6yrUSGNugGqI84kPBP4yH78XYizUgJce50O03nda4OhYNo1Wg1W-SCdntG7XKLD1sk1iVppUsa4qMm92zHZVQNZeRWNbS5-wlWrSW5ZG_SnaIjgJfxVYo6Dz7wd0vd8A9ynUr0G8qeKvJ-CUs7atV1KVSBDLZrDaAPQOHTgMbEgTDkGrUpSURNEuSP4azLex_yJwWCX3Ck5iatxRlm5]--></g></svg>