<svg xmlns="http://www.w3.org/2000/svg" xmlns:xlink="http://www.w3.org/1999/xlink" contentStyleType="text/css" data-diagram-type="SEQUENCE" height="520px" preserveAspectRatio="none" style="width:859px;height:520px;background:#F5F5F5;" version="1.1" viewBox="0 0 859 520" width="859px" zoomAndPan="magnify"><?plantuml 1.2026.7beta1?><defs><linearGradient id="g12kx1ivsmrjrv0" x1="50%" x2="50%" y1="0%" y2="100%"><stop offset="0%" stop-color="#E0E5F0"/><stop offset="100%" stop-color="#D1D9E6"/></linearGradient></defs><g><rect fill="#F5F5F5" height="520" style="stroke:none;stroke-width:1;" width="859" x="0" y="0"/><g class="title" data-source-line="1"><text fill="#000000" font-family="'Arial'" font-size="14" font-weight="700" lengthAdjust="spacing" textLength="259.7178" x="296.2297" y="27.9951">Initial erstellter Medikationsplan</text></g><g><title>GDA 1</title><rect fill="#156082" fill-opacity="0.50196" height="226.5234" style="stroke:#181818;stroke-width:1;" width="10" x="116.2817" y="194.0234"/></g><g><title>e-Med FA</title><rect fill="#E97132" fill-opacity="0.50196" height="226.5234" style="stroke:#181818;stroke-width:1;" width="10" x="388.9292" y="194.0234"/></g><g class="participant-lifeline" data-entity-uid="part1" data-qualified-name="GDA_1" data-source-line="52" id="part1-lifeline"><g><title>GDA 1</title><rect fill="#000000" fill-opacity="0.00000" height="319.9531" width="8" x="117.2817" y="118.5938"/><line style="stroke:#181818;stroke-width:0.5;stroke-dasharray:5,5;" x1="121" x2="121" y1="118.5938" y2="438.5469"/></g></g><g class="participant-lifeline" data-entity-uid="part2" data-qualified-name="eMed_FA" data-source-line="53" id="part2-lifeline"><g><title>e-Med FA</title><rect fill="#000000" fill-opacity="0.00000" height="319.9531" width="8" x="389.9292" y="118.5938"/><line style="stroke:#181818;stroke-width:0.5;stroke-dasharray:5,5;" x1="393.2671" x2="393.2671" y1="118.5938" y2="438.5469"/></g></g><g class="participant-lifeline" data-entity-uid="part3" data-qualified-name="GDA_2" data-source-line="54" id="part3-lifeline"><g><title>GDA 2</title><rect fill="#000000" fill-opacity="0.00000" height="319.9531" width="8" x="753.5195" y="118.5938"/><line style="stroke:#181818;stroke-width:0.5;stroke-dasharray:5,5;" x1="757.2378" x2="757.2378" y1="118.5938" y2="438.5469"/></g></g><g class="participant-lifeline" data-entity-uid="part4" data-qualified-name="Patient" data-source-line="55" id="part4-lifeline"><g><title>Patient</title><rect fill="#000000" fill-opacity="0.00000" height="319.9531" width="8" x="816.4893" y="118.5938"/><line style="stroke:#181818;stroke-width:0.5;stroke-dasharray:5,5;" x1="819.8013" x2="819.8013" y1="118.5938" y2="438.5469"/></g></g><g class="participant participant-head" data-entity-uid="part1" data-qualified-name="GDA_1" data-source-line="52" id="part1-head"><text fill="#000000" font-family="'Arial'" font-size="14" lengthAdjust="spacing" textLength="44.5635" x="96" y="115.292">GDA 1</text><ellipse cx="121.2817" cy="50.7969" fill="#156082" fill-opacity="0.50196" rx="8" ry="8" style="stroke:#181818;stroke-width:0.5;"/><path d="M121.2817,58.7969 L121.2817,85.7969 M108.2817,66.7969 L134.2817,66.7969 M121.2817,85.7969 L108.2817,100.7969 M121.2817,85.7969 L134.2817,100.7969" fill="none" style="stroke:#181818;stroke-width:0.5;"/></g><g class="participant participant-tail" data-entity-uid="part1" data-qualified-name="GDA_1" data-source-line="52" id="part1-tail"><text fill="#000000" font-family="'Arial'" font-size="14" lengthAdjust="spacing" textLength="44.5635" x="96" y="450.542">GDA 1</text><ellipse cx="121.2817" cy="462.3438" fill="#156082" fill-opacity="0.50196" rx="8" ry="8" style="stroke:#181818;stroke-width:0.5;"/><path d="M121.2817,470.3438 L121.2817,497.3438 M108.2817,478.3438 L134.2817,478.3438 M121.2817,497.3438 L108.2817,512.3438 M121.2817,497.3438 L134.2817,512.3438" fill="none" style="stroke:#181818;stroke-width:0.5;"/></g><g class="participant participant-head" data-entity-uid="part2" data-qualified-name="eMed_FA" data-source-line="53" id="part2-head"><rect fill="#E97132" fill-opacity="0.50196" height="30.2969" rx="5" ry="5" style="stroke:#555555;stroke-width:0.5;" width="79.3242" x="354.2671" y="87.2969"/><text fill="#000000" font-family="'Arial'" font-size="14" lengthAdjust="spacing" textLength="65.3242" x="361.2671" y="107.292">e-Med FA</text></g><g class="participant participant-tail" data-entity-uid="part2" data-qualified-name="eMed_FA" data-source-line="53" id="part2-tail"><rect fill="#E97132" fill-opacity="0.50196" height="30.2969" rx="5" ry="5" style="stroke:#555555;stroke-width:0.5;" width="79.3242" x="354.2671" y="437.5469"/><text fill="#000000" font-family="'Arial'" font-size="14" lengthAdjust="spacing" textLength="65.3242" x="361.2671" y="457.542">e-Med FA</text></g><g class="participant participant-head" data-entity-uid="part3" data-qualified-name="GDA_2" data-source-line="54" id="part3-head"><text fill="#000000" font-family="'Arial'" font-size="14" lengthAdjust="spacing" textLength="44.5635" x="732.2378" y="115.292">GDA 2</text><ellipse cx="757.5195" cy="50.7969" fill="#96607D" fill-opacity="0.50196" rx="8" ry="8" style="stroke:#181818;stroke-width:0.5;"/><path d="M757.5195,58.7969 L757.5195,85.7969 M744.5195,66.7969 L770.5195,66.7969 M757.5195,85.7969 L744.5195,100.7969 M757.5195,85.7969 L770.5195,100.7969" fill="none" style="stroke:#181818;stroke-width:0.5;"/></g><g class="participant participant-tail" data-entity-uid="part3" data-qualified-name="GDA_2" data-source-line="54" id="part3-tail"><text fill="#000000" font-family="'Arial'" font-size="14" lengthAdjust="spacing" textLength="44.5635" x="732.2378" y="450.542">GDA 2</text><ellipse cx="757.5195" cy="462.3438" fill="#96607D" fill-opacity="0.50196" rx="8" ry="8" style="stroke:#181818;stroke-width:0.5;"/><path d="M757.5195,470.3438 L757.5195,497.3438 M744.5195,478.3438 L770.5195,478.3438 M757.5195,497.3438 L744.5195,512.3438 M757.5195,497.3438 L770.5195,512.3438" fill="none" style="stroke:#181818;stroke-width:0.5;"/></g><g class="participant participant-head" data-entity-uid="part4" data-qualified-name="Patient" data-source-line="55" id="part4-head"><text fill="#000000" font-family="'Arial'" font-size="14" lengthAdjust="spacing" textLength="49.376" x="792.8013" y="115.292">Patient</text><ellipse cx="820.4893" cy="50.7969" fill="#196B24" fill-opacity="0.50196" rx="8" ry="8" style="stroke:#181818;stroke-width:0.5;"/><path d="M820.4893,58.7969 L820.4893,85.7969 M807.4893,66.7969 L833.4893,66.7969 M820.4893,85.7969 L807.4893,100.7969 M820.4893,85.7969 L833.4893,100.7969" fill="none" style="stroke:#181818;stroke-width:0.5;"/></g><g class="participant participant-tail" data-entity-uid="part4" data-qualified-name="Patient" data-source-line="55" id="part4-tail"><text fill="#000000" font-family="'Arial'" font-size="14" lengthAdjust="spacing" textLength="49.376" x="792.8013" y="450.542">Patient</text><ellipse cx="820.4893" cy="462.3438" fill="#196B24" fill-opacity="0.50196" rx="8" ry="8" style="stroke:#181818;stroke-width:0.5;"/><path d="M820.4893,470.3438 L820.4893,497.3438 M807.4893,478.3438 L833.4893,478.3438 M820.4893,497.3438 L807.4893,512.3438 M820.4893,497.3438 L833.4893,512.3438" fill="none" style="stroke:#181818;stroke-width:0.5;"/></g><g><title>GDA 1</title><rect fill="#156082" fill-opacity="0.50196" height="226.5234" style="stroke:#181818;stroke-width:1;" width="10" x="116.2817" y="194.0234"/></g><g><title>e-Med FA</title><rect fill="#E97132" fill-opacity="0.50196" height="226.5234" style="stroke:#181818;stroke-width:1;" width="10" x="388.9292" y="194.0234"/></g><rect fill="#EEEEEE" height="3" rx="5" ry="5" style="stroke:#EEEEEE;stroke-width:1;" width="853.1772" x="0" y="149.7422"/><line style="stroke:#000000;stroke-width:1;" x1="0" x2="853.1772" y1="149.7422" y2="149.7422"/><line style="stroke:#000000;stroke-width:1;" x1="0" x2="853.1772" y1="152.7422" y2="152.7422"/><rect fill="#EEEEEE" height="24.2969" rx="5" ry="5" style="stroke:#000000;stroke-width:2;" width="128.8711" x="362.1531" y="138.5938"/><text fill="#000000" font-family="'Arial'" font-size="14" font-weight="700" lengthAdjust="spacing" textLength="109.9971" x="368.1531" y="155.5889">Initialisierung</text><g class="message" data-entity-1="part1" data-entity-2="part2" data-source-line="61" id="msg1"><polygon fill="#111827" points="376.9292,190.0234,386.9292,194.0234,376.9292,198.0234,380.9292,194.0234" style="stroke:#111827;stroke-width:1;stroke-linejoin:miter;stroke-miterlimit:10;"/><line style="stroke:#111827;stroke-width:1;" x1="126.2817" x2="382.9292" y1="194.0234" y2="194.0234"/><text fill="#000000" font-family="'Arial'" font-size="13" font-weight="700" lengthAdjust="spacing" textLength="9.0454" x="133.2817" y="188.9575">1</text><text fill="#000000" font-family="'Arial'" font-size="13" lengthAdjust="spacing" textLength="108.9893" x="146.3271" y="188.9575">POST $plan-read</text></g><path d="M5,212.0234 L5,244.0234 A5,5 0 0 0 10,249.0234 L232,249.0234 A5,5 0 0 0 237,244.0234 L237,217.0234 L227,207.0234 L10,207.0234 A5,5 0 0 0 5,212.0234" fill="url(#g12kx1ivsmrjrv0)" style="stroke:#8B95A5;stroke-width:1;"/><path d="M227,207.0234 L227,214.5234 A2.5,2.5 0 0 0 229.5,217.0234 L237,217.0234 L227,207.0234" fill="url(#g12kx1ivsmrjrv0)" style="stroke:#8B95A5;stroke-width:1;"/><text fill="#111827" font-family="'Arial'" font-size="14" lengthAdjust="spacing" textLength="177.9053" x="11" y="225.0186">Medikationsplan abrufen,</text><text fill="#111827" font-family="'Arial'" font-size="14" lengthAdjust="spacing" textLength="211.5859" x="11" y="241.3154">mit der Intention zu schreiben</text><g class="message" data-entity-1="part2" data-entity-2="part2" data-source-line="70" id="msg2"><line style="stroke:#111827;stroke-width:1;" x1="398.9292" x2="440.9292" y1="290.8828" y2="290.8828"/><line style="stroke:#111827;stroke-width:1;" x1="440.9292" x2="440.9292" y1="290.8828" y2="303.8828"/><line style="stroke:#111827;stroke-width:1;" x1="399.9292" x2="440.9292" y1="303.8828" y2="303.8828"/><polygon fill="#111827" points="409.9292,299.8828,399.9292,303.8828,409.9292,307.8828,405.9292,303.8828" style="stroke:#111827;stroke-width:1;stroke-linejoin:miter;stroke-miterlimit:10;"/><text fill="#000000" font-family="'Arial'" font-size="13" font-weight="700" lengthAdjust="spacing" textLength="9.0454" x="405.9292" y="278.2505">2</text><text fill="#000000" font-family="'Arial'" font-size="13" lengthAdjust="spacing" textLength="164.8613" x="418.9746" y="270.6841">Pr&#252;fung auf bestehenden</text><text fill="#000000" font-family="'Arial'" font-size="13" lengthAdjust="spacing" textLength="106.3169" x="418.9746" y="285.8169">Medikationsplan</text></g><g class="message" data-entity-1="part2" data-entity-2="part2" data-source-line="72" id="msg3"><line style="stroke:#111827;stroke-width:1;" x1="398.9292" x2="440.9292" y1="363.2813" y2="363.2813"/><line style="stroke:#111827;stroke-width:1;" x1="440.9292" x2="440.9292" y1="363.2813" y2="376.2813"/><line style="stroke:#111827;stroke-width:1;" x1="399.9292" x2="440.9292" y1="376.2813" y2="376.2813"/><polygon fill="#111827" points="409.9292,372.2813,399.9292,376.2813,409.9292,380.2813,405.9292,376.2813" style="stroke:#111827;stroke-width:1;stroke-linejoin:miter;stroke-miterlimit:10;"/><text fill="#000000" font-family="'Arial'" font-size="13" font-weight="700" lengthAdjust="spacing" textLength="9.0454" x="405.9292" y="343.0825">3</text><text fill="#000000" font-family="'Arial'" font-size="13" lengthAdjust="spacing" textLength="138.6011" x="418.9746" y="327.9497">Kein Plan vorhanden:</text><text fill="#000000" font-family="'Arial'" font-size="13" lengthAdjust="spacing" textLength="316.5449" x="418.9746" y="343.0825">Fachanwendung erzeugt leeren Medikationsplan</text><text fill="#000000" font-family="'Arial'" font-size="13" lengthAdjust="spacing" textLength="240.9634" x="418.9746" y="358.2153">mit List.emptyReason = "notstarted"</text></g><g class="message" data-entity-1="part2" data-entity-2="part1" data-source-line="73" id="msg4"><polygon fill="#111827" points="132.2817,416.5469,122.2817,420.5469,132.2817,424.5469,128.2817,420.5469" style="stroke:#111827;stroke-width:1;stroke-linejoin:miter;stroke-miterlimit:10;"/><line style="stroke:#111827;stroke-width:1;" x1="126.2817" x2="392.9292" y1="420.5469" y2="420.5469"/><text fill="#000000" font-family="'Arial'" font-size="13" font-weight="700" lengthAdjust="spacing" textLength="9.0454" x="138.2817" y="407.9146">4</text><text fill="#000000" font-family="'Arial'" font-size="13" lengthAdjust="spacing" textLength="152.3755" x="151.3271" y="400.3481">Leerer Medikationsplan</text><text fill="#000000" font-family="'Arial'" font-size="13" lengthAdjust="spacing" textLength="225.6021" x="151.3271" y="415.481">(List.emptyReason = "notstarted")</text></g><?plantuml-src XLLTRzem57tthxWBaxP9OqhIXa8b9a49NTKFei1Ufah8a9jY4HpcE6Njj7-sj_snsU7BIPXcNiAzn-UUU-pSI2OJX1lE9AC9eCWa9eb40VSOiIMLBENPEg6Sa7VPal4r5NG5T2vJCPOlQYVTO9Qka91ZTfQA2CLLcgG26dQnp2oTBvz4clDeXuWz_JCGsO96wORn9uXfag6HsMqJNEbpJD88OvedSfXo-K1N25PFg7QiquWnUqLmpayd_oNxoyiQHSBuqW3u_Yd0LnuL3rYJtqz_13IAT6UkNOxtJS-yOfcMybGY_2G0_QfxQACNsyr6v4GTR6c4oTIUTJpg7QAJ1PilEMOPE2eM6cxQwlzUcsOnh70Sf-rUgDYuSYw_J8KPVi-HpxSg0oeacxCrvV9KOsL0xJuKgmogdqmjlJ_LKiAm6w0dHBgfDbK4oxuKeLCL3ubjhJCLkbRArwKU3ypRLEsyC7QBxeoTn_AkDlMDkexw-boDxaRXz7hGcpgWLiFnMdRRRTid06u1wBHQziMW1WXwanl_OQ8PEgs-Uru3z88H5AjX3pl-mEjK0VwzFvWEUmhWTowSixe6Vnhwt_nW0eqhsxFFjOOAOdGBfHgkLwK8mr5O0BOrpjGBKCmPs3f0Cx3K4pYMQGnP7myRKCqiBLD3iQd-mB1dbLimADq3fMjIkZj8e6OVAb8DsZrRPKELlbocF5_DK13IxUwdACiOYbpTkcwNaAtuvkUzk4i8HkC9lDKpjIcGHheSUwRg_Tv2pUP8yTwdpxWpWLI6Cj2Po6Fa7u6ic5HZJ2WDKYbL07ZD8Pil1B8PSe8yAeO8EPRRkrNsPnyjAHP_ViUw8Ph7C4FrYLWeFkIFlFQHEBNz5Xc7GCjzJiM2wfsNZtn8v-fveuWqCufNp9ya98W2UVNZyyXrUtSiavzmjPOl8T9CTTW5I_MKINK5CBBCseLRbt2dsKITxVr_g3uG4c7LA3DKyFy5?></g></svg>