<svg xmlns="http://www.w3.org/2000/svg" xmlns:xlink="http://www.w3.org/1999/xlink" contentStyleType="text/css" data-diagram-type="SEQUENCE" height="479px" preserveAspectRatio="none" style="width:798px;height:479px;background:#F5F5F5;" version="1.1" viewBox="0 0 798 479" width="798px" zoomAndPan="magnify"><?plantuml 1.2026.7beta1?><defs><linearGradient id="g1g58dzdjpxb3r0" x1="50%" x2="50%" y1="0%" y2="100%"><stop offset="0%" stop-color="#E0E5F0"/><stop offset="100%" stop-color="#D1D9E6"/></linearGradient><filter height="300%" id="f1g58dzdjpxb3r" width="300%" x="-1" y="-1"><feGaussianBlur result="blurOut" stdDeviation="2"/><feColorMatrix in="blurOut" result="blurOut2" type="matrix" values="0 0 0 0 0 0 0 0 0 0 0 0 0 0 0 0 0 0 .4 0"/><feOffset dx="4" dy="4" in="blurOut2" result="blurOut3"/><feBlend in="SourceGraphic" in2="blurOut3" mode="normal"/></filter></defs><g><rect fill="#F5F5F5" height="479" style="stroke:none;stroke-width:1;" width="798" x="0" y="0"/><g class="title" data-source-line="1"><text fill="#000000" font-family="'Arial'" font-size="14" font-weight="700" lengthAdjust="spacing" textLength="433.043" x="179.2322" y="27.9951">Leerer Medikationsplan (keine Medikation einnehmen)</text></g><g><title>GDA 1</title><rect fill="#3588A7" fill-opacity="0.29804" height="229.5234" style="stroke:#181818;stroke-width:1;" width="10" x="29.2817" y="149.7266"/></g><g><title>e-Med FA</title><rect fill="#A14C37" fill-opacity="0.47059" height="229.5234" style="stroke:#181818;stroke-width:1;" width="10" x="292.1665" y="149.7266"/></g><g class="participant-lifeline" data-entity-uid="part1" data-qualified-name="GDA_1" data-source-line="49" id="part1-lifeline"><g><title>GDA 1</title><rect fill="#000000" fill-opacity="0.00000" height="278.6563" width="8" x="30.2817" y="118.5938"/><line style="stroke:#181818;stroke-width:0.5;stroke-dasharray:5,5;" x1="34" x2="34" y1="118.5938" y2="397.25"/></g></g><g class="participant-lifeline" data-entity-uid="part2" data-qualified-name="eMed_FA" data-source-line="50" id="part2-lifeline"><g><title>e-Med FA</title><rect fill="#000000" fill-opacity="0.00000" height="278.6563" width="8" x="293.1665" y="118.5938"/><line style="stroke:#181818;stroke-width:0.5;stroke-dasharray:5,5;" x1="296.5044" x2="296.5044" y1="118.5938" y2="397.25"/></g></g><g class="participant-lifeline" data-entity-uid="part3" data-qualified-name="GDA_2" data-source-line="51" id="part3-lifeline"><g><title>GDA 2</title><rect fill="#000000" fill-opacity="0.00000" height="278.6563" width="8" x="692.8496" y="118.5938"/><line style="stroke:#181818;stroke-width:0.5;stroke-dasharray:5,5;" x1="696.5679" x2="696.5679" y1="118.5938" y2="397.25"/></g></g><g class="participant-lifeline" data-entity-uid="part4" data-qualified-name="Patient" data-source-line="52" id="part4-lifeline"><g><title>Patient</title><rect fill="#000000" fill-opacity="0.00000" height="278.6563" width="8" x="755.8193" y="118.5938"/><line style="stroke:#181818;stroke-width:0.5;stroke-dasharray:5,5;" x1="759.1313" x2="759.1313" y1="118.5938" y2="397.25"/></g></g><g class="participant participant-head" data-entity-uid="part1" data-qualified-name="GDA_1" data-source-line="49" id="part1-head"><text fill="#000000" font-family="'Arial'" font-size="14" lengthAdjust="spacing" textLength="44.5635" x="9" y="115.292">GDA 1</text><ellipse cx="34.2817" cy="50.7969" fill="#3588A7" fill-opacity="0.29804" rx="8" ry="8" style="stroke:#181818;stroke-width:0.5;"/><path d="M34.2817,58.7969 L34.2817,85.7969 M21.2817,66.7969 L47.2817,66.7969 M34.2817,85.7969 L21.2817,100.7969 M34.2817,85.7969 L47.2817,100.7969" fill="none" style="stroke:#181818;stroke-width:0.5;"/></g><g class="participant participant-tail" data-entity-uid="part1" data-qualified-name="GDA_1" data-source-line="49" id="part1-tail"><text fill="#000000" font-family="'Arial'" font-size="14" lengthAdjust="spacing" textLength="44.5635" x="9" y="409.2451">GDA 1</text><ellipse cx="34.2817" cy="421.0469" fill="#3588A7" fill-opacity="0.29804" rx="8" ry="8" style="stroke:#181818;stroke-width:0.5;"/><path d="M34.2817,429.0469 L34.2817,456.0469 M21.2817,437.0469 L47.2817,437.0469 M34.2817,456.0469 L21.2817,471.0469 M34.2817,456.0469 L47.2817,471.0469" fill="none" style="stroke:#181818;stroke-width:0.5;"/></g><g class="participant participant-head" data-entity-uid="part2" data-qualified-name="eMed_FA" data-source-line="50" id="part2-head"><rect fill="#A14C37" fill-opacity="0.47059" height="30.2969" rx="5" ry="5" style="stroke:#555555;stroke-width:0.5;" width="79.3242" x="257.5044" y="87.2969"/><text fill="#000000" font-family="'Arial'" font-size="14" lengthAdjust="spacing" textLength="65.3242" x="264.5044" y="107.292">e-Med FA</text></g><g class="participant participant-tail" data-entity-uid="part2" data-qualified-name="eMed_FA" data-source-line="50" id="part2-tail"><rect fill="#A14C37" fill-opacity="0.47059" height="30.2969" rx="5" ry="5" style="stroke:#555555;stroke-width:0.5;" width="79.3242" x="257.5044" y="396.25"/><text fill="#000000" font-family="'Arial'" font-size="14" lengthAdjust="spacing" textLength="65.3242" x="264.5044" y="416.2451">e-Med FA</text></g><g class="participant participant-head" data-entity-uid="part3" data-qualified-name="GDA_2" data-source-line="51" id="part3-head"><text fill="#000000" font-family="'Arial'" font-size="14" lengthAdjust="spacing" textLength="44.5635" x="671.5679" y="115.292">GDA 2</text><ellipse cx="696.8496" cy="50.7969" fill="#CA89CA" fill-opacity="0.37255" rx="8" ry="8" style="stroke:#181818;stroke-width:0.5;"/><path d="M696.8496,58.7969 L696.8496,85.7969 M683.8496,66.7969 L709.8496,66.7969 M696.8496,85.7969 L683.8496,100.7969 M696.8496,85.7969 L709.8496,100.7969" fill="none" style="stroke:#181818;stroke-width:0.5;"/></g><g class="participant participant-tail" data-entity-uid="part3" data-qualified-name="GDA_2" data-source-line="51" id="part3-tail"><text fill="#000000" font-family="'Arial'" font-size="14" lengthAdjust="spacing" textLength="44.5635" x="671.5679" y="409.2451">GDA 2</text><ellipse cx="696.8496" cy="421.0469" fill="#CA89CA" fill-opacity="0.37255" rx="8" ry="8" style="stroke:#181818;stroke-width:0.5;"/><path d="M696.8496,429.0469 L696.8496,456.0469 M683.8496,437.0469 L709.8496,437.0469 M696.8496,456.0469 L683.8496,471.0469 M696.8496,456.0469 L709.8496,471.0469" fill="none" style="stroke:#181818;stroke-width:0.5;"/></g><g class="participant participant-head" data-entity-uid="part4" data-qualified-name="Patient" data-source-line="52" id="part4-head"><text fill="#000000" font-family="'Arial'" font-size="14" lengthAdjust="spacing" textLength="49.376" x="732.1313" y="115.292">Patient</text><ellipse cx="759.8193" cy="50.7969" fill="#A2AE64" fill-opacity="0.50980" rx="8" ry="8" style="stroke:#181818;stroke-width:0.5;"/><path d="M759.8193,58.7969 L759.8193,85.7969 M746.8193,66.7969 L772.8193,66.7969 M759.8193,85.7969 L746.8193,100.7969 M759.8193,85.7969 L772.8193,100.7969" fill="none" style="stroke:#181818;stroke-width:0.5;"/></g><g class="participant participant-tail" data-entity-uid="part4" data-qualified-name="Patient" data-source-line="52" id="part4-tail"><text fill="#000000" font-family="'Arial'" font-size="14" lengthAdjust="spacing" textLength="49.376" x="732.1313" y="409.2451">Patient</text><ellipse cx="759.8193" cy="421.0469" fill="#A2AE64" fill-opacity="0.50980" rx="8" ry="8" style="stroke:#181818;stroke-width:0.5;"/><path d="M759.8193,429.0469 L759.8193,456.0469 M746.8193,437.0469 L772.8193,437.0469 M759.8193,456.0469 L746.8193,471.0469 M759.8193,456.0469 L772.8193,471.0469" fill="none" style="stroke:#181818;stroke-width:0.5;"/></g><g><title>GDA 1</title><rect fill="#3588A7" fill-opacity="0.29804" height="229.5234" style="stroke:#181818;stroke-width:1;" width="10" x="29.2817" y="149.7266"/></g><g><title>e-Med FA</title><rect fill="#A14C37" fill-opacity="0.47059" height="229.5234" style="stroke:#181818;stroke-width:1;" width="10" x="292.1665" y="149.7266"/></g><g class="message" data-entity-1="part1" data-entity-2="part2" data-source-line="56" id="msg1"><polygon fill="#111827" points="280.1665,145.7266,290.1665,149.7266,280.1665,153.7266,284.1665,149.7266" style="stroke:#111827;stroke-width:1;stroke-linejoin:miter;stroke-miterlimit:10;"/><line style="stroke:#111827;stroke-width:1;" x1="39.2817" x2="286.1665" y1="149.7266" y2="149.7266"/><text fill="#000000" font-family="'Arial'" font-size="13" font-weight="700" lengthAdjust="spacing" textLength="9.0454" x="46.2817" y="144.6606">1</text><text fill="#000000" font-family="'Arial'" font-size="13" lengthAdjust="spacing" textLength="108.9893" x="59.3271" y="144.6606">POST $plan-read</text></g><path d="M5,167.7266 L5,199.7266 A5,5 0 0 0 10,204.7266 L322,204.7266 A5,5 0 0 0 327,199.7266 L327,172.7266 L317,162.7266 L10,162.7266 A5,5 0 0 0 5,167.7266" fill="url(#g1g58dzdjpxb3r0)" filter="url(#f1g58dzdjpxb3r)" style="stroke:#8B95A5;stroke-width:1;"/><path d="M317,162.7266 L317,170.2266 A2.5,2.5 0 0 0 319.5,172.7266 L327,172.7266 L317,162.7266" fill="url(#g1g58dzdjpxb3r0)" style="stroke:#8B95A5;stroke-width:1;"/><text fill="#111827" font-family="'Arial'" font-size="14" lengthAdjust="spacing" textLength="177.9053" x="54.6213" y="180.7217">Medikationsplan abrufen,</text><text fill="#111827" font-family="'Arial'" font-size="14" lengthAdjust="spacing" textLength="211.5859" x="54.6213" y="197.0186">mit der Intention zu schreiben</text><g class="message" data-entity-1="part2" data-entity-2="part2" data-source-line="65" id="msg2"><line style="stroke:#111827;stroke-width:1;" x1="302.1665" x2="344.1665" y1="249.5859" y2="249.5859"/><line style="stroke:#111827;stroke-width:1;" x1="344.1665" x2="344.1665" y1="249.5859" y2="262.5859"/><line style="stroke:#111827;stroke-width:1;" x1="303.1665" x2="344.1665" y1="262.5859" y2="262.5859"/><polygon fill="#111827" points="313.1665,258.5859,303.1665,262.5859,313.1665,266.5859,309.1665,262.5859" style="stroke:#111827;stroke-width:1;stroke-linejoin:miter;stroke-miterlimit:10;"/><text fill="#000000" font-family="'Arial'" font-size="13" font-weight="700" lengthAdjust="spacing" textLength="9.0454" x="309.1665" y="236.9536">2</text><text fill="#000000" font-family="'Arial'" font-size="13" lengthAdjust="spacing" textLength="164.8613" x="322.2119" y="229.3872">Pr&#252;fung auf bestehenden</text><text fill="#000000" font-family="'Arial'" font-size="13" lengthAdjust="spacing" textLength="106.3169" x="322.2119" y="244.52">Medikationsplan</text></g><g class="message" data-entity-1="part2" data-entity-2="part2" data-source-line="67" id="msg3"><line style="stroke:#111827;stroke-width:1;" x1="302.1665" x2="344.1665" y1="321.9844" y2="321.9844"/><line style="stroke:#111827;stroke-width:1;" x1="344.1665" x2="344.1665" y1="321.9844" y2="334.9844"/><line style="stroke:#111827;stroke-width:1;" x1="303.1665" x2="344.1665" y1="334.9844" y2="334.9844"/><polygon fill="#111827" points="313.1665,330.9844,303.1665,334.9844,313.1665,338.9844,309.1665,334.9844" style="stroke:#111827;stroke-width:1;stroke-linejoin:miter;stroke-miterlimit:10;"/><text fill="#000000" font-family="'Arial'" font-size="13" font-weight="700" lengthAdjust="spacing" textLength="9.0454" x="309.1665" y="301.7856">3</text><text fill="#000000" font-family="'Arial'" font-size="13" lengthAdjust="spacing" textLength="158.2026" x="322.2119" y="286.6528">Wenn Plan vorhanden +</text><text fill="#000000" font-family="'Arial'" font-size="13" lengthAdjust="spacing" textLength="342.7734" x="322.2119" y="301.7856">alle List.enty.flags im Medikationsplan = "removed":</text><text fill="#000000" font-family="'Arial'" font-size="13" lengthAdjust="spacing" textLength="352.6377" x="322.2119" y="316.9185">Fachanwendung setzt List.emptyReason = "nilknown"</text></g><g class="message" data-entity-1="part2" data-entity-2="part1" data-source-line="69" id="msg4"><polygon fill="#111827" points="45.2817,375.25,35.2817,379.25,45.2817,383.25,41.2817,379.25" style="stroke:#111827;stroke-width:1;stroke-linejoin:miter;stroke-miterlimit:10;"/><line style="stroke:#111827;stroke-width:1;" x1="39.2817" x2="296.1665" y1="379.25" y2="379.25"/><text fill="#000000" font-family="'Arial'" font-size="13" font-weight="700" lengthAdjust="spacing" textLength="9.0454" x="51.2817" y="366.6177">4</text><text fill="#000000" font-family="'Arial'" font-size="13" lengthAdjust="spacing" textLength="152.3755" x="64.3271" y="359.0513">Leerer Medikationsplan</text><text fill="#000000" font-family="'Arial'" font-size="13" lengthAdjust="spacing" textLength="215.8394" x="64.3271" y="374.1841">(List.emptyReason = "nilknown")</text></g><?plantuml-src VLLTRzem57tthxWBUzYqKf50IbffasWBNRMsH9HfqeI4J7nJB1A7EKvPE-sVxMr_R7Rug1Fed9VuVXoVUsnVAwuIX1j4YH9kaV45LJmJ-JAX0juja0kqpA3d0kSfYlU4v0ikbbJI56QPP2WliYIJq6YLm_RIQF4WiqAmJKJicy-AoEUKPIik7Y2cIOwMPvCcXMRdsg0COreaQf09TKTJ1ASdEKsSmn7t_1d1xHnslaRxyzCIPSB5mWhezmy5V1Mi_C4z-kVPpv0oPYhpMbNxkQsPNmvRKf4fX5y4uBok7hRGZrlD1dFPAPwO21ifc9twrDzPntCUBGJcERZQDhBK3FHyoysWM5AuhXjuNMsxt-sBaWMItpR177yKAA8roP1AnIE-f48TggiQi7SSob4Dsj-OFVTsKoiEIss0dfJPgbvJQQpAKfeEhRXphDTgQzELPhwirBX3NhlsjWjZhwpEodnPtZEYlj6dqPoUY-7DS3IzkknDNMYq_I2WtKvqmEj18wB1QKJzkEODU-Fh_jqO6jIZUD89l9g_5mwXqObPm3oVrNpzs_xbTD3JkMudQdUxGTq_7VM_zyEnkRypviNTRYrW-6Mxbzv9FNSq6ewWqOrTt_NRRK9efBGuwr9f3ex-0zUn5I3Bbrq5r2t8S3EXsDGJ6FISAcyBqjj1UZQajma9TIj33Mg2DlzELJ_Dhr2PAD8PIaBMB9kVjYpE81pUZ-6jQP5DYPGPNFv8zOLTXzfLaF8YPu-ugVPeYqBgpPREP16ZE28fLxe_IRWMIbCpNVUvW3oQI-Gp50G5Axi3ULbsAqzLaAsrmbp-_HCN-eBG8eOPvWhd6W_5HDJea8Fftr0820tRnqpEgSc43nD14_E6y5mTQy9Fnt527tBWwTvxyX4SYQaMWpbd4p6WaOPOwVKDeHpLizg0f4lrD4AQPsMAuCb2P2lXL3YLQfwzyd9DnBl_8kdNYs5TFjjKely3?></g></svg>