<svg xmlns="http://www.w3.org/2000/svg" xmlns:xlink="http://www.w3.org/1999/xlink" contentStyleType="text/css" data-diagram-type="SEQUENCE" height="887px" preserveAspectRatio="none" style="width:654px;height:887px;background:#F5F5F5;" version="1.1" viewBox="0 0 654 887" width="654px" zoomAndPan="magnify"><?plantuml 1.2026.7beta1?><defs><linearGradient id="gzn2nbp1ds3wn0" x1="50%" x2="50%" y1="0%" y2="100%"><stop offset="0%" stop-color="#E0E5F0"/><stop offset="100%" stop-color="#D1D9E6"/></linearGradient></defs><g><rect fill="#F5F5F5" height="887" style="stroke:none;stroke-width:1;" width="654" x="0" y="0"/><g class="title" data-source-line="1"><text fill="#000000" font-family="'Arial'" font-size="14" font-weight="700" lengthAdjust="spacing" textLength="254.96" x="196.1611" y="27.9951">Durchgef&#252;hrte Abgabe erstellen</text><text fill="#000000" font-family="'Arial'" font-size="14" font-weight="700" lengthAdjust="spacing" textLength="463.4014" x="91.9404" y="44.292">Variante A: ELGA-Teilnehmer authentifiziert mittels e-card</text></g><g><title>GDA 1</title><rect fill="#0078D4" fill-opacity="0.37647" height="585.7109" style="stroke:#181818;stroke-width:1;" width="10" x="171.2817" y="210.3203"/></g><g><title>e-Med FA</title><rect fill="#F5A403" fill-opacity="0.37647" height="29.1328" style="stroke:#181818;stroke-width:1;" width="10" x="512.2764" y="210.3203"/></g><g><title>e-Med FA</title><rect fill="#F5A403" fill-opacity="0.37647" height="155.75" style="stroke:#181818;stroke-width:1;" width="10" x="512.2764" y="595.1484"/></g><rect fill="#50E6FF" fill-opacity="0.14510" height="148.75" rx="5" ry="5" style="stroke:#111827;stroke-width:2;" width="480.7656" x="141" y="610.1484"/><path d="M141,711.4688 L621.7656,711.4688 L621.7656,753.8984 A5,5 0 0 1 616.7656,758.8984 L146,758.8984 A5,5 0 0 1 141,753.8984 L141,711.4688" fill="#FF8C00" fill-opacity="0.20784" style="stroke:none;stroke-width:1;"/><g class="participant-lifeline" data-entity-uid="part1" data-qualified-name="GDA_1" data-source-line="50" id="part1-lifeline"><g><title>GDA 1</title><rect fill="#000000" fill-opacity="0.00000" height="670.1406" width="8" x="172.2817" y="134.8906"/><line style="stroke:#181818;stroke-width:0.5;stroke-dasharray:5,5;" x1="176" x2="176" y1="134.8906" y2="805.0313"/></g></g><g class="participant-lifeline" data-entity-uid="part2" data-qualified-name="eMed_FA" data-source-line="52" id="part2-lifeline"><g><title>e-Med FA</title><rect fill="#000000" fill-opacity="0.00000" height="670.1406" width="8" x="513.2764" y="134.8906"/><line style="stroke:#181818;stroke-width:0.5;stroke-dasharray:5,5;" x1="516.6143" x2="516.6143" y1="134.8906" y2="805.0313"/></g></g><g class="participant-lifeline" data-entity-uid="part3" data-qualified-name="e_Rezept" data-source-line="54" id="part3-lifeline"><g><title>e-Rezept</title><rect fill="#000000" fill-opacity="0.00000" height="670.1406" width="8" x="601.1104" y="134.8906"/><line style="stroke:#181818;stroke-width:0.5;stroke-dasharray:5,5;" x1="604.9385" x2="604.9385" y1="134.8906" y2="805.0313"/></g></g><g class="participant participant-head" data-entity-uid="part1" data-qualified-name="GDA_1" data-source-line="50" id="part1-head"><text fill="#000000" font-family="'Arial'" font-size="14" lengthAdjust="spacing" textLength="44.5635" x="151" y="131.5889">GDA 1</text><ellipse cx="176.2817" cy="67.0938" fill="#0078D4" fill-opacity="0.37647" rx="8" ry="8" style="stroke:#181818;stroke-width:0.5;"/><path d="M176.2817,75.0938 L176.2817,102.0938 M163.2817,83.0938 L189.2817,83.0938 M176.2817,102.0938 L163.2817,117.0938 M176.2817,102.0938 L189.2817,117.0938" fill="none" style="stroke:#181818;stroke-width:0.5;"/></g><g class="participant participant-tail" data-entity-uid="part1" data-qualified-name="GDA_1" data-source-line="50" id="part1-tail"><text fill="#000000" font-family="'Arial'" font-size="14" lengthAdjust="spacing" textLength="44.5635" x="151" y="817.0264">GDA 1</text><ellipse cx="176.2817" cy="828.8281" fill="#0078D4" fill-opacity="0.37647" rx="8" ry="8" style="stroke:#181818;stroke-width:0.5;"/><path d="M176.2817,836.8281 L176.2817,863.8281 M163.2817,844.8281 L189.2817,844.8281 M176.2817,863.8281 L163.2817,878.8281 M176.2817,863.8281 L189.2817,878.8281" fill="none" style="stroke:#181818;stroke-width:0.5;"/></g><g class="participant participant-head" data-entity-uid="part2" data-qualified-name="eMed_FA" data-source-line="52" id="part2-head"><rect fill="#F5A403" fill-opacity="0.37647" height="30.2969" rx="5" ry="5" style="stroke:#555555;stroke-width:0.5;" width="79.3242" x="477.6143" y="103.5938"/><text fill="#000000" font-family="'Arial'" font-size="14" lengthAdjust="spacing" textLength="65.3242" x="484.6143" y="123.5889">e-Med FA</text></g><g class="participant participant-tail" data-entity-uid="part2" data-qualified-name="eMed_FA" data-source-line="52" id="part2-tail"><rect fill="#F5A403" fill-opacity="0.37647" height="30.2969" rx="5" ry="5" style="stroke:#555555;stroke-width:0.5;" width="79.3242" x="477.6143" y="804.0313"/><text fill="#000000" font-family="'Arial'" font-size="14" lengthAdjust="spacing" textLength="65.3242" x="484.6143" y="824.0264">e-Med FA</text></g><g class="participant participant-head" data-entity-uid="part3" data-qualified-name="e_Rezept" data-source-line="54" id="part3-head"><rect fill="#E74856" fill-opacity="0.37647" height="30.2969" rx="5" ry="5" style="stroke:#555555;stroke-width:0.5;" width="76.3438" x="566.9385" y="103.5938"/><text fill="#000000" font-family="'Arial'" font-size="14" lengthAdjust="spacing" textLength="62.3438" x="573.9385" y="123.5889">e-Rezept</text></g><g class="participant participant-tail" data-entity-uid="part3" data-qualified-name="e_Rezept" data-source-line="54" id="part3-tail"><rect fill="#E74856" fill-opacity="0.37647" height="30.2969" rx="5" ry="5" style="stroke:#555555;stroke-width:0.5;" width="76.3438" x="566.9385" y="804.0313"/><text fill="#000000" font-family="'Arial'" font-size="14" lengthAdjust="spacing" textLength="62.3438" x="573.9385" y="824.0264">e-Rezept</text></g><g><title>GDA 1</title><rect fill="#0078D4" fill-opacity="0.37647" height="585.7109" style="stroke:#181818;stroke-width:1;" width="10" x="171.2817" y="210.3203"/></g><g><title>e-Med FA</title><rect fill="#F5A403" fill-opacity="0.37647" height="29.1328" style="stroke:#181818;stroke-width:1;" width="10" x="512.2764" y="210.3203"/></g><g><title>e-Med FA</title><rect fill="#F5A403" fill-opacity="0.37647" height="155.75" style="stroke:#181818;stroke-width:1;" width="10" x="512.2764" y="595.1484"/></g><rect fill="#EEEEEE" height="3" rx="5" ry="5" style="stroke:#EEEEEE;stroke-width:1;" width="648.2822" x="0" y="166.0391"/><line style="stroke:#000000;stroke-width:1;" x1="0" x2="648.2822" y1="166.0391" y2="166.0391"/><line style="stroke:#000000;stroke-width:1;" x1="0" x2="648.2822" y1="169.0391" y2="169.0391"/><rect fill="#EEEEEE" height="24.2969" rx="5" ry="5" style="stroke:#000000;stroke-width:2;" width="231.7314" x="208.2754" y="154.8906"/><text fill="#000000" font-family="'Arial'" font-size="14" font-weight="700" lengthAdjust="spacing" textLength="212.8574" x="214.2754" y="171.8857">Geplante Abgaben abrufen</text><g class="message" data-entity-1="part1" data-entity-2="part2" data-source-line="60" id="msg1"><polygon fill="#111827" points="500.2764,206.3203,510.2764,210.3203,500.2764,214.3203,504.2764,210.3203" style="stroke:#111827;stroke-width:1;stroke-linejoin:miter;stroke-miterlimit:10;"/><line style="stroke:#111827;stroke-width:1;" x1="181.2817" x2="506.2764" y1="210.3203" y2="210.3203"/><text fill="#000000" font-family="'Arial'" font-size="13" font-weight="700" lengthAdjust="spacing" textLength="9.0454" x="188.2817" y="205.2544">1</text><text fill="#000000" font-family="'Arial'" font-size="13" lengthAdjust="spacing" textLength="261.2061" x="201.3271" y="205.2544">GET MedicationDispense, Status=active</text></g><g class="message" data-entity-1="part2" data-entity-2="part1" data-source-line="63" id="msg2"><polygon fill="#111827" points="192.2817,235.4531,182.2817,239.4531,192.2817,243.4531,188.2817,239.4531" style="stroke:#111827;stroke-width:1;stroke-linejoin:miter;stroke-miterlimit:10;"/><line style="stroke:#111827;stroke-width:1;stroke-dasharray:2,2;" x1="186.2817" x2="516.2764" y1="239.4531" y2="239.4531"/><text fill="#000000" font-family="'Arial'" font-size="13" font-weight="700" lengthAdjust="spacing" textLength="9.0454" x="198.2817" y="234.3872">2</text><text fill="#000000" font-family="'Arial'" font-size="13" lengthAdjust="spacing" textLength="121.2212" x="211.3271" y="234.3872">Geplante Abgaben</text></g><path d="M45,257.4531 L45,289.4531 A5,5 0 0 0 50,294.4531 L300,294.4531 A5,5 0 0 0 305,289.4531 L305,262.4531 L295,252.4531 L50,252.4531 A5,5 0 0 0 45,257.4531" fill="url(#gzn2nbp1ds3wn0)" style="stroke:#8B95A5;stroke-width:1;"/><path d="M295,252.4531 L295,259.9531 A2.5,2.5 0 0 0 297.5,262.4531 L305,262.4531 L295,252.4531" fill="url(#gzn2nbp1ds3wn0)" style="stroke:#8B95A5;stroke-width:1;"/><text fill="#111827" font-family="'Arial'" font-size="14" lengthAdjust="spacing" textLength="164.124" x="51" y="270.4482">GDA erh&#228;lt alle offenen</text><text fill="#111827" font-family="'Arial'" font-size="14" lengthAdjust="spacing" textLength="239.9756" x="51" y="286.7451">Geplanten Abgaben des Patienten</text><rect fill="#EEEEEE" height="3" rx="5" ry="5" style="stroke:#EEEEEE;stroke-width:1;" width="648.2822" x="0" y="321.1953"/><line style="stroke:#000000;stroke-width:1;" x1="0" x2="648.2822" y1="321.1953" y2="321.1953"/><line style="stroke:#000000;stroke-width:1;" x1="0" x2="648.2822" y1="324.1953" y2="324.1953"/><rect fill="#EEEEEE" height="24.2969" rx="5" ry="5" style="stroke:#000000;stroke-width:2;" width="216.2891" x="215.9966" y="310.0469"/><text fill="#000000" font-family="'Arial'" font-size="14" font-weight="700" lengthAdjust="spacing" textLength="197.415" x="221.9966" y="327.042">Medikationsplan abrufen</text><rect fill="none" height="42.5938" rx="5" ry="5" style="stroke:#000000;stroke-width:1.5;" width="411.9385" x="148" y="344.3438"/><path d="M153,344.3438 L215,344.3438 L215,352.3438 L205,362.3438 L148,362.3438 L148,349.3438 A5,5 0 0 1 153,344.3438" fill="#EEEEEE" style="stroke:#000000;stroke-width:2;"/><text fill="#000000" font-family="'Arial'" font-size="14" font-weight="700" lengthAdjust="spacing" textLength="22.4902" x="161" y="359.3389">ref</text><a href="interactions.html#sequenzdiagramm-plan-read" target="_top" title="interactions.html#sequenzdiagramm-plan-read" xlink:actuate="onRequest" xlink:href="interactions.html#sequenzdiagramm-plan-read" xlink:show="new" xlink:title="interactions.html#sequenzdiagramm-plan-read" xlink:type="simple"><text fill="#0000EE" font-family="'Arial'" font-size="14" lengthAdjust="spacing" textLength="70.6426" x="318.6479" y="379.3389">Plan-Read</text></a><path d="M9,401.9375 L9,449.9375 A5,5 0 0 0 14,454.9375 L336,454.9375 A5,5 0 0 0 341,449.9375 L341,406.9375 L331,396.9375 L14,396.9375 A5,5 0 0 0 9,401.9375" fill="url(#gzn2nbp1ds3wn0)" style="stroke:#8B95A5;stroke-width:1;"/><path d="M331,396.9375 L331,404.4375 A2.5,2.5 0 0 0 333.5,406.9375 L341,406.9375 L331,396.9375" fill="url(#gzn2nbp1ds3wn0)" style="stroke:#8B95A5;stroke-width:1;"/><text fill="#111827" font-family="'Arial'" font-size="14" lengthAdjust="spacing" textLength="226.8848" x="15" y="414.9326">GDA erh&#228;lt Medikationsplan und</text><text fill="#111827" font-family="'Arial'" font-size="14" lengthAdjust="spacing" textLength="285.0654" x="15" y="431.2295">kann die Geplanten Abgaben im Kontext</text><text fill="#111827" font-family="'Arial'" font-size="14" lengthAdjust="spacing" textLength="311.6094" x="15" y="447.5264">der bestehenden Gesamtmedikation pr&#252;fen.</text><rect fill="#EEEEEE" height="3" rx="5" ry="5" style="stroke:#EEEEEE;stroke-width:1;" width="648.2822" x="0" y="481.9766"/><line style="stroke:#000000;stroke-width:1;" x1="0" x2="648.2822" y1="481.9766" y2="481.9766"/><line style="stroke:#000000;stroke-width:1;" x1="0" x2="648.2822" y1="484.9766" y2="484.9766"/><rect fill="#EEEEEE" height="24.2969" rx="5" ry="5" style="stroke:#000000;stroke-width:2;" width="423.3223" x="112.48" y="470.8281"/><text fill="#000000" font-family="'Arial'" font-size="14" font-weight="700" lengthAdjust="spacing" textLength="404.4482" x="118.48" y="487.8232">Durchgef&#252;hrte Abgaben vorbereiten und schreiben</text><path d="M5,515.125 L5,563.125 A5,5 0 0 0 10,568.125 L342,568.125 A5,5 0 0 0 347,563.125 L347,520.125 L337,510.125 L10,510.125 A5,5 0 0 0 5,515.125" fill="url(#gzn2nbp1ds3wn0)" style="stroke:#8B95A5;stroke-width:1;"/><path d="M337,510.125 L337,517.625 A2.5,2.5 0 0 0 339.5,520.125 L347,520.125 L337,510.125" fill="url(#gzn2nbp1ds3wn0)" style="stroke:#8B95A5;stroke-width:1;"/><text fill="#111827" font-family="'Arial'" font-size="14" font-style="italic" lengthAdjust="spacing" textLength="168.7656" x="11" y="528.1201">Durchgef&#252;hrte Abgaben</text><text fill="#111827" font-family="'Arial'" font-size="14" lengthAdjust="spacing" textLength="61.0313" x="184.2158" y="528.1201">erstellen</text><text fill="#111827" font-family="'Arial'" font-size="14" lengthAdjust="spacing" textLength="182.4648" x="11" y="544.417">(referenzieren zugeh&#246;rige</text><text fill="#111827" font-family="'Arial'" font-size="14" font-style="italic" lengthAdjust="spacing" textLength="130.5459" x="197.915" y="544.417">Geplante Abgaben</text><text fill="#111827" font-family="'Arial'" font-size="14" lengthAdjust="spacing" textLength="4.4502" x="328.4609" y="544.417">&#160;</text><text fill="#111827" font-family="'Arial'" font-size="14" lengthAdjust="spacing" textLength="26.6328" x="11" y="560.7139">und</text><text fill="#111827" font-family="'Arial'" font-size="14" font-style="italic" lengthAdjust="spacing" textLength="173.1953" x="42.083" y="560.7139">Medikationsplaneintr&#228;ge</text><text fill="#111827" font-family="'Arial'" font-size="14" lengthAdjust="spacing" textLength="5.4619" x="215.2783" y="560.7139">)</text><g class="message" data-entity-1="part1" data-entity-2="part2" data-source-line="87" id="msg3"><polygon fill="#111827" points="500.2764,591.1484,510.2764,595.1484,500.2764,599.1484,504.2764,595.1484" style="stroke:#111827;stroke-width:1;stroke-linejoin:miter;stroke-miterlimit:10;"/><line style="stroke:#111827;stroke-width:1;" x1="181.2817" x2="506.2764" y1="595.1484" y2="595.1484"/><text fill="#000000" font-family="'Arial'" font-size="13" font-weight="700" lengthAdjust="spacing" textLength="9.0454" x="188.2817" y="590.0825">3</text><text fill="#000000" font-family="'Arial'" font-size="13" lengthAdjust="spacing" textLength="298.9492" x="201.3271" y="590.0825">POST Transaction Bundle MedicationDispense</text></g><path d="M146,610.1484 L206.9385,610.1484 L206.9385,618.4453 L196.9385,628.4453 L141,628.4453 L141,615.1484 A5,5 0 0 1 146,610.1484" fill="#EEF2FF" style="stroke:#111827;stroke-width:1.5;"/><rect fill="none" height="148.75" rx="5" ry="5" style="stroke:#111827;stroke-width:2;" width="480.7656" x="141" y="610.1484"/><text fill="#000000" font-family="'Arial'" font-size="14" font-weight="700" lengthAdjust="spacing" textLength="20.9385" x="156" y="624.1436">alt</text><text fill="#000000" font-family="'Arial'" font-size="14" font-weight="700" lengthAdjust="spacing" textLength="356.2207" x="221.9385" y="625.1436">[Durchgef&#252;hrte Abgaben erfolgreich erstellt]</text><path d="M422,639.7422 L422,671.7422 A5,5 0 0 0 427,676.7422 L606,676.7422 A5,5 0 0 0 611,671.7422 L611,644.7422 L601,634.7422 L427,634.7422 A5,5 0 0 0 422,639.7422" fill="url(#gzn2nbp1ds3wn0)" style="stroke:#8B95A5;stroke-width:1;"/><path d="M601,634.7422 L601,642.2422 A2.5,2.5 0 0 0 603.5,644.7422 L611,644.7422 L601,634.7422" fill="url(#gzn2nbp1ds3wn0)" style="stroke:#8B95A5;stroke-width:1;"/><text fill="#111827" font-family="'Arial'" font-size="14" font-style="italic" lengthAdjust="spacing" textLength="168.7656" x="428" y="652.7373">Durchgef&#252;hrte Abgaben</text><text fill="#111827" font-family="'Arial'" font-size="14" lengthAdjust="spacing" textLength="82.6123" x="428" y="669.0342">gespeichert</text><g class="message" data-entity-1="part2" data-entity-2="part1" data-source-line="97" id="msg4"><polygon fill="#111827" points="192.2817,699.4688,182.2817,703.4688,192.2817,707.4688,188.2817,703.4688" style="stroke:#111827;stroke-width:1;stroke-linejoin:miter;stroke-miterlimit:10;"/><line style="stroke:#111827;stroke-width:1;stroke-dasharray:2,2;" x1="186.2817" x2="511.2764" y1="703.4688" y2="703.4688"/><text fill="#000000" font-family="'Arial'" font-size="13" font-weight="700" lengthAdjust="spacing" textLength="9.0454" x="198.2817" y="698.4028">4</text><text fill="#000000" font-family="'Arial'" font-size="13" lengthAdjust="spacing" textLength="18.7573" x="211.3271" y="698.4028">OK</text></g><line style="stroke:#111827;stroke-width:1;stroke-dasharray:2,2;" x1="141" x2="621.7656" y1="712.4688" y2="712.4688"/><text fill="#000000" font-family="'Arial'" font-size="14" font-weight="700" lengthAdjust="spacing" textLength="372.5723" x="146" y="725.4639">[Fehler bei Erstellung Durchgef&#252;hrte Abgaben]</text><g class="message" data-entity-1="part2" data-entity-2="part1" data-source-line="100" id="msg5"><polygon fill="#111827" points="192.2817,746.8984,182.2817,750.8984,192.2817,754.8984,188.2817,750.8984" style="stroke:#111827;stroke-width:1;stroke-linejoin:miter;stroke-miterlimit:10;"/><line style="stroke:#111827;stroke-width:1;stroke-dasharray:2,2;" x1="186.2817" x2="516.2764" y1="750.8984" y2="750.8984"/><text fill="#000000" font-family="'Arial'" font-size="13" font-weight="700" lengthAdjust="spacing" textLength="9.0454" x="198.2817" y="745.8325">5</text><text fill="#000000" font-family="'Arial'" font-size="13" lengthAdjust="spacing" textLength="40.6694" x="211.3271" y="745.8325">Fehler</text></g><g class="message" data-entity-1="part1" data-entity-2="part3" data-source-line="105" id="msg6"><polygon fill="#111827" points="593.1104,783.0313,603.1104,787.0313,593.1104,791.0313,597.1104,787.0313" style="stroke:#111827;stroke-width:1;stroke-linejoin:miter;stroke-miterlimit:10;"/><line style="stroke:#111827;stroke-width:1;" x1="181.2817" x2="599.1104" y1="787.0313" y2="787.0313"/><text fill="#000000" font-family="'Arial'" font-size="13" font-weight="700" lengthAdjust="spacing" textLength="9.0454" x="188.2817" y="781.9653">6</text><text fill="#000000" font-family="'Arial'" font-size="13" lengthAdjust="spacing" textLength="68.9229" x="201.3271" y="781.9653">e-Rezept ?</text></g><?plantuml-src XLRDak8s4BxhAJhC9QbQDeR1m53Bf636aDJ-G34aXsosA87RM8MHYIpFRaZbRVOPSjeRBvQMRS1_kp47B7Nhw_u-jLhMGWS8Zx7Q-5lqJbzyfH56worV8w2AD0O1oZ_aRrm9Berf0CwRwQYvH158zFUeWCVQHwc59uu2bOQzqBGi0cnkk78PYtP27hZYUrY7oaNr40QXWXihUV9MljbjLHXBD_FmRFFBUKG-TyEFGcx1uq64EKksJ4dAfvK7TT7ZSQ0deTJl-1wXCI8YGQFUuqaS4LgTUkFNqlxvhmEgGCXTpi5nwXn-bMxoWfNqn-6dENTTmwnj5UV7UStivCbBAaFQbByPmBYi7bfeUrRpncsvTzWr7dca_lhEvlPbTkcBpKvY546BvXOvDIqQdtCpA3afMgrMlzsZkQVIlloJpp32FsEKcpJBELTQRCI1QgcEMD6XKW_9KtIgxap5VDxLWY4dDy18gV1ZcLGoMTGbcQgBU36aiMvfQagP7meSByYfgR9VwBKJThcLr_1j8-ftL8wcV1vcRsQBrVHnj6e1FPH7h__OwLer3kt4eT_hTiRzYiDyjFp5URTC4EviowuuZEOpW2p4kFTmMt5mtZgFgya8p67b7Ql6ORLmVdVcIxXnUfs-tIM7aiViDMGnRClfJYPjkmonMCmMYSDaqd-mh5iw07oZIRDK0Hv1WzwWrSWBmzZXkjk0Rz4rUHfVRD809gD6aKDfmMg1HppeR4KwQ9H8KHwn3cMyNwDYR3Y4AHw2j4qc7LG2NwlOe__XaB4qs-RzEPa1J9qbqBlOS2r2-IYY0ye8Ny2JvZgEXaHIF2DB_ZY1fW1vZXVJcL-HqNcsIK6J1ODAXip5CWXBUahuZ9d09d6w2_pJvu3aeFi0Geyu4IjsHfCNmYv6TCoqG3FBKBf9Xqh4CKnt2TF8h2feez3BHNnnuJE0z-y5GIcJ92rywUjzS9EsbACh-9OwpBvfu9eAkGjpyxQWjmyVlacZd0iTGs0xBec0GAZI4djuJSSRFsaWnHIiaQv6klLSiaqnudkzlo32GPs-4B6NHVgrTwo4vr1HzQ0mqKmMqSQdqJhJfSpXbRYlntdrexY_NjZ0lYT52LQQAvd6ntYB_kbV9RO8X56kWcGrC-79MD86INzr-hn5u_H3ZbErdkUpfoKi5PTHkbqm9aYgbsgD_r_bCawRTEaFNv4EbHS6Mr9huv-fQqODz2hQkQ81lYaSsRT8YH4GVS3Gw4eIeEOGKKgCqITEiKDDq0-IqX3WfDd4TC7KHwt7pH38M7CgZV9vqRC6DI2ah3t1J_y1?></g></svg>