<svg xmlns="http://www.w3.org/2000/svg" xmlns:xlink="http://www.w3.org/1999/xlink" version="1.1" data-diagram-type="SEQUENCE" style="width:593px;height:788px;background:#F5F5F5;" width="593px" height="788px" viewBox="0 0 593 788" zoomAndPan="magnify" preserveAspectRatio="none" contentStyleType="text/css"><?plantuml 1.2026.7beta8?><defs><linearGradient x1="50%" y1="0%" x2="50%" y2="100%" id="g1hz8plylt1ctr0"><stop stop-color="#E0E5F0" offset="0%"/><stop stop-color="#D1D9E6" offset="100%"/></linearGradient></defs><g font-family="sans-serif" lengthAdjust="spacing"><rect x="0" y="0" width="593" height="788" fill="#F5F5F5" style="stroke:none;"/><g class="title" data-source-line="1"><text x="217.625" y="27.995" fill="#000" font-size="14" textLength="156.099" font-weight="700" font-family="'Arial'">Prescription-Search</text></g><path d="M24.846,242.719 L528.687,242.719 A5,5 0 0 1 533.687,247.719 L533.687,381.336 L19.846,381.336 L19.846,247.719 A5,5 0 0 1 24.846,242.719" fill="#0F9ED5" fill-opacity="0.145"/><rect x="19.846" y="381.336" width="513.841" height="63.43" fill="#34738D" fill-opacity="0.306" style="stroke:#34738D4E;stroke-width:1;"/><path d="M19.846,444.766 L533.687,444.766 L533.687,492.195 A5,5 0 0 1 528.687,497.195 L24.846,497.195 A5,5 0 0 1 19.846,492.195 L19.846,444.766" fill="#E97132" fill-opacity="0.208"/><g><title>GDA</title><rect x="178.983" y="156.188" width="8" height="512.789" fill="#000" fill-opacity="0"/><line x1="182.483" y1="156.188" x2="182.483" y2="668.977" style="stroke:#181818;stroke-width:0.5;stroke-dasharray:5,5;"/></g><g><title></title><rect x="177.483" y="230.719" width="10" height="414.258" fill="#156082" fill-opacity="0.502" style="stroke:#181818;stroke-width:1;"/></g><g><title>e-Med FA</title><rect x="514.187" y="156.188" width="8" height="512.789" fill="#000" fill-opacity="0"/><line x1="517.687" y1="156.188" x2="517.687" y2="668.977" style="stroke:#181818;stroke-width:0.5;stroke-dasharray:5,5;"/></g><g><title></title><rect x="512.687" y="230.719" width="10" height="258.477" fill="#E97232" fill-opacity="0.741" style="stroke:#181818;stroke-width:1;"/></g><text x="163.88" y="120.292" fill="#000" font-size="14" textLength="31.206" font-family="'Arial'">GDA</text><text x="163.04" y="136.589" fill="#000" font-size="14" textLength="32.888" font-family="'Arial'">Arzt/</text><text x="143.243" y="152.886" fill="#000" font-size="14" textLength="72.481" font-family="'Arial'">Apotheker</text><ellipse cx="182.483" cy="55.797" rx="8" ry="8" fill="#156082" fill-opacity="0.502" style="stroke:#181818;stroke-width:0.5;"/><path d="M182.483,63.797 L182.483,90.797 M169.483,71.797 L195.483,71.797 M182.483,90.797 L169.483,105.797 M182.483,90.797 L195.483,105.797" style="stroke:#181818;stroke-width:0.5;" fill="none"/><rect x="478.025" y="124.891" width="79.324" height="30.297" fill="#E97232" fill-opacity="0.741" style="stroke:#555;stroke-width:0.5;" rx="5" ry="5"/><text x="485.025" y="144.886" fill="#000" font-size="14" textLength="65.324" font-family="'Arial'">e-Med FA</text><text x="163.88" y="681.972" fill="#000" font-size="14" textLength="31.206" font-family="'Arial'">GDA</text><text x="163.04" y="698.269" fill="#000" font-size="14" textLength="32.888" font-family="'Arial'">Arzt/</text><text x="143.243" y="714.565" fill="#000" font-size="14" textLength="72.481" font-family="'Arial'">Apotheker</text><ellipse cx="182.483" cy="726.367" rx="8" ry="8" fill="#156082" fill-opacity="0.502" style="stroke:#181818;stroke-width:0.5;"/><path d="M182.483,734.367 L182.483,761.367 M169.483,742.367 L195.483,742.367 M182.483,761.367 L169.483,776.367 M182.483,761.367 L195.483,776.367" style="stroke:#181818;stroke-width:0.5;" fill="none"/><rect x="478.025" y="668.977" width="79.324" height="30.297" fill="#E97232" fill-opacity="0.741" style="stroke:#555;stroke-width:0.5;" rx="5" ry="5"/><text x="485.025" y="688.972" fill="#000" font-size="14" textLength="65.324" font-family="'Arial'">e-Med FA</text><polygon points="500.687,226.719,510.687,230.719,500.687,234.719,504.687,230.719" fill="#111827" style="stroke:#111827;stroke-width:1;stroke-linejoin:miter;stroke-miterlimit:10;"/><line x1="187.483" y1="230.719" x2="506.687" y2="230.719" style="stroke:#111827;stroke-width:1;"/><text x="194.483" y="202.954" fill="#000" font-size="13" font-weight="700" font-family="'Arial'">1</text><text x="207.529" y="180.254" fill="#000" font-size="13" textLength="275.514" font-family="'Arial'">GET MedicationRequest mit Suchkriterien:</text><text x="207.529" y="195.387" fill="#000" font-size="13" textLength="210.374" font-family="'Arial'">- category = "Geplante Abgabe"</text><text x="207.529" y="210.52" fill="#000" font-size="13" textLength="174.402" font-family="'Arial'">- status = active (optional)</text><text x="207.529" y="225.653" fill="#000" font-size="13" textLength="164.322" font-family="'Arial'">- validityPeriod (optional)</text><path d="M24.846,242.719 L335.242,242.719 L335.242,251.016 L325.242,261.016 L19.846,261.016 L19.846,247.719 A5,5 0 0 1 24.846,242.719" style="stroke:#111827;stroke-width:1.5;" fill="#EEF2FF"/><rect x="19.846" y="242.719" width="513.841" height="254.477" fill="none" style="stroke:#111827;stroke-width:2;" rx="5" ry="5"/><text x="34.846" y="256.714" fill="#000" font-size="14" textLength="265.521" font-weight="700" font-family="'Arial'">alt: Geplante Abgaben gefunden?</text><text x="350.242" y="257.714" fill="#000" font-size="14" textLength="27.043" font-weight="700" font-family="'Arial'">[ja]</text><line x1="19.846" y1="381.336" x2="533.687" y2="381.336" style="stroke:#111827;stroke-width:1;stroke-dasharray:2,2;"/><text x="24.846" y="396.331" fill="#000" font-size="14" textLength="47.024" font-weight="700" font-family="'Arial'">[nein]</text><line x1="19.846" y1="444.766" x2="533.687" y2="444.766" style="stroke:#111827;stroke-width:1;stroke-dasharray:2,2;"/><text x="24.846" y="459.761" fill="#000" font-size="14" textLength="63.021" font-weight="700" font-family="'Arial'">[Fehler]</text><polygon points="198.483,289.445,188.483,293.445,198.483,297.445,194.483,293.445" fill="#111827" style="stroke:#111827;stroke-width:1;stroke-linejoin:miter;stroke-miterlimit:10;"/><line x1="192.483" y1="293.445" x2="511.687" y2="293.445" style="stroke:#111827;stroke-width:1;"/><text x="204.483" y="288.379" fill="#000" font-size="13" font-weight="700" font-family="'Arial'">2</text><text x="217.529" y="288.379" fill="#000" font-size="13" textLength="288.158" font-family="'Arial'">Bundle (type=searchset) Geplante Abgaben</text><path d="M40.846,311.445 L40.846,359.445 A5,5 0 0 0 45.846,364.445 L318.846,364.445 A5,5 0 0 0 323.846,359.445 L323.846,316.445 L313.846,306.445 L45.846,306.445 A5,5 0 0 0 40.846,311.445" style="stroke:#8B95A5;stroke-width:1;" fill="url(#g1hz8plylt1ctr0)"/><path d="M313.846,306.445 L313.846,313.945 A2.5,2.5 0 0 0 316.346,316.445 L323.846,316.445 L313.846,306.445" style="stroke:#8B95A5;stroke-width:1;" fill="url(#g1hz8plylt1ctr0)"/><text x="46.846" y="324.44" fill="#111827" font-size="14" textLength="234.869" font-family="'Arial'">GDA erhält alle den Suchkriterien</text><text x="46.846" y="340.737" fill="#111827" font-size="14" textLength="257.824" font-family="'Arial'">entsprechenden Geplanten Abgaben</text><text x="46.846" y="357.034" fill="#111827" font-size="14" textLength="100.557" font-family="'Arial'">des Patienten.</text><polygon points="198.483,421.766,188.483,425.766,198.483,429.766,194.483,425.766" fill="#111827" style="stroke:#111827;stroke-width:1;stroke-linejoin:miter;stroke-miterlimit:10;"/><line x1="192.483" y1="425.766" x2="511.687" y2="425.766" style="stroke:#111827;stroke-width:1;"/><text x="204.483" y="420.7" fill="#000" font-size="13" font-weight="700" font-family="'Arial'">3</text><text x="217.529" y="420.7" fill="#000" font-size="13" textLength="258.223" font-family="'Arial'">Bundle (type=searchset) ohne Einträge</text><polygon points="198.483,485.195,188.483,489.195,198.483,493.195,194.483,489.195" fill="#111827" style="stroke:#111827;stroke-width:1;stroke-linejoin:miter;stroke-miterlimit:10;"/><line x1="192.483" y1="489.195" x2="511.687" y2="489.195" style="stroke:#111827;stroke-width:1;stroke-dasharray:2,2;"/><text x="204.483" y="484.129" fill="#000" font-size="13" font-weight="700" font-family="'Arial'">4</text><text x="217.529" y="484.129" fill="#000" font-size="13" textLength="189.446" font-family="'Arial'">HTTP 4xx OperationOutcome</text><path d="M18,515.195 L84.332,515.195 L84.332,523.492 L74.332,533.492 L13,533.492 L13,520.195 A5,5 0 0 1 18,515.195" style="stroke:#111827;stroke-width:1.5;" fill="#EEF2FF"/><rect x="13" y="515.195" width="560.349" height="129.781" fill="none" style="stroke:#111827;stroke-width:2;" rx="5" ry="5"/><text x="28" y="529.19" fill="#000" font-size="14" textLength="26.332" font-weight="700" font-family="'Arial'">opt</text><text x="99.332" y="530.19" fill="#000" font-size="14" textLength="190.408" font-weight="700" font-family="'Arial'">[Medikationsplan lesen]</text><rect x="145.243" y="544.789" width="410.106" height="42.594" fill="none" style="stroke:#000;stroke-width:1.5;" rx="5" ry="5"/><path d="M150.243,544.789 L212.243,544.789 L212.243,552.789 L202.243,562.789 L145.243,562.789 L145.243,549.789 A5,5 0 0 1 150.243,544.789" style="stroke:#000;stroke-width:2;" fill="#EEE"/><text x="158.243" y="559.784" fill="#000" font-size="14" textLength="22.49" font-weight="700" font-family="'Arial'">ref</text><a target="_top" href="interactions.html#sequenzdiagramm-plan-read" xlink:href="interactions.html#sequenzdiagramm-plan-read" xlink:type="simple" xlink:actuate="onRequest" xlink:show="new" title="interactions.html#sequenzdiagramm-plan-read" xlink:title="interactions.html#sequenzdiagramm-plan-read"><text x="314.975" y="579.784" fill="#00E" font-size="14" textLength="70.643" font-family="'Arial'">Plan-Read</text></a><path d="M34,602.383 L34,634.383 A5,5 0 0 0 39,639.383 L325,639.383 A5,5 0 0 0 330,634.383 L330,607.383 L320,597.383 L39,597.383 A5,5 0 0 0 34,602.383" style="stroke:#8B95A5;stroke-width:1;" fill="url(#g1hz8plylt1ctr0)"/><path d="M320,597.383 L320,604.883 A2.5,2.5 0 0 0 322.5,607.383 L330,607.383 L320,597.383" style="stroke:#8B95A5;stroke-width:1;" fill="url(#g1hz8plylt1ctr0)"/><text x="40" y="615.378" fill="#111827" font-size="14" textLength="271.517" font-family="'Arial'">Optionaler Abruf des Medikationsplans</text><text x="40" y="631.675" fill="#111827" font-size="14" textLength="250.66" font-family="'Arial'">zur Prüfung der Gesamtmedikation.</text><?plantuml-src bLRRajf647tNLtJWmNPLs82uRvMJ4aQiKuaD1UGbworga5feWXWfez5USFbl_1bvsnzBpuYB9CX3n0EZxjEtqqqFYgi8OIOnzIHF58z5Ou5CUg5blKctN2HCiXqmJyLoeLu8ofumZNTeMMVjEfO-oWzn54keDyrJr39lkv5n9lm38kZgJm6HXioFdxZOGC2Y50kQWvaKAA5LTEfZmB98JMAXFhCTGisHd4MrwuW5toEqEjUL_vNsnvS4PSJ5jW1mtMk0FuHl3dYH_YX-dZ7VrvNPpR9yLEIiQvuYfI9M25yjW56LFMnYDsWswdxB7s9F8ugU1kjXbtLFqcN8lQt0D8KMoUO5DflqVinDUobGqMgr1dQVP8jANxuLCqpnxmo5bsSvOr9nZoTCg6k5bG2Nf5-eZmqhAGfC0ZXIna_LV8smNB8HNOjuKkInsYIw8vgJKledpxdgeXKOs45GjZo7jpLVFz2awSduCFrzEb_TZPrL2-Yfjxgzvi0UDAy0R0COzdhD_lW2C7EMlxgVbzh3i3UoEnS0PpO5yzIRaw4xxWwh0FUJErvD70BWi6-txRLV1Qpcxf_kR0brps_tspORLikO_WQb67Rt0f1N0VLsfzyU-1sinfZFftC3S8VzLjjkq_2R7GCvHIo56fs-24VkrK_qbSGgn2tAMf59ApbF1-0dz7LTsXGRz08JfrQksNe39OlL7FUOg8D9_bAhi41vPIeMsMwDqhBox1e_7wFTmfsx13fpZ-dTETS_YbJ1ZYjOP5wubLoXv2XkluW640OtiNo1zrGT9X4bWU2iDsoDDQrF5LDPIbgYWZyYl8tDGcRHEwrzP17tkNgPaSFOBoWj0oVV1_AA39rKHthAGs1PUg2JSrzPfAYcScu2DXZGrAFu1Ux_OWyqy4Tln8I9SmiZ0j3jy5RHLdoVcXiaHVNkmfT5rcQvnOzuwBR-0OqTG1c-Ve-e6n7veM1b0a575IfD97eXwcHEhiKfJyBucDBIK6H1YflSoZSHBGjfYHKdL20N_wkOEAG9ThbGylNxfkmmd-W9XX7DIS7dsUd7vN86dUTdcDAzOQPbcYbFNwKwwsgZI6XHvfPbKP_DX6sDJQfhXWZJd4g9GO797qznR-7-dlAaG9wnkWdLBghdEtllSxQX5RvhQ5yDYSo7cJxDwVJmSBL1qyEmaSXPoommF5UoIZNR-qpIludNVsXWDWGY3vYodTgTe3V5bfGgpsEHxby0?></g></svg>