<svg xmlns="http://www.w3.org/2000/svg" xmlns:xlink="http://www.w3.org/1999/xlink" contentStyleType="text/css" data-diagram-type="SEQUENCE" height="1772px" preserveAspectRatio="none" style="width:1463px;height:1772px;background:#F5F5F5;" version="1.1" viewBox="0 0 1463 1772" width="1463px" zoomAndPan="magnify"><?plantuml 1.2026.4beta2?><defs><linearGradient id="gm1dtm20btuhq0" x1="50%" x2="50%" y1="0%" y2="100%"><stop offset="0%" stop-color="#E0E5F0"/><stop offset="100%" stop-color="#D1D9E6"/></linearGradient><filter height="300%" id="fm1dtm20btuhq" width="300%" x="-1" y="-1"><feGaussianBlur result="blurOut" stdDeviation="2"/><feColorMatrix in="blurOut" result="blurOut2" type="matrix" values="0 0 0 0 0 0 0 0 0 0 0 0 0 0 0 0 0 0 .4 0"/><feOffset dx="4" dy="4" in="blurOut2" result="blurOut3"/><feBlend in="SourceGraphic" in2="blurOut3" mode="normal"/></filter></defs><g><rect fill="#F5F5F5" height="1772" style="stroke:none;stroke-width:1;" width="1463" x="0" y="0"/><g class="title" data-source-line="1"><text fill="#000000" font-family="'Arial'" font-size="14" font-weight="700" lengthAdjust="spacing" textLength="563.7324" x="446.542" y="27.9951">Geplante Abgabe aus bestehenden Medikationsplaneintr&#228;gen erstellen</text></g><rect fill="#9FBAC4" height="1722.4453" rx="5" ry="5" style="stroke:#181818;stroke-width:0.5;" width="74.0586" x="217" y="43.2969"/><text fill="#000000" font-family="'Arial'" font-size="14" font-weight="700" lengthAdjust="spacing" textLength="4.874" x="220" y="56.292">&#160;</text><text fill="#000000" font-family="'Arial'" font-size="14" font-weight="700" lengthAdjust="spacing" textLength="48.5625" x="229.748" y="72.5889">GDA 1</text><rect fill="#C48778" height="1722.4453" rx="5" ry="5" style="stroke:#181818;stroke-width:0.5;" width="256.9268" x="609.2476" y="43.2969"/><text fill="#000000" font-family="'Arial'" font-size="14" font-weight="700" lengthAdjust="spacing" textLength="4.874" x="612.2476" y="56.292">&#160;</text><text fill="#000000" font-family="'Arial'" font-size="14" font-weight="700" lengthAdjust="spacing" textLength="182.6904" x="646.3657" y="72.5889">e-Med Fachanwendung</text><rect fill="#CBB272" height="1722.4453" rx="5" ry="5" style="stroke:#181818;stroke-width:0.5;" width="105.1826" x="1229.0654" y="43.2969"/><text fill="#000000" font-family="'Arial'" font-size="14" font-weight="700" lengthAdjust="spacing" textLength="4.874" x="1232.0654" y="56.292">&#160;</text><text fill="#000000" font-family="'Arial'" font-size="14" font-weight="700" lengthAdjust="spacing" textLength="69.9385" x="1251.5615" y="72.5889">e-Rezept</text><g><title>GDA 1</title><rect fill="#FFFFFF" height="1511.2578" style="stroke:#181818;stroke-width:1;" width="10" x="249.0293" y="166.1875"/></g><g><title>e-Med FA</title><rect fill="#FFFFFF" height="126.8594" style="stroke:#181818;stroke-width:1;" width="10" x="732.7109" y="598.1172"/></g><g><title>e-Med FA</title><rect fill="#FFFFFF" height="615.8906" style="stroke:#181818;stroke-width:1;" width="10" x="732.7109" y="1038.5547"/></g><g><title>e-Rezept</title><rect fill="#FFFFFF" height="184.5859" style="stroke:#181818;stroke-width:1;" width="10" x="1276.6567" y="809.7031"/></g><rect fill="none" height="805.4453" rx="5" ry="5" style="stroke:#111827;stroke-width:2;" width="1327.397" x="120" y="864"/><rect fill="none" height="177.5859" rx="5" ry="5" style="stroke:#111827;stroke-width:2;" width="967.6885" x="218.7476" y="1151.2813"/><rect fill="none" height="177.5859" rx="5" ry="5" style="stroke:#111827;stroke-width:2;" width="967.6885" x="218.7476" y="1484.8594"/><g class="participant-lifeline" data-entity-uid="part1" data-qualified-name="GDA_1" data-source-line="43" id="part1-lifeline"><g><title>GDA 1</title><rect fill="#000000" fill-opacity="0.00000" height="1530.2578" width="8" x="250.0293" y="156.1875"/><line style="stroke:#181818;stroke-width:0.5;stroke-dasharray:5,5;" x1="253.7476" x2="253.7476" y1="156.1875" y2="1686.4453"/></g></g><g class="participant-lifeline" data-entity-uid="part2" data-qualified-name="eMed_FA" data-source-line="47" id="part2-lifeline"><g><title>e-Med FA</title><rect fill="#000000" fill-opacity="0.00000" height="1530.2578" width="8" x="733.7109" y="156.1875"/><line style="stroke:#181818;stroke-width:0.5;stroke-dasharray:5,5;" x1="737.0488" x2="737.0488" y1="156.1875" y2="1686.4453"/></g></g><g class="participant-lifeline" data-entity-uid="part3" data-qualified-name="e_Rezept" data-source-line="51" id="part3-lifeline"><g><title>e-Rezept</title><rect fill="#000000" fill-opacity="0.00000" height="1530.2578" width="8" x="1277.6567" y="156.1875"/><line style="stroke:#181818;stroke-width:0.5;stroke-dasharray:5,5;" x1="1281.4849" x2="1281.4849" y1="156.1875" y2="1686.4453"/></g></g><g class="participant participant-head" data-entity-uid="part1" data-qualified-name="GDA_1" data-source-line="43" id="part1-head"><text fill="#000000" font-family="'Arial'" font-size="14" lengthAdjust="spacing" textLength="44.5635" x="228.7476" y="152.8857">GDA 1</text><ellipse cx="254.0293" cy="88.3906" fill="#E2E2F0" rx="8" ry="8" style="stroke:#181818;stroke-width:0.5;"/><path d="M254.0293,96.3906 L254.0293,123.3906 M241.0293,104.3906 L267.0293,104.3906 M254.0293,123.3906 L241.0293,138.3906 M254.0293,123.3906 L267.0293,138.3906" fill="none" style="stroke:#181818;stroke-width:0.5;"/></g><g class="participant participant-tail" data-entity-uid="part1" data-qualified-name="GDA_1" data-source-line="43" id="part1-tail"><text fill="#000000" font-family="'Arial'" font-size="14" lengthAdjust="spacing" textLength="44.5635" x="228.7476" y="1698.4404">GDA 1</text><ellipse cx="254.0293" cy="1710.2422" fill="#E2E2F0" rx="8" ry="8" style="stroke:#181818;stroke-width:0.5;"/><path d="M254.0293,1718.2422 L254.0293,1745.2422 M241.0293,1726.2422 L267.0293,1726.2422 M254.0293,1745.2422 L241.0293,1760.2422 M254.0293,1745.2422 L267.0293,1760.2422" fill="none" style="stroke:#181818;stroke-width:0.5;"/></g><g class="participant participant-head" data-entity-uid="part2" data-qualified-name="eMed_FA" data-source-line="47" id="part2-head"><rect fill="#FFFFFF" height="30.2969" rx="5" ry="5" style="stroke:#555555;stroke-width:0.5;" width="79.3242" x="698.0488" y="124.8906"/><text fill="#000000" font-family="'Arial'" font-size="14" lengthAdjust="spacing" textLength="65.3242" x="705.0488" y="144.8857">e-Med FA</text></g><g class="participant participant-tail" data-entity-uid="part2" data-qualified-name="eMed_FA" data-source-line="47" id="part2-tail"><rect fill="#FFFFFF" height="30.2969" rx="5" ry="5" style="stroke:#555555;stroke-width:0.5;" width="79.3242" x="698.0488" y="1685.4453"/><text fill="#000000" font-family="'Arial'" font-size="14" lengthAdjust="spacing" textLength="65.3242" x="705.0488" y="1705.4404">e-Med FA</text></g><g class="participant participant-head" data-entity-uid="part3" data-qualified-name="e_Rezept" data-source-line="51" id="part3-head"><rect fill="#FFFFFF" height="30.2969" rx="5" ry="5" style="stroke:#555555;stroke-width:0.5;" width="76.3438" x="1243.4849" y="124.8906"/><text fill="#000000" font-family="'Arial'" font-size="14" lengthAdjust="spacing" textLength="62.3438" x="1250.4849" y="144.8857">e-Rezept</text></g><g class="participant participant-tail" data-entity-uid="part3" data-qualified-name="e_Rezept" data-source-line="51" id="part3-tail"><rect fill="#FFFFFF" height="30.2969" rx="5" ry="5" style="stroke:#555555;stroke-width:0.5;" width="76.3438" x="1243.4849" y="1685.4453"/><text fill="#000000" font-family="'Arial'" font-size="14" lengthAdjust="spacing" textLength="62.3438" x="1250.4849" y="1705.4404">e-Rezept</text></g><g><title>GDA 1</title><rect fill="#FFFFFF" height="1511.2578" style="stroke:#181818;stroke-width:1;" width="10" x="249.0293" y="166.1875"/></g><g><title>e-Med FA</title><rect fill="#FFFFFF" height="126.8594" style="stroke:#181818;stroke-width:1;" width="10" x="732.7109" y="598.1172"/></g><g><title>e-Med FA</title><rect fill="#FFFFFF" height="615.8906" style="stroke:#181818;stroke-width:1;" width="10" x="732.7109" y="1038.5547"/></g><g><title>e-Rezept</title><rect fill="#FFFFFF" height="184.5859" style="stroke:#181818;stroke-width:1;" width="10" x="1276.6567" y="809.7031"/></g><rect fill="#EEEEEE" height="3" rx="5" ry="5" style="stroke:#EEEEEE;stroke-width:1;" width="1457.8164" x="0" y="187.3359"/><line style="stroke:#000000;stroke-width:1;" x1="0" x2="1457.8164" y1="187.3359" y2="187.3359"/><line style="stroke:#000000;stroke-width:1;" x1="0" x2="1457.8164" y1="190.3359" y2="190.3359"/><rect fill="#EEEEEE" height="24.2969" rx="5" ry="5" style="stroke:#000000;stroke-width:2;" width="216.2891" x="620.7637" y="176.1875"/><text fill="#000000" font-family="'Arial'" font-size="14" font-weight="700" lengthAdjust="spacing" textLength="197.415" x="626.7637" y="193.1826">Medikationsplan abrufen</text><rect fill="none" height="42.5938" rx="5" ry="5" style="stroke:#000000;stroke-width:1.5;" width="554.6255" x="225.7476" y="210.4844"/><path d="M230.7476,210.4844 L292.7476,210.4844 L292.7476,218.4844 L282.7476,228.4844 L225.7476,228.4844 L225.7476,215.4844 A5,5 0 0 1 230.7476,210.4844" fill="#EEEEEE" style="stroke:#000000;stroke-width:2;"/><text fill="#000000" font-family="'Arial'" font-size="14" font-weight="700" lengthAdjust="spacing" textLength="22.4902" x="238.7476" y="225.4795">ref</text><text fill="#000000" font-family="'Arial'" font-size="14" lengthAdjust="spacing" textLength="89.9951" x="458.0627" y="245.4795">$readtowrite</text><path d="M108,268.0781 L108,316.0781 A5,5 0 0 0 113,321.0781 L391,321.0781 A5,5 0 0 0 396,316.0781 L396,273.0781 L386,263.0781 L113,263.0781 A5,5 0 0 0 108,268.0781" fill="url(#gm1dtm20btuhq0)" filter="url(#fm1dtm20btuhq)" style="stroke:#8B95A5;stroke-width:1;"/><path d="M386,263.0781 L386,270.5781 A2.5,2.5 0 0 0 388.5,273.0781 L396,273.0781 L386,263.0781" fill="url(#gm1dtm20btuhq0)" style="stroke:#8B95A5;stroke-width:1;"/><text fill="#111827" font-family="'Arial'" font-size="14" lengthAdjust="spacing" textLength="177.0576" x="114" y="281.0732">GDA erh&#228;lt den aktuellen</text><text fill="#111827" font-family="'Arial'" font-size="14" lengthAdjust="spacing" textLength="263.3613" x="114" y="297.3701">Medikationsplan im Collection Bundle</text><text fill="#111827" font-family="'Arial'" font-size="14" lengthAdjust="spacing" textLength="259.4102" x="114" y="313.667">(AtElgaEmedBundleMedikationsplan)</text><g class="message" data-entity-1="part1" data-entity-2="part1" data-source-line="68" id="msg1"><line style="stroke:#111827;stroke-width:1;" x1="259.0293" x2="301.0293" y1="366.2344" y2="366.2344"/><line style="stroke:#111827;stroke-width:1;" x1="301.0293" x2="301.0293" y1="366.2344" y2="379.2344"/><line style="stroke:#111827;stroke-width:1;" x1="260.0293" x2="301.0293" y1="379.2344" y2="379.2344"/><polygon fill="#111827" points="270.0293,375.2344,260.0293,379.2344,270.0293,383.2344,266.0293,379.2344" style="stroke:#111827;stroke-width:1;"/><text fill="#000000" font-family="'Arial'" font-size="13" font-weight="700" lengthAdjust="spacing" textLength="9.0454" x="266.0293" y="353.6021">1</text><text fill="#000000" font-family="'Arial'" font-size="13" lengthAdjust="spacing" textLength="173.7861" x="279.0747" y="346.0356">Geplante Abgabe erstellen</text><text fill="#000000" font-family="'Arial'" font-size="13" lengthAdjust="spacing" textLength="335.042" x="279.0747" y="361.1685">(AtElgaEmedMedicationRequestGeplanteAbgabe 1)</text></g><g class="message" data-entity-1="part1" data-entity-2="part1" data-source-line="69" id="msg2"><line style="stroke:#111827;stroke-width:1;" x1="259.0293" x2="301.0293" y1="423.5" y2="423.5"/><line style="stroke:#111827;stroke-width:1;" x1="301.0293" x2="301.0293" y1="423.5" y2="436.5"/><line style="stroke:#111827;stroke-width:1;" x1="260.0293" x2="301.0293" y1="436.5" y2="436.5"/><polygon fill="#111827" points="270.0293,432.5,260.0293,436.5,270.0293,440.5,266.0293,436.5" style="stroke:#111827;stroke-width:1;"/><text fill="#000000" font-family="'Arial'" font-size="13" font-weight="700" lengthAdjust="spacing" textLength="9.0454" x="266.0293" y="410.8677">2</text><text fill="#000000" font-family="'Arial'" font-size="13" lengthAdjust="spacing" textLength="173.7861" x="279.0747" y="403.3013">Geplante Abgabe erstellen</text><text fill="#000000" font-family="'Arial'" font-size="13" lengthAdjust="spacing" textLength="335.042" x="279.0747" y="418.4341">(AtElgaEmedMedicationRequestGeplanteAbgabe 2)</text></g><path d="M56,454.5 L56,519.5 A5,5 0 0 0 61,524.5 L443,524.5 A5,5 0 0 0 448,519.5 L448,459.5 L438,449.5 L61,449.5 A5,5 0 0 0 56,454.5" fill="url(#gm1dtm20btuhq0)" filter="url(#fm1dtm20btuhq)" style="stroke:#8B95A5;stroke-width:1;"/><path d="M438,449.5 L438,457 A2.5,2.5 0 0 0 440.5,459.5 L448,459.5 L438,449.5" fill="url(#gm1dtm20btuhq0)" style="stroke:#8B95A5;stroke-width:1;"/><text fill="#111827" font-family="'Arial'" font-size="14" lengthAdjust="spacing" textLength="309.8662" x="62" y="467.4951">Die neu erstellten geplanten Abgaben 1 + 2</text><text fill="#111827" font-family="'Arial'" font-size="14" lengthAdjust="spacing" textLength="347.457" x="62" y="483.792">(AtElgaEmedMedicationRequestGeplanteAbgabe)</text><text fill="#111827" font-family="'Arial'" font-size="14" lengthAdjust="spacing" textLength="371.8613" x="62" y="500.0889">referenizieren bestehenden Medikationsplaneintr&#228;ge</text><text fill="#111827" font-family="'Arial'" font-size="14" lengthAdjust="spacing" textLength="207.9219" x="62" y="516.3857">(Medikationsplaneintrags-ids)</text><rect fill="#EEEEEE" height="3" rx="5" ry="5" style="stroke:#EEEEEE;stroke-width:1;" width="1457.8164" x="0" y="553.8359"/><line style="stroke:#000000;stroke-width:1;" x1="0" x2="1457.8164" y1="553.8359" y2="553.8359"/><line style="stroke:#000000;stroke-width:1;" x1="0" x2="1457.8164" y1="556.8359" y2="556.8359"/><rect fill="#EEEEEE" height="24.2969" rx="5" ry="5" style="stroke:#000000;stroke-width:2;" width="237.1523" x="610.332" y="542.6875"/><text fill="#000000" font-family="'Arial'" font-size="14" font-weight="700" lengthAdjust="spacing" textLength="218.2783" x="616.332" y="559.6826">Geplante Abgabe schreiben</text><g class="message" data-entity-1="part1" data-entity-2="part2" data-source-line="79" id="msg3"><polygon fill="#111827" points="720.7109,594.1172,730.7109,598.1172,720.7109,602.1172,724.7109,598.1172" style="stroke:#111827;stroke-width:1;"/><line style="stroke:#111827;stroke-width:1;" x1="259.0293" x2="726.7109" y1="598.1172" y2="598.1172"/><text fill="#000000" font-family="'Arial'" font-size="13" font-weight="700" lengthAdjust="spacing" textLength="9.0454" x="266.0293" y="593.0513">3</text><text fill="#000000" font-family="'Arial'" font-size="13" lengthAdjust="spacing" textLength="208.9395" x="279.0747" y="593.0513">e-Med groupIdentifier anfordern</text></g><path d="M90,616.1172 L90,648.1172 A5,5 0 0 0 95,653.1172 L409,653.1172 A5,5 0 0 0 414,648.1172 L414,621.1172 L404,611.1172 L95,611.1172 A5,5 0 0 0 90,616.1172" fill="url(#gm1dtm20btuhq0)" filter="url(#fm1dtm20btuhq)" style="stroke:#8B95A5;stroke-width:1;"/><path d="M404,611.1172 L404,618.6172 A2.5,2.5 0 0 0 406.5,621.1172 L414,621.1172 L404,611.1172" fill="url(#gm1dtm20btuhq0)" style="stroke:#8B95A5;stroke-width:1;"/><text fill="#111827" font-family="'Arial'" font-size="14" lengthAdjust="spacing" textLength="303.9668" x="96" y="629.1123">e-Med groupIdentifier f&#252;r "Rezeptklammer"</text><text fill="#111827" font-family="'Arial'" font-size="14" lengthAdjust="spacing" textLength="68.8311" x="96" y="645.4092">anfordern</text><g class="message" data-entity-1="part2" data-entity-2="part2" data-source-line="87" id="msg4"><line style="stroke:#111827;stroke-width:1;" x1="742.7109" x2="784.7109" y1="682.8438" y2="682.8438"/><line style="stroke:#111827;stroke-width:1;" x1="784.7109" x2="784.7109" y1="682.8438" y2="695.8438"/><line style="stroke:#111827;stroke-width:1;" x1="743.7109" x2="784.7109" y1="695.8438" y2="695.8438"/><polygon fill="#111827" points="753.7109,691.8438,743.7109,695.8438,753.7109,699.8438,749.7109,695.8438" style="stroke:#111827;stroke-width:1;"/><text fill="#000000" font-family="'Arial'" font-size="13" font-weight="700" lengthAdjust="spacing" textLength="9.0454" x="749.7109" y="677.7778">4</text><text fill="#000000" font-family="'Arial'" font-size="13" lengthAdjust="spacing" textLength="205.918" x="762.7563" y="677.7778">e-Med groupIdentifier erzeugen</text></g><g class="message" data-entity-1="part2" data-entity-2="part1" data-source-line="88" id="msg5"><line style="stroke:#111827;stroke-width:1;" x1="260.0293" x2="270.0293" y1="724.9766" y2="720.9766"/><line style="stroke:#111827;stroke-width:1;" x1="260.0293" x2="270.0293" y1="724.9766" y2="728.9766"/><line style="stroke:#111827;stroke-width:1;stroke-dasharray:2,2;" x1="259.0293" x2="736.7109" y1="724.9766" y2="724.9766"/><text fill="#000000" font-family="'Arial'" font-size="13" font-weight="700" lengthAdjust="spacing" textLength="9.0454" x="276.0293" y="719.9106">5</text><text fill="#000000" font-family="'Arial'" font-size="13" lengthAdjust="spacing" textLength="140.8926" x="289.0747" y="719.9106">e-Med groupIdentifier</text></g><path d="M131,742.9766 L131,774.9766 A5,5 0 0 0 136,779.9766 L368,779.9766 A5,5 0 0 0 373,774.9766 L373,747.9766 L363,737.9766 L136,737.9766 A5,5 0 0 0 131,742.9766" fill="url(#gm1dtm20btuhq0)" filter="url(#fm1dtm20btuhq)" style="stroke:#8B95A5;stroke-width:1;"/><path d="M363,737.9766 L363,745.4766 A2.5,2.5 0 0 0 365.5,747.9766 L373,747.9766 L363,737.9766" fill="url(#gm1dtm20btuhq0)" style="stroke:#8B95A5;stroke-width:1;"/><text fill="#111827" font-family="'Arial'" font-size="14" lengthAdjust="spacing" textLength="158.0127" x="137" y="755.9717">Geplante Abgaben mit</text><text fill="#111827" font-family="'Arial'" font-size="14" lengthAdjust="spacing" textLength="221.1016" x="137" y="772.2686">e-Med groupIdentifier versehen</text><g class="message" data-entity-1="part1" data-entity-2="part3" data-source-line="96" id="msg6"><line style="stroke:#111827;stroke-width:1;" x1="1274.6567" x2="1264.6567" y1="809.7031" y2="805.7031"/><line style="stroke:#111827;stroke-width:1;" x1="1274.6567" x2="1264.6567" y1="809.7031" y2="813.7031"/><line style="stroke:#111827;stroke-width:1;" x1="259.0293" x2="1275.6567" y1="809.7031" y2="809.7031"/><text fill="#000000" font-family="'Arial'" font-size="13" font-weight="700" lengthAdjust="spacing" textLength="9.0454" x="266.0293" y="804.6372">6</text><text fill="#000000" font-family="'Arial'" font-size="13" lengthAdjust="spacing" textLength="169.5713" x="279.0747" y="804.6372">Trigger e-Rezept erstellen</text></g><path d="M5,827.7031 L5,843.7031 A5,5 0 0 0 10,848.7031 L495,848.7031 A5,5 0 0 0 500,843.7031 L500,832.7031 L490,822.7031 L10,822.7031 A5,5 0 0 0 5,827.7031" fill="url(#gm1dtm20btuhq0)" filter="url(#fm1dtm20btuhq)" style="stroke:#8B95A5;stroke-width:1;"/><path d="M490,822.7031 L490,830.2031 A2.5,2.5 0 0 0 492.5,832.7031 L500,832.7031 L490,822.7031" fill="url(#gm1dtm20btuhq0)" style="stroke:#8B95A5;stroke-width:1;"/><text fill="#111827" font-family="'Arial'" font-size="14" lengthAdjust="spacing" textLength="474.25" x="11" y="840.6982">Erstellung eines e-Rezepts mit beiden geplanten Abgaben ausl&#246;sen</text><path d="M125,864 L185.9385,864 L185.9385,872.2969 L175.9385,882.2969 L120,882.2969 L120,869 A5,5 0 0 1 125,864" fill="#EEF2FF" style="stroke:#111827;stroke-width:1.5;"/><rect fill="none" height="805.4453" rx="5" ry="5" style="stroke:#111827;stroke-width:2;" width="1327.397" x="120" y="864"/><text fill="#000000" font-family="'Arial'" font-size="14" font-weight="700" lengthAdjust="spacing" textLength="20.9385" x="135" y="877.9951">alt</text><text fill="#000000" font-family="'Arial'" font-size="14" font-weight="700" lengthAdjust="spacing" textLength="253.627" x="200.9385" y="878.9951">[Fehler bei Erstellung e_Rezept]</text><g class="message" data-entity-1="part3" data-entity-2="part1" data-source-line="104" id="msg7"><line style="stroke:#111827;stroke-width:1;" x1="260.0293" x2="270.0293" y1="904.7266" y2="900.7266"/><line style="stroke:#111827;stroke-width:1;" x1="260.0293" x2="270.0293" y1="904.7266" y2="908.7266"/><line style="stroke:#111827;stroke-width:1;stroke-dasharray:2,2;" x1="259.0293" x2="1275.6567" y1="904.7266" y2="904.7266"/><text fill="#000000" font-family="'Arial'" font-size="13" font-weight="700" lengthAdjust="spacing" textLength="9.0454" x="276.0293" y="899.6606">7</text><text fill="#000000" font-family="'Arial'" font-size="13" lengthAdjust="spacing" textLength="40.6694" x="289.0747" y="899.6606">Fehler</text></g><line style="stroke:#111827;stroke-width:1;stroke-dasharray:2,2;" x1="120" x2="1447.397" y1="913.7266" y2="913.7266"/><text fill="#000000" font-family="'Arial'" font-size="14" font-weight="700" lengthAdjust="spacing" textLength="237.2754" x="125" y="926.7217">[e_Rezept erfolgreich erstellt]</text><g class="message" data-entity-1="part3" data-entity-2="part3" data-source-line="107" id="msg8"><line style="stroke:#111827;stroke-width:1;" x1="1286.6567" x2="1328.6567" y1="952.1563" y2="952.1563"/><line style="stroke:#111827;stroke-width:1;" x1="1328.6567" x2="1328.6567" y1="952.1563" y2="965.1563"/><line style="stroke:#111827;stroke-width:1;" x1="1287.6567" x2="1328.6567" y1="965.1563" y2="965.1563"/><polygon fill="#111827" points="1297.6567,961.1563,1287.6567,965.1563,1297.6567,969.1563,1293.6567,965.1563" style="stroke:#111827;stroke-width:1;"/><text fill="#000000" font-family="'Arial'" font-size="13" font-weight="700" lengthAdjust="spacing" textLength="9.0454" x="1293.6567" y="947.0903">8</text><text fill="#000000" font-family="'Arial'" font-size="13" lengthAdjust="spacing" textLength="118.6948" x="1306.7021" y="947.0903">e-Rezept erstellen</text></g><g class="message" data-entity-1="part3" data-entity-2="part1" data-source-line="108" id="msg9"><line style="stroke:#111827;stroke-width:1;" x1="260.0293" x2="270.0293" y1="994.2891" y2="990.2891"/><line style="stroke:#111827;stroke-width:1;" x1="260.0293" x2="270.0293" y1="994.2891" y2="998.2891"/><line style="stroke:#111827;stroke-width:1;stroke-dasharray:2,2;" x1="259.0293" x2="1280.6567" y1="994.2891" y2="994.2891"/><text fill="#000000" font-family="'Arial'" font-size="13" font-weight="700" lengthAdjust="spacing" textLength="9.0454" x="276.0293" y="989.2231">9</text><text fill="#000000" font-family="'Arial'" font-size="13" lengthAdjust="spacing" textLength="18.7573" x="289.0747" y="989.2231">OK</text></g><g class="message" data-entity-1="part1" data-entity-2="part2" data-source-line="110" id="msg10"><line style="stroke:#111827;stroke-width:1;" x1="730.7109" x2="720.7109" y1="1038.5547" y2="1034.5547"/><line style="stroke:#111827;stroke-width:1;" x1="730.7109" x2="720.7109" y1="1038.5547" y2="1042.5547"/><line style="stroke:#111827;stroke-width:1;" x1="259.0293" x2="731.7109" y1="1038.5547" y2="1038.5547"/><text fill="#000000" font-family="'Arial'" font-size="13" font-weight="700" lengthAdjust="spacing" textLength="18.0908" x="266.0293" y="1025.9224">10</text><text fill="#000000" font-family="'Arial'" font-size="13" lengthAdjust="spacing" textLength="162.8809" x="288.1201" y="1018.356">POST MedicationRequest</text><text fill="#000000" font-family="'Arial'" font-size="13" lengthAdjust="spacing" textLength="335.042" x="288.1201" y="1033.4888">(AtElgaEmedMedicationRequestGeplanteAbgabe 1)</text></g><path d="M130,1056.5547 L130,1088.5547 A5,5 0 0 0 135,1093.5547 L369,1093.5547 A5,5 0 0 0 374,1088.5547 L374,1061.5547 L364,1051.5547 L135,1051.5547 A5,5 0 0 0 130,1056.5547" fill="url(#gm1dtm20btuhq0)" filter="url(#fm1dtm20btuhq)" style="stroke:#8B95A5;stroke-width:1;"/><path d="M364,1051.5547 L364,1059.0547 A2.5,2.5 0 0 0 366.5,1061.5547 L374,1061.5547 L364,1051.5547" fill="url(#gm1dtm20btuhq0)" style="stroke:#8B95A5;stroke-width:1;"/><text fill="#111827" font-family="'Arial'" font-size="14" lengthAdjust="spacing" textLength="135.0303" x="136" y="1069.5498">Geplante Abgabe 1</text><text fill="#111827" font-family="'Arial'" font-size="14" lengthAdjust="spacing" textLength="223.4736" x="136" y="1085.8467">an Fachanwendung &#252;bermitteln</text><g class="message" data-entity-1="part2" data-entity-2="part2" data-source-line="118" id="msg11"><line style="stroke:#111827;stroke-width:1;" x1="742.7109" x2="784.7109" y1="1123.2813" y2="1123.2813"/><line style="stroke:#111827;stroke-width:1;" x1="784.7109" x2="784.7109" y1="1123.2813" y2="1136.2813"/><line style="stroke:#111827;stroke-width:1;" x1="743.7109" x2="784.7109" y1="1136.2813" y2="1136.2813"/><polygon fill="#111827" points="753.7109,1132.2813,743.7109,1136.2813,753.7109,1140.2813,749.7109,1136.2813" style="stroke:#111827;stroke-width:1;"/><text fill="#000000" font-family="'Arial'" font-size="13" font-weight="700" lengthAdjust="spacing" textLength="18.0908" x="749.7109" y="1118.2153">11</text><text fill="#000000" font-family="'Arial'" font-size="13" lengthAdjust="spacing" textLength="371.6807" x="771.8018" y="1118.2153">AtElgaEmedMedicationRequestGeplanteAbgabe 1 pr&#252;fen</text></g><path d="M223.7476,1151.2813 L284.686,1151.2813 L284.686,1159.5781 L274.686,1169.5781 L218.7476,1169.5781 L218.7476,1156.2813 A5,5 0 0 1 223.7476,1151.2813" fill="#EEF2FF" style="stroke:#111827;stroke-width:1.5;"/><rect fill="none" height="177.5859" rx="5" ry="5" style="stroke:#111827;stroke-width:2;" width="967.6885" x="218.7476" y="1151.2813"/><text fill="#000000" font-family="'Arial'" font-size="14" font-weight="700" lengthAdjust="spacing" textLength="20.9385" x="233.7476" y="1165.2764">alt</text><text fill="#000000" font-family="'Arial'" font-size="14" font-weight="700" lengthAdjust="spacing" textLength="59.0967" x="299.686" y="1166.2764">[g&#252;ltig]</text><g class="message" data-entity-1="part2" data-entity-2="part2" data-source-line="120" id="msg12"><line style="stroke:#111827;stroke-width:1;" x1="742.7109" x2="784.7109" y1="1192.0078" y2="1192.0078"/><line style="stroke:#111827;stroke-width:1;" x1="784.7109" x2="784.7109" y1="1192.0078" y2="1205.0078"/><line style="stroke:#111827;stroke-width:1;" x1="743.7109" x2="784.7109" y1="1205.0078" y2="1205.0078"/><polygon fill="#111827" points="753.7109,1201.0078,743.7109,1205.0078,753.7109,1209.0078,749.7109,1205.0078" style="stroke:#111827;stroke-width:1;"/><text fill="#000000" font-family="'Arial'" font-size="13" font-weight="700" lengthAdjust="spacing" textLength="18.0908" x="749.7109" y="1186.9419">12</text><text fill="#000000" font-family="'Arial'" font-size="13" lengthAdjust="spacing" textLength="392.6343" x="771.8018" y="1186.9419">AtElgaEmedMedicationRequestGeplanteAbgabe 1 speichern</text></g><path d="M614,1223.0078 L614,1239.0078 A5,5 0 0 0 619,1244.0078 L852,1244.0078 A5,5 0 0 0 857,1239.0078 L857,1228.0078 L847,1218.0078 L619,1218.0078 A5,5 0 0 0 614,1223.0078" fill="url(#gm1dtm20btuhq0)" filter="url(#fm1dtm20btuhq)" style="stroke:#8B95A5;stroke-width:1;"/><path d="M847,1218.0078 L847,1225.5078 A2.5,2.5 0 0 0 849.5,1228.0078 L857,1228.0078 L847,1218.0078" fill="url(#gm1dtm20btuhq0)" style="stroke:#8B95A5;stroke-width:1;"/><text fill="#111827" font-family="'Arial'" font-size="14" lengthAdjust="spacing" textLength="222.0928" x="620" y="1236.0029">Geplante Abgabe 1 gespeichert</text><g class="message" data-entity-1="part2" data-entity-2="part1" data-source-line="126" id="msg13"><line style="stroke:#111827;stroke-width:1;" x1="260.0293" x2="270.0293" y1="1273.4375" y2="1269.4375"/><line style="stroke:#111827;stroke-width:1;" x1="260.0293" x2="270.0293" y1="1273.4375" y2="1277.4375"/><line style="stroke:#111827;stroke-width:1;stroke-dasharray:2,2;" x1="259.0293" x2="731.7109" y1="1273.4375" y2="1273.4375"/><text fill="#000000" font-family="'Arial'" font-size="13" font-weight="700" lengthAdjust="spacing" textLength="18.0908" x="276.0293" y="1268.3716">13</text><text fill="#000000" font-family="'Arial'" font-size="13" lengthAdjust="spacing" textLength="18.7573" x="298.1201" y="1268.3716">OK</text></g><line style="stroke:#111827;stroke-width:1;stroke-dasharray:2,2;" x1="218.7476" x2="1186.436" y1="1282.4375" y2="1282.4375"/><text fill="#000000" font-family="'Arial'" font-size="14" font-weight="700" lengthAdjust="spacing" textLength="79.0303" x="223.7476" y="1295.4326">[ung&#252;ltig]</text><g class="message" data-entity-1="part2" data-entity-2="part1" data-source-line="128" id="msg14"><line style="stroke:#111827;stroke-width:1;" x1="260.0293" x2="270.0293" y1="1320.8672" y2="1316.8672"/><line style="stroke:#111827;stroke-width:1;" x1="260.0293" x2="270.0293" y1="1320.8672" y2="1324.8672"/><line style="stroke:#111827;stroke-width:1;stroke-dasharray:2,2;" x1="259.0293" x2="731.7109" y1="1320.8672" y2="1320.8672"/><text fill="#000000" font-family="'Arial'" font-size="13" font-weight="700" lengthAdjust="spacing" textLength="18.0908" x="276.0293" y="1315.8013">14</text><text fill="#000000" font-family="'Arial'" font-size="13" lengthAdjust="spacing" textLength="40.6694" x="298.1201" y="1315.8013">Fehler</text></g><g class="message" data-entity-1="part1" data-entity-2="part2" data-source-line="131" id="msg15"><line style="stroke:#111827;stroke-width:1;" x1="730.7109" x2="720.7109" y1="1372.1328" y2="1368.1328"/><line style="stroke:#111827;stroke-width:1;" x1="730.7109" x2="720.7109" y1="1372.1328" y2="1376.1328"/><line style="stroke:#111827;stroke-width:1;" x1="259.0293" x2="731.7109" y1="1372.1328" y2="1372.1328"/><text fill="#000000" font-family="'Arial'" font-size="13" font-weight="700" lengthAdjust="spacing" textLength="18.0908" x="266.0293" y="1359.5005">15</text><text fill="#000000" font-family="'Arial'" font-size="13" lengthAdjust="spacing" textLength="162.8809" x="288.1201" y="1351.9341">POST MedicationRequest</text><text fill="#000000" font-family="'Arial'" font-size="13" lengthAdjust="spacing" textLength="335.042" x="288.1201" y="1367.0669">(AtElgaEmedMedicationRequestGeplanteAbgabe 2)</text></g><path d="M130,1390.1328 L130,1422.1328 A5,5 0 0 0 135,1427.1328 L369,1427.1328 A5,5 0 0 0 374,1422.1328 L374,1395.1328 L364,1385.1328 L135,1385.1328 A5,5 0 0 0 130,1390.1328" fill="url(#gm1dtm20btuhq0)" filter="url(#fm1dtm20btuhq)" style="stroke:#8B95A5;stroke-width:1;"/><path d="M364,1385.1328 L364,1392.6328 A2.5,2.5 0 0 0 366.5,1395.1328 L374,1395.1328 L364,1385.1328" fill="url(#gm1dtm20btuhq0)" style="stroke:#8B95A5;stroke-width:1;"/><text fill="#111827" font-family="'Arial'" font-size="14" lengthAdjust="spacing" textLength="135.0303" x="136" y="1403.1279">Geplante Abgabe 2</text><text fill="#111827" font-family="'Arial'" font-size="14" lengthAdjust="spacing" textLength="223.4736" x="136" y="1419.4248">an Fachanwendung &#252;bermitteln</text><g class="message" data-entity-1="part2" data-entity-2="part2" data-source-line="137" id="msg16"><line style="stroke:#111827;stroke-width:1;" x1="742.7109" x2="784.7109" y1="1456.8594" y2="1456.8594"/><line style="stroke:#111827;stroke-width:1;" x1="784.7109" x2="784.7109" y1="1456.8594" y2="1469.8594"/><line style="stroke:#111827;stroke-width:1;" x1="743.7109" x2="784.7109" y1="1469.8594" y2="1469.8594"/><polygon fill="#111827" points="753.7109,1465.8594,743.7109,1469.8594,753.7109,1473.8594,749.7109,1469.8594" style="stroke:#111827;stroke-width:1;"/><text fill="#000000" font-family="'Arial'" font-size="13" font-weight="700" lengthAdjust="spacing" textLength="18.0908" x="749.7109" y="1451.7935">16</text><text fill="#000000" font-family="'Arial'" font-size="13" lengthAdjust="spacing" textLength="371.6807" x="771.8018" y="1451.7935">AtElgaEmedMedicationRequestGeplanteAbgabe 2 pr&#252;fen</text></g><path d="M223.7476,1484.8594 L284.686,1484.8594 L284.686,1493.1563 L274.686,1503.1563 L218.7476,1503.1563 L218.7476,1489.8594 A5,5 0 0 1 223.7476,1484.8594" fill="#EEF2FF" style="stroke:#111827;stroke-width:1.5;"/><rect fill="none" height="177.5859" rx="5" ry="5" style="stroke:#111827;stroke-width:2;" width="967.6885" x="218.7476" y="1484.8594"/><text fill="#000000" font-family="'Arial'" font-size="14" font-weight="700" lengthAdjust="spacing" textLength="20.9385" x="233.7476" y="1498.8545">alt</text><text fill="#000000" font-family="'Arial'" font-size="14" font-weight="700" lengthAdjust="spacing" textLength="59.0967" x="299.686" y="1499.8545">[g&#252;ltig]</text><g class="message" data-entity-1="part2" data-entity-2="part2" data-source-line="139" id="msg17"><line style="stroke:#111827;stroke-width:1;" x1="742.7109" x2="784.7109" y1="1525.5859" y2="1525.5859"/><line style="stroke:#111827;stroke-width:1;" x1="784.7109" x2="784.7109" y1="1525.5859" y2="1538.5859"/><line style="stroke:#111827;stroke-width:1;" x1="743.7109" x2="784.7109" y1="1538.5859" y2="1538.5859"/><polygon fill="#111827" points="753.7109,1534.5859,743.7109,1538.5859,753.7109,1542.5859,749.7109,1538.5859" style="stroke:#111827;stroke-width:1;"/><text fill="#000000" font-family="'Arial'" font-size="13" font-weight="700" lengthAdjust="spacing" textLength="18.0908" x="749.7109" y="1520.52">17</text><text fill="#000000" font-family="'Arial'" font-size="13" lengthAdjust="spacing" textLength="392.6343" x="771.8018" y="1520.52">AtElgaEmedMedicationRequestGeplanteAbgabe 2 speichern</text></g><path d="M614,1556.5859 L614,1572.5859 A5,5 0 0 0 619,1577.5859 L852,1577.5859 A5,5 0 0 0 857,1572.5859 L857,1561.5859 L847,1551.5859 L619,1551.5859 A5,5 0 0 0 614,1556.5859" fill="url(#gm1dtm20btuhq0)" filter="url(#fm1dtm20btuhq)" style="stroke:#8B95A5;stroke-width:1;"/><path d="M847,1551.5859 L847,1559.0859 A2.5,2.5 0 0 0 849.5,1561.5859 L857,1561.5859 L847,1551.5859" fill="url(#gm1dtm20btuhq0)" style="stroke:#8B95A5;stroke-width:1;"/><text fill="#111827" font-family="'Arial'" font-size="14" lengthAdjust="spacing" textLength="222.0928" x="620" y="1569.5811">Geplante Abgabe 2 gespeichert</text><g class="message" data-entity-1="part2" data-entity-2="part1" data-source-line="145" id="msg18"><line style="stroke:#111827;stroke-width:1;" x1="260.0293" x2="270.0293" y1="1607.0156" y2="1603.0156"/><line style="stroke:#111827;stroke-width:1;" x1="260.0293" x2="270.0293" y1="1607.0156" y2="1611.0156"/><line style="stroke:#111827;stroke-width:1;stroke-dasharray:2,2;" x1="259.0293" x2="731.7109" y1="1607.0156" y2="1607.0156"/><text fill="#000000" font-family="'Arial'" font-size="13" font-weight="700" lengthAdjust="spacing" textLength="18.0908" x="276.0293" y="1601.9497">18</text><text fill="#000000" font-family="'Arial'" font-size="13" lengthAdjust="spacing" textLength="18.7573" x="298.1201" y="1601.9497">OK</text></g><line style="stroke:#111827;stroke-width:1;stroke-dasharray:2,2;" x1="218.7476" x2="1186.436" y1="1616.0156" y2="1616.0156"/><text fill="#000000" font-family="'Arial'" font-size="14" font-weight="700" lengthAdjust="spacing" textLength="79.0303" x="223.7476" y="1629.0107">[ung&#252;ltig]</text><g class="message" data-entity-1="part2" data-entity-2="part1" data-source-line="147" id="msg19"><line style="stroke:#111827;stroke-width:1;" x1="260.0293" x2="270.0293" y1="1654.4453" y2="1650.4453"/><line style="stroke:#111827;stroke-width:1;" x1="260.0293" x2="270.0293" y1="1654.4453" y2="1658.4453"/><line style="stroke:#111827;stroke-width:1;stroke-dasharray:2,2;" x1="259.0293" x2="736.7109" y1="1654.4453" y2="1654.4453"/><text fill="#000000" font-family="'Arial'" font-size="13" font-weight="700" lengthAdjust="spacing" textLength="18.0908" x="276.0293" y="1649.3794">19</text><text fill="#000000" font-family="'Arial'" font-size="13" lengthAdjust="spacing" textLength="40.6694" x="298.1201" y="1649.3794">Fehler</text></g><?plantuml-src jLRRRjms47tdLmpMVSYYNS1Ii_K5i85riawBeerXksy134eQQOdLKYf5nQwB_as-eKz-sn_haBfHbo0ntD06xENSpvaPhXOwHNY7USgbHbW52GyGU5b0W8N63Se89Vo6aTXoBJ9P64KKKglzfuGag4WhJL4oLco5pBdYEmWo5Q5wawMPWeD3Urmf3xU9oaePrHhnqlmu6iM6Hzcza0d4F2tGaTHcIg82ptKQOSpBL5zcKl_ETmYpbH8ydKrht8X71E_rjB2VjgCZCmBeRmPmCIm03t4P7ouE8YywmP-CXWl0SN2ovClszdOZmgt4eW2FxgwTWexfynMF8bEuyU9autdUiNz4TpSjD5gLoFvn4_pvhnnLAkJMAM6zdbBuWrWr_s0Di8iz_bcY3AjAhxZI8XGvzKQlfAKz0uKHhVRqbSO0ZyGDEJr10ujl35PAPVT3OEnb7rjxDHMn5LInVgIhTvHvtgknzLo9HfnZxDlg7CiklDzdvY9xS2hetK_XoeBi0MOV93b_km8FO0O79p7DZK65XvfKIN3d0IzWPbLcZ0QLvkx1iRK75pIxSCd33PVtf5DI2jKXdszU7nyTcQxBEwG1oU3kScLzrzQhQVUukCP7pBNr5GQ1V-GFVTtL6fMpweFZZ9Swa-KkGCNOsTbmpG0FL1dJaZax8zLGYu-S9j1MpfZ26BAFM2FnGvlsANoda4SwkrT2KsVRgUqKcO4BrMR_ATLWLXlVwh9QOCFeOWT4IugXkO8Befus9NkrqkiquUiTHjNLm6nkgpDH6Qj8MfnNeKz7QxPTdX-auzOu3At3QpEBXMxCQYjl_eqS-_CHMcy5WiIoSQW9iAGsadKmIGtwFVWzPBuGQMxOGuLIF0hpvwlU6lPgIiAJOY6YmaMT6cc8Hn5k58gWRgKMlRfdJkifCVET_q8vQ15JNi1bR8TJZhjesY3UFocOLLs-JVbkXsh6EYzTYcqprncmfdk_d1IgHopfvUrC5kTj7qoQi0X7ySPZqKTCmave-4oPP5KOjYOw_RmT-LEuLI99JCRDckY-AmoZhok9MKx4AXQjJM7p2514avr7trFI_R-5cqfNQfq8eKsZVecRbCAH9t23jJhGxIeNqDgCCQHdibD15MTfGYqLRjhHwBbmSPYe_pFHtlzA4fUj9Zq01-2cFwxUtzp2QDAUkqhiWz9l3e0XFp2QA7D7ExB_iEoVQ9CJOLIbhR7X1C3yJlNuCrA5NEsVw3MmT2RxfrIBn0HveTSYDooQyRHPTfLtQ8ngfqvipBHRfvlEa5RRG0HIc_YqRjDmrYlxPiJxywzYsNyEooycmsyffgWzab_ksQNP4ZrDzGG40xBx1V-VXFT7lqt9ze7PR_y1?></g></svg>