<svg xmlns="http://www.w3.org/2000/svg" xmlns:xlink="http://www.w3.org/1999/xlink" contentStyleType="text/css" data-diagram-type="SEQUENCE" height="2198px" preserveAspectRatio="none" style="width:1541px;height:2198px;background:#F5F5F5;" version="1.1" viewBox="0 0 1541 2198" width="1541px" zoomAndPan="magnify"><?plantuml 1.2026.4beta2?><defs><linearGradient id="g1sp6o89xkdn1x0" x1="50%" x2="50%" y1="0%" y2="100%"><stop offset="0%" stop-color="#E0E5F0"/><stop offset="100%" stop-color="#D1D9E6"/></linearGradient><filter height="300%" id="f1sp6o89xkdn1x" width="300%" x="-1" y="-1"><feGaussianBlur result="blurOut" stdDeviation="2"/><feColorMatrix in="blurOut" result="blurOut2" type="matrix" values="0 0 0 0 0 0 0 0 0 0 0 0 0 0 0 0 0 0 .4 0"/><feOffset dx="4" dy="4" in="blurOut2" result="blurOut3"/><feBlend in="SourceGraphic" in2="blurOut3" mode="normal"/></filter></defs><g><rect fill="#F5F5F5" height="2198" style="stroke:none;stroke-width:1;" width="1541" x="0" y="0"/><g class="title" data-source-line="1"><text fill="#000000" font-family="'Arial'" font-size="14" font-weight="700" lengthAdjust="spacing" textLength="485.4268" x="524.3457" y="27.9951">Geplante Abgabe f&#252;r neuen Medikationsplaneintrag erstellen</text></g><rect fill="#9FBAC4" height="2147.7344" rx="5" ry="5" style="stroke:#181818;stroke-width:0.5;" width="74.0586" x="165" y="43.2969"/><text fill="#000000" font-family="'Arial'" font-size="14" font-weight="700" lengthAdjust="spacing" textLength="4.874" x="168" y="56.292">&#160;</text><text fill="#000000" font-family="'Arial'" font-size="14" font-weight="700" lengthAdjust="spacing" textLength="48.5625" x="177.748" y="72.5889">GDA 1</text><rect fill="#C48778" height="2147.7344" rx="5" ry="5" style="stroke:#181818;stroke-width:0.5;" width="256.9268" x="686.5493" y="43.2969"/><text fill="#000000" font-family="'Arial'" font-size="14" font-weight="700" lengthAdjust="spacing" textLength="4.874" x="689.5493" y="56.292">&#160;</text><text fill="#000000" font-family="'Arial'" font-size="14" font-weight="700" lengthAdjust="spacing" textLength="182.6904" x="723.6675" y="72.5889">e-Med Fachanwendung</text><rect fill="#CBB272" height="2147.7344" rx="5" ry="5" style="stroke:#181818;stroke-width:0.5;" width="105.1826" x="1306.3672" y="43.2969"/><text fill="#000000" font-family="'Arial'" font-size="14" font-weight="700" lengthAdjust="spacing" textLength="4.874" x="1309.3672" y="56.292">&#160;</text><text fill="#000000" font-family="'Arial'" font-size="14" font-weight="700" lengthAdjust="spacing" textLength="69.9385" x="1328.8633" y="72.5889">e-Rezept</text><g><title>GDA 1</title><rect fill="#FFFFFF" height="1936.5469" style="stroke:#181818;stroke-width:1;" width="10" x="197.0293" y="166.1875"/></g><g><title>e-Med FA</title><rect fill="#FFFFFF" height="126.8594" style="stroke:#181818;stroke-width:1;" width="10" x="810.0127" y="1023.4063"/></g><g><title>e-Med FA</title><rect fill="#FFFFFF" height="615.8906" style="stroke:#181818;stroke-width:1;" width="10" x="810.0127" y="1463.8438"/></g><g><title>e-Rezept</title><rect fill="#FFFFFF" height="184.5859" style="stroke:#181818;stroke-width:1;" width="10" x="1353.9585" y="1234.9922"/></g><rect fill="none" height="805.4453" rx="5" ry="5" style="stroke:#111827;stroke-width:2;" width="1456.6987" x="68" y="1289.2891"/><rect fill="none" height="177.5859" rx="5" ry="5" style="stroke:#111827;stroke-width:2;" width="1096.9902" x="166.7476" y="1576.5703"/><rect fill="none" height="177.5859" rx="5" ry="5" style="stroke:#111827;stroke-width:2;" width="1096.9902" x="166.7476" y="1910.1484"/><g class="participant-lifeline" data-entity-uid="part1" data-qualified-name="GDA_1" data-source-line="43" id="part1-lifeline"><g><title>GDA 1</title><rect fill="#000000" fill-opacity="0.00000" height="1955.5469" width="8" x="198.0293" y="156.1875"/><line style="stroke:#181818;stroke-width:0.5;stroke-dasharray:5,5;" x1="201.7476" x2="201.7476" y1="156.1875" y2="2111.7344"/></g></g><g class="participant-lifeline" data-entity-uid="part2" data-qualified-name="eMed_FA" data-source-line="47" id="part2-lifeline"><g><title>e-Med FA</title><rect fill="#000000" fill-opacity="0.00000" height="1955.5469" width="8" x="811.0127" y="156.1875"/><line style="stroke:#181818;stroke-width:0.5;stroke-dasharray:5,5;" x1="814.3506" x2="814.3506" y1="156.1875" y2="2111.7344"/></g></g><g class="participant-lifeline" data-entity-uid="part3" data-qualified-name="e_Rezept" data-source-line="51" id="part3-lifeline"><g><title>e-Rezept</title><rect fill="#000000" fill-opacity="0.00000" height="1955.5469" width="8" x="1354.9585" y="156.1875"/><line style="stroke:#181818;stroke-width:0.5;stroke-dasharray:5,5;" x1="1358.7866" x2="1358.7866" y1="156.1875" y2="2111.7344"/></g></g><g class="participant participant-head" data-entity-uid="part1" data-qualified-name="GDA_1" data-source-line="43" id="part1-head"><text fill="#000000" font-family="'Arial'" font-size="14" lengthAdjust="spacing" textLength="44.5635" x="176.7476" y="152.8857">GDA 1</text><ellipse cx="202.0293" cy="88.3906" fill="#E2E2F0" rx="8" ry="8" style="stroke:#181818;stroke-width:0.5;"/><path d="M202.0293,96.3906 L202.0293,123.3906 M189.0293,104.3906 L215.0293,104.3906 M202.0293,123.3906 L189.0293,138.3906 M202.0293,123.3906 L215.0293,138.3906" fill="none" style="stroke:#181818;stroke-width:0.5;"/></g><g class="participant participant-tail" data-entity-uid="part1" data-qualified-name="GDA_1" data-source-line="43" id="part1-tail"><text fill="#000000" font-family="'Arial'" font-size="14" lengthAdjust="spacing" textLength="44.5635" x="176.7476" y="2123.7295">GDA 1</text><ellipse cx="202.0293" cy="2135.5313" fill="#E2E2F0" rx="8" ry="8" style="stroke:#181818;stroke-width:0.5;"/><path d="M202.0293,2143.5313 L202.0293,2170.5313 M189.0293,2151.5313 L215.0293,2151.5313 M202.0293,2170.5313 L189.0293,2185.5313 M202.0293,2170.5313 L215.0293,2185.5313" fill="none" style="stroke:#181818;stroke-width:0.5;"/></g><g class="participant participant-head" data-entity-uid="part2" data-qualified-name="eMed_FA" data-source-line="47" id="part2-head"><rect fill="#FFFFFF" height="30.2969" rx="5" ry="5" style="stroke:#555555;stroke-width:0.5;" width="79.3242" x="775.3506" y="124.8906"/><text fill="#000000" font-family="'Arial'" font-size="14" lengthAdjust="spacing" textLength="65.3242" x="782.3506" y="144.8857">e-Med FA</text></g><g class="participant participant-tail" data-entity-uid="part2" data-qualified-name="eMed_FA" data-source-line="47" id="part2-tail"><rect fill="#FFFFFF" height="30.2969" rx="5" ry="5" style="stroke:#555555;stroke-width:0.5;" width="79.3242" x="775.3506" y="2110.7344"/><text fill="#000000" font-family="'Arial'" font-size="14" lengthAdjust="spacing" textLength="65.3242" x="782.3506" y="2130.7295">e-Med FA</text></g><g class="participant participant-head" data-entity-uid="part3" data-qualified-name="e_Rezept" data-source-line="51" id="part3-head"><rect fill="#FFFFFF" height="30.2969" rx="5" ry="5" style="stroke:#555555;stroke-width:0.5;" width="76.3438" x="1320.7866" y="124.8906"/><text fill="#000000" font-family="'Arial'" font-size="14" lengthAdjust="spacing" textLength="62.3438" x="1327.7866" y="144.8857">e-Rezept</text></g><g class="participant participant-tail" data-entity-uid="part3" data-qualified-name="e_Rezept" data-source-line="51" id="part3-tail"><rect fill="#FFFFFF" height="30.2969" rx="5" ry="5" style="stroke:#555555;stroke-width:0.5;" width="76.3438" x="1320.7866" y="2110.7344"/><text fill="#000000" font-family="'Arial'" font-size="14" lengthAdjust="spacing" textLength="62.3438" x="1327.7866" y="2130.7295">e-Rezept</text></g><g><title>GDA 1</title><rect fill="#FFFFFF" height="1936.5469" style="stroke:#181818;stroke-width:1;" width="10" x="197.0293" y="166.1875"/></g><g><title>e-Med FA</title><rect fill="#FFFFFF" height="126.8594" style="stroke:#181818;stroke-width:1;" width="10" x="810.0127" y="1023.4063"/></g><g><title>e-Med FA</title><rect fill="#FFFFFF" height="615.8906" style="stroke:#181818;stroke-width:1;" width="10" x="810.0127" y="1463.8438"/></g><g><title>e-Rezept</title><rect fill="#FFFFFF" height="184.5859" style="stroke:#181818;stroke-width:1;" width="10" x="1353.9585" y="1234.9922"/></g><rect fill="#EEEEEE" height="3" rx="5" ry="5" style="stroke:#EEEEEE;stroke-width:1;" width="1535.1182" x="0" y="187.3359"/><line style="stroke:#000000;stroke-width:1;" x1="0" x2="1535.1182" y1="187.3359" y2="187.3359"/><line style="stroke:#000000;stroke-width:1;" x1="0" x2="1535.1182" y1="190.3359" y2="190.3359"/><rect fill="#EEEEEE" height="24.2969" rx="5" ry="5" style="stroke:#000000;stroke-width:2;" width="216.2891" x="659.4146" y="176.1875"/><text fill="#000000" font-family="'Arial'" font-size="14" font-weight="700" lengthAdjust="spacing" textLength="197.415" x="665.4146" y="193.1826">Medikationsplan abrufen</text><rect fill="none" height="42.5938" rx="5" ry="5" style="stroke:#000000;stroke-width:1.5;" width="683.9272" x="173.7476" y="210.4844"/><path d="M178.7476,210.4844 L240.7476,210.4844 L240.7476,218.4844 L230.7476,228.4844 L173.7476,228.4844 L173.7476,215.4844 A5,5 0 0 1 178.7476,210.4844" fill="#EEEEEE" style="stroke:#000000;stroke-width:2;"/><text fill="#000000" font-family="'Arial'" font-size="14" font-weight="700" lengthAdjust="spacing" textLength="22.4902" x="186.7476" y="225.4795">ref</text><text fill="#000000" font-family="'Arial'" font-size="14" lengthAdjust="spacing" textLength="89.9951" x="470.7136" y="245.4795">$readtowrite</text><path d="M56,268.0781 L56,316.0781 A5,5 0 0 0 61,321.0781 L339,321.0781 A5,5 0 0 0 344,316.0781 L344,273.0781 L334,263.0781 L61,263.0781 A5,5 0 0 0 56,268.0781" fill="url(#g1sp6o89xkdn1x0)" filter="url(#f1sp6o89xkdn1x)" style="stroke:#8B95A5;stroke-width:1;"/><path d="M334,263.0781 L334,270.5781 A2.5,2.5 0 0 0 336.5,273.0781 L344,273.0781 L334,263.0781" fill="url(#g1sp6o89xkdn1x0)" style="stroke:#8B95A5;stroke-width:1;"/><text fill="#111827" font-family="'Arial'" font-size="14" lengthAdjust="spacing" textLength="177.0576" x="62" y="281.0732">GDA erh&#228;lt den aktuellen</text><text fill="#111827" font-family="'Arial'" font-size="14" lengthAdjust="spacing" textLength="263.3613" x="62" y="297.3701">Medikationsplan im Collection Bundle</text><text fill="#111827" font-family="'Arial'" font-size="14" lengthAdjust="spacing" textLength="259.4102" x="62" y="313.667">(AtElgaEmedBundleMedikationsplan)</text><g class="message" data-entity-1="part1" data-entity-2="part1" data-source-line="68" id="msg1"><line style="stroke:#111827;stroke-width:1;" x1="207.0293" x2="249.0293" y1="351.1016" y2="351.1016"/><line style="stroke:#111827;stroke-width:1;" x1="249.0293" x2="249.0293" y1="351.1016" y2="364.1016"/><line style="stroke:#111827;stroke-width:1;" x1="208.0293" x2="249.0293" y1="364.1016" y2="364.1016"/><polygon fill="#111827" points="218.0293,360.1016,208.0293,364.1016,218.0293,368.1016,214.0293,364.1016" style="stroke:#111827;stroke-width:1;"/><text fill="#000000" font-family="'Arial'" font-size="13" font-weight="700" lengthAdjust="spacing" textLength="9.0454" x="214.0293" y="346.0356">1</text><text fill="#000000" font-family="'Arial'" font-size="13" lengthAdjust="spacing" textLength="473.3892" x="227.0747" y="346.0356">Neuen Planeintrag erstellen (AtElgaEmedMedicationRequestPlaneintrag)</text></g><path d="M34,382.1016 L34,447.1016 A5,5 0 0 0 39,452.1016 L360,452.1016 A5,5 0 0 0 365,447.1016 L365,387.1016 L355,377.1016 L39,377.1016 A5,5 0 0 0 34,382.1016" fill="url(#g1sp6o89xkdn1x0)" filter="url(#f1sp6o89xkdn1x)" style="stroke:#8B95A5;stroke-width:1;"/><path d="M355,377.1016 L355,384.6016 A2.5,2.5 0 0 0 357.5,387.1016 L365,387.1016 L355,377.1016" fill="url(#g1sp6o89xkdn1x0)" style="stroke:#8B95A5;stroke-width:1;"/><text fill="#111827" font-family="'Arial'" font-size="14" lengthAdjust="spacing" textLength="218.3672" x="40" y="395.0967">GDA f&#252;gt dem Medikationsplan</text><text fill="#111827" font-family="'Arial'" font-size="14" lengthAdjust="spacing" textLength="235.1426" x="40" y="411.3936">(AtElgaEmedListMedikationsplan)</text><text fill="#111827" font-family="'Arial'" font-size="14" lengthAdjust="spacing" textLength="201.2979" x="40" y="427.6904">den neuen Planeintrag hinzu</text><text fill="#111827" font-family="'Arial'" font-size="14" lengthAdjust="spacing" textLength="310.1055" x="40" y="443.9873">(AtElgaEmedMedicationRequestPlaneintrag)</text><rect fill="#EEEEEE" height="3" rx="5" ry="5" style="stroke:#EEEEEE;stroke-width:1;" width="1535.1182" x="0" y="481.4375"/><line style="stroke:#000000;stroke-width:1;" x1="0" x2="1535.1182" y1="481.4375" y2="481.4375"/><line style="stroke:#000000;stroke-width:1;" x1="0" x2="1535.1182" y1="484.4375" y2="484.4375"/><rect fill="#EEEEEE" height="24.2969" rx="5" ry="5" style="stroke:#000000;stroke-width:2;" width="231.6768" x="651.7207" y="470.2891"/><text fill="#000000" font-family="'Arial'" font-size="14" font-weight="700" lengthAdjust="spacing" textLength="212.8027" x="657.7207" y="487.2842">Medikationsplan schreiben</text><rect fill="none" height="42.5938" rx="5" ry="5" style="stroke:#000000;stroke-width:1.5;" width="683.9272" x="173.7476" y="504.5859"/><path d="M178.7476,504.5859 L240.7476,504.5859 L240.7476,512.5859 L230.7476,522.5859 L173.7476,522.5859 L173.7476,509.5859 A5,5 0 0 1 178.7476,504.5859" fill="#EEEEEE" style="stroke:#000000;stroke-width:2;"/><text fill="#000000" font-family="'Arial'" font-size="14" font-weight="700" lengthAdjust="spacing" textLength="22.4902" x="186.7476" y="519.5811">ref</text><text fill="#000000" font-family="'Arial'" font-size="14" lengthAdjust="spacing" textLength="44.1055" x="493.6584" y="539.5811">$write</text><path d="M678,562.1797 L678,578.1797 A5,5 0 0 0 683,583.1797 L942,583.1797 A5,5 0 0 0 947,578.1797 L947,567.1797 L937,557.1797 L683,557.1797 A5,5 0 0 0 678,562.1797" fill="url(#g1sp6o89xkdn1x0)" filter="url(#f1sp6o89xkdn1x)" style="stroke:#8B95A5;stroke-width:1;"/><path d="M937,557.1797 L937,564.6797 A2.5,2.5 0 0 0 939.5,567.1797 L947,567.1797 L937,557.1797" fill="url(#g1sp6o89xkdn1x0)" style="stroke:#8B95A5;stroke-width:1;"/><text fill="#111827" font-family="'Arial'" font-size="14" lengthAdjust="spacing" textLength="248.3359" x="684" y="575.1748">Neuer Medikationsplan gespeichert</text><rect fill="#EEEEEE" height="3" rx="5" ry="5" style="stroke:#EEEEEE;stroke-width:1;" width="1535.1182" x="0" y="612.625"/><line style="stroke:#000000;stroke-width:1;" x1="0" x2="1535.1182" y1="612.625" y2="612.625"/><line style="stroke:#000000;stroke-width:1;" x1="0" x2="1535.1182" y1="615.625" y2="615.625"/><rect fill="#EEEEEE" height="24.2969" rx="5" ry="5" style="stroke:#000000;stroke-width:2;" width="216.2891" x="659.4146" y="601.4766"/><text fill="#000000" font-family="'Arial'" font-size="14" font-weight="700" lengthAdjust="spacing" textLength="197.415" x="665.4146" y="618.4717">Medikationsplan abrufen</text><rect fill="none" height="42.5938" rx="5" ry="5" style="stroke:#000000;stroke-width:1.5;" width="683.9272" x="173.7476" y="635.7734"/><path d="M178.7476,635.7734 L240.7476,635.7734 L240.7476,643.7734 L230.7476,653.7734 L173.7476,653.7734 L173.7476,640.7734 A5,5 0 0 1 178.7476,635.7734" fill="#EEEEEE" style="stroke:#000000;stroke-width:2;"/><text fill="#000000" font-family="'Arial'" font-size="14" font-weight="700" lengthAdjust="spacing" textLength="22.4902" x="186.7476" y="650.7686">ref</text><text fill="#000000" font-family="'Arial'" font-size="14" lengthAdjust="spacing" textLength="89.9951" x="470.7136" y="670.7686">$readtowrite</text><path d="M56,693.3672 L56,741.3672 A5,5 0 0 0 61,746.3672 L339,746.3672 A5,5 0 0 0 344,741.3672 L344,698.3672 L334,688.3672 L61,688.3672 A5,5 0 0 0 56,693.3672" fill="url(#g1sp6o89xkdn1x0)" filter="url(#f1sp6o89xkdn1x)" style="stroke:#8B95A5;stroke-width:1;"/><path d="M334,688.3672 L334,695.8672 A2.5,2.5 0 0 0 336.5,698.3672 L344,698.3672 L334,688.3672" fill="url(#g1sp6o89xkdn1x0)" style="stroke:#8B95A5;stroke-width:1;"/><text fill="#111827" font-family="'Arial'" font-size="14" lengthAdjust="spacing" textLength="208.0654" x="62" y="706.3623">GDA erh&#228;lt den aktualisierten</text><text fill="#111827" font-family="'Arial'" font-size="14" lengthAdjust="spacing" textLength="263.3613" x="62" y="722.6592">Medikationsplan im Collection Bundle</text><text fill="#111827" font-family="'Arial'" font-size="14" lengthAdjust="spacing" textLength="259.4102" x="62" y="738.9561">(AtElgaEmedBundleMedikationsplan)</text><g class="message" data-entity-1="part1" data-entity-2="part1" data-source-line="96" id="msg2"><line style="stroke:#111827;stroke-width:1;" x1="207.0293" x2="249.0293" y1="791.5234" y2="791.5234"/><line style="stroke:#111827;stroke-width:1;" x1="249.0293" x2="249.0293" y1="791.5234" y2="804.5234"/><line style="stroke:#111827;stroke-width:1;" x1="208.0293" x2="249.0293" y1="804.5234" y2="804.5234"/><polygon fill="#111827" points="218.0293,800.5234,208.0293,804.5234,218.0293,808.5234,214.0293,804.5234" style="stroke:#111827;stroke-width:1;"/><text fill="#000000" font-family="'Arial'" font-size="13" font-weight="700" lengthAdjust="spacing" textLength="9.0454" x="214.0293" y="778.8911">2</text><text fill="#000000" font-family="'Arial'" font-size="13" lengthAdjust="spacing" textLength="173.7861" x="227.0747" y="771.3247">Geplante Abgabe erstellen</text><text fill="#000000" font-family="'Arial'" font-size="13" lengthAdjust="spacing" textLength="335.042" x="227.0747" y="786.4575">(AtElgaEmedMedicationRequestGeplanteAbgabe 1)</text></g><g class="message" data-entity-1="part1" data-entity-2="part1" data-source-line="97" id="msg3"><line style="stroke:#111827;stroke-width:1;" x1="207.0293" x2="249.0293" y1="848.7891" y2="848.7891"/><line style="stroke:#111827;stroke-width:1;" x1="249.0293" x2="249.0293" y1="848.7891" y2="861.7891"/><line style="stroke:#111827;stroke-width:1;" x1="208.0293" x2="249.0293" y1="861.7891" y2="861.7891"/><polygon fill="#111827" points="218.0293,857.7891,208.0293,861.7891,218.0293,865.7891,214.0293,861.7891" style="stroke:#111827;stroke-width:1;"/><text fill="#000000" font-family="'Arial'" font-size="13" font-weight="700" lengthAdjust="spacing" textLength="9.0454" x="214.0293" y="836.1567">3</text><text fill="#000000" font-family="'Arial'" font-size="13" lengthAdjust="spacing" textLength="173.7861" x="227.0747" y="828.5903">Geplante Abgabe erstellen</text><text fill="#000000" font-family="'Arial'" font-size="13" lengthAdjust="spacing" textLength="335.042" x="227.0747" y="843.7231">(AtElgaEmedMedicationRequestGeplanteAbgabe 2)</text></g><path d="M5,879.7891 L5,944.7891 A5,5 0 0 0 10,949.7891 L392,949.7891 A5,5 0 0 0 397,944.7891 L397,884.7891 L387,874.7891 L10,874.7891 A5,5 0 0 0 5,879.7891" fill="url(#g1sp6o89xkdn1x0)" filter="url(#f1sp6o89xkdn1x)" style="stroke:#8B95A5;stroke-width:1;"/><path d="M387,874.7891 L387,882.2891 A2.5,2.5 0 0 0 389.5,884.7891 L397,884.7891 L387,874.7891" fill="url(#g1sp6o89xkdn1x0)" style="stroke:#8B95A5;stroke-width:1;"/><text fill="#111827" font-family="'Arial'" font-size="14" lengthAdjust="spacing" textLength="309.8662" x="11" y="892.7842">Die neu erstellten geplanten Abgaben 1 + 2</text><text fill="#111827" font-family="'Arial'" font-size="14" lengthAdjust="spacing" textLength="347.457" x="11" y="909.0811">(AtElgaEmedMedicationRequestGeplanteAbgabe)</text><text fill="#111827" font-family="'Arial'" font-size="14" lengthAdjust="spacing" textLength="371.8613" x="11" y="925.3779">referenizieren bestehenden Medikationsplaneintr&#228;ge</text><text fill="#111827" font-family="'Arial'" font-size="14" lengthAdjust="spacing" textLength="207.9219" x="11" y="941.6748">(Medikationsplaneintrags-ids)</text><rect fill="#EEEEEE" height="3" rx="5" ry="5" style="stroke:#EEEEEE;stroke-width:1;" width="1535.1182" x="0" y="979.125"/><line style="stroke:#000000;stroke-width:1;" x1="0" x2="1535.1182" y1="979.125" y2="979.125"/><line style="stroke:#000000;stroke-width:1;" x1="0" x2="1535.1182" y1="982.125" y2="982.125"/><rect fill="#EEEEEE" height="24.2969" rx="5" ry="5" style="stroke:#000000;stroke-width:2;" width="237.1523" x="648.9829" y="967.9766"/><text fill="#000000" font-family="'Arial'" font-size="14" font-weight="700" lengthAdjust="spacing" textLength="218.2783" x="654.9829" y="984.9717">Geplante Abgabe schreiben</text><g class="message" data-entity-1="part1" data-entity-2="part2" data-source-line="108" id="msg4"><polygon fill="#111827" points="798.0127,1019.4063,808.0127,1023.4063,798.0127,1027.4063,802.0127,1023.4063" style="stroke:#111827;stroke-width:1;"/><line style="stroke:#111827;stroke-width:1;" x1="207.0293" x2="804.0127" y1="1023.4063" y2="1023.4063"/><text fill="#000000" font-family="'Arial'" font-size="13" font-weight="700" lengthAdjust="spacing" textLength="9.0454" x="214.0293" y="1018.3403">4</text><text fill="#000000" font-family="'Arial'" font-size="13" lengthAdjust="spacing" textLength="208.9395" x="227.0747" y="1018.3403">e-Med groupIdentifier anfordern</text></g><path d="M38,1041.4063 L38,1073.4063 A5,5 0 0 0 43,1078.4063 L357,1078.4063 A5,5 0 0 0 362,1073.4063 L362,1046.4063 L352,1036.4063 L43,1036.4063 A5,5 0 0 0 38,1041.4063" fill="url(#g1sp6o89xkdn1x0)" filter="url(#f1sp6o89xkdn1x)" style="stroke:#8B95A5;stroke-width:1;"/><path d="M352,1036.4063 L352,1043.9063 A2.5,2.5 0 0 0 354.5,1046.4063 L362,1046.4063 L352,1036.4063" fill="url(#g1sp6o89xkdn1x0)" style="stroke:#8B95A5;stroke-width:1;"/><text fill="#111827" font-family="'Arial'" font-size="14" lengthAdjust="spacing" textLength="303.9668" x="44" y="1054.4014">e-Med groupIdentifier f&#252;r "Rezeptklammer"</text><text fill="#111827" font-family="'Arial'" font-size="14" lengthAdjust="spacing" textLength="68.8311" x="44" y="1070.6982">anfordern</text><g class="message" data-entity-1="part2" data-entity-2="part2" data-source-line="116" id="msg5"><line style="stroke:#111827;stroke-width:1;" x1="820.0127" x2="862.0127" y1="1108.1328" y2="1108.1328"/><line style="stroke:#111827;stroke-width:1;" x1="862.0127" x2="862.0127" y1="1108.1328" y2="1121.1328"/><line style="stroke:#111827;stroke-width:1;" x1="821.0127" x2="862.0127" y1="1121.1328" y2="1121.1328"/><polygon fill="#111827" points="831.0127,1117.1328,821.0127,1121.1328,831.0127,1125.1328,827.0127,1121.1328" style="stroke:#111827;stroke-width:1;"/><text fill="#000000" font-family="'Arial'" font-size="13" font-weight="700" lengthAdjust="spacing" textLength="9.0454" x="827.0127" y="1103.0669">5</text><text fill="#000000" font-family="'Arial'" font-size="13" lengthAdjust="spacing" textLength="205.918" x="840.0581" y="1103.0669">e-Med groupIdentifier erzeugen</text></g><g class="message" data-entity-1="part2" data-entity-2="part1" data-source-line="117" id="msg6"><line style="stroke:#111827;stroke-width:1;" x1="208.0293" x2="218.0293" y1="1150.2656" y2="1146.2656"/><line style="stroke:#111827;stroke-width:1;" x1="208.0293" x2="218.0293" y1="1150.2656" y2="1154.2656"/><line style="stroke:#111827;stroke-width:1;stroke-dasharray:2,2;" x1="207.0293" x2="814.0127" y1="1150.2656" y2="1150.2656"/><text fill="#000000" font-family="'Arial'" font-size="13" font-weight="700" lengthAdjust="spacing" textLength="9.0454" x="224.0293" y="1145.1997">6</text><text fill="#000000" font-family="'Arial'" font-size="13" lengthAdjust="spacing" textLength="140.8926" x="237.0747" y="1145.1997">e-Med groupIdentifier</text></g><path d="M79,1168.2656 L79,1200.2656 A5,5 0 0 0 84,1205.2656 L316,1205.2656 A5,5 0 0 0 321,1200.2656 L321,1173.2656 L311,1163.2656 L84,1163.2656 A5,5 0 0 0 79,1168.2656" fill="url(#g1sp6o89xkdn1x0)" filter="url(#f1sp6o89xkdn1x)" style="stroke:#8B95A5;stroke-width:1;"/><path d="M311,1163.2656 L311,1170.7656 A2.5,2.5 0 0 0 313.5,1173.2656 L321,1173.2656 L311,1163.2656" fill="url(#g1sp6o89xkdn1x0)" style="stroke:#8B95A5;stroke-width:1;"/><text fill="#111827" font-family="'Arial'" font-size="14" lengthAdjust="spacing" textLength="158.0127" x="85" y="1181.2607">Geplante Abgaben mit</text><text fill="#111827" font-family="'Arial'" font-size="14" lengthAdjust="spacing" textLength="221.1016" x="85" y="1197.5576">e-Med groupIdentifier versehen</text><g class="message" data-entity-1="part1" data-entity-2="part3" data-source-line="125" id="msg7"><line style="stroke:#111827;stroke-width:1;" x1="1351.9585" x2="1341.9585" y1="1234.9922" y2="1230.9922"/><line style="stroke:#111827;stroke-width:1;" x1="1351.9585" x2="1341.9585" y1="1234.9922" y2="1238.9922"/><line style="stroke:#111827;stroke-width:1;" x1="207.0293" x2="1352.9585" y1="1234.9922" y2="1234.9922"/><text fill="#000000" font-family="'Arial'" font-size="13" font-weight="700" lengthAdjust="spacing" textLength="9.0454" x="214.0293" y="1229.9263">7</text><text fill="#000000" font-family="'Arial'" font-size="13" lengthAdjust="spacing" textLength="169.5713" x="227.0747" y="1229.9263">Trigger e-Rezept erstellen</text></g><path d="M88,1252.9922 L88,1268.9922 A5,5 0 0 0 93,1273.9922 L307,1273.9922 A5,5 0 0 0 312,1268.9922 L312,1257.9922 L302,1247.9922 L93,1247.9922 A5,5 0 0 0 88,1252.9922" fill="url(#g1sp6o89xkdn1x0)" filter="url(#f1sp6o89xkdn1x)" style="stroke:#8B95A5;stroke-width:1;"/><path d="M302,1247.9922 L302,1255.4922 A2.5,2.5 0 0 0 304.5,1257.9922 L312,1257.9922 L302,1247.9922" fill="url(#g1sp6o89xkdn1x0)" style="stroke:#8B95A5;stroke-width:1;"/><text fill="#111827" font-family="'Arial'" font-size="14" lengthAdjust="spacing" textLength="203.6357" x="94" y="1265.9873">Erstellung e-Rezept ausl&#246;sen</text><path d="M73,1289.2891 L133.9385,1289.2891 L133.9385,1297.5859 L123.9385,1307.5859 L68,1307.5859 L68,1294.2891 A5,5 0 0 1 73,1289.2891" fill="#EEF2FF" style="stroke:#111827;stroke-width:1.5;"/><rect fill="none" height="805.4453" rx="5" ry="5" style="stroke:#111827;stroke-width:2;" width="1456.6987" x="68" y="1289.2891"/><text fill="#000000" font-family="'Arial'" font-size="14" font-weight="700" lengthAdjust="spacing" textLength="20.9385" x="83" y="1303.2842">alt</text><text fill="#000000" font-family="'Arial'" font-size="14" font-weight="700" lengthAdjust="spacing" textLength="253.627" x="148.9385" y="1304.2842">[Fehler bei Erstellung e_Rezept]</text><g class="message" data-entity-1="part3" data-entity-2="part1" data-source-line="133" id="msg8"><line style="stroke:#111827;stroke-width:1;" x1="208.0293" x2="218.0293" y1="1330.0156" y2="1326.0156"/><line style="stroke:#111827;stroke-width:1;" x1="208.0293" x2="218.0293" y1="1330.0156" y2="1334.0156"/><line style="stroke:#111827;stroke-width:1;stroke-dasharray:2,2;" x1="207.0293" x2="1352.9585" y1="1330.0156" y2="1330.0156"/><text fill="#000000" font-family="'Arial'" font-size="13" font-weight="700" lengthAdjust="spacing" textLength="9.0454" x="224.0293" y="1324.9497">8</text><text fill="#000000" font-family="'Arial'" font-size="13" lengthAdjust="spacing" textLength="40.6694" x="237.0747" y="1324.9497">Fehler</text></g><line style="stroke:#111827;stroke-width:1;stroke-dasharray:2,2;" x1="68" x2="1524.6987" y1="1339.0156" y2="1339.0156"/><text fill="#000000" font-family="'Arial'" font-size="14" font-weight="700" lengthAdjust="spacing" textLength="237.2754" x="73" y="1352.0107">[e_Rezept erfolgreich erstellt]</text><g class="message" data-entity-1="part3" data-entity-2="part3" data-source-line="136" id="msg9"><line style="stroke:#111827;stroke-width:1;" x1="1363.9585" x2="1405.9585" y1="1377.4453" y2="1377.4453"/><line style="stroke:#111827;stroke-width:1;" x1="1405.9585" x2="1405.9585" y1="1377.4453" y2="1390.4453"/><line style="stroke:#111827;stroke-width:1;" x1="1364.9585" x2="1405.9585" y1="1390.4453" y2="1390.4453"/><polygon fill="#111827" points="1374.9585,1386.4453,1364.9585,1390.4453,1374.9585,1394.4453,1370.9585,1390.4453" style="stroke:#111827;stroke-width:1;"/><text fill="#000000" font-family="'Arial'" font-size="13" font-weight="700" lengthAdjust="spacing" textLength="9.0454" x="1370.9585" y="1372.3794">9</text><text fill="#000000" font-family="'Arial'" font-size="13" lengthAdjust="spacing" textLength="118.6948" x="1384.0039" y="1372.3794">e-Rezept erstellen</text></g><g class="message" data-entity-1="part3" data-entity-2="part1" data-source-line="137" id="msg10"><line style="stroke:#111827;stroke-width:1;" x1="208.0293" x2="218.0293" y1="1419.5781" y2="1415.5781"/><line style="stroke:#111827;stroke-width:1;" x1="208.0293" x2="218.0293" y1="1419.5781" y2="1423.5781"/><line style="stroke:#111827;stroke-width:1;stroke-dasharray:2,2;" x1="207.0293" x2="1357.9585" y1="1419.5781" y2="1419.5781"/><text fill="#000000" font-family="'Arial'" font-size="13" font-weight="700" lengthAdjust="spacing" textLength="18.0908" x="224.0293" y="1414.5122">10</text><text fill="#000000" font-family="'Arial'" font-size="13" lengthAdjust="spacing" textLength="18.7573" x="246.1201" y="1414.5122">OK</text></g><g class="message" data-entity-1="part1" data-entity-2="part2" data-source-line="139" id="msg11"><line style="stroke:#111827;stroke-width:1;" x1="808.0127" x2="798.0127" y1="1463.8438" y2="1459.8438"/><line style="stroke:#111827;stroke-width:1;" x1="808.0127" x2="798.0127" y1="1463.8438" y2="1467.8438"/><line style="stroke:#111827;stroke-width:1;" x1="207.0293" x2="809.0127" y1="1463.8438" y2="1463.8438"/><text fill="#000000" font-family="'Arial'" font-size="13" font-weight="700" lengthAdjust="spacing" textLength="18.0908" x="214.0293" y="1451.2114">11</text><text fill="#000000" font-family="'Arial'" font-size="13" lengthAdjust="spacing" textLength="162.8809" x="236.1201" y="1443.645">POST MedicationRequest</text><text fill="#000000" font-family="'Arial'" font-size="13" lengthAdjust="spacing" textLength="335.042" x="236.1201" y="1458.7778">(AtElgaEmedMedicationRequestGeplanteAbgabe 1)</text></g><path d="M78,1481.8438 L78,1513.8438 A5,5 0 0 0 83,1518.8438 L317,1518.8438 A5,5 0 0 0 322,1513.8438 L322,1486.8438 L312,1476.8438 L83,1476.8438 A5,5 0 0 0 78,1481.8438" fill="url(#g1sp6o89xkdn1x0)" filter="url(#f1sp6o89xkdn1x)" style="stroke:#8B95A5;stroke-width:1;"/><path d="M312,1476.8438 L312,1484.3438 A2.5,2.5 0 0 0 314.5,1486.8438 L322,1486.8438 L312,1476.8438" fill="url(#g1sp6o89xkdn1x0)" style="stroke:#8B95A5;stroke-width:1;"/><text fill="#111827" font-family="'Arial'" font-size="14" lengthAdjust="spacing" textLength="135.0303" x="84" y="1494.8389">Geplante Abgabe 1</text><text fill="#111827" font-family="'Arial'" font-size="14" lengthAdjust="spacing" textLength="223.4736" x="84" y="1511.1357">an Fachanwendung &#252;bermitteln</text><g class="message" data-entity-1="part2" data-entity-2="part2" data-source-line="147" id="msg12"><line style="stroke:#111827;stroke-width:1;" x1="820.0127" x2="862.0127" y1="1548.5703" y2="1548.5703"/><line style="stroke:#111827;stroke-width:1;" x1="862.0127" x2="862.0127" y1="1548.5703" y2="1561.5703"/><line style="stroke:#111827;stroke-width:1;" x1="821.0127" x2="862.0127" y1="1561.5703" y2="1561.5703"/><polygon fill="#111827" points="831.0127,1557.5703,821.0127,1561.5703,831.0127,1565.5703,827.0127,1561.5703" style="stroke:#111827;stroke-width:1;"/><text fill="#000000" font-family="'Arial'" font-size="13" font-weight="700" lengthAdjust="spacing" textLength="18.0908" x="827.0127" y="1543.5044">12</text><text fill="#000000" font-family="'Arial'" font-size="13" lengthAdjust="spacing" textLength="371.6807" x="849.1035" y="1543.5044">AtElgaEmedMedicationRequestGeplanteAbgabe 1 pr&#252;fen</text></g><path d="M171.7476,1576.5703 L232.686,1576.5703 L232.686,1584.8672 L222.686,1594.8672 L166.7476,1594.8672 L166.7476,1581.5703 A5,5 0 0 1 171.7476,1576.5703" fill="#EEF2FF" style="stroke:#111827;stroke-width:1.5;"/><rect fill="none" height="177.5859" rx="5" ry="5" style="stroke:#111827;stroke-width:2;" width="1096.9902" x="166.7476" y="1576.5703"/><text fill="#000000" font-family="'Arial'" font-size="14" font-weight="700" lengthAdjust="spacing" textLength="20.9385" x="181.7476" y="1590.5654">alt</text><text fill="#000000" font-family="'Arial'" font-size="14" font-weight="700" lengthAdjust="spacing" textLength="59.0967" x="247.686" y="1591.5654">[g&#252;ltig]</text><g class="message" data-entity-1="part2" data-entity-2="part2" data-source-line="149" id="msg13"><line style="stroke:#111827;stroke-width:1;" x1="820.0127" x2="862.0127" y1="1617.2969" y2="1617.2969"/><line style="stroke:#111827;stroke-width:1;" x1="862.0127" x2="862.0127" y1="1617.2969" y2="1630.2969"/><line style="stroke:#111827;stroke-width:1;" x1="821.0127" x2="862.0127" y1="1630.2969" y2="1630.2969"/><polygon fill="#111827" points="831.0127,1626.2969,821.0127,1630.2969,831.0127,1634.2969,827.0127,1630.2969" style="stroke:#111827;stroke-width:1;"/><text fill="#000000" font-family="'Arial'" font-size="13" font-weight="700" lengthAdjust="spacing" textLength="18.0908" x="827.0127" y="1612.231">13</text><text fill="#000000" font-family="'Arial'" font-size="13" lengthAdjust="spacing" textLength="392.6343" x="849.1035" y="1612.231">AtElgaEmedMedicationRequestGeplanteAbgabe 1 speichern</text></g><path d="M691,1648.2969 L691,1664.2969 A5,5 0 0 0 696,1669.2969 L929,1669.2969 A5,5 0 0 0 934,1664.2969 L934,1653.2969 L924,1643.2969 L696,1643.2969 A5,5 0 0 0 691,1648.2969" fill="url(#g1sp6o89xkdn1x0)" filter="url(#f1sp6o89xkdn1x)" style="stroke:#8B95A5;stroke-width:1;"/><path d="M924,1643.2969 L924,1650.7969 A2.5,2.5 0 0 0 926.5,1653.2969 L934,1653.2969 L924,1643.2969" fill="url(#g1sp6o89xkdn1x0)" style="stroke:#8B95A5;stroke-width:1;"/><text fill="#111827" font-family="'Arial'" font-size="14" lengthAdjust="spacing" textLength="222.0928" x="697" y="1661.292">Geplante Abgabe 1 gespeichert</text><g class="message" data-entity-1="part2" data-entity-2="part1" data-source-line="155" id="msg14"><line style="stroke:#111827;stroke-width:1;" x1="208.0293" x2="218.0293" y1="1698.7266" y2="1694.7266"/><line style="stroke:#111827;stroke-width:1;" x1="208.0293" x2="218.0293" y1="1698.7266" y2="1702.7266"/><line style="stroke:#111827;stroke-width:1;stroke-dasharray:2,2;" x1="207.0293" x2="809.0127" y1="1698.7266" y2="1698.7266"/><text fill="#000000" font-family="'Arial'" font-size="13" font-weight="700" lengthAdjust="spacing" textLength="18.0908" x="224.0293" y="1693.6606">14</text><text fill="#000000" font-family="'Arial'" font-size="13" lengthAdjust="spacing" textLength="18.7573" x="246.1201" y="1693.6606">OK</text></g><line style="stroke:#111827;stroke-width:1;stroke-dasharray:2,2;" x1="166.7476" x2="1263.7378" y1="1707.7266" y2="1707.7266"/><text fill="#000000" font-family="'Arial'" font-size="14" font-weight="700" lengthAdjust="spacing" textLength="79.0303" x="171.7476" y="1720.7217">[ung&#252;ltig]</text><g class="message" data-entity-1="part2" data-entity-2="part1" data-source-line="157" id="msg15"><line style="stroke:#111827;stroke-width:1;" x1="208.0293" x2="218.0293" y1="1746.1563" y2="1742.1563"/><line style="stroke:#111827;stroke-width:1;" x1="208.0293" x2="218.0293" y1="1746.1563" y2="1750.1563"/><line style="stroke:#111827;stroke-width:1;stroke-dasharray:2,2;" x1="207.0293" x2="809.0127" y1="1746.1563" y2="1746.1563"/><text fill="#000000" font-family="'Arial'" font-size="13" font-weight="700" lengthAdjust="spacing" textLength="18.0908" x="224.0293" y="1741.0903">15</text><text fill="#000000" font-family="'Arial'" font-size="13" lengthAdjust="spacing" textLength="40.6694" x="246.1201" y="1741.0903">Fehler</text></g><g class="message" data-entity-1="part1" data-entity-2="part2" data-source-line="160" id="msg16"><line style="stroke:#111827;stroke-width:1;" x1="808.0127" x2="798.0127" y1="1797.4219" y2="1793.4219"/><line style="stroke:#111827;stroke-width:1;" x1="808.0127" x2="798.0127" y1="1797.4219" y2="1801.4219"/><line style="stroke:#111827;stroke-width:1;" x1="207.0293" x2="809.0127" y1="1797.4219" y2="1797.4219"/><text fill="#000000" font-family="'Arial'" font-size="13" font-weight="700" lengthAdjust="spacing" textLength="18.0908" x="214.0293" y="1784.7896">16</text><text fill="#000000" font-family="'Arial'" font-size="13" lengthAdjust="spacing" textLength="162.8809" x="236.1201" y="1777.2231">POST MedicationRequest</text><text fill="#000000" font-family="'Arial'" font-size="13" lengthAdjust="spacing" textLength="335.042" x="236.1201" y="1792.356">(AtElgaEmedMedicationRequestGeplanteAbgabe 2)</text></g><path d="M78,1815.4219 L78,1847.4219 A5,5 0 0 0 83,1852.4219 L317,1852.4219 A5,5 0 0 0 322,1847.4219 L322,1820.4219 L312,1810.4219 L83,1810.4219 A5,5 0 0 0 78,1815.4219" fill="url(#g1sp6o89xkdn1x0)" filter="url(#f1sp6o89xkdn1x)" style="stroke:#8B95A5;stroke-width:1;"/><path d="M312,1810.4219 L312,1817.9219 A2.5,2.5 0 0 0 314.5,1820.4219 L322,1820.4219 L312,1810.4219" fill="url(#g1sp6o89xkdn1x0)" style="stroke:#8B95A5;stroke-width:1;"/><text fill="#111827" font-family="'Arial'" font-size="14" lengthAdjust="spacing" textLength="135.0303" x="84" y="1828.417">Geplante Abgabe 2</text><text fill="#111827" font-family="'Arial'" font-size="14" lengthAdjust="spacing" textLength="223.4736" x="84" y="1844.7139">an Fachanwendung &#252;bermitteln</text><g class="message" data-entity-1="part2" data-entity-2="part2" data-source-line="166" id="msg17"><line style="stroke:#111827;stroke-width:1;" x1="820.0127" x2="862.0127" y1="1882.1484" y2="1882.1484"/><line style="stroke:#111827;stroke-width:1;" x1="862.0127" x2="862.0127" y1="1882.1484" y2="1895.1484"/><line style="stroke:#111827;stroke-width:1;" x1="821.0127" x2="862.0127" y1="1895.1484" y2="1895.1484"/><polygon fill="#111827" points="831.0127,1891.1484,821.0127,1895.1484,831.0127,1899.1484,827.0127,1895.1484" style="stroke:#111827;stroke-width:1;"/><text fill="#000000" font-family="'Arial'" font-size="13" font-weight="700" lengthAdjust="spacing" textLength="18.0908" x="827.0127" y="1877.0825">17</text><text fill="#000000" font-family="'Arial'" font-size="13" lengthAdjust="spacing" textLength="371.6807" x="849.1035" y="1877.0825">AtElgaEmedMedicationRequestGeplanteAbgabe 2 pr&#252;fen</text></g><path d="M171.7476,1910.1484 L232.686,1910.1484 L232.686,1918.4453 L222.686,1928.4453 L166.7476,1928.4453 L166.7476,1915.1484 A5,5 0 0 1 171.7476,1910.1484" fill="#EEF2FF" style="stroke:#111827;stroke-width:1.5;"/><rect fill="none" height="177.5859" rx="5" ry="5" style="stroke:#111827;stroke-width:2;" width="1096.9902" x="166.7476" y="1910.1484"/><text fill="#000000" font-family="'Arial'" font-size="14" font-weight="700" lengthAdjust="spacing" textLength="20.9385" x="181.7476" y="1924.1436">alt</text><text fill="#000000" font-family="'Arial'" font-size="14" font-weight="700" lengthAdjust="spacing" textLength="59.0967" x="247.686" y="1925.1436">[g&#252;ltig]</text><g class="message" data-entity-1="part2" data-entity-2="part2" data-source-line="168" id="msg18"><line style="stroke:#111827;stroke-width:1;" x1="820.0127" x2="862.0127" y1="1950.875" y2="1950.875"/><line style="stroke:#111827;stroke-width:1;" x1="862.0127" x2="862.0127" y1="1950.875" y2="1963.875"/><line style="stroke:#111827;stroke-width:1;" x1="821.0127" x2="862.0127" y1="1963.875" y2="1963.875"/><polygon fill="#111827" points="831.0127,1959.875,821.0127,1963.875,831.0127,1967.875,827.0127,1963.875" style="stroke:#111827;stroke-width:1;"/><text fill="#000000" font-family="'Arial'" font-size="13" font-weight="700" lengthAdjust="spacing" textLength="18.0908" x="827.0127" y="1945.8091">18</text><text fill="#000000" font-family="'Arial'" font-size="13" lengthAdjust="spacing" textLength="392.6343" x="849.1035" y="1945.8091">AtElgaEmedMedicationRequestGeplanteAbgabe 2 speichern</text></g><path d="M691,1981.875 L691,1997.875 A5,5 0 0 0 696,2002.875 L929,2002.875 A5,5 0 0 0 934,1997.875 L934,1986.875 L924,1976.875 L696,1976.875 A5,5 0 0 0 691,1981.875" fill="url(#g1sp6o89xkdn1x0)" filter="url(#f1sp6o89xkdn1x)" style="stroke:#8B95A5;stroke-width:1;"/><path d="M924,1976.875 L924,1984.375 A2.5,2.5 0 0 0 926.5,1986.875 L934,1986.875 L924,1976.875" fill="url(#g1sp6o89xkdn1x0)" style="stroke:#8B95A5;stroke-width:1;"/><text fill="#111827" font-family="'Arial'" font-size="14" lengthAdjust="spacing" textLength="222.0928" x="697" y="1994.8701">Geplante Abgabe 2 gespeichert</text><g class="message" data-entity-1="part2" data-entity-2="part1" data-source-line="174" id="msg19"><line style="stroke:#111827;stroke-width:1;" x1="208.0293" x2="218.0293" y1="2032.3047" y2="2028.3047"/><line style="stroke:#111827;stroke-width:1;" x1="208.0293" x2="218.0293" y1="2032.3047" y2="2036.3047"/><line style="stroke:#111827;stroke-width:1;stroke-dasharray:2,2;" x1="207.0293" x2="809.0127" y1="2032.3047" y2="2032.3047"/><text fill="#000000" font-family="'Arial'" font-size="13" font-weight="700" lengthAdjust="spacing" textLength="18.0908" x="224.0293" y="2027.2388">19</text><text fill="#000000" font-family="'Arial'" font-size="13" lengthAdjust="spacing" textLength="18.7573" x="246.1201" y="2027.2388">OK</text></g><line style="stroke:#111827;stroke-width:1;stroke-dasharray:2,2;" x1="166.7476" x2="1263.7378" y1="2041.3047" y2="2041.3047"/><text fill="#000000" font-family="'Arial'" font-size="14" font-weight="700" lengthAdjust="spacing" textLength="79.0303" x="171.7476" y="2054.2998">[ung&#252;ltig]</text><g class="message" data-entity-1="part2" data-entity-2="part1" data-source-line="176" id="msg20"><line style="stroke:#111827;stroke-width:1;" x1="208.0293" x2="218.0293" y1="2079.7344" y2="2075.7344"/><line style="stroke:#111827;stroke-width:1;" x1="208.0293" x2="218.0293" y1="2079.7344" y2="2083.7344"/><line style="stroke:#111827;stroke-width:1;stroke-dasharray:2,2;" x1="207.0293" x2="814.0127" y1="2079.7344" y2="2079.7344"/><text fill="#000000" font-family="'Arial'" font-size="13" font-weight="700" lengthAdjust="spacing" textLength="18.0908" x="224.0293" y="2074.6685">20</text><text fill="#000000" font-family="'Arial'" font-size="13" lengthAdjust="spacing" textLength="40.6694" x="246.1201" y="2074.6685">Fehler</text></g><?plantuml-src lLRRRXit47tdLmpaFiHe1LZRgBu0DY0dSbgqJGpRVGjWS7TdLuHMN9NBZLq5-PjyGv_yfX_ha7lZNkpAS5DAW2rohkVC3Ac5JX3UuJhXKYFC_9Zx2D7sGO7472NyZg5OSYrIcHaP558h7WEgJ6EIe6GiMmgvveglm4zLYEfDcgGAzWxiSazvi8nLcikmb8YcvkD8P0iUfdT2nX3n94Fdf5HJ4XLCNACXHZnFz4KgzNk-GXZDbE39Q5ZYMcmG9g-73zjXEp8o9M0-Cu3pRW9uWDFeOBmNJi9Z_Cb8k00S-STJFgrtRnOYM4hCCfZGtfMJq17zlkHXQ18tLfne9fF9aNT8UzSrD5hboBwu0VxyrnfL8kJIIM4-7nBuGuRs7om1Th77FudkeCZqaYij0h6cccYbDBMh8z2ZrQwsK1_Wtd55JkkWWiKp2ZEbqhikC7QpZQtT6l9O7nI-VgIjTnJvkfLZRRauwd6EaMUpSpGRzrwRcVFqticWjJ-4A_FJUnXzb6JyxGmc02FOEuweRmmgFD0aIWUt4-0PZAp8YA4CgU_k7LsxS4oD2nSyM71vHp8vXL0iildczT7XeQcwTOCq82dSNioixL9xDcmUnrUumRMsjWBVzmwzhgtRKg8mLlnmZF5Sfp9V-QWOEptjpXZWlieZcZsdfoGQQF69KmVQp1bJ647w2KiaVgZ3Fe7l5F9GftTAQAfisxMD83DmeLfiloQQkfvyB7LU3B2kTx42eYN1m6p1EL5F4vAzckbv4lFv2iDYgwEsRxCpNXahI1gV5QvFuBsTf9T3unCSkyPYO2rUcMRCjAEnFvmH3UhOvBFgOUW6_9l8T3TSO0O5sOji8UGcPpj7rIGzm6CMB1GAlsJo2UPwd9Ldp22dUdPZpDOeWWKg_NG0RY7jMZWxLGvFH2R8_VzIFjtRkIwUZ_8fdYgrKcko_uqCUmEr-LQWgQtA8k54f1LQilGcQS1z3nwmtLtj6n9HeHGROVw0JoAu8EGUUQXilyR8NWq_ORAn2BDE0NS1QHTm3LzPEYVbb3Ntm_eNYa6BYE82BYCxt6KVbs45-zmQ5LDocV3L2jM8DLQQ4EjXMFL7LSJ_7XIg3UOnrMkjCZwh2s5GXGP4pr-_ETg8ILW93O-aILgPOMkWrC_gA-C4RfI8OnDnTSqqRyskztbnOYwtMfhdMRBzEtFTD6cKJWX9QkOBN2HaoaS1hg5Q1ffxp0MhL6CCwGdLYA2AqYHMPYxLPTyouUOuaDiZtZxyIYSk4rLu00vu5VUN7wvleDT5pvqJzh7H9XwWYptqkiNiqG1iFpgs3tJBKr5GbZR7YXC0ynsgtsU42ckrVQ01R-cCjm-95h5nyaAhrUqYYoZxrz90xgrBoSdJ3QTBgoqW0gaEV5YsAZXhbNqpuhtzdLZsdiFoYydmQeh9QulabrjsQRP43rCz0467x7R2_oNXxTQlGx9rOERRFm00?></g></svg>