<?xml version="1.0" encoding="us-ascii" standalone="no"?><svg xmlns="http://www.w3.org/2000/svg" xmlns:xlink="http://www.w3.org/1999/xlink" contentStyleType="text/css" height="1269px" preserveAspectRatio="none" style="width:709px;height:1269px;background:#F5F5F5;" version="1.1" viewBox="0 0 709 1269" width="709px" zoomAndPan="magnify"><defs><linearGradient id="g1p6bjmsg9gqzt0" x1="50%" x2="50%" y1="0%" y2="100%"><stop offset="0%" stop-color="#E0E5F0"/><stop offset="100%" stop-color="#D1D9E6"/></linearGradient></defs><g><rect fill="#F5F5F5" height="1269" style="stroke:none;stroke-width:1.0;" width="709" x="0" y="0"/><text fill="#000000" font-family="Arial" font-size="14" font-weight="bold" lengthAdjust="spacing" textLength="480" x="110.75" y="28.1318">Geplante Abgabe f&#252;r bestehende Medikationsplaneintr&#228;ge erstellen</text><text fill="#000000" font-family="Arial" font-size="14" font-weight="bold" lengthAdjust="spacing" textLength="428" x="136.75" y="44.2305">Variante A: Vorab-Ermittlung des GroupIdentifiers (Fehlerfall)</text><rect fill="#156082" fill-opacity="0.50196" height="1005.1465" style="stroke:#181818;stroke-width:1.0;" width="10" x="181" y="144.2959"/><rect fill="#E97232" fill-opacity="0.74118" height="123.0947" style="stroke:#181818;stroke-width:1.0;" width="10" x="387" y="352.8364"/><rect fill="#E97232" fill-opacity="0.74118" height="245.6353" style="stroke:#181818;stroke-width:1.0;" width="10" x="387" y="856.7598"/><rect fill="#CD3732" fill-opacity="0.66275" height="138.292" style="stroke:#181818;stroke-width:1.0;" width="10" x="602" y="599.373"/><rect fill="none" height="612.2153" rx="5" ry="5" style="stroke:#111827;stroke-width:2.0;" width="683.5" x="9" y="559.2271"/><rect fill="#0F9ED5" fill-opacity="0.14510" height="160.2407" rx="5" ry="5" style="stroke:#111827;stroke-width:2.0;" width="653.5" x="19" y="650.4717"/><path d="M19,698.6177 L672.5,698.6177 L672.5,805.7124 A5,5 0 0 1 667.5,810.7124 L24,810.7124 A5,5 0 0 1 19,805.7124 L19,698.6177 " fill="#E97132" fill-opacity="0.20784" style="stroke:none;stroke-width:1.0;"/><rect fill="#0F9ED5" fill-opacity="0.14510" height="240.4854" rx="5" ry="5" style="stroke:#111827;stroke-width:2.0;" width="540.5" x="142" y="923.957"/><path d="M142,1008.2017 L682.5,1008.2017 L682.5,1159.4424 A5,5 0 0 1 677.5,1164.4424 L147,1164.4424 A5,5 0 0 1 142,1159.4424 L142,1008.2017 " fill="#E97132" fill-opacity="0.20784" style="stroke:none;stroke-width:1.0;"/><rect fill="#0F9ED5" fill-opacity="0.14510" height="95.1934" rx="5" ry="5" style="stroke:#111827;stroke-width:2.0;" width="520.5" x="152" y="1062.249"/><path d="M152,1110.395 L672.5,1110.395 L672.5,1152.4424 A5,5 0 0 1 667.5,1157.4424 L157,1157.4424 A5,5 0 0 1 152,1152.4424 L152,1110.395 " fill="#E97132" fill-opacity="0.20784" style="stroke:none;stroke-width:1.0;"/><line style="stroke:#181818;stroke-width:0.5;stroke-dasharray:5.0,5.0;" x1="186" x2="186" y1="134.2959" y2="1188.4424"/><line style="stroke:#181818;stroke-width:0.5;stroke-dasharray:5.0,5.0;" x1="392" x2="392" y1="134.2959" y2="1188.4424"/><line style="stroke:#181818;stroke-width:0.5;stroke-dasharray:5.0,5.0;" x1="606.5" x2="606.5" y1="134.2959" y2="1188.4424"/><text fill="#000000" font-family="Arial" font-size="14" lengthAdjust="spacing" textLength="42" x="162" y="131.3291">GDA 1</text><ellipse cx="186" cy="66.6973" fill="#156082" fill-opacity="0.50196" rx="8" ry="8" style="stroke:#181818;stroke-width:0.5;"/><path d="M186,74.6973 L186,101.6973 M173,82.6973 L199,82.6973 M186,101.6973 L173,116.6973 M186,101.6973 L199,116.6973 " fill="none" style="stroke:#181818;stroke-width:0.5;"/><text fill="#000000" font-family="Arial" font-size="14" lengthAdjust="spacing" textLength="42" x="162" y="1200.5742">GDA 1</text><ellipse cx="186" cy="1212.041" fill="#156082" fill-opacity="0.50196" rx="8" ry="8" style="stroke:#181818;stroke-width:0.5;"/><path d="M186,1220.041 L186,1247.041 M173,1228.041 L199,1228.041 M186,1247.041 L173,1262.041 M186,1247.041 L199,1262.041 " fill="none" style="stroke:#181818;stroke-width:0.5;"/><rect fill="#E97232" fill-opacity="0.74118" height="30.0986" rx="5" ry="5" style="stroke:#555555;stroke-width:0.5;" width="76" x="354" y="103.1973"/><text fill="#000000" font-family="Arial" font-size="14" lengthAdjust="spacing" textLength="62" x="361" y="123.3291">e-Med FA</text><rect fill="#E97232" fill-opacity="0.74118" height="30.0986" rx="5" ry="5" style="stroke:#555555;stroke-width:0.5;" width="76" x="354" y="1187.4424"/><text fill="#000000" font-family="Arial" font-size="14" lengthAdjust="spacing" textLength="62" x="361" y="1207.5742">e-Med FA</text><rect fill="#CD3732" fill-opacity="0.66275" height="30.0986" rx="5" ry="5" style="stroke:#555555;stroke-width:0.5;" width="71" x="571.5" y="103.1973"/><text fill="#000000" font-family="Arial" font-size="14" lengthAdjust="spacing" textLength="57" x="578.5" y="123.3291">e-Rezept</text><rect fill="#CD3732" fill-opacity="0.66275" height="30.0986" rx="5" ry="5" style="stroke:#555555;stroke-width:0.5;" width="71" x="571.5" y="1187.4424"/><text fill="#000000" font-family="Arial" font-size="14" lengthAdjust="spacing" textLength="57" x="578.5" y="1207.5742">e-Rezept</text><rect fill="#156082" fill-opacity="0.50196" height="1005.1465" style="stroke:#181818;stroke-width:1.0;" width="10" x="181" y="144.2959"/><rect fill="#E97232" fill-opacity="0.74118" height="123.0947" style="stroke:#181818;stroke-width:1.0;" width="10" x="387" y="352.8364"/><rect fill="#E97232" fill-opacity="0.74118" height="245.6353" style="stroke:#181818;stroke-width:1.0;" width="10" x="387" y="856.7598"/><rect fill="#CD3732" fill-opacity="0.66275" height="138.292" style="stroke:#181818;stroke-width:1.0;" width="10" x="602" y="599.373"/><rect fill="#EEEEEE" height="3" rx="5" ry="5" style="stroke:#EEEEEE;stroke-width:1.0;" width="702.5" x="0" y="165.3452"/><line style="stroke:#000000;stroke-width:1.0;" x1="0" x2="702.5" y1="165.3452" y2="165.3452"/><line style="stroke:#000000;stroke-width:1.0;" x1="0" x2="702.5" y1="168.3452" y2="168.3452"/><rect fill="#EEEEEE" height="24.0986" rx="5" ry="5" style="stroke:#000000;stroke-width:2.0;" width="193" x="254.75" y="154.2959"/><text fill="#000000" font-family="Arial" font-size="14" font-weight="bold" lengthAdjust="spacing" textLength="175" x="260.75" y="171.4277">Medikationsplan abrufen</text><rect fill="none" height="42.1973" rx="5" ry="5" style="stroke:#000000;stroke-width:1.5;" width="294" x="159" y="188.3945"/><path d="M164,188.3945 L224,188.3945 L224,196.3945 L214,206.3945 L159,206.3945 L159,193.3945 A5,5 0 0 1 164,188.3945 " fill="#EEEEEE" style="stroke:#000000;stroke-width:2.0;"/><text fill="#000000" font-family="Arial" font-size="14" font-weight="bold" lengthAdjust="spacing" textLength="20" x="172" y="203.5264">ref</text><a href="interactions.html#sequenzdiagramm-plan-read" target="_top" title="interactions.html#sequenzdiagramm-plan-read" xlink:actuate="onRequest" xlink:href="interactions.html#sequenzdiagramm-plan-read" xlink:show="new" xlink:title="interactions.html#sequenzdiagramm-plan-read" xlink:type="simple"><text fill="#0000EE" font-family="Arial" font-size="14" lengthAdjust="spacing" textLength="67" x="272.5" y="223.5264">Plan-Read</text></a><path d="M69,245.5918 L69,277.5918 A5,5 0 0 0 74,282.5918 L297,282.5918 A5,5 0 0 0 302,277.5918 L302,250.5918 L292,240.5918 L74,240.5918 A5,5 0 0 0 69,245.5918 " fill="url(#g1p6bjmsg9gqzt0)" style="stroke:#8B95A5;stroke-width:1.0;"/><path d="M292,240.5918 L292,248.0918 A2.5,2.5 0 0 0 294.5,250.5918 L302,250.5918 L292,240.5918 " fill="url(#g1p6bjmsg9gqzt0)" style="stroke:#8B95A5;stroke-width:1.0;"/><text fill="#111827" font-family="Arial" font-size="14" lengthAdjust="spacing" textLength="176" x="75" y="258.7236">GDA erh&#228;lt Medikationsplan</text><text fill="#111827" font-family="Arial" font-size="14" lengthAdjust="spacing" textLength="212" x="75" y="274.8223">(Auslieferungs-Collection-Bundle)</text><rect fill="#EEEEEE" height="3" rx="5" ry="5" style="stroke:#EEEEEE;stroke-width:1.0;" width="702.5" x="0" y="308.8384"/><line style="stroke:#000000;stroke-width:1.0;" x1="0" x2="702.5" y1="308.8384" y2="308.8384"/><line style="stroke:#000000;stroke-width:1.0;" x1="0" x2="702.5" y1="311.8384" y2="311.8384"/><rect fill="#EEEEEE" height="24.0986" rx="5" ry="5" style="stroke:#000000;stroke-width:2.0;" width="338" x="182.25" y="297.7891"/><text fill="#000000" font-family="Arial" font-size="14" font-style="italic" font-weight="bold" lengthAdjust="spacing" textLength="126" x="188.25" y="314.9209">Geplante Abgaben</text><text fill="#000000" font-family="Arial" font-size="14" font-weight="bold" lengthAdjust="spacing" textLength="190" x="318.25" y="314.9209">vorbereiten und schreiben</text><polygon fill="#111827" points="375,348.8364,385,352.8364,375,356.8364,379,352.8364" style="stroke:#111827;stroke-width:1.0;"/><line style="stroke:#111827;stroke-width:1.0;" x1="191" x2="381" y1="352.8364" y2="352.8364"/><text fill="#000000" font-family="Arial" font-size="13" font-weight="bold" lengthAdjust="spacing" textLength="7" x="198" y="348.0815">1</text><text fill="#000000" font-family="Arial" font-size="13" lengthAdjust="spacing" textLength="166" x="209" y="348.0815">POST $groupidentifier-create&#8203;</text><path d="M40,370.8364 L40,402.8364 A5,5 0 0 0 45,407.8364 L326,407.8364 A5,5 0 0 0 331,402.8364 L331,375.8364 L321,365.8364 L45,365.8364 A5,5 0 0 0 40,370.8364 " fill="url(#g1p6bjmsg9gqzt0)" style="stroke:#8B95A5;stroke-width:1.0;"/><path d="M321,365.8364 L321,373.3364 A2.5,2.5 0 0 0 323.5,375.8364 L331,375.8364 L321,365.8364 " fill="url(#g1p6bjmsg9gqzt0)" style="stroke:#8B95A5;stroke-width:1.0;"/><text fill="#111827" font-family="Arial" font-size="14" lengthAdjust="spacing" textLength="270" x="46" y="383.9683">e-Med GroupIdentifier f&#252;r "Rezeptklammer"</text><text fill="#111827" font-family="Arial" font-size="14" lengthAdjust="spacing" textLength="62" x="46" y="400.0669">anfordern</text><line style="stroke:#111827;stroke-width:1.0;" x1="397" x2="439" y1="433.9824" y2="433.9824"/><line style="stroke:#111827;stroke-width:1.0;" x1="439" x2="439" y1="433.9824" y2="446.9824"/><line style="stroke:#111827;stroke-width:1.0;" x1="398" x2="439" y1="446.9824" y2="446.9824"/><polygon fill="#111827" points="408,442.9824,398,446.9824,408,450.9824,404,446.9824" style="stroke:#111827;stroke-width:1.0;"/><text fill="#000000" font-family="Arial" font-size="13" font-weight="bold" lengthAdjust="spacing" textLength="7" x="404" y="429.2275">2</text><text fill="#000000" font-family="Arial" font-size="13" lengthAdjust="spacing" textLength="180" x="415" y="429.2275">e-Med GroupIdentifier erzeugen</text><polygon fill="#111827" points="202,471.9312,192,475.9312,202,479.9312,198,475.9312" style="stroke:#111827;stroke-width:1.0;"/><line style="stroke:#111827;stroke-width:1.0;stroke-dasharray:2.0,2.0;" x1="196" x2="391" y1="475.9312" y2="475.9312"/><text fill="#000000" font-family="Arial" font-size="13" font-weight="bold" lengthAdjust="spacing" textLength="7" x="208" y="471.1763">3</text><text fill="#000000" font-family="Arial" font-size="13" lengthAdjust="spacing" textLength="123" x="219" y="471.1763">e-Med GroupIdentifier</text><path d="M42,493.9312 L42,541.9312 A5,5 0 0 0 47,546.9312 L324,546.9312 A5,5 0 0 0 329,541.9312 L329,498.9312 L319,488.9312 L47,488.9312 A5,5 0 0 0 42,493.9312 " fill="url(#g1p6bjmsg9gqzt0)" style="stroke:#8B95A5;stroke-width:1.0;"/><path d="M319,488.9312 L319,496.4312 A2.5,2.5 0 0 0 321.5,498.9312 L329,498.9312 L319,488.9312 " fill="url(#g1p6bjmsg9gqzt0)" style="stroke:#8B95A5;stroke-width:1.0;"/><text fill="#111827" font-family="Arial" font-size="14" lengthAdjust="spacing" textLength="51" x="48" y="507.063">Erstellte</text><text fill="#111827" font-family="Arial" font-size="14" font-style="italic" lengthAdjust="spacing" textLength="119" x="103" y="507.063">Geplante Abgaben</text><text fill="#111827" font-family="Arial" font-size="14" lengthAdjust="spacing" textLength="84" x="226" y="507.063">referenzieren</text><text fill="#111827" font-family="Arial" font-size="14" lengthAdjust="spacing" textLength="256" x="48" y="523.1616">zugeh&#246;rige Medikationsplaneintr&#228;ge und</text><text fill="#111827" font-family="Arial" font-size="14" lengthAdjust="spacing" textLength="201" x="48" y="539.2603">enthalten e-Med GroupIdentifier</text><path d="M14,559.2271 L77,559.2271 L77,567.3257 L67,577.3257 L9,577.3257 L9,564.2271 A5,5 0 0 1 14,559.2271 " fill="#EEF2FF" style="stroke:#111827;stroke-width:1.5;"/><rect fill="none" height="612.2153" rx="5" ry="5" style="stroke:#111827;stroke-width:2.0;" width="683.5" x="9" y="559.2271"/><text fill="#000000" font-family="Arial" font-size="14" font-weight="bold" lengthAdjust="spacing" textLength="23" x="24" y="573.3589">par</text><text fill="#000000" font-family="Arial" font-size="14" font-weight="bold" lengthAdjust="spacing" textLength="149" x="92" y="574.3589">[Erstellung e-Rezept]</text><polygon fill="#111827" points="590,595.373,600,599.373,590,603.373,594,599.373" style="stroke:#111827;stroke-width:1.0;"/><line style="stroke:#111827;stroke-width:1.0;" x1="191" x2="596" y1="599.373" y2="599.373"/><text fill="#000000" font-family="Arial" font-size="13" font-weight="bold" lengthAdjust="spacing" textLength="7" x="198" y="594.6182">4</text><text fill="#000000" font-family="Arial" font-size="13" lengthAdjust="spacing" textLength="148" x="209" y="594.6182">Trigger e-Rezept erstellen</text><path d="M83,617.373 L83,633.373 A5,5 0 0 0 88,638.373 L284,638.373 A5,5 0 0 0 289,633.373 L289,622.373 L279,612.373 L88,612.373 A5,5 0 0 0 83,617.373 " fill="url(#g1p6bjmsg9gqzt0)" style="stroke:#8B95A5;stroke-width:1.0;"/><path d="M279,612.373 L279,619.873 A2.5,2.5 0 0 0 281.5,622.373 L289,622.373 L279,612.373 " fill="url(#g1p6bjmsg9gqzt0)" style="stroke:#8B95A5;stroke-width:1.0;"/><text fill="#111827" font-family="Arial" font-size="14" lengthAdjust="spacing" textLength="185" x="89" y="630.5049">Erstellung e-Rezept ausl&#246;sen</text><path d="M24,650.4717 L81,650.4717 L81,658.5703 L71,668.5703 L19,668.5703 L19,655.4717 A5,5 0 0 1 24,650.4717 " fill="#EEF2FF" style="stroke:#111827;stroke-width:1.5;"/><rect fill="none" height="160.2407" rx="5" ry="5" style="stroke:#111827;stroke-width:2.0;" width="653.5" x="19" y="650.4717"/><text fill="#000000" font-family="Arial" font-size="14" font-weight="bold" lengthAdjust="spacing" textLength="17" x="34" y="664.6035">alt</text><text fill="#000000" font-family="Arial" font-size="14" font-weight="bold" lengthAdjust="spacing" textLength="127" x="96" y="665.6035">[e-Rezept erstellt]</text><polygon fill="#111827" points="202,686.6177,192,690.6177,202,694.6177,198,690.6177" style="stroke:#111827;stroke-width:1.0;"/><line style="stroke:#111827;stroke-width:1.0;stroke-dasharray:2.0,2.0;" x1="196" x2="601" y1="690.6177" y2="690.6177"/><text fill="#000000" font-family="Arial" font-size="13" font-weight="bold" lengthAdjust="spacing" textLength="7" x="208" y="685.8628">5</text><text fill="#000000" font-family="Arial" font-size="13" lengthAdjust="spacing" textLength="19" x="219" y="685.8628">OK</text><line style="stroke:#111827;stroke-width:1.0;stroke-dasharray:2.0,2.0;" x1="19" x2="672.5" y1="699.6177" y2="699.6177"/><text fill="#000000" font-family="Arial" font-size="14" font-weight="bold" lengthAdjust="spacing" textLength="123" x="24" y="712.7495">[e-Rezept Fehler]</text><polygon fill="#111827" points="202,733.665,192,737.665,202,741.665,198,737.665" style="stroke:#111827;stroke-width:1.0;"/><line style="stroke:#111827;stroke-width:1.0;stroke-dasharray:2.0,2.0;" x1="196" x2="606" y1="737.665" y2="737.665"/><text fill="#000000" font-family="Arial" font-size="13" font-weight="bold" lengthAdjust="spacing" textLength="7" x="208" y="732.9102">6</text><text fill="#000000" font-family="Arial" font-size="13" lengthAdjust="spacing" textLength="36" x="219" y="732.9102">Fehler</text><polygon fill="#111827" points="380,762.6138,390,766.6138,380,770.6138,384,766.6138" style="stroke:#111827;stroke-width:1.0;"/><line style="stroke:#111827;stroke-width:1.0;" x1="191" x2="386" y1="766.6138" y2="766.6138"/><text fill="#000000" font-family="Arial" font-size="13" font-weight="bold" lengthAdjust="spacing" textLength="7" x="198" y="761.8589">7</text><text fill="#000000" font-family="Arial" font-size="13" lengthAdjust="spacing" textLength="159" x="209" y="761.8589">POST $prescription-discard&#8203;</text><path d="M29,784.6138 L29,800.6138 A5,5 0 0 0 34,805.6138 L337,805.6138 A5,5 0 0 0 342,800.6138 L342,789.6138 L332,779.6138 L34,779.6138 A5,5 0 0 0 29,784.6138 " fill="url(#g1p6bjmsg9gqzt0)" style="stroke:#8B95A5;stroke-width:1.0;"/><path d="M332,779.6138 L332,787.1138 A2.5,2.5 0 0 0 334.5,789.6138 L342,789.6138 L332,779.6138 " fill="url(#g1p6bjmsg9gqzt0)" style="stroke:#8B95A5;stroke-width:1.0;"/><text fill="#111827" font-family="Arial" font-size="14" lengthAdjust="spacing" textLength="110" x="35" y="797.7456">Siehe Use Case "</text><text fill="#111827" font-family="Arial" font-size="14" font-style="italic" lengthAdjust="spacing" textLength="111" x="145" y="797.7456">Geplante Abgabe</text><text fill="#111827" font-family="Arial" font-size="14" lengthAdjust="spacing" textLength="67" x="260" y="797.7456">verwerfen"</text><line style="stroke:#111827;stroke-width:1.0;stroke-dasharray:2.0,2.0;" x1="9" x2="692.5" y1="818.7124" y2="818.7124"/><text fill="#000000" font-family="Arial" font-size="14" font-weight="bold" lengthAdjust="spacing" textLength="171" x="14" y="831.8442">[gleichzeitige Erstellung</text><text fill="#000000" font-family="Arial" font-size="14" font-style="italic" font-weight="bold" lengthAdjust="spacing" textLength="117" x="189" y="831.8442">Geplante Abgabe</text><text fill="#000000" font-family="Arial" font-size="14" font-weight="bold" lengthAdjust="spacing" textLength="5" x="306" y="831.8442">]</text><polygon fill="#111827" points="375,852.7598,385,856.7598,375,860.7598,379,856.7598" style="stroke:#111827;stroke-width:1.0;"/><line style="stroke:#111827;stroke-width:1.0;" x1="191" x2="381" y1="856.7598" y2="856.7598"/><text fill="#000000" font-family="Arial" font-size="13" font-weight="bold" lengthAdjust="spacing" textLength="7" x="198" y="852.0049">8</text><text fill="#000000" font-family="Arial" font-size="13" lengthAdjust="spacing" textLength="144" x="209" y="852.0049">POST $prescription-write</text><path d="M45,874.7598 L45,906.7598 A5,5 0 0 0 50,911.7598 L321,911.7598 A5,5 0 0 0 326,906.7598 L326,879.7598 L316,869.7598 L50,869.7598 A5,5 0 0 0 45,874.7598 " fill="url(#g1p6bjmsg9gqzt0)" style="stroke:#8B95A5;stroke-width:1.0;"/><path d="M316,869.7598 L316,877.2598 A2.5,2.5 0 0 0 318.5,879.7598 L326,879.7598 L316,869.7598 " fill="url(#g1p6bjmsg9gqzt0)" style="stroke:#8B95A5;stroke-width:1.0;"/><text fill="#111827" font-family="Arial" font-size="14" lengthAdjust="spacing" textLength="215" x="51" y="887.8916">Transaction Bundle mit Geplanten</text><text fill="#111827" font-family="Arial" font-size="14" lengthAdjust="spacing" textLength="260" x="51" y="903.9902">Abgaben an Fachanwendung &#252;bermitteln</text><path d="M147,923.957 L204,923.957 L204,932.0557 L194,942.0557 L142,942.0557 L142,928.957 A5,5 0 0 1 147,923.957 " fill="#EEF2FF" style="stroke:#111827;stroke-width:1.5;"/><rect fill="none" height="240.4854" rx="5" ry="5" style="stroke:#111827;stroke-width:2.0;" width="540.5" x="142" y="923.957"/><text fill="#000000" font-family="Arial" font-size="14" font-weight="bold" lengthAdjust="spacing" textLength="17" x="157" y="938.0889">alt</text><text fill="#000000" font-family="Arial" font-size="14" font-weight="bold" lengthAdjust="spacing" textLength="5" x="219" y="939.0889">[</text><text fill="#000000" font-family="Arial" font-size="14" font-style="italic" font-weight="bold" lengthAdjust="spacing" textLength="117" x="224" y="939.0889">Geplante Abgabe</text><text fill="#000000" font-family="Arial" font-size="14" font-weight="bold" lengthAdjust="spacing" textLength="55" x="345" y="939.0889">erstellt]</text><polygon fill="#111827" points="202,960.103,192,964.103,202,968.103,198,964.103" style="stroke:#111827;stroke-width:1.0;"/><line style="stroke:#111827;stroke-width:1.0;stroke-dasharray:2.0,2.0;" x1="196" x2="386" y1="964.103" y2="964.103"/><text fill="#000000" font-family="Arial" font-size="13" font-weight="bold" lengthAdjust="spacing" textLength="7" x="208" y="959.3481">9</text><text fill="#000000" font-family="Arial" font-size="13" lengthAdjust="spacing" textLength="19" x="219" y="959.3481">OK</text><path d="M269,982.103 L269,998.103 A5,5 0 0 0 274,1003.103 L510,1003.103 A5,5 0 0 0 515,998.103 L515,987.103 L505,977.103 L274,977.103 A5,5 0 0 0 269,982.103 " fill="url(#g1p6bjmsg9gqzt0)" style="stroke:#8B95A5;stroke-width:1.0;"/><path d="M505,977.103 L505,984.603 A2.5,2.5 0 0 0 507.5,987.103 L515,987.103 L505,977.103 " fill="url(#g1p6bjmsg9gqzt0)" style="stroke:#8B95A5;stroke-width:1.0;"/><text fill="#111827" font-family="Arial" font-size="14" lengthAdjust="spacing" textLength="225" x="275" y="995.2349">Geplante Abgabe 1 + 2 gespeichert</text><line style="stroke:#111827;stroke-width:1.0;stroke-dasharray:2.0,2.0;" x1="142" x2="682.5" y1="1009.2017" y2="1009.2017"/><text fill="#000000" font-family="Arial" font-size="14" font-weight="bold" lengthAdjust="spacing" textLength="5" x="147" y="1022.3335">[</text><text fill="#000000" font-family="Arial" font-size="14" font-style="italic" font-weight="bold" lengthAdjust="spacing" textLength="117" x="152" y="1022.3335">Geplante Abgabe</text><text fill="#000000" font-family="Arial" font-size="14" font-weight="bold" lengthAdjust="spacing" textLength="51" x="273" y="1022.3335">Fehler]</text><polygon fill="#111827" points="202,1043.249,192,1047.249,202,1051.249,198,1047.249" style="stroke:#111827;stroke-width:1.0;"/><line style="stroke:#111827;stroke-width:1.0;stroke-dasharray:2.0,2.0;" x1="196" x2="386" y1="1047.249" y2="1047.249"/><text fill="#000000" font-family="Arial" font-size="13" font-weight="bold" lengthAdjust="spacing" textLength="14" x="208" y="1042.4941">10</text><text fill="#000000" font-family="Arial" font-size="13" lengthAdjust="spacing" textLength="36" x="226" y="1042.4941">Fehler</text><path d="M157,1062.249 L214,1062.249 L214,1070.3477 L204,1080.3477 L152,1080.3477 L152,1067.249 A5,5 0 0 1 157,1062.249 " fill="#EEF2FF" style="stroke:#111827;stroke-width:1.5;"/><rect fill="none" height="95.1934" rx="5" ry="5" style="stroke:#111827;stroke-width:2.0;" width="520.5" x="152" y="1062.249"/><text fill="#000000" font-family="Arial" font-size="14" font-weight="bold" lengthAdjust="spacing" textLength="17" x="167" y="1076.3809">alt</text><text fill="#000000" font-family="Arial" font-size="14" font-weight="bold" lengthAdjust="spacing" textLength="267" x="229" y="1077.3809">[Geplante Abgabe erneut &#252;bermitteln]</text><polygon fill="#111827" points="380,1098.395,390,1102.395,380,1106.395,384,1102.395" style="stroke:#111827;stroke-width:1.0;"/><line style="stroke:#111827;stroke-width:1.0;" x1="191" x2="386" y1="1102.395" y2="1102.395"/><text fill="#000000" font-family="Arial" font-size="13" font-weight="bold" lengthAdjust="spacing" textLength="14" x="198" y="1097.6401">11</text><text fill="#000000" font-family="Arial" font-size="13" lengthAdjust="spacing" textLength="144" x="216" y="1097.6401">POST $prescription-write</text><line style="stroke:#111827;stroke-width:1.0;stroke-dasharray:2.0,2.0;" x1="152" x2="672.5" y1="1111.395" y2="1111.395"/><text fill="#000000" font-family="Arial" font-size="14" font-weight="bold" lengthAdjust="spacing" textLength="167" x="157" y="1124.5269">[Fehler nicht behebbar]</text><polygon fill="#111827" points="595,1145.4424,605,1149.4424,595,1153.4424,599,1149.4424" style="stroke:#111827;stroke-width:1.0;"/><line style="stroke:#111827;stroke-width:1.0;" x1="186" x2="601" y1="1149.4424" y2="1149.4424"/><text fill="#000000" font-family="Arial" font-size="13" font-weight="bold" lengthAdjust="spacing" textLength="14" x="193" y="1144.6875">12</text><text fill="#000000" font-family="Arial" font-size="13" lengthAdjust="spacing" textLength="269" x="211" y="1144.6875">e-Rezept von e-Med GroupIdentifier entkoppeln</text><!--SRC=[ZLVDRjj64BxpAQPIWIPerOfKP5j6742E9JT84mcoaaFJm5YI8t4XQiaiLrQZea3lVOqyGqwvwKtw99rTKXJ_b9Q63N9dTkQRRtvshRWA4Mun3fbG24DtoLo4nVwB11SJXG4A7-4L-dp558z4eXMH2oNtdvO8A4ad357y9juooLCRb_0saipjZEIQAnLkn19yJE1MHfluXOz2yGMdZV1eZ468Si72yB5bVPUik8YPP6jWdehadVf8oDWMasYDbdMKkf7qKJwFmaX2kskUefHvgoLv4dwciUZhdu964Z0_sd92HPuJB4YoRLAW1BjerCS5suHg70drcgqHMaEADMmrQzpn7OBzf5bu2lRF7sEK8HUhWi9erAJmXXAYNx06_phwVSfyNqVcTClhrqNE-kOfKYeYojiV5i1rbJtiOd_HxRHzsn_WcTOeMhfm1ttMprVd0VTM0fC4R5gR5TZiqlS1cxPIeCAsxGlddDRkAddviuWmmGyR55wASigauXwFgToQ0YihrEh1F6MbUcPguaDMIu82tG13AQDjDIYpMER5B3Lvp0MfhnujcPufnPXRJaMrVE72CT4LTXxTEvhKRwWSTVayd_mocTtVtWplRQ2dRVVFkXVEHRT1mJ4AWxEpxlbDJM4wdByOlPvh2uEpQ-T9JM4udO1vsjtnO7JJ7rGLHgz6D_VZ8IdWuDpfEQvVLRYVZNuTJUVGzlpUUSzXWseOavTGyk7qgoPciydCA8m6vtRFwL43M6RGG4e1Iw15Rs2tYinOyJ7RW3G7DKwjYXtwWF6mLOwXh7y_mnt6AjkGVhGgCH6AZOh4PksYjAohg-gm1URApG85N5qPmFo1KREcc8j09IuWUi0id1zoi9VmxXtDQvHwBzdyCL3hi9tsqyxdR4djjUveJns9p8UfVflHs_ltbcK6mz6gfGb26Um_XQg6qteqt2GXnmLA6lb9XoeoHEEpSqq56k9ZYmuJCsjCd4_viygv8vx-n9_1GoI92kIAOgPza7W1VRaP0sdWdMU7-2vXEhcRmxUw2sAUdouTZu9H-CzVVqCzYZHtbVCeFVHQQP9M8P62icKniJ0z90hOyoGSA2vNm66rYB7P8yeTRfOeZbjeZu5uOeVbOzLvFRfHUYRJuYc6fSuHPP_hls3j24Em_opvyYidFMM2A5012tLUcj4TAQ8kW0o7FluFjM_fmPGdCEkEIvYJwwNc8rCxNYj8_nZmePig_GDGPG2QV0EZwjn_JepH8r9o4AhZ4Ab2K9QU6RdhGe8cBur86wFJgZHbSYFf1UUaYLGCHbxCRAPgra_LUomnyIIFJN_vFF6OzAdQ3vYQIA4ZbjE53jvek8p-jEe5adOWoYtTor2qKkW7iiohPPbubo5oBzXHc-goAV3TRBES-Q-4ifNSUFgF9ckARowPID8f1-d40Rg0vfTRdVUi2u36rPXv0HDRYaYZtd-XcQElgnYMwiEGMQgG4voLwwNUprGkbRGS6ZWzjwfNS1k-1mUMcCIQPvIgd8gciZk1h5Y4TLoPr8XBSLO1qGp4ZQeIzRzBDCrhYg8AFEi3GO4g-hSZGDTbCZFUCF6gNlCvalVTGoHEZLoXLb4S7y4NxASMhGFHMRdhtty1]--></g></svg>