<?xml version="1.0" encoding="us-ascii" standalone="no"?><svg xmlns="http://www.w3.org/2000/svg" xmlns:xlink="http://www.w3.org/1999/xlink" contentStyleType="text/css" height="862px" preserveAspectRatio="none" style="width:645px;height:862px;background:#F5F5F5;" version="1.1" viewBox="0 0 645 862" width="645px" zoomAndPan="magnify"><defs><linearGradient id="g1ilesi1qnfuho0" x1="50%" x2="50%" y1="0%" y2="100%"><stop offset="0%" stop-color="#E0E5F0"/><stop offset="100%" stop-color="#D1D9E6"/></linearGradient></defs><g><rect fill="#F5F5F5" height="862" style="stroke:none;stroke-width:1.0;" width="645" x="0" y="0"/><text fill="#000000" font-family="Arial" font-size="14" font-weight="bold" lengthAdjust="spacing" textLength="71" x="283" y="28.1318">Plan-Read</text><rect fill="#156082" fill-opacity="0.50196" height="581.0674" style="stroke:#181818;stroke-width:1.0;" width="10" x="112" y="192.0947"/><rect fill="#E97232" fill-opacity="0.74118" height="371.1284" style="stroke:#181818;stroke-width:1.0;" width="10" x="340" y="192.0947"/><rect fill="#0F9ED5" fill-opacity="0.14510" height="386.4263" rx="5" ry="5" style="stroke:#111827;stroke-width:2.0;" width="545" x="83" y="313.8896"/><path d="M83,571.2231 L628,571.2231 L628,630.7695 A5,5 0 0 1 623,635.7695 L88,635.7695 A5,5 0 0 1 83,630.7695 L83,571.2231 " fill="#34738D" fill-opacity="0.30588" style="stroke:none;stroke-width:1.0;"/><path d="M83,635.7695 L628,635.7695 L628,695.3159 A5,5 0 0 1 623,700.3159 L88,700.3159 A5,5 0 0 1 83,695.3159 L83,635.7695 " fill="#E97132" fill-opacity="0.20784" style="stroke:none;stroke-width:1.0;"/><line style="stroke:#181818;stroke-width:0.5;stroke-dasharray:5.0,5.0;" x1="117" x2="117" y1="118.1973" y2="782.1621"/><line style="stroke:#181818;stroke-width:0.5;stroke-dasharray:5.0,5.0;" x1="345" x2="345" y1="118.1973" y2="782.1621"/><text fill="#000000" font-family="Arial" font-size="14" lengthAdjust="spacing" textLength="42" x="93" y="115.2305">GDA 1</text><ellipse cx="117" cy="50.5986" fill="#156082" fill-opacity="0.50196" rx="8" ry="8" style="stroke:#181818;stroke-width:0.5;"/><path d="M117,58.5986 L117,85.5986 M104,66.5986 L130,66.5986 M117,85.5986 L104,100.5986 M117,85.5986 L130,100.5986 " fill="none" style="stroke:#181818;stroke-width:0.5;"/><text fill="#000000" font-family="Arial" font-size="14" lengthAdjust="spacing" textLength="42" x="93" y="794.2939">GDA 1</text><ellipse cx="117" cy="805.7607" fill="#156082" fill-opacity="0.50196" rx="8" ry="8" style="stroke:#181818;stroke-width:0.5;"/><path d="M117,813.7607 L117,840.7607 M104,821.7607 L130,821.7607 M117,840.7607 L104,855.7607 M117,840.7607 L130,855.7607 " fill="none" style="stroke:#181818;stroke-width:0.5;"/><rect fill="#E97232" fill-opacity="0.74118" height="30.0986" rx="5" ry="5" style="stroke:#555555;stroke-width:0.5;" width="76" x="307" y="87.0986"/><text fill="#000000" font-family="Arial" font-size="14" lengthAdjust="spacing" textLength="62" x="314" y="107.2305">e-Med FA</text><rect fill="#E97232" fill-opacity="0.74118" height="30.0986" rx="5" ry="5" style="stroke:#555555;stroke-width:0.5;" width="76" x="307" y="781.1621"/><text fill="#000000" font-family="Arial" font-size="14" lengthAdjust="spacing" textLength="62" x="314" y="801.2939">e-Med FA</text><rect fill="#156082" fill-opacity="0.50196" height="581.0674" style="stroke:#181818;stroke-width:1.0;" width="10" x="112" y="192.0947"/><rect fill="#E97232" fill-opacity="0.74118" height="371.1284" style="stroke:#181818;stroke-width:1.0;" width="10" x="340" y="192.0947"/><rect fill="#EEEEEE" height="3" rx="5" ry="5" style="stroke:#EEEEEE;stroke-width:1.0;" width="638" x="0" y="148.6716"/><line style="stroke:#000000;stroke-width:1.0;" x1="0" x2="638" y1="148.6716" y2="148.6716"/><line style="stroke:#000000;stroke-width:1.0;" x1="0" x2="638" y1="151.6716" y2="151.6716"/><rect fill="#EEEEEE" height="22.9487" rx="5" ry="5" style="stroke:#000000;stroke-width:2.0;" width="224" x="207" y="138.1973"/><text fill="#000000" font-family="Arial" font-size="13" font-weight="bold" lengthAdjust="spacing" textLength="206" x="213" y="154.3911">Aktuellen Medikationsplan lesen</text><polygon fill="#111827" points="328,188.0947,338,192.0947,328,196.0947,332,192.0947" style="stroke:#111827;stroke-width:1.0;"/><line style="stroke:#111827;stroke-width:1.0;" x1="122" x2="334" y1="192.0947" y2="192.0947"/><text fill="#000000" font-family="Arial" font-size="13" font-weight="bold" lengthAdjust="spacing" textLength="7" x="129" y="187.3398">1</text><text fill="#000000" font-family="Arial" font-size="13" lengthAdjust="spacing" textLength="99" x="140" y="187.3398">POST $plan-read</text><path d="M26,210.0947 L26,239.0947 A5,5 0 0 0 31,244.0947 L202,244.0947 A5,5 0 0 0 207,239.0947 L207,215.0947 L197,205.0947 L31,205.0947 A5,5 0 0 0 26,210.0947 " fill="url(#g1ilesi1qnfuho0)" style="stroke:#8B95A5;stroke-width:1.0;"/><path d="M197,205.0947 L197,212.5947 A2.5,2.5 0 0 0 199.5,215.0947 L207,215.0947 L197,205.0947 " fill="url(#g1ilesi1qnfuho0)" style="stroke:#8B95A5;stroke-width:1.0;"/><text fill="#111827" font-family="Arial" font-size="13" lengthAdjust="spacing" textLength="160" x="32" y="222.2886">Abruf des Medikationsplans</text><text fill="#111827" font-family="Arial" font-size="13" lengthAdjust="spacing" textLength="91" x="32" y="237.2373">zur Bearbeitung</text><line style="stroke:#111827;stroke-width:1.0;" x1="350" x2="392" y1="285.8896" y2="285.8896"/><line style="stroke:#111827;stroke-width:1.0;" x1="392" x2="392" y1="285.8896" y2="298.8896"/><line style="stroke:#111827;stroke-width:1.0;" x1="351" x2="392" y1="298.8896" y2="298.8896"/><polygon fill="#111827" points="361,294.8896,351,298.8896,361,302.8896,357,298.8896" style="stroke:#111827;stroke-width:1.0;"/><text fill="#000000" font-family="Arial" font-size="13" font-weight="bold" lengthAdjust="spacing" textLength="7" x="357" y="273.6604">2</text><text fill="#000000" font-family="Arial" font-size="13" lengthAdjust="spacing" textLength="141" x="368" y="266.186">Existiert ein persistierter</text><text fill="#000000" font-family="Arial" font-size="13" lengthAdjust="spacing" textLength="101" x="368" y="281.1348">Medikationsplan?</text><path d="M88,313.8896 L144,313.8896 L144,320.8384 L134,330.8384 L83,330.8384 L83,318.8896 A5,5 0 0 1 88,313.8896 " fill="#EEF2FF" style="stroke:#111827;stroke-width:1.5;"/><rect fill="none" height="386.4263" rx="5" ry="5" style="stroke:#111827;stroke-width:2.0;" width="545" x="83" y="313.8896"/><text fill="#000000" font-family="Arial" font-size="13" font-weight="bold" lengthAdjust="spacing" textLength="16" x="98" y="327.0835">alt</text><text fill="#000000" font-family="Arial" font-size="11" font-weight="bold" lengthAdjust="spacing" textLength="290" x="159" y="326.2075">[ja: Medikationsplan persistiert (kein emptyReason)]</text><line style="stroke:#111827;stroke-width:1.0;" x1="350" x2="392" y1="441.4795" y2="441.4795"/><line style="stroke:#111827;stroke-width:1.0;" x1="392" x2="392" y1="441.4795" y2="454.4795"/><line style="stroke:#111827;stroke-width:1.0;" x1="351" x2="392" y1="454.4795" y2="454.4795"/><polygon fill="#111827" points="361,450.4795,351,454.4795,361,458.4795,357,454.4795" style="stroke:#111827;stroke-width:1.0;"/><text fill="#000000" font-family="Arial" font-size="13" font-weight="bold" lengthAdjust="spacing" textLength="7" x="357" y="391.8784">3</text><text fill="#000000" font-family="Arial" font-size="13" lengthAdjust="spacing" textLength="131" x="368" y="347.0322">Erzeugt Auslieferungs-</text><text fill="#000000" font-family="Arial" font-size="13" lengthAdjust="spacing" textLength="101" x="368" y="361.981">Collection Bundle</text><text fill="#000000" font-family="Arial" font-size="13" lengthAdjust="spacing" textLength="89" x="368" y="376.9297">Transformation:</text><text fill="#000000" font-family="Arial" font-size="13" lengthAdjust="spacing" textLength="167" x="368" y="391.8784">- new|changed &#8594; unchanged</text><text fill="#000000" font-family="Arial" font-size="13" lengthAdjust="spacing" textLength="248" x="368" y="406.8271">- removed -&gt; aus List und Bundle entfernen</text><text fill="#000000" font-family="Arial" font-size="13" lengthAdjust="spacing" textLength="163" x="368" y="421.7759">wenn alle List.entry entfernt:</text><text fill="#000000" font-family="Arial" font-size="13" lengthAdjust="spacing" textLength="212" x="368" y="436.7246">- setzt List.emptyReason = nilknown</text><path d="M255,472.4795 L255,516.4795 A5,5 0 0 0 260,521.4795 L430,521.4795 A5,5 0 0 0 435,516.4795 L435,477.4795 L425,467.4795 L260,467.4795 A5,5 0 0 0 255,472.4795 " fill="url(#g1ilesi1qnfuho0)" style="stroke:#8B95A5;stroke-width:1.0;"/><path d="M425,467.4795 L425,474.9795 A2.5,2.5 0 0 0 427.5,477.4795 L435,477.4795 L425,467.4795 " fill="url(#g1ilesi1qnfuho0)" style="stroke:#8B95A5;stroke-width:1.0;"/><text fill="#111827" font-family="Arial" font-size="13" lengthAdjust="spacing" textLength="91" x="261" y="484.6733">Das persistierte</text><text fill="#111827" font-family="Arial" font-size="13" lengthAdjust="spacing" textLength="159" x="261" y="499.6221">Medikationsplan-Collection-</text><text fill="#111827" font-family="Arial" font-size="13" lengthAdjust="spacing" textLength="149" x="261" y="514.5708">Bundle bleibt unver&#228;ndert.</text><polygon fill="#111827" points="133,559.2231,123,563.2231,133,567.2231,129,563.2231" style="stroke:#111827;stroke-width:1.0;"/><line style="stroke:#111827;stroke-width:1.0;stroke-dasharray:2.0,2.0;" x1="127" x2="344" y1="563.2231" y2="563.2231"/><text fill="#000000" font-family="Arial" font-size="13" font-weight="bold" lengthAdjust="spacing" textLength="7" x="139" y="550.9939">4</text><text fill="#000000" font-family="Arial" font-size="13" lengthAdjust="spacing" textLength="183" x="150" y="543.5195">Auslieferungs-Collection Bundle</text><text fill="#000000" font-family="Arial" font-size="13" lengthAdjust="spacing" textLength="42" x="150" y="558.4683">+ ETag</text><line style="stroke:#111827;stroke-width:1.0;stroke-dasharray:2.0,2.0;" x1="83" x2="628" y1="572.2231" y2="572.2231"/><text fill="#000000" font-family="Arial" font-size="11" font-weight="bold" lengthAdjust="spacing" textLength="430" x="88" y="582.541">[ja: leerer Medikationsplan persistiert (emptyReason = notstarted | nilknown)]</text><path d="M245,595.8721 L245,624.8721 A5,5 0 0 0 250,629.8721 L439,629.8721 A5,5 0 0 0 444,624.8721 L444,600.8721 L434,590.8721 L250,590.8721 A5,5 0 0 0 245,595.8721 " fill="url(#g1ilesi1qnfuho0)" style="stroke:#8B95A5;stroke-width:1.0;"/><path d="M434,590.8721 L434,598.3721 A2.5,2.5 0 0 0 436.5,600.8721 L444,600.8721 L434,590.8721 " fill="url(#g1ilesi1qnfuho0)" style="stroke:#8B95A5;stroke-width:1.0;"/><text fill="#111827" font-family="Arial" font-size="13" lengthAdjust="spacing" textLength="174" x="251" y="608.0659">Siehe Sub_UC_eMed_05_04 -</text><text fill="#111827" font-family="Arial" font-size="13" lengthAdjust="spacing" textLength="172" x="251" y="623.0146">Leeren Medikationsplan lesen</text><line style="stroke:#111827;stroke-width:1.0;stroke-dasharray:2.0,2.0;" x1="83" x2="628" y1="636.7695" y2="636.7695"/><text fill="#000000" font-family="Arial" font-size="11" font-weight="bold" lengthAdjust="spacing" textLength="218" x="88" y="647.0874">[nein: kein Medikationsplan persistiert]</text><path d="M243,660.4185 L243,689.4185 A5,5 0 0 0 248,694.4185 L441,694.4185 A5,5 0 0 0 446,689.4185 L446,665.4185 L436,655.4185 L248,655.4185 A5,5 0 0 0 243,660.4185 " fill="url(#g1ilesi1qnfuho0)" style="stroke:#8B95A5;stroke-width:1.0;"/><path d="M436,655.4185 L436,662.9185 A2.5,2.5 0 0 0 438.5,665.4185 L446,665.4185 L436,655.4185 " fill="url(#g1ilesi1qnfuho0)" style="stroke:#8B95A5;stroke-width:1.0;"/><text fill="#111827" font-family="Arial" font-size="13" lengthAdjust="spacing" textLength="174" x="249" y="672.6123">Siehe Sub_UC_eMed_05_03 -</text><text fill="#111827" font-family="Arial" font-size="13" lengthAdjust="spacing" textLength="182" x="249" y="687.561">Initial erstellter Medikationsplan</text><path d="M5,717.3159 L5,761.3159 A5,5 0 0 0 10,766.3159 L225,766.3159 A5,5 0 0 0 230,761.3159 L230,722.3159 L220,712.3159 L10,712.3159 A5,5 0 0 0 5,717.3159 " fill="url(#g1ilesi1qnfuho0)" style="stroke:#8B95A5;stroke-width:1.0;"/><path d="M220,712.3159 L220,719.8159 A2.5,2.5 0 0 0 222.5,722.3159 L230,722.3159 L220,712.3159 " fill="url(#g1ilesi1qnfuho0)" style="stroke:#8B95A5;stroke-width:1.0;"/><text fill="#111827" font-family="Arial" font-size="13" lengthAdjust="spacing" textLength="125" x="11" y="729.5098">Nachfolgend kann der</text><text fill="#111827" font-family="Arial" font-size="13" lengthAdjust="spacing" textLength="200" x="11" y="744.4585">Medikationsplan bearbeitet werden</text><text fill="#111827" font-family="Arial" font-size="13" lengthAdjust="spacing" textLength="160" x="11" y="759.4072">und ein Plan-Write erfolgen.</text><!--SRC=[bLPhZk964FxVfwX0f6GLCRBD6ub4C7WsgymE25X5Yf1GWmleODgatLvs9fk_EK3Ea9la9Zb9gcqUZSsibEOFhlgw7byzR2rqY30AkQoCaGUCVHDlXTnpnNV0bpfI4_rC07x0EDeXOnVj8b81glieZ1IKdVJOMhxShbMKoE28MDNDpqB46nv41o7NiE9XZ9RcU4r9LE3QHWDSyIJK3v7KJto7KEefmSEI7RC5cOWN1BTs-_vhSV_ul4SL2hcr0Bv_2_111kaVBCJVZpwDU12Or3pdMjwtIQkdn-PKHXhXTmRGpzE73jPNJgKSk44R6mPXMsejsdLUFqkd6x7SIenZS4asjkXqwFaKcx5YKU6wRijhacoIAymVTeGn_fQWN6PHZhZIOYdsNEfRYLq32WsHdcjGiJ85zQcgLmgBRe2UKj4XdrGglEOb5TtoU5PalgeaUakHxwzoF5lEL8LwuSfBixDkNjnxXjIlg1rD-zmF7uVZ-Tj1R-u2dR9RRpWjh-NS07WfeDreECr10J3gJT_vJrDZeTteUxK2e3SQGdhApaFR7zJRUO3_tX_C7te4m7RJgtgB80-OZ_rV_D4KoikWsgnwl9rFO_WJNFdmwWL0bWMKgxLcjHNKCEzZF1wEKu3VRhfLhqeJacuYo2ZYCPJe7xWbcpcsltG3u7iCJ1u6YXLwW8TUwJf7HaOJ7Sbajq35MBSBlQrEC0nH0bqGMwv59ECzBKO8CIPfjyjO5a7b-vE73eo6aobyRM0LPVOdHIe-SfhY36f7oDBfZZxYCHFMMwXaHKifpdkCsKkYe8zSBL3eHAuPoY1T3kpYu9JaTLedgHsZ_qd4Mg0YOeG4Mb_nyHdLJEPS_q0UGdqfvg-yK-33iW3VRerDtEtrCxq_uaY-ePw_6OHwmMIjePV4eS0LAaehhimapKk8IsCS-ZG-8SxaL145gqZjKf-TcQo0nCFdvORBDTNotp__WaGUdunIuOvO3OmxdiJmIB4H83ZQ0vIQt4cKCtb0AO6JmnHqHnhrVDBhr56C-aKVjPUae0jIX5iP7IIbTwdZCJkI3QZNR6Q1P3dUAfTKAsPLPz4jGXGB4o_P- -TlyqxHTuR2Sy4jEYd1j7CwEHPlSFWT-5E-1iQGLhWzUgQW8QAYwBzOrrpsaOurJHYn_FbCnHls2XaJWHk4IRAOVxYVfsAdFdTgK36iF1hdhmpPLU9MvDbEaDHg7KWRxWkX_x-WgbbGxwJGz2a1P4RJ4j15Td8r2J0_Y6P6YpF-n9URLHIkpTqjf-wZ0WFBXxyuZZfgE22zAYGmqy0cq_JJx6SbZ2ELMRgxh8F_0000]--></g></svg>