<?xml version="1.0" encoding="us-ascii" standalone="no"?><svg xmlns="http://www.w3.org/2000/svg" xmlns:xlink="http://www.w3.org/1999/xlink" contentStyleType="text/css" height="789px" preserveAspectRatio="none" style="width:654px;height:789px;background:#F5F5F5;" version="1.1" viewBox="0 0 654 789" width="654px" zoomAndPan="magnify"><defs><linearGradient id="g1sw23sjrt7a6n0" x1="50%" x2="50%" y1="0%" y2="100%"><stop offset="0%" stop-color="#E0E5F0"/><stop offset="100%" stop-color="#D1D9E6"/></linearGradient></defs><g><rect fill="#F5F5F5" height="789" style="stroke:none;stroke-width:1.0;" width="654" x="0" y="0"/><text fill="#000000" font-family="Arial" font-size="14" font-weight="bold" lengthAdjust="spacing" textLength="120" x="269.25" y="28.1318">Dispense-Search</text><rect fill="#156082" fill-opacity="0.50196" height="486.3218" style="stroke:#181818;stroke-width:1.0;" width="10" x="147.5" y="181.3433"/><rect fill="#E97232" fill-opacity="0.74118" height="274.4341" style="stroke:#181818;stroke-width:1.0;" width="10" x="484.5" y="181.3433"/><rect fill="#0F9ED5" fill-opacity="0.14510" height="210.5366" rx="5" ry="5" style="stroke:#111827;stroke-width:2.0;" width="533.5" x="24" y="253.2407"/><path d="M24,369.6826 L557.5,369.6826 L557.5,411.73 A5,5 0 0 1 552.5,416.73 L29,416.73 A5,5 0 0 1 24,411.73 L24,369.6826 " fill="#34738D" fill-opacity="0.30588" style="stroke:none;stroke-width:1.0;"/><path d="M24,416.73 L557.5,416.73 L557.5,458.7773 A5,5 0 0 1 552.5,463.7773 L29,463.7773 A5,5 0 0 1 24,458.7773 L24,416.73 " fill="#E97132" fill-opacity="0.20784" style="stroke:none;stroke-width:1.0;"/><rect fill="none" height="181.8877" rx="5" ry="5" style="stroke:#111827;stroke-width:2.0;" width="547.5" x="10" y="477.7773"/><line style="stroke:#181818;stroke-width:0.5;stroke-dasharray:5.0,5.0;" x1="152" x2="152" y1="150.3945" y2="676.665"/><line style="stroke:#181818;stroke-width:0.5;stroke-dasharray:5.0,5.0;" x1="489.5" x2="489.5" y1="150.3945" y2="676.665"/><text fill="#000000" font-family="Arial" font-size="14" lengthAdjust="spacing" textLength="34" x="132.5" y="115.2305">GDA:</text><text fill="#000000" font-family="Arial" font-size="14" lengthAdjust="spacing" textLength="28" x="135.5" y="131.3291">Arzt/</text><text fill="#000000" font-family="Arial" font-size="14" lengthAdjust="spacing" textLength="65" x="117" y="147.4277">Apotheker</text><ellipse cx="152.5" cy="50.5986" fill="#156082" fill-opacity="0.50196" rx="8" ry="8" style="stroke:#181818;stroke-width:0.5;"/><path d="M152.5,58.5986 L152.5,85.5986 M139.5,66.5986 L165.5,66.5986 M152.5,85.5986 L139.5,100.5986 M152.5,85.5986 L165.5,100.5986 " fill="none" style="stroke:#181818;stroke-width:0.5;"/><text fill="#000000" font-family="Arial" font-size="14" lengthAdjust="spacing" textLength="34" x="132.5" y="688.7969">GDA:</text><text fill="#000000" font-family="Arial" font-size="14" lengthAdjust="spacing" textLength="28" x="135.5" y="704.8955">Arzt/</text><text fill="#000000" font-family="Arial" font-size="14" lengthAdjust="spacing" textLength="65" x="117" y="720.9941">Apotheker</text><ellipse cx="152.5" cy="732.4609" fill="#156082" fill-opacity="0.50196" rx="8" ry="8" style="stroke:#181818;stroke-width:0.5;"/><path d="M152.5,740.4609 L152.5,767.4609 M139.5,748.4609 L165.5,748.4609 M152.5,767.4609 L139.5,782.4609 M152.5,767.4609 L165.5,782.4609 " fill="none" style="stroke:#181818;stroke-width:0.5;"/><rect fill="#E97232" fill-opacity="0.74118" height="30.0986" rx="5" ry="5" style="stroke:#555555;stroke-width:0.5;" width="76" x="451.5" y="119.2959"/><text fill="#000000" font-family="Arial" font-size="14" lengthAdjust="spacing" textLength="62" x="458.5" y="139.4277">e-Med FA</text><rect fill="#E97232" fill-opacity="0.74118" height="30.0986" rx="5" ry="5" style="stroke:#555555;stroke-width:0.5;" width="76" x="451.5" y="675.665"/><text fill="#000000" font-family="Arial" font-size="14" lengthAdjust="spacing" textLength="62" x="458.5" y="695.7969">e-Med FA</text><rect fill="#156082" fill-opacity="0.50196" height="486.3218" style="stroke:#181818;stroke-width:1.0;" width="10" x="147.5" y="181.3433"/><rect fill="#E97232" fill-opacity="0.74118" height="274.4341" style="stroke:#181818;stroke-width:1.0;" width="10" x="484.5" y="181.3433"/><polygon fill="#111827" points="472.5,177.3433,482.5,181.3433,472.5,185.3433,476.5,181.3433" style="stroke:#111827;stroke-width:1.0;"/><line style="stroke:#111827;stroke-width:1.0;" x1="157.5" x2="478.5" y1="181.3433" y2="181.3433"/><text fill="#000000" font-family="Arial" font-size="13" font-weight="bold" lengthAdjust="spacing" textLength="7" x="164.5" y="176.5884">1</text><text fill="#000000" font-family="Arial" font-size="13" lengthAdjust="spacing" textLength="268" x="175.5" y="176.5884">GET MedicationDispense mit Suchparametern</text><line style="stroke:#111827;stroke-width:1.0;" x1="494.5" x2="536.5" y1="225.2407" y2="225.2407"/><line style="stroke:#111827;stroke-width:1.0;" x1="536.5" x2="536.5" y1="225.2407" y2="238.2407"/><line style="stroke:#111827;stroke-width:1.0;" x1="495.5" x2="536.5" y1="238.2407" y2="238.2407"/><polygon fill="#111827" points="505.5,234.2407,495.5,238.2407,505.5,242.2407,501.5,238.2407" style="stroke:#111827;stroke-width:1.0;"/><text fill="#000000" font-family="Arial" font-size="13" font-weight="bold" lengthAdjust="spacing" textLength="7" x="501.5" y="213.0115">2</text><text fill="#000000" font-family="Arial" font-size="13" lengthAdjust="spacing" textLength="135" x="512.5" y="205.5371">Durchgef&#252;hrte Abgaben</text><text fill="#000000" font-family="Arial" font-size="13" lengthAdjust="spacing" textLength="50" x="512.5" y="220.4858">ermitteln</text><path d="M29,253.2407 L502,253.2407 L502,261.3394 L492,271.3394 L24,271.3394 L24,258.2407 A5,5 0 0 1 29,253.2407 " fill="#EEF2FF" style="stroke:#111827;stroke-width:1.5;"/><rect fill="none" height="210.5366" rx="5" ry="5" style="stroke:#111827;stroke-width:2.0;" width="533.5" x="24" y="253.2407"/><text fill="#000000" font-family="Arial" font-size="14" font-weight="bold" lengthAdjust="spacing" textLength="429" x="39" y="267.3726">alt: Durchgef&#252;hrte Abgaben mit Suchparametern vorhanden?</text><text fill="#000000" font-family="Arial" font-size="14" font-weight="bold" lengthAdjust="spacing" textLength="22" x="517" y="268.3726">[ja]</text><polygon fill="#111827" points="168.5,289.3867,158.5,293.3867,168.5,297.3867,164.5,293.3867" style="stroke:#111827;stroke-width:1.0;"/><line style="stroke:#111827;stroke-width:1.0;" x1="162.5" x2="483.5" y1="293.3867" y2="293.3867"/><text fill="#000000" font-family="Arial" font-size="13" font-weight="bold" lengthAdjust="spacing" textLength="7" x="174.5" y="288.6318">3</text><text fill="#000000" font-family="Arial" font-size="13" lengthAdjust="spacing" textLength="292" x="185.5" y="288.6318">Bundle (type=searchset) mit MedicationDispenses</text><path d="M34,311.3867 L34,359.3867 A5,5 0 0 0 39,364.3867 L265,364.3867 A5,5 0 0 0 270,359.3867 L270,316.3867 L260,306.3867 L39,306.3867 A5,5 0 0 0 34,311.3867 " fill="url(#g1sw23sjrt7a6n0)" style="stroke:#8B95A5;stroke-width:1.0;"/><path d="M260,306.3867 L260,313.8867 A2.5,2.5 0 0 0 262.5,316.3867 L270,316.3867 L260,306.3867 " fill="url(#g1sw23sjrt7a6n0)" style="stroke:#8B95A5;stroke-width:1.0;"/><text fill="#111827" font-family="Arial" font-size="14" lengthAdjust="spacing" textLength="211" x="40" y="324.5186">GDA erh&#228;lt alle den Suchkriterien</text><text fill="#111827" font-family="Arial" font-size="14" lengthAdjust="spacing" textLength="206" x="40" y="340.6172">entsprechenden Durchgef&#252;hrten</text><text fill="#111827" font-family="Arial" font-size="14" lengthAdjust="spacing" textLength="152" x="40" y="356.7158">Abgaben des Patienten.</text><line style="stroke:#111827;stroke-width:1.0;stroke-dasharray:2.0,2.0;" x1="24" x2="557.5" y1="370.6826" y2="370.6826"/><text fill="#000000" font-family="Arial" font-size="14" font-weight="bold" lengthAdjust="spacing" textLength="41" x="29" y="383.8145">[nein]</text><polygon fill="#111827" points="168.5,404.73,158.5,408.73,168.5,412.73,164.5,408.73" style="stroke:#111827;stroke-width:1.0;"/><line style="stroke:#111827;stroke-width:1.0;" x1="162.5" x2="483.5" y1="408.73" y2="408.73"/><text fill="#000000" font-family="Arial" font-size="13" font-weight="bold" lengthAdjust="spacing" textLength="7" x="174.5" y="403.9751">4</text><text fill="#000000" font-family="Arial" font-size="13" lengthAdjust="spacing" textLength="226" x="185.5" y="403.9751">Bundle (type=searchset) ohne Eintr&#228;ge</text><line style="stroke:#111827;stroke-width:1.0;stroke-dasharray:2.0,2.0;" x1="24" x2="557.5" y1="417.73" y2="417.73"/><text fill="#000000" font-family="Arial" font-size="14" font-weight="bold" lengthAdjust="spacing" textLength="56" x="29" y="430.8618">[Fehler]</text><polygon fill="#111827" points="168.5,451.7773,158.5,455.7773,168.5,459.7773,164.5,455.7773" style="stroke:#111827;stroke-width:1.0;"/><line style="stroke:#111827;stroke-width:1.0;stroke-dasharray:2.0,2.0;" x1="162.5" x2="488.5" y1="455.7773" y2="455.7773"/><text fill="#000000" font-family="Arial" font-size="13" font-weight="bold" lengthAdjust="spacing" textLength="7" x="174.5" y="451.0225">5</text><text fill="#000000" font-family="Arial" font-size="13" lengthAdjust="spacing" textLength="170" x="185.5" y="451.0225">HTTP 4xx OperationOutcome</text><path d="M15,477.7773 L78,477.7773 L78,485.876 L68,495.876 L10,495.876 L10,482.7773 A5,5 0 0 1 15,477.7773 " fill="#EEF2FF" style="stroke:#111827;stroke-width:1.5;"/><rect fill="none" height="181.8877" rx="5" ry="5" style="stroke:#111827;stroke-width:2.0;" width="547.5" x="10" y="477.7773"/><text fill="#000000" font-family="Arial" font-size="14" font-weight="bold" lengthAdjust="spacing" textLength="23" x="25" y="491.9092">opt</text><text fill="#000000" font-family="Arial" font-size="14" font-weight="bold" lengthAdjust="spacing" textLength="250" x="93" y="492.9092">[Zus&#228;tzliche Informationen abrufen]</text><rect fill="none" height="42.1973" rx="5" ry="5" style="stroke:#000000;stroke-width:1.5;" width="436.5" x="114" y="496.9746"/><path d="M119,496.9746 L179,496.9746 L179,504.9746 L169,514.9746 L114,514.9746 L114,501.9746 A5,5 0 0 1 119,496.9746 " fill="#EEEEEE" style="stroke:#000000;stroke-width:2.0;"/><text fill="#000000" font-family="Arial" font-size="14" font-weight="bold" lengthAdjust="spacing" textLength="20" x="127" y="512.1064">ref</text><text fill="#000000" font-family="Arial" font-size="14" lengthAdjust="spacing" textLength="67" x="298.75" y="532.1064">Plan-Read</text><rect fill="none" height="42.1973" rx="5" ry="5" style="stroke:#000000;stroke-width:1.5;" width="436.5" x="114" y="544.1719"/><path d="M119,544.1719 L179,544.1719 L179,552.1719 L169,562.1719 L114,562.1719 L114,549.1719 A5,5 0 0 1 119,544.1719 " fill="#EEEEEE" style="stroke:#000000;stroke-width:2.0;"/><text fill="#000000" font-family="Arial" font-size="14" font-weight="bold" lengthAdjust="spacing" textLength="20" x="127" y="559.3037">ref</text><text fill="#000000" font-family="Arial" font-size="14" lengthAdjust="spacing" textLength="125" x="269.75" y="579.3037">Prescription-Search</text><path d="M20,601.3691 L20,649.3691 A5,5 0 0 0 25,654.3691 L280,654.3691 A5,5 0 0 0 285,649.3691 L285,606.3691 L275,596.3691 L25,596.3691 A5,5 0 0 0 20,601.3691 " fill="url(#g1sw23sjrt7a6n0)" style="stroke:#8B95A5;stroke-width:1.0;"/><path d="M275,596.3691 L275,603.8691 A2.5,2.5 0 0 0 277.5,606.3691 L285,606.3691 L275,596.3691 " fill="url(#g1sw23sjrt7a6n0)" style="stroke:#8B95A5;stroke-width:1.0;"/><text fill="#111827" font-family="Arial" font-size="14" lengthAdjust="spacing" textLength="244" x="26" y="614.501">Optionaler Abruf des Medikationsplans</text><text fill="#111827" font-family="Arial" font-size="14" lengthAdjust="spacing" textLength="203" x="26" y="630.5996">und der Geplanten Abgaben zur</text><text fill="#111827" font-family="Arial" font-size="14" lengthAdjust="spacing" textLength="144" x="26" y="646.6982">fachlichen Beurteilung.</text><!--SRC=[bLRRZjis47tNLqpjXxH0DxNb-m9j8SVo9cWJ6xRxagOmQ6baiPOfXQ9sDoxwD_iPVTiVwv1QsReuAAfzM95pPkRCcI5bnLM4CEDfWYB5cpKowOMMzIezS94moOx0F1NBjVf2CFQ0QNn4oxfOTx7qKRw9erX2ksEUifLvXxsCC-6_88A1_YiXqf3vyGCNUmXOb6B9yk8c1KhebeFw6B0iKlDOg0_iYD1o96THwpfYpKy8tVvruzTel_sIe8ouE9G0hdiDy9lmpGisw4_ZnoNpVLsPtQdkJykQ3SnJbbJ42k4l2s1QLmyxE0WwDss_wqzmg17bIEFTPC06vzrDoBs3m3I5BksjIcfsQ5rmqr5AKdIxtR4zehrrhIz_bncc-3b3uUKibqmgxl642NMji0gWANh3N3IiOYWf2U186J_K-PhDQibcwrh6io7FrQEjEv8vgT0_HyvDZLPWO0T1rVEItjPwVKEJfYVZpUBNnMfxDtEsNQ2dtHqCEsDxtBa2i0rWCXnsHhC6OEbithaVDZh2P3Yr-ms0iro0UTgT-SIT3IPrWFlUdMtd3W5mCh9xziwl0xOhzwExt43RytkZdiqczJ8Mlq0bXpre0F8geDthZtfZlu_r7AlLOcK0xcJKxTaz6dvpnq0k4KkXHM-tduGZJ-e7-fV4AiG3obPPIYkvZ0VWU_HrOTeNRsW1SwTLBTfw1HMFxGfFcAWNbtpHgib0n38LY-ouGsbPERsRdufijt3dRe3UkSSKZqLnYSAHArXdNcWE2ogKGXV8xncTwpn8kOwpgIYYsYlBAlRBcMSPNTDx39x_2IMvEhizsw7uHAURaYkCX6NfSKqkNMEH-fhR5S9m7ykGqUKcVeRV_sH_qA2NQ1ZYjp2buq1VXMyLtOO_fkRBaQBwpeHhof9Q5CJSRV4zlZHRdv-P0oZ3vwU8UX5HECffo1ma9oQSLZgvK6aYqGjHSwhLOH15BJwcT7CeyYF3wzpNDtb9IRh9ocCga8l_LLaSqXYxN2Zv_BIl1ip7UevXHBDIYda9-dQpMKB_yH4MzF4mqYmovUdlAH3h-XXGSE5RCKtenonzVbAdY5Fry4u4iJmQRogMxMGMeD3A0aWCIj9-NyJHfcN41CquyyrA2qBW__QIc7gI9pfPySkWuT_iA521seMH4jGMOcYQeYVYO8Yd2T593P9q9YFvejxJhIpwUCea64Z0lD3KBc2A6RMRHvdOlpupUMajYKNFlm00]--></g></svg>