<?xml version="1.0" encoding="us-ascii" standalone="no"?><svg xmlns="http://www.w3.org/2000/svg" xmlns:xlink="http://www.w3.org/1999/xlink" contentStyleType="text/css" height="803px" preserveAspectRatio="none" style="width:584px;height:803px;background:#F5F5F5;" version="1.1" viewBox="0 0 584 803" width="584px" zoomAndPan="magnify"><defs><linearGradient id="g1jocq0n7gam6d0" x1="50%" x2="50%" y1="0%" y2="100%"><stop offset="0%" stop-color="#E0E5F0"/><stop offset="100%" stop-color="#D1D9E6"/></linearGradient></defs><g><rect fill="#F5F5F5" height="803" style="stroke:none;stroke-width:1.0;" width="584" x="0" y="0"/><text fill="#000000" font-family="Arial" font-size="14" font-weight="bold" lengthAdjust="spacing" textLength="235" x="170.5" y="28.1318">Durchgef&#252;hrte Abgabe schreiben</text><rect fill="#0F9ED5" fill-opacity="0.56471" height="586.0161" style="stroke:#181818;stroke-width:1.0;" width="10" x="155" y="128.1973"/><rect fill="#E97232" fill-opacity="0.74118" height="154.3906" style="stroke:#181818;stroke-width:1.0;" width="10" x="466" y="543.8228"/><rect fill="none" height="268.2822" rx="5" ry="5" style="stroke:#111827;stroke-width:2.0;" width="510" x="29" y="135.1973"/><rect fill="#0F9ED5" fill-opacity="0.14510" height="147.3906" rx="5" ry="5" style="stroke:#111827;stroke-width:2.0;" width="450" x="117" y="558.8228"/><path d="M117,659.166 L567,659.166 L567,701.2134 A5,5 0 0 1 562,706.2134 L122,706.2134 A5,5 0 0 1 117,701.2134 L117,659.166 " fill="#E97132" fill-opacity="0.20784" style="stroke:none;stroke-width:1.0;"/><line style="stroke:#181818;stroke-width:0.5;stroke-dasharray:5.0,5.0;" x1="160" x2="160" y1="118.1973" y2="723.2134"/><line style="stroke:#181818;stroke-width:0.5;stroke-dasharray:5.0,5.0;" x1="471" x2="471" y1="118.1973" y2="723.2134"/><text fill="#000000" font-family="Arial" font-size="14" lengthAdjust="spacing" textLength="60" x="127" y="115.2305">Apotheke</text><ellipse cx="160" cy="50.5986" fill="#0F9ED5" fill-opacity="0.56471" rx="8" ry="8" style="stroke:#181818;stroke-width:0.5;"/><path d="M160,58.5986 L160,85.5986 M147,66.5986 L173,66.5986 M160,85.5986 L147,100.5986 M160,85.5986 L173,100.5986 " fill="none" style="stroke:#181818;stroke-width:0.5;"/><text fill="#000000" font-family="Arial" font-size="14" lengthAdjust="spacing" textLength="60" x="127" y="735.3452">Apotheke</text><ellipse cx="160" cy="746.812" fill="#0F9ED5" fill-opacity="0.56471" rx="8" ry="8" style="stroke:#181818;stroke-width:0.5;"/><path d="M160,754.812 L160,781.812 M147,762.812 L173,762.812 M160,781.812 L147,796.812 M160,781.812 L173,796.812 " fill="none" style="stroke:#181818;stroke-width:0.5;"/><rect fill="#E97232" fill-opacity="0.74118" height="30.0986" rx="5" ry="5" style="stroke:#555555;stroke-width:0.5;" width="76" x="433" y="87.0986"/><text fill="#000000" font-family="Arial" font-size="14" lengthAdjust="spacing" textLength="62" x="440" y="107.2305">e-Med FA</text><rect fill="#E97232" fill-opacity="0.74118" height="30.0986" rx="5" ry="5" style="stroke:#555555;stroke-width:0.5;" width="76" x="433" y="722.2134"/><text fill="#000000" font-family="Arial" font-size="14" lengthAdjust="spacing" textLength="62" x="440" y="742.3452">e-Med FA</text><rect fill="#0F9ED5" fill-opacity="0.56471" height="586.0161" style="stroke:#181818;stroke-width:1.0;" width="10" x="155" y="128.1973"/><rect fill="#E97232" fill-opacity="0.74118" height="154.3906" style="stroke:#181818;stroke-width:1.0;" width="10" x="466" y="543.8228"/><path d="M34,135.1973 L91,135.1973 L91,143.2959 L81,153.2959 L29,153.2959 L29,140.1973 A5,5 0 0 1 34,135.1973 " fill="#EEF2FF" style="stroke:#111827;stroke-width:1.5;"/><rect fill="none" height="268.2822" rx="5" ry="5" style="stroke:#111827;stroke-width:2.0;" width="510" x="29" y="135.1973"/><text fill="#000000" font-family="Arial" font-size="14" font-weight="bold" lengthAdjust="spacing" textLength="17" x="44" y="149.3291">alt</text><text fill="#000000" font-family="Arial" font-size="14" font-weight="bold" lengthAdjust="spacing" textLength="227" x="106" y="150.3291">[Zugriff mit Kontakt (z.B. e-card)]</text><rect fill="none" height="42.1973" rx="5" ry="5" style="stroke:#000000;stroke-width:1.5;" width="408" x="124" y="154.3945"/><path d="M129,154.3945 L189,154.3945 L189,162.3945 L179,172.3945 L124,172.3945 L124,159.3945 A5,5 0 0 1 129,154.3945 " fill="#EEEEEE" style="stroke:#000000;stroke-width:2.0;"/><text fill="#000000" font-family="Arial" font-size="14" font-weight="bold" lengthAdjust="spacing" textLength="20" x="137" y="169.5264">ref</text><a href="Sub_UC_eMed_07_01.html#sub_uc_emed_07_01_a-zugriff-mittels-e-card" target="_top" title="Sub_UC_eMed_07_01.html#sub_uc_emed_07_01_a-zugriff-mittels-e-card" xlink:actuate="onRequest" xlink:href="Sub_UC_eMed_07_01.html#sub_uc_emed_07_01_a-zugriff-mittels-e-card" xlink:show="new" xlink:title="Sub_UC_eMed_07_01.html#sub_uc_emed_07_01_a-zugriff-mittels-e-card" xlink:type="simple"><text fill="#0000EE" font-family="Arial" font-size="14" lengthAdjust="spacing" textLength="299" x="178.5" y="189.5264">Geplante Abgaben lesen - Zugriff mittels e-card</text></a><path d="M39,211.5918 L39,259.5918 A5,5 0 0 0 44,264.5918 L276,264.5918 A5,5 0 0 0 281,259.5918 L281,216.5918 L271,206.5918 L44,206.5918 A5,5 0 0 0 39,211.5918 " fill="url(#g1jocq0n7gam6d0)" style="stroke:#8B95A5;stroke-width:1.0;"/><path d="M271,206.5918 L271,214.0918 A2.5,2.5 0 0 0 273.5,216.5918 L281,216.5918 L271,206.5918 " fill="url(#g1jocq0n7gam6d0)" style="stroke:#8B95A5;stroke-width:1.0;"/><text fill="#111827" font-family="Arial" font-size="14" lengthAdjust="spacing" textLength="156" x="45" y="224.7236">Alle offenen e-Rezepte +</text><text fill="#111827" font-family="Arial" font-size="14" lengthAdjust="spacing" textLength="217" x="45" y="240.8223">alle offenen Geplanten Abgaben +</text><text fill="#111827" font-family="Arial" font-size="14" lengthAdjust="spacing" textLength="155" x="45" y="256.9209">Medikationsplan abrufen</text><line style="stroke:#111827;stroke-width:1.0;stroke-dasharray:2.0,2.0;" x1="29" x2="539" y1="270.8877" y2="270.8877"/><text fill="#000000" font-family="Arial" font-size="14" font-weight="bold" lengthAdjust="spacing" textLength="231" x="34" y="284.0195">[Zugriff ohne Kontakt (e-Rezept)]</text><rect fill="none" height="42.1973" rx="5" ry="5" style="stroke:#000000;stroke-width:1.5;" width="408" x="124" y="287.9863"/><path d="M129,287.9863 L189,287.9863 L189,295.9863 L179,305.9863 L124,305.9863 L124,292.9863 A5,5 0 0 1 129,287.9863 " fill="#EEEEEE" style="stroke:#000000;stroke-width:2.0;"/><text fill="#000000" font-family="Arial" font-size="14" font-weight="bold" lengthAdjust="spacing" textLength="20" x="137" y="303.1182">ref</text><a href="Sub_UC_eMed_07_01.html#sub_uc_emed_07_01_b-zugriff-mittels-e-rezept" target="_top" title="Sub_UC_eMed_07_01.html#sub_uc_emed_07_01_b-zugriff-mittels-e-rezept" xlink:actuate="onRequest" xlink:href="Sub_UC_eMed_07_01.html#sub_uc_emed_07_01_b-zugriff-mittels-e-rezept" xlink:show="new" xlink:title="Sub_UC_eMed_07_01.html#sub_uc_emed_07_01_b-zugriff-mittels-e-rezept" xlink:type="simple"><text fill="#0000EE" font-family="Arial" font-size="14" lengthAdjust="spacing" textLength="315" x="170.5" y="323.1182">Geplante Abgaben lesen - Zugriff mittels e-Rezept</text></a><path d="M41,345.1836 L41,393.1836 A5,5 0 0 0 46,398.1836 L274,398.1836 A5,5 0 0 0 279,393.1836 L279,350.1836 L269,340.1836 L46,340.1836 A5,5 0 0 0 41,345.1836 " fill="url(#g1jocq0n7gam6d0)" style="stroke:#8B95A5;stroke-width:1.0;"/><path d="M269,340.1836 L269,347.6836 A2.5,2.5 0 0 0 271.5,350.1836 L279,350.1836 L269,340.1836 " fill="url(#g1jocq0n7gam6d0)" style="stroke:#8B95A5;stroke-width:1.0;"/><text fill="#111827" font-family="Arial" font-size="14" lengthAdjust="spacing" textLength="217" x="47" y="358.3154">Zugeh&#246;rige Geplante Abgaben mit</text><text fill="#111827" font-family="Arial" font-size="14" lengthAdjust="spacing" textLength="138" x="47" y="374.4141">e-Med Groupidentifier</text><text fill="#111827" font-family="Arial" font-size="14" lengthAdjust="spacing" textLength="49" x="47" y="390.5127">abrufen</text><rect fill="#EEEEEE" height="3" rx="5" ry="5" style="stroke:#EEEEEE;stroke-width:1.0;" width="577" x="0" y="431.5288"/><line style="stroke:#000000;stroke-width:1.0;" x1="0" x2="577" y1="431.5288" y2="431.5288"/><line style="stroke:#000000;stroke-width:1.0;" x1="0" x2="577" y1="434.5288" y2="434.5288"/><rect fill="#EEEEEE" height="24.0986" rx="5" ry="5" style="stroke:#000000;stroke-width:2.0;" width="385" x="96" y="420.4795"/><text fill="#000000" font-family="Arial" font-size="14" font-weight="bold" lengthAdjust="spacing" textLength="363" x="102" y="437.6113">Durchgef&#252;hrte Abgaben vorbereiten und schreiben</text><path d="M5,464.5781 L5,512.5781 A5,5 0 0 0 10,517.5781 L311,517.5781 A5,5 0 0 0 316,512.5781 L316,469.5781 L306,459.5781 L10,459.5781 A5,5 0 0 0 5,464.5781 " fill="url(#g1jocq0n7gam6d0)" style="stroke:#8B95A5;stroke-width:1.0;"/><path d="M306,459.5781 L306,467.0781 A2.5,2.5 0 0 0 308.5,469.5781 L316,469.5781 L306,459.5781 " fill="url(#g1jocq0n7gam6d0)" style="stroke:#8B95A5;stroke-width:1.0;"/><text fill="#111827" font-family="Arial" font-size="14" lengthAdjust="spacing" textLength="210" x="11" y="477.71">Durchgef&#252;hrte Abgaben erstellen</text><text fill="#111827" font-family="Arial" font-size="14" lengthAdjust="spacing" textLength="286" x="11" y="493.8086">(referenzieren zugeh&#246;rige Geplante Abgaben</text><text fill="#111827" font-family="Arial" font-size="14" lengthAdjust="spacing" textLength="187" x="11" y="509.9072">und Medikationsplaneintr&#228;ge)</text><polygon fill="#111827" points="454,539.8228,464,543.8228,454,547.8228,458,543.8228" style="stroke:#111827;stroke-width:1.0;"/><line style="stroke:#111827;stroke-width:1.0;" x1="165" x2="460" y1="543.8228" y2="543.8228"/><text fill="#000000" font-family="Arial" font-size="13" font-weight="bold" lengthAdjust="spacing" textLength="7" x="172" y="539.0679">1</text><text fill="#000000" font-family="Arial" font-size="13" lengthAdjust="spacing" textLength="271" x="183" y="539.0679">POST Transaction Bundle MedicationDispense</text><path d="M122,558.8228 L179,558.8228 L179,566.9214 L169,576.9214 L117,576.9214 L117,563.8228 A5,5 0 0 1 122,558.8228 " fill="#EEF2FF" style="stroke:#111827;stroke-width:1.5;"/><rect fill="none" height="147.3906" rx="5" ry="5" style="stroke:#111827;stroke-width:2.0;" width="450" x="117" y="558.8228"/><text fill="#000000" font-family="Arial" font-size="14" font-weight="bold" lengthAdjust="spacing" textLength="17" x="132" y="572.9546">alt</text><text fill="#000000" font-family="Arial" font-size="14" font-weight="bold" lengthAdjust="spacing" textLength="233" x="194" y="573.9546">[Durchgef&#252;hrte Abgaben erstellt]</text><path d="M384,588.02 L384,620.02 A5,5 0 0 0 389,625.02 L552,625.02 A5,5 0 0 0 557,620.02 L557,593.02 L547,583.02 L389,583.02 A5,5 0 0 0 384,588.02 " fill="url(#g1jocq0n7gam6d0)" style="stroke:#8B95A5;stroke-width:1.0;"/><path d="M547,583.02 L547,590.52 A2.5,2.5 0 0 0 549.5,593.02 L557,593.02 L547,583.02 " fill="url(#g1jocq0n7gam6d0)" style="stroke:#8B95A5;stroke-width:1.0;"/><text fill="#111827" font-family="Arial" font-size="14" font-style="italic" lengthAdjust="spacing" textLength="152" x="390" y="601.1519">Durchgef&#252;hrte Abgaben</text><text fill="#111827" font-family="Arial" font-size="14" lengthAdjust="spacing" textLength="74" x="390" y="617.2505">gespeichert</text><polygon fill="#111827" points="176,647.166,166,651.166,176,655.166,172,651.166" style="stroke:#111827;stroke-width:1.0;"/><line style="stroke:#111827;stroke-width:1.0;stroke-dasharray:2.0,2.0;" x1="170" x2="465" y1="651.166" y2="651.166"/><text fill="#000000" font-family="Arial" font-size="13" font-weight="bold" lengthAdjust="spacing" textLength="7" x="182" y="646.4111">2</text><text fill="#000000" font-family="Arial" font-size="13" lengthAdjust="spacing" textLength="19" x="193" y="646.4111">OK</text><line style="stroke:#111827;stroke-width:1.0;stroke-dasharray:2.0,2.0;" x1="117" x2="567" y1="660.166" y2="660.166"/><text fill="#000000" font-family="Arial" font-size="14" font-weight="bold" lengthAdjust="spacing" textLength="56" x="122" y="673.2979">[Fehler]</text><polygon fill="#111827" points="176,694.2134,166,698.2134,176,702.2134,172,698.2134" style="stroke:#111827;stroke-width:1.0;"/><line style="stroke:#111827;stroke-width:1.0;stroke-dasharray:2.0,2.0;" x1="170" x2="470" y1="698.2134" y2="698.2134"/><text fill="#000000" font-family="Arial" font-size="13" font-weight="bold" lengthAdjust="spacing" textLength="7" x="182" y="693.4585">3</text><text fill="#000000" font-family="Arial" font-size="13" lengthAdjust="spacing" textLength="36" x="193" y="693.4585">Fehler</text><!--SRC=[hLLVZzf647_tfvZ2GnAbN6qJu3ZbJe83hbMQW3ZoaYX2QtkCLvXTkbxk6g9yctw6FlNjlbXdRMnimqMgr4L2zlpzpMzcnvhh666qKtwqml3fdqXfX86tOXv2uaSAkOV2ibuaQowsJB4DC5zBTQ-_aXjxn4HkqBAEMa-g0DMjZAM2ffsUifRvwvMIEn4SBCAE-PKiaeW5yf6B5OGiJh2aERWfWGgSSj00GxQBzKGA_O5j41e3nLdSE6znp_S8pflpokTW__frYohcObqo68_XdCL74QGFU89_AF-SiI0mfRbsLJuiazP9JvbJ8Qadtoo0OPq-jB4Jsgrcu0Hzx1gBSgHBhzzXdKAwYBY_5fWau91iNgBJflSScubIui9nd4ktHxBxMcE-bn4c-CSEXP-Xd36bkS-tJEXpXLKCJba_KUSTgoXAJ08Cb9AFTRofi5foAZgNiL1akTeakYEQjnNuHUHCTT8A3Dqmh7eUqxk6hvzerCnat4v_dywNTwF1qW4wJQVJjI_TI_kCWPiQzBjTkpSwCPWD5h-DFonCX7vtwBuvCHZCff2UfZtfZqUTVjrW_7uyMau6P83zdjjslQ1ki9oFFurd2sZwGRlNTbc_NiRq7LHok9rwYFbyEayDnlsUqtRRDDlf3W5Ju60hWILqPxTIHxZ6nX6wjJts6_0z1WQfiSKMlS1aqAXMORs0YiToZdlSweDBzjAerKLGTbgAtSP3bSBY3umkMuxiI2CfOmsVTYl5mn0sNCCxcXUsrl1oVp6y06pvJ0MlgFyAGv0FM9JtSu7z2Zv_ljzvou-torHazvQsSn7fJTnCIBppbxZ9nKlMscV9MfHCOvoqiXHmXzkOwiktj80O4_flbS4P-mEaBry8Kxf1og3CqCUqmMKOeY3ld1-4rwHYPLMUJnG9NmFPK05ypJIN8Z5wO9xQaGDfK0HfGej0O85AHZGH1MTvll-HCEyCOIgRWFz0MGRhMTB80QEdlnLVuMbKYcBAJwSptG8yGA5vo2c4OVKCGoAWLykwlZx_2HRm81MD9dB3FosRupSPuFhQiaunFXC7LK8LniRFUacCKqonv-OVzZ-goJ99Qxr6BhHw-ck5hwoY4Yk_CgsRl7rNC9lUBs2Xc4ZCpP82XXIDHil4yzDu8vviKT3dfBXwUU-hLpkzVSN2-N6Dsgeqxn2GP6_vpNdFjx_m6zAlaC1mFqAboqqopmTGBQhkKEWL410hc_7oefjW5DCkUSOdqvff2B1UifMEmxy0]--></g></svg>