<?xml version="1.0" encoding="us-ascii" standalone="no"?><svg xmlns="http://www.w3.org/2000/svg" xmlns:xlink="http://www.w3.org/1999/xlink" contentStyleType="text/css" height="949px" preserveAspectRatio="none" style="width:792px;height:949px;background:#F5F5F5;" version="1.1" viewBox="0 0 792 949" width="792px" zoomAndPan="magnify"><defs><linearGradient id="g1buqmzn2nnbhs0" x1="50%" x2="50%" y1="0%" y2="100%"><stop offset="0%" stop-color="#E0E5F0"/><stop offset="100%" stop-color="#D1D9E6"/></linearGradient></defs><g><rect fill="#F5F5F5" height="949" style="stroke:none;stroke-width:1.0;" width="792" x="0" y="0"/><text fill="#000000" font-family="Arial" font-size="14" font-weight="bold" lengthAdjust="spacing" textLength="72" x="361" y="28.1318">Plan-Write</text><rect fill="#156082" fill-opacity="0.50196" height="679.5605" style="stroke:#181818;stroke-width:1.0;" width="10" x="165" y="128.1973"/><rect fill="#E97232" fill-opacity="0.74118" height="590.3159" style="stroke:#181818;stroke-width:1.0;" width="10" x="573" y="217.4419"/><rect fill="#0F9ED5" fill-opacity="0.14510" height="478.1226" rx="5" ry="5" style="stroke:#111827;stroke-width:2.0;" width="659" x="126" y="373.7339"/><rect fill="#0F9ED5" fill-opacity="0.14510" height="274.9844" rx="5" ry="5" style="stroke:#111827;stroke-width:2.0;" width="639" x="136" y="471.7773"/><path d="M136,684.7656 L775,684.7656 L775,741.7617 A5,5 0 0 1 770,746.7617 L141,746.7617 A5,5 0 0 1 136,741.7617 L136,684.7656 " fill="#E97132" fill-opacity="0.20784" style="stroke:none;stroke-width:1.0;"/><path d="M126,753.7617 L785,753.7617 L785,846.8564 A5,5 0 0 1 780,851.8564 L131,851.8564 A5,5 0 0 1 126,846.8564 L126,753.7617 " fill="#E97132" fill-opacity="0.20784" style="stroke:none;stroke-width:1.0;"/><line style="stroke:#181818;stroke-width:0.5;stroke-dasharray:5.0,5.0;" x1="170" x2="170" y1="118.1973" y2="868.8564"/><line style="stroke:#181818;stroke-width:0.5;stroke-dasharray:5.0,5.0;" x1="578" x2="578" y1="118.1973" y2="868.8564"/><text fill="#000000" font-family="Arial" font-size="14" lengthAdjust="spacing" textLength="42" x="146" y="115.2305">GDA 1</text><ellipse cx="170" cy="50.5986" fill="#156082" fill-opacity="0.50196" rx="8" ry="8" style="stroke:#181818;stroke-width:0.5;"/><path d="M170,58.5986 L170,85.5986 M157,66.5986 L183,66.5986 M170,85.5986 L157,100.5986 M170,85.5986 L183,100.5986 " fill="none" style="stroke:#181818;stroke-width:0.5;"/><text fill="#000000" font-family="Arial" font-size="14" lengthAdjust="spacing" textLength="42" x="146" y="880.9883">GDA 1</text><ellipse cx="170" cy="892.4551" fill="#156082" fill-opacity="0.50196" rx="8" ry="8" style="stroke:#181818;stroke-width:0.5;"/><path d="M170,900.4551 L170,927.4551 M157,908.4551 L183,908.4551 M170,927.4551 L157,942.4551 M170,927.4551 L183,942.4551 " fill="none" style="stroke:#181818;stroke-width:0.5;"/><rect fill="#E97232" fill-opacity="0.74118" height="30.0986" rx="5" ry="5" style="stroke:#555555;stroke-width:0.5;" width="76" x="540" y="87.0986"/><text fill="#000000" font-family="Arial" font-size="14" lengthAdjust="spacing" textLength="62" x="547" y="107.2305">e-Med FA</text><rect fill="#E97232" fill-opacity="0.74118" height="30.0986" rx="5" ry="5" style="stroke:#555555;stroke-width:0.5;" width="76" x="540" y="867.8564"/><text fill="#000000" font-family="Arial" font-size="14" lengthAdjust="spacing" textLength="62" x="547" y="887.9883">e-Med FA</text><rect fill="#156082" fill-opacity="0.50196" height="679.5605" style="stroke:#181818;stroke-width:1.0;" width="10" x="165" y="128.1973"/><rect fill="#E97232" fill-opacity="0.74118" height="590.3159" style="stroke:#181818;stroke-width:1.0;" width="10" x="573" y="217.4419"/><path d="M5,138.1973 L5,186.1973 A5,5 0 0 0 10,191.1973 L330,191.1973 A5,5 0 0 0 335,186.1973 L335,143.1973 L325,133.1973 L10,133.1973 A5,5 0 0 0 5,138.1973 " fill="url(#g1buqmzn2nnbhs0)" style="stroke:#8B95A5;stroke-width:1.0;"/><path d="M325,133.1973 L325,140.6973 A2.5,2.5 0 0 0 327.5,143.1973 L335,143.1973 L325,133.1973 " fill="url(#g1buqmzn2nnbhs0)" style="stroke:#8B95A5;stroke-width:1.0;"/><text fill="#111827" font-family="Arial" font-size="14" lengthAdjust="spacing" textLength="93" x="11" y="151.3291">Vorbedingung:</text><text fill="#111827" font-family="Arial" font-size="14" lengthAdjust="spacing" textLength="309" x="11" y="167.4277">Auslieferungs-Medikationsplan-Collection-Bundle</text><text fill="#111827" font-family="Arial" font-size="14" lengthAdjust="spacing" textLength="267" x="11" y="183.5264">mittels $plan-read gelesen und bearbeitet.</text><polygon fill="#111827" points="561,213.4419,571,217.4419,561,221.4419,565,217.4419" style="stroke:#111827;stroke-width:1.0;"/><line style="stroke:#111827;stroke-width:1.0;" x1="175" x2="567" y1="217.4419" y2="217.4419"/><text fill="#000000" font-family="Arial" font-size="13" font-weight="bold" lengthAdjust="spacing" textLength="7" x="182" y="212.687">1</text><text fill="#000000" font-family="Arial" font-size="13" lengthAdjust="spacing" textLength="368" x="193" y="212.687">POST $plan-write (Medikationsplan-Transaction-Bundle + ETag)</text><path d="M43,235.4419 L43,299.4419 A5,5 0 0 0 48,304.4419 L292,304.4419 A5,5 0 0 0 297,299.4419 L297,240.4419 L287,230.4419 L48,230.4419 A5,5 0 0 0 43,235.4419 " fill="url(#g1buqmzn2nnbhs0)" style="stroke:#8B95A5;stroke-width:1.0;"/><path d="M287,230.4419 L287,237.9419 A2.5,2.5 0 0 0 289.5,240.4419 L297,240.4419 L287,230.4419 " fill="url(#g1buqmzn2nnbhs0)" style="stroke:#8B95A5;stroke-width:1.0;"/><text fill="#111827" font-family="Arial" font-size="14" lengthAdjust="spacing" textLength="233" x="49" y="248.5737">Neue, ge&#228;nderte und zu entfernende</text><text fill="#111827" font-family="Arial" font-size="14" lengthAdjust="spacing" textLength="210" x="49" y="264.6724">Ressourcen sind inline enthalten.</text><text fill="#111827" font-family="Arial" font-size="14" lengthAdjust="spacing" textLength="216" x="49" y="280.771">Unver&#228;nderte Ressourcen werden</text><text fill="#111827" font-family="Arial" font-size="14" lengthAdjust="spacing" textLength="169" x="49" y="296.8696">ausschlie&#223;lich referenziert.</text><line style="stroke:#111827;stroke-width:1.0;" x1="583" x2="625" y1="345.7339" y2="345.7339"/><line style="stroke:#111827;stroke-width:1.0;" x1="625" x2="625" y1="345.7339" y2="358.7339"/><line style="stroke:#111827;stroke-width:1.0;" x1="584" x2="625" y1="358.7339" y2="358.7339"/><polygon fill="#111827" points="594,354.7339,584,358.7339,594,362.7339,590,358.7339" style="stroke:#111827;stroke-width:1.0;"/><text fill="#000000" font-family="Arial" font-size="13" font-weight="bold" lengthAdjust="spacing" textLength="7" x="590" y="333.5046">2</text><text fill="#000000" font-family="Arial" font-size="13" lengthAdjust="spacing" textLength="103" x="601" y="326.0303">Pr&#252;fung des ETag</text><text fill="#000000" font-family="Arial" font-size="13" lengthAdjust="spacing" textLength="116" x="601" y="340.979">(Optimistic Locking)</text><path d="M131,373.7339 L287,373.7339 L287,381.8325 L277,391.8325 L126,391.8325 L126,378.7339 A5,5 0 0 1 131,373.7339 " fill="#EEF2FF" style="stroke:#111827;stroke-width:1.5;"/><rect fill="none" height="478.1226" rx="5" ry="5" style="stroke:#111827;stroke-width:2.0;" width="659" x="126" y="373.7339"/><text fill="#000000" font-family="Arial" font-size="14" font-weight="bold" lengthAdjust="spacing" textLength="112" x="141" y="387.8657">alt: ETag g&#252;ltig?</text><text fill="#000000" font-family="Arial" font-size="14" font-weight="bold" lengthAdjust="spacing" textLength="22" x="302" y="388.8657">[ja]</text><line style="stroke:#111827;stroke-width:1.0;" x1="583" x2="625" y1="443.7773" y2="443.7773"/><line style="stroke:#111827;stroke-width:1.0;" x1="625" x2="625" y1="443.7773" y2="456.7773"/><line style="stroke:#111827;stroke-width:1.0;" x1="584" x2="625" y1="456.7773" y2="456.7773"/><polygon fill="#111827" points="594,452.7773,584,456.7773,594,460.7773,590,456.7773" style="stroke:#111827;stroke-width:1.0;"/><text fill="#000000" font-family="Arial" font-size="13" font-weight="bold" lengthAdjust="spacing" textLength="7" x="590" y="424.0737">3</text><text fill="#000000" font-family="Arial" font-size="13" lengthAdjust="spacing" textLength="89" x="601" y="409.125">Validierung des</text><text fill="#000000" font-family="Arial" font-size="13" lengthAdjust="spacing" textLength="118" x="601" y="424.0737">Transaction Bundles</text><text fill="#000000" font-family="Arial" font-size="13" lengthAdjust="spacing" textLength="141" x="601" y="439.0225">inkl. Zustands&#252;berg&#228;nge</text><path d="M141,471.7773 L381,471.7773 L381,479.876 L371,489.876 L136,489.876 L136,476.7773 A5,5 0 0 1 141,471.7773 " fill="#EEF2FF" style="stroke:#111827;stroke-width:1.5;"/><rect fill="none" height="274.9844" rx="5" ry="5" style="stroke:#111827;stroke-width:2.0;" width="639" x="136" y="471.7773"/><text fill="#000000" font-family="Arial" font-size="14" font-weight="bold" lengthAdjust="spacing" textLength="196" x="151" y="485.9092">alt: Validierung erfolgreich?</text><text fill="#000000" font-family="Arial" font-size="14" font-weight="bold" lengthAdjust="spacing" textLength="22" x="396" y="486.9092">[ja]</text><line style="stroke:#111827;stroke-width:1.0;" x1="583" x2="625" y1="526.8721" y2="526.8721"/><line style="stroke:#111827;stroke-width:1.0;" x1="625" x2="625" y1="526.8721" y2="539.8721"/><line style="stroke:#111827;stroke-width:1.0;" x1="584" x2="625" y1="539.8721" y2="539.8721"/><polygon fill="#111827" points="594,535.8721,584,539.8721,594,543.8721,590,539.8721" style="stroke:#111827;stroke-width:1.0;"/><text fill="#000000" font-family="Arial" font-size="13" font-weight="bold" lengthAdjust="spacing" textLength="7" x="590" y="514.6428">4</text><text fill="#000000" font-family="Arial" font-size="13" lengthAdjust="spacing" textLength="136" x="601" y="507.1685">&#220;bernimmt &#196;nderungen</text><text fill="#000000" font-family="Arial" font-size="13" lengthAdjust="spacing" textLength="136" x="601" y="522.1172">auf Ressourcenbestand</text><line style="stroke:#111827;stroke-width:1.0;" x1="583" x2="625" y1="598.7183" y2="598.7183"/><line style="stroke:#111827;stroke-width:1.0;" x1="625" x2="625" y1="598.7183" y2="611.7183"/><line style="stroke:#111827;stroke-width:1.0;" x1="584" x2="625" y1="611.7183" y2="611.7183"/><polygon fill="#111827" points="594,607.7183,584,611.7183,594,615.7183,590,611.7183" style="stroke:#111827;stroke-width:1.0;"/><text fill="#000000" font-family="Arial" font-size="13" font-weight="bold" lengthAdjust="spacing" textLength="7" x="590" y="579.0146">5</text><text fill="#000000" font-family="Arial" font-size="13" lengthAdjust="spacing" textLength="162" x="601" y="564.0659">Erzeugt und persisistiert ein</text><text fill="#000000" font-family="Arial" font-size="13" lengthAdjust="spacing" textLength="137" x="601" y="579.0146">neues Medikationsplan-</text><text fill="#000000" font-family="Arial" font-size="13" lengthAdjust="spacing" textLength="101" x="601" y="593.9634">Collection Bundle</text><path d="M456,629.7183 L456,645.7183 A5,5 0 0 0 461,650.7183 L694,650.7183 A5,5 0 0 0 699,645.7183 L699,634.7183 L689,624.7183 L461,624.7183 A5,5 0 0 0 456,629.7183 " fill="url(#g1buqmzn2nnbhs0)" style="stroke:#8B95A5;stroke-width:1.0;"/><path d="M689,624.7183 L689,632.2183 A2.5,2.5 0 0 0 691.5,634.7183 L699,634.7183 L689,624.7183 " fill="url(#g1buqmzn2nnbhs0)" style="stroke:#8B95A5;stroke-width:1.0;"/><text fill="#111827" font-family="Arial" font-size="14" lengthAdjust="spacing" textLength="222" x="462" y="642.8501">Neuer Medikationsplan gespeichert</text><polygon fill="#111827" points="186,672.7656,176,676.7656,186,680.7656,182,676.7656" style="stroke:#111827;stroke-width:1.0;"/><line style="stroke:#111827;stroke-width:1.0;stroke-dasharray:2.0,2.0;" x1="180" x2="572" y1="676.7656" y2="676.7656"/><text fill="#000000" font-family="Arial" font-size="13" font-weight="bold" lengthAdjust="spacing" textLength="7" x="192" y="672.0107">6</text><text fill="#000000" font-family="Arial" font-size="13" lengthAdjust="spacing" textLength="80" x="203" y="672.0107">HTTP 200 OK</text><line style="stroke:#111827;stroke-width:1.0;stroke-dasharray:2.0,2.0;" x1="136" x2="775" y1="685.7656" y2="685.7656"/><text fill="#000000" font-family="Arial" font-size="14" font-weight="bold" lengthAdjust="spacing" textLength="41" x="141" y="698.8975">[nein]</text><polygon fill="#111827" points="186,734.7617,176,738.7617,186,742.7617,182,738.7617" style="stroke:#111827;stroke-width:1.0;"/><line style="stroke:#111827;stroke-width:1.0;stroke-dasharray:2.0,2.0;" x1="180" x2="572" y1="738.7617" y2="738.7617"/><text fill="#000000" font-family="Arial" font-size="13" font-weight="bold" lengthAdjust="spacing" textLength="7" x="192" y="726.5325">7</text><text fill="#000000" font-family="Arial" font-size="13" lengthAdjust="spacing" textLength="105" x="203" y="719.0581">Fehler (HTTP 4xx)</text><text fill="#000000" font-family="Arial" font-size="13" lengthAdjust="spacing" textLength="109" x="203" y="734.0068">OperationOutcome</text><line style="stroke:#111827;stroke-width:1.0;stroke-dasharray:2.0,2.0;" x1="126" x2="785" y1="754.7617" y2="754.7617"/><text fill="#000000" font-family="Arial" font-size="14" font-weight="bold" lengthAdjust="spacing" textLength="41" x="131" y="767.8936">[nein]</text><polygon fill="#111827" points="181,803.7578,171,807.7578,181,811.7578,177,807.7578" style="stroke:#111827;stroke-width:1.0;"/><line style="stroke:#111827;stroke-width:1.0;" x1="175" x2="577" y1="807.7578" y2="807.7578"/><text fill="#000000" font-family="Arial" font-size="13" font-weight="bold" lengthAdjust="spacing" textLength="7" x="187" y="795.5286">8</text><text fill="#000000" font-family="Arial" font-size="13" lengthAdjust="spacing" textLength="220" x="198" y="788.0542">Fehler (HTTP 412 Precondition Failed)</text><text fill="#000000" font-family="Arial" font-size="13" lengthAdjust="spacing" textLength="109" x="198" y="803.0029">OperationOutcome</text><path d="M483,825.7578 L483,841.7578 A5,5 0 0 0 488,846.7578 L667,846.7578 A5,5 0 0 0 672,841.7578 L672,830.7578 L662,820.7578 L488,820.7578 A5,5 0 0 0 483,825.7578 " fill="url(#g1buqmzn2nnbhs0)" style="stroke:#8B95A5;stroke-width:1.0;"/><path d="M662,820.7578 L662,828.2578 A2.5,2.5 0 0 0 664.5,830.7578 L672,830.7578 L662,820.7578 " fill="url(#g1buqmzn2nnbhs0)" style="stroke:#8B95A5;stroke-width:1.0;"/><text fill="#111827" font-family="Arial" font-size="14" lengthAdjust="spacing" textLength="168" x="489" y="838.8896">ETag stimmt nicht &#252;berein.</text><!--SRC=[TLPDRzj64BtpLqoj0dNGoY0fIxPyQ277L58aiGHPIO7KXR4YHzJMr5BTNSQEYzxwCmhqqf_Xc_vOPvVwM58qxGEvy_JcpPlXI9hh366SCT7-HNADdlUTkkTYnIHR0ejrBc_qLqAm1rJvaiBxw2oN2ShNUPPBQFdsSgCilazbNeXaWvXtpP-3K0kMv0zSf31dcK8dilcO52WXS4aJdBCYqyDSw6ksH3WQICwoesR43Nz224wRWo_9VljrXJBZuju1H54JuAD8x0qUoB_C7ySiIKnbeLyzltGzwzhBjLJa6k5F3-2oxXxws9txxLOI97ti6OJBT3xhTrbtTpfTyFXUe58GqDd4STEdvwqsm-9O4GJ1UNX6PpUrllpbAbJuHu4YBbMEcTGyvYicT5DXLS31FDYh2Zhip45uszLAmB4RO21b_b0loXvMVR57JHbtWJ9NXuxUaF9LfSOTSnaww1VEGrkTyybz-j2O-WsDencVrwFteydTcwl1NG1qjO9kppyFp_q6G6W1_LxFFxiw08m7qv-ZwwbXwFSkmzC3m60y0dkr_64_kkhswu3eGtHrDnmG0FjdOIUS9NN0tIJw78sdq8gJpbadPFrw6QDtKCaHTkiKaybeOW5H_opeX1rw0UoUWT81fk28xY0uSetnLljc0tx0nCWqK6pJ0mm7HzKIF28jT2wAvGobJS2_C7gtoXmkiMVVkVmBRWHudt8vGpDDXKWll46XCevpbFIaJ2v-ppJFXLgPbKdDpZ0sp-rBwds6tf9hZPc2RsrS8aiWnGmL2Y00p90HE-rPVU8XFPlafBMKrVvnMze5Z4Stqmt9WzdBS5pFFPLCAEOcX-yXchBqbLFlrgggEVMIhx707qZd-Z-pqoXcf3uLW49JvOA4eZUXkSqB6LCXYbEO2xlx2B9WcKPnudqKnBYZSF0FIDClg25AnGjoS_rlnkC5I6ChYYTEUDUDhUQA7NBzFASMq0fNjiXRSJnQQRxaYiO2tkSnRIXJkNa9L_jP96aN5W_f-ZdJFFq9VlsT_URHYzcKvXFBUC9jiqscM-6O3AN9T4ZBFpk1puNIJ2Hg_KmZbbBTAH8h_JT9S8bHplCibKWURDHiNXcmDqswrlzG3i6NImthlut1n8FYLh1YxXWzGwleHPP8Fc6HQjjT-X9JN1dto7r0JcI2fa11VSnknNx8DnPuDiD-Y3O9xAaP9LadeT5IArClvIhLxPfTqKfYxK1UmDlfT4pRt8VHEzih-Xwgx0z1Yg6qk-dZGrna9EFOqfm-Fhww5IEgs2eQ5JgslsHA7JHlpUJL4Maa3a8QJ8npaN1hpv3n39ENahtWc9rEweDfhY2FgCLceaZ3oO5N2LOtMVLeosgg-Xy0]--></g></svg>