<?xml version="1.0" encoding="us-ascii" standalone="no"?><svg xmlns="http://www.w3.org/2000/svg" xmlns:xlink="http://www.w3.org/1999/xlink" contentStyleType="text/css" height="599px" preserveAspectRatio="none" style="width:583px;height:599px;background:#F5F5F5;" version="1.1" viewBox="0 0 583 599" width="583px" zoomAndPan="magnify"><defs><linearGradient id="gchzp4hi3dxi40" x1="50%" x2="50%" y1="0%" y2="100%"><stop offset="0%" stop-color="#E0E5F0"/><stop offset="100%" stop-color="#D1D9E6"/></linearGradient></defs><g><rect fill="#F5F5F5" height="599" style="stroke:none;stroke-width:1.0;" width="583" x="0" y="0"/><text fill="#000000" font-family="Arial" font-size="14" font-weight="bold" lengthAdjust="spacing" textLength="173" x="201" y="28.1318">Geplante Abgaben lesen</text><text fill="#000000" font-family="Arial" font-size="14" font-weight="bold" lengthAdjust="spacing" textLength="244" x="165.5" y="44.2305">Variante B: Zugriff mittels e-Rezept</text><rect fill="#0F9ED5" fill-opacity="0.56471" height="170.4893" style="stroke:#181818;stroke-width:1.0;" width="10" x="134" y="239.2407"/><rect fill="#E97232" fill-opacity="0.74118" height="170.4893" style="stroke:#181818;stroke-width:1.0;" width="10" x="416" y="239.2407"/><rect fill="#0F9ED5" fill-opacity="0.14510" height="163.4893" rx="5" ry="5" style="stroke:#111827;stroke-width:2.0;" width="470" x="96" y="254.2407"/><path d="M96,370.6826 L566,370.6826 L566,412.73 A5,5 0 0 1 561,417.73 L101,417.73 A5,5 0 0 1 96,412.73 L96,370.6826 " fill="#E97132" fill-opacity="0.20784" style="stroke:none;stroke-width:1.0;"/><line style="stroke:#181818;stroke-width:0.5;stroke-dasharray:5.0,5.0;" x1="139" x2="139" y1="134.2959" y2="519.1245"/><line style="stroke:#181818;stroke-width:0.5;stroke-dasharray:5.0,5.0;" x1="421" x2="421" y1="134.2959" y2="519.1245"/><text fill="#000000" font-family="Arial" font-size="14" lengthAdjust="spacing" textLength="60" x="106" y="131.3291">Apotheke</text><ellipse cx="139" cy="66.6973" fill="#0F9ED5" fill-opacity="0.56471" rx="8" ry="8" style="stroke:#181818;stroke-width:0.5;"/><path d="M139,74.6973 L139,101.6973 M126,82.6973 L152,82.6973 M139,101.6973 L126,116.6973 M139,101.6973 L152,116.6973 " fill="none" style="stroke:#181818;stroke-width:0.5;"/><text fill="#000000" font-family="Arial" font-size="14" lengthAdjust="spacing" textLength="60" x="106" y="531.2563">Apotheke</text><ellipse cx="139" cy="542.7231" fill="#0F9ED5" fill-opacity="0.56471" rx="8" ry="8" style="stroke:#181818;stroke-width:0.5;"/><path d="M139,550.7231 L139,577.7231 M126,558.7231 L152,558.7231 M139,577.7231 L126,592.7231 M139,577.7231 L152,592.7231 " fill="none" style="stroke:#181818;stroke-width:0.5;"/><rect fill="#E97232" fill-opacity="0.74118" height="30.0986" rx="5" ry="5" style="stroke:#555555;stroke-width:0.5;" width="76" x="383" y="103.1973"/><text fill="#000000" font-family="Arial" font-size="14" lengthAdjust="spacing" textLength="62" x="390" y="123.3291">e-Med FA</text><rect fill="#E97232" fill-opacity="0.74118" height="30.0986" rx="5" ry="5" style="stroke:#555555;stroke-width:0.5;" width="76" x="383" y="518.1245"/><text fill="#000000" font-family="Arial" font-size="14" lengthAdjust="spacing" textLength="62" x="390" y="538.2563">e-Med FA</text><rect fill="#0F9ED5" fill-opacity="0.56471" height="170.4893" style="stroke:#181818;stroke-width:1.0;" width="10" x="134" y="239.2407"/><rect fill="#E97232" fill-opacity="0.74118" height="170.4893" style="stroke:#181818;stroke-width:1.0;" width="10" x="416" y="239.2407"/><rect fill="#EEEEEE" height="3" rx="5" ry="5" style="stroke:#EEEEEE;stroke-width:1.0;" width="576" x="0" y="165.3452"/><line style="stroke:#000000;stroke-width:1.0;" x1="0" x2="576" y1="165.3452" y2="165.3452"/><line style="stroke:#000000;stroke-width:1.0;" x1="0" x2="576" y1="168.3452" y2="168.3452"/><rect fill="#EEEEEE" height="24.0986" rx="5" ry="5" style="stroke:#000000;stroke-width:2.0;" width="211" x="182.5" y="154.2959"/><text fill="#000000" font-family="Arial" font-size="14" font-weight="bold" lengthAdjust="spacing" textLength="189" x="188.5" y="171.4277">Geplante Abgaben abrufen</text><polygon fill="#111827" points="404,235.2407,414,239.2407,404,243.2407,408,239.2407" style="stroke:#111827;stroke-width:1.0;"/><line style="stroke:#111827;stroke-width:1.0;" x1="144" x2="410" y1="239.2407" y2="239.2407"/><text fill="#000000" font-family="Arial" font-size="13" font-weight="bold" lengthAdjust="spacing" textLength="7" x="151" y="219.5371">1</text><text fill="#000000" font-family="Arial" font-size="13" lengthAdjust="spacing" textLength="247" x="162" y="204.5884">GET MedicationRequest mit Suchkriterien:</text><text fill="#000000" font-family="Arial" font-size="13" lengthAdjust="spacing" textLength="215" x="162" y="219.5371">- category = "Geplante Abgabe" UND</text><text fill="#000000" font-family="Arial" font-size="13" lengthAdjust="spacing" textLength="196" x="162" y="234.4858">- e-Med Groupidentifier (QR-Code)</text><path d="M101,254.2407 L158,254.2407 L158,262.3394 L148,272.3394 L96,272.3394 L96,259.2407 A5,5 0 0 1 101,254.2407 " fill="#EEF2FF" style="stroke:#111827;stroke-width:1.5;"/><rect fill="none" height="163.4893" rx="5" ry="5" style="stroke:#111827;stroke-width:2.0;" width="470" x="96" y="254.2407"/><text fill="#000000" font-family="Arial" font-size="14" font-weight="bold" lengthAdjust="spacing" textLength="17" x="111" y="268.3726">alt</text><text fill="#000000" font-family="Arial" font-size="14" font-weight="bold" lengthAdjust="spacing" textLength="211" x="173" y="269.3726">[e-Med GroupIdentifier g&#252;ltig]</text><path d="M285,283.438 L285,331.438 A5,5 0 0 0 290,336.438 L551,336.438 A5,5 0 0 0 556,331.438 L556,288.438 L546,278.438 L290,278.438 A5,5 0 0 0 285,283.438 " fill="url(#gchzp4hi3dxi40)" style="stroke:#8B95A5;stroke-width:1.0;"/><path d="M546,278.438 L546,285.938 A2.5,2.5 0 0 0 548.5,288.438 L556,288.438 L546,278.438 " fill="url(#gchzp4hi3dxi40)" style="stroke:#8B95A5;stroke-width:1.0;"/><text fill="#111827" font-family="Arial" font-size="14" lengthAdjust="spacing" textLength="250" x="291" y="296.5698">Pr&#252;fung des e-Med GroupIdentifiers, ob</text><text fill="#111827" font-family="Arial" font-size="14" lengthAdjust="spacing" textLength="149" x="291" y="312.6685">- noch nicht abgelaufen</text><text fill="#111827" font-family="Arial" font-size="14" lengthAdjust="spacing" textLength="172" x="291" y="328.7671">- weitere Einl&#246;sung m&#246;glich</text><polygon fill="#111827" points="155,358.6826,145,362.6826,155,366.6826,151,362.6826" style="stroke:#111827;stroke-width:1.0;"/><line style="stroke:#111827;stroke-width:1.0;stroke-dasharray:2.0,2.0;" x1="149" x2="415" y1="362.6826" y2="362.6826"/><text fill="#000000" font-family="Arial" font-size="13" font-weight="bold" lengthAdjust="spacing" textLength="7" x="161" y="357.9277">2</text><text fill="#000000" font-family="Arial" font-size="13" lengthAdjust="spacing" textLength="107" x="172" y="357.9277">Geplante Abgaben</text><line style="stroke:#111827;stroke-width:1.0;stroke-dasharray:2.0,2.0;" x1="96" x2="566" y1="371.6826" y2="371.6826"/><text fill="#000000" font-family="Arial" font-size="14" font-weight="bold" lengthAdjust="spacing" textLength="89" x="101" y="384.8145">[nicht g&#252;ltig]</text><polygon fill="#111827" points="150,405.73,140,409.73,150,413.73,146,409.73" style="stroke:#111827;stroke-width:1.0;"/><line style="stroke:#111827;stroke-width:1.0;stroke-dasharray:2.0,2.0;" x1="144" x2="420" y1="409.73" y2="409.73"/><text fill="#000000" font-family="Arial" font-size="13" font-weight="bold" lengthAdjust="spacing" textLength="7" x="156" y="404.9751">3</text><text fill="#000000" font-family="Arial" font-size="13" lengthAdjust="spacing" textLength="36" x="167" y="404.9751">Fehler</text><path d="M5,434.73 L5,498.73 A5,5 0 0 0 10,503.73 L268,503.73 A5,5 0 0 0 273,498.73 L273,439.73 L263,429.73 L10,429.73 A5,5 0 0 0 5,434.73 " fill="url(#gchzp4hi3dxi40)" style="stroke:#8B95A5;stroke-width:1.0;"/><path d="M263,429.73 L263,437.23 A2.5,2.5 0 0 0 265.5,439.73 L273,439.73 L263,429.73 " fill="url(#gchzp4hi3dxi40)" style="stroke:#8B95A5;stroke-width:1.0;"/><text fill="#111827" font-family="Arial" font-size="14" lengthAdjust="spacing" textLength="186" x="11" y="447.8618">GDA erh&#228;lt ausschlie&#223;lich die</text><text fill="#111827" font-family="Arial" font-size="14" lengthAdjust="spacing" textLength="203" x="11" y="463.9604">Geplanten Abgaben, die dem im</text><text fill="#111827" font-family="Arial" font-size="14" lengthAdjust="spacing" textLength="234" x="11" y="480.0591">QR-Code des e-Rezepts enthaltenen</text><text fill="#111827" font-family="Arial" font-size="14" lengthAdjust="spacing" textLength="247" x="11" y="496.1577">e-Med GroupIdentifier zugeordnet sind.</text><!--SRC=[VLJDZk964BxtKrJWGA8i4JOB32CH2GOp6IKx48RDORKIQkootSAqsRQzavaepv9Bdc5FU-F5KcqR_y6cET2k-hgwlg-gAnPnW72Fnu3B666wy_WE9GGOeVme_-1AfFRPBNn8F2LS5muYZZ680BjhVCLZp5WdsWjvv8eVWDjng9xY5uh9dp4A3yXOwTs5oa5r5mQXWdOlNLKlj_UU2XFfv0Xte7yLHEHp9tmMqWEN1n5MFFan9L61KGtgeCkJ85w4Cdxa1uJMb1W5hUk89_6AOBozxlnMsh-y7545Gkuh0Ckw1dWldNI35-dFmZzNt74qCxDNjy-gcWtILPLKXbITlnZ0hAaUzd3Wzhfjnt36EDI8QgIRtNZ01uLrumjxBp6Am23Rkg9cZxxFkUae5IaCmxWnHsHxQjJbxsg64NvAKDfPbYkkOc6B8pNLDM8rmANe5-vpmMgEYf80KwN2vsQ-gR5EEJLTkx5mP7VroNHFCXzhwHUHCzT5AT0rNRT-ihpUr7fzHvscE-Dk-TjolRsVJxS6q6eRWs7lnhpfNG6OAM0y7FP6yml0Qhfvi1utEi9uE3FVNW2cgoMagzrRZAtvODm4ME-i-NOn9G2EHsRVt3bDm7PjVR1M6sZRJd_KD_cuIMFvAzJkC0VD4ElrSfq2hF78w9jzwkrEEaCWau17qA8T6AsgCgo4J8zX2gB_sCSzjafwx5Zs1E0xT3GRZSKkVS1YsgepPPtQWMqstl8JsKUhGPqndiIXJ0uxL8nD9fU3bEzKuj8_J2QiGu1p9FZnsrY2iWvGCYKwTv4P2jhTduiaRqjaSpnt7-Rm_U_hxbteu0-rE2IY-Cpf_dF0KhcQkr2YmLs32b-NiidZL999CGvUXDByA4a4LYMJbUWMxgqDq5xOF1QXNElv4QN4u2cn_RqICIg1ylQZx09Xq0lL2qoeKUg2jk3zunmqA2ju-lY4Wp8Mhg39LgZ2_aU9ClMyWUejmuEuxFNADG_bDTxfQn0BZrv_Egl3psJBW-cvfKvVtOIcbOFHzG3H6mXtXEpIUTi7AMnVzuE70KzBgJtFg3L1i8GCJbyY7Uzm-k85X2K_IYUzMszp5hLoDHkHfQMflj3iqfB9rJ0Bz0Dw1lM25qGhnlm4exnOgSdPgfyxAl_qBqdBaoYo_K3WwH_D1HoXMoPFLvxpVPFQ7Jo0E03BgveBclKRxMJiKx5GqZ5slL2lYOSqcYN640df_CGAtVu3]--></g></svg>