<svg xmlns="http://www.w3.org/2000/svg" xmlns:xlink="http://www.w3.org/1999/xlink" version="1.1" data-diagram-type="SEQUENCE" style="width:930px;height:1025px;background:#F5F5F5;" width="930px" height="1025px" viewBox="0 0 930 1025" zoomAndPan="magnify" preserveAspectRatio="none" contentStyleType="text/css"><?plantuml 1.2026.7beta8?><defs><linearGradient x1="50%" y1="0%" x2="50%" y2="100%" id="gmmq3ygly4ac80"><stop stop-color="#E0E5F0" offset="0%"/><stop stop-color="#D1D9E6" offset="100%"/></linearGradient></defs><g font-family="sans-serif" lengthAdjust="spacing"><rect x="0" y="0" width="930" height="1025" fill="#F5F5F5" style="stroke:none;"/><g class="title" data-source-line="1"><text x="422.43" y="27.995" fill="#000" font-size="14" textLength="83.617" font-weight="700" font-family="'Arial'">Plan-Write</text></g><path d="M167,376.07 L905.478,376.07 A5,5 0 0 1 910.478,381.07 L910.478,810.313 L162,810.313 L162,381.07 A5,5 0 0 1 167,376.07" fill="#0F9ED5" fill-opacity="0.145"/><path d="M162,810.313 L910.478,810.313 L910.478,909.172 A5,5 0 0 1 905.478,914.172 L167,914.172 A5,5 0 0 1 162,909.172 L162,810.313" fill="#E97132" fill-opacity="0.208"/><path d="M186,482.063 L880.478,482.063 A5,5 0 0 1 885.478,487.063 L885.478,717.75 L181,717.75 L181,487.063 A5,5 0 0 1 186,482.063" fill="#0F9ED5" fill-opacity="0.145"/><path d="M181,717.75 L885.478,717.75 L885.478,780.313 A5,5 0 0 1 880.478,785.313 L186,785.313 A5,5 0 0 1 181,780.313 L181,717.75" fill="#E97132" fill-opacity="0.208"/><g><title>GDA 1</title><rect x="193.5" y="123.594" width="8" height="814.578" fill="#000" fill-opacity="0"/><line x1="197" y1="123.594" x2="197" y2="938.172" style="stroke:#181818;stroke-width:0.5;stroke-dasharray:5,5;"/></g><g><title></title><rect x="192" y="131.594" width="10" height="738.281" fill="#156082" fill-opacity="0.502" style="stroke:#181818;stroke-width:1;"/></g><g><title>e-Med FA</title><rect x="650.701" y="123.594" width="8" height="814.578" fill="#000" fill-opacity="0"/><line x1="654.201" y1="123.594" x2="654.201" y2="938.172" style="stroke:#181818;stroke-width:0.5;stroke-dasharray:5,5;"/></g><g><title></title><rect x="649.201" y="221.617" width="10" height="648.258" fill="#E97232" fill-opacity="0.741" style="stroke:#181818;stroke-width:1;"/></g><text x="171.718" y="120.292" fill="#000" font-size="14" textLength="44.563" font-family="'Arial'">GDA 1</text><ellipse cx="197" cy="55.797" rx="8" ry="8" fill="#156082" fill-opacity="0.502" style="stroke:#181818;stroke-width:0.5;"/><path d="M197,63.797 L197,90.797 M184,71.797 L210,71.797 M197,90.797 L184,105.797 M197,90.797 L210,105.797" style="stroke:#181818;stroke-width:0.5;" fill="none"/><rect x="614.539" y="92.297" width="79.324" height="30.297" fill="#E97232" fill-opacity="0.741" style="stroke:#555;stroke-width:0.5;" rx="5" ry="5"/><text x="621.539" y="112.292" fill="#000" font-size="14" textLength="65.324" font-family="'Arial'">e-Med FA</text><text x="171.718" y="951.167" fill="#000" font-size="14" textLength="44.563" font-family="'Arial'">GDA 1</text><ellipse cx="197" cy="962.969" rx="8" ry="8" fill="#156082" fill-opacity="0.502" style="stroke:#181818;stroke-width:0.5;"/><path d="M197,970.969 L197,997.969 M184,978.969 L210,978.969 M197,997.969 L184,1012.969 M197,997.969 L210,1012.969" style="stroke:#181818;stroke-width:0.5;" fill="none"/><rect x="614.539" y="938.172" width="79.324" height="30.297" fill="#E97232" fill-opacity="0.741" style="stroke:#555;stroke-width:0.5;" rx="5" ry="5"/><text x="621.539" y="958.167" fill="#000" font-size="14" textLength="65.324" font-family="'Arial'">e-Med FA</text><path d="M15,141.594 L15,189.594 A5,5 0 0 0 20,194.594 L374,194.594 A5,5 0 0 0 379,189.594 L379,146.594 L369,136.594 L20,136.594 A5,5 0 0 0 15,141.594" style="stroke:#8B95A5;stroke-width:1;" fill="url(#gmmq3ygly4ac80)"/><path d="M369,136.594 L369,144.094 A2.5,2.5 0 0 0 371.5,146.594 L379,146.594 L369,136.594" style="stroke:#8B95A5;stroke-width:1;" fill="url(#gmmq3ygly4ac80)"/><text x="21" y="154.589" fill="#111827" font-size="14" textLength="103.284" font-family="'Arial'">Vorbedingung:</text><text x="21" y="170.886" fill="#111827" font-size="14" textLength="343" font-family="'Arial'">Auslieferungs-Medikationsplan-Collection-Bundle</text><text x="21" y="187.183" fill="#111827" font-size="14" textLength="300.809" font-family="'Arial'">mittels $plan-read gelesen und bearbeitet.</text><polygon points="637.201,217.617,647.201,221.617,637.201,225.617,641.201,221.617" fill="#111827" style="stroke:#111827;stroke-width:1;stroke-linejoin:miter;stroke-miterlimit:10;"/><line x1="202" y1="221.617" x2="643.201" y2="221.617" style="stroke:#111827;stroke-width:1;"/><text x="209" y="216.551" fill="#000" font-size="13" font-weight="700" font-family="'Arial'">1</text><text x="222.045" y="216.551" fill="#000" font-size="13" textLength="415.156" font-family="'Arial'">POST $plan-write (Medikationsplan-Transaction-Bundle + ETag)</text><path d="M56.439,239.617 L56.439,304.617 A5,5 0 0 0 61.439,309.617 L332.439,309.617 A5,5 0 0 0 337.439,304.617 L337.439,244.617 L327.439,234.617 L61.439,234.617 A5,5 0 0 0 56.439,239.617" style="stroke:#8B95A5;stroke-width:1;" fill="url(#gmmq3ygly4ac80)"/><path d="M327.439,234.617 L327.439,242.117 A2.5,2.5 0 0 0 329.939,244.617 L337.439,244.617 L327.439,234.617" style="stroke:#8B95A5;stroke-width:1;" fill="url(#gmmq3ygly4ac80)"/><text x="62.439" y="252.612" fill="#111827" font-size="14" textLength="260.121" font-family="'Arial'">Neue, geänderte und zu entfernende</text><text x="62.439" y="268.909" fill="#111827" font-size="14" textLength="233.372" font-family="'Arial'">Ressourcen sind inline enthalten.</text><text x="62.439" y="285.206" fill="#111827" font-size="14" textLength="238.984" font-family="'Arial'">Unveränderte Ressourcen werden</text><text x="62.439" y="301.503" fill="#111827" font-size="14" textLength="189.321" font-family="'Arial'">ausschließlich referenziert.</text><line x1="659.201" y1="351.07" x2="701.201" y2="351.07" style="stroke:#111827;stroke-width:1;"/><line x1="701.201" y1="351.07" x2="701.201" y2="364.07" style="stroke:#111827;stroke-width:1;"/><line x1="660.201" y1="364.07" x2="701.201" y2="364.07" style="stroke:#111827;stroke-width:1;"/><polygon points="670.201,360.07,660.201,364.07,670.201,368.07,666.201,364.07" fill="#111827" style="stroke:#111827;stroke-width:1;stroke-linejoin:miter;stroke-miterlimit:10;"/><text x="666.201" y="338.438" fill="#000" font-size="13" font-weight="700" font-family="'Arial'">2</text><text x="679.247" y="330.872" fill="#000" font-size="13" textLength="114.391" font-family="'Arial'">Prüfung des ETag</text><text x="679.247" y="346.004" fill="#000" font-size="13" textLength="130.349" font-family="'Arial'">(Optimistic Locking)</text><path d="M167,376.07 L341.162,376.07 L341.162,384.367 L331.162,394.367 L162,394.367 L162,381.07 A5,5 0 0 1 167,376.07" style="stroke:#111827;stroke-width:1.5;" fill="#EEF2FF"/><rect x="162" y="376.07" width="748.478" height="538.102" fill="none" style="stroke:#111827;stroke-width:2;" rx="5" ry="5"/><text x="177" y="390.065" fill="#000" font-size="14" textLength="129.288" font-weight="700" font-family="'Arial'">alt: ETag gültig?</text><text x="356.162" y="391.065" fill="#000" font-size="14" textLength="27.043" font-weight="700" font-family="'Arial'">[ja]</text><line x1="162" y1="810.313" x2="910.478" y2="810.313" style="stroke:#111827;stroke-width:1;stroke-dasharray:2,2;"/><text x="167" y="825.308" fill="#000" font-size="14" textLength="47.024" font-weight="700" font-family="'Arial'">[nein]</text><line x1="659.201" y1="457.063" x2="701.201" y2="457.063" style="stroke:#111827;stroke-width:1;"/><line x1="701.201" y1="457.063" x2="701.201" y2="470.063" style="stroke:#111827;stroke-width:1;"/><line x1="660.201" y1="470.063" x2="701.201" y2="470.063" style="stroke:#111827;stroke-width:1;"/><polygon points="670.201,466.063,660.201,470.063,670.201,474.063,666.201,470.063" fill="#111827" style="stroke:#111827;stroke-width:1;stroke-linejoin:miter;stroke-miterlimit:10;"/><text x="666.201" y="436.864" fill="#000" font-size="13" font-weight="700" font-family="'Arial'">3</text><text x="679.247" y="421.731" fill="#000" font-size="13" textLength="101.175" font-family="'Arial'">Validierung des</text><text x="679.247" y="436.864" fill="#000" font-size="13" textLength="132.444" font-family="'Arial'">Transaction Bundles</text><text x="679.247" y="451.997" fill="#000" font-size="13" textLength="162.043" font-family="'Arial'">inkl. Zustandsübergänge</text><path d="M186,482.063 L452.728,482.063 L452.728,490.359 L442.728,500.359 L181,500.359 L181,487.063 A5,5 0 0 1 186,482.063" style="stroke:#111827;stroke-width:1.5;" fill="#EEF2FF"/><rect x="181" y="482.063" width="704.478" height="303.25" fill="none" style="stroke:#111827;stroke-width:2;" rx="5" ry="5"/><text x="196" y="496.058" fill="#000" font-size="14" textLength="221.854" font-weight="700" font-family="'Arial'">alt: Validierung erfolgreich?</text><text x="467.728" y="497.058" fill="#000" font-size="14" textLength="27.043" font-weight="700" font-family="'Arial'">[ja]</text><line x1="181" y1="717.75" x2="885.478" y2="717.75" style="stroke:#111827;stroke-width:1;stroke-dasharray:2,2;"/><text x="186" y="732.745" fill="#000" font-size="14" textLength="47.024" font-weight="700" font-family="'Arial'">[nein]</text><line x1="659.201" y1="547.922" x2="701.201" y2="547.922" style="stroke:#111827;stroke-width:1;"/><line x1="701.201" y1="547.922" x2="701.201" y2="560.922" style="stroke:#111827;stroke-width:1;"/><line x1="660.201" y1="560.922" x2="701.201" y2="560.922" style="stroke:#111827;stroke-width:1;"/><polygon points="670.201,556.922,660.201,560.922,670.201,564.922,666.201,560.922" fill="#111827" style="stroke:#111827;stroke-width:1;stroke-linejoin:miter;stroke-miterlimit:10;"/><text x="666.201" y="535.29" fill="#000" font-size="13" font-weight="700" font-family="'Arial'">4</text><text x="679.247" y="527.723" fill="#000" font-size="13" textLength="157.212" font-family="'Arial'">Übernimmt Änderungen</text><text x="679.247" y="542.856" fill="#000" font-size="13" textLength="152.991" font-family="'Arial'">auf Ressourcenbestand</text><line x1="659.201" y1="620.32" x2="701.201" y2="620.32" style="stroke:#111827;stroke-width:1;"/><line x1="701.201" y1="620.32" x2="701.201" y2="633.32" style="stroke:#111827;stroke-width:1;"/><line x1="660.201" y1="633.32" x2="701.201" y2="633.32" style="stroke:#111827;stroke-width:1;"/><polygon points="670.201,629.32,660.201,633.32,670.201,637.32,666.201,633.32" fill="#111827" style="stroke:#111827;stroke-width:1;stroke-linejoin:miter;stroke-miterlimit:10;"/><text x="666.201" y="600.122" fill="#000" font-size="13" font-weight="700" font-family="'Arial'">5</text><text x="679.247" y="584.989" fill="#000" font-size="13" textLength="183.231" font-family="'Arial'">Erzeugt und persisistiert ein</text><text x="679.247" y="600.122" fill="#000" font-size="13" textLength="154.388" font-family="'Arial'">neues Medikationsplan-</text><text x="679.247" y="615.254" fill="#000" font-size="13" textLength="113.693" font-family="'Arial'">Collection Bundle</text><path d="M519.533,651.32 L519.533,667.32 A5,5 0 0 0 524.533,672.32 L783.533,672.32 A5,5 0 0 0 788.533,667.32 L788.533,656.32 L778.533,646.32 L524.533,646.32 A5,5 0 0 0 519.533,651.32" style="stroke:#8B95A5;stroke-width:1;" fill="url(#gmmq3ygly4ac80)"/><path d="M778.533,646.32 L778.533,653.82 A2.5,2.5 0 0 0 781.033,656.32 L788.533,656.32 L778.533,646.32" style="stroke:#8B95A5;stroke-width:1;" fill="url(#gmmq3ygly4ac80)"/><text x="525.533" y="664.315" fill="#111827" font-size="14" textLength="248.336" font-family="'Arial'">Neuer Medikationsplan gespeichert</text><polygon points="213,694.75,203,698.75,213,702.75,209,698.75" fill="#111827" style="stroke:#111827;stroke-width:1;stroke-linejoin:miter;stroke-miterlimit:10;"/><line x1="207" y1="698.75" x2="648.201" y2="698.75" style="stroke:#111827;stroke-width:1;stroke-dasharray:2,2;"/><text x="219" y="693.684" fill="#000" font-size="13" font-weight="700" font-family="'Arial'">6</text><text x="232.045" y="693.684" fill="#000" font-size="13" textLength="85.332" font-family="'Arial'">HTTP 200 OK</text><polygon points="213,773.313,203,777.313,213,781.313,209,777.313" fill="#111827" style="stroke:#111827;stroke-width:1;stroke-linejoin:miter;stroke-miterlimit:10;"/><line x1="207" y1="777.313" x2="648.201" y2="777.313" style="stroke:#111827;stroke-width:1;stroke-dasharray:2,2;"/><text x="219" y="764.68" fill="#000" font-size="13" font-weight="700" font-family="'Arial'">7</text><text x="232.045" y="757.114" fill="#000" font-size="13" textLength="116.232" font-family="'Arial'">Fehler (HTTP 4xx)</text><text x="232.045" y="772.247" fill="#000" font-size="13" textLength="124.027" font-family="'Arial'">OperationOutcome</text><polygon points="213,865.875,203,869.875,213,873.875,209,869.875" fill="#111827" style="stroke:#111827;stroke-width:1;stroke-linejoin:miter;stroke-miterlimit:10;"/><line x1="207" y1="869.875" x2="648.201" y2="869.875" style="stroke:#111827;stroke-width:1;"/><text x="219" y="857.243" fill="#000" font-size="13" font-weight="700" font-family="'Arial'">8</text><text x="232.045" y="849.676" fill="#000" font-size="13" textLength="245.857" font-family="'Arial'">Fehler (HTTP 412 Precondition Failed)</text><text x="232.045" y="864.809" fill="#000" font-size="13" textLength="124.027" font-family="'Arial'">OperationOutcome</text><path d="M548.487,887.875 L548.487,903.875 A5,5 0 0 0 553.487,908.875 L754.487,908.875 A5,5 0 0 0 759.487,903.875 L759.487,892.875 L749.487,882.875 L553.487,882.875 A5,5 0 0 0 548.487,887.875" style="stroke:#8B95A5;stroke-width:1;" fill="url(#gmmq3ygly4ac80)"/><path d="M749.487,882.875 L749.487,890.375 A2.5,2.5 0 0 0 751.987,892.875 L759.487,892.875 L749.487,882.875" style="stroke:#8B95A5;stroke-width:1;" fill="url(#gmmq3ygly4ac80)"/><text x="554.487" y="900.87" fill="#111827" font-size="14" textLength="190.429" font-family="'Arial'">ETag stimmt nicht überein.</text><?plantuml-src TLPDRzj64BtpLqoj0dNGoY0fIxPyQ277L58aiGHPIO7KXR4YHzJMr5BTNSQEYzxwCmhqqf_Xc_vOPvVwM58qxOEuy_ZcpPlXI9hh366SCT7-HNADdlUTkkTYnIHR0ejrBc_qLqAm1rJvaiBxw2oN2ShNUPPBQFdsSgCilazbNeXaWvXtpP-3K0kMv0zSf31dcK8didbC2fGGkAG9pbcHwM4kz3LR8XmD96VPKJFYXZyX1AVDmPTal_swGfbnSUy0egW9y54azWCUoB_C7ySiIKnbeLyzltGzwzhBjLJa6k5F3-2oxXxws9txxLOI97ti6OJBT3xhTrbtTpfTyFXUe58GqDd4STEd-wqsm-9O4GJ1UNX6PpUrllpbAbJuHu4YBbMEcTGyvYicT5DXLS31FDYh2Zhip45uszLAmB4RO21b_b0loXvMVR57JHbtWJ9NXuxUaF9LfSOTSnaww1VEGrkTy-G-VMXC_OR6qOpFwz7xqUJkpTNWBW2wMa6tvv-7vtu38BI0Vg_ddrqT0CQ3wS_HzTGmz7kNuUa1O30UWRrQ_h0VNNNxTK3q8Rgw6mu8WFspi1FEaZhWRX9zZiPJQCL9vwmJidwzZD4xgEG8ktMAoMGqiO2eVnPqmWwz07RFGEa0Kt14do0uSetnLljc0tx0nCWqK6pJ3Gm7HzKIF28jT2wAvGobJS2_C7gtoXmkiMVVkVmBRWHudt8vGpDDXKWll46XCevpb7IdJ2v-ppJFXLgPbKdDpZ0sz-rBwds6tf9hZPc2RsrS8aiWnGmL2Y00p90HE-rPVU8XtPlafBMKrVvnMze5Z4Stqmt9WzdBS5pFFPLCAEOcX-yXchBqbLFlrgggEVMIhx707qZd-Z-pqoXcf3uLW49JvOA4eZUXkSqB6LCXYbEO2xlx2B9WcKPnudqKnBYZSF0FIDClg25AnGjoS_rlnkC5I6ChYYTEUDUDhUQA7NBzFASMq0fNjiXRSJnQQRxaYiO2tkSnRIXJkNa9L_jP96aN5W_f-ZdJFFq9VlsT_URHYzcKvXFBUC9jiqscM-6O3AN9T4ZBFpk1puNIJ2Hg_KmZbbBTAH8h_JT9S8bHplCibKWURDHiNXcm7vfqhV-X788lbnhMVnk3YGV5hM35t35wXbRHYooHVC8YrRQxz2Mck3BkaVk0dCW4JO62-fZTYlsGRopmR8Rz46qIs5CpIh9EGgEbLgPUobMgspMxefN4se6yWBVJwPYskG-ZTxPNz3rKsH-254DfTzFZGrna9EFOqfm-Fhww5IEgs2eQ5JgslsHA7JHlpUJL4Maa3a8QJ8npaN1hpv3n39ENahtWc9rEweDfhY2FgCLceaZ3oO5N2LOtMVLeoqfF_0y0?></g></svg>