<svg xmlns="http://www.w3.org/2000/svg" xmlns:xlink="http://www.w3.org/1999/xlink" version="1.1" data-diagram-type="SEQUENCE" style="width:958px;height:663px;background:#F5F5F5;" width="958px" height="663px" viewBox="0 0 958 663" zoomAndPan="magnify" preserveAspectRatio="none" contentStyleType="text/css"><?plantuml 1.2026.7beta8?><defs><linearGradient x1="50%" y1="0%" x2="50%" y2="100%" id="gt0o261ye4cqq0"><stop stop-color="#E0E5F0" offset="0%"/><stop stop-color="#D1D9E6" offset="100%"/></linearGradient></defs><g font-family="sans-serif" lengthAdjust="spacing"><rect x="0" y="0" width="958" height="663" fill="#F5F5F5" style="stroke:none;"/><g class="title" data-source-line="1"><text x="406.531" y="27.995" fill="#000" font-size="14" textLength="143.028" font-weight="700" font-family="'Arial'">Plan-History-Read</text></g><path d="M24.282,266.289 L933.091,266.289 A5,5 0 0 1 938.091,271.289 L938.091,414.578 L19.282,414.578 L19.282,271.289 A5,5 0 0 1 24.282,266.289" fill="#0F9ED5" fill-opacity="0.145"/><path d="M19.282,414.578 L938.091,414.578 L938.091,462.008 A5,5 0 0 1 933.091,467.008 L24.282,467.008 A5,5 0 0 1 19.282,462.008 L19.282,414.578" fill="#E97132" fill-opacity="0.208"/><g><title>GDA 1</title><rect x="31.782" y="123.594" width="8" height="452.602" fill="#000" fill-opacity="0"/><line x1="35.282" y1="123.594" x2="35.282" y2="576.195" style="stroke:#181818;stroke-width:0.5;stroke-dasharray:5,5;"/></g><g><title></title><rect x="30.282" y="197.023" width="10" height="261.984" fill="#156082" fill-opacity="0.502" style="stroke:#181818;stroke-width:1;"/></g><g><title>e-Med FA</title><rect x="383.61" y="123.594" width="8" height="452.602" fill="#000" fill-opacity="0"/><line x1="387.11" y1="123.594" x2="387.11" y2="576.195" style="stroke:#181818;stroke-width:0.5;stroke-dasharray:5,5;"/></g><g><title></title><rect x="382.11" y="197.023" width="10" height="261.984" fill="#E97232" fill-opacity="0.741" style="stroke:#181818;stroke-width:1;"/></g><text x="10" y="120.292" fill="#000" font-size="14" textLength="44.563" font-family="'Arial'">GDA 1</text><ellipse cx="35.282" cy="55.797" rx="8" ry="8" fill="#156082" fill-opacity="0.502" style="stroke:#181818;stroke-width:0.5;"/><path d="M35.282,63.797 L35.282,90.797 M22.282,71.797 L48.282,71.797 M35.282,90.797 L22.282,105.797 M35.282,90.797 L48.282,105.797" style="stroke:#181818;stroke-width:0.5;" fill="none"/><rect x="347.448" y="92.297" width="79.324" height="30.297" fill="#E97232" fill-opacity="0.741" style="stroke:#555;stroke-width:0.5;" rx="5" ry="5"/><text x="354.448" y="112.292" fill="#000" font-size="14" textLength="65.324" font-family="'Arial'">e-Med FA</text><text x="10" y="589.19" fill="#000" font-size="14" textLength="44.563" font-family="'Arial'">GDA 1</text><ellipse cx="35.282" cy="600.992" rx="8" ry="8" fill="#156082" fill-opacity="0.502" style="stroke:#181818;stroke-width:0.5;"/><path d="M35.282,608.992 L35.282,635.992 M22.282,616.992 L48.282,616.992 M35.282,635.992 L22.282,650.992 M35.282,635.992 L48.282,650.992" style="stroke:#181818;stroke-width:0.5;" fill="none"/><rect x="347.448" y="576.195" width="79.324" height="30.297" fill="#E97232" fill-opacity="0.741" style="stroke:#555;stroke-width:0.5;" rx="5" ry="5"/><text x="354.448" y="596.19" fill="#000" font-size="14" textLength="65.324" font-family="'Arial'">e-Med FA</text><rect x="10" y="152.742" width="937.091" height="3" fill="#EEE" style="stroke:#EEE;stroke-width:1;" rx="5" ry="5"/><line x1="10" y1="152.742" x2="947.091" y2="152.742" style="stroke:#000;stroke-width:1;"/><line x1="10" y1="155.742" x2="947.091" y2="155.742" style="stroke:#000;stroke-width:1;"/><rect x="328.64" y="141.594" width="299.811" height="24.297" fill="#EEE" style="stroke:#000;stroke-width:2;" rx="5" ry="5"/><text x="334.64" y="158.589" fill="#000" font-size="14" textLength="280.937" font-weight="700" font-family="'Arial'">Historische Medikationspläne lesen</text><polygon points="370.11,193.023,380.11,197.023,370.11,201.023,374.11,197.023" fill="#111827" style="stroke:#111827;stroke-width:1;stroke-linejoin:miter;stroke-miterlimit:10;"/><line x1="40.282" y1="197.023" x2="376.11" y2="197.023" style="stroke:#111827;stroke-width:1;"/><text x="47.282" y="191.958" fill="#000" font-size="13" font-weight="700" font-family="'Arial'">1</text><text x="60.327" y="191.958" fill="#000" font-size="13" textLength="158.393" font-family="'Arial'">POST $plan-history-read</text><line x1="392.11" y1="241.289" x2="434.11" y2="241.289" style="stroke:#111827;stroke-width:1;"/><line x1="434.11" y1="241.289" x2="434.11" y2="254.289" style="stroke:#111827;stroke-width:1;"/><line x1="393.11" y1="254.289" x2="434.11" y2="254.289" style="stroke:#111827;stroke-width:1;"/><polygon points="403.11,250.289,393.11,254.289,403.11,258.289,399.11,254.289" fill="#111827" style="stroke:#111827;stroke-width:1;stroke-linejoin:miter;stroke-miterlimit:10;"/><text x="399.11" y="228.657" fill="#000" font-size="13" font-weight="700" font-family="'Arial'">2</text><text x="412.155" y="221.09" fill="#000" font-size="13" textLength="160.393" font-family="'Arial'">Prüfung auf existierende</text><text x="412.155" y="236.223" fill="#000" font-size="13" textLength="232.032" font-family="'Arial'">Medikationsplan-Collection-Bundles</text><path d="M24.282,266.289 L472.469,266.289 L472.469,274.586 L462.469,284.586 L19.282,284.586 L19.282,271.289 A5,5 0 0 1 24.282,266.289" style="stroke:#111827;stroke-width:1.5;" fill="#EEF2FF"/><rect x="19.282" y="266.289" width="918.81" height="200.719" fill="none" style="stroke:#111827;stroke-width:2;" rx="5" ry="5"/><text x="34.282" y="280.284" fill="#000" font-size="14" textLength="403.313" font-weight="700" font-family="'Arial'">alt: Medikationsplan-Collection-Bundles gefunden?</text><text x="487.469" y="281.284" fill="#000" font-size="14" textLength="434.622" font-weight="700" font-family="'Arial'">[ja: Collection-Bundles entsprechend Suchparametern]</text><line x1="19.282" y1="351.148" x2="938.091" y2="351.148" style="stroke:#111827;stroke-width:1;stroke-dasharray:2,2;"/><text x="24.282" y="366.144" fill="#000" font-size="14" textLength="621.175" font-weight="700" font-family="'Arial'">[nein: kein Medikationsplan-Collection-Bundle entsprechend Suchparametern]</text><line x1="19.282" y1="414.578" x2="938.091" y2="414.578" style="stroke:#111827;stroke-width:1;stroke-dasharray:2,2;"/><text x="24.282" y="429.573" fill="#000" font-size="14" textLength="63.021" font-weight="700" font-family="'Arial'">[Fehler]</text><polygon points="51.282,328.148,41.282,332.148,51.282,336.148,47.282,332.148" fill="#111827" style="stroke:#111827;stroke-width:1;stroke-linejoin:miter;stroke-miterlimit:10;"/><line x1="45.282" y1="332.148" x2="381.11" y2="332.148" style="stroke:#111827;stroke-width:1;"/><text x="57.282" y="319.516" fill="#000" font-size="13" font-weight="700" font-family="'Arial'">3</text><text x="70.327" y="311.95" fill="#000" font-size="13" textLength="304.783" font-family="'Arial'">Bundle (type=searchset) mit zumindest einem</text><text x="70.327" y="327.083" fill="#000" font-size="13" textLength="225.259" font-family="'Arial'">Medikationsplan-Collection-Bundle</text><polygon points="51.282,391.578,41.282,395.578,51.282,399.578,47.282,395.578" fill="#111827" style="stroke:#111827;stroke-width:1;stroke-linejoin:miter;stroke-miterlimit:10;"/><line x1="45.282" y1="395.578" x2="381.11" y2="395.578" style="stroke:#111827;stroke-width:1;"/><text x="57.282" y="390.512" fill="#000" font-size="13" font-weight="700" font-family="'Arial'">4</text><text x="70.327" y="390.512" fill="#000" font-size="13" textLength="258.223" font-family="'Arial'">Bundle (type=searchset) ohne Einträge</text><polygon points="51.282,455.008,41.282,459.008,51.282,463.008,47.282,459.008" fill="#111827" style="stroke:#111827;stroke-width:1;stroke-linejoin:miter;stroke-miterlimit:10;"/><line x1="45.282" y1="459.008" x2="381.11" y2="459.008" style="stroke:#111827;stroke-width:1;"/><text x="57.282" y="453.942" fill="#000" font-size="13" font-weight="700" font-family="'Arial'">5</text><text x="70.327" y="453.942" fill="#000" font-size="13" textLength="124.027" font-family="'Arial'">OperationOutcome</text><path d="M186.598,491.008 L186.598,556.008 A5,5 0 0 0 191.598,561.008 L582.598,561.008 A5,5 0 0 0 587.598,556.008 L587.598,496.008 L577.598,486.008 L191.598,486.008 A5,5 0 0 0 186.598,491.008" style="stroke:#8B95A5;stroke-width:1;" fill="url(#gt0o261ye4cqq0)"/><path d="M577.598,486.008 L577.598,493.508 A2.5,2.5 0 0 0 580.098,496.008 L587.598,496.008 L577.598,486.008" style="stroke:#8B95A5;stroke-width:1;" fill="url(#gt0o261ye4cqq0)"/><text x="192.598" y="504.003" fill="#111827" font-size="14" textLength="375.573" font-family="'Arial'">Die Fachanwendung liefert die den Suchparamentern</text><text x="192.598" y="520.3" fill="#111827" font-size="14" textLength="338.871" font-family="'Arial'">entsprechenden, persistierten Medikationspläne</text><text x="192.598" y="536.597" fill="#111827" font-size="14" textLength="360.753" font-family="'Arial'">(unverändert, inkl. aller referenzierten Ressourcen)</text><text x="192.598" y="552.894" fill="#111827" font-size="14" textLength="213.623" font-family="'Arial'">oder ein leeres Bundle zurück.</text><?plantuml-src bLLjZzf64Fw-ls8AbPf88R9DW3CIhI2Of6eJ4D0lVT5fpnwEBMRjxAvpkQlwR_8p-kt-M6TjEDRWDkqY8NlccPbdNZnhX4aH5YcNdRT2cqpTTvR84yQ-qJiXSwxu7dXCyfMv9o2_GvtjaR6JzYPJ2QhNMPefQ7lbSRKytjsgh9390R7fsP-3q5kUP7T2tiA6fneTpS5CILJWkquJtF0YDRDCclTyZz0QAy7JLZDY9HuG_5VDod-Y_VO-HvKAkNC0KTG4-4acvGDUq9zadnOyIMncWLUNJzoQzShZbbHc1k4F1Z0vhnvwsDjudNRY9o7sBSBrT7KJzdZlIRhUYdWdKMlmIRPqgkdH-v6RzUAKmlVzgs10ijLPN_vq6MhyKA2CAvOBheo8HSwbQKgi3hYOX_BKGPUTkL0VkrfJEEK662kLtPqdLGhhTIb5JH6V55MiBedU4FEybkEJvqfrqI_S16LsZkKfV62B-XMDensVr_CVvylhDzFnjGzqsdwlxrq5Lru382W1OR_l3QONWCLu_NtqVcqzXFr9yEe2C5xCeJnjRnP6qrvu3eZUHTFhsPW060w2Rd2Jd0Ekbz7FqM8DxJZf3he13y_JcFy0jHX1xzp5SZbVbe0e7FZTe4iV02iN3LGbu1fQz0H-owqCoq_T1do7YULfeTYX5vYDM_KShDF2PBBOtw1YR3I2Qii97MyHo4Jik16Pr7dw-9d8fQXHmcZ4MCMYy-qnoX0MyzKQlixjgjmULgMogv9OYu-SljZAn6LxqXsvrjaTfRKmwl6lJK5Jp8iDu2UA950XRPbVPOqlqQ0XIp6sxvq9pHoHPyoENtxg0a_D4Bvi1xT8CHEKty4ll_CXD21G6fqhfBh915P5l2qt0HfKyZSQS2ULClSXL8RmpD2g76daAjvgDCzXBmmy57j1uJGraMPY_nzI0uQqXKw9IJ8Smex-lvpUlt7_NzIpBSr89AHHZvzlqMLKpVCCjodDMPFBETqN9STvOM9xXGBTG_NHgOiEBXXHPgoy4RAFjBgFugb0cF5uo-KT8Uoyf08tg0mafA5EEdbAcoWLqAa2oXT0Z7GrNWPbmyV0dXMIGj8pRItp0kYsIr_IH56Ae6mib0y7uoMjiwnGCShdmBB4ygJ6f4WOVQpcGq6J7UzUsepAA-vl?></g></svg>