<?xml version="1.0" encoding="us-ascii" standalone="no"?><svg xmlns="http://www.w3.org/2000/svg" xmlns:xlink="http://www.w3.org/1999/xlink" contentStyleType="text/css" height="1175px" preserveAspectRatio="none" style="width:837px;height:1175px;background:#F5F5F5;" version="1.1" viewBox="0 0 837 1175" width="837px" zoomAndPan="magnify"><defs><linearGradient id="g1kmvmu3nbvphr0" x1="50%" x2="50%" y1="0%" y2="100%"><stop offset="0%" stop-color="#E0E5F0"/><stop offset="100%" stop-color="#D1D9E6"/></linearGradient></defs><g><rect fill="#F5F5F5" height="1175" style="stroke:none;stroke-width:1.0;" width="837" x="0" y="0"/><text fill="#000000" font-family="Arial" font-size="14" font-weight="bold" lengthAdjust="spacing" textLength="480" x="174.5" y="28.1318">Geplante Abgabe f&#252;r bestehende Medikationsplaneintr&#228;ge erstellen</text><text fill="#000000" font-family="Arial" font-size="14" font-weight="bold" lengthAdjust="spacing" textLength="597" x="116" y="44.2305">Variante C: Nachtr&#228;gliche Verkn&#252;pfung des e-Rezepts mit dem e-Med GroupIdentifier</text><rect fill="#156082" fill-opacity="0.50196" height="942.105" style="stroke:#181818;stroke-width:1.0;" width="10" x="143" y="144.2959"/><rect fill="#E97232" fill-opacity="0.74118" height="253.1875" style="stroke:#181818;stroke-width:1.0;" width="10" x="443" y="645.521"/><rect fill="#CD3732" fill-opacity="0.66275" height="146.3926" style="stroke:#181818;stroke-width:1.0;" width="10" x="667" y="448.5308"/><rect fill="#CD3732" fill-opacity="0.66275" height="135.7437" style="stroke:#181818;stroke-width:1.0;" width="10" x="667" y="941.6572"/><rect fill="none" height="503.0752" rx="5" ry="5" style="stroke:#111827;stroke-width:2.0;" width="737.5" x="10" y="410.6333"/><rect fill="#0F9ED5" fill-opacity="0.14510" height="89.4951" rx="5" ry="5" style="stroke:#111827;stroke-width:2.0;" width="623.5" x="114" y="513.4282"/><path d="M114,559.3257 L737.5,559.3257 L737.5,597.9233 A5,5 0 0 1 732.5,602.9233 L119,602.9233 A5,5 0 0 1 114,597.9233 L114,559.3257 " fill="#E97132" fill-opacity="0.20784" style="stroke:none;stroke-width:1.0;"/><rect fill="#0F9ED5" fill-opacity="0.14510" height="196.29" rx="5" ry="5" style="stroke:#111827;stroke-width:2.0;" width="558" x="114" y="710.4185"/><path d="M114,863.1108 L672,863.1108 L672,901.7085 A5,5 0 0 1 667,906.7085 L119,906.7085 A5,5 0 0 1 114,901.7085 L114,863.1108 " fill="#E97132" fill-opacity="0.20784" style="stroke:none;stroke-width:1.0;"/><line style="stroke:#181818;stroke-width:0.5;stroke-dasharray:5.0,5.0;" x1="148" x2="148" y1="134.2959" y2="1095.4009"/><line style="stroke:#181818;stroke-width:0.5;stroke-dasharray:5.0,5.0;" x1="448" x2="448" y1="134.2959" y2="1095.4009"/><line style="stroke:#181818;stroke-width:0.5;stroke-dasharray:5.0,5.0;" x1="671.5" x2="671.5" y1="134.2959" y2="1095.4009"/><text fill="#000000" font-family="Arial" font-size="14" lengthAdjust="spacing" textLength="42" x="124" y="131.3291">GDA 1</text><ellipse cx="148" cy="66.6973" fill="#156082" fill-opacity="0.50196" rx="8" ry="8" style="stroke:#181818;stroke-width:0.5;"/><path d="M148,74.6973 L148,101.6973 M135,82.6973 L161,82.6973 M148,101.6973 L135,116.6973 M148,101.6973 L161,116.6973 " fill="none" style="stroke:#181818;stroke-width:0.5;"/><text fill="#000000" font-family="Arial" font-size="14" lengthAdjust="spacing" textLength="42" x="124" y="1107.5327">GDA 1</text><ellipse cx="148" cy="1118.9995" fill="#156082" fill-opacity="0.50196" rx="8" ry="8" style="stroke:#181818;stroke-width:0.5;"/><path d="M148,1126.9995 L148,1153.9995 M135,1134.9995 L161,1134.9995 M148,1153.9995 L135,1168.9995 M148,1153.9995 L161,1168.9995 " fill="none" style="stroke:#181818;stroke-width:0.5;"/><rect fill="#E97232" fill-opacity="0.74118" height="30.0986" rx="5" ry="5" style="stroke:#555555;stroke-width:0.5;" width="76" x="410" y="103.1973"/><text fill="#000000" font-family="Arial" font-size="14" lengthAdjust="spacing" textLength="62" x="417" y="123.3291">e-Med FA</text><rect fill="#E97232" fill-opacity="0.74118" height="30.0986" rx="5" ry="5" style="stroke:#555555;stroke-width:0.5;" width="76" x="410" y="1094.4009"/><text fill="#000000" font-family="Arial" font-size="14" lengthAdjust="spacing" textLength="62" x="417" y="1114.5327">e-Med FA</text><rect fill="#CD3732" fill-opacity="0.66275" height="30.0986" rx="5" ry="5" style="stroke:#555555;stroke-width:0.5;" width="71" x="636.5" y="103.1973"/><text fill="#000000" font-family="Arial" font-size="14" lengthAdjust="spacing" textLength="57" x="643.5" y="123.3291">e-Rezept</text><rect fill="#CD3732" fill-opacity="0.66275" height="30.0986" rx="5" ry="5" style="stroke:#555555;stroke-width:0.5;" width="71" x="636.5" y="1094.4009"/><text fill="#000000" font-family="Arial" font-size="14" lengthAdjust="spacing" textLength="57" x="643.5" y="1114.5327">e-Rezept</text><rect fill="#156082" fill-opacity="0.50196" height="942.105" style="stroke:#181818;stroke-width:1.0;" width="10" x="143" y="144.2959"/><rect fill="#E97232" fill-opacity="0.74118" height="253.1875" style="stroke:#181818;stroke-width:1.0;" width="10" x="443" y="645.521"/><rect fill="#CD3732" fill-opacity="0.66275" height="146.3926" style="stroke:#181818;stroke-width:1.0;" width="10" x="667" y="448.5308"/><rect fill="#CD3732" fill-opacity="0.66275" height="135.7437" style="stroke:#181818;stroke-width:1.0;" width="10" x="667" y="941.6572"/><rect fill="#EEEEEE" height="3" rx="5" ry="5" style="stroke:#EEEEEE;stroke-width:1.0;" width="830" x="0" y="164.7703"/><line style="stroke:#000000;stroke-width:1.0;" x1="0" x2="830" y1="164.7703" y2="164.7703"/><line style="stroke:#000000;stroke-width:1.0;" x1="0" x2="830" y1="167.7703" y2="167.7703"/><rect fill="#EEEEEE" height="22.9487" rx="5" ry="5" style="stroke:#000000;stroke-width:2.0;" width="175" x="327.5" y="154.2959"/><text fill="#000000" font-family="Arial" font-size="13" font-weight="bold" lengthAdjust="spacing" textLength="157" x="333.5" y="170.4897">Medikationsplan abrufen</text><rect fill="none" height="38.7476" rx="5" ry="5" style="stroke:#000000;stroke-width:1.5;" width="388" x="121" y="187.2446"/><path d="M126,187.2446 L183,187.2446 L183,193.2446 L173,203.2446 L121,203.2446 L121,192.2446 A5,5 0 0 1 126,187.2446 " fill="#EEEEEE" style="stroke:#000000;stroke-width:2.0;"/><text fill="#000000" font-family="Arial" font-size="13" font-weight="bold" lengthAdjust="spacing" textLength="17" x="134" y="201.4385">ref</text><a href="interactions.html#sequenzdiagramm-plan-read" target="_top" title="interactions.html#sequenzdiagramm-plan-read" xlink:actuate="onRequest" xlink:href="interactions.html#sequenzdiagramm-plan-read" xlink:show="new" xlink:title="interactions.html#sequenzdiagramm-plan-read" xlink:type="simple"><text fill="#0000EE" font-family="Arial" font-size="12" lengthAdjust="spacing" textLength="59" x="285.5" y="218.5005">Plan-Read</text></a><path d="M42,240.9922 L42,269.9922 A5,5 0 0 0 47,274.9922 L249,274.9922 A5,5 0 0 0 254,269.9922 L254,245.9922 L244,235.9922 L47,235.9922 A5,5 0 0 0 42,240.9922 " fill="url(#g1kmvmu3nbvphr0)" style="stroke:#8B95A5;stroke-width:1.0;"/><path d="M244,235.9922 L244,243.4922 A2.5,2.5 0 0 0 246.5,245.9922 L254,245.9922 L244,235.9922 " fill="url(#g1kmvmu3nbvphr0)" style="stroke:#8B95A5;stroke-width:1.0;"/><text fill="#111827" font-family="Arial" font-size="13" lengthAdjust="spacing" textLength="162" x="48" y="253.186">GDA erh&#228;lt Medikationsplan</text><text fill="#111827" font-family="Arial" font-size="13" lengthAdjust="spacing" textLength="191" x="48" y="268.1348">(Auslieferungs-Collection-Bundle)</text><rect fill="#EEEEEE" height="3" rx="5" ry="5" style="stroke:#EEEEEE;stroke-width:1.0;" width="830" x="0" y="301.364"/><line style="stroke:#000000;stroke-width:1.0;" x1="0" x2="830" y1="301.364" y2="301.364"/><line style="stroke:#000000;stroke-width:1.0;" x1="0" x2="830" y1="304.364" y2="304.364"/><rect fill="#EEEEEE" height="22.9487" rx="5" ry="5" style="stroke:#000000;stroke-width:2.0;" width="304" x="263" y="290.8896"/><text fill="#000000" font-family="Arial" font-size="13" font-style="italic" font-weight="bold" lengthAdjust="spacing" textLength="115" x="269" y="307.0835">Geplante Abgaben</text><text fill="#000000" font-family="Arial" font-size="13" font-weight="bold" lengthAdjust="spacing" textLength="167" x="388" y="307.0835">vorbereiten und schreiben</text><path d="M16,333.8384 L16,392.8384 A5,5 0 0 0 21,397.8384 L275,397.8384 A5,5 0 0 0 280,392.8384 L280,338.8384 L270,328.8384 L21,328.8384 A5,5 0 0 0 16,333.8384 " fill="url(#g1kmvmu3nbvphr0)" style="stroke:#8B95A5;stroke-width:1.0;"/><path d="M270,328.8384 L270,336.3384 A2.5,2.5 0 0 0 272.5,338.8384 L280,338.8384 L270,328.8384 " fill="url(#g1kmvmu3nbvphr0)" style="stroke:#8B95A5;stroke-width:1.0;"/><text fill="#111827" font-family="Arial" font-size="13" lengthAdjust="spacing" textLength="48" x="22" y="346.0322">Erstellte</text><text fill="#111827" font-family="Arial" font-size="13" font-style="italic" lengthAdjust="spacing" textLength="109" x="74" y="346.0322">Geplante Abgaben</text><text fill="#111827" font-family="Arial" font-size="13" lengthAdjust="spacing" textLength="74" x="187" y="346.0322">referenzieren</text><text fill="#111827" font-family="Arial" font-size="13" lengthAdjust="spacing" textLength="211" x="22" y="360.981">zugeh&#246;rige Medikationsplaneintr&#228;ge;</text><text fill="#111827" font-family="Arial" font-size="13" lengthAdjust="spacing" textLength="203" x="22" y="375.9297">groupIdentifier f&#252;r "Rezeptklammer"</text><text fill="#111827" font-family="Arial" font-size="13" lengthAdjust="spacing" textLength="56" x="22" y="390.8784">bleibt leer</text><path d="M15,410.6333 L76,410.6333 L76,417.582 L66,427.582 L10,427.582 L10,415.6333 A5,5 0 0 1 15,410.6333 " fill="#EEF2FF" style="stroke:#111827;stroke-width:1.5;"/><rect fill="none" height="503.0752" rx="5" ry="5" style="stroke:#111827;stroke-width:2.0;" width="737.5" x="10" y="410.6333"/><text fill="#000000" font-family="Arial" font-size="13" font-weight="bold" lengthAdjust="spacing" textLength="21" x="25" y="423.8271">par</text><text fill="#000000" font-family="Arial" font-size="11" font-weight="bold" lengthAdjust="spacing" textLength="116" x="91" y="422.9512">[Erstellung e-Rezept]</text><polygon fill="#111827" points="655,444.5308,665,448.5308,655,452.5308,659,448.5308" style="stroke:#111827;stroke-width:1.0;"/><line style="stroke:#111827;stroke-width:1.0;" x1="153" x2="661" y1="448.5308" y2="448.5308"/><text fill="#000000" font-family="Arial" font-size="13" font-weight="bold" lengthAdjust="spacing" textLength="7" x="160" y="443.7759">1</text><text fill="#000000" font-family="Arial" font-size="13" lengthAdjust="spacing" textLength="148" x="171" y="443.7759">Trigger e-Rezept erstellen</text><path d="M50,466.5308 L50,495.5308 A5,5 0 0 0 55,500.5308 L240,500.5308 A5,5 0 0 0 245,495.5308 L245,471.5308 L235,461.5308 L55,461.5308 A5,5 0 0 0 50,466.5308 " fill="url(#g1kmvmu3nbvphr0)" style="stroke:#8B95A5;stroke-width:1.0;"/><path d="M235,461.5308 L235,469.0308 A2.5,2.5 0 0 0 237.5,471.5308 L245,471.5308 L235,461.5308 " fill="url(#g1kmvmu3nbvphr0)" style="stroke:#8B95A5;stroke-width:1.0;"/><text fill="#111827" font-family="Arial" font-size="13" lengthAdjust="spacing" textLength="174" x="56" y="478.7246">Erstellung e-Rezept ausl&#246;sen,</text><text fill="#111827" font-family="Arial" font-size="13" lengthAdjust="spacing" textLength="155" x="56" y="493.6733">ohne e-Med GroupIdentifier</text><path d="M119,513.4282 L175,513.4282 L175,520.377 L165,530.377 L114,530.377 L114,518.4282 A5,5 0 0 1 119,513.4282 " fill="#EEF2FF" style="stroke:#111827;stroke-width:1.5;"/><rect fill="none" height="89.4951" rx="5" ry="5" style="stroke:#111827;stroke-width:2.0;" width="623.5" x="114" y="513.4282"/><text fill="#000000" font-family="Arial" font-size="13" font-weight="bold" lengthAdjust="spacing" textLength="16" x="129" y="526.6221">alt</text><text fill="#000000" font-family="Arial" font-size="11" font-weight="bold" lengthAdjust="spacing" textLength="100" x="190" y="525.7461">[e-Rezept erstellt]</text><polygon fill="#111827" points="164,547.3257,154,551.3257,164,555.3257,160,551.3257" style="stroke:#111827;stroke-width:1.0;"/><line style="stroke:#111827;stroke-width:1.0;stroke-dasharray:2.0,2.0;" x1="158" x2="666" y1="551.3257" y2="551.3257"/><text fill="#000000" font-family="Arial" font-size="13" font-weight="bold" lengthAdjust="spacing" textLength="7" x="170" y="546.5708">2</text><text fill="#000000" font-family="Arial" font-size="13" lengthAdjust="spacing" textLength="19" x="181" y="546.5708">OK</text><line style="stroke:#111827;stroke-width:1.0;stroke-dasharray:2.0,2.0;" x1="114" x2="737.5" y1="560.3257" y2="560.3257"/><text fill="#000000" font-family="Arial" font-size="11" font-weight="bold" lengthAdjust="spacing" textLength="95" x="119" y="570.6436">[e-Rezept Fehler]</text><polygon fill="#111827" points="164,590.9233,154,594.9233,164,598.9233,160,594.9233" style="stroke:#111827;stroke-width:1.0;"/><line style="stroke:#111827;stroke-width:1.0;stroke-dasharray:2.0,2.0;" x1="158" x2="671" y1="594.9233" y2="594.9233"/><text fill="#000000" font-family="Arial" font-size="13" font-weight="bold" lengthAdjust="spacing" textLength="7" x="170" y="590.1685">3</text><text fill="#000000" font-family="Arial" font-size="13" lengthAdjust="spacing" textLength="36" x="181" y="590.1685">Fehler</text><line style="stroke:#111827;stroke-width:1.0;stroke-dasharray:2.0,2.0;" x1="10" x2="747.5" y1="610.9233" y2="610.9233"/><text fill="#000000" font-family="Arial" font-size="11" font-weight="bold" lengthAdjust="spacing" textLength="133" x="15" y="621.2412">[gleichzeitige Erstellung</text><text fill="#000000" font-family="Arial" font-size="11" font-style="italic" font-weight="bold" lengthAdjust="spacing" textLength="95" x="151" y="621.2412">Geplante Abgabe</text><text fill="#000000" font-family="Arial" font-size="11" font-weight="bold" lengthAdjust="spacing" textLength="4" x="246" y="621.2412">]</text><polygon fill="#111827" points="431,641.521,441,645.521,431,649.521,435,645.521" style="stroke:#111827;stroke-width:1.0;"/><line style="stroke:#111827;stroke-width:1.0;" x1="153" x2="437" y1="645.521" y2="645.521"/><text fill="#000000" font-family="Arial" font-size="13" font-weight="bold" lengthAdjust="spacing" textLength="7" x="160" y="640.7661">4</text><text fill="#000000" font-family="Arial" font-size="13" lengthAdjust="spacing" textLength="225" x="171" y="640.7661">POST Transaction Bundle GeplAbgabe</text><path d="M20,663.521 L20,692.521 A5,5 0 0 0 25,697.521 L271,697.521 A5,5 0 0 0 276,692.521 L276,668.521 L266,658.521 L25,658.521 A5,5 0 0 0 20,663.521 " fill="url(#g1kmvmu3nbvphr0)" style="stroke:#8B95A5;stroke-width:1.0;"/><path d="M266,658.521 L266,666.021 A2.5,2.5 0 0 0 268.5,668.521 L276,668.521 L266,658.521 " fill="url(#g1kmvmu3nbvphr0)" style="stroke:#8B95A5;stroke-width:1.0;"/><text fill="#111827" font-family="Arial" font-size="13" lengthAdjust="spacing" textLength="196" x="26" y="675.7148">Transaction Bundle mit Geplanten</text><text fill="#111827" font-family="Arial" font-size="13" lengthAdjust="spacing" textLength="235" x="26" y="690.6636">Abgaben an Fachanwendung &#252;bermitteln</text><path d="M119,710.4185 L175,710.4185 L175,717.3672 L165,727.3672 L114,727.3672 L114,715.4185 A5,5 0 0 1 119,710.4185 " fill="#EEF2FF" style="stroke:#111827;stroke-width:1.5;"/><rect fill="none" height="196.29" rx="5" ry="5" style="stroke:#111827;stroke-width:2.0;" width="558" x="114" y="710.4185"/><text fill="#000000" font-family="Arial" font-size="13" font-weight="bold" lengthAdjust="spacing" textLength="16" x="129" y="723.6123">alt</text><text fill="#000000" font-family="Arial" font-size="11" font-weight="bold" lengthAdjust="spacing" textLength="152" x="190" y="722.7363">[Geplante Abgaben erstellt]</text><line style="stroke:#111827;stroke-width:1.0;" x1="453" x2="495" y1="763.2646" y2="763.2646"/><line style="stroke:#111827;stroke-width:1.0;" x1="495" x2="495" y1="763.2646" y2="776.2646"/><line style="stroke:#111827;stroke-width:1.0;" x1="454" x2="495" y1="776.2646" y2="776.2646"/><polygon fill="#111827" points="464,772.2646,454,776.2646,464,780.2646,460,776.2646" style="stroke:#111827;stroke-width:1.0;"/><text fill="#000000" font-family="Arial" font-size="13" font-weight="bold" lengthAdjust="spacing" textLength="7" x="460" y="751.0354">5</text><text fill="#000000" font-family="Arial" font-size="13" lengthAdjust="spacing" textLength="180" x="471" y="743.561">e-Med GroupIdentifier erzeugen</text><text fill="#000000" font-family="Arial" font-size="13" lengthAdjust="spacing" textLength="189" x="471" y="758.5098">+ geplanten Abgaben hinzuf&#252;gen</text><path d="M368,794.2646 L368,823.2646 A5,5 0 0 0 373,828.2646 L522,828.2646 A5,5 0 0 0 527,823.2646 L527,799.2646 L517,789.2646 L373,789.2646 A5,5 0 0 0 368,794.2646 " fill="url(#g1kmvmu3nbvphr0)" style="stroke:#8B95A5;stroke-width:1.0;"/><path d="M517,789.2646 L517,796.7646 A2.5,2.5 0 0 0 519.5,799.2646 L527,799.2646 L517,789.2646 " fill="url(#g1kmvmu3nbvphr0)" style="stroke:#8B95A5;stroke-width:1.0;"/><text fill="#111827" font-family="Arial" font-size="13" lengthAdjust="spacing" textLength="134" x="374" y="806.4585">Geplante Abgabe 1 + 2</text><text fill="#111827" font-family="Arial" font-size="13" lengthAdjust="spacing" textLength="67" x="374" y="821.4072">gespeichert</text><polygon fill="#111827" points="164,851.1108,154,855.1108,164,859.1108,160,855.1108" style="stroke:#111827;stroke-width:1.0;"/><line style="stroke:#111827;stroke-width:1.0;" x1="158" x2="442" y1="855.1108" y2="855.1108"/><text fill="#000000" font-family="Arial" font-size="13" font-weight="bold" lengthAdjust="spacing" textLength="7" x="170" y="850.356">6</text><text fill="#000000" font-family="Arial" font-size="13" lengthAdjust="spacing" textLength="255" x="181" y="850.356">OK (Ressourcen inkl. e-Med GroupIdentifier)</text><line style="stroke:#111827;stroke-width:1.0;stroke-dasharray:2.0,2.0;" x1="114" x2="672" y1="864.1108" y2="864.1108"/><text fill="#000000" font-family="Arial" font-size="11" font-weight="bold" lengthAdjust="spacing" textLength="140" x="119" y="874.4287">[Geplante Abgabe Fehler]</text><polygon fill="#111827" points="164,894.7085,154,898.7085,164,902.7085,160,898.7085" style="stroke:#111827;stroke-width:1.0;"/><line style="stroke:#111827;stroke-width:1.0;stroke-dasharray:2.0,2.0;" x1="158" x2="447" y1="898.7085" y2="898.7085"/><text fill="#000000" font-family="Arial" font-size="13" font-weight="bold" lengthAdjust="spacing" textLength="7" x="170" y="893.9536">7</text><text fill="#000000" font-family="Arial" font-size="13" lengthAdjust="spacing" textLength="36" x="181" y="893.9536">Fehler</text><polygon fill="#111827" points="655,937.6572,665,941.6572,655,945.6572,659,941.6572" style="stroke:#111827;stroke-width:1.0;"/><line style="stroke:#111827;stroke-width:1.0;" x1="153" x2="661" y1="941.6572" y2="941.6572"/><text fill="#000000" font-family="Arial" font-size="13" font-weight="bold" lengthAdjust="spacing" textLength="7" x="160" y="936.9023">8</text><text fill="#000000" font-family="Arial" font-size="13" lengthAdjust="spacing" textLength="266" x="171" y="936.9023">e-Rezept mit e-Med GroupIdentifier verkn&#252;pfen</text><line style="stroke:#111827;stroke-width:1.0;" x1="677" x2="719" y1="985.5547" y2="985.5547"/><line style="stroke:#111827;stroke-width:1.0;" x1="719" x2="719" y1="985.5547" y2="998.5547"/><line style="stroke:#111827;stroke-width:1.0;" x1="678" x2="719" y1="998.5547" y2="998.5547"/><polygon fill="#111827" points="688,994.5547,678,998.5547,688,1002.5547,684,998.5547" style="stroke:#111827;stroke-width:1.0;"/><text fill="#000000" font-family="Arial" font-size="13" font-weight="bold" lengthAdjust="spacing" textLength="7" x="684" y="973.3254">9</text><text fill="#000000" font-family="Arial" font-size="13" lengthAdjust="spacing" textLength="123" x="695" y="965.8511">e-Med GroupIdentifier</text><text fill="#000000" font-family="Arial" font-size="13" lengthAdjust="spacing" textLength="53" x="695" y="980.7998">erg&#228;nzen</text><path d="M572,1016.5547 L572,1045.5547 A5,5 0 0 0 577,1050.5547 L766,1050.5547 A5,5 0 0 0 771,1045.5547 L771,1021.5547 L761,1011.5547 L577,1011.5547 A5,5 0 0 0 572,1016.5547 " fill="url(#g1kmvmu3nbvphr0)" style="stroke:#8B95A5;stroke-width:1.0;"/><path d="M761,1011.5547 L761,1019.0547 A2.5,2.5 0 0 0 763.5,1021.5547 L771,1021.5547 L761,1011.5547 " fill="url(#g1kmvmu3nbvphr0)" style="stroke:#8B95A5;stroke-width:1.0;"/><text fill="#111827" font-family="Arial" font-size="13" lengthAdjust="spacing" textLength="154" x="578" y="1028.7485">Bestehendes e-Rezept mit</text><text fill="#111827" font-family="Arial" font-size="13" lengthAdjust="spacing" textLength="178" x="578" y="1043.6973">e-Med GroupIdentifier verkn&#252;pft</text><polygon fill="#111827" points="164,1073.4009,154,1077.4009,164,1081.4009,160,1077.4009" style="stroke:#111827;stroke-width:1.0;"/><line style="stroke:#111827;stroke-width:1.0;stroke-dasharray:2.0,2.0;" x1="158" x2="671" y1="1077.4009" y2="1077.4009"/><text fill="#000000" font-family="Arial" font-size="13" font-weight="bold" lengthAdjust="spacing" textLength="14" x="170" y="1072.646">10</text><text fill="#000000" font-family="Arial" font-size="13" lengthAdjust="spacing" textLength="19" x="188" y="1072.646">OK</text><!--SRC=[ZLPHSzeu47xthzY3XskdfOTDIKAkoGnf8DVfDJ24wyErdOp0Ywt1o5GsoPMR-pVv3NtA6t_iLfAnPUFqpimmjlJjwjlTRoMbF8qGhd0TCP4Yz6S1co4iTeyIPfYa6ABm4JwWpvSivR58512vIENk8K10IPWeGl5PV6IIQnzlJ-6QpKEDYFWyHFY8SYbsZ-l5HWJWOmBOck0Mrsa2AvxIo8f6Q0sual5c_Sv7aV85H-auFoTBBjPCiXMmUHhBc_GRqMNtcCGhT9nYTXPB7-NRE8ebDDlwiMVPV1cGR-5dY4LN_In44Z8_lkV4Ry6Y1AsPp4mAbE3QJdrSi4sK3cEHNhCLGgDF2OWQDcSBSiEt2ExhUlkdUF_sROqouc9f0GQ3Ei0VL2RrWWVyB-A_niptLMXUkpn-OIUjgnyxfoAcQlxj05nKquTjx2xQhQRl-ZqyKWZRqycirsNTV7GQylbIO9A0IsCJAvrj-jvpKrwiLBYkU-8TqzXDfJ3_s0mJ_Bf1CJSinqocVCxN9CAwmCg00q7efmmwhCp1zBwgfGahtG1zAUFxQb1wi9mNFLItOZvXrkhGa6wJKeovPpDrK2zSU3ewox9OtbD9_OdagEJpTlJxQ79xTTc_TO6UfjizQfzu9-qQWAS1lQEZzl7b0M3SdxuRN4-LXzxHXVVw0D0VZq0_pVQmDxZizgg0mOV1vUsmJm3i7NiTR-PN0RUJmP-3yHIQSxzptF5Ohnh6w3sKrl2wLHUJoMYY0OFUiTlnEjG0UgC1am6MG8FUm6tOYN6STL5jGDgv54-5DTlOiDyenr0nk3MxNsPXFXgLe8Z79et5PZLJ- -3PMNKF1ZQJcmKAE3lJbFaTesurh6sg4XSGts4MqCkSxIby-aJRE4fbIpvVXUagQfg6slgS1THVgvPQgIMH-J1MRnDw-_B5SHozDHHk7PKZbE7k8KeFY3hF-fiauhX0IVj_qY9DHgWNRLsGH2Dyxj0XetSR7UWRVbuvZyIRN_WvtCMISe4yfQ393f9vI5-pB0LLHWDpCj7WK_waOaJ1SlKFpdOJOBZxBddmz7dtgnEKJoXpKZPC2PSHfGnbmvb5n2k52AbqHMWa0SXOgNDmNtX7jQKkM-iybyOfJ8b8G0liOSLHI_YythcKAk81gEO3wjO6HfNPVKzGl2H0759Vr1_404KSj7oK5WrM9PWwgfzoOYsAIZCuXT5xPOoqYvUwBtSmn33IQzMRcsdGypuUfC1mT1pjFw0ApCCjYKMLquhyK0nA2sHRgeBfaLCOZswcL0ac4jCbO0Ihxql6sbWMPBBkAdT_NJMWpg-w3Utf2GtA10lKHqEwL35nJq6gG7QFr0o4fy34ZyfJbNvH9fFeZB0TTQq4o6wBr29qqti1mPvZxZNaOhkXPY20SLn4dFdLezMBfWilm3Cb3J1PgwAXp1HaHLJYcQi9date-8etSau4w0uKlQgd_hnMTbKgjlhsY_st-BBOSl6flvfkpZMkAboVtxlz9Vd_TdZH8-MLQfn_fjjMi7iGM-tRAatHEtHRo-_xIOclIScFEQUs19_i_lg-_HS0]--></g></svg>