<svg xmlns="http://www.w3.org/2000/svg" xmlns:xlink="http://www.w3.org/1999/xlink" contentStyleType="text/css" data-diagram-type="SEQUENCE" height="1827px" preserveAspectRatio="none" style="width:1084px;height:1827px;background:#F5F5F5;" version="1.1" viewBox="0 0 1084 1827" width="1084px" zoomAndPan="magnify"><?plantuml 1.2026.3beta6?><defs><linearGradient id="grq4khiu03fjz0" x1="50%" x2="50%" y1="0%" y2="100%"><stop offset="0%" stop-color="#E0E5F0"/><stop offset="100%" stop-color="#D1D9E6"/></linearGradient><filter height="300%" id="frq4khiu03fjz" width="300%" x="-1" y="-1"><feGaussianBlur result="blurOut" stdDeviation="2"/><feColorMatrix in="blurOut" result="blurOut2" type="matrix" values="0 0 0 0 0 0 0 0 0 0 0 0 0 0 0 0 0 0 .4 0"/><feOffset dx="4" dy="4" in="blurOut2" result="blurOut3"/><feBlend in="SourceGraphic" in2="blurOut3" mode="normal"/></filter></defs><g><rect fill="#F5F5F5" height="1827" style="stroke:none;stroke-width:1;" width="1084" x="0" y="0"/><g class="title" data-source-line="1"><text fill="#000000" font-family="'Arial'" font-size="14" font-weight="700" lengthAdjust="spacing" textLength="679.3896" x="199.0461" y="27.9951">Geplante Abgabe aus bestehenden Medikationsplaneintr&#228;gen (unver&#228;ndert) erstellen</text></g><rect fill="#9FBAC4" height="1777.4297" rx="5" ry="5" style="stroke:#181818;stroke-width:0.5;" width="74.0586" x="131" y="43.2969"/><text fill="#000000" font-family="'Arial'" font-size="14" font-weight="700" lengthAdjust="spacing" textLength="4.874" x="134" y="56.292">&#160;</text><text fill="#000000" font-family="'Arial'" font-size="14" font-weight="700" lengthAdjust="spacing" textLength="48.5625" x="143.748" y="72.5889">GDA 1</text><rect fill="#C48778" height="1777.4297" rx="5" ry="5" style="stroke:#181818;stroke-width:0.5;" width="256.9268" x="377.2085" y="43.2969"/><text fill="#000000" font-family="'Arial'" font-size="14" font-weight="700" lengthAdjust="spacing" textLength="4.874" x="380.2085" y="56.292">&#160;</text><text fill="#000000" font-family="'Arial'" font-size="14" font-weight="700" lengthAdjust="spacing" textLength="182.6904" x="414.3267" y="72.5889">e-Med Fachanwendung</text><rect fill="#CBB272" height="1777.4297" rx="5" ry="5" style="stroke:#181818;stroke-width:0.5;" width="124.3438" x="841.5244" y="43.2969"/><text fill="#000000" font-family="'Arial'" font-size="14" font-weight="700" lengthAdjust="spacing" textLength="4.874" x="854.105" y="56.292">&#160;</text><text fill="#000000" font-family="'Arial'" font-size="14" font-weight="700" lengthAdjust="spacing" textLength="69.9385" x="873.6011" y="72.5889">e-Rezept</text><g><title>GDA 1</title><rect fill="#FFFFFF" height="1500.8125" style="stroke:#181818;stroke-width:1;" width="10" x="163.0293" y="231.6172"/></g><g><title>e-Med FA</title><rect fill="#FFFFFF" height="305.2188" style="stroke:#181818;stroke-width:1;" width="10" x="500.6719" y="231.6172"/></g><g><title>e-Med FA</title><rect fill="#FFFFFF" height="126.8594" style="stroke:#181818;stroke-width:1;" width="10" x="500.6719" y="819.9844"/></g><g><title>e-Med FA</title><rect fill="#FFFFFF" height="684.8594" style="stroke:#181818;stroke-width:1;" width="10" x="500.6719" y="1031.5703"/></g><g><title>e-Rezept</title><rect fill="#FFFFFF" height="110.5625" style="stroke:#181818;stroke-width:1;" width="10" x="898.6963" y="1145.4297"/></g><rect fill="none" height="240.9531" rx="5" ry="5" style="stroke:#111827;stroke-width:2;" width="706.1475" x="132.7476" y="303.8828"/><rect fill="none" height="177.5859" rx="5" ry="5" style="stroke:#111827;stroke-width:2;" width="633.6382" x="132.7476" y="1313.125"/><rect fill="none" height="177.5859" rx="5" ry="5" style="stroke:#111827;stroke-width:2;" width="633.6382" x="132.7476" y="1546.8438"/><g class="participant-lifeline" data-entity-uid="part1" data-qualified-name="GDA_1" data-source-line="43" id="part1-lifeline"><g><title>GDA 1</title><rect fill="#000000" fill-opacity="0.00000" height="1585.2422" width="8" x="164.0293" y="156.1875"/><line style="stroke:#181818;stroke-width:0.5;stroke-dasharray:5,5;" x1="167.7476" x2="167.7476" y1="156.1875" y2="1741.4297"/></g></g><g class="participant-lifeline" data-entity-uid="part2" data-qualified-name="eMed_FA" data-source-line="47" id="part2-lifeline"><g><title>e-Med FA</title><rect fill="#000000" fill-opacity="0.00000" height="1585.2422" width="8" x="501.6719" y="156.1875"/><line style="stroke:#181818;stroke-width:0.5;stroke-dasharray:5,5;" x1="505.0098" x2="505.0098" y1="156.1875" y2="1741.4297"/></g></g><g class="participant-lifeline" data-entity-uid="part3" data-qualified-name="e_Rezept" data-source-line="51" id="part3-lifeline"><g><title>e-Rezept</title><rect fill="#000000" fill-opacity="0.00000" height="1585.2422" width="8" x="899.6963" y="156.1875"/><line style="stroke:#181818;stroke-width:0.5;stroke-dasharray:5,5;" x1="903.5244" x2="903.5244" y1="156.1875" y2="1741.4297"/></g></g><g class="participant participant-head" data-entity-uid="part1" data-qualified-name="GDA_1" data-source-line="43" id="part1-head"><text fill="#000000" font-family="'Arial'" font-size="14" lengthAdjust="spacing" textLength="44.5635" x="142.7476" y="152.8857">GDA 1</text><ellipse cx="168.0293" cy="88.3906" fill="#E2E2F0" rx="8" ry="8" style="stroke:#181818;stroke-width:0.5;"/><path d="M168.0293,96.3906 L168.0293,123.3906 M155.0293,104.3906 L181.0293,104.3906 M168.0293,123.3906 L155.0293,138.3906 M168.0293,123.3906 L181.0293,138.3906" fill="none" style="stroke:#181818;stroke-width:0.5;"/></g><g class="participant participant-tail" data-entity-uid="part1" data-qualified-name="GDA_1" data-source-line="43" id="part1-tail"><text fill="#000000" font-family="'Arial'" font-size="14" lengthAdjust="spacing" textLength="44.5635" x="142.7476" y="1753.4248">GDA 1</text><ellipse cx="168.0293" cy="1765.2266" fill="#E2E2F0" rx="8" ry="8" style="stroke:#181818;stroke-width:0.5;"/><path d="M168.0293,1773.2266 L168.0293,1800.2266 M155.0293,1781.2266 L181.0293,1781.2266 M168.0293,1800.2266 L155.0293,1815.2266 M168.0293,1800.2266 L181.0293,1815.2266" fill="none" style="stroke:#181818;stroke-width:0.5;"/></g><g class="participant participant-head" data-entity-uid="part2" data-qualified-name="eMed_FA" data-source-line="47" id="part2-head"><rect fill="#FFFFFF" height="30.2969" rx="5" ry="5" style="stroke:#555555;stroke-width:0.5;" width="79.3242" x="466.0098" y="124.8906"/><text fill="#000000" font-family="'Arial'" font-size="14" lengthAdjust="spacing" textLength="65.3242" x="473.0098" y="144.8857">e-Med FA</text></g><g class="participant participant-tail" data-entity-uid="part2" data-qualified-name="eMed_FA" data-source-line="47" id="part2-tail"><rect fill="#FFFFFF" height="30.2969" rx="5" ry="5" style="stroke:#555555;stroke-width:0.5;" width="79.3242" x="466.0098" y="1740.4297"/><text fill="#000000" font-family="'Arial'" font-size="14" lengthAdjust="spacing" textLength="65.3242" x="473.0098" y="1760.4248">e-Med FA</text></g><g class="participant participant-head" data-entity-uid="part3" data-qualified-name="e_Rezept" data-source-line="51" id="part3-head"><rect fill="#FFFFFF" height="30.2969" rx="5" ry="5" style="stroke:#555555;stroke-width:0.5;" width="76.3438" x="865.5244" y="124.8906"/><text fill="#000000" font-family="'Arial'" font-size="14" lengthAdjust="spacing" textLength="62.3438" x="872.5244" y="144.8857">e-Rezept</text></g><g class="participant participant-tail" data-entity-uid="part3" data-qualified-name="e_Rezept" data-source-line="51" id="part3-tail"><rect fill="#FFFFFF" height="30.2969" rx="5" ry="5" style="stroke:#555555;stroke-width:0.5;" width="76.3438" x="865.5244" y="1740.4297"/><text fill="#000000" font-family="'Arial'" font-size="14" lengthAdjust="spacing" textLength="62.3438" x="872.5244" y="1760.4248">e-Rezept</text></g><g><title>GDA 1</title><rect fill="#FFFFFF" height="1500.8125" style="stroke:#181818;stroke-width:1;" width="10" x="163.0293" y="231.6172"/></g><g><title>e-Med FA</title><rect fill="#FFFFFF" height="305.2188" style="stroke:#181818;stroke-width:1;" width="10" x="500.6719" y="231.6172"/></g><g><title>e-Med FA</title><rect fill="#FFFFFF" height="126.8594" style="stroke:#181818;stroke-width:1;" width="10" x="500.6719" y="819.9844"/></g><g><title>e-Med FA</title><rect fill="#FFFFFF" height="684.8594" style="stroke:#181818;stroke-width:1;" width="10" x="500.6719" y="1031.5703"/></g><g><title>e-Rezept</title><rect fill="#FFFFFF" height="110.5625" style="stroke:#181818;stroke-width:1;" width="10" x="898.6963" y="1145.4297"/></g><rect fill="#EEEEEE" height="3" rx="5" ry="5" style="stroke:#EEEEEE;stroke-width:1;" width="1078.4819" x="0" y="187.3359"/><line style="stroke:#000000;stroke-width:1;" x1="0" x2="1078.4819" y1="187.3359" y2="187.3359"/><line style="stroke:#000000;stroke-width:1;" x1="0" x2="1078.4819" y1="190.3359" y2="190.3359"/><rect fill="#EEEEEE" height="24.2969" rx="5" ry="5" style="stroke:#000000;stroke-width:2;" width="336.7041" x="370.8889" y="176.1875"/><text fill="#000000" font-family="'Arial'" font-size="14" font-weight="700" lengthAdjust="spacing" textLength="317.8301" x="376.8889" y="193.1826">Medikationsplan abrufen ($readtowrite)</text><g class="message" data-entity-1="part1" data-entity-2="part2" data-source-line="58" id="msg1"><line style="stroke:#111827;stroke-width:1;" x1="498.6719" x2="488.6719" y1="231.6172" y2="227.6172"/><line style="stroke:#111827;stroke-width:1;" x1="498.6719" x2="488.6719" y1="231.6172" y2="235.6172"/><line style="stroke:#111827;stroke-width:1;" x1="173.0293" x2="499.6719" y1="231.6172" y2="231.6172"/><text fill="#000000" font-family="'Arial'" font-size="13" font-weight="700" lengthAdjust="spacing" textLength="9.0454" x="180.0293" y="226.5513">1</text><text fill="#000000" font-family="'Arial'" font-size="13" lengthAdjust="spacing" textLength="121.9639" x="193.0747" y="226.5513">POST $readtowrite</text></g><g class="message" data-entity-1="part2" data-entity-2="part2" data-source-line="62" id="msg2"><line style="stroke:#111827;stroke-width:1;" x1="510.6719" x2="552.6719" y1="275.8828" y2="275.8828"/><line style="stroke:#111827;stroke-width:1;" x1="552.6719" x2="552.6719" y1="275.8828" y2="288.8828"/><line style="stroke:#111827;stroke-width:1;" x1="511.6719" x2="552.6719" y1="288.8828" y2="288.8828"/><polygon fill="#111827" points="521.6719,284.8828,511.6719,288.8828,521.6719,292.8828,517.6719,288.8828" style="stroke:#111827;stroke-width:1;"/><text fill="#000000" font-family="'Arial'" font-size="13" font-weight="700" lengthAdjust="spacing" textLength="9.0454" x="517.6719" y="263.2505">2</text><text fill="#000000" font-family="'Arial'" font-size="13" lengthAdjust="spacing" textLength="164.8613" x="530.7173" y="255.6841">Pr&#252;fung auf bestehenden</text><text fill="#000000" font-family="'Arial'" font-size="13" lengthAdjust="spacing" textLength="106.3169" x="530.7173" y="270.8169">Medikationsplan</text></g><path d="M137.7476,303.8828 L198.686,303.8828 L198.686,312.1797 L188.686,322.1797 L132.7476,322.1797 L132.7476,308.8828 A5,5 0 0 1 137.7476,303.8828" fill="#EEF2FF" style="stroke:#111827;stroke-width:1.5;"/><rect fill="none" height="240.9531" rx="5" ry="5" style="stroke:#111827;stroke-width:2;" width="706.1475" x="132.7476" y="303.8828"/><text fill="#000000" font-family="'Arial'" font-size="14" font-weight="700" lengthAdjust="spacing" textLength="20.9385" x="147.7476" y="317.8779">alt</text><text fill="#000000" font-family="'Arial'" font-size="14" font-weight="700" lengthAdjust="spacing" textLength="271.2773" x="213.686" y="318.8779">[kein Medikationsplan vorhanden]</text><g class="message" data-entity-1="part2" data-entity-2="part2" data-source-line="65" id="msg3"><line style="stroke:#111827;stroke-width:1;" x1="510.6719" x2="552.6719" y1="359.7422" y2="359.7422"/><line style="stroke:#111827;stroke-width:1;" x1="552.6719" x2="552.6719" y1="359.7422" y2="372.7422"/><line style="stroke:#111827;stroke-width:1;" x1="511.6719" x2="552.6719" y1="372.7422" y2="372.7422"/><polygon fill="#111827" points="521.6719,368.7422,511.6719,372.7422,521.6719,376.7422,517.6719,372.7422" style="stroke:#111827;stroke-width:1;"/><text fill="#000000" font-family="'Arial'" font-size="13" font-weight="700" lengthAdjust="spacing" textLength="9.0454" x="517.6719" y="347.1099">3</text><text fill="#000000" font-family="'Arial'" font-size="13" lengthAdjust="spacing" textLength="172.5356" x="530.7173" y="339.5435">Leere Medikationsplan mit</text><text fill="#000000" font-family="'Arial'" font-size="13" lengthAdjust="spacing" textLength="173.5767" x="530.7173" y="354.6763">emptyReason "notstarted"</text></g><g class="message" data-entity-1="part2" data-entity-2="part1" data-source-line="66" id="msg4"><line style="stroke:#111827;stroke-width:1;" x1="174.0293" x2="184.0293" y1="401.875" y2="397.875"/><line style="stroke:#111827;stroke-width:1;" x1="174.0293" x2="184.0293" y1="401.875" y2="405.875"/><line style="stroke:#111827;stroke-width:1;stroke-dasharray:2,2;" x1="173.0293" x2="499.6719" y1="401.875" y2="401.875"/><text fill="#000000" font-family="'Arial'" font-size="13" font-weight="700" lengthAdjust="spacing" textLength="9.0454" x="190.0293" y="396.8091">4</text><text fill="#000000" font-family="'Arial'" font-size="13" lengthAdjust="spacing" textLength="152.3755" x="203.0747" y="396.8091">Leerer Medikationsplan</text></g><line style="stroke:#111827;stroke-width:1;stroke-dasharray:2,2;" x1="132.7476" x2="838.895" y1="410.875" y2="410.875"/><text fill="#000000" font-family="'Arial'" font-size="14" font-weight="700" lengthAdjust="spacing" textLength="232.832" x="137.7476" y="423.8701">[Medikationsplan vorhanden]</text><g class="message" data-entity-1="part2" data-entity-2="part2" data-source-line="69" id="msg5"><line style="stroke:#111827;stroke-width:1;" x1="510.6719" x2="552.6719" y1="494.7031" y2="494.7031"/><line style="stroke:#111827;stroke-width:1;" x1="552.6719" x2="552.6719" y1="494.7031" y2="507.7031"/><line style="stroke:#111827;stroke-width:1;" x1="511.6719" x2="552.6719" y1="507.7031" y2="507.7031"/><polygon fill="#111827" points="521.6719,503.7031,511.6719,507.7031,521.6719,511.7031,517.6719,507.7031" style="stroke:#111827;stroke-width:1;"/><text fill="#000000" font-family="'Arial'" font-size="13" font-weight="700" lengthAdjust="spacing" textLength="9.0454" x="517.6719" y="466.938">5</text><text fill="#000000" font-family="'Arial'" font-size="13" lengthAdjust="spacing" textLength="207.4922" x="530.7173" y="444.2388">Auslieferungs-Collection-Bundle</text><text fill="#000000" font-family="'Arial'" font-size="13" lengthAdjust="spacing" textLength="206.2163" x="530.7173" y="459.3716">(mit tempor&#228;ren List.identifier):</text><text fill="#000000" font-family="'Arial'" font-size="13" lengthAdjust="spacing" textLength="286.1777" x="530.7173" y="474.5044">- List.entry.flag: new|changed &#8594; unchanged</text><text fill="#000000" font-family="'Arial'" font-size="13" lengthAdjust="spacing" textLength="247.895" x="530.7173" y="489.6372">- List.entry.flag: removed &#8594; entfernen</text></g><g class="message" data-entity-1="part2" data-entity-2="part1" data-source-line="70" id="msg6"><line style="stroke:#111827;stroke-width:1;" x1="174.0293" x2="184.0293" y1="536.8359" y2="532.8359"/><line style="stroke:#111827;stroke-width:1;" x1="174.0293" x2="184.0293" y1="536.8359" y2="540.8359"/><line style="stroke:#111827;stroke-width:1;stroke-dasharray:2,2;" x1="173.0293" x2="504.6719" y1="536.8359" y2="536.8359"/><text fill="#000000" font-family="'Arial'" font-size="13" font-weight="700" lengthAdjust="spacing" textLength="9.0454" x="190.0293" y="531.77">6</text><text fill="#000000" font-family="'Arial'" font-size="13" lengthAdjust="spacing" textLength="218.0483" x="203.0747" y="531.77">Collection Bundle + List.identifier</text></g><g class="message" data-entity-1="part1" data-entity-2="part1" data-source-line="74" id="msg7"><line style="stroke:#111827;stroke-width:1;" x1="173.0293" x2="215.0293" y1="588.1016" y2="588.1016"/><line style="stroke:#111827;stroke-width:1;" x1="215.0293" x2="215.0293" y1="588.1016" y2="601.1016"/><line style="stroke:#111827;stroke-width:1;" x1="174.0293" x2="215.0293" y1="601.1016" y2="601.1016"/><polygon fill="#111827" points="184.0293,597.1016,174.0293,601.1016,184.0293,605.1016,180.0293,601.1016" style="stroke:#111827;stroke-width:1;"/><text fill="#000000" font-family="'Arial'" font-size="13" font-weight="700" lengthAdjust="spacing" textLength="9.0454" x="180.0293" y="575.4692">7</text><text fill="#000000" font-family="'Arial'" font-size="13" lengthAdjust="spacing" textLength="186.1895" x="193.0747" y="567.9028">Geplante Abgabe 1 erstellen</text><text fill="#000000" font-family="'Arial'" font-size="13" lengthAdjust="spacing" textLength="147.0308" x="193.0747" y="583.0356">(MedicationRequest 1)</text></g><g class="message" data-entity-1="part1" data-entity-2="part1" data-source-line="75" id="msg8"><line style="stroke:#111827;stroke-width:1;" x1="173.0293" x2="215.0293" y1="645.3672" y2="645.3672"/><line style="stroke:#111827;stroke-width:1;" x1="215.0293" x2="215.0293" y1="645.3672" y2="658.3672"/><line style="stroke:#111827;stroke-width:1;" x1="174.0293" x2="215.0293" y1="658.3672" y2="658.3672"/><polygon fill="#111827" points="184.0293,654.3672,174.0293,658.3672,184.0293,662.3672,180.0293,658.3672" style="stroke:#111827;stroke-width:1;"/><text fill="#000000" font-family="'Arial'" font-size="13" font-weight="700" lengthAdjust="spacing" textLength="9.0454" x="180.0293" y="632.7349">8</text><text fill="#000000" font-family="'Arial'" font-size="13" lengthAdjust="spacing" textLength="186.1895" x="193.0747" y="625.1685">Geplante Abgabe 2 erstellen</text><text fill="#000000" font-family="'Arial'" font-size="13" lengthAdjust="spacing" textLength="147.0308" x="193.0747" y="640.3013">(MedicationRequest 2)</text></g><path d="M5,676.3672 L5,741.3672 A5,5 0 0 0 10,746.3672 L324,746.3672 A5,5 0 0 0 329,741.3672 L329,681.3672 L319,671.3672 L10,671.3672 A5,5 0 0 0 5,676.3672" fill="url(#grq4khiu03fjz0)" filter="url(#frq4khiu03fjz)" style="stroke:#8B95A5;stroke-width:1;"/><path d="M319,671.3672 L319,678.8672 A2.5,2.5 0 0 0 321.5,681.3672 L329,681.3672 L319,671.3672" fill="url(#grq4khiu03fjz0)" style="stroke:#8B95A5;stroke-width:1;"/><text fill="#111827" font-family="'Arial'" font-size="14" lengthAdjust="spacing" textLength="214.4639" x="11" y="689.3623">Neue Geplante Abgaben 1 + 2</text><text fill="#111827" font-family="'Arial'" font-size="14" lengthAdjust="spacing" textLength="298.8193" x="11" y="705.6592">zu bestehenden Medikationsplaneintr&#228;gen</text><text fill="#111827" font-family="'Arial'" font-size="14" lengthAdjust="spacing" textLength="257.2158" x="11" y="721.9561">erstellen (referenzieren die jeweilige</text><text fill="#111827" font-family="'Arial'" font-size="14" lengthAdjust="spacing" textLength="202.46" x="11" y="738.2529">Medikationsplaneintrags-ids)</text><rect fill="#EEEEEE" height="3" rx="5" ry="5" style="stroke:#EEEEEE;stroke-width:1;" width="1078.4819" x="0" y="775.7031"/><line style="stroke:#000000;stroke-width:1;" x1="0" x2="1078.4819" y1="775.7031" y2="775.7031"/><line style="stroke:#000000;stroke-width:1;" x1="0" x2="1078.4819" y1="778.7031" y2="778.7031"/><rect fill="#EEEEEE" height="24.2969" rx="5" ry="5" style="stroke:#000000;stroke-width:2;" width="237.1523" x="420.6648" y="764.5547"/><text fill="#000000" font-family="'Arial'" font-size="14" font-weight="700" lengthAdjust="spacing" textLength="218.2783" x="426.6648" y="781.5498">Geplante Abgabe schreiben</text><g class="message" data-entity-1="part1" data-entity-2="part2" data-source-line="85" id="msg9"><polygon fill="#111827" points="488.6719,815.9844,498.6719,819.9844,488.6719,823.9844,492.6719,819.9844" style="stroke:#111827;stroke-width:1;"/><line style="stroke:#111827;stroke-width:1;" x1="173.0293" x2="494.6719" y1="819.9844" y2="819.9844"/><text fill="#000000" font-family="'Arial'" font-size="13" font-weight="700" lengthAdjust="spacing" textLength="9.0454" x="180.0293" y="814.9185">9</text><text fill="#000000" font-family="'Arial'" font-size="13" lengthAdjust="spacing" textLength="126.7373" x="193.0747" y="814.9185">e-Med-ID anfordern</text></g><path d="M26,837.9844 L26,869.9844 A5,5 0 0 0 31,874.9844 L300,874.9844 A5,5 0 0 0 305,869.9844 L305,842.9844 L295,832.9844 L31,832.9844 A5,5 0 0 0 26,837.9844" fill="url(#grq4khiu03fjz0)" filter="url(#frq4khiu03fjz)" style="stroke:#8B95A5;stroke-width:1;"/><path d="M295,832.9844 L295,840.4844 A2.5,2.5 0 0 0 297.5,842.9844 L305,842.9844 L295,832.9844" fill="url(#grq4khiu03fjz0)" style="stroke:#8B95A5;stroke-width:1;"/><text fill="#111827" font-family="'Arial'" font-size="14" lengthAdjust="spacing" textLength="258.2344" x="32" y="850.9795">GroupIdentifier f&#252;r "Rezeptklammer"</text><text fill="#111827" font-family="'Arial'" font-size="14" lengthAdjust="spacing" textLength="147.4102" x="32" y="867.2764">anfordern (e-Med-ID)</text><g class="message" data-entity-1="part2" data-entity-2="part2" data-source-line="93" id="msg10"><line style="stroke:#111827;stroke-width:1;" x1="510.6719" x2="552.6719" y1="904.7109" y2="904.7109"/><line style="stroke:#111827;stroke-width:1;" x1="552.6719" x2="552.6719" y1="904.7109" y2="917.7109"/><line style="stroke:#111827;stroke-width:1;" x1="511.6719" x2="552.6719" y1="917.7109" y2="917.7109"/><polygon fill="#111827" points="521.6719,913.7109,511.6719,917.7109,521.6719,921.7109,517.6719,917.7109" style="stroke:#111827;stroke-width:1;"/><text fill="#000000" font-family="'Arial'" font-size="13" font-weight="700" lengthAdjust="spacing" textLength="18.0908" x="517.6719" y="899.645">10</text><text fill="#000000" font-family="'Arial'" font-size="13" lengthAdjust="spacing" textLength="123.7158" x="539.7627" y="899.645">e-Med-ID erzeugen</text></g><g class="message" data-entity-1="part2" data-entity-2="part1" data-source-line="94" id="msg11"><line style="stroke:#111827;stroke-width:1;" x1="174.0293" x2="184.0293" y1="946.8438" y2="942.8438"/><line style="stroke:#111827;stroke-width:1;" x1="174.0293" x2="184.0293" y1="946.8438" y2="950.8438"/><line style="stroke:#111827;stroke-width:1;stroke-dasharray:2,2;" x1="173.0293" x2="504.6719" y1="946.8438" y2="946.8438"/><text fill="#000000" font-family="'Arial'" font-size="13" font-weight="700" lengthAdjust="spacing" textLength="18.0908" x="190.0293" y="941.7778">11</text><text fill="#000000" font-family="'Arial'" font-size="13" lengthAdjust="spacing" textLength="58.6904" x="212.1201" y="941.7778">e-Med-ID</text></g><path d="M20,964.8438 L20,996.8438 A5,5 0 0 0 25,1001.8438 L306,1001.8438 A5,5 0 0 0 311,996.8438 L311,969.8438 L301,959.8438 L25,959.8438 A5,5 0 0 0 20,964.8438" fill="url(#grq4khiu03fjz0)" filter="url(#frq4khiu03fjz)" style="stroke:#8B95A5;stroke-width:1;"/><path d="M301,959.8438 L301,967.3438 A2.5,2.5 0 0 0 303.5,969.8438 L311,969.8438 L301,959.8438" fill="url(#grq4khiu03fjz0)" style="stroke:#8B95A5;stroke-width:1;"/><text fill="#111827" font-family="'Arial'" font-size="14" lengthAdjust="spacing" textLength="266.499" x="26" y="977.8389">Geplante Abgaben mit groupIdentifier</text><text fill="#111827" font-family="'Arial'" font-size="14" lengthAdjust="spacing" textLength="143.5" x="26" y="994.1357">(e-Med-ID) versehen</text><g class="message" data-entity-1="part1" data-entity-2="part2" data-source-line="102" id="msg12"><line style="stroke:#111827;stroke-width:1;" x1="498.6719" x2="488.6719" y1="1031.5703" y2="1027.5703"/><line style="stroke:#111827;stroke-width:1;" x1="498.6719" x2="488.6719" y1="1031.5703" y2="1035.5703"/><line style="stroke:#111827;stroke-width:1;" x1="173.0293" x2="499.6719" y1="1031.5703" y2="1031.5703"/><text fill="#000000" font-family="'Arial'" font-size="13" font-weight="700" lengthAdjust="spacing" textLength="18.0908" x="180.0293" y="1026.5044">12</text><text fill="#000000" font-family="'Arial'" font-size="13" lengthAdjust="spacing" textLength="175.2842" x="202.1201" y="1026.5044">POST MedicationRequest 1</text></g><g class="message" data-entity-1="part1" data-entity-2="part2" data-source-line="104" id="msg13"><line style="stroke:#111827;stroke-width:1;" x1="498.6719" x2="488.6719" y1="1060.7031" y2="1056.7031"/><line style="stroke:#111827;stroke-width:1;" x1="498.6719" x2="488.6719" y1="1060.7031" y2="1064.7031"/><line style="stroke:#111827;stroke-width:1;" x1="173.0293" x2="499.6719" y1="1060.7031" y2="1060.7031"/><text fill="#000000" font-family="'Arial'" font-size="13" font-weight="700" lengthAdjust="spacing" textLength="18.0908" x="180.0293" y="1055.6372">13</text><text fill="#000000" font-family="'Arial'" font-size="13" lengthAdjust="spacing" textLength="175.2842" x="202.1201" y="1055.6372">POST MedicationRequest 2</text></g><path d="M44,1078.7031 L44,1110.7031 A5,5 0 0 0 49,1115.7031 L283,1115.7031 A5,5 0 0 0 288,1110.7031 L288,1083.7031 L278,1073.7031 L49,1073.7031 A5,5 0 0 0 44,1078.7031" fill="url(#grq4khiu03fjz0)" filter="url(#frq4khiu03fjz)" style="stroke:#8B95A5;stroke-width:1;"/><path d="M278,1073.7031 L278,1081.2031 A2.5,2.5 0 0 0 280.5,1083.7031 L288,1083.7031 L278,1073.7031" fill="url(#grq4khiu03fjz0)" style="stroke:#8B95A5;stroke-width:1;"/><text fill="#111827" font-family="'Arial'" font-size="14" lengthAdjust="spacing" textLength="164.5684" x="50" y="1091.6982">Geplante Abgabe 1 + 2</text><text fill="#111827" font-family="'Arial'" font-size="14" lengthAdjust="spacing" textLength="223.4736" x="50" y="1107.9951">an Fachanwendung &#252;bermitteln</text><g class="message" data-entity-1="part1" data-entity-2="part3" data-source-line="110" id="msg14"><line style="stroke:#111827;stroke-width:1;" x1="896.6963" x2="886.6963" y1="1145.4297" y2="1141.4297"/><line style="stroke:#111827;stroke-width:1;" x1="896.6963" x2="886.6963" y1="1145.4297" y2="1149.4297"/><line style="stroke:#111827;stroke-width:1;" x1="173.0293" x2="897.6963" y1="1145.4297" y2="1145.4297"/><text fill="#000000" font-family="'Arial'" font-size="13" font-weight="700" lengthAdjust="spacing" textLength="18.0908" x="180.0293" y="1140.3638">14</text><text fill="#000000" font-family="'Arial'" font-size="13" lengthAdjust="spacing" textLength="169.5713" x="202.1201" y="1140.3638">Trigger e-Rezept erstellen</text></g><path d="M54,1163.4297 L54,1179.4297 A5,5 0 0 0 59,1184.4297 L273,1184.4297 A5,5 0 0 0 278,1179.4297 L278,1168.4297 L268,1158.4297 L59,1158.4297 A5,5 0 0 0 54,1163.4297" fill="url(#grq4khiu03fjz0)" filter="url(#frq4khiu03fjz)" style="stroke:#8B95A5;stroke-width:1;"/><path d="M268,1158.4297 L268,1165.9297 A2.5,2.5 0 0 0 270.5,1168.4297 L278,1168.4297 L268,1158.4297" fill="url(#grq4khiu03fjz0)" style="stroke:#8B95A5;stroke-width:1;"/><text fill="#111827" font-family="'Arial'" font-size="14" lengthAdjust="spacing" textLength="203.6357" x="60" y="1176.4248">Erstellung e-Rezept ausl&#246;sen</text><g class="message" data-entity-1="part3" data-entity-2="part3" data-source-line="115" id="msg15"><line style="stroke:#111827;stroke-width:1;" x1="908.6963" x2="950.6963" y1="1213.8594" y2="1213.8594"/><line style="stroke:#111827;stroke-width:1;" x1="950.6963" x2="950.6963" y1="1213.8594" y2="1226.8594"/><line style="stroke:#111827;stroke-width:1;" x1="909.6963" x2="950.6963" y1="1226.8594" y2="1226.8594"/><polygon fill="#111827" points="919.6963,1222.8594,909.6963,1226.8594,919.6963,1230.8594,915.6963,1226.8594" style="stroke:#111827;stroke-width:1;"/><text fill="#000000" font-family="'Arial'" font-size="13" font-weight="700" lengthAdjust="spacing" textLength="18.0908" x="915.6963" y="1208.7935">15</text><text fill="#000000" font-family="'Arial'" font-size="13" lengthAdjust="spacing" textLength="118.6948" x="937.7871" y="1208.7935">e-Rezept erstellen</text></g><g class="message" data-entity-1="part3" data-entity-2="part1" data-source-line="116" id="msg16"><line style="stroke:#111827;stroke-width:1;" x1="174.0293" x2="184.0293" y1="1255.9922" y2="1251.9922"/><line style="stroke:#111827;stroke-width:1;" x1="174.0293" x2="184.0293" y1="1255.9922" y2="1259.9922"/><line style="stroke:#111827;stroke-width:1;stroke-dasharray:2,2;" x1="173.0293" x2="902.6963" y1="1255.9922" y2="1255.9922"/><text fill="#000000" font-family="'Arial'" font-size="13" font-weight="700" lengthAdjust="spacing" textLength="18.0908" x="190.0293" y="1250.9263">16</text><text fill="#000000" font-family="'Arial'" font-size="13" lengthAdjust="spacing" textLength="18.7573" x="212.1201" y="1250.9263">OK</text></g><g class="message" data-entity-1="part2" data-entity-2="part2" data-source-line="119" id="msg17"><line style="stroke:#111827;stroke-width:1;" x1="510.6719" x2="552.6719" y1="1285.125" y2="1285.125"/><line style="stroke:#111827;stroke-width:1;" x1="552.6719" x2="552.6719" y1="1285.125" y2="1298.125"/><line style="stroke:#111827;stroke-width:1;" x1="511.6719" x2="552.6719" y1="1298.125" y2="1298.125"/><polygon fill="#111827" points="521.6719,1294.125,511.6719,1298.125,521.6719,1302.125,517.6719,1298.125" style="stroke:#111827;stroke-width:1;"/><text fill="#000000" font-family="'Arial'" font-size="13" font-weight="700" lengthAdjust="spacing" textLength="18.0908" x="517.6719" y="1280.0591">17</text><text fill="#000000" font-family="'Arial'" font-size="13" lengthAdjust="spacing" textLength="183.6694" x="539.7627" y="1280.0591">MedicationRequest 1 pr&#252;fen</text></g><path d="M137.7476,1313.125 L198.686,1313.125 L198.686,1321.4219 L188.686,1331.4219 L132.7476,1331.4219 L132.7476,1318.125 A5,5 0 0 1 137.7476,1313.125" fill="#EEF2FF" style="stroke:#111827;stroke-width:1.5;"/><rect fill="none" height="177.5859" rx="5" ry="5" style="stroke:#111827;stroke-width:2;" width="633.6382" x="132.7476" y="1313.125"/><text fill="#000000" font-family="'Arial'" font-size="14" font-weight="700" lengthAdjust="spacing" textLength="20.9385" x="147.7476" y="1327.1201">alt</text><text fill="#000000" font-family="'Arial'" font-size="14" font-weight="700" lengthAdjust="spacing" textLength="59.0967" x="213.686" y="1328.1201">[g&#252;ltig]</text><g class="message" data-entity-1="part2" data-entity-2="part2" data-source-line="121" id="msg18"><line style="stroke:#111827;stroke-width:1;" x1="510.6719" x2="552.6719" y1="1353.8516" y2="1353.8516"/><line style="stroke:#111827;stroke-width:1;" x1="552.6719" x2="552.6719" y1="1353.8516" y2="1366.8516"/><line style="stroke:#111827;stroke-width:1;" x1="511.6719" x2="552.6719" y1="1366.8516" y2="1366.8516"/><polygon fill="#111827" points="521.6719,1362.8516,511.6719,1366.8516,521.6719,1370.8516,517.6719,1366.8516" style="stroke:#111827;stroke-width:1;"/><text fill="#000000" font-family="'Arial'" font-size="13" font-weight="700" lengthAdjust="spacing" textLength="18.0908" x="517.6719" y="1348.7856">18</text><text fill="#000000" font-family="'Arial'" font-size="13" lengthAdjust="spacing" textLength="204.623" x="539.7627" y="1348.7856">MedicationRequest 1 speichern</text></g><path d="M382,1384.8516 L382,1400.8516 A5,5 0 0 0 387,1405.8516 L620,1405.8516 A5,5 0 0 0 625,1400.8516 L625,1389.8516 L615,1379.8516 L387,1379.8516 A5,5 0 0 0 382,1384.8516" fill="url(#grq4khiu03fjz0)" filter="url(#frq4khiu03fjz)" style="stroke:#8B95A5;stroke-width:1;"/><path d="M615,1379.8516 L615,1387.3516 A2.5,2.5 0 0 0 617.5,1389.8516 L625,1389.8516 L615,1379.8516" fill="url(#grq4khiu03fjz0)" style="stroke:#8B95A5;stroke-width:1;"/><text fill="#111827" font-family="'Arial'" font-size="14" lengthAdjust="spacing" textLength="222.0928" x="388" y="1397.8467">Geplante Abgabe 1 gespeichert</text><g class="message" data-entity-1="part2" data-entity-2="part1" data-source-line="127" id="msg19"><line style="stroke:#111827;stroke-width:1;" x1="174.0293" x2="184.0293" y1="1435.2813" y2="1431.2813"/><line style="stroke:#111827;stroke-width:1;" x1="174.0293" x2="184.0293" y1="1435.2813" y2="1439.2813"/><line style="stroke:#111827;stroke-width:1;stroke-dasharray:2,2;" x1="173.0293" x2="499.6719" y1="1435.2813" y2="1435.2813"/><text fill="#000000" font-family="'Arial'" font-size="13" font-weight="700" lengthAdjust="spacing" textLength="18.0908" x="190.0293" y="1430.2153">19</text><text fill="#000000" font-family="'Arial'" font-size="13" lengthAdjust="spacing" textLength="18.7573" x="212.1201" y="1430.2153">OK</text></g><line style="stroke:#111827;stroke-width:1;stroke-dasharray:2,2;" x1="132.7476" x2="766.3857" y1="1444.2813" y2="1444.2813"/><text fill="#000000" font-family="'Arial'" font-size="14" font-weight="700" lengthAdjust="spacing" textLength="79.0303" x="137.7476" y="1457.2764">[ung&#252;ltig]</text><g class="message" data-entity-1="part2" data-entity-2="part1" data-source-line="129" id="msg20"><line style="stroke:#111827;stroke-width:1;" x1="174.0293" x2="184.0293" y1="1482.7109" y2="1478.7109"/><line style="stroke:#111827;stroke-width:1;" x1="174.0293" x2="184.0293" y1="1482.7109" y2="1486.7109"/><line style="stroke:#111827;stroke-width:1;stroke-dasharray:2,2;" x1="173.0293" x2="499.6719" y1="1482.7109" y2="1482.7109"/><text fill="#000000" font-family="'Arial'" font-size="13" font-weight="700" lengthAdjust="spacing" textLength="18.0908" x="190.0293" y="1477.645">20</text><text fill="#000000" font-family="'Arial'" font-size="13" lengthAdjust="spacing" textLength="40.6694" x="212.1201" y="1477.645">Fehler</text></g><g class="message" data-entity-1="part2" data-entity-2="part2" data-source-line="132" id="msg21"><line style="stroke:#111827;stroke-width:1;" x1="510.6719" x2="552.6719" y1="1518.8438" y2="1518.8438"/><line style="stroke:#111827;stroke-width:1;" x1="552.6719" x2="552.6719" y1="1518.8438" y2="1531.8438"/><line style="stroke:#111827;stroke-width:1;" x1="511.6719" x2="552.6719" y1="1531.8438" y2="1531.8438"/><polygon fill="#111827" points="521.6719,1527.8438,511.6719,1531.8438,521.6719,1535.8438,517.6719,1531.8438" style="stroke:#111827;stroke-width:1;"/><text fill="#000000" font-family="'Arial'" font-size="13" font-weight="700" lengthAdjust="spacing" textLength="18.0908" x="517.6719" y="1513.7778">21</text><text fill="#000000" font-family="'Arial'" font-size="13" lengthAdjust="spacing" textLength="183.6694" x="539.7627" y="1513.7778">MedicationRequest 2 pr&#252;fen</text></g><path d="M137.7476,1546.8438 L198.686,1546.8438 L198.686,1555.1406 L188.686,1565.1406 L132.7476,1565.1406 L132.7476,1551.8438 A5,5 0 0 1 137.7476,1546.8438" fill="#EEF2FF" style="stroke:#111827;stroke-width:1.5;"/><rect fill="none" height="177.5859" rx="5" ry="5" style="stroke:#111827;stroke-width:2;" width="633.6382" x="132.7476" y="1546.8438"/><text fill="#000000" font-family="'Arial'" font-size="14" font-weight="700" lengthAdjust="spacing" textLength="20.9385" x="147.7476" y="1560.8389">alt</text><text fill="#000000" font-family="'Arial'" font-size="14" font-weight="700" lengthAdjust="spacing" textLength="59.0967" x="213.686" y="1561.8389">[g&#252;ltig]</text><g class="message" data-entity-1="part2" data-entity-2="part2" data-source-line="134" id="msg22"><line style="stroke:#111827;stroke-width:1;" x1="510.6719" x2="552.6719" y1="1587.5703" y2="1587.5703"/><line style="stroke:#111827;stroke-width:1;" x1="552.6719" x2="552.6719" y1="1587.5703" y2="1600.5703"/><line style="stroke:#111827;stroke-width:1;" x1="511.6719" x2="552.6719" y1="1600.5703" y2="1600.5703"/><polygon fill="#111827" points="521.6719,1596.5703,511.6719,1600.5703,521.6719,1604.5703,517.6719,1600.5703" style="stroke:#111827;stroke-width:1;"/><text fill="#000000" font-family="'Arial'" font-size="13" font-weight="700" lengthAdjust="spacing" textLength="18.0908" x="517.6719" y="1582.5044">22</text><text fill="#000000" font-family="'Arial'" font-size="13" lengthAdjust="spacing" textLength="204.623" x="539.7627" y="1582.5044">MedicationRequest 2 speichern</text></g><path d="M382,1618.5703 L382,1634.5703 A5,5 0 0 0 387,1639.5703 L620,1639.5703 A5,5 0 0 0 625,1634.5703 L625,1623.5703 L615,1613.5703 L387,1613.5703 A5,5 0 0 0 382,1618.5703" fill="url(#grq4khiu03fjz0)" filter="url(#frq4khiu03fjz)" style="stroke:#8B95A5;stroke-width:1;"/><path d="M615,1613.5703 L615,1621.0703 A2.5,2.5 0 0 0 617.5,1623.5703 L625,1623.5703 L615,1613.5703" fill="url(#grq4khiu03fjz0)" style="stroke:#8B95A5;stroke-width:1;"/><text fill="#111827" font-family="'Arial'" font-size="14" lengthAdjust="spacing" textLength="222.0928" x="388" y="1631.5654">Geplante Abgabe 2 gespeichert</text><g class="message" data-entity-1="part2" data-entity-2="part1" data-source-line="140" id="msg23"><line style="stroke:#111827;stroke-width:1;" x1="174.0293" x2="184.0293" y1="1669" y2="1665"/><line style="stroke:#111827;stroke-width:1;" x1="174.0293" x2="184.0293" y1="1669" y2="1673"/><line style="stroke:#111827;stroke-width:1;stroke-dasharray:2,2;" x1="173.0293" x2="499.6719" y1="1669" y2="1669"/><text fill="#000000" font-family="'Arial'" font-size="13" font-weight="700" lengthAdjust="spacing" textLength="18.0908" x="190.0293" y="1663.9341">23</text><text fill="#000000" font-family="'Arial'" font-size="13" lengthAdjust="spacing" textLength="18.7573" x="212.1201" y="1663.9341">OK</text></g><line style="stroke:#111827;stroke-width:1;stroke-dasharray:2,2;" x1="132.7476" x2="766.3857" y1="1678" y2="1678"/><text fill="#000000" font-family="'Arial'" font-size="14" font-weight="700" lengthAdjust="spacing" textLength="79.0303" x="137.7476" y="1690.9951">[ung&#252;ltig]</text><g class="message" data-entity-1="part2" data-entity-2="part1" data-source-line="142" id="msg24"><line style="stroke:#111827;stroke-width:1;" x1="174.0293" x2="184.0293" y1="1716.4297" y2="1712.4297"/><line style="stroke:#111827;stroke-width:1;" x1="174.0293" x2="184.0293" y1="1716.4297" y2="1720.4297"/><line style="stroke:#111827;stroke-width:1;stroke-dasharray:2,2;" x1="173.0293" x2="504.6719" y1="1716.4297" y2="1716.4297"/><text fill="#000000" font-family="'Arial'" font-size="13" font-weight="700" lengthAdjust="spacing" textLength="18.0908" x="190.0293" y="1711.3638">24</text><text fill="#000000" font-family="'Arial'" font-size="13" lengthAdjust="spacing" textLength="40.6694" x="212.1201" y="1711.3638">Fehler</text></g><?plantuml-src jLRBRkCs5DtpAowSBc8CF8ZKSVC0Ce0paqm7dSu4IRep4D3IbSnQfboAYXEttVO3-WtzXgwoyv_qItf9lMX9GT8MLGB38kyzFEU-Q2rqWl01LmcN6c4oY_aCWUSPp33JE4SPeeJlCHGBhaKgCsE8Gcgr_IEcdVrStY5z9pEbXu2Ad9849MFPGiWLLtm9irJHxhiqIHNi7TZ7tUN18bPfBiFI8XgRFySYc_CmNGiPGyIJ39sTqar9LE2ve256F4_qHIhrPxv464oKuCcWt-9QR12yD_sRkxGT6vbIl7vc06Tj0NY0u-XWj1TwuJ5-OopS01pDZiTyNA_Up4Mma9XbuD7QbIFeYDulUHWQuGR5OUDvtf5_I6lNTMYqof7zwXByzc65AX5ouKWuF-yp-C5aZxvW6M0tzlXJZZ8eb5vofKKWLbGgEvB6zcaPTD9gdrsZRe0xsrLoTZQgiFZ6OQ9Kkcu7nYxknjOkzPrORnHdVKrB7uZvQaTZZLniTNAEaM_LEPxDyVvkPixIUqV1pdfVNDailOV1L1Bu-mbu00FOEuweRqnKUA39b3PkFU0P3Ap9W57VKj_TExxsmH6rCbpmOCxbccnoeb0yXFdkpT7XeQcwLHDfG7AulPXOxD9xqW-FeolSu4fRh60sym_zDjPjQL605IyE6CzrAlFb31LZfwVjgGDyflB8p9ol5F9GfsibD0xXz9InGl_exTkAxmbSVhc-0TUIKQZ47QUkjTQiUIzzMALrvCAexMDamiJpo9s9KzcYHtY9XWNDnWxnkrHHlCc9uj5tnYT4XHslfT1JYSkLVhX2dgKI1ZHoCatnn73W8XdPLbA9fA133Qcj_p6jIPub0YDK93yRKKqc61ZlqHdLVO9JkKyKGHF5b6u0HPdv93BzMX2Y5f50DJoPob6nI4lguNMKyFW49Av_CGKOKp7zzTllaClohTTQuJAzAorfdUZ8NSQE_8OZ51pXLPiJUOROpRmCcoAgqDgtejTSRwJTH3EmqRmoCpBJu0sVXV2VWV27pDuhfBXiQlOPyyu5BOdBAm9Zc_o5zpIhpuLzPNAASYFC9uG2uKTSeqX4ZC3w83YbNuJPq7QguMVRiwqj2-OAXI7dTcHJJdPwZ3w-1ouZE-MeBjjYxVJyM2SBeksZWa4nA1O9NovH3LZj3_iLfaljHMrTaq6rmPmYnFhggR9YFINJeTvEaMcEkAM7DOo1N3EJE8VwatEifzYwEb_kx3_7lgWlYdJhhjW-qd0cOLHABc_dv7B4dy2D4d5C-FMrqFmsR1z-NkoO0sfh-WcQRF_CtF0qWij3M7sXZDoJUqvi39tiVlbk9wyLQ6-zz2G0LkPg870pz-FjOw95_CGaxVFELYY2kUa20FflObAb4te6K8oLcpP7rGde7uSaq0v-2coNdcDtWVF45AUTWY_Zx_ydzVw_KU__p-gVkXZ-1W00?></g></svg>