<?xml version="1.0" encoding="us-ascii" standalone="no"?><svg xmlns="http://www.w3.org/2000/svg" xmlns:xlink="http://www.w3.org/1999/xlink" contentStyleType="text/css" height="539px" preserveAspectRatio="none" style="width:660px;height:539px;background:#F5F5F5;" version="1.1" viewBox="0 0 660 539" width="660px" zoomAndPan="magnify"><defs><linearGradient id="gih16he9imyo30" x1="50%" x2="50%" y1="0%" y2="100%"><stop offset="0%" stop-color="#E0E5F0"/><stop offset="100%" stop-color="#D1D9E6"/></linearGradient></defs><g><rect fill="#F5F5F5" height="539" style="stroke:none;stroke-width:1.0;" width="660" x="0" y="0"/><text fill="#000000" font-family="Arial" font-size="14" font-weight="bold" lengthAdjust="spacing" textLength="212" x="220" y="28.1318">Durchgef&#252;hrte Abgaben lesen</text><text fill="#000000" font-family="Arial" font-size="14" font-weight="bold" lengthAdjust="spacing" textLength="244" x="204" y="44.2305">Variante B: Zugriff mittels e-Rezept</text><rect fill="#0F9ED5" fill-opacity="0.56471" height="111.4438" style="stroke:#181818;stroke-width:1.0;" width="10" x="174" y="258.0908"/><rect fill="#E97232" fill-opacity="0.74118" height="111.4438" style="stroke:#181818;stroke-width:1.0;" width="10" x="570" y="258.0908"/><rect fill="#0F9ED5" fill-opacity="0.14510" height="104.4438" rx="5" ry="5" style="stroke:#111827;stroke-width:2.0;" width="507" x="136" y="273.0908"/><path d="M136,333.937 L643,333.937 L643,372.5347 A5,5 0 0 1 638,377.5347 L141,377.5347 A5,5 0 0 1 136,372.5347 L136,333.937 " fill="#E97132" fill-opacity="0.20784" style="stroke:none;stroke-width:1.0;"/><line style="stroke:#181818;stroke-width:0.5;stroke-dasharray:5.0,5.0;" x1="179" x2="179" y1="134.2959" y2="459.3809"/><line style="stroke:#181818;stroke-width:0.5;stroke-dasharray:5.0,5.0;" x1="575" x2="575" y1="134.2959" y2="459.3809"/><text fill="#000000" font-family="Arial" font-size="14" lengthAdjust="spacing" textLength="60" x="146" y="131.3291">Apotheke</text><ellipse cx="179" cy="66.6973" fill="#0F9ED5" fill-opacity="0.56471" rx="8" ry="8" style="stroke:#181818;stroke-width:0.5;"/><path d="M179,74.6973 L179,101.6973 M166,82.6973 L192,82.6973 M179,101.6973 L166,116.6973 M179,101.6973 L192,116.6973 " fill="none" style="stroke:#181818;stroke-width:0.5;"/><text fill="#000000" font-family="Arial" font-size="14" lengthAdjust="spacing" textLength="60" x="146" y="471.5127">Apotheke</text><ellipse cx="179" cy="482.9795" fill="#0F9ED5" fill-opacity="0.56471" rx="8" ry="8" style="stroke:#181818;stroke-width:0.5;"/><path d="M179,490.9795 L179,517.9795 M166,498.9795 L192,498.9795 M179,517.9795 L166,532.9795 M179,517.9795 L192,532.9795 " fill="none" style="stroke:#181818;stroke-width:0.5;"/><rect fill="#E97232" fill-opacity="0.74118" height="30.0986" rx="5" ry="5" style="stroke:#555555;stroke-width:0.5;" width="76" x="537" y="103.1973"/><text fill="#000000" font-family="Arial" font-size="14" lengthAdjust="spacing" textLength="62" x="544" y="123.3291">e-Med FA</text><rect fill="#E97232" fill-opacity="0.74118" height="30.0986" rx="5" ry="5" style="stroke:#555555;stroke-width:0.5;" width="76" x="537" y="458.3809"/><text fill="#000000" font-family="Arial" font-size="14" lengthAdjust="spacing" textLength="62" x="544" y="478.5127">e-Med FA</text><rect fill="#0F9ED5" fill-opacity="0.56471" height="111.4438" style="stroke:#181818;stroke-width:1.0;" width="10" x="174" y="258.0908"/><rect fill="#E97232" fill-opacity="0.74118" height="111.4438" style="stroke:#181818;stroke-width:1.0;" width="10" x="570" y="258.0908"/><rect fill="#EEEEEE" height="3" rx="5" ry="5" style="stroke:#EEEEEE;stroke-width:1.0;" width="653" x="0" y="164.7703"/><line style="stroke:#000000;stroke-width:1.0;" x1="0" x2="653" y1="164.7703" y2="164.7703"/><line style="stroke:#000000;stroke-width:1.0;" x1="0" x2="653" y1="167.7703" y2="167.7703"/><rect fill="#EEEEEE" height="22.9487" rx="5" ry="5" style="stroke:#000000;stroke-width:2.0;" width="226" x="213.5" y="154.2959"/><text fill="#000000" font-family="Arial" font-size="13" font-weight="bold" lengthAdjust="spacing" textLength="204" x="219.5" y="170.4897">Durchgef&#252;hrte Abgaben abrufen</text><path d="M71,197.2446 L71,226.2446 A5,5 0 0 0 76,231.2446 L282,231.2446 A5,5 0 0 0 287,226.2446 L287,202.2446 L277,192.2446 L76,192.2446 A5,5 0 0 0 71,197.2446 " fill="url(#gih16he9imyo30)" style="stroke:#8B95A5;stroke-width:1.0;"/><path d="M277,192.2446 L277,199.7446 A2.5,2.5 0 0 0 279.5,202.2446 L287,202.2446 L277,192.2446 " fill="url(#gih16he9imyo30)" style="stroke:#8B95A5;stroke-width:1.0;"/><text fill="#111827" font-family="Arial" font-size="13" lengthAdjust="spacing" textLength="191" x="77" y="209.4385">Annahme: Durchgef&#252;hrte Abgabe</text><text fill="#111827" font-family="Arial" font-size="13" lengthAdjust="spacing" textLength="184" x="77" y="224.3872">speichert e-Med Groupidentifier.</text><polygon fill="#111827" points="558,254.0908,568,258.0908,558,262.0908,562,258.0908" style="stroke:#111827;stroke-width:1.0;"/><line style="stroke:#111827;stroke-width:1.0;" x1="184" x2="564" y1="258.0908" y2="258.0908"/><text fill="#000000" font-family="Arial" font-size="13" font-weight="bold" lengthAdjust="spacing" textLength="7" x="191" y="253.3359">1</text><text fill="#000000" font-family="Arial" font-size="13" lengthAdjust="spacing" textLength="361" x="202" y="253.3359">GET MedicationDispense mit e-Med Groupidentifier (QR-Code)</text><path d="M141,273.0908 L197,273.0908 L197,280.0396 L187,290.0396 L136,290.0396 L136,278.0908 A5,5 0 0 1 141,273.0908 " fill="#EEF2FF" style="stroke:#111827;stroke-width:1.5;"/><rect fill="none" height="104.4438" rx="5" ry="5" style="stroke:#111827;stroke-width:2.0;" width="507" x="136" y="273.0908"/><text fill="#000000" font-family="Arial" font-size="13" font-weight="bold" lengthAdjust="spacing" textLength="16" x="151" y="286.2847">alt</text><text fill="#000000" font-family="Arial" font-size="11" font-weight="bold" lengthAdjust="spacing" textLength="164" x="212" y="285.4087">[e-Med GroupIdentifier g&#252;ltig]</text><polygon fill="#111827" points="195,321.937,185,325.937,195,329.937,191,325.937" style="stroke:#111827;stroke-width:1.0;"/><line style="stroke:#111827;stroke-width:1.0;stroke-dasharray:2.0,2.0;" x1="189" x2="569" y1="325.937" y2="325.937"/><text fill="#000000" font-family="Arial" font-size="13" font-weight="bold" lengthAdjust="spacing" textLength="7" x="201" y="313.7078">2</text><text fill="#000000" font-family="Arial" font-size="13" lengthAdjust="spacing" textLength="197" x="212" y="306.2334">Durchgef&#252;hrte Abgaben mit e-Med</text><text fill="#000000" font-family="Arial" font-size="13" lengthAdjust="spacing" textLength="83" x="212" y="321.1821">Groupidentifier</text><line style="stroke:#111827;stroke-width:1.0;stroke-dasharray:2.0,2.0;" x1="136" x2="643" y1="334.937" y2="334.937"/><text fill="#000000" font-family="Arial" font-size="11" font-weight="bold" lengthAdjust="spacing" textLength="69" x="141" y="345.2549">[nicht g&#252;ltig]</text><polygon fill="#111827" points="190,365.5347,180,369.5347,190,373.5347,186,369.5347" style="stroke:#111827;stroke-width:1.0;"/><line style="stroke:#111827;stroke-width:1.0;stroke-dasharray:2.0,2.0;" x1="184" x2="574" y1="369.5347" y2="369.5347"/><text fill="#000000" font-family="Arial" font-size="13" font-weight="bold" lengthAdjust="spacing" textLength="7" x="196" y="364.7798">3</text><text fill="#000000" font-family="Arial" font-size="13" lengthAdjust="spacing" textLength="36" x="207" y="364.7798">Fehler</text><path d="M5,394.5347 L5,438.5347 A5,5 0 0 0 10,443.5347 L348,443.5347 A5,5 0 0 0 353,438.5347 L353,399.5347 L343,389.5347 L10,389.5347 A5,5 0 0 0 5,394.5347 " fill="url(#gih16he9imyo30)" style="stroke:#8B95A5;stroke-width:1.0;"/><path d="M343,389.5347 L343,397.0347 A2.5,2.5 0 0 0 345.5,399.5347 L353,399.5347 L343,389.5347 " fill="url(#gih16he9imyo30)" style="stroke:#8B95A5;stroke-width:1.0;"/><text fill="#111827" font-family="Arial" font-size="13" lengthAdjust="spacing" textLength="323" x="11" y="406.7285">GDA erh&#228;lt ausschlie&#223;lich die Durchgef&#252;hrten Abgaben,</text><text fill="#111827" font-family="Arial" font-size="13" lengthAdjust="spacing" textLength="276" x="11" y="421.6772">die den im QR-Code des e-Rezepts enthaltenen</text><text fill="#111827" font-family="Arial" font-size="13" lengthAdjust="spacing" textLength="184" x="11" y="436.626">e-Med GroupIdentifier enthalten.</text><!--SRC=[XLPHZzeu47xthvY31-vqHqL2WSrAUr9Omjxgsa9PxXwgIiWa4s8H7EeutMkh_fQ-tC_es_wnJW8aJc3lp4FicS_ZRxuPMsYXOuH9flneW-7JzqXf17UzuMkK46EAyhtycol19Td7r_0ksoWHXh0JMcES0dON-1dtch5EkXLopnNV0VTreXxq9uhC7p5DTiXOvLqdAa1rcyI9WdQl6AQN-zkDIZ8P717X8FyPY3JYGV8ev0P27gTeU8xRb4G5bXaqm91diPucKh_XEuIMInd5BPEp0NaGdn6ibvVtFyVxZqzxLB6GMmFWUPS0VycWcE0P_t7opvm7GPwQtQlRnwPeWsAOcig4olE50OoRyc4F1s6lsmwimC5XZZ0ZNQsT0H-KrcKa_At4D0MBR0j3pXwjJzpoA8OKbcLTsIEoFJGAyzLacEA73AL_O3ddIWjVxAchBYLM0voBVkO-5QpcC9G4S9LA7fjy2sCzvS9qwSJISJYhJwOxadbVerz6FhZEIe6X7ORrdTNnTgxNJzHfUMVSpbxD5gkxYRkoW4RR6WnxL_PLxmB0BW3ESDWRJSu0StTvxxrPvX6SuTX-UGPmvpCeHhitTRp9m6a2lDVUP3Lr2O3EoExRww09M2syTzvy2Mq_w8_wDdUQQSp-XDePzg0POh6OBGg0vuoiljsdtkuKZmWS9E0fj6W6LijKXbKGTvyK8Fhg2BVOgj9Z-wed05zZa6UJOx5B2vYwhNgch5FRi3gyRySTXqMhaJfZFDE9p7PhL8pTt3ptdlAroaBwmiqDwn3i50z-XJlSnyKRsyGIb7M0A5NeeulCK2RV_RsaUbqXcwzqztu2FxzTT6-J07-fnI4fnKTEvvy2LlhLtAKU3GLoKEdh4fjZ78DCWGdmB5IU7v54OAnunfAFM1QLkLBoQ8VNboK5bkvH-14ggbHHpk9gYG2b5g50zG8Oog1u7XapjJhqmJNSUKkWkV2v5ecS28edYGe9TpbW9H_x3ycg78_zLkymncDTtGtZdFlgdCtJzrYB3RqMfnWrLP_fi9BtUzaWJe5OeR9vvIHff__lg2b6SR7VgDsfFFM27dRdYbygPNw1KKLF_rBoF4jJFue5FdsBYGC4eladH9vo-WrOxgL4GEpWg3ujgwwccTGHQOgIGEoodYNaHTKHFm00]--></g></svg>