<?xml version="1.0" encoding="us-ascii" standalone="no"?><svg xmlns="http://www.w3.org/2000/svg" xmlns:xlink="http://www.w3.org/1999/xlink" contentStyleType="text/css" height="771px" preserveAspectRatio="none" style="width:618px;height:771px;background:#F5F5F5;" version="1.1" viewBox="0 0 618 771" width="618px" zoomAndPan="magnify"><defs><linearGradient id="g1a17wfjpx7r180" x1="50%" x2="50%" y1="0%" y2="100%"><stop offset="0%" stop-color="#E0E5F0"/><stop offset="100%" stop-color="#D1D9E6"/></linearGradient></defs><g><rect fill="#F5F5F5" height="771" style="stroke:none;stroke-width:1.0;" width="618" x="0" y="0"/><text fill="#000000" font-family="Arial" font-size="14" font-weight="bold" lengthAdjust="spacing" textLength="140" x="241.25" y="28.1318">Prescription-Search</text><rect fill="#156082" fill-opacity="0.50196" height="415.0259" style="stroke:#181818;stroke-width:1.0;" width="10" x="149.5" y="226.1895"/><rect fill="#E97232" fill-opacity="0.74118" height="274.4341" style="stroke:#181818;stroke-width:1.0;" width="10" x="476.5" y="226.1895"/><rect fill="#0F9ED5" fill-opacity="0.14510" height="210.5366" rx="5" ry="5" style="stroke:#111827;stroke-width:2.0;" width="534.5" x="15" y="298.0869"/><path d="M15,414.5288 L549.5,414.5288 L549.5,456.5762 A5,5 0 0 1 544.5,461.5762 L20,461.5762 A5,5 0 0 1 15,456.5762 L15,414.5288 " fill="#34738D" fill-opacity="0.30588" style="stroke:none;stroke-width:1.0;"/><path d="M15,461.5762 L549.5,461.5762 L549.5,503.6235 A5,5 0 0 1 544.5,508.6235 L20,508.6235 A5,5 0 0 1 15,503.6235 L15,461.5762 " fill="#E97132" fill-opacity="0.20784" style="stroke:none;stroke-width:1.0;"/><rect fill="none" height="118.5918" rx="5" ry="5" style="stroke:#111827;stroke-width:2.0;" width="539.5" x="10" y="522.6235"/><line style="stroke:#181818;stroke-width:0.5;stroke-dasharray:5.0,5.0;" x1="154" x2="154" y1="150.3945" y2="658.2153"/><line style="stroke:#181818;stroke-width:0.5;stroke-dasharray:5.0,5.0;" x1="481.5" x2="481.5" y1="150.3945" y2="658.2153"/><text fill="#000000" font-family="Arial" font-size="14" lengthAdjust="spacing" textLength="30" x="136.5" y="115.2305">GDA</text><text fill="#000000" font-family="Arial" font-size="14" lengthAdjust="spacing" textLength="28" x="137.5" y="131.3291">Arzt/</text><text fill="#000000" font-family="Arial" font-size="14" lengthAdjust="spacing" textLength="65" x="119" y="147.4277">Apotheker</text><ellipse cx="154.5" cy="50.5986" fill="#156082" fill-opacity="0.50196" rx="8" ry="8" style="stroke:#181818;stroke-width:0.5;"/><path d="M154.5,58.5986 L154.5,85.5986 M141.5,66.5986 L167.5,66.5986 M154.5,85.5986 L141.5,100.5986 M154.5,85.5986 L167.5,100.5986 " fill="none" style="stroke:#181818;stroke-width:0.5;"/><text fill="#000000" font-family="Arial" font-size="14" lengthAdjust="spacing" textLength="30" x="136.5" y="670.3472">GDA</text><text fill="#000000" font-family="Arial" font-size="14" lengthAdjust="spacing" textLength="28" x="137.5" y="686.4458">Arzt/</text><text fill="#000000" font-family="Arial" font-size="14" lengthAdjust="spacing" textLength="65" x="119" y="702.5444">Apotheker</text><ellipse cx="154.5" cy="714.0112" fill="#156082" fill-opacity="0.50196" rx="8" ry="8" style="stroke:#181818;stroke-width:0.5;"/><path d="M154.5,722.0112 L154.5,749.0112 M141.5,730.0112 L167.5,730.0112 M154.5,749.0112 L141.5,764.0112 M154.5,749.0112 L167.5,764.0112 " fill="none" style="stroke:#181818;stroke-width:0.5;"/><rect fill="#E97232" fill-opacity="0.74118" height="30.0986" rx="5" ry="5" style="stroke:#555555;stroke-width:0.5;" width="76" x="443.5" y="119.2959"/><text fill="#000000" font-family="Arial" font-size="14" lengthAdjust="spacing" textLength="62" x="450.5" y="139.4277">e-Med FA</text><rect fill="#E97232" fill-opacity="0.74118" height="30.0986" rx="5" ry="5" style="stroke:#555555;stroke-width:0.5;" width="76" x="443.5" y="657.2153"/><text fill="#000000" font-family="Arial" font-size="14" lengthAdjust="spacing" textLength="62" x="450.5" y="677.3472">e-Med FA</text><rect fill="#156082" fill-opacity="0.50196" height="415.0259" style="stroke:#181818;stroke-width:1.0;" width="10" x="149.5" y="226.1895"/><rect fill="#E97232" fill-opacity="0.74118" height="274.4341" style="stroke:#181818;stroke-width:1.0;" width="10" x="476.5" y="226.1895"/><polygon fill="#111827" points="464.5,222.1895,474.5,226.1895,464.5,230.1895,468.5,226.1895" style="stroke:#111827;stroke-width:1.0;"/><line style="stroke:#111827;stroke-width:1.0;" x1="159.5" x2="470.5" y1="226.1895" y2="226.1895"/><text fill="#000000" font-family="Arial" font-size="13" font-weight="bold" lengthAdjust="spacing" textLength="7" x="166.5" y="199.0115">1</text><text fill="#000000" font-family="Arial" font-size="13" lengthAdjust="spacing" textLength="266" x="177.5" y="176.5884">GET MedicationRequest mit Suchparametern:</text><text fill="#000000" font-family="Arial" font-size="13" lengthAdjust="spacing" textLength="184" x="177.5" y="191.5371">- category = "Geplante Abgabe"</text><text fill="#000000" font-family="Arial" font-size="13" lengthAdjust="spacing" textLength="150" x="177.5" y="206.4858">- status = active (optional)</text><text fill="#000000" font-family="Arial" font-size="13" lengthAdjust="spacing" textLength="141" x="177.5" y="221.4346">- validityPeriod (optional)</text><line style="stroke:#111827;stroke-width:1.0;" x1="486.5" x2="528.5" y1="270.0869" y2="270.0869"/><line style="stroke:#111827;stroke-width:1.0;" x1="528.5" x2="528.5" y1="270.0869" y2="283.0869"/><line style="stroke:#111827;stroke-width:1.0;" x1="487.5" x2="528.5" y1="283.0869" y2="283.0869"/><polygon fill="#111827" points="497.5,279.0869,487.5,283.0869,497.5,287.0869,493.5,283.0869" style="stroke:#111827;stroke-width:1.0;"/><text fill="#000000" font-family="Arial" font-size="13" font-weight="bold" lengthAdjust="spacing" textLength="7" x="493.5" y="257.8577">2</text><text fill="#000000" font-family="Arial" font-size="13" lengthAdjust="spacing" textLength="107" x="504.5" y="250.3833">Geplante Abgaben</text><text fill="#000000" font-family="Arial" font-size="13" lengthAdjust="spacing" textLength="50" x="504.5" y="265.332">ermitteln</text><path d="M20,298.0869 L300,298.0869 L300,306.1855 L290,316.1855 L15,316.1855 L15,303.0869 A5,5 0 0 1 20,298.0869 " fill="#EEF2FF" style="stroke:#111827;stroke-width:1.5;"/><rect fill="none" height="210.5366" rx="5" ry="5" style="stroke:#111827;stroke-width:2.0;" width="534.5" x="15" y="298.0869"/><text fill="#000000" font-family="Arial" font-size="14" font-weight="bold" lengthAdjust="spacing" textLength="236" x="30" y="312.2188">alt: Geplante Abgaben gefunden?</text><text fill="#000000" font-family="Arial" font-size="14" font-weight="bold" lengthAdjust="spacing" textLength="22" x="315" y="313.2188">[ja]</text><polygon fill="#111827" points="170.5,334.2329,160.5,338.2329,170.5,342.2329,166.5,338.2329" style="stroke:#111827;stroke-width:1.0;"/><line style="stroke:#111827;stroke-width:1.0;" x1="164.5" x2="475.5" y1="338.2329" y2="338.2329"/><text fill="#000000" font-family="Arial" font-size="13" font-weight="bold" lengthAdjust="spacing" textLength="7" x="176.5" y="333.478">3</text><text fill="#000000" font-family="Arial" font-size="13" lengthAdjust="spacing" textLength="282" x="187.5" y="333.478">Bundle (type=searchset) mit Geplanten Abgaben</text><path d="M25,356.2329 L25,404.2329 A5,5 0 0 0 30,409.2329 L279,409.2329 A5,5 0 0 0 284,404.2329 L284,361.2329 L274,351.2329 L30,351.2329 A5,5 0 0 0 25,356.2329 " fill="url(#g1a17wfjpx7r180)" style="stroke:#8B95A5;stroke-width:1.0;"/><path d="M274,351.2329 L274,358.7329 A2.5,2.5 0 0 0 276.5,361.2329 L284,361.2329 L274,351.2329 " fill="url(#g1a17wfjpx7r180)" style="stroke:#8B95A5;stroke-width:1.0;"/><text fill="#111827" font-family="Arial" font-size="14" lengthAdjust="spacing" textLength="211" x="31" y="369.3647">GDA erh&#228;lt alle den Suchkriterien</text><text fill="#111827" font-family="Arial" font-size="14" lengthAdjust="spacing" textLength="234" x="31" y="385.4634">entsprechenden Geplanten Abgaben</text><text fill="#111827" font-family="Arial" font-size="14" lengthAdjust="spacing" textLength="91" x="31" y="401.562">des Patienten.</text><line style="stroke:#111827;stroke-width:1.0;stroke-dasharray:2.0,2.0;" x1="15" x2="549.5" y1="415.5288" y2="415.5288"/><text fill="#000000" font-family="Arial" font-size="14" font-weight="bold" lengthAdjust="spacing" textLength="41" x="20" y="428.6606">[nein]</text><polygon fill="#111827" points="170.5,449.5762,160.5,453.5762,170.5,457.5762,166.5,453.5762" style="stroke:#111827;stroke-width:1.0;"/><line style="stroke:#111827;stroke-width:1.0;" x1="164.5" x2="475.5" y1="453.5762" y2="453.5762"/><text fill="#000000" font-family="Arial" font-size="13" font-weight="bold" lengthAdjust="spacing" textLength="7" x="176.5" y="448.8213">4</text><text fill="#000000" font-family="Arial" font-size="13" lengthAdjust="spacing" textLength="226" x="187.5" y="448.8213">Bundle (type=searchset) ohne Eintr&#228;ge</text><line style="stroke:#111827;stroke-width:1.0;stroke-dasharray:2.0,2.0;" x1="15" x2="549.5" y1="462.5762" y2="462.5762"/><text fill="#000000" font-family="Arial" font-size="14" font-weight="bold" lengthAdjust="spacing" textLength="56" x="20" y="475.708">[Fehler]</text><polygon fill="#111827" points="170.5,496.6235,160.5,500.6235,170.5,504.6235,166.5,500.6235" style="stroke:#111827;stroke-width:1.0;"/><line style="stroke:#111827;stroke-width:1.0;stroke-dasharray:2.0,2.0;" x1="164.5" x2="480.5" y1="500.6235" y2="500.6235"/><text fill="#000000" font-family="Arial" font-size="13" font-weight="bold" lengthAdjust="spacing" textLength="7" x="176.5" y="495.8687">5</text><text fill="#000000" font-family="Arial" font-size="13" lengthAdjust="spacing" textLength="170" x="187.5" y="495.8687">HTTP 4xx OperationOutcome</text><path d="M15,522.6235 L78,522.6235 L78,530.7222 L68,540.7222 L10,540.7222 L10,527.6235 A5,5 0 0 1 15,522.6235 " fill="#EEF2FF" style="stroke:#111827;stroke-width:1.5;"/><rect fill="none" height="118.5918" rx="5" ry="5" style="stroke:#111827;stroke-width:2.0;" width="539.5" x="10" y="522.6235"/><text fill="#000000" font-family="Arial" font-size="14" font-weight="bold" lengthAdjust="spacing" textLength="23" x="25" y="536.7554">opt</text><text fill="#000000" font-family="Arial" font-size="14" font-weight="bold" lengthAdjust="spacing" textLength="169" x="93" y="537.7554">[Medikationsplan lesen]</text><rect fill="none" height="42.1973" rx="5" ry="5" style="stroke:#000000;stroke-width:1.5;" width="426.5" x="116" y="541.8208"/><path d="M121,541.8208 L181,541.8208 L181,549.8208 L171,559.8208 L116,559.8208 L116,546.8208 A5,5 0 0 1 121,541.8208 " fill="#EEEEEE" style="stroke:#000000;stroke-width:2.0;"/><text fill="#000000" font-family="Arial" font-size="14" font-weight="bold" lengthAdjust="spacing" textLength="20" x="129" y="556.9526">ref</text><a href="interactions.html#sequenzdiagramm-plan-read" target="_top" title="interactions.html#sequenzdiagramm-plan-read" xlink:actuate="onRequest" xlink:href="interactions.html#sequenzdiagramm-plan-read" xlink:show="new" xlink:title="interactions.html#sequenzdiagramm-plan-read" xlink:type="simple"><text fill="#0000EE" font-family="Arial" font-size="14" lengthAdjust="spacing" textLength="67" x="295.75" y="576.9526">Plan-Read</text></a><path d="M20,599.0181 L20,631.0181 A5,5 0 0 0 25,636.0181 L284,636.0181 A5,5 0 0 0 289,631.0181 L289,604.0181 L279,594.0181 L25,594.0181 A5,5 0 0 0 20,599.0181 " fill="url(#g1a17wfjpx7r180)" style="stroke:#8B95A5;stroke-width:1.0;"/><path d="M279,594.0181 L279,601.5181 A2.5,2.5 0 0 0 281.5,604.0181 L289,604.0181 L279,594.0181 " fill="url(#g1a17wfjpx7r180)" style="stroke:#8B95A5;stroke-width:1.0;"/><text fill="#111827" font-family="Arial" font-size="14" lengthAdjust="spacing" textLength="244" x="26" y="612.1499">Optionaler Abruf des Medikationsplans</text><text fill="#111827" font-family="Arial" font-size="14" lengthAdjust="spacing" textLength="223" x="26" y="628.2485">zur Pr&#252;fung der Gesamtmedikation.</text><!--SRC=[bLRRak8s47ttLoZmiBjLOGBcFbMRb5dCR2hPXGBoafafIjXjh61aHvBdGYf_iv-Hj_cnj6GkiY4FyJoCr7twTjHgePXAWCm4o42mJB6KDnP0HH0xpZkvPJoZWku83LGg5keLeVGPPBe3npbhrwa8GNnAarIGUjDyjfO6sur8SnuU455N_ra86TCmVMPyGoAQIB0q1pF1GP2MxJI4YEQ9cgHSVQKx83LFC9hKhYCMR0-arRck_A-qFxzc81B6jnR0zwy1VkEXMS15-gFqPKR3K5VcDiloaSrPrtmsfJnLGFvo21bLsOCcTADcenwsmY7qDCBsD5WFkxHxaYvZ5cmvI4bQA9jRR3PnVynDUx6eQBLQ0xUFiaNbNFwsCvJmPmuyABASKQ5Om3BArRN2Ie1BqY_KnmChAImc2V64I9-h-HfXkMGZkXRnf2XYjL5qXpHdfVHFdWlLnL50v4PHsV8StjLyVOUTfZlZq_JNwNnrD_PMBO9VlTNjDGVke7a5u1h0iDThziSNW9ct_Dd_kjGUXhsHsxa0UBCfCL-zEHdwu-wm2l2_-EFLn4C03Fjksrs7LS1gxl_kpvQa7eJjVjkbmsePqrz8AORRlG0KLP1wkzDl3y8EL6FCvzEv0VZ3Vgljjh7vpOmX1KLKaXgk7hWdzke7_9UbAeOjY9hDf9ETkuF05mXrNTeK6hWX4wzMhjbvHqeMgpdi8LC7as9Jgx20UUKgvVbk3S9nYkmQFnwZtP8xVqbmpGAgP-TSNmgfo8ufiiY3s5mLK23uxGDl40J19XMlv2EM1rc2MG3nrXkwXfhMIqLLBb6BNB0d8EzJCv5fya5hdsZ2GgPUPo1O6bfAny3Hzu4zcwAJwiXFkGiSvoWl5LNEZJ_WnC2I52JSSVGLoCwTG1DrQK0s4E4z0VuJkV-3Fk8LiSAOn6x9207udhnNE4S_IlFcI50V37T7V_peq44NPYQcJt1e4dtlnXu14RzzI_0G4tI64GtlMy6GT8Ox7PehcGa8Oj0PNVhMc10apXg55gYuAQn24n4PmjbdDpO7nlzNHMcCZUyphiJRjqtPON4H9X0ds5wMpxFJpylbZ7HUNiWKdnlJPDDS1Ve5rbbNZnU53cRkE0vsXsdChR6HkcQIW2oe511PJ7v_YdjBxkynJmmK6AkRMEsIUZ7gzo6Z6spdNKFxQWYW8PdfrHnNZuzN3sXwQ54KUMkHHuRdIbPIixtF1Vu8UVi7ksQ38FG0akxKxWIziO-aL7aHInVzBm00]--></g></svg>