<?xml version="1.0" encoding="us-ascii" standalone="no"?><svg xmlns="http://www.w3.org/2000/svg" xmlns:xlink="http://www.w3.org/1999/xlink" contentStyleType="text/css" height="470px" preserveAspectRatio="none" style="width:671px;height:470px;background:#F5F5F5;" version="1.1" viewBox="0 0 671 470" width="671px" zoomAndPan="magnify"><defs><linearGradient id="g7awwafbml2dp0" x1="50%" x2="50%" y1="0%" y2="100%"><stop offset="0%" stop-color="#E0E5F0"/><stop offset="100%" stop-color="#D1D9E6"/></linearGradient></defs><g><rect fill="#F5F5F5" height="470" style="stroke:none;stroke-width:1.0;" width="671" x="0" y="0"/><text fill="#000000" font-family="Arial" font-size="14" font-weight="bold" lengthAdjust="spacing" textLength="302" x="186.5" y="28.1318">Leerer Medikationsplan (keine Medikation)</text><rect fill="#156082" fill-opacity="0.50196" height="222.5386" style="stroke:#181818;stroke-width:1.0;" width="10" x="90" y="149.146"/><rect fill="#E97232" fill-opacity="0.74118" height="222.5386" style="stroke:#181818;stroke-width:1.0;" width="10" x="324" y="149.146"/><line style="stroke:#181818;stroke-width:0.5;stroke-dasharray:5.0,5.0;" x1="95" x2="95" y1="118.1973" y2="389.6846"/><line style="stroke:#181818;stroke-width:0.5;stroke-dasharray:5.0,5.0;" x1="329" x2="329" y1="118.1973" y2="389.6846"/><text fill="#000000" font-family="Arial" font-size="14" lengthAdjust="spacing" textLength="42" x="71" y="115.2305">GDA 1</text><ellipse cx="95" cy="50.5986" fill="#156082" fill-opacity="0.50196" rx="8" ry="8" style="stroke:#181818;stroke-width:0.5;"/><path d="M95,58.5986 L95,85.5986 M82,66.5986 L108,66.5986 M95,85.5986 L82,100.5986 M95,85.5986 L108,100.5986 " fill="none" style="stroke:#181818;stroke-width:0.5;"/><text fill="#000000" font-family="Arial" font-size="14" lengthAdjust="spacing" textLength="42" x="71" y="401.8164">GDA 1</text><ellipse cx="95" cy="413.2832" fill="#156082" fill-opacity="0.50196" rx="8" ry="8" style="stroke:#181818;stroke-width:0.5;"/><path d="M95,421.2832 L95,448.2832 M82,429.2832 L108,429.2832 M95,448.2832 L82,463.2832 M95,448.2832 L108,463.2832 " fill="none" style="stroke:#181818;stroke-width:0.5;"/><rect fill="#E97232" fill-opacity="0.74118" height="30.0986" rx="5" ry="5" style="stroke:#555555;stroke-width:0.5;" width="76" x="291" y="87.0986"/><text fill="#000000" font-family="Arial" font-size="14" lengthAdjust="spacing" textLength="62" x="298" y="107.2305">e-Med FA</text><rect fill="#E97232" fill-opacity="0.74118" height="30.0986" rx="5" ry="5" style="stroke:#555555;stroke-width:0.5;" width="76" x="291" y="388.6846"/><text fill="#000000" font-family="Arial" font-size="14" lengthAdjust="spacing" textLength="62" x="298" y="408.8164">e-Med FA</text><rect fill="#156082" fill-opacity="0.50196" height="222.5386" style="stroke:#181818;stroke-width:1.0;" width="10" x="90" y="149.146"/><rect fill="#E97232" fill-opacity="0.74118" height="222.5386" style="stroke:#181818;stroke-width:1.0;" width="10" x="324" y="149.146"/><polygon fill="#111827" points="312,145.146,322,149.146,312,153.146,316,149.146" style="stroke:#111827;stroke-width:1.0;"/><line style="stroke:#111827;stroke-width:1.0;" x1="100" x2="318" y1="149.146" y2="149.146"/><text fill="#000000" font-family="Arial" font-size="13" font-weight="bold" lengthAdjust="spacing" textLength="7" x="107" y="144.3911">1</text><text fill="#000000" font-family="Arial" font-size="13" lengthAdjust="spacing" textLength="99" x="118" y="144.3911">POST $plan-read</text><path d="M5,167.146 L5,196.146 A5,5 0 0 0 10,201.146 L181,201.146 A5,5 0 0 0 186,196.146 L186,172.146 L176,162.146 L10,162.146 A5,5 0 0 0 5,167.146 " fill="url(#g7awwafbml2dp0)" style="stroke:#8B95A5;stroke-width:1.0;"/><path d="M176,162.146 L176,169.646 A2.5,2.5 0 0 0 178.5,172.146 L186,172.146 L176,162.146 " fill="url(#g7awwafbml2dp0)" style="stroke:#8B95A5;stroke-width:1.0;"/><text fill="#111827" font-family="Arial" font-size="13" lengthAdjust="spacing" textLength="160" x="11" y="179.3398">Abruf des Medikationsplans</text><text fill="#111827" font-family="Arial" font-size="13" lengthAdjust="spacing" textLength="91" x="11" y="194.2886">zur Bearbeitung</text><line style="stroke:#111827;stroke-width:1.0;" x1="334" x2="376" y1="242.9409" y2="242.9409"/><line style="stroke:#111827;stroke-width:1.0;" x1="376" x2="376" y1="242.9409" y2="255.9409"/><line style="stroke:#111827;stroke-width:1.0;" x1="335" x2="376" y1="255.9409" y2="255.9409"/><polygon fill="#111827" points="345,251.9409,335,255.9409,345,259.9409,341,255.9409" style="stroke:#111827;stroke-width:1.0;"/><text fill="#000000" font-family="Arial" font-size="13" font-weight="bold" lengthAdjust="spacing" textLength="7" x="341" y="230.7117">2</text><text fill="#000000" font-family="Arial" font-size="13" lengthAdjust="spacing" textLength="91" x="352" y="223.2373">Existiert bereits</text><text fill="#000000" font-family="Arial" font-size="13" lengthAdjust="spacing" textLength="122" x="352" y="238.186">ein Medikationsplan?</text><line style="stroke:#111827;stroke-width:1.0;" x1="334" x2="376" y1="314.7871" y2="314.7871"/><line style="stroke:#111827;stroke-width:1.0;" x1="376" x2="376" y1="314.7871" y2="327.7871"/><line style="stroke:#111827;stroke-width:1.0;" x1="335" x2="376" y1="327.7871" y2="327.7871"/><polygon fill="#111827" points="345,323.7871,335,327.7871,345,331.7871,341,327.7871" style="stroke:#111827;stroke-width:1.0;"/><text fill="#000000" font-family="Arial" font-size="13" font-weight="bold" lengthAdjust="spacing" textLength="7" x="341" y="295.0835">3</text><text fill="#000000" font-family="Arial" font-size="13" lengthAdjust="spacing" textLength="138" x="352" y="280.1348">Wenn Plan vorhanden +</text><text fill="#000000" font-family="Arial" font-size="13" lengthAdjust="spacing" textLength="299" x="352" y="295.0835">alle List.enty.flags im Medikationsplan = "removed":</text><text fill="#000000" font-family="Arial" font-size="13" lengthAdjust="spacing" textLength="312" x="352" y="310.0322">Fachanwendung setzt List.emptyReason = "nilknown"</text><polygon fill="#111827" points="106,367.6846,96,371.6846,106,375.6846,102,371.6846" style="stroke:#111827;stroke-width:1.0;"/><line style="stroke:#111827;stroke-width:1.0;" x1="100" x2="328" y1="371.6846" y2="371.6846"/><text fill="#000000" font-family="Arial" font-size="13" font-weight="bold" lengthAdjust="spacing" textLength="7" x="112" y="359.4553">4</text><text fill="#000000" font-family="Arial" font-size="13" lengthAdjust="spacing" textLength="134" x="123" y="351.981">Leerer Medikationsplan</text><text fill="#000000" font-family="Arial" font-size="13" lengthAdjust="spacing" textLength="189" x="123" y="366.9297">(List.emptyReason = "nilknown")</text><!--SRC=[VLLXRzem4FsUNt4BazPfeaf20wJIDeKHkcbjGS0qQK921X_K8jZCSKhfjFy-9q1n4ZhdItBtxjsxStnMJCK8juWI9TmXPIkYcE399YOSBbR8E1hczvRrBbanlY6Ih87CbP0ZjTC4P8k9MADbdRmp8IdABo8M4cfElamlcQ-MKgIS7X0BFtiCHF90gDWoleG5YHCqF8SmoRLaroIbk21fh7g2gtkoHh13oKXicveDo8Wz8xXNv-DVq_rrjq4PCxuo055q3l23q_m5A_exucb0ACrAyvoYlMCspS-NsLCk5C8V2w1JRXyww2-SUeswDC1cXZ2PshF09_wBTVp0vYkEIGAkjWsDTZhw-wWjOp5QuRfkssjfswYqCNzDXGd-Jf7Fzoe7H2esPnl2rRd2Ye3A3v6l8gYwCnNtSLSB3gFT0A6KObikAZSM-vARpcLySUnpDRJfHYlV56fyOTwxAlk52o-lpeWyfVUofhxHlsFs-tpft_Q7qvjkE7L1hvhhDvssrtRE0BmS43IRJgjR0Gp2yRVeVfmn1CsETrK1X8C-vAlcz8AewmTbG7GNTQUzK0CmQ7aDRqRBWEam-XKDnb2RqqQhuP6WN4R_EnHoU7wPOZZi3tD05BJSXjVG1o0VDB3l04d0rc_WscPZhCrfim7rmCfaPb2iwm_eXNQn1CsPAi7JzGobPUsPwv-EaTSmw8_6y3ORWdM9X6OAs2FHXsyFDJDR-Q4KZtXGQ8KpcIxqB4dAypIndbC97IHoXaobV6aXf_cPjau9ZkABSezMKsFqn1B5K2hGHMZ2PCBrk2ud_MoT3Vw9dCCW6_AFGZuGFQiuV9Xm4cUtWUQzHAvsbukOB1DWwyhDy15iYMjTDBMl9xn7vffYgwlHHUaHe9xLWMIzKRiXaaJa8Pp5Aowst2veohjs_SeTDE4N_sNIDnB5SlDCqtvF_W40]--></g></svg>