<svg xmlns="http://www.w3.org/2000/svg" xmlns:xlink="http://www.w3.org/1999/xlink" version="1.1" data-diagram-type="SEQUENCE" style="width:831px;height:1001px;background:#F5F5F5;" width="831px" height="1001px" viewBox="0 0 831 1001" zoomAndPan="magnify" preserveAspectRatio="none" contentStyleType="text/css"><?plantuml 1.2026.7beta3?><defs><linearGradient x1="50%" y1="0%" x2="50%" y2="100%" id="g1e6x4jcopq76i0"><stop stop-color="#E0E5F0" offset="0%"/><stop stop-color="#D1D9E6" offset="100%"/></linearGradient></defs><g><rect x="0" y="0" width="831" height="1001" fill="#F5F5F5" style="stroke:none;stroke-width:1;"/><g class="title" data-source-line="1"><text x="142.9031" y="27.9951" fill="#000000" font-size="14" lengthAdjust="spacing" textLength="539.0137" font-weight="700" font-family="'Arial'">Geplante Abgabe für bestehende Medikationsplaneinträge erstellen</text><text x="128.8621" y="44.292" fill="#000000" font-size="14" lengthAdjust="spacing" textLength="567.0957" font-weight="700" font-family="'Arial'">Variante B: Sequentielles Erstellen von Geplanter Abgabe und e-Rezept</text></g><g><title>GDA 1</title><rect x="158.2817" y="144.8906" width="10" height="712.8359" fill="#156082" fill-opacity="0.50196" style="stroke:#181818;stroke-width:1;"/></g><g><title>e-Med FA</title><rect x="491.9619" y="439.9922" width="10" height="196.7188" fill="#E97232" fill-opacity="0.74118" style="stroke:#181818;stroke-width:1;"/></g><g><title>e-Rezept</title><rect x="762.6479" y="672.8438" width="10" height="155.75" fill="#CD3732" fill-opacity="0.66275" style="stroke:#181818;stroke-width:1;"/></g><rect x="128" y="454.9922" width="639.6479" height="189.7188" fill="#0F9ED5" fill-opacity="0.14510" style="stroke:#111827;stroke-width:2;" rx="5" ry="5"/><path d="M128,597.2813 L767.6479,597.2813 L767.6479,639.7109 A5,5 0 0 1 762.6479,644.7109 L133,644.7109 A5,5 0 0 1 128,639.7109 L128,597.2813" style="stroke:none;stroke-width:1;" fill="#E97132" fill-opacity="0.20784"/><rect x="128" y="740.4375" width="687.8198" height="161.5859" fill="#0F9ED5" fill-opacity="0.14510" style="stroke:#111827;stroke-width:2;" rx="5" ry="5"/><path d="M128,789.1641 L815.8198,789.1641 L815.8198,897.0234 A5,5 0 0 1 810.8198,902.0234 L133,902.0234 A5,5 0 0 1 128,897.0234 L128,789.1641" style="stroke:none;stroke-width:1;" fill="#E97132" fill-opacity="0.20784"/><g class="participant-lifeline" data-qualified-name="GDA_1" data-entity-uid="part1" id="part1-lifeline" data-source-line="52"><g><title>GDA 1</title><rect x="159.2817" y="134.8906" width="8" height="784.1328" fill="#000000" fill-opacity="0.00000"/><line x1="163" y1="134.8906" x2="163" y2="919.0234" style="stroke:#181818;stroke-width:0.5;stroke-dasharray:5,5;"/></g></g><g class="participant-lifeline" data-qualified-name="eMed_FA" data-entity-uid="part2" id="part2-lifeline" data-source-line="53"><g><title>e-Med FA</title><rect x="492.9619" y="134.8906" width="8" height="784.1328" fill="#000000" fill-opacity="0.00000"/><line x1="496.2998" y1="134.8906" x2="496.2998" y2="919.0234" style="stroke:#181818;stroke-width:0.5;stroke-dasharray:5,5;"/></g></g><g class="participant-lifeline" data-qualified-name="e_Rezept" data-entity-uid="part3" id="part3-lifeline" data-source-line="54"><g><title>e-Rezept</title><rect x="763.6479" y="134.8906" width="8" height="784.1328" fill="#000000" fill-opacity="0.00000"/><line x1="767.4761" y1="134.8906" x2="767.4761" y2="919.0234" style="stroke:#181818;stroke-width:0.5;stroke-dasharray:5,5;"/></g></g><g class="participant participant-head" data-qualified-name="GDA_1" data-entity-uid="part1" id="part1-head" data-source-line="52"><text x="138" y="131.5889" fill="#000000" font-size="14" lengthAdjust="spacing" textLength="44.5635" font-family="'Arial'">GDA 1</text><ellipse cx="163.2817" cy="67.0938" rx="8" ry="8" fill="#156082" fill-opacity="0.50196" style="stroke:#181818;stroke-width:0.5;"/><path d="M163.2817,75.0938 L163.2817,102.0938 M150.2817,83.0938 L176.2817,83.0938 M163.2817,102.0938 L150.2817,117.0938 M163.2817,102.0938 L176.2817,117.0938" style="stroke:#181818;stroke-width:0.5;" fill="none"/></g><g class="participant participant-tail" data-qualified-name="GDA_1" data-entity-uid="part1" id="part1-tail" data-source-line="52"><text x="138" y="931.0186" fill="#000000" font-size="14" lengthAdjust="spacing" textLength="44.5635" font-family="'Arial'">GDA 1</text><ellipse cx="163.2817" cy="942.8203" rx="8" ry="8" fill="#156082" fill-opacity="0.50196" style="stroke:#181818;stroke-width:0.5;"/><path d="M163.2817,950.8203 L163.2817,977.8203 M150.2817,958.8203 L176.2817,958.8203 M163.2817,977.8203 L150.2817,992.8203 M163.2817,977.8203 L176.2817,992.8203" style="stroke:#181818;stroke-width:0.5;" fill="none"/></g><g class="participant participant-head" data-qualified-name="eMed_FA" data-entity-uid="part2" id="part2-head" data-source-line="53"><rect x="457.2998" y="103.5938" width="79.3242" height="30.2969" fill="#E97232" fill-opacity="0.74118" style="stroke:#555555;stroke-width:0.5;" rx="5" ry="5"/><text x="464.2998" y="123.5889" fill="#000000" font-size="14" lengthAdjust="spacing" textLength="65.3242" font-family="'Arial'">e-Med FA</text></g><g class="participant participant-tail" data-qualified-name="eMed_FA" data-entity-uid="part2" id="part2-tail" data-source-line="53"><rect x="457.2998" y="918.0234" width="79.3242" height="30.2969" fill="#E97232" fill-opacity="0.74118" style="stroke:#555555;stroke-width:0.5;" rx="5" ry="5"/><text x="464.2998" y="938.0186" fill="#000000" font-size="14" lengthAdjust="spacing" textLength="65.3242" font-family="'Arial'">e-Med FA</text></g><g class="participant participant-head" data-qualified-name="e_Rezept" data-entity-uid="part3" id="part3-head" data-source-line="54"><rect x="729.4761" y="103.5938" width="76.3438" height="30.2969" fill="#CD3732" fill-opacity="0.66275" style="stroke:#555555;stroke-width:0.5;" rx="5" ry="5"/><text x="736.4761" y="123.5889" fill="#000000" font-size="14" lengthAdjust="spacing" textLength="62.3438" font-family="'Arial'">e-Rezept</text></g><g class="participant participant-tail" data-qualified-name="e_Rezept" data-entity-uid="part3" id="part3-tail" data-source-line="54"><rect x="729.4761" y="918.0234" width="76.3438" height="30.2969" fill="#CD3732" fill-opacity="0.66275" style="stroke:#555555;stroke-width:0.5;" rx="5" ry="5"/><text x="736.4761" y="938.0186" fill="#000000" font-size="14" lengthAdjust="spacing" textLength="62.3438" font-family="'Arial'">e-Rezept</text></g><g><title>GDA 1</title><rect x="158.2817" y="144.8906" width="10" height="712.8359" fill="#156082" fill-opacity="0.50196" style="stroke:#181818;stroke-width:1;"/></g><g><title>e-Med FA</title><rect x="491.9619" y="439.9922" width="10" height="196.7188" fill="#E97232" fill-opacity="0.74118" style="stroke:#181818;stroke-width:1;"/></g><g><title>e-Rezept</title><rect x="762.6479" y="672.8438" width="10" height="155.75" fill="#CD3732" fill-opacity="0.66275" style="stroke:#181818;stroke-width:1;"/></g><rect x="0" y="166.0391" width="825.8198" height="3" fill="#EEEEEE" style="stroke:#EEEEEE;stroke-width:1;" rx="5" ry="5"/><line x1="0" y1="166.0391" x2="825.8198" y2="166.0391" style="stroke:#000000;stroke-width:1;"/><line x1="0" y1="169.0391" x2="825.8198" y2="169.0391" style="stroke:#000000;stroke-width:1;"/><rect x="304.7654" y="154.8906" width="216.2891" height="24.2969" fill="#EEEEEE" style="stroke:#000000;stroke-width:2;" rx="5" ry="5"/><text x="310.7654" y="171.8857" fill="#000000" font-size="14" lengthAdjust="spacing" textLength="197.415" font-weight="700" font-family="'Arial'">Medikationsplan abrufen</text><rect x="135" y="189.1875" width="404.624" height="42.5938" fill="none" style="stroke:#000000;stroke-width:1.5;" rx="5" ry="5"/><path d="M140,189.1875 L202,189.1875 L202,197.1875 L192,207.1875 L135,207.1875 L135,194.1875 A5,5 0 0 1 140,189.1875" style="stroke:#000000;stroke-width:2;" fill="#EEEEEE"/><text x="148" y="204.1826" fill="#000000" font-size="14" lengthAdjust="spacing" textLength="22.4902" font-weight="700" font-family="'Arial'">ref</text><a target="_top" href="interactions.html#sequenzdiagramm-plan-read" xlink:href="interactions.html#sequenzdiagramm-plan-read" xlink:type="simple" xlink:actuate="onRequest" xlink:show="new" title="interactions.html#sequenzdiagramm-plan-read" xlink:title="interactions.html#sequenzdiagramm-plan-read"><text x="301.9907" y="224.1826" fill="#0000EE" font-size="14" lengthAdjust="spacing" textLength="70.6426" font-family="'Arial'">Plan-Read</text></a><path d="M35,246.7813 L35,278.7813 A5,5 0 0 0 40,283.7813 L285,283.7813 A5,5 0 0 0 290,278.7813 L290,251.7813 L280,241.7813 L40,241.7813 A5,5 0 0 0 35,246.7813" style="stroke:#8B95A5;stroke-width:1;" fill="url(#g1e6x4jcopq76i0)"/><path d="M280,241.7813 L280,249.2813 A2.5,2.5 0 0 0 282.5,251.7813 L290,251.7813 L280,241.7813" style="stroke:#8B95A5;stroke-width:1;" fill="url(#g1e6x4jcopq76i0)"/><text x="41" y="259.7764" fill="#111827" font-size="14" lengthAdjust="spacing" textLength="195.8018" font-family="'Arial'">GDA erhält Medikationsplan</text><text x="41" y="276.0732" fill="#111827" font-size="14" lengthAdjust="spacing" textLength="234.377" font-family="'Arial'">(Auslieferungs-Collection-Bundle)</text><rect x="0" y="310.5234" width="825.8198" height="3" fill="#EEEEEE" style="stroke:#EEEEEE;stroke-width:1;" rx="5" ry="5"/><line x1="0" y1="310.5234" x2="825.8198" y2="310.5234" style="stroke:#000000;stroke-width:1;"/><line x1="0" y1="313.5234" x2="825.8198" y2="313.5234" style="stroke:#000000;stroke-width:1;"/><rect x="223.24" y="299.375" width="379.3398" height="24.2969" fill="#EEEEEE" style="stroke:#000000;stroke-width:2;" rx="5" ry="5"/><text x="229.24" y="316.3701" fill="#000000" font-size="14" lengthAdjust="spacing" textLength="360.4658" font-weight="700" font-family="'Arial'">Geplante Abgaben vorbereiten und schreiben</text><path d="M5,343.6719 L5,408.6719 A5,5 0 0 0 10,413.6719 L317,413.6719 A5,5 0 0 0 322,408.6719 L322,348.6719 L312,338.6719 L10,338.6719 A5,5 0 0 0 5,343.6719" style="stroke:#8B95A5;stroke-width:1;" fill="url(#g1e6x4jcopq76i0)"/><path d="M312,338.6719 L312,346.1719 A2.5,2.5 0 0 0 314.5,348.6719 L322,348.6719 L312,338.6719" style="stroke:#8B95A5;stroke-width:1;" fill="url(#g1e6x4jcopq76i0)"/><text x="11" y="356.667" fill="#111827" font-size="14" lengthAdjust="spacing" textLength="57.8799" font-family="'Arial'">Erstellte</text><text x="73.3301" y="356.667" fill="#111827" font-size="14" lengthAdjust="spacing" textLength="130.5459" font-style="italic" font-family="'Arial'">Geplante Abgaben</text><text x="208.3262" y="356.667" fill="#111827" font-size="14" lengthAdjust="spacing" textLength="94.2471" font-family="'Arial'">referenzieren</text><text x="11" y="372.9639" fill="#111827" font-size="14" lengthAdjust="spacing" textLength="260.668" font-family="'Arial'">zugehörige Medikationsplaneinträge;</text><text x="11" y="389.2607" fill="#111827" font-size="14" lengthAdjust="spacing" textLength="256.2725" font-family="'Arial'">groupIdentifier für "Rezeptklammer"</text><text x="11" y="405.5576" fill="#111827" font-size="14" lengthAdjust="spacing" textLength="70.9775" font-family="'Arial'">bleibt leer</text><g class="message" data-entity-1="part1" data-entity-2="part2" id="msg1" data-source-line="77"><polygon points="479.9619,435.9922,489.9619,439.9922,479.9619,443.9922,483.9619,439.9922" fill="#111827" style="stroke:#111827;stroke-width:1;stroke-linejoin:miter;stroke-miterlimit:10;"/><line x1="168.2817" y1="439.9922" x2="485.9619" y2="439.9922" style="stroke:#111827;stroke-width:1;"/><text x="175.2817" y="434.9263" fill="#000000" font-size="13" lengthAdjust="spacing" textLength="9.0454" font-weight="700" font-family="'Arial'">1</text><text x="188.3271" y="434.9263" fill="#000000" font-size="13" lengthAdjust="spacing" textLength="247.749" font-family="'Arial'">POST Transaction Bundle GeplAbgabe</text></g><path d="M133,454.9922 L193.9385,454.9922 L193.9385,463.2891 L183.9385,473.2891 L128,473.2891 L128,459.9922 A5,5 0 0 1 133,454.9922" style="stroke:#111827;stroke-width:1.5;" fill="#EEF2FF"/><rect x="128" y="454.9922" width="639.6479" height="189.7188" fill="none" style="stroke:#111827;stroke-width:2;" rx="5" ry="5"/><text x="143" y="468.9873" fill="#000000" font-size="14" lengthAdjust="spacing" textLength="20.9385" font-weight="700" font-family="'Arial'">alt</text><text x="208.9385" y="469.9873" fill="#000000" font-size="14" lengthAdjust="spacing" textLength="220.9717" font-weight="700" font-family="'Arial'">[Geplante Abgaben erstellt]</text><g class="message" data-entity-1="part2" data-entity-2="part2" id="msg2" data-source-line="82"><line x1="501.9619" y1="510.8516" x2="543.9619" y2="510.8516" style="stroke:#111827;stroke-width:1;"/><line x1="543.9619" y1="510.8516" x2="543.9619" y2="523.8516" style="stroke:#111827;stroke-width:1;"/><line x1="502.9619" y1="523.8516" x2="543.9619" y2="523.8516" style="stroke:#111827;stroke-width:1;"/><polygon points="512.9619,519.8516,502.9619,523.8516,512.9619,527.8516,508.9619,523.8516" fill="#111827" style="stroke:#111827;stroke-width:1;stroke-linejoin:miter;stroke-miterlimit:10;"/><text x="508.9619" y="498.2192" fill="#000000" font-size="13" lengthAdjust="spacing" textLength="9.0454" font-weight="700" font-family="'Arial'">2</text><text x="522.0073" y="490.6528" fill="#000000" font-size="13" lengthAdjust="spacing" textLength="207.7397" font-family="'Arial'">e-Med GroupIdentifier erzeugen</text><text x="522.0073" y="505.7856" fill="#000000" font-size="13" lengthAdjust="spacing" textLength="223.6406" font-family="'Arial'">+ in geplanten Abgaben ergänzen</text></g><path d="M360,541.8516 L360,557.8516 A5,5 0 0 0 365,562.8516 L627,562.8516 A5,5 0 0 0 632,557.8516 L632,546.8516 L622,536.8516 L365,536.8516 A5,5 0 0 0 360,541.8516" style="stroke:#8B95A5;stroke-width:1;" fill="url(#g1e6x4jcopq76i0)"/><path d="M622,536.8516 L622,544.3516 A2.5,2.5 0 0 0 624.5,546.8516 L632,546.8516 L622,536.8516" style="stroke:#8B95A5;stroke-width:1;" fill="url(#g1e6x4jcopq76i0)"/><text x="366" y="554.8467" fill="#111827" font-size="14" lengthAdjust="spacing" textLength="251.6309" font-family="'Arial'">Geplante Abgabe 1 + 2 gespeichert</text><g class="message" data-entity-1="part2" data-entity-2="part1" id="msg3" data-source-line="88"><polygon points="179.2817,585.2813,169.2817,589.2813,179.2817,593.2813,175.2817,589.2813" fill="#111827" style="stroke:#111827;stroke-width:1;stroke-linejoin:miter;stroke-miterlimit:10;"/><line x1="173.2817" y1="589.2813" x2="490.9619" y2="589.2813" style="stroke:#111827;stroke-width:1;stroke-dasharray:2,2;"/><text x="185.2817" y="584.2153" fill="#000000" font-size="13" lengthAdjust="spacing" textLength="9.0454" font-weight="700" font-family="'Arial'">3</text><text x="198.3271" y="584.2153" fill="#000000" font-size="13" lengthAdjust="spacing" textLength="286.6348" font-family="'Arial'">OK (Ressourcen inkl. e-Med GroupIdentifier)</text></g><line x1="128" y1="598.2813" x2="767.6479" y2="598.2813" style="stroke:#111827;stroke-width:1;stroke-dasharray:2,2;"/><text x="133" y="611.2764" fill="#000000" font-size="14" lengthAdjust="spacing" textLength="213.9854" font-weight="700" font-family="'Arial'">[Geplante Abgaben Fehler]</text><g class="message" data-entity-1="part2" data-entity-2="part1" id="msg4" data-source-line="92"><polygon points="179.2817,632.7109,169.2817,636.7109,179.2817,640.7109,175.2817,636.7109" fill="#111827" style="stroke:#111827;stroke-width:1;stroke-linejoin:miter;stroke-miterlimit:10;"/><line x1="173.2817" y1="636.7109" x2="495.9619" y2="636.7109" style="stroke:#111827;stroke-width:1;stroke-dasharray:2,2;"/><text x="185.2817" y="631.645" fill="#000000" font-size="13" lengthAdjust="spacing" textLength="9.0454" font-weight="700" font-family="'Arial'">4</text><text x="198.3271" y="631.645" fill="#000000" font-size="13" lengthAdjust="spacing" textLength="40.6694" font-family="'Arial'">Fehler</text></g><g class="message" data-entity-1="part1" data-entity-2="part3" id="msg5" data-source-line="97"><polygon points="750.6479,668.8438,760.6479,672.8438,750.6479,676.8438,754.6479,672.8438" fill="#111827" style="stroke:#111827;stroke-width:1;stroke-linejoin:miter;stroke-miterlimit:10;"/><line x1="168.2817" y1="672.8438" x2="756.6479" y2="672.8438" style="stroke:#111827;stroke-width:1;"/><text x="175.2817" y="667.7778" fill="#000000" font-size="13" lengthAdjust="spacing" textLength="9.0454" font-weight="700" font-family="'Arial'">5</text><text x="188.3271" y="667.7778" fill="#000000" font-size="13" lengthAdjust="spacing" textLength="357.8174" font-family="'Arial'">Trigger e-Rezept erstellen (inkl. e-Med GroupIdentifier)</text></g><path d="M42,690.8438 L42,722.8438 A5,5 0 0 0 47,727.8438 L278,727.8438 A5,5 0 0 0 283,722.8438 L283,695.8438 L273,685.8438 L47,685.8438 A5,5 0 0 0 42,690.8438" style="stroke:#8B95A5;stroke-width:1;" fill="url(#g1e6x4jcopq76i0)"/><path d="M273,685.8438 L273,693.3438 A2.5,2.5 0 0 0 275.5,695.8438 L283,695.8438 L273,685.8438" style="stroke:#8B95A5;stroke-width:1;" fill="url(#g1e6x4jcopq76i0)"/><text x="48" y="703.8389" fill="#111827" font-size="14" lengthAdjust="spacing" textLength="170.8643" font-family="'Arial'">Erstellung e-Rezept inkl.</text><text x="48" y="720.1357" fill="#111827" font-size="14" lengthAdjust="spacing" textLength="220.124" font-family="'Arial'">e-Med GroupIdentifier auslösen</text><path d="M133,740.4375 L193.9385,740.4375 L193.9385,748.7344 L183.9385,758.7344 L128,758.7344 L128,745.4375 A5,5 0 0 1 133,740.4375" style="stroke:#111827;stroke-width:1.5;" fill="#EEF2FF"/><rect x="128" y="740.4375" width="687.8198" height="161.5859" fill="none" style="stroke:#111827;stroke-width:2;" rx="5" ry="5"/><text x="143" y="754.4326" fill="#000000" font-size="14" lengthAdjust="spacing" textLength="20.9385" font-weight="700" font-family="'Arial'">alt</text><text x="208.9385" y="755.4326" fill="#000000" font-size="14" lengthAdjust="spacing" textLength="144.8193" font-weight="700" font-family="'Arial'">[e-Rezept erstellt]</text><g class="message" data-entity-1="part3" data-entity-2="part1" id="msg6" data-source-line="105"><polygon points="179.2817,777.1641,169.2817,781.1641,179.2817,785.1641,175.2817,781.1641" fill="#111827" style="stroke:#111827;stroke-width:1;stroke-linejoin:miter;stroke-miterlimit:10;"/><line x1="173.2817" y1="781.1641" x2="761.6479" y2="781.1641" style="stroke:#111827;stroke-width:1;stroke-dasharray:2,2;"/><text x="185.2817" y="776.0981" fill="#000000" font-size="13" lengthAdjust="spacing" textLength="9.0454" font-weight="700" font-family="'Arial'">6</text><text x="198.3271" y="776.0981" fill="#000000" font-size="13" lengthAdjust="spacing" textLength="18.7573" font-family="'Arial'">OK</text></g><line x1="128" y1="790.1641" x2="815.8198" y2="790.1641" style="stroke:#111827;stroke-width:1;stroke-dasharray:2,2;"/><text x="133" y="803.1592" fill="#000000" font-size="14" lengthAdjust="spacing" textLength="137.833" font-weight="700" font-family="'Arial'">[e-Rezept Fehler]</text><g class="message" data-entity-1="part3" data-entity-2="part1" id="msg7" data-source-line="108"><polygon points="179.2817,824.5938,169.2817,828.5938,179.2817,832.5938,175.2817,828.5938" fill="#111827" style="stroke:#111827;stroke-width:1;stroke-linejoin:miter;stroke-miterlimit:10;"/><line x1="173.2817" y1="828.5938" x2="766.6479" y2="828.5938" style="stroke:#111827;stroke-width:1;stroke-dasharray:2,2;"/><text x="185.2817" y="823.5278" fill="#000000" font-size="13" lengthAdjust="spacing" textLength="9.0454" font-weight="700" font-family="'Arial'">7</text><text x="198.3271" y="823.5278" fill="#000000" font-size="13" lengthAdjust="spacing" textLength="40.6694" font-family="'Arial'">Fehler</text></g><g class="message" data-entity-1="part1" data-entity-2="part2" id="msg8" data-source-line="110"><polygon points="484.9619,853.7266,494.9619,857.7266,484.9619,861.7266,488.9619,857.7266" fill="#111827" style="stroke:#111827;stroke-width:1;stroke-linejoin:miter;stroke-miterlimit:10;"/><line x1="163.2817" y1="857.7266" x2="490.9619" y2="857.7266" style="stroke:#111827;stroke-width:1;"/><text x="170.2817" y="852.6606" fill="#000000" font-size="13" lengthAdjust="spacing" textLength="9.0454" font-weight="700" font-family="'Arial'">8</text><text x="183.3271" y="852.6606" fill="#000000" font-size="13" lengthAdjust="spacing" textLength="112.9819" font-style="italic" font-family="'Arial'">Geplante Abgabe</text><text x="300.4414" y="852.6606" fill="#000000" font-size="13" lengthAdjust="spacing" textLength="135.7192" font-family="'Arial'">verwerfen ($discard)</text></g><path d="M325,875.7266 L325,891.7266 A5,5 0 0 0 330,896.7266 L663,896.7266 A5,5 0 0 0 668,891.7266 L668,880.7266 L658,870.7266 L330,870.7266 A5,5 0 0 0 325,875.7266" style="stroke:#8B95A5;stroke-width:1;" fill="url(#g1e6x4jcopq76i0)"/><path d="M658,870.7266 L658,878.2266 A2.5,2.5 0 0 0 660.5,880.7266 L668,880.7266 L658,870.7266" style="stroke:#8B95A5;stroke-width:1;" fill="url(#g1e6x4jcopq76i0)"/><text x="331" y="888.7217" fill="#111827" font-size="14" lengthAdjust="spacing" textLength="119.082" font-family="'Arial'">Siehe Use Case "</text><text x="450.082" y="888.7217" fill="#111827" font-size="14" lengthAdjust="spacing" textLength="121.6729" font-style="italic" font-family="'Arial'">Geplante Abgabe</text><text x="576.2051" y="888.7217" fill="#111827" font-size="14" lengthAdjust="spacing" textLength="77.3281" font-family="'Arial'">verwerfen"</text><?plantuml-src XLRTZjf65BwVfpY5IjrLIefDW6MRNGcoi8tI10Ia5qqZDE236M76T6ns4wg-pJv3hdh7Y_NCsC3uPriZeV6SCsU-yvq_no8E4Evn6t0P8tJdFfyZB0__A9XZ5ECAfOVm7Zsnvh48PQGLKSXO7Pvy15Ia4mGe_v2_SIMCZTurJF3F7SfOQ544_QCIF8JoT9SwNhQJ7c1jZ7lSni3O3z5Qo2rNV0Dy4OTg4dybXFmHet23Z9sbyr1vgDw4GQYWMZUFBUMBjQz2CfvgB9lwPsb4A-w5ZqBwiEH1X9OaFQOaWNHienuk-Iw81w6CF_0DGgLBFWULSes9s2Cuhyg5py7-vUiMLI3asbBezyiKFb9Wz08By7lXbn7tFEsPMy_kzspEckQnAPKXnUyl1j3BiuTrR2xhjQhdU1riQGtRqjMyq-JDq-vq9HPhYL443ksDBJRhz7x4fgrOL3YES-MsQM-IYylVDiB8PDOYGJdYAXOBiQLqAdCigr381_DabOgHAOYFKSq8BBe1kag5Ztcdp6QM5xDLTkD9aDpLeArxGhxD-7Yod8WAySAbQxopJfwlTpMftr4wwlHvC_nrE9xTttLd3j1JTPgj-fLxLIzHS8r2fzMgj-yA2gFkz6t_mrHRwBHwxgk2GdSq1FDKwuDE_wxPoIlqt_VlPeCkAM2dxJRSkPTNc8txl_T7KwWkl4QxuV9EtetXEyZSuJRp9iRZuTWez3jjf-4sg01Cdu640Hv1XLRWL6nYsFOSR41gXngcLiKQlS2WMycwaDMVfSqjEP2yL78k4OfT7ChTPewAiPkRVCy5FbUx9VNGcni3M3nmgjK4imrKuHB21qpT-V44zXe-VHAwxUgpPFFbAju4rQISzfxWFbNNfgPlgYda7epqQaohpvyPCttXR9LfWb2j3az1NC39BhgxA12uHBMJVbIZX0pGt5dhKNu6UCbeffXMO_pCpHuz91HnW2AcjPuDqM95R_FKzJoKTBZGvcjncxVr-YTn2qf38IU5_WUst_cuEdnJmdz-hltCT35jttfwY2tfO38HAqderW5HXQh2vW7XYY502jdPfoGcjTiZzTSm6awcC5LSHWdva11XN4-GdYDwZ5SsdHWdfayPNg0i7SCneu8_6h0195bwd_C9rHw939hTBq18y5EhqZBh7vxa7gMsUoO-DQkRI-wxmO4Nu9AXQ8jYiK8LQpmdOYni1CxGT0tapiMOUbAuKmkwaWPRyB8SxoKPO0nf96HAkK3605S11QJqjaG69FGmJpdJCRJ3bvRjDOLE-Bvs_FYLSlhiWOl_1FnCib9Td6qb1bXvY3YLqk5RH14uqNY6VMmhXKPYvqeUimd9yMGc3YNSdWwVEIqvMavgggYpf50GnL8rbKf4FQBIJUxYUqz42wwyo-TIRoBesnG-Qi2S_Yh_Px9Yfs86QH8QalqB?></g></svg>