<svg xmlns="http://www.w3.org/2000/svg" xmlns:xlink="http://www.w3.org/1999/xlink" version="1.1" data-diagram-type="SEQUENCE" style="width:930px;height:1069px;background:#F5F5F5;" width="930px" height="1069px" viewBox="0 0 930 1069" zoomAndPan="magnify" preserveAspectRatio="none" contentStyleType="text/css"><?plantuml 1.2026.7beta8?><defs><linearGradient x1="50%" y1="0%" x2="50%" y2="100%" id="gi9dqucrmbqsq0"><stop stop-color="#E0E5F0" offset="0%"/><stop stop-color="#D1D9E6" offset="100%"/></linearGradient></defs><g font-family="sans-serif" lengthAdjust="spacing"><rect x="0" y="0" width="930" height="1069" fill="#F5F5F5" style="stroke:none;"/><g class="title" data-source-line="1"><text x="357.838" y="27.995" fill="#000" font-size="14" textLength="212.803" font-weight="700" font-family="'Arial'">Medikationsplan schreiben</text></g><path d="M167,420.367 L905.478,420.367 A5,5 0 0 1 910.478,425.367 L910.478,854.609 L162,854.609 L162,425.367 A5,5 0 0 1 167,420.367" fill="#0F9ED5" fill-opacity="0.145"/><path d="M162,854.609 L910.478,854.609 L910.478,953.469 A5,5 0 0 1 905.478,958.469 L167,958.469 A5,5 0 0 1 162,953.469 L162,854.609" fill="#E97132" fill-opacity="0.208"/><path d="M186,526.359 L880.478,526.359 A5,5 0 0 1 885.478,531.359 L885.478,762.047 L181,762.047 L181,531.359 A5,5 0 0 1 186,526.359" fill="#0F9ED5" fill-opacity="0.145"/><path d="M181,762.047 L885.478,762.047 L885.478,824.609 A5,5 0 0 1 880.478,829.609 L186,829.609 A5,5 0 0 1 181,824.609 L181,762.047" fill="#E97132" fill-opacity="0.208"/><g><title>GDA 1</title><rect x="193.5" y="123.594" width="8" height="858.875" fill="#000" fill-opacity="0"/><line x1="197" y1="123.594" x2="197" y2="982.469" style="stroke:#181818;stroke-width:0.5;stroke-dasharray:5,5;"/></g><g><title></title><rect x="192" y="131.594" width="10" height="782.578" fill="#156082" fill-opacity="0.502" style="stroke:#181818;stroke-width:1;"/></g><g><title>e-Med FA</title><rect x="650.701" y="123.594" width="8" height="858.875" fill="#000" fill-opacity="0"/><line x1="654.201" y1="123.594" x2="654.201" y2="982.469" style="stroke:#181818;stroke-width:0.5;stroke-dasharray:5,5;"/></g><g><title></title><rect x="649.201" y="265.914" width="10" height="648.258" fill="#E97232" fill-opacity="0.741" style="stroke:#181818;stroke-width:1;"/></g><text x="171.718" y="120.292" fill="#000" font-size="14" textLength="44.563" font-family="'Arial'">GDA 1</text><ellipse cx="197" cy="55.797" rx="8" ry="8" fill="#156082" fill-opacity="0.502" style="stroke:#181818;stroke-width:0.5;"/><path d="M197,63.797 L197,90.797 M184,71.797 L210,71.797 M197,90.797 L184,105.797 M197,90.797 L210,105.797" style="stroke:#181818;stroke-width:0.5;" fill="none"/><rect x="614.539" y="92.297" width="79.324" height="30.297" fill="#E97232" fill-opacity="0.741" style="stroke:#555;stroke-width:0.5;" rx="5" ry="5"/><text x="621.539" y="112.292" fill="#000" font-size="14" textLength="65.324" font-family="'Arial'">e-Med FA</text><text x="171.718" y="995.464" fill="#000" font-size="14" textLength="44.563" font-family="'Arial'">GDA 1</text><ellipse cx="197" cy="1007.266" rx="8" ry="8" fill="#156082" fill-opacity="0.502" style="stroke:#181818;stroke-width:0.5;"/><path d="M197,1015.266 L197,1042.266 M184,1023.266 L210,1023.266 M197,1042.266 L184,1057.266 M197,1042.266 L210,1057.266" style="stroke:#181818;stroke-width:0.5;" fill="none"/><rect x="614.539" y="982.469" width="79.324" height="30.297" fill="#E97232" fill-opacity="0.741" style="stroke:#555;stroke-width:0.5;" rx="5" ry="5"/><text x="621.539" y="1002.464" fill="#000" font-size="14" textLength="65.324" font-family="'Arial'">e-Med FA</text><path d="M15,141.594 L15,189.594 A5,5 0 0 0 20,194.594 L374,194.594 A5,5 0 0 0 379,189.594 L379,146.594 L369,136.594 L20,136.594 A5,5 0 0 0 15,141.594" style="stroke:#8B95A5;stroke-width:1;" fill="url(#gi9dqucrmbqsq0)"/><path d="M369,136.594 L369,144.094 A2.5,2.5 0 0 0 371.5,146.594 L379,146.594 L369,136.594" style="stroke:#8B95A5;stroke-width:1;" fill="url(#gi9dqucrmbqsq0)"/><text x="21" y="154.589" fill="#111827" font-size="14" textLength="103.284" font-family="'Arial'">Vorbedingung:</text><text x="21" y="170.886" fill="#111827" font-size="14" textLength="343" font-family="'Arial'">Auslieferungs-Medikationsplan-Collection-Bundle</text><text x="21" y="187.183" fill="#111827" font-size="14" textLength="300.809" font-family="'Arial'">mittels $plan-read gelesen und bearbeitet.</text><rect x="10" y="221.633" width="909.478" height="3" fill="#EEE" style="stroke:#EEE;stroke-width:1;" rx="5" ry="5"/><line x1="10" y1="221.633" x2="919.478" y2="221.633" style="stroke:#000;stroke-width:1;"/><line x1="10" y1="224.633" x2="919.478" y2="224.633" style="stroke:#000;stroke-width:1;"/><rect x="413.493" y="210.484" width="102.491" height="24.297" fill="#EEE" style="stroke:#000;stroke-width:2;" rx="5" ry="5"/><text x="419.493" y="227.479" fill="#000" font-size="14" textLength="83.617" font-weight="700" font-family="'Arial'">Plan-Write</text><polygon points="637.201,261.914,647.201,265.914,637.201,269.914,641.201,265.914" fill="#111827" style="stroke:#111827;stroke-width:1;stroke-linejoin:miter;stroke-miterlimit:10;"/><line x1="202" y1="265.914" x2="643.201" y2="265.914" style="stroke:#111827;stroke-width:1;"/><text x="209" y="260.848" fill="#000" font-size="13" font-weight="700" font-family="'Arial'">1</text><text x="222.045" y="260.848" fill="#000" font-size="13" textLength="415.156" font-family="'Arial'">POST $plan-write (Medikationsplan-Transaction-Bundle + ETag)</text><path d="M56.439,283.914 L56.439,348.914 A5,5 0 0 0 61.439,353.914 L332.439,353.914 A5,5 0 0 0 337.439,348.914 L337.439,288.914 L327.439,278.914 L61.439,278.914 A5,5 0 0 0 56.439,283.914" style="stroke:#8B95A5;stroke-width:1;" fill="url(#gi9dqucrmbqsq0)"/><path d="M327.439,278.914 L327.439,286.414 A2.5,2.5 0 0 0 329.939,288.914 L337.439,288.914 L327.439,278.914" style="stroke:#8B95A5;stroke-width:1;" fill="url(#gi9dqucrmbqsq0)"/><text x="62.439" y="296.909" fill="#111827" font-size="14" textLength="260.121" font-family="'Arial'">Neue, geänderte und zu entfernende</text><text x="62.439" y="313.206" fill="#111827" font-size="14" textLength="233.372" font-family="'Arial'">Ressourcen sind inline enthalten.</text><text x="62.439" y="329.503" fill="#111827" font-size="14" textLength="238.984" font-family="'Arial'">Unveränderte Ressourcen werden</text><text x="62.439" y="345.8" fill="#111827" font-size="14" textLength="189.321" font-family="'Arial'">ausschließlich referenziert.</text><line x1="659.201" y1="395.367" x2="701.201" y2="395.367" style="stroke:#111827;stroke-width:1;"/><line x1="701.201" y1="395.367" x2="701.201" y2="408.367" style="stroke:#111827;stroke-width:1;"/><line x1="660.201" y1="408.367" x2="701.201" y2="408.367" style="stroke:#111827;stroke-width:1;"/><polygon points="670.201,404.367,660.201,408.367,670.201,412.367,666.201,408.367" fill="#111827" style="stroke:#111827;stroke-width:1;stroke-linejoin:miter;stroke-miterlimit:10;"/><text x="666.201" y="382.735" fill="#000" font-size="13" font-weight="700" font-family="'Arial'">2</text><text x="679.247" y="375.168" fill="#000" font-size="13" textLength="114.391" font-family="'Arial'">Prüfung des ETag</text><text x="679.247" y="390.301" fill="#000" font-size="13" textLength="130.349" font-family="'Arial'">(Optimistic Locking)</text><path d="M167,420.367 L341.162,420.367 L341.162,428.664 L331.162,438.664 L162,438.664 L162,425.367 A5,5 0 0 1 167,420.367" style="stroke:#111827;stroke-width:1.5;" fill="#EEF2FF"/><rect x="162" y="420.367" width="748.478" height="538.102" fill="none" style="stroke:#111827;stroke-width:2;" rx="5" ry="5"/><text x="177" y="434.362" fill="#000" font-size="14" textLength="129.288" font-weight="700" font-family="'Arial'">alt: ETag gültig?</text><text x="356.162" y="435.362" fill="#000" font-size="14" textLength="27.043" font-weight="700" font-family="'Arial'">[ja]</text><line x1="162" y1="854.609" x2="910.478" y2="854.609" style="stroke:#111827;stroke-width:1;stroke-dasharray:2,2;"/><text x="167" y="869.604" fill="#000" font-size="14" textLength="47.024" font-weight="700" font-family="'Arial'">[nein]</text><line x1="659.201" y1="501.359" x2="701.201" y2="501.359" style="stroke:#111827;stroke-width:1;"/><line x1="701.201" y1="501.359" x2="701.201" y2="514.359" style="stroke:#111827;stroke-width:1;"/><line x1="660.201" y1="514.359" x2="701.201" y2="514.359" style="stroke:#111827;stroke-width:1;"/><polygon points="670.201,510.359,660.201,514.359,670.201,518.359,666.201,514.359" fill="#111827" style="stroke:#111827;stroke-width:1;stroke-linejoin:miter;stroke-miterlimit:10;"/><text x="666.201" y="481.161" fill="#000" font-size="13" font-weight="700" font-family="'Arial'">3</text><text x="679.247" y="466.028" fill="#000" font-size="13" textLength="101.175" font-family="'Arial'">Validierung des</text><text x="679.247" y="481.161" fill="#000" font-size="13" textLength="132.444" font-family="'Arial'">Transaction Bundles</text><text x="679.247" y="496.293" fill="#000" font-size="13" textLength="162.043" font-family="'Arial'">inkl. Zustandsübergänge</text><path d="M186,526.359 L452.728,526.359 L452.728,534.656 L442.728,544.656 L181,544.656 L181,531.359 A5,5 0 0 1 186,526.359" style="stroke:#111827;stroke-width:1.5;" fill="#EEF2FF"/><rect x="181" y="526.359" width="704.478" height="303.25" fill="none" style="stroke:#111827;stroke-width:2;" rx="5" ry="5"/><text x="196" y="540.354" fill="#000" font-size="14" textLength="221.854" font-weight="700" font-family="'Arial'">alt: Validierung erfolgreich?</text><text x="467.728" y="541.354" fill="#000" font-size="14" textLength="27.043" font-weight="700" font-family="'Arial'">[ja]</text><line x1="181" y1="762.047" x2="885.478" y2="762.047" style="stroke:#111827;stroke-width:1;stroke-dasharray:2,2;"/><text x="186" y="777.042" fill="#000" font-size="14" textLength="47.024" font-weight="700" font-family="'Arial'">[nein]</text><line x1="659.201" y1="592.219" x2="701.201" y2="592.219" style="stroke:#111827;stroke-width:1;"/><line x1="701.201" y1="592.219" x2="701.201" y2="605.219" style="stroke:#111827;stroke-width:1;"/><line x1="660.201" y1="605.219" x2="701.201" y2="605.219" style="stroke:#111827;stroke-width:1;"/><polygon points="670.201,601.219,660.201,605.219,670.201,609.219,666.201,605.219" fill="#111827" style="stroke:#111827;stroke-width:1;stroke-linejoin:miter;stroke-miterlimit:10;"/><text x="666.201" y="579.586" fill="#000" font-size="13" font-weight="700" font-family="'Arial'">4</text><text x="679.247" y="572.02" fill="#000" font-size="13" textLength="157.212" font-family="'Arial'">Übernimmt Änderungen</text><text x="679.247" y="587.153" fill="#000" font-size="13" textLength="152.991" font-family="'Arial'">auf Ressourcenbestand</text><line x1="659.201" y1="664.617" x2="701.201" y2="664.617" style="stroke:#111827;stroke-width:1;"/><line x1="701.201" y1="664.617" x2="701.201" y2="677.617" style="stroke:#111827;stroke-width:1;"/><line x1="660.201" y1="677.617" x2="701.201" y2="677.617" style="stroke:#111827;stroke-width:1;"/><polygon points="670.201,673.617,660.201,677.617,670.201,681.617,666.201,677.617" fill="#111827" style="stroke:#111827;stroke-width:1;stroke-linejoin:miter;stroke-miterlimit:10;"/><text x="666.201" y="644.418" fill="#000" font-size="13" font-weight="700" font-family="'Arial'">5</text><text x="679.247" y="629.286" fill="#000" font-size="13" textLength="183.231" font-family="'Arial'">Erzeugt und persisistiert ein</text><text x="679.247" y="644.418" fill="#000" font-size="13" textLength="154.388" font-family="'Arial'">neues Medikationsplan-</text><text x="679.247" y="659.551" fill="#000" font-size="13" textLength="113.693" font-family="'Arial'">Collection Bundle</text><path d="M519.533,695.617 L519.533,711.617 A5,5 0 0 0 524.533,716.617 L783.533,716.617 A5,5 0 0 0 788.533,711.617 L788.533,700.617 L778.533,690.617 L524.533,690.617 A5,5 0 0 0 519.533,695.617" style="stroke:#8B95A5;stroke-width:1;" fill="url(#gi9dqucrmbqsq0)"/><path d="M778.533,690.617 L778.533,698.117 A2.5,2.5 0 0 0 781.033,700.617 L788.533,700.617 L778.533,690.617" style="stroke:#8B95A5;stroke-width:1;" fill="url(#gi9dqucrmbqsq0)"/><text x="525.533" y="708.612" fill="#111827" font-size="14" textLength="248.336" font-family="'Arial'">Neuer Medikationsplan gespeichert</text><polygon points="213,739.047,203,743.047,213,747.047,209,743.047" fill="#111827" style="stroke:#111827;stroke-width:1;stroke-linejoin:miter;stroke-miterlimit:10;"/><line x1="207" y1="743.047" x2="648.201" y2="743.047" style="stroke:#111827;stroke-width:1;stroke-dasharray:2,2;"/><text x="219" y="737.981" fill="#000" font-size="13" font-weight="700" font-family="'Arial'">6</text><text x="232.045" y="737.981" fill="#000" font-size="13" textLength="85.332" font-family="'Arial'">HTTP 200 OK</text><polygon points="213,817.609,203,821.609,213,825.609,209,821.609" fill="#111827" style="stroke:#111827;stroke-width:1;stroke-linejoin:miter;stroke-miterlimit:10;"/><line x1="207" y1="821.609" x2="648.201" y2="821.609" style="stroke:#111827;stroke-width:1;stroke-dasharray:2,2;"/><text x="219" y="808.977" fill="#000" font-size="13" font-weight="700" font-family="'Arial'">7</text><text x="232.045" y="801.411" fill="#000" font-size="13" textLength="116.232" font-family="'Arial'">Fehler (HTTP 4xx)</text><text x="232.045" y="816.543" fill="#000" font-size="13" textLength="124.027" font-family="'Arial'">OperationOutcome</text><polygon points="213,910.172,203,914.172,213,918.172,209,914.172" fill="#111827" style="stroke:#111827;stroke-width:1;stroke-linejoin:miter;stroke-miterlimit:10;"/><line x1="207" y1="914.172" x2="648.201" y2="914.172" style="stroke:#111827;stroke-width:1;"/><text x="219" y="901.54" fill="#000" font-size="13" font-weight="700" font-family="'Arial'">8</text><text x="232.045" y="893.973" fill="#000" font-size="13" textLength="245.857" font-family="'Arial'">Fehler (HTTP 412 Precondition Failed)</text><text x="232.045" y="909.106" fill="#000" font-size="13" textLength="124.027" font-family="'Arial'">OperationOutcome</text><path d="M548.487,932.172 L548.487,948.172 A5,5 0 0 0 553.487,953.172 L754.487,953.172 A5,5 0 0 0 759.487,948.172 L759.487,937.172 L749.487,927.172 L553.487,927.172 A5,5 0 0 0 548.487,932.172" style="stroke:#8B95A5;stroke-width:1;" fill="url(#gi9dqucrmbqsq0)"/><path d="M749.487,927.172 L749.487,934.672 A2.5,2.5 0 0 0 751.987,937.172 L759.487,937.172 L749.487,927.172" style="stroke:#8B95A5;stroke-width:1;" fill="url(#gi9dqucrmbqsq0)"/><text x="554.487" y="945.167" fill="#111827" font-size="14" textLength="190.429" font-family="'Arial'">ETag stimmt nicht überein.</text><?plantuml-src TLRHRk9657ttLzo6Iisg9S8cG8YKLcHZTglTZH5Xjz8sLJJO5pF5ZEdCU9DDrRT-HgM-z3Fone_rpW1XR1md3_RSutFFFVVE6CrrXl014xvWckT2hJ8cGCLpYNoAmlE-KmikLaoo9R1Ov_96VwKNs3sgV8cUjuzESvcWV9rdkOH6orvkbCMBLEQ5IBQ8MSVyEGWrPqb-pqKACvOfT2BRrwH02RvBck2C5PaUva9VioN2qK1obXtL8sxu8u9_MXzyIVRRhokK6HSB1n26TO2F8h4tU23_CdyOiIGnbGMjylgbwrd7Ngwb8jS8Vte0brNti8MTMQlPIFoaZrs3S9dEflqEwpolJkOyNWXK2dnQ6pjkjkXvfysmE5RuldyMz6ZjfjANlro52lyeKCGRbICcDO_vYWbTLrWPS30FzYg33Zjp4DvrjHHmx0OOI9dVLukoYsLVx59TnkV09bURbjwGybMfncVcJUYWNpWBR7NEc_lqWJ7r6nf7Cpwle_VH-ExDrU3E1xeQVgVREWlEMZM0m0BwtMwhTtK060qcFuVN4yFGxru6fmU0mIW2UpLQmtvurUbN0U67yEfkE200zdj1EvWcLS3TEFmSZYRGY9DshnsmVhMCw1sKSWITAiLu78qj8Ept_7RGfWrWpndOEC0K7D4T-4UkCTvgtsn0EhsCJ0F59Zt0S71KBi4ZqaBdebXEKTe4_0kZlRN9uH9xTi_bNt0hmFkKoocQQIf4UkuD2fLndA6a9zMi79jDQdQ6iNbkNbBlC_IMN6lC57nhun9P0Ybcg5000M2AZDYvHdtY8JsRv9vtSG4Z0_z5KWGkBZnlexFvuwxMSnX5DvCjwxs57LV5J2GJYhbgu7i89onzvHYmywxiLjM3Qopm1nA-_iySSXGpsXyBGA792a7AqHlJ8EU5ZAaonIdCXJqC2J9dcKPnudqKnFXCuU3laRQ3e0uf-kwGlUj_CnxFGHgVKJnomhlsx3INx93hfndrXCvqPOky5SVHIlCbLpGdy3wFwSWobPjTkTeF9qaxjtX8rq-PvkbFyEllx3UFTcfTcayiumcttJUPReLZCcnCfaNw6cGdyBbGceb4hPzevbAgEqLYfVyw2IunobcUfVJzZUTRDTiz1FQcJjVw7yeX-7AfOVstCPXuKDmALimSewTe5Rt84if7B59jkqjVDSMLSO_S1-H49cWALFMdGlDMxAT-Qu5dC-o7Q9l0hffHaWU_Dr9KArClvTgeUsvsIIk9jGDv3cydan4Txos8tjbUqOUfTA08KWmRk-jU7-8y8nd7bkRquU7LhOYeOgieAdHiVzfiTD2yrPENHwIMs0zeC37EHSAjFKF6CqnUIlQ2OtOwgG-ckO8yeXQRYI8D9mTU9LW-sifBErPwuty0?></g></svg>