<svg xmlns="http://www.w3.org/2000/svg" xmlns:xlink="http://www.w3.org/1999/xlink" contentStyleType="text/css" data-diagram-type="SEQUENCE" height="638px" preserveAspectRatio="none" style="width:648px;height:638px;background:#F5F5F5;" version="1.1" viewBox="0 0 648 638" width="648px" zoomAndPan="magnify"><?plantuml 1.2026.7beta1?><defs><linearGradient id="g13fgwm8wfunre0" x1="50%" x2="50%" y1="0%" y2="100%"><stop offset="0%" stop-color="#E0E5F0"/><stop offset="100%" stop-color="#D1D9E6"/></linearGradient><filter height="300%" id="f13fgwm8wfunre" width="300%" x="-1" y="-1"><feGaussianBlur result="blurOut" stdDeviation="2"/><feColorMatrix in="blurOut" result="blurOut2" type="matrix" values="0 0 0 0 0 0 0 0 0 0 0 0 0 0 0 0 0 0 .4 0"/><feOffset dx="4" dy="4" in="blurOut2" result="blurOut3"/><feBlend in="SourceGraphic" in2="blurOut3" mode="normal"/></filter></defs><g><rect fill="#F5F5F5" height="638" style="stroke:none;stroke-width:1;" width="648" x="0" y="0"/><g class="title" data-source-line="1"><text fill="#000000" font-family="'Arial'" font-size="14" font-weight="700" lengthAdjust="spacing" textLength="340.2246" x="150.8093" y="27.9951">Planeintrag in Medikationsplan hinzuf&#252;gen</text></g><g><title>GDA 1</title><rect fill="#3588A7" fill-opacity="0.29804" height="418.3672" style="stroke:#181818;stroke-width:1;" width="10" x="161.2817" y="128.5938"/></g><g class="participant-lifeline" data-entity-uid="part1" data-qualified-name="GDA_1" data-source-line="49" id="part1-lifeline"><g><title>GDA 1</title><rect fill="#000000" fill-opacity="0.00000" height="437.3672" width="8" x="162.2817" y="118.5938"/><line style="stroke:#181818;stroke-width:0.5;stroke-dasharray:5,5;" x1="166" x2="166" y1="118.5938" y2="555.9609"/></g></g><g class="participant-lifeline" data-entity-uid="part2" data-qualified-name="eMed_FA" data-source-line="50" id="part2-lifeline"><g><title>e-Med FA</title><rect fill="#000000" fill-opacity="0.00000" height="437.3672" width="8" x="468.2417" y="118.5938"/><line style="stroke:#181818;stroke-width:0.5;stroke-dasharray:5,5;" x1="471.5796" x2="471.5796" y1="118.5938" y2="555.9609"/></g></g><g class="participant-lifeline" data-entity-uid="part3" data-qualified-name="GDA_2" data-source-line="51" id="part3-lifeline"><g><title>GDA 2</title><rect fill="#000000" fill-opacity="0.00000" height="437.3672" width="8" x="543.1855" y="118.5938"/><line style="stroke:#181818;stroke-width:0.5;stroke-dasharray:5,5;" x1="546.9038" x2="546.9038" y1="118.5938" y2="555.9609"/></g></g><g class="participant-lifeline" data-entity-uid="part4" data-qualified-name="Patient" data-source-line="52" id="part4-lifeline"><g><title>Patient</title><rect fill="#000000" fill-opacity="0.00000" height="437.3672" width="8" x="606.1553" y="118.5938"/><line style="stroke:#181818;stroke-width:0.5;stroke-dasharray:5,5;" x1="609.4673" x2="609.4673" y1="118.5938" y2="555.9609"/></g></g><g class="participant participant-head" data-entity-uid="part1" data-qualified-name="GDA_1" data-source-line="49" id="part1-head"><text fill="#000000" font-family="'Arial'" font-size="14" lengthAdjust="spacing" textLength="44.5635" x="141" y="115.292">GDA 1</text><ellipse cx="166.2817" cy="50.7969" fill="#3588A7" fill-opacity="0.29804" rx="8" ry="8" style="stroke:#181818;stroke-width:0.5;"/><path d="M166.2817,58.7969 L166.2817,85.7969 M153.2817,66.7969 L179.2817,66.7969 M166.2817,85.7969 L153.2817,100.7969 M166.2817,85.7969 L179.2817,100.7969" fill="none" style="stroke:#181818;stroke-width:0.5;"/></g><g class="participant participant-tail" data-entity-uid="part1" data-qualified-name="GDA_1" data-source-line="49" id="part1-tail"><text fill="#000000" font-family="'Arial'" font-size="14" lengthAdjust="spacing" textLength="44.5635" x="141" y="567.9561">GDA 1</text><ellipse cx="166.2817" cy="579.7578" fill="#3588A7" fill-opacity="0.29804" rx="8" ry="8" style="stroke:#181818;stroke-width:0.5;"/><path d="M166.2817,587.7578 L166.2817,614.7578 M153.2817,595.7578 L179.2817,595.7578 M166.2817,614.7578 L153.2817,629.7578 M166.2817,614.7578 L179.2817,629.7578" fill="none" style="stroke:#181818;stroke-width:0.5;"/></g><g class="participant participant-head" data-entity-uid="part2" data-qualified-name="eMed_FA" data-source-line="50" id="part2-head"><rect fill="#A14C37" fill-opacity="0.47059" height="30.2969" rx="5" ry="5" style="stroke:#555555;stroke-width:0.5;" width="79.3242" x="432.5796" y="87.2969"/><text fill="#000000" font-family="'Arial'" font-size="14" lengthAdjust="spacing" textLength="65.3242" x="439.5796" y="107.292">e-Med FA</text></g><g class="participant participant-tail" data-entity-uid="part2" data-qualified-name="eMed_FA" data-source-line="50" id="part2-tail"><rect fill="#A14C37" fill-opacity="0.47059" height="30.2969" rx="5" ry="5" style="stroke:#555555;stroke-width:0.5;" width="79.3242" x="432.5796" y="554.9609"/><text fill="#000000" font-family="'Arial'" font-size="14" lengthAdjust="spacing" textLength="65.3242" x="439.5796" y="574.9561">e-Med FA</text></g><g class="participant participant-head" data-entity-uid="part3" data-qualified-name="GDA_2" data-source-line="51" id="part3-head"><text fill="#000000" font-family="'Arial'" font-size="14" lengthAdjust="spacing" textLength="44.5635" x="521.9038" y="115.292">GDA 2</text><ellipse cx="547.1855" cy="50.7969" fill="#CA89CA" fill-opacity="0.37255" rx="8" ry="8" style="stroke:#181818;stroke-width:0.5;"/><path d="M547.1855,58.7969 L547.1855,85.7969 M534.1855,66.7969 L560.1855,66.7969 M547.1855,85.7969 L534.1855,100.7969 M547.1855,85.7969 L560.1855,100.7969" fill="none" style="stroke:#181818;stroke-width:0.5;"/></g><g class="participant participant-tail" data-entity-uid="part3" data-qualified-name="GDA_2" data-source-line="51" id="part3-tail"><text fill="#000000" font-family="'Arial'" font-size="14" lengthAdjust="spacing" textLength="44.5635" x="521.9038" y="567.9561">GDA 2</text><ellipse cx="547.1855" cy="579.7578" fill="#CA89CA" fill-opacity="0.37255" rx="8" ry="8" style="stroke:#181818;stroke-width:0.5;"/><path d="M547.1855,587.7578 L547.1855,614.7578 M534.1855,595.7578 L560.1855,595.7578 M547.1855,614.7578 L534.1855,629.7578 M547.1855,614.7578 L560.1855,629.7578" fill="none" style="stroke:#181818;stroke-width:0.5;"/></g><g class="participant participant-head" data-entity-uid="part4" data-qualified-name="Patient" data-source-line="52" id="part4-head"><text fill="#000000" font-family="'Arial'" font-size="14" lengthAdjust="spacing" textLength="49.376" x="582.4673" y="115.292">Patient</text><ellipse cx="610.1553" cy="50.7969" fill="#A2AE64" fill-opacity="0.50980" rx="8" ry="8" style="stroke:#181818;stroke-width:0.5;"/><path d="M610.1553,58.7969 L610.1553,85.7969 M597.1553,66.7969 L623.1553,66.7969 M610.1553,85.7969 L597.1553,100.7969 M610.1553,85.7969 L623.1553,100.7969" fill="none" style="stroke:#181818;stroke-width:0.5;"/></g><g class="participant participant-tail" data-entity-uid="part4" data-qualified-name="Patient" data-source-line="52" id="part4-tail"><text fill="#000000" font-family="'Arial'" font-size="14" lengthAdjust="spacing" textLength="49.376" x="582.4673" y="567.9561">Patient</text><ellipse cx="610.1553" cy="579.7578" fill="#A2AE64" fill-opacity="0.50980" rx="8" ry="8" style="stroke:#181818;stroke-width:0.5;"/><path d="M610.1553,587.7578 L610.1553,614.7578 M597.1553,595.7578 L623.1553,595.7578 M610.1553,614.7578 L597.1553,629.7578 M610.1553,614.7578 L623.1553,629.7578" fill="none" style="stroke:#181818;stroke-width:0.5;"/></g><g><title>GDA 1</title><rect fill="#3588A7" fill-opacity="0.29804" height="418.3672" style="stroke:#181818;stroke-width:1;" width="10" x="161.2817" y="128.5938"/></g><rect fill="#EEEEEE" height="3" rx="5" ry="5" style="stroke:#EEEEEE;stroke-width:1;" width="642.8433" x="0" y="149.7422"/><line style="stroke:#000000;stroke-width:1;" x1="0" x2="642.8433" y1="149.7422" y2="149.7422"/><line style="stroke:#000000;stroke-width:1;" x1="0" x2="642.8433" y1="152.7422" y2="152.7422"/><rect fill="#EEEEEE" height="24.2969" rx="5" ry="5" style="stroke:#000000;stroke-width:2;" width="216.2891" x="213.2771" y="138.5938"/><text fill="#000000" font-family="'Arial'" font-size="14" font-weight="700" lengthAdjust="spacing" textLength="197.415" x="219.2771" y="155.5889">Medikationsplan abrufen</text><rect fill="none" height="42.5938" rx="5" ry="5" style="stroke:#000000;stroke-width:1.5;" width="376.9038" x="138" y="172.8906"/><path d="M143,172.8906 L205,172.8906 L205,180.8906 L195,190.8906 L138,190.8906 L138,177.8906 A5,5 0 0 1 143,172.8906" fill="#EEEEEE" style="stroke:#000000;stroke-width:2;"/><text fill="#000000" font-family="'Arial'" font-size="14" font-weight="700" lengthAdjust="spacing" textLength="22.4902" x="151" y="187.8857">ref</text><a href="interactions.html#sequenzdiagramm-plan-read" target="_top" title="interactions.html#sequenzdiagramm-plan-read" xlink:actuate="onRequest" xlink:href="interactions.html#sequenzdiagramm-plan-read" xlink:show="new" xlink:title="interactions.html#sequenzdiagramm-plan-read" xlink:type="simple"><text fill="#0000EE" font-family="'Arial'" font-size="14" lengthAdjust="spacing" textLength="70.6426" x="291.1306" y="207.8857">Plan-Read</text></a><path d="M5,230.4844 L5,262.4844 A5,5 0 0 0 10,267.4844 L321,267.4844 A5,5 0 0 0 326,262.4844 L326,235.4844 L316,225.4844 L10,225.4844 A5,5 0 0 0 5,230.4844" fill="url(#g13fgwm8wfunre0)" filter="url(#f13fgwm8wfunre)" style="stroke:#8B95A5;stroke-width:1;"/><path d="M316,225.4844 L316,232.9844 A2.5,2.5 0 0 0 318.5,235.4844 L326,235.4844 L316,225.4844" fill="url(#g13fgwm8wfunre0)" style="stroke:#8B95A5;stroke-width:1;"/><text fill="#111827" font-family="'Arial'" font-size="14" lengthAdjust="spacing" textLength="296.0029" x="11" y="243.4795">GDA erh&#228;lt den aktuellen Medikationsplan</text><text fill="#111827" font-family="'Arial'" font-size="14" lengthAdjust="spacing" textLength="171.1309" x="11" y="259.7764">im Auslieferungs-Bundle</text><rect fill="#EEEEEE" height="3" rx="5" ry="5" style="stroke:#EEEEEE;stroke-width:1;" width="642.8433" x="0" y="297.2266"/><line style="stroke:#000000;stroke-width:1;" x1="0" x2="642.8433" y1="297.2266" y2="297.2266"/><line style="stroke:#000000;stroke-width:1;" x1="0" x2="642.8433" y1="300.2266" y2="300.2266"/><rect fill="#EEEEEE" height="24.2969" rx="5" ry="5" style="stroke:#000000;stroke-width:2;" width="363.8975" x="139.4729" y="286.0781"/><text fill="#000000" font-family="'Arial'" font-size="14" font-weight="700" lengthAdjust="spacing" textLength="345.0234" x="145.4729" y="303.0732">Medikationsplan vorbereiten und schreiben</text><g class="message" data-entity-1="part1" data-entity-2="part1" data-source-line="70" id="msg1"><line style="stroke:#111827;stroke-width:1;" x1="171.2817" x2="213.2817" y1="341.5078" y2="341.5078"/><line style="stroke:#111827;stroke-width:1;" x1="213.2817" x2="213.2817" y1="341.5078" y2="354.5078"/><line style="stroke:#111827;stroke-width:1;" x1="172.2817" x2="213.2817" y1="354.5078" y2="354.5078"/><polygon fill="#111827" points="182.2817,350.5078,172.2817,354.5078,182.2817,358.5078,178.2817,354.5078" style="stroke:#111827;stroke-width:1;stroke-linejoin:miter;stroke-miterlimit:10;"/><text fill="#000000" font-family="'Arial'" font-size="13" font-weight="700" lengthAdjust="spacing" textLength="9.0454" x="178.2817" y="336.4419">1</text><text fill="#000000" font-family="'Arial'" font-size="13" lengthAdjust="spacing" textLength="181.3018" x="191.3271" y="336.4419">Neuen Planeintrag erstellen</text></g><g class="message" data-entity-1="part1" data-entity-2="part1" data-source-line="71" id="msg2"><line style="stroke:#111827;stroke-width:1;" x1="171.2817" x2="213.2817" y1="398.7734" y2="398.7734"/><line style="stroke:#111827;stroke-width:1;" x1="213.2817" x2="213.2817" y1="398.7734" y2="411.7734"/><line style="stroke:#111827;stroke-width:1;" x1="172.2817" x2="213.2817" y1="411.7734" y2="411.7734"/><polygon fill="#111827" points="182.2817,407.7734,172.2817,411.7734,182.2817,415.7734,178.2817,411.7734" style="stroke:#111827;stroke-width:1;stroke-linejoin:miter;stroke-miterlimit:10;"/><text fill="#000000" font-family="'Arial'" font-size="13" font-weight="700" lengthAdjust="spacing" textLength="9.0454" x="178.2817" y="386.1411">2</text><text fill="#000000" font-family="'Arial'" font-size="13" lengthAdjust="spacing" textLength="193.5718" x="191.3271" y="378.5747">Planeintrag mit List.entry.flag</text><text fill="#000000" font-family="'Arial'" font-size="13" lengthAdjust="spacing" textLength="258.9146" x="191.3271" y="393.7075">"new" dem Medikationsplan hinzuf&#252;gen</text></g><path d="M30,429.7734 L30,445.7734 A5,5 0 0 0 35,450.7734 L293,450.7734 A5,5 0 0 0 298,445.7734 L298,434.7734 L288,424.7734 L35,424.7734 A5,5 0 0 0 30,429.7734" fill="url(#g13fgwm8wfunre0)" filter="url(#f13fgwm8wfunre)" style="stroke:#8B95A5;stroke-width:1;"/><path d="M288,424.7734 L288,432.2734 A2.5,2.5 0 0 0 290.5,434.7734 L298,434.7734 L288,424.7734" fill="url(#g13fgwm8wfunre0)" style="stroke:#8B95A5;stroke-width:1;"/><text fill="#111827" font-family="'Arial'" font-size="14" lengthAdjust="spacing" textLength="247.0645" x="36" y="442.7686">Medikationsplaneintrag hinzuf&#252;gen</text><rect fill="none" height="42.5938" rx="5" ry="5" style="stroke:#000000;stroke-width:1.5;" width="376.9038" x="138" y="459.0703"/><path d="M143,459.0703 L205,459.0703 L205,467.0703 L195,477.0703 L138,477.0703 L138,464.0703 A5,5 0 0 1 143,459.0703" fill="#EEEEEE" style="stroke:#000000;stroke-width:2;"/><text fill="#000000" font-family="'Arial'" font-size="14" font-weight="700" lengthAdjust="spacing" textLength="22.4902" x="151" y="474.0654">ref</text><a href="interactions.html#plan-write" target="_top" title="interactions.html#plan-write" xlink:actuate="onRequest" xlink:href="interactions.html#plan-write" xlink:show="new" xlink:title="interactions.html#plan-write" xlink:type="simple"><text fill="#0000EE" font-family="'Arial'" font-size="14" lengthAdjust="spacing" textLength="72.4268" x="290.2385" y="494.0654">Plan-Write</text></a><path d="M336,516.6641 L336,532.6641 A5,5 0 0 0 341,537.6641 L600,537.6641 A5,5 0 0 0 605,532.6641 L605,521.6641 L595,511.6641 L341,511.6641 A5,5 0 0 0 336,516.6641" fill="url(#g13fgwm8wfunre0)" filter="url(#f13fgwm8wfunre)" style="stroke:#8B95A5;stroke-width:1;"/><path d="M595,511.6641 L595,519.1641 A2.5,2.5 0 0 0 597.5,521.6641 L605,521.6641 L595,511.6641" fill="url(#g13fgwm8wfunre0)" style="stroke:#8B95A5;stroke-width:1;"/><text fill="#111827" font-family="'Arial'" font-size="14" lengthAdjust="spacing" textLength="248.3359" x="342" y="529.6592">Neuer Medikationsplan gespeichert</text><?plantuml-src bLLTRzem57tthxY3rr6HG4fQYKcXfTsqjY3AD6bTXKny0nQ9mnodh9tsR_OpzjO_DYVXmqdOf2KlZk_nzJddsZUAgn1X75A1N2X95y05t2BZAwfuB9ArZi2IYvSqUFszG458ik9YJIMDO1vBXl8Y3cC9pNR-c57ghnOoJWNR8W8dUmr4igGitd2nW8262HgHxJ8fK89b9cKOq3HKLx5GTpH2Q7YIqx1n777FNn2ixl7WtsY_VrwZ3BbO6O3Xy1ZWas3v06lq1_7tCMKiKsQto_C3qpCdVqnBHQmGVX20GTKzRACJj5jDPh4pFCqGPYPtVkPGPpyxNN9_9J19mD9p4yDDLt_lk6LP32iiotBjdfwxtzT5oHJ9JvDWWjzI57v1SaobuZvVKw6EwIe3QiSXVygWUc5guLrHIm73RG1FodXJrPHFbct9fuxjk0yKUtNqrBLclYvft6SkGhLoOM3dweoLX-tjpDGt-ZHcf-TYT3EQpAullPa5pOxZkhJNzOz4RMZwr3tpgHDKecDl-c5uDuKcjIcUTbsx4lV68sXs0-Ooss6LsF1sU3cxylHQg-jtUZst6fzDXb-6usbsV-VC3dgz2c3qSLTB-xIwTZ8PJQ3P2op7SZeTGgYlj3c5L9f0Gu_0QfWEaFMXge2w4MNSCYYsz0TSUOqoRoEblKzfcodjBMIi6nhgf1beEswK_TFyKXMBD9gZ90H8lr_hX7Gkqm05zFkv6Fv4zNqjz9WYYCG0uYVSQdsxLt8E3m-wpwBC5kka9qiLXStYKhqmJXVwZaMjRAkMHChonjoQwD7Z8o5vSpXa9PbKbClNNw7IdKsJMwaKmn3h3Ppm2Bmq2Ja6A5EnI5e3VLHruoSeMDvqo36rJx7KLY1NEgN6G-8lzTTygx-GtNfNi3c7EzGYIhyIb8dA2TMm9YhY2cvueavqHUJpIH3InLVH4BXfQ5NHltz6LKiguDqMvfg3ulyhKbwKZTHc55Nvd0tBPTac89aJiaPyWSaQkRz4gVOa_W00?></g></svg>