<?xml version="1.0" encoding="us-ascii" standalone="no"?><svg xmlns="http://www.w3.org/2000/svg" xmlns:xlink="http://www.w3.org/1999/xlink" contentStyleType="text/css" height="964px" preserveAspectRatio="none" style="width:748px;height:964px;background:#F5F5F5;" version="1.1" viewBox="0 0 748 964" width="748px" zoomAndPan="magnify"><defs><linearGradient id="g1hug2mctp2wls0" x1="50%" x2="50%" y1="0%" y2="100%"><stop offset="0%" stop-color="#E0E5F0"/><stop offset="100%" stop-color="#D1D9E6"/></linearGradient></defs><g><rect fill="#F5F5F5" height="964" style="stroke:none;stroke-width:1.0;" width="748" x="0" y="0"/><text fill="#000000" font-family="Arial" font-size="14" font-weight="bold" lengthAdjust="spacing" textLength="480" x="130.25" y="28.1318">Geplante Abgabe f&#252;r bestehende Medikationsplaneintr&#228;ge erstellen</text><text fill="#000000" font-family="Arial" font-size="14" font-weight="bold" lengthAdjust="spacing" textLength="504" x="118.25" y="44.2305">Variante B: Sequentielles Erstellen von Geplanter Abgabe und e-Rezept</text><rect fill="#156082" fill-opacity="0.50196" height="679.9175" style="stroke:#181818;stroke-width:1.0;" width="10" x="132" y="144.2959"/><rect fill="#E97232" fill-opacity="0.74118" height="188.3413" style="stroke:#181818;stroke-width:1.0;" width="10" x="432" y="424.582"/><rect fill="#CD3732" fill-opacity="0.66275" height="146.3926" style="stroke:#181818;stroke-width:1.0;" width="10" x="661" y="648.8721"/><rect fill="#0F9ED5" fill-opacity="0.14510" height="181.3413" rx="5" ry="5" style="stroke:#111827;stroke-width:2.0;" width="563" x="103" y="439.582"/><path d="M103,577.3257 L666,577.3257 L666,615.9233 A5,5 0 0 1 661,620.9233 L108,620.9233 A5,5 0 0 1 103,615.9233 L103,577.3257 " fill="#E97132" fill-opacity="0.20784" style="stroke:none;stroke-width:1.0;"/><rect fill="#0F9ED5" fill-opacity="0.14510" height="153.3926" rx="5" ry="5" style="stroke:#111827;stroke-width:2.0;" width="628.5" x="103" y="713.7695"/><path d="M103,759.667 L731.5,759.667 L731.5,862.1621 A5,5 0 0 1 726.5,867.1621 L108,867.1621 A5,5 0 0 1 103,862.1621 L103,759.667 " fill="#E97132" fill-opacity="0.20784" style="stroke:none;stroke-width:1.0;"/><line style="stroke:#181818;stroke-width:0.5;stroke-dasharray:5.0,5.0;" x1="137" x2="137" y1="134.2959" y2="884.1621"/><line style="stroke:#181818;stroke-width:0.5;stroke-dasharray:5.0,5.0;" x1="437" x2="437" y1="134.2959" y2="884.1621"/><line style="stroke:#181818;stroke-width:0.5;stroke-dasharray:5.0,5.0;" x1="665.5" x2="665.5" y1="134.2959" y2="884.1621"/><text fill="#000000" font-family="Arial" font-size="14" lengthAdjust="spacing" textLength="42" x="113" y="131.3291">GDA 1</text><ellipse cx="137" cy="66.6973" fill="#156082" fill-opacity="0.50196" rx="8" ry="8" style="stroke:#181818;stroke-width:0.5;"/><path d="M137,74.6973 L137,101.6973 M124,82.6973 L150,82.6973 M137,101.6973 L124,116.6973 M137,101.6973 L150,116.6973 " fill="none" style="stroke:#181818;stroke-width:0.5;"/><text fill="#000000" font-family="Arial" font-size="14" lengthAdjust="spacing" textLength="42" x="113" y="896.2939">GDA 1</text><ellipse cx="137" cy="907.7607" fill="#156082" fill-opacity="0.50196" rx="8" ry="8" style="stroke:#181818;stroke-width:0.5;"/><path d="M137,915.7607 L137,942.7607 M124,923.7607 L150,923.7607 M137,942.7607 L124,957.7607 M137,942.7607 L150,957.7607 " fill="none" style="stroke:#181818;stroke-width:0.5;"/><rect fill="#E97232" fill-opacity="0.74118" height="30.0986" rx="5" ry="5" style="stroke:#555555;stroke-width:0.5;" width="76" x="399" y="103.1973"/><text fill="#000000" font-family="Arial" font-size="14" lengthAdjust="spacing" textLength="62" x="406" y="123.3291">e-Med FA</text><rect fill="#E97232" fill-opacity="0.74118" height="30.0986" rx="5" ry="5" style="stroke:#555555;stroke-width:0.5;" width="76" x="399" y="883.1621"/><text fill="#000000" font-family="Arial" font-size="14" lengthAdjust="spacing" textLength="62" x="406" y="903.2939">e-Med FA</text><rect fill="#CD3732" fill-opacity="0.66275" height="30.0986" rx="5" ry="5" style="stroke:#555555;stroke-width:0.5;" width="71" x="630.5" y="103.1973"/><text fill="#000000" font-family="Arial" font-size="14" lengthAdjust="spacing" textLength="57" x="637.5" y="123.3291">e-Rezept</text><rect fill="#CD3732" fill-opacity="0.66275" height="30.0986" rx="5" ry="5" style="stroke:#555555;stroke-width:0.5;" width="71" x="630.5" y="883.1621"/><text fill="#000000" font-family="Arial" font-size="14" lengthAdjust="spacing" textLength="57" x="637.5" y="903.2939">e-Rezept</text><rect fill="#156082" fill-opacity="0.50196" height="679.9175" style="stroke:#181818;stroke-width:1.0;" width="10" x="132" y="144.2959"/><rect fill="#E97232" fill-opacity="0.74118" height="188.3413" style="stroke:#181818;stroke-width:1.0;" width="10" x="432" y="424.582"/><rect fill="#CD3732" fill-opacity="0.66275" height="146.3926" style="stroke:#181818;stroke-width:1.0;" width="10" x="661" y="648.8721"/><rect fill="#EEEEEE" height="3" rx="5" ry="5" style="stroke:#EEEEEE;stroke-width:1.0;" width="741.5" x="0" y="164.7703"/><line style="stroke:#000000;stroke-width:1.0;" x1="0" x2="741.5" y1="164.7703" y2="164.7703"/><line style="stroke:#000000;stroke-width:1.0;" x1="0" x2="741.5" y1="167.7703" y2="167.7703"/><rect fill="#EEEEEE" height="22.9487" rx="5" ry="5" style="stroke:#000000;stroke-width:2.0;" width="175" x="283.25" y="154.2959"/><text fill="#000000" font-family="Arial" font-size="13" font-weight="bold" lengthAdjust="spacing" textLength="157" x="289.25" y="170.4897">Medikationsplan abrufen</text><rect fill="none" height="38.7476" rx="5" ry="5" style="stroke:#000000;stroke-width:1.5;" width="388" x="110" y="187.2446"/><path d="M115,187.2446 L172,187.2446 L172,193.2446 L162,203.2446 L110,203.2446 L110,192.2446 A5,5 0 0 1 115,187.2446 " fill="#EEEEEE" style="stroke:#000000;stroke-width:2.0;"/><text fill="#000000" font-family="Arial" font-size="13" font-weight="bold" lengthAdjust="spacing" textLength="17" x="123" y="201.4385">ref</text><a href="interactions.html#sequenzdiagramm-plan-read" target="_top" title="interactions.html#sequenzdiagramm-plan-read" xlink:actuate="onRequest" xlink:href="interactions.html#sequenzdiagramm-plan-read" xlink:show="new" xlink:title="interactions.html#sequenzdiagramm-plan-read" xlink:type="simple"><text fill="#0000EE" font-family="Arial" font-size="12" lengthAdjust="spacing" textLength="59" x="274.5" y="218.5005">Plan-Read</text></a><path d="M31,240.9922 L31,269.9922 A5,5 0 0 0 36,274.9922 L238,274.9922 A5,5 0 0 0 243,269.9922 L243,245.9922 L233,235.9922 L36,235.9922 A5,5 0 0 0 31,240.9922 " fill="url(#g1hug2mctp2wls0)" style="stroke:#8B95A5;stroke-width:1.0;"/><path d="M233,235.9922 L233,243.4922 A2.5,2.5 0 0 0 235.5,245.9922 L243,245.9922 L233,235.9922 " fill="url(#g1hug2mctp2wls0)" style="stroke:#8B95A5;stroke-width:1.0;"/><text fill="#111827" font-family="Arial" font-size="13" lengthAdjust="spacing" textLength="162" x="37" y="253.186">GDA erh&#228;lt Medikationsplan</text><text fill="#111827" font-family="Arial" font-size="13" lengthAdjust="spacing" textLength="191" x="37" y="268.1348">(Auslieferungs-Collection-Bundle)</text><rect fill="#EEEEEE" height="3" rx="5" ry="5" style="stroke:#EEEEEE;stroke-width:1.0;" width="741.5" x="0" y="301.364"/><line style="stroke:#000000;stroke-width:1.0;" x1="0" x2="741.5" y1="301.364" y2="301.364"/><line style="stroke:#000000;stroke-width:1.0;" x1="0" x2="741.5" y1="304.364" y2="304.364"/><rect fill="#EEEEEE" height="22.9487" rx="5" ry="5" style="stroke:#000000;stroke-width:2.0;" width="308" x="216.75" y="290.8896"/><text fill="#000000" font-family="Arial" font-size="13" font-weight="bold" lengthAdjust="spacing" textLength="290" x="222.75" y="307.0835">Geplante Abgaben vorbereiten und schreiben</text><path d="M5,333.8384 L5,392.8384 A5,5 0 0 0 10,397.8384 L264,397.8384 A5,5 0 0 0 269,392.8384 L269,338.8384 L259,328.8384 L10,328.8384 A5,5 0 0 0 5,333.8384 " fill="url(#g1hug2mctp2wls0)" style="stroke:#8B95A5;stroke-width:1.0;"/><path d="M259,328.8384 L259,336.3384 A2.5,2.5 0 0 0 261.5,338.8384 L269,338.8384 L259,328.8384 " fill="url(#g1hug2mctp2wls0)" style="stroke:#8B95A5;stroke-width:1.0;"/><text fill="#111827" font-family="Arial" font-size="13" lengthAdjust="spacing" textLength="48" x="11" y="346.0322">Erstellte</text><text fill="#111827" font-family="Arial" font-size="13" font-style="italic" lengthAdjust="spacing" textLength="109" x="63" y="346.0322">Geplante Abgaben</text><text fill="#111827" font-family="Arial" font-size="13" lengthAdjust="spacing" textLength="74" x="176" y="346.0322">referenzieren</text><text fill="#111827" font-family="Arial" font-size="13" lengthAdjust="spacing" textLength="211" x="11" y="360.981">zugeh&#246;rige Medikationsplaneintr&#228;ge;</text><text fill="#111827" font-family="Arial" font-size="13" lengthAdjust="spacing" textLength="203" x="11" y="375.9297">groupIdentifier f&#252;r "Rezeptklammer"</text><text fill="#111827" font-family="Arial" font-size="13" lengthAdjust="spacing" textLength="56" x="11" y="390.8784">bleibt leer</text><polygon fill="#111827" points="420,420.582,430,424.582,420,428.582,424,424.582" style="stroke:#111827;stroke-width:1.0;"/><line style="stroke:#111827;stroke-width:1.0;" x1="142" x2="426" y1="424.582" y2="424.582"/><text fill="#000000" font-family="Arial" font-size="13" font-weight="bold" lengthAdjust="spacing" textLength="7" x="149" y="419.8271">1</text><text fill="#000000" font-family="Arial" font-size="13" lengthAdjust="spacing" textLength="225" x="160" y="419.8271">POST Transaction Bundle GeplAbgabe</text><path d="M108,439.582 L164,439.582 L164,446.5308 L154,456.5308 L103,456.5308 L103,444.582 A5,5 0 0 1 108,439.582 " fill="#EEF2FF" style="stroke:#111827;stroke-width:1.5;"/><rect fill="none" height="181.3413" rx="5" ry="5" style="stroke:#111827;stroke-width:2.0;" width="563" x="103" y="439.582"/><text fill="#000000" font-family="Arial" font-size="13" font-weight="bold" lengthAdjust="spacing" textLength="16" x="118" y="452.7759">alt</text><text fill="#000000" font-family="Arial" font-size="11" font-weight="bold" lengthAdjust="spacing" textLength="152" x="179" y="451.8999">[Geplante Abgaben erstellt]</text><line style="stroke:#111827;stroke-width:1.0;" x1="442" x2="484" y1="492.4282" y2="492.4282"/><line style="stroke:#111827;stroke-width:1.0;" x1="484" x2="484" y1="492.4282" y2="505.4282"/><line style="stroke:#111827;stroke-width:1.0;" x1="443" x2="484" y1="505.4282" y2="505.4282"/><polygon fill="#111827" points="453,501.4282,443,505.4282,453,509.4282,449,505.4282" style="stroke:#111827;stroke-width:1.0;"/><text fill="#000000" font-family="Arial" font-size="13" font-weight="bold" lengthAdjust="spacing" textLength="7" x="449" y="480.199">2</text><text fill="#000000" font-family="Arial" font-size="13" lengthAdjust="spacing" textLength="180" x="460" y="472.7246">e-Med GroupIdentifier erzeugen</text><text fill="#000000" font-family="Arial" font-size="13" lengthAdjust="spacing" textLength="194" x="460" y="487.6733">+ in geplanten Abgaben erg&#228;nzen</text><path d="M324,523.4282 L324,537.4282 A5,5 0 0 0 329,542.4282 L545,542.4282 A5,5 0 0 0 550,537.4282 L550,528.4282 L540,518.4282 L329,518.4282 A5,5 0 0 0 324,523.4282 " fill="url(#g1hug2mctp2wls0)" style="stroke:#8B95A5;stroke-width:1.0;"/><path d="M540,518.4282 L540,525.9282 A2.5,2.5 0 0 0 542.5,528.4282 L550,528.4282 L540,518.4282 " fill="url(#g1hug2mctp2wls0)" style="stroke:#8B95A5;stroke-width:1.0;"/><text fill="#111827" font-family="Arial" font-size="13" lengthAdjust="spacing" textLength="205" x="330" y="535.6221">Geplante Abgabe 1 + 2 gespeichert</text><polygon fill="#111827" points="153,565.3257,143,569.3257,153,573.3257,149,569.3257" style="stroke:#111827;stroke-width:1.0;"/><line style="stroke:#111827;stroke-width:1.0;stroke-dasharray:2.0,2.0;" x1="147" x2="431" y1="569.3257" y2="569.3257"/><text fill="#000000" font-family="Arial" font-size="13" font-weight="bold" lengthAdjust="spacing" textLength="7" x="159" y="564.5708">3</text><text fill="#000000" font-family="Arial" font-size="13" lengthAdjust="spacing" textLength="255" x="170" y="564.5708">OK (Ressourcen inkl. e-Med GroupIdentifier)</text><line style="stroke:#111827;stroke-width:1.0;stroke-dasharray:2.0,2.0;" x1="103" x2="666" y1="578.3257" y2="578.3257"/><text fill="#000000" font-family="Arial" font-size="11" font-weight="bold" lengthAdjust="spacing" textLength="147" x="108" y="588.6436">[Geplante Abgaben Fehler]</text><polygon fill="#111827" points="153,608.9233,143,612.9233,153,616.9233,149,612.9233" style="stroke:#111827;stroke-width:1.0;"/><line style="stroke:#111827;stroke-width:1.0;stroke-dasharray:2.0,2.0;" x1="147" x2="436" y1="612.9233" y2="612.9233"/><text fill="#000000" font-family="Arial" font-size="13" font-weight="bold" lengthAdjust="spacing" textLength="7" x="159" y="608.1685">4</text><text fill="#000000" font-family="Arial" font-size="13" lengthAdjust="spacing" textLength="36" x="170" y="608.1685">Fehler</text><polygon fill="#111827" points="649,644.8721,659,648.8721,649,652.8721,653,648.8721" style="stroke:#111827;stroke-width:1.0;"/><line style="stroke:#111827;stroke-width:1.0;" x1="142" x2="655" y1="648.8721" y2="648.8721"/><text fill="#000000" font-family="Arial" font-size="13" font-weight="bold" lengthAdjust="spacing" textLength="7" x="149" y="644.1172">5</text><text fill="#000000" font-family="Arial" font-size="13" lengthAdjust="spacing" textLength="311" x="160" y="644.1172">Trigger e-Rezept erstellen (inkl. e-Med GroupIdentifier)</text><path d="M37,666.8721 L37,695.8721 A5,5 0 0 0 42,700.8721 L232,700.8721 A5,5 0 0 0 237,695.8721 L237,671.8721 L227,661.8721 L42,661.8721 A5,5 0 0 0 37,666.8721 " fill="url(#g1hug2mctp2wls0)" style="stroke:#8B95A5;stroke-width:1.0;"/><path d="M227,661.8721 L227,669.3721 A2.5,2.5 0 0 0 229.5,671.8721 L237,671.8721 L227,661.8721 " fill="url(#g1hug2mctp2wls0)" style="stroke:#8B95A5;stroke-width:1.0;"/><text fill="#111827" font-family="Arial" font-size="13" lengthAdjust="spacing" textLength="142" x="43" y="679.0659">Erstellung e-Rezept inkl.</text><text fill="#111827" font-family="Arial" font-size="13" lengthAdjust="spacing" textLength="179" x="43" y="694.0146">e-Med GroupIdentifier ausl&#246;sen</text><path d="M108,713.7695 L164,713.7695 L164,720.7183 L154,730.7183 L103,730.7183 L103,718.7695 A5,5 0 0 1 108,713.7695 " fill="#EEF2FF" style="stroke:#111827;stroke-width:1.5;"/><rect fill="none" height="153.3926" rx="5" ry="5" style="stroke:#111827;stroke-width:2.0;" width="628.5" x="103" y="713.7695"/><text fill="#000000" font-family="Arial" font-size="13" font-weight="bold" lengthAdjust="spacing" textLength="16" x="118" y="726.9634">alt</text><text fill="#000000" font-family="Arial" font-size="11" font-weight="bold" lengthAdjust="spacing" textLength="100" x="179" y="726.0874">[e-Rezept erstellt]</text><polygon fill="#111827" points="153,747.667,143,751.667,153,755.667,149,751.667" style="stroke:#111827;stroke-width:1.0;"/><line style="stroke:#111827;stroke-width:1.0;stroke-dasharray:2.0,2.0;" x1="147" x2="660" y1="751.667" y2="751.667"/><text fill="#000000" font-family="Arial" font-size="13" font-weight="bold" lengthAdjust="spacing" textLength="7" x="159" y="746.9121">6</text><text fill="#000000" font-family="Arial" font-size="13" lengthAdjust="spacing" textLength="19" x="170" y="746.9121">OK</text><line style="stroke:#111827;stroke-width:1.0;stroke-dasharray:2.0,2.0;" x1="103" x2="731.5" y1="760.667" y2="760.667"/><text fill="#000000" font-family="Arial" font-size="11" font-weight="bold" lengthAdjust="spacing" textLength="95" x="108" y="770.9849">[e-Rezept Fehler]</text><polygon fill="#111827" points="153,791.2646,143,795.2646,153,799.2646,149,795.2646" style="stroke:#111827;stroke-width:1.0;"/><line style="stroke:#111827;stroke-width:1.0;stroke-dasharray:2.0,2.0;" x1="147" x2="665" y1="795.2646" y2="795.2646"/><text fill="#000000" font-family="Arial" font-size="13" font-weight="bold" lengthAdjust="spacing" textLength="7" x="159" y="790.5098">7</text><text fill="#000000" font-family="Arial" font-size="13" lengthAdjust="spacing" textLength="36" x="170" y="790.5098">Fehler</text><polygon fill="#111827" points="425,820.2134,435,824.2134,425,828.2134,429,824.2134" style="stroke:#111827;stroke-width:1.0;"/><line style="stroke:#111827;stroke-width:1.0;" x1="137" x2="431" y1="824.2134" y2="824.2134"/><text fill="#000000" font-family="Arial" font-size="13" font-weight="bold" lengthAdjust="spacing" textLength="7" x="144" y="819.4585">8</text><text fill="#000000" font-family="Arial" font-size="13" font-style="italic" lengthAdjust="spacing" textLength="102" x="155" y="819.4585">Geplante Abgabe</text><text fill="#000000" font-family="Arial" font-size="13" lengthAdjust="spacing" textLength="114" x="261" y="819.4585">verwerfen ($discard)</text><path d="M293,842.2134 L293,856.2134 A5,5 0 0 0 298,861.2134 L576,861.2134 A5,5 0 0 0 581,856.2134 L581,847.2134 L571,837.2134 L298,837.2134 A5,5 0 0 0 293,842.2134 " fill="url(#g1hug2mctp2wls0)" style="stroke:#8B95A5;stroke-width:1.0;"/><path d="M571,837.2134 L571,844.7134 A2.5,2.5 0 0 0 573.5,847.2134 L581,847.2134 L571,837.2134 " fill="url(#g1hug2mctp2wls0)" style="stroke:#8B95A5;stroke-width:1.0;"/><text fill="#111827" font-family="Arial" font-size="13" lengthAdjust="spacing" textLength="103" x="299" y="854.4072">Siehe Use Case "</text><text fill="#111827" font-family="Arial" font-size="13" font-style="italic" lengthAdjust="spacing" textLength="102" x="402" y="854.4072">Geplante Abgabe</text><text fill="#111827" font-family="Arial" font-size="13" lengthAdjust="spacing" textLength="58" x="508" y="854.4072">verwerfen"</text><!--SRC=[XLRTZjf65BwVfpY5IjrLIefDW6MRNGcoi8tI10Ia5qqZDE236M76T6ns4wg-pJv3hdh7Y_NCsC3uPriZeV7CcNE-yvq_no8E4Evn6t0P8tJdFfyZB0__A9XZ5ECAfOVm7Zsnvh48PQG5KSXO7Pvy15Ga4mGe_v2_SIMCZjurJF3F7SfOwAC8-aSXU0ZboPOw6jj93x0snZrkOs3iXsWjv9OhlW6-Y4CrYRyIGlw8KRX1niwdyr1vgDw4GQYWMZUFVSeNQr-5f3oLM3RrpvA8LjmB7uNqOSc32AsJz9gI1DAnbNguvBiW7eGo_i0t29Kk-HnKRCoMo4Ji4PnNvVUVm_tBrosgGCYr9T3lbmbyfCZe1HRmzy8l8-vvsZMtdjtlsQGrpMDpAaCAu5yCe9Ud3-lONDPhLS_nEjZI4hQcgtcdoPkdtUbABDOIemWSsXjRTDRf_OXDQx6eS1pdoctJtYGNcBzjX959hKM2SiHLB1PYI_bKvbXMe90GviaA5IDJE3v6DNDWqGtGLIfyp3jbDhEycAqoYwU3n5Q3jku9-JRZuqbpSbI85ovTuvrryspUrQH-H-ceq-VDyDVXU7P_rvqvG4_LQRRgL-vLlKJ0DGATLglUlYi8ZBhJj_qFKwsXq-gvhme2tT4Gp5Ej3phzksOdBz1_tx-R3ReaW9ssst3dNbvWDkx_tXzDeRhm6ks6opjvDuRl86F3RUPLZCV3iH7eTzfEmsrG0PX60ma3F88AhS2fsCImxJdOWDGFDKmjYZLwWK6tadKXApzBkrjo8Ncfv5mY5BiubBlD71LZDpVvfWjyhdPBQg8tDmQmUE1Kgmbc6wZ29OGFcBhpumdiDNpw97JVrNT9vyjLl0cgIJdjFS5zggvDJLkgAUGUZFHgJAlFdnapVU6ibMc2KAqEJq5SmCakkhie4BX4jPD-LAE43D3OhFKeFmEyP3HKJAinVkQ6ZvuIYZX04TDQ3uTeiQAtUUfw7aewNMZpjRZDwthzaxW5fQ6GaqB_0zllV5mTlYdXFp_OVcQwcBPlFJt5bdGn6OcL97JhWAX2LM7pW7354225xEnJ4fFQxP7wQnWD9rEOAYwZX7n8Y32k9qZF4Jt6AvjEZ1FJfmmlK9REuPXHmHyLs02IBBtF-OHgZqG63UyN82JugLPfgVKFJtAFKkiz4v-grSqbz-7Wm0jmIL6qHR5OeOerdXCn5ZO2PsYw1dBdOamzATof1PcamHQyBCTxIGeOGne9cL8ka370LK01ARMMd04TUfYddEaOsk5Bo_QQGYTyNpj-_4mvVVV0nNy2VYPPgIxEkX85h3n4d4hfy2sY29neFCC-jfL28x5p9O_PXEHuCnE74cvFby-Sbbmj9pKLr5bIA8XYgPfA9Q8UKUacT_6z9w85LzxbSwat4VHn2XyrO4v_bVzJMR5JCOCq2OsE_Ry0]--></g></svg>