<svg xmlns="http://www.w3.org/2000/svg" xmlns:xlink="http://www.w3.org/1999/xlink" version="1.1" data-diagram-type="SEQUENCE" style="width:657px;height:707px;background:#F5F5F5;" width="657px" height="707px" viewBox="0 0 657 707" zoomAndPan="magnify" preserveAspectRatio="none" contentStyleType="text/css"><?plantuml 1.2026.7beta8?><defs><linearGradient x1="50%" y1="0%" x2="50%" y2="100%" id="g17x1ref8vcd4n0"><stop stop-color="#E0E5F0" offset="0%"/><stop stop-color="#D1D9E6" offset="100%"/></linearGradient></defs><g font-family="sans-serif" lengthAdjust="spacing"><rect x="0" y="0" width="657" height="707" fill="#F5F5F5" style="stroke:none;"/><g class="title" data-source-line="1"><text x="96.163" y="27.995" fill="#000" font-size="14" textLength="463.114" font-weight="700" font-family="'Arial'">Historische Medikationsplanversionen lesen (List/_history)</text></g><path d="M24.282,311.688 L427.918,311.688 A5,5 0 0 1 432.918,316.688 L432.918,395.25 L19.282,395.25 L19.282,316.688 A5,5 0 0 1 24.282,311.688" fill="#0F9ED5" fill-opacity="0.145"/><rect x="19.282" y="395.25" width="413.637" height="63.43" fill="#34738D" fill-opacity="0.306" style="stroke:#34738D4E;stroke-width:1;"/><path d="M19.282,458.68 L432.918,458.68 L432.918,506.109 A5,5 0 0 1 427.918,511.109 L24.282,511.109 A5,5 0 0 1 19.282,506.109 L19.282,458.68" fill="#E97132" fill-opacity="0.208"/><g><title>GDA 1</title><rect x="31.782" y="123.594" width="8" height="496.703" fill="#000" fill-opacity="0"/><line x1="35.282" y1="123.594" x2="35.282" y2="620.297" style="stroke:#181818;stroke-width:0.5;stroke-dasharray:5,5;"/></g><g><title></title><rect x="30.282" y="212.156" width="10" height="290.953" fill="#156082" fill-opacity="0.502" style="stroke:#181818;stroke-width:1;"/></g><g><title>e-Med FA</title><rect x="413.418" y="123.594" width="8" height="496.703" fill="#000" fill-opacity="0"/><line x1="416.918" y1="123.594" x2="416.918" y2="620.297" style="stroke:#181818;stroke-width:0.5;stroke-dasharray:5,5;"/></g><g><title></title><rect x="411.918" y="212.156" width="10" height="290.953" fill="#E97232" fill-opacity="0.741" style="stroke:#181818;stroke-width:1;"/></g><text x="10" y="120.292" fill="#000" font-size="14" textLength="44.563" font-family="'Arial'">GDA 1</text><ellipse cx="35.282" cy="55.797" rx="8" ry="8" fill="#156082" fill-opacity="0.502" style="stroke:#181818;stroke-width:0.5;"/><path d="M35.282,63.797 L35.282,90.797 M22.282,71.797 L48.282,71.797 M35.282,90.797 L22.282,105.797 M35.282,90.797 L48.282,105.797" style="stroke:#181818;stroke-width:0.5;" fill="none"/><rect x="377.256" y="92.297" width="79.324" height="30.297" fill="#E97232" fill-opacity="0.741" style="stroke:#555;stroke-width:0.5;" rx="5" ry="5"/><text x="384.256" y="112.292" fill="#000" font-size="14" textLength="65.324" font-family="'Arial'">e-Med FA</text><text x="10" y="633.292" fill="#000" font-size="14" textLength="44.563" font-family="'Arial'">GDA 1</text><ellipse cx="35.282" cy="645.094" rx="8" ry="8" fill="#156082" fill-opacity="0.502" style="stroke:#181818;stroke-width:0.5;"/><path d="M35.282,653.094 L35.282,680.094 M22.282,661.094 L48.282,661.094 M35.282,680.094 L22.282,695.094 M35.282,680.094 L48.282,695.094" style="stroke:#181818;stroke-width:0.5;" fill="none"/><rect x="377.256" y="620.297" width="79.324" height="30.297" fill="#E97232" fill-opacity="0.741" style="stroke:#555;stroke-width:0.5;" rx="5" ry="5"/><text x="384.256" y="640.292" fill="#000" font-size="14" textLength="65.324" font-family="'Arial'">e-Med FA</text><rect x="10" y="152.742" width="636.439" height="3" fill="#EEE" style="stroke:#EEE;stroke-width:1;" rx="5" ry="5"/><line x1="10" y1="152.742" x2="646.439" y2="152.742" style="stroke:#000;stroke-width:1;"/><line x1="10" y1="155.742" x2="646.439" y2="155.742" style="stroke:#000;stroke-width:1;"/><rect x="178.314" y="141.594" width="299.811" height="24.297" fill="#EEE" style="stroke:#000;stroke-width:2;" rx="5" ry="5"/><text x="184.314" y="158.589" fill="#000" font-size="14" textLength="280.937" font-weight="700" font-family="'Arial'">Historische Medikationspläne lesen</text><polygon points="399.918,208.156,409.918,212.156,399.918,216.156,403.918,212.156" fill="#111827" style="stroke:#111827;stroke-width:1;stroke-linejoin:miter;stroke-miterlimit:10;"/><line x1="40.282" y1="212.156" x2="405.918" y2="212.156" style="stroke:#111827;stroke-width:1;"/><text x="47.282" y="199.524" fill="#000" font-size="13" font-weight="700" font-family="'Arial'">1</text><text x="60.327" y="191.958" fill="#000" font-size="13" textLength="196.073" font-family="'Arial'">GET /Patient/{id}/List/_history</text><text x="60.327" y="207.09" fill="#000" font-size="13" textLength="144.396" font-family="'Arial'">(mit Suchparametern)</text><line x1="421.918" y1="286.688" x2="463.918" y2="286.688" style="stroke:#111827;stroke-width:1;"/><line x1="463.918" y1="286.688" x2="463.918" y2="299.688" style="stroke:#111827;stroke-width:1;"/><line x1="422.918" y1="299.688" x2="463.918" y2="299.688" style="stroke:#111827;stroke-width:1;"/><polygon points="432.918,295.688,422.918,299.688,432.918,303.688,428.918,299.688" fill="#111827" style="stroke:#111827;stroke-width:1;stroke-linejoin:miter;stroke-miterlimit:10;"/><text x="428.918" y="258.922" fill="#000" font-size="13" font-weight="700" font-family="'Arial'">2</text><text x="441.964" y="236.223" fill="#000" font-size="13" textLength="168.721" font-family="'Arial'">Ermittlung der passenden</text><text x="441.964" y="251.356" fill="#000" font-size="13" textLength="175.627" font-family="'Arial'">historischen List-Versionen</text><text x="441.964" y="266.489" fill="#000" font-size="13" textLength="153.226" font-family="'Arial'">und Rekonstruktion der</text><text x="441.964" y="281.622" fill="#000" font-size="13" textLength="197.476" font-family="'Arial'">historischen Medikationspläne</text><path d="M24.282,311.688 L404.308,311.688 L404.308,319.984 L394.308,329.984 L19.282,329.984 L19.282,316.688 A5,5 0 0 1 24.282,311.688" style="stroke:#111827;stroke-width:1.5;" fill="#EEF2FF"/><rect x="19.282" y="311.688" width="413.637" height="199.422" fill="none" style="stroke:#111827;stroke-width:2;" rx="5" ry="5"/><text x="34.282" y="325.683" fill="#000" font-size="14" textLength="340.026" font-weight="700" font-family="'Arial'">alt: Historische List-Version(en) gefunden?</text><line x1="19.282" y1="395.25" x2="432.918" y2="395.25" style="stroke:#111827;stroke-width:1;stroke-dasharray:2,2;"/><text x="24.282" y="410.245" fill="#000" font-size="14" textLength="47.024" font-weight="700" font-family="'Arial'">[nein]</text><line x1="19.282" y1="458.68" x2="432.918" y2="458.68" style="stroke:#111827;stroke-width:1;stroke-dasharray:2,2;"/><text x="24.282" y="473.675" fill="#000" font-size="14" textLength="63.021" font-weight="700" font-family="'Arial'">[Fehler]</text><polygon points="51.282,372.25,41.282,376.25,51.282,380.25,47.282,376.25" fill="#111827" style="stroke:#111827;stroke-width:1;stroke-linejoin:miter;stroke-miterlimit:10;"/><line x1="45.282" y1="376.25" x2="410.918" y2="376.25" style="stroke:#111827;stroke-width:1;"/><text x="57.282" y="363.618" fill="#000" font-size="13" font-weight="700" font-family="'Arial'">3</text><text x="70.327" y="356.051" fill="#000" font-size="13" textLength="334.591" font-family="'Arial'">Bundle (type=searchset) mit einem oder mehreren</text><text x="70.327" y="371.184" fill="#000" font-size="13" textLength="232.032" font-family="'Arial'">Medikationsplan-Collection-Bundles</text><polygon points="51.282,435.68,41.282,439.68,51.282,443.68,47.282,439.68" fill="#111827" style="stroke:#111827;stroke-width:1;stroke-linejoin:miter;stroke-miterlimit:10;"/><line x1="45.282" y1="439.68" x2="410.918" y2="439.68" style="stroke:#111827;stroke-width:1;"/><text x="57.282" y="434.614" fill="#000" font-size="13" font-weight="700" font-family="'Arial'">4</text><text x="70.327" y="434.614" fill="#000" font-size="13" textLength="258.223" font-family="'Arial'">Bundle (type=searchset) ohne Einträge</text><polygon points="51.282,499.109,41.282,503.109,51.282,507.109,47.282,503.109" fill="#111827" style="stroke:#111827;stroke-width:1;stroke-linejoin:miter;stroke-miterlimit:10;"/><line x1="45.282" y1="503.109" x2="410.918" y2="503.109" style="stroke:#111827;stroke-width:1;"/><text x="57.282" y="498.043" fill="#000" font-size="13" font-weight="700" font-family="'Arial'">5</text><text x="70.327" y="498.043" fill="#000" font-size="13" textLength="124.027" font-family="'Arial'">OperationOutcome</text><path d="M243.88,535.109 L243.88,600.109 A5,5 0 0 0 248.88,605.109 L584.88,605.109 A5,5 0 0 0 589.88,600.109 L589.88,540.109 L579.88,530.109 L248.88,530.109 A5,5 0 0 0 243.88,535.109" style="stroke:#8B95A5;stroke-width:1;" fill="url(#g17x1ref8vcd4n0)"/><path d="M579.88,530.109 L579.88,537.609 A2.5,2.5 0 0 0 582.38,540.109 L589.88,540.109 L579.88,530.109" style="stroke:#8B95A5;stroke-width:1;" fill="url(#g17x1ref8vcd4n0)"/><text x="249.88" y="548.104" fill="#111827" font-size="14" textLength="245.137" font-family="'Arial'">Die Fachanwendung liefert die den</text><text x="249.88" y="564.401" fill="#111827" font-size="14" textLength="325.076" font-family="'Arial'">Suchparametern entsprechenden historischen</text><text x="249.88" y="580.698" fill="#111827" font-size="14" textLength="298.717" font-family="'Arial'">Medikationspläne als Collection Bundles in</text><text x="249.88" y="596.995" fill="#111827" font-size="14" textLength="290.145" font-family="'Arial'">einem Bundle vom Typ searchset zurück.</text><?plantuml-src bLNDRjiu4BxhAMRjmoO7Romv_b40jx1hEIsshGt7kuT508EHnX5XcL99AcbQz6tw67lBY-rGyWzbkOUL0KEQ-JWptpT3KdET8BpdIgUIgp16-8GHtp3DKw6oX8adb8hUKK22YlulFXBsQXKNAruk7UTtjU4YOv9jWOLakzCl594zeqgtw3X7xqCg8vJlqYILq6mNZ-rbuUPHfhc8TeXrr_miX8fPb3vpyGXhbYYqFBjbKg04rmuQuPhbYPwcGdzcMuJ6I7AMDCuZxlWt1FVwlFDNPRz_oL0cN6miG12S0_mbek85Q-MFqwzp5aM6cTUksiUsPjtYiIKLgKRuxW2CJzN3DdRNxLOpSYCVUmPXHney-5tMFLYNCGyt0fK2bsmBIyqsVUzhCr4iALpN7NXzijsTzEM7NQ72BpcAiAnopgJc8S-OqEU8LG6rUIYUAgZUcPfxtzMAmv8RO2Hb-dnAgZ1MTIbCvp8U76Mk3fbkgVAiml4GkNJL-eLhhs1dhJoczuoelz4ucl5vD_iuMwnk9wEL2_GqtMwlFV06xJC0hm3ulLwxFwa1vgFbX-3pqaJmUsFlkWOOpMTGFCtsr0ycNVyK47mA9glfY03ezxsEzn2T0bQBu9zWleHc67Nw7O_vfpHcVq8bXzUj0KeMqEnSzpk3w1fFSomMiqK12Fo-s_4wj4ESuYI2KYEce45lu3PiwPpiE0w0TEWP8WQABVg0wQXH9Mc2vZeL-VO1fUCCXxy-D5z_Kd7bQJaSEavPHUlDFiiDt0PBk9eJ78M--iwZ7rULG_LUN6ovXhiyZ8jDX1gbk3IS-1EZ3Ly6jBaSVNicrThtLhk8G58IdUIq3MZM86EA2evGt8luI4o0gQprz_uIk1Sqih303H7LCjyOncRvoQAQ78vZfZqxDfqb-gQYe9td0iKbFE8wD_MyfKrXrLyGle4n-UYQkT1ql0uLCXd62lKb6E6GXcCBgM6rnLYYD7MVN6ijsdS9XkQxLSPI3jBfPK-Te43_AtaQK-C3BhHy_Vc8ThnoIASO9pGyvqBEw9OegflbEZGN9v2irOvNJRiG3lMCHhEu25Awgm_s2KUOiZ1cufaWfii9npLA3H5vI5UdEbz0iwWoYQP_v0MxdqvzlEcaXwE4EqKKa62b-Zk9dj8jB5yoE8W4ttBv-c-u-SCKNjnV_m40?></g></svg>