<svg xmlns="http://www.w3.org/2000/svg" xmlns:xlink="http://www.w3.org/1999/xlink" contentStyleType="text/css" data-diagram-type="SEQUENCE" height="1226px" preserveAspectRatio="none" style="width:972px;height:1226px;background:#F5F5F5;" version="1.1" viewBox="0 0 972 1226" width="972px" zoomAndPan="magnify"><?plantuml 1.2026.7beta1?><defs><linearGradient id="g19d6ikbq8c0ym0" x1="50%" x2="50%" y1="0%" y2="100%"><stop offset="0%" stop-color="#E0E5F0"/><stop offset="100%" stop-color="#D1D9E6"/></linearGradient><filter height="300%" id="f19d6ikbq8c0ym" width="300%" x="-1" y="-1"><feGaussianBlur result="blurOut" stdDeviation="2"/><feColorMatrix in="blurOut" result="blurOut2" type="matrix" values="0 0 0 0 0 0 0 0 0 0 0 0 0 0 0 0 0 0 .4 0"/><feOffset dx="4" dy="4" in="blurOut2" result="blurOut3"/><feBlend in="SourceGraphic" in2="blurOut3" mode="normal"/></filter></defs><g><rect fill="#F5F5F5" height="1226" style="stroke:none;stroke-width:1;" width="972" x="0" y="0"/><g class="title" data-source-line="1"><text fill="#000000" font-family="'Arial'" font-size="14" font-weight="700" lengthAdjust="spacing" textLength="539.0137" x="213.0039" y="27.9951">Geplante Abgabe f&#252;r bestehende Medikationsplaneintr&#228;ge erstellen</text><text fill="#000000" font-family="'Arial'" font-size="14" font-weight="700" lengthAdjust="spacing" textLength="676.2588" x="144.3813" y="44.292">Variante C: Nachtr&#228;gliche Verkn&#252;pfung des e-Rezepts mit dem e-Med GroupIdentifier</text></g><g><title>GDA 1</title><rect fill="#9FBAC4" height="990.3125" style="stroke:#181818;stroke-width:1;" width="10" x="171.2817" y="144.8906"/></g><g><title>e-Med FA</title><rect fill="#C48778" height="255.3125" style="stroke:#181818;stroke-width:1;" width="10" x="504.9619" y="685.7656"/></g><g><title>e-Rezept</title><rect fill="#CBB272" height="158.75" style="stroke:#181818;stroke-width:1;" width="10" x="771.2617" y="472.5859"/></g><g><title>e-Rezept</title><rect fill="#CBB272" height="141.9922" style="stroke:#181818;stroke-width:1;" width="10" x="771.2617" y="984.2109"/></g><rect fill="none" height="524.2188" rx="5" ry="5" style="stroke:#111827;stroke-width:2;" width="825.4336" x="9" y="431.8594"/><rect fill="#9FC79F" fill-opacity="0.50588" height="96.1563" rx="5" ry="5" style="stroke:#111827;stroke-width:2;" width="683.4336" x="141" y="543.1797"/><path d="M141,591.9063 L824.4336,591.9063 L824.4336,634.3359 A5,5 0 0 1 819.4336,639.3359 L146,639.3359 A5,5 0 0 1 141,634.3359 L141,591.9063" fill="#F73737" fill-opacity="0.40000" style="stroke:none;stroke-width:1;"/><rect fill="#9FC79F" fill-opacity="0.50588" height="192.7188" rx="5" ry="5" style="stroke:#111827;stroke-width:2;" width="635.2617" x="141" y="756.3594"/><path d="M141,901.6484 L776.2617,901.6484 L776.2617,944.0781 A5,5 0 0 1 771.2617,949.0781 L146,949.0781 A5,5 0 0 1 141,944.0781 L141,901.6484" fill="#F73737" fill-opacity="0.40000" style="stroke:none;stroke-width:1;"/><g class="participant-lifeline" data-entity-uid="part1" data-qualified-name="GDA_1" data-source-line="43" id="part1-lifeline"><g><title>GDA 1</title><rect fill="#000000" fill-opacity="0.00000" height="1009.3125" width="8" x="172.2817" y="134.8906"/><line style="stroke:#181818;stroke-width:0.5;stroke-dasharray:5,5;" x1="176" x2="176" y1="134.8906" y2="1144.2031"/></g></g><g class="participant-lifeline" data-entity-uid="part2" data-qualified-name="eMed_FA" data-source-line="47" id="part2-lifeline"><g><title>e-Med FA</title><rect fill="#000000" fill-opacity="0.00000" height="1009.3125" width="8" x="505.9619" y="134.8906"/><line style="stroke:#181818;stroke-width:0.5;stroke-dasharray:5,5;" x1="509.2998" x2="509.2998" y1="134.8906" y2="1144.2031"/></g></g><g class="participant-lifeline" data-entity-uid="part3" data-qualified-name="e_Rezept" data-source-line="51" id="part3-lifeline"><g><title>e-Rezept</title><rect fill="#000000" fill-opacity="0.00000" height="1009.3125" width="8" x="772.2617" y="134.8906"/><line style="stroke:#181818;stroke-width:0.5;stroke-dasharray:5,5;" x1="776.0898" x2="776.0898" y1="134.8906" y2="1144.2031"/></g></g><g class="participant participant-head" data-entity-uid="part1" data-qualified-name="GDA_1" data-source-line="43" id="part1-head"><text fill="#000000" font-family="'Arial'" font-size="14" lengthAdjust="spacing" textLength="44.5635" x="151" y="131.5889">GDA 1</text><ellipse cx="176.2817" cy="67.0938" fill="#9FBAC4" rx="8" ry="8" style="stroke:#181818;stroke-width:0.5;"/><path d="M176.2817,75.0938 L176.2817,102.0938 M163.2817,83.0938 L189.2817,83.0938 M176.2817,102.0938 L163.2817,117.0938 M176.2817,102.0938 L189.2817,117.0938" fill="none" style="stroke:#181818;stroke-width:0.5;"/></g><g class="participant participant-tail" data-entity-uid="part1" data-qualified-name="GDA_1" data-source-line="43" id="part1-tail"><text fill="#000000" font-family="'Arial'" font-size="14" lengthAdjust="spacing" textLength="44.5635" x="151" y="1156.1982">GDA 1</text><ellipse cx="176.2817" cy="1168" fill="#9FBAC4" rx="8" ry="8" style="stroke:#181818;stroke-width:0.5;"/><path d="M176.2817,1176 L176.2817,1203 M163.2817,1184 L189.2817,1184 M176.2817,1203 L163.2817,1218 M176.2817,1203 L189.2817,1218" fill="none" style="stroke:#181818;stroke-width:0.5;"/></g><g class="participant participant-head" data-entity-uid="part2" data-qualified-name="eMed_FA" data-source-line="47" id="part2-head"><rect fill="#C48778" height="30.2969" rx="5" ry="5" style="stroke:#555555;stroke-width:0.5;" width="79.3242" x="470.2998" y="103.5938"/><text fill="#000000" font-family="'Arial'" font-size="14" lengthAdjust="spacing" textLength="65.3242" x="477.2998" y="123.5889">e-Med FA</text></g><g class="participant participant-tail" data-entity-uid="part2" data-qualified-name="eMed_FA" data-source-line="47" id="part2-tail"><rect fill="#C48778" height="30.2969" rx="5" ry="5" style="stroke:#555555;stroke-width:0.5;" width="79.3242" x="470.2998" y="1143.2031"/><text fill="#000000" font-family="'Arial'" font-size="14" lengthAdjust="spacing" textLength="65.3242" x="477.2998" y="1163.1982">e-Med FA</text></g><g class="participant participant-head" data-entity-uid="part3" data-qualified-name="e_Rezept" data-source-line="51" id="part3-head"><rect fill="#CBB272" height="30.2969" rx="5" ry="5" style="stroke:#555555;stroke-width:0.5;" width="76.3438" x="738.0898" y="103.5938"/><text fill="#000000" font-family="'Arial'" font-size="14" lengthAdjust="spacing" textLength="62.3438" x="745.0898" y="123.5889">e-Rezept</text></g><g class="participant participant-tail" data-entity-uid="part3" data-qualified-name="e_Rezept" data-source-line="51" id="part3-tail"><rect fill="#CBB272" height="30.2969" rx="5" ry="5" style="stroke:#555555;stroke-width:0.5;" width="76.3438" x="738.0898" y="1143.2031"/><text fill="#000000" font-family="'Arial'" font-size="14" lengthAdjust="spacing" textLength="62.3438" x="745.0898" y="1163.1982">e-Rezept</text></g><g><title>GDA 1</title><rect fill="#9FBAC4" height="990.3125" style="stroke:#181818;stroke-width:1;" width="10" x="171.2817" y="144.8906"/></g><g><title>e-Med FA</title><rect fill="#C48778" height="255.3125" style="stroke:#181818;stroke-width:1;" width="10" x="504.9619" y="685.7656"/></g><g><title>e-Rezept</title><rect fill="#CBB272" height="158.75" style="stroke:#181818;stroke-width:1;" width="10" x="771.2617" y="472.5859"/></g><g><title>e-Rezept</title><rect fill="#CBB272" height="141.9922" style="stroke:#181818;stroke-width:1;" width="10" x="771.2617" y="984.2109"/></g><rect fill="#EEEEEE" height="3" rx="5" ry="5" style="stroke:#EEEEEE;stroke-width:1;" width="966.0215" x="0" y="166.0391"/><line style="stroke:#000000;stroke-width:1;" x1="0" x2="966.0215" y1="166.0391" y2="166.0391"/><line style="stroke:#000000;stroke-width:1;" x1="0" x2="966.0215" y1="169.0391" y2="169.0391"/><rect fill="#EEEEEE" height="24.2969" rx="5" ry="5" style="stroke:#000000;stroke-width:2;" width="216.2891" x="374.8662" y="154.8906"/><text fill="#000000" font-family="'Arial'" font-size="14" font-weight="700" lengthAdjust="spacing" textLength="197.415" x="380.8662" y="171.8857">Medikationsplan abrufen</text><rect fill="none" height="42.5938" rx="5" ry="5" style="stroke:#000000;stroke-width:1.5;" width="404.624" x="148" y="189.1875"/><path d="M153,189.1875 L215,189.1875 L215,197.1875 L205,207.1875 L148,207.1875 L148,194.1875 A5,5 0 0 1 153,189.1875" fill="#EEEEEE" style="stroke:#000000;stroke-width:2;"/><text fill="#000000" font-family="'Arial'" font-size="14" font-weight="700" lengthAdjust="spacing" textLength="22.4902" x="161" y="204.1826">ref</text><a href="interactions.html#sequenzdiagramm-plan-read" target="_top" title="interactions.html#sequenzdiagramm-plan-read" xlink:actuate="onRequest" xlink:href="interactions.html#sequenzdiagramm-plan-read" xlink:show="new" xlink:title="interactions.html#sequenzdiagramm-plan-read" xlink:type="simple"><text fill="#0000EE" font-family="'Arial'" font-size="14" lengthAdjust="spacing" textLength="70.6426" x="314.9907" y="224.1826">Plan-Read</text></a><path d="M47,246.7813 L47,278.7813 A5,5 0 0 0 52,283.7813 L297,283.7813 A5,5 0 0 0 302,278.7813 L302,251.7813 L292,241.7813 L52,241.7813 A5,5 0 0 0 47,246.7813" fill="url(#g19d6ikbq8c0ym0)" filter="url(#f19d6ikbq8c0ym)" style="stroke:#8B95A5;stroke-width:1;"/><path d="M292,241.7813 L292,249.2813 A2.5,2.5 0 0 0 294.5,251.7813 L302,251.7813 L292,241.7813" fill="url(#g19d6ikbq8c0ym0)" style="stroke:#8B95A5;stroke-width:1;"/><text fill="#111827" font-family="'Arial'" font-size="14" lengthAdjust="spacing" textLength="195.8018" x="53" y="259.7764">GDA erh&#228;lt Medikationsplan</text><text fill="#111827" font-family="'Arial'" font-size="14" lengthAdjust="spacing" textLength="234.377" x="53" y="276.0732">(Auslieferungs-Collection-Bundle)</text><rect fill="#EEEEEE" height="3" rx="5" ry="5" style="stroke:#EEEEEE;stroke-width:1;" width="966.0215" x="0" y="313.5234"/><line style="stroke:#000000;stroke-width:1;" x1="0" x2="966.0215" y1="313.5234" y2="313.5234"/><line style="stroke:#000000;stroke-width:1;" x1="0" x2="966.0215" y1="316.5234" y2="316.5234"/><rect fill="#EEEEEE" height="24.2969" rx="5" ry="5" style="stroke:#000000;stroke-width:2;" width="379.3398" x="293.3408" y="302.375"/><text fill="#000000" font-family="'Arial'" font-size="14" font-style="italic" font-weight="700" lengthAdjust="spacing" textLength="146.0908" x="299.3408" y="319.3701">Geplante Abgaben</text><text fill="#000000" font-family="'Arial'" font-size="14" font-weight="700" lengthAdjust="spacing" textLength="209.501" x="450.3057" y="319.3701">vorbereiten und schreiben</text><path d="M16,346.6719 L16,411.6719 A5,5 0 0 0 21,416.6719 L328,416.6719 A5,5 0 0 0 333,411.6719 L333,351.6719 L323,341.6719 L21,341.6719 A5,5 0 0 0 16,346.6719" fill="url(#g19d6ikbq8c0ym0)" filter="url(#f19d6ikbq8c0ym)" style="stroke:#8B95A5;stroke-width:1;"/><path d="M323,341.6719 L323,349.1719 A2.5,2.5 0 0 0 325.5,351.6719 L333,351.6719 L323,341.6719" fill="url(#g19d6ikbq8c0ym0)" style="stroke:#8B95A5;stroke-width:1;"/><text fill="#111827" font-family="'Arial'" font-size="14" lengthAdjust="spacing" textLength="57.8799" x="22" y="359.667">Erstellte</text><text fill="#111827" font-family="'Arial'" font-size="14" font-style="italic" lengthAdjust="spacing" textLength="130.5459" x="84.3301" y="359.667">Geplante Abgaben</text><text fill="#111827" font-family="'Arial'" font-size="14" lengthAdjust="spacing" textLength="94.2471" x="219.3262" y="359.667">referenzieren</text><text fill="#111827" font-family="'Arial'" font-size="14" lengthAdjust="spacing" textLength="260.668" x="22" y="375.9639">zugeh&#246;rige Medikationsplaneintr&#228;ge;</text><text fill="#111827" font-family="'Arial'" font-size="14" lengthAdjust="spacing" textLength="256.2725" x="22" y="392.2607">groupIdentifier f&#252;r "Rezeptklammer"</text><text fill="#111827" font-family="'Arial'" font-size="14" lengthAdjust="spacing" textLength="70.9775" x="22" y="408.5576">bleibt leer</text><path d="M14,431.8594 L80.373,431.8594 L80.373,440.1563 L70.373,450.1563 L9,450.1563 L9,436.8594 A5,5 0 0 1 14,431.8594" fill="#EEF2FF" style="stroke:#111827;stroke-width:1.5;"/><rect fill="none" height="524.2188" rx="5" ry="5" style="stroke:#111827;stroke-width:2;" width="825.4336" x="9" y="431.8594"/><text fill="#000000" font-family="'Arial'" font-size="14" font-weight="700" lengthAdjust="spacing" textLength="26.373" x="24" y="445.8545">par</text><text fill="#000000" font-family="'Arial'" font-size="14" font-weight="700" lengthAdjust="spacing" textLength="168.1504" x="95.373" y="446.8545">[Erstellung e-Rezept]</text><g class="message" data-entity-1="part1" data-entity-2="part3" data-source-line="92" id="msg1"><polygon fill="#111827" points="759.2617,468.5859,769.2617,472.5859,759.2617,476.5859,763.2617,472.5859" style="stroke:#111827;stroke-width:1;stroke-linejoin:miter;stroke-miterlimit:10;"/><line style="stroke:#111827;stroke-width:1;" x1="181.2817" x2="765.2617" y1="472.5859" y2="472.5859"/><text fill="#000000" font-family="'Arial'" font-size="13" font-weight="700" lengthAdjust="spacing" textLength="9.0454" x="188.2817" y="467.52">1</text><text fill="#000000" font-family="'Arial'" font-size="13" lengthAdjust="spacing" textLength="169.5713" x="201.3271" y="467.52">Trigger e-Rezept erstellen</text></g><path d="M60,490.5859 L60,522.5859 A5,5 0 0 0 65,527.5859 L284,527.5859 A5,5 0 0 0 289,522.5859 L289,495.5859 L279,485.5859 L65,485.5859 A5,5 0 0 0 60,490.5859" fill="url(#g19d6ikbq8c0ym0)" filter="url(#f19d6ikbq8c0ym)" style="stroke:#8B95A5;stroke-width:1;"/><path d="M279,485.5859 L279,493.0859 A2.5,2.5 0 0 0 281.5,495.5859 L289,495.5859 L279,485.5859" fill="url(#g19d6ikbq8c0ym0)" style="stroke:#8B95A5;stroke-width:1;"/><text fill="#111827" font-family="'Arial'" font-size="14" lengthAdjust="spacing" textLength="208.0859" x="66" y="503.5811">Erstellung e-Rezept ausl&#246;sen,</text><text fill="#111827" font-family="'Arial'" font-size="14" lengthAdjust="spacing" textLength="193.0674" x="66" y="519.8779">ohne e-Med GroupIdentifier</text><path d="M146,543.1797 L206.9385,543.1797 L206.9385,551.4766 L196.9385,561.4766 L141,561.4766 L141,548.1797 A5,5 0 0 1 146,543.1797" fill="#EEF2FF" style="stroke:#111827;stroke-width:1.5;"/><rect fill="none" height="96.1563" rx="5" ry="5" style="stroke:#111827;stroke-width:2;" width="683.4336" x="141" y="543.1797"/><text fill="#000000" font-family="'Arial'" font-size="14" font-weight="700" lengthAdjust="spacing" textLength="20.9385" x="156" y="557.1748">alt</text><text fill="#000000" font-family="'Arial'" font-size="14" font-weight="700" lengthAdjust="spacing" textLength="144.8193" x="221.9385" y="558.1748">[e-Rezept erstellt]</text><g class="message" data-entity-1="part3" data-entity-2="part1" data-source-line="100" id="msg2"><polygon fill="#111827" points="192.2817,579.9063,182.2817,583.9063,192.2817,587.9063,188.2817,583.9063" style="stroke:#111827;stroke-width:1;stroke-linejoin:miter;stroke-miterlimit:10;"/><line style="stroke:#111827;stroke-width:1;" x1="186.2817" x2="770.2617" y1="583.9063" y2="583.9063"/><text fill="#000000" font-family="'Arial'" font-size="13" font-weight="700" lengthAdjust="spacing" textLength="9.0454" x="198.2817" y="578.8403">2</text><text fill="#000000" font-family="'Arial'" font-size="13" lengthAdjust="spacing" textLength="18.7573" x="211.3271" y="578.8403">OK</text></g><line style="stroke:#111827;stroke-width:1;stroke-dasharray:2,2;" x1="141" x2="824.4336" y1="592.9063" y2="592.9063"/><text fill="#000000" font-family="'Arial'" font-size="14" font-weight="700" lengthAdjust="spacing" textLength="137.833" x="146" y="605.9014">[e-Rezept Fehler]</text><g class="message" data-entity-1="part3" data-entity-2="part1" data-source-line="103" id="msg3"><polygon fill="#111827" points="192.2817,627.3359,182.2817,631.3359,192.2817,635.3359,188.2817,631.3359" style="stroke:#111827;stroke-width:1;stroke-linejoin:miter;stroke-miterlimit:10;"/><line style="stroke:#111827;stroke-width:1;" x1="186.2817" x2="775.2617" y1="631.3359" y2="631.3359"/><text fill="#000000" font-family="'Arial'" font-size="13" font-weight="700" lengthAdjust="spacing" textLength="9.0454" x="198.2817" y="626.27">3</text><text fill="#000000" font-family="'Arial'" font-size="13" lengthAdjust="spacing" textLength="40.6694" x="211.3271" y="626.27">Fehler</text></g><line style="stroke:#111827;stroke-width:1;stroke-dasharray:2,2;" x1="9" x2="834.4336" y1="647.3359" y2="647.3359"/><text fill="#000000" font-family="'Arial'" font-size="14" font-weight="700" lengthAdjust="spacing" textLength="192.6436" x="14" y="660.3311">[gleichzeitige Erstellung</text><text fill="#000000" font-family="'Arial'" font-size="14" font-style="italic" font-weight="700" lengthAdjust="spacing" textLength="136.124" x="211.5176" y="660.3311">Geplante Abgabe</text><text fill="#000000" font-family="'Arial'" font-size="14" font-weight="700" lengthAdjust="spacing" textLength="6.3984" x="347.6416" y="660.3311">]</text><g class="message" data-entity-1="part1" data-entity-2="part2" data-source-line="109" id="msg4"><polygon fill="#111827" points="492.9619,681.7656,502.9619,685.7656,492.9619,689.7656,496.9619,685.7656" style="stroke:#111827;stroke-width:1;stroke-linejoin:miter;stroke-miterlimit:10;"/><line style="stroke:#111827;stroke-width:1;" x1="181.2817" x2="498.9619" y1="685.7656" y2="685.7656"/><text fill="#000000" font-family="'Arial'" font-size="13" font-weight="700" lengthAdjust="spacing" textLength="9.0454" x="188.2817" y="680.6997">4</text><text fill="#000000" font-family="'Arial'" font-size="13" lengthAdjust="spacing" textLength="247.749" x="201.3271" y="680.6997">POST Transaction Bundle GeplAbgabe</text></g><path d="M19,703.7656 L19,735.7656 A5,5 0 0 0 24,740.7656 L325,740.7656 A5,5 0 0 0 330,735.7656 L330,708.7656 L320,698.7656 L24,698.7656 A5,5 0 0 0 19,703.7656" fill="url(#g19d6ikbq8c0ym0)" filter="url(#f19d6ikbq8c0ym)" style="stroke:#8B95A5;stroke-width:1;"/><path d="M320,698.7656 L320,706.2656 A2.5,2.5 0 0 0 322.5,708.7656 L330,708.7656 L320,698.7656" fill="url(#g19d6ikbq8c0ym0)" style="stroke:#8B95A5;stroke-width:1;"/><text fill="#111827" font-family="'Arial'" font-size="14" lengthAdjust="spacing" textLength="239.9209" x="25" y="716.7607">Transaction Bundle mit Geplanten</text><text fill="#111827" font-family="'Arial'" font-size="14" lengthAdjust="spacing" textLength="290.2266" x="25" y="733.0576">Abgaben an Fachanwendung &#252;bermitteln</text><path d="M146,756.3594 L206.9385,756.3594 L206.9385,764.6563 L196.9385,774.6563 L141,774.6563 L141,761.3594 A5,5 0 0 1 146,756.3594" fill="#EEF2FF" style="stroke:#111827;stroke-width:1.5;"/><rect fill="none" height="192.7188" rx="5" ry="5" style="stroke:#111827;stroke-width:2;" width="635.2617" x="141" y="756.3594"/><text fill="#000000" font-family="'Arial'" font-size="14" font-weight="700" lengthAdjust="spacing" textLength="20.9385" x="156" y="770.3545">alt</text><text fill="#000000" font-family="'Arial'" font-size="14" font-weight="700" lengthAdjust="spacing" textLength="220.9717" x="221.9385" y="771.3545">[Geplante Abgaben erstellt]</text><g class="message" data-entity-1="part2" data-entity-2="part2" data-source-line="119" id="msg5"><line style="stroke:#111827;stroke-width:1;" x1="514.9619" x2="556.9619" y1="812.2188" y2="812.2188"/><line style="stroke:#111827;stroke-width:1;" x1="556.9619" x2="556.9619" y1="812.2188" y2="825.2188"/><line style="stroke:#111827;stroke-width:1;" x1="515.9619" x2="556.9619" y1="825.2188" y2="825.2188"/><polygon fill="#111827" points="525.9619,821.2188,515.9619,825.2188,525.9619,829.2188,521.9619,825.2188" style="stroke:#111827;stroke-width:1;stroke-linejoin:miter;stroke-miterlimit:10;"/><text fill="#000000" font-family="'Arial'" font-size="13" font-weight="700" lengthAdjust="spacing" textLength="9.0454" x="521.9619" y="799.5864">5</text><text fill="#000000" font-family="'Arial'" font-size="13" lengthAdjust="spacing" textLength="207.7397" x="535.0073" y="792.02">e-Med GroupIdentifier erzeugen</text><text fill="#000000" font-family="'Arial'" font-size="13" lengthAdjust="spacing" textLength="219.2544" x="535.0073" y="807.1528">+ geplanten Abgaben hinzuf&#252;gen</text></g><path d="M372,843.2188 L372,859.2188 A5,5 0 0 0 377,864.2188 L639,864.2188 A5,5 0 0 0 644,859.2188 L644,848.2188 L634,838.2188 L377,838.2188 A5,5 0 0 0 372,843.2188" fill="url(#g19d6ikbq8c0ym0)" filter="url(#f19d6ikbq8c0ym)" style="stroke:#8B95A5;stroke-width:1;"/><path d="M634,838.2188 L634,845.7188 A2.5,2.5 0 0 0 636.5,848.2188 L644,848.2188 L634,838.2188" fill="url(#g19d6ikbq8c0ym0)" style="stroke:#8B95A5;stroke-width:1;"/><text fill="#111827" font-family="'Arial'" font-size="14" lengthAdjust="spacing" textLength="251.6309" x="378" y="856.2139">Geplante Abgabe 1 + 2 gespeichert</text><g class="message" data-entity-1="part2" data-entity-2="part1" data-source-line="125" id="msg6"><polygon fill="#111827" points="192.2817,889.6484,182.2817,893.6484,192.2817,897.6484,188.2817,893.6484" style="stroke:#111827;stroke-width:1;stroke-linejoin:miter;stroke-miterlimit:10;"/><line style="stroke:#111827;stroke-width:1;" x1="186.2817" x2="503.9619" y1="893.6484" y2="893.6484"/><text fill="#000000" font-family="'Arial'" font-size="13" font-weight="700" lengthAdjust="spacing" textLength="9.0454" x="198.2817" y="888.5825">6</text><text fill="#000000" font-family="'Arial'" font-size="13" lengthAdjust="spacing" textLength="286.6348" x="211.3271" y="888.5825">OK (Ressourcen inkl. e-Med GroupIdentifier)</text></g><line style="stroke:#111827;stroke-width:1;stroke-dasharray:2,2;" x1="141" x2="776.2617" y1="902.6484" y2="902.6484"/><text fill="#000000" font-family="'Arial'" font-size="14" font-weight="700" lengthAdjust="spacing" textLength="204.0186" x="146" y="915.6436">[Geplante Abgabe Fehler]</text><g class="message" data-entity-1="part2" data-entity-2="part1" data-source-line="128" id="msg7"><polygon fill="#111827" points="192.2817,937.0781,182.2817,941.0781,192.2817,945.0781,188.2817,941.0781" style="stroke:#111827;stroke-width:1;stroke-linejoin:miter;stroke-miterlimit:10;"/><line style="stroke:#111827;stroke-width:1;" x1="186.2817" x2="508.9619" y1="941.0781" y2="941.0781"/><text fill="#000000" font-family="'Arial'" font-size="13" font-weight="700" lengthAdjust="spacing" textLength="9.0454" x="198.2817" y="936.0122">7</text><text fill="#000000" font-family="'Arial'" font-size="13" lengthAdjust="spacing" textLength="40.6694" x="211.3271" y="936.0122">Fehler</text></g><g class="message" data-entity-1="part1" data-entity-2="part3" data-source-line="135" id="msg8"><polygon fill="#111827" points="759.2617,980.2109,769.2617,984.2109,759.2617,988.2109,763.2617,984.2109" style="stroke:#111827;stroke-width:1;stroke-linejoin:miter;stroke-miterlimit:10;"/><line style="stroke:#111827;stroke-width:1;" x1="181.2817" x2="765.2617" y1="984.2109" y2="984.2109"/><text fill="#000000" font-family="'Arial'" font-size="13" font-weight="700" lengthAdjust="spacing" textLength="9.0454" x="188.2817" y="979.145">8</text><text fill="#000000" font-family="'Arial'" font-size="13" lengthAdjust="spacing" textLength="308.4834" x="201.3271" y="979.145">e-Rezept mit e-Med GroupIdentifier verkn&#252;pfen</text></g><g class="message" data-entity-1="part3" data-entity-2="part3" data-source-line="137" id="msg9"><line style="stroke:#111827;stroke-width:1;" x1="781.2617" x2="823.2617" y1="1028.4766" y2="1028.4766"/><line style="stroke:#111827;stroke-width:1;" x1="823.2617" x2="823.2617" y1="1028.4766" y2="1041.4766"/><line style="stroke:#111827;stroke-width:1;" x1="782.2617" x2="823.2617" y1="1041.4766" y2="1041.4766"/><polygon fill="#111827" points="792.2617,1037.4766,782.2617,1041.4766,792.2617,1045.4766,788.2617,1041.4766" style="stroke:#111827;stroke-width:1;stroke-linejoin:miter;stroke-miterlimit:10;"/><text fill="#000000" font-family="'Arial'" font-size="13" font-weight="700" lengthAdjust="spacing" textLength="9.0454" x="788.2617" y="1015.8442">9</text><text fill="#000000" font-family="'Arial'" font-size="13" lengthAdjust="spacing" textLength="142.7144" x="801.3071" y="1008.2778">e-Med GroupIdentifier</text><text fill="#000000" font-family="'Arial'" font-size="13" lengthAdjust="spacing" textLength="60.8613" x="801.3071" y="1023.4106">erg&#228;nzen</text></g><path d="M651,1059.4766 L651,1091.4766 A5,5 0 0 0 656,1096.4766 L892,1096.4766 A5,5 0 0 0 897,1091.4766 L897,1064.4766 L887,1054.4766 L656,1054.4766 A5,5 0 0 0 651,1059.4766" fill="url(#g19d6ikbq8c0ym0)" filter="url(#f19d6ikbq8c0ym)" style="stroke:#8B95A5;stroke-width:1;"/><path d="M887,1054.4766 L887,1061.9766 A2.5,2.5 0 0 0 889.5,1064.4766 L897,1064.4766 L887,1054.4766" fill="url(#g19d6ikbq8c0ym0)" style="stroke:#8B95A5;stroke-width:1;"/><text fill="#111827" font-family="'Arial'" font-size="14" lengthAdjust="spacing" textLength="185.0283" x="657" y="1072.4717">Bestehendes e-Rezept mit</text><text fill="#111827" font-family="'Arial'" font-size="14" lengthAdjust="spacing" textLength="225.9551" x="657" y="1088.7686">e-Med GroupIdentifier verkn&#252;pft</text><g class="message" data-entity-1="part3" data-entity-2="part1" data-source-line="142" id="msg10"><polygon fill="#111827" points="192.2817,1122.2031,182.2817,1126.2031,192.2817,1130.2031,188.2817,1126.2031" style="stroke:#111827;stroke-width:1;stroke-linejoin:miter;stroke-miterlimit:10;"/><line style="stroke:#111827;stroke-width:1;" x1="186.2817" x2="775.2617" y1="1126.2031" y2="1126.2031"/><text fill="#000000" font-family="'Arial'" font-size="13" font-weight="700" lengthAdjust="spacing" textLength="18.0908" x="198.2817" y="1121.1372">10</text><text fill="#000000" font-family="'Arial'" font-size="13" lengthAdjust="spacing" textLength="18.7573" x="220.3726" y="1121.1372">OK</text></g><?plantuml-src dLVDRjj64BxpAGRomGaIfQPiMR8R6v1TEosA9eRjvX87nf8SaWjHItMvj5CLVHi_Gqw-wSKwkwJ8vO_SeXGWKBlp-yqtEol5LOBm0PS94mfXvaNCGmZNpn8yp1J6A0A4tp3WSwPuAZ8jY5mekNwA452IJ9AWk1EVcUJ6nlanV6H-R2GIxiS8dr7EnVfv6UOYWW0pmE4rhd2fCbXmHIiBMY4Vy46c-VAN08NY8KVfEDcSYoMJR05UAWEKvscIIjZPCu-zo_nvHCeYA2N2iVvO4bdCWlIHKm0XIpAqTaerAL22QniDC6HveYvJeJwo1S9WHXacWtw96xv2S0_wDvjXMp8Y9S3-SW3EsWdW7ex3lU5Eu0P7UAWbR02ctj6OZQlLsvZxSu5P1YwjNLi9JUdt5Gi2dRYsOaNZkkvqDA6rcmeQ9NDq_hO3_FdF9Sg4YxcLmiL5dy3lH1JzWYN0DlRuHux2BpAzOb9ndo-9AusKnkPf2NJAQfwcK1VWplQcE8sD3ImZhJ2JCdri0sCMczYQfJwFrKRXQv-M39iRELQMYwrEpJ4ScUmipThzg5cPi_IRbK5ZlGzNPvTQw1iCxWIP_sa6Bi00Tev2wXoD2_CL2TF6lGiiWu4HgGLsWSu1RQ1Xnpn5vrvInpFnI5Awnuk7rCyFffE9vk2onXsG5EulPyPFgJshPRUvsfmPngxlUQF9g6ttlfGe31S_Qc7BCBs_1CSkl038leTK8st0YlF_WAAz_0TOa7dJyS6B3lkWwLZV0iv1o2RZKTCyorKgyeMdJ-2Ja_Rf3yoJUOW2Jav8r5VyWT4XLY2rGL1Y2Ea3bW2-hN8xXYzVQ7YWr7faxrsi5ibESJwi0iuYOl1YgBqC9R80hlJRDRrz_KfLCwTbRTRHDK4PhvyIrGdIUJNBiuHZY9B0puRK3GaQfyCpwhW4NpiwNstI9FcUdxQce7Z_0p-5XrGI3iWL9KnwaFan_VBAzDiHNHJpa1QtsPCw8agMwszmLdc4yVgxvD7sAVkZ4pNdOZ6V1qKDvmb1XdBWU0d5fI11AbkTcaCaW38ipS9DwHq7ofeDJojo7CCjHHAHXufIrOGl3ecYs1MPwaPi8m5zJe5HJTRVCnHlII2DQLZq3tw0EWFoI_KbPlcJet3gTa9JZkc1JKYKZedW63xz2beRQHhHv9Ziq-Vmi5Q_n3WnhdgLhTq0EuaN0JgEiHqHy7wy8exeAbffTpcWAK2w3UoBrZY6gqytjuG_4rdH753mr5pE2kr2imwcRAhwbEqM0VeiwalN9Z1XX4g60ZLEyz1QFnFxIPvI4YzMfKtskZe5mcMiTiAzfIUz5L9Jq8to3KIR82khCHUhdEXF0eNXEkNIhbbjNsXTU0CZCfSjTQbGbfonicc4M1FerJMDtZINFlccIqxohZ_grpr4QyTWywrsrUGRT0XN9bKHJd_rz6t5QbtRVc0VDhVmV-rbknri5prMx-YI6QsVnCeOjOfHDmfTKgj_4baZKASUbLk3LJRhjhIvqzkZ_m00?></g></svg>