<?xml version="1.0" encoding="us-ascii" standalone="no"?><svg xmlns="http://www.w3.org/2000/svg" xmlns:xlink="http://www.w3.org/1999/xlink" contentStyleType="text/css" height="487px" preserveAspectRatio="none" style="width:565px;height:487px;background:#F5F5F5;" version="1.1" viewBox="0 0 565 487" width="565px" zoomAndPan="magnify"><defs><linearGradient id="gux092nior9vu0" x1="50%" x2="50%" y1="0%" y2="100%"><stop offset="0%" stop-color="#E0E5F0"/><stop offset="100%" stop-color="#D1D9E6"/></linearGradient></defs><g><rect fill="#F5F5F5" height="487" style="stroke:none;stroke-width:1.0;" width="565" x="0" y="0"/><text fill="#000000" font-family="Arial" font-size="14" font-weight="bold" lengthAdjust="spacing" textLength="254" x="157.5" y="28.1318">Initialisierung des Medikationsplans</text><rect fill="#156082" fill-opacity="0.50196" height="239.7871" style="stroke:#181818;stroke-width:1.0;" width="10" x="97" y="149.146"/><rect fill="#E97232" fill-opacity="0.74118" height="239.7871" style="stroke:#181818;stroke-width:1.0;" width="10" x="339" y="149.146"/><line style="stroke:#181818;stroke-width:0.5;stroke-dasharray:5.0,5.0;" x1="102" x2="102" y1="118.1973" y2="406.9331"/><line style="stroke:#181818;stroke-width:0.5;stroke-dasharray:5.0,5.0;" x1="344" x2="344" y1="118.1973" y2="406.9331"/><text fill="#000000" font-family="Arial" font-size="14" lengthAdjust="spacing" textLength="42" x="78" y="115.2305">GDA 1</text><ellipse cx="102" cy="50.5986" fill="#156082" fill-opacity="0.50196" rx="8" ry="8" style="stroke:#181818;stroke-width:0.5;"/><path d="M102,58.5986 L102,85.5986 M89,66.5986 L115,66.5986 M102,85.5986 L89,100.5986 M102,85.5986 L115,100.5986 " fill="none" style="stroke:#181818;stroke-width:0.5;"/><text fill="#000000" font-family="Arial" font-size="14" lengthAdjust="spacing" textLength="42" x="78" y="419.0649">GDA 1</text><ellipse cx="102" cy="430.5317" fill="#156082" fill-opacity="0.50196" rx="8" ry="8" style="stroke:#181818;stroke-width:0.5;"/><path d="M102,438.5317 L102,465.5317 M89,446.5317 L115,446.5317 M102,465.5317 L89,480.5317 M102,465.5317 L115,480.5317 " fill="none" style="stroke:#181818;stroke-width:0.5;"/><rect fill="#E97232" fill-opacity="0.74118" height="30.0986" rx="5" ry="5" style="stroke:#555555;stroke-width:0.5;" width="76" x="306" y="87.0986"/><text fill="#000000" font-family="Arial" font-size="14" lengthAdjust="spacing" textLength="62" x="313" y="107.2305">e-Med FA</text><rect fill="#E97232" fill-opacity="0.74118" height="30.0986" rx="5" ry="5" style="stroke:#555555;stroke-width:0.5;" width="76" x="306" y="405.9331"/><text fill="#000000" font-family="Arial" font-size="14" lengthAdjust="spacing" textLength="62" x="313" y="426.0649">e-Med FA</text><rect fill="#156082" fill-opacity="0.50196" height="239.7871" style="stroke:#181818;stroke-width:1.0;" width="10" x="97" y="149.146"/><rect fill="#E97232" fill-opacity="0.74118" height="239.7871" style="stroke:#181818;stroke-width:1.0;" width="10" x="339" y="149.146"/><polygon fill="#111827" points="327,145.146,337,149.146,327,153.146,331,149.146" style="stroke:#111827;stroke-width:1.0;"/><line style="stroke:#111827;stroke-width:1.0;" x1="107" x2="333" y1="149.146" y2="149.146"/><text fill="#000000" font-family="Arial" font-size="13" font-weight="bold" lengthAdjust="spacing" textLength="7" x="114" y="144.3911">1</text><text fill="#000000" font-family="Arial" font-size="13" lengthAdjust="spacing" textLength="99" x="125" y="144.3911">POST $plan-read</text><path d="M5,167.146 L5,199.146 A5,5 0 0 0 10,204.146 L195,204.146 A5,5 0 0 0 200,199.146 L200,172.146 L190,162.146 L10,162.146 A5,5 0 0 0 5,167.146 " fill="url(#gux092nior9vu0)" style="stroke:#8B95A5;stroke-width:1.0;"/><path d="M190,162.146 L190,169.646 A2.5,2.5 0 0 0 192.5,172.146 L200,172.146 L190,162.146 " fill="url(#gux092nior9vu0)" style="stroke:#8B95A5;stroke-width:1.0;"/><text fill="#111827" font-family="Arial" font-size="14" lengthAdjust="spacing" textLength="174" x="11" y="180.2778">Abruf des Medikationsplans</text><text fill="#111827" font-family="Arial" font-size="14" lengthAdjust="spacing" textLength="100" x="11" y="196.3765">zur Bearbeitung</text><line style="stroke:#111827;stroke-width:1.0;" x1="349" x2="391" y1="245.2407" y2="245.2407"/><line style="stroke:#111827;stroke-width:1.0;" x1="391" x2="391" y1="245.2407" y2="258.2407"/><line style="stroke:#111827;stroke-width:1.0;" x1="350" x2="391" y1="258.2407" y2="258.2407"/><polygon fill="#111827" points="360,254.2407,350,258.2407,360,262.2407,356,258.2407" style="stroke:#111827;stroke-width:1.0;"/><text fill="#000000" font-family="Arial" font-size="13" font-weight="bold" lengthAdjust="spacing" textLength="7" x="356" y="233.0115">2</text><text fill="#000000" font-family="Arial" font-size="13" lengthAdjust="spacing" textLength="91" x="367" y="225.5371">Existiert bereits</text><text fill="#000000" font-family="Arial" font-size="13" lengthAdjust="spacing" textLength="122" x="367" y="240.4858">ein Medikationsplan?</text><line style="stroke:#111827;stroke-width:1.0;" x1="349" x2="391" y1="317.0869" y2="317.0869"/><line style="stroke:#111827;stroke-width:1.0;" x1="391" x2="391" y1="317.0869" y2="330.0869"/><line style="stroke:#111827;stroke-width:1.0;" x1="350" x2="391" y1="330.0869" y2="330.0869"/><polygon fill="#111827" points="360,326.0869,350,330.0869,360,334.0869,356,330.0869" style="stroke:#111827;stroke-width:1.0;"/><text fill="#000000" font-family="Arial" font-size="13" font-weight="bold" lengthAdjust="spacing" textLength="7" x="356" y="297.3833">3</text><text fill="#000000" font-family="Arial" font-size="13" lengthAdjust="spacing" textLength="122" x="367" y="282.4346">Kein Plan vorhanden:</text><text fill="#000000" font-family="Arial" font-size="13" lengthAdjust="spacing" textLength="191" x="367" y="297.3833">Erzeugt initialen Medikationsplan</text><text fill="#000000" font-family="Arial" font-size="13" lengthAdjust="spacing" textLength="189" x="367" y="312.332">List.emptyReason = "notstarted"</text><polygon fill="#111827" points="113,384.9331,103,388.9331,113,392.9331,109,388.9331" style="stroke:#111827;stroke-width:1.0;"/><line style="stroke:#111827;stroke-width:1.0;" x1="107" x2="343" y1="388.9331" y2="388.9331"/><text fill="#000000" font-family="Arial" font-size="13" font-weight="bold" lengthAdjust="spacing" textLength="7" x="119" y="369.2295">4</text><text fill="#000000" font-family="Arial" font-size="13" lengthAdjust="spacing" textLength="123" x="130" y="354.2808">Collection Bundle mit</text><text fill="#000000" font-family="Arial" font-size="13" lengthAdjust="spacing" textLength="146" x="130" y="369.2295">initialem Medikationsplan</text><text fill="#000000" font-family="Arial" font-size="13" lengthAdjust="spacing" textLength="197" x="130" y="384.1782">(List.emptyReason = "notstarted")</text><!--SRC=[XLNRZjem47ttLqoXKji7gYHiWApKLc79RbTx0G5zgP2GmSEkHN2exUojwh_NIPR5kLHrNfAPuvapP-o9vZf6k1HSSnfpnL6cuWuOAhX1nhTKyqIeVKo50a8-g2qNUohf3kXQ9tAcdyrc-eWgsI4XH-ygaGpbMH8d4jfElcmlNM_lP98AzehO-DbZ8TGzPSaZDqmsD5PeULwtIO4IN3iemmrDOtsU27rBTmYjK9gAMis86Nz1S4-QdV-Y_VrvZpBcOci1egW9y4Em_0Lhz8V9quGobbNcEMNxqDRCpvSjgKWqmcy2CAogXmxw6wVJPYuBi9SXx4Y3LU1J_yqwl-VhhK2bm3MsgQMcOxuFtB8ebXIkwmwylh7DAdtvOpDK-2j5iIvOJgZKVCttLEYcmig0sdd8LnbKxqpDVUXgoM793H1AcJnMYygDPLroKrF6DqUHgsjC5uRvlbJZM-J2LUiNRhoyEcldCRsNYVhE7CVi-9oDhyVJvSKeNBfWLjlrUyx06pWD02y71BsUqn_L09DmVXdTphC8GM_edTG0uMGC-Mexvq4qyeCg8Bg9Hilpq00mw7jTRyMgWEKq-XbDvj1Uisw_wz6WMiRu2aevFByQOZeTJtD05FJThjSr5o2VCr0eG1Mqp1kuBLiOiZys6z1ChOnc1iME-O3pi5KkmSHCTIBItGeb8KNapjV3pbEOZ6TpU9-Dl8v4oZ86_86QorT0xSmalvJ90xuo9E5Affl6wKbUKWb3f7A5N9iHIr2m_4wJOu83-JBTWzNc63rnfSsirc2AC07LGY0NrQJVIEFcgmmwCNvuIEGzDRDAd2v495ymlTF0Yry1rg8jnBL9-XbtU_qyHQeI0L-WPKfGsZG0MSjEbijn2kR4nxZEGi3GN03pizXnlH277BjwZe__IVA948PLnMnJqOY_]--></g></svg>