<svg xmlns="http://www.w3.org/2000/svg" xmlns:xlink="http://www.w3.org/1999/xlink" version="1.1" data-diagram-type="SEQUENCE" style="width:811px;height:907px;background:#F5F5F5;" width="811px" height="907px" viewBox="0 0 811 907" zoomAndPan="magnify" preserveAspectRatio="none" contentStyleType="text/css"><?plantuml 1.2026.7beta3?><defs><linearGradient x1="50%" y1="0%" x2="50%" y2="100%" id="g1u71h9jkvlgbe0"><stop stop-color="#E0E5F0" offset="0%"/><stop stop-color="#D1D9E6" offset="100%"/></linearGradient></defs><g><rect x="0" y="0" width="811" height="907" fill="#F5F5F5" style="stroke:none;stroke-width:1;"/><g class="title" data-source-line="1"><text x="270.9531" y="27.9951" fill="#000000" font-size="14" lengthAdjust="spacing" textLength="262.2607" font-weight="700" font-family="'Arial'">Durchgeführte Abgabe schreiben</text><text x="260.6445" y="44.292" fill="#000000" font-size="14" lengthAdjust="spacing" textLength="282.8779" font-weight="700" font-family="'Arial'">Variante A: Zugriff mittels e-Rezept</text></g><g><title>Apotheke</title><rect x="171.3628" y="144.8906" width="10" height="670.8672" fill="#0F9ED5" fill-opacity="0.56471" style="stroke:#181818;stroke-width:1;"/></g><g><title>e-Med FA</title><rect x="512.3574" y="637.0078" width="10" height="155.75" fill="#E97232" fill-opacity="0.74118" style="stroke:#181818;stroke-width:1;"/></g><g><title>e-Rezept</title><rect x="600.1914" y="397.6953" width="10" height="103.1563" fill="#CD3732" fill-opacity="0.66275" style="stroke:#181818;stroke-width:1;"/></g><rect x="21" y="356.9688" width="642.3633" height="450.7891" fill="none" style="stroke:#111827;stroke-width:2;" rx="5" ry="5"/><rect x="31" y="412.6953" width="622.3633" height="177.8828" fill="#0F9ED5" fill-opacity="0.14510" style="stroke:#111827;stroke-width:2;" rx="5" ry="5"/><path d="M31,461.4219 L653.3633,461.4219 L653.3633,585.5781 A5,5 0 0 1 648.3633,590.5781 L36,590.5781 A5,5 0 0 1 31,585.5781 L31,461.4219" style="stroke:none;stroke-width:1;" fill="#E97132" fill-opacity="0.20784"/><rect x="130" y="652.0078" width="491.7656" height="148.75" fill="#0F9ED5" fill-opacity="0.14510" style="stroke:#111827;stroke-width:2;" rx="5" ry="5"/><path d="M130,753.3281 L621.7656,753.3281 L621.7656,795.7578 A5,5 0 0 1 616.7656,800.7578 L135,800.7578 A5,5 0 0 1 130,795.7578 L130,753.3281" style="stroke:none;stroke-width:1;" fill="#E97132" fill-opacity="0.20784"/><g class="participant-lifeline" data-qualified-name="GDA_Apo" data-entity-uid="part1" id="part1-lifeline" data-source-line="51"><g><title>Apotheke</title><rect x="172.3628" y="134.8906" width="8" height="689.8672" fill="#000000" fill-opacity="0.00000"/><line x1="176" y1="134.8906" x2="176" y2="824.7578" style="stroke:#181818;stroke-width:0.5;stroke-dasharray:5,5;"/></g></g><g class="participant-lifeline" data-qualified-name="eMed_FA" data-entity-uid="part2" id="part2-lifeline" data-source-line="52"><g><title>e-Med FA</title><rect x="513.3574" y="134.8906" width="8" height="689.8672" fill="#000000" fill-opacity="0.00000"/><line x1="516.6953" y1="134.8906" x2="516.6953" y2="824.7578" style="stroke:#181818;stroke-width:0.5;stroke-dasharray:5,5;"/></g></g><g class="participant-lifeline" data-qualified-name="e_Rezept" data-entity-uid="part3" id="part3-lifeline" data-source-line="53"><g><title>e-Rezept</title><rect x="601.1914" y="134.8906" width="8" height="689.8672" fill="#000000" fill-opacity="0.00000"/><line x1="605.0195" y1="134.8906" x2="605.0195" y2="824.7578" style="stroke:#181818;stroke-width:0.5;stroke-dasharray:5,5;"/></g></g><g class="participant participant-head" data-qualified-name="GDA_Apo" data-entity-uid="part1" id="part1-head" data-source-line="51"><text x="140" y="131.5889" fill="#000000" font-size="14" lengthAdjust="spacing" textLength="66.7256" font-family="'Arial'">Apotheke</text><ellipse cx="176.3628" cy="67.0938" rx="8" ry="8" fill="#0F9ED5" fill-opacity="0.56471" style="stroke:#181818;stroke-width:0.5;"/><path d="M176.3628,75.0938 L176.3628,102.0938 M163.3628,83.0938 L189.3628,83.0938 M176.3628,102.0938 L163.3628,117.0938 M176.3628,102.0938 L189.3628,117.0938" style="stroke:#181818;stroke-width:0.5;" fill="none"/></g><g class="participant participant-tail" data-qualified-name="GDA_Apo" data-entity-uid="part1" id="part1-tail" data-source-line="51"><text x="140" y="836.7529" fill="#000000" font-size="14" lengthAdjust="spacing" textLength="66.7256" font-family="'Arial'">Apotheke</text><ellipse cx="176.3628" cy="848.5547" rx="8" ry="8" fill="#0F9ED5" fill-opacity="0.56471" style="stroke:#181818;stroke-width:0.5;"/><path d="M176.3628,856.5547 L176.3628,883.5547 M163.3628,864.5547 L189.3628,864.5547 M176.3628,883.5547 L163.3628,898.5547 M176.3628,883.5547 L189.3628,898.5547" style="stroke:#181818;stroke-width:0.5;" fill="none"/></g><g class="participant participant-head" data-qualified-name="eMed_FA" data-entity-uid="part2" id="part2-head" data-source-line="52"><rect x="477.6953" y="103.5938" width="79.3242" height="30.2969" fill="#E97232" fill-opacity="0.74118" style="stroke:#555555;stroke-width:0.5;" rx="5" ry="5"/><text x="484.6953" y="123.5889" fill="#000000" font-size="14" lengthAdjust="spacing" textLength="65.3242" font-family="'Arial'">e-Med FA</text></g><g class="participant participant-tail" data-qualified-name="eMed_FA" data-entity-uid="part2" id="part2-tail" data-source-line="52"><rect x="477.6953" y="823.7578" width="79.3242" height="30.2969" fill="#E97232" fill-opacity="0.74118" style="stroke:#555555;stroke-width:0.5;" rx="5" ry="5"/><text x="484.6953" y="843.7529" fill="#000000" font-size="14" lengthAdjust="spacing" textLength="65.3242" font-family="'Arial'">e-Med FA</text></g><g class="participant participant-head" data-qualified-name="e_Rezept" data-entity-uid="part3" id="part3-head" data-source-line="53"><rect x="567.0195" y="103.5938" width="76.3438" height="30.2969" fill="#CD3732" fill-opacity="0.66275" style="stroke:#555555;stroke-width:0.5;" rx="5" ry="5"/><text x="574.0195" y="123.5889" fill="#000000" font-size="14" lengthAdjust="spacing" textLength="62.3438" font-family="'Arial'">e-Rezept</text></g><g class="participant participant-tail" data-qualified-name="e_Rezept" data-entity-uid="part3" id="part3-tail" data-source-line="53"><rect x="567.0195" y="823.7578" width="76.3438" height="30.2969" fill="#CD3732" fill-opacity="0.66275" style="stroke:#555555;stroke-width:0.5;" rx="5" ry="5"/><text x="574.0195" y="843.7529" fill="#000000" font-size="14" lengthAdjust="spacing" textLength="62.3438" font-family="'Arial'">e-Rezept</text></g><g><title>Apotheke</title><rect x="171.3628" y="144.8906" width="10" height="670.8672" fill="#0F9ED5" fill-opacity="0.56471" style="stroke:#181818;stroke-width:1;"/></g><g><title>e-Med FA</title><rect x="512.3574" y="637.0078" width="10" height="155.75" fill="#E97232" fill-opacity="0.74118" style="stroke:#181818;stroke-width:1;"/></g><g><title>e-Rezept</title><rect x="600.1914" y="397.6953" width="10" height="103.1563" fill="#CD3732" fill-opacity="0.66275" style="stroke:#181818;stroke-width:1;"/></g><rect x="0" y="166.0391" width="805.167" height="3" fill="#EEEEEE" style="stroke:#EEEEEE;stroke-width:1;" rx="5" ry="5"/><line x1="0" y1="166.0391" x2="805.167" y2="166.0391" style="stroke:#000000;stroke-width:1;"/><line x1="0" y1="169.0391" x2="805.167" y2="169.0391" style="stroke:#000000;stroke-width:1;"/><rect x="241.0093" y="154.8906" width="323.1484" height="24.2969" fill="#EEEEEE" style="stroke:#000000;stroke-width:2;" rx="5" ry="5"/><text x="247.0093" y="171.8857" fill="#000000" font-size="14" lengthAdjust="spacing" textLength="304.2744" font-weight="700" font-family="'Arial'">e-Rezept + Geplante Abgaben abrufen</text><rect x="137" y="189.1875" width="423.0195" height="42.5938" fill="none" style="stroke:#000000;stroke-width:1.5;" rx="5" ry="5"/><path d="M142,189.1875 L204,189.1875 L204,197.1875 L194,207.1875 L137,207.1875 L137,194.1875 A5,5 0 0 1 142,189.1875" style="stroke:#000000;stroke-width:2;" fill="#EEEEEE"/><text x="150" y="204.1826" fill="#000000" font-size="14" lengthAdjust="spacing" textLength="22.4902" font-weight="700" font-family="'Arial'">ref</text><a target="_top" href="Sub_UC_eMed_07_01.html#sub_uc_emed_07_01_b-zugriff-mittels-e-rezept" xlink:href="Sub_UC_eMed_07_01.html#sub_uc_emed_07_01_b-zugriff-mittels-e-rezept" xlink:type="simple" xlink:actuate="onRequest" xlink:show="new" title="Sub_UC_eMed_07_01.html#sub_uc_emed_07_01_b-zugriff-mittels-e-rezept" xlink:title="Sub_UC_eMed_07_01.html#sub_uc_emed_07_01_b-zugriff-mittels-e-rezept"><text x="172.1938" y="224.1826" fill="#0000EE" font-size="14" lengthAdjust="spacing" textLength="352.6318" font-family="'Arial'">Geplante Abgaben lesen - Zugriff mittels e-Rezept</text></a><rect x="0" y="257.9297" width="805.167" height="3" fill="#EEEEEE" style="stroke:#EEEEEE;stroke-width:1;" rx="5" ry="5"/><line x1="0" y1="257.9297" x2="805.167" y2="257.9297" style="stroke:#000000;stroke-width:1;"/><line x1="0" y1="260.9297" x2="805.167" y2="260.9297" style="stroke:#000000;stroke-width:1;"/><rect x="79.5" y="246.7813" width="646.167" height="24.2969" fill="#EEEEEE" style="stroke:#000000;stroke-width:2;" rx="5" ry="5"/><text x="85.5" y="263.7764" fill="#000000" font-size="14" lengthAdjust="spacing" textLength="622.4189" font-weight="700" font-family="'Arial'">e-Rezept aktualisieren und Durchgeführte Abgaben vorbereiten und schreiben</text><path d="M5,291.0781 L5,339.0781 A5,5 0 0 0 10,344.0781 L342,344.0781 A5,5 0 0 0 347,339.0781 L347,296.0781 L337,286.0781 L10,286.0781 A5,5 0 0 0 5,291.0781" style="stroke:#8B95A5;stroke-width:1;" fill="url(#g1u71h9jkvlgbe0)"/><path d="M337,286.0781 L337,293.5781 A2.5,2.5 0 0 0 339.5,296.0781 L347,296.0781 L337,286.0781" style="stroke:#8B95A5;stroke-width:1;" fill="url(#g1u71h9jkvlgbe0)"/><text x="11" y="304.0732" fill="#111827" font-size="14" lengthAdjust="spacing" textLength="168.7656" font-style="italic" font-family="'Arial'">Durchgeführte Abgaben</text><text x="184.2158" y="304.0732" fill="#111827" font-size="14" lengthAdjust="spacing" textLength="61.0313" font-family="'Arial'">erstellen</text><text x="11" y="320.3701" fill="#111827" font-size="14" lengthAdjust="spacing" textLength="182.4648" font-family="'Arial'">(referenzieren zugehörige</text><text x="197.915" y="320.3701" fill="#111827" font-size="14" lengthAdjust="spacing" textLength="130.5459" font-style="italic" font-family="'Arial'">Geplante Abgaben</text><text x="328.4609" y="320.3701" fill="#111827" font-size="14" lengthAdjust="spacing" textLength="4.4502" font-family="'Arial'"> </text><text x="11" y="336.667" fill="#111827" font-size="14" lengthAdjust="spacing" textLength="26.6328" font-family="'Arial'">und</text><text x="42.083" y="336.667" fill="#111827" font-size="14" lengthAdjust="spacing" textLength="173.1953" font-style="italic" font-family="'Arial'">Medikationsplaneinträge</text><text x="215.2783" y="336.667" fill="#111827" font-size="14" lengthAdjust="spacing" textLength="5.4619" font-family="'Arial'">)</text><path d="M26,356.9688 L92.373,356.9688 L92.373,365.2656 L82.373,375.2656 L21,375.2656 L21,361.9688 A5,5 0 0 1 26,356.9688" style="stroke:#111827;stroke-width:1.5;" fill="#EEF2FF"/><rect x="21" y="356.9688" width="642.3633" height="450.7891" fill="none" style="stroke:#111827;stroke-width:2;" rx="5" ry="5"/><text x="36" y="370.9639" fill="#000000" font-size="14" lengthAdjust="spacing" textLength="26.373" font-weight="700" font-family="'Arial'">par</text><text x="107.373" y="371.9639" fill="#000000" font-size="14" lengthAdjust="spacing" textLength="202.9453" font-weight="700" font-family="'Arial'">[Aktualisierung e-Rezept]</text><g class="message" data-entity-1="part1" data-entity-2="part3" id="msg1" data-source-line="75"><polygon points="588.1914,393.6953,598.1914,397.6953,588.1914,401.6953,592.1914,397.6953" fill="#111827" style="stroke:#111827;stroke-width:1;stroke-linejoin:miter;stroke-miterlimit:10;"/><line x1="181.3628" y1="397.6953" x2="594.1914" y2="397.6953" style="stroke:#111827;stroke-width:1;"/><text x="188.3628" y="392.6294" fill="#000000" font-size="13" lengthAdjust="spacing" textLength="9.0454" font-weight="700" font-family="'Arial'">1</text><text x="201.4082" y="392.6294" fill="#000000" font-size="13" lengthAdjust="spacing" textLength="196.8853" font-family="'Arial'">Trigger e-Rezept aktualisieren</text></g><path d="M36,412.6953 L96.9385,412.6953 L96.9385,420.9922 L86.9385,430.9922 L31,430.9922 L31,417.6953 A5,5 0 0 1 36,412.6953" style="stroke:#111827;stroke-width:1.5;" fill="#EEF2FF"/><rect x="31" y="412.6953" width="622.3633" height="177.8828" fill="none" style="stroke:#111827;stroke-width:2;" rx="5" ry="5"/><text x="46" y="426.6904" fill="#000000" font-size="14" lengthAdjust="spacing" textLength="20.9385" font-weight="700" font-family="'Arial'">alt</text><text x="111.9385" y="427.6904" fill="#000000" font-size="14" lengthAdjust="spacing" textLength="178.2949" font-weight="700" font-family="'Arial'">[e-Rezept aktualisiert]</text><g class="message" data-entity-1="part3" data-entity-2="part1" id="msg2" data-source-line="79"><polygon points="192.3628,449.4219,182.3628,453.4219,192.3628,457.4219,188.3628,453.4219" fill="#111827" style="stroke:#111827;stroke-width:1;stroke-linejoin:miter;stroke-miterlimit:10;"/><line x1="186.3628" y1="453.4219" x2="599.1914" y2="453.4219" style="stroke:#111827;stroke-width:1;stroke-dasharray:2,2;"/><text x="198.3628" y="448.356" fill="#000000" font-size="13" lengthAdjust="spacing" textLength="9.0454" font-weight="700" font-family="'Arial'">2</text><text x="211.4082" y="448.356" fill="#000000" font-size="13" lengthAdjust="spacing" textLength="18.7573" font-family="'Arial'">OK</text></g><line x1="31" y1="462.4219" x2="653.3633" y2="462.4219" style="stroke:#111827;stroke-width:1;stroke-dasharray:2,2;"/><text x="36" y="475.417" fill="#000000" font-size="14" lengthAdjust="spacing" textLength="137.833" font-weight="700" font-family="'Arial'">[e-Rezept Fehler]</text><g class="message" data-entity-1="part3" data-entity-2="part1" id="msg3" data-source-line="82"><polygon points="192.3628,496.8516,182.3628,500.8516,192.3628,504.8516,188.3628,500.8516" fill="#111827" style="stroke:#111827;stroke-width:1;stroke-linejoin:miter;stroke-miterlimit:10;"/><line x1="186.3628" y1="500.8516" x2="604.1914" y2="500.8516" style="stroke:#111827;stroke-width:1;stroke-dasharray:2,2;"/><text x="198.3628" y="495.7856" fill="#000000" font-size="13" lengthAdjust="spacing" textLength="9.0454" font-weight="700" font-family="'Arial'">3</text><text x="211.4082" y="495.7856" fill="#000000" font-size="13" lengthAdjust="spacing" textLength="40.6694" font-family="'Arial'">Fehler</text></g><g class="message" data-entity-1="part1" data-entity-2="part2" id="msg4" data-source-line="85"><polygon points="505.3574,525.9844,515.3574,529.9844,505.3574,533.9844,509.3574,529.9844" fill="#111827" style="stroke:#111827;stroke-width:1;stroke-linejoin:miter;stroke-miterlimit:10;"/><line x1="181.3628" y1="529.9844" x2="511.3574" y2="529.9844" style="stroke:#111827;stroke-width:1;"/><text x="188.3628" y="524.9185" fill="#000000" font-size="13" lengthAdjust="spacing" textLength="9.0454" font-weight="700" font-family="'Arial'">4</text><text x="201.4082" y="524.9185" fill="#000000" font-size="13" lengthAdjust="spacing" textLength="156.603" font-family="'Arial'">POST $dispense-discard​</text></g><path d="M41,547.9844 L41,579.9844 A5,5 0 0 0 46,584.9844 L305,584.9844 A5,5 0 0 0 310,579.9844 L310,552.9844 L300,542.9844 L46,542.9844 A5,5 0 0 0 41,547.9844" style="stroke:#8B95A5;stroke-width:1;" fill="url(#g1u71h9jkvlgbe0)"/><path d="M300,542.9844 L300,550.4844 A2.5,2.5 0 0 0 302.5,552.9844 L310,552.9844 L300,542.9844" style="stroke:#8B95A5;stroke-width:1;" fill="url(#g1u71h9jkvlgbe0)"/><text x="47" y="560.9795" fill="#111827" font-size="14" lengthAdjust="spacing" textLength="108.1924" font-family="'Arial'">Siehe Use Case</text><text x="47" y="577.2764" fill="#111827" font-size="14" lengthAdjust="spacing" textLength="6.4395" font-family="'Arial'">"</text><text x="53.4395" y="577.2764" fill="#111827" font-size="14" lengthAdjust="spacing" textLength="159.8926" font-style="italic" font-family="'Arial'">Durchgeführte Abgabe</text><text x="217.7822" y="577.2764" fill="#111827" font-size="14" lengthAdjust="spacing" textLength="77.3281" font-family="'Arial'">verwerfen"</text><line x1="21" y1="598.5781" x2="663.3633" y2="598.5781" style="stroke:#111827;stroke-width:1;stroke-dasharray:2,2;"/><text x="26" y="611.5732" fill="#000000" font-size="14" lengthAdjust="spacing" textLength="192.6436" font-weight="700" font-family="'Arial'">[gleichzeitige Erstellung</text><text x="223.5176" y="611.5732" fill="#000000" font-size="14" lengthAdjust="spacing" textLength="190.0732" font-weight="700" font-style="italic" font-family="'Arial'">Durchgeführte Abgaben</text><text x="413.5908" y="611.5732" fill="#000000" font-size="14" lengthAdjust="spacing" textLength="6.3984" font-weight="700" font-family="'Arial'">]</text><g class="message" data-entity-1="part1" data-entity-2="part2" id="msg5" data-source-line="97"><polygon points="500.3574,633.0078,510.3574,637.0078,500.3574,641.0078,504.3574,637.0078" fill="#111827" style="stroke:#111827;stroke-width:1;stroke-linejoin:miter;stroke-miterlimit:10;"/><line x1="181.3628" y1="637.0078" x2="506.3574" y2="637.0078" style="stroke:#111827;stroke-width:1;"/><text x="188.3628" y="631.9419" fill="#000000" font-size="13" lengthAdjust="spacing" textLength="9.0454" font-weight="700" font-family="'Arial'">5</text><text x="201.4082" y="631.9419" fill="#000000" font-size="13" lengthAdjust="spacing" textLength="298.9492" font-family="'Arial'">POST Transaction Bundle MedicationDispense</text></g><path d="M135,652.0078 L195.9385,652.0078 L195.9385,660.3047 L185.9385,670.3047 L130,670.3047 L130,657.0078 A5,5 0 0 1 135,652.0078" style="stroke:#111827;stroke-width:1.5;" fill="#EEF2FF"/><rect x="130" y="652.0078" width="491.7656" height="148.75" fill="none" style="stroke:#111827;stroke-width:2;" rx="5" ry="5"/><text x="145" y="666.0029" fill="#000000" font-size="14" lengthAdjust="spacing" textLength="20.9385" font-weight="700" font-family="'Arial'">alt</text><text x="210.9385" y="667.0029" fill="#000000" font-size="14" lengthAdjust="spacing" textLength="264.9541" font-weight="700" font-family="'Arial'">[Durchgeführte Abgaben erstellt]</text><path d="M422,681.6016 L422,713.6016 A5,5 0 0 0 427,718.6016 L606,718.6016 A5,5 0 0 0 611,713.6016 L611,686.6016 L601,676.6016 L427,676.6016 A5,5 0 0 0 422,681.6016" style="stroke:#8B95A5;stroke-width:1;" fill="url(#g1u71h9jkvlgbe0)"/><path d="M601,676.6016 L601,684.1016 A2.5,2.5 0 0 0 603.5,686.6016 L611,686.6016 L601,676.6016" style="stroke:#8B95A5;stroke-width:1;" fill="url(#g1u71h9jkvlgbe0)"/><text x="428" y="694.5967" fill="#111827" font-size="14" lengthAdjust="spacing" textLength="168.7656" font-style="italic" font-family="'Arial'">Durchgeführte Abgaben</text><text x="428" y="710.8936" fill="#111827" font-size="14" lengthAdjust="spacing" textLength="82.6123" font-family="'Arial'">gespeichert</text><g class="message" data-entity-1="part2" data-entity-2="part1" id="msg6" data-source-line="107"><polygon points="192.3628,741.3281,182.3628,745.3281,192.3628,749.3281,188.3628,745.3281" fill="#111827" style="stroke:#111827;stroke-width:1;stroke-linejoin:miter;stroke-miterlimit:10;"/><line x1="186.3628" y1="745.3281" x2="511.3574" y2="745.3281" style="stroke:#111827;stroke-width:1;stroke-dasharray:2,2;"/><text x="198.3628" y="740.2622" fill="#000000" font-size="13" lengthAdjust="spacing" textLength="9.0454" font-weight="700" font-family="'Arial'">6</text><text x="211.4082" y="740.2622" fill="#000000" font-size="13" lengthAdjust="spacing" textLength="18.7573" font-family="'Arial'">OK</text></g><line x1="130" y1="754.3281" x2="621.7656" y2="754.3281" style="stroke:#111827;stroke-width:1;stroke-dasharray:2,2;"/><text x="135" y="767.3232" fill="#000000" font-size="14" lengthAdjust="spacing" textLength="372.5723" font-weight="700" font-family="'Arial'">[Fehler bei Erstellung Durchgeführte Abgaben]</text><g class="message" data-entity-1="part2" data-entity-2="part1" id="msg7" data-source-line="110"><polygon points="192.3628,788.7578,182.3628,792.7578,192.3628,796.7578,188.3628,792.7578" fill="#111827" style="stroke:#111827;stroke-width:1;stroke-linejoin:miter;stroke-miterlimit:10;"/><line x1="186.3628" y1="792.7578" x2="516.3574" y2="792.7578" style="stroke:#111827;stroke-width:1;stroke-dasharray:2,2;"/><text x="198.3628" y="787.6919" fill="#000000" font-size="13" lengthAdjust="spacing" textLength="9.0454" font-weight="700" font-family="'Arial'">7</text><text x="211.4082" y="787.6919" fill="#000000" font-size="13" lengthAdjust="spacing" textLength="40.6694" font-family="'Arial'">Fehler</text></g><?plantuml-src VLRHRk9657ttLzn2fRPgtTfc2I7QH2A1fAljBWX87tQxGcFx6eymOtPi9xkfAlMzlz5lw5FVyYVzajuP6sCRiqOuzfqpTywvzyoGbASHmZYJNhZ6uFdVKAO88tVDN8J42oLo5yLlubScEHDgw0BUPMl9Wm2sF4qnIW3DEJxXBWN3-2RPSB5Zacs1UMai5-bdoiuUCOctQ1Y7KJUMFigRE8ebT2rzLKUPjrdBE1D-WGZwwbD1927puqSkrX2mAC7AI35D2fHWLvFw6B0iIczZaRvbMuJEY2H5dNR4WZyXs2_Q1q_H_ldp3cN4nQO2c4pQ0FV2rmzuHFyw_ZHZlg-KELOzVbsjMLzVrPAAcDhpkm5mtQmUMjWFBBFhs_uGpnIYckdS7VPPlumkG-vj12O9s1IRLwffqVkUcyfIAOLjs-VEW6ABHb_-g39Cy6E6mijPpfXCkSTtvAesOJN0ST6FXlSDgmrKAWamaZ9-RFBLmRfa7MfRiHp8r-fHw8xAlAlHBpFdGqUjmC09WlhCm_AEgjTNv3JbZ9lfBzFvwcuyMjb0LzVkdrddphdL0d0qO7XsPWt6Hu3PQFbgydQfCWpFhfqNHu3HR0hwwbgtmycuFsm29cycuzNjY00u73Wzn_MRWDLyycuoMqBNytk3diE6JHdJrr1Rm-atKypdqxa6J8O3k-VqoDlw204bSBIBWIMqPNTn6k86EmVgnkxGRy0tw2kc2eiclS3jg5DNKSUlYgChdv2_T1ggY4YMnYBRkYWrAVx0QAljUHsAQ1YNbuVJy7kumrsK7vhwF1N0N9a5zFVoqY0BI0mWVi1IuGyb_Gju_twHkQlxcvKEMOELPVyOfjkecr0uyrQutOTNhlcK7yXcSI2RQCgSmX6121EwcoUFy0yVZBe8jaap5l64ewI9vEFsdme13x6ayY1F2rZvsm5QhJwSgcADb_ogFTNBd_WLe4o8M4JJZM-fJchrfvm3YSNm-H_9rmYKeobHppOK0ngasl4DItai4eL2BbBv_FSQ5UWx0mcaU95ayWIC3b8pEZFs9L2TshVQl2eTSm5Beh0cGUsrebcbKqgNDNm5e51HUjWZRRbIGssBCeT990e-5p1zhUXH1-lRg4npYs54fZsT80U0HlXunDZ8HwhwSujUm6owMCBNFazsA18qwS5Zql_lpx_q37qxRhgABZY62FUACgERZdLEkK6tap8yegIDqycLxFkc7mqZNr0NOHqXzy8dig6onoGtaUhc5ztMR75Dub8oaQZ2n0AkoLVq_uoobQTjDIxarxfTREBwgTFiz8bjLFW-DHe5B9Bgw9UrACGQYHOLeZHFwNJzLX1iE0bQhLGOn4LUBMVx-gUpdx9PeQhe97t_1m00?></g></svg>