<?xml version="1.0" encoding="us-ascii" standalone="no"?><svg xmlns="http://www.w3.org/2000/svg" xmlns:xlink="http://www.w3.org/1999/xlink" contentStyleType="text/css" height="633px" preserveAspectRatio="none" style="width:594px;height:633px;background:#F5F5F5;" version="1.1" viewBox="0 0 594 633" width="594px" zoomAndPan="magnify"><defs><linearGradient id="gn2jsn79cgryx0" x1="50%" x2="50%" y1="0%" y2="100%"><stop offset="0%" stop-color="#E0E5F0"/><stop offset="100%" stop-color="#D1D9E6"/></linearGradient></defs><g><rect fill="#F5F5F5" height="633" style="stroke:none;stroke-width:1.0;" width="594" x="0" y="0"/><text fill="#000000" font-family="Arial" font-size="14" font-weight="bold" lengthAdjust="spacing" textLength="120" x="233" y="28.1318">Planentry-Search</text><rect fill="#156082" fill-opacity="0.50196" height="234.937" style="stroke:#181818;stroke-width:1.0;" width="10" x="39" y="208.1934"/><rect fill="#E97232" fill-opacity="0.74118" height="234.937" style="stroke:#181818;stroke-width:1.0;" width="10" x="374" y="208.1934"/><rect fill="#0F9ED5" fill-opacity="0.14510" height="156.0908" rx="5" ry="5" style="stroke:#111827;stroke-width:2.0;" width="437" x="10" y="295.0396"/><path d="M10,357.0356 L447,357.0356 L447,399.083 A5,5 0 0 1 442,404.083 L15,404.083 A5,5 0 0 1 10,399.083 L10,357.0356 " fill="#34738D" fill-opacity="0.30588" style="stroke:none;stroke-width:1.0;"/><path d="M10,404.083 L447,404.083 L447,446.1304 A5,5 0 0 1 442,451.1304 L15,451.1304 A5,5 0 0 1 10,446.1304 L10,404.083 " fill="#E97132" fill-opacity="0.20784" style="stroke:none;stroke-width:1.0;"/><line style="stroke:#181818;stroke-width:0.5;stroke-dasharray:5.0,5.0;" x1="44" x2="44" y1="118.1973" y2="552.5249"/><line style="stroke:#181818;stroke-width:0.5;stroke-dasharray:5.0,5.0;" x1="379" x2="379" y1="118.1973" y2="552.5249"/><text fill="#000000" font-family="Arial" font-size="14" lengthAdjust="spacing" textLength="42" x="20" y="115.2305">GDA 1</text><ellipse cx="44" cy="50.5986" fill="#156082" fill-opacity="0.50196" rx="8" ry="8" style="stroke:#181818;stroke-width:0.5;"/><path d="M44,58.5986 L44,85.5986 M31,66.5986 L57,66.5986 M44,85.5986 L31,100.5986 M44,85.5986 L57,100.5986 " fill="none" style="stroke:#181818;stroke-width:0.5;"/><text fill="#000000" font-family="Arial" font-size="14" lengthAdjust="spacing" textLength="42" x="20" y="564.6567">GDA 1</text><ellipse cx="44" cy="576.1235" fill="#156082" fill-opacity="0.50196" rx="8" ry="8" style="stroke:#181818;stroke-width:0.5;"/><path d="M44,584.1235 L44,611.1235 M31,592.1235 L57,592.1235 M44,611.1235 L31,626.1235 M44,611.1235 L57,626.1235 " fill="none" style="stroke:#181818;stroke-width:0.5;"/><rect fill="#E97232" fill-opacity="0.74118" height="30.0986" rx="5" ry="5" style="stroke:#555555;stroke-width:0.5;" width="76" x="341" y="87.0986"/><text fill="#000000" font-family="Arial" font-size="14" lengthAdjust="spacing" textLength="62" x="348" y="107.2305">e-Med FA</text><rect fill="#E97232" fill-opacity="0.74118" height="30.0986" rx="5" ry="5" style="stroke:#555555;stroke-width:0.5;" width="76" x="341" y="551.5249"/><text fill="#000000" font-family="Arial" font-size="14" lengthAdjust="spacing" textLength="62" x="348" y="571.6567">e-Med FA</text><rect fill="#156082" fill-opacity="0.50196" height="234.937" style="stroke:#181818;stroke-width:1.0;" width="10" x="39" y="208.1934"/><rect fill="#E97232" fill-opacity="0.74118" height="234.937" style="stroke:#181818;stroke-width:1.0;" width="10" x="374" y="208.1934"/><rect fill="#EEEEEE" height="3" rx="5" ry="5" style="stroke:#EEEEEE;stroke-width:1.0;" width="587" x="0" y="149.2466"/><line style="stroke:#000000;stroke-width:1.0;" x1="0" x2="587" y1="149.2466" y2="149.2466"/><line style="stroke:#000000;stroke-width:1.0;" x1="0" x2="587" y1="152.2466" y2="152.2466"/><rect fill="#EEEEEE" height="24.0986" rx="5" ry="5" style="stroke:#000000;stroke-width:2.0;" width="236" x="175.5" y="138.1973"/><text fill="#000000" font-family="Arial" font-size="14" font-weight="bold" lengthAdjust="spacing" textLength="218" x="181.5" y="155.3291">Medikationsplaneintr&#228;ge lesen</text><polygon fill="#111827" points="362,204.1934,372,208.1934,362,212.1934,366,208.1934" style="stroke:#111827;stroke-width:1.0;"/><line style="stroke:#111827;stroke-width:1.0;" x1="49" x2="368" y1="208.1934" y2="208.1934"/><text fill="#000000" font-family="Arial" font-size="13" font-weight="bold" lengthAdjust="spacing" textLength="7" x="56" y="195.9641">1</text><text fill="#000000" font-family="Arial" font-size="13" lengthAdjust="spacing" textLength="212" x="67" y="188.4897">GET /Patient/{id}/MedicationRequest</text><text fill="#000000" font-family="Arial" font-size="13" lengthAdjust="spacing" textLength="246" x="67" y="203.4385">(category="Planeintrag" &amp; Suchparameter)</text><line style="stroke:#111827;stroke-width:1.0;" x1="384" x2="426" y1="267.0396" y2="267.0396"/><line style="stroke:#111827;stroke-width:1.0;" x1="426" x2="426" y1="267.0396" y2="280.0396"/><line style="stroke:#111827;stroke-width:1.0;" x1="385" x2="426" y1="280.0396" y2="280.0396"/><polygon fill="#111827" points="395,276.0396,385,280.0396,395,284.0396,391,280.0396" style="stroke:#111827;stroke-width:1.0;"/><text fill="#000000" font-family="Arial" font-size="13" font-weight="bold" lengthAdjust="spacing" textLength="7" x="391" y="247.3359">2</text><text fill="#000000" font-family="Arial" font-size="13" lengthAdjust="spacing" textLength="148" x="402" y="232.3872">Ermittlung der passenden</text><text fill="#000000" font-family="Arial" font-size="13" lengthAdjust="spacing" textLength="173" x="402" y="247.3359">MedicationRequest-Versionen</text><text fill="#000000" font-family="Arial" font-size="13" lengthAdjust="spacing" textLength="156" x="402" y="262.2847">anhand der Suchparameter</text><path d="M15,295.0396 L395,295.0396 L395,303.1382 L385,313.1382 L10,313.1382 L10,300.0396 A5,5 0 0 1 15,295.0396 " fill="#EEF2FF" style="stroke:#111827;stroke-width:1.5;"/><rect fill="none" height="156.0908" rx="5" ry="5" style="stroke:#111827;stroke-width:2.0;" width="437" x="10" y="295.0396"/><text fill="#000000" font-family="Arial" font-size="14" font-weight="bold" lengthAdjust="spacing" textLength="340" x="25" y="309.1714">alt: Medikationsplaneintrag/-eintr&#228;ge gefunden?</text><polygon fill="#111827" points="60,345.0356,50,349.0356,60,353.0356,56,349.0356" style="stroke:#111827;stroke-width:1.0;"/><line style="stroke:#111827;stroke-width:1.0;" x1="54" x2="373" y1="349.0356" y2="349.0356"/><text fill="#000000" font-family="Arial" font-size="13" font-weight="bold" lengthAdjust="spacing" textLength="7" x="66" y="336.8064">3</text><text fill="#000000" font-family="Arial" font-size="13" lengthAdjust="spacing" textLength="290" x="77" y="329.332">Bundle (type=searchset) mit einem oder mehreren</text><text fill="#000000" font-family="Arial" font-size="13" lengthAdjust="spacing" textLength="170" x="77" y="344.2808">MedicationRequest-Eintr&#228;gen</text><line style="stroke:#111827;stroke-width:1.0;stroke-dasharray:2.0,2.0;" x1="10" x2="447" y1="358.0356" y2="358.0356"/><text fill="#000000" font-family="Arial" font-size="14" font-weight="bold" lengthAdjust="spacing" textLength="41" x="15" y="371.1675">[nein]</text><polygon fill="#111827" points="60,392.083,50,396.083,60,400.083,56,396.083" style="stroke:#111827;stroke-width:1.0;"/><line style="stroke:#111827;stroke-width:1.0;" x1="54" x2="373" y1="396.083" y2="396.083"/><text fill="#000000" font-family="Arial" font-size="13" font-weight="bold" lengthAdjust="spacing" textLength="7" x="66" y="391.3281">4</text><text fill="#000000" font-family="Arial" font-size="13" lengthAdjust="spacing" textLength="226" x="77" y="391.3281">Bundle (type=searchset) ohne Eintr&#228;ge</text><line style="stroke:#111827;stroke-width:1.0;stroke-dasharray:2.0,2.0;" x1="10" x2="447" y1="405.083" y2="405.083"/><text fill="#000000" font-family="Arial" font-size="14" font-weight="bold" lengthAdjust="spacing" textLength="56" x="15" y="418.2148">[Fehler]</text><polygon fill="#111827" points="55,439.1304,45,443.1304,55,447.1304,51,443.1304" style="stroke:#111827;stroke-width:1.0;"/><line style="stroke:#111827;stroke-width:1.0;" x1="49" x2="378" y1="443.1304" y2="443.1304"/><text fill="#000000" font-family="Arial" font-size="13" font-weight="bold" lengthAdjust="spacing" textLength="7" x="61" y="438.3755">5</text><text fill="#000000" font-family="Arial" font-size="13" lengthAdjust="spacing" textLength="109" x="72" y="438.3755">OperationOutcome</text><path d="M256,468.1304 L256,532.1304 A5,5 0 0 0 261,537.1304 L496,537.1304 A5,5 0 0 0 501,532.1304 L501,473.1304 L491,463.1304 L261,463.1304 A5,5 0 0 0 256,468.1304 " fill="url(#gn2jsn79cgryx0)" style="stroke:#8B95A5;stroke-width:1.0;"/><path d="M491,463.1304 L491,470.6304 A2.5,2.5 0 0 0 493.5,473.1304 L501,473.1304 L491,463.1304 " fill="url(#gn2jsn79cgryx0)" style="stroke:#8B95A5;stroke-width:1.0;"/><text fill="#111827" font-family="Arial" font-size="14" lengthAdjust="spacing" textLength="220" x="262" y="481.2622">Die Fachanwendung liefert die den</text><text fill="#111827" font-family="Arial" font-size="14" lengthAdjust="spacing" textLength="212" x="262" y="497.3608">Suchparametern entsprechenden</text><text fill="#111827" font-family="Arial" font-size="14" lengthAdjust="spacing" textLength="176" x="262" y="513.4595">Medikationsplaneintr&#228;ge als</text><text fill="#111827" font-family="Arial" font-size="14" lengthAdjust="spacing" textLength="217" x="262" y="529.5581">Bundle vom Typ searchset zur&#252;ck.</text><!--SRC=[bLNDRjiu4BxpAQOEKBG7DvOS9tO0Rs4tShhORMquRay50aOSMu9bKgMePDEYRxEFiRU-M8Vq7sMfXwKlvip7cU-R6OnCQZA4MSObIgEVstV8TPmmLgnJcNFDD_2Wj43zJcLAmrd77T_Bu_LAgrAA7MBPipyFKIHSgATKhc39im8zp-wPbgWXy8CANF8oCnCbpKU-GMYDTCgpLZFYBls645mqEtz7-_rpZZfBvTe3H54Ju9CKxW_Mw8_LFpCkX5KMTghsiL-pdZj-IQKo2DyPmFYqUjZ1thBJFXE16E2bHVYH-W-37kyTh8iaZTSIYm82iiszQdRelkTcetYb28AW7rwHxUwaBpzyXWL-BL76MvOphaqQfpcNfabO5L2R1tUge7fdQkvzLoiEhzm08wtLqwaePwpMnPcQCXuSsrnTCjqIyxoYyH1vwwhr2vUXK-UzFAOFRL5Vq3ZQyNat_Niwlx-z6Tq7GESiw5rs-c6_SmAOZHP_HXyN5Z2u78SNDK3q8Rgvdum8W8Ehi1i-YDCSqxzWUyuwaq5qqmjxDS1zk0LqBwwwVN61fpdcy-dS0QB1LT0DkpI-F3QaUCkV5z2YVn2qV5aiFxOAy0CAIzD2iKqNc8nQLGaKipHAbfi7r8mDXq2eTCrDgcIHsusKqahw-UyA8SC29Go7Z6tpj__Onx-6ssW1vpDwHGli_7igVfpRCB4BCxTZN9WlyXNTSQNqyx0rsqVcgnQyXBioJjpCeq7zsgfC7mcx4-ghE_hssgfgzbQVNAGtgJ5PIKDBam4vBqY8GFb5raYsFwCkw6gTN2PS2lUameynEttviSyyCzUDPUEhy_QnVYjSbZRjMvfKZwRJTGrZyj57u9MXdJSit0UWGFCQY3fG3Do0iamsc6ZKpToZVIh9a9Q9FsUMp_zAgnAQmqD0FzvsB2UOP5IAff1JMjgErxGqiTeWWGHMMrerxK8mQWfZRYshHvAwDz-a21CUKpEU266xcAMuH6r0a8SA2gpI7maqX4MkCKvScu7zTgHfvmBRbU1HRM3ndCEX2F2jr3__YzTlB37tkM2i9gH1nYy0]--></g></svg>