<svg xmlns="http://www.w3.org/2000/svg" xmlns:xlink="http://www.w3.org/1999/xlink" contentStyleType="text/css" data-diagram-type="SEQUENCE" height="1284px" preserveAspectRatio="none" style="width:1170px;height:1284px;background:#F5F5F5;" version="1.1" viewBox="0 0 1170 1284" width="1170px" zoomAndPan="magnify"><?plantuml 1.2026.7beta1?><defs><linearGradient id="gl4t1wlm8gni90" x1="50%" x2="50%" y1="0%" y2="100%"><stop offset="0%" stop-color="#E0E5F0"/><stop offset="100%" stop-color="#D1D9E6"/></linearGradient><filter height="300%" id="fl4t1wlm8gni9" width="300%" x="-1" y="-1"><feGaussianBlur result="blurOut" stdDeviation="2"/><feColorMatrix in="blurOut" result="blurOut2" type="matrix" values="0 0 0 0 0 0 0 0 0 0 0 0 0 0 0 0 0 0 .4 0"/><feOffset dx="4" dy="4" in="blurOut2" result="blurOut3"/><feBlend in="SourceGraphic" in2="blurOut3" mode="normal"/></filter></defs><g><rect fill="#F5F5F5" height="1284" style="stroke:none;stroke-width:1;" width="1170" x="0" y="0"/><g class="title" data-source-line="1"><text fill="#000000" font-family="'Arial'" font-size="14" font-weight="700" lengthAdjust="spacing" textLength="539.0137" x="312.4722" y="27.9951">Geplante Abgabe f&#252;r bestehende Medikationsplaneintr&#228;ge erstellen</text><text fill="#000000" font-family="'Arial'" font-size="14" font-weight="700" lengthAdjust="spacing" textLength="676.2588" x="243.8496" y="44.292">Variante C: Nachtr&#228;gliche Verkn&#252;pfung des e-Rezepts mit dem e-Med GroupIdentifier</text></g><rect fill="#9FBAC4" height="1217.7969" rx="5" ry="5" style="stroke:#181818;stroke-width:0.5;" width="74.0586" x="140" y="59.5938"/><text fill="#000000" font-family="'Arial'" font-size="14" font-weight="700" lengthAdjust="spacing" textLength="4.874" x="143" y="72.5889">&#160;</text><text fill="#000000" font-family="'Arial'" font-size="14" font-weight="700" lengthAdjust="spacing" textLength="48.5625" x="152.748" y="88.8857">GDA 1</text><rect fill="#C48778" height="1217.7969" rx="5" ry="5" style="stroke:#181818;stroke-width:0.5;" width="256.9268" x="474.7949" y="59.5938"/><text fill="#000000" font-family="'Arial'" font-size="14" font-weight="700" lengthAdjust="spacing" textLength="4.874" x="477.7949" y="72.5889">&#160;</text><text fill="#000000" font-family="'Arial'" font-size="14" font-weight="700" lengthAdjust="spacing" textLength="182.6904" x="511.9131" y="88.8857">e-Med Fachanwendung</text><rect fill="#CBB272" height="1217.7969" rx="5" ry="5" style="stroke:#181818;stroke-width:0.5;" width="105.1826" x="912.1875" y="59.5938"/><text fill="#000000" font-family="'Arial'" font-size="14" font-weight="700" lengthAdjust="spacing" textLength="4.874" x="915.1875" y="72.5889">&#160;</text><text fill="#000000" font-family="'Arial'" font-size="14" font-weight="700" lengthAdjust="spacing" textLength="69.9385" x="934.6836" y="88.8857">e-Rezept</text><g><title>GDA 1</title><rect fill="#FFFFFF" height="1006.6094" style="stroke:#181818;stroke-width:1;" width="10" x="172.0293" y="182.4844"/></g><g><title>e-Med FA</title><rect fill="#FFFFFF" height="271.6094" style="stroke:#181818;stroke-width:1;" width="10" x="598.2583" y="723.3594"/></g><g><title>e-Rezept</title><rect fill="#FFFFFF" height="158.75" style="stroke:#181818;stroke-width:1;" width="10" x="959.7788" y="510.1797"/></g><g><title>e-Rezept</title><rect fill="#FFFFFF" height="141.9922" style="stroke:#181818;stroke-width:1;" width="10" x="959.7788" y="1038.1016"/></g><rect fill="none" height="540.5156" rx="5" ry="5" style="stroke:#111827;stroke-width:2;" width="1013.9507" x="9" y="469.4531"/><rect fill="#9FC79F" fill-opacity="0.50588" height="96.1563" rx="5" ry="5" style="stroke:#111827;stroke-width:2;" width="871.2031" x="141.7476" y="580.7734"/><path d="M141.7476,629.5 L1012.9507,629.5 L1012.9507,671.9297 A5,5 0 0 1 1007.9507,676.9297 L146.7476,676.9297 A5,5 0 0 1 141.7476,671.9297 L141.7476,629.5" fill="#F73737" fill-opacity="0.40000" style="stroke:none;stroke-width:1;"/><rect fill="#9FC79F" fill-opacity="0.50588" height="209.0156" rx="5" ry="5" style="stroke:#111827;stroke-width:2;" width="727.8105" x="141.7476" y="793.9531"/><path d="M141.7476,955.5391 L869.5581,955.5391 L869.5581,997.9688 A5,5 0 0 1 864.5581,1002.9688 L146.7476,1002.9688 A5,5 0 0 1 141.7476,997.9688 L141.7476,955.5391" fill="#F73737" fill-opacity="0.40000" style="stroke:none;stroke-width:1;"/><g class="participant-lifeline" data-entity-uid="part1" data-qualified-name="GDA_1" data-source-line="43" id="part1-lifeline"><g><title>GDA 1</title><rect fill="#000000" fill-opacity="0.00000" height="1025.6094" width="8" x="173.0293" y="172.4844"/><line style="stroke:#181818;stroke-width:0.5;stroke-dasharray:5,5;" x1="176.7476" x2="176.7476" y1="172.4844" y2="1198.0938"/></g></g><g class="participant-lifeline" data-entity-uid="part2" data-qualified-name="eMed_FA" data-source-line="47" id="part2-lifeline"><g><title>e-Med FA</title><rect fill="#000000" fill-opacity="0.00000" height="1025.6094" width="8" x="599.2583" y="172.4844"/><line style="stroke:#181818;stroke-width:0.5;stroke-dasharray:5,5;" x1="602.5962" x2="602.5962" y1="172.4844" y2="1198.0938"/></g></g><g class="participant-lifeline" data-entity-uid="part3" data-qualified-name="e_Rezept" data-source-line="51" id="part3-lifeline"><g><title>e-Rezept</title><rect fill="#000000" fill-opacity="0.00000" height="1025.6094" width="8" x="960.7788" y="172.4844"/><line style="stroke:#181818;stroke-width:0.5;stroke-dasharray:5,5;" x1="964.6069" x2="964.6069" y1="172.4844" y2="1198.0938"/></g></g><g class="participant participant-head" data-entity-uid="part1" data-qualified-name="GDA_1" data-source-line="43" id="part1-head"><text fill="#000000" font-family="'Arial'" font-size="14" lengthAdjust="spacing" textLength="44.5635" x="151.7476" y="169.1826">GDA 1</text><ellipse cx="177.0293" cy="104.6875" fill="#E2E2F0" rx="8" ry="8" style="stroke:#181818;stroke-width:0.5;"/><path d="M177.0293,112.6875 L177.0293,139.6875 M164.0293,120.6875 L190.0293,120.6875 M177.0293,139.6875 L164.0293,154.6875 M177.0293,139.6875 L190.0293,154.6875" fill="none" style="stroke:#181818;stroke-width:0.5;"/></g><g class="participant participant-tail" data-entity-uid="part1" data-qualified-name="GDA_1" data-source-line="43" id="part1-tail"><text fill="#000000" font-family="'Arial'" font-size="14" lengthAdjust="spacing" textLength="44.5635" x="151.7476" y="1210.0889">GDA 1</text><ellipse cx="177.0293" cy="1221.8906" fill="#E2E2F0" rx="8" ry="8" style="stroke:#181818;stroke-width:0.5;"/><path d="M177.0293,1229.8906 L177.0293,1256.8906 M164.0293,1237.8906 L190.0293,1237.8906 M177.0293,1256.8906 L164.0293,1271.8906 M177.0293,1256.8906 L190.0293,1271.8906" fill="none" style="stroke:#181818;stroke-width:0.5;"/></g><g class="participant participant-head" data-entity-uid="part2" data-qualified-name="eMed_FA" data-source-line="47" id="part2-head"><rect fill="#FFFFFF" height="30.2969" rx="5" ry="5" style="stroke:#555555;stroke-width:0.5;" width="79.3242" x="563.5962" y="141.1875"/><text fill="#000000" font-family="'Arial'" font-size="14" lengthAdjust="spacing" textLength="65.3242" x="570.5962" y="161.1826">e-Med FA</text></g><g class="participant participant-tail" data-entity-uid="part2" data-qualified-name="eMed_FA" data-source-line="47" id="part2-tail"><rect fill="#FFFFFF" height="30.2969" rx="5" ry="5" style="stroke:#555555;stroke-width:0.5;" width="79.3242" x="563.5962" y="1197.0938"/><text fill="#000000" font-family="'Arial'" font-size="14" lengthAdjust="spacing" textLength="65.3242" x="570.5962" y="1217.0889">e-Med FA</text></g><g class="participant participant-head" data-entity-uid="part3" data-qualified-name="e_Rezept" data-source-line="51" id="part3-head"><rect fill="#FFFFFF" height="30.2969" rx="5" ry="5" style="stroke:#555555;stroke-width:0.5;" width="76.3438" x="926.6069" y="141.1875"/><text fill="#000000" font-family="'Arial'" font-size="14" lengthAdjust="spacing" textLength="62.3438" x="933.6069" y="161.1826">e-Rezept</text></g><g class="participant participant-tail" data-entity-uid="part3" data-qualified-name="e_Rezept" data-source-line="51" id="part3-tail"><rect fill="#FFFFFF" height="30.2969" rx="5" ry="5" style="stroke:#555555;stroke-width:0.5;" width="76.3438" x="926.6069" y="1197.0938"/><text fill="#000000" font-family="'Arial'" font-size="14" lengthAdjust="spacing" textLength="62.3438" x="933.6069" y="1217.0889">e-Rezept</text></g><g><title>GDA 1</title><rect fill="#FFFFFF" height="1006.6094" style="stroke:#181818;stroke-width:1;" width="10" x="172.0293" y="182.4844"/></g><g><title>e-Med FA</title><rect fill="#FFFFFF" height="271.6094" style="stroke:#181818;stroke-width:1;" width="10" x="598.2583" y="723.3594"/></g><g><title>e-Rezept</title><rect fill="#FFFFFF" height="158.75" style="stroke:#181818;stroke-width:1;" width="10" x="959.7788" y="510.1797"/></g><g><title>e-Rezept</title><rect fill="#FFFFFF" height="141.9922" style="stroke:#181818;stroke-width:1;" width="10" x="959.7788" y="1038.1016"/></g><rect fill="#EEEEEE" height="3" rx="5" ry="5" style="stroke:#EEEEEE;stroke-width:1;" width="1164.958" x="0" y="203.6328"/><line style="stroke:#000000;stroke-width:1;" x1="0" x2="1164.958" y1="203.6328" y2="203.6328"/><line style="stroke:#000000;stroke-width:1;" x1="0" x2="1164.958" y1="206.6328" y2="206.6328"/><rect fill="#EEEEEE" height="24.2969" rx="5" ry="5" style="stroke:#000000;stroke-width:2;" width="216.2891" x="474.3345" y="192.4844"/><text fill="#000000" font-family="'Arial'" font-size="14" font-weight="700" lengthAdjust="spacing" textLength="197.415" x="480.3345" y="209.4795">Medikationsplan abrufen</text><rect fill="none" height="42.5938" rx="5" ry="5" style="stroke:#000000;stroke-width:1.5;" width="497.1729" x="148.7476" y="226.7813"/><path d="M153.7476,226.7813 L215.7476,226.7813 L215.7476,234.7813 L205.7476,244.7813 L148.7476,244.7813 L148.7476,231.7813 A5,5 0 0 1 153.7476,226.7813" fill="#EEEEEE" style="stroke:#000000;stroke-width:2;"/><text fill="#000000" font-family="'Arial'" font-size="14" font-weight="700" lengthAdjust="spacing" textLength="22.4902" x="161.7476" y="241.7764">ref</text><a href="interactions.html#sequenzdiagramm-plan-read" target="_top" title="interactions.html#sequenzdiagramm-plan-read" xlink:actuate="onRequest" xlink:href="interactions.html#sequenzdiagramm-plan-read" xlink:show="new" xlink:title="interactions.html#sequenzdiagramm-plan-read" xlink:type="simple"><text fill="#0000EE" font-family="'Arial'" font-size="14" lengthAdjust="spacing" textLength="70.6426" x="362.0127" y="261.7764">Plan-Read</text></a><path d="M47,284.375 L47,316.375 A5,5 0 0 0 52,321.375 L297,321.375 A5,5 0 0 0 302,316.375 L302,289.375 L292,279.375 L52,279.375 A5,5 0 0 0 47,284.375" fill="url(#gl4t1wlm8gni90)" filter="url(#fl4t1wlm8gni9)" style="stroke:#8B95A5;stroke-width:1;"/><path d="M292,279.375 L292,286.875 A2.5,2.5 0 0 0 294.5,289.375 L302,289.375 L292,279.375" fill="url(#gl4t1wlm8gni90)" style="stroke:#8B95A5;stroke-width:1;"/><text fill="#111827" font-family="'Arial'" font-size="14" lengthAdjust="spacing" textLength="195.8018" x="53" y="297.3701">GDA erh&#228;lt Medikationsplan</text><text fill="#111827" font-family="'Arial'" font-size="14" lengthAdjust="spacing" textLength="234.377" x="53" y="313.667">(Auslieferungs-Collection-Bundle)</text><rect fill="#EEEEEE" height="3" rx="5" ry="5" style="stroke:#EEEEEE;stroke-width:1;" width="1164.958" x="0" y="351.1172"/><line style="stroke:#000000;stroke-width:1;" x1="0" x2="1164.958" y1="351.1172" y2="351.1172"/><line style="stroke:#000000;stroke-width:1;" x1="0" x2="1164.958" y1="354.1172" y2="354.1172"/><rect fill="#EEEEEE" height="24.2969" rx="5" ry="5" style="stroke:#000000;stroke-width:2;" width="379.3398" x="392.8091" y="339.9688"/><text fill="#000000" font-family="'Arial'" font-size="14" font-style="italic" font-weight="700" lengthAdjust="spacing" textLength="146.0908" x="398.8091" y="356.9639">Geplante Abgaben</text><text fill="#000000" font-family="'Arial'" font-size="14" font-weight="700" lengthAdjust="spacing" textLength="209.501" x="549.7739" y="356.9639">vorbereiten und schreiben</text><path d="M17,384.2656 L17,449.2656 A5,5 0 0 0 22,454.2656 L329,454.2656 A5,5 0 0 0 334,449.2656 L334,389.2656 L324,379.2656 L22,379.2656 A5,5 0 0 0 17,384.2656" fill="url(#gl4t1wlm8gni90)" filter="url(#fl4t1wlm8gni9)" style="stroke:#8B95A5;stroke-width:1;"/><path d="M324,379.2656 L324,386.7656 A2.5,2.5 0 0 0 326.5,389.2656 L334,389.2656 L324,379.2656" fill="url(#gl4t1wlm8gni90)" style="stroke:#8B95A5;stroke-width:1;"/><text fill="#111827" font-family="'Arial'" font-size="14" lengthAdjust="spacing" textLength="57.8799" x="23" y="397.2607">Erstellte</text><text fill="#111827" font-family="'Arial'" font-size="14" font-style="italic" lengthAdjust="spacing" textLength="130.5459" x="85.3301" y="397.2607">Geplante Abgaben</text><text fill="#111827" font-family="'Arial'" font-size="14" lengthAdjust="spacing" textLength="94.2471" x="220.3262" y="397.2607">referenzieren</text><text fill="#111827" font-family="'Arial'" font-size="14" lengthAdjust="spacing" textLength="260.668" x="23" y="413.5576">zugeh&#246;rige Medikationsplaneintr&#228;ge;</text><text fill="#111827" font-family="'Arial'" font-size="14" lengthAdjust="spacing" textLength="256.2725" x="23" y="429.8545">groupIdentifier f&#252;r "Rezeptklammer"</text><text fill="#111827" font-family="'Arial'" font-size="14" lengthAdjust="spacing" textLength="70.9775" x="23" y="446.1514">bleibt leer</text><path d="M14,469.4531 L80.373,469.4531 L80.373,477.75 L70.373,487.75 L9,487.75 L9,474.4531 A5,5 0 0 1 14,469.4531" fill="#EEF2FF" style="stroke:#111827;stroke-width:1.5;"/><rect fill="none" height="540.5156" rx="5" ry="5" style="stroke:#111827;stroke-width:2;" width="1013.9507" x="9" y="469.4531"/><text fill="#000000" font-family="'Arial'" font-size="14" font-weight="700" lengthAdjust="spacing" textLength="26.373" x="24" y="483.4482">par</text><text fill="#000000" font-family="'Arial'" font-size="14" font-weight="700" lengthAdjust="spacing" textLength="168.1504" x="95.373" y="484.4482">[Erstellung e-Rezept]</text><g class="message" data-entity-1="part1" data-entity-2="part3" data-source-line="78" id="msg1"><polygon fill="#111827" points="947.7788,506.1797,957.7788,510.1797,947.7788,514.1797,951.7788,510.1797" style="stroke:#111827;stroke-width:1;stroke-linejoin:miter;stroke-miterlimit:10;"/><line style="stroke:#111827;stroke-width:1;" x1="182.0293" x2="953.7788" y1="510.1797" y2="510.1797"/><text fill="#000000" font-family="'Arial'" font-size="13" font-weight="700" lengthAdjust="spacing" textLength="9.0454" x="189.0293" y="505.1138">1</text><text fill="#000000" font-family="'Arial'" font-size="13" lengthAdjust="spacing" textLength="169.5713" x="202.0747" y="505.1138">Trigger e-Rezept erstellen</text></g><path d="M60,528.1797 L60,560.1797 A5,5 0 0 0 65,565.1797 L284,565.1797 A5,5 0 0 0 289,560.1797 L289,533.1797 L279,523.1797 L65,523.1797 A5,5 0 0 0 60,528.1797" fill="url(#gl4t1wlm8gni90)" filter="url(#fl4t1wlm8gni9)" style="stroke:#8B95A5;stroke-width:1;"/><path d="M279,523.1797 L279,530.6797 A2.5,2.5 0 0 0 281.5,533.1797 L289,533.1797 L279,523.1797" fill="url(#gl4t1wlm8gni90)" style="stroke:#8B95A5;stroke-width:1;"/><text fill="#111827" font-family="'Arial'" font-size="14" lengthAdjust="spacing" textLength="208.0859" x="66" y="541.1748">Erstellung e-Rezept ausl&#246;sen,</text><text fill="#111827" font-family="'Arial'" font-size="14" lengthAdjust="spacing" textLength="193.0674" x="66" y="557.4717">ohne e-Med GroupIdentifier</text><path d="M146.7476,580.7734 L207.686,580.7734 L207.686,589.0703 L197.686,599.0703 L141.7476,599.0703 L141.7476,585.7734 A5,5 0 0 1 146.7476,580.7734" fill="#EEF2FF" style="stroke:#111827;stroke-width:1.5;"/><rect fill="none" height="96.1563" rx="5" ry="5" style="stroke:#111827;stroke-width:2;" width="871.2031" x="141.7476" y="580.7734"/><text fill="#000000" font-family="'Arial'" font-size="14" font-weight="700" lengthAdjust="spacing" textLength="20.9385" x="156.7476" y="594.7686">alt</text><text fill="#000000" font-family="'Arial'" font-size="14" font-weight="700" lengthAdjust="spacing" textLength="144.8193" x="222.686" y="595.7686">[e-Rezept erstellt]</text><g class="message" data-entity-1="part3" data-entity-2="part1" data-source-line="86" id="msg2"><polygon fill="#111827" points="193.0293,617.5,183.0293,621.5,193.0293,625.5,189.0293,621.5" style="stroke:#111827;stroke-width:1;stroke-linejoin:miter;stroke-miterlimit:10;"/><line style="stroke:#111827;stroke-width:1;stroke-dasharray:2,2;" x1="187.0293" x2="958.7788" y1="621.5" y2="621.5"/><text fill="#000000" font-family="'Arial'" font-size="13" font-weight="700" lengthAdjust="spacing" textLength="9.0454" x="199.0293" y="616.4341">2</text><text fill="#000000" font-family="'Arial'" font-size="13" lengthAdjust="spacing" textLength="18.7573" x="212.0747" y="616.4341">OK</text></g><line style="stroke:#111827;stroke-width:1;stroke-dasharray:2,2;" x1="141.7476" x2="1012.9507" y1="630.5" y2="630.5"/><text fill="#000000" font-family="'Arial'" font-size="14" font-weight="700" lengthAdjust="spacing" textLength="137.833" x="146.7476" y="643.4951">[e-Rezept Fehler]</text><g class="message" data-entity-1="part3" data-entity-2="part1" data-source-line="89" id="msg3"><polygon fill="#111827" points="193.0293,664.9297,183.0293,668.9297,193.0293,672.9297,189.0293,668.9297" style="stroke:#111827;stroke-width:1;stroke-linejoin:miter;stroke-miterlimit:10;"/><line style="stroke:#111827;stroke-width:1;stroke-dasharray:2,2;" x1="187.0293" x2="963.7788" y1="668.9297" y2="668.9297"/><text fill="#000000" font-family="'Arial'" font-size="13" font-weight="700" lengthAdjust="spacing" textLength="9.0454" x="199.0293" y="663.8638">3</text><text fill="#000000" font-family="'Arial'" font-size="13" lengthAdjust="spacing" textLength="40.6694" x="212.0747" y="663.8638">Fehler</text></g><line style="stroke:#111827;stroke-width:1;stroke-dasharray:2,2;" x1="9" x2="1022.9507" y1="684.9297" y2="684.9297"/><text fill="#000000" font-family="'Arial'" font-size="14" font-weight="700" lengthAdjust="spacing" textLength="192.6436" x="14" y="697.9248">[gleichzeitige Erstellung</text><text fill="#000000" font-family="'Arial'" font-size="14" font-style="italic" font-weight="700" lengthAdjust="spacing" textLength="136.124" x="211.5176" y="697.9248">Geplante Abgabe</text><text fill="#000000" font-family="'Arial'" font-size="14" font-weight="700" lengthAdjust="spacing" textLength="6.3984" x="347.6416" y="697.9248">]</text><g class="message" data-entity-1="part1" data-entity-2="part2" data-source-line="95" id="msg4"><polygon fill="#111827" points="586.2583,719.3594,596.2583,723.3594,586.2583,727.3594,590.2583,723.3594" style="stroke:#111827;stroke-width:1;stroke-linejoin:miter;stroke-miterlimit:10;"/><line style="stroke:#111827;stroke-width:1;" x1="182.0293" x2="592.2583" y1="723.3594" y2="723.3594"/><text fill="#000000" font-family="'Arial'" font-size="13" font-weight="700" lengthAdjust="spacing" textLength="9.0454" x="189.0293" y="718.2935">4</text><text fill="#000000" font-family="'Arial'" font-size="13" lengthAdjust="spacing" textLength="247.749" x="202.0747" y="718.2935">POST Transaction Bundle GeplAbgabe</text></g><path d="M19,741.3594 L19,773.3594 A5,5 0 0 0 24,778.3594 L325,778.3594 A5,5 0 0 0 330,773.3594 L330,746.3594 L320,736.3594 L24,736.3594 A5,5 0 0 0 19,741.3594" fill="url(#gl4t1wlm8gni90)" filter="url(#fl4t1wlm8gni9)" style="stroke:#8B95A5;stroke-width:1;"/><path d="M320,736.3594 L320,743.8594 A2.5,2.5 0 0 0 322.5,746.3594 L330,746.3594 L320,736.3594" fill="url(#gl4t1wlm8gni90)" style="stroke:#8B95A5;stroke-width:1;"/><text fill="#111827" font-family="'Arial'" font-size="14" lengthAdjust="spacing" textLength="239.9209" x="25" y="754.3545">Transaction Bundle mit Geplanten</text><text fill="#111827" font-family="'Arial'" font-size="14" lengthAdjust="spacing" textLength="290.2266" x="25" y="770.6514">Abgaben an Fachanwendung &#252;bermitteln</text><path d="M146.7476,793.9531 L207.686,793.9531 L207.686,802.25 L197.686,812.25 L141.7476,812.25 L141.7476,798.9531 A5,5 0 0 1 146.7476,793.9531" fill="#EEF2FF" style="stroke:#111827;stroke-width:1.5;"/><rect fill="none" height="209.0156" rx="5" ry="5" style="stroke:#111827;stroke-width:2;" width="727.8105" x="141.7476" y="793.9531"/><text fill="#000000" font-family="'Arial'" font-size="14" font-weight="700" lengthAdjust="spacing" textLength="20.9385" x="156.7476" y="807.9482">alt</text><text fill="#000000" font-family="'Arial'" font-size="14" font-weight="700" lengthAdjust="spacing" textLength="220.9717" x="222.686" y="808.9482">[Geplante Abgaben erstellt]</text><g class="message" data-entity-1="part2" data-entity-2="part2" data-source-line="105" id="msg5"><line style="stroke:#111827;stroke-width:1;" x1="608.2583" x2="650.2583" y1="849.8125" y2="849.8125"/><line style="stroke:#111827;stroke-width:1;" x1="650.2583" x2="650.2583" y1="849.8125" y2="862.8125"/><line style="stroke:#111827;stroke-width:1;" x1="609.2583" x2="650.2583" y1="862.8125" y2="862.8125"/><polygon fill="#111827" points="619.2583,858.8125,609.2583,862.8125,619.2583,866.8125,615.2583,862.8125" style="stroke:#111827;stroke-width:1;stroke-linejoin:miter;stroke-miterlimit:10;"/><text fill="#000000" font-family="'Arial'" font-size="13" font-weight="700" lengthAdjust="spacing" textLength="9.0454" x="615.2583" y="837.1802">5</text><text fill="#000000" font-family="'Arial'" font-size="13" lengthAdjust="spacing" textLength="207.7397" x="628.3037" y="829.6138">e-Med GroupIdentifier erzeugen</text><text fill="#000000" font-family="'Arial'" font-size="13" lengthAdjust="spacing" textLength="219.2544" x="628.3037" y="844.7466">+ geplanten Abgaben hinzuf&#252;gen</text></g><path d="M506,880.8125 L506,912.8125 A5,5 0 0 0 511,917.8125 L691,917.8125 A5,5 0 0 0 696,912.8125 L696,885.8125 L686,875.8125 L511,875.8125 A5,5 0 0 0 506,880.8125" fill="url(#gl4t1wlm8gni90)" filter="url(#fl4t1wlm8gni9)" style="stroke:#8B95A5;stroke-width:1;"/><path d="M686,875.8125 L686,883.3125 A2.5,2.5 0 0 0 688.5,885.8125 L696,885.8125 L686,875.8125" fill="url(#gl4t1wlm8gni90)" style="stroke:#8B95A5;stroke-width:1;"/><text fill="#111827" font-family="'Arial'" font-size="14" lengthAdjust="spacing" textLength="164.5684" x="512" y="893.8076">Geplante Abgabe 1 + 2</text><text fill="#111827" font-family="'Arial'" font-size="14" lengthAdjust="spacing" textLength="82.6123" x="512" y="910.1045">gespeichert</text><g class="message" data-entity-1="part2" data-entity-2="part1" data-source-line="112" id="msg6"><polygon fill="#111827" points="193.0293,943.5391,183.0293,947.5391,193.0293,951.5391,189.0293,947.5391" style="stroke:#111827;stroke-width:1;stroke-linejoin:miter;stroke-miterlimit:10;"/><line style="stroke:#111827;stroke-width:1;" x1="187.0293" x2="597.2583" y1="947.5391" y2="947.5391"/><text fill="#000000" font-family="'Arial'" font-size="13" font-weight="700" lengthAdjust="spacing" textLength="9.0454" x="199.0293" y="942.4731">6</text><text fill="#000000" font-family="'Arial'" font-size="13" lengthAdjust="spacing" textLength="286.6348" x="212.0747" y="942.4731">OK (Ressourcen inkl. e-Med GroupIdentifier)</text></g><line style="stroke:#111827;stroke-width:1;stroke-dasharray:2,2;" x1="141.7476" x2="869.5581" y1="956.5391" y2="956.5391"/><text fill="#000000" font-family="'Arial'" font-size="14" font-weight="700" lengthAdjust="spacing" textLength="204.0186" x="146.7476" y="969.5342">[Geplante Abgabe Fehler]</text><g class="message" data-entity-1="part2" data-entity-2="part1" data-source-line="115" id="msg7"><polygon fill="#111827" points="193.0293,990.9688,183.0293,994.9688,193.0293,998.9688,189.0293,994.9688" style="stroke:#111827;stroke-width:1;stroke-linejoin:miter;stroke-miterlimit:10;"/><line style="stroke:#111827;stroke-width:1;stroke-dasharray:2,2;" x1="187.0293" x2="602.2583" y1="994.9688" y2="994.9688"/><text fill="#000000" font-family="'Arial'" font-size="13" font-weight="700" lengthAdjust="spacing" textLength="9.0454" x="199.0293" y="989.9028">7</text><text fill="#000000" font-family="'Arial'" font-size="13" lengthAdjust="spacing" textLength="40.6694" x="212.0747" y="989.9028">Fehler</text></g><g class="message" data-entity-1="part1" data-entity-2="part3" data-source-line="122" id="msg8"><polygon fill="#111827" points="947.7788,1034.1016,957.7788,1038.1016,947.7788,1042.1016,951.7788,1038.1016" style="stroke:#111827;stroke-width:1;stroke-linejoin:miter;stroke-miterlimit:10;"/><line style="stroke:#111827;stroke-width:1;" x1="182.0293" x2="953.7788" y1="1038.1016" y2="1038.1016"/><text fill="#000000" font-family="'Arial'" font-size="13" font-weight="700" lengthAdjust="spacing" textLength="9.0454" x="189.0293" y="1033.0356">8</text><text fill="#000000" font-family="'Arial'" font-size="13" lengthAdjust="spacing" textLength="308.4834" x="202.0747" y="1033.0356">e-Rezept mit e-Med GroupIdentifier verkn&#252;pfen</text></g><g class="message" data-entity-1="part3" data-entity-2="part3" data-source-line="124" id="msg9"><line style="stroke:#111827;stroke-width:1;" x1="969.7788" x2="1011.7788" y1="1082.3672" y2="1082.3672"/><line style="stroke:#111827;stroke-width:1;" x1="1011.7788" x2="1011.7788" y1="1082.3672" y2="1095.3672"/><line style="stroke:#111827;stroke-width:1;" x1="970.7788" x2="1011.7788" y1="1095.3672" y2="1095.3672"/><polygon fill="#111827" points="980.7788,1091.3672,970.7788,1095.3672,980.7788,1099.3672,976.7788,1095.3672" style="stroke:#111827;stroke-width:1;stroke-linejoin:miter;stroke-miterlimit:10;"/><text fill="#000000" font-family="'Arial'" font-size="13" font-weight="700" lengthAdjust="spacing" textLength="9.0454" x="976.7788" y="1069.7349">9</text><text fill="#000000" font-family="'Arial'" font-size="13" lengthAdjust="spacing" textLength="142.7144" x="989.8242" y="1062.1685">e-Med GroupIdentifier</text><text fill="#000000" font-family="'Arial'" font-size="13" lengthAdjust="spacing" textLength="60.8613" x="989.8242" y="1077.3013">erg&#228;nzen</text></g><path d="M839,1113.3672 L839,1145.3672 A5,5 0 0 0 844,1150.3672 L1080,1150.3672 A5,5 0 0 0 1085,1145.3672 L1085,1118.3672 L1075,1108.3672 L844,1108.3672 A5,5 0 0 0 839,1113.3672" fill="url(#gl4t1wlm8gni90)" filter="url(#fl4t1wlm8gni9)" style="stroke:#8B95A5;stroke-width:1;"/><path d="M1075,1108.3672 L1075,1115.8672 A2.5,2.5 0 0 0 1077.5,1118.3672 L1085,1118.3672 L1075,1108.3672" fill="url(#gl4t1wlm8gni90)" style="stroke:#8B95A5;stroke-width:1;"/><text fill="#111827" font-family="'Arial'" font-size="14" lengthAdjust="spacing" textLength="185.0283" x="845" y="1126.3623">Bestehendes e-Rezept mit</text><text fill="#111827" font-family="'Arial'" font-size="14" lengthAdjust="spacing" textLength="225.9551" x="845" y="1142.6592">e-Med GroupIdentifier verkn&#252;pft</text><g class="message" data-entity-1="part3" data-entity-2="part1" data-source-line="129" id="msg10"><polygon fill="#111827" points="193.0293,1176.0938,183.0293,1180.0938,193.0293,1184.0938,189.0293,1180.0938" style="stroke:#111827;stroke-width:1;stroke-linejoin:miter;stroke-miterlimit:10;"/><line style="stroke:#111827;stroke-width:1;stroke-dasharray:2,2;" x1="187.0293" x2="963.7788" y1="1180.0938" y2="1180.0938"/><text fill="#000000" font-family="'Arial'" font-size="13" font-weight="700" lengthAdjust="spacing" textLength="18.0908" x="199.0293" y="1175.0278">10</text><text fill="#000000" font-family="'Arial'" font-size="13" lengthAdjust="spacing" textLength="18.7573" x="221.1201" y="1175.0278">OK</text></g><?plantuml-src XLR1Rjiu4BthAmREfKNhRkJMiUDj0ZZPfBjOj0sIR2zD4L3II28iKov59LaN-pVvXfvoyu_ja9GbIbPsPS2Go9dXl3TlI2gkCeGFkCgOK0Zp8641GhnvaX1WeJ154I5yn8WlcEAvABGXSg7avZ51G4asMORYHdnXafiOfpFunCBKM6GyJ16-e5o8pTCgBaK24HQ0mqjSuqeLiEIAHfOqGcl01vcNgpyY58h77ANd5GikLaoo9GIvZ52UvbakOM_VFEui2nS9EOkeieZ7-kTO52cBydjE2SGiAz2PgToaG0c-6pJ2c9MPEi-5-iIM28Cv8Sm6_HPNV8tWl-kVRAVjs8YS2FlX0Pnq0U0-ZkFzuLxaHuTue2rS0gR1uPYDwz7hb8SBWKK1FerTEe2cz7t1eaW3rr6SR7pVduucD7PLKwDaYTu_ReA__xr2cN6nS22SdVKP_4L2qIzO4UnoZzzB5A55Ui6auY5VaLPQaCRcwHZibDKyRQDTWdUcjyLfJMnf6Mc7kPJvVPSOCzZcrWprhLXFsBNUqf1HSmjZ7TbExTGSuv51vtWsou_QbJd97nm4hV4-NhqWVu31ZQ3Wlyt11nZ0tc5CVQDPOQ4YKvguzO4LC30c0uzwd_hkmV4rZ-tLS-fn9kx9HdUrVIZcwRlfPA9LjsgO1YI7s_EvYLrvp_l3RtS64oiCWj5ar8rrMrdOOFR32SPAbOjo6UZju-YektK12sGPeu2Z8p8D5RzZr846kISnXlmEAo9UrrdFuEjNsl5GQdkAyoPLospFYdeTSPOGxSkXZZwKo2Auq6-NzFRjc-TvfiMRi9xc5cMwUSpKJdBUYtbPP1nZb4HgCQGIPcWM7PwGJ39yQN3ga0RSUtxSsRh5-r_uCTpbal0ZLmIK_A08K_eAAjZTZCxi9aw3pyMJEYC2o_K_UEiomNJpK_Ba-QFXLozfR-RsK1dOUYqoeWpbm0iooaj1XbIk1XhL6wgijBYsLVOyg4GwFAvrC8DhIYIX1MhjrAUIbRQjyTQUnhe4GDzYmAWKcvy5YjTaaAUqiVKVKYJQEd5QZyfAZHLE3kEflvEINXqQ2Gy9XqbX1f__rDv8EoVjSfEtz3iuQDpFCStCKltETXhCV8Hza2b5ppFH4s8yJDSa3bq-1_XkyNNjoRV5kks96LnylhecvfaeR5U05QYvIbXlwzaaOprxwOU-IFfgi4r86ADAaa2TqjvzDayaTx8dAE8_wz5LTrCNostLyIxGtgAJtngf2-ZUymgIRP9rr9IBTKbw9mCRk87Sq00xrouVNi78LZ71OgNhXBAIZ0EfbMSj7tXnIQT4NigG4g3pE7lJd_hB7frr4t7bjbtg_zLM8QlLflzwshKMjIvmFxjtsmlZiotST44xT4-q6xe79Pj7iJR1d4eqqUWULLzsYrQ2NdFWFPkaSYNtR7VtTkQ_?></g></svg>