<?xml version="1.0" encoding="us-ascii" standalone="no"?><svg xmlns="http://www.w3.org/2000/svg" xmlns:xlink="http://www.w3.org/1999/xlink" contentStyleType="text/css" height="1226px" preserveAspectRatio="none" style="width:697px;height:1226px;background:#F5F5F5;" version="1.1" viewBox="0 0 697 1226" width="697px" zoomAndPan="magnify"><defs><linearGradient id="giex3u3pzqasf0" x1="50%" x2="50%" y1="0%" y2="100%"><stop offset="0%" stop-color="#E0E5F0"/><stop offset="100%" stop-color="#D1D9E6"/></linearGradient></defs><g><rect fill="#F5F5F5" height="1226" style="stroke:none;stroke-width:1.0;" width="697" x="0" y="0"/><text fill="#000000" font-family="Arial" font-size="14" font-weight="bold" lengthAdjust="spacing" textLength="480" x="104.75" y="28.1318">Geplante Abgabe f&#252;r bestehende Medikationsplaneintr&#228;ge erstellen</text><text fill="#000000" font-family="Arial" font-size="14" font-weight="bold" lengthAdjust="spacing" textLength="428" x="130.75" y="44.2305">Variante A: Vorab-Ermittlung des GroupIdentifiers (Fehlerfall)</text><rect fill="#156082" fill-opacity="0.50196" height="962.8052" style="stroke:#181818;stroke-width:1.0;" width="10" x="169" y="144.2959"/><rect fill="#E97232" fill-opacity="0.74118" height="120.7949" style="stroke:#181818;stroke-width:1.0;" width="10" x="375" y="344.7871"/><rect fill="#E97232" fill-opacity="0.74118" height="234.2388" style="stroke:#181818;stroke-width:1.0;" width="10" x="375" y="829.2646"/><rect fill="#CD3732" fill-opacity="0.66275" height="131.4438" style="stroke:#181818;stroke-width:1.0;" width="10" x="590" y="583.3257"/><rect fill="none" height="583.6729" rx="5" ry="5" style="stroke:#111827;stroke-width:2.0;" width="670.5" x="10" y="545.4282"/><rect fill="#0F9ED5" fill-opacity="0.14510" height="153.3926" rx="5" ry="5" style="stroke:#111827;stroke-width:2.0;" width="640.5" x="20" y="633.2744"/><path d="M20,679.1719 L660.5,679.1719 L660.5,781.667 A5,5 0 0 1 655.5,786.667 L25,786.667 A5,5 0 0 1 20,781.667 L20,679.1719 " fill="#E97132" fill-opacity="0.20784" style="stroke:none;stroke-width:1.0;"/><rect fill="#0F9ED5" fill-opacity="0.14510" height="227.939" rx="5" ry="5" style="stroke:#111827;stroke-width:2.0;" width="540.5" x="130" y="894.1621"/><path d="M130,975.0083 L670.5,975.0083 L670.5,1117.1011 A5,5 0 0 1 665.5,1122.1011 L135,1122.1011 A5,5 0 0 1 130,1117.1011 L130,975.0083 " fill="#E97132" fill-opacity="0.20784" style="stroke:none;stroke-width:1.0;"/><rect fill="#0F9ED5" fill-opacity="0.14510" height="89.4951" rx="5" ry="5" style="stroke:#111827;stroke-width:2.0;" width="520.5" x="140" y="1025.606"/><path d="M140,1071.5034 L660.5,1071.5034 L660.5,1110.1011 A5,5 0 0 1 655.5,1115.1011 L145,1115.1011 A5,5 0 0 1 140,1110.1011 L140,1071.5034 " fill="#E97132" fill-opacity="0.20784" style="stroke:none;stroke-width:1.0;"/><line style="stroke:#181818;stroke-width:0.5;stroke-dasharray:5.0,5.0;" x1="174" x2="174" y1="134.2959" y2="1146.1011"/><line style="stroke:#181818;stroke-width:0.5;stroke-dasharray:5.0,5.0;" x1="380" x2="380" y1="134.2959" y2="1146.1011"/><line style="stroke:#181818;stroke-width:0.5;stroke-dasharray:5.0,5.0;" x1="594.5" x2="594.5" y1="134.2959" y2="1146.1011"/><text fill="#000000" font-family="Arial" font-size="14" lengthAdjust="spacing" textLength="42" x="150" y="131.3291">GDA 1</text><ellipse cx="174" cy="66.6973" fill="#156082" fill-opacity="0.50196" rx="8" ry="8" style="stroke:#181818;stroke-width:0.5;"/><path d="M174,74.6973 L174,101.6973 M161,82.6973 L187,82.6973 M174,101.6973 L161,116.6973 M174,101.6973 L187,116.6973 " fill="none" style="stroke:#181818;stroke-width:0.5;"/><text fill="#000000" font-family="Arial" font-size="14" lengthAdjust="spacing" textLength="42" x="150" y="1158.2329">GDA 1</text><ellipse cx="174" cy="1169.6997" fill="#156082" fill-opacity="0.50196" rx="8" ry="8" style="stroke:#181818;stroke-width:0.5;"/><path d="M174,1177.6997 L174,1204.6997 M161,1185.6997 L187,1185.6997 M174,1204.6997 L161,1219.6997 M174,1204.6997 L187,1219.6997 " fill="none" style="stroke:#181818;stroke-width:0.5;"/><rect fill="#E97232" fill-opacity="0.74118" height="30.0986" rx="5" ry="5" style="stroke:#555555;stroke-width:0.5;" width="76" x="342" y="103.1973"/><text fill="#000000" font-family="Arial" font-size="14" lengthAdjust="spacing" textLength="62" x="349" y="123.3291">e-Med FA</text><rect fill="#E97232" fill-opacity="0.74118" height="30.0986" rx="5" ry="5" style="stroke:#555555;stroke-width:0.5;" width="76" x="342" y="1145.1011"/><text fill="#000000" font-family="Arial" font-size="14" lengthAdjust="spacing" textLength="62" x="349" y="1165.2329">e-Med FA</text><rect fill="#CD3732" fill-opacity="0.66275" height="30.0986" rx="5" ry="5" style="stroke:#555555;stroke-width:0.5;" width="71" x="559.5" y="103.1973"/><text fill="#000000" font-family="Arial" font-size="14" lengthAdjust="spacing" textLength="57" x="566.5" y="123.3291">e-Rezept</text><rect fill="#CD3732" fill-opacity="0.66275" height="30.0986" rx="5" ry="5" style="stroke:#555555;stroke-width:0.5;" width="71" x="559.5" y="1145.1011"/><text fill="#000000" font-family="Arial" font-size="14" lengthAdjust="spacing" textLength="57" x="566.5" y="1165.2329">e-Rezept</text><rect fill="#156082" fill-opacity="0.50196" height="962.8052" style="stroke:#181818;stroke-width:1.0;" width="10" x="169" y="144.2959"/><rect fill="#E97232" fill-opacity="0.74118" height="120.7949" style="stroke:#181818;stroke-width:1.0;" width="10" x="375" y="344.7871"/><rect fill="#E97232" fill-opacity="0.74118" height="234.2388" style="stroke:#181818;stroke-width:1.0;" width="10" x="375" y="829.2646"/><rect fill="#CD3732" fill-opacity="0.66275" height="131.4438" style="stroke:#181818;stroke-width:1.0;" width="10" x="590" y="583.3257"/><rect fill="#EEEEEE" height="3" rx="5" ry="5" style="stroke:#EEEEEE;stroke-width:1.0;" width="690.5" x="0" y="164.7703"/><line style="stroke:#000000;stroke-width:1.0;" x1="0" x2="690.5" y1="164.7703" y2="164.7703"/><line style="stroke:#000000;stroke-width:1.0;" x1="0" x2="690.5" y1="167.7703" y2="167.7703"/><rect fill="#EEEEEE" height="22.9487" rx="5" ry="5" style="stroke:#000000;stroke-width:2.0;" width="175" x="257.75" y="154.2959"/><text fill="#000000" font-family="Arial" font-size="13" font-weight="bold" lengthAdjust="spacing" textLength="157" x="263.75" y="170.4897">Medikationsplan abrufen</text><rect fill="none" height="38.7476" rx="5" ry="5" style="stroke:#000000;stroke-width:1.5;" width="294" x="147" y="187.2446"/><path d="M152,187.2446 L209,187.2446 L209,193.2446 L199,203.2446 L147,203.2446 L147,192.2446 A5,5 0 0 1 152,187.2446 " fill="#EEEEEE" style="stroke:#000000;stroke-width:2.0;"/><text fill="#000000" font-family="Arial" font-size="13" font-weight="bold" lengthAdjust="spacing" textLength="17" x="160" y="201.4385">ref</text><a href="interactions.html#sequenzdiagramm-plan-read" target="_top" title="interactions.html#sequenzdiagramm-plan-read" xlink:actuate="onRequest" xlink:href="interactions.html#sequenzdiagramm-plan-read" xlink:show="new" xlink:title="interactions.html#sequenzdiagramm-plan-read" xlink:type="simple"><text fill="#0000EE" font-family="Arial" font-size="12" lengthAdjust="spacing" textLength="59" x="264.5" y="218.5005">Plan-Read</text></a><path d="M68,240.9922 L68,269.9922 A5,5 0 0 0 73,274.9922 L275,274.9922 A5,5 0 0 0 280,269.9922 L280,245.9922 L270,235.9922 L73,235.9922 A5,5 0 0 0 68,240.9922 " fill="url(#giex3u3pzqasf0)" style="stroke:#8B95A5;stroke-width:1.0;"/><path d="M270,235.9922 L270,243.4922 A2.5,2.5 0 0 0 272.5,245.9922 L280,245.9922 L270,235.9922 " fill="url(#giex3u3pzqasf0)" style="stroke:#8B95A5;stroke-width:1.0;"/><text fill="#111827" font-family="Arial" font-size="13" lengthAdjust="spacing" textLength="162" x="74" y="253.186">GDA erh&#228;lt Medikationsplan</text><text fill="#111827" font-family="Arial" font-size="13" lengthAdjust="spacing" textLength="191" x="74" y="268.1348">(Auslieferungs-Collection-Bundle)</text><rect fill="#EEEEEE" height="3" rx="5" ry="5" style="stroke:#EEEEEE;stroke-width:1.0;" width="690.5" x="0" y="301.364"/><line style="stroke:#000000;stroke-width:1.0;" x1="0" x2="690.5" y1="301.364" y2="301.364"/><line style="stroke:#000000;stroke-width:1.0;" x1="0" x2="690.5" y1="304.364" y2="304.364"/><rect fill="#EEEEEE" height="22.9487" rx="5" ry="5" style="stroke:#000000;stroke-width:2.0;" width="304" x="193.25" y="290.8896"/><text fill="#000000" font-family="Arial" font-size="13" font-style="italic" font-weight="bold" lengthAdjust="spacing" textLength="115" x="199.25" y="307.0835">Geplante Abgaben</text><text fill="#000000" font-family="Arial" font-size="13" font-weight="bold" lengthAdjust="spacing" textLength="167" x="318.25" y="307.0835">vorbereiten und schreiben</text><polygon fill="#111827" points="363,340.7871,373,344.7871,363,348.7871,367,344.7871" style="stroke:#111827;stroke-width:1.0;"/><line style="stroke:#111827;stroke-width:1.0;" x1="179" x2="369" y1="344.7871" y2="344.7871"/><text fill="#000000" font-family="Arial" font-size="13" font-weight="bold" lengthAdjust="spacing" textLength="7" x="186" y="340.0322">1</text><text fill="#000000" font-family="Arial" font-size="13" lengthAdjust="spacing" textLength="166" x="197" y="340.0322">POST $groupidentifier-create&#8203;</text><path d="M40,362.7871 L40,391.7871 A5,5 0 0 0 45,396.7871 L302,396.7871 A5,5 0 0 0 307,391.7871 L307,367.7871 L297,357.7871 L45,357.7871 A5,5 0 0 0 40,362.7871 " fill="url(#giex3u3pzqasf0)" style="stroke:#8B95A5;stroke-width:1.0;"/><path d="M297,357.7871 L297,365.2871 A2.5,2.5 0 0 0 299.5,367.7871 L307,367.7871 L297,357.7871 " fill="url(#giex3u3pzqasf0)" style="stroke:#8B95A5;stroke-width:1.0;"/><text fill="#111827" font-family="Arial" font-size="13" lengthAdjust="spacing" textLength="246" x="46" y="374.981">e-Med GroupIdentifier f&#252;r "Rezeptklammer"</text><text fill="#111827" font-family="Arial" font-size="13" lengthAdjust="spacing" textLength="53" x="46" y="389.9297">anfordern</text><line style="stroke:#111827;stroke-width:1.0;" x1="385" x2="427" y1="423.6333" y2="423.6333"/><line style="stroke:#111827;stroke-width:1.0;" x1="427" x2="427" y1="423.6333" y2="436.6333"/><line style="stroke:#111827;stroke-width:1.0;" x1="386" x2="427" y1="436.6333" y2="436.6333"/><polygon fill="#111827" points="396,432.6333,386,436.6333,396,440.6333,392,436.6333" style="stroke:#111827;stroke-width:1.0;"/><text fill="#000000" font-family="Arial" font-size="13" font-weight="bold" lengthAdjust="spacing" textLength="7" x="392" y="418.8784">2</text><text fill="#000000" font-family="Arial" font-size="13" lengthAdjust="spacing" textLength="180" x="403" y="418.8784">e-Med GroupIdentifier erzeugen</text><polygon fill="#111827" points="190,461.582,180,465.582,190,469.582,186,465.582" style="stroke:#111827;stroke-width:1.0;"/><line style="stroke:#111827;stroke-width:1.0;stroke-dasharray:2.0,2.0;" x1="184" x2="379" y1="465.582" y2="465.582"/><text fill="#000000" font-family="Arial" font-size="13" font-weight="bold" lengthAdjust="spacing" textLength="7" x="196" y="460.8271">3</text><text fill="#000000" font-family="Arial" font-size="13" lengthAdjust="spacing" textLength="123" x="207" y="460.8271">e-Med GroupIdentifier</text><path d="M42,483.582 L42,527.582 A5,5 0 0 0 47,532.582 L301,532.582 A5,5 0 0 0 306,527.582 L306,488.582 L296,478.582 L47,478.582 A5,5 0 0 0 42,483.582 " fill="url(#giex3u3pzqasf0)" style="stroke:#8B95A5;stroke-width:1.0;"/><path d="M296,478.582 L296,486.082 A2.5,2.5 0 0 0 298.5,488.582 L306,488.582 L296,478.582 " fill="url(#giex3u3pzqasf0)" style="stroke:#8B95A5;stroke-width:1.0;"/><text fill="#111827" font-family="Arial" font-size="13" lengthAdjust="spacing" textLength="48" x="48" y="495.7759">Erstellte</text><text fill="#111827" font-family="Arial" font-size="13" font-style="italic" lengthAdjust="spacing" textLength="109" x="100" y="495.7759">Geplante Abgaben</text><text fill="#111827" font-family="Arial" font-size="13" lengthAdjust="spacing" textLength="74" x="213" y="495.7759">referenzieren</text><text fill="#111827" font-family="Arial" font-size="13" lengthAdjust="spacing" textLength="232" x="48" y="510.7246">zugeh&#246;rige Medikationsplaneintr&#228;ge und</text><text fill="#111827" font-family="Arial" font-size="13" lengthAdjust="spacing" textLength="180" x="48" y="525.6733">enthalten e-Med GroupIdentifier</text><path d="M15,545.4282 L76,545.4282 L76,552.377 L66,562.377 L10,562.377 L10,550.4282 A5,5 0 0 1 15,545.4282 " fill="#EEF2FF" style="stroke:#111827;stroke-width:1.5;"/><rect fill="none" height="583.6729" rx="5" ry="5" style="stroke:#111827;stroke-width:2.0;" width="670.5" x="10" y="545.4282"/><text fill="#000000" font-family="Arial" font-size="13" font-weight="bold" lengthAdjust="spacing" textLength="21" x="25" y="558.6221">par</text><text fill="#000000" font-family="Arial" font-size="11" font-weight="bold" lengthAdjust="spacing" textLength="116" x="91" y="557.7461">[Erstellung e-Rezept]</text><polygon fill="#111827" points="578,579.3257,588,583.3257,578,587.3257,582,583.3257" style="stroke:#111827;stroke-width:1.0;"/><line style="stroke:#111827;stroke-width:1.0;" x1="179" x2="584" y1="583.3257" y2="583.3257"/><text fill="#000000" font-family="Arial" font-size="13" font-weight="bold" lengthAdjust="spacing" textLength="7" x="186" y="578.5708">4</text><text fill="#000000" font-family="Arial" font-size="13" lengthAdjust="spacing" textLength="148" x="197" y="578.5708">Trigger e-Rezept erstellen</text><path d="M78,601.3257 L78,615.3257 A5,5 0 0 0 83,620.3257 L264,620.3257 A5,5 0 0 0 269,615.3257 L269,606.3257 L259,596.3257 L83,596.3257 A5,5 0 0 0 78,601.3257 " fill="url(#giex3u3pzqasf0)" style="stroke:#8B95A5;stroke-width:1.0;"/><path d="M259,596.3257 L259,603.8257 A2.5,2.5 0 0 0 261.5,606.3257 L269,606.3257 L259,596.3257 " fill="url(#giex3u3pzqasf0)" style="stroke:#8B95A5;stroke-width:1.0;"/><text fill="#111827" font-family="Arial" font-size="13" lengthAdjust="spacing" textLength="170" x="84" y="613.5195">Erstellung e-Rezept ausl&#246;sen</text><path d="M25,633.2744 L81,633.2744 L81,640.2231 L71,650.2231 L20,650.2231 L20,638.2744 A5,5 0 0 1 25,633.2744 " fill="#EEF2FF" style="stroke:#111827;stroke-width:1.5;"/><rect fill="none" height="153.3926" rx="5" ry="5" style="stroke:#111827;stroke-width:2.0;" width="640.5" x="20" y="633.2744"/><text fill="#000000" font-family="Arial" font-size="13" font-weight="bold" lengthAdjust="spacing" textLength="16" x="35" y="646.4683">alt</text><text fill="#000000" font-family="Arial" font-size="11" font-weight="bold" lengthAdjust="spacing" textLength="100" x="96" y="645.5923">[e-Rezept erstellt]</text><polygon fill="#111827" points="190,667.1719,180,671.1719,190,675.1719,186,671.1719" style="stroke:#111827;stroke-width:1.0;"/><line style="stroke:#111827;stroke-width:1.0;stroke-dasharray:2.0,2.0;" x1="184" x2="589" y1="671.1719" y2="671.1719"/><text fill="#000000" font-family="Arial" font-size="13" font-weight="bold" lengthAdjust="spacing" textLength="7" x="196" y="666.417">5</text><text fill="#000000" font-family="Arial" font-size="13" lengthAdjust="spacing" textLength="19" x="207" y="666.417">OK</text><line style="stroke:#111827;stroke-width:1.0;stroke-dasharray:2.0,2.0;" x1="20" x2="660.5" y1="680.1719" y2="680.1719"/><text fill="#000000" font-family="Arial" font-size="11" font-weight="bold" lengthAdjust="spacing" textLength="95" x="25" y="690.4897">[e-Rezept Fehler]</text><polygon fill="#111827" points="190,710.7695,180,714.7695,190,718.7695,186,714.7695" style="stroke:#111827;stroke-width:1.0;"/><line style="stroke:#111827;stroke-width:1.0;stroke-dasharray:2.0,2.0;" x1="184" x2="594" y1="714.7695" y2="714.7695"/><text fill="#000000" font-family="Arial" font-size="13" font-weight="bold" lengthAdjust="spacing" textLength="7" x="196" y="710.0146">6</text><text fill="#000000" font-family="Arial" font-size="13" lengthAdjust="spacing" textLength="36" x="207" y="710.0146">Fehler</text><polygon fill="#111827" points="368,739.7183,378,743.7183,368,747.7183,372,743.7183" style="stroke:#111827;stroke-width:1.0;"/><line style="stroke:#111827;stroke-width:1.0;" x1="179" x2="374" y1="743.7183" y2="743.7183"/><text fill="#000000" font-family="Arial" font-size="13" font-weight="bold" lengthAdjust="spacing" textLength="7" x="186" y="738.9634">7</text><text fill="#000000" font-family="Arial" font-size="13" lengthAdjust="spacing" textLength="159" x="197" y="738.9634">POST $prescription-discard&#8203;</text><path d="M30,761.7183 L30,775.7183 A5,5 0 0 0 35,780.7183 L313,780.7183 A5,5 0 0 0 318,775.7183 L318,766.7183 L308,756.7183 L35,756.7183 A5,5 0 0 0 30,761.7183 " fill="url(#giex3u3pzqasf0)" style="stroke:#8B95A5;stroke-width:1.0;"/><path d="M308,756.7183 L308,764.2183 A2.5,2.5 0 0 0 310.5,766.7183 L318,766.7183 L308,756.7183 " fill="url(#giex3u3pzqasf0)" style="stroke:#8B95A5;stroke-width:1.0;"/><text fill="#111827" font-family="Arial" font-size="13" lengthAdjust="spacing" textLength="103" x="36" y="773.9121">Siehe Use Case "</text><text fill="#111827" font-family="Arial" font-size="13" font-style="italic" lengthAdjust="spacing" textLength="102" x="139" y="773.9121">Geplante Abgabe</text><text fill="#111827" font-family="Arial" font-size="13" lengthAdjust="spacing" textLength="58" x="245" y="773.9121">verwerfen"</text><line style="stroke:#111827;stroke-width:1.0;stroke-dasharray:2.0,2.0;" x1="10" x2="680.5" y1="794.667" y2="794.667"/><text fill="#000000" font-family="Arial" font-size="11" font-weight="bold" lengthAdjust="spacing" textLength="133" x="15" y="804.9849">[gleichzeitige Erstellung</text><text fill="#000000" font-family="Arial" font-size="11" font-style="italic" font-weight="bold" lengthAdjust="spacing" textLength="95" x="151" y="804.9849">Geplante Abgabe</text><text fill="#000000" font-family="Arial" font-size="11" font-weight="bold" lengthAdjust="spacing" textLength="4" x="246" y="804.9849">]</text><polygon fill="#111827" points="363,825.2646,373,829.2646,363,833.2646,367,829.2646" style="stroke:#111827;stroke-width:1.0;"/><line style="stroke:#111827;stroke-width:1.0;" x1="179" x2="369" y1="829.2646" y2="829.2646"/><text fill="#000000" font-family="Arial" font-size="13" font-weight="bold" lengthAdjust="spacing" textLength="7" x="186" y="824.5098">8</text><text fill="#000000" font-family="Arial" font-size="13" lengthAdjust="spacing" textLength="144" x="197" y="824.5098">POST $prescription-write</text><path d="M46,847.2646 L46,876.2646 A5,5 0 0 0 51,881.2646 L297,881.2646 A5,5 0 0 0 302,876.2646 L302,852.2646 L292,842.2646 L51,842.2646 A5,5 0 0 0 46,847.2646 " fill="url(#giex3u3pzqasf0)" style="stroke:#8B95A5;stroke-width:1.0;"/><path d="M292,842.2646 L292,849.7646 A2.5,2.5 0 0 0 294.5,852.2646 L302,852.2646 L292,842.2646 " fill="url(#giex3u3pzqasf0)" style="stroke:#8B95A5;stroke-width:1.0;"/><text fill="#111827" font-family="Arial" font-size="13" lengthAdjust="spacing" textLength="196" x="52" y="859.4585">Transaction Bundle mit Geplanten</text><text fill="#111827" font-family="Arial" font-size="13" lengthAdjust="spacing" textLength="235" x="52" y="874.4072">Abgaben an Fachanwendung &#252;bermitteln</text><path d="M135,894.1621 L191,894.1621 L191,901.1108 L181,911.1108 L130,911.1108 L130,899.1621 A5,5 0 0 1 135,894.1621 " fill="#EEF2FF" style="stroke:#111827;stroke-width:1.5;"/><rect fill="none" height="227.939" rx="5" ry="5" style="stroke:#111827;stroke-width:2.0;" width="540.5" x="130" y="894.1621"/><text fill="#000000" font-family="Arial" font-size="13" font-weight="bold" lengthAdjust="spacing" textLength="16" x="145" y="907.356">alt</text><text fill="#000000" font-family="Arial" font-size="11" font-weight="bold" lengthAdjust="spacing" textLength="4" x="206" y="906.48">[</text><text fill="#000000" font-family="Arial" font-size="11" font-style="italic" font-weight="bold" lengthAdjust="spacing" textLength="95" x="210" y="906.48">Geplante Abgabe</text><text fill="#000000" font-family="Arial" font-size="11" font-weight="bold" lengthAdjust="spacing" textLength="44" x="308" y="906.48">erstellt]</text><polygon fill="#111827" points="190,928.0596,180,932.0596,190,936.0596,186,932.0596" style="stroke:#111827;stroke-width:1.0;"/><line style="stroke:#111827;stroke-width:1.0;stroke-dasharray:2.0,2.0;" x1="184" x2="374" y1="932.0596" y2="932.0596"/><text fill="#000000" font-family="Arial" font-size="13" font-weight="bold" lengthAdjust="spacing" textLength="7" x="196" y="927.3047">9</text><text fill="#000000" font-family="Arial" font-size="13" lengthAdjust="spacing" textLength="19" x="207" y="927.3047">OK</text><path d="M267,950.0596 L267,964.0596 A5,5 0 0 0 272,969.0596 L488,969.0596 A5,5 0 0 0 493,964.0596 L493,955.0596 L483,945.0596 L272,945.0596 A5,5 0 0 0 267,950.0596 " fill="url(#giex3u3pzqasf0)" style="stroke:#8B95A5;stroke-width:1.0;"/><path d="M483,945.0596 L483,952.5596 A2.5,2.5 0 0 0 485.5,955.0596 L493,955.0596 L483,945.0596 " fill="url(#giex3u3pzqasf0)" style="stroke:#8B95A5;stroke-width:1.0;"/><text fill="#111827" font-family="Arial" font-size="13" lengthAdjust="spacing" textLength="205" x="273" y="962.2534">Geplante Abgabe 1 + 2 gespeichert</text><line style="stroke:#111827;stroke-width:1.0;stroke-dasharray:2.0,2.0;" x1="130" x2="670.5" y1="976.0083" y2="976.0083"/><text fill="#000000" font-family="Arial" font-size="11" font-weight="bold" lengthAdjust="spacing" textLength="4" x="135" y="986.3262">[</text><text fill="#000000" font-family="Arial" font-size="11" font-style="italic" font-weight="bold" lengthAdjust="spacing" textLength="95" x="139" y="986.3262">Geplante Abgabe</text><text fill="#000000" font-family="Arial" font-size="11" font-weight="bold" lengthAdjust="spacing" textLength="39" x="237" y="986.3262">Fehler]</text><polygon fill="#111827" points="190,1006.606,180,1010.606,190,1014.606,186,1010.606" style="stroke:#111827;stroke-width:1.0;"/><line style="stroke:#111827;stroke-width:1.0;stroke-dasharray:2.0,2.0;" x1="184" x2="374" y1="1010.606" y2="1010.606"/><text fill="#000000" font-family="Arial" font-size="13" font-weight="bold" lengthAdjust="spacing" textLength="14" x="196" y="1005.8511">10</text><text fill="#000000" font-family="Arial" font-size="13" lengthAdjust="spacing" textLength="36" x="214" y="1005.8511">Fehler</text><path d="M145,1025.606 L201,1025.606 L201,1032.5547 L191,1042.5547 L140,1042.5547 L140,1030.606 A5,5 0 0 1 145,1025.606 " fill="#EEF2FF" style="stroke:#111827;stroke-width:1.5;"/><rect fill="none" height="89.4951" rx="5" ry="5" style="stroke:#111827;stroke-width:2.0;" width="520.5" x="140" y="1025.606"/><text fill="#000000" font-family="Arial" font-size="13" font-weight="bold" lengthAdjust="spacing" textLength="16" x="155" y="1038.7998">alt</text><text fill="#000000" font-family="Arial" font-size="11" font-weight="bold" lengthAdjust="spacing" textLength="210" x="216" y="1037.9238">[Geplante Abgabe erneut &#252;bermitteln]</text><polygon fill="#111827" points="368,1059.5034,378,1063.5034,368,1067.5034,372,1063.5034" style="stroke:#111827;stroke-width:1.0;"/><line style="stroke:#111827;stroke-width:1.0;" x1="179" x2="374" y1="1063.5034" y2="1063.5034"/><text fill="#000000" font-family="Arial" font-size="13" font-weight="bold" lengthAdjust="spacing" textLength="14" x="186" y="1058.7485">11</text><text fill="#000000" font-family="Arial" font-size="13" lengthAdjust="spacing" textLength="144" x="204" y="1058.7485">POST $prescription-write</text><line style="stroke:#111827;stroke-width:1.0;stroke-dasharray:2.0,2.0;" x1="140" x2="660.5" y1="1072.5034" y2="1072.5034"/><text fill="#000000" font-family="Arial" font-size="11" font-weight="bold" lengthAdjust="spacing" textLength="129" x="145" y="1082.8213">[Fehler nicht behebbar]</text><polygon fill="#111827" points="583,1103.1011,593,1107.1011,583,1111.1011,587,1107.1011" style="stroke:#111827;stroke-width:1.0;"/><line style="stroke:#111827;stroke-width:1.0;" x1="174" x2="589" y1="1107.1011" y2="1107.1011"/><text fill="#000000" font-family="Arial" font-size="13" font-weight="bold" lengthAdjust="spacing" textLength="14" x="181" y="1102.3462">12</text><text fill="#000000" font-family="Arial" font-size="13" lengthAdjust="spacing" textLength="269" x="199" y="1102.3462">e-Rezept von e-Med GroupIdentifier entkoppeln</text><!--SRC=[ZLVDRjj64BxpAQPIWIPerOfKP5j6742E9JT84mcoaaFJm5YI8t4XQiaiLrQZea3lVOqyGqwvwKtw99rTKXJ_b9Q63N9dTkQRRtvshRWA4Mun3fbG24DtoLo4nVwB11SJXG4A7-4L-dp558z4eXMH2oNtdvO8A4ad357y9juooLCRb_0saipjZEIQAnLkn19yJE1MHfluXOz2yGMdZV1eZ468Si72yB5bVPUik8YPP6jWdehadVf8oDWMasYDbdMKkf7qKJwFmaX2kskUefHvgoLv4dwciUZhdu964Z0_sd92HPuJB4YoRLAW1BjerCS5suHg70drcgqHMaEADMmLCHTKxlWEmNxIlFyKxfy_nYX3BbO5XT6eIU4DPKI_O0t_TVJxbFc-3itfbjUlYwJrpLFaL4IKk3yiWEigVTZ5_gBRQVksFy0phL6qTE4E-goVhyu3xgq49WdOj3OhqDcbxmCsRQL0XMtR5yuvhTrL4lDd4M627pOel1Jbb4d5FHvJlJK5LbQe5OHvoahrpDJ4XwoM10Mw0OPIHjjgK6Qnp8jPQlAO2r9VFLeoJLEACRUSYchvmeLZeYliFBftDAdVK3dgyda- -MKokx-z6TxRG4_RxfzrBvoBReE2OnG6PsVTyvkQmdGuVp5wFTSM1cVNpfEQmd0w0VEqk-F1wAO_g2gCNerkxiT3Ki31kTDpNB-gS3yR_JgQpg7j-RtpdiC6rJ0cBw7am-bNJSncavbH60tExPxJemQmpAI1b0AMG8lUm6uLcR7YOxO1QH1gd5eLE_G1us6h74DP_tw6EunLjY7zQ5LY8XGR5OdDsaLfMLTNrMaBp9MR1GgukZA0-GEZPaqn5u5AN43qW5auF-HWB-7TEnhOAFLUilbZeDPXE-sddS_PajfhtT6UEXAP3rFzDgEtz-yjomo6erLB4uGos7yALGsdzMYuIKAE2vGqyvCELMI8ncVdcWeqnCSMdIPcrfWud_9dbOD7FFs9FuE7I18Lo1N5JFiWyGBwSZC6qi0xpmxnNS9qSZU7RtKNn3m_NZeU1QFmdx_-XdeKQUug1r9wwhNI9Ar28WLbos9YONf85B3dIJXGNAw0mseHOxD7b3lSB54Sjz0U0_743il7glDwTAFqKAR5KmnBdIFAFjT_mTeHXc3_MVBbLuvwoWHHe08MwhmqepjIH5q06Gvz_XzgtzA3AKzWrXsNC2VNIyr7fdQyLv3-CU13DrNw1w3A03Jv1aRLkV-S6AD7fEGWLCSXKeMWB3qpSjU514rU6f4sHgTLQShaHj8RpaaJgHYCl9ZPJDMidwhtM6BYIHwR_l9vuZ7fKxKVC3MHGaSifniTlD5m6VrfrGiaxK2KMxgOeMYbq0zacLVBCl4kG-HUiACsrMLJuBlPPZdpNmbbAxdnz1zDrXJVN3AHf5CEqea3T0FDRxSwxraN08shCVC29hOKaKQz_q8pHzzNCIpLXo6pL24dE2lNIxsVgLmgQJaqS7fkLU_WDdmF3YmnYJNFA5Kv5KrbTm9PiGZhk3Af4PVYh0AY6OWRLINgVvTecjSKHHLurWU20bNqVqU0hijaPhnXubMzvdCaxxk7I9mQkKAjeZW-WY_OJorQ1wApSjU__m80]--></g></svg>