<svg xmlns="http://www.w3.org/2000/svg" xmlns:xlink="http://www.w3.org/1999/xlink" contentStyleType="text/css" data-diagram-type="SEQUENCE" height="476px" preserveAspectRatio="none" style="width:798px;height:476px;background:#F5F5F5;" version="1.1" viewBox="0 0 798 476" width="798px" zoomAndPan="magnify"><?plantuml 1.2026.7beta1?><defs><linearGradient id="gta8tq5zy9hfp0" x1="50%" x2="50%" y1="0%" y2="100%"><stop offset="0%" stop-color="#E0E5F0"/><stop offset="100%" stop-color="#D1D9E6"/></linearGradient></defs><g><rect fill="#F5F5F5" height="476" style="stroke:none;stroke-width:1;" width="798" x="0" y="0"/><g class="title" data-source-line="1"><text fill="#000000" font-family="'Arial'" font-size="14" font-weight="700" lengthAdjust="spacing" textLength="433.043" x="179.2322" y="27.9951">Leerer Medikationsplan (keine Medikation einnehmen)</text></g><g><title>GDA 1</title><rect fill="#0078D4" fill-opacity="0.37647" height="226.5234" style="stroke:#181818;stroke-width:1;" width="10" x="29.2817" y="149.7266"/></g><g><title>e-Med FA</title><rect fill="#F5A403" fill-opacity="0.37647" height="226.5234" style="stroke:#181818;stroke-width:1;" width="10" x="292.1665" y="149.7266"/></g><g class="participant-lifeline" data-entity-uid="part1" data-qualified-name="GDA_1" data-source-line="50" id="part1-lifeline"><g><title>GDA 1</title><rect fill="#000000" fill-opacity="0.00000" height="275.6563" width="8" x="30.2817" y="118.5938"/><line style="stroke:#181818;stroke-width:0.5;stroke-dasharray:5,5;" x1="34" x2="34" y1="118.5938" y2="394.25"/></g></g><g class="participant-lifeline" data-entity-uid="part2" data-qualified-name="eMed_FA" data-source-line="51" id="part2-lifeline"><g><title>e-Med FA</title><rect fill="#000000" fill-opacity="0.00000" height="275.6563" width="8" x="293.1665" y="118.5938"/><line style="stroke:#181818;stroke-width:0.5;stroke-dasharray:5,5;" x1="296.5044" x2="296.5044" y1="118.5938" y2="394.25"/></g></g><g class="participant-lifeline" data-entity-uid="part3" data-qualified-name="GDA_2" data-source-line="52" id="part3-lifeline"><g><title>GDA 2</title><rect fill="#000000" fill-opacity="0.00000" height="275.6563" width="8" x="692.8496" y="118.5938"/><line style="stroke:#181818;stroke-width:0.5;stroke-dasharray:5,5;" x1="696.5679" x2="696.5679" y1="118.5938" y2="394.25"/></g></g><g class="participant-lifeline" data-entity-uid="part4" data-qualified-name="Patient" data-source-line="53" id="part4-lifeline"><g><title>Patient</title><rect fill="#000000" fill-opacity="0.00000" height="275.6563" width="8" x="755.8193" y="118.5938"/><line style="stroke:#181818;stroke-width:0.5;stroke-dasharray:5,5;" x1="759.1313" x2="759.1313" y1="118.5938" y2="394.25"/></g></g><g class="participant participant-head" data-entity-uid="part1" data-qualified-name="GDA_1" data-source-line="50" id="part1-head"><text fill="#000000" font-family="'Arial'" font-size="14" lengthAdjust="spacing" textLength="44.5635" x="9" y="115.292">GDA 1</text><ellipse cx="34.2817" cy="50.7969" fill="#0078D4" fill-opacity="0.37647" rx="8" ry="8" style="stroke:#181818;stroke-width:0.5;"/><path d="M34.2817,58.7969 L34.2817,85.7969 M21.2817,66.7969 L47.2817,66.7969 M34.2817,85.7969 L21.2817,100.7969 M34.2817,85.7969 L47.2817,100.7969" fill="none" style="stroke:#181818;stroke-width:0.5;"/></g><g class="participant participant-tail" data-entity-uid="part1" data-qualified-name="GDA_1" data-source-line="50" id="part1-tail"><text fill="#000000" font-family="'Arial'" font-size="14" lengthAdjust="spacing" textLength="44.5635" x="9" y="406.2451">GDA 1</text><ellipse cx="34.2817" cy="418.0469" fill="#0078D4" fill-opacity="0.37647" rx="8" ry="8" style="stroke:#181818;stroke-width:0.5;"/><path d="M34.2817,426.0469 L34.2817,453.0469 M21.2817,434.0469 L47.2817,434.0469 M34.2817,453.0469 L21.2817,468.0469 M34.2817,453.0469 L47.2817,468.0469" fill="none" style="stroke:#181818;stroke-width:0.5;"/></g><g class="participant participant-head" data-entity-uid="part2" data-qualified-name="eMed_FA" data-source-line="51" id="part2-head"><rect fill="#F5A403" fill-opacity="0.37647" height="30.2969" rx="5" ry="5" style="stroke:#555555;stroke-width:0.5;" width="79.3242" x="257.5044" y="87.2969"/><text fill="#000000" font-family="'Arial'" font-size="14" lengthAdjust="spacing" textLength="65.3242" x="264.5044" y="107.292">e-Med FA</text></g><g class="participant participant-tail" data-entity-uid="part2" data-qualified-name="eMed_FA" data-source-line="51" id="part2-tail"><rect fill="#F5A403" fill-opacity="0.37647" height="30.2969" rx="5" ry="5" style="stroke:#555555;stroke-width:0.5;" width="79.3242" x="257.5044" y="393.25"/><text fill="#000000" font-family="'Arial'" font-size="14" lengthAdjust="spacing" textLength="65.3242" x="264.5044" y="413.2451">e-Med FA</text></g><g class="participant participant-head" data-entity-uid="part3" data-qualified-name="GDA_2" data-source-line="52" id="part3-head"><text fill="#000000" font-family="'Arial'" font-size="14" lengthAdjust="spacing" textLength="44.5635" x="671.5679" y="115.292">GDA 2</text><ellipse cx="696.8496" cy="50.7969" fill="#8764B8" fill-opacity="0.37647" rx="8" ry="8" style="stroke:#181818;stroke-width:0.5;"/><path d="M696.8496,58.7969 L696.8496,85.7969 M683.8496,66.7969 L709.8496,66.7969 M696.8496,85.7969 L683.8496,100.7969 M696.8496,85.7969 L709.8496,100.7969" fill="none" style="stroke:#181818;stroke-width:0.5;"/></g><g class="participant participant-tail" data-entity-uid="part3" data-qualified-name="GDA_2" data-source-line="52" id="part3-tail"><text fill="#000000" font-family="'Arial'" font-size="14" lengthAdjust="spacing" textLength="44.5635" x="671.5679" y="406.2451">GDA 2</text><ellipse cx="696.8496" cy="418.0469" fill="#8764B8" fill-opacity="0.37647" rx="8" ry="8" style="stroke:#181818;stroke-width:0.5;"/><path d="M696.8496,426.0469 L696.8496,453.0469 M683.8496,434.0469 L709.8496,434.0469 M696.8496,453.0469 L683.8496,468.0469 M696.8496,453.0469 L709.8496,468.0469" fill="none" style="stroke:#181818;stroke-width:0.5;"/></g><g class="participant participant-head" data-entity-uid="part4" data-qualified-name="Patient" data-source-line="53" id="part4-head"><text fill="#000000" font-family="'Arial'" font-size="14" lengthAdjust="spacing" textLength="49.376" x="732.1313" y="115.292">Patient</text><ellipse cx="759.8193" cy="50.7969" fill="#009505" fill-opacity="0.37647" rx="8" ry="8" style="stroke:#181818;stroke-width:0.5;"/><path d="M759.8193,58.7969 L759.8193,85.7969 M746.8193,66.7969 L772.8193,66.7969 M759.8193,85.7969 L746.8193,100.7969 M759.8193,85.7969 L772.8193,100.7969" fill="none" style="stroke:#181818;stroke-width:0.5;"/></g><g class="participant participant-tail" data-entity-uid="part4" data-qualified-name="Patient" data-source-line="53" id="part4-tail"><text fill="#000000" font-family="'Arial'" font-size="14" lengthAdjust="spacing" textLength="49.376" x="732.1313" y="406.2451">Patient</text><ellipse cx="759.8193" cy="418.0469" fill="#009505" fill-opacity="0.37647" rx="8" ry="8" style="stroke:#181818;stroke-width:0.5;"/><path d="M759.8193,426.0469 L759.8193,453.0469 M746.8193,434.0469 L772.8193,434.0469 M759.8193,453.0469 L746.8193,468.0469 M759.8193,453.0469 L772.8193,468.0469" fill="none" style="stroke:#181818;stroke-width:0.5;"/></g><g><title>GDA 1</title><rect fill="#0078D4" fill-opacity="0.37647" height="226.5234" style="stroke:#181818;stroke-width:1;" width="10" x="29.2817" y="149.7266"/></g><g><title>e-Med FA</title><rect fill="#F5A403" fill-opacity="0.37647" height="226.5234" style="stroke:#181818;stroke-width:1;" width="10" x="292.1665" y="149.7266"/></g><g class="message" data-entity-1="part1" data-entity-2="part2" data-source-line="57" id="msg1"><polygon fill="#111827" points="280.1665,145.7266,290.1665,149.7266,280.1665,153.7266,284.1665,149.7266" style="stroke:#111827;stroke-width:1;stroke-linejoin:miter;stroke-miterlimit:10;"/><line style="stroke:#111827;stroke-width:1;" x1="39.2817" x2="286.1665" y1="149.7266" y2="149.7266"/><text fill="#000000" font-family="'Arial'" font-size="13" font-weight="700" lengthAdjust="spacing" textLength="9.0454" x="46.2817" y="144.6606">1</text><text fill="#000000" font-family="'Arial'" font-size="13" lengthAdjust="spacing" textLength="108.9893" x="59.3271" y="144.6606">POST $plan-read</text></g><path d="M5,167.7266 L5,199.7266 A5,5 0 0 0 10,204.7266 L322,204.7266 A5,5 0 0 0 327,199.7266 L327,172.7266 L317,162.7266 L10,162.7266 A5,5 0 0 0 5,167.7266" fill="url(#gta8tq5zy9hfp0)" style="stroke:#8B95A5;stroke-width:1;"/><path d="M317,162.7266 L317,170.2266 A2.5,2.5 0 0 0 319.5,172.7266 L327,172.7266 L317,162.7266" fill="url(#gta8tq5zy9hfp0)" style="stroke:#8B95A5;stroke-width:1;"/><text fill="#111827" font-family="'Arial'" font-size="14" lengthAdjust="spacing" textLength="177.9053" x="56.1213" y="180.7217">Medikationsplan abrufen,</text><text fill="#111827" font-family="'Arial'" font-size="14" lengthAdjust="spacing" textLength="211.5859" x="56.1213" y="197.0186">mit der Intention zu schreiben</text><g class="message" data-entity-1="part2" data-entity-2="part2" data-source-line="66" id="msg2"><line style="stroke:#111827;stroke-width:1;" x1="302.1665" x2="344.1665" y1="246.5859" y2="246.5859"/><line style="stroke:#111827;stroke-width:1;" x1="344.1665" x2="344.1665" y1="246.5859" y2="259.5859"/><line style="stroke:#111827;stroke-width:1;" x1="303.1665" x2="344.1665" y1="259.5859" y2="259.5859"/><polygon fill="#111827" points="313.1665,255.5859,303.1665,259.5859,313.1665,263.5859,309.1665,259.5859" style="stroke:#111827;stroke-width:1;stroke-linejoin:miter;stroke-miterlimit:10;"/><text fill="#000000" font-family="'Arial'" font-size="13" font-weight="700" lengthAdjust="spacing" textLength="9.0454" x="309.1665" y="233.9536">2</text><text fill="#000000" font-family="'Arial'" font-size="13" lengthAdjust="spacing" textLength="164.8613" x="322.2119" y="226.3872">Pr&#252;fung auf bestehenden</text><text fill="#000000" font-family="'Arial'" font-size="13" lengthAdjust="spacing" textLength="106.3169" x="322.2119" y="241.52">Medikationsplan</text></g><g class="message" data-entity-1="part2" data-entity-2="part2" data-source-line="68" id="msg3"><line style="stroke:#111827;stroke-width:1;" x1="302.1665" x2="344.1665" y1="318.9844" y2="318.9844"/><line style="stroke:#111827;stroke-width:1;" x1="344.1665" x2="344.1665" y1="318.9844" y2="331.9844"/><line style="stroke:#111827;stroke-width:1;" x1="303.1665" x2="344.1665" y1="331.9844" y2="331.9844"/><polygon fill="#111827" points="313.1665,327.9844,303.1665,331.9844,313.1665,335.9844,309.1665,331.9844" style="stroke:#111827;stroke-width:1;stroke-linejoin:miter;stroke-miterlimit:10;"/><text fill="#000000" font-family="'Arial'" font-size="13" font-weight="700" lengthAdjust="spacing" textLength="9.0454" x="309.1665" y="298.7856">3</text><text fill="#000000" font-family="'Arial'" font-size="13" lengthAdjust="spacing" textLength="158.2026" x="322.2119" y="283.6528">Wenn Plan vorhanden +</text><text fill="#000000" font-family="'Arial'" font-size="13" lengthAdjust="spacing" textLength="342.7734" x="322.2119" y="298.7856">alle List.enty.flags im Medikationsplan = "removed":</text><text fill="#000000" font-family="'Arial'" font-size="13" lengthAdjust="spacing" textLength="352.6377" x="322.2119" y="313.9185">Fachanwendung setzt List.emptyReason = "nilknown"</text></g><g class="message" data-entity-1="part2" data-entity-2="part1" data-source-line="70" id="msg4"><polygon fill="#111827" points="45.2817,372.25,35.2817,376.25,45.2817,380.25,41.2817,376.25" style="stroke:#111827;stroke-width:1;stroke-linejoin:miter;stroke-miterlimit:10;"/><line style="stroke:#111827;stroke-width:1;" x1="39.2817" x2="296.1665" y1="376.25" y2="376.25"/><text fill="#000000" font-family="'Arial'" font-size="13" font-weight="700" lengthAdjust="spacing" textLength="9.0454" x="51.2817" y="363.6177">4</text><text fill="#000000" font-family="'Arial'" font-size="13" lengthAdjust="spacing" textLength="152.3755" x="64.3271" y="356.0513">Leerer Medikationsplan</text><text fill="#000000" font-family="'Arial'" font-size="13" lengthAdjust="spacing" textLength="215.8394" x="64.3271" y="371.1841">(List.emptyReason = "nilknown")</text></g><?plantuml-src VLLTRvim57tdLzpHFMnQMm4DILffav8KkcfjWz9CawP8aHCkZHKmcJ7Dscd_R6_xOxC9ISr7PrxW-lZSSu_njQ0YHhX1vCZX5aEw9eAcBDl4XC6xDLA6MXZaDyDLWkozOMHhoZQ4amGMAG-HZz8uvN1a5KEV9Slr0qzp5fQ8o5MFXiXM94otb3r0HE8CjPbo6MTIdQsJXXYHF1P-oiGTIH3C0QSaDjiHz_GPmUwqJxuc-_FJ1dbCsLe3U5uRu2iBYnTio1-cFmCIXgeonwh6XxfdRZ5qIrag47uP0CEwUsYX6radHw4TdcDN8NIc_kBS9UuXEbtHvPfXbe4jOnFDJKj-xxKf5iqAsxRxJa_6xclxybjNcE6F7Dbofp8WND0btH0csWgh0Xh_Gp6geEREDARtkrgPqEm6672URkj55S6gBqMeBUDXOfVhJ8QkfF9DfSO3yswgiLyOEKLrsigNz8uozOty7TNlCnhVZ2Vpgyl1t0Ovf8vU_xBJjLe0JW7ezxgTORy120RJQ-zkMZ2SkvRR00o2CK2POjWRdJK0tgrtEVS7e0uhwLWjWFd4--u5KpZoUfs-svM06cBy1SeShkLrVTznwnIJoNXI07o_FxAiCta0o598ptOEa0nC-GQsgHjZR5us6r2s9YLJGV54Ve0_CAibQ9JEWTBHAPqI4iWMXv9KWSftisger9UBbEN90hbXx5IUVDghk81WV3-5jwfrdd0aeUAbZqGUv1rKhy8e3dZwY6MrntiMezw4oOBd4R9Z8w52zYqErqn8QQeRF-UGBLSSwGAPWImikeRnadPlJzMGVRIYdF_z4-Not90yWWLc0bUI3zcCrUGOhSk_8MCGABMFALyHjH8-p1Y9rTr2Ct4g1J-THZ5vo80cZNlc8vWS4sb6Q5xCc4-Mac8hyoj16OfdKP8a6_4qGPAbnH96upLBjyoiQ2hSl7ZbHfknT_zbahTQY7Nxz531_Wy0?></g></svg>