<svg xmlns="http://www.w3.org/2000/svg" xmlns:xlink="http://www.w3.org/1999/xlink" version="1.1" data-diagram-type="SEQUENCE" style="width:512px;height:573px;background:#F5F5F5;" width="512px" height="573px" viewBox="0 0 512 573" zoomAndPan="magnify" preserveAspectRatio="none" contentStyleType="text/css"><?plantuml 1.2026.7beta6?><defs><linearGradient x1="50%" y1="0%" x2="50%" y2="100%" id="g1et59lctwqocf0"><stop stop-color="#E0E5F0" offset="0%"/><stop stop-color="#D1D9E6" offset="100%"/></linearGradient></defs><g font-family="sans-serif" lengthAdjust="spacing"><rect x="0" y="0" width="512" height="573" fill="#F5F5F5" style="stroke:none;"/><g class="title" data-source-line="1"><text x="183.499" y="27.995" fill="#000" font-size="14" textLength="143.028" font-weight="700" font-family="'Arial'">Plan-History-Read</text></g><path d="M24.282,265.125 L343.947,265.125 A5,5 0 0 1 348.947,270.125 L348.947,332.391 L19.282,332.391 L19.282,270.125 A5,5 0 0 1 24.282,265.125" fill="#0F9ED5" fill-opacity="0.145"/><path d="M19.282,332.391 L348.947,332.391 L348.947,376.328 A5,5 0 0 1 343.947,381.328 L24.282,381.328 A5,5 0 0 1 19.282,376.328 L19.282,332.391" fill="#E97132" fill-opacity="0.208"/><g><title>GDA 1</title><rect x="31.782" y="123.594" width="8" height="362.266" fill="#000" fill-opacity="0"/><line x1="35.282" y1="123.594" x2="35.282" y2="485.859" style="stroke:#181818;stroke-width:0.5;stroke-dasharray:5,5;"/></g><g><title></title><rect x="30.282" y="195.859" width="10" height="177.469" fill="#156082" fill-opacity="0.502" style="stroke:#181818;stroke-width:1;"/></g><g><title>e-Med FA</title><rect x="329.447" y="123.594" width="8" height="362.266" fill="#000" fill-opacity="0"/><line x1="332.947" y1="123.594" x2="332.947" y2="485.859" style="stroke:#181818;stroke-width:0.5;stroke-dasharray:5,5;"/></g><g><title></title><rect x="327.947" y="195.859" width="10" height="177.469" fill="#E97232" fill-opacity="0.741" style="stroke:#181818;stroke-width:1;"/></g><text x="10" y="120.292" fill="#000" font-size="14" textLength="44.563" font-family="'Arial'">GDA 1</text><ellipse cx="35.282" cy="55.797" rx="8" ry="8" fill="#156082" fill-opacity="0.502" style="stroke:#181818;stroke-width:0.5;"/><path d="M35.282,63.797 L35.282,90.797 M22.282,71.797 L48.282,71.797 M35.282,90.797 L22.282,105.797 M35.282,90.797 L48.282,105.797" style="stroke:#181818;stroke-width:0.5;" fill="none"/><rect x="293.285" y="92.297" width="79.324" height="30.297" fill="#E97232" fill-opacity="0.741" style="stroke:#555;stroke-width:0.5;" rx="5" ry="5"/><text x="300.285" y="112.292" fill="#000" font-size="14" textLength="65.324" font-family="'Arial'">e-Med FA</text><text x="10" y="498.854" fill="#000" font-size="14" textLength="44.563" font-family="'Arial'">GDA 1</text><ellipse cx="35.282" cy="510.656" rx="8" ry="8" fill="#156082" fill-opacity="0.502" style="stroke:#181818;stroke-width:0.5;"/><path d="M35.282,518.656 L35.282,545.656 M22.282,526.656 L48.282,526.656 M35.282,545.656 L22.282,560.656 M35.282,545.656 L48.282,560.656" style="stroke:#181818;stroke-width:0.5;" fill="none"/><rect x="293.285" y="485.859" width="79.324" height="30.297" fill="#E97232" fill-opacity="0.741" style="stroke:#555;stroke-width:0.5;" rx="5" ry="5"/><text x="300.285" y="505.854" fill="#000" font-size="14" textLength="65.324" font-family="'Arial'">e-Med FA</text><rect x="10" y="152.16" width="491.026" height="3" fill="#EEE" style="stroke:#EEE;stroke-width:1;" rx="5" ry="5"/><line x1="10" y1="152.16" x2="501.026" y2="152.16" style="stroke:#000;stroke-width:1;"/><line x1="10" y1="155.16" x2="501.026" y2="155.16" style="stroke:#000;stroke-width:1;"/><rect x="163.788" y="141.594" width="183.451" height="23.133" fill="#EEE" style="stroke:#000;stroke-width:2;" rx="5" ry="5"/><text x="169.788" y="157.661" fill="#000" font-size="13" textLength="164.925" font-weight="700" font-family="'Arial'">Medikationsplan lesen</text><polygon points="315.947,191.859,325.947,195.859,315.947,199.859,319.947,195.859" fill="#111827" style="stroke:#111827;stroke-width:1;stroke-linejoin:miter;stroke-miterlimit:10;"/><line x1="40.282" y1="195.859" x2="321.947" y2="195.859" style="stroke:#111827;stroke-width:1;"/><text x="47.282" y="190.793" fill="#000" font-size="13" font-weight="700" font-family="'Arial'">1</text><text x="60.327" y="190.793" fill="#000" font-size="13" textLength="255.62" font-family="'Arial'">GET Medikationsplan-Collection-Bundle</text><line x1="337.947" y1="240.125" x2="379.947" y2="240.125" style="stroke:#111827;stroke-width:1;"/><line x1="379.947" y1="240.125" x2="379.947" y2="253.125" style="stroke:#111827;stroke-width:1;"/><line x1="338.947" y1="253.125" x2="379.947" y2="253.125" style="stroke:#111827;stroke-width:1;"/><polygon points="348.947,249.125,338.947,253.125,348.947,257.125,344.947,253.125" fill="#111827" style="stroke:#111827;stroke-width:1;stroke-linejoin:miter;stroke-miterlimit:10;"/><text x="344.947" y="227.493" fill="#000" font-size="13" font-weight="700" font-family="'Arial'">2</text><text x="357.993" y="219.926" fill="#000" font-size="13" textLength="79.168" font-family="'Arial'">Existiert der</text><text x="357.993" y="235.059" fill="#000" font-size="13" textLength="113.217" font-family="'Arial'">Medikationsplan?</text><path d="M24.282,265.125 L83.725,265.125 L83.725,272.258 L73.725,282.258 L19.282,282.258 L19.282,270.125 A5,5 0 0 1 24.282,265.125" style="stroke:#111827;stroke-width:1.5;" fill="#EEF2FF"/><rect x="19.282" y="265.125" width="329.666" height="116.203" fill="none" style="stroke:#111827;stroke-width:2;" rx="5" ry="5"/><text x="34.282" y="278.192" fill="#000" font-size="13" textLength="19.443" font-weight="700" font-family="'Arial'">alt</text><text x="98.725" y="277.335" fill="#000" font-size="11" textLength="182.939" font-weight="700" font-family="'Arial'">[Medikationsplan vorhanden]</text><line x1="19.282" y1="332.391" x2="348.947" y2="332.391" style="stroke:#111827;stroke-width:1;stroke-dasharray:2,2;"/><text x="24.282" y="344.601" fill="#000" font-size="11" textLength="213.146" font-weight="700" font-family="'Arial'">[kein Medikationsplan vorhanden]</text><polygon points="51.282,309.391,41.282,313.391,51.282,317.391,47.282,313.391" fill="#111827" style="stroke:#111827;stroke-width:1;stroke-linejoin:miter;stroke-miterlimit:10;"/><line x1="45.282" y1="313.391" x2="326.947" y2="313.391" style="stroke:#111827;stroke-width:1;"/><text x="57.282" y="308.325" fill="#000" font-size="13" font-weight="700" font-family="'Arial'">3</text><text x="70.327" y="308.325" fill="#000" font-size="13" textLength="225.259" font-family="'Arial'">Medikationsplan-Collection-Bundle</text><polygon points="51.282,369.328,41.282,373.328,51.282,377.328,47.282,373.328" fill="#111827" style="stroke:#111827;stroke-width:1;stroke-linejoin:miter;stroke-miterlimit:10;"/><line x1="45.282" y1="373.328" x2="326.947" y2="373.328" style="stroke:#111827;stroke-width:1;stroke-dasharray:2,2;"/><text x="57.282" y="368.262" fill="#000" font-size="13" font-weight="700" font-family="'Arial'">4</text><text x="70.327" y="368.262" fill="#000" font-size="13" textLength="100.541" font-family="'Arial'">leeres Ergebnis</text><path d="M169.869,405.328 L169.869,465.328 A5,5 0 0 0 174.869,470.328 L490.869,470.328 A5,5 0 0 0 495.869,465.328 L495.869,410.328 L485.869,400.328 L174.869,400.328 A5,5 0 0 0 169.869,405.328" style="stroke:#8B95A5;stroke-width:1;" fill="url(#g1et59lctwqocf0)"/><path d="M485.869,400.328 L485.869,407.828 A2.5,2.5 0 0 0 488.369,410.328 L495.869,410.328 L485.869,400.328" style="stroke:#8B95A5;stroke-width:1;" fill="url(#g1et59lctwqocf0)"/><text x="175.869" y="417.395" fill="#111827" font-size="13" textLength="301.025" font-family="'Arial'">Die Fachanwendung liefert den angeforderten</text><text x="175.869" y="432.528" fill="#111827" font-size="13" textLength="286.336" font-family="'Arial'">persistierten Medikationsplan (unverändert,</text><text x="175.869" y="447.661" fill="#111827" font-size="13" textLength="274.917" font-family="'Arial'">inkl. aller referenzierten Ressourcen) oder</text><text x="175.869" y="462.793" fill="#111827" font-size="13" textLength="176.109" font-family="'Arial'">ein leeres Ergebnis zurück.</text><?plantuml-src ZLN1Rjf04BtxAwPmQ2kLo3Onu4YqWc2Igar0X5wgIcYn1xB2sQLhEoIf-ZVzZDxoOvqr4DOsbR9Sl3DlPzwysHrIdiO8uvY9nYLFKgaU6nDaaMMzJLPSh9bYTy12ij-aZmHa6qpa7LhMmJkNAa9rBcEfe6xdo_IoSBLKCXFH3h7mzCz09BSiaXikbh1WSOA6PtTC2LJWc44ZNB0iJeTIfDVi3g7MKvp5DPEp0RdXJmZEwV7p_-Dz-RX65NEnCW11S0pmJKJv1rRuz-N3c4MHBisrY_Q-APgNBrDJ8LE4NnP0lomVskWjx4OzSY8VMnfXHkhCVOzvBzRfBGzN0fC47B9D33bjsk-vwIY658xZTDmssMvAZVbjCapmPuOYtB8SCvNoaA-PI8yLLWHKBaI-Yg1gPohkVLSB3aDkW9vISbCkAZSMTSbDnpA-EBQvccIw8ERhGeqlaRUkIhzmuURL6ISFwLqjwXkwZlhwd8--ZYQpYq5lvW2jkkErx8xRiOy0t1pWjrfsUr01Z7lJpy7rL4VmMtttj0BeZKUGhxezz8E1vvS1mLKmc0rx142_xJRTULG6p2R1zs0yXNeODTjDb_dbCaPVe933zSeX9fFH90S4Vjjfkarw05O-QM0h0KkWHb_Wr4nbhFMXsu1N66cU6eeDsi2mLolMe8DcgHJPtHoLPNMxG32-OYcN8bdJs8CO4nJGxLhMDc_Zupxk6Lm4qpA-GOsDCTJxHf_w7ADcpUyPlTXj09FjmRVdMcItjvf9WmSQn1nLIdDA_H2b_9yePfmUL2wNSo_LBQEH9EZE6T5pEcUlA0RfgHTQj48kNfVba2P6L9X0e9Ou5pmXK8H5bOgcNGWB1VtpvCDFtjEKsfi77678Gigu8KH63ppckDWg98299IxoXvNIpgAndEm4n2hnTvcWoCz_zD1EFu150pm-0KOgA50w9egdtT49lL2PgH35Uv041qihKIeDdZBr_3TSdMZk-Tp-1m00?></g></svg>