<?xml version="1.0" encoding="us-ascii" standalone="no"?><svg xmlns="http://www.w3.org/2000/svg" xmlns:xlink="http://www.w3.org/1999/xlink" contentStyleType="text/css" height="542px" preserveAspectRatio="none" style="width:475px;height:542px;background:#F5F5F5;" version="1.1" viewBox="0 0 475 542" width="475px" zoomAndPan="magnify"><defs><linearGradient id="gko7882vuhuxp0" x1="50%" x2="50%" y1="0%" y2="100%"><stop offset="0%" stop-color="#E0E5F0"/><stop offset="100%" stop-color="#D1D9E6"/></linearGradient></defs><g><rect fill="#F5F5F5" height="542" style="stroke:none;stroke-width:1.0;" width="475" x="0" y="0"/><text fill="#000000" font-family="Arial" font-size="14" font-weight="bold" lengthAdjust="spacing" textLength="125" x="171" y="28.1318">Plan-History-Read</text><rect fill="#156082" fill-opacity="0.50196" height="159.0908" style="stroke:#181818;stroke-width:1.0;" width="10" x="39" y="193.2446"/><rect fill="#E97232" fill-opacity="0.74118" height="159.0908" style="stroke:#181818;stroke-width:1.0;" width="10" x="303" y="193.2446"/><rect fill="#0F9ED5" fill-opacity="0.14510" height="95.1934" rx="5" ry="5" style="stroke:#111827;stroke-width:2.0;" width="366" x="10" y="265.1421"/><path d="M10,313.2881 L376,313.2881 L376,355.3354 A5,5 0 0 1 371,360.3354 L15,360.3354 A5,5 0 0 1 10,355.3354 L10,313.2881 " fill="#E97132" fill-opacity="0.20784" style="stroke:none;stroke-width:1.0;"/><line style="stroke:#181818;stroke-width:0.5;stroke-dasharray:5.0,5.0;" x1="44" x2="44" y1="118.1973" y2="461.73"/><line style="stroke:#181818;stroke-width:0.5;stroke-dasharray:5.0,5.0;" x1="308" x2="308" y1="118.1973" y2="461.73"/><text fill="#000000" font-family="Arial" font-size="14" lengthAdjust="spacing" textLength="42" x="20" y="115.2305">GDA 1</text><ellipse cx="44" cy="50.5986" fill="#156082" fill-opacity="0.50196" rx="8" ry="8" style="stroke:#181818;stroke-width:0.5;"/><path d="M44,58.5986 L44,85.5986 M31,66.5986 L57,66.5986 M44,85.5986 L31,100.5986 M44,85.5986 L57,100.5986 " fill="none" style="stroke:#181818;stroke-width:0.5;"/><text fill="#000000" font-family="Arial" font-size="14" lengthAdjust="spacing" textLength="42" x="20" y="473.8618">GDA 1</text><ellipse cx="44" cy="485.3286" fill="#156082" fill-opacity="0.50196" rx="8" ry="8" style="stroke:#181818;stroke-width:0.5;"/><path d="M44,493.3286 L44,520.3286 M31,501.3286 L57,501.3286 M44,520.3286 L31,535.3286 M44,520.3286 L57,535.3286 " fill="none" style="stroke:#181818;stroke-width:0.5;"/><rect fill="#E97232" fill-opacity="0.74118" height="30.0986" rx="5" ry="5" style="stroke:#555555;stroke-width:0.5;" width="76" x="270" y="87.0986"/><text fill="#000000" font-family="Arial" font-size="14" lengthAdjust="spacing" textLength="62" x="277" y="107.2305">e-Med FA</text><rect fill="#E97232" fill-opacity="0.74118" height="30.0986" rx="5" ry="5" style="stroke:#555555;stroke-width:0.5;" width="76" x="270" y="460.73"/><text fill="#000000" font-family="Arial" font-size="14" lengthAdjust="spacing" textLength="62" x="277" y="480.8618">e-Med FA</text><rect fill="#156082" fill-opacity="0.50196" height="159.0908" style="stroke:#181818;stroke-width:1.0;" width="10" x="39" y="193.2446"/><rect fill="#E97232" fill-opacity="0.74118" height="159.0908" style="stroke:#181818;stroke-width:1.0;" width="10" x="303" y="193.2446"/><rect fill="#EEEEEE" height="3" rx="5" ry="5" style="stroke:#EEEEEE;stroke-width:1.0;" width="468" x="0" y="149.2466"/><line style="stroke:#000000;stroke-width:1.0;" x1="0" x2="468" y1="149.2466" y2="149.2466"/><line style="stroke:#000000;stroke-width:1.0;" x1="0" x2="468" y1="152.2466" y2="152.2466"/><rect fill="#EEEEEE" height="24.0986" rx="5" ry="5" style="stroke:#000000;stroke-width:2.0;" width="177" x="145.5" y="138.1973"/><text fill="#000000" font-family="Arial" font-size="14" font-weight="bold" lengthAdjust="spacing" textLength="159" x="151.5" y="155.3291">Medikationsplan lesen</text><polygon fill="#111827" points="291,189.2446,301,193.2446,291,197.2446,295,193.2446" style="stroke:#111827;stroke-width:1.0;"/><line style="stroke:#111827;stroke-width:1.0;" x1="49" x2="297" y1="193.2446" y2="193.2446"/><text fill="#000000" font-family="Arial" font-size="13" font-weight="bold" lengthAdjust="spacing" textLength="7" x="56" y="188.4897">1</text><text fill="#000000" font-family="Arial" font-size="13" lengthAdjust="spacing" textLength="229" x="67" y="188.4897">GET Medikationsplan-Collection-Bundle</text><line style="stroke:#111827;stroke-width:1.0;" x1="313" x2="355" y1="237.1421" y2="237.1421"/><line style="stroke:#111827;stroke-width:1.0;" x1="355" x2="355" y1="237.1421" y2="250.1421"/><line style="stroke:#111827;stroke-width:1.0;" x1="314" x2="355" y1="250.1421" y2="250.1421"/><polygon fill="#111827" points="324,246.1421,314,250.1421,324,254.1421,320,250.1421" style="stroke:#111827;stroke-width:1.0;"/><text fill="#000000" font-family="Arial" font-size="13" font-weight="bold" lengthAdjust="spacing" textLength="7" x="320" y="224.9128">2</text><text fill="#000000" font-family="Arial" font-size="13" lengthAdjust="spacing" textLength="91" x="331" y="217.4385">Existiert bereits</text><text fill="#000000" font-family="Arial" font-size="13" lengthAdjust="spacing" textLength="122" x="331" y="232.3872">ein Medikationsplan?</text><path d="M15,265.1421 L72,265.1421 L72,273.2407 L62,283.2407 L10,283.2407 L10,270.1421 A5,5 0 0 1 15,265.1421 " fill="#EEF2FF" style="stroke:#111827;stroke-width:1.5;"/><rect fill="none" height="95.1934" rx="5" ry="5" style="stroke:#111827;stroke-width:2.0;" width="366" x="10" y="265.1421"/><text fill="#000000" font-family="Arial" font-size="14" font-weight="bold" lengthAdjust="spacing" textLength="17" x="25" y="279.2739">alt</text><text fill="#000000" font-family="Arial" font-size="14" font-weight="bold" lengthAdjust="spacing" textLength="207" x="87" y="280.2739">[Medikationsplan vorhanden]</text><polygon fill="#111827" points="60,301.2881,50,305.2881,60,309.2881,56,305.2881" style="stroke:#111827;stroke-width:1.0;"/><line style="stroke:#111827;stroke-width:1.0;" x1="54" x2="302" y1="305.2881" y2="305.2881"/><text fill="#000000" font-family="Arial" font-size="13" font-weight="bold" lengthAdjust="spacing" textLength="7" x="66" y="300.5332">3</text><text fill="#000000" font-family="Arial" font-size="13" lengthAdjust="spacing" textLength="199" x="77" y="300.5332">Medikationsplan-Collection-Bundle</text><line style="stroke:#111827;stroke-width:1.0;stroke-dasharray:2.0,2.0;" x1="10" x2="376" y1="314.2881" y2="314.2881"/><text fill="#000000" font-family="Arial" font-size="14" font-weight="bold" lengthAdjust="spacing" textLength="241" x="15" y="327.4199">[kein Medikationsplan vorhanden]</text><polygon fill="#111827" points="55,348.3354,45,352.3354,55,356.3354,51,352.3354" style="stroke:#111827;stroke-width:1.0;"/><line style="stroke:#111827;stroke-width:1.0;stroke-dasharray:2.0,2.0;" x1="49" x2="307" y1="352.3354" y2="352.3354"/><text fill="#000000" font-family="Arial" font-size="13" font-weight="bold" lengthAdjust="spacing" textLength="7" x="61" y="347.5806">4</text><text fill="#000000" font-family="Arial" font-size="13" lengthAdjust="spacing" textLength="90" x="72" y="347.5806">leeres Ergebnis</text><path d="M152,377.3354 L152,441.3354 A5,5 0 0 0 157,446.3354 L458,446.3354 A5,5 0 0 0 463,441.3354 L463,382.3354 L453,372.3354 L157,372.3354 A5,5 0 0 0 152,377.3354 " fill="url(#gko7882vuhuxp0)" style="stroke:#8B95A5;stroke-width:1.0;"/><path d="M453,372.3354 L453,379.8354 A2.5,2.5 0 0 0 455.5,382.3354 L463,382.3354 L453,372.3354 " fill="url(#gko7882vuhuxp0)" style="stroke:#8B95A5;stroke-width:1.0;"/><text fill="#111827" font-family="Arial" font-size="14" lengthAdjust="spacing" textLength="240" x="158" y="390.4673">Die Fachanwendung liefert den zuletzt</text><text fill="#111827" font-family="Arial" font-size="14" lengthAdjust="spacing" textLength="286" x="158" y="406.5659">gespeicherten Medikationsplan (unver&#228;ndert,</text><text fill="#111827" font-family="Arial" font-size="14" lengthAdjust="spacing" textLength="266" x="158" y="422.6646">inkl. aller referenzierten Ressourcen) oder</text><text fill="#111827" font-family="Arial" font-size="14" lengthAdjust="spacing" textLength="171" x="158" y="438.7632">ein leeres Ergebnis zur&#252;ck.</text><!--SRC=[ZLLHRzem47xthxZ1mpPfL4aeq5HY4upGJbiBeknbceHCShGMgSqSfxITzc_sC_RMFxPpACK9J9fvYUy-ttttdNqOOLA4SSfburnaHkc7nWHvmjZhR2daYcj-2pmc-vLv821VOwPkaR6TTwvqWlgZIfM6kbSirylZvRLMkKoU4OkM_Jc8x8OdQYtaDInucg7ZUJwc9MhmtQ09BdYUcg6IvfBV8jHwMl2qTXXn9HuH_EF3pd_HFdzOeKw5N3g0A3e4-2gJuWFtwFVL_PWdYQqiyChslgjPgrYkf58PX9yCe5zL3priBRn6FV6J4DiMuKOwcOSjtdgnJcz4l9IOPU2JRUAewT5-oyr6SQJmVVyaw93jgjANNox337_aAECDop7NHiHYnQKvL5WPi7SVYbK6xNTcpxtjQidXo0tGqrgjgqKLnh8kXUbGnXV79bUJJ6V4V5MgyINonhNNBrm4HNNEoLtwm8hwYgwZlJuVHrz6azdPe3VpWLRTRxMza-34Em082a3ORdkTmHvWt9j-YYwdDaBOxWV7Uu3UU0J5gdl3C1gqmYeWkeW6is6F01XsWcOmJwg0sIJw5esdK8-JPgSPyB1QnkWpb784hMg8oMGqAG1HsF6RGPCU02i63Mmau1dKw0lycgiCM-sw3NY1YULfeTYW3GnxjN8DDcXkbCnlvwWPwtQ1O6B9ZL0oMz7KWnGpbD3jChR9stY_ZNiAPz6qYczGOrECxRxHfpwdQ5cBEqulTXF0PRlpRRcMsMsjRjBedkQmG6s0AACmsNU9GbPvVA3OgTcfNIthJkaRJgD9qjrpiXIqJl-ZAAGdNshLyW29mrbsQLAa2ZA8z3NEfSW8b61PhRBfEGH3INz0nH1KTpIjjkQ1G1Zoc3Ak2P7JGqy5BgnIn00UynJDem5sZTaAHNn33jod_2QN5FFfjntRvXqm6k7f4N2gNuEsqL0-YitH2RrHbUiOvLjG10TcDQWKHNdrqvzuUMHP5vERiRy0]--></g></svg>