<?xml version="1.0" encoding="us-ascii" standalone="no"?><svg xmlns="http://www.w3.org/2000/svg" xmlns:xlink="http://www.w3.org/1999/xlink" contentStyleType="text/css" height="993px" preserveAspectRatio="none" style="width:759px;height:993px;background:#F5F5F5;" version="1.1" viewBox="0 0 759 993" width="759px" zoomAndPan="magnify"><defs><linearGradient id="g1ou5njsqa0owk0" x1="50%" x2="50%" y1="0%" y2="100%"><stop offset="0%" stop-color="#E0E5F0"/><stop offset="100%" stop-color="#D1D9E6"/></linearGradient></defs><g><rect fill="#F5F5F5" height="993" style="stroke:none;stroke-width:1.0;" width="759" x="0" y="0"/><text fill="#000000" font-family="Arial" font-size="14" font-weight="bold" lengthAdjust="spacing" textLength="480" x="135.75" y="28.1318">Geplante Abgabe f&#252;r bestehende Medikationsplaneintr&#228;ge erstellen</text><text fill="#000000" font-family="Arial" font-size="14" font-weight="bold" lengthAdjust="spacing" textLength="504" x="123.75" y="44.2305">Variante B: Sequentielles Erstellen von Geplanter Abgabe und e-Rezept</text><rect fill="#156082" fill-opacity="0.50196" height="707.4126" style="stroke:#181818;stroke-width:1.0;" width="10" x="143" y="144.2959"/><rect fill="#E97232" fill-opacity="0.74118" height="195.1895" style="stroke:#181818;stroke-width:1.0;" width="10" x="443" y="437.231"/><rect fill="#CD3732" fill-opacity="0.66275" height="154.3906" style="stroke:#181818;stroke-width:1.0;" width="10" x="672" y="668.3691"/><rect fill="#0F9ED5" fill-opacity="0.14510" height="188.1895" rx="5" ry="5" style="stroke:#111827;stroke-width:2.0;" width="563" x="114" y="452.231"/><path d="M114,593.373 L677,593.373 L677,635.4204 A5,5 0 0 1 672,640.4204 L119,640.4204 A5,5 0 0 1 114,635.4204 L114,593.373 " fill="#E97132" fill-opacity="0.20784" style="stroke:none;stroke-width:1.0;"/><rect fill="#0F9ED5" fill-opacity="0.14510" height="160.2407" rx="5" ry="5" style="stroke:#111827;stroke-width:2.0;" width="628.5" x="114" y="735.5664"/><path d="M114,783.7124 L742.5,783.7124 L742.5,890.8071 A5,5 0 0 1 737.5,895.8071 L119,895.8071 A5,5 0 0 1 114,890.8071 L114,783.7124 " fill="#E97132" fill-opacity="0.20784" style="stroke:none;stroke-width:1.0;"/><line style="stroke:#181818;stroke-width:0.5;stroke-dasharray:5.0,5.0;" x1="148" x2="148" y1="134.2959" y2="912.8071"/><line style="stroke:#181818;stroke-width:0.5;stroke-dasharray:5.0,5.0;" x1="448" x2="448" y1="134.2959" y2="912.8071"/><line style="stroke:#181818;stroke-width:0.5;stroke-dasharray:5.0,5.0;" x1="676.5" x2="676.5" y1="134.2959" y2="912.8071"/><text fill="#000000" font-family="Arial" font-size="14" lengthAdjust="spacing" textLength="42" x="124" y="131.3291">GDA 1</text><ellipse cx="148" cy="66.6973" fill="#156082" fill-opacity="0.50196" rx="8" ry="8" style="stroke:#181818;stroke-width:0.5;"/><path d="M148,74.6973 L148,101.6973 M135,82.6973 L161,82.6973 M148,101.6973 L135,116.6973 M148,101.6973 L161,116.6973 " fill="none" style="stroke:#181818;stroke-width:0.5;"/><text fill="#000000" font-family="Arial" font-size="14" lengthAdjust="spacing" textLength="42" x="124" y="924.939">GDA 1</text><ellipse cx="148" cy="936.4058" fill="#156082" fill-opacity="0.50196" rx="8" ry="8" style="stroke:#181818;stroke-width:0.5;"/><path d="M148,944.4058 L148,971.4058 M135,952.4058 L161,952.4058 M148,971.4058 L135,986.4058 M148,971.4058 L161,986.4058 " fill="none" style="stroke:#181818;stroke-width:0.5;"/><rect fill="#E97232" fill-opacity="0.74118" height="30.0986" rx="5" ry="5" style="stroke:#555555;stroke-width:0.5;" width="76" x="410" y="103.1973"/><text fill="#000000" font-family="Arial" font-size="14" lengthAdjust="spacing" textLength="62" x="417" y="123.3291">e-Med FA</text><rect fill="#E97232" fill-opacity="0.74118" height="30.0986" rx="5" ry="5" style="stroke:#555555;stroke-width:0.5;" width="76" x="410" y="911.8071"/><text fill="#000000" font-family="Arial" font-size="14" lengthAdjust="spacing" textLength="62" x="417" y="931.939">e-Med FA</text><rect fill="#CD3732" fill-opacity="0.66275" height="30.0986" rx="5" ry="5" style="stroke:#555555;stroke-width:0.5;" width="71" x="641.5" y="103.1973"/><text fill="#000000" font-family="Arial" font-size="14" lengthAdjust="spacing" textLength="57" x="648.5" y="123.3291">e-Rezept</text><rect fill="#CD3732" fill-opacity="0.66275" height="30.0986" rx="5" ry="5" style="stroke:#555555;stroke-width:0.5;" width="71" x="641.5" y="911.8071"/><text fill="#000000" font-family="Arial" font-size="14" lengthAdjust="spacing" textLength="57" x="648.5" y="931.939">e-Rezept</text><rect fill="#156082" fill-opacity="0.50196" height="707.4126" style="stroke:#181818;stroke-width:1.0;" width="10" x="143" y="144.2959"/><rect fill="#E97232" fill-opacity="0.74118" height="195.1895" style="stroke:#181818;stroke-width:1.0;" width="10" x="443" y="437.231"/><rect fill="#CD3732" fill-opacity="0.66275" height="154.3906" style="stroke:#181818;stroke-width:1.0;" width="10" x="672" y="668.3691"/><rect fill="#EEEEEE" height="3" rx="5" ry="5" style="stroke:#EEEEEE;stroke-width:1.0;" width="752.5" x="0" y="165.3452"/><line style="stroke:#000000;stroke-width:1.0;" x1="0" x2="752.5" y1="165.3452" y2="165.3452"/><line style="stroke:#000000;stroke-width:1.0;" x1="0" x2="752.5" y1="168.3452" y2="168.3452"/><rect fill="#EEEEEE" height="24.0986" rx="5" ry="5" style="stroke:#000000;stroke-width:2.0;" width="193" x="279.75" y="154.2959"/><text fill="#000000" font-family="Arial" font-size="14" font-weight="bold" lengthAdjust="spacing" textLength="175" x="285.75" y="171.4277">Medikationsplan abrufen</text><rect fill="none" height="42.1973" rx="5" ry="5" style="stroke:#000000;stroke-width:1.5;" width="388" x="121" y="188.3945"/><path d="M126,188.3945 L186,188.3945 L186,196.3945 L176,206.3945 L121,206.3945 L121,193.3945 A5,5 0 0 1 126,188.3945 " fill="#EEEEEE" style="stroke:#000000;stroke-width:2.0;"/><text fill="#000000" font-family="Arial" font-size="14" font-weight="bold" lengthAdjust="spacing" textLength="20" x="134" y="203.5264">ref</text><a href="interactions.html#sequenzdiagramm-plan-read" target="_top" title="interactions.html#sequenzdiagramm-plan-read" xlink:actuate="onRequest" xlink:href="interactions.html#sequenzdiagramm-plan-read" xlink:show="new" xlink:title="interactions.html#sequenzdiagramm-plan-read" xlink:type="simple"><text fill="#0000EE" font-family="Arial" font-size="14" lengthAdjust="spacing" textLength="67" x="281.5" y="223.5264">Plan-Read</text></a><path d="M31,245.5918 L31,277.5918 A5,5 0 0 0 36,282.5918 L259,282.5918 A5,5 0 0 0 264,277.5918 L264,250.5918 L254,240.5918 L36,240.5918 A5,5 0 0 0 31,245.5918 " fill="url(#g1ou5njsqa0owk0)" style="stroke:#8B95A5;stroke-width:1.0;"/><path d="M254,240.5918 L254,248.0918 A2.5,2.5 0 0 0 256.5,250.5918 L264,250.5918 L254,240.5918 " fill="url(#g1ou5njsqa0owk0)" style="stroke:#8B95A5;stroke-width:1.0;"/><text fill="#111827" font-family="Arial" font-size="14" lengthAdjust="spacing" textLength="176" x="37" y="258.7236">GDA erh&#228;lt Medikationsplan</text><text fill="#111827" font-family="Arial" font-size="14" lengthAdjust="spacing" textLength="212" x="37" y="274.8223">(Auslieferungs-Collection-Bundle)</text><rect fill="#EEEEEE" height="3" rx="5" ry="5" style="stroke:#EEEEEE;stroke-width:1.0;" width="752.5" x="0" y="308.8384"/><line style="stroke:#000000;stroke-width:1.0;" x1="0" x2="752.5" y1="308.8384" y2="308.8384"/><line style="stroke:#000000;stroke-width:1.0;" x1="0" x2="752.5" y1="311.8384" y2="311.8384"/><rect fill="#EEEEEE" height="24.0986" rx="5" ry="5" style="stroke:#000000;stroke-width:2.0;" width="342" x="205.25" y="297.7891"/><text fill="#000000" font-family="Arial" font-size="14" font-weight="bold" lengthAdjust="spacing" textLength="324" x="211.25" y="314.9209">Geplante Abgaben vorbereiten und schreiben</text><path d="M5,341.8877 L5,405.8877 A5,5 0 0 0 10,410.8877 L287,410.8877 A5,5 0 0 0 292,405.8877 L292,346.8877 L282,336.8877 L10,336.8877 A5,5 0 0 0 5,341.8877 " fill="url(#g1ou5njsqa0owk0)" style="stroke:#8B95A5;stroke-width:1.0;"/><path d="M282,336.8877 L282,344.3877 A2.5,2.5 0 0 0 284.5,346.8877 L292,346.8877 L282,336.8877 " fill="url(#g1ou5njsqa0owk0)" style="stroke:#8B95A5;stroke-width:1.0;"/><text fill="#111827" font-family="Arial" font-size="14" lengthAdjust="spacing" textLength="51" x="11" y="355.0195">Erstellte</text><text fill="#111827" font-family="Arial" font-size="14" font-style="italic" lengthAdjust="spacing" textLength="119" x="66" y="355.0195">Geplante Abgaben</text><text fill="#111827" font-family="Arial" font-size="14" lengthAdjust="spacing" textLength="84" x="189" y="355.0195">referenzieren</text><text fill="#111827" font-family="Arial" font-size="14" lengthAdjust="spacing" textLength="232" x="11" y="371.1182">zugeh&#246;rige Medikationsplaneintr&#228;ge;</text><text fill="#111827" font-family="Arial" font-size="14" lengthAdjust="spacing" textLength="223" x="11" y="387.2168">groupIdentifier f&#252;r "Rezeptklammer"</text><text fill="#111827" font-family="Arial" font-size="14" lengthAdjust="spacing" textLength="62" x="11" y="403.3154">bleibt leer</text><polygon fill="#111827" points="431,433.231,441,437.231,431,441.231,435,437.231" style="stroke:#111827;stroke-width:1.0;"/><line style="stroke:#111827;stroke-width:1.0;" x1="153" x2="437" y1="437.231" y2="437.231"/><text fill="#000000" font-family="Arial" font-size="13" font-weight="bold" lengthAdjust="spacing" textLength="7" x="160" y="432.4761">1</text><text fill="#000000" font-family="Arial" font-size="13" lengthAdjust="spacing" textLength="225" x="171" y="432.4761">POST Transaction Bundle GeplAbgabe</text><path d="M119,452.231 L176,452.231 L176,460.3296 L166,470.3296 L114,470.3296 L114,457.231 A5,5 0 0 1 119,452.231 " fill="#EEF2FF" style="stroke:#111827;stroke-width:1.5;"/><rect fill="none" height="188.1895" rx="5" ry="5" style="stroke:#111827;stroke-width:2.0;" width="563" x="114" y="452.231"/><text fill="#000000" font-family="Arial" font-size="14" font-weight="bold" lengthAdjust="spacing" textLength="17" x="129" y="466.3628">alt</text><text fill="#000000" font-family="Arial" font-size="14" font-weight="bold" lengthAdjust="spacing" textLength="194" x="191" y="467.3628">[Geplante Abgaben erstellt]</text><line style="stroke:#111827;stroke-width:1.0;" x1="453" x2="495" y1="507.3257" y2="507.3257"/><line style="stroke:#111827;stroke-width:1.0;" x1="495" x2="495" y1="507.3257" y2="520.3257"/><line style="stroke:#111827;stroke-width:1.0;" x1="454" x2="495" y1="520.3257" y2="520.3257"/><polygon fill="#111827" points="464,516.3257,454,520.3257,464,524.3257,460,520.3257" style="stroke:#111827;stroke-width:1.0;"/><text fill="#000000" font-family="Arial" font-size="13" font-weight="bold" lengthAdjust="spacing" textLength="7" x="460" y="495.0964">2</text><text fill="#000000" font-family="Arial" font-size="13" lengthAdjust="spacing" textLength="180" x="471" y="487.6221">e-Med GroupIdentifier erzeugen</text><text fill="#000000" font-family="Arial" font-size="13" lengthAdjust="spacing" textLength="194" x="471" y="502.5708">+ in geplanten Abgaben erg&#228;nzen</text><path d="M325,538.3257 L325,554.3257 A5,5 0 0 0 330,559.3257 L566,559.3257 A5,5 0 0 0 571,554.3257 L571,543.3257 L561,533.3257 L330,533.3257 A5,5 0 0 0 325,538.3257 " fill="url(#g1ou5njsqa0owk0)" style="stroke:#8B95A5;stroke-width:1.0;"/><path d="M561,533.3257 L561,540.8257 A2.5,2.5 0 0 0 563.5,543.3257 L571,543.3257 L561,533.3257 " fill="url(#g1ou5njsqa0owk0)" style="stroke:#8B95A5;stroke-width:1.0;"/><text fill="#111827" font-family="Arial" font-size="14" lengthAdjust="spacing" textLength="225" x="331" y="551.4575">Geplante Abgabe 1 + 2 gespeichert</text><polygon fill="#111827" points="164,581.373,154,585.373,164,589.373,160,585.373" style="stroke:#111827;stroke-width:1.0;"/><line style="stroke:#111827;stroke-width:1.0;stroke-dasharray:2.0,2.0;" x1="158" x2="442" y1="585.373" y2="585.373"/><text fill="#000000" font-family="Arial" font-size="13" font-weight="bold" lengthAdjust="spacing" textLength="7" x="170" y="580.6182">3</text><text fill="#000000" font-family="Arial" font-size="13" lengthAdjust="spacing" textLength="255" x="181" y="580.6182">OK (Ressourcen inkl. e-Med GroupIdentifier)</text><line style="stroke:#111827;stroke-width:1.0;stroke-dasharray:2.0,2.0;" x1="114" x2="677" y1="594.373" y2="594.373"/><text fill="#000000" font-family="Arial" font-size="14" font-weight="bold" lengthAdjust="spacing" textLength="190" x="119" y="607.5049">[Geplante Abgaben Fehler]</text><polygon fill="#111827" points="164,628.4204,154,632.4204,164,636.4204,160,632.4204" style="stroke:#111827;stroke-width:1.0;"/><line style="stroke:#111827;stroke-width:1.0;stroke-dasharray:2.0,2.0;" x1="158" x2="447" y1="632.4204" y2="632.4204"/><text fill="#000000" font-family="Arial" font-size="13" font-weight="bold" lengthAdjust="spacing" textLength="7" x="170" y="627.6655">4</text><text fill="#000000" font-family="Arial" font-size="13" lengthAdjust="spacing" textLength="36" x="181" y="627.6655">Fehler</text><polygon fill="#111827" points="660,664.3691,670,668.3691,660,672.3691,664,668.3691" style="stroke:#111827;stroke-width:1.0;"/><line style="stroke:#111827;stroke-width:1.0;" x1="153" x2="666" y1="668.3691" y2="668.3691"/><text fill="#000000" font-family="Arial" font-size="13" font-weight="bold" lengthAdjust="spacing" textLength="7" x="160" y="663.6143">5</text><text fill="#000000" font-family="Arial" font-size="13" lengthAdjust="spacing" textLength="311" x="171" y="663.6143">Trigger e-Rezept erstellen (inkl. e-Med GroupIdentifier)</text><path d="M38,686.3691 L38,718.3691 A5,5 0 0 0 43,723.3691 L253,723.3691 A5,5 0 0 0 258,718.3691 L258,691.3691 L248,681.3691 L43,681.3691 A5,5 0 0 0 38,686.3691 " fill="url(#g1ou5njsqa0owk0)" style="stroke:#8B95A5;stroke-width:1.0;"/><path d="M248,681.3691 L248,688.8691 A2.5,2.5 0 0 0 250.5,691.3691 L258,691.3691 L248,681.3691 " fill="url(#g1ou5njsqa0owk0)" style="stroke:#8B95A5;stroke-width:1.0;"/><text fill="#111827" font-family="Arial" font-size="14" lengthAdjust="spacing" textLength="153" x="44" y="699.501">Erstellung e-Rezept inkl.</text><text fill="#111827" font-family="Arial" font-size="14" lengthAdjust="spacing" textLength="199" x="44" y="715.5996">e-Med GroupIdentifier ausl&#246;sen</text><path d="M119,735.5664 L176,735.5664 L176,743.665 L166,753.665 L114,753.665 L114,740.5664 A5,5 0 0 1 119,735.5664 " fill="#EEF2FF" style="stroke:#111827;stroke-width:1.5;"/><rect fill="none" height="160.2407" rx="5" ry="5" style="stroke:#111827;stroke-width:2.0;" width="628.5" x="114" y="735.5664"/><text fill="#000000" font-family="Arial" font-size="14" font-weight="bold" lengthAdjust="spacing" textLength="17" x="129" y="749.6982">alt</text><text fill="#000000" font-family="Arial" font-size="14" font-weight="bold" lengthAdjust="spacing" textLength="127" x="191" y="750.6982">[e-Rezept erstellt]</text><polygon fill="#111827" points="164,771.7124,154,775.7124,164,779.7124,160,775.7124" style="stroke:#111827;stroke-width:1.0;"/><line style="stroke:#111827;stroke-width:1.0;stroke-dasharray:2.0,2.0;" x1="158" x2="671" y1="775.7124" y2="775.7124"/><text fill="#000000" font-family="Arial" font-size="13" font-weight="bold" lengthAdjust="spacing" textLength="7" x="170" y="770.9575">6</text><text fill="#000000" font-family="Arial" font-size="13" lengthAdjust="spacing" textLength="19" x="181" y="770.9575">OK</text><line style="stroke:#111827;stroke-width:1.0;stroke-dasharray:2.0,2.0;" x1="114" x2="742.5" y1="784.7124" y2="784.7124"/><text fill="#000000" font-family="Arial" font-size="14" font-weight="bold" lengthAdjust="spacing" textLength="123" x="119" y="797.8442">[e-Rezept Fehler]</text><polygon fill="#111827" points="164,818.7598,154,822.7598,164,826.7598,160,822.7598" style="stroke:#111827;stroke-width:1.0;"/><line style="stroke:#111827;stroke-width:1.0;stroke-dasharray:2.0,2.0;" x1="158" x2="676" y1="822.7598" y2="822.7598"/><text fill="#000000" font-family="Arial" font-size="13" font-weight="bold" lengthAdjust="spacing" textLength="7" x="170" y="818.0049">7</text><text fill="#000000" font-family="Arial" font-size="13" lengthAdjust="spacing" textLength="36" x="181" y="818.0049">Fehler</text><polygon fill="#111827" points="436,847.7085,446,851.7085,436,855.7085,440,851.7085" style="stroke:#111827;stroke-width:1.0;"/><line style="stroke:#111827;stroke-width:1.0;" x1="148" x2="442" y1="851.7085" y2="851.7085"/><text fill="#000000" font-family="Arial" font-size="13" font-weight="bold" lengthAdjust="spacing" textLength="7" x="155" y="846.9536">8</text><text fill="#000000" font-family="Arial" font-size="13" font-style="italic" lengthAdjust="spacing" textLength="102" x="166" y="846.9536">Geplante Abgabe</text><text fill="#000000" font-family="Arial" font-size="13" lengthAdjust="spacing" textLength="114" x="272" y="846.9536">verwerfen ($discard)</text><path d="M291,869.7085 L291,885.7085 A5,5 0 0 0 296,890.7085 L599,890.7085 A5,5 0 0 0 604,885.7085 L604,874.7085 L594,864.7085 L296,864.7085 A5,5 0 0 0 291,869.7085 " fill="url(#g1ou5njsqa0owk0)" style="stroke:#8B95A5;stroke-width:1.0;"/><path d="M594,864.7085 L594,872.2085 A2.5,2.5 0 0 0 596.5,874.7085 L604,874.7085 L594,864.7085 " fill="url(#g1ou5njsqa0owk0)" style="stroke:#8B95A5;stroke-width:1.0;"/><text fill="#111827" font-family="Arial" font-size="14" lengthAdjust="spacing" textLength="110" x="297" y="882.8403">Siehe Use Case "</text><text fill="#111827" font-family="Arial" font-size="14" font-style="italic" lengthAdjust="spacing" textLength="111" x="407" y="882.8403">Geplante Abgabe</text><text fill="#111827" font-family="Arial" font-size="14" lengthAdjust="spacing" textLength="67" x="522" y="882.8403">verwerfen"</text><!--SRC=[XLRTZjf65BwVfpY5IjrLIefDW6MRNGcoi8tI10Ia5qqZDE236M76T6ns4wg-pJv3hdh7Y_NCsC3uPriZeV6SCsU-yvq_no8E4Evn6t0P8tJdFfyZB0__A9XZ5ECAfOVm7Zsnvh48PQGLKSXO7Pvy15Ia4mGe_v2_SIMCZTurJF3F7SfOQ544_QCIF8JoT9SwNhQJ7c1jZ7lSni3O3z5Qo2rNV0Dy4OTg4dybXFmHet23Z9sbyr1vgDw4GQYWMZUFBUMBjQz2CfvgB9lwPsb4A-w5ZqBwiEH1X9OaFQOaWNHienuk-Iw81w6CF_0DGgLBFWULSes9s2Cuhyg5py7-vUiMLI3asbBezyiKFb9Wz08By7lXbn7tFEsPMy_kzspEckQnAPKXnUyl1j3BiuTrR2xhjQhdU1riQGtRqjMyq-JDq-vq9HPhYL443ksDBJRhz7x4fgrOL3YES-MsQM-IYylVDiB8PDOYGJdYAXOBiQLqAdCigr381_DabOgHAOYFKSq8BBe1kag5Ztcdp6QM5xDLTkD9aDpLeArxGhxD-7Yod8WAySAbQxopJfwlTpMftr4wwlHvC_nrE9xTttLd3j1JTPgj-fLxLIzHS8r2fzMgj-yA2gFkz6t_mrHRwBHwxgk2GdSq1FDKwuDE_wxPoIlqt_VlPeCkAM2dxJRSkPTNc8txl_T7KwWkl4QxuV9EtetXEyZSuJRp9iRZuTWez3jjf-4sg01Cdu640Hv1XLRWL6nYsFOSR41gXngcLiKQlS2WMycwaDMVfSqjEP2yL78k4OfT7ChTPewAiPkRVCy5FbUx9VNGcni3M3nmgjK4imrKuHB21qpT-V44zXe-VHAwxUgpPFFbAju4rQISzfxWFbNNfgPlgYda7epqQaohpvyPCttXR9LfWb2j3az1NC39BhgxA12uHBMJVbIZX0pGt5dhKNu6UCbeffXMO_pCpHuz91HnW2AcjPuDqM95R_FKzJoKTBZGvcjncxVr-YTn2qf38IU5_WUst_cuEdnJmdz-hltCT35jttfwY2tfO38HAqderW5HXQh2vW7XYY502jdPfoGcjTiZzTSm6awcC5LSHWdva11XN4-GdYDwZ5SsdHWdfayPNg0i7SCneu8_6h0195bwd_C9rHw939hTBq18y5EhqZBh7vxa7gMsUoO-DQkRI-wxmO4Nu9AXQ8jYiK8LQpmdOYni1CxGT0tapiMOUbAuKmkwaWPRyB8SxoKPO0nf96HAkK3605S11QJqjaG69FGmJpdJCRJ3bvRjDOLE-Bvs_FYLSlhiWOl_1FnCib9Td6qb1bXvY3YLqk5RH14uqNY6VMmhXKPYvqeUimd9yMGc3YNSdWwVEIqvMavgggYpf50GnL8rbKf4FQBIJUxYUqz42wwyo-TIRoBesnG-Qi2S_Yh_Px9Yfs86QH8Q7Vj_0G00]--></g></svg>