<?xml version="1.0" encoding="us-ascii" standalone="no"?><svg xmlns="http://www.w3.org/2000/svg" xmlns:xlink="http://www.w3.org/1999/xlink" contentStyleType="text/css" height="530px" preserveAspectRatio="none" style="width:495px;height:530px;background:#F5F5F5;" version="1.1" viewBox="0 0 495 530" width="495px" zoomAndPan="magnify"><defs><linearGradient id="g1fjpoxmnojm3l0" x1="50%" x2="50%" y1="0%" y2="100%"><stop offset="0%" stop-color="#E0E5F0"/><stop offset="100%" stop-color="#D1D9E6"/></linearGradient></defs><g><rect fill="#F5F5F5" height="530" style="stroke:none;stroke-width:1.0;" width="495" x="0" y="0"/><text fill="#000000" font-family="Arial" font-size="14" font-weight="bold" lengthAdjust="spacing" textLength="125" x="181" y="28.1318">Plan-History-Read</text><rect fill="#156082" fill-opacity="0.50196" height="153.3926" style="stroke:#181818;stroke-width:1.0;" width="10" x="39" y="192.0947"/><rect fill="#E97232" fill-opacity="0.74118" height="153.3926" style="stroke:#181818;stroke-width:1.0;" width="10" x="303" y="192.0947"/><rect fill="#0F9ED5" fill-opacity="0.14510" height="89.4951" rx="5" ry="5" style="stroke:#111827;stroke-width:2.0;" width="366" x="10" y="263.9922"/><path d="M10,309.8896 L376,309.8896 L376,348.4873 A5,5 0 0 1 371,353.4873 L15,353.4873 A5,5 0 0 1 10,348.4873 L10,309.8896 " fill="#E97132" fill-opacity="0.20784" style="stroke:none;stroke-width:1.0;"/><line style="stroke:#181818;stroke-width:0.5;stroke-dasharray:5.0,5.0;" x1="44" x2="44" y1="118.1973" y2="450.2822"/><line style="stroke:#181818;stroke-width:0.5;stroke-dasharray:5.0,5.0;" x1="308" x2="308" y1="118.1973" y2="450.2822"/><text fill="#000000" font-family="Arial" font-size="14" lengthAdjust="spacing" textLength="42" x="20" y="115.2305">GDA 1</text><ellipse cx="44" cy="50.5986" fill="#156082" fill-opacity="0.50196" rx="8" ry="8" style="stroke:#181818;stroke-width:0.5;"/><path d="M44,58.5986 L44,85.5986 M31,66.5986 L57,66.5986 M44,85.5986 L31,100.5986 M44,85.5986 L57,100.5986 " fill="none" style="stroke:#181818;stroke-width:0.5;"/><text fill="#000000" font-family="Arial" font-size="14" lengthAdjust="spacing" textLength="42" x="20" y="462.4141">GDA 1</text><ellipse cx="44" cy="473.8809" fill="#156082" fill-opacity="0.50196" rx="8" ry="8" style="stroke:#181818;stroke-width:0.5;"/><path d="M44,481.8809 L44,508.8809 M31,489.8809 L57,489.8809 M44,508.8809 L31,523.8809 M44,508.8809 L57,523.8809 " fill="none" style="stroke:#181818;stroke-width:0.5;"/><rect fill="#E97232" fill-opacity="0.74118" height="30.0986" rx="5" ry="5" style="stroke:#555555;stroke-width:0.5;" width="76" x="270" y="87.0986"/><text fill="#000000" font-family="Arial" font-size="14" lengthAdjust="spacing" textLength="62" x="277" y="107.2305">e-Med FA</text><rect fill="#E97232" fill-opacity="0.74118" height="30.0986" rx="5" ry="5" style="stroke:#555555;stroke-width:0.5;" width="76" x="270" y="449.2822"/><text fill="#000000" font-family="Arial" font-size="14" lengthAdjust="spacing" textLength="62" x="277" y="469.4141">e-Med FA</text><rect fill="#156082" fill-opacity="0.50196" height="153.3926" style="stroke:#181818;stroke-width:1.0;" width="10" x="39" y="192.0947"/><rect fill="#E97232" fill-opacity="0.74118" height="153.3926" style="stroke:#181818;stroke-width:1.0;" width="10" x="303" y="192.0947"/><rect fill="#EEEEEE" height="3" rx="5" ry="5" style="stroke:#EEEEEE;stroke-width:1.0;" width="488" x="0" y="148.6716"/><line style="stroke:#000000;stroke-width:1.0;" x1="0" x2="488" y1="148.6716" y2="148.6716"/><line style="stroke:#000000;stroke-width:1.0;" x1="0" x2="488" y1="151.6716" y2="151.6716"/><rect fill="#EEEEEE" height="22.9487" rx="5" ry="5" style="stroke:#000000;stroke-width:2.0;" width="241" x="123.5" y="138.1973"/><text fill="#000000" font-family="Arial" font-size="13" font-weight="bold" lengthAdjust="spacing" textLength="223" x="129.5" y="154.3911">Historischen Medikationsplan lesen</text><polygon fill="#111827" points="291,188.0947,301,192.0947,291,196.0947,295,192.0947" style="stroke:#111827;stroke-width:1.0;"/><line style="stroke:#111827;stroke-width:1.0;" x1="49" x2="297" y1="192.0947" y2="192.0947"/><text fill="#000000" font-family="Arial" font-size="13" font-weight="bold" lengthAdjust="spacing" textLength="7" x="56" y="187.3398">1</text><text fill="#000000" font-family="Arial" font-size="13" lengthAdjust="spacing" textLength="229" x="67" y="187.3398">GET Medikationsplan-Collection-Bundle</text><line style="stroke:#111827;stroke-width:1.0;" x1="313" x2="355" y1="235.9922" y2="235.9922"/><line style="stroke:#111827;stroke-width:1.0;" x1="355" x2="355" y1="235.9922" y2="248.9922"/><line style="stroke:#111827;stroke-width:1.0;" x1="314" x2="355" y1="248.9922" y2="248.9922"/><polygon fill="#111827" points="324,244.9922,314,248.9922,324,252.9922,320,248.9922" style="stroke:#111827;stroke-width:1.0;"/><text fill="#000000" font-family="Arial" font-size="13" font-weight="bold" lengthAdjust="spacing" textLength="7" x="320" y="223.7629">2</text><text fill="#000000" font-family="Arial" font-size="13" lengthAdjust="spacing" textLength="145" x="331" y="216.2886">Existiert der angeforderte</text><text fill="#000000" font-family="Arial" font-size="13" lengthAdjust="spacing" textLength="101" x="331" y="231.2373">Medikationsplan?</text><path d="M15,263.9922 L71,263.9922 L71,270.9409 L61,280.9409 L10,280.9409 L10,268.9922 A5,5 0 0 1 15,263.9922 " fill="#EEF2FF" style="stroke:#111827;stroke-width:1.5;"/><rect fill="none" height="89.4951" rx="5" ry="5" style="stroke:#111827;stroke-width:2.0;" width="366" x="10" y="263.9922"/><text fill="#000000" font-family="Arial" font-size="13" font-weight="bold" lengthAdjust="spacing" textLength="16" x="25" y="277.186">alt</text><text fill="#000000" font-family="Arial" font-size="11" font-weight="bold" lengthAdjust="spacing" textLength="176" x="86" y="276.3101">[ja: Medikationsplan vorhanden]</text><polygon fill="#111827" points="60,297.8896,50,301.8896,60,305.8896,56,301.8896" style="stroke:#111827;stroke-width:1.0;"/><line style="stroke:#111827;stroke-width:1.0;" x1="54" x2="302" y1="301.8896" y2="301.8896"/><text fill="#000000" font-family="Arial" font-size="13" font-weight="bold" lengthAdjust="spacing" textLength="7" x="66" y="297.1348">3</text><text fill="#000000" font-family="Arial" font-size="13" lengthAdjust="spacing" textLength="199" x="77" y="297.1348">Medikationsplan-Collection-Bundle</text><line style="stroke:#111827;stroke-width:1.0;stroke-dasharray:2.0,2.0;" x1="10" x2="376" y1="310.8896" y2="310.8896"/><text fill="#000000" font-family="Arial" font-size="11" font-weight="bold" lengthAdjust="spacing" textLength="218" x="15" y="321.2075">[nein: kein Medikationsplan vorhanden]</text><polygon fill="#111827" points="55,341.4873,45,345.4873,55,349.4873,51,345.4873" style="stroke:#111827;stroke-width:1.0;"/><line style="stroke:#111827;stroke-width:1.0;stroke-dasharray:2.0,2.0;" x1="49" x2="307" y1="345.4873" y2="345.4873"/><text fill="#000000" font-family="Arial" font-size="13" font-weight="bold" lengthAdjust="spacing" textLength="7" x="61" y="340.7324">4</text><text fill="#000000" font-family="Arial" font-size="13" lengthAdjust="spacing" textLength="90" x="72" y="340.7324">leeres Ergebnis</text><path d="M166,370.4873 L166,429.4873 A5,5 0 0 0 171,434.4873 L445,434.4873 A5,5 0 0 0 450,429.4873 L450,375.4873 L440,365.4873 L171,365.4873 A5,5 0 0 0 166,370.4873 " fill="url(#g1fjpoxmnojm3l0)" style="stroke:#8B95A5;stroke-width:1.0;"/><path d="M440,365.4873 L440,372.9873 A2.5,2.5 0 0 0 442.5,375.4873 L450,375.4873 L440,365.4873 " fill="url(#g1fjpoxmnojm3l0)" style="stroke:#8B95A5;stroke-width:1.0;"/><text fill="#111827" font-family="Arial" font-size="13" lengthAdjust="spacing" textLength="259" x="172" y="382.6812">Die Fachanwendung liefert den angeforderten</text><text fill="#111827" font-family="Arial" font-size="13" lengthAdjust="spacing" textLength="247" x="172" y="397.6299">persistierten Medikationsplan (unver&#228;ndert,</text><text fill="#111827" font-family="Arial" font-size="13" lengthAdjust="spacing" textLength="240" x="172" y="412.5786">inkl. aller referenzierten Ressourcen) oder</text><text fill="#111827" font-family="Arial" font-size="13" lengthAdjust="spacing" textLength="158" x="172" y="427.5273">ein leeres Ergebnis zur&#252;ck.</text><!--SRC=[ZLLHRzem47xthxZ1mpPfL4aeq5Jg9XYXdROMbBANQL9baWCyKfivIMaxxT_iP-ojVspd0CK9JAgHK7Bt-Uwxx-nB9h84OPHmsRWGQQRqGoD47ZFsEbq8kUIQtmAFo7wTFH2Ghp1LjyZOpZjHEaRzKILAGzqfbktbqMAcLIxZ3MBQCZyBaSvvh5P2pc3AanGjpsQRbgZ1jOF6EELvaWsKpAxuBKAjgmLFQZPd2t8j7X7SuyFx_yVxuc69EX5oOG62u13WguoB1zpZtrFt8nx7fZJFATjxjcYjOjcQIfKX_680lQfyw61hwZJgiHlxs3O8EzB9n6_nrhDrF1VHGcAQWaksq9BJeVSjDnF5ai9rtHElGxRhIcD-smnJ_9cZZDOiHrnd8X9BBhD3XPK1UmUYM6NGVcVstDkkbXoMt01ThTMgMbHXBEjIc0vbV7QiSpN9T4xCbwKQdoElNNlzmgbNL6VjtANtZAYlw3YQu_Dn-6KOtfptkpSkqAgxhRPpufqu1m1U0V3RRQVJtmECkkDFmTNOHF3RFUzu3z0T3Q5OTMVW1_sMNmK4bq7_Pj0b0FeTh-bDuYhW9Wo-1QCnrAEusMbwtA-MCVmCfHnUgneY38TX0GZyZjlqcdG1M35fO2q1Jw56J-3MR6NOSjTjm4kC3Ky3nGQzmA1RAzTWWkQPaldj13LZPsUm7dCYZUOeWVQ81S-4akcIPY0ac9Brx8onDOd6-ssIKpWFnbLyWxgSO6JU6prgUeAc1777wVgk0zZKTxujyJBLhTLE6jmJNO4wew6bWSiPJeipbE5tMI7pWH8asKx_7_nqhxuxfUUS1fQa4scbA_YTlg0wf45GQg148KzXGVyloxLBbY1gJ27GCvn8aH8enh9uPTCc14D9NwTYGAexacHhxWk40OyeuueGEGs1HE1qBPmi2IU1qUXEDxeUE0HlSacHd_wOmPwz0qP3FZa2Jbfeq2OcoiVDrf1kiSfrXF8jADCXPfIeb0QFkNxw6osE3FTYjZFs3m00]--></g></svg>