<?xml version="1.0" encoding="us-ascii" standalone="no"?><svg xmlns="http://www.w3.org/2000/svg" xmlns:xlink="http://www.w3.org/1999/xlink" contentStyleType="text/css" height="826px" preserveAspectRatio="none" style="width:659px;height:826px;background:#F5F5F5;" version="1.1" viewBox="0 0 659 826" width="659px" zoomAndPan="magnify"><defs><linearGradient id="g1ansj2s588rw60" x1="50%" x2="50%" y1="0%" y2="100%"><stop offset="0%" stop-color="#E0E5F0"/><stop offset="100%" stop-color="#D1D9E6"/></linearGradient></defs><g><rect fill="#F5F5F5" height="826" style="stroke:none;stroke-width:1.0;" width="659" x="0" y="0"/><text fill="#000000" font-family="Arial" font-size="14" font-weight="bold" lengthAdjust="spacing" textLength="71" x="290" y="28.1318">Plan-Read</text><rect fill="#156082" fill-opacity="0.50196" height="543.9175" style="stroke:#181818;stroke-width:1.0;" width="10" x="122" y="193.2446"/><rect fill="#E97232" fill-opacity="0.74118" height="459.6216" style="stroke:#181818;stroke-width:1.0;" width="10" x="354" y="193.2446"/><rect fill="#0F9ED5" fill-opacity="0.14510" height="343.5269" rx="5" ry="5" style="stroke:#111827;stroke-width:2.0;" width="549" x="93" y="317.3394"/><path d="M93,527.0239 L642,527.0239 L642,655.8662 A5,5 0 0 1 637,660.8662 L98,660.8662 A5,5 0 0 1 93,655.8662 L93,527.0239 " fill="#E97132" fill-opacity="0.20784" style="stroke:none;stroke-width:1.0;"/><line style="stroke:#181818;stroke-width:0.5;stroke-dasharray:5.0,5.0;" x1="127" x2="127" y1="118.1973" y2="746.1621"/><line style="stroke:#181818;stroke-width:0.5;stroke-dasharray:5.0,5.0;" x1="359" x2="359" y1="118.1973" y2="746.1621"/><text fill="#000000" font-family="Arial" font-size="14" lengthAdjust="spacing" textLength="42" x="103" y="115.2305">GDA 1</text><ellipse cx="127" cy="50.5986" fill="#156082" fill-opacity="0.50196" rx="8" ry="8" style="stroke:#181818;stroke-width:0.5;"/><path d="M127,58.5986 L127,85.5986 M114,66.5986 L140,66.5986 M127,85.5986 L114,100.5986 M127,85.5986 L140,100.5986 " fill="none" style="stroke:#181818;stroke-width:0.5;"/><text fill="#000000" font-family="Arial" font-size="14" lengthAdjust="spacing" textLength="42" x="103" y="758.2939">GDA 1</text><ellipse cx="127" cy="769.7607" fill="#156082" fill-opacity="0.50196" rx="8" ry="8" style="stroke:#181818;stroke-width:0.5;"/><path d="M127,777.7607 L127,804.7607 M114,785.7607 L140,785.7607 M127,804.7607 L114,819.7607 M127,804.7607 L140,819.7607 " fill="none" style="stroke:#181818;stroke-width:0.5;"/><rect fill="#E97232" fill-opacity="0.74118" height="30.0986" rx="5" ry="5" style="stroke:#555555;stroke-width:0.5;" width="76" x="321" y="87.0986"/><text fill="#000000" font-family="Arial" font-size="14" lengthAdjust="spacing" textLength="62" x="328" y="107.2305">e-Med FA</text><rect fill="#E97232" fill-opacity="0.74118" height="30.0986" rx="5" ry="5" style="stroke:#555555;stroke-width:0.5;" width="76" x="321" y="745.1621"/><text fill="#000000" font-family="Arial" font-size="14" lengthAdjust="spacing" textLength="62" x="328" y="765.2939">e-Med FA</text><rect fill="#156082" fill-opacity="0.50196" height="543.9175" style="stroke:#181818;stroke-width:1.0;" width="10" x="122" y="193.2446"/><rect fill="#E97232" fill-opacity="0.74118" height="459.6216" style="stroke:#181818;stroke-width:1.0;" width="10" x="354" y="193.2446"/><rect fill="#EEEEEE" height="3" rx="5" ry="5" style="stroke:#EEEEEE;stroke-width:1.0;" width="652" x="0" y="149.2466"/><line style="stroke:#000000;stroke-width:1.0;" x1="0" x2="652" y1="149.2466" y2="149.2466"/><line style="stroke:#000000;stroke-width:1.0;" x1="0" x2="652" y1="152.2466" y2="152.2466"/><rect fill="#EEEEEE" height="24.0986" rx="5" ry="5" style="stroke:#000000;stroke-width:2.0;" width="193" x="229.5" y="138.1973"/><text fill="#000000" font-family="Arial" font-size="14" font-weight="bold" lengthAdjust="spacing" textLength="175" x="235.5" y="155.3291">Medikationsplan abrufen</text><polygon fill="#111827" points="342,189.2446,352,193.2446,342,197.2446,346,193.2446" style="stroke:#111827;stroke-width:1.0;"/><line style="stroke:#111827;stroke-width:1.0;" x1="132" x2="348" y1="193.2446" y2="193.2446"/><text fill="#000000" font-family="Arial" font-size="13" font-weight="bold" lengthAdjust="spacing" textLength="7" x="139" y="188.4897">1</text><text fill="#000000" font-family="Arial" font-size="13" lengthAdjust="spacing" textLength="99" x="150" y="188.4897">POST $plan-read</text><path d="M29,211.2446 L29,243.2446 A5,5 0 0 0 34,248.2446 L219,248.2446 A5,5 0 0 0 224,243.2446 L224,216.2446 L214,206.2446 L34,206.2446 A5,5 0 0 0 29,211.2446 " fill="url(#g1ansj2s588rw60)" style="stroke:#8B95A5;stroke-width:1.0;"/><path d="M214,206.2446 L214,213.7446 A2.5,2.5 0 0 0 216.5,216.2446 L224,216.2446 L214,206.2446 " fill="url(#g1ansj2s588rw60)" style="stroke:#8B95A5;stroke-width:1.0;"/><text fill="#111827" font-family="Arial" font-size="14" lengthAdjust="spacing" textLength="174" x="35" y="224.3765">Abruf des Medikationsplans</text><text fill="#111827" font-family="Arial" font-size="14" lengthAdjust="spacing" textLength="100" x="35" y="240.4751">zur Bearbeitung</text><line style="stroke:#111827;stroke-width:1.0;" x1="364" x2="406" y1="289.3394" y2="289.3394"/><line style="stroke:#111827;stroke-width:1.0;" x1="406" x2="406" y1="289.3394" y2="302.3394"/><line style="stroke:#111827;stroke-width:1.0;" x1="365" x2="406" y1="302.3394" y2="302.3394"/><polygon fill="#111827" points="375,298.3394,365,302.3394,375,306.3394,371,302.3394" style="stroke:#111827;stroke-width:1.0;"/><text fill="#000000" font-family="Arial" font-size="13" font-weight="bold" lengthAdjust="spacing" textLength="7" x="371" y="277.1101">2</text><text fill="#000000" font-family="Arial" font-size="13" lengthAdjust="spacing" textLength="91" x="382" y="269.6357">Existiert bereits</text><text fill="#000000" font-family="Arial" font-size="13" lengthAdjust="spacing" textLength="122" x="386" y="284.5845">ein Medikationsplan?</text><path d="M98,317.3394 L155,317.3394 L155,325.438 L145,335.438 L93,335.438 L93,322.3394 A5,5 0 0 1 98,317.3394 " fill="#EEF2FF" style="stroke:#111827;stroke-width:1.5;"/><rect fill="none" height="343.5269" rx="5" ry="5" style="stroke:#111827;stroke-width:2.0;" width="549" x="93" y="317.3394"/><text fill="#000000" font-family="Arial" font-size="14" font-weight="bold" lengthAdjust="spacing" textLength="17" x="108" y="331.4712">alt</text><text fill="#000000" font-family="Arial" font-size="14" font-weight="bold" lengthAdjust="spacing" textLength="203" x="170" y="332.4712">[Medikationsplan persistiert]</text><line style="stroke:#111827;stroke-width:1.0;" x1="364" x2="406" y1="447.1777" y2="447.1777"/><line style="stroke:#111827;stroke-width:1.0;" x1="406" x2="406" y1="447.1777" y2="460.1777"/><line style="stroke:#111827;stroke-width:1.0;" x1="365" x2="406" y1="460.1777" y2="460.1777"/><polygon fill="#111827" points="375,456.1777,365,460.1777,375,464.1777,371,460.1777" style="stroke:#111827;stroke-width:1.0;"/><text fill="#000000" font-family="Arial" font-size="13" font-weight="bold" lengthAdjust="spacing" textLength="7" x="371" y="397.5767">3</text><text fill="#000000" font-family="Arial" font-size="13" lengthAdjust="spacing" textLength="131" x="382" y="352.7305">Erzeugt Auslieferungs-</text><text fill="#000000" font-family="Arial" font-size="13" lengthAdjust="spacing" textLength="101" x="382" y="367.6792">Collection Bundle</text><text fill="#000000" font-family="Arial" font-size="13" lengthAdjust="spacing" textLength="89" x="382" y="382.6279">Transformation:</text><text fill="#000000" font-family="Arial" font-size="13" lengthAdjust="spacing" textLength="167" x="382" y="397.5767">- new|changed &#8594; unchanged</text><text fill="#000000" font-family="Arial" font-size="13" lengthAdjust="spacing" textLength="248" x="382" y="412.5254">- removed -&gt; aus List und Bundle entfernen</text><text fill="#000000" font-family="Arial" font-size="13" lengthAdjust="spacing" textLength="163" x="382" y="427.4741">wenn alle List.entry entfernt:</text><text fill="#000000" font-family="Arial" font-size="13" lengthAdjust="spacing" textLength="212" x="382" y="442.4229">- setzt List.emptyReason = nilknown</text><polygon fill="#111827" points="143,515.0239,133,519.0239,143,523.0239,139,519.0239" style="stroke:#111827;stroke-width:1.0;"/><line style="stroke:#111827;stroke-width:1.0;stroke-dasharray:2.0,2.0;" x1="137" x2="353" y1="519.0239" y2="519.0239"/><text fill="#000000" font-family="Arial" font-size="13" font-weight="bold" lengthAdjust="spacing" textLength="7" x="149" y="499.3203">4</text><text fill="#000000" font-family="Arial" font-size="13" lengthAdjust="spacing" textLength="82" x="160" y="484.3716">Auslieferungs-</text><text fill="#000000" font-family="Arial" font-size="13" lengthAdjust="spacing" textLength="101" x="160" y="499.3203">Collection Bundle</text><text fill="#000000" font-family="Arial" font-size="13" lengthAdjust="spacing" textLength="42" x="160" y="514.269">+ ETag</text><line style="stroke:#111827;stroke-width:1.0;stroke-dasharray:2.0,2.0;" x1="93" x2="642" y1="528.0239" y2="528.0239"/><text fill="#000000" font-family="Arial" font-size="14" font-weight="bold" lengthAdjust="spacing" textLength="237" x="98" y="541.1558">[kein Medikationsplan persistiert]</text><line style="stroke:#111827;stroke-width:1.0;" x1="364" x2="406" y1="581.02" y2="581.02"/><line style="stroke:#111827;stroke-width:1.0;" x1="406" x2="406" y1="581.02" y2="594.02"/><line style="stroke:#111827;stroke-width:1.0;" x1="365" x2="406" y1="594.02" y2="594.02"/><polygon fill="#111827" points="375,590.02,365,594.02,375,598.02,371,594.02" style="stroke:#111827;stroke-width:1.0;"/><text fill="#000000" font-family="Arial" font-size="13" font-weight="bold" lengthAdjust="spacing" textLength="7" x="371" y="568.7908">5</text><text fill="#000000" font-family="Arial" font-size="13" lengthAdjust="spacing" textLength="182" x="382" y="561.3164">Erzeugt leeren Medikationsplan</text><text fill="#000000" font-family="Arial" font-size="13" lengthAdjust="spacing" textLength="211" x="386" y="576.2651">mit List.emptyReason = "notstarted"</text><polygon fill="#111827" points="143,648.8662,133,652.8662,143,656.8662,139,652.8662" style="stroke:#111827;stroke-width:1.0;"/><line style="stroke:#111827;stroke-width:1.0;" x1="137" x2="358" y1="652.8662" y2="652.8662"/><text fill="#000000" font-family="Arial" font-size="13" font-weight="bold" lengthAdjust="spacing" textLength="7" x="149" y="633.1626">6</text><text fill="#000000" font-family="Arial" font-size="13" lengthAdjust="spacing" textLength="101" x="160" y="618.2139">Collection Bundle</text><text fill="#000000" font-family="Arial" font-size="13" lengthAdjust="spacing" textLength="187" x="160" y="633.1626">(List.emptyReason = notstarted)</text><text fill="#000000" font-family="Arial" font-size="13" lengthAdjust="spacing" textLength="42" x="160" y="648.1113">+ ETag</text><path d="M5,677.8662 L5,725.8662 A5,5 0 0 0 10,730.8662 L245,730.8662 A5,5 0 0 0 250,725.8662 L250,682.8662 L240,672.8662 L10,672.8662 A5,5 0 0 0 5,677.8662 " fill="url(#g1ansj2s588rw60)" style="stroke:#8B95A5;stroke-width:1.0;"/><path d="M240,672.8662 L240,680.3662 A2.5,2.5 0 0 0 242.5,682.8662 L250,682.8662 L240,672.8662 " fill="url(#g1ansj2s588rw60)" style="stroke:#8B95A5;stroke-width:1.0;"/><text fill="#111827" font-family="Arial" font-size="14" lengthAdjust="spacing" textLength="139" x="11" y="690.998">Nachfolgend kann der</text><text fill="#111827" font-family="Arial" font-size="14" lengthAdjust="spacing" textLength="220" x="11" y="707.0967">Medikationsplan bearbeitet werden</text><text fill="#111827" font-family="Arial" font-size="14" lengthAdjust="spacing" textLength="177" x="11" y="723.1953">und ein Plan-Write erfolgen.</text><!--SRC=[bLRjZjf65Fq_Jt4BbTgg8h9DWFLAj39PRn8rMH1BLQb2MWtucXrXncHc7BARz6yVe8-O9yaTOy1VbThX3vvxVEuzvzuPCC8a2BE4ozuSUSJO3tehv9uhlWE-DgcwDqy4u0VKwGuPkqHNgOfGlKgJL47NoLSvojVRZKep6HM8U60_9OH-v55w4783CKyqbYB5QqgY0hTC6c7CiyJSfjBSyHr29r229vrsnBruHd1VjWV_hUmtJtjKYP3R4Y0Csm2_ooZ_Weto9-cd6OyYgynpglkJicU3V9KjbQb1-Cm09dNtqC51xFIwaHlvEBI8CjFLoX_mmNbtyIZMMubQWqjxyvAR3ZsVQhCi9IjSrxtoHhHtN-lBN-KADNx8KAwFLSwuCc8jzboQDc5LG6CUybK5DJlJ29-wMWcKx0O8b4eFTL7vPjMNVAijupbmpDMdhTTK-RwYySny33NwXR6NgokzUKdlMLE_et6qu_Dg-cuwVtXz4pouGAlh3eREbNVbj02y7E0FXyxefW6O1OktuTt2ClZ3YVUo0GXcKyXNrxdrmvk1NmU4xyERXzk00EYFlBwtYkg0XtduPpXRG7STzKTzZ_jr6TFVe9B36zGfvlFfF0U4_iZjUtqw0Faz0qS7k8OEVGEtKpQ6xI_D1doFaItJGh573t0RTAeI695c9fNPReMAiV4O22Qst8XKwZrTTi1NAejHmdZCs35pxvSJypNCflSB-Du2UyhUYbIX-CZfS1wXvSfOVcZJZrWeO85bfhj6rtDgzfmfc21NAnGcank6CihFFBiaE8choZdjbciCFmbj12e3f948zL822bdF-YkH9-RIdheHT9tfWeZ6jJMHUiPiOo38T28mHaMbwzvIqgWdkBPCCA79Jt0f5ufangdQvGckbx874WzVrezSRgXFN__-1p9PFDcWmXqv5zbqFDFmZWeXG5Jm0Kf3wIJAfJoWfAPHmXpqWYBgwHGtUIADvjaKqTtUFD7FcQRInY15ifNfGPRbKSAyMzV_HTNF42xuXZ6awx0onjiMl_-7eGbIune4rCQTQ1NIeLdHXau2HfqgTQ6bfVOVsmmvq_nq5WSqiVKXjFFPdEyxldwCqsHZXtVBgIjqjG6hkx0gnXmD791kFmdCDjOQbl_P-4C9cqWTcLvSZi8t]--></g></svg>