<svg xmlns="http://www.w3.org/2000/svg" xmlns:xlink="http://www.w3.org/1999/xlink" version="1.1" data-diagram-type="SEQUENCE" style="width:971px;height:1224px;background:#F5F5F5;" width="971px" height="1224px" viewBox="0 0 971 1224" zoomAndPan="magnify" preserveAspectRatio="none" contentStyleType="text/css"><?plantuml 1.2026.7beta3?><defs><linearGradient x1="50%" y1="0%" x2="50%" y2="100%" id="g192srhfg80f690"><stop stop-color="#E0E5F0" offset="0%"/><stop stop-color="#D1D9E6" offset="100%"/></linearGradient></defs><g><rect x="0" y="0" width="971" height="1224" fill="#F5F5F5" style="stroke:none;stroke-width:1;"/><g class="title" data-source-line="1"><text x="212.5039" y="27.9951" fill="#000000" font-size="14" lengthAdjust="spacing" textLength="539.0137" font-weight="700" font-family="'Arial'">Geplante Abgabe für bestehende Medikationsplaneinträge erstellen</text><text x="143.8813" y="44.292" fill="#000000" font-size="14" lengthAdjust="spacing" textLength="676.2588" font-weight="700" font-family="'Arial'">Variante C: Nachträgliche Verknüpfung des e-Rezepts mit dem e-Med GroupIdentifier</text></g><g><title>GDA 1</title><rect x="170.2817" y="144.8906" width="10" height="988.6094" fill="#156082" fill-opacity="0.50196" style="stroke:#181818;stroke-width:1;"/></g><g><title>e-Med FA</title><rect x="503.9619" y="676.7656" width="10" height="265.6094" fill="#E97232" fill-opacity="0.74118" style="stroke:#181818;stroke-width:1;"/></g><g><title>e-Rezept</title><rect x="770.2617" y="466.5859" width="10" height="155.75" fill="#CD3732" fill-opacity="0.66275" style="stroke:#181818;stroke-width:1;"/></g><g><title>e-Rezept</title><rect x="770.2617" y="985.5078" width="10" height="138.9922" fill="#CD3732" fill-opacity="0.66275" style="stroke:#181818;stroke-width:1;"/></g><rect x="9" y="425.8594" width="824.4336" height="531.5156" fill="none" style="stroke:#111827;stroke-width:2;" rx="5" ry="5"/><rect x="140" y="534.1797" width="683.4336" height="96.1563" fill="#0F9ED5" fill-opacity="0.14510" style="stroke:#111827;stroke-width:2;" rx="5" ry="5"/><path d="M140,582.9063 L823.4336,582.9063 L823.4336,625.3359 A5,5 0 0 1 818.4336,630.3359 L145,630.3359 A5,5 0 0 1 140,625.3359 L140,582.9063" style="stroke:none;stroke-width:1;" fill="#E97132" fill-opacity="0.20784"/><rect x="140" y="744.3594" width="635.2617" height="206.0156" fill="#0F9ED5" fill-opacity="0.14510" style="stroke:#111827;stroke-width:2;" rx="5" ry="5"/><path d="M140,902.9453 L775.2617,902.9453 L775.2617,945.375 A5,5 0 0 1 770.2617,950.375 L145,950.375 A5,5 0 0 1 140,945.375 L140,902.9453" style="stroke:none;stroke-width:1;" fill="#E97132" fill-opacity="0.20784"/><g class="participant-lifeline" data-qualified-name="GDA_1" data-entity-uid="part1" id="part1-lifeline" data-source-line="52"><g><title>GDA 1</title><rect x="171.2817" y="134.8906" width="8" height="1007.6094" fill="#000000" fill-opacity="0.00000"/><line x1="175" y1="134.8906" x2="175" y2="1142.5" style="stroke:#181818;stroke-width:0.5;stroke-dasharray:5,5;"/></g></g><g class="participant-lifeline" data-qualified-name="eMed_FA" data-entity-uid="part2" id="part2-lifeline" data-source-line="54"><g><title>e-Med FA</title><rect x="504.9619" y="134.8906" width="8" height="1007.6094" fill="#000000" fill-opacity="0.00000"/><line x1="508.2998" y1="134.8906" x2="508.2998" y2="1142.5" style="stroke:#181818;stroke-width:0.5;stroke-dasharray:5,5;"/></g></g><g class="participant-lifeline" data-qualified-name="e_Rezept" data-entity-uid="part3" id="part3-lifeline" data-source-line="56"><g><title>e-Rezept</title><rect x="771.2617" y="134.8906" width="8" height="1007.6094" fill="#000000" fill-opacity="0.00000"/><line x1="775.0898" y1="134.8906" x2="775.0898" y2="1142.5" style="stroke:#181818;stroke-width:0.5;stroke-dasharray:5,5;"/></g></g><g class="participant participant-head" data-qualified-name="GDA_1" data-entity-uid="part1" id="part1-head" data-source-line="52"><text x="150" y="131.5889" fill="#000000" font-size="14" lengthAdjust="spacing" textLength="44.5635" font-family="'Arial'">GDA 1</text><ellipse cx="175.2817" cy="67.0938" rx="8" ry="8" fill="#156082" fill-opacity="0.50196" style="stroke:#181818;stroke-width:0.5;"/><path d="M175.2817,75.0938 L175.2817,102.0938 M162.2817,83.0938 L188.2817,83.0938 M175.2817,102.0938 L162.2817,117.0938 M175.2817,102.0938 L188.2817,117.0938" style="stroke:#181818;stroke-width:0.5;" fill="none"/></g><g class="participant participant-tail" data-qualified-name="GDA_1" data-entity-uid="part1" id="part1-tail" data-source-line="52"><text x="150" y="1154.4951" fill="#000000" font-size="14" lengthAdjust="spacing" textLength="44.5635" font-family="'Arial'">GDA 1</text><ellipse cx="175.2817" cy="1166.2969" rx="8" ry="8" fill="#156082" fill-opacity="0.50196" style="stroke:#181818;stroke-width:0.5;"/><path d="M175.2817,1174.2969 L175.2817,1201.2969 M162.2817,1182.2969 L188.2817,1182.2969 M175.2817,1201.2969 L162.2817,1216.2969 M175.2817,1201.2969 L188.2817,1216.2969" style="stroke:#181818;stroke-width:0.5;" fill="none"/></g><g class="participant participant-head" data-qualified-name="eMed_FA" data-entity-uid="part2" id="part2-head" data-source-line="54"><rect x="469.2998" y="103.5938" width="79.3242" height="30.2969" fill="#E97232" fill-opacity="0.74118" style="stroke:#555555;stroke-width:0.5;" rx="5" ry="5"/><text x="476.2998" y="123.5889" fill="#000000" font-size="14" lengthAdjust="spacing" textLength="65.3242" font-family="'Arial'">e-Med FA</text></g><g class="participant participant-tail" data-qualified-name="eMed_FA" data-entity-uid="part2" id="part2-tail" data-source-line="54"><rect x="469.2998" y="1141.5" width="79.3242" height="30.2969" fill="#E97232" fill-opacity="0.74118" style="stroke:#555555;stroke-width:0.5;" rx="5" ry="5"/><text x="476.2998" y="1161.4951" fill="#000000" font-size="14" lengthAdjust="spacing" textLength="65.3242" font-family="'Arial'">e-Med FA</text></g><g class="participant participant-head" data-qualified-name="e_Rezept" data-entity-uid="part3" id="part3-head" data-source-line="56"><rect x="737.0898" y="103.5938" width="76.3438" height="30.2969" fill="#CD3732" fill-opacity="0.66275" style="stroke:#555555;stroke-width:0.5;" rx="5" ry="5"/><text x="744.0898" y="123.5889" fill="#000000" font-size="14" lengthAdjust="spacing" textLength="62.3438" font-family="'Arial'">e-Rezept</text></g><g class="participant participant-tail" data-qualified-name="e_Rezept" data-entity-uid="part3" id="part3-tail" data-source-line="56"><rect x="737.0898" y="1141.5" width="76.3438" height="30.2969" fill="#CD3732" fill-opacity="0.66275" style="stroke:#555555;stroke-width:0.5;" rx="5" ry="5"/><text x="744.0898" y="1161.4951" fill="#000000" font-size="14" lengthAdjust="spacing" textLength="62.3438" font-family="'Arial'">e-Rezept</text></g><g><title>GDA 1</title><rect x="170.2817" y="144.8906" width="10" height="988.6094" fill="#156082" fill-opacity="0.50196" style="stroke:#181818;stroke-width:1;"/></g><g><title>e-Med FA</title><rect x="503.9619" y="676.7656" width="10" height="265.6094" fill="#E97232" fill-opacity="0.74118" style="stroke:#181818;stroke-width:1;"/></g><g><title>e-Rezept</title><rect x="770.2617" y="466.5859" width="10" height="155.75" fill="#CD3732" fill-opacity="0.66275" style="stroke:#181818;stroke-width:1;"/></g><g><title>e-Rezept</title><rect x="770.2617" y="985.5078" width="10" height="138.9922" fill="#CD3732" fill-opacity="0.66275" style="stroke:#181818;stroke-width:1;"/></g><rect x="0" y="166.0391" width="965.0215" height="3" fill="#EEEEEE" style="stroke:#EEEEEE;stroke-width:1;" rx="5" ry="5"/><line x1="0" y1="166.0391" x2="965.0215" y2="166.0391" style="stroke:#000000;stroke-width:1;"/><line x1="0" y1="169.0391" x2="965.0215" y2="169.0391" style="stroke:#000000;stroke-width:1;"/><rect x="374.3662" y="154.8906" width="216.2891" height="24.2969" fill="#EEEEEE" style="stroke:#000000;stroke-width:2;" rx="5" ry="5"/><text x="380.3662" y="171.8857" fill="#000000" font-size="14" lengthAdjust="spacing" textLength="197.415" font-weight="700" font-family="'Arial'">Medikationsplan abrufen</text><rect x="147" y="189.1875" width="404.624" height="42.5938" fill="none" style="stroke:#000000;stroke-width:1.5;" rx="5" ry="5"/><path d="M152,189.1875 L214,189.1875 L214,197.1875 L204,207.1875 L147,207.1875 L147,194.1875 A5,5 0 0 1 152,189.1875" style="stroke:#000000;stroke-width:2;" fill="#EEEEEE"/><text x="160" y="204.1826" fill="#000000" font-size="14" lengthAdjust="spacing" textLength="22.4902" font-weight="700" font-family="'Arial'">ref</text><a target="_top" href="interactions.html#sequenzdiagramm-plan-read" xlink:href="interactions.html#sequenzdiagramm-plan-read" xlink:type="simple" xlink:actuate="onRequest" xlink:show="new" title="interactions.html#sequenzdiagramm-plan-read" xlink:title="interactions.html#sequenzdiagramm-plan-read"><text x="313.9907" y="224.1826" fill="#0000EE" font-size="14" lengthAdjust="spacing" textLength="70.6426" font-family="'Arial'">Plan-Read</text></a><path d="M47,246.7813 L47,278.7813 A5,5 0 0 0 52,283.7813 L297,283.7813 A5,5 0 0 0 302,278.7813 L302,251.7813 L292,241.7813 L52,241.7813 A5,5 0 0 0 47,246.7813" style="stroke:#8B95A5;stroke-width:1;" fill="url(#g192srhfg80f690)"/><path d="M292,241.7813 L292,249.2813 A2.5,2.5 0 0 0 294.5,251.7813 L302,251.7813 L292,241.7813" style="stroke:#8B95A5;stroke-width:1;" fill="url(#g192srhfg80f690)"/><text x="53" y="259.7764" fill="#111827" font-size="14" lengthAdjust="spacing" textLength="195.8018" font-family="'Arial'">GDA erhält Medikationsplan</text><text x="53" y="276.0732" fill="#111827" font-size="14" lengthAdjust="spacing" textLength="234.377" font-family="'Arial'">(Auslieferungs-Collection-Bundle)</text><rect x="0" y="310.5234" width="965.0215" height="3" fill="#EEEEEE" style="stroke:#EEEEEE;stroke-width:1;" rx="5" ry="5"/><line x1="0" y1="310.5234" x2="965.0215" y2="310.5234" style="stroke:#000000;stroke-width:1;"/><line x1="0" y1="313.5234" x2="965.0215" y2="313.5234" style="stroke:#000000;stroke-width:1;"/><rect x="292.8408" y="299.375" width="379.3398" height="24.2969" fill="#EEEEEE" style="stroke:#000000;stroke-width:2;" rx="5" ry="5"/><text x="298.8408" y="316.3701" fill="#000000" font-size="14" lengthAdjust="spacing" textLength="146.0908" font-weight="700" font-style="italic" font-family="'Arial'">Geplante Abgaben</text><text x="449.8057" y="316.3701" fill="#000000" font-size="14" lengthAdjust="spacing" textLength="209.501" font-weight="700" font-family="'Arial'">vorbereiten und schreiben</text><path d="M16,343.6719 L16,408.6719 A5,5 0 0 0 21,413.6719 L328,413.6719 A5,5 0 0 0 333,408.6719 L333,348.6719 L323,338.6719 L21,338.6719 A5,5 0 0 0 16,343.6719" style="stroke:#8B95A5;stroke-width:1;" fill="url(#g192srhfg80f690)"/><path d="M323,338.6719 L323,346.1719 A2.5,2.5 0 0 0 325.5,348.6719 L333,348.6719 L323,338.6719" style="stroke:#8B95A5;stroke-width:1;" fill="url(#g192srhfg80f690)"/><text x="22" y="356.667" fill="#111827" font-size="14" lengthAdjust="spacing" textLength="57.8799" font-family="'Arial'">Erstellte</text><text x="84.3301" y="356.667" fill="#111827" font-size="14" lengthAdjust="spacing" textLength="130.5459" font-style="italic" font-family="'Arial'">Geplante Abgaben</text><text x="219.3262" y="356.667" fill="#111827" font-size="14" lengthAdjust="spacing" textLength="94.2471" font-family="'Arial'">referenzieren</text><text x="22" y="372.9639" fill="#111827" font-size="14" lengthAdjust="spacing" textLength="260.668" font-family="'Arial'">zugehörige Medikationsplaneinträge;</text><text x="22" y="389.2607" fill="#111827" font-size="14" lengthAdjust="spacing" textLength="256.2725" font-family="'Arial'">groupIdentifier für "Rezeptklammer"</text><text x="22" y="405.5576" fill="#111827" font-size="14" lengthAdjust="spacing" textLength="70.9775" font-family="'Arial'">bleibt leer</text><path d="M14,425.8594 L80.373,425.8594 L80.373,434.1563 L70.373,444.1563 L9,444.1563 L9,430.8594 A5,5 0 0 1 14,425.8594" style="stroke:#111827;stroke-width:1.5;" fill="#EEF2FF"/><rect x="9" y="425.8594" width="824.4336" height="531.5156" fill="none" style="stroke:#111827;stroke-width:2;" rx="5" ry="5"/><text x="24" y="439.8545" fill="#000000" font-size="14" lengthAdjust="spacing" textLength="26.373" font-weight="700" font-family="'Arial'">par</text><text x="95.373" y="440.8545" fill="#000000" font-size="14" lengthAdjust="spacing" textLength="168.1504" font-weight="700" font-family="'Arial'">[Erstellung e-Rezept]</text><g class="message" data-entity-1="part1" data-entity-2="part3" id="msg1" data-source-line="82"><polygon points="758.2617,462.5859,768.2617,466.5859,758.2617,470.5859,762.2617,466.5859" fill="#111827" style="stroke:#111827;stroke-width:1;stroke-linejoin:miter;stroke-miterlimit:10;"/><line x1="180.2817" y1="466.5859" x2="764.2617" y2="466.5859" style="stroke:#111827;stroke-width:1;"/><text x="187.2817" y="461.52" fill="#000000" font-size="13" lengthAdjust="spacing" textLength="9.0454" font-weight="700" font-family="'Arial'">1</text><text x="200.3271" y="461.52" fill="#000000" font-size="13" lengthAdjust="spacing" textLength="169.5713" font-family="'Arial'">Trigger e-Rezept erstellen</text></g><path d="M60,484.5859 L60,516.5859 A5,5 0 0 0 65,521.5859 L284,521.5859 A5,5 0 0 0 289,516.5859 L289,489.5859 L279,479.5859 L65,479.5859 A5,5 0 0 0 60,484.5859" style="stroke:#8B95A5;stroke-width:1;" fill="url(#g192srhfg80f690)"/><path d="M279,479.5859 L279,487.0859 A2.5,2.5 0 0 0 281.5,489.5859 L289,489.5859 L279,479.5859" style="stroke:#8B95A5;stroke-width:1;" fill="url(#g192srhfg80f690)"/><text x="66" y="497.5811" fill="#111827" font-size="14" lengthAdjust="spacing" textLength="208.0859" font-family="'Arial'">Erstellung e-Rezept auslösen,</text><text x="66" y="513.8779" fill="#111827" font-size="14" lengthAdjust="spacing" textLength="193.0674" font-family="'Arial'">ohne e-Med GroupIdentifier</text><path d="M145,534.1797 L205.9385,534.1797 L205.9385,542.4766 L195.9385,552.4766 L140,552.4766 L140,539.1797 A5,5 0 0 1 145,534.1797" style="stroke:#111827;stroke-width:1.5;" fill="#EEF2FF"/><rect x="140" y="534.1797" width="683.4336" height="96.1563" fill="none" style="stroke:#111827;stroke-width:2;" rx="5" ry="5"/><text x="155" y="548.1748" fill="#000000" font-size="14" lengthAdjust="spacing" textLength="20.9385" font-weight="700" font-family="'Arial'">alt</text><text x="220.9385" y="549.1748" fill="#000000" font-size="14" lengthAdjust="spacing" textLength="144.8193" font-weight="700" font-family="'Arial'">[e-Rezept erstellt]</text><g class="message" data-entity-1="part3" data-entity-2="part1" id="msg2" data-source-line="90"><polygon points="191.2817,570.9063,181.2817,574.9063,191.2817,578.9063,187.2817,574.9063" fill="#111827" style="stroke:#111827;stroke-width:1;stroke-linejoin:miter;stroke-miterlimit:10;"/><line x1="185.2817" y1="574.9063" x2="769.2617" y2="574.9063" style="stroke:#111827;stroke-width:1;stroke-dasharray:2,2;"/><text x="197.2817" y="569.8403" fill="#000000" font-size="13" lengthAdjust="spacing" textLength="9.0454" font-weight="700" font-family="'Arial'">2</text><text x="210.3271" y="569.8403" fill="#000000" font-size="13" lengthAdjust="spacing" textLength="18.7573" font-family="'Arial'">OK</text></g><line x1="140" y1="583.9063" x2="823.4336" y2="583.9063" style="stroke:#111827;stroke-width:1;stroke-dasharray:2,2;"/><text x="145" y="596.9014" fill="#000000" font-size="14" lengthAdjust="spacing" textLength="137.833" font-weight="700" font-family="'Arial'">[e-Rezept Fehler]</text><g class="message" data-entity-1="part3" data-entity-2="part1" id="msg3" data-source-line="93"><polygon points="191.2817,618.3359,181.2817,622.3359,191.2817,626.3359,187.2817,622.3359" fill="#111827" style="stroke:#111827;stroke-width:1;stroke-linejoin:miter;stroke-miterlimit:10;"/><line x1="185.2817" y1="622.3359" x2="774.2617" y2="622.3359" style="stroke:#111827;stroke-width:1;stroke-dasharray:2,2;"/><text x="197.2817" y="617.27" fill="#000000" font-size="13" lengthAdjust="spacing" textLength="9.0454" font-weight="700" font-family="'Arial'">3</text><text x="210.3271" y="617.27" fill="#000000" font-size="13" lengthAdjust="spacing" textLength="40.6694" font-family="'Arial'">Fehler</text></g><line x1="9" y1="638.3359" x2="833.4336" y2="638.3359" style="stroke:#111827;stroke-width:1;stroke-dasharray:2,2;"/><text x="14" y="651.3311" fill="#000000" font-size="14" lengthAdjust="spacing" textLength="192.6436" font-weight="700" font-family="'Arial'">[gleichzeitige Erstellung</text><text x="211.5176" y="651.3311" fill="#000000" font-size="14" lengthAdjust="spacing" textLength="136.124" font-weight="700" font-style="italic" font-family="'Arial'">Geplante Abgabe</text><text x="347.6416" y="651.3311" fill="#000000" font-size="14" lengthAdjust="spacing" textLength="6.3984" font-weight="700" font-family="'Arial'">]</text><g class="message" data-entity-1="part1" data-entity-2="part2" id="msg4" data-source-line="99"><polygon points="491.9619,672.7656,501.9619,676.7656,491.9619,680.7656,495.9619,676.7656" fill="#111827" style="stroke:#111827;stroke-width:1;stroke-linejoin:miter;stroke-miterlimit:10;"/><line x1="180.2817" y1="676.7656" x2="497.9619" y2="676.7656" style="stroke:#111827;stroke-width:1;"/><text x="187.2817" y="671.6997" fill="#000000" font-size="13" lengthAdjust="spacing" textLength="9.0454" font-weight="700" font-family="'Arial'">4</text><text x="200.3271" y="671.6997" fill="#000000" font-size="13" lengthAdjust="spacing" textLength="247.749" font-family="'Arial'">POST Transaction Bundle GeplAbgabe</text></g><path d="M19,694.7656 L19,726.7656 A5,5 0 0 0 24,731.7656 L325,731.7656 A5,5 0 0 0 330,726.7656 L330,699.7656 L320,689.7656 L24,689.7656 A5,5 0 0 0 19,694.7656" style="stroke:#8B95A5;stroke-width:1;" fill="url(#g192srhfg80f690)"/><path d="M320,689.7656 L320,697.2656 A2.5,2.5 0 0 0 322.5,699.7656 L330,699.7656 L320,689.7656" style="stroke:#8B95A5;stroke-width:1;" fill="url(#g192srhfg80f690)"/><text x="25" y="707.7607" fill="#111827" font-size="14" lengthAdjust="spacing" textLength="239.9209" font-family="'Arial'">Transaction Bundle mit Geplanten</text><text x="25" y="724.0576" fill="#111827" font-size="14" lengthAdjust="spacing" textLength="290.2266" font-family="'Arial'">Abgaben an Fachanwendung übermitteln</text><path d="M145,744.3594 L205.9385,744.3594 L205.9385,752.6563 L195.9385,762.6563 L140,762.6563 L140,749.3594 A5,5 0 0 1 145,744.3594" style="stroke:#111827;stroke-width:1.5;" fill="#EEF2FF"/><rect x="140" y="744.3594" width="635.2617" height="206.0156" fill="none" style="stroke:#111827;stroke-width:2;" rx="5" ry="5"/><text x="155" y="758.3545" fill="#000000" font-size="14" lengthAdjust="spacing" textLength="20.9385" font-weight="700" font-family="'Arial'">alt</text><text x="220.9385" y="759.3545" fill="#000000" font-size="14" lengthAdjust="spacing" textLength="220.9717" font-weight="700" font-family="'Arial'">[Geplante Abgaben erstellt]</text><g class="message" data-entity-1="part2" data-entity-2="part2" id="msg5" data-source-line="109"><line x1="513.9619" y1="800.2188" x2="555.9619" y2="800.2188" style="stroke:#111827;stroke-width:1;"/><line x1="555.9619" y1="800.2188" x2="555.9619" y2="813.2188" style="stroke:#111827;stroke-width:1;"/><line x1="514.9619" y1="813.2188" x2="555.9619" y2="813.2188" style="stroke:#111827;stroke-width:1;"/><polygon points="524.9619,809.2188,514.9619,813.2188,524.9619,817.2188,520.9619,813.2188" fill="#111827" style="stroke:#111827;stroke-width:1;stroke-linejoin:miter;stroke-miterlimit:10;"/><text x="520.9619" y="787.5864" fill="#000000" font-size="13" lengthAdjust="spacing" textLength="9.0454" font-weight="700" font-family="'Arial'">5</text><text x="534.0073" y="780.02" fill="#000000" font-size="13" lengthAdjust="spacing" textLength="207.7397" font-family="'Arial'">e-Med GroupIdentifier erzeugen</text><text x="534.0073" y="795.1528" fill="#000000" font-size="13" lengthAdjust="spacing" textLength="219.2544" font-family="'Arial'">+ geplanten Abgaben hinzufügen</text></g><path d="M413,831.2188 L413,863.2188 A5,5 0 0 0 418,868.2188 L598,868.2188 A5,5 0 0 0 603,863.2188 L603,836.2188 L593,826.2188 L418,826.2188 A5,5 0 0 0 413,831.2188" style="stroke:#8B95A5;stroke-width:1;" fill="url(#g192srhfg80f690)"/><path d="M593,826.2188 L593,833.7188 A2.5,2.5 0 0 0 595.5,836.2188 L603,836.2188 L593,826.2188" style="stroke:#8B95A5;stroke-width:1;" fill="url(#g192srhfg80f690)"/><text x="419" y="844.2139" fill="#111827" font-size="14" lengthAdjust="spacing" textLength="164.5684" font-family="'Arial'">Geplante Abgabe 1 + 2</text><text x="419" y="860.5107" fill="#111827" font-size="14" lengthAdjust="spacing" textLength="82.6123" font-family="'Arial'">gespeichert</text><g class="message" data-entity-1="part2" data-entity-2="part1" id="msg6" data-source-line="116"><polygon points="191.2817,890.9453,181.2817,894.9453,191.2817,898.9453,187.2817,894.9453" fill="#111827" style="stroke:#111827;stroke-width:1;stroke-linejoin:miter;stroke-miterlimit:10;"/><line x1="185.2817" y1="894.9453" x2="502.9619" y2="894.9453" style="stroke:#111827;stroke-width:1;"/><text x="197.2817" y="889.8794" fill="#000000" font-size="13" lengthAdjust="spacing" textLength="9.0454" font-weight="700" font-family="'Arial'">6</text><text x="210.3271" y="889.8794" fill="#000000" font-size="13" lengthAdjust="spacing" textLength="286.6348" font-family="'Arial'">OK (Ressourcen inkl. e-Med GroupIdentifier)</text></g><line x1="140" y1="903.9453" x2="775.2617" y2="903.9453" style="stroke:#111827;stroke-width:1;stroke-dasharray:2,2;"/><text x="145" y="916.9404" fill="#000000" font-size="14" lengthAdjust="spacing" textLength="204.0186" font-weight="700" font-family="'Arial'">[Geplante Abgabe Fehler]</text><g class="message" data-entity-1="part2" data-entity-2="part1" id="msg7" data-source-line="119"><polygon points="191.2817,938.375,181.2817,942.375,191.2817,946.375,187.2817,942.375" fill="#111827" style="stroke:#111827;stroke-width:1;stroke-linejoin:miter;stroke-miterlimit:10;"/><line x1="185.2817" y1="942.375" x2="507.9619" y2="942.375" style="stroke:#111827;stroke-width:1;stroke-dasharray:2,2;"/><text x="197.2817" y="937.3091" fill="#000000" font-size="13" lengthAdjust="spacing" textLength="9.0454" font-weight="700" font-family="'Arial'">7</text><text x="210.3271" y="937.3091" fill="#000000" font-size="13" lengthAdjust="spacing" textLength="40.6694" font-family="'Arial'">Fehler</text></g><g class="message" data-entity-1="part1" data-entity-2="part3" id="msg8" data-source-line="126"><polygon points="758.2617,981.5078,768.2617,985.5078,758.2617,989.5078,762.2617,985.5078" fill="#111827" style="stroke:#111827;stroke-width:1;stroke-linejoin:miter;stroke-miterlimit:10;"/><line x1="180.2817" y1="985.5078" x2="764.2617" y2="985.5078" style="stroke:#111827;stroke-width:1;"/><text x="187.2817" y="980.4419" fill="#000000" font-size="13" lengthAdjust="spacing" textLength="9.0454" font-weight="700" font-family="'Arial'">8</text><text x="200.3271" y="980.4419" fill="#000000" font-size="13" lengthAdjust="spacing" textLength="308.4834" font-family="'Arial'">e-Rezept mit e-Med GroupIdentifier verknüpfen</text></g><g class="message" data-entity-1="part3" data-entity-2="part3" id="msg9" data-source-line="128"><line x1="780.2617" y1="1029.7734" x2="822.2617" y2="1029.7734" style="stroke:#111827;stroke-width:1;"/><line x1="822.2617" y1="1029.7734" x2="822.2617" y2="1042.7734" style="stroke:#111827;stroke-width:1;"/><line x1="781.2617" y1="1042.7734" x2="822.2617" y2="1042.7734" style="stroke:#111827;stroke-width:1;"/><polygon points="791.2617,1038.7734,781.2617,1042.7734,791.2617,1046.7734,787.2617,1042.7734" fill="#111827" style="stroke:#111827;stroke-width:1;stroke-linejoin:miter;stroke-miterlimit:10;"/><text x="787.2617" y="1017.1411" fill="#000000" font-size="13" lengthAdjust="spacing" textLength="9.0454" font-weight="700" font-family="'Arial'">9</text><text x="800.3071" y="1009.5747" fill="#000000" font-size="13" lengthAdjust="spacing" textLength="142.7144" font-family="'Arial'">e-Med GroupIdentifier</text><text x="800.3071" y="1024.7075" fill="#000000" font-size="13" lengthAdjust="spacing" textLength="60.8613" font-family="'Arial'">ergänzen</text></g><path d="M651,1060.7734 L651,1092.7734 A5,5 0 0 0 656,1097.7734 L892,1097.7734 A5,5 0 0 0 897,1092.7734 L897,1065.7734 L887,1055.7734 L656,1055.7734 A5,5 0 0 0 651,1060.7734" style="stroke:#8B95A5;stroke-width:1;" fill="url(#g192srhfg80f690)"/><path d="M887,1055.7734 L887,1063.2734 A2.5,2.5 0 0 0 889.5,1065.7734 L897,1065.7734 L887,1055.7734" style="stroke:#8B95A5;stroke-width:1;" fill="url(#g192srhfg80f690)"/><text x="657" y="1073.7686" fill="#111827" font-size="14" lengthAdjust="spacing" textLength="185.0283" font-family="'Arial'">Bestehendes e-Rezept mit</text><text x="657" y="1090.0654" fill="#111827" font-size="14" lengthAdjust="spacing" textLength="225.9551" font-family="'Arial'">e-Med GroupIdentifier verknüpft</text><g class="message" data-entity-1="part3" data-entity-2="part1" id="msg10" data-source-line="133"><polygon points="191.2817,1120.5,181.2817,1124.5,191.2817,1128.5,187.2817,1124.5" fill="#111827" style="stroke:#111827;stroke-width:1;stroke-linejoin:miter;stroke-miterlimit:10;"/><line x1="185.2817" y1="1124.5" x2="774.2617" y2="1124.5" style="stroke:#111827;stroke-width:1;stroke-dasharray:2,2;"/><text x="197.2817" y="1119.4341" fill="#000000" font-size="13" lengthAdjust="spacing" textLength="18.0908" font-weight="700" font-family="'Arial'">10</text><text x="219.3726" y="1119.4341" fill="#000000" font-size="13" lengthAdjust="spacing" textLength="18.7573" font-family="'Arial'">OK</text></g><?plantuml-src ZLRDSjis4BxpARRIeSaaIaKgiYqtzemSIsucZQMHrHoQP3mGkI8nea059Er6dRwDdo4dt_HYNG0K_qIdfMOq9F1XzzlTRm4aF0aHhd0JCf4W31S-Mo0iTuyI5XWd6A3m43wWnrSiuP685H2vIEJkmKT0IPWmHF5PV6IIQnjlJ-6QkO56XDmD43wYN8dTusQP2XyyZ04xCzpY9ebXpHCQMTC8-O0h6QMRTnwAX2yvIilwELvniM6IhO6vIIHlacz4bzrZ7AtHiehPHIGzb6-ZC9BGxkgdFClSbK-sXPSXbdtrAo7YW7dHFIT-InR6M9h9bac14kooKG-NB0sJSIIIQxP6Q0qf0M6h6N73jmZsw-R9fsZ_zcs3CkHYLGACHas0FwXAwWKFw5z4VqsPvwd8d6vr_AASixv-oYaL4HNpRmlWefuzx69_sUsqFTiRu952b2sTB0Pzriz7vm5tLmBZ66mQcvMosQNlFJTbfPGAsxPFd6CQkwdLvPyomnY_fYXSmtBAPC9TlY4DDWLM1HpeGJzLq65b3gRtLQrCbD8DC9Gokgy7fGUhUT53JHxp2UEhHqEwIoenvfRDr46zSEdew4eh2_UEIkfF94SbdxUJtoUpswlBuQqDzBJj_b7tn3dfDW0S3HWS7NMFBmy0q-7ytUXwhYmCZYwSrmU0uNG2-cbtnuFHPNzG1um-Z2vlnqC2uE3OwJaBhmwudOt-74tdq7Qztd7FOODw69FtKF7XzEicPhF9J0D6WsExv_Ie0VG-0oO3B8OMlO7TAYV6iZP5jG5fur8y5TRiOkDXgnf3RS6jsVoo5UQZLGkAUAH99DBrGcs3PsVrBHZOGgPB571sfYdpEqRTQbYNgKfSGdI7MK0lSxQdyEaJxU8erLgo-If8rc7RDDJMuyod_bftbAUEHER1LBtDwEtB5ykozDPGcBLKZb06kuSmEI1gFHkcSSXnYPAs_xX3cWnHE-rSa4H3V6xH6QDt6nte6tvUEux4cr_uETn5adA1FA6WQHt4Ra1VYom5TKOZSp3Hu5Fsf694mNBr3zOszJ7OVPVSV_gu-zNogmUKEIXRfeIha5A6icKjGkALG8XKkY8qaW1ahDGnk2-yfTfIbwrpdalZ5EP4n2S7UrXnqX8-htSkfPfu0EhvW2RVmAWok-ynYfS4Y0BgY-Pp6A28Wzo7IT5WTOA9fVef9zQXg3I3KvYyLukHTl5Az-K6nXY4sbVpSZCDUjx3WnGOZfQbxVjK0JVOabXKEKkH7uf1QO7MLgfWUkGKffERELM2YTXq2HZ1wkkIMMrM5cIoxgfsVrCreCckkWpjwGaDoWGBr4TZkbCnSKz1ga1sZzGCXAV0n8_AKvT-KIQJw8nmEUf62T2wBLABq4Nl1VXxZhdLW8jjIir006EuY3YpgqVhzqmRNe1ZIkfZl555Gvafg1HHXMUk9dWse-ChIgLB1EWE5BvgflwyKNPrAcNrxPtzj_Yos7BngR-6RiurhYhSdD-x_Htv_tPuqIDLJmt6FzDjozyzYAssNIfDqJjqMykl-t65hqd9ZpadPGa-sVsDVVil?></g></svg>