<?xml version="1.0" encoding="us-ascii" standalone="no"?><svg xmlns="http://www.w3.org/2000/svg" xmlns:xlink="http://www.w3.org/1999/xlink" contentStyleType="text/css" height="567px" preserveAspectRatio="none" style="width:412px;height:567px;background:#F5F5F5;" version="1.1" viewBox="0 0 412 567" width="412px" zoomAndPan="magnify"><defs><linearGradient id="g199qrg27jo3ut0" x1="50%" x2="50%" y1="0%" y2="100%"><stop offset="0%" stop-color="#E0E5F0"/><stop offset="100%" stop-color="#D1D9E6"/></linearGradient></defs><g><rect fill="#F5F5F5" height="567" style="stroke:none;stroke-width:1.0;" width="412" x="0" y="0"/><text fill="#000000" font-family="Arial" font-size="14" font-weight="bold" lengthAdjust="spacing" textLength="71" x="166.5" y="28.1318">Plan-Read</text><rect fill="#156082" fill-opacity="0.50196" height="284.9824" style="stroke:#181818;stroke-width:1.0;" width="10" x="97" y="193.2446"/><rect fill="#E97232" fill-opacity="0.74118" height="284.9824" style="stroke:#181818;stroke-width:1.0;" width="10" x="243" y="193.2446"/><line style="stroke:#181818;stroke-width:0.5;stroke-dasharray:5.0,5.0;" x1="102" x2="102" y1="118.1973" y2="487.2271"/><line style="stroke:#181818;stroke-width:0.5;stroke-dasharray:5.0,5.0;" x1="248" x2="248" y1="118.1973" y2="487.2271"/><text fill="#000000" font-family="Arial" font-size="14" lengthAdjust="spacing" textLength="42" x="78" y="115.2305">GDA 1</text><ellipse cx="102" cy="50.5986" fill="#156082" fill-opacity="0.50196" rx="8" ry="8" style="stroke:#181818;stroke-width:0.5;"/><path d="M102,58.5986 L102,85.5986 M89,66.5986 L115,66.5986 M102,85.5986 L89,100.5986 M102,85.5986 L115,100.5986 " fill="none" style="stroke:#181818;stroke-width:0.5;"/><text fill="#000000" font-family="Arial" font-size="14" lengthAdjust="spacing" textLength="42" x="78" y="499.3589">GDA 1</text><ellipse cx="102" cy="510.8257" fill="#156082" fill-opacity="0.50196" rx="8" ry="8" style="stroke:#181818;stroke-width:0.5;"/><path d="M102,518.8257 L102,545.8257 M89,526.8257 L115,526.8257 M102,545.8257 L89,560.8257 M102,545.8257 L115,560.8257 " fill="none" style="stroke:#181818;stroke-width:0.5;"/><rect fill="#E97232" fill-opacity="0.74118" height="30.0986" rx="5" ry="5" style="stroke:#555555;stroke-width:0.5;" width="76" x="210" y="87.0986"/><text fill="#000000" font-family="Arial" font-size="14" lengthAdjust="spacing" textLength="62" x="217" y="107.2305">e-Med FA</text><rect fill="#E97232" fill-opacity="0.74118" height="30.0986" rx="5" ry="5" style="stroke:#555555;stroke-width:0.5;" width="76" x="210" y="486.2271"/><text fill="#000000" font-family="Arial" font-size="14" lengthAdjust="spacing" textLength="62" x="217" y="506.3589">e-Med FA</text><rect fill="#156082" fill-opacity="0.50196" height="284.9824" style="stroke:#181818;stroke-width:1.0;" width="10" x="97" y="193.2446"/><rect fill="#E97232" fill-opacity="0.74118" height="284.9824" style="stroke:#181818;stroke-width:1.0;" width="10" x="243" y="193.2446"/><rect fill="#EEEEEE" height="3" rx="5" ry="5" style="stroke:#EEEEEE;stroke-width:1.0;" width="405" x="0" y="149.2466"/><line style="stroke:#000000;stroke-width:1.0;" x1="0" x2="405" y1="149.2466" y2="149.2466"/><line style="stroke:#000000;stroke-width:1.0;" x1="0" x2="405" y1="152.2466" y2="152.2466"/><rect fill="#EEEEEE" height="24.0986" rx="5" ry="5" style="stroke:#000000;stroke-width:2.0;" width="193" x="106" y="138.1973"/><text fill="#000000" font-family="Arial" font-size="14" font-weight="bold" lengthAdjust="spacing" textLength="175" x="112" y="155.3291">Medikationsplan abrufen</text><polygon fill="#111827" points="231,189.2446,241,193.2446,231,197.2446,235,193.2446" style="stroke:#111827;stroke-width:1.0;"/><line style="stroke:#111827;stroke-width:1.0;" x1="107" x2="237" y1="193.2446" y2="193.2446"/><text fill="#000000" font-family="Arial" font-size="13" font-weight="bold" lengthAdjust="spacing" textLength="7" x="114" y="188.4897">1</text><text fill="#000000" font-family="Arial" font-size="13" lengthAdjust="spacing" textLength="99" x="125" y="188.4897">POST $plan-read</text><path d="M5,211.2446 L5,243.2446 A5,5 0 0 0 10,248.2446 L195,248.2446 A5,5 0 0 0 200,243.2446 L200,216.2446 L190,206.2446 L10,206.2446 A5,5 0 0 0 5,211.2446 " fill="url(#g199qrg27jo3ut0)" style="stroke:#8B95A5;stroke-width:1.0;"/><path d="M190,206.2446 L190,213.7446 A2.5,2.5 0 0 0 192.5,216.2446 L200,216.2446 L190,206.2446 " fill="url(#g199qrg27jo3ut0)" style="stroke:#8B95A5;stroke-width:1.0;"/><text fill="#111827" font-family="Arial" font-size="14" lengthAdjust="spacing" textLength="174" x="11" y="224.3765">Abruf des Medikationsplans</text><text fill="#111827" font-family="Arial" font-size="14" lengthAdjust="spacing" textLength="100" x="11" y="240.4751">zur Bearbeitung</text><rect fill="none" height="90.4932" rx="5" ry="5" style="stroke:#000000;stroke-width:1.5;" width="216" x="187" y="253.4419"/><path d="M192,253.4419 L252,253.4419 L252,261.4419 L242,271.4419 L187,271.4419 L187,258.4419 A5,5 0 0 1 192,253.4419 " fill="#EEEEEE" style="stroke:#000000;stroke-width:2.0;"/><text fill="#000000" font-family="Arial" font-size="14" font-weight="bold" lengthAdjust="spacing" textLength="20" x="200" y="268.5737">ref</text><text fill="#000000" font-family="Arial" font-size="14" lengthAdjust="spacing" textLength="143" x="223.5" y="288.5737">Sub_UC_eMed_01_01</text><text fill="#000000" font-family="Arial" font-size="14" lengthAdjust="spacing" textLength="165" x="212.5" y="304.6724">Pr&#252;fung des Planzustands</text><text fill="#000000" font-family="Arial" font-size="14" lengthAdjust="spacing" textLength="123" x="233.5" y="320.771">und Erzeugung des</text><text fill="#000000" font-family="Arial" font-size="14" lengthAdjust="spacing" textLength="208" x="191" y="336.8696">Auslieferungs-Collection Bundles</text><polygon fill="#111827" points="118,380.8325,108,384.8325,118,388.8325,114,384.8325" style="stroke:#111827;stroke-width:1.0;"/><line style="stroke:#111827;stroke-width:1.0;stroke-dasharray:2.0,2.0;" x1="112" x2="242" y1="384.8325" y2="384.8325"/><text fill="#000000" font-family="Arial" font-size="13" font-weight="bold" lengthAdjust="spacing" textLength="7" x="124" y="372.6033">2</text><text fill="#000000" font-family="Arial" font-size="13" lengthAdjust="spacing" textLength="101" x="135" y="365.1289">Collection Bundle</text><text fill="#000000" font-family="Arial" font-size="13" lengthAdjust="spacing" textLength="42" x="135" y="380.0776">+ ETag</text><path d="M6,402.8325 L6,466.8325 A5,5 0 0 0 11,471.8325 L192,471.8325 A5,5 0 0 0 197,466.8325 L197,407.8325 L187,397.8325 L11,397.8325 A5,5 0 0 0 6,402.8325 " fill="url(#g199qrg27jo3ut0)" style="stroke:#8B95A5;stroke-width:1.0;"/><path d="M187,397.8325 L187,405.3325 A2.5,2.5 0 0 0 189.5,407.8325 L197,407.8325 L187,397.8325 " fill="url(#g199qrg27jo3ut0)" style="stroke:#8B95A5;stroke-width:1.0;"/><text fill="#111827" font-family="Arial" font-size="14" lengthAdjust="spacing" textLength="139" x="12" y="415.9644">Nachfolgend kann der</text><text fill="#111827" font-family="Arial" font-size="14" lengthAdjust="spacing" textLength="170" x="12" y="432.063">Medikationsplan bearbeitet</text><text fill="#111827" font-family="Arial" font-size="14" lengthAdjust="spacing" textLength="138" x="12" y="448.1616">und mittels Plan-Write</text><text fill="#111827" font-family="Arial" font-size="14" lengthAdjust="spacing" textLength="128" x="12" y="464.2603">gespeichert werden.</text><!--SRC=[TLHTZvf057sVNt6hJVhGq00MbKriWYjkctPNecwQD4tC01Sbuc27OUtQz9_rhN-imw0h7tRWWRdtSEyvPpv4B184Bw5CcoCD2NcJRMEsfvpkW0OYvGlnB07qW5cwGq8kMJ_b8VBRD4avT7KrgbaQRDSypLbuGaHMyLGGsOQ6wI5cQuXeac4bS_gDC-HWL8k66D4y4TEKYGUwG-WuFAP9vpfY4HyHZFVNa_-Z_V5vZpo9sRO2SDrhW4SMgWziqH-dFpqQXeKoKw_7nrNFB3Mgbh9K8FmY0EEcUwYZ5UbQDpH26_i5ebffwDiMjLwYoqqSR1bc6HWoDg-ugSlvcLjHfMA5OHX3So1ZYyQw_AuopF17ZYmeMNgKYpY8zvI9QyBgWDP-KACEQgzCAtrUrLgYOZU0mtbwQ8fImRelAdIjuqkYxDMJeJl9V5_J-5AvJBNM2oDJgQlyUMbl5gQ-ajkns3wtio-p-UfkugmCaADhM7rzQ0xrAm1J0Un-NnzCMW3FMNvo7vP51Ri_Dj-t08ut0pMw-jHs9vRT1BZtxcGrTIG0xO7PC_sm2LZDtM-kjuHk4FO6FPFQJHcppr3hOLhD4lFvRAu0hZqmUcPF7W1rpq3f0CsW8x_0w5ID8VlBOWFUOrZGBA2eoGbCdKvT0f55Sv6oVESZbvFH22Gktb8HfopRoziEgC_p21cCHeIKhRKFvz8tuCqMItXT03LUN8kIOln4vUaieLLgH9tQz0bF4eXJL9QNJTRicP5Zpc6CbFiOYvoj2R9G7NfoQN1Mrz33CIfxdF9aaVkhnzkLckg6V8d7__w9P5NLkhZHZtacA0ip8lSbkFo8-VgK9awU9J56o6KWq-IcJJ0eUC9OOXC9A9Z9deIS-MZI7gNl1bhmx-mjk4kwRdlnG8DDb2RhejoMCYQRSz9S2l_a20h5T1SBWKafGVlAPPoiCTjZ76oG2pYWF4piNSKxyWy0]--></g></svg>