<?xml version="1.0" encoding="us-ascii" standalone="no"?><svg xmlns="http://www.w3.org/2000/svg" xmlns:xlink="http://www.w3.org/1999/xlink" contentStyleType="text/css" height="472px" preserveAspectRatio="none" style="width:678px;height:472px;background:#F5F5F5;" version="1.1" viewBox="0 0 678 472" width="678px" zoomAndPan="magnify"><defs><linearGradient id="g1xbll3anityth0" x1="50%" x2="50%" y1="0%" y2="100%"><stop offset="0%" stop-color="#E0E5F0"/><stop offset="100%" stop-color="#D1D9E6"/></linearGradient></defs><g><rect fill="#F5F5F5" height="472" style="stroke:none;stroke-width:1.0;" width="678" x="0" y="0"/><text fill="#000000" font-family="Arial" font-size="14" font-weight="bold" lengthAdjust="spacing" textLength="302" x="190" y="28.1318">Leerer Medikationsplan (keine Medikation)</text><rect fill="#156082" fill-opacity="0.50196" height="224.8384" style="stroke:#181818;stroke-width:1.0;" width="10" x="97" y="149.146"/><rect fill="#E97232" fill-opacity="0.74118" height="224.8384" style="stroke:#181818;stroke-width:1.0;" width="10" x="331" y="149.146"/><line style="stroke:#181818;stroke-width:0.5;stroke-dasharray:5.0,5.0;" x1="102" x2="102" y1="118.1973" y2="391.9844"/><line style="stroke:#181818;stroke-width:0.5;stroke-dasharray:5.0,5.0;" x1="336" x2="336" y1="118.1973" y2="391.9844"/><text fill="#000000" font-family="Arial" font-size="14" lengthAdjust="spacing" textLength="42" x="78" y="115.2305">GDA 1</text><ellipse cx="102" cy="50.5986" fill="#156082" fill-opacity="0.50196" rx="8" ry="8" style="stroke:#181818;stroke-width:0.5;"/><path d="M102,58.5986 L102,85.5986 M89,66.5986 L115,66.5986 M102,85.5986 L89,100.5986 M102,85.5986 L115,100.5986 " fill="none" style="stroke:#181818;stroke-width:0.5;"/><text fill="#000000" font-family="Arial" font-size="14" lengthAdjust="spacing" textLength="42" x="78" y="404.1162">GDA 1</text><ellipse cx="102" cy="415.583" fill="#156082" fill-opacity="0.50196" rx="8" ry="8" style="stroke:#181818;stroke-width:0.5;"/><path d="M102,423.583 L102,450.583 M89,431.583 L115,431.583 M102,450.583 L89,465.583 M102,450.583 L115,465.583 " fill="none" style="stroke:#181818;stroke-width:0.5;"/><rect fill="#E97232" fill-opacity="0.74118" height="30.0986" rx="5" ry="5" style="stroke:#555555;stroke-width:0.5;" width="76" x="298" y="87.0986"/><text fill="#000000" font-family="Arial" font-size="14" lengthAdjust="spacing" textLength="62" x="305" y="107.2305">e-Med FA</text><rect fill="#E97232" fill-opacity="0.74118" height="30.0986" rx="5" ry="5" style="stroke:#555555;stroke-width:0.5;" width="76" x="298" y="390.9844"/><text fill="#000000" font-family="Arial" font-size="14" lengthAdjust="spacing" textLength="62" x="305" y="411.1162">e-Med FA</text><rect fill="#156082" fill-opacity="0.50196" height="224.8384" style="stroke:#181818;stroke-width:1.0;" width="10" x="97" y="149.146"/><rect fill="#E97232" fill-opacity="0.74118" height="224.8384" style="stroke:#181818;stroke-width:1.0;" width="10" x="331" y="149.146"/><polygon fill="#111827" points="319,145.146,329,149.146,319,153.146,323,149.146" style="stroke:#111827;stroke-width:1.0;"/><line style="stroke:#111827;stroke-width:1.0;" x1="107" x2="325" y1="149.146" y2="149.146"/><text fill="#000000" font-family="Arial" font-size="13" font-weight="bold" lengthAdjust="spacing" textLength="7" x="114" y="144.3911">1</text><text fill="#000000" font-family="Arial" font-size="13" lengthAdjust="spacing" textLength="99" x="125" y="144.3911">POST $plan-read</text><path d="M5,167.146 L5,199.146 A5,5 0 0 0 10,204.146 L195,204.146 A5,5 0 0 0 200,199.146 L200,172.146 L190,162.146 L10,162.146 A5,5 0 0 0 5,167.146 " fill="url(#g1xbll3anityth0)" style="stroke:#8B95A5;stroke-width:1.0;"/><path d="M190,162.146 L190,169.646 A2.5,2.5 0 0 0 192.5,172.146 L200,172.146 L190,162.146 " fill="url(#g1xbll3anityth0)" style="stroke:#8B95A5;stroke-width:1.0;"/><text fill="#111827" font-family="Arial" font-size="14" lengthAdjust="spacing" textLength="174" x="11" y="180.2778">Abruf des Medikationsplans</text><text fill="#111827" font-family="Arial" font-size="14" lengthAdjust="spacing" textLength="100" x="11" y="196.3765">zur Bearbeitung</text><line style="stroke:#111827;stroke-width:1.0;" x1="341" x2="383" y1="245.2407" y2="245.2407"/><line style="stroke:#111827;stroke-width:1.0;" x1="383" x2="383" y1="245.2407" y2="258.2407"/><line style="stroke:#111827;stroke-width:1.0;" x1="342" x2="383" y1="258.2407" y2="258.2407"/><polygon fill="#111827" points="352,254.2407,342,258.2407,352,262.2407,348,258.2407" style="stroke:#111827;stroke-width:1.0;"/><text fill="#000000" font-family="Arial" font-size="13" font-weight="bold" lengthAdjust="spacing" textLength="7" x="348" y="233.0115">2</text><text fill="#000000" font-family="Arial" font-size="13" lengthAdjust="spacing" textLength="91" x="359" y="225.5371">Existiert bereits</text><text fill="#000000" font-family="Arial" font-size="13" lengthAdjust="spacing" textLength="122" x="359" y="240.4858">ein Medikationsplan?</text><line style="stroke:#111827;stroke-width:1.0;" x1="341" x2="383" y1="317.0869" y2="317.0869"/><line style="stroke:#111827;stroke-width:1.0;" x1="383" x2="383" y1="317.0869" y2="330.0869"/><line style="stroke:#111827;stroke-width:1.0;" x1="342" x2="383" y1="330.0869" y2="330.0869"/><polygon fill="#111827" points="352,326.0869,342,330.0869,352,334.0869,348,330.0869" style="stroke:#111827;stroke-width:1.0;"/><text fill="#000000" font-family="Arial" font-size="13" font-weight="bold" lengthAdjust="spacing" textLength="7" x="348" y="297.3833">3</text><text fill="#000000" font-family="Arial" font-size="13" lengthAdjust="spacing" textLength="138" x="359" y="282.4346">Wenn Plan vorhanden +</text><text fill="#000000" font-family="Arial" font-size="13" lengthAdjust="spacing" textLength="299" x="359" y="297.3833">alle List.enty.flags im Medikationsplan = "removed":</text><text fill="#000000" font-family="Arial" font-size="13" lengthAdjust="spacing" textLength="312" x="359" y="312.332">Fachanwendung setzt List.emptyReason = "nilknown"</text><polygon fill="#111827" points="113,369.9844,103,373.9844,113,377.9844,109,373.9844" style="stroke:#111827;stroke-width:1.0;"/><line style="stroke:#111827;stroke-width:1.0;" x1="107" x2="335" y1="373.9844" y2="373.9844"/><text fill="#000000" font-family="Arial" font-size="13" font-weight="bold" lengthAdjust="spacing" textLength="7" x="119" y="361.7551">4</text><text fill="#000000" font-family="Arial" font-size="13" lengthAdjust="spacing" textLength="134" x="130" y="354.2808">Leerer Medikationsplan</text><text fill="#000000" font-family="Arial" font-size="13" lengthAdjust="spacing" textLength="189" x="130" y="369.2295">(List.emptyReason = "nilknown")</text><!--SRC=[VLLXRzem4FsUNt4BazPfeaf20wJIDeKHkcbjGS0qQK921X_K8jZCSKhfjFy-9q1n4ZhdItBt_ExTNNnMJCK8juWI9TmXPIkYcE399YOSBbR8E1hczvRrBbanlY6Ih87CbP0ZjTC4P8k9MADbdRmp8IdABo8M4cfElamlcQ-MKgIS7X0BFtiCHF90gDWoleG5YHCqF8Tjacl9habASK7IMFK4L_TaZM27af7OFeyOiMS4z-gyypNPNtSRb37ZAmCGHUS0FpZDNx0YloEU1eJIB3FFATexPityV9abvK8X_B40EkNgeOF-mgdNg4i3R6O8awaz2tpYlrZ73so-ufWau6hRqAYcex-FsZ8MenIkwxQzbhQDIdtvQofCy7UAVBvNEI1IiJdR4AxE9LO4LFw7V1L1rSvKtCUk5Xn6kG52ASMsd5HkBDObDvsB-EBOnsfequrMlYda-CAyTrNwXGilpyxOUGhlPKLzet_7xFVvqh_j3wSttN3gWburrsywRQ_jd05uEI1eDfrMjm8OXEDlqVquOmYQ7U-g0WW7VSXNpUa5KTSFoe3eBkfEUw46OD3o6jwCbW7JOVGh6eoXDgUDLiCZGJcD_dSenF3yCiLms1_cW2XekGsleGz0FcTWNm6IWAtVmBNDmbYRKxC1zRpAP6PGhEiFw8LsCGNDcIh1q_KCfMNjcUkVZZklOT0VZU5jDWFh4WdD5B17eW_V7cf6jl93AHxneD0APp9Tw5cIbCTfOZsd4Zf8v0oPIldIGaxpCssT0Xp55-KUhQR6w8abYg5Ke9FGXCc4wsbT3lhPEhlv9t8EWsp6FmhvGFIiul1XmacSNGQQznAvsbqkOh9CWAqh5yD7i2MkTTBKlfxm7fbhYgtEHYUbHu1wLWUIzKRjXaWIaM_XB5vniULsGLDUjUjNhg09l_WlaxwGA9QBPvhsFVa7]--></g></svg>