<?xml version="1.0" encoding="us-ascii" standalone="no"?><svg xmlns="http://www.w3.org/2000/svg" xmlns:xlink="http://www.w3.org/1999/xlink" contentStyleType="text/css" height="898px" preserveAspectRatio="none" style="width:663px;height:898px;background:#F5F5F5;" version="1.1" viewBox="0 0 663 898" width="663px" zoomAndPan="magnify"><defs><linearGradient id="gper94jl4fo5x0" x1="50%" x2="50%" y1="0%" y2="100%"><stop offset="0%" stop-color="#E0E5F0"/><stop offset="100%" stop-color="#D1D9E6"/></linearGradient></defs><g><rect fill="#F5F5F5" height="898" style="stroke:none;stroke-width:1.0;" width="663" x="0" y="0"/><text fill="#000000" font-family="Arial" font-size="14" font-weight="bold" lengthAdjust="spacing" textLength="480" x="87.75" y="28.1318">Geplante Abgabe f&#252;r bestehende Medikationsplaneintr&#228;ge erstellen</text><text fill="#000000" font-family="Arial" font-size="14" font-weight="bold" lengthAdjust="spacing" textLength="431" x="112.25" y="44.2305">Variante A: Vorab-Ermittlung des GroupIdentifiers (Normalfall)</text><rect fill="#156082" fill-opacity="0.50196" height="612.2192" style="stroke:#181818;stroke-width:1.0;" width="10" x="155" y="144.2959"/><rect fill="#E97232" fill-opacity="0.74118" height="123.0947" style="stroke:#181818;stroke-width:1.0;" width="10" x="361" y="352.8364"/><rect fill="#E97232" fill-opacity="0.74118" height="81.146" style="stroke:#181818;stroke-width:1.0;" width="10" x="361" y="675.3691"/><rect fill="#CD3732" fill-opacity="0.66275" height="28.9487" style="stroke:#181818;stroke-width:1.0;" width="10" x="576" y="599.373"/><rect fill="none" height="241.3867" rx="5" ry="5" style="stroke:#111827;stroke-width:2.0;" width="637.5" x="9" y="559.2271"/><line style="stroke:#181818;stroke-width:0.5;stroke-dasharray:5.0,5.0;" x1="160" x2="160" y1="134.2959" y2="817.6138"/><line style="stroke:#181818;stroke-width:0.5;stroke-dasharray:5.0,5.0;" x1="366" x2="366" y1="134.2959" y2="817.6138"/><line style="stroke:#181818;stroke-width:0.5;stroke-dasharray:5.0,5.0;" x1="580.5" x2="580.5" y1="134.2959" y2="817.6138"/><text fill="#000000" font-family="Arial" font-size="14" lengthAdjust="spacing" textLength="42" x="136" y="131.3291">GDA 1</text><ellipse cx="160" cy="66.6973" fill="#156082" fill-opacity="0.50196" rx="8" ry="8" style="stroke:#181818;stroke-width:0.5;"/><path d="M160,74.6973 L160,101.6973 M147,82.6973 L173,82.6973 M160,101.6973 L147,116.6973 M160,101.6973 L173,116.6973 " fill="none" style="stroke:#181818;stroke-width:0.5;"/><text fill="#000000" font-family="Arial" font-size="14" lengthAdjust="spacing" textLength="42" x="136" y="829.7456">GDA 1</text><ellipse cx="160" cy="841.2124" fill="#156082" fill-opacity="0.50196" rx="8" ry="8" style="stroke:#181818;stroke-width:0.5;"/><path d="M160,849.2124 L160,876.2124 M147,857.2124 L173,857.2124 M160,876.2124 L147,891.2124 M160,876.2124 L173,891.2124 " fill="none" style="stroke:#181818;stroke-width:0.5;"/><rect fill="#E97232" fill-opacity="0.74118" height="30.0986" rx="5" ry="5" style="stroke:#555555;stroke-width:0.5;" width="76" x="328" y="103.1973"/><text fill="#000000" font-family="Arial" font-size="14" lengthAdjust="spacing" textLength="62" x="335" y="123.3291">e-Med FA</text><rect fill="#E97232" fill-opacity="0.74118" height="30.0986" rx="5" ry="5" style="stroke:#555555;stroke-width:0.5;" width="76" x="328" y="816.6138"/><text fill="#000000" font-family="Arial" font-size="14" lengthAdjust="spacing" textLength="62" x="335" y="836.7456">e-Med FA</text><rect fill="#CD3732" fill-opacity="0.66275" height="30.0986" rx="5" ry="5" style="stroke:#555555;stroke-width:0.5;" width="71" x="545.5" y="103.1973"/><text fill="#000000" font-family="Arial" font-size="14" lengthAdjust="spacing" textLength="57" x="552.5" y="123.3291">e-Rezept</text><rect fill="#CD3732" fill-opacity="0.66275" height="30.0986" rx="5" ry="5" style="stroke:#555555;stroke-width:0.5;" width="71" x="545.5" y="816.6138"/><text fill="#000000" font-family="Arial" font-size="14" lengthAdjust="spacing" textLength="57" x="552.5" y="836.7456">e-Rezept</text><rect fill="#156082" fill-opacity="0.50196" height="612.2192" style="stroke:#181818;stroke-width:1.0;" width="10" x="155" y="144.2959"/><rect fill="#E97232" fill-opacity="0.74118" height="123.0947" style="stroke:#181818;stroke-width:1.0;" width="10" x="361" y="352.8364"/><rect fill="#E97232" fill-opacity="0.74118" height="81.146" style="stroke:#181818;stroke-width:1.0;" width="10" x="361" y="675.3691"/><rect fill="#CD3732" fill-opacity="0.66275" height="28.9487" style="stroke:#181818;stroke-width:1.0;" width="10" x="576" y="599.373"/><rect fill="#EEEEEE" height="3" rx="5" ry="5" style="stroke:#EEEEEE;stroke-width:1.0;" width="656.5" x="0" y="165.3452"/><line style="stroke:#000000;stroke-width:1.0;" x1="0" x2="656.5" y1="165.3452" y2="165.3452"/><line style="stroke:#000000;stroke-width:1.0;" x1="0" x2="656.5" y1="168.3452" y2="168.3452"/><rect fill="#EEEEEE" height="24.0986" rx="5" ry="5" style="stroke:#000000;stroke-width:2.0;" width="193" x="231.75" y="154.2959"/><text fill="#000000" font-family="Arial" font-size="14" font-weight="bold" lengthAdjust="spacing" textLength="175" x="237.75" y="171.4277">Medikationsplan abrufen</text><rect fill="none" height="42.1973" rx="5" ry="5" style="stroke:#000000;stroke-width:1.5;" width="294" x="133" y="188.3945"/><path d="M138,188.3945 L198,188.3945 L198,196.3945 L188,206.3945 L133,206.3945 L133,193.3945 A5,5 0 0 1 138,188.3945 " fill="#EEEEEE" style="stroke:#000000;stroke-width:2.0;"/><text fill="#000000" font-family="Arial" font-size="14" font-weight="bold" lengthAdjust="spacing" textLength="20" x="146" y="203.5264">ref</text><a href="interactions.html#sequenzdiagramm-plan-read" target="_top" title="interactions.html#sequenzdiagramm-plan-read" xlink:actuate="onRequest" xlink:href="interactions.html#sequenzdiagramm-plan-read" xlink:show="new" xlink:title="interactions.html#sequenzdiagramm-plan-read" xlink:type="simple"><text fill="#0000EE" font-family="Arial" font-size="14" lengthAdjust="spacing" textLength="67" x="246.5" y="223.5264">Plan-Read</text></a><path d="M43,245.5918 L43,277.5918 A5,5 0 0 0 48,282.5918 L271,282.5918 A5,5 0 0 0 276,277.5918 L276,250.5918 L266,240.5918 L48,240.5918 A5,5 0 0 0 43,245.5918 " fill="url(#gper94jl4fo5x0)" style="stroke:#8B95A5;stroke-width:1.0;"/><path d="M266,240.5918 L266,248.0918 A2.5,2.5 0 0 0 268.5,250.5918 L276,250.5918 L266,240.5918 " fill="url(#gper94jl4fo5x0)" style="stroke:#8B95A5;stroke-width:1.0;"/><text fill="#111827" font-family="Arial" font-size="14" lengthAdjust="spacing" textLength="176" x="49" y="258.7236">GDA erh&#228;lt Medikationsplan</text><text fill="#111827" font-family="Arial" font-size="14" lengthAdjust="spacing" textLength="212" x="49" y="274.8223">(Auslieferungs-Collection-Bundle)</text><rect fill="#EEEEEE" height="3" rx="5" ry="5" style="stroke:#EEEEEE;stroke-width:1.0;" width="656.5" x="0" y="308.8384"/><line style="stroke:#000000;stroke-width:1.0;" x1="0" x2="656.5" y1="308.8384" y2="308.8384"/><line style="stroke:#000000;stroke-width:1.0;" x1="0" x2="656.5" y1="311.8384" y2="311.8384"/><rect fill="#EEEEEE" height="24.0986" rx="5" ry="5" style="stroke:#000000;stroke-width:2.0;" width="338" x="159.25" y="297.7891"/><text fill="#000000" font-family="Arial" font-size="14" font-style="italic" font-weight="bold" lengthAdjust="spacing" textLength="126" x="165.25" y="314.9209">Geplante Abgaben</text><text fill="#000000" font-family="Arial" font-size="14" font-weight="bold" lengthAdjust="spacing" textLength="190" x="295.25" y="314.9209">vorbereiten und schreiben</text><polygon fill="#111827" points="349,348.8364,359,352.8364,349,356.8364,353,352.8364" style="stroke:#111827;stroke-width:1.0;"/><line style="stroke:#111827;stroke-width:1.0;" x1="165" x2="355" y1="352.8364" y2="352.8364"/><text fill="#000000" font-family="Arial" font-size="13" font-weight="bold" lengthAdjust="spacing" textLength="7" x="172" y="348.0815">1</text><text fill="#000000" font-family="Arial" font-size="13" lengthAdjust="spacing" textLength="166" x="183" y="348.0815">POST $groupidentifier-create&#8203;</text><path d="M63,370.8364 L63,402.8364 A5,5 0 0 0 68,407.8364 L252,407.8364 A5,5 0 0 0 257,402.8364 L257,375.8364 L247,365.8364 L68,365.8364 A5,5 0 0 0 63,370.8364 " fill="url(#gper94jl4fo5x0)" style="stroke:#8B95A5;stroke-width:1.0;"/><path d="M247,365.8364 L247,373.3364 A2.5,2.5 0 0 0 249.5,375.8364 L257,375.8364 L247,365.8364 " fill="url(#gper94jl4fo5x0)" style="stroke:#8B95A5;stroke-width:1.0;"/><text fill="#111827" font-family="Arial" font-size="14" lengthAdjust="spacing" textLength="159" x="69" y="383.9683">e-Med GroupIdentifier f&#252;r</text><text fill="#111827" font-family="Arial" font-size="14" lengthAdjust="spacing" textLength="173" x="69" y="400.0669">"Rezeptklammer" anfordern</text><line style="stroke:#111827;stroke-width:1.0;" x1="371" x2="413" y1="433.9824" y2="433.9824"/><line style="stroke:#111827;stroke-width:1.0;" x1="413" x2="413" y1="433.9824" y2="446.9824"/><line style="stroke:#111827;stroke-width:1.0;" x1="372" x2="413" y1="446.9824" y2="446.9824"/><polygon fill="#111827" points="382,442.9824,372,446.9824,382,450.9824,378,446.9824" style="stroke:#111827;stroke-width:1.0;"/><text fill="#000000" font-family="Arial" font-size="13" font-weight="bold" lengthAdjust="spacing" textLength="7" x="378" y="429.2275">2</text><text fill="#000000" font-family="Arial" font-size="13" lengthAdjust="spacing" textLength="180" x="389" y="429.2275">e-Med GroupIdentifier erzeugen</text><polygon fill="#111827" points="176,471.9312,166,475.9312,176,479.9312,172,475.9312" style="stroke:#111827;stroke-width:1.0;"/><line style="stroke:#111827;stroke-width:1.0;" x1="170" x2="365" y1="475.9312" y2="475.9312"/><text fill="#000000" font-family="Arial" font-size="13" font-weight="bold" lengthAdjust="spacing" textLength="7" x="182" y="471.1763">3</text><text fill="#000000" font-family="Arial" font-size="13" lengthAdjust="spacing" textLength="123" x="193" y="471.1763">e-Med GroupIdentifier</text><path d="M16,493.9312 L16,541.9312 A5,5 0 0 0 21,546.9312 L298,546.9312 A5,5 0 0 0 303,541.9312 L303,498.9312 L293,488.9312 L21,488.9312 A5,5 0 0 0 16,493.9312 " fill="url(#gper94jl4fo5x0)" style="stroke:#8B95A5;stroke-width:1.0;"/><path d="M293,488.9312 L293,496.4312 A2.5,2.5 0 0 0 295.5,498.9312 L303,498.9312 L293,488.9312 " fill="url(#gper94jl4fo5x0)" style="stroke:#8B95A5;stroke-width:1.0;"/><text fill="#111827" font-family="Arial" font-size="14" lengthAdjust="spacing" textLength="51" x="22" y="507.063">Erstellte</text><text fill="#111827" font-family="Arial" font-size="14" font-style="italic" lengthAdjust="spacing" textLength="119" x="77" y="507.063">Geplante Abgaben</text><text fill="#111827" font-family="Arial" font-size="14" lengthAdjust="spacing" textLength="84" x="200" y="507.063">referenzieren</text><text fill="#111827" font-family="Arial" font-size="14" lengthAdjust="spacing" textLength="256" x="22" y="523.1616">zugeh&#246;rige Medikationsplaneintr&#228;ge und</text><text fill="#111827" font-family="Arial" font-size="14" lengthAdjust="spacing" textLength="201" x="22" y="539.2603">enthalten e-Med GroupIdentifier</text><path d="M14,559.2271 L77,559.2271 L77,567.3257 L67,577.3257 L9,577.3257 L9,564.2271 A5,5 0 0 1 14,559.2271 " fill="#EEF2FF" style="stroke:#111827;stroke-width:1.5;"/><rect fill="none" height="241.3867" rx="5" ry="5" style="stroke:#111827;stroke-width:2.0;" width="637.5" x="9" y="559.2271"/><text fill="#000000" font-family="Arial" font-size="14" font-weight="bold" lengthAdjust="spacing" textLength="23" x="24" y="573.3589">par</text><text fill="#000000" font-family="Arial" font-size="14" font-weight="bold" lengthAdjust="spacing" textLength="149" x="92" y="574.3589">[Erstellung e-Rezept]</text><polygon fill="#111827" points="564,595.373,574,599.373,564,603.373,568,599.373" style="stroke:#111827;stroke-width:1.0;"/><line style="stroke:#111827;stroke-width:1.0;" x1="165" x2="570" y1="599.373" y2="599.373"/><text fill="#000000" font-family="Arial" font-size="13" font-weight="bold" lengthAdjust="spacing" textLength="7" x="172" y="594.6182">4</text><text fill="#000000" font-family="Arial" font-size="13" lengthAdjust="spacing" textLength="148" x="183" y="594.6182">Trigger e-Rezept erstellen</text><polygon fill="#111827" points="176,624.3218,166,628.3218,176,632.3218,172,628.3218" style="stroke:#111827;stroke-width:1.0;"/><line style="stroke:#111827;stroke-width:1.0;stroke-dasharray:2.0,2.0;" x1="170" x2="580" y1="628.3218" y2="628.3218"/><text fill="#000000" font-family="Arial" font-size="13" font-weight="bold" lengthAdjust="spacing" textLength="7" x="182" y="623.5669">5</text><text fill="#000000" font-family="Arial" font-size="13" lengthAdjust="spacing" textLength="19" x="193" y="623.5669">OK</text><line style="stroke:#111827;stroke-width:1.0;stroke-dasharray:2.0,2.0;" x1="9" x2="646.5" y1="637.3218" y2="637.3218"/><text fill="#000000" font-family="Arial" font-size="14" font-weight="bold" lengthAdjust="spacing" textLength="171" x="14" y="650.4536">[gleichzeitige Erstellung</text><text fill="#000000" font-family="Arial" font-size="14" font-style="italic" font-weight="bold" lengthAdjust="spacing" textLength="117" x="189" y="650.4536">Geplante Abgabe</text><text fill="#000000" font-family="Arial" font-size="14" font-weight="bold" lengthAdjust="spacing" textLength="5" x="306" y="650.4536">]</text><polygon fill="#111827" points="349,671.3691,359,675.3691,349,679.3691,353,675.3691" style="stroke:#111827;stroke-width:1.0;"/><line style="stroke:#111827;stroke-width:1.0;" x1="165" x2="355" y1="675.3691" y2="675.3691"/><text fill="#000000" font-family="Arial" font-size="13" font-weight="bold" lengthAdjust="spacing" textLength="7" x="172" y="670.6143">6</text><text fill="#000000" font-family="Arial" font-size="13" lengthAdjust="spacing" textLength="144" x="183" y="670.6143">POST $prescription-write</text><path d="M19,693.3691 L19,725.3691 A5,5 0 0 0 24,730.3691 L295,730.3691 A5,5 0 0 0 300,725.3691 L300,698.3691 L290,688.3691 L24,688.3691 A5,5 0 0 0 19,693.3691 " fill="url(#gper94jl4fo5x0)" style="stroke:#8B95A5;stroke-width:1.0;"/><path d="M290,688.3691 L290,695.8691 A2.5,2.5 0 0 0 292.5,698.3691 L300,698.3691 L290,688.3691 " fill="url(#gper94jl4fo5x0)" style="stroke:#8B95A5;stroke-width:1.0;"/><text fill="#111827" font-family="Arial" font-size="14" lengthAdjust="spacing" textLength="215" x="25" y="706.501">Transaction Bundle mit Geplanten</text><text fill="#111827" font-family="Arial" font-size="14" lengthAdjust="spacing" textLength="260" x="25" y="722.5996">Abgaben an Fachanwendung &#252;bermitteln</text><polygon fill="#111827" points="171,752.5151,161,756.5151,171,760.5151,167,756.5151" style="stroke:#111827;stroke-width:1.0;"/><line style="stroke:#111827;stroke-width:1.0;stroke-dasharray:2.0,2.0;" x1="165" x2="365" y1="756.5151" y2="756.5151"/><text fill="#000000" font-family="Arial" font-size="13" font-weight="bold" lengthAdjust="spacing" textLength="7" x="177" y="751.7603">7</text><text fill="#000000" font-family="Arial" font-size="13" lengthAdjust="spacing" textLength="19" x="188" y="751.7603">OK</text><path d="M273,774.5151 L273,790.5151 A5,5 0 0 0 278,795.5151 L454,795.5151 A5,5 0 0 0 459,790.5151 L459,779.5151 L449,769.5151 L278,769.5151 A5,5 0 0 0 273,774.5151 " fill="url(#gper94jl4fo5x0)" style="stroke:#8B95A5;stroke-width:1.0;"/><path d="M449,769.5151 L449,777.0151 A2.5,2.5 0 0 0 451.5,779.5151 L459,779.5151 L449,769.5151 " fill="url(#gper94jl4fo5x0)" style="stroke:#8B95A5;stroke-width:1.0;"/><text fill="#111827" font-family="Arial" font-size="14" font-style="italic" lengthAdjust="spacing" textLength="119" x="279" y="787.647">Geplante Abgaben</text><text fill="#111827" font-family="Arial" font-size="14" lengthAdjust="spacing" textLength="42" x="402" y="787.647">erstellt</text><!--SRC=[VLPHRzis47xdhxZP0zO2ysR9TH87JG2dKRAYRMmuNX_M5G4jdMp2DELITBAw6B3t_Ot-XZtrBVzalsH7IROeoPaC61Bl8- -xx-v86c4amZMk9LS6OJYRynb2_FXDmmnJWmjK4S8xZCII6v6er09HAACVlyuHK1D6IbI_g_TSYtoDKtYVQ3xh17ebZ94RDOS8KxZMoMRzEa9bH2ne8ZoxIVIAovXB-Pon7zAbK6kk-GfuQ19zQpuJC_w0QR92nahhBD4HwbU9J3IqkzdZMdcud9Cd5HM8k6z_3Y9Ty2Xv4CIAFAVeM8ffMg46prqqmfXlfBbAbBdXAuJMa6ALhSE8Mx55y5uSDZv5-vVFQzHIgAK32893W5yf8VO56_GlaZ_6F8fiP7wtEdxXQjRF7bTIbL3UlZ20YxfwsCL-tEsq8oyQu955k2kTp0Pztj-FJXSYN2fCK_1eREAesQNl7JUxYYE5vtad_Z6DtTRoygVBCCLF6rHXpdBCjH6XM5Ev7Ggi2cZKG_PKGStCDCoxh5OCZjm0GwsJXtfGsM1LbspeaCUz8VVLew6iPoenxbVEJOryOUndqJapI_U-5VKxAaTRFgz6RqUJk-lBuPq7zBIz_b7tn3_f7W3u6M1mTDGzlcm0niFfw-1cQbSO75tuBng0uNW4sTFkNWs2o_wW3WZU1PTtLqC2uE3Ox_cpg0wucmI_1UCfjCEeTzpp-Q0UnkWDL7pu_VeIaybeaW62mR7NytlK0Da-0xa2F8KMlO7NSeLXwpBPWBGDMfeMYXtwWAjXgnf25NytmIskJJ4X_sZLGY8M6vEepMg6ch6pi_fU2tocDp4gE3lB28jxJhsQStQ9QemXkSSYd1_tP4_XmmVQhb7RkRJcJmkpaksydRQHu7FghbN7Ukfev16CxTk4tZv-P8nb6qEvBBCAeLuyVfMcGPGz6svIAJ16JLj-sg6Ab9WvxLnGWKfypkWmoVQQBD2NuhnsxgYNFujpk4yqQO72KD0q3z9mGL-pGWB6yjWxvxiGJs4ykft2zxOFrc9_ldH2YiVWlt_z3SquylJLJgJys6EjF55BISAWRW5NSTP6og6_JyHEvceLx4PTaeTTejxYPexAdP9HV682Yx3kknbTa9_ADFYKnjfcYGf0s7zWMwAmUFn7Y_d_dFMK2rB0BBYqcJdChbI86W4A7lO2i2j_PhUcVGAB1Zc5ARcUMpaAM7cn87mPyAwXQYq4fQLJwZTwGmPNhWB3x2x0a8uOc4iKuM9BjMOZT-WsTREoLSbNgs-jCGsrM6Vr_g2fUYlC3vO9G3rpG4fmbUQz2ddR0DsYzZSqgqUHI2fCkEBXWgi7ajsoVln6ZMFlN2WjRfyC2XVs52eAPPO39LKPt54hoPQmfmgio9znQTZgOFy1]--></g></svg>