<svg xmlns="http://www.w3.org/2000/svg" xmlns:xlink="http://www.w3.org/1999/xlink" version="1.1" data-diagram-type="SEQUENCE" style="width:771px;height:1279px;background:#F5F5F5;" width="771px" height="1279px" viewBox="0 0 771 1279" zoomAndPan="magnify" preserveAspectRatio="none" contentStyleType="text/css"><?plantuml 1.2026.7beta3?><defs><linearGradient x1="50%" y1="0%" x2="50%" y2="100%" id="gno9cw8gjvbsb0"><stop stop-color="#E0E5F0" offset="0%"/><stop stop-color="#D1D9E6" offset="100%"/></linearGradient></defs><g><rect x="0" y="0" width="771" height="1279" fill="#F5F5F5" style="stroke:none;stroke-width:1;"/><g class="title" data-source-line="1"><text x="112.782" y="27.9951" fill="#000000" font-size="14" lengthAdjust="spacing" textLength="539.0137" font-weight="700" font-family="'Arial'">Geplante Abgabe für bestehende Medikationsplaneinträge erstellen</text><text x="136.8718" y="44.292" fill="#000000" font-size="14" lengthAdjust="spacing" textLength="490.834" font-weight="700" font-family="'Arial'">Variante A: Vorab-Ermittlung des GroupIdentifiers (Fehlerfall)</text></g><g><title>GDA 1</title><rect x="196.2817" y="144.8906" width="10" height="1012.9063" fill="#156082" fill-opacity="0.50196" style="stroke:#181818;stroke-width:1;"/></g><g><title>e-Med FA</title><rect x="427.6206" y="354.8047" width="10" height="123.8594" fill="#E97232" fill-opacity="0.74118" style="stroke:#181818;stroke-width:1;"/></g><g><title>e-Med FA</title><rect x="427.6206" y="862.5938" width="10" height="247.7734" fill="#E97232" fill-opacity="0.74118" style="stroke:#181818;stroke-width:1;"/></g><g><title>e-Rezept</title><rect x="682.4058" y="603.2813" width="10" height="139.4531" fill="#CD3732" fill-opacity="0.66275" style="stroke:#181818;stroke-width:1;"/></g><rect x="9" y="562.5547" width="746.5776" height="617.2422" fill="none" style="stroke:#111827;stroke-width:2;" rx="5" ry="5"/><rect x="19" y="654.5781" width="716.5776" height="161.5859" fill="#0F9ED5" fill-opacity="0.14510" style="stroke:#111827;stroke-width:2;" rx="5" ry="5"/><path d="M19,703.3047 L735.5776,703.3047 L735.5776,811.1641 A5,5 0 0 1 730.5776,816.1641 L24,816.1641 A5,5 0 0 1 19,811.1641 L19,703.3047" style="stroke:none;stroke-width:1;" fill="#E97132" fill-opacity="0.20784"/><rect x="156" y="930.1875" width="589.5776" height="242.6094" fill="#0F9ED5" fill-opacity="0.14510" style="stroke:#111827;stroke-width:2;" rx="5" ry="5"/><path d="M156,1015.2109 L745.5776,1015.2109 L745.5776,1167.7969 A5,5 0 0 1 740.5776,1172.7969 L161,1172.7969 A5,5 0 0 1 156,1167.7969 L156,1015.2109" style="stroke:none;stroke-width:1;" fill="#E97132" fill-opacity="0.20784"/><rect x="166" y="1069.6406" width="569.5776" height="96.1563" fill="#0F9ED5" fill-opacity="0.14510" style="stroke:#111827;stroke-width:2;" rx="5" ry="5"/><path d="M166,1118.3672 L735.5776,1118.3672 L735.5776,1160.7969 A5,5 0 0 1 730.5776,1165.7969 L171,1165.7969 A5,5 0 0 1 166,1160.7969 L166,1118.3672" style="stroke:none;stroke-width:1;" fill="#E97132" fill-opacity="0.20784"/><g class="participant-lifeline" data-qualified-name="GDA_1" data-entity-uid="part1" id="part1-lifeline" data-source-line="53"><g><title>GDA 1</title><rect x="197.2817" y="134.8906" width="8" height="1061.9063" fill="#000000" fill-opacity="0.00000"/><line x1="201" y1="134.8906" x2="201" y2="1196.7969" style="stroke:#181818;stroke-width:0.5;stroke-dasharray:5,5;"/></g></g><g class="participant-lifeline" data-qualified-name="eMed_FA" data-entity-uid="part2" id="part2-lifeline" data-source-line="54"><g><title>e-Med FA</title><rect x="428.6206" y="134.8906" width="8" height="1061.9063" fill="#000000" fill-opacity="0.00000"/><line x1="431.9585" y1="134.8906" x2="431.9585" y2="1196.7969" style="stroke:#181818;stroke-width:0.5;stroke-dasharray:5,5;"/></g></g><g class="participant-lifeline" data-qualified-name="e_Rezept" data-entity-uid="part3" id="part3-lifeline" data-source-line="55"><g><title>e-Rezept</title><rect x="683.4058" y="134.8906" width="8" height="1061.9063" fill="#000000" fill-opacity="0.00000"/><line x1="687.2339" y1="134.8906" x2="687.2339" y2="1196.7969" style="stroke:#181818;stroke-width:0.5;stroke-dasharray:5,5;"/></g></g><g class="participant participant-head" data-qualified-name="GDA_1" data-entity-uid="part1" id="part1-head" data-source-line="53"><text x="176" y="131.5889" fill="#000000" font-size="14" lengthAdjust="spacing" textLength="44.5635" font-family="'Arial'">GDA 1</text><ellipse cx="201.2817" cy="67.0938" rx="8" ry="8" fill="#156082" fill-opacity="0.50196" style="stroke:#181818;stroke-width:0.5;"/><path d="M201.2817,75.0938 L201.2817,102.0938 M188.2817,83.0938 L214.2817,83.0938 M201.2817,102.0938 L188.2817,117.0938 M201.2817,102.0938 L214.2817,117.0938" style="stroke:#181818;stroke-width:0.5;" fill="none"/></g><g class="participant participant-tail" data-qualified-name="GDA_1" data-entity-uid="part1" id="part1-tail" data-source-line="53"><text x="176" y="1208.792" fill="#000000" font-size="14" lengthAdjust="spacing" textLength="44.5635" font-family="'Arial'">GDA 1</text><ellipse cx="201.2817" cy="1220.5938" rx="8" ry="8" fill="#156082" fill-opacity="0.50196" style="stroke:#181818;stroke-width:0.5;"/><path d="M201.2817,1228.5938 L201.2817,1255.5938 M188.2817,1236.5938 L214.2817,1236.5938 M201.2817,1255.5938 L188.2817,1270.5938 M201.2817,1255.5938 L214.2817,1270.5938" style="stroke:#181818;stroke-width:0.5;" fill="none"/></g><g class="participant participant-head" data-qualified-name="eMed_FA" data-entity-uid="part2" id="part2-head" data-source-line="54"><rect x="392.9585" y="103.5938" width="79.3242" height="30.2969" fill="#E97232" fill-opacity="0.74118" style="stroke:#555555;stroke-width:0.5;" rx="5" ry="5"/><text x="399.9585" y="123.5889" fill="#000000" font-size="14" lengthAdjust="spacing" textLength="65.3242" font-family="'Arial'">e-Med FA</text></g><g class="participant participant-tail" data-qualified-name="eMed_FA" data-entity-uid="part2" id="part2-tail" data-source-line="54"><rect x="392.9585" y="1195.7969" width="79.3242" height="30.2969" fill="#E97232" fill-opacity="0.74118" style="stroke:#555555;stroke-width:0.5;" rx="5" ry="5"/><text x="399.9585" y="1215.792" fill="#000000" font-size="14" lengthAdjust="spacing" textLength="65.3242" font-family="'Arial'">e-Med FA</text></g><g class="participant participant-head" data-qualified-name="e_Rezept" data-entity-uid="part3" id="part3-head" data-source-line="55"><rect x="649.2339" y="103.5938" width="76.3438" height="30.2969" fill="#CD3732" fill-opacity="0.66275" style="stroke:#555555;stroke-width:0.5;" rx="5" ry="5"/><text x="656.2339" y="123.5889" fill="#000000" font-size="14" lengthAdjust="spacing" textLength="62.3438" font-family="'Arial'">e-Rezept</text></g><g class="participant participant-tail" data-qualified-name="e_Rezept" data-entity-uid="part3" id="part3-tail" data-source-line="55"><rect x="649.2339" y="1195.7969" width="76.3438" height="30.2969" fill="#CD3732" fill-opacity="0.66275" style="stroke:#555555;stroke-width:0.5;" rx="5" ry="5"/><text x="656.2339" y="1215.792" fill="#000000" font-size="14" lengthAdjust="spacing" textLength="62.3438" font-family="'Arial'">e-Rezept</text></g><g><title>GDA 1</title><rect x="196.2817" y="144.8906" width="10" height="1012.9063" fill="#156082" fill-opacity="0.50196" style="stroke:#181818;stroke-width:1;"/></g><g><title>e-Med FA</title><rect x="427.6206" y="354.8047" width="10" height="123.8594" fill="#E97232" fill-opacity="0.74118" style="stroke:#181818;stroke-width:1;"/></g><g><title>e-Med FA</title><rect x="427.6206" y="862.5938" width="10" height="247.7734" fill="#E97232" fill-opacity="0.74118" style="stroke:#181818;stroke-width:1;"/></g><g><title>e-Rezept</title><rect x="682.4058" y="603.2813" width="10" height="139.4531" fill="#CD3732" fill-opacity="0.66275" style="stroke:#181818;stroke-width:1;"/></g><rect x="0" y="166.0391" width="765.5776" height="3" fill="#EEEEEE" style="stroke:#EEEEEE;stroke-width:1;" rx="5" ry="5"/><line x1="0" y1="166.0391" x2="765.5776" y2="166.0391" style="stroke:#000000;stroke-width:1;"/><line x1="0" y1="169.0391" x2="765.5776" y2="169.0391" style="stroke:#000000;stroke-width:1;"/><rect x="274.6443" y="154.8906" width="216.2891" height="24.2969" fill="#EEEEEE" style="stroke:#000000;stroke-width:2;" rx="5" ry="5"/><text x="280.6443" y="171.8857" fill="#000000" font-size="14" lengthAdjust="spacing" textLength="197.415" font-weight="700" font-family="'Arial'">Medikationsplan abrufen</text><rect x="173" y="189.1875" width="302.2827" height="42.5938" fill="none" style="stroke:#000000;stroke-width:1.5;" rx="5" ry="5"/><path d="M178,189.1875 L240,189.1875 L240,197.1875 L230,207.1875 L173,207.1875 L173,194.1875 A5,5 0 0 1 178,189.1875" style="stroke:#000000;stroke-width:2;" fill="#EEEEEE"/><text x="186" y="204.1826" fill="#000000" font-size="14" lengthAdjust="spacing" textLength="22.4902" font-weight="700" font-family="'Arial'">ref</text><a target="_top" href="interactions.html#sequenzdiagramm-plan-read" xlink:href="interactions.html#sequenzdiagramm-plan-read" xlink:type="simple" xlink:actuate="onRequest" xlink:show="new" title="interactions.html#sequenzdiagramm-plan-read" xlink:title="interactions.html#sequenzdiagramm-plan-read"><text x="288.8201" y="224.1826" fill="#0000EE" font-size="14" lengthAdjust="spacing" textLength="70.6426" font-family="'Arial'">Plan-Read</text></a><path d="M73,246.7813 L73,278.7813 A5,5 0 0 0 78,283.7813 L323,283.7813 A5,5 0 0 0 328,278.7813 L328,251.7813 L318,241.7813 L78,241.7813 A5,5 0 0 0 73,246.7813" style="stroke:#8B95A5;stroke-width:1;" fill="url(#gno9cw8gjvbsb0)"/><path d="M318,241.7813 L318,249.2813 A2.5,2.5 0 0 0 320.5,251.7813 L328,251.7813 L318,241.7813" style="stroke:#8B95A5;stroke-width:1;" fill="url(#gno9cw8gjvbsb0)"/><text x="79" y="259.7764" fill="#111827" font-size="14" lengthAdjust="spacing" textLength="195.8018" font-family="'Arial'">GDA erhält Medikationsplan</text><text x="79" y="276.0732" fill="#111827" font-size="14" lengthAdjust="spacing" textLength="234.377" font-family="'Arial'">(Auslieferungs-Collection-Bundle)</text><rect x="0" y="310.5234" width="765.5776" height="3" fill="#EEEEEE" style="stroke:#EEEEEE;stroke-width:1;" rx="5" ry="5"/><line x1="0" y1="310.5234" x2="765.5776" y2="310.5234" style="stroke:#000000;stroke-width:1;"/><line x1="0" y1="313.5234" x2="765.5776" y2="313.5234" style="stroke:#000000;stroke-width:1;"/><rect x="193.1189" y="299.375" width="379.3398" height="24.2969" fill="#EEEEEE" style="stroke:#000000;stroke-width:2;" rx="5" ry="5"/><text x="199.1189" y="316.3701" fill="#000000" font-size="14" lengthAdjust="spacing" textLength="146.0908" font-weight="700" font-style="italic" font-family="'Arial'">Geplante Abgaben</text><text x="350.0837" y="316.3701" fill="#000000" font-size="14" lengthAdjust="spacing" textLength="209.501" font-weight="700" font-family="'Arial'">vorbereiten und schreiben</text><g class="message" data-entity-1="part1" data-entity-2="part2" id="msg1" data-source-line="71"><polygon points="415.6206,350.8047,425.6206,354.8047,415.6206,358.8047,419.6206,354.8047" fill="#111827" style="stroke:#111827;stroke-width:1;stroke-linejoin:miter;stroke-miterlimit:10;"/><line x1="206.2817" y1="354.8047" x2="421.6206" y2="354.8047" style="stroke:#111827;stroke-width:1;"/><text x="213.2817" y="349.7388" fill="#000000" font-size="13" lengthAdjust="spacing" textLength="9.0454" font-weight="700" font-family="'Arial'">1</text><text x="226.3271" y="349.7388" fill="#000000" font-size="13" lengthAdjust="spacing" textLength="189.2935" font-family="'Arial'">POST $groupidentifier-create​</text></g><path d="M37,372.8047 L37,404.8047 A5,5 0 0 0 42,409.8047 L358,409.8047 A5,5 0 0 0 363,404.8047 L363,377.8047 L353,367.8047 L42,367.8047 A5,5 0 0 0 37,372.8047" style="stroke:#8B95A5;stroke-width:1;" fill="url(#gno9cw8gjvbsb0)"/><path d="M353,367.8047 L353,375.3047 A2.5,2.5 0 0 0 355.5,377.8047 L363,377.8047 L353,367.8047" style="stroke:#8B95A5;stroke-width:1;" fill="url(#gno9cw8gjvbsb0)"/><text x="43" y="385.7998" fill="#111827" font-size="14" lengthAdjust="spacing" textLength="305.9287" font-family="'Arial'">e-Med GroupIdentifier für "Rezeptklammer"</text><text x="43" y="402.0967" fill="#111827" font-size="14" lengthAdjust="spacing" textLength="68.8311" font-family="'Arial'">anfordern</text><g class="message" data-entity-1="part2" data-entity-2="part2" id="msg2" data-source-line="79"><line x1="437.6206" y1="436.5313" x2="479.6206" y2="436.5313" style="stroke:#111827;stroke-width:1;"/><line x1="479.6206" y1="436.5313" x2="479.6206" y2="449.5313" style="stroke:#111827;stroke-width:1;"/><line x1="438.6206" y1="449.5313" x2="479.6206" y2="449.5313" style="stroke:#111827;stroke-width:1;"/><polygon points="448.6206,445.5313,438.6206,449.5313,448.6206,453.5313,444.6206,449.5313" fill="#111827" style="stroke:#111827;stroke-width:1;stroke-linejoin:miter;stroke-miterlimit:10;"/><text x="444.6206" y="431.4653" fill="#000000" font-size="13" lengthAdjust="spacing" textLength="9.0454" font-weight="700" font-family="'Arial'">2</text><text x="457.666" y="431.4653" fill="#000000" font-size="13" lengthAdjust="spacing" textLength="207.7397" font-family="'Arial'">e-Med GroupIdentifier erzeugen</text></g><g class="message" data-entity-1="part2" data-entity-2="part1" id="msg3" data-source-line="80"><polygon points="217.2817,474.6641,207.2817,478.6641,217.2817,482.6641,213.2817,478.6641" fill="#111827" style="stroke:#111827;stroke-width:1;stroke-linejoin:miter;stroke-miterlimit:10;"/><line x1="211.2817" y1="478.6641" x2="431.6206" y2="478.6641" style="stroke:#111827;stroke-width:1;stroke-dasharray:2,2;"/><text x="223.2817" y="473.5981" fill="#000000" font-size="13" lengthAdjust="spacing" textLength="9.0454" font-weight="700" font-family="'Arial'">3</text><text x="236.3271" y="473.5981" fill="#000000" font-size="13" lengthAdjust="spacing" textLength="142.7144" font-family="'Arial'">e-Med GroupIdentifier</text></g><path d="M42,496.6641 L42,544.6641 A5,5 0 0 0 47,549.6641 L354,549.6641 A5,5 0 0 0 359,544.6641 L359,501.6641 L349,491.6641 L47,491.6641 A5,5 0 0 0 42,496.6641" style="stroke:#8B95A5;stroke-width:1;" fill="url(#gno9cw8gjvbsb0)"/><path d="M349,491.6641 L349,499.1641 A2.5,2.5 0 0 0 351.5,501.6641 L359,501.6641 L349,491.6641" style="stroke:#8B95A5;stroke-width:1;" fill="url(#gno9cw8gjvbsb0)"/><text x="48" y="509.6592" fill="#111827" font-size="14" lengthAdjust="spacing" textLength="57.8799" font-family="'Arial'">Erstellte</text><text x="110.3301" y="509.6592" fill="#111827" font-size="14" lengthAdjust="spacing" textLength="130.5459" font-style="italic" font-family="'Arial'">Geplante Abgaben</text><text x="245.3262" y="509.6592" fill="#111827" font-size="14" lengthAdjust="spacing" textLength="94.2471" font-family="'Arial'">referenzieren</text><text x="48" y="525.9561" fill="#111827" font-size="14" lengthAdjust="spacing" textLength="287.0342" font-family="'Arial'">zugehörige Medikationsplaneinträge und</text><text x="48" y="542.2529" fill="#111827" font-size="14" lengthAdjust="spacing" textLength="225.4355" font-family="'Arial'">enthalten e-Med GroupIdentifier</text><path d="M14,562.5547 L80.373,562.5547 L80.373,570.8516 L70.373,580.8516 L9,580.8516 L9,567.5547 A5,5 0 0 1 14,562.5547" style="stroke:#111827;stroke-width:1.5;" fill="#EEF2FF"/><rect x="9" y="562.5547" width="746.5776" height="617.2422" fill="none" style="stroke:#111827;stroke-width:2;" rx="5" ry="5"/><text x="24" y="576.5498" fill="#000000" font-size="14" lengthAdjust="spacing" textLength="26.373" font-weight="700" font-family="'Arial'">par</text><text x="95.373" y="577.5498" fill="#000000" font-size="14" lengthAdjust="spacing" textLength="168.1504" font-weight="700" font-family="'Arial'">[Erstellung e-Rezept]</text><g class="message" data-entity-1="part1" data-entity-2="part3" id="msg4" data-source-line="91"><polygon points="670.4058,599.2813,680.4058,603.2813,670.4058,607.2813,674.4058,603.2813" fill="#111827" style="stroke:#111827;stroke-width:1;stroke-linejoin:miter;stroke-miterlimit:10;"/><line x1="206.2817" y1="603.2813" x2="676.4058" y2="603.2813" style="stroke:#111827;stroke-width:1;"/><text x="213.2817" y="598.2153" fill="#000000" font-size="13" lengthAdjust="spacing" textLength="9.0454" font-weight="700" font-family="'Arial'">4</text><text x="226.3271" y="598.2153" fill="#000000" font-size="13" lengthAdjust="spacing" textLength="169.5713" font-family="'Arial'">Trigger e-Rezept erstellen</text></g><path d="M88,621.2813 L88,637.2813 A5,5 0 0 0 93,642.2813 L307,642.2813 A5,5 0 0 0 312,637.2813 L312,626.2813 L302,616.2813 L93,616.2813 A5,5 0 0 0 88,621.2813" style="stroke:#8B95A5;stroke-width:1;" fill="url(#gno9cw8gjvbsb0)"/><path d="M302,616.2813 L302,623.7813 A2.5,2.5 0 0 0 304.5,626.2813 L312,626.2813 L302,616.2813" style="stroke:#8B95A5;stroke-width:1;" fill="url(#gno9cw8gjvbsb0)"/><text x="94" y="634.2764" fill="#111827" font-size="14" lengthAdjust="spacing" textLength="203.6357" font-family="'Arial'">Erstellung e-Rezept auslösen</text><path d="M24,654.5781 L84.9385,654.5781 L84.9385,662.875 L74.9385,672.875 L19,672.875 L19,659.5781 A5,5 0 0 1 24,654.5781" style="stroke:#111827;stroke-width:1.5;" fill="#EEF2FF"/><rect x="19" y="654.5781" width="716.5776" height="161.5859" fill="none" style="stroke:#111827;stroke-width:2;" rx="5" ry="5"/><text x="34" y="668.5732" fill="#000000" font-size="14" lengthAdjust="spacing" textLength="20.9385" font-weight="700" font-family="'Arial'">alt</text><text x="99.9385" y="669.5732" fill="#000000" font-size="14" lengthAdjust="spacing" textLength="144.8193" font-weight="700" font-family="'Arial'">[e-Rezept erstellt]</text><g class="message" data-entity-1="part3" data-entity-2="part1" id="msg5" data-source-line="98"><polygon points="217.2817,691.3047,207.2817,695.3047,217.2817,699.3047,213.2817,695.3047" fill="#111827" style="stroke:#111827;stroke-width:1;stroke-linejoin:miter;stroke-miterlimit:10;"/><line x1="211.2817" y1="695.3047" x2="681.4058" y2="695.3047" style="stroke:#111827;stroke-width:1;stroke-dasharray:2,2;"/><text x="223.2817" y="690.2388" fill="#000000" font-size="13" lengthAdjust="spacing" textLength="9.0454" font-weight="700" font-family="'Arial'">5</text><text x="236.3271" y="690.2388" fill="#000000" font-size="13" lengthAdjust="spacing" textLength="18.7573" font-family="'Arial'">OK</text></g><line x1="19" y1="704.3047" x2="735.5776" y2="704.3047" style="stroke:#111827;stroke-width:1;stroke-dasharray:2,2;"/><text x="24" y="717.2998" fill="#000000" font-size="14" lengthAdjust="spacing" textLength="137.833" font-weight="700" font-family="'Arial'">[e-Rezept Fehler]</text><g class="message" data-entity-1="part3" data-entity-2="part1" id="msg6" data-source-line="101"><polygon points="217.2817,738.7344,207.2817,742.7344,217.2817,746.7344,213.2817,742.7344" fill="#111827" style="stroke:#111827;stroke-width:1;stroke-linejoin:miter;stroke-miterlimit:10;"/><line x1="211.2817" y1="742.7344" x2="686.4058" y2="742.7344" style="stroke:#111827;stroke-width:1;stroke-dasharray:2,2;"/><text x="223.2817" y="737.6685" fill="#000000" font-size="13" lengthAdjust="spacing" textLength="9.0454" font-weight="700" font-family="'Arial'">6</text><text x="236.3271" y="737.6685" fill="#000000" font-size="13" lengthAdjust="spacing" textLength="40.6694" font-family="'Arial'">Fehler</text></g><g class="message" data-entity-1="part1" data-entity-2="part2" id="msg7" data-source-line="103"><polygon points="420.6206,767.8672,430.6206,771.8672,420.6206,775.8672,424.6206,771.8672" fill="#111827" style="stroke:#111827;stroke-width:1;stroke-linejoin:miter;stroke-miterlimit:10;"/><line x1="206.2817" y1="771.8672" x2="426.6206" y2="771.8672" style="stroke:#111827;stroke-width:1;"/><text x="213.2817" y="766.8013" fill="#000000" font-size="13" lengthAdjust="spacing" textLength="9.0454" font-weight="700" font-family="'Arial'">7</text><text x="226.3271" y="766.8013" fill="#000000" font-size="13" lengthAdjust="spacing" textLength="176.3315" font-family="'Arial'">POST $prescription-discard​</text></g><path d="M29,789.8672 L29,805.8672 A5,5 0 0 0 34,810.8672 L367,810.8672 A5,5 0 0 0 372,805.8672 L372,794.8672 L362,784.8672 L34,784.8672 A5,5 0 0 0 29,789.8672" style="stroke:#8B95A5;stroke-width:1;" fill="url(#gno9cw8gjvbsb0)"/><path d="M362,784.8672 L362,792.3672 A2.5,2.5 0 0 0 364.5,794.8672 L372,794.8672 L362,784.8672" style="stroke:#8B95A5;stroke-width:1;" fill="url(#gno9cw8gjvbsb0)"/><text x="35" y="802.8623" fill="#111827" font-size="14" lengthAdjust="spacing" textLength="119.082" font-family="'Arial'">Siehe Use Case "</text><text x="154.082" y="802.8623" fill="#111827" font-size="14" lengthAdjust="spacing" textLength="121.6729" font-style="italic" font-family="'Arial'">Geplante Abgabe</text><text x="280.2051" y="802.8623" fill="#111827" font-size="14" lengthAdjust="spacing" textLength="77.3281" font-family="'Arial'">verwerfen"</text><line x1="9" y1="824.1641" x2="755.5776" y2="824.1641" style="stroke:#111827;stroke-width:1;stroke-dasharray:2,2;"/><text x="14" y="837.1592" fill="#000000" font-size="14" lengthAdjust="spacing" textLength="192.6436" font-weight="700" font-family="'Arial'">[gleichzeitige Erstellung</text><text x="211.5176" y="837.1592" fill="#000000" font-size="14" lengthAdjust="spacing" textLength="136.124" font-weight="700" font-style="italic" font-family="'Arial'">Geplante Abgabe</text><text x="347.6416" y="837.1592" fill="#000000" font-size="14" lengthAdjust="spacing" textLength="6.3984" font-weight="700" font-family="'Arial'">]</text><g class="message" data-entity-1="part1" data-entity-2="part2" id="msg8" data-source-line="112"><polygon points="415.6206,858.5938,425.6206,862.5938,415.6206,866.5938,419.6206,862.5938" fill="#111827" style="stroke:#111827;stroke-width:1;stroke-linejoin:miter;stroke-miterlimit:10;"/><line x1="206.2817" y1="862.5938" x2="421.6206" y2="862.5938" style="stroke:#111827;stroke-width:1;"/><text x="213.2817" y="857.5278" fill="#000000" font-size="13" lengthAdjust="spacing" textLength="9.0454" font-weight="700" font-family="'Arial'">8</text><text x="226.3271" y="857.5278" fill="#000000" font-size="13" lengthAdjust="spacing" textLength="161.6685" font-family="'Arial'">POST $prescription-write</text></g><path d="M45,880.5938 L45,912.5938 A5,5 0 0 0 50,917.5938 L351,917.5938 A5,5 0 0 0 356,912.5938 L356,885.5938 L346,875.5938 L50,875.5938 A5,5 0 0 0 45,880.5938" style="stroke:#8B95A5;stroke-width:1;" fill="url(#gno9cw8gjvbsb0)"/><path d="M346,875.5938 L346,883.0938 A2.5,2.5 0 0 0 348.5,885.5938 L356,885.5938 L346,875.5938" style="stroke:#8B95A5;stroke-width:1;" fill="url(#gno9cw8gjvbsb0)"/><text x="51" y="893.5889" fill="#111827" font-size="14" lengthAdjust="spacing" textLength="239.9209" font-family="'Arial'">Transaction Bundle mit Geplanten</text><text x="51" y="909.8857" fill="#111827" font-size="14" lengthAdjust="spacing" textLength="290.2266" font-family="'Arial'">Abgaben an Fachanwendung übermitteln</text><path d="M161,930.1875 L221.9385,930.1875 L221.9385,938.4844 L211.9385,948.4844 L156,948.4844 L156,935.1875 A5,5 0 0 1 161,930.1875" style="stroke:#111827;stroke-width:1.5;" fill="#EEF2FF"/><rect x="156" y="930.1875" width="589.5776" height="242.6094" fill="none" style="stroke:#111827;stroke-width:2;" rx="5" ry="5"/><text x="171" y="944.1826" fill="#000000" font-size="14" lengthAdjust="spacing" textLength="20.9385" font-weight="700" font-family="'Arial'">alt</text><text x="236.9385" y="945.1826" fill="#000000" font-size="14" lengthAdjust="spacing" textLength="6.3984" font-weight="700" font-family="'Arial'">[</text><text x="243.3369" y="945.1826" fill="#000000" font-size="14" lengthAdjust="spacing" textLength="136.124" font-weight="700" font-style="italic" font-family="'Arial'">Geplante Abgabe</text><text x="384.335" y="945.1826" fill="#000000" font-size="14" lengthAdjust="spacing" textLength="63.6084" font-weight="700" font-family="'Arial'">erstellt]</text><g class="message" data-entity-1="part2" data-entity-2="part1" id="msg9" data-source-line="120"><polygon points="217.2817,966.9141,207.2817,970.9141,217.2817,974.9141,213.2817,970.9141" fill="#111827" style="stroke:#111827;stroke-width:1;stroke-linejoin:miter;stroke-miterlimit:10;"/><line x1="211.2817" y1="970.9141" x2="426.6206" y2="970.9141" style="stroke:#111827;stroke-width:1;stroke-dasharray:2,2;"/><text x="223.2817" y="965.8481" fill="#000000" font-size="13" lengthAdjust="spacing" textLength="9.0454" font-weight="700" font-family="'Arial'">9</text><text x="236.3271" y="965.8481" fill="#000000" font-size="13" lengthAdjust="spacing" textLength="18.7573" font-family="'Arial'">OK</text></g><path d="M296,988.9141 L296,1004.9141 A5,5 0 0 0 301,1009.9141 L563,1009.9141 A5,5 0 0 0 568,1004.9141 L568,993.9141 L558,983.9141 L301,983.9141 A5,5 0 0 0 296,988.9141" style="stroke:#8B95A5;stroke-width:1;" fill="url(#gno9cw8gjvbsb0)"/><path d="M558,983.9141 L558,991.4141 A2.5,2.5 0 0 0 560.5,993.9141 L568,993.9141 L558,983.9141" style="stroke:#8B95A5;stroke-width:1;" fill="url(#gno9cw8gjvbsb0)"/><text x="302" y="1001.9092" fill="#111827" font-size="14" lengthAdjust="spacing" textLength="251.6309" font-family="'Arial'">Geplante Abgabe 1 + 2 gespeichert</text><line x1="156" y1="1016.2109" x2="745.5776" y2="1016.2109" style="stroke:#111827;stroke-width:1;stroke-dasharray:2,2;"/><text x="161" y="1029.2061" fill="#000000" font-size="14" lengthAdjust="spacing" textLength="6.3984" font-weight="700" font-family="'Arial'">[</text><text x="167.3984" y="1029.2061" fill="#000000" font-size="14" lengthAdjust="spacing" textLength="136.124" font-weight="700" font-style="italic" font-family="'Arial'">Geplante Abgabe</text><text x="308.3965" y="1029.2061" fill="#000000" font-size="14" lengthAdjust="spacing" textLength="56.6221" font-weight="700" font-family="'Arial'">Fehler]</text><g class="message" data-entity-1="part2" data-entity-2="part1" id="msg10" data-source-line="127"><polygon points="217.2817,1050.6406,207.2817,1054.6406,217.2817,1058.6406,213.2817,1054.6406" fill="#111827" style="stroke:#111827;stroke-width:1;stroke-linejoin:miter;stroke-miterlimit:10;"/><line x1="211.2817" y1="1054.6406" x2="426.6206" y2="1054.6406" style="stroke:#111827;stroke-width:1;stroke-dasharray:2,2;"/><text x="223.2817" y="1049.5747" fill="#000000" font-size="13" lengthAdjust="spacing" textLength="18.0908" font-weight="700" font-family="'Arial'">10</text><text x="245.3726" y="1049.5747" fill="#000000" font-size="13" lengthAdjust="spacing" textLength="40.6694" font-family="'Arial'">Fehler</text></g><path d="M171,1069.6406 L231.9385,1069.6406 L231.9385,1077.9375 L221.9385,1087.9375 L166,1087.9375 L166,1074.6406 A5,5 0 0 1 171,1069.6406" style="stroke:#111827;stroke-width:1.5;" fill="#EEF2FF"/><rect x="166" y="1069.6406" width="569.5776" height="96.1563" fill="none" style="stroke:#111827;stroke-width:2;" rx="5" ry="5"/><text x="181" y="1083.6357" fill="#000000" font-size="14" lengthAdjust="spacing" textLength="20.9385" font-weight="700" font-family="'Arial'">alt</text><text x="246.9385" y="1084.6357" fill="#000000" font-size="14" lengthAdjust="spacing" textLength="304.6094" font-weight="700" font-family="'Arial'">[Geplante Abgabe erneut übermitteln]</text><g class="message" data-entity-1="part1" data-entity-2="part2" id="msg11" data-source-line="130"><polygon points="420.6206,1106.3672,430.6206,1110.3672,420.6206,1114.3672,424.6206,1110.3672" fill="#111827" style="stroke:#111827;stroke-width:1;stroke-linejoin:miter;stroke-miterlimit:10;"/><line x1="206.2817" y1="1110.3672" x2="426.6206" y2="1110.3672" style="stroke:#111827;stroke-width:1;"/><text x="213.2817" y="1105.3013" fill="#000000" font-size="13" lengthAdjust="spacing" textLength="18.0908" font-weight="700" font-family="'Arial'">11</text><text x="235.3726" y="1105.3013" fill="#000000" font-size="13" lengthAdjust="spacing" textLength="161.6685" font-family="'Arial'">POST $prescription-write</text></g><line x1="166" y1="1119.3672" x2="735.5776" y2="1119.3672" style="stroke:#111827;stroke-width:1;stroke-dasharray:2,2;"/><text x="171" y="1132.3623" fill="#000000" font-size="14" lengthAdjust="spacing" textLength="187.8652" font-weight="700" font-family="'Arial'">[Fehler nicht behebbar]</text><g class="message" data-entity-1="part1" data-entity-2="part3" id="msg12" data-source-line="134"><polygon points="675.4058,1153.7969,685.4058,1157.7969,675.4058,1161.7969,679.4058,1157.7969" fill="#111827" style="stroke:#111827;stroke-width:1;stroke-linejoin:miter;stroke-miterlimit:10;"/><line x1="201.2817" y1="1157.7969" x2="681.4058" y2="1157.7969" style="stroke:#111827;stroke-width:1;"/><text x="208.2817" y="1152.731" fill="#000000" font-size="13" lengthAdjust="spacing" textLength="18.0908" font-weight="700" font-family="'Arial'">12</text><text x="230.3726" y="1152.731" fill="#000000" font-size="13" lengthAdjust="spacing" textLength="310.0576" font-family="'Arial'">e-Rezept von e-Med GroupIdentifier entkoppeln</text></g><?plantuml-src ZLVDRjj64BxpAQPIWIPerOfKP5j6742E9JT84mcoaaFJm5YI8t4XQiaiLrQZea3lVOqyGqwvwKtw99rTKXJ_b9Q63N9dTkQRRtvshRWA4Mun3fbG24DtoLo4nVwB11SJXG4A7-4L-dp558z4eXMH2oNtdvO8A4ad357y9juooLCRb_0saipjZEIQAnLkn19yJE1MHfluXOz2yGMdZV1eZ468Si72yB5bVPUik8YPP6jWdehadVf8oDWMasYDbdMKkf7qKJwFmaX2kskUefHvgoLv4dwciUZhdu964Z0_sd92HPuJB4YoRLAW1BjerCS5suHg70drcgqHMaEADMmrQzpn7OBzf5bu2lRF7sEK8HUhWi9erAJmXXAYNx06_phwVSfyNqVcTClhrqNE-kOfKYeYojiV5i1rbJtiOd_HxRHzsn_WcTOeMhfm1ttMprVd0VTM0fC4R5gR5TZiqlS1cxPIeCAsxGlddDRkAddviuWmmGyR55wASigauXwFgToQ0YihrEh1F6MbUcPguaDMIu82tG13AQDjDIYpMER5B3Lvp0MfhnujcPufnPXRJaMrVE72CT4LTXxTEvhKRwWSTVayd_mocTtVtWplRQ2dRVVFkXVEHRT1mJ4AWxEpxlbDJM4wdByOlPvh2uEpQ-T9JM4udO1vsjtnO7JJ7rGLHgz6D_VZ8IdWuDpfEQvVLRYVZNuTJUVGzlpUUSzXWseOavTGyk7qgoPciydCA8m6vtRFwL43M6RGG4e1Iw15Rs2tYinOyJ7RW3G7DKwjYXtwWF6mLOwXh7y_mnt6AjkGVhGgCH6AZOh4PksYjAohg-gm1URApG85N5qPmFo1KREcc8j09IuWUi0id1zoi9VmxXtDQvHwBzdyCL3hi9tsqyxdR4djjUveJns9p8UfVflHs_ltbcK6mz6gfGb26Um_XQg6qteqt2GXnmLA6lb9XoeoHEEpSqq56k9ZYmuJCsjCd4_viygv8vx-n9_1GoI92kIAOgPza7W1VRaP0sdWdMU7-2vXEhcRmxUw2sAUdouTZu9H-CzVVqCzYZHtbVCeFVHQQP9M8P62icKniJ0z90hOyoGSA2vNm66rYB7P8yeTRfOeZbjeZu5uOeVbOzLvFRfHUYRJuYc6fSuHPP_hls3j24Em_opvyYidFMM2A5012tLUcj4TAQ8kW0o7FluFjM_fmPGdCEkEIvYJwwNc8rCxNYj8_nZmePig_GDGPG2QV0EZwjn_JepH8r9o4AhZ4Ab2K9QU6RdhGe8cBur86wFJgZHbSYFf1UUaYLGCHbxCRAPgra_LUomnyIIFJN_vFF6OzAdQ3vYQIA4ZbjE53jvek8p-jEe5adOWoYtTor2qKkW7iiohPPbubo5oBzXHc-goAV3TRBES-Q-4ifNSUFgF9ckARowPID8f1-d40Rg0vfTRdVUi2u36rPXv0HDRYaYZtd-XcQElgnYMwiEGMQgG4voLwwNUprGkbRGS6ZWzjwfNS1k-1mUMcCIQPvIgd8gciZk1h5Y4TLoPr8XBSLO1qGp4ZQeIzRzBDCrhYg8AFEi3GO4g-hSZGDTbCZFUCF6gNlCvalVTGoHEZLoXLb4S7y4NxASMhGFHMRdJxxy0?></g></svg>