<svg xmlns="http://www.w3.org/2000/svg" xmlns:xlink="http://www.w3.org/1999/xlink" version="1.1" data-diagram-type="SEQUENCE" style="width:749px;height:555px;background:#F5F5F5;" width="749px" height="555px" viewBox="0 0 749 555" zoomAndPan="magnify" preserveAspectRatio="none" contentStyleType="text/css"><?plantuml 1.2026.7beta3?><defs><linearGradient x1="50%" y1="0%" x2="50%" y2="100%" id="ganfaxgglvyh60"><stop stop-color="#E0E5F0" offset="0%"/><stop stop-color="#D1D9E6" offset="100%"/></linearGradient></defs><g><rect x="0" y="0" width="749" height="555" fill="#F5F5F5" style="stroke:none;stroke-width:1;"/><g class="title" data-source-line="1"><text x="243.5625" y="27.9951" fill="#000000" font-size="14" lengthAdjust="spacing" textLength="254.96" font-weight="700" font-family="'Arial'">Durchgeführte Abgabe erstellen</text><text x="229.6035" y="44.292" fill="#000000" font-size="14" lengthAdjust="spacing" textLength="282.8779" font-weight="700" font-family="'Arial'">Variante A: Zugriff mittels e-Rezept</text></g><g><title>GDA 1</title><rect x="145.2817" y="236.9141" width="10" height="226.8828" fill="#156082" fill-opacity="0.50196" style="stroke:#181818;stroke-width:1;"/></g><g><title>GDA 1</title><rect x="150.2817" y="366.0703" width="10" height="97.7266" fill="#156082" fill-opacity="0.50196" style="stroke:#181818;stroke-width:1;"/></g><g><title>e-Med FA</title><rect x="592.0791" y="366.0703" width="10" height="29.1328" fill="#E97232" fill-opacity="0.74118" style="stroke:#181818;stroke-width:1;"/></g><g><title>e-Rezept</title><rect x="679.9131" y="236.9141" width="10" height="29.1328" fill="#CD3732" fill-opacity="0.66275" style="stroke:#181818;stroke-width:1;"/></g><rect x="9" y="196.1875" width="724.085" height="259.6094" fill="none" style="stroke:#111827;stroke-width:2;" rx="5" ry="5"/><g class="participant-lifeline" data-qualified-name="GDA_1" data-entity-uid="part1" id="part1-lifeline" data-source-line="51"><g><title>GDA 1</title><rect x="146.2817" y="134.8906" width="8" height="337.9063" fill="#000000" fill-opacity="0.00000"/><line x1="150" y1="134.8906" x2="150" y2="472.7969" style="stroke:#181818;stroke-width:0.5;stroke-dasharray:5,5;"/></g></g><g class="participant-lifeline" data-qualified-name="eMed_FA" data-entity-uid="part2" id="part2-lifeline" data-source-line="52"><g><title>e-Med FA</title><rect x="593.0791" y="134.8906" width="8" height="337.9063" fill="#000000" fill-opacity="0.00000"/><line x1="596.417" y1="134.8906" x2="596.417" y2="472.7969" style="stroke:#181818;stroke-width:0.5;stroke-dasharray:5,5;"/></g></g><g class="participant-lifeline" data-qualified-name="e_Rezept" data-entity-uid="part3" id="part3-lifeline" data-source-line="53"><g><title>e-Rezept</title><rect x="680.9131" y="134.8906" width="8" height="337.9063" fill="#000000" fill-opacity="0.00000"/><line x1="684.7412" y1="134.8906" x2="684.7412" y2="472.7969" style="stroke:#181818;stroke-width:0.5;stroke-dasharray:5,5;"/></g></g><g class="participant participant-head" data-qualified-name="GDA_1" data-entity-uid="part1" id="part1-head" data-source-line="51"><text x="125" y="131.5889" fill="#000000" font-size="14" lengthAdjust="spacing" textLength="44.5635" font-family="'Arial'">GDA 1</text><ellipse cx="150.2817" cy="67.0938" rx="8" ry="8" fill="#156082" fill-opacity="0.50196" style="stroke:#181818;stroke-width:0.5;"/><path d="M150.2817,75.0938 L150.2817,102.0938 M137.2817,83.0938 L163.2817,83.0938 M150.2817,102.0938 L137.2817,117.0938 M150.2817,102.0938 L163.2817,117.0938" style="stroke:#181818;stroke-width:0.5;" fill="none"/></g><g class="participant participant-tail" data-qualified-name="GDA_1" data-entity-uid="part1" id="part1-tail" data-source-line="51"><text x="125" y="484.792" fill="#000000" font-size="14" lengthAdjust="spacing" textLength="44.5635" font-family="'Arial'">GDA 1</text><ellipse cx="150.2817" cy="496.5938" rx="8" ry="8" fill="#156082" fill-opacity="0.50196" style="stroke:#181818;stroke-width:0.5;"/><path d="M150.2817,504.5938 L150.2817,531.5938 M137.2817,512.5938 L163.2817,512.5938 M150.2817,531.5938 L137.2817,546.5938 M150.2817,531.5938 L163.2817,546.5938" style="stroke:#181818;stroke-width:0.5;" fill="none"/></g><g class="participant participant-head" data-qualified-name="eMed_FA" data-entity-uid="part2" id="part2-head" data-source-line="52"><rect x="557.417" y="103.5938" width="79.3242" height="30.2969" fill="#E97232" fill-opacity="0.74118" style="stroke:#555555;stroke-width:0.5;" rx="5" ry="5"/><text x="564.417" y="123.5889" fill="#000000" font-size="14" lengthAdjust="spacing" textLength="65.3242" font-family="'Arial'">e-Med FA</text></g><g class="participant participant-tail" data-qualified-name="eMed_FA" data-entity-uid="part2" id="part2-tail" data-source-line="52"><rect x="557.417" y="471.7969" width="79.3242" height="30.2969" fill="#E97232" fill-opacity="0.74118" style="stroke:#555555;stroke-width:0.5;" rx="5" ry="5"/><text x="564.417" y="491.792" fill="#000000" font-size="14" lengthAdjust="spacing" textLength="65.3242" font-family="'Arial'">e-Med FA</text></g><g class="participant participant-head" data-qualified-name="e_Rezept" data-entity-uid="part3" id="part3-head" data-source-line="53"><rect x="646.7412" y="103.5938" width="76.3438" height="30.2969" fill="#CD3732" fill-opacity="0.66275" style="stroke:#555555;stroke-width:0.5;" rx="5" ry="5"/><text x="653.7412" y="123.5889" fill="#000000" font-size="14" lengthAdjust="spacing" textLength="62.3438" font-family="'Arial'">e-Rezept</text></g><g class="participant participant-tail" data-qualified-name="e_Rezept" data-entity-uid="part3" id="part3-tail" data-source-line="53"><rect x="646.7412" y="471.7969" width="76.3438" height="30.2969" fill="#CD3732" fill-opacity="0.66275" style="stroke:#555555;stroke-width:0.5;" rx="5" ry="5"/><text x="653.7412" y="491.792" fill="#000000" font-size="14" lengthAdjust="spacing" textLength="62.3438" font-family="'Arial'">e-Rezept</text></g><g><title>GDA 1</title><rect x="145.2817" y="236.9141" width="10" height="226.8828" fill="#156082" fill-opacity="0.50196" style="stroke:#181818;stroke-width:1;"/></g><g><title>GDA 1</title><rect x="150.2817" y="366.0703" width="10" height="97.7266" fill="#156082" fill-opacity="0.50196" style="stroke:#181818;stroke-width:1;"/></g><g><title>e-Med FA</title><rect x="592.0791" y="366.0703" width="10" height="29.1328" fill="#E97232" fill-opacity="0.74118" style="stroke:#181818;stroke-width:1;"/></g><g><title>e-Rezept</title><rect x="679.9131" y="236.9141" width="10" height="29.1328" fill="#CD3732" fill-opacity="0.66275" style="stroke:#181818;stroke-width:1;"/></g><rect x="0" y="166.0391" width="743.085" height="3" fill="#EEEEEE" style="stroke:#EEEEEE;stroke-width:1;" rx="5" ry="5"/><line x1="0" y1="166.0391" x2="743.085" y2="166.0391" style="stroke:#000000;stroke-width:1;"/><line x1="0" y1="169.0391" x2="743.085" y2="169.0391" style="stroke:#000000;stroke-width:1;"/><rect x="209.9683" y="154.8906" width="323.1484" height="24.2969" fill="#EEEEEE" style="stroke:#000000;stroke-width:2;" rx="5" ry="5"/><text x="215.9683" y="171.8857" fill="#000000" font-size="14" lengthAdjust="spacing" textLength="304.2744" font-weight="700" font-family="'Arial'">e-Rezept + Geplante Abgaben abrufen</text><path d="M14,196.1875 L80.373,196.1875 L80.373,204.4844 L70.373,214.4844 L9,214.4844 L9,201.1875 A5,5 0 0 1 14,196.1875" style="stroke:#111827;stroke-width:1.5;" fill="#EEF2FF"/><rect x="9" y="196.1875" width="724.085" height="259.6094" fill="none" style="stroke:#111827;stroke-width:2;" rx="5" ry="5"/><text x="24" y="210.1826" fill="#000000" font-size="14" lengthAdjust="spacing" textLength="26.373" font-weight="700" font-family="'Arial'">par</text><text x="95.373" y="211.1826" fill="#000000" font-size="14" lengthAdjust="spacing" textLength="149.502" font-weight="700" font-family="'Arial'">[e-Rezept abrufen]</text><g class="message" data-entity-1="part1" data-entity-2="part3" id="msg1" data-source-line="60"><polygon points="667.9131,232.9141,677.9131,236.9141,667.9131,240.9141,671.9131,236.9141" fill="#111827" style="stroke:#111827;stroke-width:1;stroke-linejoin:miter;stroke-miterlimit:10;"/><line x1="155.2817" y1="236.9141" x2="673.9131" y2="236.9141" style="stroke:#111827;stroke-width:1;"/><text x="162.2817" y="231.8481" fill="#000000" font-size="13" lengthAdjust="spacing" textLength="9.0454" font-weight="700" font-family="'Arial'">1</text><text x="175.3271" y="231.8481" fill="#000000" font-size="13" lengthAdjust="spacing" textLength="313.6948" font-family="'Arial'">e-Rezept mittels e-Rezept-ID (QR-Code) abrufen</text></g><g class="message" data-entity-1="part3" data-entity-2="part1" id="msg2" data-source-line="63"><polygon points="166.2817,262.0469,156.2817,266.0469,166.2817,270.0469,162.2817,266.0469" fill="#111827" style="stroke:#111827;stroke-width:1;stroke-linejoin:miter;stroke-miterlimit:10;"/><line x1="160.2817" y1="266.0469" x2="683.9131" y2="266.0469" style="stroke:#111827;stroke-width:1;stroke-dasharray:2,2;"/><text x="172.2817" y="260.981" fill="#000000" font-size="13" lengthAdjust="spacing" textLength="9.0454" font-weight="700" font-family="'Arial'">2</text><text x="185.3271" y="260.981" fill="#000000" font-size="13" lengthAdjust="spacing" textLength="65.8887" font-family="'Arial'">e-Rezepte</text></g><path d="M40,284.0469 L40,316.0469 A5,5 0 0 0 45,321.0469 L254,321.0469 A5,5 0 0 0 259,316.0469 L259,289.0469 L249,279.0469 L45,279.0469 A5,5 0 0 0 40,284.0469" style="stroke:#8B95A5;stroke-width:1;" fill="url(#ganfaxgglvyh60)"/><path d="M249,279.0469 L249,286.5469 A2.5,2.5 0 0 0 251.5,289.0469 L259,289.0469 L249,279.0469" style="stroke:#8B95A5;stroke-width:1;" fill="url(#ganfaxgglvyh60)"/><text x="46" y="297.042" fill="#111827" font-size="14" lengthAdjust="spacing" textLength="186.3135" font-family="'Arial'">GDA erhält alle relevanten</text><text x="46" y="313.3389" fill="#111827" font-size="14" lengthAdjust="spacing" textLength="198.5293" font-family="'Arial'">e-Rezepte zu dem Patienten</text><line x1="9" y1="327.6406" x2="733.085" y2="327.6406" style="stroke:#111827;stroke-width:1;stroke-dasharray:2,2;"/><text x="14" y="340.6357" fill="#000000" font-size="14" lengthAdjust="spacing" textLength="225.6543" font-weight="700" font-family="'Arial'">[Geplante Abgaben abrufen]</text><g class="message" data-entity-1="part1" data-entity-2="part2" id="msg3" data-source-line="71"><polygon points="580.0791,362.0703,590.0791,366.0703,580.0791,370.0703,584.0791,366.0703" fill="#111827" style="stroke:#111827;stroke-width:1;stroke-linejoin:miter;stroke-miterlimit:10;"/><line x1="160.2817" y1="366.0703" x2="586.0791" y2="366.0703" style="stroke:#111827;stroke-width:1;"/><text x="167.2817" y="361.0044" fill="#000000" font-size="13" lengthAdjust="spacing" textLength="9.0454" font-weight="700" font-family="'Arial'">3</text><text x="180.3271" y="361.0044" fill="#000000" font-size="13" lengthAdjust="spacing" textLength="404.752" font-family="'Arial'">GET MedicationDispense mit e-Med Groupidentifier (QR-Code)</text></g><g class="message" data-entity-1="part2" data-entity-2="part1" id="msg4" data-source-line="74"><polygon points="171.2817,391.2031,161.2817,395.2031,171.2817,399.2031,167.2817,395.2031" fill="#111827" style="stroke:#111827;stroke-width:1;stroke-linejoin:miter;stroke-miterlimit:10;"/><line x1="165.2817" y1="395.2031" x2="596.0791" y2="395.2031" style="stroke:#111827;stroke-width:1;stroke-dasharray:2,2;"/><text x="177.2817" y="390.1372" fill="#000000" font-size="13" lengthAdjust="spacing" textLength="9.0454" font-weight="700" font-family="'Arial'">4</text><text x="190.3271" y="390.1372" fill="#000000" font-size="13" lengthAdjust="spacing" textLength="121.2212" font-family="'Arial'">Geplante Abgaben</text></g><path d="M19,413.2031 L19,445.2031 A5,5 0 0 0 24,450.2031 L274,450.2031 A5,5 0 0 0 279,445.2031 L279,418.2031 L269,408.2031 L24,408.2031 A5,5 0 0 0 19,413.2031" style="stroke:#8B95A5;stroke-width:1;" fill="url(#ganfaxgglvyh60)"/><path d="M269,408.2031 L269,415.7031 A2.5,2.5 0 0 0 271.5,418.2031 L279,418.2031 L269,408.2031" style="stroke:#8B95A5;stroke-width:1;" fill="url(#ganfaxgglvyh60)"/><text x="25" y="426.1982" fill="#111827" font-size="14" lengthAdjust="spacing" textLength="164.124" font-family="'Arial'">GDA erhält alle offenen</text><text x="25" y="442.4951" fill="#111827" font-size="14" lengthAdjust="spacing" textLength="239.9756" font-family="'Arial'">Geplanten Abgaben des Patienten</text><?plantuml-src ZLN1Rjf04BtxAwPmQAiAoJOnu4XKWc3Ig4sWXFOGLK8BEuOLPatNTjAawj_qCthBZtLiWraR8iKSiEUzVJFpPhsEHHmW31ArM2tHV_wtKZ52RxvaSmHKKOn1WFA7_CwKO3A5pk4kMIhX-x0HCS4HO6E2JxYD3UDjj1PoonJR05l4eRgD7qcSFM0KRj0m3kWyL1pLHHY42kfcTkaeMwoNAamatp5y9_rfZ6Z5UFWWv19y5aIe8RjbIg82InVbwBCaY8UXZ6_O1g7Meuw2scd6hNX2iCvEWo-L_UbnYoeGSgqHFEyKuPlasGqUbTyFVuqPvsbdjbcEztNFdEpIBPKXJUUt0T2lkeScEhxPg7EBkzXA6RfIP-uwp2cYqvLOh2L64LWKcsXkclIyhorLqQomBAjZjobsMvdB7xt227ycA1TvbMEcOh4GMzfKfneh4OvDFuBt0oi1cfC0FQN2XsgzMR3SSXOwbR40ybnD2bsIpTjI-OLo3XsD0dtRzyih3-djrAytjDFIdN4n-ZAQp2u7lPa5TDKjfsLsx8vvWc1d1BVLCjk38yAuDxtoRgQfWjlgssT7XDvu1DbLDuUkDt3SAi6xzWQpOOy8wBRjfZtdLS9iujrvuodK5xpPRjhChROn-Wob7BPJbPXCHfECuBbjgsatQMzdHmZa3h08QdG7LaqtnjWUXWruZJmjCwLYWnvWsAkLMoZpP_cnjLkGFzGgBL4LIHpAP3D7PHZTRd7OmGUun6sGdudPSIc1pLNYqt-tQwIP3jmTaCuzwwRniSX-Vc1LpzF6rG3UVPqqBaAExpKDyaNSCygRY-b-Q63HNgKXE20DgYDRToW22UTu94BHx7m9xt4taRmN-aIidly6r25z9a1XWFUf8nBID7j9U4f8SqDlPYmmHLDGyapHCAXZVD7AacFvVC_Xqfi2tOi5wOLo8A8jIj8W-o2VU_Po2KwvX2-euCB4rvktsqlbtGD5N7EkMdh5m7p1w_mBVMevDs-lAWj7E4OlEIZvVm00?></g></svg>