<?xml version="1.0" encoding="us-ascii" standalone="no"?><svg xmlns="http://www.w3.org/2000/svg" xmlns:xlink="http://www.w3.org/1999/xlink" contentStyleType="text/css" height="668px" preserveAspectRatio="none" style="width:548px;height:668px;background:#FFFFFF;" version="1.1" viewBox="0 0 548 668" width="548px" zoomAndPan="magnify"><defs/><g><text fill="#000000" font-family="sans-serif" font-size="14" font-weight="bold" lengthAdjust="spacing" textLength="152" x="196.5" y="34.5332">Plan-Read - &#220;bersicht</text><ellipse cx="343" cy="58.6094" fill="#222222" rx="10" ry="10" style="stroke:#222222;stroke-width:1.0;"/><rect fill="#F1F1F1" height="35.0938" rx="12.5" ry="12.5" style="stroke:#181818;stroke-width:0.5;" width="115" x="285.5" y="88.6094"/><text fill="#000000" font-family="sans-serif" font-size="12" lengthAdjust="spacing" textLength="95" x="295.5" y="111.0664">POST $plan-read</text><polygon fill="#F1F1F1" points="305,143.7031,381,143.7031,393,157.5391,381,171.375,305,171.375,293,157.5391,305,143.7031" style="stroke:#181818;stroke-width:0.5;"/><text fill="#000000" font-family="sans-serif" font-size="11" lengthAdjust="spacing" textLength="76" x="305" y="155.1221">Medikationsplan</text><text fill="#000000" font-family="sans-serif" font-size="11" lengthAdjust="spacing" textLength="58" x="305" y="168.958">vorhanden?</text><text fill="#000000" font-family="sans-serif" font-size="11" lengthAdjust="spacing" textLength="21" x="272" y="155.1221">Nein</text><text fill="#000000" font-family="sans-serif" font-size="11" lengthAdjust="spacing" textLength="11" x="393" y="155.1221">Ja</text><path d="M10,181.375 L10,240.4297 A0,0 0 0 0 10,240.4297 L176,240.4297 A0,0 0 0 0 176,240.4297 L176,214.9023 L196,210.9023 L176,206.9023 L176,191.375 L166,181.375 L10,181.375 A0,0 0 0 0 10,181.375 " fill="#FEFFDD" style="stroke:#181818;stroke-width:0.5;"/><path d="M166,181.375 L166,191.375 L176,191.375 L166,181.375 " fill="#FEFFDD" style="stroke:#181818;stroke-width:0.5;"/><text fill="#000000" font-family="sans-serif" font-size="13" lengthAdjust="spacing" textLength="142" x="16" y="199.8701">Initialen Medikationsplan</text><text fill="#000000" font-family="sans-serif" font-size="13" lengthAdjust="spacing" textLength="49" x="16" y="216.2217">erstellen</text><text fill="#000000" font-family="sans-serif" font-size="13" lengthAdjust="spacing" textLength="141" x="16" y="232.5732">(Sub_UC_eMed_01_03);</text><rect fill="#F1F1F1" height="50.1875" rx="12.5" ry="12.5" style="stroke:#181818;stroke-width:0.5;" width="127" x="196" y="185.8086"/><text fill="#000000" font-family="sans-serif" font-size="12" lengthAdjust="spacing" textLength="107" x="206" y="208.2656">List.emptyReason=</text><text fill="#000000" font-family="sans-serif" font-size="12" lengthAdjust="spacing" textLength="55" x="206" y="223.3594">notstarted</text><rect fill="#F1F1F1" height="50.1875" rx="12.5" ry="12.5" style="stroke:#181818;stroke-width:0.5;" width="118" x="367.5" y="233.9648"/><text fill="#000000" font-family="sans-serif" font-size="12" lengthAdjust="spacing" textLength="98" x="377.5" y="256.4219">Transformationen</text><text fill="#000000" font-family="sans-serif" font-size="12" lengthAdjust="spacing" textLength="66" x="377.5" y="271.5156">durchf&#252;hren</text><rect fill="#F1F1F1" height="50.1875" rx="12.5" ry="12.5" style="stroke:#181818;stroke-width:0.5;" width="127" x="363" y="356.7422"/><text fill="#000000" font-family="sans-serif" font-size="12" lengthAdjust="spacing" textLength="107" x="373" y="379.1992">List.emptyReason=</text><text fill="#000000" font-family="sans-serif" font-size="12" lengthAdjust="spacing" textLength="49" x="373" y="394.293">nilknown</text><polygon fill="#F1F1F1" points="383.5,304.1523,469.5,304.1523,481.5,317.9883,469.5,331.8242,383.5,331.8242,371.5,317.9883,383.5,304.1523" style="stroke:#181818;stroke-width:0.5;"/><text fill="#000000" font-family="sans-serif" font-size="11" lengthAdjust="spacing" textLength="21" x="430.5" y="343.2432">Nein</text><text fill="#000000" font-family="sans-serif" font-size="11" lengthAdjust="spacing" textLength="86" x="383.5" y="315.5713">noch Planeintr&#228;ge</text><text fill="#000000" font-family="sans-serif" font-size="11" lengthAdjust="spacing" textLength="58" x="383.5" y="329.4072">vorhanden?</text><text fill="#000000" font-family="sans-serif" font-size="11" lengthAdjust="spacing" textLength="11" x="481.5" y="315.5713">Ja</text><polygon fill="#F1F1F1" points="426.5,426.9297,438.5,438.9297,426.5,450.9297,414.5,438.9297,426.5,426.9297" style="stroke:#181818;stroke-width:0.5;"/><polygon fill="#F1F1F1" points="397,181.375,456,181.375,468,195.2109,456,209.0469,397,209.0469,385,195.2109,397,181.375" style="stroke:#181818;stroke-width:0.5;"/><text fill="#000000" font-family="sans-serif" font-size="11" lengthAdjust="spacing" textLength="11" x="430.5" y="220.4658">Ja</text><text fill="#000000" font-family="sans-serif" font-size="11" lengthAdjust="spacing" textLength="59" x="397" y="192.7939">Planeintr&#228;ge</text><text fill="#000000" font-family="sans-serif" font-size="11" lengthAdjust="spacing" textLength="58" x="397" y="206.6299">vorhanden?</text><text fill="#000000" font-family="sans-serif" font-size="11" lengthAdjust="spacing" textLength="21" x="468" y="192.7939">Nein</text><polygon fill="#F1F1F1" points="426.5,475.8477,438.5,487.8477,426.5,499.8477,414.5,487.8477,426.5,475.8477" style="stroke:#181818;stroke-width:0.5;"/><text fill="#000000" font-family="sans-serif" font-size="11" lengthAdjust="spacing" textLength="25" x="438.5" y="471.5947">keine</text><text fill="#000000" font-family="sans-serif" font-size="11" lengthAdjust="spacing" textLength="73" x="438.5" y="485.4307">Transformation</text><polygon fill="#F1F1F1" points="343,505.8477,355,517.8477,343,529.8477,331,517.8477,343,505.8477" style="stroke:#181818;stroke-width:0.5;"/><rect fill="#F1F1F1" height="65.2813" rx="12.5" ry="12.5" style="stroke:#181818;stroke-width:0.5;" width="117" x="284.5" y="549.8477"/><text fill="#000000" font-family="sans-serif" font-size="12" lengthAdjust="spacing" textLength="80" x="294.5" y="572.3047">Auslieferungs-</text><text fill="#000000" font-family="sans-serif" font-size="12" lengthAdjust="spacing" textLength="97" x="294.5" y="587.3984">Collection Bundle</text><text fill="#000000" font-family="sans-serif" font-size="12" lengthAdjust="spacing" textLength="51" x="294.5" y="602.4922">erzeugen</text><ellipse cx="343" cy="646.1289" fill="none" rx="11" ry="11" style="stroke:#222222;stroke-width:1.0;"/><ellipse cx="343" cy="646.1289" fill="#222222" rx="6" ry="6" style="stroke:#222222;stroke-width:1.0;"/><line style="stroke:#181818;stroke-width:1.0;" x1="343" x2="343" y1="68.6094" y2="88.6094"/><polygon fill="#181818" points="339,78.6094,343,88.6094,347,78.6094,343,82.6094" style="stroke:#181818;stroke-width:1.0;"/><line style="stroke:#181818;stroke-width:1.0;" x1="426.5" x2="426.5" y1="331.8242" y2="356.7422"/><polygon fill="#181818" points="422.5,346.7422,426.5,356.7422,430.5,346.7422,426.5,350.7422" style="stroke:#181818;stroke-width:1.0;"/><line style="stroke:#181818;stroke-width:1.0;" x1="481.5" x2="500" y1="317.9883" y2="317.9883"/><polygon fill="#181818" points="496,370.918,500,380.918,504,370.918,500,374.918" style="stroke:#181818;stroke-width:1.0;"/><line style="stroke:#181818;stroke-width:1.0;" x1="500" x2="500" y1="317.9883" y2="438.9297"/><line style="stroke:#181818;stroke-width:1.0;" x1="500" x2="438.5" y1="438.9297" y2="438.9297"/><polygon fill="#181818" points="448.5,434.9297,438.5,438.9297,448.5,442.9297,444.5,438.9297" style="stroke:#181818;stroke-width:1.0;"/><line style="stroke:#181818;stroke-width:1.0;" x1="426.5" x2="426.5" y1="406.9297" y2="426.9297"/><polygon fill="#181818" points="422.5,416.9297,426.5,426.9297,430.5,416.9297,426.5,420.9297" style="stroke:#181818;stroke-width:1.0;"/><line style="stroke:#181818;stroke-width:1.0;" x1="426.5" x2="426.5" y1="284.1523" y2="304.1523"/><polygon fill="#181818" points="422.5,294.1523,426.5,304.1523,430.5,294.1523,426.5,298.1523" style="stroke:#181818;stroke-width:1.0;"/><line style="stroke:#181818;stroke-width:1.0;" x1="426.5" x2="426.5" y1="209.0469" y2="233.9648"/><polygon fill="#181818" points="422.5,223.9648,426.5,233.9648,430.5,223.9648,426.5,227.9648" style="stroke:#181818;stroke-width:1.0;"/><line style="stroke:#000000;stroke-width:1.0;" x1="468" x2="522" y1="195.2109" y2="195.2109"/><polygon fill="#000000" points="518,326.4883,522,336.4883,526,326.4883,522,330.4883" style="stroke:#000000;stroke-width:1.0;"/><line style="stroke:#000000;stroke-width:1.0;" x1="522" x2="522" y1="195.2109" y2="487.8477"/><line style="stroke:#000000;stroke-width:1.0;" x1="522" x2="438.5" y1="487.8477" y2="487.8477"/><polygon fill="#000000" points="448.5,483.8477,438.5,487.8477,448.5,491.8477,444.5,487.8477" style="stroke:#000000;stroke-width:1.0;"/><line style="stroke:#181818;stroke-width:1.0;" x1="426.5" x2="426.5" y1="450.9297" y2="475.8477"/><polygon fill="#181818" points="422.5,465.8477,426.5,475.8477,430.5,465.8477,426.5,469.8477" style="stroke:#181818;stroke-width:1.0;"/><line style="stroke:#181818;stroke-width:1.0;" x1="293" x2="259.5" y1="157.5391" y2="157.5391"/><line style="stroke:#181818;stroke-width:1.0;" x1="259.5" x2="259.5" y1="157.5391" y2="185.8086"/><polygon fill="#181818" points="255.5,175.8086,259.5,185.8086,263.5,175.8086,259.5,179.8086" style="stroke:#181818;stroke-width:1.0;"/><line style="stroke:#181818;stroke-width:1.0;" x1="393" x2="426.5" y1="157.5391" y2="157.5391"/><line style="stroke:#181818;stroke-width:1.0;" x1="426.5" x2="426.5" y1="157.5391" y2="181.375"/><polygon fill="#181818" points="422.5,171.375,426.5,181.375,430.5,171.375,426.5,175.375" style="stroke:#181818;stroke-width:1.0;"/><line style="stroke:#181818;stroke-width:1.0;" x1="259.5" x2="259.5" y1="235.9961" y2="517.8477"/><line style="stroke:#181818;stroke-width:1.0;" x1="259.5" x2="331" y1="517.8477" y2="517.8477"/><polygon fill="#181818" points="321,513.8477,331,517.8477,321,521.8477,325,517.8477" style="stroke:#181818;stroke-width:1.0;"/><line style="stroke:#181818;stroke-width:1.0;" x1="426.5" x2="426.5" y1="499.8477" y2="517.8477"/><line style="stroke:#181818;stroke-width:1.0;" x1="426.5" x2="355" y1="517.8477" y2="517.8477"/><polygon fill="#181818" points="365,513.8477,355,517.8477,365,521.8477,361,517.8477" style="stroke:#181818;stroke-width:1.0;"/><line style="stroke:#181818;stroke-width:1.0;" x1="343" x2="343" y1="123.7031" y2="143.7031"/><polygon fill="#181818" points="339,133.7031,343,143.7031,347,133.7031,343,137.7031" style="stroke:#181818;stroke-width:1.0;"/><line style="stroke:#181818;stroke-width:1.0;" x1="343" x2="343" y1="529.8477" y2="549.8477"/><polygon fill="#181818" points="339,539.8477,343,549.8477,347,539.8477,343,543.8477" style="stroke:#181818;stroke-width:1.0;"/><line style="stroke:#181818;stroke-width:1.0;" x1="343" x2="343" y1="615.1289" y2="635.1289"/><polygon fill="#181818" points="339,625.1289,343,635.1289,347,625.1289,343,629.1289" style="stroke:#181818;stroke-width:1.0;"/><!--SRC=[ZL2zJiCm4Dxz52V1a0v1HMoD044d43yLBHEj8ZU-95RSSsGx87WMHXw3hI_6EQcGg3hWvMpVztSNT308CoCfVKAf88NjvngTrqKTXF11EYwJsUDy0STjH3b6PKBe4f9xLBgHGLloiRMaL-jgIGhfSWIXHeBa0JMDX02Ot6aVJd3JXdVsyPREbqGsz0R8WW3yGYutf8EMXibxyjpZN04Dz_YUpBjr_ZpDaM7v-3GVduqoY1XIWvH0un6IMzdxnxnnIiuJtFQhmaDfTrXEkt2IV6dTflT7darrhgZBxNVjaB815JN95ZNyIpWoXaZ3Kg0_1_UYJKFsZRA1GqgNqN2VdBuShOqicbLw0Gt_ilFVs9duPU_AvAhpHcE9hgFAfqkQMbvd4S5mtP4oh87k0xkg7z87sueV]--></g></svg>