<svg xmlns="http://www.w3.org/2000/svg" xmlns:xlink="http://www.w3.org/1999/xlink" contentStyleType="text/css" data-diagram-type="SEQUENCE" height="1242px" preserveAspectRatio="none" style="width:972px;height:1242px;background:#F5F5F5;" version="1.1" viewBox="0 0 972 1242" width="972px" zoomAndPan="magnify"><?plantuml 1.2026.7beta1?><defs><linearGradient id="gez1w36l297en0" x1="50%" x2="50%" y1="0%" y2="100%"><stop offset="0%" stop-color="#E0E5F0"/><stop offset="100%" stop-color="#D1D9E6"/></linearGradient><filter height="300%" id="fez1w36l297en" width="300%" x="-1" y="-1"><feGaussianBlur result="blurOut" stdDeviation="2"/><feColorMatrix in="blurOut" result="blurOut2" type="matrix" values="0 0 0 0 0 0 0 0 0 0 0 0 0 0 0 0 0 0 .4 0"/><feOffset dx="4" dy="4" in="blurOut2" result="blurOut3"/><feBlend in="SourceGraphic" in2="blurOut3" mode="normal"/></filter></defs><g><rect fill="#F5F5F5" height="1242" style="stroke:none;stroke-width:1;" width="972" x="0" y="0"/><g class="title" data-source-line="1"><text fill="#000000" font-family="'Arial'" font-size="14" font-weight="700" lengthAdjust="spacing" textLength="539.0137" x="213.0039" y="27.9951">Geplante Abgabe f&#252;r bestehende Medikationsplaneintr&#228;ge erstellen</text><text fill="#000000" font-family="'Arial'" font-size="14" font-weight="700" lengthAdjust="spacing" textLength="676.2588" x="144.3813" y="44.292">Variante C: Nachtr&#228;gliche Verkn&#252;pfung des e-Rezepts mit dem e-Med GroupIdentifier</text></g><g><title>GDA 1</title><rect fill="#3588A7" fill-opacity="0.29804" height="1006.6094" style="stroke:#181818;stroke-width:1;" width="10" x="171.2817" y="144.8906"/></g><g><title>e-Med FA</title><rect fill="#A14C37" fill-opacity="0.47059" height="271.6094" style="stroke:#181818;stroke-width:1;" width="10" x="504.9619" y="685.7656"/></g><g><title>e-Rezept</title><rect fill="#F5BD2F" fill-opacity="0.46667" height="158.75" style="stroke:#181818;stroke-width:1;" width="10" x="771.2617" y="472.5859"/></g><g><title>e-Rezept</title><rect fill="#F5BD2F" fill-opacity="0.46667" height="141.9922" style="stroke:#181818;stroke-width:1;" width="10" x="771.2617" y="1000.5078"/></g><rect fill="none" height="540.5156" rx="5" ry="5" style="stroke:#111827;stroke-width:2;" width="825.4336" x="9" y="431.8594"/><rect fill="#FFFFFF" fill-opacity="0.14902" height="96.1563" rx="5" ry="5" style="stroke:#111827;stroke-width:2;" width="683.4336" x="141" y="543.1797"/><path d="M141,591.9063 L824.4336,591.9063 L824.4336,634.3359 A5,5 0 0 1 819.4336,639.3359 L146,639.3359 A5,5 0 0 1 141,634.3359 L141,591.9063" fill="#7F1515" fill-opacity="0.20000" style="stroke:none;stroke-width:1;"/><rect fill="#FFFFFF" fill-opacity="0.14902" height="209.0156" rx="5" ry="5" style="stroke:#111827;stroke-width:2;" width="635.2617" x="141" y="756.3594"/><path d="M141,917.9453 L776.2617,917.9453 L776.2617,960.375 A5,5 0 0 1 771.2617,965.375 L146,965.375 A5,5 0 0 1 141,960.375 L141,917.9453" fill="#7F1515" fill-opacity="0.20000" style="stroke:none;stroke-width:1;"/><g class="participant-lifeline" data-entity-uid="part1" data-qualified-name="GDA_1" data-source-line="49" id="part1-lifeline"><g><title>GDA 1</title><rect fill="#000000" fill-opacity="0.00000" height="1025.6094" width="8" x="172.2817" y="134.8906"/><line style="stroke:#181818;stroke-width:0.5;stroke-dasharray:5,5;" x1="176" x2="176" y1="134.8906" y2="1160.5"/></g></g><g class="participant-lifeline" data-entity-uid="part2" data-qualified-name="eMed_FA" data-source-line="51" id="part2-lifeline"><g><title>e-Med FA</title><rect fill="#000000" fill-opacity="0.00000" height="1025.6094" width="8" x="505.9619" y="134.8906"/><line style="stroke:#181818;stroke-width:0.5;stroke-dasharray:5,5;" x1="509.2998" x2="509.2998" y1="134.8906" y2="1160.5"/></g></g><g class="participant-lifeline" data-entity-uid="part3" data-qualified-name="e_Rezept" data-source-line="53" id="part3-lifeline"><g><title>e-Rezept</title><rect fill="#000000" fill-opacity="0.00000" height="1025.6094" width="8" x="772.2617" y="134.8906"/><line style="stroke:#181818;stroke-width:0.5;stroke-dasharray:5,5;" x1="776.0898" x2="776.0898" y1="134.8906" y2="1160.5"/></g></g><g class="participant participant-head" data-entity-uid="part1" data-qualified-name="GDA_1" data-source-line="49" id="part1-head"><text fill="#000000" font-family="'Arial'" font-size="14" lengthAdjust="spacing" textLength="44.5635" x="151" y="131.5889">GDA 1</text><ellipse cx="176.2817" cy="67.0938" fill="#3588A7" fill-opacity="0.29804" rx="8" ry="8" style="stroke:#181818;stroke-width:0.5;"/><path d="M176.2817,75.0938 L176.2817,102.0938 M163.2817,83.0938 L189.2817,83.0938 M176.2817,102.0938 L163.2817,117.0938 M176.2817,102.0938 L189.2817,117.0938" fill="none" style="stroke:#181818;stroke-width:0.5;"/></g><g class="participant participant-tail" data-entity-uid="part1" data-qualified-name="GDA_1" data-source-line="49" id="part1-tail"><text fill="#000000" font-family="'Arial'" font-size="14" lengthAdjust="spacing" textLength="44.5635" x="151" y="1172.4951">GDA 1</text><ellipse cx="176.2817" cy="1184.2969" fill="#3588A7" fill-opacity="0.29804" rx="8" ry="8" style="stroke:#181818;stroke-width:0.5;"/><path d="M176.2817,1192.2969 L176.2817,1219.2969 M163.2817,1200.2969 L189.2817,1200.2969 M176.2817,1219.2969 L163.2817,1234.2969 M176.2817,1219.2969 L189.2817,1234.2969" fill="none" style="stroke:#181818;stroke-width:0.5;"/></g><g class="participant participant-head" data-entity-uid="part2" data-qualified-name="eMed_FA" data-source-line="51" id="part2-head"><rect fill="#A14C37" fill-opacity="0.47059" height="30.2969" rx="5" ry="5" style="stroke:#555555;stroke-width:0.5;" width="79.3242" x="470.2998" y="103.5938"/><text fill="#000000" font-family="'Arial'" font-size="14" lengthAdjust="spacing" textLength="65.3242" x="477.2998" y="123.5889">e-Med FA</text></g><g class="participant participant-tail" data-entity-uid="part2" data-qualified-name="eMed_FA" data-source-line="51" id="part2-tail"><rect fill="#A14C37" fill-opacity="0.47059" height="30.2969" rx="5" ry="5" style="stroke:#555555;stroke-width:0.5;" width="79.3242" x="470.2998" y="1159.5"/><text fill="#000000" font-family="'Arial'" font-size="14" lengthAdjust="spacing" textLength="65.3242" x="477.2998" y="1179.4951">e-Med FA</text></g><g class="participant participant-head" data-entity-uid="part3" data-qualified-name="e_Rezept" data-source-line="53" id="part3-head"><rect fill="#F5BD2F" fill-opacity="0.46667" height="30.2969" rx="5" ry="5" style="stroke:#555555;stroke-width:0.5;" width="76.3438" x="738.0898" y="103.5938"/><text fill="#000000" font-family="'Arial'" font-size="14" lengthAdjust="spacing" textLength="62.3438" x="745.0898" y="123.5889">e-Rezept</text></g><g class="participant participant-tail" data-entity-uid="part3" data-qualified-name="e_Rezept" data-source-line="53" id="part3-tail"><rect fill="#F5BD2F" fill-opacity="0.46667" height="30.2969" rx="5" ry="5" style="stroke:#555555;stroke-width:0.5;" width="76.3438" x="738.0898" y="1159.5"/><text fill="#000000" font-family="'Arial'" font-size="14" lengthAdjust="spacing" textLength="62.3438" x="745.0898" y="1179.4951">e-Rezept</text></g><g><title>GDA 1</title><rect fill="#3588A7" fill-opacity="0.29804" height="1006.6094" style="stroke:#181818;stroke-width:1;" width="10" x="171.2817" y="144.8906"/></g><g><title>e-Med FA</title><rect fill="#A14C37" fill-opacity="0.47059" height="271.6094" style="stroke:#181818;stroke-width:1;" width="10" x="504.9619" y="685.7656"/></g><g><title>e-Rezept</title><rect fill="#F5BD2F" fill-opacity="0.46667" height="158.75" style="stroke:#181818;stroke-width:1;" width="10" x="771.2617" y="472.5859"/></g><g><title>e-Rezept</title><rect fill="#F5BD2F" fill-opacity="0.46667" height="141.9922" style="stroke:#181818;stroke-width:1;" width="10" x="771.2617" y="1000.5078"/></g><rect fill="#EEEEEE" height="3" rx="5" ry="5" style="stroke:#EEEEEE;stroke-width:1;" width="966.0215" x="0" y="166.0391"/><line style="stroke:#000000;stroke-width:1;" x1="0" x2="966.0215" y1="166.0391" y2="166.0391"/><line style="stroke:#000000;stroke-width:1;" x1="0" x2="966.0215" y1="169.0391" y2="169.0391"/><rect fill="#EEEEEE" height="24.2969" rx="5" ry="5" style="stroke:#000000;stroke-width:2;" width="216.2891" x="374.8662" y="154.8906"/><text fill="#000000" font-family="'Arial'" font-size="14" font-weight="700" lengthAdjust="spacing" textLength="197.415" x="380.8662" y="171.8857">Medikationsplan abrufen</text><rect fill="none" height="42.5938" rx="5" ry="5" style="stroke:#000000;stroke-width:1.5;" width="404.624" x="148" y="189.1875"/><path d="M153,189.1875 L215,189.1875 L215,197.1875 L205,207.1875 L148,207.1875 L148,194.1875 A5,5 0 0 1 153,189.1875" fill="#EEEEEE" style="stroke:#000000;stroke-width:2;"/><text fill="#000000" font-family="'Arial'" font-size="14" font-weight="700" lengthAdjust="spacing" textLength="22.4902" x="161" y="204.1826">ref</text><a href="interactions.html#sequenzdiagramm-plan-read" target="_top" title="interactions.html#sequenzdiagramm-plan-read" xlink:actuate="onRequest" xlink:href="interactions.html#sequenzdiagramm-plan-read" xlink:show="new" xlink:title="interactions.html#sequenzdiagramm-plan-read" xlink:type="simple"><text fill="#0000EE" font-family="'Arial'" font-size="14" lengthAdjust="spacing" textLength="70.6426" x="314.9907" y="224.1826">Plan-Read</text></a><path d="M47,246.7813 L47,278.7813 A5,5 0 0 0 52,283.7813 L297,283.7813 A5,5 0 0 0 302,278.7813 L302,251.7813 L292,241.7813 L52,241.7813 A5,5 0 0 0 47,246.7813" fill="url(#gez1w36l297en0)" filter="url(#fez1w36l297en)" style="stroke:#8B95A5;stroke-width:1;"/><path d="M292,241.7813 L292,249.2813 A2.5,2.5 0 0 0 294.5,251.7813 L302,251.7813 L292,241.7813" fill="url(#gez1w36l297en0)" style="stroke:#8B95A5;stroke-width:1;"/><text fill="#111827" font-family="'Arial'" font-size="14" lengthAdjust="spacing" textLength="195.8018" x="53" y="259.7764">GDA erh&#228;lt Medikationsplan</text><text fill="#111827" font-family="'Arial'" font-size="14" lengthAdjust="spacing" textLength="234.377" x="53" y="276.0732">(Auslieferungs-Collection-Bundle)</text><rect fill="#EEEEEE" height="3" rx="5" ry="5" style="stroke:#EEEEEE;stroke-width:1;" width="966.0215" x="0" y="313.5234"/><line style="stroke:#000000;stroke-width:1;" x1="0" x2="966.0215" y1="313.5234" y2="313.5234"/><line style="stroke:#000000;stroke-width:1;" x1="0" x2="966.0215" y1="316.5234" y2="316.5234"/><rect fill="#EEEEEE" height="24.2969" rx="5" ry="5" style="stroke:#000000;stroke-width:2;" width="379.3398" x="293.3408" y="302.375"/><text fill="#000000" font-family="'Arial'" font-size="14" font-style="italic" font-weight="700" lengthAdjust="spacing" textLength="146.0908" x="299.3408" y="319.3701">Geplante Abgaben</text><text fill="#000000" font-family="'Arial'" font-size="14" font-weight="700" lengthAdjust="spacing" textLength="209.501" x="450.3057" y="319.3701">vorbereiten und schreiben</text><path d="M16,346.6719 L16,411.6719 A5,5 0 0 0 21,416.6719 L328,416.6719 A5,5 0 0 0 333,411.6719 L333,351.6719 L323,341.6719 L21,341.6719 A5,5 0 0 0 16,346.6719" fill="url(#gez1w36l297en0)" filter="url(#fez1w36l297en)" style="stroke:#8B95A5;stroke-width:1;"/><path d="M323,341.6719 L323,349.1719 A2.5,2.5 0 0 0 325.5,351.6719 L333,351.6719 L323,341.6719" fill="url(#gez1w36l297en0)" style="stroke:#8B95A5;stroke-width:1;"/><text fill="#111827" font-family="'Arial'" font-size="14" lengthAdjust="spacing" textLength="57.8799" x="22" y="359.667">Erstellte</text><text fill="#111827" font-family="'Arial'" font-size="14" font-style="italic" lengthAdjust="spacing" textLength="130.5459" x="84.3301" y="359.667">Geplante Abgaben</text><text fill="#111827" font-family="'Arial'" font-size="14" lengthAdjust="spacing" textLength="94.2471" x="219.3262" y="359.667">referenzieren</text><text fill="#111827" font-family="'Arial'" font-size="14" lengthAdjust="spacing" textLength="260.668" x="22" y="375.9639">zugeh&#246;rige Medikationsplaneintr&#228;ge;</text><text fill="#111827" font-family="'Arial'" font-size="14" lengthAdjust="spacing" textLength="256.2725" x="22" y="392.2607">groupIdentifier f&#252;r "Rezeptklammer"</text><text fill="#111827" font-family="'Arial'" font-size="14" lengthAdjust="spacing" textLength="70.9775" x="22" y="408.5576">bleibt leer</text><path d="M14,431.8594 L80.373,431.8594 L80.373,440.1563 L70.373,450.1563 L9,450.1563 L9,436.8594 A5,5 0 0 1 14,431.8594" fill="#EEF2FF" style="stroke:#111827;stroke-width:1.5;"/><rect fill="none" height="540.5156" rx="5" ry="5" style="stroke:#111827;stroke-width:2;" width="825.4336" x="9" y="431.8594"/><text fill="#000000" font-family="'Arial'" font-size="14" font-weight="700" lengthAdjust="spacing" textLength="26.373" x="24" y="445.8545">par</text><text fill="#000000" font-family="'Arial'" font-size="14" font-weight="700" lengthAdjust="spacing" textLength="168.1504" x="95.373" y="446.8545">[Erstellung e-Rezept]</text><g class="message" data-entity-1="part1" data-entity-2="part3" data-source-line="79" id="msg1"><polygon fill="#111827" points="759.2617,468.5859,769.2617,472.5859,759.2617,476.5859,763.2617,472.5859" style="stroke:#111827;stroke-width:1;stroke-linejoin:miter;stroke-miterlimit:10;"/><line style="stroke:#111827;stroke-width:1;" x1="181.2817" x2="765.2617" y1="472.5859" y2="472.5859"/><text fill="#000000" font-family="'Arial'" font-size="13" font-weight="700" lengthAdjust="spacing" textLength="9.0454" x="188.2817" y="467.52">1</text><text fill="#000000" font-family="'Arial'" font-size="13" lengthAdjust="spacing" textLength="169.5713" x="201.3271" y="467.52">Trigger e-Rezept erstellen</text></g><path d="M60,490.5859 L60,522.5859 A5,5 0 0 0 65,527.5859 L284,527.5859 A5,5 0 0 0 289,522.5859 L289,495.5859 L279,485.5859 L65,485.5859 A5,5 0 0 0 60,490.5859" fill="url(#gez1w36l297en0)" filter="url(#fez1w36l297en)" style="stroke:#8B95A5;stroke-width:1;"/><path d="M279,485.5859 L279,493.0859 A2.5,2.5 0 0 0 281.5,495.5859 L289,495.5859 L279,485.5859" fill="url(#gez1w36l297en0)" style="stroke:#8B95A5;stroke-width:1;"/><text fill="#111827" font-family="'Arial'" font-size="14" lengthAdjust="spacing" textLength="208.0859" x="66" y="503.5811">Erstellung e-Rezept ausl&#246;sen,</text><text fill="#111827" font-family="'Arial'" font-size="14" lengthAdjust="spacing" textLength="193.0674" x="66" y="519.8779">ohne e-Med GroupIdentifier</text><path d="M146,543.1797 L206.9385,543.1797 L206.9385,551.4766 L196.9385,561.4766 L141,561.4766 L141,548.1797 A5,5 0 0 1 146,543.1797" fill="#EEF2FF" style="stroke:#111827;stroke-width:1.5;"/><rect fill="none" height="96.1563" rx="5" ry="5" style="stroke:#111827;stroke-width:2;" width="683.4336" x="141" y="543.1797"/><text fill="#000000" font-family="'Arial'" font-size="14" font-weight="700" lengthAdjust="spacing" textLength="20.9385" x="156" y="557.1748">alt</text><text fill="#000000" font-family="'Arial'" font-size="14" font-weight="700" lengthAdjust="spacing" textLength="144.8193" x="221.9385" y="558.1748">[e-Rezept erstellt]</text><g class="message" data-entity-1="part3" data-entity-2="part1" data-source-line="87" id="msg2"><polygon fill="#111827" points="192.2817,579.9063,182.2817,583.9063,192.2817,587.9063,188.2817,583.9063" style="stroke:#111827;stroke-width:1;stroke-linejoin:miter;stroke-miterlimit:10;"/><line style="stroke:#111827;stroke-width:1;stroke-dasharray:2,2;" x1="186.2817" x2="770.2617" y1="583.9063" y2="583.9063"/><text fill="#000000" font-family="'Arial'" font-size="13" font-weight="700" lengthAdjust="spacing" textLength="9.0454" x="198.2817" y="578.8403">2</text><text fill="#000000" font-family="'Arial'" font-size="13" lengthAdjust="spacing" textLength="18.7573" x="211.3271" y="578.8403">OK</text></g><line style="stroke:#111827;stroke-width:1;stroke-dasharray:2,2;" x1="141" x2="824.4336" y1="592.9063" y2="592.9063"/><text fill="#000000" font-family="'Arial'" font-size="14" font-weight="700" lengthAdjust="spacing" textLength="137.833" x="146" y="605.9014">[e-Rezept Fehler]</text><g class="message" data-entity-1="part3" data-entity-2="part1" data-source-line="90" id="msg3"><polygon fill="#111827" points="192.2817,627.3359,182.2817,631.3359,192.2817,635.3359,188.2817,631.3359" style="stroke:#111827;stroke-width:1;stroke-linejoin:miter;stroke-miterlimit:10;"/><line style="stroke:#111827;stroke-width:1;stroke-dasharray:2,2;" x1="186.2817" x2="775.2617" y1="631.3359" y2="631.3359"/><text fill="#000000" font-family="'Arial'" font-size="13" font-weight="700" lengthAdjust="spacing" textLength="9.0454" x="198.2817" y="626.27">3</text><text fill="#000000" font-family="'Arial'" font-size="13" lengthAdjust="spacing" textLength="40.6694" x="211.3271" y="626.27">Fehler</text></g><line style="stroke:#111827;stroke-width:1;stroke-dasharray:2,2;" x1="9" x2="834.4336" y1="647.3359" y2="647.3359"/><text fill="#000000" font-family="'Arial'" font-size="14" font-weight="700" lengthAdjust="spacing" textLength="192.6436" x="14" y="660.3311">[gleichzeitige Erstellung</text><text fill="#000000" font-family="'Arial'" font-size="14" font-style="italic" font-weight="700" lengthAdjust="spacing" textLength="136.124" x="211.5176" y="660.3311">Geplante Abgabe</text><text fill="#000000" font-family="'Arial'" font-size="14" font-weight="700" lengthAdjust="spacing" textLength="6.3984" x="347.6416" y="660.3311">]</text><g class="message" data-entity-1="part1" data-entity-2="part2" data-source-line="96" id="msg4"><polygon fill="#111827" points="492.9619,681.7656,502.9619,685.7656,492.9619,689.7656,496.9619,685.7656" style="stroke:#111827;stroke-width:1;stroke-linejoin:miter;stroke-miterlimit:10;"/><line style="stroke:#111827;stroke-width:1;" x1="181.2817" x2="498.9619" y1="685.7656" y2="685.7656"/><text fill="#000000" font-family="'Arial'" font-size="13" font-weight="700" lengthAdjust="spacing" textLength="9.0454" x="188.2817" y="680.6997">4</text><text fill="#000000" font-family="'Arial'" font-size="13" lengthAdjust="spacing" textLength="247.749" x="201.3271" y="680.6997">POST Transaction Bundle GeplAbgabe</text></g><path d="M19,703.7656 L19,735.7656 A5,5 0 0 0 24,740.7656 L325,740.7656 A5,5 0 0 0 330,735.7656 L330,708.7656 L320,698.7656 L24,698.7656 A5,5 0 0 0 19,703.7656" fill="url(#gez1w36l297en0)" filter="url(#fez1w36l297en)" style="stroke:#8B95A5;stroke-width:1;"/><path d="M320,698.7656 L320,706.2656 A2.5,2.5 0 0 0 322.5,708.7656 L330,708.7656 L320,698.7656" fill="url(#gez1w36l297en0)" style="stroke:#8B95A5;stroke-width:1;"/><text fill="#111827" font-family="'Arial'" font-size="14" lengthAdjust="spacing" textLength="239.9209" x="25" y="716.7607">Transaction Bundle mit Geplanten</text><text fill="#111827" font-family="'Arial'" font-size="14" lengthAdjust="spacing" textLength="290.2266" x="25" y="733.0576">Abgaben an Fachanwendung &#252;bermitteln</text><path d="M146,756.3594 L206.9385,756.3594 L206.9385,764.6563 L196.9385,774.6563 L141,774.6563 L141,761.3594 A5,5 0 0 1 146,756.3594" fill="#EEF2FF" style="stroke:#111827;stroke-width:1.5;"/><rect fill="none" height="209.0156" rx="5" ry="5" style="stroke:#111827;stroke-width:2;" width="635.2617" x="141" y="756.3594"/><text fill="#000000" font-family="'Arial'" font-size="14" font-weight="700" lengthAdjust="spacing" textLength="20.9385" x="156" y="770.3545">alt</text><text fill="#000000" font-family="'Arial'" font-size="14" font-weight="700" lengthAdjust="spacing" textLength="220.9717" x="221.9385" y="771.3545">[Geplante Abgaben erstellt]</text><g class="message" data-entity-1="part2" data-entity-2="part2" data-source-line="106" id="msg5"><line style="stroke:#111827;stroke-width:1;" x1="514.9619" x2="556.9619" y1="812.2188" y2="812.2188"/><line style="stroke:#111827;stroke-width:1;" x1="556.9619" x2="556.9619" y1="812.2188" y2="825.2188"/><line style="stroke:#111827;stroke-width:1;" x1="515.9619" x2="556.9619" y1="825.2188" y2="825.2188"/><polygon fill="#111827" points="525.9619,821.2188,515.9619,825.2188,525.9619,829.2188,521.9619,825.2188" style="stroke:#111827;stroke-width:1;stroke-linejoin:miter;stroke-miterlimit:10;"/><text fill="#000000" font-family="'Arial'" font-size="13" font-weight="700" lengthAdjust="spacing" textLength="9.0454" x="521.9619" y="799.5864">5</text><text fill="#000000" font-family="'Arial'" font-size="13" lengthAdjust="spacing" textLength="207.7397" x="535.0073" y="792.02">e-Med GroupIdentifier erzeugen</text><text fill="#000000" font-family="'Arial'" font-size="13" lengthAdjust="spacing" textLength="219.2544" x="535.0073" y="807.1528">+ geplanten Abgaben hinzuf&#252;gen</text></g><path d="M413,843.2188 L413,875.2188 A5,5 0 0 0 418,880.2188 L598,880.2188 A5,5 0 0 0 603,875.2188 L603,848.2188 L593,838.2188 L418,838.2188 A5,5 0 0 0 413,843.2188" fill="url(#gez1w36l297en0)" filter="url(#fez1w36l297en)" style="stroke:#8B95A5;stroke-width:1;"/><path d="M593,838.2188 L593,845.7188 A2.5,2.5 0 0 0 595.5,848.2188 L603,848.2188 L593,838.2188" fill="url(#gez1w36l297en0)" style="stroke:#8B95A5;stroke-width:1;"/><text fill="#111827" font-family="'Arial'" font-size="14" lengthAdjust="spacing" textLength="164.5684" x="419" y="856.2139">Geplante Abgabe 1 + 2</text><text fill="#111827" font-family="'Arial'" font-size="14" lengthAdjust="spacing" textLength="82.6123" x="419" y="872.5107">gespeichert</text><g class="message" data-entity-1="part2" data-entity-2="part1" data-source-line="113" id="msg6"><polygon fill="#111827" points="192.2817,905.9453,182.2817,909.9453,192.2817,913.9453,188.2817,909.9453" style="stroke:#111827;stroke-width:1;stroke-linejoin:miter;stroke-miterlimit:10;"/><line style="stroke:#111827;stroke-width:1;" x1="186.2817" x2="503.9619" y1="909.9453" y2="909.9453"/><text fill="#000000" font-family="'Arial'" font-size="13" font-weight="700" lengthAdjust="spacing" textLength="9.0454" x="198.2817" y="904.8794">6</text><text fill="#000000" font-family="'Arial'" font-size="13" lengthAdjust="spacing" textLength="286.6348" x="211.3271" y="904.8794">OK (Ressourcen inkl. e-Med GroupIdentifier)</text></g><line style="stroke:#111827;stroke-width:1;stroke-dasharray:2,2;" x1="141" x2="776.2617" y1="918.9453" y2="918.9453"/><text fill="#000000" font-family="'Arial'" font-size="14" font-weight="700" lengthAdjust="spacing" textLength="204.0186" x="146" y="931.9404">[Geplante Abgabe Fehler]</text><g class="message" data-entity-1="part2" data-entity-2="part1" data-source-line="116" id="msg7"><polygon fill="#111827" points="192.2817,953.375,182.2817,957.375,192.2817,961.375,188.2817,957.375" style="stroke:#111827;stroke-width:1;stroke-linejoin:miter;stroke-miterlimit:10;"/><line style="stroke:#111827;stroke-width:1;stroke-dasharray:2,2;" x1="186.2817" x2="508.9619" y1="957.375" y2="957.375"/><text fill="#000000" font-family="'Arial'" font-size="13" font-weight="700" lengthAdjust="spacing" textLength="9.0454" x="198.2817" y="952.3091">7</text><text fill="#000000" font-family="'Arial'" font-size="13" lengthAdjust="spacing" textLength="40.6694" x="211.3271" y="952.3091">Fehler</text></g><g class="message" data-entity-1="part1" data-entity-2="part3" data-source-line="123" id="msg8"><polygon fill="#111827" points="759.2617,996.5078,769.2617,1000.5078,759.2617,1004.5078,763.2617,1000.5078" style="stroke:#111827;stroke-width:1;stroke-linejoin:miter;stroke-miterlimit:10;"/><line style="stroke:#111827;stroke-width:1;" x1="181.2817" x2="765.2617" y1="1000.5078" y2="1000.5078"/><text fill="#000000" font-family="'Arial'" font-size="13" font-weight="700" lengthAdjust="spacing" textLength="9.0454" x="188.2817" y="995.4419">8</text><text fill="#000000" font-family="'Arial'" font-size="13" lengthAdjust="spacing" textLength="308.4834" x="201.3271" y="995.4419">e-Rezept mit e-Med GroupIdentifier verkn&#252;pfen</text></g><g class="message" data-entity-1="part3" data-entity-2="part3" data-source-line="125" id="msg9"><line style="stroke:#111827;stroke-width:1;" x1="781.2617" x2="823.2617" y1="1044.7734" y2="1044.7734"/><line style="stroke:#111827;stroke-width:1;" x1="823.2617" x2="823.2617" y1="1044.7734" y2="1057.7734"/><line style="stroke:#111827;stroke-width:1;" x1="782.2617" x2="823.2617" y1="1057.7734" y2="1057.7734"/><polygon fill="#111827" points="792.2617,1053.7734,782.2617,1057.7734,792.2617,1061.7734,788.2617,1057.7734" style="stroke:#111827;stroke-width:1;stroke-linejoin:miter;stroke-miterlimit:10;"/><text fill="#000000" font-family="'Arial'" font-size="13" font-weight="700" lengthAdjust="spacing" textLength="9.0454" x="788.2617" y="1032.1411">9</text><text fill="#000000" font-family="'Arial'" font-size="13" lengthAdjust="spacing" textLength="142.7144" x="801.3071" y="1024.5747">e-Med GroupIdentifier</text><text fill="#000000" font-family="'Arial'" font-size="13" lengthAdjust="spacing" textLength="60.8613" x="801.3071" y="1039.7075">erg&#228;nzen</text></g><path d="M651,1075.7734 L651,1107.7734 A5,5 0 0 0 656,1112.7734 L892,1112.7734 A5,5 0 0 0 897,1107.7734 L897,1080.7734 L887,1070.7734 L656,1070.7734 A5,5 0 0 0 651,1075.7734" fill="url(#gez1w36l297en0)" filter="url(#fez1w36l297en)" style="stroke:#8B95A5;stroke-width:1;"/><path d="M887,1070.7734 L887,1078.2734 A2.5,2.5 0 0 0 889.5,1080.7734 L897,1080.7734 L887,1070.7734" fill="url(#gez1w36l297en0)" style="stroke:#8B95A5;stroke-width:1;"/><text fill="#111827" font-family="'Arial'" font-size="14" lengthAdjust="spacing" textLength="185.0283" x="657" y="1088.7686">Bestehendes e-Rezept mit</text><text fill="#111827" font-family="'Arial'" font-size="14" lengthAdjust="spacing" textLength="225.9551" x="657" y="1105.0654">e-Med GroupIdentifier verkn&#252;pft</text><g class="message" data-entity-1="part3" data-entity-2="part1" data-source-line="130" id="msg10"><polygon fill="#111827" points="192.2817,1138.5,182.2817,1142.5,192.2817,1146.5,188.2817,1142.5" style="stroke:#111827;stroke-width:1;stroke-linejoin:miter;stroke-miterlimit:10;"/><line style="stroke:#111827;stroke-width:1;stroke-dasharray:2,2;" x1="186.2817" x2="775.2617" y1="1142.5" y2="1142.5"/><text fill="#000000" font-family="'Arial'" font-size="13" font-weight="700" lengthAdjust="spacing" textLength="18.0908" x="198.2817" y="1137.4341">10</text><text fill="#000000" font-family="'Arial'" font-size="13" lengthAdjust="spacing" textLength="18.7573" x="220.3726" y="1137.4341">OK</text></g><?plantuml-src ZLRDRjj64BxpAQRI9K6YrAGjItPZ0x8Zkq4QIv3L79e4neeSaWjHIsL9sgsAlesV8IVVz6ATtQNu9pej1GZapjytCz_iRihJ2E4Qrn4JAS9e4R05Whzzah309CKGXOVm4Js-P2cFHQ8KaOjKRXy319Ia4qKeleXFJ7Bju_8KRfWRQes8ko729vHBiNrQ-va8mCC4i3V33QxJ15OyfPKLhL0Ck9PnjdxleKYvpr5QLhBaOiqaMy4YbXxAopYA9NGFz5ELCdSPaB7mSWs_htuLZIHaNlp02O3FeWGhajnC2fHWLvrwwBCiIgzYaTwm5K9dH1b6dNQDMxv1i8_QXS_1_lMlDSg8YsL5OJnkK_YTsg1US0_-HVpdb7cUoimvgAzVL6lMrq-rf2AcRlrj0LmqguS7sFSFUbtFzaxmM6bKFGqN9ttMBrRd8NUN0fC4R5gRLQevfEyTDkMbKWhRjeVEWDPkYxwaCaFhdoh01BzbA5m3Sifaobs-9ewrvLLNsAE3VkfA-utP4--QMXDKgWqmaZ9-QEQa5-jbqKjj4Gk1YNL8IteAQZaMderehrteEpgxYcKPtb55_OdOgDXpEVbjChkxVZUwiw5xs1yEsU38RP4wq7NPyCHbVRyXdOxcxyStS-WoX-7nqT1fo4VJ2NIFV6_eENsl8Hj_7B-xkngHhNta7Wu6mwRyRZR-OpoTg_bTU8u_63GK9XzslNIEcxQpsMG6tO5lz-t-uQ5bCJUbufXKMG8TUWExKws0PQtBjWBI3gJ0ALsp7LsDEdNW3OCxiulb5kQZqqY5S6HfBBBLGkrdPsVDlHJOGcO-2ZWxqv3vFQEfDAYhK2Nw4DzZdj3h0kqfVFvCsp5APKi-tuJfAkgQoTbud0KqIAkUYjIJo3oOghSPlNtzQbcMtW9AjvQg4Sfm-nYbUq2j5wCiYJZwA6aVJtf4lWXrqDu5SJ72bnOT5dfNqOc-vUUDSqMy_PcVmtqigHR8KqgQx21nG_fQv2Le8XgR4uOMd_Cd5I9Abgj_i3PPWE7sk-J1y-VMBrPGFsdCYTSnBLn6L3AK7MiH4QuK8gJMbQaH1I17fSwpNUCjDN-wRRtpWXgdC2SW0GNOgPL79kaN_Iwer20FGBCUq1OR67Lc-pr1yPeKuf26elr01IZpeF1HMivL4s1A2b02wr5M6i4fJ3ueOwHZg3PwXOCh32CTgztSY47BFTmhWS5eMTf_G1rmmmsHHRMpala-6HGNoBRM1JCZfp2TtCwf4qmaPah045RVUuoriIp1vDDLd_wsRa2RNtMhsS4JMYadBD0SNT7bY8a7Ib8bidsYOI1zIapyg3rDwfTjCeNE0LUpRgK0sMsGHeHkRAyWs64il8PSR38Q1b8mZikCSxzwjNbXjE4LEAQb0IPhrJIKEOCg6TLm5co25pCwf-9CkWI0xZhHctReBrjfruHIPTyks7-JBy-j89_wQvdcWkEgm-trlTzTTl_lX9SpKe_KulmBtQg2xQFOQD-LrfIpGxUoujwUrF2QalmOSrgbuBFJtpgt_m80?></g></svg>