<svg xmlns="http://www.w3.org/2000/svg" xmlns:xlink="http://www.w3.org/1999/xlink" version="1.1" data-diagram-type="SEQUENCE" style="width:751px;height:842px;background:#F5F5F5;" width="751px" height="842px" viewBox="0 0 751 842" zoomAndPan="magnify" preserveAspectRatio="none" contentStyleType="text/css"><?plantuml 1.2026.7beta6?><defs><linearGradient x1="50%" y1="0%" x2="50%" y2="100%" id="g1eujwfc56hf610"><stop stop-color="#E0E5F0" offset="0%"/><stop stop-color="#D1D9E6" offset="100%"/></linearGradient></defs><g font-family="sans-serif" lengthAdjust="spacing"><rect x="0" y="0" width="751" height="842" fill="#F5F5F5" style="stroke:none;"/><g class="title" data-source-line="1"><text x="334.71" y="27.995" fill="#000" font-size="14" textLength="80.028" font-weight="700" font-family="'Arial'">Plan-Read</text></g><path d="M131.897,315.391 L726.448,315.391 A5,5 0 0 1 731.448,320.391 L731.448,596.117 L126.897,596.117 L126.897,320.391 A5,5 0 0 1 131.897,315.391" fill="#0F9ED5" fill-opacity="0.145"/><path d="M126.897,596.117 L731.448,596.117 L731.448,661.188 A5,5 0 0 1 726.448,666.188 L131.897,666.188 A5,5 0 0 1 126.897,661.188 L126.897,596.117" fill="#E97132" fill-opacity="0.208"/><g><title>GDA 1</title><rect x="139.397" y="123.594" width="8" height="631.992" fill="#000" fill-opacity="0"/><line x1="142.897" y1="123.594" x2="142.897" y2="755.586" style="stroke:#181818;stroke-width:0.5;stroke-dasharray:5,5;"/></g><g><title></title><rect x="137.897" y="195.859" width="10" height="559.727" fill="#156082" fill-opacity="0.502" style="stroke:#181818;stroke-width:1;"/></g><g><title>e-Med FA</title><rect x="393.376" y="123.594" width="8" height="631.992" fill="#000" fill-opacity="0"/><line x1="396.876" y1="123.594" x2="396.876" y2="755.586" style="stroke:#181818;stroke-width:0.5;stroke-dasharray:5,5;"/></g><g><title></title><rect x="391.876" y="195.859" width="10" height="470.328" fill="#E97232" fill-opacity="0.741" style="stroke:#181818;stroke-width:1;"/></g><text x="117.615" y="120.292" fill="#000" font-size="14" textLength="44.563" font-family="'Arial'">GDA 1</text><ellipse cx="142.897" cy="55.797" rx="8" ry="8" fill="#156082" fill-opacity="0.502" style="stroke:#181818;stroke-width:0.5;"/><path d="M142.897,63.797 L142.897,90.797 M129.897,71.797 L155.897,71.797 M142.897,90.797 L129.897,105.797 M142.897,90.797 L155.897,105.797" style="stroke:#181818;stroke-width:0.5;" fill="none"/><rect x="357.214" y="92.297" width="79.324" height="30.297" fill="#E97232" fill-opacity="0.741" style="stroke:#555;stroke-width:0.5;" rx="5" ry="5"/><text x="364.214" y="112.292" fill="#000" font-size="14" textLength="65.324" font-family="'Arial'">e-Med FA</text><text x="117.615" y="768.581" fill="#000" font-size="14" textLength="44.563" font-family="'Arial'">GDA 1</text><ellipse cx="142.897" cy="780.383" rx="8" ry="8" fill="#156082" fill-opacity="0.502" style="stroke:#181818;stroke-width:0.5;"/><path d="M142.897,788.383 L142.897,815.383 M129.897,796.383 L155.897,796.383 M142.897,815.383 L129.897,830.383 M142.897,815.383 L155.897,830.383" style="stroke:#181818;stroke-width:0.5;" fill="none"/><rect x="357.214" y="755.586" width="79.324" height="30.297" fill="#E97232" fill-opacity="0.741" style="stroke:#555;stroke-width:0.5;" rx="5" ry="5"/><text x="364.214" y="775.581" fill="#000" font-size="14" textLength="65.324" font-family="'Arial'">e-Med FA</text><rect x="10" y="152.16" width="730.448" height="3" fill="#EEE" style="stroke:#EEE;stroke-width:1;" rx="5" ry="5"/><line x1="10" y1="152.16" x2="740.448" y2="152.16" style="stroke:#000;stroke-width:1;"/><line x1="10" y1="155.16" x2="740.448" y2="155.16" style="stroke:#000;stroke-width:1;"/><rect x="274.304" y="141.594" width="201.84" height="23.133" fill="#EEE" style="stroke:#000;stroke-width:2;" rx="5" ry="5"/><text x="280.304" y="157.661" fill="#000" font-size="13" textLength="183.314" font-weight="700" font-family="'Arial'">Medikationsplan abrufen</text><polygon points="379.876,191.859,389.876,195.859,379.876,199.859,383.876,195.859" fill="#111827" style="stroke:#111827;stroke-width:1;stroke-linejoin:miter;stroke-miterlimit:10;"/><line x1="147.897" y1="195.859" x2="385.876" y2="195.859" style="stroke:#111827;stroke-width:1;"/><text x="154.897" y="190.793" fill="#000" font-size="13" font-weight="700" font-family="'Arial'">1</text><text x="167.942" y="190.793" fill="#000" font-size="13" textLength="108.989" font-family="'Arial'">POST $plan-read</text><path d="M42.555,213.859 L42.555,243.859 A5,5 0 0 0 47.555,248.859 L237.555,248.859 A5,5 0 0 0 242.555,243.859 L242.555,218.859 L232.555,208.859 L47.555,208.859 A5,5 0 0 0 42.555,213.859" style="stroke:#8B95A5;stroke-width:1;" fill="url(#g1eujwfc56hf610)"/><path d="M232.555,208.859 L232.555,216.359 A2.5,2.5 0 0 0 235.055,218.859 L242.555,218.859 L232.555,208.859" style="stroke:#8B95A5;stroke-width:1;" fill="url(#g1eujwfc56hf610)"/><text x="48.555" y="225.926" fill="#111827" font-size="13" textLength="179.683" font-family="'Arial'">Abruf des Medikationsplans</text><text x="48.555" y="241.059" fill="#111827" font-size="13" textLength="104.457" font-family="'Arial'">zur Bearbeitung</text><line x1="401.876" y1="290.391" x2="443.876" y2="290.391" style="stroke:#111827;stroke-width:1;"/><line x1="443.876" y1="290.391" x2="443.876" y2="303.391" style="stroke:#111827;stroke-width:1;"/><line x1="402.876" y1="303.391" x2="443.876" y2="303.391" style="stroke:#111827;stroke-width:1;"/><polygon points="412.876,299.391,402.876,303.391,412.876,307.391,408.876,303.391" fill="#111827" style="stroke:#111827;stroke-width:1;stroke-linejoin:miter;stroke-miterlimit:10;"/><text x="408.876" y="277.758" fill="#000" font-size="13" font-weight="700" font-family="'Arial'">2</text><text x="421.921" y="270.192" fill="#000" font-size="13" textLength="102.648" font-family="'Arial'">Existiert bereits</text><text x="426.053" y="285.325" fill="#000" font-size="13" textLength="137.198" font-family="'Arial'">ein Medikationsplan?</text><path d="M131.897,315.391 L191.34,315.391 L191.34,322.523 L181.34,332.523 L126.897,332.523 L126.897,320.391 A5,5 0 0 1 131.897,315.391" style="stroke:#111827;stroke-width:1.5;" fill="#EEF2FF"/><rect x="126.897" y="315.391" width="604.551" height="350.797" fill="none" style="stroke:#111827;stroke-width:2;" rx="5" ry="5"/><text x="141.897" y="328.458" fill="#000" font-size="13" textLength="19.443" font-weight="700" font-family="'Arial'">alt</text><text x="206.34" y="327.601" fill="#000" font-size="11" textLength="309.939" font-weight="700" font-family="'Arial'">[Medikationsplan persistiert (kein emptyReason)]</text><line x1="126.897" y1="596.117" x2="731.448" y2="596.117" style="stroke:#111827;stroke-width:1;stroke-dasharray:2,2;"/><text x="131.897" y="608.328" fill="#000" font-size="11" textLength="211.541" font-weight="700" font-family="'Arial'">[kein Medikationsplan persistiert]</text><line x1="401.876" y1="454.453" x2="443.876" y2="454.453" style="stroke:#111827;stroke-width:1;"/><line x1="443.876" y1="454.453" x2="443.876" y2="467.453" style="stroke:#111827;stroke-width:1;"/><line x1="402.876" y1="467.453" x2="443.876" y2="467.453" style="stroke:#111827;stroke-width:1;"/><polygon points="412.876,463.453,402.876,467.453,412.876,471.453,408.876,467.453" fill="#111827" style="stroke:#111827;stroke-width:1;stroke-linejoin:miter;stroke-miterlimit:10;"/><text x="408.876" y="403.989" fill="#000" font-size="13" font-weight="700" font-family="'Arial'">3</text><text x="421.921" y="358.59" fill="#000" font-size="13" textLength="147.342" font-family="'Arial'">Erzeugt Auslieferungs-</text><text x="421.921" y="373.723" fill="#000" font-size="13" textLength="113.693" font-family="'Arial'">Collection Bundle</text><text x="421.921" y="388.856" fill="#000" font-size="13" textLength="104.051" font-family="'Arial'">Transformation:</text><text x="421.921" y="403.989" fill="#000" font-size="13" textLength="187.897" font-family="'Arial'">- new|changed → unchanged</text><text x="421.921" y="419.122" fill="#000" font-size="13" textLength="286.527" font-family="'Arial'">- removed -> aus List und Bundle entfernen</text><text x="421.921" y="434.254" fill="#000" font-size="13" textLength="188.894" font-family="'Arial'">wenn alle List.entry entfernt:</text><text x="421.921" y="449.387" fill="#000" font-size="13" textLength="238.481" font-family="'Arial'">- setzt List.emptyReason = nilknown</text><path d="M296.375,485.453 L296.375,530.453 A5,5 0 0 0 301.375,535.453 L492.375,535.453 A5,5 0 0 0 497.375,530.453 L497.375,490.453 L487.375,480.453 L301.375,480.453 A5,5 0 0 0 296.375,485.453" style="stroke:#8B95A5;stroke-width:1;" fill="url(#g1eujwfc56hf610)"/><path d="M487.375,480.453 L487.375,487.953 A2.5,2.5 0 0 0 489.875,490.453 L497.375,490.453 L487.375,480.453" style="stroke:#8B95A5;stroke-width:1;" fill="url(#g1eujwfc56hf610)"/><text x="302.375" y="497.52" fill="#111827" font-size="13" textLength="102.781" font-family="'Arial'">Das persistierte</text><text x="302.375" y="512.653" fill="#111827" font-size="13" textLength="180" font-family="'Arial'">Medikationsplan-Collection-</text><text x="302.375" y="527.786" fill="#111827" font-size="13" textLength="174.891" font-family="'Arial'">Bundle bleibt unverändert.</text><polygon points="158.897,573.117,148.897,577.117,158.897,581.117,154.897,577.117" fill="#111827" style="stroke:#111827;stroke-width:1;stroke-linejoin:miter;stroke-miterlimit:10;"/><line x1="152.897" y1="577.117" x2="390.876" y2="577.117" style="stroke:#111827;stroke-width:1;stroke-dasharray:2,2;"/><text x="164.897" y="564.485" fill="#000" font-size="13" font-weight="700" font-family="'Arial'">4</text><text x="177.942" y="556.918" fill="#000" font-size="13" textLength="206.934" font-family="'Arial'">Auslieferungs-Collection Bundle</text><text x="177.942" y="572.051" fill="#000" font-size="13" textLength="47.398" font-family="'Arial'">+ ETag</text><path d="M281.662,625.922 L281.662,655.922 A5,5 0 0 0 286.662,660.922 L506.662,660.922 A5,5 0 0 0 511.662,655.922 L511.662,630.922 L501.662,620.922 L286.662,620.922 A5,5 0 0 0 281.662,625.922" style="stroke:#8B95A5;stroke-width:1;" fill="url(#g1eujwfc56hf610)"/><path d="M501.662,620.922 L501.662,628.422 A2.5,2.5 0 0 0 504.162,630.922 L511.662,630.922 L501.662,620.922" style="stroke:#8B95A5;stroke-width:1;" fill="url(#g1eujwfc56hf610)"/><text x="287.662" y="637.989" fill="#111827" font-size="13" textLength="186.938" font-family="'Arial'">Siehe Sub_UC_eMed_05_03 -</text><text x="287.662" y="653.122" fill="#111827" font-size="13" textLength="209.428" font-family="'Arial'">Initial erstellter Medikationsplan</text><path d="M15,690.188 L15,735.188 A5,5 0 0 0 20,740.188 L265,740.188 A5,5 0 0 0 270,735.188 L270,695.188 L260,685.188 L20,685.188 A5,5 0 0 0 15,690.188" style="stroke:#8B95A5;stroke-width:1;" fill="url(#g1eujwfc56hf610)"/><path d="M260,685.188 L260,692.688 A2.5,2.5 0 0 0 262.5,695.188 L270,695.188 L260,685.188" style="stroke:#8B95A5;stroke-width:1;" fill="url(#g1eujwfc56hf610)"/><text x="21" y="702.254" fill="#111827" font-size="13" textLength="143.793" font-family="'Arial'">Nachfolgend kann der</text><text x="21" y="717.387" fill="#111827" font-size="13" textLength="230.661" font-family="'Arial'">Medikationsplan bearbeitet werden</text><text x="21" y="732.52" fill="#111827" font-size="13" textLength="182.336" font-family="'Arial'">und ein Plan-Write erfolgen.</text><?plantuml-src TLPTZk9647xlKrGWKX957jbcWM4a4i7WsQooEo1W5Ib2GcrSG0lJ9jtjPMUIlEO0EKDkafla9AasVst3DYzsrTTLzNrLtSO8aoACKYwzCVA4iM_qHiWTLtmBV64oDJ4l1E1xrDaM6Rjuuqmbg1wpD5DGzulbUlbYir9PBfCZOjcqFmUXrpp9zaAkOCbJZOxdk4r9L12uGHDSyZmrJvaqptoBKEifmTEQMxC3cOXNXE3DxVrVglkdbnsgLCYD0uYYMu2FCYaUyAh-VlPvn9F4KWlzihtlYjOibgkfp0p2xmoWNvKFVMmkVQ-U14a7MnRXHhgFEqtUF5kdQx7OIDGQ0hAD7JbzUZ_LPgCuKWH1S1-soJQfDEPFjqADl-Ke5uSgHrmPiH0xBiqjOcN0rK0KgmowxioL-zJLaiEH6w2dLBQlaYgCPLqAqwsCPySXLuDCRwdoNOdZEVB1TTKlN8O5EsVd9NreHVsAnj6Ep-Fm_N0yVplepGEWLG-QBVy-lFTl0C82q6cr_FRW2Z3gJTz5prCReTFgXs-k0BtH48fLzvywqQ3PgGAY3z5W_jGZ07RQOIECaofWFev-ZKPJg2-IHhiHyawLnl1dAEK8czKGu_5mN02YJZjeX0qw0CL50mS5k8OQFK5GSuLXkqkp0JzWOikqKFJe1PvwjJ85Ha5payby6wDYhDi5WeaDDoAJUaUt7V1OvKkKqEqoTiZi_N2A_02ZuMGANrkWf-orI1MAJvmEvm7gLiQAGvjzmYC3rhEHwQxHrPoQlUOA-iXLZCBaSiLG9iMPPvS49t9bEYUhMsFqMMWZK1aWZXHGpoIWaDMiFrBmr5pQKnM2hZDz2lJjnWR0xSwyqDT0P_8xck2RkTKhvYi3lLod0fUeY8tsPfAcFyM53GvzEWmfpkHK4VDbfhP5peUPz43Y_e_5ciiLjUw_l_w6N1xVh5FXbiHCR3gUQtXFjH4WESO3b8RIIPGpkKT9VQI41UYEFEhbv3T58etcrHoz5rBG1IdIZSpsakXTsdTaHxO1ZPQZ2mBPAhfv5wgUlNWFrSKfYjZMI_7-_ST-8SoTbV3SPqTE8bWCp4D5nHiQVW_HbA-0CQGBkNIGDZSwxfREli1m8d2DCCdZ-SV7UM7sctE_0Pwb-auAGnzMe306qzJGpagA2gS4g_DhH_lwQ3ppnNgPfIkxTyEfUoGGi6hvyV64e84zqiKfWTa1i4oBFog_A64JgKEak_Cf-Xy0?></g></svg>