<svg xmlns="http://www.w3.org/2000/svg" xmlns:xlink="http://www.w3.org/1999/xlink" contentStyleType="text/css" data-diagram-type="SEQUENCE" height="1091px" preserveAspectRatio="none" style="width:1035px;height:1091px;background:#F5F5F5;" version="1.1" viewBox="0 0 1035 1091" width="1035px" zoomAndPan="magnify"><?plantuml 1.2026.7beta1?><defs><linearGradient id="gvvqsw771bsyp0" x1="50%" x2="50%" y1="0%" y2="100%"><stop offset="0%" stop-color="#E0E5F0"/><stop offset="100%" stop-color="#D1D9E6"/></linearGradient><filter height="300%" id="fvvqsw771bsyp" width="300%" x="-1" y="-1"><feGaussianBlur result="blurOut" stdDeviation="2"/><feColorMatrix in="blurOut" result="blurOut2" type="matrix" values="0 0 0 0 0 0 0 0 0 0 0 0 0 0 0 0 0 0 .4 0"/><feOffset dx="4" dy="4" in="blurOut2" result="blurOut3"/><feBlend in="SourceGraphic" in2="blurOut3" mode="normal"/></filter></defs><g><rect fill="#F5F5F5" height="1091" style="stroke:none;stroke-width:1;" width="1035" x="0" y="0"/><g class="title" data-source-line="1"><text fill="#000000" font-family="'Arial'" font-size="14" font-weight="700" lengthAdjust="spacing" textLength="539.0137" x="244.8713" y="27.9951">Geplante Abgabe f&#252;r bestehende Medikationsplaneintr&#228;ge erstellen</text><text fill="#000000" font-family="'Arial'" font-size="14" font-weight="700" lengthAdjust="spacing" textLength="567.0957" x="230.8303" y="44.292">Variante B: Sequentielles Erstellen von Geplanter Abgabe und e-Rezept</text></g><rect fill="#9FBAC4" height="1024.9141" rx="5" ry="5" style="stroke:#181818;stroke-width:0.5;" width="74.0586" x="127" y="59.5938"/><text fill="#000000" font-family="'Arial'" font-size="14" font-weight="700" lengthAdjust="spacing" textLength="4.874" x="130" y="72.5889">&#160;</text><text fill="#000000" font-family="'Arial'" font-size="14" font-weight="700" lengthAdjust="spacing" textLength="48.5625" x="139.748" y="88.8857">GDA 1</text><rect fill="#C48778" height="1024.9141" rx="5" ry="5" style="stroke:#181818;stroke-width:0.5;" width="256.9268" x="461.7949" y="59.5938"/><text fill="#000000" font-family="'Arial'" font-size="14" font-weight="700" lengthAdjust="spacing" textLength="4.874" x="464.7949" y="72.5889">&#160;</text><text fill="#000000" font-family="'Arial'" font-size="14" font-weight="700" lengthAdjust="spacing" textLength="182.6904" x="498.9131" y="88.8857">e-Med Fachanwendung</text><rect fill="#CBB272" height="1024.9141" rx="5" ry="5" style="stroke:#181818;stroke-width:0.5;" width="105.1826" x="903.5737" y="59.5938"/><text fill="#000000" font-family="'Arial'" font-size="14" font-weight="700" lengthAdjust="spacing" textLength="4.874" x="906.5737" y="72.5889">&#160;</text><text fill="#000000" font-family="'Arial'" font-size="14" font-weight="700" lengthAdjust="spacing" textLength="69.9385" x="926.0698" y="88.8857">e-Rezept</text><g><title>GDA 1</title><rect fill="#FFFFFF" height="758.4297" style="stroke:#181818;stroke-width:1;" width="10" x="159.0293" y="182.4844"/></g><g><title>e-Med FA</title><rect fill="#FFFFFF" height="233.3125" style="stroke:#181818;stroke-width:1;" width="10" x="585.2583" y="483.5859"/></g><g><title>e-Rezept</title><rect fill="#FFFFFF" height="158.75" style="stroke:#181818;stroke-width:1;" width="10" x="951.165" y="753.0313"/></g><rect fill="none" height="226.3125" rx="5" ry="5" style="stroke:#111827;stroke-width:2;" width="742.1968" x="128.7476" y="498.5859"/><rect fill="none" height="76.8594" rx="5" ry="5" style="stroke:#111827;stroke-width:2;" width="320.3481" x="540.5962" y="525.1797"/><rect fill="none" height="164.5859" rx="5" ry="5" style="stroke:#111827;stroke-width:2;" width="875.5894" x="128.7476" y="823.625"/><g class="participant-lifeline" data-entity-uid="part1" data-qualified-name="GDA_1" data-source-line="43" id="part1-lifeline"><g><title>GDA 1</title><rect fill="#000000" fill-opacity="0.00000" height="832.7266" width="8" x="160.0293" y="172.4844"/><line style="stroke:#181818;stroke-width:0.5;stroke-dasharray:5,5;" x1="163.7476" x2="163.7476" y1="172.4844" y2="1005.2109"/></g></g><g class="participant-lifeline" data-entity-uid="part2" data-qualified-name="eMed_FA" data-source-line="47" id="part2-lifeline"><g><title>e-Med FA</title><rect fill="#000000" fill-opacity="0.00000" height="832.7266" width="8" x="586.2583" y="172.4844"/><line style="stroke:#181818;stroke-width:0.5;stroke-dasharray:5,5;" x1="589.5962" x2="589.5962" y1="172.4844" y2="1005.2109"/></g></g><g class="participant-lifeline" data-entity-uid="part3" data-qualified-name="e_Rezept" data-source-line="51" id="part3-lifeline"><g><title>e-Rezept</title><rect fill="#000000" fill-opacity="0.00000" height="832.7266" width="8" x="952.165" y="172.4844"/><line style="stroke:#181818;stroke-width:0.5;stroke-dasharray:5,5;" x1="955.9932" x2="955.9932" y1="172.4844" y2="1005.2109"/></g></g><g class="participant participant-head" data-entity-uid="part1" data-qualified-name="GDA_1" data-source-line="43" id="part1-head"><text fill="#000000" font-family="'Arial'" font-size="14" lengthAdjust="spacing" textLength="44.5635" x="138.7476" y="169.1826">GDA 1</text><ellipse cx="164.0293" cy="104.6875" fill="#E2E2F0" rx="8" ry="8" style="stroke:#181818;stroke-width:0.5;"/><path d="M164.0293,112.6875 L164.0293,139.6875 M151.0293,120.6875 L177.0293,120.6875 M164.0293,139.6875 L151.0293,154.6875 M164.0293,139.6875 L177.0293,154.6875" fill="none" style="stroke:#181818;stroke-width:0.5;"/></g><g class="participant participant-tail" data-entity-uid="part1" data-qualified-name="GDA_1" data-source-line="43" id="part1-tail"><text fill="#000000" font-family="'Arial'" font-size="14" lengthAdjust="spacing" textLength="44.5635" x="138.7476" y="1017.2061">GDA 1</text><ellipse cx="164.0293" cy="1029.0078" fill="#E2E2F0" rx="8" ry="8" style="stroke:#181818;stroke-width:0.5;"/><path d="M164.0293,1037.0078 L164.0293,1064.0078 M151.0293,1045.0078 L177.0293,1045.0078 M164.0293,1064.0078 L151.0293,1079.0078 M164.0293,1064.0078 L177.0293,1079.0078" fill="none" style="stroke:#181818;stroke-width:0.5;"/></g><g class="participant participant-head" data-entity-uid="part2" data-qualified-name="eMed_FA" data-source-line="47" id="part2-head"><rect fill="#FFFFFF" height="30.2969" rx="5" ry="5" style="stroke:#555555;stroke-width:0.5;" width="79.3242" x="550.5962" y="141.1875"/><text fill="#000000" font-family="'Arial'" font-size="14" lengthAdjust="spacing" textLength="65.3242" x="557.5962" y="161.1826">e-Med FA</text></g><g class="participant participant-tail" data-entity-uid="part2" data-qualified-name="eMed_FA" data-source-line="47" id="part2-tail"><rect fill="#FFFFFF" height="30.2969" rx="5" ry="5" style="stroke:#555555;stroke-width:0.5;" width="79.3242" x="550.5962" y="1004.2109"/><text fill="#000000" font-family="'Arial'" font-size="14" lengthAdjust="spacing" textLength="65.3242" x="557.5962" y="1024.2061">e-Med FA</text></g><g class="participant participant-head" data-entity-uid="part3" data-qualified-name="e_Rezept" data-source-line="51" id="part3-head"><rect fill="#FFFFFF" height="30.2969" rx="5" ry="5" style="stroke:#555555;stroke-width:0.5;" width="76.3438" x="917.9932" y="141.1875"/><text fill="#000000" font-family="'Arial'" font-size="14" lengthAdjust="spacing" textLength="62.3438" x="924.9932" y="161.1826">e-Rezept</text></g><g class="participant participant-tail" data-entity-uid="part3" data-qualified-name="e_Rezept" data-source-line="51" id="part3-tail"><rect fill="#FFFFFF" height="30.2969" rx="5" ry="5" style="stroke:#555555;stroke-width:0.5;" width="76.3438" x="917.9932" y="1004.2109"/><text fill="#000000" font-family="'Arial'" font-size="14" lengthAdjust="spacing" textLength="62.3438" x="924.9932" y="1024.2061">e-Rezept</text></g><g><title>GDA 1</title><rect fill="#FFFFFF" height="758.4297" style="stroke:#181818;stroke-width:1;" width="10" x="159.0293" y="182.4844"/></g><g><title>e-Med FA</title><rect fill="#FFFFFF" height="233.3125" style="stroke:#181818;stroke-width:1;" width="10" x="585.2583" y="483.5859"/></g><g><title>e-Rezept</title><rect fill="#FFFFFF" height="158.75" style="stroke:#181818;stroke-width:1;" width="10" x="951.165" y="753.0313"/></g><rect fill="#EEEEEE" height="3" rx="5" ry="5" style="stroke:#EEEEEE;stroke-width:1;" width="1029.7563" x="0" y="203.6328"/><line style="stroke:#000000;stroke-width:1;" x1="0" x2="1029.7563" y1="203.6328" y2="203.6328"/><line style="stroke:#000000;stroke-width:1;" x1="0" x2="1029.7563" y1="206.6328" y2="206.6328"/><rect fill="#EEEEEE" height="24.2969" rx="5" ry="5" style="stroke:#000000;stroke-width:2;" width="216.2891" x="406.7336" y="192.4844"/><text fill="#000000" font-family="'Arial'" font-size="14" font-weight="700" lengthAdjust="spacing" textLength="197.415" x="412.7336" y="209.4795">Medikationsplan abrufen</text><rect fill="none" height="42.5938" rx="5" ry="5" style="stroke:#000000;stroke-width:1.5;" width="497.1729" x="135.7476" y="226.7813"/><path d="M140.7476,226.7813 L202.7476,226.7813 L202.7476,234.7813 L192.7476,244.7813 L135.7476,244.7813 L135.7476,231.7813 A5,5 0 0 1 140.7476,226.7813" fill="#EEEEEE" style="stroke:#000000;stroke-width:2;"/><text fill="#000000" font-family="'Arial'" font-size="14" font-weight="700" lengthAdjust="spacing" textLength="22.4902" x="148.7476" y="241.7764">ref</text><a href="interactions.html#sequenzdiagramm-plan-read" target="_top" title="interactions.html#sequenzdiagramm-plan-read" xlink:actuate="onRequest" xlink:href="interactions.html#sequenzdiagramm-plan-read" xlink:show="new" xlink:title="interactions.html#sequenzdiagramm-plan-read" xlink:type="simple"><text fill="#0000EE" font-family="'Arial'" font-size="14" lengthAdjust="spacing" textLength="70.6426" x="349.0127" y="261.7764">Plan-Read</text></a><path d="M34,284.375 L34,316.375 A5,5 0 0 0 39,321.375 L284,321.375 A5,5 0 0 0 289,316.375 L289,289.375 L279,279.375 L39,279.375 A5,5 0 0 0 34,284.375" fill="url(#gvvqsw771bsyp0)" filter="url(#fvvqsw771bsyp)" style="stroke:#8B95A5;stroke-width:1;"/><path d="M279,279.375 L279,286.875 A2.5,2.5 0 0 0 281.5,289.375 L289,289.375 L279,279.375" fill="url(#gvvqsw771bsyp0)" style="stroke:#8B95A5;stroke-width:1;"/><text fill="#111827" font-family="'Arial'" font-size="14" lengthAdjust="spacing" textLength="195.8018" x="40" y="297.3701">GDA erh&#228;lt Medikationsplan</text><text fill="#111827" font-family="'Arial'" font-size="14" lengthAdjust="spacing" textLength="234.377" x="40" y="313.667">(Auslieferungs-Collection-Bundle)</text><rect fill="#EEEEEE" height="3" rx="5" ry="5" style="stroke:#EEEEEE;stroke-width:1;" width="1029.7563" x="0" y="351.1172"/><line style="stroke:#000000;stroke-width:1;" x1="0" x2="1029.7563" y1="351.1172" y2="351.1172"/><line style="stroke:#000000;stroke-width:1;" x1="0" x2="1029.7563" y1="354.1172" y2="354.1172"/><rect fill="#EEEEEE" height="24.2969" rx="5" ry="5" style="stroke:#000000;stroke-width:2;" width="379.3398" x="325.2083" y="339.9688"/><text fill="#000000" font-family="'Arial'" font-size="14" font-weight="700" lengthAdjust="spacing" textLength="360.4658" x="331.2083" y="356.9639">Geplante Abgaben vorbereiten und schreiben</text><path d="M5,384.2656 L5,449.2656 A5,5 0 0 0 10,454.2656 L317,454.2656 A5,5 0 0 0 322,449.2656 L322,389.2656 L312,379.2656 L10,379.2656 A5,5 0 0 0 5,384.2656" fill="url(#gvvqsw771bsyp0)" filter="url(#fvvqsw771bsyp)" style="stroke:#8B95A5;stroke-width:1;"/><path d="M312,379.2656 L312,386.7656 A2.5,2.5 0 0 0 314.5,389.2656 L322,389.2656 L312,379.2656" fill="url(#gvvqsw771bsyp0)" style="stroke:#8B95A5;stroke-width:1;"/><text fill="#111827" font-family="'Arial'" font-size="14" lengthAdjust="spacing" textLength="57.8799" x="11" y="397.2607">Erstellte</text><text fill="#111827" font-family="'Arial'" font-size="14" font-style="italic" lengthAdjust="spacing" textLength="130.5459" x="73.3301" y="397.2607">Geplante Abgaben</text><text fill="#111827" font-family="'Arial'" font-size="14" lengthAdjust="spacing" textLength="94.2471" x="208.3262" y="397.2607">referenzieren</text><text fill="#111827" font-family="'Arial'" font-size="14" lengthAdjust="spacing" textLength="260.668" x="11" y="413.5576">zugeh&#246;rige Medikationsplaneintr&#228;ge;</text><text fill="#111827" font-family="'Arial'" font-size="14" lengthAdjust="spacing" textLength="256.2725" x="11" y="429.8545">groupIdentifier f&#252;r "Rezeptklammer"</text><text fill="#111827" font-family="'Arial'" font-size="14" lengthAdjust="spacing" textLength="70.9775" x="11" y="446.1514">bleibt leer</text><g class="message" data-entity-1="part1" data-entity-2="part2" data-source-line="75" id="msg1"><line style="stroke:#111827;stroke-width:1;" x1="583.2583" x2="573.2583" y1="483.5859" y2="479.5859"/><line style="stroke:#111827;stroke-width:1;" x1="583.2583" x2="573.2583" y1="483.5859" y2="487.5859"/><line style="stroke:#111827;stroke-width:1;" x1="169.0293" x2="584.2583" y1="483.5859" y2="483.5859"/><text fill="#000000" font-family="'Arial'" font-size="13" font-weight="700" lengthAdjust="spacing" textLength="9.0454" x="176.0293" y="478.52">1</text><text fill="#000000" font-family="'Arial'" font-size="13" lengthAdjust="spacing" textLength="247.749" x="189.0747" y="478.52">POST Transaction Bundle GeplAbgabe</text></g><path d="M133.7476,498.5859 L194.686,498.5859 L194.686,506.8828 L184.686,516.8828 L128.7476,516.8828 L128.7476,503.5859 A5,5 0 0 1 133.7476,498.5859" fill="#EEF2FF" style="stroke:#111827;stroke-width:1.5;"/><rect fill="none" height="226.3125" rx="5" ry="5" style="stroke:#111827;stroke-width:2;" width="742.1968" x="128.7476" y="498.5859"/><text fill="#000000" font-family="'Arial'" font-size="14" font-weight="700" lengthAdjust="spacing" textLength="20.9385" x="143.7476" y="512.5811">alt</text><text fill="#000000" font-family="'Arial'" font-size="14" font-weight="700" lengthAdjust="spacing" textLength="312.2383" x="209.686" y="513.5811">[Geplante Abgaben erfolgreich erstellt]</text><path d="M545.5962,525.1797 L606.5347,525.1797 L606.5347,533.4766 L596.5347,543.4766 L540.5962,543.4766 L540.5962,530.1797 A5,5 0 0 1 545.5962,525.1797" fill="#EEF2FF" style="stroke:#111827;stroke-width:1.5;"/><rect fill="none" height="76.8594" rx="5" ry="5" style="stroke:#111827;stroke-width:2;" width="320.3481" x="540.5962" y="525.1797"/><text fill="#000000" font-family="'Arial'" font-size="14" font-weight="700" lengthAdjust="spacing" textLength="20.9385" x="555.5962" y="539.1748">alt</text><text fill="#000000" font-family="'Arial'" font-size="14" font-weight="700" lengthAdjust="spacing" textLength="223.4668" x="621.5347" y="540.1748">[e-Med GroupIdentifier leer]</text><g class="message" data-entity-1="part2" data-entity-2="part2" data-source-line="81" id="msg2"><line style="stroke:#111827;stroke-width:1;" x1="595.2583" x2="637.2583" y1="581.0391" y2="581.0391"/><line style="stroke:#111827;stroke-width:1;" x1="637.2583" x2="637.2583" y1="581.0391" y2="594.0391"/><line style="stroke:#111827;stroke-width:1;" x1="596.2583" x2="637.2583" y1="594.0391" y2="594.0391"/><polygon fill="#111827" points="606.2583,590.0391,596.2583,594.0391,606.2583,598.0391,602.2583,594.0391" style="stroke:#111827;stroke-width:1;stroke-linejoin:miter;stroke-miterlimit:10;"/><text fill="#000000" font-family="'Arial'" font-size="13" font-weight="700" lengthAdjust="spacing" textLength="9.0454" x="602.2583" y="568.4067">2</text><text fill="#000000" font-family="'Arial'" font-size="13" lengthAdjust="spacing" textLength="207.7397" x="615.3037" y="560.8403">e-Med GroupIdentifier erzeugen</text><text fill="#000000" font-family="'Arial'" font-size="13" lengthAdjust="spacing" textLength="223.6406" x="615.3037" y="575.9731">+ in geplanten Abgaben erg&#228;nzen</text></g><path d="M452,619.0391 L452,635.0391 A5,5 0 0 0 457,640.0391 L719,640.0391 A5,5 0 0 0 724,635.0391 L724,624.0391 L714,614.0391 L457,614.0391 A5,5 0 0 0 452,619.0391" fill="url(#gvvqsw771bsyp0)" filter="url(#fvvqsw771bsyp)" style="stroke:#8B95A5;stroke-width:1;"/><path d="M714,614.0391 L714,621.5391 A2.5,2.5 0 0 0 716.5,624.0391 L724,624.0391 L714,614.0391" fill="url(#gvvqsw771bsyp0)" style="stroke:#8B95A5;stroke-width:1;"/><text fill="#111827" font-family="'Arial'" font-size="14" lengthAdjust="spacing" textLength="251.6309" x="458" y="632.0342">Geplante Abgabe 1 + 2 gespeichert</text><g class="message" data-entity-1="part2" data-entity-2="part1" data-source-line="88" id="msg3"><line style="stroke:#111827;stroke-width:1;" x1="170.0293" x2="180.0293" y1="669.4688" y2="665.4688"/><line style="stroke:#111827;stroke-width:1;" x1="170.0293" x2="180.0293" y1="669.4688" y2="673.4688"/><line style="stroke:#111827;stroke-width:1;stroke-dasharray:2,2;" x1="169.0293" x2="584.2583" y1="669.4688" y2="669.4688"/><text fill="#000000" font-family="'Arial'" font-size="13" font-weight="700" lengthAdjust="spacing" textLength="9.0454" x="186.0293" y="664.4028">3</text><text fill="#000000" font-family="'Arial'" font-size="13" lengthAdjust="spacing" textLength="286.6348" x="199.0747" y="664.4028">OK (Ressourcen inkl. e-Med GroupIdentifier)</text></g><line style="stroke:#111827;stroke-width:1;stroke-dasharray:2,2;" x1="128.7476" x2="870.9443" y1="678.4688" y2="678.4688"/><text fill="#000000" font-family="'Arial'" font-size="14" font-weight="700" lengthAdjust="spacing" textLength="328.5898" x="133.7476" y="691.4639">[Fehler bei Erstellung Geplante Abgaben]</text><g class="message" data-entity-1="part2" data-entity-2="part1" data-source-line="92" id="msg4"><line style="stroke:#111827;stroke-width:1;" x1="170.0293" x2="180.0293" y1="716.8984" y2="712.8984"/><line style="stroke:#111827;stroke-width:1;" x1="170.0293" x2="180.0293" y1="716.8984" y2="720.8984"/><line style="stroke:#111827;stroke-width:1;stroke-dasharray:2,2;" x1="169.0293" x2="589.2583" y1="716.8984" y2="716.8984"/><text fill="#000000" font-family="'Arial'" font-size="13" font-weight="700" lengthAdjust="spacing" textLength="9.0454" x="186.0293" y="711.8325">4</text><text fill="#000000" font-family="'Arial'" font-size="13" lengthAdjust="spacing" textLength="40.6694" x="199.0747" y="711.8325">Fehler</text></g><g class="message" data-entity-1="part1" data-entity-2="part3" data-source-line="97" id="msg5"><line style="stroke:#111827;stroke-width:1;" x1="949.165" x2="939.165" y1="753.0313" y2="749.0313"/><line style="stroke:#111827;stroke-width:1;" x1="949.165" x2="939.165" y1="753.0313" y2="757.0313"/><line style="stroke:#111827;stroke-width:1;" x1="169.0293" x2="950.165" y1="753.0313" y2="753.0313"/><text fill="#000000" font-family="'Arial'" font-size="13" font-weight="700" lengthAdjust="spacing" textLength="9.0454" x="176.0293" y="747.9653">5</text><text fill="#000000" font-family="'Arial'" font-size="13" lengthAdjust="spacing" textLength="357.8174" x="189.0747" y="747.9653">Trigger e-Rezept erstellen (inkl. e-Med GroupIdentifier)</text></g><path d="M41,771.0313 L41,803.0313 A5,5 0 0 0 46,808.0313 L277,808.0313 A5,5 0 0 0 282,803.0313 L282,776.0313 L272,766.0313 L46,766.0313 A5,5 0 0 0 41,771.0313" fill="url(#gvvqsw771bsyp0)" filter="url(#fvvqsw771bsyp)" style="stroke:#8B95A5;stroke-width:1;"/><path d="M272,766.0313 L272,773.5313 A2.5,2.5 0 0 0 274.5,776.0313 L282,776.0313 L272,766.0313" fill="url(#gvvqsw771bsyp0)" style="stroke:#8B95A5;stroke-width:1;"/><text fill="#111827" font-family="'Arial'" font-size="14" lengthAdjust="spacing" textLength="170.8643" x="47" y="784.0264">Erstellung e-Rezept inkl.</text><text fill="#111827" font-family="'Arial'" font-size="14" lengthAdjust="spacing" textLength="220.124" x="47" y="800.3232">e-Med GroupIdentifier ausl&#246;sen</text><path d="M133.7476,823.625 L194.686,823.625 L194.686,831.9219 L184.686,841.9219 L128.7476,841.9219 L128.7476,828.625 A5,5 0 0 1 133.7476,823.625" fill="#EEF2FF" style="stroke:#111827;stroke-width:1.5;"/><rect fill="none" height="164.5859" rx="5" ry="5" style="stroke:#111827;stroke-width:2;" width="875.5894" x="128.7476" y="823.625"/><text fill="#000000" font-family="'Arial'" font-size="14" font-weight="700" lengthAdjust="spacing" textLength="20.9385" x="143.7476" y="837.6201">alt</text><text fill="#000000" font-family="'Arial'" font-size="14" font-weight="700" lengthAdjust="spacing" textLength="236.0859" x="209.686" y="838.6201">[e-Rezept erfolgreich erstellt]</text><g class="message" data-entity-1="part3" data-entity-2="part1" data-source-line="105" id="msg6"><line style="stroke:#111827;stroke-width:1;" x1="170.0293" x2="180.0293" y1="864.3516" y2="860.3516"/><line style="stroke:#111827;stroke-width:1;" x1="170.0293" x2="180.0293" y1="864.3516" y2="868.3516"/><line style="stroke:#111827;stroke-width:1;stroke-dasharray:2,2;" x1="169.0293" x2="950.165" y1="864.3516" y2="864.3516"/><text fill="#000000" font-family="'Arial'" font-size="13" font-weight="700" lengthAdjust="spacing" textLength="9.0454" x="186.0293" y="859.2856">6</text><text fill="#000000" font-family="'Arial'" font-size="13" lengthAdjust="spacing" textLength="18.7573" x="199.0747" y="859.2856">OK</text></g><line style="stroke:#111827;stroke-width:1;stroke-dasharray:2,2;" x1="128.7476" x2="1004.3369" y1="873.3516" y2="873.3516"/><text fill="#000000" font-family="'Arial'" font-size="14" font-weight="700" lengthAdjust="spacing" textLength="252.4375" x="133.7476" y="886.3467">[Fehler bei Erstellung e-Rezept]</text><g class="message" data-entity-1="part3" data-entity-2="part1" data-source-line="108" id="msg7"><line style="stroke:#111827;stroke-width:1;" x1="170.0293" x2="180.0293" y1="911.7813" y2="907.7813"/><line style="stroke:#111827;stroke-width:1;" x1="170.0293" x2="180.0293" y1="911.7813" y2="915.7813"/><line style="stroke:#111827;stroke-width:1;stroke-dasharray:2,2;" x1="169.0293" x2="955.165" y1="911.7813" y2="911.7813"/><text fill="#000000" font-family="'Arial'" font-size="13" font-weight="700" lengthAdjust="spacing" textLength="9.0454" x="186.0293" y="906.7153">7</text><text fill="#000000" font-family="'Arial'" font-size="13" lengthAdjust="spacing" textLength="40.6694" x="199.0747" y="906.7153">Fehler</text></g><g class="message" data-entity-1="part1" data-entity-2="part2" data-source-line="110" id="msg8"><line style="stroke:#111827;stroke-width:1;" x1="588.2583" x2="578.2583" y1="940.9141" y2="936.9141"/><line style="stroke:#111827;stroke-width:1;" x1="588.2583" x2="578.2583" y1="940.9141" y2="944.9141"/><line style="stroke:#111827;stroke-width:1;" x1="164.0293" x2="589.2583" y1="940.9141" y2="940.9141"/><text fill="#000000" font-family="'Arial'" font-size="13" font-weight="700" lengthAdjust="spacing" textLength="9.0454" x="171.0293" y="935.8481">8</text><text fill="#000000" font-family="'Arial'" font-size="13" font-style="italic" lengthAdjust="spacing" textLength="112.9819" x="184.0747" y="935.8481">Geplante Abgabe</text><text fill="#000000" font-family="'Arial'" font-size="13" lengthAdjust="spacing" textLength="135.7192" x="301.189" y="935.8481">verwerfen ($discard)</text></g><path d="M416,958.9141 L416,974.9141 A5,5 0 0 0 421,979.9141 L754,979.9141 A5,5 0 0 0 759,974.9141 L759,963.9141 L749,953.9141 L421,953.9141 A5,5 0 0 0 416,958.9141" fill="url(#gvvqsw771bsyp0)" filter="url(#fvvqsw771bsyp)" style="stroke:#8B95A5;stroke-width:1;"/><path d="M749,953.9141 L749,961.4141 A2.5,2.5 0 0 0 751.5,963.9141 L759,963.9141 L749,953.9141" fill="url(#gvvqsw771bsyp0)" style="stroke:#8B95A5;stroke-width:1;"/><text fill="#111827" font-family="'Arial'" font-size="14" lengthAdjust="spacing" textLength="119.082" x="422" y="971.9092">Siehe Use Case "</text><text fill="#111827" font-family="'Arial'" font-size="14" font-style="italic" lengthAdjust="spacing" textLength="121.6729" x="541.082" y="971.9092">Geplante Abgabe</text><text fill="#111827" font-family="'Arial'" font-size="14" lengthAdjust="spacing" textLength="77.3281" x="667.2051" y="971.9092">verwerfen"</text><?plantuml-src XLRTRjis5BxNKnmekqZGkOkyUacy9e2J9TbGR0tYT3Tj4L3IaKIOeJoAIb8FUviyGwzsvnVR8VLZIfOx6J1ayfoFt_dE3wsv5WZNk1HCQeHPcB8G8Ld_go34GcE6CaRu7ME-O9hdiZ26oALMwvSK0HNP287oa_oJAMunpgSmnxzAb9gRhG8k6oDup6LxbceEAsKCEBh55IurU5wnu7B957k0C5SngejSv0hs3ktZxh9eaQgSl6kBP68-ZaMHiJX_uZA5X8a2dPtQJKbY4RYWCIQi5Fegb_eFze3WpoWeuGzRpFaA8NWplDcbxTZ8d3JwsmCuxmU0XpX93aTxSH2Vu4_6mXNWE3oPi4cxUfVnQ26nA22WjLide6FwVSFYs0HkK1msGH0SZuzeRTvAerM9tZykmL-_B549BXTE29UNGmOVg3RC2zO2kzhR2eYgI6-OqZpYIqfx9wI9VNe6MscrJzTeM-2jxIOvdOr6bh5nc2cLF_M5iOjTRUtIq8djHdNMZxHqJSoNdHXRv6fhA-UOZ6rqZkVc-74tC-VvinD1Ptr8Lo_Cdy7_90dybna403xidIJKDqOL5caofOtx05W1lZNnFMftwhjdnzS-EA8H05SiofXy8fkIA5GFOLwyEJuwCbMtt2WDI0xtLpEBNNlFXk7RtZTOKHYEZyPzhFlQeWAhVZXWhDIvB1z2L9vtUjgVLi12LIOqVKvFoJJI_95H1zh8FOK9v8zO2_5zoteA7pzoCwICFU6yplI3sAkAUXLpbfBi3oE3FbB8OhWnRxVqzlcpvzaEtw1wHbfKsVf5w2rktlwiB0J711LfMemeWmBjcQDpgXA11pPC0sbZwqrgCr8LnOrSqxkPf4MKqQ-m3hTFfHx5jFYMd_Mntlx0pq0PAXGaDz_WhSeKi_LNnTFTjy3FdYdfvM-n6Va9ELRtXr_bQI58AbI-5mhYfK4WfMaJKrM1exEpHliftBoVty6TOhAer8TA2HjxHNMJnjg94alYRec3Aib5Idf4MNDLQSyKFnbNHNdTOsxPsQgiAs7a41jsGRL2Keckm5V09QGr2UcmIDSlSeMIW2bmGs2JboO0sBg40tW5Ou8hbeO_Absvrxev38ruLiOfl7y7-xSqEV9IHNGopMZnUfZs0I5u7jBOXYlC19hxdZTNjMdllfWxJgoTQJV6xQpOS9qKruqyfVJoD3NXDytV_fE0_M-otb7HXd6BLG5um-bYr6_hhmK5r8gvuLtpgyh9uJPGHh0PIzqCV5FL1dEN-x2SzwtJGBjiTx9jP9BeYOWRGR-BUH4n5H_iAhqvfpzwy85ONp3wylyFqdTBiKErIWhj_GS0?></g></svg>