<svg xmlns="http://www.w3.org/2000/svg" xmlns:xlink="http://www.w3.org/1999/xlink" contentStyleType="text/css" data-diagram-type="SEQUENCE" height="1805px" preserveAspectRatio="none" style="width:1409px;height:1805px;background:#F5F5F5;" version="1.1" viewBox="0 0 1409 1805" width="1409px" zoomAndPan="magnify"><?plantuml 1.2026.4beta2?><defs><linearGradient id="g1k9uuel97p5sb0" x1="50%" x2="50%" y1="0%" y2="100%"><stop offset="0%" stop-color="#E0E5F0"/><stop offset="100%" stop-color="#D1D9E6"/></linearGradient><filter height="300%" id="f1k9uuel97p5sb" width="300%" x="-1" y="-1"><feGaussianBlur result="blurOut" stdDeviation="2"/><feColorMatrix in="blurOut" result="blurOut2" type="matrix" values="0 0 0 0 0 0 0 0 0 0 0 0 0 0 0 0 0 0 .4 0"/><feOffset dx="4" dy="4" in="blurOut2" result="blurOut3"/><feBlend in="SourceGraphic" in2="blurOut3" mode="normal"/></filter></defs><g><rect fill="#F5F5F5" height="1805" style="stroke:none;stroke-width:1;" width="1409" x="0" y="0"/><g class="title" data-source-line="1"><text fill="#000000" font-family="'Arial'" font-size="14" font-weight="700" lengthAdjust="spacing" textLength="563.7324" x="419.542" y="27.9951">Geplante Abgabe aus bestehenden Medikationsplaneintr&#228;gen erstellen</text></g><rect fill="#9FBAC4" height="1755.0391" rx="5" ry="5" style="stroke:#181818;stroke-width:0.5;" width="74.0586" x="163" y="43.2969"/><text fill="#000000" font-family="'Arial'" font-size="14" font-weight="700" lengthAdjust="spacing" textLength="4.874" x="166" y="56.292">&#160;</text><text fill="#000000" font-family="'Arial'" font-size="14" font-weight="700" lengthAdjust="spacing" textLength="48.5625" x="175.748" y="72.5889">GDA 1</text><rect fill="#C48778" height="1755.0391" rx="5" ry="5" style="stroke:#181818;stroke-width:0.5;" width="256.9268" x="555.2476" y="43.2969"/><text fill="#000000" font-family="'Arial'" font-size="14" font-weight="700" lengthAdjust="spacing" textLength="4.874" x="558.2476" y="56.292">&#160;</text><text fill="#000000" font-family="'Arial'" font-size="14" font-weight="700" lengthAdjust="spacing" textLength="182.6904" x="592.3657" y="72.5889">e-Med Fachanwendung</text><rect fill="#CBB272" height="1755.0391" rx="5" ry="5" style="stroke:#181818;stroke-width:0.5;" width="105.1826" x="1175.0654" y="43.2969"/><text fill="#000000" font-family="'Arial'" font-size="14" font-weight="700" lengthAdjust="spacing" textLength="4.874" x="1178.0654" y="56.292">&#160;</text><text fill="#000000" font-family="'Arial'" font-size="14" font-weight="700" lengthAdjust="spacing" textLength="69.9385" x="1197.5615" y="72.5889">e-Rezept</text><g><title>GDA 1</title><rect fill="#FFFFFF" height="1543.8516" style="stroke:#181818;stroke-width:1;" width="10" x="195.0293" y="166.1875"/></g><g><title>e-Med FA</title><rect fill="#FFFFFF" height="126.8594" style="stroke:#181818;stroke-width:1;" width="10" x="678.7109" y="598.1172"/></g><g><title>e-Med FA</title><rect fill="#FFFFFF" height="615.8906" style="stroke:#181818;stroke-width:1;" width="10" x="678.7109" y="1071.1484"/></g><g><title>e-Rezept</title><rect fill="#FFFFFF" height="217.1797" style="stroke:#181818;stroke-width:1;" width="10" x="1222.6567" y="809.7031"/></g><rect fill="none" height="805.4453" rx="5" ry="5" style="stroke:#111827;stroke-width:2;" width="1327.397" x="66" y="896.5938"/><rect fill="none" height="177.5859" rx="5" ry="5" style="stroke:#111827;stroke-width:2;" width="967.6885" x="164.7476" y="1183.875"/><rect fill="none" height="177.5859" rx="5" ry="5" style="stroke:#111827;stroke-width:2;" width="967.6885" x="164.7476" y="1517.4531"/><g class="participant-lifeline" data-entity-uid="part1" data-qualified-name="GDA_1" data-source-line="43" id="part1-lifeline"><g><title>GDA 1</title><rect fill="#000000" fill-opacity="0.00000" height="1562.8516" width="8" x="196.0293" y="156.1875"/><line style="stroke:#181818;stroke-width:0.5;stroke-dasharray:5,5;" x1="199.7476" x2="199.7476" y1="156.1875" y2="1719.0391"/></g></g><g class="participant-lifeline" data-entity-uid="part2" data-qualified-name="eMed_FA" data-source-line="47" id="part2-lifeline"><g><title>e-Med FA</title><rect fill="#000000" fill-opacity="0.00000" height="1562.8516" width="8" x="679.7109" y="156.1875"/><line style="stroke:#181818;stroke-width:0.5;stroke-dasharray:5,5;" x1="683.0488" x2="683.0488" y1="156.1875" y2="1719.0391"/></g></g><g class="participant-lifeline" data-entity-uid="part3" data-qualified-name="e_Rezept" data-source-line="51" id="part3-lifeline"><g><title>e-Rezept</title><rect fill="#000000" fill-opacity="0.00000" height="1562.8516" width="8" x="1223.6567" y="156.1875"/><line style="stroke:#181818;stroke-width:0.5;stroke-dasharray:5,5;" x1="1227.4849" x2="1227.4849" y1="156.1875" y2="1719.0391"/></g></g><g class="participant participant-head" data-entity-uid="part1" data-qualified-name="GDA_1" data-source-line="43" id="part1-head"><text fill="#000000" font-family="'Arial'" font-size="14" lengthAdjust="spacing" textLength="44.5635" x="174.7476" y="152.8857">GDA 1</text><ellipse cx="200.0293" cy="88.3906" fill="#E2E2F0" rx="8" ry="8" style="stroke:#181818;stroke-width:0.5;"/><path d="M200.0293,96.3906 L200.0293,123.3906 M187.0293,104.3906 L213.0293,104.3906 M200.0293,123.3906 L187.0293,138.3906 M200.0293,123.3906 L213.0293,138.3906" fill="none" style="stroke:#181818;stroke-width:0.5;"/></g><g class="participant participant-tail" data-entity-uid="part1" data-qualified-name="GDA_1" data-source-line="43" id="part1-tail"><text fill="#000000" font-family="'Arial'" font-size="14" lengthAdjust="spacing" textLength="44.5635" x="174.7476" y="1731.0342">GDA 1</text><ellipse cx="200.0293" cy="1742.8359" fill="#E2E2F0" rx="8" ry="8" style="stroke:#181818;stroke-width:0.5;"/><path d="M200.0293,1750.8359 L200.0293,1777.8359 M187.0293,1758.8359 L213.0293,1758.8359 M200.0293,1777.8359 L187.0293,1792.8359 M200.0293,1777.8359 L213.0293,1792.8359" fill="none" style="stroke:#181818;stroke-width:0.5;"/></g><g class="participant participant-head" data-entity-uid="part2" data-qualified-name="eMed_FA" data-source-line="47" id="part2-head"><rect fill="#FFFFFF" height="30.2969" rx="5" ry="5" style="stroke:#555555;stroke-width:0.5;" width="79.3242" x="644.0488" y="124.8906"/><text fill="#000000" font-family="'Arial'" font-size="14" lengthAdjust="spacing" textLength="65.3242" x="651.0488" y="144.8857">e-Med FA</text></g><g class="participant participant-tail" data-entity-uid="part2" data-qualified-name="eMed_FA" data-source-line="47" id="part2-tail"><rect fill="#FFFFFF" height="30.2969" rx="5" ry="5" style="stroke:#555555;stroke-width:0.5;" width="79.3242" x="644.0488" y="1718.0391"/><text fill="#000000" font-family="'Arial'" font-size="14" lengthAdjust="spacing" textLength="65.3242" x="651.0488" y="1738.0342">e-Med FA</text></g><g class="participant participant-head" data-entity-uid="part3" data-qualified-name="e_Rezept" data-source-line="51" id="part3-head"><rect fill="#FFFFFF" height="30.2969" rx="5" ry="5" style="stroke:#555555;stroke-width:0.5;" width="76.3438" x="1189.4849" y="124.8906"/><text fill="#000000" font-family="'Arial'" font-size="14" lengthAdjust="spacing" textLength="62.3438" x="1196.4849" y="144.8857">e-Rezept</text></g><g class="participant participant-tail" data-entity-uid="part3" data-qualified-name="e_Rezept" data-source-line="51" id="part3-tail"><rect fill="#FFFFFF" height="30.2969" rx="5" ry="5" style="stroke:#555555;stroke-width:0.5;" width="76.3438" x="1189.4849" y="1718.0391"/><text fill="#000000" font-family="'Arial'" font-size="14" lengthAdjust="spacing" textLength="62.3438" x="1196.4849" y="1738.0342">e-Rezept</text></g><g><title>GDA 1</title><rect fill="#FFFFFF" height="1543.8516" style="stroke:#181818;stroke-width:1;" width="10" x="195.0293" y="166.1875"/></g><g><title>e-Med FA</title><rect fill="#FFFFFF" height="126.8594" style="stroke:#181818;stroke-width:1;" width="10" x="678.7109" y="598.1172"/></g><g><title>e-Med FA</title><rect fill="#FFFFFF" height="615.8906" style="stroke:#181818;stroke-width:1;" width="10" x="678.7109" y="1071.1484"/></g><g><title>e-Rezept</title><rect fill="#FFFFFF" height="217.1797" style="stroke:#181818;stroke-width:1;" width="10" x="1222.6567" y="809.7031"/></g><rect fill="#EEEEEE" height="3" rx="5" ry="5" style="stroke:#EEEEEE;stroke-width:1;" width="1403.8164" x="0" y="187.3359"/><line style="stroke:#000000;stroke-width:1;" x1="0" x2="1403.8164" y1="187.3359" y2="187.3359"/><line style="stroke:#000000;stroke-width:1;" x1="0" x2="1403.8164" y1="190.3359" y2="190.3359"/><rect fill="#EEEEEE" height="24.2969" rx="5" ry="5" style="stroke:#000000;stroke-width:2;" width="216.2891" x="593.7637" y="176.1875"/><text fill="#000000" font-family="'Arial'" font-size="14" font-weight="700" lengthAdjust="spacing" textLength="197.415" x="599.7637" y="193.1826">Medikationsplan abrufen</text><rect fill="none" height="42.5938" rx="5" ry="5" style="stroke:#000000;stroke-width:1.5;" width="554.6255" x="171.7476" y="210.4844"/><path d="M176.7476,210.4844 L238.7476,210.4844 L238.7476,218.4844 L228.7476,228.4844 L171.7476,228.4844 L171.7476,215.4844 A5,5 0 0 1 176.7476,210.4844" fill="#EEEEEE" style="stroke:#000000;stroke-width:2;"/><text fill="#000000" font-family="'Arial'" font-size="14" font-weight="700" lengthAdjust="spacing" textLength="22.4902" x="184.7476" y="225.4795">ref</text><a href="interactions.html#sequenzdiagramm-read-to-write-zugriff" target="_top" title="interactions.html#sequenzdiagramm-read-to-write-zugriff" xlink:actuate="onRequest" xlink:href="interactions.html#sequenzdiagramm-read-to-write-zugriff" xlink:show="new" xlink:title="interactions.html#sequenzdiagramm-read-to-write-zugriff" xlink:type="simple"><text fill="#0000EE" font-family="'Arial'" font-size="14" lengthAdjust="spacing" textLength="149.4609" x="374.3298" y="245.4795">Read-to-Write-Zugriff</text></a><path d="M54,268.0781 L54,316.0781 A5,5 0 0 0 59,321.0781 L337,321.0781 A5,5 0 0 0 342,316.0781 L342,273.0781 L332,263.0781 L59,263.0781 A5,5 0 0 0 54,268.0781" fill="url(#g1k9uuel97p5sb0)" filter="url(#f1k9uuel97p5sb)" style="stroke:#8B95A5;stroke-width:1;"/><path d="M332,263.0781 L332,270.5781 A2.5,2.5 0 0 0 334.5,273.0781 L342,273.0781 L332,263.0781" fill="url(#g1k9uuel97p5sb0)" style="stroke:#8B95A5;stroke-width:1;"/><text fill="#111827" font-family="'Arial'" font-size="14" lengthAdjust="spacing" textLength="177.0576" x="60" y="281.0732">GDA erh&#228;lt den aktuellen</text><text fill="#111827" font-family="'Arial'" font-size="14" lengthAdjust="spacing" textLength="263.3613" x="60" y="297.3701">Medikationsplan im Collection Bundle</text><text fill="#111827" font-family="'Arial'" font-size="14" lengthAdjust="spacing" textLength="259.4102" x="60" y="313.667">(AtElgaEmedBundleMedikationsplan)</text><rect fill="#EEEEEE" height="3" rx="5" ry="5" style="stroke:#EEEEEE;stroke-width:1;" width="1403.8164" x="0" y="351.1172"/><line style="stroke:#000000;stroke-width:1;" x1="0" x2="1403.8164" y1="351.1172" y2="351.1172"/><line style="stroke:#000000;stroke-width:1;" x1="0" x2="1403.8164" y1="354.1172" y2="354.1172"/><rect fill="#EEEEEE" height="24.2969" rx="5" ry="5" style="stroke:#000000;stroke-width:2;" width="379.3398" x="512.2383" y="339.9688"/><text fill="#000000" font-family="'Arial'" font-size="14" font-weight="700" lengthAdjust="spacing" textLength="360.4658" x="518.2383" y="356.9639">Geplante Abgaben vorbereiten und schreiben</text><g class="message" data-entity-1="part1" data-entity-2="part1" data-source-line="70" id="msg1"><line style="stroke:#111827;stroke-width:1;" x1="205.0293" x2="247.0293" y1="410.5313" y2="410.5313"/><line style="stroke:#111827;stroke-width:1;" x1="247.0293" x2="247.0293" y1="410.5313" y2="423.5313"/><line style="stroke:#111827;stroke-width:1;" x1="206.0293" x2="247.0293" y1="423.5313" y2="423.5313"/><polygon fill="#111827" points="216.0293,419.5313,206.0293,423.5313,216.0293,427.5313,212.0293,423.5313" style="stroke:#111827;stroke-width:1;"/><text fill="#000000" font-family="'Arial'" font-size="13" font-weight="700" lengthAdjust="spacing" textLength="9.0454" x="212.0293" y="397.8989">1</text><text fill="#000000" font-family="'Arial'" font-size="13" lengthAdjust="spacing" textLength="173.7861" x="225.0747" y="390.3325">Geplante Abgabe erstellen</text><text fill="#000000" font-family="'Arial'" font-size="13" lengthAdjust="spacing" textLength="335.042" x="225.0747" y="405.4653">(AtElgaEmedMedicationRequestGeplanteAbgabe 1)</text></g><g class="message" data-entity-1="part1" data-entity-2="part1" data-source-line="71" id="msg2"><line style="stroke:#111827;stroke-width:1;" x1="205.0293" x2="247.0293" y1="467.7969" y2="467.7969"/><line style="stroke:#111827;stroke-width:1;" x1="247.0293" x2="247.0293" y1="467.7969" y2="480.7969"/><line style="stroke:#111827;stroke-width:1;" x1="206.0293" x2="247.0293" y1="480.7969" y2="480.7969"/><polygon fill="#111827" points="216.0293,476.7969,206.0293,480.7969,216.0293,484.7969,212.0293,480.7969" style="stroke:#111827;stroke-width:1;"/><text fill="#000000" font-family="'Arial'" font-size="13" font-weight="700" lengthAdjust="spacing" textLength="9.0454" x="212.0293" y="455.1646">2</text><text fill="#000000" font-family="'Arial'" font-size="13" lengthAdjust="spacing" textLength="173.7861" x="225.0747" y="447.5981">Geplante Abgabe erstellen</text><text fill="#000000" font-family="'Arial'" font-size="13" lengthAdjust="spacing" textLength="335.042" x="225.0747" y="462.731">(AtElgaEmedMedicationRequestGeplanteAbgabe 2)</text></g><path d="M8,498.7969 L8,563.7969 A5,5 0 0 0 13,568.7969 L383,568.7969 A5,5 0 0 0 388,563.7969 L388,503.7969 L378,493.7969 L13,493.7969 A5,5 0 0 0 8,498.7969" fill="url(#g1k9uuel97p5sb0)" filter="url(#f1k9uuel97p5sb)" style="stroke:#8B95A5;stroke-width:1;"/><path d="M378,493.7969 L378,501.2969 A2.5,2.5 0 0 0 380.5,503.7969 L388,503.7969 L378,493.7969" fill="url(#g1k9uuel97p5sb0)" style="stroke:#8B95A5;stroke-width:1;"/><text fill="#111827" font-family="'Arial'" font-size="14" lengthAdjust="spacing" textLength="309.8662" x="14" y="511.792">Die neu erstellten geplanten Abgaben 1 + 2</text><text fill="#111827" font-family="'Arial'" font-size="14" lengthAdjust="spacing" textLength="347.457" x="14" y="528.0889">(AtElgaEmedMedicationRequestGeplanteAbgabe)</text><text fill="#111827" font-family="'Arial'" font-size="14" lengthAdjust="spacing" textLength="359.0986" x="14" y="544.3857">referenzieren bestehende Medikationsplaneintr&#228;ge</text><text fill="#111827" font-family="'Arial'" font-size="14" lengthAdjust="spacing" textLength="207.9219" x="14" y="560.6826">(Medikationsplaneintrags-ids)</text><g class="message" data-entity-1="part1" data-entity-2="part2" data-source-line="80" id="msg3"><polygon fill="#111827" points="666.7109,594.1172,676.7109,598.1172,666.7109,602.1172,670.7109,598.1172" style="stroke:#111827;stroke-width:1;"/><line style="stroke:#111827;stroke-width:1;" x1="205.0293" x2="672.7109" y1="598.1172" y2="598.1172"/><text fill="#000000" font-family="'Arial'" font-size="13" font-weight="700" lengthAdjust="spacing" textLength="9.0454" x="212.0293" y="593.0513">3</text><text fill="#000000" font-family="'Arial'" font-size="13" lengthAdjust="spacing" textLength="208.9395" x="225.0747" y="593.0513">e-Med groupIdentifier anfordern</text></g><path d="M36,616.1172 L36,648.1172 A5,5 0 0 0 41,653.1172 L355,653.1172 A5,5 0 0 0 360,648.1172 L360,621.1172 L350,611.1172 L41,611.1172 A5,5 0 0 0 36,616.1172" fill="url(#g1k9uuel97p5sb0)" filter="url(#f1k9uuel97p5sb)" style="stroke:#8B95A5;stroke-width:1;"/><path d="M350,611.1172 L350,618.6172 A2.5,2.5 0 0 0 352.5,621.1172 L360,621.1172 L350,611.1172" fill="url(#g1k9uuel97p5sb0)" style="stroke:#8B95A5;stroke-width:1;"/><text fill="#111827" font-family="'Arial'" font-size="14" lengthAdjust="spacing" textLength="303.9668" x="42" y="629.1123">e-Med groupIdentifier f&#252;r "Rezeptklammer"</text><text fill="#111827" font-family="'Arial'" font-size="14" lengthAdjust="spacing" textLength="68.8311" x="42" y="645.4092">anfordern</text><g class="message" data-entity-1="part2" data-entity-2="part2" data-source-line="88" id="msg4"><line style="stroke:#111827;stroke-width:1;" x1="688.7109" x2="730.7109" y1="682.8438" y2="682.8438"/><line style="stroke:#111827;stroke-width:1;" x1="730.7109" x2="730.7109" y1="682.8438" y2="695.8438"/><line style="stroke:#111827;stroke-width:1;" x1="689.7109" x2="730.7109" y1="695.8438" y2="695.8438"/><polygon fill="#111827" points="699.7109,691.8438,689.7109,695.8438,699.7109,699.8438,695.7109,695.8438" style="stroke:#111827;stroke-width:1;"/><text fill="#000000" font-family="'Arial'" font-size="13" font-weight="700" lengthAdjust="spacing" textLength="9.0454" x="695.7109" y="677.7778">4</text><text fill="#000000" font-family="'Arial'" font-size="13" lengthAdjust="spacing" textLength="205.918" x="708.7563" y="677.7778">e-Med groupIdentifier erzeugen</text></g><g class="message" data-entity-1="part2" data-entity-2="part1" data-source-line="89" id="msg5"><line style="stroke:#111827;stroke-width:1;" x1="206.0293" x2="216.0293" y1="724.9766" y2="720.9766"/><line style="stroke:#111827;stroke-width:1;" x1="206.0293" x2="216.0293" y1="724.9766" y2="728.9766"/><line style="stroke:#111827;stroke-width:1;stroke-dasharray:2,2;" x1="205.0293" x2="682.7109" y1="724.9766" y2="724.9766"/><text fill="#000000" font-family="'Arial'" font-size="13" font-weight="700" lengthAdjust="spacing" textLength="9.0454" x="222.0293" y="719.9106">5</text><text fill="#000000" font-family="'Arial'" font-size="13" lengthAdjust="spacing" textLength="140.8926" x="235.0747" y="719.9106">e-Med groupIdentifier</text></g><path d="M77,742.9766 L77,774.9766 A5,5 0 0 0 82,779.9766 L314,779.9766 A5,5 0 0 0 319,774.9766 L319,747.9766 L309,737.9766 L82,737.9766 A5,5 0 0 0 77,742.9766" fill="url(#g1k9uuel97p5sb0)" filter="url(#f1k9uuel97p5sb)" style="stroke:#8B95A5;stroke-width:1;"/><path d="M309,737.9766 L309,745.4766 A2.5,2.5 0 0 0 311.5,747.9766 L319,747.9766 L309,737.9766" fill="url(#g1k9uuel97p5sb0)" style="stroke:#8B95A5;stroke-width:1;"/><text fill="#111827" font-family="'Arial'" font-size="14" lengthAdjust="spacing" textLength="158.0127" x="83" y="755.9717">Geplante Abgaben mit</text><text fill="#111827" font-family="'Arial'" font-size="14" lengthAdjust="spacing" textLength="221.1016" x="83" y="772.2686">e-Med groupIdentifier versehen</text><g class="message" data-entity-1="part1" data-entity-2="part3" data-source-line="97" id="msg6"><line style="stroke:#111827;stroke-width:1;" x1="1220.6567" x2="1210.6567" y1="809.7031" y2="805.7031"/><line style="stroke:#111827;stroke-width:1;" x1="1220.6567" x2="1210.6567" y1="809.7031" y2="813.7031"/><line style="stroke:#111827;stroke-width:1;" x1="205.0293" x2="1221.6567" y1="809.7031" y2="809.7031"/><text fill="#000000" font-family="'Arial'" font-size="13" font-weight="700" lengthAdjust="spacing" textLength="9.0454" x="212.0293" y="804.6372">6</text><text fill="#000000" font-family="'Arial'" font-size="13" lengthAdjust="spacing" textLength="169.5713" x="225.0747" y="804.6372">Trigger e-Rezept erstellen</text></g><path d="M5,827.7031 L5,875.7031 A5,5 0 0 0 10,880.7031 L388,880.7031 A5,5 0 0 0 393,875.7031 L393,832.7031 L383,822.7031 L10,822.7031 A5,5 0 0 0 5,827.7031" fill="url(#g1k9uuel97p5sb0)" filter="url(#f1k9uuel97p5sb)" style="stroke:#8B95A5;stroke-width:1;"/><path d="M383,822.7031 L383,830.2031 A2.5,2.5 0 0 0 385.5,832.7031 L393,832.7031 L383,822.7031" fill="url(#g1k9uuel97p5sb0)" style="stroke:#8B95A5;stroke-width:1;"/><text fill="#111827" font-family="'Arial'" font-size="14" lengthAdjust="spacing" textLength="363.1387" x="11" y="840.6982">Erstellung eines e-Rezepts, welches die Information</text><text fill="#111827" font-family="'Arial'" font-size="14" lengthAdjust="spacing" textLength="297.4727" x="11" y="856.9951">der beiden geplanten Abgaben beinhaltet.</text><text fill="#111827" font-family="'Arial'" font-size="14" lengthAdjust="spacing" textLength="4.4502" x="11" y="873.292">&#160;</text><path d="M71,896.5938 L131.9385,896.5938 L131.9385,904.8906 L121.9385,914.8906 L66,914.8906 L66,901.5938 A5,5 0 0 1 71,896.5938" fill="#EEF2FF" style="stroke:#111827;stroke-width:1.5;"/><rect fill="none" height="805.4453" rx="5" ry="5" style="stroke:#111827;stroke-width:2;" width="1327.397" x="66" y="896.5938"/><text fill="#000000" font-family="'Arial'" font-size="14" font-weight="700" lengthAdjust="spacing" textLength="20.9385" x="81" y="910.5889">alt</text><text fill="#000000" font-family="'Arial'" font-size="14" font-weight="700" lengthAdjust="spacing" textLength="253.627" x="146.9385" y="911.5889">[Fehler bei Erstellung e_Rezept]</text><g class="message" data-entity-1="part3" data-entity-2="part1" data-source-line="107" id="msg7"><line style="stroke:#111827;stroke-width:1;" x1="206.0293" x2="216.0293" y1="937.3203" y2="933.3203"/><line style="stroke:#111827;stroke-width:1;" x1="206.0293" x2="216.0293" y1="937.3203" y2="941.3203"/><line style="stroke:#111827;stroke-width:1;stroke-dasharray:2,2;" x1="205.0293" x2="1221.6567" y1="937.3203" y2="937.3203"/><text fill="#000000" font-family="'Arial'" font-size="13" font-weight="700" lengthAdjust="spacing" textLength="9.0454" x="222.0293" y="932.2544">7</text><text fill="#000000" font-family="'Arial'" font-size="13" lengthAdjust="spacing" textLength="40.6694" x="235.0747" y="932.2544">Fehler</text></g><line style="stroke:#111827;stroke-width:1;stroke-dasharray:2,2;" x1="66" x2="1393.397" y1="946.3203" y2="946.3203"/><text fill="#000000" font-family="'Arial'" font-size="14" font-weight="700" lengthAdjust="spacing" textLength="237.2754" x="71" y="959.3154">[e_Rezept erfolgreich erstellt]</text><g class="message" data-entity-1="part3" data-entity-2="part3" data-source-line="110" id="msg8"><line style="stroke:#111827;stroke-width:1;" x1="1232.6567" x2="1274.6567" y1="984.75" y2="984.75"/><line style="stroke:#111827;stroke-width:1;" x1="1274.6567" x2="1274.6567" y1="984.75" y2="997.75"/><line style="stroke:#111827;stroke-width:1;" x1="1233.6567" x2="1274.6567" y1="997.75" y2="997.75"/><polygon fill="#111827" points="1243.6567,993.75,1233.6567,997.75,1243.6567,1001.75,1239.6567,997.75" style="stroke:#111827;stroke-width:1;"/><text fill="#000000" font-family="'Arial'" font-size="13" font-weight="700" lengthAdjust="spacing" textLength="9.0454" x="1239.6567" y="979.6841">8</text><text fill="#000000" font-family="'Arial'" font-size="13" lengthAdjust="spacing" textLength="118.6948" x="1252.7021" y="979.6841">e-Rezept erstellen</text></g><g class="message" data-entity-1="part3" data-entity-2="part1" data-source-line="111" id="msg9"><line style="stroke:#111827;stroke-width:1;" x1="206.0293" x2="216.0293" y1="1026.8828" y2="1022.8828"/><line style="stroke:#111827;stroke-width:1;" x1="206.0293" x2="216.0293" y1="1026.8828" y2="1030.8828"/><line style="stroke:#111827;stroke-width:1;stroke-dasharray:2,2;" x1="205.0293" x2="1226.6567" y1="1026.8828" y2="1026.8828"/><text fill="#000000" font-family="'Arial'" font-size="13" font-weight="700" lengthAdjust="spacing" textLength="9.0454" x="222.0293" y="1021.8169">9</text><text fill="#000000" font-family="'Arial'" font-size="13" lengthAdjust="spacing" textLength="18.7573" x="235.0747" y="1021.8169">OK</text></g><g class="message" data-entity-1="part1" data-entity-2="part2" data-source-line="113" id="msg10"><line style="stroke:#111827;stroke-width:1;" x1="676.7109" x2="666.7109" y1="1071.1484" y2="1067.1484"/><line style="stroke:#111827;stroke-width:1;" x1="676.7109" x2="666.7109" y1="1071.1484" y2="1075.1484"/><line style="stroke:#111827;stroke-width:1;" x1="205.0293" x2="677.7109" y1="1071.1484" y2="1071.1484"/><text fill="#000000" font-family="'Arial'" font-size="13" font-weight="700" lengthAdjust="spacing" textLength="18.0908" x="212.0293" y="1058.5161">10</text><text fill="#000000" font-family="'Arial'" font-size="13" lengthAdjust="spacing" textLength="162.8809" x="234.1201" y="1050.9497">POST MedicationRequest</text><text fill="#000000" font-family="'Arial'" font-size="13" lengthAdjust="spacing" textLength="335.042" x="234.1201" y="1066.0825">(AtElgaEmedMedicationRequestGeplanteAbgabe 1)</text></g><path d="M76,1089.1484 L76,1121.1484 A5,5 0 0 0 81,1126.1484 L315,1126.1484 A5,5 0 0 0 320,1121.1484 L320,1094.1484 L310,1084.1484 L81,1084.1484 A5,5 0 0 0 76,1089.1484" fill="url(#g1k9uuel97p5sb0)" filter="url(#f1k9uuel97p5sb)" style="stroke:#8B95A5;stroke-width:1;"/><path d="M310,1084.1484 L310,1091.6484 A2.5,2.5 0 0 0 312.5,1094.1484 L320,1094.1484 L310,1084.1484" fill="url(#g1k9uuel97p5sb0)" style="stroke:#8B95A5;stroke-width:1;"/><text fill="#111827" font-family="'Arial'" font-size="14" lengthAdjust="spacing" textLength="135.0303" x="82" y="1102.1436">Geplante Abgabe 1</text><text fill="#111827" font-family="'Arial'" font-size="14" lengthAdjust="spacing" textLength="223.4736" x="82" y="1118.4404">an Fachanwendung &#252;bermitteln</text><g class="message" data-entity-1="part2" data-entity-2="part2" data-source-line="121" id="msg11"><line style="stroke:#111827;stroke-width:1;" x1="688.7109" x2="730.7109" y1="1155.875" y2="1155.875"/><line style="stroke:#111827;stroke-width:1;" x1="730.7109" x2="730.7109" y1="1155.875" y2="1168.875"/><line style="stroke:#111827;stroke-width:1;" x1="689.7109" x2="730.7109" y1="1168.875" y2="1168.875"/><polygon fill="#111827" points="699.7109,1164.875,689.7109,1168.875,699.7109,1172.875,695.7109,1168.875" style="stroke:#111827;stroke-width:1;"/><text fill="#000000" font-family="'Arial'" font-size="13" font-weight="700" lengthAdjust="spacing" textLength="18.0908" x="695.7109" y="1150.8091">11</text><text fill="#000000" font-family="'Arial'" font-size="13" lengthAdjust="spacing" textLength="371.6807" x="717.8018" y="1150.8091">AtElgaEmedMedicationRequestGeplanteAbgabe 1 pr&#252;fen</text></g><path d="M169.7476,1183.875 L230.686,1183.875 L230.686,1192.1719 L220.686,1202.1719 L164.7476,1202.1719 L164.7476,1188.875 A5,5 0 0 1 169.7476,1183.875" fill="#EEF2FF" style="stroke:#111827;stroke-width:1.5;"/><rect fill="none" height="177.5859" rx="5" ry="5" style="stroke:#111827;stroke-width:2;" width="967.6885" x="164.7476" y="1183.875"/><text fill="#000000" font-family="'Arial'" font-size="14" font-weight="700" lengthAdjust="spacing" textLength="20.9385" x="179.7476" y="1197.8701">alt</text><text fill="#000000" font-family="'Arial'" font-size="14" font-weight="700" lengthAdjust="spacing" textLength="59.0967" x="245.686" y="1198.8701">[g&#252;ltig]</text><g class="message" data-entity-1="part2" data-entity-2="part2" data-source-line="123" id="msg12"><line style="stroke:#111827;stroke-width:1;" x1="688.7109" x2="730.7109" y1="1224.6016" y2="1224.6016"/><line style="stroke:#111827;stroke-width:1;" x1="730.7109" x2="730.7109" y1="1224.6016" y2="1237.6016"/><line style="stroke:#111827;stroke-width:1;" x1="689.7109" x2="730.7109" y1="1237.6016" y2="1237.6016"/><polygon fill="#111827" points="699.7109,1233.6016,689.7109,1237.6016,699.7109,1241.6016,695.7109,1237.6016" style="stroke:#111827;stroke-width:1;"/><text fill="#000000" font-family="'Arial'" font-size="13" font-weight="700" lengthAdjust="spacing" textLength="18.0908" x="695.7109" y="1219.5356">12</text><text fill="#000000" font-family="'Arial'" font-size="13" lengthAdjust="spacing" textLength="392.6343" x="717.8018" y="1219.5356">AtElgaEmedMedicationRequestGeplanteAbgabe 1 speichern</text></g><path d="M560,1255.6016 L560,1271.6016 A5,5 0 0 0 565,1276.6016 L798,1276.6016 A5,5 0 0 0 803,1271.6016 L803,1260.6016 L793,1250.6016 L565,1250.6016 A5,5 0 0 0 560,1255.6016" fill="url(#g1k9uuel97p5sb0)" filter="url(#f1k9uuel97p5sb)" style="stroke:#8B95A5;stroke-width:1;"/><path d="M793,1250.6016 L793,1258.1016 A2.5,2.5 0 0 0 795.5,1260.6016 L803,1260.6016 L793,1250.6016" fill="url(#g1k9uuel97p5sb0)" style="stroke:#8B95A5;stroke-width:1;"/><text fill="#111827" font-family="'Arial'" font-size="14" lengthAdjust="spacing" textLength="222.0928" x="566" y="1268.5967">Geplante Abgabe 1 gespeichert</text><g class="message" data-entity-1="part2" data-entity-2="part1" data-source-line="129" id="msg13"><line style="stroke:#111827;stroke-width:1;" x1="206.0293" x2="216.0293" y1="1306.0313" y2="1302.0313"/><line style="stroke:#111827;stroke-width:1;" x1="206.0293" x2="216.0293" y1="1306.0313" y2="1310.0313"/><line style="stroke:#111827;stroke-width:1;stroke-dasharray:2,2;" x1="205.0293" x2="677.7109" y1="1306.0313" y2="1306.0313"/><text fill="#000000" font-family="'Arial'" font-size="13" font-weight="700" lengthAdjust="spacing" textLength="18.0908" x="222.0293" y="1300.9653">13</text><text fill="#000000" font-family="'Arial'" font-size="13" lengthAdjust="spacing" textLength="18.7573" x="244.1201" y="1300.9653">OK</text></g><line style="stroke:#111827;stroke-width:1;stroke-dasharray:2,2;" x1="164.7476" x2="1132.436" y1="1315.0313" y2="1315.0313"/><text fill="#000000" font-family="'Arial'" font-size="14" font-weight="700" lengthAdjust="spacing" textLength="79.0303" x="169.7476" y="1328.0264">[ung&#252;ltig]</text><g class="message" data-entity-1="part2" data-entity-2="part1" data-source-line="131" id="msg14"><line style="stroke:#111827;stroke-width:1;" x1="206.0293" x2="216.0293" y1="1353.4609" y2="1349.4609"/><line style="stroke:#111827;stroke-width:1;" x1="206.0293" x2="216.0293" y1="1353.4609" y2="1357.4609"/><line style="stroke:#111827;stroke-width:1;stroke-dasharray:2,2;" x1="205.0293" x2="677.7109" y1="1353.4609" y2="1353.4609"/><text fill="#000000" font-family="'Arial'" font-size="13" font-weight="700" lengthAdjust="spacing" textLength="18.0908" x="222.0293" y="1348.395">14</text><text fill="#000000" font-family="'Arial'" font-size="13" lengthAdjust="spacing" textLength="40.6694" x="244.1201" y="1348.395">Fehler</text></g><g class="message" data-entity-1="part1" data-entity-2="part2" data-source-line="134" id="msg15"><line style="stroke:#111827;stroke-width:1;" x1="676.7109" x2="666.7109" y1="1404.7266" y2="1400.7266"/><line style="stroke:#111827;stroke-width:1;" x1="676.7109" x2="666.7109" y1="1404.7266" y2="1408.7266"/><line style="stroke:#111827;stroke-width:1;" x1="205.0293" x2="677.7109" y1="1404.7266" y2="1404.7266"/><text fill="#000000" font-family="'Arial'" font-size="13" font-weight="700" lengthAdjust="spacing" textLength="18.0908" x="212.0293" y="1392.0942">15</text><text fill="#000000" font-family="'Arial'" font-size="13" lengthAdjust="spacing" textLength="162.8809" x="234.1201" y="1384.5278">POST MedicationRequest</text><text fill="#000000" font-family="'Arial'" font-size="13" lengthAdjust="spacing" textLength="335.042" x="234.1201" y="1399.6606">(AtElgaEmedMedicationRequestGeplanteAbgabe 2)</text></g><path d="M76,1422.7266 L76,1454.7266 A5,5 0 0 0 81,1459.7266 L315,1459.7266 A5,5 0 0 0 320,1454.7266 L320,1427.7266 L310,1417.7266 L81,1417.7266 A5,5 0 0 0 76,1422.7266" fill="url(#g1k9uuel97p5sb0)" filter="url(#f1k9uuel97p5sb)" style="stroke:#8B95A5;stroke-width:1;"/><path d="M310,1417.7266 L310,1425.2266 A2.5,2.5 0 0 0 312.5,1427.7266 L320,1427.7266 L310,1417.7266" fill="url(#g1k9uuel97p5sb0)" style="stroke:#8B95A5;stroke-width:1;"/><text fill="#111827" font-family="'Arial'" font-size="14" lengthAdjust="spacing" textLength="135.0303" x="82" y="1435.7217">Geplante Abgabe 2</text><text fill="#111827" font-family="'Arial'" font-size="14" lengthAdjust="spacing" textLength="223.4736" x="82" y="1452.0186">an Fachanwendung &#252;bermitteln</text><g class="message" data-entity-1="part2" data-entity-2="part2" data-source-line="140" id="msg16"><line style="stroke:#111827;stroke-width:1;" x1="688.7109" x2="730.7109" y1="1489.4531" y2="1489.4531"/><line style="stroke:#111827;stroke-width:1;" x1="730.7109" x2="730.7109" y1="1489.4531" y2="1502.4531"/><line style="stroke:#111827;stroke-width:1;" x1="689.7109" x2="730.7109" y1="1502.4531" y2="1502.4531"/><polygon fill="#111827" points="699.7109,1498.4531,689.7109,1502.4531,699.7109,1506.4531,695.7109,1502.4531" style="stroke:#111827;stroke-width:1;"/><text fill="#000000" font-family="'Arial'" font-size="13" font-weight="700" lengthAdjust="spacing" textLength="18.0908" x="695.7109" y="1484.3872">16</text><text fill="#000000" font-family="'Arial'" font-size="13" lengthAdjust="spacing" textLength="371.6807" x="717.8018" y="1484.3872">AtElgaEmedMedicationRequestGeplanteAbgabe 2 pr&#252;fen</text></g><path d="M169.7476,1517.4531 L230.686,1517.4531 L230.686,1525.75 L220.686,1535.75 L164.7476,1535.75 L164.7476,1522.4531 A5,5 0 0 1 169.7476,1517.4531" fill="#EEF2FF" style="stroke:#111827;stroke-width:1.5;"/><rect fill="none" height="177.5859" rx="5" ry="5" style="stroke:#111827;stroke-width:2;" width="967.6885" x="164.7476" y="1517.4531"/><text fill="#000000" font-family="'Arial'" font-size="14" font-weight="700" lengthAdjust="spacing" textLength="20.9385" x="179.7476" y="1531.4482">alt</text><text fill="#000000" font-family="'Arial'" font-size="14" font-weight="700" lengthAdjust="spacing" textLength="59.0967" x="245.686" y="1532.4482">[g&#252;ltig]</text><g class="message" data-entity-1="part2" data-entity-2="part2" data-source-line="142" id="msg17"><line style="stroke:#111827;stroke-width:1;" x1="688.7109" x2="730.7109" y1="1558.1797" y2="1558.1797"/><line style="stroke:#111827;stroke-width:1;" x1="730.7109" x2="730.7109" y1="1558.1797" y2="1571.1797"/><line style="stroke:#111827;stroke-width:1;" x1="689.7109" x2="730.7109" y1="1571.1797" y2="1571.1797"/><polygon fill="#111827" points="699.7109,1567.1797,689.7109,1571.1797,699.7109,1575.1797,695.7109,1571.1797" style="stroke:#111827;stroke-width:1;"/><text fill="#000000" font-family="'Arial'" font-size="13" font-weight="700" lengthAdjust="spacing" textLength="18.0908" x="695.7109" y="1553.1138">17</text><text fill="#000000" font-family="'Arial'" font-size="13" lengthAdjust="spacing" textLength="392.6343" x="717.8018" y="1553.1138">AtElgaEmedMedicationRequestGeplanteAbgabe 2 speichern</text></g><path d="M560,1589.1797 L560,1605.1797 A5,5 0 0 0 565,1610.1797 L798,1610.1797 A5,5 0 0 0 803,1605.1797 L803,1594.1797 L793,1584.1797 L565,1584.1797 A5,5 0 0 0 560,1589.1797" fill="url(#g1k9uuel97p5sb0)" filter="url(#f1k9uuel97p5sb)" style="stroke:#8B95A5;stroke-width:1;"/><path d="M793,1584.1797 L793,1591.6797 A2.5,2.5 0 0 0 795.5,1594.1797 L803,1594.1797 L793,1584.1797" fill="url(#g1k9uuel97p5sb0)" style="stroke:#8B95A5;stroke-width:1;"/><text fill="#111827" font-family="'Arial'" font-size="14" lengthAdjust="spacing" textLength="222.0928" x="566" y="1602.1748">Geplante Abgabe 2 gespeichert</text><g class="message" data-entity-1="part2" data-entity-2="part1" data-source-line="148" id="msg18"><line style="stroke:#111827;stroke-width:1;" x1="206.0293" x2="216.0293" y1="1639.6094" y2="1635.6094"/><line style="stroke:#111827;stroke-width:1;" x1="206.0293" x2="216.0293" y1="1639.6094" y2="1643.6094"/><line style="stroke:#111827;stroke-width:1;stroke-dasharray:2,2;" x1="205.0293" x2="677.7109" y1="1639.6094" y2="1639.6094"/><text fill="#000000" font-family="'Arial'" font-size="13" font-weight="700" lengthAdjust="spacing" textLength="18.0908" x="222.0293" y="1634.5435">18</text><text fill="#000000" font-family="'Arial'" font-size="13" lengthAdjust="spacing" textLength="18.7573" x="244.1201" y="1634.5435">OK</text></g><line style="stroke:#111827;stroke-width:1;stroke-dasharray:2,2;" x1="164.7476" x2="1132.436" y1="1648.6094" y2="1648.6094"/><text fill="#000000" font-family="'Arial'" font-size="14" font-weight="700" lengthAdjust="spacing" textLength="79.0303" x="169.7476" y="1661.6045">[ung&#252;ltig]</text><g class="message" data-entity-1="part2" data-entity-2="part1" data-source-line="150" id="msg19"><line style="stroke:#111827;stroke-width:1;" x1="206.0293" x2="216.0293" y1="1687.0391" y2="1683.0391"/><line style="stroke:#111827;stroke-width:1;" x1="206.0293" x2="216.0293" y1="1687.0391" y2="1691.0391"/><line style="stroke:#111827;stroke-width:1;stroke-dasharray:2,2;" x1="205.0293" x2="682.7109" y1="1687.0391" y2="1687.0391"/><text fill="#000000" font-family="'Arial'" font-size="13" font-weight="700" lengthAdjust="spacing" textLength="18.0908" x="222.0293" y="1681.9731">19</text><text fill="#000000" font-family="'Arial'" font-size="13" lengthAdjust="spacing" textLength="40.6694" x="244.1201" y="1681.9731">Fehler</text></g><?plantuml-src jLRRRjj647tdLmpabmYD0fEDwWjW0t9Yfq7Gnh1T56WI64joI2v4BTNbqd9Lz6_o6NxJZtLsULjUZDHmGmc2ERUTEMTcregh5E4ThbCc5CB2ZvcFm8eSVCmL9YX25F0BXdp95Cz4hWsH2oLtNsFIe2IhD4NXEFcIYpMJR0L-9aEKRx8qax2tRnvRou9bBBD2X9L5DDSVoo9FM9Xjk8WXOccEbgPoam8bk7RG42DMfEeY4-fNjaAOB2HdwMJSuffl4TpNuyfksfQDo0YWlns0itu1k8_pQ7-s5xhX4VwaBMm03lsZEPitqfk41qk1UGukoQwiWWxf_PA5eIvSHx6oSLttq3iWsNK3ZP85El_O2VxyrnfboiNIAk7yVCpWDs9L_u4Lm3Rs-6U18YWhlMHIyO2lgJSw9StDqpCOq6gUhj4Gu86w9gUZg67njCD2ocpJ1yO8kzWQqTY9ZQ8ywqSIlQFCrvqQcyYbQi0vHfwfpl9iZ_Uwp9nbzrO57VaOhewVtSFaiw3WRnVW0anWxoYYkT6ei42HAIbkNM0vJ8p9nA51fRcxjtpDWpEQNRXWGSB4XcmAIg5yAEQRruS71xhhrYtIWEHmUx4miIllnNXud5tX5jVAn0fytplm-h5kAuioMFbY1ME5oaInyb4wpib9Vyq0ysKHqP8vEI7JGF4xHXDeAdSSYH5aTrWXyR99-nW-VQBrX58xKA1NYLgbUsLNRqFEOi9zDPF8mfdAPXl95SwsHInv5C5L9VtTIFyefL--E8uP_VOqHsEECjbzJHNe_SYMgYYtOBy4lWBYDaMJ39nH_z2wTLuir7aQi_CLXgMevpOr4EbJ3IwzzIpWBfE46LAM0iWVyY2XDx-2gkoDsMcPxF5WkpSx-xEm4j4f12Q5AmrMhcgtoikTVgV0tdI0xrkE8B2e0-eouyf9D22uy0Du7Io_ST9KDmt19hPS_rettACNdFDYJCFYVCR3t6QfnQPgnEDgzFJIMB-d9b4yecE1YSXCl1XsrRX3j7kGC2b7PvbIywASE6sKDeLcGgeCd7ealfqKoYqMT9stBhFJXkLH5oV4mNd3CUdtxOehUAHCyier6LP1DQIdpHuvXXl9urXdNE-UzX-G_kddfKPlF68DyyOdVmaRJ8E4H24rsdkDvSfG35IMfBxWuMZ7aK8aZDfHlNBQF5iSgYo92jeB5vYaPJ2mCsbieDsEDjgL6yMdYxarGHbbQKn37YJDL7H2s22DWFF8QHy_aCQciauFm4A_RfxBZzStC1YofsuHSuLrEmUWJnuCbekMqKBjNcMx1zg3r5LKfQcnvWH0VyS6u0cfmbhk7kZ-CNJ6kuTKyLWVyioe-Lgpg6VNPDbMtg8ng9sQiNPJTfrsEdrQJGCHI4tYuxPrmvcepdSZtfl-9vQzfx3yR3AyXc8wjKFoyoFRD1kYnwaUWQ17ThVW_vFmxkWtAPa-qFljNm00?></g></svg>