<svg xmlns="http://www.w3.org/2000/svg" xmlns:xlink="http://www.w3.org/1999/xlink" version="1.1" data-diagram-type="SEQUENCE" style="width:617px;height:675px;background:#F5F5F5;" width="617px" height="675px" viewBox="0 0 617 675" zoomAndPan="magnify" preserveAspectRatio="none" contentStyleType="text/css"><?plantuml 1.2026.7beta8?><defs><linearGradient x1="50%" y1="0%" x2="50%" y2="100%" id="g3307j9cc8stw0"><stop stop-color="#E0E5F0" offset="0%"/><stop stop-color="#D1D9E6" offset="100%"/></linearGradient></defs><g font-family="sans-serif" lengthAdjust="spacing"><rect x="0" y="0" width="617" height="675" fill="#F5F5F5" style="stroke:none;"/><g class="title" data-source-line="1"><text x="267.843" y="27.995" fill="#000" font-size="14" textLength="80.028" font-weight="700" font-family="'Arial'">Plan-Read</text></g><path d="M111.252,341.805 L592.713,341.805 A5,5 0 0 1 597.713,346.805 L597.713,426.664 L106.252,426.664 L106.252,346.805 A5,5 0 0 1 111.252,341.805" fill="#0F9ED5" fill-opacity="0.145"/><path d="M106.252,426.664 L597.713,426.664 L597.713,474.094 A5,5 0 0 1 592.713,479.094 L111.252,479.094 A5,5 0 0 1 106.252,474.094 L106.252,426.664" fill="#E97132" fill-opacity="0.208"/><g><title>GDA 1</title><rect x="118.752" y="123.594" width="8" height="464.688" fill="#000" fill-opacity="0"/><line x1="122.252" y1="123.594" x2="122.252" y2="588.281" style="stroke:#181818;stroke-width:0.5;stroke-dasharray:5,5;"/></g><g><title></title><rect x="117.252" y="197.023" width="10" height="274.07" fill="#156082" fill-opacity="0.502" style="stroke:#181818;stroke-width:1;"/></g><g><title>e-Med FA</title><rect x="289.825" y="123.594" width="8" height="464.688" fill="#000" fill-opacity="0"/><line x1="293.325" y1="123.594" x2="293.325" y2="588.281" style="stroke:#181818;stroke-width:0.5;stroke-dasharray:5,5;"/></g><g><title></title><rect x="288.325" y="197.023" width="10" height="274.07" fill="#E97232" fill-opacity="0.741" style="stroke:#181818;stroke-width:1;"/></g><text x="96.971" y="120.292" fill="#000" font-size="14" textLength="44.563" font-family="'Arial'">GDA 1</text><ellipse cx="122.252" cy="55.797" rx="8" ry="8" fill="#156082" fill-opacity="0.502" style="stroke:#181818;stroke-width:0.5;"/><path d="M122.252,63.797 L122.252,90.797 M109.252,71.797 L135.252,71.797 M122.252,90.797 L109.252,105.797 M122.252,90.797 L135.252,105.797" style="stroke:#181818;stroke-width:0.5;" fill="none"/><rect x="253.663" y="92.297" width="79.324" height="30.297" fill="#E97232" fill-opacity="0.741" style="stroke:#555;stroke-width:0.5;" rx="5" ry="5"/><text x="260.663" y="112.292" fill="#000" font-size="14" textLength="65.324" font-family="'Arial'">e-Med FA</text><text x="96.971" y="601.276" fill="#000" font-size="14" textLength="44.563" font-family="'Arial'">GDA 1</text><ellipse cx="122.252" cy="613.078" rx="8" ry="8" fill="#156082" fill-opacity="0.502" style="stroke:#181818;stroke-width:0.5;"/><path d="M122.252,621.078 L122.252,648.078 M109.252,629.078 L135.252,629.078 M122.252,648.078 L109.252,663.078 M122.252,648.078 L135.252,663.078" style="stroke:#181818;stroke-width:0.5;" fill="none"/><rect x="253.663" y="588.281" width="79.324" height="30.297" fill="#E97232" fill-opacity="0.741" style="stroke:#555;stroke-width:0.5;" rx="5" ry="5"/><text x="260.663" y="608.276" fill="#000" font-size="14" textLength="65.324" font-family="'Arial'">e-Med FA</text><rect x="10" y="152.742" width="596.713" height="3" fill="#EEE" style="stroke:#EEE;stroke-width:1;" rx="5" ry="5"/><line x1="10" y1="152.742" x2="606.713" y2="152.742" style="stroke:#000;stroke-width:1;"/><line x1="10" y1="155.742" x2="606.713" y2="155.742" style="stroke:#000;stroke-width:1;"/><rect x="200.212" y="141.594" width="216.289" height="24.297" fill="#EEE" style="stroke:#000;stroke-width:2;" rx="5" ry="5"/><text x="206.212" y="158.589" fill="#000" font-size="14" textLength="197.415" font-weight="700" font-family="'Arial'">Medikationsplan abrufen</text><polygon points="276.325,193.023,286.325,197.023,276.325,201.023,280.325,197.023" fill="#111827" style="stroke:#111827;stroke-width:1;stroke-linejoin:miter;stroke-miterlimit:10;"/><line x1="127.252" y1="197.023" x2="282.325" y2="197.023" style="stroke:#111827;stroke-width:1;"/><text x="134.252" y="191.958" fill="#000" font-size="13" font-weight="700" font-family="'Arial'">1</text><text x="147.298" y="191.958" fill="#000" font-size="13" textLength="108.989" font-family="'Arial'">POST $plan-read</text><path d="M15,215.023 L15,247.023 A5,5 0 0 0 20,252.023 L224,252.023 A5,5 0 0 0 229,247.023 L229,220.023 L219,210.023 L20,210.023 A5,5 0 0 0 15,215.023" style="stroke:#8B95A5;stroke-width:1;" fill="url(#g3307j9cc8stw0)"/><path d="M219,210.023 L219,217.523 A2.5,2.5 0 0 0 221.5,220.023 L229,220.023 L219,210.023" style="stroke:#8B95A5;stroke-width:1;" fill="url(#g3307j9cc8stw0)"/><text x="21" y="228.019" fill="#111827" font-size="14" textLength="193.505" font-family="'Arial'">Abruf des Medikationsplans</text><text x="21" y="244.315" fill="#111827" font-size="14" textLength="112.492" font-family="'Arial'">zur Bearbeitung</text><rect x="255.663" y="257.617" width="188.749" height="75.188" fill="none" style="stroke:#000;stroke-width:1.5;" rx="5" ry="5"/><path d="M260.663,257.617 L322.663,257.617 L322.663,265.617 L312.663,275.617 L255.663,275.617 L255.663,262.617 A5,5 0 0 1 260.663,257.617" style="stroke:#000;stroke-width:2;" fill="#EEE"/><text x="268.663" y="272.612" fill="#000" font-size="14" textLength="22.49" font-weight="700" font-family="'Arial'">ref</text><text x="259.663" y="292.612" fill="#000" font-size="14" textLength="180.749" font-family="'Arial'">Prüfung des Planzustands</text><text x="282.396" y="308.909" fill="#000" font-size="14" textLength="135.283" font-family="'Arial'">und Erzeugung des</text><text x="285.171" y="325.206" fill="#000" font-size="14" textLength="129.732" font-family="'Arial'">Collection Bundles</text><path d="M111.252,341.805 L539.67,341.805 L539.67,350.102 L529.67,360.102 L106.252,360.102 L106.252,346.805 A5,5 0 0 1 111.252,341.805" style="stroke:#111827;stroke-width:1.5;" fill="#EEF2FF"/><rect x="106.252" y="341.805" width="491.461" height="137.289" fill="none" style="stroke:#111827;stroke-width:2;" rx="5" ry="5"/><text x="121.252" y="355.8" fill="#000" font-size="14" textLength="383.544" font-weight="700" font-family="'Arial'">alt: Collection Bundles zur Auslieferung erstellt?</text><text x="554.67" y="356.8" fill="#000" font-size="14" textLength="27.043" font-weight="700" font-family="'Arial'">[ja]</text><line x1="106.252" y1="426.664" x2="597.713" y2="426.664" style="stroke:#111827;stroke-width:1;stroke-dasharray:2,2;"/><text x="111.252" y="441.659" fill="#000" font-size="14" textLength="107.721" font-weight="700" font-family="'Arial'">[nein: Fehler]</text><polygon points="138.252,403.664,128.252,407.664,138.252,411.664,134.252,407.664" fill="#111827" style="stroke:#111827;stroke-width:1;stroke-linejoin:miter;stroke-miterlimit:10;"/><line x1="132.252" y1="407.664" x2="287.325" y2="407.664" style="stroke:#111827;stroke-width:1;stroke-dasharray:2,2;"/><text x="144.252" y="395.032" fill="#000" font-size="13" font-weight="700" font-family="'Arial'">2</text><text x="157.298" y="387.465" fill="#000" font-size="13" textLength="113.693" font-family="'Arial'">Collection Bundle</text><text x="157.298" y="402.598" fill="#000" font-size="13" textLength="47.398" font-family="'Arial'">+ ETag</text><polygon points="138.252,467.094,128.252,471.094,138.252,475.094,134.252,471.094" fill="#111827" style="stroke:#111827;stroke-width:1;stroke-linejoin:miter;stroke-miterlimit:10;"/><line x1="132.252" y1="471.094" x2="287.325" y2="471.094" style="stroke:#111827;stroke-width:1;"/><text x="144.252" y="466.028" fill="#000" font-size="13" font-weight="700" font-family="'Arial'">3</text><text x="157.298" y="466.028" fill="#000" font-size="13" textLength="124.027" font-family="'Arial'">OperationOutcome</text><path d="M15.872,503.094 L15.872,568.094 A5,5 0 0 0 20.872,573.094 L222.872,573.094 A5,5 0 0 0 227.872,568.094 L227.872,508.094 L217.872,498.094 L20.872,498.094 A5,5 0 0 0 15.872,503.094" style="stroke:#8B95A5;stroke-width:1;" fill="url(#g3307j9cc8stw0)"/><path d="M217.872,498.094 L217.872,505.594 A2.5,2.5 0 0 0 220.372,508.094 L227.872,508.094 L217.872,498.094" style="stroke:#8B95A5;stroke-width:1;" fill="url(#g3307j9cc8stw0)"/><text x="21.872" y="516.089" fill="#111827" font-size="14" textLength="154.854" font-family="'Arial'">Nachfolgend kann der</text><text x="21.872" y="532.386" fill="#111827" font-size="14" textLength="191.762" font-family="'Arial'">Medikationsplan bearbeitet</text><text x="21.872" y="548.683" fill="#111827" font-size="14" textLength="156.263" font-family="'Arial'">und mittels Plan-Write</text><text x="21.872" y="564.979" fill="#111827" font-size="14" textLength="143.705" font-family="'Arial'">gespeichert werden.</text><?plantuml-src TLNRRjD047tVhnWI91vGaEsGfAvKaDCwW80cIeEGkAZQsEDaYRCEwpMbHVmPR_mOivkRBs7pOiySdvavCplHGgS8avJBpXHvpDYJV2NaXYk-1XxfJDteUmBmEyopDJ9szCup5QEwpD9CGTknf-pbqMgXiaB6EqJICxyI8b_oEBiJSW49JtCiUNQVAOaAt39fZ0alKZtAfBxcQuHMe0HFMwSHD-81mNr-slc_j5_VRr2bGgvAW30y1VWWO_k0ZVI7sSy9ZsDJcUTKxSEoPZrxofBAJ2FyOW33kdheO2znEktOZNti6qIPwMpkztZlO9qjHRIIcEVWacrQKjEXztrkXgKaXUkwPzw0R3UrllmkPvZZzm9bjCromfKMaTXmgKyLLWKqvi6UAgZPcOPxtzMAeoGtGA1KTbSloXghkbZJgOW7npPMbqolAFDDfSO3yzRLw1ScdgskzEKnl6T4VKJZQCRdSlnkFBrzTHNSka2dxVRwpfbtvfm0U1RWz_lEuAe1c0IpD-7rp33u_Q7tl0489cEmf-sC_F2gvzS1uVlmwdOK403zWTVrvd4TS3iDFuMJ6RIZk3leUjolbp5-2vKONgzECPsEfnOG-WEtwtNf0jWz0ri5U0ujUWAtLHQ6ROxD1doFiKdJGB53Bp0AMjKI694MEfF5UewANYukW71YnRN8PBwXRGTyhee49LnSCBODtNcnfpw7oVXc1eyDiAFCMgGKnGzEjtCBBQV6xAtDVk2k11OOPbesUJrcpXuA1KFaQev25tB1KCRsqhDZW7rrjNeK9jiOEp-RgBz_4kAmWSp-VYXopMMSCvf22DK35ekTcz5GfXYPF618tfHC9Z9nCcR6TdFi7a_rEJJnO38FYZmLcA0olAXoZMcgNyBdR_mhJVe-yGxfQ8KumVD5FeLmnXV0a5PBPIGa2daE8rocrB4Isu5iJ8lNQZakT6J-Yu1gg_QbQjehHQMoPfUkURHCidHXX5XnAUbBnUf3Cj_r2hLLTIqqrRoLk_DHaPqjCD-WY9QeDDmXNNFvxD3LVm00?></g></svg>