<svg xmlns="http://www.w3.org/2000/svg" xmlns:xlink="http://www.w3.org/1999/xlink" contentStyleType="text/css" data-diagram-type="SEQUENCE" height="1077px" preserveAspectRatio="none" style="width:1235px;height:1077px;background:#F5F5F5;" version="1.1" viewBox="0 0 1235 1077" width="1235px" zoomAndPan="magnify"><?plantuml 1.2026.3beta6?><defs><linearGradient id="g8pqy3ty7aq2h0" x1="50%" x2="50%" y1="0%" y2="100%"><stop offset="0%" stop-color="#E0E5F0"/><stop offset="100%" stop-color="#D1D9E6"/></linearGradient><filter height="300%" id="f8pqy3ty7aq2h" width="300%" x="-1" y="-1"><feGaussianBlur result="blurOut" stdDeviation="2"/><feColorMatrix in="blurOut" result="blurOut2" type="matrix" values="0 0 0 0 0 0 0 0 0 0 0 0 0 0 0 0 0 0 .4 0"/><feOffset dx="4" dy="4" in="blurOut2" result="blurOut3"/><feBlend in="SourceGraphic" in2="blurOut3" mode="normal"/></filter></defs><g><rect fill="#F5F5F5" height="1077" style="stroke:none;stroke-width:1;" width="1235" x="0" y="0"/><rect fill="#9FBAC4" height="1051.7813" rx="5" ry="5" style="stroke:#181818;stroke-width:0.5;" width="74.0586" x="103" y="6"/><text fill="#000000" font-family="'Arial'" font-size="14" font-weight="700" lengthAdjust="spacing" textLength="4.874" x="106" y="18.9951">&#160;</text><text fill="#000000" font-family="'Arial'" font-size="14" font-weight="700" lengthAdjust="spacing" textLength="48.5625" x="115.748" y="35.292">GDA 1</text><rect fill="#C48778" height="1051.7813" rx="5" ry="5" style="stroke:#181818;stroke-width:0.5;" width="256.9268" x="519.8989" y="6"/><text fill="#000000" font-family="'Arial'" font-size="14" font-weight="700" lengthAdjust="spacing" textLength="4.874" x="522.8989" y="18.9951">&#160;</text><text fill="#000000" font-family="'Arial'" font-size="14" font-weight="700" lengthAdjust="spacing" textLength="182.6904" x="557.0171" y="35.292">e-Med Fachanwendung</text><rect fill="#BEAEBE" height="1051.7813" rx="5" ry="5" style="stroke:#181818;stroke-width:0.5;" width="83.8066" x="1004.9492" y="6"/><text fill="#000000" font-family="'Arial'" font-size="14" font-weight="700" lengthAdjust="spacing" textLength="4.874" x="1007.9492" y="18.9951">&#160;</text><text fill="#000000" font-family="'Arial'" font-size="14" font-weight="700" lengthAdjust="spacing" textLength="48.5625" x="1027.4453" y="35.292">GDA 2</text><rect fill="#BAC38B" height="1051.7813" rx="5" ry="5" style="stroke:#181818;stroke-width:0.5;" width="77.9756" x="1130.7559" y="6"/><text fill="#000000" font-family="'Arial'" font-size="14" font-weight="700" lengthAdjust="spacing" textLength="4.874" x="1133.7559" y="18.9951">&#160;</text><text fill="#000000" font-family="'Arial'" font-size="14" font-weight="700" lengthAdjust="spacing" textLength="57.3535" x="1138.6299" y="35.292">Patient</text><g><title>GDA 1</title><rect fill="#FFFFFF" height="169.9922" style="stroke:#181818;stroke-width:1;" width="10" x="135.0293" y="438.9766"/></g><g><title>e-Med FA</title><rect fill="#FFFFFF" height="244.6563" style="stroke:#181818;stroke-width:1;" width="10" x="643.3623" y="194.3203"/></g><g><title>e-Med FA</title><rect fill="#FFFFFF" height="359.5156" style="stroke:#181818;stroke-width:1;" width="10" x="643.3623" y="608.9688"/></g><rect fill="none" height="207.8516" rx="5" ry="5" style="stroke:#111827;stroke-width:2;" width="772.8569" x="104.7476" y="753.6328"/><g class="participant-lifeline" data-entity-uid="part1" data-qualified-name="GDA_1" data-source-line="41" id="part1-lifeline"><g><title>GDA 1</title><rect fill="#000000" fill-opacity="0.00000" height="859.5938" width="8" x="136.0293" y="118.8906"/><line style="stroke:#181818;stroke-width:0.5;stroke-dasharray:5,5;" x1="139.7476" x2="139.7476" y1="118.8906" y2="978.4844"/></g></g><g class="participant-lifeline" data-entity-uid="part2" data-qualified-name="eMed_FA" data-source-line="45" id="part2-lifeline"><g><title>e-Med FA</title><rect fill="#000000" fill-opacity="0.00000" height="859.5938" width="8" x="644.3623" y="118.8906"/><line style="stroke:#181818;stroke-width:0.5;stroke-dasharray:5,5;" x1="647.7002" x2="647.7002" y1="118.8906" y2="978.4844"/></g></g><g class="participant-lifeline" data-entity-uid="part3" data-qualified-name="GDA_2" data-source-line="49" id="part3-lifeline"><g><title>GDA 2</title><rect fill="#000000" fill-opacity="0.00000" height="859.5938" width="8" x="1042.8525" y="118.8906"/><line style="stroke:#181818;stroke-width:0.5;stroke-dasharray:5,5;" x1="1046.5708" x2="1046.5708" y1="118.8906" y2="978.4844"/></g></g><g class="participant-lifeline" data-entity-uid="part4" data-qualified-name="Patient" data-source-line="53" id="part4-lifeline"><g><title>Patient</title><rect fill="#000000" fill-opacity="0.00000" height="859.5938" width="8" x="1165.7437" y="118.8906"/><line style="stroke:#181818;stroke-width:0.5;stroke-dasharray:5,5;" x1="1169.0557" x2="1169.0557" y1="118.8906" y2="978.4844"/></g></g><g class="participant participant-head" data-entity-uid="part1" data-qualified-name="GDA_1" data-source-line="41" id="part1-head"><text fill="#000000" font-family="'Arial'" font-size="14" lengthAdjust="spacing" textLength="44.5635" x="114.7476" y="115.5889">GDA 1</text><ellipse cx="140.0293" cy="51.0938" fill="#E2E2F0" rx="8" ry="8" style="stroke:#181818;stroke-width:0.5;"/><path d="M140.0293,59.0938 L140.0293,86.0938 M127.0293,67.0938 L153.0293,67.0938 M140.0293,86.0938 L127.0293,101.0938 M140.0293,86.0938 L153.0293,101.0938" fill="none" style="stroke:#181818;stroke-width:0.5;"/></g><g class="participant participant-tail" data-entity-uid="part1" data-qualified-name="GDA_1" data-source-line="41" id="part1-tail"><text fill="#000000" font-family="'Arial'" font-size="14" lengthAdjust="spacing" textLength="44.5635" x="114.7476" y="990.4795">GDA 1</text><ellipse cx="140.0293" cy="1002.2813" fill="#E2E2F0" rx="8" ry="8" style="stroke:#181818;stroke-width:0.5;"/><path d="M140.0293,1010.2813 L140.0293,1037.2813 M127.0293,1018.2813 L153.0293,1018.2813 M140.0293,1037.2813 L127.0293,1052.2813 M140.0293,1037.2813 L153.0293,1052.2813" fill="none" style="stroke:#181818;stroke-width:0.5;"/></g><g class="participant participant-head" data-entity-uid="part2" data-qualified-name="eMed_FA" data-source-line="45" id="part2-head"><rect fill="#FFFFFF" height="30.2969" rx="5" ry="5" style="stroke:#555555;stroke-width:0.5;" width="79.3242" x="608.7002" y="87.5938"/><text fill="#000000" font-family="'Arial'" font-size="14" lengthAdjust="spacing" textLength="65.3242" x="615.7002" y="107.5889">e-Med FA</text></g><g class="participant participant-tail" data-entity-uid="part2" data-qualified-name="eMed_FA" data-source-line="45" id="part2-tail"><rect fill="#FFFFFF" height="30.2969" rx="5" ry="5" style="stroke:#555555;stroke-width:0.5;" width="79.3242" x="608.7002" y="977.4844"/><text fill="#000000" font-family="'Arial'" font-size="14" lengthAdjust="spacing" textLength="65.3242" x="615.7002" y="997.4795">e-Med FA</text></g><g class="participant participant-head" data-entity-uid="part3" data-qualified-name="GDA_2" data-source-line="49" id="part3-head"><text fill="#000000" font-family="'Arial'" font-size="14" lengthAdjust="spacing" textLength="44.5635" x="1021.5708" y="115.5889">GDA 2</text><ellipse cx="1046.8525" cy="51.0938" fill="#E2E2F0" rx="8" ry="8" style="stroke:#181818;stroke-width:0.5;"/><path d="M1046.8525,59.0938 L1046.8525,86.0938 M1033.8525,67.0938 L1059.8525,67.0938 M1046.8525,86.0938 L1033.8525,101.0938 M1046.8525,86.0938 L1059.8525,101.0938" fill="none" style="stroke:#181818;stroke-width:0.5;"/></g><g class="participant participant-tail" data-entity-uid="part3" data-qualified-name="GDA_2" data-source-line="49" id="part3-tail"><text fill="#000000" font-family="'Arial'" font-size="14" lengthAdjust="spacing" textLength="44.5635" x="1021.5708" y="990.4795">GDA 2</text><ellipse cx="1046.8525" cy="1002.2813" fill="#E2E2F0" rx="8" ry="8" style="stroke:#181818;stroke-width:0.5;"/><path d="M1046.8525,1010.2813 L1046.8525,1037.2813 M1033.8525,1018.2813 L1059.8525,1018.2813 M1046.8525,1037.2813 L1033.8525,1052.2813 M1046.8525,1037.2813 L1059.8525,1052.2813" fill="none" style="stroke:#181818;stroke-width:0.5;"/></g><g class="participant participant-head" data-entity-uid="part4" data-qualified-name="Patient" data-source-line="53" id="part4-head"><text fill="#000000" font-family="'Arial'" font-size="14" lengthAdjust="spacing" textLength="49.376" x="1142.0557" y="115.5889">Patient</text><ellipse cx="1169.7437" cy="51.0938" fill="#E2E2F0" rx="8" ry="8" style="stroke:#181818;stroke-width:0.5;"/><path d="M1169.7437,59.0938 L1169.7437,86.0938 M1156.7437,67.0938 L1182.7437,67.0938 M1169.7437,86.0938 L1156.7437,101.0938 M1169.7437,86.0938 L1182.7437,101.0938" fill="none" style="stroke:#181818;stroke-width:0.5;"/></g><g class="participant participant-tail" data-entity-uid="part4" data-qualified-name="Patient" data-source-line="53" id="part4-tail"><text fill="#000000" font-family="'Arial'" font-size="14" lengthAdjust="spacing" textLength="49.376" x="1142.0557" y="990.4795">Patient</text><ellipse cx="1169.7437" cy="1002.2813" fill="#E2E2F0" rx="8" ry="8" style="stroke:#181818;stroke-width:0.5;"/><path d="M1169.7437,1010.2813 L1169.7437,1037.2813 M1156.7437,1018.2813 L1182.7437,1018.2813 M1169.7437,1037.2813 L1156.7437,1052.2813 M1169.7437,1037.2813 L1182.7437,1052.2813" fill="none" style="stroke:#181818;stroke-width:0.5;"/></g><g><title>GDA 1</title><rect fill="#FFFFFF" height="169.9922" style="stroke:#181818;stroke-width:1;" width="10" x="135.0293" y="438.9766"/></g><g><title>e-Med FA</title><rect fill="#FFFFFF" height="244.6563" style="stroke:#181818;stroke-width:1;" width="10" x="643.3623" y="194.3203"/></g><g><title>e-Med FA</title><rect fill="#FFFFFF" height="359.5156" style="stroke:#181818;stroke-width:1;" width="10" x="643.3623" y="608.9688"/></g><rect fill="#EEEEEE" height="3" rx="5" ry="5" style="stroke:#EEEEEE;stroke-width:1;" width="1229.7314" x="0" y="150.0391"/><line style="stroke:#000000;stroke-width:1;" x1="0" x2="1229.7314" y1="150.0391" y2="150.0391"/><line style="stroke:#000000;stroke-width:1;" x1="0" x2="1229.7314" y1="153.0391" y2="153.0391"/><rect fill="#EEEEEE" height="24.2969" rx="5" ry="5" style="stroke:#000000;stroke-width:2;" width="129.8828" x="549.9243" y="138.8906"/><text fill="#000000" font-family="'Arial'" font-size="14" font-weight="700" lengthAdjust="spacing" textLength="111.0088" x="555.9243" y="155.8857">Read-to-Write</text><g class="message" data-entity-1="part1" data-entity-2="part2" data-source-line="62" id="msg1"><line style="stroke:#111827;stroke-width:1;" x1="641.3623" x2="631.3623" y1="194.3203" y2="190.3203"/><line style="stroke:#111827;stroke-width:1;" x1="641.3623" x2="631.3623" y1="194.3203" y2="198.3203"/><line style="stroke:#111827;stroke-width:1;" x1="140.0293" x2="642.3623" y1="194.3203" y2="194.3203"/><text fill="#000000" font-family="'Arial'" font-size="13" font-weight="700" lengthAdjust="spacing" textLength="9.0454" x="147.0293" y="189.2544">1</text><text fill="#000000" font-family="'Arial'" font-size="13" lengthAdjust="spacing" textLength="121.9639" x="160.0747" y="189.2544">POST $readtowrite</text></g><path d="M22,212.3203 L22,244.3203 A5,5 0 0 0 27,249.3203 L249,249.3203 A5,5 0 0 0 254,244.3203 L254,217.3203 L244,207.3203 L27,207.3203 A5,5 0 0 0 22,212.3203" fill="url(#g8pqy3ty7aq2h0)" filter="url(#f8pqy3ty7aq2h)" style="stroke:#8B95A5;stroke-width:1;"/><path d="M244,207.3203 L244,214.8203 A2.5,2.5 0 0 0 246.5,217.3203 L254,217.3203 L244,207.3203" fill="url(#g8pqy3ty7aq2h0)" style="stroke:#8B95A5;stroke-width:1;"/><text fill="#111827" font-family="'Arial'" font-size="14" lengthAdjust="spacing" textLength="177.9053" x="28" y="225.3154">Medikationsplan abrufen,</text><text fill="#111827" font-family="'Arial'" font-size="14" lengthAdjust="spacing" textLength="211.5859" x="28" y="241.6123">mit der Intention zu schreiben</text><g class="message" data-entity-1="part2" data-entity-2="part2" data-source-line="69" id="msg2"><line style="stroke:#111827;stroke-width:1;" x1="653.3623" x2="695.3623" y1="294.1797" y2="294.1797"/><line style="stroke:#111827;stroke-width:1;" x1="695.3623" x2="695.3623" y1="294.1797" y2="307.1797"/><line style="stroke:#111827;stroke-width:1;" x1="654.3623" x2="695.3623" y1="307.1797" y2="307.1797"/><polygon fill="#111827" points="664.3623,303.1797,654.3623,307.1797,664.3623,311.1797,660.3623,307.1797" style="stroke:#111827;stroke-width:1;"/><text fill="#000000" font-family="'Arial'" font-size="13" font-weight="700" lengthAdjust="spacing" textLength="9.0454" x="660.3623" y="281.5474">2</text><text fill="#000000" font-family="'Arial'" font-size="13" lengthAdjust="spacing" textLength="164.8613" x="673.4077" y="273.981">Pr&#252;fung auf bestehenden</text><text fill="#000000" font-family="'Arial'" font-size="13" lengthAdjust="spacing" textLength="106.3169" x="673.4077" y="289.1138">Medikationsplan</text></g><g class="message" data-entity-1="part2" data-entity-2="part2" data-source-line="70" id="msg3"><line style="stroke:#111827;stroke-width:1;" x1="653.3623" x2="695.3623" y1="396.8438" y2="396.8438"/><line style="stroke:#111827;stroke-width:1;" x1="695.3623" x2="695.3623" y1="396.8438" y2="409.8438"/><line style="stroke:#111827;stroke-width:1;" x1="654.3623" x2="695.3623" y1="409.8438" y2="409.8438"/><polygon fill="#111827" points="664.3623,405.8438,654.3623,409.8438,664.3623,413.8438,660.3623,409.8438" style="stroke:#111827;stroke-width:1;"/><text fill="#000000" font-family="'Arial'" font-size="13" font-weight="700" lengthAdjust="spacing" textLength="9.0454" x="660.3623" y="361.5122">3</text><text fill="#000000" font-family="'Arial'" font-size="13" lengthAdjust="spacing" textLength="274.022" x="673.4077" y="331.2466">Erstellt Collection Bundle zur Auslieferung</text><text fill="#000000" font-family="'Arial'" font-size="13" lengthAdjust="spacing" textLength="175.8682" x="673.4077" y="346.3794">(inkl. neuem List.identifier)</text><text fill="#000000" font-family="'Arial'" font-size="13" lengthAdjust="spacing" textLength="117.2603" x="673.4077" y="361.5122">f&#252;r Read-to-Write:</text><text fill="#000000" font-family="'Arial'" font-size="13" lengthAdjust="spacing" textLength="187.897" x="673.4077" y="376.645">- new|changed &#8594; unchanged</text><text fill="#000000" font-family="'Arial'" font-size="13" lengthAdjust="spacing" textLength="149.6143" x="673.4077" y="391.7778">- removed &#8594; entfernen</text></g><g class="message" data-entity-1="part2" data-entity-2="part1" data-source-line="72" id="msg4"><line style="stroke:#111827;stroke-width:1;" x1="146.0293" x2="156.0293" y1="438.9766" y2="434.9766"/><line style="stroke:#111827;stroke-width:1;" x1="146.0293" x2="156.0293" y1="438.9766" y2="442.9766"/><line style="stroke:#111827;stroke-width:1;stroke-dasharray:2,2;" x1="145.0293" x2="647.3623" y1="438.9766" y2="438.9766"/><text fill="#000000" font-family="'Arial'" font-size="13" font-weight="700" lengthAdjust="spacing" textLength="9.0454" x="162.0293" y="433.9106">4</text><text fill="#000000" font-family="'Arial'" font-size="13" lengthAdjust="spacing" textLength="218.0483" x="175.0747" y="433.9106">Collection Bundle + List.identifier</text></g><g class="message" data-entity-1="part1" data-entity-2="part1" data-source-line="76" id="msg5"><line style="stroke:#111827;stroke-width:1;" x1="145.0293" x2="187.0293" y1="483.2422" y2="483.2422"/><line style="stroke:#111827;stroke-width:1;" x1="187.0293" x2="187.0293" y1="483.2422" y2="496.2422"/><line style="stroke:#111827;stroke-width:1;" x1="146.0293" x2="187.0293" y1="496.2422" y2="496.2422"/><polygon fill="#111827" points="156.0293,492.2422,146.0293,496.2422,156.0293,500.2422,152.0293,496.2422" style="stroke:#111827;stroke-width:1;"/><text fill="#000000" font-family="'Arial'" font-size="13" font-weight="700" lengthAdjust="spacing" textLength="9.0454" x="152.0293" y="470.6099">5</text><text fill="#000000" font-family="'Arial'" font-size="13" lengthAdjust="spacing" textLength="235.752" x="165.0747" y="463.0435">Neuen MedicationRequest erstellen,</text><text fill="#000000" font-family="'Arial'" font-size="13" lengthAdjust="spacing" textLength="232.9463" x="165.0747" y="478.1763">mit Flag "new" der Liste hinzuf&#252;gen</text></g><path d="M5,514.2422 L5,530.2422 A5,5 0 0 0 10,535.2422 L268,535.2422 A5,5 0 0 0 273,530.2422 L273,519.2422 L263,509.2422 L10,509.2422 A5,5 0 0 0 5,514.2422" fill="url(#g8pqy3ty7aq2h0)" filter="url(#f8pqy3ty7aq2h)" style="stroke:#8B95A5;stroke-width:1;"/><path d="M263,509.2422 L263,516.7422 A2.5,2.5 0 0 0 265.5,519.2422 L273,519.2422 L263,509.2422" fill="url(#g8pqy3ty7aq2h0)" style="stroke:#8B95A5;stroke-width:1;"/><text fill="#111827" font-family="'Arial'" font-size="14" lengthAdjust="spacing" textLength="247.0645" x="11" y="527.2373">Medikationsplaneintrag hinzuf&#252;gen</text><rect fill="#EEEEEE" height="3" rx="5" ry="5" style="stroke:#EEEEEE;stroke-width:1;" width="1229.7314" x="0" y="564.6875"/><line style="stroke:#000000;stroke-width:1;" x1="0" x2="1229.7314" y1="564.6875" y2="564.6875"/><line style="stroke:#000000;stroke-width:1;" x1="0" x2="1229.7314" y1="567.6875" y2="567.6875"/><rect fill="#EEEEEE" height="24.2969" rx="5" ry="5" style="stroke:#000000;stroke-width:2;" width="62.207" x="583.7622" y="553.5391"/><text fill="#000000" font-family="'Arial'" font-size="14" font-weight="700" lengthAdjust="spacing" textLength="43.333" x="589.7622" y="570.5342">Write</text><g class="message" data-entity-1="part1" data-entity-2="part2" data-source-line="84" id="msg6"><line style="stroke:#111827;stroke-width:1;" x1="641.3623" x2="631.3623" y1="608.9688" y2="604.9688"/><line style="stroke:#111827;stroke-width:1;" x1="641.3623" x2="631.3623" y1="608.9688" y2="612.9688"/><line style="stroke:#111827;stroke-width:1;" x1="140.0293" x2="642.3623" y1="608.9688" y2="608.9688"/><text fill="#000000" font-family="'Arial'" font-size="13" font-weight="700" lengthAdjust="spacing" textLength="9.0454" x="147.0293" y="603.9028">6</text><text fill="#000000" font-family="'Arial'" font-size="13" lengthAdjust="spacing" textLength="323.6543" x="160.0747" y="603.9028">POST $write (Transaction Bundle + List.identifier)</text></g><g class="message" data-entity-1="part2" data-entity-2="part2" data-source-line="89" id="msg7"><line style="stroke:#111827;stroke-width:1;" x1="653.3623" x2="695.3623" y1="653.2344" y2="653.2344"/><line style="stroke:#111827;stroke-width:1;" x1="695.3623" x2="695.3623" y1="653.2344" y2="666.2344"/><line style="stroke:#111827;stroke-width:1;" x1="654.3623" x2="695.3623" y1="666.2344" y2="666.2344"/><polygon fill="#111827" points="664.3623,662.2344,654.3623,666.2344,664.3623,670.2344,660.3623,666.2344" style="stroke:#111827;stroke-width:1;"/><text fill="#000000" font-family="'Arial'" font-size="13" font-weight="700" lengthAdjust="spacing" textLength="9.0454" x="660.3623" y="640.6021">7</text><text fill="#000000" font-family="'Arial'" font-size="13" lengthAdjust="spacing" textLength="257.1943" x="673.4077" y="633.0356">List.identifier im TransactionBundle ==</text><text fill="#000000" font-family="'Arial'" font-size="13" lengthAdjust="spacing" textLength="251.0371" x="673.4077" y="648.1685">tempor&#228;r gespeicherter List.identifier?</text></g><g class="message" data-entity-1="part2" data-entity-2="part2" data-source-line="90" id="msg8"><line style="stroke:#111827;stroke-width:1;" x1="653.3623" x2="695.3623" y1="725.6328" y2="725.6328"/><line style="stroke:#111827;stroke-width:1;" x1="695.3623" x2="695.3623" y1="725.6328" y2="738.6328"/><line style="stroke:#111827;stroke-width:1;" x1="654.3623" x2="695.3623" y1="738.6328" y2="738.6328"/><polygon fill="#111827" points="664.3623,734.6328,654.3623,738.6328,664.3623,742.6328,660.3623,738.6328" style="stroke:#111827;stroke-width:1;"/><text fill="#000000" font-family="'Arial'" font-size="13" font-weight="700" lengthAdjust="spacing" textLength="9.0454" x="660.3623" y="705.4341">8</text><text fill="#000000" font-family="'Arial'" font-size="13" lengthAdjust="spacing" textLength="188.9634" x="673.4077" y="690.3013">Validierung des neuen Plans:</text><text fill="#000000" font-family="'Arial'" font-size="13" lengthAdjust="spacing" textLength="224.8467" x="673.4077" y="705.4341">nur erlaubte &#196;nderungen zulassen</text><text fill="#000000" font-family="'Arial'" font-size="13" lengthAdjust="spacing" textLength="269.3374" x="673.4077" y="720.5669">(keine unzul&#228;ssigen Zustands&#252;berg&#228;nge)</text></g><path d="M109.7476,753.6328 L170.686,753.6328 L170.686,761.9297 L160.686,771.9297 L104.7476,771.9297 L104.7476,758.6328 A5,5 0 0 1 109.7476,753.6328" fill="#EEF2FF" style="stroke:#111827;stroke-width:1.5;"/><rect fill="none" height="207.8516" rx="5" ry="5" style="stroke:#111827;stroke-width:2;" width="772.8569" x="104.7476" y="753.6328"/><text fill="#000000" font-family="'Arial'" font-size="14" font-weight="700" lengthAdjust="spacing" textLength="20.9385" x="119.7476" y="767.6279">alt</text><text fill="#000000" font-family="'Arial'" font-size="14" font-weight="700" lengthAdjust="spacing" textLength="59.0967" x="185.686" y="768.6279">[g&#252;ltig]</text><g class="message" data-entity-1="part2" data-entity-2="part2" data-source-line="93" id="msg9"><line style="stroke:#111827;stroke-width:1;" x1="653.3623" x2="695.3623" y1="809.4922" y2="809.4922"/><line style="stroke:#111827;stroke-width:1;" x1="695.3623" x2="695.3623" y1="809.4922" y2="822.4922"/><line style="stroke:#111827;stroke-width:1;" x1="654.3623" x2="695.3623" y1="822.4922" y2="822.4922"/><polygon fill="#111827" points="664.3623,818.4922,654.3623,822.4922,664.3623,826.4922,660.3623,822.4922" style="stroke:#111827;stroke-width:1;"/><text fill="#000000" font-family="'Arial'" font-size="13" font-weight="700" lengthAdjust="spacing" textLength="9.0454" x="660.3623" y="796.8599">9</text><text fill="#000000" font-family="'Arial'" font-size="13" lengthAdjust="spacing" textLength="182.1968" x="673.4077" y="789.2935">Persistiert neue Version des</text><text fill="#000000" font-family="'Arial'" font-size="13" lengthAdjust="spacing" textLength="113.0898" x="673.4077" y="804.4263">Medikationsplans</text></g><path d="M512,840.4922 L512,856.4922 A5,5 0 0 0 517,861.4922 L776,861.4922 A5,5 0 0 0 781,856.4922 L781,845.4922 L771,835.4922 L517,835.4922 A5,5 0 0 0 512,840.4922" fill="url(#g8pqy3ty7aq2h0)" filter="url(#f8pqy3ty7aq2h)" style="stroke:#8B95A5;stroke-width:1;"/><path d="M771,835.4922 L771,842.9922 A2.5,2.5 0 0 0 773.5,845.4922 L781,845.4922 L771,835.4922" fill="url(#g8pqy3ty7aq2h0)" style="stroke:#8B95A5;stroke-width:1;"/><text fill="#111827" font-family="'Arial'" font-size="14" lengthAdjust="spacing" textLength="248.3359" x="518" y="853.4873">Neuer Medikationsplan gespeichert</text><g class="message" data-entity-1="part2" data-entity-2="part1" data-source-line="99" id="msg10"><line style="stroke:#111827;stroke-width:1;" x1="141.0293" x2="151.0293" y1="890.9219" y2="886.9219"/><line style="stroke:#111827;stroke-width:1;" x1="141.0293" x2="151.0293" y1="890.9219" y2="894.9219"/><line style="stroke:#111827;stroke-width:1;stroke-dasharray:2,2;" x1="140.0293" x2="642.3623" y1="890.9219" y2="890.9219"/><text fill="#000000" font-family="'Arial'" font-size="13" font-weight="700" lengthAdjust="spacing" textLength="18.0908" x="157.0293" y="885.856">10</text><text fill="#000000" font-family="'Arial'" font-size="13" lengthAdjust="spacing" textLength="18.7573" x="179.1201" y="885.856">OK</text></g><line style="stroke:#111827;stroke-width:1;stroke-dasharray:2,2;" x1="104.7476" x2="877.6045" y1="899.9219" y2="899.9219"/><text fill="#000000" font-family="'Arial'" font-size="14" font-weight="700" lengthAdjust="spacing" textLength="79.0303" x="109.7476" y="912.917">[ung&#252;ltig]</text><g class="message" data-entity-1="part2" data-entity-2="part1" data-source-line="101" id="msg11"><line style="stroke:#111827;stroke-width:1;" x1="141.0293" x2="151.0293" y1="953.4844" y2="949.4844"/><line style="stroke:#111827;stroke-width:1;" x1="141.0293" x2="151.0293" y1="953.4844" y2="957.4844"/><line style="stroke:#111827;stroke-width:1;stroke-dasharray:2,2;" x1="140.0293" x2="642.3623" y1="953.4844" y2="953.4844"/><text fill="#000000" font-family="'Arial'" font-size="13" font-weight="700" lengthAdjust="spacing" textLength="18.0908" x="157.0293" y="940.8521">11</text><text fill="#000000" font-family="'Arial'" font-size="13" lengthAdjust="spacing" textLength="246.27" x="179.1201" y="933.2856">Fehler (Konflikt): ein anderer GDA hat</text><text fill="#000000" font-family="'Arial'" font-size="13" lengthAdjust="spacing" textLength="384.6934" x="179.1201" y="948.4185">zwischenzeitlich geschrieben -&gt; neues Read-to-Write n&#246;tig</text></g><g class="footer" data-source-line="105"><text fill="#000000" font-family="'Arial'" font-size="10" lengthAdjust="spacing" textLength="357.4805" x="435.6255" y="1068.0635">Sub_UC_06_03 - Medikationsplaneintrag in Medikationsplan hinzuf&#252;gen</text></g><?plantuml-src ZLNDRY974BxFKvHm3hOILe2NDRR4HjYnasYJNSlsRgG82VNCr42BfePqzomEIMvH7Y3Fu6V8oJVU94-Iwfu16fWaEno0hh-lllggnqmbpOKMCuXpdQA-obMkuQZbdyXihIAPZdLUK5fvP5tt2JpCHAJvGj8OCg4C1fOgJ1DgQ8T9Kyn4eUnDJlQjc24q1beArQZtk9TBXFRBUkCkxC27SelmImHmkTy0jh2RjPf7QJiznrVE8oIW5vztHNTp-Z2HoPJG66ZpsLtGK8__tueqTOsxB06QThlTwvpnsVs66giBZ7uB0NxpynoraZGDMhY-hdDuJwd_WHN18VVuKu6Kb9tU2crb8kU2x4vBNV_iEHoCrJ-xJeS47vZNmzanh6dfk821rlbYdnX_kCkjFwghk36KjKxvw6j6Fj_fSPEvD1tC7BEExow8t9Rlx4xcCdyCEjWvh-CrYlD7Q0o9atyrW3P00uxECzuRnuf8BBkoOTG6OQ3XNHeHKifxznZ4-WURtsCADoAP25gmJy4GoeTpNhtidPqvrSstJ0DomEXcu7DNqOFwzAvonoUAKM2CE-0w6t2TckXROILoCHyiajDUl0bUcrnuzJj848d2vbJCOjHH156_3tSeqgRDcpzeoVlPxqTHoKtpzUjrBnTm--x-0JxJx6hpXNEC_3Rd7x6YCc9FEULoEPcv4WGYraM6z0L4CsdvVj3mBLd6mWwmBC0a4uqoHlBGN3A6bbZvKN3Qgcoqfh8P8j6hvynDGHGPn6WiJZW3qf3s4DH6NsiEKCe22qPXuj5SiYWLCYWDWy8eYHbgBZ2aOzvqzG882vp1TzBO5p9r7MGIzScGijMptcNlOaXDTb_ywjGovid__SUVK53rpnarpfYpqi2fk18n1LkeZdJFvqKDmi_tGKGf7d2sPR6SotgOwxHlkHi2nrNYkRfpzvLXsPRCyCI6v2PseyGO6jnCmm_FLKQOI5eMtFVOWVuV1Q0agpb76BETDGll4mJdfGR73rgG4V_DnKb8HWde4nMrbmZa38A2LRr-VyZodSrplNhIC4OpHvbCKDkAco31bxLLFWWbK-cLnOGQhohUOoRAi6o8nSTl557437Rrktkzi2EwLL7262Vluocw5qx1RAhLap7IcNyiZ1MKcjKpB_HuzSGn9zms2toyUbPMZlbQgDqY7ZUZPZpM8u4Fxe3fPMW7csJufe3jjDTSWjUIXltD3yXnrJSZ3v04Cd_t9a9-XN9VDOW3lnkSA2vs_2QdJCcfFRa0vWE4ewgK84o47T9o8VbkGLgYj8fHE3XyrqY-NybHuBerUvSUhVvoXHbgxKObF5akaUMv-xeluj7xgr7hrQXr2atu5zLBEk0bM8H_0000?></g></svg>