<svg xmlns="http://www.w3.org/2000/svg" xmlns:xlink="http://www.w3.org/1999/xlink" version="1.1" data-diagram-type="SEQUENCE" style="width:621px;height:796px;background:#F5F5F5;" width="621px" height="796px" viewBox="0 0 621 796" zoomAndPan="magnify" preserveAspectRatio="none" contentStyleType="text/css"><?plantuml 1.2026.7beta8?><defs><linearGradient x1="50%" y1="0%" x2="50%" y2="100%" id="g13l8720bauozu0"><stop stop-color="#E0E5F0" offset="0%"/><stop stop-color="#D1D9E6" offset="100%"/></linearGradient></defs><g font-family="sans-serif" lengthAdjust="spacing"><rect x="0" y="0" width="621" height="796" fill="#F5F5F5" style="stroke:none;"/><g class="title" data-source-line="1"><text x="191.265" y="27.995" fill="#000" font-size="14" textLength="236.763" font-weight="700" font-family="'Arial'">Leeren Medikationsplan lesen</text></g><path d="M115.646,318.883 L596.293,318.883 A5,5 0 0 1 601.293,323.883 L601.293,545.031 L110.646,545.031 L110.646,323.883 A5,5 0 0 1 115.646,318.883" fill="#0F9ED5" fill-opacity="0.145"/><path d="M110.646,545.031 L601.293,545.031 L601.293,610.922 A5,5 0 0 1 596.293,615.922 L115.646,615.922 A5,5 0 0 1 110.646,610.922 L110.646,545.031" fill="#E97132" fill-opacity="0.208"/><g><title>GDA 1</title><rect x="148.427" y="123.594" width="8" height="585.219" fill="#000" fill-opacity="0"/><line x1="151.927" y1="123.594" x2="151.927" y2="708.813" style="stroke:#181818;stroke-width:0.5;stroke-dasharray:5,5;"/></g><g><title></title><rect x="146.927" y="197.023" width="10" height="511.789" fill="#156082" fill-opacity="0.502" style="stroke:#181818;stroke-width:1;"/></g><g><title>e-Med FA</title><rect x="402.406" y="123.594" width="8" height="585.219" fill="#000" fill-opacity="0"/><line x1="405.906" y1="123.594" x2="405.906" y2="708.813" style="stroke:#181818;stroke-width:0.5;stroke-dasharray:5,5;"/></g><g><title></title><rect x="400.906" y="197.023" width="10" height="418.898" fill="#E97232" fill-opacity="0.741" style="stroke:#181818;stroke-width:1;"/></g><text x="126.646" y="120.292" fill="#000" font-size="14" textLength="44.563" font-family="'Arial'">GDA 1</text><ellipse cx="151.927" cy="55.797" rx="8" ry="8" fill="#156082" fill-opacity="0.502" style="stroke:#181818;stroke-width:0.5;"/><path d="M151.927,63.797 L151.927,90.797 M138.927,71.797 L164.927,71.797 M151.927,90.797 L138.927,105.797 M151.927,90.797 L164.927,105.797" style="stroke:#181818;stroke-width:0.5;" fill="none"/><rect x="366.244" y="92.297" width="79.324" height="30.297" fill="#E97232" fill-opacity="0.741" style="stroke:#555;stroke-width:0.5;" rx="5" ry="5"/><text x="373.244" y="112.292" fill="#000" font-size="14" textLength="65.324" font-family="'Arial'">e-Med FA</text><text x="126.646" y="721.808" fill="#000" font-size="14" textLength="44.563" font-family="'Arial'">GDA 1</text><ellipse cx="151.927" cy="733.609" rx="8" ry="8" fill="#156082" fill-opacity="0.502" style="stroke:#181818;stroke-width:0.5;"/><path d="M151.927,741.609 L151.927,768.609 M138.927,749.609 L164.927,749.609 M151.927,768.609 L138.927,783.609 M151.927,768.609 L164.927,783.609" style="stroke:#181818;stroke-width:0.5;" fill="none"/><rect x="366.244" y="708.813" width="79.324" height="30.297" fill="#E97232" fill-opacity="0.741" style="stroke:#555;stroke-width:0.5;" rx="5" ry="5"/><text x="373.244" y="728.808" fill="#000" font-size="14" textLength="65.324" font-family="'Arial'">e-Med FA</text><rect x="10" y="152.742" width="600.293" height="3" fill="#EEE" style="stroke:#EEE;stroke-width:1;" rx="5" ry="5"/><line x1="10" y1="152.742" x2="610.293" y2="152.742" style="stroke:#000;stroke-width:1;"/><line x1="10" y1="155.742" x2="610.293" y2="155.742" style="stroke:#000;stroke-width:1;"/><rect x="171.787" y="141.594" width="276.719" height="24.297" fill="#EEE" style="stroke:#000;stroke-width:2;" rx="5" ry="5"/><text x="177.787" y="158.589" fill="#000" font-size="14" textLength="257.845" font-weight="700" font-family="'Arial'">Aktuellen Medikationsplan lesen</text><polygon points="388.906,193.023,398.906,197.023,388.906,201.023,392.906,197.023" fill="#111827" style="stroke:#111827;stroke-width:1;stroke-linejoin:miter;stroke-miterlimit:10;"/><line x1="156.927" y1="197.023" x2="394.906" y2="197.023" style="stroke:#111827;stroke-width:1;"/><text x="163.927" y="191.958" fill="#000" font-size="13" font-weight="700" font-family="'Arial'">1</text><text x="176.973" y="191.958" fill="#000" font-size="13" textLength="108.989" font-family="'Arial'">POST $plan-read</text><path d="M44.675,215.023 L44.675,247.023 A5,5 0 0 0 49.675,252.023 L253.675,252.023 A5,5 0 0 0 258.675,247.023 L258.675,220.023 L248.675,210.023 L49.675,210.023 A5,5 0 0 0 44.675,215.023" style="stroke:#8B95A5;stroke-width:1;" fill="url(#g13l8720bauozu0)"/><path d="M248.675,210.023 L248.675,217.523 A2.5,2.5 0 0 0 251.175,220.023 L258.675,220.023 L248.675,210.023" style="stroke:#8B95A5;stroke-width:1;" fill="url(#g13l8720bauozu0)"/><text x="50.675" y="228.019" fill="#111827" font-size="14" textLength="193.505" font-family="'Arial'">Abruf des Medikationsplans</text><text x="50.675" y="244.315" fill="#111827" font-size="14" textLength="112.492" font-family="'Arial'">zur Bearbeitung</text><line x1="410.906" y1="293.883" x2="452.906" y2="293.883" style="stroke:#111827;stroke-width:1;"/><line x1="452.906" y1="293.883" x2="452.906" y2="306.883" style="stroke:#111827;stroke-width:1;"/><line x1="411.906" y1="306.883" x2="452.906" y2="306.883" style="stroke:#111827;stroke-width:1;"/><polygon points="421.906,302.883,411.906,306.883,421.906,310.883,417.906,306.883" fill="#111827" style="stroke:#111827;stroke-width:1;stroke-linejoin:miter;stroke-miterlimit:10;"/><text x="417.906" y="281.25" fill="#000" font-size="13" font-weight="700" font-family="'Arial'">2</text><text x="430.952" y="273.684" fill="#000" font-size="13" textLength="160.799" font-family="'Arial'">Existiert ein persistierter</text><text x="430.952" y="288.817" fill="#000" font-size="13" textLength="113.217" font-family="'Arial'">Medikationsplan?</text><path d="M115.646,318.883 L176.584,318.883 L176.584,327.18 L166.584,337.18 L110.646,337.18 L110.646,323.883 A5,5 0 0 1 115.646,318.883" style="stroke:#111827;stroke-width:1.5;" fill="#EEF2FF"/><rect x="110.646" y="318.883" width="490.648" height="297.039" fill="none" style="stroke:#111827;stroke-width:2;" rx="5" ry="5"/><text x="125.646" y="332.878" fill="#000" font-size="14" textLength="20.938" font-weight="700" font-family="'Arial'">alt</text><text x="191.584" y="333.878" fill="#000" font-size="14" textLength="332.028" font-weight="700" font-family="'Arial'">[ja: leerer Medikationsplan persistiert mit</text><text x="191.584" y="350.175" fill="#000" font-size="14" textLength="368.765" font-weight="700" font-family="'Arial'">List.emptyReason = "nilknown" | "notstarted"]</text><line x1="110.646" y1="545.031" x2="601.293" y2="545.031" style="stroke:#111827;stroke-width:1;stroke-dasharray:2,2;"/><text x="115.646" y="560.026" fill="#000" font-size="14" textLength="55.74" font-weight="700" font-family="'Arial'">[sonst]</text><line x1="410.906" y1="401.039" x2="452.906" y2="401.039" style="stroke:#111827;stroke-width:1;"/><line x1="452.906" y1="401.039" x2="452.906" y2="414.039" style="stroke:#111827;stroke-width:1;"/><line x1="411.906" y1="414.039" x2="452.906" y2="414.039" style="stroke:#111827;stroke-width:1;"/><polygon points="421.906,410.039,411.906,414.039,421.906,418.039,417.906,414.039" fill="#111827" style="stroke:#111827;stroke-width:1;stroke-linejoin:miter;stroke-miterlimit:10;"/><text x="417.906" y="388.407" fill="#000" font-size="13" font-weight="700" font-family="'Arial'">3</text><text x="430.952" y="380.84" fill="#000" font-size="13" textLength="147.342" font-family="'Arial'">Erzeugt Auslieferungs-</text><text x="430.952" y="395.973" fill="#000" font-size="13" textLength="113.693" font-family="'Arial'">Collection Bundle</text><path d="M262.861,432.039 L262.861,464.039 A5,5 0 0 0 267.861,469.039 L543.861,469.039 A5,5 0 0 0 548.861,464.039 L548.861,437.039 L538.861,427.039 L267.861,427.039 A5,5 0 0 0 262.861,432.039" style="stroke:#8B95A5;stroke-width:1;" fill="url(#g13l8720bauozu0)"/><path d="M538.861,427.039 L538.861,434.539 A2.5,2.5 0 0 0 541.361,437.039 L548.861,437.039 L538.861,427.039" style="stroke:#8B95A5;stroke-width:1;" fill="url(#g13l8720bauozu0)"/><text x="268.861" y="445.034" fill="#111827" font-size="14" textLength="241.083" font-family="'Arial'">Keine Transformation erforderlich.</text><text x="268.861" y="461.331" fill="#111827" font-size="14" textLength="265.091" font-family="'Arial'">List.emptyReason bleibt unverändert.</text><polygon points="167.927,522.031,157.927,526.031,167.927,530.031,163.927,526.031" fill="#111827" style="stroke:#111827;stroke-width:1;stroke-linejoin:miter;stroke-miterlimit:10;"/><line x1="161.927" y1="526.031" x2="399.906" y2="526.031" style="stroke:#111827;stroke-width:1;"/><text x="173.927" y="505.833" fill="#000" font-size="13" font-weight="700" font-family="'Arial'">4</text><text x="186.973" y="490.7" fill="#000" font-size="13" textLength="206.934" font-family="'Arial'">Auslieferungs-Collection Bundle</text><text x="186.973" y="505.833" fill="#000" font-size="13" textLength="147.101" font-family="'Arial'">(mit List.emptyReason</text><text x="186.973" y="520.965" fill="#000" font-size="13" textLength="47.398" font-family="'Arial'">+ ETag</text><rect x="128.646" y="568.328" width="314.923" height="42.594" fill="none" style="stroke:#000;stroke-width:1.5;" rx="5" ry="5"/><path d="M133.646,568.328 L195.646,568.328 L195.646,576.328 L185.646,586.328 L128.646,586.328 L128.646,573.328 A5,5 0 0 1 133.646,568.328" style="stroke:#000;stroke-width:2;" fill="#EEE"/><text x="141.646" y="583.323" fill="#000" font-size="14" textLength="22.49" font-weight="700" font-family="'Arial'">ref</text><text x="202.305" y="603.323" fill="#000" font-size="14" textLength="167.604" font-family="'Arial'">Siehe Ablauf Plan-Read.</text><path d="M15,639.922 L15,687.922 A5,5 0 0 0 20,692.922 L283,692.922 A5,5 0 0 0 288,687.922 L288,644.922 L278,634.922 L20,634.922 A5,5 0 0 0 15,639.922" style="stroke:#8B95A5;stroke-width:1;" fill="url(#g13l8720bauozu0)"/><path d="M278,634.922 L278,642.422 A2.5,2.5 0 0 0 280.5,644.922 L288,644.922 L278,634.922" style="stroke:#8B95A5;stroke-width:1;" fill="url(#g13l8720bauozu0)"/><text x="21" y="652.917" fill="#111827" font-size="14" textLength="154.854" font-family="'Arial'">Nachfolgend kann der</text><text x="21" y="669.214" fill="#111827" font-size="14" textLength="248.404" font-family="'Arial'">Medikationsplan bearbeitet werden</text><text x="21" y="685.511" fill="#111827" font-size="14" textLength="196.362" font-family="'Arial'">und ein Plan-Write erfolgen.</text><?plantuml-src TLN_Zk8s4FxVJp65IgtKiYBXWCrAsohSPg_LxIq8g2fLI2k7JC35s9pZ7BVRkxVfc_J5EWwmv0Td_ebdFizyyytOM64bmWEYGGKVC14RReLMsKvo1H8pL8pza6s4sd73jy2NLfkPVQOpV8-PtY9ZPs-iJOBchPRQGBjRhBANBpShetEL715ft_rAY6pD4xqNQWKfbncMFCTZHg41hnmqmPJdqjvhPH_v5g4L6i5bwp9Y9buGl3UNdT-Y_Tlp3eqKQbC2HD4bm1ygAJwmGN-aFqzuahZA_6xLFYfhrYzMMLAbBS8_361KLm-xs4-xdNRY9G4E7A8SwJeE-hp_QfslnNAZCCl08zkqf6QNzYTkBaf92i_phlqXsMQrldmjCypmOuvgUM0vuSQAfTXnPIyLLWKqvg5OLL2pCmttgQiLHqbkWD0OlQyNLHYhkXIcInbV7OTSFJAz8-QxIeslaG-kHhymzOlgIYVFwNqdwdSqZcvyteuVnjEdTtVXamUqsbv_qBtshxiN07u120Q3xl2k0PY4yz-ZnxcB40n6_fi689oCeLZjxdqGtVM3EY3w4DqztOS4m63ez_mugGEUfj5VqMGExMNI6_Py7jJB6B-7IWw_NmyndOwd1I0AXbxFxz45ADuPE2Z0CsZH5tYjiZ1iTsus8BrSZgQ3OeSsS1-sgYKm2ffRhV9jZ8Qnsri8DpP7AR_rxi7jBMC71frVJXbkO3AUpU5x1-iOv8bZAZvnkgG7Q9aXAowl_eJ7IbWOcpobDoUhPypOIsvWXDp4A6okLWnLKjnzTavmAh9QribQvXXz5faLQ4WOeO1Uf-ouHxDGjTI_KWPfpxtwczzG_VHtO1gob0B1LjY5Ug3T5MvtzdcAFDCa6RIKa1kbzwe5NsYZRMQfJvYq64t-HQxc1VELXJ3FfC0K3LMVTHQARet4fKiE8xf44kdyMS_ZSRAzHpT9SqCYfjfi2xg09YtkbnJBzHKGgi4qbYXY2xcYQF_zwnvkU-KOdcIla2swTrEZs22uK3-IAerK2_KJH7E-0ff0fDUpClNapwoJnc1QcfIVp_ND1AuHmbXo6fs96piAcvouqZ5tEi7wbBW1QWxW8r-kKorNxkY6AqK73R1wd-FZ7AA5FPAC2XWLMCnIGU1F8rmYSuXqzJgh_mC0?></g></svg>