<?xml version="1.0" encoding="us-ascii" standalone="no"?><svg xmlns="http://www.w3.org/2000/svg" xmlns:xlink="http://www.w3.org/1999/xlink" contentStyleType="text/css" height="584px" preserveAspectRatio="none" style="width:763px;height:584px;background:#F5F5F5;" version="1.1" viewBox="0 0 763 584" width="763px" zoomAndPan="magnify"><defs><linearGradient id="g149ni7uz8muv90" x1="50%" x2="50%" y1="0%" y2="100%"><stop offset="0%" stop-color="#E0E5F0"/><stop offset="100%" stop-color="#D1D9E6"/></linearGradient></defs><g><rect fill="#F5F5F5" height="584" style="stroke:none;stroke-width:1.0;" width="763" x="0" y="0"/><text fill="#000000" font-family="Arial" font-size="14" font-weight="bold" lengthAdjust="spacing" textLength="173" x="291" y="28.1318">Geplante Abgaben lesen</text><text fill="#000000" font-family="Arial" font-size="14" font-weight="bold" lengthAdjust="spacing" textLength="244" x="255.5" y="44.2305">Variante B: Zugriff mittels e-Rezept</text><rect fill="#0F9ED5" fill-opacity="0.56471" height="170.4893" style="stroke:#181818;stroke-width:1.0;" width="10" x="134" y="224.292"/><rect fill="#E97232" fill-opacity="0.74118" height="170.4893" style="stroke:#181818;stroke-width:1.0;" width="10" x="596" y="224.292"/><rect fill="#0F9ED5" fill-opacity="0.14510" height="163.4893" rx="5" ry="5" style="stroke:#111827;stroke-width:2.0;" width="650" x="96" y="239.292"/><path d="M96,355.7339 L746,355.7339 L746,397.7813 A5,5 0 0 1 741,402.7813 L101,402.7813 A5,5 0 0 1 96,397.7813 L96,355.7339 " fill="#E97132" fill-opacity="0.20784" style="stroke:none;stroke-width:1.0;"/><line style="stroke:#181818;stroke-width:0.5;stroke-dasharray:5.0,5.0;" x1="139" x2="139" y1="134.2959" y2="504.1758"/><line style="stroke:#181818;stroke-width:0.5;stroke-dasharray:5.0,5.0;" x1="601" x2="601" y1="134.2959" y2="504.1758"/><text fill="#000000" font-family="Arial" font-size="14" lengthAdjust="spacing" textLength="60" x="106" y="131.3291">Apotheke</text><ellipse cx="139" cy="66.6973" fill="#0F9ED5" fill-opacity="0.56471" rx="8" ry="8" style="stroke:#181818;stroke-width:0.5;"/><path d="M139,74.6973 L139,101.6973 M126,82.6973 L152,82.6973 M139,101.6973 L126,116.6973 M139,101.6973 L152,116.6973 " fill="none" style="stroke:#181818;stroke-width:0.5;"/><text fill="#000000" font-family="Arial" font-size="14" lengthAdjust="spacing" textLength="60" x="106" y="516.3076">Apotheke</text><ellipse cx="139" cy="527.7744" fill="#0F9ED5" fill-opacity="0.56471" rx="8" ry="8" style="stroke:#181818;stroke-width:0.5;"/><path d="M139,535.7744 L139,562.7744 M126,543.7744 L152,543.7744 M139,562.7744 L126,577.7744 M139,562.7744 L152,577.7744 " fill="none" style="stroke:#181818;stroke-width:0.5;"/><rect fill="#E97232" fill-opacity="0.74118" height="30.0986" rx="5" ry="5" style="stroke:#555555;stroke-width:0.5;" width="76" x="563" y="103.1973"/><text fill="#000000" font-family="Arial" font-size="14" lengthAdjust="spacing" textLength="62" x="570" y="123.3291">e-Med FA</text><rect fill="#E97232" fill-opacity="0.74118" height="30.0986" rx="5" ry="5" style="stroke:#555555;stroke-width:0.5;" width="76" x="563" y="503.1758"/><text fill="#000000" font-family="Arial" font-size="14" lengthAdjust="spacing" textLength="62" x="570" y="523.3076">e-Med FA</text><rect fill="#0F9ED5" fill-opacity="0.56471" height="170.4893" style="stroke:#181818;stroke-width:1.0;" width="10" x="134" y="224.292"/><rect fill="#E97232" fill-opacity="0.74118" height="170.4893" style="stroke:#181818;stroke-width:1.0;" width="10" x="596" y="224.292"/><rect fill="#EEEEEE" height="3" rx="5" ry="5" style="stroke:#EEEEEE;stroke-width:1.0;" width="756" x="0" y="165.3452"/><line style="stroke:#000000;stroke-width:1.0;" x1="0" x2="756" y1="165.3452" y2="165.3452"/><line style="stroke:#000000;stroke-width:1.0;" x1="0" x2="756" y1="168.3452" y2="168.3452"/><rect fill="#EEEEEE" height="24.0986" rx="5" ry="5" style="stroke:#000000;stroke-width:2.0;" width="211" x="272.5" y="154.2959"/><text fill="#000000" font-family="Arial" font-size="14" font-weight="bold" lengthAdjust="spacing" textLength="189" x="278.5" y="171.4277">Geplante Abgaben abrufen</text><polygon fill="#111827" points="584,220.292,594,224.292,584,228.292,588,224.292" style="stroke:#111827;stroke-width:1.0;"/><line style="stroke:#111827;stroke-width:1.0;" x1="144" x2="590" y1="224.292" y2="224.292"/><text fill="#000000" font-family="Arial" font-size="13" font-weight="bold" lengthAdjust="spacing" textLength="7" x="151" y="212.0627">1</text><text fill="#000000" font-family="Arial" font-size="13" lengthAdjust="spacing" textLength="427" x="162" y="204.5884">GET MedicationRequest mit Suchkriterium category = "Geplante Abgabe"</text><text fill="#000000" font-family="Arial" font-size="13" lengthAdjust="spacing" textLength="213" x="162" y="219.5371">und e-Med Groupidentifier (QR-Code)</text><path d="M101,239.292 L158,239.292 L158,247.3906 L148,257.3906 L96,257.3906 L96,244.292 A5,5 0 0 1 101,239.292 " fill="#EEF2FF" style="stroke:#111827;stroke-width:1.5;"/><rect fill="none" height="163.4893" rx="5" ry="5" style="stroke:#111827;stroke-width:2.0;" width="650" x="96" y="239.292"/><text fill="#000000" font-family="Arial" font-size="14" font-weight="bold" lengthAdjust="spacing" textLength="17" x="111" y="253.4238">alt</text><text fill="#000000" font-family="Arial" font-size="14" font-weight="bold" lengthAdjust="spacing" textLength="211" x="173" y="254.4238">[e-Med GroupIdentifier g&#252;ltig]</text><path d="M465,268.4893 L465,316.4893 A5,5 0 0 0 470,321.4893 L731,321.4893 A5,5 0 0 0 736,316.4893 L736,273.4893 L726,263.4893 L470,263.4893 A5,5 0 0 0 465,268.4893 " fill="url(#g149ni7uz8muv90)" style="stroke:#8B95A5;stroke-width:1.0;"/><path d="M726,263.4893 L726,270.9893 A2.5,2.5 0 0 0 728.5,273.4893 L736,273.4893 L726,263.4893 " fill="url(#g149ni7uz8muv90)" style="stroke:#8B95A5;stroke-width:1.0;"/><text fill="#111827" font-family="Arial" font-size="14" lengthAdjust="spacing" textLength="250" x="471" y="281.6211">Pr&#252;fung des e-Med GroupIdentifiers, ob</text><text fill="#111827" font-family="Arial" font-size="14" lengthAdjust="spacing" textLength="149" x="471" y="297.7197">- noch nicht abgelaufen</text><text fill="#111827" font-family="Arial" font-size="14" lengthAdjust="spacing" textLength="172" x="471" y="313.8184">- weitere Einl&#246;sung m&#246;glich</text><polygon fill="#111827" points="155,343.7339,145,347.7339,155,351.7339,151,347.7339" style="stroke:#111827;stroke-width:1.0;"/><line style="stroke:#111827;stroke-width:1.0;stroke-dasharray:2.0,2.0;" x1="149" x2="595" y1="347.7339" y2="347.7339"/><text fill="#000000" font-family="Arial" font-size="13" font-weight="bold" lengthAdjust="spacing" textLength="7" x="161" y="342.979">2</text><text fill="#000000" font-family="Arial" font-size="13" lengthAdjust="spacing" textLength="107" x="172" y="342.979">Geplante Abgaben</text><line style="stroke:#111827;stroke-width:1.0;stroke-dasharray:2.0,2.0;" x1="96" x2="746" y1="356.7339" y2="356.7339"/><text fill="#000000" font-family="Arial" font-size="14" font-weight="bold" lengthAdjust="spacing" textLength="89" x="101" y="369.8657">[nicht g&#252;ltig]</text><polygon fill="#111827" points="150,390.7813,140,394.7813,150,398.7813,146,394.7813" style="stroke:#111827;stroke-width:1.0;"/><line style="stroke:#111827;stroke-width:1.0;stroke-dasharray:2.0,2.0;" x1="144" x2="600" y1="394.7813" y2="394.7813"/><text fill="#000000" font-family="Arial" font-size="13" font-weight="bold" lengthAdjust="spacing" textLength="7" x="156" y="390.0264">3</text><text fill="#000000" font-family="Arial" font-size="13" lengthAdjust="spacing" textLength="36" x="167" y="390.0264">Fehler</text><path d="M5,419.7813 L5,483.7813 A5,5 0 0 0 10,488.7813 L268,488.7813 A5,5 0 0 0 273,483.7813 L273,424.7813 L263,414.7813 L10,414.7813 A5,5 0 0 0 5,419.7813 " fill="url(#g149ni7uz8muv90)" style="stroke:#8B95A5;stroke-width:1.0;"/><path d="M263,414.7813 L263,422.2813 A2.5,2.5 0 0 0 265.5,424.7813 L273,424.7813 L263,414.7813 " fill="url(#g149ni7uz8muv90)" style="stroke:#8B95A5;stroke-width:1.0;"/><text fill="#111827" font-family="Arial" font-size="14" lengthAdjust="spacing" textLength="186" x="11" y="432.9131">GDA erh&#228;lt ausschlie&#223;lich die</text><text fill="#111827" font-family="Arial" font-size="14" lengthAdjust="spacing" textLength="203" x="11" y="449.0117">Geplanten Abgaben, die dem im</text><text fill="#111827" font-family="Arial" font-size="14" lengthAdjust="spacing" textLength="234" x="11" y="465.1104">QR-Code des e-Rezepts enthaltenen</text><text fill="#111827" font-family="Arial" font-size="14" lengthAdjust="spacing" textLength="247" x="11" y="481.209">e-Med GroupIdentifier zugeordnet sind.</text><!--SRC=[VLJDZk964BxtKrJWGA8i4JOB32CH2GRFP9JiGXYImsebrDXbkuLfatPx9pDHdYMNFCEUziQBfTes-0SspO5srTVLzNrLNLhe2E413n6N6c6w3VWM9KIOeFmeV-TAPFRPBNn80oLy7_P2QumImEuAN_6W6UiaEo4FNF4zS5V7wac_K4p-Z4cyHyPAxpPM7ggxE8eLj7lPgdgvkmjKd4glGFW3ywiWaf1xyREG0VWyIh3YAOufYGgiQb0FVPv6-ZwM-ZtV8xIcn2XgNKSyYLS4w-rrvzVI_kdbW2eISbS1ECurm6_IopPuaVui_dF9FSymitjr-wogsI1RLKbbJDNvYm7CckfX3mT-hzlsB6-CGuEeHhhPZWTySBQkG-7k92O9M6HRLTJiqVSfDnEb8eLbMJVsY6nFZRhyNSqmmJzIb6wUvP8hBLnneAQwHgm6k1JzmdqgMCrHKH9WgbJytCmtCzOfPwPhDvuT-LrzCZsGp8TQ-kV8kUkY5EZRlby_MLvl6xs-eKupdN6t-6MnsZpCfniBQBMjmR1tOz_qhW3i330U3dkZ-GLWELq_Ek_N9i9uEBFVNW2comLagzsx7plpmRW9SDuvyytzb00u7jbzU-ir0PkLyy5Phg7jUlrHt-RZ9et5pr2xmnuqGwnMYrK6SCOZgs_tgRSxsGo1N0AUG8jsOBMgoh0ICZt46OZ-TOWxR9NqsA7i2S1tw1as1ejT-e3xQQlEb7Lg1pRvU2jEv1-j1dN6UAfZcUwtg1YRJ2u7AT-grAT_c4nOXm2dIF3zrx44PHsWP4fquI8pd6btVpmdULiYc-Ev-pY7RtzTTUzY3x-hnI4HnITEzvy2bihLt6Sb6jmDwEphKZP5d4eo6SR3Yr267oM9mAfayXBTmeEp1jeBbsiHovMP7qb639vIDzmfeL69T0_ano1MBp2X9gcBsVeewVb1NkdirGaFfHQ-e95sbeFzZmHbpaNdr7k5HxfiyierZ-KrmV5Bf4L0ppuRql4diXN1pC1Inoz-IcFAm-HwWEGDn5j2Tkcy6u8KRcWQ8S28PpKqdcSqOY0uGaR7puc9jpz-3YB2aXz90dEtsHOiQdLgTY3BQb9zclcb9PEhOUunZAZ_wvK-4wqOYnECycAb9YUhUUUemkE_92rFayGD8u77VmmNy8JfbI9TUShtJMRtS0zY3woeQY5etcYqapgaOg6aO-nweLxJ06acIzIG2EdzmCww_GS0]--></g></svg>