<svg xmlns="http://www.w3.org/2000/svg" xmlns:xlink="http://www.w3.org/1999/xlink" contentStyleType="text/css" data-diagram-type="SEQUENCE" height="523px" preserveAspectRatio="none" style="width:860px;height:523px;background:#F5F5F5;" version="1.1" viewBox="0 0 860 523" width="860px" zoomAndPan="magnify"><?plantuml 1.2026.7beta1?><defs><linearGradient id="g15vzdob35d8hn0" x1="50%" x2="50%" y1="0%" y2="100%"><stop offset="0%" stop-color="#E0E5F0"/><stop offset="100%" stop-color="#D1D9E6"/></linearGradient><filter height="300%" id="f15vzdob35d8hn" width="300%" x="-1" y="-1"><feGaussianBlur result="blurOut" stdDeviation="2"/><feColorMatrix in="blurOut" result="blurOut2" type="matrix" values="0 0 0 0 0 0 0 0 0 0 0 0 0 0 0 0 0 0 .4 0"/><feOffset dx="4" dy="4" in="blurOut2" result="blurOut3"/><feBlend in="SourceGraphic" in2="blurOut3" mode="normal"/></filter></defs><g><rect fill="#F5F5F5" height="523" style="stroke:none;stroke-width:1;" width="860" x="0" y="0"/><g class="title" data-source-line="1"><text fill="#000000" font-family="'Arial'" font-size="14" font-weight="700" lengthAdjust="spacing" textLength="259.7178" x="296.7297" y="27.9951">Initial erstellter Medikationsplan</text></g><g><title>GDA 1</title><rect fill="#3588A7" fill-opacity="0.29804" height="229.5234" style="stroke:#181818;stroke-width:1;" width="10" x="117.2817" y="194.0234"/></g><g><title>e-Med FA</title><rect fill="#A14C37" fill-opacity="0.47059" height="229.5234" style="stroke:#181818;stroke-width:1;" width="10" x="389.9292" y="194.0234"/></g><g class="participant-lifeline" data-entity-uid="part1" data-qualified-name="GDA_1" data-source-line="49" id="part1-lifeline"><g><title>GDA 1</title><rect fill="#000000" fill-opacity="0.00000" height="322.9531" width="8" x="118.2817" y="118.5938"/><line style="stroke:#181818;stroke-width:0.5;stroke-dasharray:5,5;" x1="122" x2="122" y1="118.5938" y2="441.5469"/></g></g><g class="participant-lifeline" data-entity-uid="part2" data-qualified-name="eMed_FA" data-source-line="50" id="part2-lifeline"><g><title>e-Med FA</title><rect fill="#000000" fill-opacity="0.00000" height="322.9531" width="8" x="390.9292" y="118.5938"/><line style="stroke:#181818;stroke-width:0.5;stroke-dasharray:5,5;" x1="394.2671" x2="394.2671" y1="118.5938" y2="441.5469"/></g></g><g class="participant-lifeline" data-entity-uid="part3" data-qualified-name="GDA_2" data-source-line="51" id="part3-lifeline"><g><title>GDA 2</title><rect fill="#000000" fill-opacity="0.00000" height="322.9531" width="8" x="754.5195" y="118.5938"/><line style="stroke:#181818;stroke-width:0.5;stroke-dasharray:5,5;" x1="758.2378" x2="758.2378" y1="118.5938" y2="441.5469"/></g></g><g class="participant-lifeline" data-entity-uid="part4" data-qualified-name="Patient" data-source-line="52" id="part4-lifeline"><g><title>Patient</title><rect fill="#000000" fill-opacity="0.00000" height="322.9531" width="8" x="817.4893" y="118.5938"/><line style="stroke:#181818;stroke-width:0.5;stroke-dasharray:5,5;" x1="820.8013" x2="820.8013" y1="118.5938" y2="441.5469"/></g></g><g class="participant participant-head" data-entity-uid="part1" data-qualified-name="GDA_1" data-source-line="49" id="part1-head"><text fill="#000000" font-family="'Arial'" font-size="14" lengthAdjust="spacing" textLength="44.5635" x="97" y="115.292">GDA 1</text><ellipse cx="122.2817" cy="50.7969" fill="#3588A7" fill-opacity="0.29804" rx="8" ry="8" style="stroke:#181818;stroke-width:0.5;"/><path d="M122.2817,58.7969 L122.2817,85.7969 M109.2817,66.7969 L135.2817,66.7969 M122.2817,85.7969 L109.2817,100.7969 M122.2817,85.7969 L135.2817,100.7969" fill="none" style="stroke:#181818;stroke-width:0.5;"/></g><g class="participant participant-tail" data-entity-uid="part1" data-qualified-name="GDA_1" data-source-line="49" id="part1-tail"><text fill="#000000" font-family="'Arial'" font-size="14" lengthAdjust="spacing" textLength="44.5635" x="97" y="453.542">GDA 1</text><ellipse cx="122.2817" cy="465.3438" fill="#3588A7" fill-opacity="0.29804" rx="8" ry="8" style="stroke:#181818;stroke-width:0.5;"/><path d="M122.2817,473.3438 L122.2817,500.3438 M109.2817,481.3438 L135.2817,481.3438 M122.2817,500.3438 L109.2817,515.3438 M122.2817,500.3438 L135.2817,515.3438" fill="none" style="stroke:#181818;stroke-width:0.5;"/></g><g class="participant participant-head" data-entity-uid="part2" data-qualified-name="eMed_FA" data-source-line="50" id="part2-head"><rect fill="#A14C37" fill-opacity="0.47059" height="30.2969" rx="5" ry="5" style="stroke:#555555;stroke-width:0.5;" width="79.3242" x="355.2671" y="87.2969"/><text fill="#000000" font-family="'Arial'" font-size="14" lengthAdjust="spacing" textLength="65.3242" x="362.2671" y="107.292">e-Med FA</text></g><g class="participant participant-tail" data-entity-uid="part2" data-qualified-name="eMed_FA" data-source-line="50" id="part2-tail"><rect fill="#A14C37" fill-opacity="0.47059" height="30.2969" rx="5" ry="5" style="stroke:#555555;stroke-width:0.5;" width="79.3242" x="355.2671" y="440.5469"/><text fill="#000000" font-family="'Arial'" font-size="14" lengthAdjust="spacing" textLength="65.3242" x="362.2671" y="460.542">e-Med FA</text></g><g class="participant participant-head" data-entity-uid="part3" data-qualified-name="GDA_2" data-source-line="51" id="part3-head"><text fill="#000000" font-family="'Arial'" font-size="14" lengthAdjust="spacing" textLength="44.5635" x="733.2378" y="115.292">GDA 2</text><ellipse cx="758.5195" cy="50.7969" fill="#CA89CA" fill-opacity="0.37255" rx="8" ry="8" style="stroke:#181818;stroke-width:0.5;"/><path d="M758.5195,58.7969 L758.5195,85.7969 M745.5195,66.7969 L771.5195,66.7969 M758.5195,85.7969 L745.5195,100.7969 M758.5195,85.7969 L771.5195,100.7969" fill="none" style="stroke:#181818;stroke-width:0.5;"/></g><g class="participant participant-tail" data-entity-uid="part3" data-qualified-name="GDA_2" data-source-line="51" id="part3-tail"><text fill="#000000" font-family="'Arial'" font-size="14" lengthAdjust="spacing" textLength="44.5635" x="733.2378" y="453.542">GDA 2</text><ellipse cx="758.5195" cy="465.3438" fill="#CA89CA" fill-opacity="0.37255" rx="8" ry="8" style="stroke:#181818;stroke-width:0.5;"/><path d="M758.5195,473.3438 L758.5195,500.3438 M745.5195,481.3438 L771.5195,481.3438 M758.5195,500.3438 L745.5195,515.3438 M758.5195,500.3438 L771.5195,515.3438" fill="none" style="stroke:#181818;stroke-width:0.5;"/></g><g class="participant participant-head" data-entity-uid="part4" data-qualified-name="Patient" data-source-line="52" id="part4-head"><text fill="#000000" font-family="'Arial'" font-size="14" lengthAdjust="spacing" textLength="49.376" x="793.8013" y="115.292">Patient</text><ellipse cx="821.4893" cy="50.7969" fill="#A2AE64" fill-opacity="0.50980" rx="8" ry="8" style="stroke:#181818;stroke-width:0.5;"/><path d="M821.4893,58.7969 L821.4893,85.7969 M808.4893,66.7969 L834.4893,66.7969 M821.4893,85.7969 L808.4893,100.7969 M821.4893,85.7969 L834.4893,100.7969" fill="none" style="stroke:#181818;stroke-width:0.5;"/></g><g class="participant participant-tail" data-entity-uid="part4" data-qualified-name="Patient" data-source-line="52" id="part4-tail"><text fill="#000000" font-family="'Arial'" font-size="14" lengthAdjust="spacing" textLength="49.376" x="793.8013" y="453.542">Patient</text><ellipse cx="821.4893" cy="465.3438" fill="#A2AE64" fill-opacity="0.50980" rx="8" ry="8" style="stroke:#181818;stroke-width:0.5;"/><path d="M821.4893,473.3438 L821.4893,500.3438 M808.4893,481.3438 L834.4893,481.3438 M821.4893,500.3438 L808.4893,515.3438 M821.4893,500.3438 L834.4893,515.3438" fill="none" style="stroke:#181818;stroke-width:0.5;"/></g><g><title>GDA 1</title><rect fill="#3588A7" fill-opacity="0.29804" height="229.5234" style="stroke:#181818;stroke-width:1;" width="10" x="117.2817" y="194.0234"/></g><g><title>e-Med FA</title><rect fill="#A14C37" fill-opacity="0.47059" height="229.5234" style="stroke:#181818;stroke-width:1;" width="10" x="389.9292" y="194.0234"/></g><rect fill="#EEEEEE" height="3" rx="5" ry="5" style="stroke:#EEEEEE;stroke-width:1;" width="854.1772" x="0" y="149.7422"/><line style="stroke:#000000;stroke-width:1;" x1="0" x2="854.1772" y1="149.7422" y2="149.7422"/><line style="stroke:#000000;stroke-width:1;" x1="0" x2="854.1772" y1="152.7422" y2="152.7422"/><rect fill="#EEEEEE" height="24.2969" rx="5" ry="5" style="stroke:#000000;stroke-width:2;" width="128.8711" x="362.6531" y="138.5938"/><text fill="#000000" font-family="'Arial'" font-size="14" font-weight="700" lengthAdjust="spacing" textLength="109.9971" x="368.6531" y="155.5889">Initialisierung</text><g class="message" data-entity-1="part1" data-entity-2="part2" data-source-line="58" id="msg1"><polygon fill="#111827" points="377.9292,190.0234,387.9292,194.0234,377.9292,198.0234,381.9292,194.0234" style="stroke:#111827;stroke-width:1;stroke-linejoin:miter;stroke-miterlimit:10;"/><line style="stroke:#111827;stroke-width:1;" x1="127.2817" x2="383.9292" y1="194.0234" y2="194.0234"/><text fill="#000000" font-family="'Arial'" font-size="13" font-weight="700" lengthAdjust="spacing" textLength="9.0454" x="134.2817" y="188.9575">1</text><text fill="#000000" font-family="'Arial'" font-size="13" lengthAdjust="spacing" textLength="108.9893" x="147.3271" y="188.9575">POST $plan-read</text></g><path d="M5,212.0234 L5,244.0234 A5,5 0 0 0 10,249.0234 L232,249.0234 A5,5 0 0 0 237,244.0234 L237,217.0234 L227,207.0234 L10,207.0234 A5,5 0 0 0 5,212.0234" fill="url(#g15vzdob35d8hn0)" filter="url(#f15vzdob35d8hn)" style="stroke:#8B95A5;stroke-width:1;"/><path d="M227,207.0234 L227,214.5234 A2.5,2.5 0 0 0 229.5,217.0234 L237,217.0234 L227,207.0234" fill="url(#g15vzdob35d8hn0)" style="stroke:#8B95A5;stroke-width:1;"/><text fill="#111827" font-family="'Arial'" font-size="14" lengthAdjust="spacing" textLength="177.9053" x="11" y="225.0186">Medikationsplan abrufen,</text><text fill="#111827" font-family="'Arial'" font-size="14" lengthAdjust="spacing" textLength="211.5859" x="11" y="241.3154">mit der Intention zu schreiben</text><g class="message" data-entity-1="part2" data-entity-2="part2" data-source-line="67" id="msg2"><line style="stroke:#111827;stroke-width:1;" x1="399.9292" x2="441.9292" y1="293.8828" y2="293.8828"/><line style="stroke:#111827;stroke-width:1;" x1="441.9292" x2="441.9292" y1="293.8828" y2="306.8828"/><line style="stroke:#111827;stroke-width:1;" x1="400.9292" x2="441.9292" y1="306.8828" y2="306.8828"/><polygon fill="#111827" points="410.9292,302.8828,400.9292,306.8828,410.9292,310.8828,406.9292,306.8828" style="stroke:#111827;stroke-width:1;stroke-linejoin:miter;stroke-miterlimit:10;"/><text fill="#000000" font-family="'Arial'" font-size="13" font-weight="700" lengthAdjust="spacing" textLength="9.0454" x="406.9292" y="281.2505">2</text><text fill="#000000" font-family="'Arial'" font-size="13" lengthAdjust="spacing" textLength="164.8613" x="419.9746" y="273.6841">Pr&#252;fung auf bestehenden</text><text fill="#000000" font-family="'Arial'" font-size="13" lengthAdjust="spacing" textLength="106.3169" x="419.9746" y="288.8169">Medikationsplan</text></g><g class="message" data-entity-1="part2" data-entity-2="part2" data-source-line="69" id="msg3"><line style="stroke:#111827;stroke-width:1;" x1="399.9292" x2="441.9292" y1="366.2813" y2="366.2813"/><line style="stroke:#111827;stroke-width:1;" x1="441.9292" x2="441.9292" y1="366.2813" y2="379.2813"/><line style="stroke:#111827;stroke-width:1;" x1="400.9292" x2="441.9292" y1="379.2813" y2="379.2813"/><polygon fill="#111827" points="410.9292,375.2813,400.9292,379.2813,410.9292,383.2813,406.9292,379.2813" style="stroke:#111827;stroke-width:1;stroke-linejoin:miter;stroke-miterlimit:10;"/><text fill="#000000" font-family="'Arial'" font-size="13" font-weight="700" lengthAdjust="spacing" textLength="9.0454" x="406.9292" y="346.0825">3</text><text fill="#000000" font-family="'Arial'" font-size="13" lengthAdjust="spacing" textLength="138.6011" x="419.9746" y="330.9497">Kein Plan vorhanden:</text><text fill="#000000" font-family="'Arial'" font-size="13" lengthAdjust="spacing" textLength="316.5449" x="419.9746" y="346.0825">Fachanwendung erzeugt leeren Medikationsplan</text><text fill="#000000" font-family="'Arial'" font-size="13" lengthAdjust="spacing" textLength="240.9634" x="419.9746" y="361.2153">mit List.emptyReason = "notstarted"</text></g><g class="message" data-entity-1="part2" data-entity-2="part1" data-source-line="70" id="msg4"><polygon fill="#111827" points="133.2817,419.5469,123.2817,423.5469,133.2817,427.5469,129.2817,423.5469" style="stroke:#111827;stroke-width:1;stroke-linejoin:miter;stroke-miterlimit:10;"/><line style="stroke:#111827;stroke-width:1;" x1="127.2817" x2="393.9292" y1="423.5469" y2="423.5469"/><text fill="#000000" font-family="'Arial'" font-size="13" font-weight="700" lengthAdjust="spacing" textLength="9.0454" x="139.2817" y="410.9146">4</text><text fill="#000000" font-family="'Arial'" font-size="13" lengthAdjust="spacing" textLength="152.3755" x="152.3271" y="403.3481">Leerer Medikationsplan</text><text fill="#000000" font-family="'Arial'" font-size="13" lengthAdjust="spacing" textLength="225.6021" x="152.3271" y="418.481">(List.emptyReason = "notstarted")</text></g><?plantuml-src XLLTRzem57tthxWBUzYaCP50Ibg9IRI5jke74MKlKoLaufjY4PpCSTgrq_xPtlR7PWT2dS0qy-BSUtnyxh5zKLmb25U2AquJG9ahJ1A54cwHyHLLF1Lvbb11IBxY8gEIhc6HIeRoB4rI2QrEEUmiZLQFCYq4so9Yt_miHBwaB7tcuX5YckHePRRBfD02N9kKOKoBH8rJeUxe6i4PIgtNEOouvwy8Rkzmyb-oBryob0aNAmim6Xq2V1MidE2U_DFqHqWPCvLvdNhyrFRCBuTjgKWLmay2SDfq3plenvrsYxdi68yCmcOA5iS-zNVHsP97Au5v3gwEJIqt0_rTQJCibXMkwmPUNyVkT-UYP87aboqmn-y5YcWZCgHIyOXdLAX3TTK1UzUX77NG_i7ifQj3hIKijm66KgRFpPhAODsMCdHenrrYirTNXowqygnMuuvvazexBeoziZfhvTlsdZ7rdRwDvlQSJMucq_d5-N3kGglh1m7jzw83MGzQ4GsE8-h7ZMmud5sDxcRGeXx5erxWDVB3S0AjNim2vlciaHlTZixduw5Uw_QYRhyVDFFpwUZRA9oPzxjWNjplDm2Jw-eilQFcskbqCeLMFtPzr-zs2Q6HqkPiIgKvE7e6hcCxGBAtKmNKpSTeCr1iwmyO3vswRelIsr5wDgMtXOIwYQ4cDQ3jtAdxf_KLAXN5Ue6IaC6WQeSyvoWBVRq60q8sujjVAd4d44xkP_3UDCUsHChCTlo9wdUyWTh5aV9zfq-uDO4qkYlGXInY59-0hBdIxKfg3KehrG1uBI2FbXBv0WL1mSfcGTwsgzog-rD5Quhbdz-nAOWMCInGz_gbvaFn8FQw_Q7bryW5X4RkKogNrAmyUH1Z6kdvioOop2XViNXKa21A5Cr_aGTXohlXkVgCwqozJ97cki81EBgcNEahWConzoxTEe4RmoRtsJxyX-eZ8GoRHjcXalyl?></g></svg>