<?xml version="1.0" encoding="us-ascii" standalone="no"?><svg xmlns="http://www.w3.org/2000/svg" xmlns:xlink="http://www.w3.org/1999/xlink" contentStyleType="text/css" height="327px" preserveAspectRatio="none" style="width:414px;height:327px;background:#FFFFFF;" version="1.1" viewBox="0 0 414 327" width="414px" zoomAndPan="magnify"><defs/><g><text fill="#000000" font-family="sans-serif" font-size="14" font-weight="bold" lengthAdjust="spacing" textLength="278" x="61.015" y="24.5332">MedicationRequest.status (Planeintrag)</text><ellipse cx="200.03" cy="54.6094" fill="#222222" rx="10" ry="10" style="stroke:#222222;stroke-width:1.0;"/><rect fill="#F1F1F1" height="35.0938" rx="12.5" ry="12.5" style="stroke:#181818;stroke-width:0.5;" width="51" x="101.53" y="133.6094"/><text fill="#000000" font-family="sans-serif" font-size="12" lengthAdjust="spacing" textLength="31" x="111.53" y="156.0664">active</text><rect fill="#F1F1F1" height="35.0938" rx="12.5" ry="12.5" style="stroke:#181818;stroke-width:0.5;" width="62" x="243.03" y="133.6094"/><text fill="#000000" font-family="sans-serif" font-size="12" lengthAdjust="spacing" textLength="42" x="253.03" y="156.0664">on-hold</text><rect fill="#F1F1F1" height="35.0938" rx="12.5" ry="12.5" style="stroke:#181818;stroke-width:0.5;" width="65" x="61.53" y="223.6094"/><text fill="#000000" font-family="sans-serif" font-size="12" lengthAdjust="spacing" textLength="45" x="71.53" y="246.0664">stopped</text><rect fill="#F1F1F1" height="35.0938" rx="12.5" ry="12.5" style="stroke:#181818;stroke-width:0.5;" width="78" x="273.03" y="223.6094"/><text fill="#000000" font-family="sans-serif" font-size="12" lengthAdjust="spacing" textLength="58" x="283.03" y="246.0664">completed</text><rect fill="#F1F1F1" height="35.0938" rx="12.5" ry="12.5" style="stroke:#181818;stroke-width:0.5;" width="106" x="147.03" y="223.6094"/><text fill="#000000" font-family="sans-serif" font-size="12" lengthAdjust="spacing" textLength="86" x="157.03" y="246.0664">entered-in-error</text><ellipse cx="200.03" cy="310.6094" fill="none" rx="11" ry="11" style="stroke:#222222;stroke-width:1.0;"/><ellipse cx="200.03" cy="310.6094" fill="#222222" rx="6" ry="6" style="stroke:#222222;stroke-width:1.0;"/><!--link start to active--><g id="link_start_active"><path d="M191.08,59.2294 C180.86,63.7794 164.24,72.4794 154.03,84.6094 C141.99,98.9094 136.3245,113.5351 132.4045,127.7551 " fill="none" id="start-to-active" style="stroke:#181818;stroke-width:1.0;"/><polygon fill="#181818" points="130.81,133.5394,137.058,125.926,132.1388,128.7192,129.3456,123.8,130.81,133.5394" style="stroke:#181818;stroke-width:1.0;"/><text fill="#000000" font-family="sans-serif" font-size="11" lengthAdjust="spacing" textLength="84" x="155.03" y="104.0283">neuer Planeintrag</text></g><!--link start to on-hold--><g id="link_start_on-hold"><path d="M208.49,59.9594 C217.5,64.9194 231.7,73.7794 241.03,84.6094 C253.57,99.1794 260.6334,113.7542 266.0934,127.8542 " fill="none" id="start-to-on-hold" style="stroke:#181818;stroke-width:1.0;"/><polygon fill="#181818" points="268.26,133.4494,268.7402,123.6122,266.4545,128.7868,261.28,126.5011,268.26,133.4494" style="stroke:#181818;stroke-width:1.0;"/><text fill="#000000" font-family="sans-serif" font-size="11" lengthAdjust="spacing" textLength="84" x="260.03" y="97.0283">neuer Planeintrag</text><text fill="#000000" font-family="sans-serif" font-size="11" lengthAdjust="spacing" textLength="39" x="282.53" y="110.8643">pausiert</text></g><!--reverse link active to on-hold--><g id="link_active_on-hold"><path d="M158.1608,167.8914 C161.6508,169.3414 159.72,168.2794 163.28,169.1094 C193.13,176.1094 202.24,175.3094 232.28,169.1094 C235.83,168.3794 239.46,167.3194 243.02,166.0894 " fill="none" id="active-backto-on-hold" style="stroke:#181818;stroke-width:1.0;"/><polygon fill="#181818" points="152.62,165.5894,159.3965,172.7363,157.2373,167.5078,162.4659,165.3486,152.62,165.5894" style="stroke:#181818;stroke-width:1.0;"/><text fill="#000000" font-family="sans-serif" font-size="11" lengthAdjust="spacing" textLength="46" x="176.28" y="166.5283">aktivieren</text></g><!--link active to on-hold--><g id="link_active_on-hold"><path d="M152.63,151.1094 C177.72,151.1094 210,151.1094 236.85,151.1094 " fill="none" id="active-to-on-hold" style="stroke:#181818;stroke-width:1.0;"/><polygon fill="#181818" points="242.85,151.1094,233.85,147.1094,237.85,151.1094,233.85,155.1094,242.85,151.1094" style="stroke:#181818;stroke-width:1.0;"/><text fill="#000000" font-family="sans-serif" font-size="11" lengthAdjust="spacing" textLength="48" x="175.28" y="145.5283">pausieren</text></g><!--link on-hold to stopped--><g id="link_on-hold_stopped"><path d="M242.96,160.3394 C221.33,166.6494 192.15,176.3594 168.03,188.6094 C157.63,193.8894 139.1155,206.9309 121.3955,219.8709 " fill="none" id="on-hold-to-stopped" style="stroke:#181818;stroke-width:1.0;"/><polygon fill="#181818" points="116.55,223.4094,126.1773,221.3321,120.588,220.4607,121.4594,214.8713,116.55,223.4094" style="stroke:#181818;stroke-width:1.0;"/><text fill="#000000" font-family="sans-serif" font-size="11" lengthAdjust="spacing" textLength="45" x="169.03" y="201.0283">absetzen</text></g><!--link on-hold to completed--><g id="link_on-hold_completed"><path d="M305.32,156.4194 C324.91,160.9194 348.69,170.0594 361.03,188.6094 C369.57,201.4594 363.0521,210.6663 349.0621,220.1763 " fill="none" id="on-hold-to-completed" style="stroke:#181818;stroke-width:1.0;"/><polygon fill="#181818" points="344.1,223.5494,353.7919,221.7978,348.2351,220.7385,349.2944,215.1817,344.1,223.5494" style="stroke:#181818;stroke-width:1.0;"/><text fill="#000000" font-family="sans-serif" font-size="11" lengthAdjust="spacing" textLength="42" x="364.03" y="201.0283">beenden</text></g><!--link on-hold to entered-in-error--><g id="link_on-hold_entered-in-error"><path d="M283.73,169.0794 C288.44,179.7494 291.77,193.3794 285.03,203.6094 C277.52,215.0094 271.1292,220.4826 258.5892,225.8926 " fill="none" id="on-hold-to-entered-in-error" style="stroke:#181818;stroke-width:1.0;"/><polygon fill="#181818" points="253.08,228.2694,262.9283,228.377,257.671,226.2887,259.7593,221.0314,253.08,228.2694" style="stroke:#181818;stroke-width:1.0;"/><text fill="#000000" font-family="sans-serif" font-size="11" lengthAdjust="spacing" textLength="49" x="289.03" y="201.0283">stornieren</text></g><!--link active to stopped--><g id="link_active_stopped"><path d="M101.36,152.8394 C76,155.0994 38.41,162.9094 20.03,188.6094 C6,208.2094 29.9344,220.9826 55.7744,229.5426 " fill="none" id="active-to-stopped" style="stroke:#181818;stroke-width:1.0;"/><polygon fill="#181818" points="61.47,231.4294,54.1844,224.8021,56.7237,229.8571,51.6687,232.3963,61.47,231.4294" style="stroke:#181818;stroke-width:1.0;"/><text fill="#000000" font-family="sans-serif" font-size="11" lengthAdjust="spacing" textLength="45" x="21.03" y="201.0283">absetzen</text></g><!--link active to completed--><g id="link_active_completed"><path d="M152.76,160.6894 C170.98,167.2294 195.7,177.0694 216.03,188.6094 C225.69,194.0994 226.53,197.8394 236.03,203.6094 C247.91,210.8294 256.0132,215.1501 268.3332,220.9601 " fill="none" id="active-to-completed" style="stroke:#181818;stroke-width:1.0;"/><polygon fill="#181818" points="273.76,223.5194,267.3259,216.0626,269.2377,221.3867,263.9136,223.2984,273.76,223.5194" style="stroke:#181818;stroke-width:1.0;"/><text fill="#000000" font-family="sans-serif" font-size="11" lengthAdjust="spacing" textLength="42" x="237.03" y="201.0283">beenden</text></g><!--link active to entered-in-error--><g id="link_active_entered-in-error"><path d="M104.24,168.7294 C93.13,178.8894 83.77,192.0994 92.03,203.6094 C95.63,208.6394 115.727,215.7223 141.217,223.4323 " fill="none" id="active-to-entered-in-error" style="stroke:#181818;stroke-width:1.0;"/><polygon fill="#181818" points="146.96,225.1694,139.5035,218.735,142.1741,223.7218,137.1874,226.3924,146.96,225.1694" style="stroke:#181818;stroke-width:1.0;"/><text fill="#000000" font-family="sans-serif" font-size="11" lengthAdjust="spacing" textLength="49" x="93.03" y="201.0283">stornieren</text></g><!--link stopped to end--><g id="link_stopped_end"><path d="M119.96,258.6194 C143,273.2994 170.3174,290.6992 185.8974,300.6092 " fill="none" id="stopped-to-end" style="stroke:#181818;stroke-width:1.0;"/><polygon fill="#181818" points="190.96,303.8294,185.5128,295.624,186.7411,301.1459,181.2192,302.3742,190.96,303.8294" style="stroke:#181818;stroke-width:1.0;"/></g><!--link entered-in-error to end--><g id="link_entered-in-error_end"><path d="M200.03,258.7994 C200.03,271.5994 200.03,282.8494 200.03,293.5994 " fill="none" id="entered-in-error-to-end" style="stroke:#181818;stroke-width:1.0;"/><polygon fill="#181818" points="200.03,299.5994,204.03,290.5994,200.03,294.5994,196.03,290.5994,200.03,299.5994" style="stroke:#181818;stroke-width:1.0;"/></g><!--link completed to end--><g id="link_completed_end"><path d="M284.63,258.6194 C260.02,273.4494 230.4794,291.2631 214.2294,301.0531 " fill="none" id="completed-to-end" style="stroke:#181818;stroke-width:1.0;"/><polygon fill="#181818" points="209.09,304.1494,218.8632,302.9312,213.3728,301.5691,214.7349,296.0787,209.09,304.1494" style="stroke:#181818;stroke-width:1.0;"/></g><!--SRC=[XP0z3i8m38NtdCBg14ZX2Dm02R52XxHvWeZWbCHbuFG4Q2ce_6HoxC_lsHOd7hI4TRKH5tYDKuiayoH6saIJbJSCnnBDRghKP3ObRVM2DemMaLwg9PbQt1c_c2qtfaqEKKeg0kjzyBPGpuYqlxLHVkQGjJ88pfzUcbxHkuEf4kG2BYb9Q1hO4L41R6z07OwDXtn0SclakrUU2YmvijgnHemX5ghp_cRuLXwx4Js9s2_N7Q7RRJZ4czIVgJhx1vnFhiRCK1kcwLDN]--></g></svg>