<svg xmlns="http://www.w3.org/2000/svg" xmlns:xlink="http://www.w3.org/1999/xlink" version="1.1" data-diagram-type="ACTIVITY" style="width:456px;height:329px;background:#FFFFFF;" width="456px" height="329px" viewBox="0 0 456 329" zoomAndPan="magnify" preserveAspectRatio="none" contentStyleType="text/css"><?plantuml 1.2026.7beta3?><defs/><g><g class="title" data-source-line="1"><text x="66.8302" y="22.9951" fill="#000000" font-size="14" lengthAdjust="spacing" textLength="316.1074" font-weight="700" font-family="sans-serif">MedicationRequest.status (Planeintrag)</text></g><g class="start_entity" data-qualified-name="start" id="ent0001" data-source-line="3"><ellipse cx="218.72" cy="53.2969" rx="10" ry="10" fill="#222222" style="stroke:#222222;stroke-width:1;"/></g><rect x="89.49" y="130.2969" width="56.4746" height="33.9688" fill="#F1F1F1" style="stroke:#181818;stroke-width:0.5;" rx="12.5" ry="12.5"/><text x="99.49" y="151.4355" fill="#000000" font-size="12" lengthAdjust="spacing" textLength="36.4746" font-family="sans-serif">active</text><rect x="288.14" y="130.2969" width="65.1758" height="33.9688" fill="#F1F1F1" style="stroke:#181818;stroke-width:0.5;" rx="12.5" ry="12.5"/><text x="298.14" y="151.4355" fill="#000000" font-size="12" lengthAdjust="spacing" textLength="45.1758" font-family="sans-serif">on-hold</text><rect x="51.66" y="218.2669" width="116.1348" height="33.9688" fill="#F1F1F1" style="stroke:#181818;stroke-width:0.5;" rx="12.5" ry="12.5"/><text x="61.66" y="239.4055" fill="#000000" font-size="12" lengthAdjust="spacing" textLength="96.1348" font-family="sans-serif">entered-in-error</text><rect x="291.46" y="218.2669" width="68.5332" height="33.9688" fill="#F1F1F1" style="stroke:#181818;stroke-width:0.5;" rx="12.5" ry="12.5"/><text x="301.46" y="239.4055" fill="#000000" font-size="12" lengthAdjust="spacing" textLength="48.5332" font-family="sans-serif">stopped</text><rect x="187.89" y="218.2669" width="83.668" height="33.9688" fill="#F1F1F1" style="stroke:#181818;stroke-width:0.5;" rx="12.5" ry="12.5"/><text x="197.89" y="239.4055" fill="#000000" font-size="12" lengthAdjust="spacing" textLength="63.668" font-family="sans-serif">completed</text><g class="end_entity" data-qualified-name="end" id="ent0018" data-source-line="13"><ellipse cx="229.72" cy="304.2369" rx="11" ry="11" fill="none" style="stroke:#222222;stroke-width:1.5;"/><ellipse cx="229.72" cy="304.2369" rx="6" ry="6" fill="#222222" style="stroke:#222222;stroke-width:1;"/></g><!--link start to active--><g class="link" data-entity-1="ent0001" data-entity-2="ent0002" id="lnk3" data-source-line="3" data-link-type="dependency"><path d="M210.39,59.1169 C201.42,64.4769 186.92,73.6769 175.72,83.2969 C158.93,97.7369 145.2431,112.8759 134.0631,126.2059" style="stroke:#181818;stroke-width:1;" fill="none" id="start-to-active"/><polygon points="130.85,130.0369,139.6983,125.7116,134.0631,126.2059,133.5687,120.5707,130.85,130.0369" fill="#181818" style="stroke:#181818;stroke-width:1;stroke-linejoin:miter;stroke-miterlimit:10;"/><text x="176.72" y="101.0073" fill="#000000" font-size="11" lengthAdjust="spacing" textLength="98.2534" font-family="sans-serif">neuer Planeintrag</text></g><!--link start to on-hold--><g class="link" data-entity-1="ent0001" data-entity-2="ent0004" id="lnk5" data-source-line="4" data-link-type="dependency"><path d="M228.2,57.3769 C240.43,61.6969 261.9,70.4969 276.72,83.2969 C291.97,96.4669 302.0981,111.6437 309.8381,125.4737" style="stroke:#181818;stroke-width:1;" fill="none" id="start-to-on-hold"/><polygon points="312.28,129.8369,311.3752,120.0297,309.8381,125.4737,304.3941,123.9367,312.28,129.8369" fill="#181818" style="stroke:#181818;stroke-width:1;stroke-linejoin:miter;stroke-miterlimit:10;"/><text x="300.72" y="94.5073" fill="#000000" font-size="11" lengthAdjust="spacing" textLength="98.2534" font-family="sans-serif">neuer Planeintrag</text><text x="327.3042" y="107.312" fill="#000000" font-size="11" lengthAdjust="spacing" textLength="45.085" font-family="sans-serif">pausiert</text></g><!--reverse link active to on-hold--><g class="link" data-entity-1="ent0002" data-entity-2="ent0004" id="lnk7" data-source-line="5" data-link-type="dependency"><path d="M151.38,147.2869 C188.65,147.2869 248.61,147.2869 287.84,147.2869" style="stroke:#181818;stroke-width:1;" fill="none" id="active-backto-on-hold"/><polygon points="146.38,147.2869,155.38,151.2869,151.38,147.2869,155.38,143.2869,146.38,147.2869" fill="#181818" style="stroke:#181818;stroke-width:1;stroke-linejoin:miter;stroke-miterlimit:10;"/><text x="195.0124" y="141.4973" fill="#000000" font-size="11" lengthAdjust="spacing" textLength="55.0752" font-family="sans-serif">aktivieren</text></g><!--link active to on-hold--><g class="link" data-entity-1="ent0002" data-entity-2="ent0004" id="lnk16" data-source-line="11" data-link-type="dependency"><path d="M146.07,160.4969 C150.5,162.0669 155.09,163.4069 159.55,164.2869 C184.63,169.1869 249.39,168.7669 274.55,164.2869 C278.92,163.5069 278.643,163.8134 283.043,162.4534" style="stroke:#181818;stroke-width:1;" fill="none" id="active-to-on-hold"/><polygon points="287.82,160.9769,278.0402,159.813,283.043,162.4534,280.4026,167.4562,287.82,160.9769" fill="#181818" style="stroke:#181818;stroke-width:1;stroke-linejoin:miter;stroke-miterlimit:10;"/><text x="195.5158" y="161.4973" fill="#000000" font-size="11" lengthAdjust="spacing" textLength="54.5112" font-family="sans-serif">pausieren</text></g><!--link on-hold to entered-in-error--><g class="link" data-entity-1="ent0004" data-entity-2="ent0008" id="lnk9" data-source-line="6" data-link-type="dependency"><path d="M287.88,152.1269 C256.94,156.6969 209.9,166.0969 172.72,184.2669 C167.89,186.6269 149.9427,201.0621 133.3227,214.7221" style="stroke:#181818;stroke-width:1;" fill="none" id="on-hold-to-entered-in-error"/><polygon points="129.46,217.8969,138.9528,215.2724,133.3227,214.7221,133.8731,209.0921,129.46,217.8969" fill="#181818" style="stroke:#181818;stroke-width:1;stroke-linejoin:miter;stroke-miterlimit:10;"/><text x="173.72" y="195.4773" fill="#000000" font-size="11" lengthAdjust="spacing" textLength="56.3535" font-family="sans-serif">stornieren</text></g><!--link on-hold to stopped--><g class="link" data-entity-1="ent0004" data-entity-2="ent0010" id="lnk11" data-source-line="7" data-link-type="dependency"><path d="M353.62,157.7369 C366.61,163.2569 380.2,171.6869 387.72,184.2669 C397.37,200.4069 383.8171,211.4275 364.7271,220.1575" style="stroke:#181818;stroke-width:1;" fill="none" id="on-hold-to-stopped"/><polygon points="360.18,222.2369,370.0283,222.1316,364.7271,220.1575,366.7012,214.8563,360.18,222.2369" fill="#181818" style="stroke:#181818;stroke-width:1;stroke-linejoin:miter;stroke-miterlimit:10;"/><text x="390.72" y="195.4773" fill="#000000" font-size="11" lengthAdjust="spacing" textLength="50.0479" font-family="sans-serif">absetzen</text></g><!--link on-hold to completed--><g class="link" data-entity-1="ent0004" data-entity-2="ent0012" id="lnk13" data-source-line="8" data-link-type="dependency"><path d="M321.93,164.7169 C321.85,175.3069 320.05,188.8269 312.72,198.2669 C307.14,205.4669 294.2435,211.7497 276.7035,218.4197" style="stroke:#181818;stroke-width:1;" fill="none" id="on-hold-to-completed"/><polygon points="272.03,220.1969,281.8641,220.7367,276.7035,218.4197,279.0205,213.2591,272.03,220.1969" fill="#181818" style="stroke:#181818;stroke-width:1;stroke-linejoin:miter;stroke-miterlimit:10;"/><text x="319.72" y="195.4773" fill="#000000" font-size="11" lengthAdjust="spacing" textLength="48.2109" font-family="sans-serif">beenden</text></g><!--link active to stopped--><g class="link" data-entity-1="ent0002" data-entity-2="ent0010" id="lnk14" data-source-line="9" data-link-type="dependency"><path d="M146.32,154.3269 C170.82,160.1269 206.65,170.1069 235.72,184.2669 C245.48,189.0169 246.43,192.6669 255.72,198.2669 C267.07,205.1169 275.4103,209.6761 286.9303,215.5161" style="stroke:#181818;stroke-width:1;" fill="none" id="active-to-stopped"/><polygon points="291.39,217.7769,285.1712,210.1397,286.9303,215.5161,281.5539,217.2752,291.39,217.7769" fill="#181818" style="stroke:#181818;stroke-width:1;stroke-linejoin:miter;stroke-miterlimit:10;"/><text x="256.72" y="195.4773" fill="#000000" font-size="11" lengthAdjust="spacing" textLength="50.0479" font-family="sans-serif">absetzen</text></g><!--link active to completed--><g class="link" data-entity-1="ent0002" data-entity-2="ent0012" id="lnk15" data-source-line="10" data-link-type="dependency"><path d="M105.49,164.4669 C99.15,174.9569 94.16,188.4569 101.72,198.2669 C123.05,225.9269 144.13,208.6869 177.72,218.2669 C180.9,219.1769 179.3829,218.7268 182.6829,219.6968" style="stroke:#181818;stroke-width:1;" fill="none" id="active-to-completed"/><polygon points="187.48,221.1069,179.9733,214.7311,182.6829,219.6968,177.7173,222.4064,187.48,221.1069" fill="#181818" style="stroke:#181818;stroke-width:1;stroke-linejoin:miter;stroke-miterlimit:10;"/><text x="102.72" y="195.4773" fill="#000000" font-size="11" lengthAdjust="spacing" textLength="48.2109" font-family="sans-serif">beenden</text></g><!--link active to entered-in-error--><g class="link" data-entity-1="ent0002" data-entity-2="ent0008" id="lnk17" data-source-line="12" data-link-type="dependency"><path d="M89.42,150.0669 C66.16,153.1969 34.57,161.6469 18.72,184.2669 C6,202.4269 21.7423,213.1705 46.4923,220.9905" style="stroke:#181818;stroke-width:1;" fill="none" id="active-to-entered-in-error"/><polygon points="51.26,222.4969,43.8833,215.9712,46.4923,220.9905,41.4731,223.5995,51.26,222.4969" fill="#181818" style="stroke:#181818;stroke-width:1;stroke-linejoin:miter;stroke-miterlimit:10;"/><text x="19.72" y="195.4773" fill="#000000" font-size="11" lengthAdjust="spacing" textLength="56.3535" font-family="sans-serif">stornieren</text></g><!--link stopped to end--><g class="link" data-entity-1="ent0010" data-entity-2="ent0018" id="lnk19" data-source-line="13" data-link-type="dependency"><path d="M302.48,252.4669 C281.84,266.8669 256.8909,284.2863 242.5409,294.2963" style="stroke:#181818;stroke-width:1;" fill="none" id="stopped-to-end"/><polygon points="238.44,297.1569,248.11,295.2885,242.5409,294.2963,243.5331,288.7271,238.44,297.1569" fill="#181818" style="stroke:#181818;stroke-width:1;stroke-linejoin:miter;stroke-miterlimit:10;"/></g><!--link entered-in-error to end--><g class="link" data-entity-1="ent0008" data-entity-2="ent0018" id="lnk20" data-source-line="14" data-link-type="dependency"><path d="M139.08,252.6369 C165.58,267.4369 198.634,285.8801 215.924,295.5301" style="stroke:#181818;stroke-width:1;" fill="none" id="entered-in-error-to-end"/><polygon points="220.29,297.9669,214.3806,290.0878,215.924,295.5301,210.4817,297.0735,220.29,297.9669" fill="#181818" style="stroke:#181818;stroke-width:1;stroke-linejoin:miter;stroke-miterlimit:10;"/></g><!--link completed to end--><g class="link" data-entity-1="ent0012" data-entity-2="ent0018" id="lnk21" data-source-line="15" data-link-type="dependency"><path d="M229.72,252.4669 C229.72,265.0169 229.72,277.0069 229.72,287.8069" style="stroke:#181818;stroke-width:1;" fill="none" id="completed-to-end"/><polygon points="229.72,292.8069,233.72,283.8069,229.72,287.8069,225.72,283.8069,229.72,292.8069" fill="#181818" style="stroke:#181818;stroke-width:1;stroke-linejoin:miter;stroke-miterlimit:10;"/></g><?plantuml-src XP5B3i8m34JtFONL5I258t039CGMMAJD22A2KnAN1QSdXNvL0LbPzfln9sB5WROmjjHYFUznhn5b7KLB7McnSvfXMO8-BxDiiLgICcf31qQDGAFgYNGfze5Vp94hNKUB82VAFQkBToRF-eYKQsGqF7rDbea7Tvck3OrbxsvHVE0tcyp1aYAZB2k4u4C-mtKH8Sy6JiAgWfaH1S2c0Kf_gnma8MtlRmwJybnEr1DXkcXxbdxDyNacfd-MR0VvmEaZiZapr8QvkjGB?></g></svg>