<?xml version="1.0" encoding="us-ascii" standalone="no"?><svg xmlns="http://www.w3.org/2000/svg" xmlns:xlink="http://www.w3.org/1999/xlink" contentStyleType="text/css" height="360px" preserveAspectRatio="none" style="width:581px;height:360px;background:#FFFFFF;" version="1.1" viewBox="0 0 581 360" width="581px" zoomAndPan="magnify"><defs/><g><text fill="#000000" font-family="sans-serif" font-size="14" font-weight="bold" lengthAdjust="spacing" textLength="320" x="123.855" y="23.5352">MedicationRequest.status (geplante Abgabe)</text><ellipse cx="272.19" cy="53.4883" fill="#222222" rx="10" ry="10" style="stroke:#222222;stroke-width:1.0;"/><rect fill="#F1F1F1" height="34.1328" rx="12.5" ry="12.5" style="stroke:#181818;stroke-width:0.5;" width="53" x="245.69" y="117.4883"/><text fill="#000000" font-family="sans-serif" font-size="12" lengthAdjust="spacing" textLength="33" x="255.69" y="139.0898">active</text><rect fill="#F1F1F1" height="34.1328" rx="12.5" ry="12.5" style="stroke:#181818;stroke-width:0.5;" width="68" x="31.19" y="257.6283"/><text fill="#000000" font-family="sans-serif" font-size="12" lengthAdjust="spacing" textLength="48" x="41.19" y="279.2298">stopped</text><rect fill="#F1F1F1" height="34.1328" rx="12.5" ry="12.5" style="stroke:#181818;stroke-width:0.5;" width="81" x="146.69" y="257.6283"/><text fill="#000000" font-family="sans-serif" font-size="12" lengthAdjust="spacing" textLength="61" x="156.69" y="279.2298">completed</text><rect fill="#F1F1F1" height="34.1328" rx="12.5" ry="12.5" style="stroke:#181818;stroke-width:0.5;" width="118" x="248.19" y="257.6283"/><text fill="#000000" font-family="sans-serif" font-size="12" lengthAdjust="spacing" textLength="98" x="258.19" y="279.2298">entered-in-error</text><rect fill="#F1F1F1" height="34.1328" rx="12.5" ry="12.5" style="stroke:#181818;stroke-width:0.5;" width="74" x="386.19" y="257.6283"/><text fill="#000000" font-family="sans-serif" font-size="12" lengthAdjust="spacing" textLength="54" x="396.19" y="279.2298">cancelled</text><ellipse cx="246.19" cy="343.7583" fill="none" rx="11" ry="11" style="stroke:#222222;stroke-width:1.0;"/><ellipse cx="246.19" cy="343.7583" fill="#222222" rx="6" ry="6" style="stroke:#222222;stroke-width:1.0;"/><!--link start to active--><g id="link_start_active"><path d="M272.19,63.8683 C272.19,76.9583 272.19,94.9083 272.19,111.0283 " fill="none" id="start-to-active" style="stroke:#181818;stroke-width:1.0;"/><polygon fill="#181818" points="272.19,117.0283,276.19,108.0283,272.19,112.0283,268.19,108.0283,272.19,117.0283" style="stroke:#181818;stroke-width:1.0;"/><text fill="#000000" font-family="sans-serif" font-size="11" lengthAdjust="spacing" textLength="28" x="273.19" y="95.123">offen</text></g><!--link active to stopped--><g id="link_active_stopped"><path d="M245.54,135.2783 C187.67,135.2883 53.46,138.9283 25.19,171.6283 C6,193.8183 13.27,210.8283 25.19,237.6283 C28.53,245.1483 29.8091,247.7794 35.9491,253.2194 " fill="none" id="active-to-stopped" style="stroke:#181818;stroke-width:1.0;"/><polygon fill="#181818" points="40.44,257.1983,36.3562,248.236,36.6976,253.8825,31.051,254.2238,40.44,257.1983" style="stroke:#181818;stroke-width:1.0;"/><text fill="#000000" font-family="sans-serif" font-size="11" lengthAdjust="spacing" textLength="47" x="39.69" y="189.763">Geplante</text><text fill="#000000" font-family="sans-serif" font-size="11" lengthAdjust="spacing" textLength="41" x="42.69" y="202.7181">Abgabe</text><text fill="#000000" font-family="sans-serif" font-size="11" lengthAdjust="spacing" textLength="59" x="33.69" y="215.6732">abgelaufen</text><text fill="#000000" font-family="sans-serif" font-size="11" lengthAdjust="spacing" textLength="74" x="26.19" y="228.6283">(automatisch)</text></g><!--link active to completed--><g id="link_active_completed"><path d="M245.42,137.9383 C205.82,142.0883 134.65,152.0983 119.19,171.6283 C100.98,194.6283 104.07,212.4883 119.19,237.6283 C125.39,247.9283 130.2796,252.733 140.9596,258.153 " fill="none" id="active-to-completed" style="stroke:#181818;stroke-width:1.0;"/><polygon fill="#181818" points="146.31,260.8683,140.0945,253.2284,141.8513,258.6055,136.4741,260.3623,146.31,260.8683" style="stroke:#181818;stroke-width:1.0;"/><text fill="#000000" font-family="sans-serif" font-size="11" lengthAdjust="spacing" textLength="20" x="147.19" y="183.263">Alle</text><text fill="#000000" font-family="sans-serif" font-size="11" lengthAdjust="spacing" textLength="56" x="129.19" y="196.2181">m&#246;glichen</text><text fill="#000000" font-family="sans-serif" font-size="11" lengthAdjust="spacing" textLength="66" x="124.19" y="209.1732">Einl&#246;sungen</text><text fill="#000000" font-family="sans-serif" font-size="11" lengthAdjust="spacing" textLength="72" x="121.19" y="222.1283">durchgef&#252;hrt</text><text fill="#000000" font-family="sans-serif" font-size="11" lengthAdjust="spacing" textLength="74" x="120.19" y="235.0834">(automatisch)</text></g><!--link completed to active--><g id="link_completed_active"><path d="M191.46,257.5383 C198.87,229.6583 213.58,175.1383 216.19,171.6283 C223.69,161.4983 229.734,156.406 240.194,150.506 " fill="none" id="completed-to-active" style="stroke:#181818;stroke-width:1.0;"/><polygon fill="#181818" points="245.42,147.5583,235.6159,148.4959,241.065,150.0147,239.5462,155.4639,245.42,147.5583" style="stroke:#181818;stroke-width:1.0;"/><text fill="#000000" font-family="sans-serif" font-size="11" lengthAdjust="spacing" textLength="78" x="217.19" y="189.763">durchgef&#252;hrte</text><text fill="#000000" font-family="sans-serif" font-size="11" lengthAdjust="spacing" textLength="41" x="235.69" y="202.7181">Abgabe</text><text fill="#000000" font-family="sans-serif" font-size="11" lengthAdjust="spacing" textLength="54" x="229.19" y="215.6732">verworfen</text><text fill="#000000" font-family="sans-serif" font-size="11" lengthAdjust="spacing" textLength="74" x="219.19" y="228.6283">(automatisch)</text></g><!--link active to entered-in-error--><g id="link_active_entered-in-error"><path d="M288.76,151.7783 C293.64,157.5583 298.41,164.4283 301.19,171.6283 C312.17,200.1083 311.6417,230.4228 309.7617,251.1628 " fill="none" id="active-to-entered-in-error" style="stroke:#181818;stroke-width:1.0;"/><polygon fill="#181818" points="309.22,257.1383,314.0162,248.5361,309.6714,252.1587,306.0488,247.8139,309.22,257.1383" style="stroke:#181818;stroke-width:1.0;"/><text fill="#000000" font-family="sans-serif" font-size="11" lengthAdjust="spacing" textLength="47" x="314.42" y="196.263">Geplante</text><text fill="#000000" font-family="sans-serif" font-size="11" lengthAdjust="spacing" textLength="41" x="317.42" y="209.2181">Abgabe</text><text fill="#000000" font-family="sans-serif" font-size="11" lengthAdjust="spacing" textLength="53" x="311.42" y="222.1732">verwerfen</text></g><!--link active to cancelled--><g id="link_active_cancelled"><path d="M299.05,139.9283 C320.45,144.6083 350.06,153.8883 370.19,171.6283 C371.97,173.1883 397.58,223.3102 412.07,251.8002 " fill="none" id="active-to-cancelled" style="stroke:#181818;stroke-width:1.0;"/><polygon fill="#181818" points="414.79,257.1483,414.2753,247.3129,412.5233,252.6916,407.1446,250.9396,414.79,257.1483" style="stroke:#181818;stroke-width:1.0;"/><text fill="#000000" font-family="sans-serif" font-size="11" lengthAdjust="spacing" textLength="20" x="431.73" y="183.263">Alle</text><text fill="#000000" font-family="sans-serif" font-size="11" lengthAdjust="spacing" textLength="56" x="413.73" y="196.2181">m&#246;glichen</text><text fill="#000000" font-family="sans-serif" font-size="11" lengthAdjust="spacing" textLength="66" x="408.73" y="209.1732">Einl&#246;sungen</text><text fill="#000000" font-family="sans-serif" font-size="11" lengthAdjust="spacing" textLength="69" x="407.23" y="222.1283">Leerabgaben</text><text fill="#000000" font-family="sans-serif" font-size="11" lengthAdjust="spacing" textLength="74" x="404.73" y="235.0834">(automatisch)</text></g><!--link cancelled to active--><g id="link_cancelled_active"><path d="M460.62,258.6383 C469.21,253.3283 477.26,246.4183 482.19,237.6283 C496.54,212.0383 501.09,194.0583 482.19,171.6283 C459.06,144.1883 356.3872,137.8131 305.1072,136.2331 " fill="none" id="cancelled-to-active" style="stroke:#181818;stroke-width:1.0;"/><polygon fill="#181818" points="299.11,136.0483,307.9825,140.3236,304.1076,136.2023,308.2289,132.3273,299.11,136.0483" style="stroke:#181818;stroke-width:1.0;"/><text fill="#000000" font-family="sans-serif" font-size="11" lengthAdjust="spacing" textLength="78" x="495.71" y="189.763">durchgef&#252;hrte</text><text fill="#000000" font-family="sans-serif" font-size="11" lengthAdjust="spacing" textLength="41" x="514.21" y="202.7181">Abgabe</text><text fill="#000000" font-family="sans-serif" font-size="11" lengthAdjust="spacing" textLength="54" x="507.71" y="215.6732">verworfen</text><text fill="#000000" font-family="sans-serif" font-size="11" lengthAdjust="spacing" textLength="74" x="497.71" y="228.6283">(automatisch)</text></g><!--link stopped to end--><g id="link_stopped_end"><path d="M99.66,288.4683 C141.71,304.0483 204.7539,327.4034 230.4439,336.9234 " fill="none" id="stopped-to-end" style="stroke:#181818;stroke-width:1.0;"/><polygon fill="#181818" points="236.07,339.0083,229.0207,332.1302,231.3816,337.2709,226.2409,339.6317,236.07,339.0083" style="stroke:#181818;stroke-width:1.0;"/></g><!--link entered-in-error to end--><g id="link_entered-in-error_end"><path d="M292.42,291.9283 C280.01,305.5683 266.8446,320.0373 257.3146,330.5273 " fill="none" id="entered-in-error-to-end" style="stroke:#181818;stroke-width:1.0;"/><polygon fill="#181818" points="253.28,334.9683,262.2925,330.9965,256.6421,331.2675,256.3712,325.6171,253.28,334.9683" style="stroke:#181818;stroke-width:1.0;"/></g><!--link completed to end--><g id="link_completed_end"><path d="M201.47,291.9283 C213.48,305.5683 226.1489,319.9716 235.3689,330.4616 " fill="none" id="completed-to-end" style="stroke:#181818;stroke-width:1.0;"/><polygon fill="#181818" points="239.33,334.9683,236.3929,325.5676,236.0291,331.2127,230.384,330.849,239.33,334.9683" style="stroke:#181818;stroke-width:1.0;"/></g><!--link cancelled to end--><g id="link_cancelled_end"><path d="M386.08,289.7483 C344.93,305.3483 286.6908,327.4126 262.0108,336.7626 " fill="none" id="cancelled-to-end" style="stroke:#181818;stroke-width:1.0;"/><polygon fill="#181818" points="256.4,338.8883,266.2334,339.4403,261.0757,337.1169,263.3992,331.9592,256.4,338.8883" style="stroke:#181818;stroke-width:1.0;"/></g><!--SRC=[fP4nRiGW54HxJe6siYCvHuYqHPGcQTB6Ms0OOoGC3dmsDzigdIyMrhOisKuJfKByqJpc3sJ8Whz16Id8UFUEpuH8Zv44fSWBZS4AH-3dHei69MF5Gychweb_-BQ5kt0XoLp1vcDMNXPJxMPNxKIZOKNAXjeL8f7lysjHTkM5H_B30BK1dAtDfdwyQMjaTpSz6sV7MqnEtsyg1TbfjEDt5-X0bBuVB6Z7F8Qw8dmXJ4iW2m6gCgv223xyASqh4CJ4F6udXPF8ViNML3Dqiy8kb0-_5RKKlHB_oLbwdoZvJzbfty5fbRRHfyacH9xy0000]--></g></svg>