<?xml version="1.0" encoding="us-ascii" standalone="no"?><svg xmlns="http://www.w3.org/2000/svg" xmlns:xlink="http://www.w3.org/1999/xlink" contentStyleType="text/css" height="369px" preserveAspectRatio="none" style="width:540px;height:369px;background:#FFFFFF;" version="1.1" viewBox="0 0 540 369" width="540px" zoomAndPan="magnify"><defs/><g><text fill="#000000" font-family="sans-serif" font-size="14" font-weight="bold" lengthAdjust="spacing" textLength="319" x="103.735" y="24.5332">MedicationRequest.status (Geplante Abgabe)</text><ellipse cx="253.47" cy="54.6094" fill="#222222" rx="10" ry="10" style="stroke:#222222;stroke-width:1.0;"/><rect fill="#F1F1F1" height="35.0938" rx="12.5" ry="12.5" style="stroke:#181818;stroke-width:0.5;" width="51" x="227.97" y="119.6094"/><text fill="#000000" font-family="sans-serif" font-size="12" lengthAdjust="spacing" textLength="31" x="237.97" y="142.0664">active</text><rect fill="#F1F1F1" height="35.0938" rx="12.5" ry="12.5" style="stroke:#181818;stroke-width:0.5;" width="65" x="25.97" y="265.6094"/><text fill="#000000" font-family="sans-serif" font-size="12" lengthAdjust="spacing" textLength="45" x="35.97" y="288.0664">stopped</text><rect fill="#F1F1F1" height="35.0938" rx="12.5" ry="12.5" style="stroke:#181818;stroke-width:0.5;" width="78" x="134.47" y="265.6094"/><text fill="#000000" font-family="sans-serif" font-size="12" lengthAdjust="spacing" textLength="58" x="144.47" y="288.0664">completed</text><rect fill="#F1F1F1" height="35.0938" rx="12.5" ry="12.5" style="stroke:#181818;stroke-width:0.5;" width="106" x="232.47" y="265.6094"/><text fill="#000000" font-family="sans-serif" font-size="12" lengthAdjust="spacing" textLength="86" x="242.47" y="288.0664">entered-in-error</text><rect fill="#F1F1F1" height="35.0938" rx="12.5" ry="12.5" style="stroke:#181818;stroke-width:0.5;" width="73" x="358.97" y="265.6094"/><text fill="#000000" font-family="sans-serif" font-size="12" lengthAdjust="spacing" textLength="53" x="368.97" y="288.0664">cancelled</text><ellipse cx="228.47" cy="352.6094" fill="none" rx="11" ry="11" style="stroke:#222222;stroke-width:1.0;"/><ellipse cx="228.47" cy="352.6094" fill="#222222" rx="6" ry="6" style="stroke:#222222;stroke-width:1.0;"/><!--link start to active--><g id="link_start_active"><path d="M253.47,64.8394 C253.47,78.1394 253.47,96.8994 253.47,113.4494 " fill="none" id="start-to-active" style="stroke:#181818;stroke-width:1.0;"/><polygon fill="#181818" points="253.47,119.4494,257.47,110.4494,253.47,114.4494,249.47,110.4494,253.47,119.4494" style="stroke:#181818;stroke-width:1.0;"/><text fill="#000000" font-family="sans-serif" font-size="11" lengthAdjust="spacing" textLength="26" x="254.47" y="97.0283">offen</text></g><!--link active to stopped--><g id="link_active_stopped"><path d="M227.74,138.2494 C173.87,139.1494 52.1,144.5294 26.47,174.6094 C6,198.6294 15.35,216.0794 26.47,245.6094 C29.2,252.8694 30.0655,255.1783 35.2255,260.8583 " fill="none" id="active-to-stopped" style="stroke:#181818;stroke-width:1.0;"/><polygon fill="#181818" points="39.26,265.2994,36.169,255.9481,35.8979,261.5985,30.2476,261.3274,39.26,265.2994" style="stroke:#181818;stroke-width:1.0;"/><text fill="#000000" font-family="sans-serif" font-size="11" lengthAdjust="spacing" textLength="43" x="38.97" y="194.0283">Geplante</text><text fill="#000000" font-family="sans-serif" font-size="11" lengthAdjust="spacing" textLength="38" x="41.47" y="207.8643">Abgabe</text><text fill="#000000" font-family="sans-serif" font-size="11" lengthAdjust="spacing" textLength="54" x="33.47" y="221.7002">abgelaufen</text><text fill="#000000" font-family="sans-serif" font-size="11" lengthAdjust="spacing" textLength="66" x="27.47" y="235.5361">(automatisch)</text></g><!--link active to completed--><g id="link_active_completed"><path d="M227.86,141.0094 C191.16,145.7594 126.47,156.5094 112.47,174.6094 C93.15,199.5594 96.9,218.1594 112.47,245.6094 C117.46,254.4094 120.4035,258.1692 129.0435,263.4992 " fill="none" id="active-to-completed" style="stroke:#181818;stroke-width:1.0;"/><polygon fill="#181818" points="134.15,266.6494,128.5904,258.5198,129.8946,264.0242,124.3901,265.3284,134.15,266.6494" style="stroke:#181818;stroke-width:1.0;"/><text fill="#000000" font-family="sans-serif" font-size="11" lengthAdjust="spacing" textLength="18" x="137.47" y="187.0283">Alle</text><text fill="#000000" font-family="sans-serif" font-size="11" lengthAdjust="spacing" textLength="48" x="122.47" y="200.8643">m&#246;glichen</text><text fill="#000000" font-family="sans-serif" font-size="11" lengthAdjust="spacing" textLength="58" x="117.47" y="214.7002">Einl&#246;sungen</text><text fill="#000000" font-family="sans-serif" font-size="11" lengthAdjust="spacing" textLength="63" x="114.97" y="228.5361">durchgef&#252;hrt</text><text fill="#000000" font-family="sans-serif" font-size="11" lengthAdjust="spacing" textLength="66" x="113.47" y="242.3721">(automatisch)</text></g><!--link completed to active--><g id="link_completed_active"><path d="M177.15,265.4094 C183.48,237.1194 196.27,182.0994 201.47,174.6094 C208.2,164.9094 213.2926,160.1303 222.8726,154.1403 " fill="none" id="completed-to-active" style="stroke:#181818;stroke-width:1.0;"/><polygon fill="#181818" points="227.96,150.9594,218.2083,152.3392,223.7205,153.6102,222.4495,159.1224,227.96,150.9594" style="stroke:#181818;stroke-width:1.0;"/><text fill="#000000" font-family="sans-serif" font-size="11" lengthAdjust="spacing" textLength="69" x="202.47" y="194.0283">durchgef&#252;hrte</text><text fill="#000000" font-family="sans-serif" font-size="11" lengthAdjust="spacing" textLength="38" x="217.97" y="207.8643">Abgabe</text><text fill="#000000" font-family="sans-serif" font-size="11" lengthAdjust="spacing" textLength="52" x="210.97" y="221.7002">verworfen</text><text fill="#000000" font-family="sans-serif" font-size="11" lengthAdjust="spacing" textLength="66" x="203.97" y="235.5361">(automatisch)</text></g><!--link active to entered-in-error--><g id="link_active_entered-in-error"><path d="M266.87,154.6194 C270.99,160.5794 275.07,167.5694 277.47,174.6094 C287.96,205.4394 288.1913,238.0275 287.0713,259.5875 " fill="none" id="active-to-entered-in-error" style="stroke:#181818;stroke-width:1.0;"/><polygon fill="#181818" points="286.76,265.5794,291.2215,256.799,287.0194,260.5861,283.2323,256.384,286.76,265.5794" style="stroke:#181818;stroke-width:1.0;"/><text fill="#000000" font-family="sans-serif" font-size="11" lengthAdjust="spacing" textLength="43" x="292.97" y="201.0283">Geplante</text><text fill="#000000" font-family="sans-serif" font-size="11" lengthAdjust="spacing" textLength="38" x="295.47" y="214.8643">Abgabe</text><text fill="#000000" font-family="sans-serif" font-size="11" lengthAdjust="spacing" textLength="52" x="288.47" y="228.7002">verwerfen</text></g><!--link active to cancelled--><g id="link_active_cancelled"><path d="M279.21,142.6894 C299.66,147.5094 327.83,156.9494 346.47,174.6094 C353.5,181.2794 374.5781,231.1402 386.3181,259.6902 " fill="none" id="active-to-cancelled" style="stroke:#181818;stroke-width:1.0;"/><polygon fill="#181818" points="388.6,265.2394,388.8766,255.3944,386.6985,260.6151,381.4778,258.4369,388.6,265.2394" style="stroke:#181818;stroke-width:1.0;"/><text fill="#000000" font-family="sans-serif" font-size="11" lengthAdjust="spacing" textLength="18" x="405.47" y="187.0283">Alle</text><text fill="#000000" font-family="sans-serif" font-size="11" lengthAdjust="spacing" textLength="48" x="390.47" y="200.8643">m&#246;glichen</text><text fill="#000000" font-family="sans-serif" font-size="11" lengthAdjust="spacing" textLength="58" x="385.47" y="214.7002">Einl&#246;sungen</text><text fill="#000000" font-family="sans-serif" font-size="11" lengthAdjust="spacing" textLength="64" x="382.47" y="228.5361">Leerabgaben</text><text fill="#000000" font-family="sans-serif" font-size="11" lengthAdjust="spacing" textLength="66" x="381.47" y="242.3721">(automatisch)</text></g><!--link cancelled to active--><g id="link_cancelled_active"><path d="M430.64,265.6094 C438.18,260.3294 445.17,253.6994 449.47,245.6094 C464.27,217.7394 469.63,198.8794 449.47,174.6094 C428.06,148.8494 333.0337,141.455 284.9737,139.245 " fill="none" id="cancelled-to-active" style="stroke:#181818;stroke-width:1.0;"/><polygon fill="#181818" points="278.98,138.9694,287.7868,143.3786,283.9747,139.1991,288.1542,135.387,278.98,138.9694" style="stroke:#181818;stroke-width:1.0;"/><text fill="#000000" font-family="sans-serif" font-size="11" lengthAdjust="spacing" textLength="69" x="463.47" y="194.0283">durchgef&#252;hrte</text><text fill="#000000" font-family="sans-serif" font-size="11" lengthAdjust="spacing" textLength="38" x="478.97" y="207.8643">Abgabe</text><text fill="#000000" font-family="sans-serif" font-size="11" lengthAdjust="spacing" textLength="52" x="471.97" y="221.7002">verworfen</text><text fill="#000000" font-family="sans-serif" font-size="11" lengthAdjust="spacing" textLength="66" x="464.97" y="235.5361">(automatisch)</text></g><!--link stopped to end--><g id="link_stopped_end"><path d="M91.24,297.1194 C130.42,312.6794 188.1732,335.6159 212.7132,345.3559 " fill="none" id="stopped-to-end" style="stroke:#181818;stroke-width:1.0;"/><polygon fill="#181818" points="218.29,347.5694,211.4004,340.5313,213.6427,345.7248,208.4492,347.9671,218.29,347.5694" style="stroke:#181818;stroke-width:1.0;"/></g><!--link entered-in-error to end--><g id="link_entered-in-error_end"><path d="M271.38,300.7994 C259.9,314.3794 248.0702,328.3844 239.1902,338.9044 " fill="none" id="entered-in-error-to-end" style="stroke:#181818;stroke-width:1.0;"/><polygon fill="#181818" points="235.32,343.4894,244.1819,339.1921,238.5452,339.6686,238.0686,334.0318,235.32,343.4894" style="stroke:#181818;stroke-width:1.0;"/></g><!--link completed to end--><g id="link_completed_end"><path d="M187.06,300.7994 C198.13,314.3794 209.4905,328.3176 218.0605,338.8376 " fill="none" id="completed-to-end" style="stroke:#181818;stroke-width:1.0;"/><polygon fill="#181818" points="221.85,343.4894,219.2669,333.9853,218.692,339.6129,213.0645,339.038,221.85,343.4894" style="stroke:#181818;stroke-width:1.0;"/></g><!--link cancelled to end--><g id="link_cancelled_end"><path d="M358.82,298.9194 C320.22,314.5194 267.4431,335.8617 244.1531,345.2717 " fill="none" id="cancelled-to-end" style="stroke:#181818;stroke-width:1.0;"/><polygon fill="#181818" points="238.59,347.5194,248.4331,347.8566,243.2259,345.6463,245.4362,340.4391,238.59,347.5194" style="stroke:#181818;stroke-width:1.0;"/></g><!--SRC=[fP4nRiGW54HxJe6siYCvHuYqHPGcQTB6Ms0OOoGCNlXiRhPLEbyihBsnP3jDb0hnH_EOFv0X2_u6PQGWuzqxpWcH7YC9If4NBnYiS0H-RBHeK39MF9IygfxuXszRk1CNaim5R3vcvSTKkzbLEz5eM96oeNQ5IEJx_5gKNNdYaVmmGAq0HskpgH-lsXhPtKpFnjdn6fFJjvjAGNOQxVZL1TeHfUy72zemzw4k29y8qnB8Ge2gZAiGWWz_IlCA134nzzj9uIIoNx4brGnThR09vSDlHTsBNeZ_vDnxdoZvJzbXsy5XaTRHfyagH9vy0m00]--></g></svg>