<svg xmlns="http://www.w3.org/2000/svg" xmlns:xlink="http://www.w3.org/1999/xlink" version="1.1" data-diagram-type="ACTIVITY" style="width:460px;height:329px;background:#FFFFFF;" width="460px" height="329px" viewBox="0 0 460 329" zoomAndPan="magnify" preserveAspectRatio="none" contentStyleType="text/css"><?plantuml 1.2026.7beta3?><defs/><g><g class="title" data-source-line="1"><text x="68.7668" y="22.9951" fill="#000000" font-size="14" lengthAdjust="spacing" textLength="316.1074" font-weight="700" font-family="sans-serif">MedicationRequest.status (Planeintrag)</text></g><g class="start_entity" data-qualified-name="start" id="ent0001" data-source-line="3"><ellipse cx="215.43" cy="53.2969" rx="10" ry="10" fill="#222222" style="stroke:#222222;stroke-width:1;"/></g><rect x="107.19" y="130.2969" width="56.4746" height="33.9688" fill="#F1F1F1" style="stroke:#181818;stroke-width:0.5;" rx="12.5" ry="12.5"/><text x="117.19" y="151.4355" fill="#000000" font-size="12" lengthAdjust="spacing" textLength="36.4746" font-family="sans-serif">active</text><rect x="263.84" y="130.2969" width="65.1758" height="33.9688" fill="#F1F1F1" style="stroke:#181818;stroke-width:0.5;" rx="12.5" ry="12.5"/><text x="273.84" y="151.4355" fill="#000000" font-size="12" lengthAdjust="spacing" textLength="45.1758" font-family="sans-serif">on-hold</text><rect x="69.16" y="218.2669" width="68.5332" height="33.9688" fill="#F1F1F1" style="stroke:#181818;stroke-width:0.5;" rx="12.5" ry="12.5"/><text x="79.16" y="239.4055" fill="#000000" font-size="12" lengthAdjust="spacing" textLength="48.5332" font-family="sans-serif">stopped</text><rect x="293.6" y="218.2669" width="83.668" height="33.9688" fill="#F1F1F1" style="stroke:#181818;stroke-width:0.5;" rx="12.5" ry="12.5"/><text x="303.6" y="239.4055" fill="#000000" font-size="12" lengthAdjust="spacing" textLength="63.668" font-family="sans-serif">completed</text><rect x="157.36" y="218.2669" width="116.1348" height="33.9688" fill="#F1F1F1" style="stroke:#181818;stroke-width:0.5;" rx="12.5" ry="12.5"/><text x="167.36" y="239.4055" fill="#000000" font-size="12" lengthAdjust="spacing" textLength="96.1348" font-family="sans-serif">entered-in-error</text><g class="end_entity" data-qualified-name="end" id="ent0018" data-source-line="13"><ellipse cx="215.43" cy="304.2369" rx="11" ry="11" fill="none" style="stroke:#222222;stroke-width:1.5;"/><ellipse cx="215.43" cy="304.2369" rx="6" ry="6" fill="#222222" style="stroke:#222222;stroke-width:1;"/></g><!--link start to active--><g class="link" data-entity-1="ent0001" data-entity-2="ent0002" id="lnk3" data-source-line="3" data-link-type="dependency"><path d="M205.97,57.3069 C194.32,61.4469 174.56,69.9469 162.43,83.2969 C150.35,96.5969 144.4916,111.3058 140.5916,125.0858" style="stroke:#181818;stroke-width:1;" fill="none" id="start-to-active"/><polygon points="139.23,129.8969,145.5297,122.3263,140.5916,125.0858,137.8321,120.1477,139.23,129.8969" fill="#181818" style="stroke:#181818;stroke-width:1;stroke-linejoin:miter;stroke-miterlimit:10;"/><text x="163.43" y="101.0073" fill="#000000" font-size="11" lengthAdjust="spacing" textLength="98.2534" font-family="sans-serif">neuer Planeintrag</text></g><!--link start to on-hold--><g class="link" data-entity-1="ent0001" data-entity-2="ent0004" id="lnk5" data-source-line="4" data-link-type="dependency"><path d="M224.57,57.9969 C235.05,62.6169 252.22,71.3869 263.43,83.2969 C276.2,96.8769 283.5583,111.6945 288.9483,125.3845" style="stroke:#181818;stroke-width:1;" fill="none" id="start-to-on-hold"/><polygon points="290.78,130.0369,291.2048,120.1972,288.9483,125.3845,283.761,123.128,290.78,130.0369" fill="#181818" style="stroke:#181818;stroke-width:1;stroke-linejoin:miter;stroke-miterlimit:10;"/><text x="281.43" y="94.5073" fill="#000000" font-size="11" lengthAdjust="spacing" textLength="98.2534" font-family="sans-serif">neuer Planeintrag</text><text x="308.0142" y="107.312" fill="#000000" font-size="11" lengthAdjust="spacing" textLength="45.085" font-family="sans-serif">pausiert</text></g><!--reverse link active to on-hold--><g class="link" data-entity-1="ent0002" data-entity-2="ent0004" id="lnk7" data-source-line="5" data-link-type="dependency"><path d="M168.84,147.2869 C196.74,147.2869 234.25,147.2869 263.58,147.2869" style="stroke:#181818;stroke-width:1;" fill="none" id="active-backto-on-hold"/><polygon points="163.84,147.2869,172.84,151.2869,168.84,147.2869,172.84,143.2869,163.84,147.2869" fill="#181818" style="stroke:#181818;stroke-width:1;stroke-linejoin:miter;stroke-miterlimit:10;"/><text x="188.2363" y="141.4973" fill="#000000" font-size="11" lengthAdjust="spacing" textLength="55.0752" font-family="sans-serif">aktivieren</text></g><!--link active to on-hold--><g class="link" data-entity-1="ent0002" data-entity-2="ent0004" id="lnk16" data-source-line="11" data-link-type="dependency"><path d="M163.87,161.4369 C167.14,162.5969 170.48,163.5869 173.75,164.2869 C208.54,171.6569 218.83,170.9869 253.75,164.2869 C257.04,163.6569 255.6245,164.2484 258.9445,163.2184" style="stroke:#181818;stroke-width:1;" fill="none" id="active-to-on-hold"/><polygon points="263.72,161.7369,253.9389,160.5833,258.9445,163.2184,256.3094,168.224,263.72,161.7369" fill="#181818" style="stroke:#181818;stroke-width:1;stroke-linejoin:miter;stroke-miterlimit:10;"/><text x="188.7363" y="161.4973" fill="#000000" font-size="11" lengthAdjust="spacing" textLength="54.5112" font-family="sans-serif">pausieren</text></g><!--link on-hold to stopped--><g class="link" data-entity-1="ent0004" data-entity-2="ent0008" id="lnk9" data-source-line="6" data-link-type="dependency"><path d="M263.84,155.9969 C240.33,162.1469 208.16,171.7969 181.43,184.2669 C175.82,186.8869 152.911,201.7047 132.221,215.2747" style="stroke:#181818;stroke-width:1;" fill="none" id="on-hold-to-stopped"/><polygon points="128.04,218.0169,137.7595,216.4257,132.221,215.2747,133.372,209.7362,128.04,218.0169" fill="#181818" style="stroke:#181818;stroke-width:1;stroke-linejoin:miter;stroke-miterlimit:10;"/><text x="182.43" y="195.4773" fill="#000000" font-size="11" lengthAdjust="spacing" textLength="50.0479" font-family="sans-serif">absetzen</text></g><!--link on-hold to completed--><g class="link" data-entity-1="ent0004" data-entity-2="ent0010" id="lnk11" data-source-line="7" data-link-type="dependency"><path d="M329.43,151.2169 C351.24,155.0769 378.34,163.9369 392.43,184.2669 C401.43,197.2469 393.7826,206.5339 378.5426,215.3939" style="stroke:#181818;stroke-width:1;" fill="none" id="on-hold-to-completed"/><polygon points="374.22,217.9069,384.0111,216.8415,378.5426,215.3939,379.9903,209.9254,374.22,217.9069" fill="#181818" style="stroke:#181818;stroke-width:1;stroke-linejoin:miter;stroke-miterlimit:10;"/><text x="396.43" y="195.4773" fill="#000000" font-size="11" lengthAdjust="spacing" textLength="48.2109" font-family="sans-serif">beenden</text></g><!--link on-hold to entered-in-error--><g class="link" data-entity-1="ent0004" data-entity-2="ent0012" id="lnk13" data-source-line="8" data-link-type="dependency"><path d="M306.88,164.3169 C312.24,174.7469 316.34,188.2169 309.43,198.2669 C304.65,205.2169 294.8284,210.3545 278.5684,216.1645" style="stroke:#181818;stroke-width:1;" fill="none" id="on-hold-to-entered-in-error"/><polygon points="273.86,217.8469,283.6811,218.5853,278.5684,216.1645,280.9893,211.0518,273.86,217.8469" fill="#181818" style="stroke:#181818;stroke-width:1;stroke-linejoin:miter;stroke-miterlimit:10;"/><text x="313.43" y="195.4773" fill="#000000" font-size="11" lengthAdjust="spacing" textLength="56.3535" font-family="sans-serif">stornieren</text></g><!--link active to stopped--><g class="link" data-entity-1="ent0002" data-entity-2="ent0008" id="lnk14" data-source-line="9" data-link-type="dependency"><path d="M106.88,148.4169 C79.94,150.2669 40.88,157.7369 21.43,184.2669 C6,205.3169 35.2493,218.0167 64.0793,225.7167" style="stroke:#181818;stroke-width:1;" fill="none" id="active-to-stopped"/><polygon points="68.91,227.0069,61.2469,220.82,64.0793,225.7167,59.1826,228.5491,68.91,227.0069" fill="#181818" style="stroke:#181818;stroke-width:1;stroke-linejoin:miter;stroke-miterlimit:10;"/><text x="22.43" y="195.4773" fill="#000000" font-size="11" lengthAdjust="spacing" textLength="50.0479" font-family="sans-serif">absetzen</text></g><!--link active to completed--><g class="link" data-entity-1="ent0002" data-entity-2="ent0010" id="lnk15" data-source-line="10" data-link-type="dependency"><path d="M164,156.4769 C184.24,162.7969 211.72,172.4569 234.43,184.2669 C244.05,189.2769 244.98,192.9269 254.43,198.2669 C267.02,205.3869 276.7077,210.1263 289.7177,215.8063" style="stroke:#181818;stroke-width:1;" fill="none" id="active-to-completed"/><polygon points="294.3,217.8069,287.6523,210.54,289.7177,215.8063,284.4514,217.8717,294.3,217.8069" fill="#181818" style="stroke:#181818;stroke-width:1;stroke-linejoin:miter;stroke-miterlimit:10;"/><text x="255.43" y="195.4773" fill="#000000" font-size="11" lengthAdjust="spacing" textLength="48.2109" font-family="sans-serif">beenden</text></g><!--link active to entered-in-error--><g class="link" data-entity-1="ent0002" data-entity-2="ent0012" id="lnk17" data-source-line="12" data-link-type="dependency"><path d="M111.04,164.7069 C99.61,174.4569 90.15,187.0669 98.43,198.2669 C102.33,203.5469 124.8665,210.7901 152.1565,218.2401" style="stroke:#181818;stroke-width:1;" fill="none" id="active-to-entered-in-error"/><polygon points="156.98,219.5569,149.3511,213.3279,152.1565,218.2401,147.2443,221.0455,156.98,219.5569" fill="#181818" style="stroke:#181818;stroke-width:1;stroke-linejoin:miter;stroke-miterlimit:10;"/><text x="99.43" y="195.4773" fill="#000000" font-size="11" lengthAdjust="spacing" textLength="56.3535" font-family="sans-serif">stornieren</text></g><!--link stopped to end--><g class="link" data-entity-1="ent0008" data-entity-2="ent0018" id="lnk19" data-source-line="13" data-link-type="dependency"><path d="M130.83,252.6369 C155.31,267.2769 185.4595,285.3094 201.8195,295.0994" style="stroke:#181818;stroke-width:1;" fill="none" id="stopped-to-end"/><polygon points="206.11,297.6669,200.4411,289.6131,201.8195,295.0994,196.3332,296.4778,206.11,297.6669" fill="#181818" style="stroke:#181818;stroke-width:1;stroke-linejoin:miter;stroke-miterlimit:10;"/></g><!--link entered-in-error to end--><g class="link" data-entity-1="ent0012" data-entity-2="ent0018" id="lnk20" data-source-line="14" data-link-type="dependency"><path d="M215.43,252.4669 C215.43,265.0169 215.43,277.0069 215.43,287.8069" style="stroke:#181818;stroke-width:1;" fill="none" id="entered-in-error-to-end"/><polygon points="215.43,292.8069,219.43,283.8069,215.43,287.8069,211.43,283.8069,215.43,292.8069" fill="#181818" style="stroke:#181818;stroke-width:1;stroke-linejoin:miter;stroke-miterlimit:10;"/></g><!--link completed to end--><g class="link" data-entity-1="ent0010" data-entity-2="ent0018" id="lnk21" data-source-line="15" data-link-type="dependency"><path d="M306.07,252.6369 C279.57,267.4369 246.526,285.8801 229.236,295.5301" style="stroke:#181818;stroke-width:1;" fill="none" id="completed-to-end"/><polygon points="224.87,297.9669,234.6783,297.0735,229.236,295.5301,230.7794,290.0878,224.87,297.9669" fill="#181818" style="stroke:#181818;stroke-width:1;stroke-linejoin:miter;stroke-miterlimit:10;"/></g><?plantuml-src XP0z3i8m38NtdCBg14ZX2Dm02R52XxHvWeZWbCHbuFG4Q2ce_6HoxC_lsHOd7hI4TRKH5tYDKuiayoH6saIJbJSCnnBDRghKP3ObRVM2DemMaLwg9PbQt1c_c2qtfaqEKKeg0kjzyBPGpuYqlxLHVkQGjJ88pfzUcbxHkuEf4kG2BYb9Q1hO4L41R6z07OwDXtn0SclakrUU2YmvijgnHemX5ghp_cRuLXwx4Js9s2_N7Q7RRJZ4czIVgJhx1vnFhiRCK1kcwLDN?></g></svg>