<?xml version="1.0" encoding="us-ascii" standalone="no"?><svg xmlns="http://www.w3.org/2000/svg" xmlns:xlink="http://www.w3.org/1999/xlink" contentStyleType="text/css" height="461px" preserveAspectRatio="none" style="width:325px;height:461px;background:#FFFFFF;" version="1.1" viewBox="0 0 325 461" width="325px" zoomAndPan="magnify"><defs/><g><text fill="#000000" font-family="sans-serif" font-size="14" font-weight="bold" lengthAdjust="spacing" textLength="233" x="39.42" y="23.5352">List.entry.flag (Medikationsplan)</text><ellipse cx="106.99" cy="53.4883" fill="#222222" rx="10" ry="10" style="stroke:#222222;stroke-width:1.0;"/><rect fill="#F1F1F1" height="34.1328" rx="12.5" ry="12.5" style="stroke:#181818;stroke-width:0.5;" width="43" x="85.49" y="130.4883"/><text fill="#000000" font-family="sans-serif" font-size="12" lengthAdjust="spacing" textLength="23" x="95.49" y="152.0898">new</text><rect fill="#F1F1F1" height="34.1328" rx="12.5" ry="12.5" style="stroke:#181818;stroke-width:0.5;" width="83" x="65.49" y="244.6183"/><text fill="#000000" font-family="sans-serif" font-size="12" lengthAdjust="spacing" textLength="63" x="75.49" y="266.2198">unchanged</text><rect fill="#F1F1F1" height="34.1328" rx="12.5" ry="12.5" style="stroke:#181818;stroke-width:0.5;" width="69" x="29.49" y="358.7583"/><text fill="#000000" font-family="sans-serif" font-size="12" lengthAdjust="spacing" textLength="49" x="39.49" y="380.3598">changed</text><rect fill="#F1F1F1" height="34.1328" rx="12.5" ry="12.5" style="stroke:#181818;stroke-width:0.5;" width="71" x="228.49" y="358.7583"/><text fill="#000000" font-family="sans-serif" font-size="12" lengthAdjust="spacing" textLength="51" x="238.49" y="380.3598">removed</text><ellipse cx="263.99" cy="444.8883" fill="none" rx="11" ry="11" style="stroke:#222222;stroke-width:1.0;"/><ellipse cx="263.99" cy="444.8883" fill="#222222" rx="6" ry="6" style="stroke:#222222;stroke-width:1.0;"/><!--link start to new--><g id="link_start_new"><path d="M106.99,63.6583 C106.99,79.1183 106.99,104.5983 106.99,124.0083 " fill="none" id="start-to-new" style="stroke:#181818;stroke-width:1.0;"/><polygon fill="#181818" points="106.99,130.0083,110.99,121.0083,106.99,125.0083,102.99,121.0083,106.99,130.0083" style="stroke:#181818;stroke-width:1.0;"/><text fill="#000000" font-family="sans-serif" font-size="11" lengthAdjust="spacing" textLength="97" x="107.99" y="95.123">Neuen Planeintrag</text><text fill="#000000" font-family="sans-serif" font-size="11" lengthAdjust="spacing" textLength="61" x="125.99" y="108.0781">hinzuf&#252;gen</text></g><!--link new to unchanged--><g id="link_new_unchanged"><path d="M106.99,165.0983 C106.99,186.4283 106.99,217.2583 106.99,238.4383 " fill="none" id="new-to-unchanged" style="stroke:#181818;stroke-width:1.0;"/><polygon fill="#181818" points="106.99,244.4383,110.99,235.4383,106.99,239.4383,102.99,235.4383,106.99,244.4383" style="stroke:#181818;stroke-width:1.0;"/><text fill="#000000" font-family="sans-serif" font-size="11" lengthAdjust="spacing" textLength="87" x="129.49" y="196.253">Automatisch bei</text><text fill="#000000" font-family="sans-serif" font-size="11" lengthAdjust="spacing" textLength="54" x="145.99" y="209.2081">Plan-Read</text><text fill="#000000" font-family="sans-serif" font-size="11" lengthAdjust="spacing" textLength="130" x="107.99" y="222.1632">(durch Fachanwendung)</text></g><!--link changed to unchanged--><g id="link_changed_unchanged"><path d="M73.33,358.5983 C76.63,352.4983 80.21,345.4183 82.99,338.7583 C91.36,318.6883 96.9069,300.4157 101.1769,284.8057 " fill="none" id="changed-to-unchanged" style="stroke:#181818;stroke-width:1.0;"/><polygon fill="#181818" points="102.76,279.0183,96.5271,286.644,101.4408,283.8411,104.2436,288.7548,102.76,279.0183" style="stroke:#181818;stroke-width:1.0;"/><text fill="#000000" font-family="sans-serif" font-size="11" lengthAdjust="spacing" textLength="87" x="119.24" y="310.393">Automatisch bei</text><text fill="#000000" font-family="sans-serif" font-size="11" lengthAdjust="spacing" textLength="54" x="135.74" y="323.3481">Plan-Read</text><text fill="#000000" font-family="sans-serif" font-size="11" lengthAdjust="spacing" textLength="130" x="97.74" y="336.3032">(durch Fachanwendung)</text></g><!--link unchanged to changed--><g id="link_unchanged_changed"><path d="M65.05,268.6183 C46.79,273.5183 27.07,282.4483 15.99,298.7583 C6,313.4583 8.05,322.8483 15.99,338.7583 C19.91,346.5883 21.6414,349.5399 28.6214,354.8399 " fill="none" id="unchanged-to-changed" style="stroke:#181818;stroke-width:1.0;"/><polygon fill="#181818" points="33.4,358.4683,28.6511,349.84,29.4179,355.4446,23.8132,356.2114,33.4,358.4683" style="stroke:#181818;stroke-width:1.0;"/><text fill="#000000" font-family="sans-serif" font-size="11" lengthAdjust="spacing" textLength="60" x="16.99" y="316.893">Planeintrag</text><text fill="#000000" font-family="sans-serif" font-size="11" lengthAdjust="spacing" textLength="38" x="27.99" y="329.8481">&#228;ndern</text></g><!--link unchanged to removed--><g id="link_unchanged_removed"><path d="M148.72,265.1583 C175.98,268.8283 210.72,277.6783 233.99,298.7583 C251.25,314.3883 257.6394,335.3046 260.7694,352.5646 " fill="none" id="unchanged-to-removed" style="stroke:#181818;stroke-width:1.0;"/><polygon fill="#181818" points="261.84,358.4683,264.1699,348.899,260.9478,353.5485,256.2983,350.3264,261.84,358.4683" style="stroke:#181818;stroke-width:1.0;"/><text fill="#000000" font-family="sans-serif" font-size="11" lengthAdjust="spacing" textLength="60" x="257.84" y="316.893">Planeintrag</text><text fill="#000000" font-family="sans-serif" font-size="11" lengthAdjust="spacing" textLength="52" x="261.84" y="329.8481">entfernen</text></g><!--link removed to end--><g id="link_removed_end"><path d="M263.99,393.0583 C263.99,405.6183 263.99,416.6383 263.99,427.4383 " fill="none" id="removed-to-end" style="stroke:#181818;stroke-width:1.0;"/><polygon fill="#181818" points="263.99,433.4383,267.99,424.4383,263.99,428.4383,259.99,424.4383,263.99,433.4383" style="stroke:#181818;stroke-width:1.0;"/></g><!--SRC=[hP0z3i8m38NtdC9ZYvGU0Oc52H1YfHr2uwOHhOlIX0hEmp7OUZ4SjK92C39O_j7dfsTxwnk4ZUrzXkJTBQiQPI3PehPdvMr7_QLHb0gHB5AGMYxXkCE017iUe-KLPNAgBTr3DJuDKW64W-006U5Ly5tBGdrPmmbjJd5F7b3fd18T78_NggmL3KWwa4aB21HxWrhC-GzAxshI-Z0_FaYZO-C_OFr5yvSgfkEX3jlkoloSOSBvKIy0]--></g></svg>