<?xml version="1.0" encoding="us-ascii" standalone="no"?><svg xmlns="http://www.w3.org/2000/svg" xmlns:xlink="http://www.w3.org/1999/xlink" contentStyleType="text/css" height="327px" preserveAspectRatio="none" style="width:306px;height:327px;background:#FFFFFF;" version="1.1" viewBox="0 0 306 327" width="306px" zoomAndPan="magnify"><defs/><g><text fill="#000000" font-family="sans-serif" font-size="14" font-weight="bold" lengthAdjust="spacing" textLength="278" x="10" y="24.5332">MedicationRequest.status (Planeintrag)</text><ellipse cx="140.85" cy="54.6094" fill="#222222" rx="10" ry="10" style="stroke:#222222;stroke-width:1.0;"/><rect fill="#F1F1F1" height="35.0938" rx="12.5" ry="12.5" style="stroke:#181818;stroke-width:0.5;" width="51" x="42.35" y="133.6094"/><text fill="#000000" font-family="sans-serif" font-size="12" lengthAdjust="spacing" textLength="31" x="52.35" y="156.0664">active</text><rect fill="#F1F1F1" height="35.0938" rx="12.5" ry="12.5" style="stroke:#181818;stroke-width:0.5;" width="62" x="183.85" y="133.6094"/><text fill="#000000" font-family="sans-serif" font-size="12" lengthAdjust="spacing" textLength="42" x="193.85" y="156.0664">on-hold</text><rect fill="#F1F1F1" height="35.0938" rx="12.5" ry="12.5" style="stroke:#181818;stroke-width:0.5;" width="65" x="56.35" y="223.6094"/><text fill="#000000" font-family="sans-serif" font-size="12" lengthAdjust="spacing" textLength="45" x="66.35" y="246.0664">stopped</text><rect fill="#F1F1F1" height="35.0938" rx="12.5" ry="12.5" style="stroke:#181818;stroke-width:0.5;" width="106" x="141.85" y="223.6094"/><text fill="#000000" font-family="sans-serif" font-size="12" lengthAdjust="spacing" textLength="86" x="151.85" y="246.0664">entered-in-error</text><ellipse cx="140.85" cy="310.6094" fill="none" rx="11" ry="11" style="stroke:#222222;stroke-width:1.0;"/><ellipse cx="140.85" cy="310.6094" fill="#222222" rx="6" ry="6" style="stroke:#222222;stroke-width:1.0;"/><!--link start to active--><g id="link_start_active"><path d="M131.9,59.2294 C121.68,63.7794 105.06,72.4794 94.85,84.6094 C82.81,98.9094 77.1407,113.5341 73.2307,127.7541 " fill="none" id="start-to-active" style="stroke:#181818;stroke-width:1.0;"/><polygon fill="#181818" points="71.64,133.5394,77.883,125.9219,72.9656,128.7183,70.1693,123.8009,71.64,133.5394" style="stroke:#181818;stroke-width:1.0;"/><text fill="#000000" font-family="sans-serif" font-size="11" lengthAdjust="spacing" textLength="84" x="95.85" y="104.0283">neuer Planeintrag</text></g><!--link start to on-hold--><g id="link_start_on-hold"><path d="M149.31,59.9594 C158.32,64.9194 172.52,73.7794 181.85,84.6094 C194.4,99.1794 201.4534,113.7542 206.9134,127.8542 " fill="none" id="start-to-on-hold" style="stroke:#181818;stroke-width:1.0;"/><polygon fill="#181818" points="209.08,133.4494,209.5602,123.6122,207.2745,128.7868,202.1,126.5011,209.08,133.4494" style="stroke:#181818;stroke-width:1.0;"/><text fill="#000000" font-family="sans-serif" font-size="11" lengthAdjust="spacing" textLength="84" x="200.85" y="97.0283">neuer Planeintrag</text><text fill="#000000" font-family="sans-serif" font-size="11" lengthAdjust="spacing" textLength="39" x="223.35" y="110.8643">pausiert</text></g><!--reverse link active to on-hold--><g id="link_active_on-hold"><path d="M98.9808,167.8914 C102.4708,169.3414 100.54,168.2794 104.1,169.1094 C133.96,176.1094 143.07,175.3094 173.1,169.1094 C176.66,168.3794 180.28,167.3194 183.84,166.0894 " fill="none" id="active-backto-on-hold" style="stroke:#181818;stroke-width:1.0;"/><polygon fill="#181818" points="93.44,165.5894,100.2165,172.7363,98.0573,167.5078,103.2859,165.3486,93.44,165.5894" style="stroke:#181818;stroke-width:1.0;"/><text fill="#000000" font-family="sans-serif" font-size="11" lengthAdjust="spacing" textLength="46" x="117.1" y="166.5283">aktivieren</text></g><!--link active to on-hold--><g id="link_active_on-hold"><path d="M93.46,151.1094 C118.54,151.1094 150.82,151.1094 177.67,151.1094 " fill="none" id="active-to-on-hold" style="stroke:#181818;stroke-width:1.0;"/><polygon fill="#181818" points="183.67,151.1094,174.67,147.1094,178.67,151.1094,174.67,155.1094,183.67,151.1094" style="stroke:#181818;stroke-width:1.0;"/><text fill="#000000" font-family="sans-serif" font-size="11" lengthAdjust="spacing" textLength="48" x="116.1" y="145.5283">pausieren</text></g><!--link on-hold to stopped--><g id="link_on-hold_stopped"><path d="M197.86,168.7194 C186.5,179.3694 170.91,193.1194 155.85,203.6094 C145.09,211.0994 137.9299,215.4466 126.6999,221.4066 " fill="none" id="on-hold-to-stopped" style="stroke:#181818;stroke-width:1.0;"/><polygon fill="#181818" points="121.4,224.2194,131.2249,223.5335,125.8165,221.8754,127.4746,216.467,121.4,224.2194" style="stroke:#181818;stroke-width:1.0;"/><text fill="#000000" font-family="sans-serif" font-size="11" lengthAdjust="spacing" textLength="45" x="175.85" y="201.0283">absetzen</text></g><!--link on-hold to entered-in-error--><g id="link_on-hold_entered-in-error"><path d="M224.12,168.6594 C228.63,178.9094 232.22,192.2494 227.85,203.6094 C225.03,210.9394 224.0754,213.3438 218.7554,219.0138 " fill="none" id="on-hold-to-entered-in-error" style="stroke:#181818;stroke-width:1.0;"/><polygon fill="#181818" points="214.65,223.3894,223.7252,219.563,218.0712,219.7431,217.8911,214.0891,214.65,223.3894" style="stroke:#181818;stroke-width:1.0;"/><text fill="#000000" font-family="sans-serif" font-size="11" lengthAdjust="spacing" textLength="49" x="229.85" y="201.0283">stornieren</text></g><!--link active to stopped--><g id="link_active_stopped"><path d="M44.82,168.6694 C34.15,178.4894 25.15,191.3594 31.85,203.6094 C37.26,213.5094 41.4591,218.0661 51.0591,223.7161 " fill="none" id="active-to-stopped" style="stroke:#181818;stroke-width:1.0;"/><polygon fill="#181818" points="56.23,226.7594,50.5025,218.7472,51.9209,224.2233,46.4448,225.6417,56.23,226.7594" style="stroke:#181818;stroke-width:1.0;"/><text fill="#000000" font-family="sans-serif" font-size="11" lengthAdjust="spacing" textLength="45" x="32.85" y="201.0283">absetzen</text></g><!--link active to entered-in-error--><g id="link_active_entered-in-error"><path d="M74.84,168.9494 C80.23,180.1094 88.65,194.3494 99.85,203.6094 C111.97,213.6294 121.5208,218.986 136.1608,224.466 " fill="none" id="active-to-entered-in-error" style="stroke:#181818;stroke-width:1.0;"/><polygon fill="#181818" points="141.78,226.5694,134.7534,219.6682,137.0973,224.8166,131.9489,227.1605,141.78,226.5694" style="stroke:#181818;stroke-width:1.0;"/><text fill="#000000" font-family="sans-serif" font-size="11" lengthAdjust="spacing" textLength="49" x="100.85" y="201.0283">stornieren</text></g><!--link stopped to end--><g id="link_stopped_end"><path d="M101.7,258.7994 C112.17,272.3794 122.8296,286.2153 130.9296,296.7353 " fill="none" id="stopped-to-end" style="stroke:#181818;stroke-width:1.0;"/><polygon fill="#181818" points="134.59,301.4894,132.2687,291.918,131.5396,297.5277,125.93,296.7986,134.59,301.4894" style="stroke:#181818;stroke-width:1.0;"/></g><!--link entered-in-error to end--><g id="link_entered-in-error_end"><path d="M181.5,258.7994 C170.63,272.3794 159.5093,286.285 151.0893,296.805 " fill="none" id="entered-in-error-to-end" style="stroke:#181818;stroke-width:1.0;"/><polygon fill="#181818" points="147.34,301.4894,156.0868,296.9624,150.4644,297.5858,149.841,291.9634,147.34,301.4894" style="stroke:#181818;stroke-width:1.0;"/></g><!--SRC=[XP113i8W44Ntd6BILMk2H_069iQjTe5beaGor65muUd5IckDKLaD_C_x7yI9HrYZTPqH5sYBbuHHbb6Cf0ZrnXj2HyBcs2XLBnhGLgzWHvYGOQQsO3fnL_pbsLDlKdJ8qa8LI9-2jvMQ9j3-SGtoCkVCoaQal1dHCBSE2UOGKMv8BKG9VO_smv7FcGPGZaIIF5djI2Dpu4eLy3VQAFFOg_GljLvlUEFyoIpmfpd_blhqJDeT]--></g></svg>