<?xml version="1.0" encoding="us-ascii" standalone="no"?><svg xmlns="http://www.w3.org/2000/svg" xmlns:xlink="http://www.w3.org/1999/xlink" contentStyleType="text/css" height="321px" preserveAspectRatio="none" style="width:442px;height:321px;background:#FFFFFF;" version="1.1" viewBox="0 0 442 321" width="442px" zoomAndPan="magnify"><defs/><g><text fill="#000000" font-family="sans-serif" font-size="14" font-weight="bold" lengthAdjust="spacing" textLength="282" x="73.155" y="23.5352">MedicationRequest.status (Planeintrag)</text><ellipse cx="216.16" cy="53.4883" fill="#222222" rx="10" ry="10" style="stroke:#222222;stroke-width:1.0;"/><rect fill="#F1F1F1" height="34.1328" rx="12.5" ry="12.5" style="stroke:#181818;stroke-width:0.5;" width="53" x="123.66" y="130.4883"/><text fill="#000000" font-family="sans-serif" font-size="12" lengthAdjust="spacing" textLength="33" x="133.66" y="152.0898">active</text><rect fill="#F1F1F1" height="34.1328" rx="12.5" ry="12.5" style="stroke:#181818;stroke-width:0.5;" width="66" x="251.16" y="130.4883"/><text fill="#000000" font-family="sans-serif" font-size="12" lengthAdjust="spacing" textLength="46" x="261.16" y="152.0898">on-hold</text><rect fill="#F1F1F1" height="34.1328" rx="12.5" ry="12.5" style="stroke:#181818;stroke-width:0.5;" width="118" x="50.16" y="218.6283"/><text fill="#000000" font-family="sans-serif" font-size="12" lengthAdjust="spacing" textLength="98" x="60.16" y="240.2298">entered-in-error</text><rect fill="#F1F1F1" height="34.1328" rx="12.5" ry="12.5" style="stroke:#181818;stroke-width:0.5;" width="68" x="289.16" y="218.6283"/><text fill="#000000" font-family="sans-serif" font-size="12" lengthAdjust="spacing" textLength="48" x="299.16" y="240.2298">stopped</text><rect fill="#F1F1F1" height="34.1328" rx="12.5" ry="12.5" style="stroke:#181818;stroke-width:0.5;" width="81" x="188.66" y="218.6283"/><text fill="#000000" font-family="sans-serif" font-size="12" lengthAdjust="spacing" textLength="61" x="198.66" y="240.2298">completed</text><ellipse cx="229.16" cy="304.7583" fill="none" rx="11" ry="11" style="stroke:#222222;stroke-width:1.0;"/><ellipse cx="229.16" cy="304.7583" fill="#222222" rx="6" ry="6" style="stroke:#222222;stroke-width:1.0;"/><!--link start to active--><g id="link_start_active"><path d="M206.28,56.5583 C193.21,59.8483 170.53,67.5983 159.16,83.4883 C149.51,96.9883 147.8743,110.3218 148.3443,124.0218 " fill="none" id="start-to-active" style="stroke:#181818;stroke-width:1.0;"/><polygon fill="#181818" points="148.55,130.0183,152.2391,120.8864,148.3786,125.0212,144.2438,121.1607,148.55,130.0183" style="stroke:#181818;stroke-width:1.0;"/><text fill="#000000" font-family="sans-serif" font-size="11" lengthAdjust="spacing" textLength="94" x="160.16" y="101.623">neuer Planeintrag</text></g><!--link start to on-hold--><g id="link_start_on-hold"><path d="M224.85,58.9783 C233.72,63.9483 247.42,72.6983 256.16,83.4883 C267.47,97.4583 273.2831,111.0029 277.6931,124.5529 " fill="none" id="start-to-on-hold" style="stroke:#181818;stroke-width:1.0;"/><polygon fill="#181818" points="279.55,130.2583,280.5683,120.4622,278.0026,125.5038,272.961,122.9381,279.55,130.2583" style="stroke:#181818;stroke-width:1.0;"/><text fill="#000000" font-family="sans-serif" font-size="11" lengthAdjust="spacing" textLength="94" x="272.5" y="95.123">neuer Planeintrag</text><text fill="#000000" font-family="sans-serif" font-size="11" lengthAdjust="spacing" textLength="44" x="297.5" y="108.0781">pausiert</text></g><!--reverse link active to on-hold--><g id="link_active_on-hold"><path d="M182.6215,163.6556 C185.8915,164.8756 183.62,163.8383 186.91,164.5583 C210.35,169.7183 217.33,169.0283 240.91,164.5583 C244.24,163.9283 247.64,163.0483 251,162.0183 " fill="none" id="active-backto-on-hold" style="stroke:#181818;stroke-width:1.0;"/><polygon fill="#181818" points="177,161.5583,184.034,168.4519,181.6846,163.306,186.8305,160.9566,177,161.5583" style="stroke:#181818;stroke-width:1.0;"/><text fill="#000000" font-family="sans-serif" font-size="11" lengthAdjust="spacing" textLength="52" x="187.91" y="162.193">aktivieren</text></g><!--link active to on-hold--><g id="link_active_on-hold"><path d="M176.96,147.5583 C198.19,147.5583 221.97,147.5583 244.76,147.5583 " fill="none" id="active-to-on-hold" style="stroke:#181818;stroke-width:1.0;"/><polygon fill="#181818" points="250.76,147.5583,241.76,143.5583,245.76,147.5583,241.76,151.5583,250.76,147.5583" style="stroke:#181818;stroke-width:1.0;"/><text fill="#000000" font-family="sans-serif" font-size="11" lengthAdjust="spacing" textLength="53" x="187.41" y="142.193">pausieren</text></g><!--link on-hold to entered-in-error--><g id="link_on-hold_entered-in-error"><path d="M250.72,155.7683 C227.51,161.5883 196.37,171.0483 171.16,184.6283 C162.09,189.5183 147.1303,201.7574 132.4003,214.4174 " fill="none" id="on-hold-to-entered-in-error" style="stroke:#181818;stroke-width:1.0;"/><polygon fill="#181818" points="127.85,218.3283,137.2827,215.4955,131.6419,215.0692,132.0682,209.4285,127.85,218.3283" style="stroke:#181818;stroke-width:1.0;"/><text fill="#000000" font-family="sans-serif" font-size="11" lengthAdjust="spacing" textLength="56" x="172.16" y="196.263">stornieren</text></g><!--link on-hold to stopped--><g id="link_on-hold_stopped"><path d="M317.35,151.2383 C339.7,154.9783 367.64,163.8083 382.16,184.6283 C392.46,199.3883 381.1919,209.7456 362.9819,218.8056 " fill="none" id="on-hold-to-stopped" style="stroke:#181818;stroke-width:1.0;"/><polygon fill="#181818" points="357.61,221.4783,367.4496,221.0505,362.0866,219.2511,363.886,213.8881,357.61,221.4783" style="stroke:#181818;stroke-width:1.0;"/><text fill="#000000" font-family="sans-serif" font-size="11" lengthAdjust="spacing" textLength="48" x="386.31" y="196.263">absetzen</text></g><!--link on-hold to completed--><g id="link_on-hold_completed"><path d="M300.98,164.8383 C309.26,174.8783 316.12,187.8583 309.16,198.6283 C304.33,206.1083 292.7928,212.1156 275.6228,218.7856 " fill="none" id="on-hold-to-completed" style="stroke:#181818;stroke-width:1.0;"/><polygon fill="#181818" points="270.03,220.9583,279.8677,221.4279,274.6907,219.1478,276.9708,213.9708,270.03,220.9583" style="stroke:#181818;stroke-width:1.0;"/><text fill="#000000" font-family="sans-serif" font-size="11" lengthAdjust="spacing" textLength="46" x="313.02" y="196.263">beenden</text></g><!--link active to stopped--><g id="link_active_stopped"><path d="M176.93,158.4283 C193.77,165.0183 215.72,174.3583 234.16,184.6283 C243.64,189.9083 244.89,192.9883 254.16,198.6283 C265.48,205.5083 272.9155,209.6618 284.3555,215.5518 " fill="none" id="active-to-stopped" style="stroke:#181818;stroke-width:1.0;"/><polygon fill="#181818" points="289.69,218.2983,283.5193,210.6222,285.2446,216.0095,279.8573,217.7348,289.69,218.2983" style="stroke:#181818;stroke-width:1.0;"/><text fill="#000000" font-family="sans-serif" font-size="11" lengthAdjust="spacing" textLength="48" x="255.16" y="196.263">absetzen</text></g><!--link active to completed--><g id="link_active_completed"><path d="M123.19,161.8583 C107.19,171.5483 91.87,185.2783 102.16,198.6283 C123.49,226.2883 144.61,208.9283 178.16,218.6283 C181.46,219.5783 179.1396,218.8426 182.5596,219.8826 " fill="none" id="active-to-completed" style="stroke:#181818;stroke-width:1.0;"/><polygon fill="#181818" points="188.3,221.6283,180.8531,215.1829,183.5163,220.1736,178.5256,222.8368,188.3,221.6283" style="stroke:#181818;stroke-width:1.0;"/><text fill="#000000" font-family="sans-serif" font-size="11" lengthAdjust="spacing" textLength="46" x="103.16" y="196.263">beenden</text></g><!--link active to entered-in-error--><g id="link_active_entered-in-error"><path d="M123.17,152.1283 C88.62,157.3183 31.71,168.1583 19.16,184.6283 C6,201.9083 19.9023,212.1778 44.1423,220.1778 " fill="none" id="active-to-entered-in-error" style="stroke:#181818;stroke-width:1.0;"/><polygon fill="#181818" points="49.84,222.0583,42.547,215.4392,45.0919,220.4913,40.0398,223.0361,49.84,222.0583" style="stroke:#181818;stroke-width:1.0;"/><text fill="#000000" font-family="sans-serif" font-size="11" lengthAdjust="spacing" textLength="56" x="20.16" y="196.263">stornieren</text></g><!--link stopped to end--><g id="link_stopped_end"><path d="M300.41,252.9283 C280.2,267.3483 256.635,284.1645 242.585,294.1845 " fill="none" id="stopped-to-end" style="stroke:#181818;stroke-width:1.0;"/><polygon fill="#181818" points="237.7,297.6683,247.35,295.6992,241.7708,294.7651,242.7049,289.1859,237.7,297.6683" style="stroke:#181818;stroke-width:1.0;"/></g><!--link entered-in-error to end--><g id="link_entered-in-error_end"><path d="M138.52,253.0983 C165.03,267.9083 197.2034,285.8895 214.4934,295.5595 " fill="none" id="entered-in-error-to-end" style="stroke:#181818;stroke-width:1.0;"/><polygon fill="#181818" points="219.73,298.4883,213.8276,290.604,215.3661,296.0476,209.9225,297.5862,219.73,298.4883" style="stroke:#181818;stroke-width:1.0;"/></g><!--link completed to end--><g id="link_completed_end"><path d="M229.16,252.9283 C229.16,265.4883 229.16,276.5083 229.16,287.3083 " fill="none" id="completed-to-end" style="stroke:#181818;stroke-width:1.0;"/><polygon fill="#181818" points="229.16,293.3083,233.16,284.3083,229.16,288.3083,225.16,284.3083,229.16,293.3083" style="stroke:#181818;stroke-width:1.0;"/></g><!--SRC=[XP1B3i8m34JtFONL5I258t039CGMkaYR4KG4foGk2qvF2gKVLS3EohmPUo9M76WBOoijrlCUjmPHrb6qD94MEwSPbYNeqpBB5gibAQCsT60q23HI2zALs3j-CKUkTHCjWXIKUrPdxqoUzHCfrzhq9UKa2Fp9f37pYexY0tTC3fOq6MLP8GGVyXckomXvj70orZNCZ2W1DYrG-Mlj80dfTdzBcCXpEr5FX9RechyExgjFClvqwlQ-uVJ9sPmPjE6CpzCJ]--></g></svg>