<?xml version="1.0" encoding="us-ascii" standalone="no"?><svg xmlns="http://www.w3.org/2000/svg" xmlns:xlink="http://www.w3.org/1999/xlink" contentStyleType="text/css" height="473px" preserveAspectRatio="none" style="width:303px;height:473px;background:#FFFFFF;" version="1.1" viewBox="0 0 303 473" width="303px" zoomAndPan="magnify"><defs/><g><text fill="#000000" font-family="sans-serif" font-size="14" font-weight="bold" lengthAdjust="spacing" textLength="225" x="32.24" y="24.5332">List.entry.flag (Medikationsplan)</text><ellipse cx="100.48" cy="54.6094" fill="#222222" rx="10" ry="10" style="stroke:#222222;stroke-width:1.0;"/><rect fill="#F1F1F1" height="35.0938" rx="12.5" ry="12.5" style="stroke:#181818;stroke-width:0.5;" width="43" x="78.98" y="133.6094"/><text fill="#000000" font-family="sans-serif" font-size="12" lengthAdjust="spacing" textLength="23" x="88.98" y="156.0664">new</text><rect fill="#F1F1F1" height="35.0938" rx="12.5" ry="12.5" style="stroke:#181818;stroke-width:0.5;" width="82" x="59.48" y="251.6094"/><text fill="#000000" font-family="sans-serif" font-size="12" lengthAdjust="spacing" textLength="62" x="69.48" y="274.0664">unchanged</text><rect fill="#F1F1F1" height="35.0938" rx="12.5" ry="12.5" style="stroke:#181818;stroke-width:0.5;" width="68" x="26.48" y="369.6094"/><text fill="#000000" font-family="sans-serif" font-size="12" lengthAdjust="spacing" textLength="48" x="36.48" y="392.0664">changed</text><rect fill="#F1F1F1" height="35.0938" rx="12.5" ry="12.5" style="stroke:#181818;stroke-width:0.5;" width="68" x="214.48" y="369.6094"/><text fill="#000000" font-family="sans-serif" font-size="12" lengthAdjust="spacing" textLength="48" x="224.48" y="392.0664">removed</text><ellipse cx="248.48" cy="456.6094" fill="none" rx="11" ry="11" style="stroke:#222222;stroke-width:1.0;"/><ellipse cx="248.48" cy="456.6094" fill="#222222" rx="6" ry="6" style="stroke:#222222;stroke-width:1.0;"/><!--link start to new--><g id="link_start_new"><path d="M100.48,64.6694 C100.48,80.4694 100.48,107.2794 100.48,127.3294 " fill="none" id="start-to-new" style="stroke:#181818;stroke-width:1.0;"/><polygon fill="#181818" points="100.48,133.3294,104.48,124.3294,100.48,128.3294,96.48,124.3294,100.48,133.3294" style="stroke:#181818;stroke-width:1.0;"/><text fill="#000000" font-family="sans-serif" font-size="11" lengthAdjust="spacing" textLength="87" x="101.48" y="97.0283">Neuen Planeintrag</text><text fill="#000000" font-family="sans-serif" font-size="11" lengthAdjust="spacing" textLength="54" x="117.98" y="110.8643">hinzuf&#252;gen</text></g><!--link new to unchanged--><g id="link_new_unchanged"><path d="M100.48,168.7294 C100.48,190.7794 100.48,223.4794 100.48,245.5194 " fill="none" id="new-to-unchanged" style="stroke:#181818;stroke-width:1.0;"/><polygon fill="#181818" points="100.48,251.5194,104.48,242.5194,100.48,246.5194,96.48,242.5194,100.48,251.5194" style="stroke:#181818;stroke-width:1.0;"/><text fill="#000000" font-family="sans-serif" font-size="11" lengthAdjust="spacing" textLength="77" x="123.48" y="201.0283">Automatisch bei</text><text fill="#000000" font-family="sans-serif" font-size="11" lengthAdjust="spacing" textLength="49" x="137.48" y="214.8643">Plan-Read</text><text fill="#000000" font-family="sans-serif" font-size="11" lengthAdjust="spacing" textLength="121" x="101.48" y="228.7002">(durch Fachanwendung)</text></g><!--link changed to unchanged--><g id="link_changed_unchanged"><path d="M68.24,369.5594 C71.01,363.3694 74.04,356.2294 76.48,349.6094 C84.36,328.2394 90.0792,308.7474 94.5092,292.5274 " fill="none" id="changed-to-unchanged" style="stroke:#181818;stroke-width:1.0;"/><polygon fill="#181818" points="96.09,286.7394,89.8601,294.3675,94.7727,291.5627,97.5774,296.4753,96.09,286.7394" style="stroke:#181818;stroke-width:1.0;"/><text fill="#000000" font-family="sans-serif" font-size="11" lengthAdjust="spacing" textLength="77" x="113.48" y="319.0283">Automatisch bei</text><text fill="#000000" font-family="sans-serif" font-size="11" lengthAdjust="spacing" textLength="49" x="127.48" y="332.8643">Plan-Read</text><text fill="#000000" font-family="sans-serif" font-size="11" lengthAdjust="spacing" textLength="121" x="91.48" y="346.7002">(durch Fachanwendung)</text></g><!--link unchanged to changed--><g id="link_unchanged_changed"><path d="M59.48,277.7694 C43.24,283.0294 26.16,291.8494 16.48,306.6094 C6,322.5894 8.36,332.3094 16.48,349.6094 C20.11,357.3394 21.6423,360.1704 28.2223,365.6004 " fill="none" id="unchanged-to-changed" style="stroke:#181818;stroke-width:1.0;"/><polygon fill="#181818" points="32.85,369.4194,28.4544,360.6058,28.9936,366.2369,23.3625,366.7761,32.85,369.4194" style="stroke:#181818;stroke-width:1.0;"/><text fill="#000000" font-family="sans-serif" font-size="11" lengthAdjust="spacing" textLength="53" x="17.48" y="326.0283">Planeintrag</text><text fill="#000000" font-family="sans-serif" font-size="11" lengthAdjust="spacing" textLength="34" x="26.98" y="339.8643">&#228;ndern</text></g><!--link unchanged to removed--><g id="link_unchanged_removed"><path d="M141.64,273.7594 C166.68,277.9794 197.71,287.0694 218.48,306.6094 C236.21,323.2894 242.5673,345.5704 245.5473,363.5204 " fill="none" id="unchanged-to-removed" style="stroke:#181818;stroke-width:1.0;"/><polygon fill="#181818" points="246.53,369.4394,249.002,359.9058,245.7111,364.5069,241.11,361.216,246.53,369.4394" style="stroke:#181818;stroke-width:1.0;"/><text fill="#000000" font-family="sans-serif" font-size="11" lengthAdjust="spacing" textLength="53" x="242.48" y="326.0283">Planeintrag</text><text fill="#000000" font-family="sans-serif" font-size="11" lengthAdjust="spacing" textLength="47" x="245.48" y="339.8643">entfernen</text></g><!--link removed to end--><g id="link_removed_end"><path d="M248.48,404.7994 C248.48,417.5994 248.48,428.8494 248.48,439.5994 " fill="none" id="removed-to-end" style="stroke:#181818;stroke-width:1.0;"/><polygon fill="#181818" points="248.48,445.5994,252.48,436.5994,248.48,440.5994,244.48,436.5994,248.48,445.5994" style="stroke:#181818;stroke-width:1.0;"/></g><!--SRC=[hP0z3i8m38NtdC9ZYvGU0Oc52H1YfHr2uwOHhOlIX0hEmp7OUZ4SjK92C39O_j7dfsTxwnk4ZUrzXkJTBQiQPI3PehPdvMr7_QLHb0gHB5AGMYxXkCE017iUe-KLPNAgBTr3DJuDKW64W-006U5Ly5tBGdrPmmbjJd5F7b3fd18T78_NggmL3KWwa4aB21HxWrhC-GzAxshI-Z0_FaYZO-C_OFr5yvSgfkEX3jlkoloSOSBvKIy0]--></g></svg>